<svg viewBox="0 0 24 24" fill="currentColor"><path d="M13.816 8.977h2.083c-.398-1.964-1.94-3.511-3.899-3.91v2.088c.849.303 1.515.97 1.816 1.822zm4.083 0h2.042c-.462-4.182-3.77-7.499-7.941-7.962v2.047c3.059.442 5.458 2.848 5.899 5.915zM10 3.062V1.015c-4.171.463-7.479 3.78-7.941 7.962h2.042C4.542 5.91 6.941 3.504 10 3.062zm13.275 14.001l.006-.006-5.023-6.03c-.55-.637-1.352-1.048-2.258-1.048h-4c0-.554-.447-1.002-1-1.002s-1 .448-1 1.002H1c-.553 0-1 .448-1 1.002v10.025c0 .553.447 1.003 1 1.003h1.184c.413 1.166 1.511 2.006 2.816 2.006s2.403-.84 2.816-2.005h6.367c.413 1.165 1.512 2.005 2.816 2.005s2.403-.84 2.816-2.005H21c1.656 0 3-1.346 3-3.008 0-.743-.279-1.415-.725-1.939zM5 22.01c-.553 0-1-.45-1-1.003 0-.554.447-1.002 1-1.002.552 0 1 .448 1 1.002 0 .553-.448 1.003-1 1.003zm12 0c-.553 0-1-.45-1-1.003 0-.554.447-1.002 1-1.002.552 0 1 .448 1 1.002 0 .553-.448 1.003-1 1.003zm4-2.006h-1.184C19.403 18.839 18.305 18 17 18s-2.403.84-2.816 2.005H7.816C7.403 18.839 6.305 18 5 18s-2.403.84-2.816 2.005H2v-8.021h14c.269 0 .511.11.69.282l-.003.003 2.268 2.723H16c0-.554-.448-1.002-1-1.002-.553 0-1 .448-1 1.002v1.002c0 .554.447 1.002 1 1.002h5.626l1.089 1.307c.175.182.285.426.285.699 0 .553-.448 1.002-1 1.002zM8.184 8.977c.301-.852.967-1.519 1.816-1.822V5.067c-1.959.398-3.502 1.945-3.899 3.91h2.083zM11 14.992h-1V13.99c0-.554-.448-1.003-1-1.003-.553 0-1 .449-1 1.003v1.002H7c-.553 0-1 .448-1 1.002s.447 1.002 1 1.002h1V18c0 .553.447 1.002 1 1.002.552 0 1-.449 1-1.002v-1.003h1c.552 0 1-.448 1-1.002s-.448-1.003-1-1.003z"/></svg>