<svg viewBox="0 0 24 24" fill="currentColor"><path d="M20 12c2.209 0 4-1.791 4-4s-1.791-4-4-4-4 1.791-4 4H8c0-2.209-1.791-4-4-4S0 5.791 0 8s1.791 4 4 4c-2.209 0-4 1.791-4 4s1.791 4 4 4 4-1.791 4-4h8c0 2.209 1.791 4 4 4s4-1.791 4-4-1.791-4-4-4zm0 6c-1.104 0-2-.896-2-2v-1c0-.553-.447-1-1-1H7c-.553 0-1 .447-1 1v1c0 1.104-.896 2-2 2s-2-.896-2-2 .896-2 2-2c.553 0 1-.448 1-1v-2c0-.553-.447-1-1-1-1.104 0-2-.896-2-2s.896-2 2-2 2 .896 2 2v1c0 .552.447 1 1 1h10c.553 0 1-.448 1-1V8c0-1.104.896-2 2-2s2 .896 2 2-.896 2-2 2c-.553 0-1 .447-1 1v2c0 .552.447 1 1 1 1.104 0 2 .896 2 2s-.896 2-2 2z"/></svg>