<svg viewBox="0 0 24 24" fill="currentColor"><path d="M13 17c0 .553.447 1 1 1h2c.553 0 1-.447 1-1s-.447-1-1-1h-2c-.553 0-1 .447-1 1zm3 2c-.553 0-1 .447-1 1 0 .552.447 1 1 1s1-.448 1-1c0-.553-.447-1-1-1zm-6-5h4c.553 0 1-.447 1-1s-.447-1-1-1h-3v-2h1c.553 0 1-.447 1-1s-.447-1-1-1h-1V6h3c.553 0 1-.447 1-1s-.447-1-1-1h-4c-.553 0-1 .447-1 1v8c0 .553.447 1 1 1zm2 5c-.553 0-1 .447-1 1 0 .552.447 1 1 1s1-.448 1-1c0-.553-.447-1-1-1zm-4-1h2c.553 0 1-.447 1-1s-.447-1-1-1H8c-.553 0-1 .447-1 1s.447 1 1 1zM22 0H2c-.553 0-1 .447-1 1s.447 1 1 1h1v21c0 .552.447 1 1 1h16c.552 0 1-.448 1-1V2h1c.552 0 1-.447 1-1s-.448-1-1-1zm-3 22H5V2h14v20zM8 21c.553 0 1-.448 1-1 0-.553-.447-1-1-1s-1 .447-1 1c0 .552.447 1 1 1z"/></svg>