<svg viewBox="0 0 24 24" fill="currentColor"><path d="M16 4c-1.104 0-2 .896-2 2v5l-1-1.333V1c0-.553-.448-1-1-1-.553 0-1 .447-1 1v8.667L10 11V6c0-1.104-.896-2-2-2-5.054.502-8 4.814-8 10v9c0 .553.447 1 1 1h5c2.209 0 4-1.791 4-4v-5.667l2-2.666 2 2.666V20c0 2.209 1.791 4 4 4h5c.552 0 1-.447 1-1v-9c0-5.186-2.947-9.498-8-10zm-8 8.882l-1.821.91-1.362-1.337C4.638 12.188 4.347 12 4 12c-.553 0-1 .447-1 1 0 .445.363.752.377.764l1.485 1.485-.812 2.435s-.051.09-.051.316c0 .553.447 1 1 1 .441 0 .805-.291.937-.688l.012.004.869-2.607L8 15.118V20c0 1.104-.896 2-2 2H2v-8c0-4.079 2.055-7.507 6-8v6.882zM22 22h-4c-1.104 0-2-.896-2-2v-4.882l1.183.591.868 2.607.012-.004c.132.397.496.688.937.688.553 0 1-.447 1-1 0-.11-.03-.213-.063-.313l-.8-2.438 1.471-1.47c.029-.016.392-.32.392-.779 0-.553-.447-1-1-1-.66 0-.832.445-.832.445l-1.348 1.347-1.82-.91V6c3.945.493 6 3.921 6 8v8z"/></svg>