<svg viewBox="0 0 24 24" fill="currentColor"><path d="M23.524 14.036L20 12l3.524-2.036c.341-.197.498-.595.474-.964-.01-.147-.029-.266-.108-.402l-2.998-5.195c-.276-.479-.887-.643-1.365-.366l-3.524 2.036V1c0-.553-.448-1-1-1H9.007c-.552 0-1 .447-1 1v4.072L4.483 3.036c-.478-.276-1.089-.112-1.365.366L.12 8.598C.04 8.736.021 8.852.012 9c-.023.367.133.768.474.964L4.01 12 .486 14.036c-.368.212-.535.568-.474.964.019.119.044.291.108.402l2.998 5.195c.276.479.888.643 1.366.366l3.524-2.036V23c0 .553.448 1 1 1h5.996c.552 0 1-.447 1-1v-4.072l3.524 2.036c.478.276 1.089.112 1.365-.366l2.998-5.195c.068-.119.108-.399.108-.402-.001-.393-.115-.757-.475-.965zm-3.864 4.696l-5.657-3.269V22h-3.997v-6.536L4.35 18.732l-1.999-3.465L8.007 12 2.351 8.732 4.35 5.268l5.657 3.269V2h3.997v6.536l5.657-3.269 1.999 3.465L16.002 12l5.657 3.268-1.999 3.464z"/></svg>