<svg viewBox="0 0 24 24" fill="currentColor"><path d="M22.195 13.484l-11.68-11.68C9.274.563 7.627 0 6 0 4.486 0 2.992.649 1.837 1.805.675 2.967 0 4.478 0 6c0 1.618.603 3.249 1.837 4.484l11.679 11.679C14.751 23.398 16.381 24 18 24c1.521 0 3.033-.676 4.195-1.837C23.349 21.01 24 19.512 24 18c0-1.579-.562-3.272-1.805-4.516zM3.283 9.037c-1.598-1.598-1.598-4.188 0-5.786 1.598-1.598 4.188-1.598 5.786 0l5.116 5.116-5.786 5.786-5.116-5.116zm17.465 11.68c-1.598 1.598-4.188 1.598-5.785 0l-5.117-5.116 5.786-5.786 5.116 5.116c1.598 1.597 1.598 4.188 0 5.786z"/></svg>