<svg viewBox="0 0 24.005 24" fill="currentColor"><path d="M10.001 8c.553 0 1-.447 1-1s-.447-1-1-1-1 .447-1 1 .447 1 1 1zm4 0c.553 0 1-.447 1-1s-.447-1-1-1-1 .447-1 1 .447 1 1 1zm9.5 12.112c-.479-.298-1.09-.121-1.366.395l-.077.144-6.759-2.15 6.765-2.152.071.134c.276.52.888.697 1.366.397.294-.185.473-.537.5-.879.017-.214-.027-.403-.134-.603l-1-1.879c-.276-.52-.888-.697-1.366-.397-.463.29-.622.918-.383 1.429l-9.117 2.9-9.111-2.899c.227-.504.068-1.116-.389-1.4-.479-.298-1.09-.121-1.366.395l-1 1.868c-.099.184-.142.388-.134.585.014.356.192.696.5.888.479.298 1.09.121 1.366-.395l.077-.144 6.759 2.15-6.765 2.152-.071-.134c-.276-.52-.888-.697-1.366-.397-.313.195-.49.547-.5.911-.005.193.038.391.134.57l1 1.879c.185.349.52.52.866.52.17 0 .342-.022.5-.121.463-.29.622-.918.383-1.429l9.117-2.9 9.111 2.898c-.227.504-.068 1.116.389 1.4.158.098.33.151.5.151.346 0 .681-.201.866-.546l1-1.869c.093-.175.137-.396.134-.585-.005-.366-.184-.69-.5-.887zm-15.5-9.67V11c0 2.209 1.791 4 4 4s4-1.791 4-4v-.558c1.219-1.098 2-2.673 2-4.442 0-3.313-2.687-6-6-6s-6 2.687-6 6c0 1.77.781 3.345 2 4.442zm4-8.442c2.209 0 4 1.791 4 4 0 1.477-.81 2.752-2 3.445V11c0 1.104-.896 2-2 2s-2-.896-2-2V9.445c-1.19-.693-2-1.969-2-3.445 0-2.209 1.791-4 4-4z"/></svg>