<svg viewBox="0 0 24 24" fill="currentColor"><path d="M20 4h-2V3c0-.553-.448-1-1-1h-2V1c0-.553-.447-1-1-1h-4c-.553 0-1 .447-1 1v1H7c-.553 0-1 .447-1 1v1H4c-.553 0-1 .447-1 1v18c0 .552.447 1 1 1h16c.553 0 1-.448 1-1V5c0-.553-.447-1-1-1zM8 4h2c.553 0 1-.447 1-1V2h2v1c0 .553.447 1 1 1h2v2H8V4zm11 18H5V6h1v1c0 .553.447 1 1 1h10c.552 0 1-.447 1-1V6h1v16zm-7-4H8c-.553 0-1 .447-1 1 0 .552.447 1 1 1h4c.553 0 1-.448 1-1 0-.553-.447-1-1-1zm4-8H8c-.553 0-1 .447-1 1s.447 1 1 1h8c.553 0 1-.447 1-1s-.447-1-1-1zm-2 4H8c-.553 0-1 .447-1 1s.447 1 1 1h6c.553 0 1-.447 1-1s-.447-1-1-1z"/></svg>