<svg viewBox="0 0 24.001 24" fill="currentColor"><path d="M23.124 16.868l-2.139-2.117c-1.181-1.17-3.097-1.17-4.277 0-.252.248-.438.534-.582.835l-2.689-2.671 9.294-9.222c.189-.186.261-.448.269-.693.009-.266-.064-.516-.27-.718-.195-.194-.473-.281-.73-.282-.26-.001-.497.086-.695.282l-9.289 9.221-9.289-9.221C2.528 2.086 2.259 1.999 2 2c-.257.001-.504.088-.7.282-.205.203-.309.451-.3.718.009.244.112.507.3.693l9.295 9.222-2.689 2.671c-.145-.301-.331-.587-.582-.835-1.181-1.17-3.097-1.17-4.277 0l-2.14 2.117C.309 17.46-.008 18.225 0 19c.007.757.323 1.524.906 2.103.586.579 1.327.891 2.094.897.781.006 1.588-.308 2.185-.897l6.831-6.776 6.831 6.776c.586.58 1.384.893 2.153.897.779.004 1.529-.309 2.124-.897.573-.568.859-1.36.876-2.103.018-.789-.268-1.53-.876-2.132zm-17.227.705l-.713.706-1.425 1.411c-.394.39-1.032.39-1.426 0-.395-.39-.395-1.021 0-1.411l2.139-2.117c.394-.39 1.032-.39 1.426 0s.393 1.022-.001 1.411zm15.801 2.117c-.394.39-1.032.39-1.426 0l-1.426-1.411-.713-.706c-.394-.39-.394-1.021 0-1.411s1.032-.39 1.426 0l2.139 2.117c.394.39.394 1.022 0 1.411z"/></svg>