<svg viewBox="0 0 24 24" fill="currentColor"><path d="M21 7c-1.657 0-3 1.343-3 3 0 1.305.838 2.403 2 2.816V17c0 2.762-2.757 5-5.518 5C11.721 22 9 19.762 9 17v-2.069c3.945-.493 7-3.852 7-7.931V2c0-.553-.448-1-1-1h-2c0-.553-.447-1-1-1s-1 .447-1 1v2c0 .552.447 1 1 1s1-.448 1-1h1v4c0 3.313-2.687 6-6 6s-6-2.687-6-6V3h1c0 .552.447 1 1 1 .552 0 1-.448 1-1V1c0-.553-.448-1-1-1-.553 0-1 .447-1 1H1c-.553 0-1 .447-1 1v5c0 4.079 3.055 7.438 7 7.931V17c0 3.866 3.616 7 7.482 7S22 20.866 22 17v-4.184c1.162-.413 2-1.512 2-2.816 0-1.657-1.344-3-3-3zm0 4c-.553 0-1-.448-1-1 0-.553.447-1 1-1s1 .447 1 1c0 .552-.447 1-1 1z"/></svg>