<svg viewBox="0 0 24 24" fill="currentColor"><path d="M15 20c2.24 0 4-5.666 4-7v-1c0-.553-.447-1-1-1h-6c-.553 0-1 .447-1 1v1c0 2.209-.271 7 4 7zm-2-7h4c0 .171-.739 5-2 5-2.604 0-2-3.239-2-5zM1 14c.23 0 .433-.091.602-.222C2.217 13.539 3.123 13 4 13h2s4-.412 4-6V1c0-.553-.448-1-1-1-.553 0-1 .447-1 1v6c0 3.421-2 3.969-2 3.969-.654-.012-1.331.031-2 .031-1.203 0-2.762.699-3.656 1.188 0 0-.344.218-.344.812 0 .553.447 1 1 1zM18 2c-1.187 0-3.313.716-4 1.69V1c0-.553-.448-1-1-1-.553 0-1 .447-1 1v7c0 .553.447 1 1 1 .552 0 1-.447 1-1 0-2.209 1.791-4 4-4s4 1.791 4 4c0 2.446-3.219 9.56-3.75 11-.438 1.282-1.594 3-3.25 3-5.219 0-5.593-7-10-7-1.822 0-3.762.699-4.656 1.188 0 0-.344.218-.344.812 0 .553.447 1 1 1 .23 0 .433-.091.602-.222C2.217 17.539 3.541 17 5 17c2.931 0 3.622 7 10 7 3.237 0 4.761-3.434 4.761-3.434l4.015-10.595s.225-1.63.225-1.972C24 4.687 21.313 2 18 2z"/></svg>