<svg viewBox="0 0 24 24" fill="currentColor"><path d="M20.48 3.488C18.131 1.138 15.08-.004 12 0 8.93.004 5.83 1.146 3.488 3.488 1.138 5.838-.004 8.92 0 12c.004 3.069 1.146 6.139 3.488 8.48C5.83 22.823 8.93 23.996 12 24c3.08.004 6.131-1.169 8.48-3.52 2.334-2.334 3.508-5.42 3.52-8.48.012-3.091-1.161-6.154-3.52-8.512zM3.105 16.615C2.362 15.192 2.013 13.566 2 12c-.021-2.589.929-5.121 2.904-7.096C6.863 2.944 9.433 1.995 12 2c1.587.003 3.174.353 4.615 1.105l-13.51 13.51zm1.799 2.449c-.239-.239-.463-.487-.673-.744L18.32 4.231c.257.21.505.434.744.673.239.238.463.487.672.743L5.647 19.737c-.255-.21-.504-.433-.743-.673zm14.16 0C17.113 21.016 14.558 21.996 12 22c-1.598.002-3.195-.379-4.646-1.137l13.51-13.51C21.626 8.814 22.007 10.393 22 12c-.012 2.547-.992 5.121-2.936 7.064z"/></svg>