<svg viewBox="0 0 24 24" fill="currentColor"><path d="M12 2c.553 0 1-.448 1-1 0-.553-.447-1-1-1s-1 .447-1 1c0 .552.447 1 1 1zm3 3c.552 0 1-.448 1-1 0-.553-.448-1-1-1-.553 0-1 .447-1 1 0 .552.447 1 1 1zM9 7c.552 0 1-.448 1-1 0-.553-.448-1-1-1-.553 0-1 .447-1 1 0 .552.447 1 1 1zm7 2H8c-.553 0-1 .447-1 1 0 .552.447 1 1 1v9c0 2.209 1.791 4 4 4s4-1.791 4-4v-9c.553 0 1-.448 1-1 0-.553-.447-1-1-1zm-2 11c0 1.104-.896 2-2 2s-2-.896-2-2v-2c.493.176 1.505-.067 1.969-.531.425-.425 1.503-.682 2.031-.469v3zm0-5c-.541-.228-1.502.002-2 .5-.434.434-1.478.711-2 .5v-5h4v4z"/></svg>