<svg viewBox="0 0 24 24" fill="currentColor"><path d="M16 11.294V4c0-2.209-1.791-4-4-4S8 1.791 8 4v7.294C6.194 12.557 5 14.629 5 17c0 3.866 3.134 7 7 7s7-3.134 7-7c0-2.371-1.194-4.443-3-5.706zM12 22c-2.761 0-5-2.238-5-5 0-1.631.792-3.064 2-3.978 0 0 1-.394 1-1.022V4c0-1.104.896-2 2-2s2 .896 2 2v8c0 .66 1 1.022 1 1.022 1.208.913 2 2.347 2 3.978 0 2.762-2.239 5-5 5zm1-7.812V10c0-.553-.448-1-1-1s-1 .447-1 1v4.188c-1.162.414-2 1.508-2 2.812 0 1.657 1.343 3 3 3s3-1.343 3-3c0-1.304-.838-2.398-2-2.812zM12 18c-.552 0-1-.447-1-1s.448-1 1-1 1 .447 1 1-.448 1-1 1z"/></svg>