<svg viewBox="0 0 24 24" fill="currentColor"><path d="M8 15c-2.209 0-4 1.51-4 3 0 .552.447 1 1 1s1-.448 1-1c0-.542.896-1 2-1h3v3c0 .552.447 1 1 1 .552 0 1-.448 1-1v-3h3c1.104 0 2 .458 2 1 0 .552.447 1 1 1s1-.448 1-1c0-1.521-1.791-3-4-3h-3v-3h3c1.104 0 2 .458 2 1 0 .553.447 1 1 1s1-.447 1-1c0-1.521-1.791-3-4-3h-3V7h3c1.104 0 2 .458 2 1 0 .553.447 1 1 1s1-.447 1-1c0-1.521-1.791-3-4-3h-3V4c0-.553-.448-1-1-1-.553 0-1 .447-1 1v1H8C5.791 5 4 6.51 4 8c0 .553.447 1 1 1s1-.447 1-1c0-.542.896-1 2-1h3v3H8c-2.209 0-4 1.51-4 3 0 .553.447 1 1 1s1-.447 1-1c0-.542.896-1 2-1h3v3H8zM23 0H1C.447 0 0 .447 0 1v22c0 .552.447 1 1 1h22c.552 0 1-.448 1-1V1c0-.553-.448-1-1-1zm-1 22H2V2h20v20z"/></svg>