<svg viewBox="0 0 24 24" fill="currentColor"><path d="M22 16v-3c0-4.493-2.966-8.29-7.045-9.551.022-.147.045-.295.045-.449 0-1.657-1.343-3-3-3S9 1.343 9 3c0 .154.022.302.045.449C4.966 4.71 2 8.507 2 13v3c-.553 0-1 .447-1 1v6c0 .553.447 1 1 1h20c.553 0 1-.447 1-1v-6c0-.553-.447-1-1-1zM12 2c.553 0 1 .447 1 1s-.447 1-1 1c-.553 0-1-.447-1-1s.447-1 1-1zM4 13c0-3.727 2.552-6.849 6-7.738v-.04C10.531 5.7 11.229 6 12 6c.771 0 1.469-.3 2-.778v.04c3.448.89 6 4.012 6 7.738v3H4v-3zm1 9H3v-4h2v4zm4 0H7v-4h2v4zm4 0h-2v-4h2v4zm4 0h-2v-4h2v4zm4 0h-2v-4h2v4z"/></svg>