<svg viewBox="0 0 24 24" fill="currentColor"><path d="M19 13l-6-.857V3c0-1.657-1.343-3-3-3S7 1.343 7 3H1c-.553 0-1 .447-1 1v19c0 .553.447 1 1 1h22c.553 0 1-.447 1-1v-5c0-2.762-2.238-5-5-5zM9 3c0-.553.447-1 1-1s1 .447 1 1v4H9V3zm13 19h-4c0-.553-.447-1-1-1s-1 .447-1 1h-2c0-.553-.447-1-1-1-.553 0-1 .447-1 1h-2c0-.553-.447-1-1-1s-1 .447-1 1H6c0-.553-.447-1-1-1s-1 .447-1 1H2v-2h20v2zM2 18V5h5v2H6c-.553 0-1 .447-1 1s.447 1 1 1h5v2H7c-.553 0-1 .447-1 1 0 .553.447 1 1 1h4c0 .553.447 1 1 1l7 1c1.657 0 3 1.343 3 3H2z"/></svg>