<svg viewBox="0 0 24 24" fill="currentColor"><path d="M16.583 13.098l-.002-.006-3.392 1.565 2.228 1.175 1.226-.564.877 1.314-.361.167 2.229 1.175.033-.016-.002-.006c.34-.158.581-.5.581-.902 0-.205-.077-.386-.184-.545l.016-.01-2-3-.016.01C17.639 13.188 17.348 13 17 13c-.15 0-.289.038-.417.098zM12 12c2.762 0 5-2.238 5-5 0-2.429-2.268-5.766-4-7 0 2.5-.717 6-2 6-.989 0-1.969-1.25-2-3-.858.422-2 2.915-2 4 0 2.762 2.238 5 5 5zm-1-4c1.489 0 3.406-1.534 3.406-4 .41.41.594 2.236.594 3 0 1.476-1.529 3-3 3-2.775 0-3-3-3-3 .219.219.775 1 2 1zm8.417 11.098l.002-.006-12-6-.002.006C7.289 13.038 7.15 13 7 13c-.347 0-.638.188-.816.455l-.016-.01-2 3 .016.01c-.107.159-.184.34-.184.545 0 .402.241.744.583.902l-.002.006 12 6 .002-.006c.128.06.267.098.417.098.348 0 .639-.188.816-.455l.016.01 2-3-.016-.01c.107-.159.184-.34.184-.545 0-.402-.241-.744-.583-.902zm-2.76 2.613l-10.197-5.1.883-1.322 10.197 5.1-.883 1.322zm-9.3.021l-.877-1.314.362-.167-2.228-1.175-.034.016.002.006c-.341.158-.582.5-.582.902 0 .205.077.386.184.545l-.016.01 2 3 .016-.01c.178.268.469.455.816.455.15 0 .289-.038.417-.098l.002.006 3.392-1.565-2.229-1.175-1.225.564z"/></svg>