<svg viewBox="0 0 24 24" fill="currentColor"><path d="M16 9c-.111 0-.213.029-.313.063l-.004-.012-6 2 .004.012c-.297.099-.534.327-.635.621l-.002-.001-2 6h.002c-.033.1-.052.206-.052.317 0 .553.447 1 1 1 .11 0 .213-.029.313-.063l.004.012 6-2v-.001c.293-.101.521-.339.621-.636l.012.004 2-6-.001-.001c.031-.098.051-.204.051-.315 0-.553-.447-1-1-1zm-6.419 7.419l.855-2.567 1.712 1.711-2.567.856zm3.982-2.271l-1.71-1.712 2.567-.855-.857 2.567zM15 4.459V3c0-1.657-1.343-3-3-3S9 1.343 9 3v1.459C4.943 5.733 2 9.522 2 14c0 5.521 4.478 10 10 10 5.521 0 10-4.479 10-10 0-4.478-2.943-8.267-7-9.541zM11 3c0-.553.447-1 1-1 .553 0 1 .447 1 1v1.051C12.671 4.018 12.338 4 12 4s-.671.018-1 .051V3zm1 19c-4.418 0-8-3.582-8-8s3.582-8 8-8 8 3.582 8 8-3.582 8-8 8z"/></svg>