<svg viewBox="0 0 24 24" fill="currentColor"><path d="M12 13c.552 0 1-.447 1-1 0-.553-.448-1-1-1s-1 .447-1 1c0 .553.448 1 1 1zm5.727-6.72c-.264-.263-.633-.333-.967-.242l-.003-.008-8 2 .001.004c-.164.044-.321.114-.45.243-.138.138-.209.31-.25.487l-.028-.006-2 8 .025.006c-.073.323-.001.674.25.926.253.252.604.324.929.248l.008.033 8-2-.008-.029c.178-.039.35-.11.488-.25.127-.127.198-.285.242-.449l.006.001 1.965-7.863c.018-.04.02-.082.031-.123l.004-.014h-.002c.091-.335.018-.702-.241-.964zm-3.552 7.896l-5.801 1.45 1.45-5.802 5.801-1.45-1.45 5.802zM12 0C5.373 0 0 5.373 0 12s5.373 12 12 12 12-5.373 12-12S18.627 0 12 0zm1 21.949V21c0-.553-.448-1-1-1s-1 .447-1 1v.949c-4.724-.47-8.48-4.224-8.95-8.949H3c.552 0 1-.447 1-1 0-.553-.448-1-1-1h-.949C2.521 6.276 6.276 2.52 11 2.051V3c0 .553.448 1 1 1s1-.447 1-1v-.949c4.725.469 8.479 4.225 8.949 8.949H21c-.552 0-1 .447-1 1 0 .553.448 1 1 1h.95c-.47 4.725-4.225 8.479-8.95 8.949z"/></svg>