<svg viewBox="0 0 24 24" fill="currentColor"><path d="M18 12h-2c-.799 0-1.521.317-2.059.826-.176-.397-.352-.749-.502-1.035C14.936 11.357 16 10.274 16 9c1.49 0 3-1.343 3-3s-1.541-3-3-3c0-1.657-1.791-3-4-3S8 1.343 8 3C6.541 3 5 4.343 5 6s1.541 3 3 3c0 1.535 1.544 2.787 3.528 2.964C12.121 13.126 13 15.15 13 17v6c0 .553.448 1 1 1s1-.447 1-1v-5h1c1.657 0 3-1.343 3-3v-2c0-.553-.448-1-1-1zm-6-2c-1.104 0-2-.447-2-1V8c0-.553-.448-1-1-1H8c-.792 0-1-.666-1-1 0-.271.177-1 1-1h1c.552 0 1-.447 1-1V3c0-.553.896-1 2-1s2 .447 2 1v1c0 .553.448 1 1 1h1c.792 0 1 .76 1 1 0 .271-.208 1-1 1h-1c-.552 0-1 .447-1 1v1c0 .553-.896 1-2 1zm5 5c0 .553-.448 1-1 1h-1v-1c0-.553.448-1 1-1h1v1zM12 5c-.552 0-1 .447-1 1s.448 1 1 1 1-.447 1-1-.448-1-1-1z"/></svg>