<svg viewBox="0 0 24 24" fill="currentColor"><path d="M23.939 15.158L19.932 4.161c-.14-.384-.5-.661-.932-.661-.799 0-.938.648-.938.648l-2.201 6.606-2.935-7.612c-.142-.373-.5-.642-.926-.642-.796 0-.934.641-.934.641l-2.928 7.613-2.201-6.566C5.804 3.791 5.441 3.5 5 3.5c-.804 0-.94.658-.94.658l-4 11S0 15.254 0 15.5c0 .552.448 1 1 1h3v2c0 .553.448 1 1 1s1-.447 1-1v-2c0 .553.448 1 1 1h4v3c0 .553.448 1 1 1s1-.447 1-1v-3h4c.552 0 1-.447 1-1v2c0 .553.448 1 1 1s1-.447 1-1v-2h3c.552 0 1-.448 1-1 0-.246-.061-.342-.061-.342zM6.698 14.5h-4.27l2.531-6.961 2.05 6.15-.311.811zm1.758 1L12 6.285l3.544 9.215H8.456zm8.846-1l-.312-.811 2.05-6.151 2.532 6.962h-4.27z"/></svg>