<svg viewBox="0 0 24 24" fill="currentColor"><path d="M21 6c0-1.657-1.343-3-3-3h-2c.552 0 1-.447 1-1s-.448-1-1-1h-1c0-.553-.448-1-1-1h-4c-.552 0-1 .447-1 1H8c-.552 0-1 .447-1 1s.448 1 1 1H6C4.343 3 3 4.343 3 6L2 18c0 1.657 1.343 3 3 3h2v1H6c-.552 0-1 .447-1 1s.448 1 1 1h12c.552 0 1-.447 1-1s-.448-1-1-1h-1v-1h2c1.657 0 3-1.343 3-3L21 6zm-6 16H9v-1c0-.553.448-1 1-1h4c.552 0 1 .447 1 1v1zm0-5H9c-.552 0-1-.447-1-1l1-8c0-.553.448-1 1-1h4c.552 0 1 .447 1 1l1 8c0 .553-.448 1-1 1zm4 2h-2.779c-.063-.068-.138-.125-.207-.188C17.169 18.395 18 17.299 18 16l-1-8c0-1.657-1.343-3-3-3h-4C8.343 5 7 6.343 7 8l-1 8c0 1.299.83 2.395 1.985 2.813-.068.062-.144.119-.207.187H5c-.552 0-1-.447-1-1L5 6c0-.553.448-1 1-1h4c-.552 0-1-.447-1-1s.448-1 1-1h4c.552 0 1 .447 1 1s-.448 1-1 1h4c.552 0 1 .447 1 1l1 12c0 .553-.448 1-1 1z"/></svg>