<svg viewBox="0 0 24 24" fill="currentColor"><path d="M7 14c-1.657 0-3 1.343-3 3s1.343 3 3 3 3-1.343 3-3-1.343-3-3-3zm0 4c-.553 0-1-.447-1-1s.447-1 1-1c.552 0 1 .447 1 1s-.448 1-1 1zM23 1c0-.553-.447-1-1-1-.275 0-.525.112-.707.293l-2 2C19.111 2.474 19 2.724 19 3c0 .169.053.32.126.46l-4.181 4.18C14.341 7.249 13.667 7 13 7c-2.843 0-4.018 2-5 2-4.418 0-8 3.582-8 8 0 3.012 4.051 7 7 7 4.418 0 8-3.582 8-8 0-.975 2-2.105 2-5 0-.673-.25-1.345-.641-1.946l4.181-4.18c.14.073.291.126.46.126.275 0 .525-.112.707-.293l2-2C23.889 2.526 24 2.276 24 2c0-.553-.447-1-1-1zM13 16c0 3.379-2.621 6-6 6-2.006 0-5-3.009-5-5 0-3.379 2.621-6 6-6 1.908 0 2.826-2 5-2 .171 0 .338.035.502.084l-3.209 3.209c-.181.181-.293.432-.293.707 0 .553.447 1 1 1 .276 0 .526-.111.707-.293l3.209-3.209c.049.163.084.33.084.502 0 2.214-2 3.005-2 5z"/></svg>