<svg viewBox="0 0 24 24" fill="currentColor"><path d="M21 8h-1V1c0-.553-.448-1-1-1h-3c-.275 0-.525.112-.707.293L12 3.586 8.707.293C8.526.112 8.276 0 8 0H5c-.552 0-1 .447-1 1v7H3c-.552 0-1 .447-1 1v14c0 .553.448 1 1 1h18c.552 0 1-.447 1-1V9c0-.553-.448-1-1-1zm-10 2h-1c-.552 0-1 .447-1 1s.448 1 1 1h1v2h-1c-.552 0-1 .447-1 1s.448 1 1 1h1v2h-1c-.552 0-1 .447-1 1s.448 1 1 1h1v2H4V10c1.104 0 2-.896 2-2V2h1.586L11 5.414V10zm9 12h-7v-2h1c.552 0 1-.447 1-1s-.448-1-1-1h-1v-2h1c.552 0 1-.447 1-1s-.448-1-1-1h-1v-2h1c.552 0 1-.447 1-1s-.448-1-1-1h-1V5.414L16.414 2H18v6c0 1.104.896 2 2 2v12z"/></svg>