<svg viewBox="0 0 24 24" fill="currentColor"><path d="M22.125 4.686L20.719 3.28c-.389-.389-1.019-.389-1.406 0l-7.03 7.031c-.19.19-.285.438-.289.688-1.1-.005-1.99-.897-1.99-1.999V8c0-.553-.447-1-1-1h-4c-.553 0-1 .447-1 1v1c0 1.104-.896 2-2 2-.553 0-1 .447-1 1v9c0 1.657 1.343 3 3 3h6c1.657 0 3-1.343 3-3v-8.563l.687.686c1.164 1.164 3.054 1.164 4.219 0l4.219-4.219c1.16-1.165 1.16-3.053-.004-4.218zM6.002 9h2v2h-2V9zm5 12c0 .553-.447 1-1 1h-6c-.553 0-1-.447-1-1v-8h8v8zm9.717-13.502L16.5 11.717c-.389.388-1.02.388-1.406 0l-.703-.703 5.625-5.625.703.703c.386.387.386 1.017 0 1.406zM7.002 5c1.104 0 2-.896 2-2s-1.989-3-2-3c-.011 0-2 1.896-2 3s.895 2 2 2z"/></svg>