<svg viewBox="0 0 24 24" fill="currentColor"><path d="M23 12c0-.161-.047-.308-.113-.442l.008-.005-2-4-.008.005C20.721 7.23 20.391 7 20 7c-.161 0-.309.047-.441.114l-.006-.009L17 8.382V4c0-2.209-3.582-4-8-4S1 1.791 1 4v16c0 2.209 3.582 4 8 4s8-1.791 8-4v-4.382l5.447-2.724-.006-.01c.329-.163.559-.493.559-.884zM9 2c3.313 0 6 1.396 6 2 0 .573-2.687 2-6 2S3 4.604 3 4s2.687-2 6-2zm6 12.3V20c0 .573-2.687 2-6 2v-5c0-.275-.112-.525-.293-.707L7 14.586V11c0-.553-.447-1-1-1s-1 .447-1 1v4c0 .275.112.525.293.707L7 17.414v4.408C4.675 21.434 3 20.477 3 20V6.64C4.466 7.472 6.607 8 9 8v2c0 .276.112.526.293.707L11 12.414V17c0 .553.447 1 1 1 .553 0 1-.447 1-1v-5c0-.276-.111-.526-.293-.707L11 9.586V7.86c1.568-.204 2.96-.63 4-1.221v5.011l4.553-2.309 1.105 2.211L15 14.3z"/></svg>