<svg viewBox="0 0 24 24" fill="currentColor"><path d="M6 3c0-1.657-1.343-3-3-3S0 1.343 0 3v2c0 1.305.838 2.403 2 2.816V23c0 .553.447 1 1 1s1-.447 1-1V7.816C5.162 7.403 6 6.305 6 5V3zM4 5c0 .553-.447 1-1 1s-1-.447-1-1V3c0-.553.447-1 1-1s1 .447 1 1v2zm20 4c0-.553-.447-1-1-1H12c-.309 0-.574.148-.758.368l-.011-.009-5 8 .011.009C6.098 16.542 6 16.757 6 17v6c0 .553.447 1 1 1h11c.309 0 .574-.148.758-.368l.012.009 5-8-.012-.009c.144-.174.242-.389.242-.632V9zm-7 13H8v-4h9v4zm.457-6H8.793l1.25-2h8.664l-1.25 2zm-6.164-4l1.25-2h8.664l-1.25 2h-8.664zM22 14.73l-3 4.799v-2.26l3-4.799v2.26z"/></svg>