<svg viewBox="0 0 24 24" fill="currentColor"><path d="M23.927 22.641l.005-.002-7-18-.005.001C16.782 4.267 16.425 4 16 4s-.782.267-.928.64l-.004-.002-4.998 12.848-3.141-7.857-.004.001C6.777 9.262 6.421 9 6 9c-.426 0-.783.269-.928.644l-.006-.003-5 13 .006.002C.029 22.755 0 22.873 0 23c0 .553.447 1 1 1 .426 0 .783-.27.928-.645l.006.004 4.085-10.621 2.991 7.479-.941 2.422.004.002C8.029 22.752 8 22.872 8 23c0 .553.447 1 1 1 .425 0 .782-.268.927-.641l.005.002L16 7.759l6.068 15.604.004-.002c.146.371.503.639.928.639.553 0 1-.447 1-1 0-.128-.029-.248-.073-.359zM9 6c1.657 0 3-1.343 3-3s-1.343-3-3-3-3 1.343-3 3 1.343 3 3 3zm0-4c.553 0 1 .447 1 1s-.447 1-1 1-1-.447-1-1 .447-1 1-1z"/></svg>