<svg viewBox="0 0 24 24" fill="currentColor"><path d="M23.707 9.293l-6-6C17.525 3.112 17.275 3 17 3h-3c-.553 0-1 .447-1 1s-.447 1-1 1c-.553 0-1-.447-1-1s-.447-1-1-1H7c-.276 0-.526.112-.707.293l-6 6S0 9.454 0 10s.293.707.293.707l3 3c.181.182.431.293.707.293s.526-.111.707-.293L6 12.414V20c0 .553.447 1 1 1h10c.553 0 1-.447 1-1v-7.586l1.293 1.293c.182.182.432.293.707.293s.525-.111.707-.293l3-3c.182-.181.293-.431.293-.707 0-.546-.293-.707-.293-.707zM16 19H8v-2.586l3-3 2.293 2.293c.182.182.432.293.707.293s.525-.111.707-.293L16 14.414V19zm4-7.414l-2.293-2.293S17.546 9 17 9c-.553 0-1 .447-1 1v1.586l-2 2-2.293-2.293C11.526 11.112 11.276 11 11 11s-.526.112-.707.293L8 13.586V10c0-.553-.447-1-1-1-.546 0-.707.293-.707.293L4 11.586 2.414 10l5-5h1.77C9.597 6.162 10.695 7 12 7s2.402-.838 2.816-2h1.77l5 5L20 11.586z"/></svg>