<svg viewBox="0 0 24 24" fill="currentColor"><path d="M20 14h-8.842C12.406 12.045 15 7.669 15 5.063V3c0-.553-.447-1-1-1-.256 0-.456.109-.396.083l-4.92 1.969.004.012c-.227.075-.41.231-.533.429l-.012-.008-5.993 9.988C.877 15.145 0 16.462 0 18c0 2.209 1.791 4 4 4h16c2.209 0 4-1.791 4-4s-1.791-4-4-4zM9.686 5.801L13 4.476V5c0 2.6-2.894 7.03-4.277 9H4.767l4.919-8.199zM20 20H4c-1.104 0-2-.896-2-2s.896-2 2-2h16c1.104 0 2 .896 2 2s-.896 2-2 2zm-1-3c-.553 0-1 .447-1 1s.447 1 1 1 1-.447 1-1-.447-1-1-1z"/></svg>