<svg viewBox="0 0 24 24" fill="currentColor"><path d="M23 18c-.553 0-1 .447-1 1v.566L13.186 5.714l2.658-4.177-.016-.01c.1-.155.172-.329.172-.527 0-.553-.447-1-1-1-.354 0-.65.195-.828.473l-.016-.01L12 3.852 9.844.463l-.016.01C9.65.195 9.354 0 9 0c-.553 0-1 .447-1 1 0 .198.072.372.172.527l-.016.01 2.658 4.177L2 19.566V19c0-.553-.447-1-1-1s-1 .447-1 1v4c0 .553.447 1 1 1h22c.553 0 1-.447 1-1v-4c0-.553-.447-1-1-1zM7.868 22L12 15.803 16.132 22H7.868zm10.667 0l-5.703-8.555-.016.01C12.639 13.188 12.347 13 12 13s-.638.188-.816.455l-.016-.01L5.465 22H2.821L12 7.577 21.18 22h-2.645z"/></svg>