<svg viewBox="0 0 24 24" fill="currentColor"><path d="M18 5h-2V3.077l.371-.148-.001-.004c.368-.148.63-.504.63-.925 0-.553-.447-1-1-1-.131 0-.255.028-.37.074l-.001-.003-.018.007-.002.001L5.808 5H1c-.553 0-1 .447-1 1v13c0 .553.447 1 1 1h3c0 1.657 1.343 3 3 3s3-1.343 3-3h6v2c0 .553.447 1 1 1s1-.447 1-1v-2h2c2.512 0 4-2.582 4-7s-3.051-8-6-8zm-1 2v3h-3V7h3zm-3-3.123V5h-2.808L14 3.877zM5 7h3v3H5V7zm2 14c-.553 0-1-.447-1-1h2c0 .553-.447 1-1 1zm13-3H2v-2h19.402c-.4 1.219-.934 2-1.402 2zm1.854-4H2V7h1v4c0 .553.447 1 1 1h5c.553 0 1-.447 1-1V7h2v4c0 .553.447 1 1 1h5c.553 0 1-.447 1-1V7.271c1.543.733 3 3.006 3 5.729 0 .705-.061.371-.146 1z"/></svg>