<svg viewBox="0 0 24 24" fill="currentColor"><path d="M12 0C7.582 0 4 3.582 4 8v2c0 4.079 3.055 7.438 7 7.932V23c0 .553.447 1 1 1 .553 0 1-.447 1-1v-5.068c3.945-.494 7-3.853 7-7.932V8c0-4.418-3.582-8-8-8zm6 10c0 2.971-2.165 5.421-5 5.898v-5.484l2.707-2.707C15.889 7.526 16 7.276 16 7c0-.553-.447-1-1-1-.275 0-.525.112-.707.293L12.5 8.086 9.707 5.293C9.526 5.112 9.276 5 9 5c-.553 0-1 .447-1 1 0 .276.112.526.293.707L11 9.414v2.172l-1.293-1.293C9.526 10.112 9.276 10 9 10c-.553 0-1 .447-1 1 0 .276.112.526.293.707L11 14.414v1.484C8.165 15.421 6 12.971 6 10V8c0-3.313 2.687-6 6-6s6 2.687 6 6v2z"/></svg>