<svg viewBox="0 0 24 24" fill="currentColor"><path d="M23.707 15.293l-5.895-7.859c-.024-.034-.047-.069-.076-.101l-.029-.04-.007.007c-.18-.182-.425-.3-.7-.3H7c-.276 0-.52.118-.7.3l-.007-.007-.03.04c-.029.031-.052.066-.075.101L.293 15.293C.112 15.475 0 15.725 0 16c0 .553.447 1 1 1 .276 0 .526-.111.707-.293l1.922-2.563-.548 1.461h.001C3.029 15.729 3 15.859 3 16c0 .553.447 1 1 1h16c.553 0 1-.447 1-1 0-.141-.029-.271-.082-.395h.001l-.548-1.461 1.922 2.563c.182.182.432.293.707.293.553 0 1-.447 1-1 0-.275-.111-.525-.293-.707zM5.441 15L7 10.845 8.559 15H5.441zm5.25 0l-2.25-6h7.868l2.25 6h-7.868z"/></svg>