<svg viewBox="0 0 24 24" fill="currentColor"><path d="M20 0v8.004c-1.242-1.653-2.982-2.911-5-3.545V1c0-.553-.447-1-1-1h-4c-.553 0-1 .447-1 1v3.459c-2.018.634-3.759 1.892-5 3.545V0H2v14c0 5.521 4.478 10 10 10 5.521 0 10-4.479 10-10V0h-2zm-9 6.069V2h2v4.069c2.354.294 4.37 1.62 5.631 3.497L12 12.882 5.369 9.566C6.63 7.689 8.647 6.363 11 6.069zM4.46 16.652C4.167 15.82 4 14.932 4 14s.177-1.816.47-2.647L9.764 14 4.46 16.652zM12 22c-2.773 0-5.217-1.412-6.651-3.557L12 15.118l6.65 3.325C17.216 20.588 14.773 22 12 22zm7.54-5.348L14.236 14l5.293-2.647c.294.831.471 1.715.471 2.647s-.167 1.82-.46 2.652z"/></svg>