<svg xmlns="http://www.w3.org/2000/svg" fill="currentColor" viewBox="0 0 85 13">
  <path d="M84.6049 10.2618c-.2038.0753-.4196.1136-.6372.1129-.3187-.0024-.6316-.0849-.91-.24-.1428-.0822-.2739-.18308-.39-.3l-.47-.47c-.2204-.21762-.4654-.4089-.73-.57-.6643-.40153-1.437-.58645-2.2111-.52911-.774.05734-1.5111.35409-2.1089.84911-.1004.07513-.194.15878-.28.25l-.47.47c-.2997.3021-.6952.4903-1.1186.5323-.4234.0419-.8483-.0649-1.2014-.3023-.1024-.06499-.1964-.14222-.28-.23l-.48-.47-.27-.24h-.05l-.25-.18c-.6101-.40613-1.3271-.62192-2.06-.62-.7356.00085-1.455.21632-2.07.62-.0907.05764-.1776.12111-.26.19h-.05c-.0981.08143-.1916.16823-.28.26l-.48.47c-.0417.0484-.0886.09201-.14.13001-.3018.24169-.6725.38149-1.0587.39949-.3863.018-.7683-.0869-1.0913-.2995l-.13-.09-.13-.11-.24-.23-.24-.24c-.1303-.13092-.2707-.2513-.42-.36-.6136-.46229-1.355-.72384-2.1229-.7489-.7678-.02506-1.5247.1876-2.1671.6089l-.33.33c-.0815.06815-.1583.14164-.23.22l-.48.47c-.1674.1724-.3681.3092-.5898.402-.2217.0928-.4599.1398-.7002.138-.3155-.0024-.6252-.085-.9-.24-.1414-.0797-.2696-.1809-.38-.3l-.24-.23-.24-.24-.24-.22-.33-.33-.12-.07c-.6643-.40153-1.437-.58645-2.2111-.52911-.774.05734-1.5111.35409-2.1089.84911-.0982.0777-.1917.16118-.28.25l-.47.47c-.2997.3021-.6952.4903-1.1186.5323-.4235.0419-.8483-.0649-1.2014-.3023-.1024-.065-.1964-.14222-.28-.23l-.47-.47-.27-.24h-.05l-.25-.18c-.6128-.40427-1.3308-.61978-2.065-.61978s-1.4522.21551-2.065.61978c-.0907.05764-.1776.1211-.26.19h-.05l-.28.26-.48.47c-.0408.04581-.0842.0892-.13.13-.3019.2417-.6725.3815-1.0588.3995-.3862.018-.7682-.0869-1.0912-.2995l-.13-.09-.12-.11-.24-.23-.24-.24c-.1281-.13328-.2687-.25385-.42-.36-.6464-.48478-1.432-.74784-2.24-.75-.7277.00231-1.4394.21407-2.05.61h-.05l-.32.33c-.0869.06549-.1672.13916-.24.22l-.48.47c-.1674.1724-.3681.3092-.5898.402-.2217.0928-.4599.1397-.7002.138-.3155-.0024-.6252-.085-.9-.24-.1414-.0797-.2696-.181-.38-.3l-.24-.23-.24-.24c-.0728-.08084-.1531-.15451-.24-.22l-.32-.33-.12-.07c-.6643-.40153-1.437-.58645-2.211-.52911-.7741.05734-1.5112.35409-2.109.84911-.0971.07532-.1875.15897-.27.25l-.48.47c-.2997.3021-.6952.4903-1.1186.5323-.4235.0419-.8483-.0649-1.2014-.3023-.1023-.065-.1964-.1422-.28-.23l-.47-.47-.27-.24h-.05c-.0792-.06559-.1627-.12573-.25-.18-.6128-.40427-1.3309-.61978-2.065-.61978-.7342 0-1.4522.21551-2.065.61978-.0907.05764-.1775.12111-.26.19l-.29.26-.47.47-.14.13c-.3018.2417-.6725.3815-1.0587.3995-.3863.018-.7683-.0869-1.0913-.2995l-.13-.09-.12-.11-.24-.23-.24-.24c-.128-.13328-.2687-.25385-.42-.36-.6464-.48478-1.43204-.74784-2.24001-.75-.72773.00231-1.43939.21408-2.04999.61l-.32001.33-.24.22-.48.47c-.16625.1712-.36525.3073-.58514.4-.21989.0928-.4562.1404-.69486.14-.31883-.0011-.63209-.0837-.91-.24-.14142-.0797-.2696-.1809-.37999-.3l-.24-.23-.24001-.24c-.07169-.07836-.14853-.15185-.23-.22l-.33-.33h-.05l-.12-.07C1.51598 8.58075.759852 8.39531.00048828 8.4426v1.8197c.24388472.0225.48121972.0945.69720472.2124.093584.0508.183778.1076.270004.17l.619993.63c.52848.5139 1.196.8615 1.92 1 .2437.0481.49162.0715.74001.07.73895.0005 1.46193-.215 2.08-.62.09069-.0576.17753-.1211.25999-.19h.05001l.25999-.23.63-.63c.31895-.2521.71346-.3895 1.12-.39.30356.0016.60217.0771.87001.22.15811.0852.30295.193.42999.32l.48001.48.28.25c.6217.4949 1.3838.7807 2.1776.8166.7937.0359 1.5786-.1799 2.2424-.6166l.27-.2.28-.25.48-.48c.3204-.3246.751-.5171 1.2066-.5393.4556-.0222.9029.1274 1.2534.4193l.13.12.48.48c.3502.3492.7644.6276 1.22.82l.34.12c.2379.0716.4825.1185.73.14h.75c.8631-.0818 1.67-.464 2.28-1.08l.48-.48c.3465-.3425.8129-.5362 1.3-.54.3004.0016.5957.0772.86.22l.26.17.63.63c.4384.4372.9776.76 1.57.94.3531.1083.7207.1623 1.09.16.7325-.001 1.4486-.2166 2.06-.62l.26-.19c.0944-.0713.1846-.1481.27-.23l.62-.63c.3228-.2521.7204-.3894 1.13-.39.3005.0004.5962.076.86.22.1628.0825.3114.1905.44.32l.47.48.29.26c.6201.494 1.3805.7794 2.1726.8153.792.0359 1.5751-.1794 2.2374-.6153l.26-.19h.05l.28-.25.48-.48c.1688-.1706.3697-.3062.5911-.3988.2213-.0927.4589-.1407.6989-.1412.4269 0 .8405.1485 1.17.42l.13.12.48.48c.3502.3492.7644.6276 1.22.82l.34.12c.2379.0716.4825.1185.73.14h.74c.8666-.0795 1.6774-.4619 2.29-1.08l.48-.48c.3464-.3425.8129-.5362 1.3-.54.4112-.1156.8498-.0838 1.24.09l.26.17.63.63c.5271.5158 1.1952.8638 1.92 1 .2436.0485.4916.072.74.07.7358.0003 1.4555-.2152 2.07-.62l.26-.19.27-.23.62-.63c.2794-.2225.6184-.3574.9743-.3876.3558-.0303.7127.0454 1.0257.2176.1628.0825.3113.1905.44.32l.47.48c.1036.0622.2104.1189.32.17.6201.494 1.3805.7794 2.1725.8153.7921.0359 1.5752-.1794 2.2375-.6153l.26-.2c.1012-.0779.198-.1614.29-.25l.47-.48c.3464-.3425.8129-.5362 1.3-.54.4241-.001.8349.1477 1.16.42l.14.12.48.48c.3502.3492.7644.6276 1.22.82l.34.12c.2347.0707.4759.1176.72.14h.75c.8666-.0795 1.6774-.4619 2.29-1.08l.48-.48c.277-.2798.6372-.4622 1.0267-.5199.3894-.0577.7871.0124 1.1333.1999.1597.0827.3049.1907.43.32l.22.21.26.27.26.23h.05l.26.19c.6128.4043 1.3308.6198 2.065.6198.189 0 .3769-.0143.5622-.0424v-1.9403z"/>
  <path d="M84.6049 6.32187c-.2038.07533-.4196.11363-.6372.11289-.3187-.00242-.6316-.08495-.91-.24-.1428-.08219-.2739-.18308-.39-.3l-.47-.47c-.2204-.21762-.4654-.4089-.73-.57-.6643-.40153-1.437-.58645-2.2111-.52911-.774.05734-1.5111.35409-2.1089.84911-.1004.07513-.194.15877-.28.25l-.47.47c-.2997.30207-.6952.49028-1.1186.53226-.4234.04197-.8483-.06491-1.2014-.30226-.1024-.06499-.1964-.14223-.28-.23l-.48-.47-.27-.24h-.05l-.25-.18c-.6101-.40613-1.3271-.62192-2.06-.62-.7356.00084-1.455.21632-2.07.62-.0907.05764-.1776.1211-.26.19h-.05c-.0981.08143-.1916.16823-.28.26l-.48.47c-.0417.0484-.0886.092-.14.13-.3018.24168-.6725.38153-1.0587.3995-.3863.01796-.7683-.08688-1.0913-.2995l-.13-.09-.13-.11-.24-.23-.24-.24c-.1303-.13092-.2707-.2513-.42-.36-.6136-.4623-1.355-.72384-2.1229-.7489-.7678-.02506-1.5247.18759-2.1671.6089l-.33.33c-.0815.06814-.1583.14164-.23.22l-.48.47c-.1674.17244-.3681.30919-.5898.40199-.2217.09281-.4599.13976-.7002.13801-.3155-.00237-.6252-.08496-.9-.24-.1414-.07975-.2696-.18095-.38-.3l-.24-.23-.24-.24-.24-.22-.33-.33-.12-.07c-.6643-.40153-1.437-.58645-2.2111-.52911-.774.05734-1.5111.35409-2.1089.84911-.0982.0777-.1917.16118-.28.25l-.47.47c-.2997.30207-.6952.49028-1.1186.53226-.4235.04197-.8483-.06491-1.2014-.30226-.1024-.06499-.1964-.14222-.28-.23l-.47-.47-.27-.24h-.05l-.25-.18c-.6128-.40428-1.3308-.61978-2.065-.61978s-1.4522.2155-2.065.61978c-.0907.05764-.1776.1211-.26.19h-.05l-.28.26-.48.47c-.0408.04581-.0842.08921-.13.13-.3019.24168-.6725.38153-1.0588.3995-.3862.01796-.7682-.08688-1.0912-.2995l-.13-.09-.12-.11-.24-.23-.24-.24c-.1281-.13329-.2687-.25385-.42-.36-.6464-.48478-1.432-.74784-2.24-.75-.7277.00231-1.4394.21407-2.05.61h-.05l-.32.33c-.0869.06549-.1672.13916-.24.22l-.48.47c-.1674.17244-.3681.30919-.5898.40199-.2217.09281-.4599.13976-.7002.13801-.3155-.00237-.6252-.08496-.9-.24-.1414-.07975-.2696-.18095-.38-.3l-.24-.23-.24-.24c-.0728-.08084-.1531-.15451-.24-.22l-.32-.33-.12-.07c-.6643-.40153-1.437-.58645-2.211-.52911-.7741.05734-1.5112.35409-2.109.84911-.0971.07531-.1875.15897-.27.25l-.48.47c-.2997.30207-.6952.49028-1.1186.53226-.4235.04197-.8483-.06491-1.2014-.30226-.1023-.06499-.1964-.14223-.28-.23l-.47-.47-.27-.24h-.05c-.0792-.06559-.1627-.12573-.25-.18-.6128-.40428-1.3309-.61978-2.065-.61978-.7342 0-1.4522.2155-2.065.61978-.0907.05764-.1775.1211-.26.19l-.29.26-.47.47-.14.13c-.3018.24168-.6725.38153-1.0587.3995-.3863.01796-.7683-.08688-1.0913-.2995l-.13-.09-.12-.11-.24-.23-.24-.24c-.128-.13329-.2687-.25385-.42-.36-.6464-.48478-1.43204-.74784-2.24001-.75-.72773.00231-1.43939.21407-2.04999.61l-.32001.33-.24.22-.48.47c-.16625.17123-.36525.30727-.58514.40003-.21989.09277-.4562.14037-.69486.13997-.31883-.00111-.63209-.08373-.91-.24-.14142-.07975-.2696-.18095-.37999-.3l-.24-.23-.24001-.24c-.07169-.07836-.14853-.15186-.23-.22l-.33-.33h-.05l-.12-.07c-.65171-.39395-1.407838-.57939-2.16720172-.5321v1.81969c.24388472.02247.48121972.09453.69720472.21241.093584.05077.183778.10755.270004.17l.619993.63c.52848.51387 1.196.86154 1.92 1 .2437.04805.49162.0715.74001.07.73895.00053 1.46193-.21498 2.08-.62.09069-.05763.17753-.1211.25999-.19h.05001l.25999-.23.63-.63c.31895-.25209.71346-.38947 1.12-.39.30356.00163.60217.07714.87001.22.15811.08523.30295.19303.42999.32l.48001.48.28.25c.6217.49488 1.3838.78068 2.1776.8166.7937.03591 1.5786-.17989 2.2424-.6166l.27-.2.28-.25.48-.48c.3204-.32462.751-.51709 1.2066-.53931.4556-.02223.9029.12742 1.2534.41931l.13.12.48.48c.3502.34915.7644.62756 1.22.82l.34.12c.2379.0716.4825.11851.73.14h.75c.8631-.08178 1.67-.46401 2.28-1.08l.48-.48c.3465-.34245.8129-.5362 1.3-.54.3004.00164.5957.0772.86.22l.26.17.63.63c.4384.43719.9776.75998 1.57.94.3531.10833.7207.16228 1.09.16.7325-.00104 1.4486-.21658 2.06-.62l.26-.19c.0944-.07127.1846-.14807.27-.23l.62-.63c.3228-.25214.7204-.38939 1.13-.39.3005.00039.5962.07602.86.22.1628.0825.3114.19054.44.32l.47.48.29.26c.6201.49404 1.3805.77941 2.1726.81533.792.03592 1.5751-.17945 2.2374-.61533l.26-.19h.05l.28-.25.48-.48c.1688-.17062.3697-.30617.5911-.39884.2213-.09268.4589-.14065.6989-.14116.4269.00003.8405.14851 1.17.42l.13.12.48.48c.3502.34915.7644.62756 1.22.82l.34.12c.2379.07159.4825.11851.73.14h.74c.8666-.0795 1.6774-.4619 2.29-1.08l.48-.48c.3464-.34245.8129-.5362 1.3-.54.4112-.11562.8498-.08379 1.24.09l.26.17.63.63c.5271.51581 1.1952.8638 1.92 1 .2436.04853.4916.07198.74.07.7358.00033 1.4555-.21524 2.07-.62l.26-.19.27-.23.62-.63c.2794-.22251.6184-.35738.9743-.38763.3558-.03025.7127.04547 1.0257.21763.1628.0825.3113.19054.44.32l.47.48c.1036.0622.2104.11895.32.17.6201.49404 1.3805.77941 2.1725.81533.7921.03592 1.5752-.17945 2.2375-.61533l.26-.2c.1012-.07793.198-.16139.29-.25l.47-.48c.3464-.34245.8129-.5362 1.3-.54.4241-.00101.8349.14773 1.16.42l.14.12.48.48c.3502.34915.7644.62756 1.22.82l.34.12c.2347.07066.4759.11756.72.14h.75c.8666-.0795 1.6774-.4619 2.29-1.08l.48-.48c.277-.27979.6372-.46221 1.0267-.51991.3894-.0577.7871.01245 1.1333.19991.1597.08267.3049.19075.43.32l.22.21.26.27.26.23h.05l.26.19c.6128.40428 1.3308.61978 2.065.61978.189 0 .3769-.01428.5622-.04238V6.32187z"/>
  <path d="M84.6049 2.22177c-.2038.07533-.4196.11363-.6372.1129-.3187-.00243-.6316-.08496-.91-.24-.1428-.08219-.2739-.18309-.39-.30001l-.47-.47c-.2204-.21762-.4654-.408902-.73-.569995-.6643-.401533-1.437-.58645-2.2111-.529112-.774.057338-1.5111.35409-2.1089.849107-.1004.07513-.194.15878-.28.25l-.47.47c-.2997.30207-.6952.49028-1.1186.53226-.4234.04198-.8483-.0649-1.2014-.30225-.1024-.06499-.1964-.14223-.28-.23001l-.48-.47-.27-.23999h-.05l-.25-.180005c-.6101-.406135-1.3271-.621924-2.06-.62-.7356.000841-1.455.216313-2.07.62-.0907.057633-.1776.121105-.26.190005h-.05c-.0981.08142-.1916.16822-.28.25999l-.48.47c-.0417.0484-.0886.09201-.14.13001-.3018.24167-.6725.38152-1.0587.39949-.3863.01797-.7683-.08688-1.0913-.2995l-.13-.09-.13-.10999-.24-.23001-.24-.23999c-.1303-.13093-.2707-.25131-.42-.36001-.6136-.462293-1.355-.723842-2.1229-.748901-.7678-.025058-1.5247.187598-2.1671.608906l-.33.330005c-.0815.06814-.1583.14163-.23.22l-.48.46999c-.1674.17244-.3681.30919-.5898.402-.2217.0928-.4599.13975-.7002.13801-.3155-.00238-.6252-.08497-.9-.24-.1414-.07975-.2696-.18096-.38-.30001l-.24-.22999-.24-.24-.24-.22-.33-.330005-.12-.07c-.6643-.401534-1.437-.58645-2.2111-.529112-.774.057338-1.5111.35409-2.1089.849117-.0982.07769-.1917.16117-.28.25l-.47.47c-.2997.30206-.6952.49027-1.1186.53225-.4235.04198-.8483-.0649-1.2014-.30225-.1024-.06499-.1964-.14223-.28-.23l-.47-.47-.27-.24001h-.05l-.25-.179995c-.6128-.404279-1.3308-.61978-2.065-.61978s-1.4522.215501-2.065.61978c-.0907.057635-.1776.121105-.26.189995h-.05l-.28.26-.48.47c-.0408.04581-.0842.08922-.13.13001-.3019.24167-.6725.38152-1.0588.39949-.3862.01797-.7682-.08688-1.0912-.29949l-.13-.09-.12-.11001-.24-.22999-.24-.24c-.1281-.13329-.2687-.25386-.42-.36-.6464-.48479-1.432-.747847-2.24-.750005-.7277.002303-1.4394.21407-2.05.61h-.05l-.32.329995c-.0869.06549-.1672.13916-.24.22l-.48.47c-.1674.17244-.3681.30919-.5898.402-.2217.0928-.4599.13975-.7002.13801-.3155-.00238-.6252-.08497-.9-.24-.1414-.07976-.2696-.18096-.38-.30001l-.24-.23-.24-.24c-.0728-.08084-.1531-.15451-.24-.22l-.32-.329995-.12-.07c-.6643-.401533-1.437-.58645-2.211-.529112-.7741.057338-1.5112.35409-2.109.849107-.0971.07532-.1875.15897-.27.25001l-.48.46999c-.2997.30207-.6952.49028-1.1186.53226-.4235.04198-.8483-.0649-1.2014-.30226-.1023-.06499-.1964-.14222-.28-.23l-.47-.46999-.27-.24001h-.05c-.0792-.06559-.1627-.12573-.25-.18-.6128-.404274-1.3309-.619775-2.065-.619775-.7342 0-1.4522.215501-2.065.619775-.0907.05764-.1775.12111-.26.19001l-.29.25999-.47.47001-.14.12999c-.3018.24168-.6725.38154-1.0587.3995-.3863.01797-.7683-.08688-1.0913-.29949l-.13-.09-.12-.11001-.24-.23-.24-.23999c-.128-.13329-.2687-.25386-.42-.36001C10.6313.659879 9.84566.396823 9.03769.394664 8.30996.396968 7.5983.608735 6.9877 1.00467l-.32001.33-.24.21999-.48.47001c-.16625.17122-.36525.30726-.58514.40003-.21989.09276-.4562.14036-.69486.13996-.31883-.00111-.63209-.08373-.91-.24-.14142-.07975-.2696-.18095-.37999-.29999l-.24-.23001-.24001-.24c-.07169-.07836-.14853-.15185-.23-.21999l-.33-.33h-.05l-.12-.070005C1.51598.540712.759852.355274.00048828.402564V2.22225c.24388472.02247.48121972.09454.69720472.21242.093584.05076.183778.10755.270004.17l.619993.62999c.52848.51387 1.196.86154 1.92 1 .2437.04805.49162.0715.74001.07.73895.00053 1.46193-.21497 2.08-.61999.09069-.05764.17753-.12111.25999-.19001h.05001l.25999-.22999.63-.63001c.31895-.25209.71346-.38946 1.12-.39.30356.00164.60217.07714.87001.22.15811.08523.30295.19303.42999.32001l.48001.48.28.25c.6217.49487 1.3838.78067 2.1776.81659.7937.03592 1.5786-.17989 2.2424-.6166l.27-.19999.28-.25.48-.48c.3204-.32462.751-.5171 1.2066-.53932.4556-.02223.9029.12742 1.2534.41931l.13.12001.48.48c.3502.34915.7644.62755 1.22.82l.34.12c.2379.07159.4825.1185.73.14h.75c.8631-.08178 1.67-.46402 2.28-1.08l.48-.48c.3465-.34246.8129-.5362 1.3-.54001.3004.00165.5957.0772.86.22l.26.17.63.63001c.4384.43718.9776.75998 1.57.94.3531.10832.7207.16227 1.09.16.7325-.00105 1.4486-.21659 2.06-.62001l.26-.19c.0944-.07127.1846-.14807.27-.23l.62-.62999c.3228-.25215.7204-.3894 1.13-.39001.3005.00039.5962.07603.86.22001.1628.0825.3114.19053.44.32l.47.47999.29.26001c.6201.49403 1.3805.7794 2.1726.81532.792.03592 1.5751-.17945 2.2374-.61532l.26-.19h.05l.28-.25.48-.48c.1688-.17063.3697-.30618.5911-.39885.2213-.09268.4589-.14065.6989-.14116.4269.00003.8405.14851 1.17.42l.13.12001.48.48c.3502.34915.7644.62755 1.22.81999l.34.12001c.2379.07159.4825.1185.73.13999h.74c.8666-.07949 1.6774-.4619 2.29-1.07999l.48-.48c.3464-.34246.8129-.5362 1.3-.54001.4112-.11562.8498-.08378 1.24.09l.26.17001.63.62999c.5271.51581 1.1952.8638 1.92 1 .2436.04853.4916.07198.74.07001.7358.00032 1.4555-.21525 2.07-.62001l.26-.19.27-.23.62-.62999c.2794-.22251.6184-.35738.9743-.38763.3558-.03026.7127.04547 1.0257.21763.1628.0825.3113.19053.44.32l.47.47999c.1036.06221.2104.11895.32.17.6201.49404 1.3805.77941 2.1725.81533.7921.03592 1.5752-.17945 2.2375-.61532l.26-.20001c.1012-.07793.198-.16139.29-.25l.47-.47999c.3464-.34246.8129-.5362 1.3-.54001.4241-.00101.8349.14773 1.16.42l.14.12001.48.47999c.3502.34916.7644.62756 1.22.82l.34.12001c.2347.07065.4759.11756.72.13999h.75c.8666-.07949 1.6774-.4619 2.29-1.08l.48-.47999c.277-.27979.6372-.46222 1.0267-.51992.3894-.05769.7871.01245 1.1333.19992.1597.08266.3049.19074.43.32l.22.20999.26.27.26.23h.05l.26.19001c.6128.40427 1.3308.61977 2.065.61977.189 0 .3769-.01427.5622-.04237v-1.9403z"/>
</svg>