<svg xmlns="http://www.w3.org/2000/svg" fill="currentColor"  viewBox="0 0 268 81">
  <path fill="var(--bg)" d="M129.097 52.0201c12.364 0 22.388-10.0235 22.388-22.3881 0-12.3647-10.024-22.38816-22.388-22.38816-12.365 0-22.388 10.02346-22.388 22.38816 0 12.3646 10.023 22.3881 22.388 22.3881z" opacity=".5"/>
  <path fill="var(--fg, currentColor)" stroke="var(--fg, currentColor)" stroke-linecap="round" stroke-miterlimit="10" stroke-width=".35" d="M147.588 25.1839l10.59 6.5872c.011.0098.024.0172.038.0219.014.0048.029.0067.044.0057.015-.001.029-.0048.042-.0114.014-.0065.025-.0156.035-.0268.01-.0111.017-.024.022-.038.005-.014.007-.0288.006-.0436-.001-.0147-.005-.0292-.012-.0424-.006-.0133-.015-.0251-.026-.0348-1.441-2.1181-8.473-11.8189-17.877-10.887-3.613.2899-7.126 1.3286-10.315 3.0501l3.347-2.69v-.1906l-5.38.1482 10.865-5.5282c.023-.0098.042-.0261.056-.0468.013-.0207.021-.0449.021-.0696 0-.0248-.008-.049-.021-.0697-.014-.0207-.033-.037-.056-.0468l-5.613-.8261 12.54-3.516c.022-.0099.041-.0262.055-.0469.014-.0207.021-.0449.021-.0696 0-.0247-.007-.0489-.021-.0696-.014-.0207-.033-.037-.055-.0469l-7.287-1.35558 11.862-3.89727c.105 0 0-.19063 0-.21181-2.585-.29653-14.467-1.16494-19.847 6.69316-1.416 2.0355-2.568 4.2416-3.431 6.566-.274-2.464-.857-4.8836-1.737-7.2014C122.044 2.35095 110.31.338771 107.726-.00012207c0 0-.17.14826607 0 .21180807l10.59 6.629604-7.434-.40244c-.028 0-.055.01116-.075.03102-.02.01986-.031.0468-.031.07488 0 .02809.011.05503.031.07489.02.01986.047.03102.075.03102l11.289 6.35424-5.401-.5295c-.014.0119-.024.0266-.032.043-.007.0164-.011.0343-.011.0523 0 .018.004.0359.011.0523.008.0164.018.0311.032.043l8.938 8.1335-5.189-1.4403c-.023-.0169-.051-.0241-.079-.0202-.027.004-.053.0189-.069.0413-.017.0225-.024.0508-.021.0786.004.0278.019.0528.042.0697l2.584 3.3889c-2.692-2.4619-5.876-4.3245-9.341-5.4646-9.002-3.2195-18.0883 4.4691-19.9946 6.2271v.1907l11.8616-3.8126-5.02 5.4223c-.012.0206-.019.0442-.018.0682.001.0239.008.0472.021.0671.014.0199.032.0357.054.0455.022.0098.046.0132.07.0098l12.2-4.5327-3.855 3.8973v.2118l12.052-1.9274-4.469 3.05c-.018.0116-.032.0273-.042.0458-.01.0185-.015.0391-.015.0601 0 .021.005.0416.015.0601.01.0185.024.0342.042.0458l4.236.2118c-3.613.4911-7.083 1.732-10.188 3.6431-7.985 4.7445-7.985 16.6482-7.879 19.2534 0 .0281.011.055.031.0749.02.0199.047.031.075.031.028 0 .055-.0111.075-.031.019-.0199.031-.0468.031-.0749l4.702-11.5435.911 7.4132c0 .1059.169.1271.211 0l4.448-12.2213.424 5.4435c0 .0281.011.055.031.0749.02.0198.047.031.075.031.028 0 .055-.0112.075-.031.02-.0199.031-.0468.031-.0749l6.354-10.4634-.635 5.4223c.011.0175.027.0319.045.0418.019.0099.039.0151.06.0151.021 0 .042-.0052.061-.0151.018-.0099.034-.0243.045-.0418l2.648-2.8806-1.631 49.0125c-.014.0183-.021.0406-.021.0635 0 .0229.007.0452.021.0636h5.38l-.254-49.3937h.212c.618-.0088 1.223-.1766 1.758-.4872l2.753 5.0199c.012.0175.027.0318.046.0417.018.0099.039.0151.06.0151.021 0 .042-.0052.06-.0151.019-.0099.034-.0242.046-.0417l.784-5.3376 3.579 9.0866c.012.0175.028.0318.046.0417.018.0099.039.0151.06.0151.021 0 .042-.0052.06-.0151.019-.0099.034-.0242.046-.0417l1.716-2.6053 1.292 9.0019c0 .0281.011.055.031.0749.02.0198.046.031.075.031.028 0 .055-.0112.074-.031.02-.0199.031-.0468.031-.0749l2.669-3.0289 1.758 7.6887c0 .0281.011.055.031.0749.02.0198.047.031.075.031.028 0 .055-.0112.075-.031.02-.0199.031-.0468.031-.0749 1.214-2.671 1.563-5.6548.997-8.5337-.566-2.879-2.018-5.5089-4.153-7.5214-2.548-2.6114-5.614-4.6605-9.002-6.0154l4.236.8261v-.1694l-3.579-4.0456 11.226 4.7657c.02.0153.045.0227.071.0209.025-.0018.049-.0127.067-.0307.018-.0181.029-.042.031-.0674.002-.0254-.006-.0507-.021-.0711l-2.859-4.6386 10.738 7.3286c.01.0111.022.0202.035.0268.013.0065.028.0104.042.0114.015.001.03-.001.044-.0057.014-.0047.027-.0122.038-.0219.011-.0097.02-.0216.027-.0348.006-.0133.01-.0277.011-.0424.001-.0148-.001-.0296-.005-.0436-.005-.014-.013-.0269-.022-.0381l-3.601-6.4601zm-24.146 4.5962l.148-.1482c.046.0601.104.1105.17.1482h-.318z"/>
  <path fill="var(--fg, currentColor)" d="M5.16812 72.9255c-.42362 0-.57188.1483-.57188.5719v5.1681c0 .4025-.14827.5507-.57189.5507H.571883C.169448 79.2162 0 79.068 0 78.6655V61.7209c0-.4236.169448-.5719.571883-.5719H6.22716c.81413-.1047 1.64138-.0254 2.42077.2322.77939.2575 1.49107.6866 2.08257 1.2558.5915.5691 1.0477 1.2637 1.3351 2.0326.2873.7689.3984 1.5925.3252 2.41 0 3.9608-2.3723 5.8459-6.16364 5.8459H5.16812zM4.89277 65.83c-.40244 0-.5507.1482-.5507.5718v1.2497c0 .4236.14826.5931.5507.5931h1.71565c.32019 0 .62727-.1272.85369-.3536.22641-.2265.35361-.5335.35361-.8537 0-.3202-.1272-.6273-.35361-.8537-.22642-.2264-.5335-.3536-.85369-.3536H4.89277zM17.6651 78.5384c-.1483.6142-.3601.6778-1.059.6778h-3.1772c-.3177 0-.4448-.1483-.4448-.4025-.0089-.1057-.0089-.212 0-.3177l4.2362-16.754c.1271-.466.3389-.5931.7413-.5931h3.0712c.0892-.0118.1797-.0058.2665.0177.0868.0235.168.064.239.1192.0709.0552.1302.1239.1743.2023.0442.0783.0723.1646.0827.2539l4.2362 16.754c.009.1057.009.212 0 .3177 0 .2542-.1271.4025-.4448.4025h-3.0924c-.6989 0-.8896 0-1.059-.6778l-.3813-1.5886c-.1271-.466-.3177-.5719-.7201-.5719h-1.5462c-.4236 0-.6143 0-.7202.5719l-.4024 1.5886zm1.0378-6.905c-.0101.1623-.0101.325 0 .4872 0 .2118.1907.2965.466.2965h.8261c.2753 0 .4236-.1059.4236-.2965.0131-.1621.0131-.3251 0-.4872l-.466-2.1181c0-.3389-.1906-.5507-.4024-.5507s-.2754.2118-.3601.5507l-.4872 2.1181zM32.1945 78.6231c0 .4236-.1694.593-.5719.593h-3.3254c-.4236 0-.5719-.1694-.5719-.593V61.6784c0-.4024.1483-.5931.5719-.5931h5.6129c4.2362 0 6.1637 2.2664 6.1637 5.7612.0203.883-.1598 1.759-.5267 2.5624-.3668.8034-.9109 1.5133-1.5914 2.0762-.0998.1061-.1554.2462-.1554.3919 0 .1456.0556.2857.1554.3918l4.9351 6.0154c.2965.36.1695.8684-.3601.8684h-4.2361c-.2151.0275-.4336-.0078-.6291-.1018-.1955-.0939-.3595-.2425-.4723-.4277l-4.5115-5.6765c-.2542-.3389-.6567-.2754-.6567.1906l.1695 5.4859zm2.2663-10.3786c.3202 0 .6273-.1272.8537-.3537.2264-.2264.3537-.5335.3537-.8537 0-.3202-.1273-.6272-.3537-.8537-.2264-.2264-.5335-.3536-.8537-.3536h-1.991c-.4024 0-.5718.1695-.5718.5931v1.2285c0 .4236.1694.5931.5718.5931h1.991zM51.0885 76.6533c-.5931 0-.7837.127-1.1014.6777l-.6566 1.2073c-.0765.2233-.2281.413-.4291.5366-.2009.1237-.4386.1736-.6723.1412H44.713c-.4659 0-.6142-.2965-.4024-.7201l9.0654-17.1988c.027-.0798.0782-.1491.1466-.1982.0684-.049.1505-.0754.2347-.0754.0841 0 .1662.0264.2346.0754.0684.0491.1197.1184.1466.1982l9.0654 17.1988c.2118.4236 0 .7201-.4024.7201h-3.5372c-.2366.0335-.4774-.0156-.6819-.1391-.2045-.1235-.3602-.3137-.4407-.5387l-.6354-1.2073c-.0806-.2249-.2362-.4151-.4407-.5386-.2045-.1235-.4454-.1726-.6819-.1391h-5.2952zm3.0288-5.9942c-.2118-.4025-.5083-.4025-.7201 0l-.8472 1.4826c-.2754.4448-.1271.6778.36.6778h1.6733c.4872 0 .6143-.233.3601-.6778l-.8261-1.4826zM65.0462 79.2162c-.4236 0-.5718-.1483-.5718-.5507V61.7208c0-.4236.1482-.5719.5718-.5719h3.6643c3.8761 0 6.5237 2.1181 6.5237 9.0442 0 6.9262-2.6264 9.0231-6.5237 9.0231h-3.6643zm3.8761-5.3588c0 .4025.233.5295.4872.5295.5931 0 1.2073-.3812 1.2073-4.2361 0-3.8549-.6142-4.2362-1.2073-4.2362-.2542 0-.4872.1271-.4872.5507v7.3921zM82.1605 78.6655c0 .4024-.1483.5507-.5507.5507h-3.7279c-.4024 0-.5718-.1483-.5718-.5507V61.7208c0-.4236.1694-.5719.5718-.5719h3.7279c.4024 0 .5507.1483.5507.5719v16.9447zM84.914 72.8196h3.1559c.4025 0 .5507.1906.5507.593 0 .9108.4448 1.2497 1.0591 1.2497.1415.0087.2833-.0118.4167-.06.1333-.0483.2554-.1233.3586-.2206.1032-.0972.1854-.2146.2415-.3449.056-.1302.0848-.2706.0846-.4124 0-.7837-.4448-1.0802-1.1014-1.1649-3.5372-.4025-5.4435-1.9063-5.4435-5.6977 0-3.7913 2.1181-5.8671 5.4223-5.8671.757-.0411 1.5139.0827 2.2182.363.7044.2803 1.3395.7103 1.8612 1.2602.5218.55.9178 1.2068 1.1607 1.925.2428.7181.3267 1.4804.2457 2.2342 0 .699-.2753.8261-.6566.8261h-3.1559c-.4025 0-.5507-.1907-.5507-.5931.0191-.1521.0043-.3065-.0433-.4522-.0477-.1457-.127-.279-.2323-.3904s-.234-.198-.3768-.2538c-.1427-.0557-.2961-.0791-.449-.0686-.1406-.0088-.2815.0117-.4137.0601-.1322.0485-.253.1239-.3545.2215-.1016.0976-.1818.2152-.2355.3454-.0537.1302-.0798.2701-.0765.4109 0 .7625.4659 1.0802 1.5038 1.1861.7242-.0023 1.441.1457 2.105.4347.664.289 1.2608.7127 1.7526 1.2443.4917.5316.8678 1.1595 1.1043 1.8439.2366.6845.3284 1.4106.2698 2.1324.0853.7694.0008 1.5482-.2474 2.2814-.2482.7333-.6542 1.4032-1.1894 1.9626-.5351.5593-1.1864.9946-1.9079 1.275-.7216.2804-1.4958.3993-2.2683.3481-3.5795 0-5.4858-2.1181-5.4858-5.8247 0-.7414.2965-.8472.6778-.8472zM102.219 72.2688c-.424 0-.572.1906-.572.6143v.8684c0 .4236.148.593.572.593h6.884c.423 0 .572.1907.572.6143v3.6643c0 .4236-.149.593-.572.593H97.771c-.4024 0-.5719-.1694-.5719-.593V61.6784c0-.4024.1695-.5931.5719-.5931h11.332c.423 0 .572.1907.572.5931v3.6431c0 .4024-.149.5931-.572.5931h-6.884c-.424 0-.572.1906-.572.593v.9532c0 .4236.148.593.572.593h5.592c.423 0 .572.1906.572.5931v2.9865c0 .4236-.149.593-.572.593l-5.592.0424zM144.263 72.2265c0-.4024.169-.5719.572-.5719h3.304c.423 0 .572.1695.572.9955 0 3.5584-.869 6.8414-5.317 6.8414-3.749 0-5.549-2.118-5.549-9.2983 0-7.1803 1.8-9.2984 5.549-9.2984 4.448 0 5.317 3.5372 5.317 6.8414 0 .826-.149.9743-.572.9743h-3.304c-.403 0-.572-.1483-.572-.5719v-.6354c0-1.1861-.297-1.5674-.763-1.5674s-.678.3177-.805.9532c-.181 1.0915-.259 2.1979-.233 3.3042-.025 1.1062.053 2.2125.233 3.3042.127.6142.382.9531.805.9531.424 0 .763-.3812.763-1.5674v-.6566zM149.664 70.1931c0-2.3986.953-4.6991 2.649-6.3952 1.696-1.6961 3.997-2.649 6.395-2.649 2.399 0 4.699.9529 6.395 2.649 1.697 1.6961 2.649 3.9966 2.649 6.3952 0 2.3987-.952 4.6992-2.649 6.3953-1.696 1.6961-3.996 2.649-6.395 2.649-2.398 0-4.699-.9529-6.395-2.649-1.696-1.6961-2.649-3.9966-2.649-6.3953zm4.723 0c.029.8309.302 1.6349.785 2.3118.483.6768 1.154 1.1966 1.931 1.4947.776.298 1.622.361 2.434.1812s1.553-.5945 2.13-1.1925c.578-.5979.967-1.3526 1.119-2.17.152-.8174.06-1.6615-.265-2.4269-.324-.7655-.867-1.4185-1.56-1.8778-.693-.4592-1.506-.7044-2.337-.7049-.568-.0002-1.129.1134-1.651.3342-.523.2208-.996.5442-1.391.9511-.395.407-.704.8891-.909 1.4178-.206.5287-.303 1.0933-.286 1.6602v.0211zM174.043 73.7515c0 .4236.169.593.572.593h6.65c.403 0 .551.1907.551.5931v3.6855c0 .4236-.148.593-.551.593h-11.352c-.403 0-.551-.1694-.551-.593V61.6784c0-.4024.148-.5931.551-.5931h3.579c.403 0 .551.1907.551.5931v12.0731zM190.945 73.7516c.402 0 .571.1483.571.5507v4.2362c0 .4024-.169.5507-.571.5507h-6.694c-.402 0-.571-.1483-.571-.5507V61.5939c0-.4237.169-.5719.571-.5719h3.559c.423 0 .572.1482.572.5719v11.5435c0 .4024.169.5719.572.5719l1.991.0423zM200.709 74.0692c.424 0 .572.1694.572.593v3.9609c0 .4236-.148.593-.572.593h-6.566c-.402 0-.55-.1694-.55-.593V61.6784c0-.4024.148-.5931.55-.5931h6.566c.424 0 .572.1907.572.5931v3.982c0 .4024-.148.593-.572.593h-2.118c-.423 0-.572.1483-.572.5719v.5719c0 .4236.149.5719.572.5719h1.61c.402 0 .551.1906.551.5931v3.4101c0 .4236-.149.593-.551.593h-1.61c-.423 0-.572.1695-.572.5719v.4448c0 .4025.149.5719.572.5719l2.118-.0847zM211.745 74.5776c.75.02 1.492-.1526 2.155-.5011.664-.3486 1.227-.8616 1.636-1.4899.039-.084.095-.1582.166-.2173.071-.059.155-.1013.244-.1237.09-.0223.183-.0243.274-.0056.09.0187.175.0575.248.1136l2.945 1.3979c.508.2542.444.6355.233 1.0803-.733 1.4565-1.869 2.6708-3.275 3.4973-1.405.8266-3.018 1.2302-4.647 1.1624-1.215.0249-2.423-.2008-3.547-.663-1.124-.4621-2.141-1.1507-2.988-2.023-.846-.8724-1.504-1.9096-1.932-3.0472-.428-1.1376-.617-2.3512-.556-3.5651-.061-1.214.128-2.4276.556-3.5652.428-1.1376 1.086-2.1748 1.932-3.0471.847-.8723 1.864-1.561 2.988-2.0231 1.124-.4621 2.332-.6878 3.547-.663 1.626-.0697 3.239.3308 4.643 1.1534 1.405.8227 2.543 2.0326 3.279 3.4852.211.4448.275.826-.233 1.1014l-2.945 1.3767c-.444.2118-.656.1695-.932-.2329-.409-.6284-.972-1.1413-1.636-1.4899-.663-.3486-1.405-.5211-2.155-.5011-1.113.0773-2.155.5739-2.916 1.3896-.761.8157-1.184 1.8898-1.184 3.0054s.423 2.1896 1.184 3.0053c.761.8158 1.803 1.3124 2.916 1.3897zM221.382 65.9993c-.424 0-.572-.1694-.572-.593V61.742c0-.4024.148-.5931.572-.5931h14.191c.424 0 .572.1907.572.5931v3.6643c0 .4236-.148.593-.572.593h-4.236c-.402 0-.572.1907-.572.5931v12.0307c0 .4236-.148.5931-.572.5931h-3.41c-.402 0-.551-.1695-.551-.5931V66.5924c0-.4024-.169-.5931-.571-.5931h-4.279zM242.393 78.6655c0 .4024-.148.5507-.572.5507h-3.664c-.424 0-.572-.1483-.572-.5507V61.7208c0-.4236.148-.5719.572-.5719h3.707c.423 0 .572.1483.572.5719l-.043 16.9447zM255.653 70.1932c0 7.0955-1.758 9.2983-5.55 9.2983-3.791 0-5.549-2.118-5.549-9.2983 0-7.1803 1.758-9.2984 5.549-9.2984 3.792 0 5.55 2.2663 5.55 9.2984zm-4.575 0c0-3.5372-.276-4.1091-.975-4.1091s-.995.5719-.995 4.1091.296 4.109.995 4.109c.699 0 .975-.5507.975-4.109zM262.028 73.5185c-.106-.3177-.212-.4448-.36-.4448s-.275.1271-.275.36v5.1894c0 .4236-.17.593-.572.593h-3.304c-.424 0-.572-.1694-.572-.593V61.6784c0-.4024.148-.5931.572-.5931h2.118c.593 0 .868.1059 1.101.699l1.906 4.9987c.106.3177.212.4448.361.4448.148 0 .296-.1271.296-.3601v-5.1258c0-.4024.148-.593.572-.593h3.304c.403 0 .572.1906.572.593v16.9447c0 .4236-.169.5931-.572.5931h-2.118c-.593 0-.868 0-1.122-.6778l-1.907-5.0834z"/>
</svg>