<svg fill="currentColor" viewBox="0 0 210 73">
  <path d="M45.2027 4.84979l-10.38 32.48001h-9.63l-9.86-32.48001-2.03-4.059995h13.05l-.58 4.059995 4.47 16.53001.29 2.03.29-2.03 4.52-16.53001-.58-4.059995h12.47l-2.03 4.059995zM72.7527 37.3298h-16.82l-6.96-6.96V7.74979l6.96-6.959995h16.82l6.96 6.959995V30.3698l-6.96 6.96zm-3.77-24.94l-1.04-2.15-2.15-1.04001h-2.9l-2.15 1.04001-1.04 2.15v13.05l1.04 2.15 2.15 1.04h2.9l2.15-1.04 1.04-2.15v-13.05zM109.873 37.3298h-23.08l1.33-4.06V4.84979L86.793.789795h23.08l7.54 7.539995V29.7898l-7.54 7.54zm-2.9-24.07l-1.33-2.73-2.73-1.33001h-3.77l-.58.58V27.7598l.87.87h3.48l2.73-1.33 1.33-2.73v-11.31zM145.253 37.3298l-.58-4.64-4.64-12.76h-.87l-2.61 2.61-.58 1.16v9.57l1.33 4.06h-12.82l1.33-4.06V4.84979l-1.33-4.059995h12.82l-1.33 4.059995v8.12001l.87-1.16 7.83-7.83001 1.16-3.189995h11.31l1.04 1.039995-10.44 10.38001 7.66 20.18 3.19 4.93h-13.34v.01z"/>
  <path d="M180.053 37.3298l.58-4.06-.75-3.19-.58-.58h-8.99l-.58.58-.7 3.19.58 4.06h-12.64l2.09-4.06 7.66-29.00001-.87-3.479995h18.56l-.87 3.479995 7.66 29.00001 2.03 4.06h-13.18zm-5.1-27.26l-.29-2.03001-.29 2.03001-2.61 11.02.58.58h4.81l.58-.58-2.78-11.02zM16.9626 72.33H.702637l.990003-3.01V48.25l-.990003-3.01H10.5026l-1.07996 3.22v16.77l.64996.65h5.59l3.87-1.29-2.57 7.74zM38.6728 72.33h-17.33l.99-3.01V48.25l-.99-3.01h16.68l2.45 7.4-3.53-1.16h-6.66l-.43.43v2.58l.43.43h2.58l2.79-.95v8.13l-2.79-.95h-2.58l-.43.43v3.66l.65.65h6.88l3.87-1.29-2.58 7.73zM64.3426 72.33l.99-3.01V57.07l.22-1.5-.65 1.5-6.36 15.26h-.18l-6.36-15.26-.65-1.5.21 1.5v12.25l.99 3.01h-8.43l.99-3.01V48.25l-.99-3.01h9.8l4.64 11.18.17.86.21-.86 4.64-11.18h10.02l-.99 3.01v21.07l.99 3.01h-9.26zM96.5126 72.33h-12.48l-5.16-5.16V50.4l5.16-5.16h12.47l5.1604 5.16v16.77l-5.1504 5.16zm-2.8-18.49l-.77-1.59-1.59-.77h-2.15l-1.59.77-.77 1.59v9.67l.77 1.59 1.59.77h2.15l1.59-.77.77-1.59v-9.67zM129.183 48.25v24.08h-5.38l-8.6-14.19-.86-1.72.22 1.72v11.18l.99 3.01h-8.64l.99-3.01V48.25l-1.2-3.01h8.51l6.88 11.39.86 1.72-.21-1.72v-8.38l-.99-3.01h8.43l-1 3.01zM149.393 72.33l.43-3.01-.56-2.37-.43-.43h-6.66l-.43.43-.52 2.37.43 3.01h-9.37l1.55-3.01 5.68-21.5-.65-2.58h13.76l-.64 2.58 5.68 21.5 1.5 3.01h-9.77zm-3.78-20.21l-.21-1.51-.21 1.51-1.94 8.17.43.43h3.57l.43-.43-2.07-8.17zM178.423 72.33h-17.111l.991-3.01V48.25l-.991-3.01h17.111l5.589 5.59v15.91l-5.589 5.59zm-2.15-17.84l-.99-2.02-2.021-.99h-2.789l-.431.43v13.33l.651.65h2.58l2.019-.99.991-2.02v-8.39h-.01zM206.583 72.33h-17.32l.99-3.01V48.25l-.99-3.01h16.68l2.45 7.4-3.53-1.16h-6.66l-.43.43v2.58l.43.43h2.58l2.79-.95v8.13l-2.79-.95h-2.58l-.43.43v3.66l.65.65h6.88l3.87-1.29-2.59 7.73z"/>
</svg>