<svg viewBox="0 0 185.57 49.01" fill="currentColor"><defs><style>.cls-1{fill:#53575a}</style></defs><g id="Layer_2" data-name="Layer 2"><g id="Layer_1-2" data-name="Layer 1"><g id="Title"><path d="M33.08 43.35c.39.66.79.95 1.2.86v.21a2.17 2.17 0 01-1.37.7 3.89 3.89 0 01-1.91-.06 3.6 3.6 0 01-1.7-1 12.6 12.6 0 01-7.65 4.56 14 14 0 01-9.09-.87 19 19 0 01-7.53-6.25 26.8 26.8 0 01-4.43-10 21.52 21.52 0 010-10.22 18.25 18.25 0 014.52-8.34 15.53 15.53 0 017.9-4.5 14 14 0 016.07-.17 9.34 9.34 0 014.59 2.33 8.31 8.31 0 012.4 4.27 8.88 8.88 0 010 4.32A7.25 7.25 0 0124 22.66a8.59 8.59 0 01-4 2 5.19 5.19 0 01-2.57 0 4.25 4.25 0 01-2-1.08 3.49 3.49 0 01-1-1.74 3.32 3.32 0 010-1.57 1.86 1.86 0 01.78-1.14l.34-.08a1.74 1.74 0 00.54.79 3.23 3.23 0 001.14.68 2.38 2.38 0 001.4.08 3.34 3.34 0 002.45-1.67 4.36 4.36 0 00.22-3 4.28 4.28 0 00-2.25-2.84 7 7 0 00-5-.29 9.9 9.9 0 00-5.5 3.39 14 14 0 00-3 6.4 18 18 0 00.14 7.69A23.72 23.72 0 008.92 38a15.85 15.85 0 005.36 5.25 8.65 8.65 0 006.41 1 7.75 7.75 0 004.6-2.67 5 5 0 001-4.36L25 31.8l-6 1.39a3.85 3.85 0 00-2 1.35l-.3.07-1.27-5.54 14.21-3.26.07.29a3.44 3.44 0 00-.36 2.3l2.93 12.79a7.81 7.81 0 00.8 2.16zM37.2 13.49v.27a4.47 4.47 0 00-.28 2.24l3.81 22.22a2.31 2.31 0 00.33.91c.17.28.4.63.71 1.05v.27l-5.88 1v-.27a4.52 4.52 0 00.34-2.2l-3.81-22.25a2.61 2.61 0 00-.34-.92c-.16-.27-.4-.62-.71-1l-.05-.27zM58.06 10.68v.27a4.41 4.41 0 00-.36 2.17l3.06 24.73-1.59.2-10.6-15.43 1.75 14.13a3.7 3.7 0 001 2v.31l-6 .74v-.31a4.38 4.38 0 00.44-2.14L43 14.94a3.45 3.45 0 00-.28-1 7.33 7.33 0 00-.64-1v-.27L47 12l7.25 11.1-1.16-9.41a3.45 3.45 0 00-1-2v-.27zM89.62 35.76v.31l-5.62.31-1.57-2.14a7.62 7.62 0 01-5.38 3 6.71 6.71 0 01-5.27-1.79 8.06 8.06 0 01-2.25-5.6 6.84 6.84 0 011-4.1 16.34 16.34 0 013.14-3.55 1.75 1.75 0 00-.33-.45 21.91 21.91 0 01-2-3.25 8 8 0 01-.82-3 5.68 5.68 0 011.35-4.18 5.88 5.88 0 014.33-1.88 6.08 6.08 0 014.55 1.31 5.61 5.61 0 011.81 4.08 8.1 8.1 0 01-.8 4.32A13.67 13.67 0 0179 22.52l2.88 3.9a18.81 18.81 0 00.21-3.92l4.91-.27v.27a2.48 2.48 0 00-.84 1.73 18.62 18.62 0 01-.38 2.62 21.21 21.21 0 01-1 3.51c1.53 2.11 2.41 3.28 2.66 3.53a10 10 0 002.18 1.87zm-9.44-4.55l-4.27-5.94a7.3 7.3 0 00-1.43 2 4.57 4.57 0 00-.4 2.26 4.14 4.14 0 00.92 2.4 2.57 2.57 0 002.32.92 3.86 3.86 0 002.86-1.64zm-5.29-17.85a3.46 3.46 0 00-.37 1.72 3.65 3.65 0 00.48 1.61 28.76 28.76 0 001.69 2.56 8.6 8.6 0 001.42-2.09 4.6 4.6 0 00.4-2.23 3.62 3.62 0 00-.51-1.74 1.58 1.58 0 00-1.55-.76 1.63 1.63 0 00-1.56.93zM129.63 3.06a4.13 4.13 0 01-.91 2.47 5.41 5.41 0 01-2.32 1.69 7.82 7.82 0 01-3.26.53 37.84 37.84 0 01-4.53-.43c-1.43-.24-3.29-.59-5.56-1.06l-1.39 31.22a3.22 3.22 0 00.75 2v.27l-6.7-.23v-.28a3.33 3.33 0 00.66-1 2.82 2.82 0 00.27-1.1l1.41-31.85c-1.45-.15-2.57-.25-3.35-.27a8.06 8.06 0 00-3.83.68 6.35 6.35 0 00-2.45 1.9 3.85 3.85 0 00-.87 2.08 2 2 0 00.5 1.44 1.6 1.6 0 001.18.65v.43a3.94 3.94 0 01-1.4 1.51 4.13 4.13 0 01-2.3.46A3.11 3.11 0 0193.05 13a5.12 5.12 0 01-.88-3.41 8.26 8.26 0 011.77-4.7 11.78 11.78 0 014.63-3.6A14.42 14.42 0 01105.23 0a39.73 39.73 0 014.55.4c1.38.2 3.08.51 5.12.92 1.86.35 3.39.62 4.58.81a34 34 0 003.85.35 6.83 6.83 0 003.57-.66A4.57 4.57 0 00128.68.3h.32a5.32 5.32 0 01.63 2.76z" class="cls-1"/><path d="M119.82 16.41a11.1 11.1 0 013.71-4.41 7.25 7.25 0 014.92-1.2A7.14 7.14 0 01133 13a11.14 11.14 0 012.66 5.23 21.7 21.7 0 01.34 7.37 21.53 21.53 0 01-1.89 7.09 11.19 11.19 0 01-3.71 4.53 7.35 7.35 0 01-9.46-1 11.45 11.45 0 01-2.67-5.26 21.82 21.82 0 01-.35-7.46 20.69 20.69 0 011.9-7.09zM129 31.93a19 19 0 001.79-6.77 21 21 0 00-.27-7.36c-.51-1.91-1.34-2.93-2.5-3.06a2.54 2.54 0 00-2.15 1 9.05 9.05 0 00-1.74 3.26 23.52 23.52 0 00-1 5 24.81 24.81 0 00-.07 5.21 9.49 9.49 0 001 3.64 2.54 2.54 0 001.89 1.46c1.14.06 2.17-.71 3.05-2.38zM157.19 15.27l-.05.27a4.47 4.47 0 00-1 2L152 42.07l-1.58-.26L144.67 24l-2.4 14a3.78 3.78 0 00.34 2.16l-.05.31-5.92-1 .05-.31a4.27 4.27 0 001-1.92L141.53 15a3.24 3.24 0 000-1 6.56 6.56 0 00-.31-1.16v-.27l5 .85L150 26.06l1.59-9.34a3.52 3.52 0 00-.34-2.19l.05-.27zM167.79 17.61l-.06.26a4.45 4.45 0 00-1.14 1.91l-4.84 22a2.45 2.45 0 000 1A10.75 10.75 0 00162 44l-.06.27L156.1 43l.05-.27a4.45 4.45 0 001.14-1.91l4.84-22a2.46 2.46 0 000-1c0-.32-.14-.73-.27-1.24l.06-.27zM179.1 47.91a6.37 6.37 0 01-2.07.19 12.1 12.1 0 01-2.68-.41 8.46 8.46 0 01-4.56-2.93 10.59 10.59 0 01-2.15-5.42 18.35 18.35 0 01.61-7 21.6 21.6 0 013.15-7 11.55 11.55 0 014.69-4 8.15 8.15 0 015.51-.41 12.55 12.55 0 012.62 1 3.85 3.85 0 011.35.94l-1.31 5.79h-.16a13 13 0 00-1.39-2.18 4 4 0 00-2.17-1.55 3.32 3.32 0 00-2.83.56 8.7 8.7 0 00-2.61 3.05 21.69 21.69 0 00-2 5.17 15.39 15.39 0 00-.58 4.61 7.48 7.48 0 00.86 3.42 3.5 3.5 0 002.17 1.71 6.13 6.13 0 002.82.1 12.42 12.42 0 002.29-.64h.15z" class="cls-1"/></g></g></g></svg>