<svg viewBox="0 0 166 73" fill="currentColor" xmlns="http://www.w3.org/2000/svg">
<path d="M17.2326 64.0326C17.2326 66.2926 16.3726 68.2126 14.6526 69.8026C12.9326 71.3926 10.8626 72.1826 8.45264 72.1826C7.03264 72.1826 5.34264 71.7526 3.37263 70.8826C2.85263 70.6426 2.45263 70.5326 2.19263 70.5326C1.88263 70.5326 1.68263 70.8926 1.60263 71.6226C1.57263 72.0026 1.40264 72.1826 1.09264 72.1826C0.832636 72.1826 0.702637 72.0226 0.702637 71.7126C0.702637 71.5026 0.712638 71.3426 0.742638 71.2426C0.952638 69.6426 1.05264 68.1626 1.05264 66.7926C1.05264 66.5326 1.02264 65.7926 0.972637 64.5826C0.942637 64.4226 0.932636 64.2126 0.932636 63.9526C0.932636 63.5626 1.09264 63.3626 1.40264 63.3626C1.66264 63.3626 1.85264 63.6826 1.95264 64.3126C2.63264 69.0326 4.85263 71.3926 8.60263 71.3926C10.2026 71.3926 11.4426 70.9426 12.3226 70.0326C13.2026 69.1226 13.6426 67.8426 13.6426 66.1926C13.6426 64.7226 13.2126 63.4726 12.3626 62.4326C11.5126 61.3926 10.0426 60.3626 7.97264 59.3426C5.48264 58.1126 3.74264 56.9126 2.77264 55.7626C1.80264 54.6026 1.31264 53.1826 1.31264 51.4726C1.31264 49.2926 2.01264 47.4926 3.42264 46.0826C4.82264 44.6626 6.60264 43.9526 8.75264 43.9526C9.64264 43.9526 10.8826 44.2526 12.4526 44.8626C13.0026 45.0726 13.4126 45.1826 13.6726 45.1826C13.9626 45.1826 14.1526 45.1326 14.2426 45.0226C14.3326 44.9226 14.4226 44.6426 14.5026 44.1926C14.5526 43.9326 14.7026 43.8026 14.9326 43.8026C15.1926 43.8026 15.3226 43.9626 15.3226 44.2726C15.3226 44.4826 15.3126 44.6426 15.2826 44.7426C15.2026 45.3726 15.1626 46.1326 15.1626 47.0226C15.1626 48.2826 15.2326 49.2826 15.3626 50.0126L15.4026 50.6426C15.4326 50.9326 15.3126 51.0726 15.0526 51.0726C14.7626 51.0726 14.5626 50.7726 14.4626 50.1626C14.1726 48.6126 13.4926 47.3226 12.4126 46.2826C11.3326 45.2426 10.1326 44.7226 8.79264 44.7226C7.48264 44.7226 6.43264 45.1426 5.66264 45.9826C4.89264 46.8226 4.50264 47.9626 4.50264 49.4026C4.50264 51.0826 5.06263 52.4326 6.19263 53.4526C6.82263 54.0326 8.18263 54.8426 10.2826 55.8926C12.7526 57.1226 14.5226 58.3826 15.5926 59.6526C16.6926 60.9526 17.2326 62.4026 17.2326 64.0326Z"/>
<path d="M37.9827 50.9226C37.9827 53.4726 36.8927 55.4526 34.7127 56.8626C33.3527 57.7526 31.6127 58.2026 29.5127 58.2026C28.6227 58.2026 27.6127 58.1126 26.4827 57.9226V69.1026C26.4827 69.7026 26.5127 70.0826 26.5627 70.2426C26.6927 70.6126 26.9827 70.8326 27.4327 70.9126C28.1927 71.0126 28.9327 71.0726 29.6327 71.0726C29.9227 71.0726 30.0627 71.1626 30.0627 71.3526C30.0627 71.6126 29.8827 71.7426 29.5127 71.7426C29.3527 71.7426 29.2227 71.7426 29.1227 71.7426C27.6827 71.7426 24.9627 71.7426 20.9727 71.7426H20.4627C19.6727 71.7426 19.2827 71.6126 19.2827 71.3526C19.2827 71.1726 19.5627 71.0726 20.1127 71.0726C21.3427 71.0726 22.0527 70.9526 22.2427 70.7226C22.4527 70.6126 22.5727 70.3526 22.5927 69.9326V46.6726C22.5927 45.8626 22.3727 45.3626 21.9227 45.1726C21.6627 45.0726 21.2027 45.0126 20.5427 45.0126H20.1527C20.0727 45.0126 19.9827 45.0126 19.8727 45.0126C19.4827 45.0126 19.2827 44.9126 19.2827 44.6926C19.2827 44.4526 19.6527 44.3426 20.3827 44.3426H29.0427C32.0327 44.3426 34.2227 44.8726 35.6227 45.9226C37.1927 47.1026 37.9827 48.7726 37.9827 50.9226ZM33.8427 50.9626C33.8427 47.0026 32.1927 45.0226 28.8827 45.0226C27.7827 45.0226 27.0627 45.2126 26.7127 45.5826C26.5527 45.7426 26.4727 46.1526 26.4727 46.8126V57.3526C26.6827 57.3826 26.9227 57.3926 27.1827 57.3926C28.9127 57.3926 30.3827 57.0126 31.5927 56.2426C33.0927 55.2826 33.8427 53.5226 33.8427 50.9626Z"/>
<path d="M61.6025 70.5326C61.6025 71.6326 60.6825 72.1826 58.8425 72.1826C56.7925 72.1826 55.1925 71.3326 54.0425 69.6226C53.5425 68.8926 53.2225 68.1826 53.0825 67.4926C52.9425 66.8126 52.7225 65.0826 52.4325 62.2926C52.2725 60.6126 51.7325 59.4226 50.8225 58.7326C49.9025 58.0326 48.4025 57.6626 46.3325 57.6126V70.0126C46.3325 70.5426 46.7525 70.8626 47.5925 70.9926C47.8325 71.0226 48.4325 71.0426 49.4025 71.0726C49.7425 71.0726 49.9125 71.1726 49.9125 71.3826C49.9125 71.6226 49.6925 71.7326 49.2425 71.7326H48.7725C48.5325 71.7326 47.3925 71.7326 45.3425 71.7326C44.9525 71.7326 44.2825 71.7326 43.3325 71.7326C42.4125 71.7326 41.8125 71.7326 41.5225 71.7326H39.9825C39.4025 71.7326 39.1125 71.6126 39.1125 71.3826C39.1125 71.2026 39.4925 71.0926 40.2525 71.0726C41.4825 71.0426 42.1525 70.8926 42.2625 70.6026C42.3625 70.4726 42.4225 69.9626 42.4225 69.0626V47.3326C42.4225 46.2826 42.3125 45.6526 42.0925 45.4426C41.8725 45.2326 41.1925 45.1126 40.0625 45.0926C39.4025 45.0926 39.0825 44.9726 39.0825 44.7426C39.0825 44.4826 39.2925 44.3526 39.7125 44.3526C39.7925 44.3526 39.9125 44.3626 40.0625 44.3926L45.3025 44.5126C45.8225 44.5126 46.5625 44.4926 47.5125 44.4626C48.5625 44.3926 49.2925 44.3526 49.7125 44.3526C52.1525 44.3526 54.0925 44.8926 55.5225 45.9826C56.9525 47.0726 57.6725 48.5526 57.6725 50.4126C57.6725 52.2526 56.9325 53.7626 55.4725 54.9626C54.0025 56.1526 52.0125 56.8626 49.4925 57.0726C49.2525 57.1026 49.1225 57.1426 49.1025 57.1926C49.1025 57.3026 49.2325 57.3526 49.4925 57.3526C52.2525 57.8226 54.1425 58.7926 55.1825 60.2526C56.2225 61.7126 56.9125 64.3526 57.2525 68.1726C57.4625 70.3326 58.1925 71.4126 59.4525 71.4126C59.8425 71.4126 60.0425 71.3326 60.0425 71.1726C60.0425 71.1426 60.0325 71.1226 60.0025 71.0926C59.8725 70.8026 59.8025 70.5626 59.8025 70.3826C59.8025 69.8326 60.0925 69.5526 60.6725 69.5526C61.2825 69.5426 61.6025 69.8726 61.6025 70.5326ZM53.4525 50.8026C53.4525 47.0526 51.8225 45.1726 48.5725 45.1726C47.7025 45.1726 47.1125 45.2926 46.8025 45.5226C46.4825 45.7626 46.3325 46.1826 46.3325 46.7826V56.7826C48.8525 56.8126 50.6725 56.3526 51.7825 55.4026C52.8925 54.4626 53.4525 52.9326 53.4525 50.8026Z"/>
<path d="M72.7026 71.3726C72.7026 71.5926 72.5426 71.7026 72.2326 71.7026H71.8426C71.6826 71.6226 69.9026 71.5826 66.4926 71.5826C65.8326 71.5826 65.1826 71.6126 64.5226 71.6626C64.1826 71.6926 63.6526 71.7026 62.9426 71.7026C62.6026 71.7026 62.4326 71.5826 62.4326 71.3526C62.4326 71.1426 62.7726 71.0226 63.4526 71.0026C64.5026 70.9726 65.1226 70.8526 65.3026 70.6326C65.4826 70.4126 65.5826 69.6526 65.5826 68.3626V47.5926C65.5826 46.3026 65.5126 45.5826 65.3826 45.4226C65.2226 45.1626 64.4926 45.0026 63.1926 44.9526C62.6926 44.9326 62.4326 44.8326 62.4326 44.6726C62.4326 44.4626 62.5926 44.3626 62.9126 44.3626H68.2726C68.6726 44.3626 69.4326 44.3726 70.5726 44.4026L72.0826 44.3626C72.5026 44.3626 72.7126 44.4726 72.7126 44.7026C72.7126 44.9026 72.1326 45.0226 70.9626 45.0726C70.3026 45.1026 69.8926 45.2126 69.7426 45.4226C69.5926 45.6326 69.5226 46.1826 69.5226 47.0726V68.0926C69.5226 69.5926 69.5826 70.4026 69.7226 70.5326C70.0126 70.8226 70.8626 70.9926 72.2826 71.0426C72.5526 71.0426 72.7026 71.1526 72.7026 71.3726Z"/>
<path d="M96.2028 51.3926C96.2028 51.7326 96.0428 51.9026 95.7328 51.9026C95.4228 51.9026 95.1928 51.5626 95.0628 50.8826C95.0128 50.4126 94.9528 49.9326 94.9028 49.4626C94.7228 48.5126 94.4128 47.7126 93.9928 47.0626C93.4428 46.1926 92.5328 45.6426 91.2728 45.4126C90.4628 45.2526 89.8028 45.1926 89.3028 45.2126C88.0728 45.2526 87.3228 45.2726 87.0628 45.2926V69.0626C87.0628 70.0126 87.3128 70.6026 87.8128 70.8326C88.0728 70.9626 88.8128 71.0426 90.0128 71.0726C90.3328 71.0926 90.4828 71.2126 90.4828 71.4026C90.4828 71.6226 90.2728 71.7326 89.8528 71.7326C89.6428 71.7326 89.4628 71.7226 89.3028 71.6926C87.7328 71.6426 86.6128 71.6126 85.9528 71.6126C85.0828 71.6126 84.2728 71.6326 83.5128 71.6726C82.7528 71.7126 81.7828 71.7326 80.6028 71.7326C80.0028 71.7326 79.6928 71.6226 79.6928 71.4126C79.6928 71.1726 80.2528 71.0426 81.3828 71.0226C82.1928 71.0226 82.7228 70.8526 82.9528 70.5126C83.0828 70.3026 83.1528 69.7626 83.1528 68.8926V45.2726C80.5528 45.3026 78.9428 45.4326 78.3128 45.6626C76.6628 46.2626 75.6928 47.8826 75.4028 50.5026C75.3228 51.2926 75.1428 51.6826 74.8528 51.6826C74.5428 51.6826 74.3828 51.4026 74.3828 50.8526C74.3828 50.5626 74.3928 50.2726 74.4228 49.9826L74.5028 49.0726C74.5828 47.8626 74.7028 46.2826 74.8528 44.3126H76.6228L84.6528 44.4326C85.5928 44.4626 87.0628 44.4626 89.0628 44.4326L95.5928 44.3126C95.6428 45.7826 95.8128 47.9626 96.1028 50.8526C96.1028 50.9326 96.1128 51.0326 96.1428 51.1426C96.1828 51.3026 96.2028 51.3726 96.2028 51.3926Z"/>
<path d="M117.733 63.2426C117.733 63.4226 117.723 63.5726 117.693 63.6726L117.493 64.9726C117.313 66.1326 117.073 67.8226 116.783 70.0526C116.733 70.4226 116.663 70.9926 116.583 71.7826C116.763 71.7826 116.173 71.7826 114.793 71.7826C113.413 71.7826 111.943 71.7826 110.363 71.7826H107.453C103.723 71.7826 101.063 71.8426 99.4627 71.9526C99.3327 71.9726 99.1327 71.9826 98.8727 71.9826C98.4827 71.9826 98.2827 71.8726 98.2827 71.6626L98.3627 71.4226C98.4127 71.3426 98.7327 70.7426 99.3127 69.6126C101.103 66.1526 104.493 59.7326 109.513 50.3626C110.533 48.4426 111.373 46.7926 112.033 45.4026C111.433 45.2726 110.113 45.2026 108.093 45.2026C104.893 45.2026 102.873 45.8626 102.033 47.1726C101.823 47.5126 101.553 48.2126 101.223 49.2826C100.893 50.3426 100.683 51.2626 100.573 52.0226C100.493 52.5726 100.293 52.8526 99.9827 52.8526C99.7227 52.8526 99.5927 52.7226 99.5927 52.4626C99.5927 52.2526 99.6027 52.0926 99.6327 51.9926L99.9127 50.1026C99.9927 49.5026 100.093 48.8426 100.223 48.1326L100.503 46.5226C100.603 45.9226 100.763 45.1426 100.973 44.2026C102.553 44.3626 105.013 44.4426 108.373 44.4426C109.503 44.4426 110.703 44.4226 111.993 44.3826C113.283 44.3426 114.413 44.3226 115.383 44.3226H116.013C116.253 44.3226 116.463 44.2826 116.643 44.2026C116.513 44.6326 116.023 45.7326 115.173 47.5026C115.043 47.8926 111.433 54.7726 104.343 68.1326C104.033 68.7426 103.563 69.6326 102.933 70.8126C104.193 70.9526 105.733 71.0126 107.543 71.0126C109.273 71.0126 110.503 70.9626 111.213 70.8526C112.633 70.6126 113.723 70.1126 114.483 69.3426C115.613 68.2026 116.373 66.2426 116.773 63.4626C116.823 63.0126 116.993 62.7826 117.283 62.7826C117.573 62.7726 117.733 62.9326 117.733 63.2426Z"/>
<path d="M141.043 65.3726C141.043 65.4726 141.013 66.1226 140.963 67.3026C140.913 68.4826 140.883 69.6126 140.883 70.6926V71.9926C138.313 71.8326 133.223 71.7526 125.613 71.7526C124.693 71.7526 123.793 71.7526 122.893 71.7526C122.003 71.7526 121.393 71.7526 121.083 71.7526H120.683C120.183 71.7526 119.933 71.6426 119.933 71.4326C119.933 71.2926 120.013 71.2126 120.173 71.1826C120.253 71.1826 120.753 71.1426 121.673 71.0726C122.353 71.0226 122.773 70.8726 122.913 70.6426C123.053 70.4026 123.133 69.7826 123.133 68.7826V46.5926C123.133 45.8326 123.023 45.3726 122.803 45.2326C122.583 45.0926 121.863 45.0126 120.653 45.0126C120.233 45.0126 120.023 44.9026 120.023 44.6826C120.023 44.4626 120.313 44.3526 120.893 44.3526H127.623C127.863 44.3526 129.343 44.3526 132.073 44.3526C134.803 44.3526 136.643 44.3526 137.583 44.3526C138.373 44.3526 139.093 44.3026 139.753 44.1926C139.803 45.3226 139.923 46.8826 140.103 48.8726L140.263 50.5626C140.293 50.6926 140.303 50.8626 140.303 51.0726C140.303 51.3326 140.183 51.4626 139.953 51.4626C139.663 51.4626 139.453 51.1326 139.323 50.4726C138.823 48.0926 138.013 46.5926 136.883 45.9526C136.043 45.4826 133.843 45.2426 130.273 45.2426H127.043V56.8126H127.993C130.933 56.8126 132.723 56.5926 133.363 56.1426C134.003 55.6926 134.443 54.3926 134.683 52.2426C134.733 51.6926 134.883 51.4126 135.113 51.4126C135.403 51.4126 135.543 51.6526 135.543 52.1226C135.543 52.5926 135.513 53.2926 135.463 54.2126C135.413 55.1326 135.383 55.8226 135.383 56.3026C135.383 59.1126 135.423 61.0426 135.513 62.0926C135.533 62.3526 135.543 62.5826 135.543 62.7626C135.543 63.1026 135.403 63.2726 135.113 63.2726C134.933 63.2726 134.803 63.1626 134.743 62.9426C134.673 62.7226 134.563 61.9926 134.413 60.7626C134.203 59.2126 133.563 58.2526 132.493 57.8926C132.023 57.7326 130.793 57.6526 128.813 57.6526H127.053V70.8426C132.823 70.8426 136.213 70.7226 137.213 70.4926C138.943 70.1026 139.933 68.4426 140.163 65.5126C140.213 64.8626 140.383 64.5426 140.673 64.5426C140.913 64.5426 141.043 64.8226 141.043 65.3726Z"/>
<path d="M165.212 70.5326C165.212 71.6326 164.292 72.1826 162.452 72.1826C160.402 72.1826 158.802 71.3326 157.652 69.6226C157.152 68.8926 156.832 68.1826 156.692 67.4926C156.552 66.8126 156.332 65.0826 156.042 62.2926C155.882 60.6126 155.342 59.4226 154.432 58.7326C153.512 58.0326 152.012 57.6626 149.942 57.6126V70.0126C149.942 70.5426 150.362 70.8626 151.202 70.9926C151.442 71.0226 152.042 71.0426 153.012 71.0726C153.352 71.0726 153.522 71.1726 153.522 71.3826C153.522 71.6226 153.302 71.7326 152.852 71.7326H152.382C152.142 71.7326 151.002 71.7326 148.952 71.7326C148.562 71.7326 147.892 71.7326 146.942 71.7326C146.022 71.7326 145.422 71.7326 145.132 71.7326H143.592C143.012 71.7326 142.722 71.6126 142.722 71.3826C142.722 71.2026 143.102 71.0926 143.862 71.0726C145.092 71.0426 145.762 70.8926 145.872 70.6026C145.972 70.4726 146.032 69.9626 146.032 69.0626V47.3326C146.032 46.2826 145.922 45.6526 145.702 45.4426C145.482 45.2326 144.802 45.1126 143.672 45.0926C143.012 45.0926 142.692 44.9726 142.692 44.7426C142.692 44.4826 142.902 44.3526 143.322 44.3526C143.402 44.3526 143.522 44.3626 143.672 44.3926L148.912 44.5126C149.432 44.5126 150.172 44.4926 151.122 44.4626C152.172 44.3926 152.902 44.3526 153.322 44.3526C155.762 44.3526 157.702 44.8926 159.132 45.9826C160.562 47.0726 161.282 48.5526 161.282 50.4126C161.282 52.2526 160.542 53.7626 159.082 54.9626C157.612 56.1526 155.622 56.8626 153.102 57.0726C152.862 57.1026 152.732 57.1426 152.712 57.1926C152.712 57.3026 152.842 57.3526 153.102 57.3526C155.862 57.8226 157.752 58.7926 158.792 60.2526C159.832 61.7126 160.522 64.3526 160.862 68.1726C161.072 70.3326 161.802 71.4126 163.062 71.4126C163.452 71.4126 163.652 71.3326 163.652 71.1726C163.652 71.1426 163.642 71.1226 163.612 71.0926C163.482 70.8026 163.412 70.5626 163.412 70.3826C163.412 69.8326 163.702 69.5526 164.282 69.5526C164.892 69.5426 165.212 69.8726 165.212 70.5326ZM157.062 50.8026C157.062 47.0526 155.432 45.1726 152.182 45.1726C151.312 45.1726 150.722 45.2926 150.412 45.5226C150.092 45.7626 149.942 46.1826 149.942 46.7826V56.7826C152.462 56.8126 154.282 56.3526 155.392 55.4026C156.502 54.4626 157.062 52.9326 157.062 50.8026Z"/>
<path d="M59.4824 35.2626C59.4824 36.3626 58.5624 36.9126 56.7224 36.9126C54.6724 36.9126 53.0724 36.0626 51.9224 34.3526C51.4224 33.6226 51.1024 32.9126 50.9624 32.2226C50.8224 31.5426 50.6024 29.8126 50.3124 27.0226C50.1524 25.3426 49.6124 24.1526 48.7024 23.4626C47.7824 22.7626 46.2824 22.3926 44.2124 22.3426V34.7426C44.2124 35.2726 44.6324 35.5926 45.4724 35.7226C45.7124 35.7526 46.3124 35.7726 47.2824 35.8026C47.6224 35.8026 47.7924 35.9126 47.7924 36.1226C47.7924 36.3626 47.5724 36.4726 47.1224 36.4726H46.6524C46.4124 36.4726 45.2724 36.4726 43.2224 36.4726C42.8324 36.4726 42.1624 36.4726 41.2124 36.4726C40.2924 36.4726 39.6924 36.4726 39.4024 36.4726H37.8624C37.2824 36.4726 36.9924 36.3526 36.9924 36.1226C36.9924 35.9426 37.3724 35.8326 38.1324 35.8026C39.3624 35.7726 40.0324 35.6226 40.1424 35.3326C40.2424 35.2026 40.3024 34.6926 40.3024 33.7926V12.0826C40.3024 11.0326 40.1924 10.4026 39.9724 10.1926C39.7524 9.9826 39.0724 9.86261 37.9424 9.84261C37.2824 9.84261 36.9624 9.7226 36.9624 9.4926C36.9624 9.2326 37.1724 9.1026 37.5924 9.1026C37.6724 9.1026 37.7924 9.1126 37.9424 9.1426L43.1824 9.2626C43.7024 9.2626 44.4424 9.2426 45.3924 9.2126C46.4424 9.1426 47.1724 9.1126 47.5924 9.1126C50.0324 9.1126 51.9724 9.6526 53.4024 10.7426C54.8324 11.8326 55.5524 13.3126 55.5524 15.1726C55.5524 17.0126 54.8124 18.5226 53.3524 19.7226C51.8824 20.9126 49.8924 21.6226 47.3724 21.8326C47.1324 21.8626 47.0024 21.9026 46.9824 21.9526C46.9824 22.0626 47.1124 22.1126 47.3724 22.1126C50.1324 22.5826 52.0224 23.5526 53.0624 25.0126C54.1024 26.4726 54.7924 29.1126 55.1324 32.9326C55.3424 35.0926 56.0724 36.1726 57.3324 36.1726C57.7224 36.1726 57.9224 36.0926 57.9224 35.9326C57.9224 35.9026 57.9124 35.8826 57.8824 35.8526C57.7524 35.5626 57.6824 35.3326 57.6824 35.1426C57.6824 34.5926 57.9724 34.3126 58.5524 34.3126C59.1624 34.2826 59.4824 34.6126 59.4824 35.2626ZM51.3324 15.5426C51.3324 11.7926 49.7024 9.91261 46.4524 9.91261C45.5824 9.91261 44.9924 10.0326 44.6824 10.2626C44.3624 10.5026 44.2124 10.9226 44.2124 11.5226V21.5226C46.7324 21.5526 48.5524 21.0926 49.6624 20.1426C50.7724 19.2026 51.3324 17.6726 51.3324 15.5426Z"/>
<path d="M85.9324 22.9426C85.9324 26.8526 84.7624 30.1626 82.4124 32.8626C80.0624 35.5626 77.1824 36.9126 73.7724 36.9126C70.1524 36.9126 67.1024 35.5426 64.6424 32.8026C62.1724 30.0626 60.9424 26.6826 60.9424 22.6626C60.9424 18.5726 62.1324 15.2126 64.5024 12.6026C66.8824 9.99262 69.9124 8.68262 73.6124 8.68262C77.1024 8.68262 80.0324 10.0426 82.3924 12.7726C84.7524 15.5126 85.9324 18.9026 85.9324 22.9426ZM81.5224 23.1426C81.5224 18.3226 80.5424 14.5726 78.5724 11.8926C77.3424 10.2126 75.6224 9.36262 73.4124 9.36262C71.3124 9.36262 69.6824 10.0126 68.5324 11.2926C66.4024 13.6626 65.3424 17.5226 65.3424 22.8626C65.3424 27.1026 66.0824 30.3926 67.5624 32.7326C69.0424 35.0726 71.1224 36.2426 73.8024 36.2426C76.2924 36.2426 78.1724 35.1326 79.4324 32.9226C80.8324 30.4826 81.5224 27.2226 81.5224 23.1426Z"/>
<path d="M106.052 28.7726C106.052 31.0326 105.192 32.9526 103.472 34.5426C101.752 36.1326 99.6825 36.9226 97.2725 36.9226C95.8525 36.9226 94.1625 36.4926 92.1925 35.6226C91.6725 35.3826 91.2725 35.2726 91.0125 35.2726C90.7025 35.2726 90.5025 35.6326 90.4225 36.3626C90.3925 36.7426 90.2225 36.9226 89.9125 36.9226C89.6525 36.9226 89.5225 36.7626 89.5225 36.4526C89.5225 36.2426 89.5325 36.0826 89.5625 35.9826C89.7725 34.3826 89.8725 32.9026 89.8725 31.5326C89.8725 31.2726 89.8425 30.5326 89.7925 29.3326C89.7625 29.1726 89.7525 28.9626 89.7525 28.7026C89.7525 28.3126 89.9125 28.1126 90.2225 28.1126C90.4825 28.1126 90.6725 28.4326 90.7725 29.0626C91.4525 33.7826 93.6725 36.1426 97.4225 36.1426C99.0225 36.1426 100.262 35.6926 101.142 34.7826C102.022 33.8726 102.462 32.6026 102.462 30.9426C102.462 29.4726 102.032 28.2226 101.182 27.1826C100.332 26.1426 98.8625 25.1126 96.7925 24.0926C94.3025 22.8626 92.5625 21.6626 91.5925 20.5126C90.6225 19.3626 90.1325 17.9326 90.1325 16.2226C90.1325 14.0426 90.8325 12.2426 92.2425 10.8326C93.6425 9.4126 95.4225 8.70261 97.5725 8.70261C98.4625 8.70261 99.7025 9.0026 101.272 9.6126C101.822 9.8226 102.232 9.9226 102.492 9.9226C102.782 9.9226 102.972 9.8726 103.062 9.7626C103.152 9.6626 103.242 9.3826 103.322 8.9326C103.372 8.6726 103.522 8.5426 103.752 8.5426C104.012 8.5426 104.142 8.7026 104.142 9.0126C104.142 9.2226 104.132 9.3826 104.102 9.4826C104.022 10.1126 103.982 10.8726 103.982 11.7626C103.982 13.0226 104.052 14.0226 104.182 14.7526L104.222 15.3826C104.252 15.6726 104.132 15.8126 103.872 15.8126C103.582 15.8126 103.382 15.5126 103.282 14.9026C102.992 13.3526 102.312 12.0626 101.232 11.0226C100.152 9.98261 98.9525 9.4626 97.6125 9.4626C96.3025 9.4626 95.2525 9.8826 94.4825 10.7226C93.7125 11.5626 93.3225 12.7026 93.3225 14.1426C93.3225 15.8226 93.8825 17.1726 95.0125 18.1926C95.6425 18.7726 97.0025 19.5826 99.1025 20.6326C101.572 21.8626 103.342 23.1226 104.412 24.3926C105.512 25.6926 106.052 27.1426 106.052 28.7726Z"/>
<path d="M129.322 30.1126C129.322 30.2226 129.292 30.8626 129.242 32.0426C129.192 33.2226 129.162 34.3526 129.162 35.4326V36.7326C126.592 36.5726 121.502 36.4926 113.892 36.4926C112.972 36.4926 112.072 36.4926 111.172 36.4926C110.282 36.4926 109.672 36.4926 109.362 36.4926H108.972C108.472 36.4926 108.222 36.3826 108.222 36.1726C108.222 36.0326 108.302 35.9526 108.462 35.9226C108.542 35.9226 109.042 35.8826 109.962 35.8126C110.642 35.7626 111.062 35.6126 111.202 35.3826C111.342 35.1426 111.422 34.5226 111.422 33.5226V11.3326C111.422 10.5726 111.312 10.1126 111.092 9.9726C110.872 9.8326 110.152 9.7526 108.942 9.7526C108.522 9.7526 108.312 9.6426 108.312 9.4226C108.312 9.2026 108.602 9.09261 109.182 9.09261H115.912C116.152 9.09261 117.632 9.09261 120.362 9.09261C123.092 9.09261 124.932 9.09261 125.872 9.09261C126.662 9.09261 127.382 9.0426 128.042 8.9326C128.092 10.0626 128.212 11.6226 128.392 13.6126L128.552 15.3026C128.582 15.4326 128.592 15.6026 128.592 15.8126C128.592 16.0726 128.472 16.2026 128.242 16.2026C127.952 16.2026 127.742 15.8726 127.612 15.2126C127.112 12.8326 126.302 11.3326 125.172 10.6926C124.332 10.2226 122.132 9.9826 118.562 9.9826H115.332V21.5526H116.282C119.222 21.5526 121.012 21.3326 121.652 20.8826C122.292 20.4326 122.732 19.1326 122.972 16.9826C123.022 16.4326 123.172 16.1526 123.402 16.1526C123.692 16.1526 123.832 16.3926 123.832 16.8626C123.832 17.3326 123.802 18.0326 123.752 18.9526C123.702 19.8726 123.672 20.5626 123.672 21.0426C123.672 23.8526 123.712 25.7826 123.802 26.8326C123.822 27.0926 123.832 27.3226 123.832 27.5026C123.832 27.8426 123.692 28.0126 123.402 28.0126C123.222 28.0126 123.092 27.9026 123.032 27.6826C122.962 27.4626 122.852 26.7326 122.702 25.5026C122.492 23.9526 121.852 22.9926 120.782 22.6326C120.312 22.4726 119.082 22.3926 117.102 22.3926H115.342V35.5826C121.112 35.5826 124.502 35.4626 125.502 35.2326C127.232 34.8426 128.222 33.1826 128.452 30.2526C128.502 29.6026 128.672 29.2826 128.962 29.2826C129.182 29.2826 129.322 29.5526 129.322 30.1126ZM124.872 0.382603L121.292 4.0826C119.692 5.7326 118.772 6.5626 118.532 6.5626C118.372 6.5626 118.292 6.4926 118.292 6.3626C118.292 6.3126 118.322 6.2326 118.372 6.1226C118.662 5.4126 119.092 4.3926 119.672 3.0526L120.932 0.332603C121.322 0.302603 121.762 0.292603 122.232 0.292603C123.042 0.292603 123.692 0.302603 124.162 0.332603L124.872 0.382603Z"/>
</svg>
