<svg viewBox="0 0 24 24" fill="currentColor"><path d="M21 9c-.353 0-.686.072-1 .184V5c0-2.209-1.791-4-4-4H8C5.791 1 4 2.791 4 5v4.184C3.686 9.072 3.353 9 3 9c-1.657 0-3 1.343-3 3v6c0 1.305.838 2.403 2 2.816V22c0 .553.447 1 1 1s1-.447 1-1v-1h16v1c0 .553.447 1 1 1s1-.447 1-1v-1.184c1.162-.413 2-1.512 2-2.816v-6c0-1.657-1.343-3-3-3zM4 18c0 .553-.447 1-1 1s-1-.447-1-1v-6c0-.553.447-1 1-1s1 .447 1 1v6zm14 1H6v-3h12v3zm0-5H6V5c0-1.104.896-2 2-2h8c1.104 0 2 .896 2 2v9zm4 4c0 .553-.447 1-1 1s-1-.447-1-1v-6c0-.553.447-1 1-1s1 .447 1 1v6z"/></svg>