<svg viewBox="0 0 24 24" fill="currentColor"><path d="M23.968 15.839l.019-.003-1-6-.019.003C22.888 9.366 22.495 9 22 9h-4c-.495 0-.888.366-.968.839l-.019-.003-1 6 .019.003c-.009.055-.032.103-.032.161 0 .553.447 1 1 1h2c0 1.657-1.343 3-3 3s-3-1.343-3-3V4h5c.553 0 1-.447 1-1s-.447-1-1-1H6c-.553 0-1 .447-1 1s.447 1 1 1h5v13c0 1.657-1.343 3-3 3s-3-1.343-3-3h2c.553 0 1-.447 1-1 0-.058-.023-.106-.032-.161l.019-.003-1-6-.019.003C6.888 9.366 6.495 9 6 9H2c-.495 0-.888.366-.968.839l-.018-.003-1 6 .019.003C.023 15.894 0 15.942 0 16c0 .553.447 1 1 1h2c0 2.762 2.238 5 5 5 1.644 0 3.089-.804 4-2.027.911 1.223 2.356 2.027 4 2.027 2.762 0 5-2.238 5-5h2c.553 0 1-.447 1-1 0-.058-.023-.106-.032-.161zM2.181 15l.666-4h2.306l.667 4H2.181zm16 0l.666-4h2.306l.667 4h-3.639z"/></svg>