<svg viewBox="0 0 24 24" fill="currentColor"><path d="M12 11c-.552 0-1 .447-1 1s.448 1 1 1 1-.447 1-1-.448-1-1-1zM8 7c-.552 0-1 .447-1 1s.448 1 1 1 1-.447 1-1-.448-1-1-1zm0 8c-.552 0-1 .447-1 1s.448 1 1 1 1-.447 1-1-.448-1-1-1zm8 0c-.552 0-1 .447-1 1s.448 1 1 1 1-.447 1-1-.448-1-1-1zm0-8c-.552 0-1 .447-1 1s.448 1 1 1 1-.447 1-1-.448-1-1-1zm6.192 11.249c.29-1.211.808-3.721.808-6.249 0-2.516-.519-5.034-.809-6.249C23.255 5.29 24 4.233 24 3c0-1.657-1.343-3-3-3-1.233 0-2.29.745-2.751 1.808C17.038 1.518 14.528 1 12 1c-2.516 0-5.034.519-6.249.809C5.29.745 4.233 0 3 0 1.343 0 0 1.343 0 3c0 1.233.745 2.29 1.809 2.751C1.518 6.966 1 9.484 1 12c0 2.528.518 5.038.808 6.249C.745 18.711 0 19.768 0 21c0 1.657 1.343 3 3 3 1.233 0 2.29-.745 2.751-1.809C6.966 22.481 9.484 23 12 23c2.528 0 5.038-.518 6.249-.808C18.71 23.255 19.767 24 21 24c1.657 0 3-1.343 3-3 0-1.232-.745-2.289-1.808-2.751zM21 12c0 3.5-1 7-1 7 0 .553.448 1 1 1s1 .447 1 1-.448 1-1 1-1-.447-1-1-.448-1-1-1c0 0-3.5 1-7 1s-7-1-7-1c-.552 0-1 .447-1 1s-.448 1-1 1-1-.447-1-1 .448-1 1-1 1-.447 1-1c0 0-1-3.5-1-7s1-7 1-7c0-.553-.448-1-1-1s-1-.447-1-1 .448-1 1-1 1 .447 1 1 .448 1 1 1c0 0 3.5-1 7-1s7 1 7 1c.552 0 1-.447 1-1s.448-1 1-1 1 .447 1 1-.448 1-1 1-1 .447-1 1c0 0 1 3.5 1 7z"/></svg>