<svg viewBox="0 0 24 24" fill="currentColor"><path d="M23 5c0-1.657-1.343-3-3-3s-3 1.343-3 3h-2c0-1.657-1.343-3-3-3S9 3.343 9 5H7c0-1.657-1.343-3-3-3S1 3.343 1 5v12c-.553 0-1 .447-1 1s.447 1 1 1c0 1.657 1.343 3 3 3s3-1.343 3-3h2c0 1.657 1.343 3 3 3s3-1.343 3-3h2c0 1.657 1.343 3 3 3s3-1.343 3-3V7c.553 0 1-.447 1-1s-.447-1-1-1zM5 19c0 .553-.447 1-1 1s-1-.447-1-1V5c0-.553.447-1 1-1s1 .447 1 1v14zm4-2H7V7h2v10zm4 2c0 .553-.447 1-1 1s-1-.447-1-1V5c0-.553.447-1 1-1s1 .447 1 1v14zm4-2h-2V7h2v10zm4 2c0 .553-.447 1-1 1s-1-.447-1-1V5c0-.553.447-1 1-1s1 .447 1 1v14z"/></svg>