<svg viewBox="0 0 24 24" fill="currentColor"><path d="M23 13h-3V3c0-1.657-1.343-3-3-3-.829 0-1.61.242-2.152.785l-1.803 1.846-.338-.338S12.537 2 12 2c-.552 0-1 .447-1 1 0 .276.112.526.293.707l2 2c.181.181.431.293.707.293.552 0 1-.447 1-1 0-.541-.293-.707-.293-.707l-.248-.248 1.823-1.856c.182-.166.45-.189.718-.189.552 0 1 .447 1 1v10H1c-.552 0-1 .447-1 1s.448 1 1 1h1v3c0 1.477.81 2.752 2 3.445V23c0 .553.448 1 1 1s1-.447 1-1v-1h12v1c0 .553.448 1 1 1s1-.447 1-1v-1.555c1.19-.693 2-1.969 2-3.445v-3h1c.552 0 1-.447 1-1s-.448-1-1-1zm-3 5c0 1.104-.896 2-2 2H6c-1.104 0-2-.896-2-2v-3h16v3z"/></svg>