<svg viewBox="0 0 24.001 24" fill="currentColor"><path d="M16.5 9h-1V6c0-.553-.447-1-1-1s-1 .447-1 1v4c0 .553.447 1 1 1h2c.553 0 1-.447 1-1s-.447-1-1-1zm6 1c0-4.418-3.582-8-8-8-4.079 0-7.438 3.055-7.931 7H3.5V1c0-.553-.447-1-1-1s-1 .447-1 1v22c0 .553.447 1 1 1s1-.447 1-1v-.735C5.896 20.729 11.507 18 14.5 18c1.104 0 2 .896 2 2s-.896 2-2 2H14c-.276 0-.5-.224-.5-.5s-.089-.5.188-.5c0 0 .813-.021.813-1 0-.958-.813-1-.813-1-1.381 0-2.188 1.119-2.188 2.5S12.619 24 14 24c.172 0 .338-.021.5-.055V24c2.209 0 4-1.791 4-4 0-.995-.377-1.895-.979-2.595C20.44 16.213 22.5 13.349 22.5 10zm-19 10.211V11h3.065c.306 2.44 1.712 4.536 3.706 5.782-2.759.915-5.35 2.429-6.771 3.429zM14.5 16c-3.313 0-6-2.687-6-6s2.687-6 6-6 6 2.687 6 6-2.687 6-6 6z"/></svg>