<svg viewBox="0 0 24 24" fill="currentColor"><path d="M14.188 17.173c1.083-1.083 1.083-2.84 0-3.924-.361-.361-.947-.361-1.309 0-.36.361-.36.947 0 1.309.361.36.361.946 0 1.308-.36.361-.946.361-1.308 0s-.946-.361-1.308 0-.361.946 0 1.308c1.084 1.083 2.841 1.083 3.925-.001zM23 0H1C.447 0 0 .447 0 1v22c0 .553.447 1 1 1h22c.553 0 1-.447 1-1V1c0-.553-.447-1-1-1zm-1 22H2V8h20v14zm0-16H2V2h20v4zM12 21c1.827 0 3.444-.835 4.545-2.123.138.072.288.123.455.123.553 0 1-.447 1-1v-6c0-.553-.447-1-1-1-.167 0-.317.051-.455.123C15.444 9.835 13.827 9 12 9c-3.313 0-6 2.687-6 6s2.687 6 6 6zm0-10c2.209 0 4 1.791 4 4s-1.791 4-4 4-4-1.791-4-4 1.791-4 4-4zM5 5c.553 0 1-.447 1-1s-.447-1-1-1-1 .447-1 1 .447 1 1 1zm4 0c.553 0 1-.447 1-1s-.447-1-1-1-1 .447-1 1 .447 1 1 1z"/></svg>