<svg xmlns="http://www.w3.org/2000/svg" fill="currentColor" viewBox="0 0 84 8"><path d="M83.4286 3.96241v-.30076c-.1429-.15037-.5714-.45112-1-.15037H70.5714c-.4285 0-.2857 0-.7142.15037h-.1429c-.2857 0-1.1429-.15037-2.2857-.15037h-1.1429c-1.5714-.15038-1.8571-.15038-2.1428-.15038H59c-.4286 0-1 .30076-1 .60151 0 .15038.1429.45112.2857.45112.1429.15038.7143.15039 1.2857.15039 1.4286 0 3-.00001 4.4286-.15039h18.1429c.5714 0 .5714 0 1-.15037.1428-.15038.2857-.15037.2857-.30075zm-35-.75188c.1428.30075.1428.45113.1428.75188 0 .15038.1429-.00001-.2857.45112v.30076c-.1428.45113-.8571.90226-1.4286.75188-.1428-.15038-.2857-.15038-.5714-.30076l-.1428-.15037L46 4.86466c-.1428-.15037-.1428-.30074-.2857-.30074l-.1429-.15039-.1428-.30075c-.1429-.30075 0-.6015 0-.6015 0-.15038.1428-.15037.1428-.30075 0 0 0 .15038.1429 0 .1429 0 .2857-.15037.4286-.15037.1428 0 .2857.15037.2857.15037l.4285-.15037c.1429-.30075.2858-.00001.4286.15037.1429 0 .1429.15037.1429.15037h.1428c.1429.15038.1429.45114.2858.45114.1428-.15038 0-.30076 0-.45114v-.30074c0-.15038 0-.15039-.1429-.30076v-.15037s-.1429-.15038-.2857-.15038c-.1429-.15037-.4286-.15037-.5715 0-.1638.08621-.2336.17242-.2904.25863-.01.05761-.0411.09038-.1381.19249.0609-.06416.0959-.12832.1381-.19249.0047-.02722.0047-.05999.0047-.10825l.1429-.15038s.1429-.15037.2857-.15037h.4286c.1428 0 .2857.15037.2857.15037.1429 0 .2857.15038.2857.15038l.1429.15037c.1428 0 .1428.15037.1428.15037 0 .15038.1429.15038.1429.30076zm3-.75188h.2857c.5714.15038.8571 1.05263.7143 1.65413 0 .15038-.1429.45113-.2857.60151L52 4.86466c0-.15037-.1429 0-.1429 0l-.2857.30075c0 .15038-.1428.15039-.1428.15039h-.2857c-.2857 0-.5715-.15039-.5715-.15039-.1428 0-.1428-.15037-.2857-.15037.1429 0 .1429 0 .1429-.15038-.1429-.15037-.1429-.30075-.1429-.45113 0-.15037.1429-.30075.1429-.30075l-.1429-.45113c-.2857 0 0-.15037.1429-.30075 0-.15037.1428-.15037.1428-.15037v-.15037c.1429 0 .4286-.00001.4286-.15039h-.7143v.15039c-.1428 0-.1428-.00001-.2857.15037h-.1428s-.0001.15037-.1429.30075v.45113c0 .15038.1429.30075.1429.30075 0 .04139.0108.07139.0265.09313.0149.01397.0299.02662.0449.03843.0357.01881.0714.01881.0714.01881l.1429.15039c-.0715-.0752-.1429-.1128-.2143-.1692-.0161-.00845-.0321-.02069-.0449-.03843-.0565-.05276-.1129-.12463-.1694-.24351-.1429-.15037 0-.45113 0-.6015 0-.15038.1429-.30075.1429-.30075 0-.15038.1428-.30076.1428-.30076 0-.15037.1429-.15037.1429-.15037 0-.15038.1428-.15037.1428-.15037.1429-.15038.1429-.15038.2857-.15038h.8572zm4.1428 1.203s.1429.00001.1429.15039c0 0 .0899-.00003-.0156.22521.0096.05977.0156.13335.0156.22591 0 .09887-.0618.26276-.1447.40617-.006.11524-.0315.23047-.141.34571-.1429 0-.2857.15037-.2857.15037-.1429.15038-.2857.15039-.2857.15039H54c-.1428 0-.4286-.15039-.5714-.30076 0-.15038 0 0-.1429-.15038-.1428 0-.1428-.15037-.1428-.15037 0 .15038-.1429 0-.1429 0-.2857-.45113-.2857-1.35338.1429-1.65413 0-.15038.1428-.30076.4285-.45113 0 .15037.1429 0 .1429 0h.1429c0-.15038.1428-.15038.2857-.15038h.5714c.1429 0 .4286.30075.4286.30075 0 .15037 0 .15038.1428.30076 0 0-.1428-.00001-.1428.15037.1428.15038.1428.30075 0 .45112 0 .15038-.1429.15039-.1429.15039h-.1428v.60149c.2857.30075-.1429.30076-.2858.30076h-.1428v.15037c-.1429 0-.4286-.15037-.4286 0 .1429 0 .2857.15038.4286.15038h-.1429c.1429 0 .2857.15037.2857.15037h.1429v-.15037h.4286s.1428 0 .2857-.15038c.0489-.0515.0978-.12063.141-.19533.0018-.03513.0018-.07028.0018-.10541v-.30076c.0591-.09324.0998-.16723.1273-.22591-.037-.23155-.1273-.25608-.1273-.3756zm-36.4285-.45112h1.7142c.2858 0 .8572.30075.8572.75188 0 .15038-.1429.45112-.2857.45112-.1429.15038-.7143.15039-1.1429.15039-1.1428 0-2.4286-.00001-3.7143-.15039H1.14284c-.42856 0-.57142 0-.85713-.15037C.142853 4.11278 0 4.11279 0 3.96241v-.30076c.142857-.15037.571429-.30075.714286-.30075H10.7143c.4286 0 .2857 0 .7143.15038h.1428c.2857 0 1-.15038 2-.15038h1c1.4286-.15037 1.7143-.15037 1.8572-.15037h2.7143zm13.9481.0444c.0281-.01941.0519-.0444.0519-.0444s.1081.1138-.0519.0444c-.0409.02822-.091.04468-.091-.0444v.60151s-.1428.15037-.1428.30074c-.1429 0-.1429.15038-.1429.15038-.1429.15037-.1429.30076-.2857.30076l-.1429.15037c0 .15038-.1428.15037-.1428.15037-.1429.15038-.4286.30075-.5715.30075-.5714.30075-1.2857-.15037-1.4285-.75188-.1429-.15037 0-.15037 0-.15037v-.30075c0-.30075.1428-.6015.1428-.75188 0-.15038.1429-.15038.1429-.30076.1428 0 .1428-.15037.1428-.15037l.1429-.15037c.1429 0 .1428-.15038.2857-.15038 0-.15037.1429-.15037.2857-.15037h.4286c.1428 0 .2857.15037.2857.15037.1429 0 .1429.15038.1429.15038.1428.15037.1428.15037.1428.30074-.1428-.15037-.1428-.30074-.4286-.45112h-.5714c-.1428 0-.2857.15038-.2857.15038v.15037c0 .15037-.1429.30076-.1429.30076v.75188c.1429 0 .1429-.30076.2858-.45114h.1428l.1429-.15037c.1428-.15038.2857-.45112.4285-.15037l.4286.15037c0-.15038.1429-.15037.2857-.15037.1429 0 .4286-.00001.4286.15037.0372.01956.0671.03403.091.0444zm-3.5196-.49553c0 .15037 0 .15038.1429.30076 0 0 0 .05012.055.15037h.0879S30 3.3609 30 3.51128c.1429.15037.1429.45113 0 .6015-.0968.20386-.1937.33863-.2905.40431-.01.04682-.0412.04683-.1381.04683.0461 0 .0921-.01561.1381-.04683.0048-.02226.0048-.0551.0048-.10356 0 0 .1429 0 .1429-.15037 0 0 .1428-.15037.1428-.30075v-.45113c-.1207-.12711-.1905-.22736-.2307-.30075h-.055c-.1429-.15038-.2857-.15037-.2857-.15037v-.15039h-.7143c0 .15038.2857.00001.4286.15039v.15037c0 .15038.1428.15037.1428.15037s.4286.15038.1429.30075l-.1429.45113s.1429.15038.1429.30075c0 .15038 0 .30076-.1429.45113l.1429.15038c-.1429 0-.1429.15037-.2857.15037 0 .15038-.4286.15039-.5715.15039h-.2857c0-.15038-.1428-.15039-.1428-.15039l-.2858-.30075h-.1428l-.1429-.15037c-.1428-.30075-.2857-.45113-.2857-.60151-.2857-.6015 0-1.35338.5714-1.65413.1429-.15037.1429 0 .1429 0 0-.15037.1429-.15037.1429-.15037H29c.1429 0 .1429.15037.2857.15037 0 .15038.1429.15038.1429.15038l.1428.15037zm-4.2857-.45112l.1429.15037c.1428.15038.2857.15038.2857 0 .4286.30075.4286 1.20301.1428 1.65413 0 0-.1428.15038-.1428 0l-.1429.15038c0 .15037 0 0-.1428.15037-.1429.15038-.4286.30076-.5714.30076h-.1429c-.1429 0-.1429.15037-.2857.15037h-.1429v-.15037h-.4286c-.1428 0-.1428 0-.2857-.15037-.0023-.00246-.0046-.00492-.007-.00738-.0784-.01278-.1358-.04767-.1358-.14301 0-.00435-.0001-.00871-.0004-.01306-.0818-.1099-.1425-.24204-.1425-.43806v-.45113l.1429-.15038c0 .15038-.1429.15038-.1429.60151 0 .14602.1347.29204.1425.43806.0417.05596.0888.10615.1362.15607.0453.00738.0976.00738.1499.00738.1428.15036.1428.15037.2857.15037h.5715c.1428 0 .2857 0 .4285-.15037 0-.15038-.2857 0-.4286 0v-.15039h-.1428c-.1429-.15037-.4286.00001-.2857-.30075v-.6015H24s-.1429 0-.1429-.15038v-.45113c0-.15037-.1428-.15037-.1428-.15037 0-.15038 0-.30075.1428-.30075 0 0 .2858-.30076.4286-.30076h.5715c0 .15038.1428.15039.2857.15039h.1428zm17.1429 1.35337s.4286.45113.4286.60151c-.1429 0-.2858.15037-1.1429.75188-.4286.6015-.5714.75188-.8571 1.05264l-.7143.90225s-.5715.6015-.7143.45112c-.1429-.15038-.2857-.75187-.5715-1.05263-.1428-.30075-.4285-.45112-.8571-.75188-.2857-.30075-.4286-.6015-1-.90225-.4286-.15038-.4286-.45113-.5714-.60151 0 0 .1428-.6015.4285-.75188.2858-.30075.7143-.30075.8572-.6015.1429-.30075.7143-.75188.8571-.90225 0-.15038.2858-.45113.5715-.60151.2857-.300753.2857-.75188.5714-.75188 0 0 .5714.451127.7143.75188.1428.15038.2857.75188.4286.90225 0 .15038.5714.45113.7142.60151l.8572.90225z"/></svg>
