<svg fill="currentColor" viewBox="0 0 261 74">
  <path  d="M39.0385 38.6404c-1.7308 0-2.6923.805-2.6923 3.0188v30.5903h-8.4616c-.1923-1.0062-.5769-2.0125-1.3461-3.0187L11.3462 52.1243v15.899c0 2.0125.7692 3.0187 2.6923 3.0187v1.2075H.192308V71.042c1.730772 0 2.500002-.805 2.500002-3.0187V41.8605c0-2.2138-.76923-3.0188-2.69231-3.0188v-1.2075h12.1154c0 .6037.3846 1.61.9615 2.415L27.5 56.9544V41.8605c0-2.2138-.7692-3.0188-2.6923-3.0188v-1.2075h14.0385v1.0062h.1923zm37.6923 23.5465l-2.1154 10.4652c-.7692-.2013-1.9231-.4026-2.6923-.4026H42.5V71.042c1.9231 0 2.6923-.805 2.6923-3.0187V41.8605c0-2.2138-.9615-3.0188-2.6923-3.0188v-1.2075h29.0385c1.1538 0 2.1153-.2013 2.8846-.4025l2.1154 10.4651-1.1539.4025c-.7692-1.8113-1.9231-2.6163-3.8461-2.6163H55v5.4338h12.1154c2.1154 0 2.8846-.6037 2.8846-2.0125h1.1538v11.6726H70c0-1.4087-.7692-2.0125-2.8846-2.0125H55v5.8363h16.3462c1.923 0 3.2692-1.0062 4.0384-2.8175l1.3462.6037zm41.7312-6.0375c-1.731 0-2.693.805-2.693 3.0188v7.4463c0 .6037 0 1.61.577 2.2138-5 2.415-9.038 4.2263-17.1152 4.2263-10.7693 0-20-7.6476-20-18.5152 0-11.4714 9.423-18.5152 20.1923-18.5152 4.6149 0 7.8849 1.2075 8.4619 1.2075s1.346 0 2.115-.4025l2.692 12.0751-.961.805c-1.731-2.8175-4.808-4.83-11.154-4.83-6.7308 0-11.1539 3.6225-11.1539 10.0626 0 6.8425 5.1923 10.2638 10.5769 10.2638 2.308 0 5-.2012 6.154-.805v-5.0313c0-2.2138-.962-3.0188-2.692-3.0188v-1.2075h14.807v1.0063h.193zm37.5 16.1001h-12.5c-1.924-2.8175-4.039-7.245-5.193-10.6663h-4.807v6.6413c0 2.2138.769 3.0188 2.692 3.0188v1.2075h-15.192v-1.2075c1.923 0 2.692-.6038 2.692-3.0188V41.458c0-1.8113-.577-2.8176-2.692-2.8176v-1.2075c3.653-.2012 12.115-.6037 15.961-.6037 10.962 0 19.039 2.8175 19.039 12.2763 0 5.0314-4.039 9.4589-8.27 11.0689 1.539 3.2201 3.27 5.8363 5.77 9.2576.576.805 1.153 1.61 2.692 1.61v1.2075h-.192zM137.5 44.8793c-1.346 0-2.885-.0001-4.038.2012v9.0564c1.153.2012 2.884.2012 4.23.2012 5.193 0 8.462-1.2075 8.462-4.83 0-3.6226-3.077-4.6288-8.654-4.6288zm41.731 28.3765c-10.193 0-20.193-6.6413-20.193-18.5152 0-11.4714 9.808-18.3139 20.193-18.3139 10 0 20.192 6.6413 20.192 18.5152 0 11.6726-10.192 18.3139-20.192 18.3139zm0-28.5778c-4.808 0-10 3.22-10 9.8614 0 6.6413 4.807 10.2638 10 10.2638 4.423 0 10-3.22 10-10.2638 0-7.0439-5.577-9.8614-10-9.8614zm62.5-6.0376c-1.731 0-2.693.805-2.693 3.0188v30.5903h-8.461c-.192-1.0062-.577-2.0125-1.346-3.0187l-15-17.1065V67.822c0 2.0125.769 3.0188 2.5 3.0188v1.2075h-13.846v-1.2075c1.73 0 2.5-.805 2.5-3.0188V41.6592c0-2.2138-.77-3.0188-2.693-3.0188v-1.2075h12.116c0 .6038.384 1.61.961 2.415l14.423 16.704V41.6592c0-2.2138-.769-3.0188-2.692-3.0188v-1.2075h14.038v1.2075h.193zm18.654 33.6091h-15.193V71.042c1.731 0 2.693-1.0062 2.693-3.0187V41.6592c0-2.0125-.77-3.0188-2.693-3.0188v-1.2075h15.193v1.2075c-1.731 0-2.693 1.0063-2.693 3.0188v26.3641c0 2.0125.77 3.0187 2.693 3.0187v1.2075zM33.2692 16.7039l-1.923 8.4526c-.1924-.2012-.577-.2012-1.1539-.2012s-2.8846.805-6.5385.805C16.3462 25.7603 10 20.5277 10 13.0814 10.1923 5.43381 16.3462.201252 23.8462.201252c3.8461 0 5.5769.805008 6.5384.805008.3846 0 .9616-.201251 1.1539-.201251l1.923 8.251341-.7692.40251C31.7308 7.44633 28.8462 6.03757 25 6.03757c-4.6154 0-7.6923 2.41502-7.6923 7.04383 0 4.4275 3.2692 7.0438 7.3077 7.0438 4.0384 0 7.1154-1.61 8.0769-3.6225l.5769.2012zm30 8.2514H52.8846v-.805c1.1539 0 1.7308-.6038 1.7308-2.0126v-6.6413H44.0385v6.4401c0 1.4088.5769 2.0125 1.7307 2.0125v.805H35.3846v-.805c1.1539 0 1.7308-.6037 1.7308-2.0125V3.82379c0-1.40876-.7692-2.01252-1.9231-2.01252v-.80501h10.3846v.80501c-1.1538 0-1.7307.60376-1.7307 2.01252v6.23881h10.5769V4.02504c0-1.40876-.5769-2.01252-1.7308-2.01252V1.00626h10.3846v.80501c-1.1538 0-1.7307.80501-1.7307 2.01252V21.9365c0 1.4088.5769 2.0125 1.7307 2.0125v1.0063h.1923zm16.3462.6037c-7.1154 0-13.8462-4.6288-13.8462-12.8801C65.5769 4.83005 72.3077.201252 79.6154.201252c6.9231 0 13.8461 4.628798 13.8461 12.678848 0 8.2514-6.923 12.6789-13.8461 12.6789zm0-19.52143c-3.2692 0-6.9231 2.21377-6.9231 6.84253 0 4.6288 3.2692 7.0439 6.9231 7.0439 3.0769 0 6.9231-2.2138 6.9231-7.0439-.1923-5.03126-3.8462-6.84253-6.9231-6.84253zM119.038 16.7039l-1.923 8.4526c-.192-.2012-.577-.2012-1.153-.2012-.577 0-2.885.805-6.539.805-7.308 0-13.6538-5.2326-13.6538-12.6789C95.9615 5.43381 102.115.201252 109.423.201252c3.846 0 5.577.805008 6.539.805008.384 0 .961-.201251 1.153-.201251l1.923 8.251341-.769.40251c-.961-2.01253-3.846-3.42129-7.692-3.42129-4.615 0-7.692 2.41502-7.692 7.04383 0 4.4275 3.269 7.0438 7.307 7.0438 4.039 0 7.116-1.61 8.077-3.6225l.769.2012zM135 25.559c-7.115 0-13.846-4.6288-13.846-12.8801C121.154 4.83005 127.885 0 135 0c6.923 0 13.846 4.6288 13.846 12.6789.192 8.4526-6.923 12.8801-13.846 12.8801zm0-19.52143c-3.269 0-6.923 2.21377-6.923 6.84253 0 4.6288 3.269 7.0439 6.923 7.0439 3.077 0 6.923-2.2138 6.923-7.0439 0-5.03126-3.846-6.84253-6.923-6.84253zm38.654 11.87393l-1.539 7.245c-.577-.2012-1.346-.4025-1.923-.4025h-18.846v-.805c1.154 0 1.731-.6037 1.731-2.0125V3.82379c0-1.40876-.577-2.01252-1.731-2.01252v-.80501h10.385v.80501c-1.154 0-1.731.60376-1.731 2.01252V19.5215h10.385c1.153 0 1.923-.805 2.307-2.0126l.962.4026zm28.269 7.0438h-10.192v-.805c.961 0 1.346-.4025 1.346-.805s-.192-.6038-.192-1.0063l-.193-.4025c-1.154.4025-3.077.805-5.192.805-1.731 0-3.269-.4025-4.423-.805v.4025c-.192.4025-.192.805-.192 1.0063 0 .6037.384.805 1.153.805v.805h-10v-.805c1.154 0 1.347-.4025 1.924-1.8113l7.115-18.1127c.192-.60376.385-1.00626.385-1.20752 0-.60375-.385-1.00626-.962-1.00626V1.00626h10.769v.80501c-.577 0-.961.4025-.961 1.00626 0 .40251.192 1.00626.384 1.40877l7.116 18.1127c.577 1.4088.961 1.61 1.923 1.61v1.0063h.192zM187.885 7.84884l-3.27 9.05636c.962.4025 1.923.6037 3.27.6037 1.153 0 2.307-.2012 3.077-.6037l-3.077-9.05636zm36.346.20125l-.769.20125c-.577-1.20751-1.347-1.81127-2.693-1.81127h-6.154V22.1377c0 1.4088.577 2.0126 1.731 2.0126v.805h-10.384v-.805c1.346 0 1.73-.6038 1.73-2.0126V6.44007h-6.154c-1.346 0-2.115.60376-2.692 1.81127l-.961-.4025 1.538-7.245083c.577.201252 1.154.402503 1.923.402503h19.231c.769 0 1.346-.201251 1.923-.402503l1.731 7.446333zm25.192 10.06261l-1.538 7.2451c-.577-.2013-1.347-.4025-1.923-.4025h-20.193v-.805c1.346 0 1.731-.6038 1.731-2.0126V4.02504c0-1.40876-.577-2.01252-1.731-2.01252V1.00626h20c.769 0 1.539-.201251 1.923-.201251l1.539 7.245081-.769.20125c-.577-1.20751-1.347-1.81127-2.693-1.81127h-11.346v3.82383h8.269c1.346 0 1.923-.40254 1.923-1.4088h.77v8.2513h-.77c0-1.0062-.577-1.4087-1.923-1.4087h-8.269v4.025h11.346c1.346 0 2.308-.6037 2.693-2.0125l.961.4025z"/>
</svg>
