<svg viewBox="0 0 34.04 42" fill="currentColor"><g data-name="Layer 2"><g data-name="Layer 1"><g data-name="Dark Title Bottom"><path d="M20.66 23.74A12.21 12.21 0 0115 22.28l-.91-.56.73-.77a11.73 11.73 0 0113.77-2.65l.93.5-.67.82a10.35 10.35 0 01-8.19 4.12zM17 21.3a8.66 8.66 0 009.76-1.91A9.61 9.61 0 0017 21.3z"/><path d="M16.78 18.24l-.05-1c-.45-9.06 8-11.08 8-11.1l1-.22.07 1c.69 9.5-8 11.11-8.08 11.13zm7.35-10a8.66 8.66 0 00-5.68 7.91 8.09 8.09 0 005.68-7.96z"/><path d="M14.87 22.3l-.81-.69A11.7 11.7 0 0110.76 8l.45-1 .85.64c7.56 5.67 3.36 13.61 3.32 13.68zM11.94 9.81a9.64 9.64 0 002.37 9.67 8.68 8.68 0 00-2.37-9.67zM16.16 30.44a12 12 0 01-6.53-2.09l-.84-.64.8-.7a11.68 11.68 0 0114-1.21l.88.59-.76.74a10.48 10.48 0 01-7.55 3.31zm-4.51-2.86a8.69 8.69 0 009.92-.89 9.64 9.64 0 00-9.92.89z"/><path d="M10 29.09l-.81-.68a11.7 11.7 0 01-3.32-13.62l.45-.95.85.63c7.56 5.68 3.35 13.61 3.31 13.69zM7 16.61a9.64 9.64 0 002.37 9.67A8.68 8.68 0 007 16.61zM11.43 37.15a11.93 11.93 0 01-6.39-2l-.86-.63.82-.69a11.71 11.71 0 0113.9-1.45l.89.58-.74.75a10.46 10.46 0 01-7.62 3.44zm-4.38-2.78a8.66 8.66 0 009.89-1.07 9.65 9.65 0 00-9.89 1.07z"/><path d="M5.78 35.75l-.86-.62A11.72 11.72 0 01.61 21.8l.38-1 .9.57c8 5.09 4.37 13.32 4.33 13.41zM1.92 23.53A9.66 9.66 0 005 33a8.64 8.64 0 00-3.08-9.47z"/><path d="M3.45 42l-1.68-.39c2.13-9.18 14.56-24.13 15.09-24.77L18.18 18c-.12.1-12.69 15.22-14.73 24zM11.03263317 7.42910197l2.95529667-6.12423232 1.55807676.75186224-2.95529668 6.12423233zM24.03079503 6.88125985l4.00043606-6.881723 1.49565085.86944151-4.00043606 6.881723zM27.7067417 18.24682514l4.99677707-6.23476694 1.3499558 1.08190542-4.99677707 6.23476695z"/></g></g></g></svg>