<svg viewBox="0 0 89.94 36.76" fill="currentColor"><g data-name="Layer 2"><g data-name="Layer 1"><path d="M38.9 23s0-1.55.06-2-.17-1.14.24-1.38 1.2-.95 1.44-.72.12 1.26-.06 1.86-.42 1.92-.58 2.24-.3.9-.6.78-.5-.78-.5-.78M19.81 35.54c-.84.42-.24 1.08.18 1.2s1.74-.6 2.27-.78a15.83 15.83 0 012.64-.72 9 9 0 002.45-.78 13 13 0 013-.41A16.93 16.93 0 0032.92 33c.6-.18 2.39-.24 3-.36a17.21 17.21 0 002.34-1 9 9 0 011.91-.18c.66-.06 2.45-.65 3.17-.77s2.46-.18 3.06-.36 2-.36 2.51-.6a9.28 9.28 0 012.63-.42 13.09 13.09 0 002.75-.78c.49-.18 1.74-.12 2.34-.3s2-.06 2.7-.24a27.49 27.49 0 002.87-.65 28.27 28.27 0 013.59-.66 28.57 28.57 0 004-1 6.47 6.47 0 012.33-.48 14.53 14.53 0 003.47-.6 18.38 18.38 0 013.6-.9c.53-.06 1.61-.06 1.79-.06a5.45 5.45 0 011.38.18c.18.12.72 0 .78-.24a1.75 1.75 0 00-.25-1.25 1.51 1.51 0 00-1.55-.54 19.84 19.84 0 00-3 .72c-.66.23-2.7.59-3.23.77a17.53 17.53 0 01-3 .3c-.47 0-2.87.6-3.71.72a24.06 24.06 0 00-3.47 1.08 18.34 18.34 0 01-3.17.24 20.54 20.54 0 00-2.75.72 15.34 15.34 0 01-3.12.3c-.78-.07-2.27.66-3.17.77a28.17 28.17 0 00-3.89.9 18.29 18.29 0 01-3.05.54c-.48.06-2.58.12-3.24.3s-1.73.48-2.15.54a10.92 10.92 0 01-2 .12c-.43-.06-.72.3-.9.36a9.32 9.32 0 01-1.26.18 15.32 15.32 0 01-1.79.47 8.46 8.46 0 00-2.52.72 6.3 6.3 0 01-2.09.3 15.47 15.47 0 00-3.3 1.2 10.3 10.3 0 01-2.75.9 31.63 31.63 0 00-4 1.55M88 21.84s-.6 0-.72.3a1.09 1.09 0 00.49 1.14c.41.23.71-.07.71-.66a.82.82 0 00-.48-.78m.48-6.35a1.85 1.85 0 00.3.42.74.74 0 00.9-.05c.36-.25.06-1.2.06-1.56a.72.72 0 00-.66-.72 1.32 1.32 0 00-1 .9c-.06.35.36 1 .36 1M0 27.58a1.28 1.28 0 00.42 1.08 1.06 1.06 0 001.25.06c.37-.3-.29-.9-.47-1.14a1.14 1.14 0 01-.18-1c.12-.41.65-1.61.77-2s.9-1 1.27-1.38a36.73 36.73 0 012.44-2.98A18.72 18.72 0 018.68 18c.54-.24 1.61-.54 2.21-.84s1.68-.18 2.39-.48 2.1-.42 3.12-.72a27.86 27.86 0 003.77-1.55c.9-.48.9.47.9.47a6.81 6.81 0 01-.18 1.38c-.18.78-.66 2.69-.9 3.65a24.84 24.84 0 00-.72 3 12.13 12.13 0 00.06 2.64 7.59 7.59 0 01-.06 1.61 12.71 12.71 0 01-.27 1.92 10.57 10.57 0 00-.36 1.62 2.46 2.46 0 01-.48 1.49c-.35.42-.05 1.08.24 1a4.55 4.55 0 00.9-.72 10.92 10.92 0 001-1.32c.3-.53 1-2.27 1.14-2.75s.65-1.32.83-1.74.42-1.25.54-1.61.84-1.38 1.14-1.92a30.8 30.8 0 011.5-2.81c.84-1.32.84-.3.84-.3v1.08c0 .54-.18 2.87-.18 3.47s.23 2.16.23 2.82a14 14 0 00-.11 2.75c.17.65.59.06.83-.36a9 9 0 00.84-1.44c.12-.42.9-2.33 1.32-3.89a25.79 25.79 0 011.37-3.65c.36-.84.72-2.21 1-2.87a15.23 15.23 0 00.6-2.16c.06-.42.72-1.86.9-2.57a14.57 14.57 0 011.79-3 12.53 12.53 0 012.52-2.52c.71-.48.65.6.65 1.14a10.63 10.63 0 01-.47 2.57 14.41 14.41 0 01-1.08 2.16 16.28 16.28 0 00-1.73 2c-.48.84.71.48 1 .18s1-.66 1.32-1a12 12 0 00.9-1.43c.3-.42.53-.54.84-.3s.23.77.23 1.19-.23 1 .06 1.56 1.2 0 1.68-.35a4.37 4.37 0 001.14-1.8 1.5 1.5 0 01.24-.6 2.92 2.92 0 00.83-.66c.36-.42.42.42.42.42s.24 1.13.36 1.56a2.93 2.93 0 001.68 1.31c.53.06 1.67-.66 2.27-.95A5.36 5.36 0 0049.2 13c.24-.36 1-1.86 1.2-2.15s.71.12.71.12a10.89 10.89 0 011.2 1c.54.54.12 1 .12 1l-.24.72s-.42 1-.54 1.25-.72 1.86-.9 2.52a14.06 14.06 0 00-.29 2.75 8.73 8.73 0 00.83 3.11c.43.79 1.56.6 2.16.54a4.9 4.9 0 002.21-1.44c.18-.35 1.86-2.21 1.92-2.57s1-2.69 1.14-3.41.53-2.58.65-2.93.36-1.74.42-2a8.55 8.55 0 00.6-1.43 7.13 7.13 0 01.78-2 4.69 4.69 0 00.36-1.61 3.24 3.24 0 01.36-.78s.3-.66.42-.84a2.29 2.29 0 00.41-1.38c.06-.9-.71-.6-1.13-.24a1.67 1.67 0 00-.42 1.26c0 .24-.6.72-.84 1.2a4.39 4.39 0 00-.66 1.43c0 .42-.36.78-.59 1.14a2.9 2.9 0 00-.49 1.26 5.11 5.11 0 01-.47 1.79c-.3.54-.48 1.8-.66 2.1s-.72 2-.9 2.51a9.26 9.26 0 01-.56 1.43c-.18.23-.72 2-1.08 2.81a2.71 2.71 0 01-.78 1.2c-.23.18-.95 1-1.43 1a1 1 0 01-1-.48 6.46 6.46 0 01-.17-2.16 5.32 5.32 0 010-1.44 9.18 9.18 0 01.47-1.37 10 10 0 00.36-1.56 21.26 21.26 0 00.63-2.13c.06-.42.6-.78 1-.9a12.54 12.54 0 001.79-.6A5 5 0 0057 11a7.39 7.39 0 001.14-1.44c.23-.54-.6-.24-.6-.24l-.3.42a4.65 4.65 0 01-.78.78 5.67 5.67 0 01-1.5.65c-.36 0-.54-.47-.17-1.43a9.78 9.78 0 012.09-3.12 21.53 21.53 0 002.21-2.63c.36-.48 1.38-.66 1.68-.9s.6-1 1-1.19 1.32-.36 2-.66a1.87 1.87 0 011.92.24 4.37 4.37 0 01.06 2.33 8.22 8.22 0 01-.42 1.44 8 8 0 00-.54 1.67A5.05 5.05 0 0164 8.37c-.18.18-.54 1-1 1.67a6.84 6.84 0 01-1.85 1.38c-.24.18-.48 1.08-.24 1.32s1.08-.06 1.68-.36 1-.3 1.13-.12a3.29 3.29 0 01.72 1.26 4.6 4.6 0 01-.29 1.19C64 15 64 16 63.8 16.27a8.6 8.6 0 01-1.25 1.08 7.6 7.6 0 00-1.44 1.5c-.18.3-1.26 1-1.56 1.49s.24 1.68.84 1.92 1.73-.48 2.33-.84a7.51 7.51 0 001.92-2.34 7.6 7.6 0 01.6-1.73 6.88 6.88 0 00.54-2c.06-.42.72-.6 1-.83s.83-.78 1.07-.66-.29.95-.29.95a6.11 6.11 0 00-.72 2.28 2 2 0 001.85 1.85c.9.06 2.34-1.13 2.75-1.73a.59.59 0 011-.06 1.26 1.26 0 001.32.36 8.81 8.81 0 002.57-1.92c.9-.89 2.22-3.05 2.58-3.41s.47-.3.66-.12a1.48 1.48 0 01.23 1c0 .42-.59.72-.72 1a4.14 4.14 0 00-.23 1.25c0 .3-.48.6-.72.78a1.2 1.2 0 00-.18 1.32c.24.54 1.5-.18 1.5-.18l.23-.3a19.76 19.76 0 002.1-1.68c.72-.71.65-.12.65-.12l.37.48s.53.84 1.07.9A4.14 4.14 0 0086.31 15a8.52 8.52 0 001.37-4c.07-.9.12-2.64.3-3.66s1.44-2.27 1.68-2.69a1.19 1.19 0 00.12-1.32c-.3-.42-1.08-.23-1.44 0a7.48 7.48 0 00-1.62 2.1 9.26 9.26 0 00-.47 2.21c0 .36-.42 1.44-.3 1.86a3.05 3.05 0 01-.18 1.5c-.12.29-.12 1.19-.24 1.67a5.55 5.55 0 01-.9 1.68 2.27 2.27 0 01-1.43.23c-.37-.05-.42-.54-.24-.77A12.8 12.8 0 0084 12.56c.24-.42.78-1.26.78-1.26s.3-.35.12-.65-.54.24-.54.24a3.08 3.08 0 00-.54.77 5.52 5.52 0 01-1.55 2c-.6.3-.48-.6-.48-.9a10.75 10.75 0 01.12-1.44 4.72 4.72 0 00.24-1.07c0-.36-.12-1.5-.12-1.92s.6-1 .9-1.44a3.08 3.08 0 00.35-1.79c-.06-.6-.83-.54-1.07-.24a3.06 3.06 0 00-.66 1 18 18 0 01-.72 1.73c-.18.42-.36 1.2-.6 1.68a16 16 0 01-1.62 2.09 25.08 25.08 0 01-3.17 3.36c-.54.35-1.26.65-1.5.35s0-1.07.13-1.79a11.54 11.54 0 01.83-2.33c.13-.24.6-1.32.24-1.62s-1 .05-1.31.6a20.58 20.58 0 00-1.38 2.87 21.56 21.56 0 01-1 2.51 4.44 4.44 0 01-1 1.08 2.87 2.87 0 01-1.5.48c-.78 0-.3-1.62 0-2.33s1.08-1.74 1.32-2.22.77-.42 1.13-.54a1.32 1.32 0 00.84-.66c.18-.35-.54-.54-.89-.54a2.34 2.34 0 00-1.35.72 6 6 0 01-1.32 1.14 16.71 16.71 0 01-2 1.43.71.71 0 01-.77-.41c-.12-.3-.54-1.26-.66-1.56a4.26 4.26 0 00-.6-.84c-.18-.24.3-.59.3-.59a5.42 5.42 0 01.36-.84c.18-.31.78-1.26.9-1.44a3 3 0 00.47-.72 5.67 5.67 0 00.07-.84A4.59 4.59 0 0067 5.32c0-.54.11-2.76.11-2.76l.19-.3a3.34 3.34 0 00-.19-1A2.86 2.86 0 0065.78.05a9.18 9.18 0 00-2.46.12 6.87 6.87 0 00-2.39 1.38c-.24.23-.42.71-.78.89s-1 .78-1.37.9a1.59 1.59 0 00-.78.78 2.73 2.73 0 01-.42.54 17.62 17.62 0 00-2.28 2.69c-.77 1.26-1.5 2.82-1.79 3.36s-.66.18-.66.18a4.46 4.46 0 01-1.08-.78c-.36-.42-.18-1.32-.18-2.1s1-1.61 1.2-2.39-.48-.72-.79-.42a8.94 8.94 0 00-1.14 1.67c-.23.43-.35 2.1-.53 2.52a4.08 4.08 0 01-.78 1.5 6.49 6.49 0 00-1 1.25l-.36.12-.36.06a4.31 4.31 0 01-1.61 1.08c-1.14.47-.84-.9-.78-1.44a21.33 21.33 0 01.78-2.57c.23-.78-.07-1.08-.49-1.08s-1.19.9-1.61 1-.6.9-.6.9l-.12.42-.18.36-.36.35-.23.18-.3.3H42l-.72.12a3.21 3.21 0 00-.42-1.13c-.3-.42-1.44-.54-1.44-.54s.12-.6.18-1a8.41 8.41 0 00.06-2.64c-.18-1.25-1.43-1-2.15-.77A9.27 9.27 0 0035 8.37a13.93 13.93 0 00-1.44 2.45c-.23.6-.77 1.2-1.07 1.86a28 28 0 00-1.2 3.59c-.12.66-.72 1.8-.72 2.33a7.49 7.49 0 01-1.34 2.7c-.45.54-.36-1-.36-1.44v-2.33c0-.45-.09-1.62-.09-2.07s.18-1.71.27-2.42 1-1.7 1.08-2.15.8-2.34.44-3.24-1.43 0-1.79.63a24.58 24.58 0 00-1.35 4.58 20.48 20.48 0 01-.81 2.24 18.16 18.16 0 000 2.25l-.35.54-.28.54-.44.35-.36.72s-.63 1.35-1.08 2.07A19.64 19.64 0 0122.53 24c-.27.18-.45-.54-.54-1.08s0-2.24 0-3.14.36-4.76.46-5.38a6.42 6.42 0 011.16-2.25 5.87 5.87 0 001.53-1.88c.44-1.08-.36-1.35-1-1.17s-1 1.26-1.08 1.62A3.89 3.89 0 0121.64 12a3.22 3.22 0 01-1 .36 4.29 4.29 0 00-1.44.72 4 4 0 01-1.8.36 17.9 17.9 0 00-2.06.54c-.54.09-1.7.62-2.24.72s-2.25.72-3.06 1a28.59 28.59 0 00-2.6 1.62 16.5 16.5 0 00-2.6 2c-.45.45-1.26 1.8-2 2.43a14.89 14.89 0 00-2.21 3.14A13.08 13.08 0 000 27.58M29.56 9.81a1.77 1.77 0 00.31-.54.52.52 0 00-.24-.66c-.3-.18-.36 1.2-.36 1.2z" data-name="Dark Text Bottom"/></g></g></svg>