<svg viewBox="0 0 157.46 55.33" fill="currentColor"><defs><style>.cls-1{fill:#231f20}.cls-2{fill:#cfab7a}.cls-3{fill:#ee3124}.cls-4{fill:#b66e3d}.cls-5{fill:#5d2f15}</style></defs><g id="Layer_2" data-name="Layer 2"><g id="Artwork"><g id="Nav_Bar" data-name="Nav Bar"><path d="M56.33.06h1.25a1.91 1.91 0 011.94 2.1 1.9 1.9 0 01-1.94 2.1h-1.25zm1.08 3.58a1.32 1.32 0 001.43-1.48A1.32 1.32 0 0057.41.68H57v3zM60.91.06h.66v4.2h-.66zM62.86 3.14l.54-.33c.12.48.38.88.88.88a.55.55 0 00.6-.6c0-.42-.45-.6-.94-.85a1.24 1.24 0 01-.84-1.15A1.07 1.07 0 0164.22 0a1.14 1.14 0 011.14.73l-.54.34a.6.6 0 00-.6-.45.46.46 0 00-.48.44c0 .39.41.57.86.77a1.29 1.29 0 011 1.22 1.19 1.19 0 01-1.34 1.25 1.4 1.4 0 01-1.4-1.16zM67.5.68h-1.19V.06h3v.62h-1.14v3.58h-.67zM70.49.06h.67v4.2h-.66zM72.76.06h.66v3.58h1.84v.61h-2.5zM76.57.06h.67v3.58h1.83v.61h-2.5zM80.39.06h2.53v.61h-1.87v1h1.51v.61h-1.51v1.36H83v.62h-2.61zM84.36.05h1.25a1.9 1.9 0 011.94 2.1 1.9 1.9 0 01-1.94 2.1h-1.25zm1.08 3.58a1.32 1.32 0 001.43-1.48A1.32 1.32 0 0085.44.67H85v3zM91 .05h1.48a1.06 1.06 0 011.22 1.12.84.84 0 01-.44.79 1 1 0 01.66 1 1.2 1.2 0 01-1.36 1.25H91zm1.45 1.68c.37 0 .57-.15.57-.53s-.2-.53-.58-.53h-.74v1.06zm0 1.9c.52 0 .76-.21.76-.64s-.24-.65-.76-.65h-.75v1.29zM95.3.05h1.48A1.1 1.1 0 0198 1.2a1.05 1.05 0 01-.82 1.11l1.21 1.94h-.75l-1.15-1.89H96v1.89h-.7zm1.48 1.69c.35 0 .59-.15.59-.54s-.24-.53-.59-.53H96v1.07zM99.52.05h2.53v.62h-1.86v1h1.5v.61h-1.5v1.35h1.92v.62h-2.59zM103.09.05h.7l.77 3.24.84-2.8h.6l.84 2.8.77-3.24h.71l-1.12 4.2h-.67l-.82-2.68-.82 2.68h-.67zM109.13 3.13l.54-.34c.12.48.38.89.88.89a.55.55 0 00.6-.6c0-.42-.44-.6-.94-.85a1.24 1.24 0 01-.84-1.15A1.07 1.07 0 01110.5 0a1.13 1.13 0 011.13.73l-.54.34a.6.6 0 00-.59-.45.45.45 0 00-.48.44c0 .39.4.57.85.77s1 .53 1 1.22a1.21 1.21 0 01-1.3 1.24 1.41 1.41 0 01-1.44-1.16zM19.88 20.83h-3.46l.17-.72v-4.86l-.17-.72h3.46l.95 1v1.21l-.65.68.73.76v1.58zm-.35-4.73l-.17-.36-.36-.18h-1l-.09.09v1.17l.09.09h1l.35-.18.17-.36zm0 2.48l-.17-.36-.43-.22H18l-.09.09v1.49l.13.13h.91l.43-.22.17-.36zM25.15 20.83l-.74-2.34-.17-.09h-.65l-.08.09v1.62l.17.72H22l.17-.72v-4.86l-.17-.72h3.54l1 1.08v1.53l-.95 1 .72 1.86.48.86zm.08-4.64l-.17-.36-.43-.22h-1l-.08.09v1.53l.08.09h1l.43-.23.17-.36zM31.19 20.83h-3.54l.18-.72v-4.86l-.18-.72h3.46l.43 1.35-.78-.27h-1.55l-.09.09v1.08l.09.09h.73l.65-.23v1.53l-.65-.17h-.73l-.09.09v1.48l.13.14h1.51l.91-.32zM38.67 15.25l-1.56 5.58h-.89l-1-3.74v-.31.31l-1 3.74h-.89l-1.55-5.58-.35-.72h1.73l-.09.72.69 2.52v.36-.36l.86-3.24h1.13l.86 3.24v.36l.05-.36.69-2.52-.09-.72H39zM42.77 18.49H41l-.09.09v1.35l.22.9H39.4l.18-.72v-4.86l-.18-.72h3.54l1 1.08v1.62zm-.17-2.3l-.17-.36-.43-.22h-1l-.09.09v1.53l.09.09h1l.44-.23.17-.36zM49.08 15.25v3.87l.08.54L48 20.83h-2.2l-1.13-1.17.09-.54v-3.87l-.17-.72h1.68l-.17.72v3.87l.17.36.35.18h.65l.34-.18.17-.36v-3.87l-.17-.72h1.64zM53.83 20.83h-3.45l.17-.72v-4.86l-.17-.72h3.45l1 1v1.21l-.65.68.74.76v1.58zm-.35-4.73l-.17-.36-.31-.18h-1l-.09.09v1.17l.09.09h1l.34-.18.17-.36zm0 2.48l-.17-.36-.43-.22h-1l-.09.09v1.49l.13.13h.91l.43-.22.17-.36zM60.29 20.83h-2.37l-.48-1.49.88.32h1.2l.34-.18.17-.36v-.59l-.3-.31-1.29-.32-.82-.85V15.7l1.12-1.17H61l.44 1.35-.78-.27h-1.14l-.35.18-.17.36v.36l.3.31 1.3.32.82.85v1.67zM65.65 15.7h-.78l-.08.09V20l.26.81h-1.82l.26-.81v-4.21l-.09-.09h-.77l-.91.31.47-1.48h3.89l.48 1.47z" class="cls-1"/><path d="M70.7 15.25l-1.42 3V20l.26.81h-1.82L68 20v-1.65l-1.55-3.1-.45-.72h1.73l.09.63.82 1.71v.18-.18l.82-1.71.09-.63h1.6zM74.72 20.83h-3.37l.18-.72v-4.86l-.18-.72H73l-.22.9v4.09l.13.14h1.34l.91-.32zM79 20.83h-3.5l.17-.72v-4.86l-.17-.72H79l.43 1.35-.78-.27h-1.59l-.06.09v1.08l.09.09h.73l.65-.23v1.53l-.68-.17H77v1.48l.13.14h1.51l.91-.32zM20.05 45.85h-3.6l.18-.72v-4.86l-.18-.72h3.6l1 1v1.22l-.67.67.76.77v1.57zm-.36-4.72l-.18-.36-.36-.18h-1.08l-.09.09v1.17l.09.09h1.08l.36-.18.18-.36zm0 2.47l-.18-.36-.45-.24h-1l-.09.09v1.48l.14.14h.94l.45-.23.18-.36zM27.07 40.27v3.87l.09.54L26 45.85h-2.35l-1.17-1.17.09-.54v-3.87l-.18-.72h1.76l-.18.72v3.87l.18.36.36.18h.67l.36-.18.18-.36v-3.87l-.18-.72h1.71zM31.84 45.85l-.76-2.34-.18-.09h-.68l-.09.09v1.62l.18.72H28.6l.18-.72v-4.86l-.18-.72h3.69l1.08 1.08v1.53l-1 1 .69 1.84.49.85zm.09-4.63l-.18-.36-.45-.23h-1.08l-.09.09v1.53l.09.09h1.08l.45-.22.18-.36zM38 40.72h-.81l-.09.09V45l.27.81h-1.93l.27-.81v-4.19l-.09-.09h-.81l-1 .32.5-1.49h4l.5 1.49zM43.09 45.85h-2.34l-1.17-1.17v-4l1.17-1.17h2.34l1.17 1.17v4zm-.27-4.68l-.18-.36-.36-.18h-.72l-.36.18-.18.36v3l.18.36.36.18h.72l.36-.18.18-.36zM50.29 40.27v5.58h-1.17L47.19 42l-.19-.47v3.6l.18.72H45.7l.18-.72v-4.86l-.23-.72h1.76L49 42.7l.18.45-.05-.45v-2.43l-.18-.72h1.53zM57 45.85l-.76-2.34-.24-.09h-.68l-.09.09v1.62l.18.72h-1.7l.18-.72v-4.86l-.18-.72h3.69l1.08 1.08v1.53l-1 1 .69 1.84.49.85zm0-4.63l-.18-.36-.45-.23h-1.04l-.09.09v1.53l.09.09h1.08l.45-.22.18-.36zM63.43 45.85h-3.69l.18-.72v-4.86l-.18-.72h3.6l.45 1.35-.79-.27h-1.64l-.09.09v1.08l.09.09h.77l.67-.22v1.53l-.67-.2h-.77l-.09.09v1.49l.14.13H63l1-.31zM68.2 45.85h-3.51l.18-.72v-4.86l-.18-.72h3.51l1.26 1.26v3.78zm-.2-4.54l-.22-.45-.45-.23h-1l-.09.09v3.83l.13.13h.95l.45-.22L68 44zM111.94 15.25v5.58h-1.17L108.83 17l-.18-.45v3.6l.19.72h-1.53l.17-.72v-4.9l-.22-.72h1.76l1.57 3.15.18.45V15.25l-.18-.72h1.53zM118.15 15.25v3.87l.09.54-1.17 1.17h-2.34l-1.18-1.17.1-.54v-3.87l-.19-.72h1.76l-.18.72v3.87l.18.36.36.18h.68l.36-.18.18-.36v-3.87l-.18-.72h1.71zM123 15.7h-.81l-.09.09V20l.27.81h-1.9l.28-.81v-4.21l-.09-.09h-.81l-1 .31.49-1.48h4.06L124 16zM130 20.83h-3.6l.18-.72v-4.86l-.18-.72h3.6l1 1v1.21l-.68.68.77.76v1.58zm-.36-4.73l-.18-.36-.36-.18h-1.08l-.09.09v1.17l.09.09h1.08l.36-.18.18-.36zm0 2.48l-.18-.36L129 18h-1l-.09.09v1.49l.13.13h.96l.45-.22.18-.36zM135.69 20.83l-.76-2.34-.18-.09h-.68l-.09.09v1.62l.18.72h-1.71l.18-.72v-4.86l-.18-.72h3.7l1.08 1.08v1.53l-1 1 .68 1.84.5.86zm.09-4.64l-.17-.36-.46-.22h-1.08l-.09.09v1.53l.09.09h1.08l.46-.23.17-.36zM142 20.83h-2.35l-1.17-1.17v-4l1.17-1.17H142l1.17 1.17v4zm-.27-4.68l-.18-.36-.36-.18h-.72l-.36.18-.18.36v3l.18.36.36.18h.72l.36-.18.18-.36zM151.31 15.25l-1.62 5.58h-.93l-1-3.74v-.31.31l-1 3.74h-.93l-1.62-5.58-.36-.72h1.8l-.09.72.72 2.52v.36-.36l.9-3.24h1.17l.9 3.24v.36-.36l.72-2.52-.09-.72h1.71zM156.85 15.25v5.58h-1.17L153.74 17l-.18-.45v3.6l.18.72h-1.53l.18-.72v-4.9l-.22-.72H154l1.58 3.15.18.45V15.25l-.19-.72H157zM111.85 43v1.17l.09.54-1.17 1.17h-2.25l-1.17-1.17v-3.9l1.26-1.26h2.52l.49 1.49-.93-.32h-1.23L109 41l-.23.45v2.74l.19.36.36.18h.9l.27-.27v-1.31l-.36-.72h2zM117.7 40.27v3.87l.09.54-1.17 1.17h-2.35l-1.16-1.17.08-.54v-3.87l-.18-.72h1.76l-.18.72v3.87l.18.36.36.18h.68l.36-.18.18-.36v-3.87l-.18-.72h1.71zM123.32 40.27l-1.71 5.58h-1.17l-1.71-5.58-.36-.72h1.85l-.1.72.9 3.24v.36-.36l.91-3.24-.09-.72h1.75zM125.39 41.4l-.81.4h-.36l.13-.27.45-.22.23-.45v-.23h-.5l-.36-.36v-.81l.36-.36h.91l.35.36v1.13zM131.65 40.27v5.58h-1.17L128.54 42l-.18-.45v3.6l.19.72h-1.54l.18-.72v-4.88l-.22-.72h1.76l1.57 3.15.18.45V40.27l-.18-.72h1.53zM136.78 45.85h-2.34l-1.17-1.17v-4l1.17-1.17h2.34l1.22 1.21v4zm-.27-4.68l-.18-.36-.36-.18h-.72l-.36.18-.19.36v3l.19.36.36.18h.75l.36-.18.18-.36zM142.63 45.85l-.77-2.34-.18-.09H141l-.09.09v1.62l.18.72h-1.72l.19-.72v-4.86l-.19-.72h3.7l1.08 1.08v1.53l-1 1 .67 1.85.5.85zm.09-4.63l-.18-.36-.45-.23H141l-.09.09v1.53l.09.09h1.08l.45-.22.18-.36zM17 48.82h-1v-.39c.64 0 1-.13 1.07-.83h.39v4.49H17zM19.69 49.66c-.54-.09-.72-.48-.72-1a1 1 0 011.14-1.07 1 1 0 011.05 1.1.88.88 0 01-.68 1 1 1 0 01.8 1.07c0 .77-.33 1.44-1.2 1.44s-1.25-.51-1.25-1.38a1.08 1.08 0 01.86-1.13zm.4 2.07c.42 0 .68-.34.68-.95s-.19-.87-.71-.87-.71.42-.71.88.16.94.74.94zm0-2.27c.44 0 .56-.33.56-.72s-.12-.69-.56-.69-.59.27-.59.67.16.74.58.74zM22 52.09v-.6h.54v.6zM24.19 49.66c-.54-.09-.72-.48-.72-1a1 1 0 011.14-1.07 1 1 0 011.05 1.1.88.88 0 01-.68 1 1 1 0 01.8 1.07c0 .77-.33 1.44-1.2 1.44s-1.25-.51-1.25-1.38a1.08 1.08 0 01.86-1.13zm.4 2.07c.42 0 .68-.34.68-.95s-.19-.87-.71-.87-.71.42-.71.88.15.94.74.94zm0-2.27c.44 0 .56-.33.56-.72s-.12-.69-.56-.69-.59.27-.59.67.16.74.58.74zM28 48.75c0 .84-.27 1.15-.84 1.1s-.78-.28-.78-1.11c0-.56.19-1.06.83-1.06s.79.55.79 1.07zm-.4.09c0-.3 0-.82-.42-.82s-.4.52-.4.82 0 .68.41.68.42-.41.42-.68zm0 3.34h-.33l2-4.58h.31zm2.09-.09c-.39 0-.76-.3-.76-1.13 0-.56.2-1 .84-1s.78.53.78 1.06c.04.79-.31 1.08-.82 1.07zm.46-1c0-.3 0-.82-.41-.82s-.4.52-.4.82 0 .68.4.68.45-.41.45-.69zM33.91 47.6h.66l1.26 4.49h-.55l-.35-1.29H33.5l-.33 1.29h-.55zm.32.36l-.6 2.39h1.19zM36.39 52.09V47.6h.5v4h1.83v.45zM41.41 49c0-.54-.18-1-.81-1-.86 0-.87 1.23-.87 1.82s0 2 .87 2c.6 0 .72-.48.78-1v-.31h.5a2.66 2.66 0 010 .28 1.61 1.61 0 01-.26 1 1.13 1.13 0 01-1 .5c-1.38 0-1.43-1.33-1.43-2.41s.15-2.28 1.43-2.28a1.26 1.26 0 011.29 1.4zM42.71 52.09v-.6h.54v.6zM45.71 52.09V47.6H47c.82 0 1.12.44 1.15 1.11a.89.89 0 01-.67 1c.59.08.77.51.77 1.06a1.16 1.16 0 01-1.34 1.32zm.5-2.57h.44c.61 0 1-.08 1-.77s-.2-.71-1-.7h-.43zm.79 2.12c.54 0 .74-.25.74-.84 0-.89-.57-.83-1.08-.83h-.44v1.67zM50.23 49.85l1.06-2.25h.55l-1.36 2.75v1.74H50v-1.74l-1.37-2.75h.55zM56.12 47.6h.55l-1.3 4.49h-.61l-1.29-4.49H54l1 4.13zM58.58 47.51c1.32 0 1.48 1.21 1.47 2.24 0 1.25-.17 2.45-1.48 2.45s-1.47-1.2-1.48-2.45c0-1.03.16-2.24 1.49-2.24zm0 .45c-.77 0-1 .8-1 1.8 0 1.3.13 2 1 2s1-.69 1-2c-.04-1-.23-1.76-1.02-1.76zM60.9 52.09V47.6h.5v4h1.83v.45zM63.88 52.09v-.6h.55v.6zM17 23.84h-1v-.38c.64 0 1-.14 1.07-.84h.39v4.5H17zM21.31 24.71c0 .93 0 2.5-1.34 2.5a1 1 0 01-1-1.07h.51c0 .4.18.62.6.62.77 0 .76-1.27.78-1.75a.88.88 0 01-.83.56c-.8 0-1.15-.65-1.15-1.38 0-1 .51-1.57 1.19-1.57 1.15 0 1.24 1.17 1.24 2.09zM20 23.07c-.57 0-.7.58-.7 1s.12 1 .7 1 .74-.47.74-.94-.11-1.06-.74-1.06zM22 27.12v-.6h.54v.6zM24.16 26a.84.84 0 00-.32.65h1.9v.45h-2.42a2.69 2.69 0 01.18-1 1.4 1.4 0 01.36-.45l.85-.83a1.16 1.16 0 00.47-1c0-.45-.15-.79-.66-.79s-.68.61-.66 1.08h-.5v-.27a1.35 1.35 0 01.29-.9 1.2 1.2 0 012.05.9 1.71 1.71 0 01-.73 1.4zM28 23.78c0 .83-.27 1.14-.84 1.1s-.78-.29-.78-1.12c0-.56.19-1.05.83-1.05s.79.54.79 1.07zm-.4.08c0-.3 0-.82-.42-.82s-.4.52-.4.82 0 .68.41.68.42-.4.42-.68zm0 3.35h-.33l2-4.59h.31zm2.09-.09c-.39 0-.76-.3-.76-1.13 0-.56.2-1 .84-1s.78.53.78 1.05c.04.8-.31 1.08-.82 1.08zm.46-1c0-.3 0-.83-.41-.83s-.4.53-.4.83 0 .67.4.67.45-.41.45-.68zM33.91 22.62h.66l1.26 4.5h-.55l-.35-1.3H33.5l-.33 1.3h-.55zm.32.36l-.6 2.39h1.19zM36.39 27.12v-4.5h.5v4.05h1.83v.45zM41.41 24c0-.53-.18-1-.81-1-.86 0-.87 1.23-.87 1.82s0 2 .87 2c.6 0 .72-.49.78-1v-.31h.5a2.66 2.66 0 010 .28 1.59 1.59 0 01-.26.95 1.12 1.12 0 01-1 .51c-1.38 0-1.43-1.34-1.43-2.41s.15-2.29 1.43-2.29A1.26 1.26 0 0141.91 24zM42.71 27.12v-.6h.54v.6zM45.71 27.12v-4.5H47c.82 0 1.12.45 1.15 1.12a.89.89 0 01-.67 1c.59.07.77.5.77 1.05a1.17 1.17 0 01-1.34 1.33zm.5-2.57h.44c.61 0 1-.08 1-.77s-.2-.72-1-.71h-.43zm.79 2.12c.54 0 .74-.26.74-.85 0-.88-.57-.82-1.08-.82h-.44v1.67zM50.23 24.88l1.06-2.26h.55l-1.36 2.75v1.75H50v-1.75l-1.35-2.75h.55zM56.12 22.62h.55l-1.3 4.5h-.61l-1.29-4.5H54l1 4.14zM58.58 22.53c1.32 0 1.48 1.21 1.47 2.24 0 1.25-.17 2.46-1.48 2.46S57.1 26 57.09 24.77c0-1.03.16-2.24 1.49-2.24zm0 .45c-.77 0-1 .81-1 1.81 0 1.3.13 2 1 2s1-.69 1-2c-.04-1-.23-1.79-1.02-1.79zM60.9 27.12v-4.5h.5v4.05h1.83v.45zM63.88 27.12v-.6h.55v.6zM107.78 23.84h-1v-.38c.64 0 1-.14 1.07-.84h.39v4.5h-.5zM109.64 25.12c0-.93 0-2.5 1.33-2.5a1 1 0 011 1.07h-.51c0-.4-.18-.62-.6-.62-.76 0-.76 1.27-.78 1.75a.88.88 0 01.83-.56c.8 0 1.15.65 1.15 1.38 0 1-.51 1.57-1.19 1.57-1.14 0-1.23-1.16-1.23-2.09zm1.24-.41c-.58 0-.69.5-.69.91 0 .85.28 1.14.73 1.14s.69-.64.69-1.09-.15-.96-.73-.96zM112.86 27.12v-.6h.54v.6zM115 24.68c-.54-.09-.72-.48-.72-1a1 1 0 011.14-1.07 1 1 0 011 1.1.87.87 0 01-.67 1 1 1 0 01.8 1.06c0 .78-.33 1.45-1.2 1.45s-1.25-.51-1.25-1.38a1.06 1.06 0 01.9-1.14zm.4 2.08c.42 0 .67-.34.67-1s-.18-.87-.7-.87-.71.42-.71.87.17 1 .75 1zm0-2.27c.44 0 .56-.33.56-.72s-.12-.7-.56-.7-.59.28-.59.68.19.74.59.74zM118.83 23.78c0 .83-.27 1.14-.84 1.1s-.78-.29-.78-1.12c0-.56.19-1.05.83-1.05s.79.54.79 1.07zm-.4.08c0-.3 0-.82-.42-.82s-.4.52-.4.82 0 .68.41.68.41-.4.41-.68zm0 3.35h-.33l2-4.59h.31zm2.09-.09c-.39 0-.76-.3-.76-1.13 0-.56.19-1 .84-1s.78.53.78 1.05c.03.8-.32 1.08-.83 1.08zm.46-1c0-.3 0-.83-.41-.83s-.41.53-.41.83 0 .67.41.67.43-.41.43-.68zM124.73 22.62h.65l1.27 4.5h-.55l-.36-1.3h-1.42l-.33 1.3h-.55zm.32.36l-.6 2.39h1.19zM127.21 27.12v-4.5h.5v4.05h1.83v.45zM132.23 24c0-.53-.19-1-.81-1-.86 0-.87 1.23-.87 1.82s0 2 .87 2c.59 0 .72-.49.78-1v-.31h.5a2.66 2.66 0 010 .28 1.66 1.66 0 01-.26.95 1.13 1.13 0 01-1 .51c-1.38 0-1.43-1.34-1.43-2.41s.15-2.29 1.43-2.29a1.26 1.26 0 011.29 1.45zM133.53 27.12v-.6h.54v.6zM136.53 27.12v-4.5h1.28c.82 0 1.12.45 1.15 1.12a.89.89 0 01-.68 1c.6.07.78.5.78 1.05a1.17 1.17 0 01-1.35 1.33zm.5-2.57h.44c.6 0 1-.08.95-.77s-.2-.72-1-.71H137zm.78 2.12c.54 0 .74-.26.74-.85 0-.88-.57-.82-1.08-.82H137v1.67zM141.05 24.88l1.06-2.26h.55l-1.36 2.75v1.75h-.5v-1.75l-1.35-2.75h.55zM146.94 22.62h.55l-1.3 4.5h-.61l-1.29-4.5h.55l1 4.14zM149.4 22.53c1.32 0 1.48 1.21 1.47 2.24 0 1.25-.17 2.46-1.48 2.46s-1.47-1.21-1.48-2.46c0-1.03.16-2.24 1.49-2.24zm0 .45c-.77 0-1 .81-.95 1.81 0 1.3.13 2 1 2s1-.69 1-2c-.09-1-.28-1.79-1.07-1.79zM151.72 27.12v-4.5h.5v4.05h1.83v.45zM154.7 27.12v-.6h.55v.6zM108.16 48.82h-1v-.39c.64 0 1-.13 1.06-.83h.39v4.49h-.49zM110.88 49.66c-.53-.09-.71-.48-.71-1a1 1 0 011.14-1.07 1 1 0 011 1.1.87.87 0 01-.68 1 1 1 0 01.81 1.07c0 .77-.33 1.44-1.2 1.44s-1.24-.53-1.24-1.4a1.08 1.08 0 01.85-1.13zm.41 2.07c.41 0 .67-.34.67-.95s-.19-.87-.71-.87-.71.42-.71.88.16.94.75.94zm0-2.27c.43 0 .55-.33.55-.72s-.12-.69-.56-.69-.59.27-.59.67.17.74.59.74zM113.23 52.09v-.6h.55v.6zM114.53 49.88c0-.84 0-2.28 1.22-2.28S117 49 117 49.88c0 1 0 2.3-1.23 2.3s-1.24-1.5-1.24-2.3zm1.22 1.85c.75 0 .72-1.06.72-1.93 0-.63.06-1.7-.72-1.75s-.75 1.34-.75 1.75c0 .87-.08 1.93.75 1.93zM119.2 48.75c0 .84-.26 1.15-.84 1.1s-.78-.28-.78-1.11c0-.56.19-1.06.84-1.06s.78.55.78 1.07zm-.4.09c0-.3 0-.82-.41-.82s-.41.52-.41.82 0 .68.41.68.41-.41.41-.68zm0 3.34h-.32l2-4.58h.31zm2.09-.09c-.38 0-.75-.3-.75-1.13 0-.56.19-1 .83-1s.79.53.79 1.06c.03.79-.32 1.08-.84 1.07zm.46-1c0-.3 0-.82-.41-.82s-.4.52-.4.82 0 .68.41.68.43-.41.43-.69zM125.1 47.6h.66l1.24 4.49h-.55l-.35-1.29h-1.4l-.33 1.29h-.55zm.32.36l-.59 2.39H126zM127.58 52.09V47.6h.5v4h1.84v.45zM132.61 49c0-.54-.19-1-.81-1-.87 0-.88 1.23-.88 1.82s0 2 .88 2c.59 0 .72-.48.78-1v-.3h.49v.28a1.77 1.77 0 01-.26 1 1.16 1.16 0 01-1 .5c-1.39 0-1.44-1.34-1.44-2.41s.15-2.28 1.43-2.28a1.25 1.25 0 011.3 1.39zM133.9 52.09v-.6h.55v.6zM136.9 52.09V47.6h1.29a1 1 0 011.14 1.11.87.87 0 01-.67 1c.59.08.77.51.78 1.06a1.18 1.18 0 01-1.35 1.32zm.5-2.57h.44c.61 0 1-.08 1-.77s-.21-.72-1-.7h-.44zm.79 2.12c.54 0 .73-.25.73-.84 0-.89-.57-.83-1.08-.83h-.44v1.67zM141.43 49.85l1-2.25h.57l-1.36 2.75v1.74h-.5v-1.74l-1.35-2.75h.56zM147.31 47.6h.55l-1.29 4.49H146l-1.29-4.49h.55l1 4.13zM149.78 47.51c1.31 0 1.47 1.21 1.47 2.24 0 1.25-.17 2.45-1.48 2.45s-1.47-1.2-1.49-2.45c0-1.03.16-2.24 1.5-2.24zm0 .45c-.76 0-1 .8-.95 1.8 0 1.3.14 2 1 2s.95-.69 1-2c-.09-1-.29-1.76-1.08-1.76zM152.09 52.09V47.6h.5v4h1.84v.45zM155.08 52.09v-.6h.54v.6z" class="cls-1"/><path d="M9 22.09a5.28 5.28 0 01-2.45-.63l-.39-.24.31-.34a5.09 5.09 0 016-1.15l.41.22-.3.35A4.46 4.46 0 019 22.09zM7.35 21a3.75 3.75 0 004.24-.83 4.19 4.19 0 00-4.24.83z" class="cls-2"/><path d="M7.28 19.71v-.42a4.64 4.64 0 013.49-4.82l.42-.1v.44a4.39 4.39 0 01-3.5 4.83zm3.19-4.36A3.74 3.74 0 008 18.78a3.51 3.51 0 002.47-3.43z" class="cls-2"/><path d="M6.45 21.47l-.35-.3a5.08 5.08 0 01-1.43-5.91l.2-.41.36.27a4.67 4.67 0 011.44 5.94zm-1.27-5.42a4.2 4.2 0 001 4.2 3.78 3.78 0 00-1-4.2zM7 25a5.11 5.11 0 01-2.83-.91l-.37-.28.35-.3a5.09 5.09 0 016.06-.51l.39.26-.33.32A4.56 4.56 0 017 25zm-1.94-1.24a3.76 3.76 0 004.3-.39 4.18 4.18 0 00-4.3.39z" class="cls-2"/><path d="M4.33 24.42l-.33-.3a5.11 5.11 0 01-1.44-5.91l.2-.41.37.27A4.67 4.67 0 014.55 24zM3.05 19a4.2 4.2 0 001 4.19 3.75 3.75 0 00-1-4.19zM5 27.91a5.09 5.09 0 01-2.77-.86l-.38-.27.35-.31a5.08 5.08 0 016-.63l.39.25-.33.33A4.53 4.53 0 015 27.91zM3.06 26.7a3.74 3.74 0 004.29-.46 4.19 4.19 0 00-4.29.46z" class="cls-2"/><path d="M2.51 27.3l-.37-.3a5.07 5.07 0 01-1.87-5.75l.16-.43.39.25a4.68 4.68 0 011.88 5.81zM.83 22a4.18 4.18 0 001.35 4.1A3.77 3.77 0 00.83 22z" class="cls-2"/><path d="M1.5 30l-.73-.17c.92-4 6.32-10.46 6.54-10.74l.58.48c-.05.08-5.51 6.64-6.39 10.43z" class="cls-2"/><path d="M4.29 13.48h2.95v.75H4.29z" class="cls-2" transform="rotate(-64.24 5.75978645 13.85327427)"/><path d="M9.89 13.1h3.45v.75H9.89z" class="cls-2" transform="rotate(-59.83 11.62075183 13.47603064)"/><path d="M11.66 18.22h3.47v.75h-3.47z" class="cls-2" transform="rotate(-51.29 13.39759126 18.59365046)"/><path d="M9 46.59A5.22 5.22 0 016.51 46l-.39-.24.31-.33a5.07 5.07 0 016-1.15l.41.21-.3.36A4.46 4.46 0 019 46.59zm-1.65-1.06a3.78 3.78 0 004.24-.83 4.19 4.19 0 00-4.24.83z" class="cls-3"/><path d="M7.28 44.2v-.42A4.62 4.62 0 0110.75 39l.42-.1v.43a4.39 4.39 0 01-3.5 4.83zm3.19-4.36A3.75 3.75 0 008 43.27a3.5 3.5 0 002.47-3.43z" class="cls-3"/><path d="M6.45 46l-.35-.3a5.06 5.06 0 01-1.43-5.9l.2-.42.36.28a4.67 4.67 0 011.44 5.94zm-1.27-5.45a4.18 4.18 0 001 4.19 3.76 3.76 0 00-1-4.19zM7 49.5a5.2 5.2 0 01-2.83-.91l-.37-.28.35-.3a5.07 5.07 0 016.05-.53l.39.26-.33.32A4.6 4.6 0 017 49.5zm-1.94-1.25a3.77 3.77 0 004.3-.38 4.17 4.17 0 00-4.3.38z" class="cls-3"/><path d="M4.33 48.91l-.33-.3a5.09 5.09 0 01-1.44-5.9l.2-.42.37.28a4.67 4.67 0 011.44 5.94zM3.05 43.5a4.2 4.2 0 001 4.19 3.74 3.74 0 00-1-4.19zM5 52.41a5.18 5.18 0 01-2.77-.86l-.38-.27.31-.28a5 5 0 016-.63l.39.25-.33.32A4.5 4.5 0 015 52.41zM3.06 51.2a3.76 3.76 0 004.29-.46 4.17 4.17 0 00-4.29.46z" class="cls-3"/><path d="M2.51 51.8l-.37-.27a5.07 5.07 0 01-1.87-5.78l.16-.43.39.24a4.69 4.69 0 011.88 5.82zM.83 46.49a4.2 4.2 0 001.35 4.11 3.78 3.78 0 00-1.35-4.11z" class="cls-3"/><path d="M1.5 54.51l-.73-.17c.92-4 6.32-10.47 6.54-10.74l.58.48c-.05.06-5.51 6.62-6.39 10.43z" class="cls-3"/><path d="M4.29 37.97h2.95v.75H4.29z" class="cls-3" transform="rotate(-64.24 5.76062687 38.3479739)"/><path d="M9.89 37.59h3.45v.75H9.89z" class="cls-3" transform="rotate(-59.83 11.61517316 37.97145296)"/><path d="M11.66 42.71h3.47v.75h-3.47z" class="cls-3" transform="rotate(-51.29 13.40338274 43.08634385)"/><path d="M99.2 22.09a5.28 5.28 0 01-2.45-.63l-.39-.24.31-.34a5.09 5.09 0 016-1.15l.4.22-.29.35a4.49 4.49 0 01-3.58 1.79zM97.59 21a3.75 3.75 0 004.24-.83 4.19 4.19 0 00-4.24.83z" class="cls-4"/><path d="M97.52 19.71v-.42a4.64 4.64 0 013.48-4.82l.43-.1v.44a4.4 4.4 0 01-3.51 4.83zm3.19-4.36a3.74 3.74 0 00-2.47 3.43 3.51 3.51 0 002.47-3.43z" class="cls-4"/><path d="M96.69 21.47l-.35-.3a5.08 5.08 0 01-1.43-5.91l.19-.41.37.27a4.67 4.67 0 011.44 5.94zm-1.27-5.42a4.19 4.19 0 001 4.2 3.77 3.77 0 00-1-4.2zM97.25 25a5.07 5.07 0 01-2.83-.91l-.37-.28.35-.3a5.09 5.09 0 016-.53l.38.26-.33.32a4.52 4.52 0 01-3.2 1.44zm-2-1.24a3.76 3.76 0 004.3-.39 4.18 4.18 0 00-4.26.39z" class="cls-4"/><path d="M94.56 24.42l-.35-.3a5.09 5.09 0 01-1.43-5.91l.2-.41.37.27A4.66 4.66 0 0194.78 24zM93.29 19a4.18 4.18 0 001 4.19 3.75 3.75 0 00-1-4.19zM95.19 27.91a5.13 5.13 0 01-2.77-.86l-.37-.27.34-.31a5.1 5.1 0 016-.63l.38.25-.32.33a4.56 4.56 0 01-3.26 1.49zm-1.9-1.21a3.76 3.76 0 004.3-.46 4.21 4.21 0 00-4.3.46z" class="cls-4"/><path d="M92.75 27.3l-.38-.3a5.08 5.08 0 01-1.87-5.78l.17-.43.38.25a4.68 4.68 0 011.89 5.81zM91.07 22a4.17 4.17 0 001.34 4.1 3.76 3.76 0 00-1.34-4.1z" class="cls-4"/><path d="M91.73 30l-.73-.16c.93-4 6.32-10.46 6.55-10.74l.58.48c-.06.07-5.51 6.63-6.4 10.42z" class="cls-4"/><path d="M94.53 13.48h2.95v.75h-2.95z" class="cls-4" transform="rotate(-64.24 95.99732444 13.85336609)"/><path d="M100.13 13.1h3.45v.75h-3.45z" class="cls-4" transform="rotate(-59.83 101.85645036 13.47161573)"/><path d="M101.9 18.22h3.47v.75h-3.47z" class="cls-4" transform="rotate(-51.29 103.64365189 18.59119292)"/><path d="M99.06 46.49a5.28 5.28 0 01-2.45-.63l-.39-.24.31-.34a5.09 5.09 0 016-1.15l.41.22-.3.35a4.46 4.46 0 01-3.58 1.79zm-1.61-1.06a3.76 3.76 0 004.24-.82 4.19 4.19 0 00-4.24.82z" class="cls-5"/><path d="M97.38 44.11v-.42a4.64 4.64 0 013.48-4.82l.43-.09v.43A4.4 4.4 0 0197.8 44zm3.19-4.36a3.74 3.74 0 00-2.47 3.43 3.51 3.51 0 002.47-3.43z" class="cls-5"/><path d="M96.55 45.87l-.35-.3a5.08 5.08 0 01-1.43-5.91l.19-.41.37.27a4.67 4.67 0 011.44 5.94zm-1.27-5.42a4.2 4.2 0 001 4.2 3.78 3.78 0 00-1-4.2zM97.11 49.4a5.11 5.11 0 01-2.83-.91l-.37-.28.35-.3a5.08 5.08 0 016-.52l.38.25-.32.32a4.56 4.56 0 01-3.21 1.44zm-2-1.24a3.77 3.77 0 004.31-.39 4.2 4.2 0 00-4.27.39z" class="cls-5"/><path d="M94.42 48.82l-.35-.3a5.09 5.09 0 01-1.43-5.91l.2-.41.37.27a4.68 4.68 0 011.44 5.94zm-1.27-5.42a4.2 4.2 0 001 4.2 3.76 3.76 0 00-1-4.2zM95.05 52.31a5.26 5.26 0 01-2.77-.85l-.37-.28.34-.31a5.1 5.1 0 016-.63l.38.25-.32.33a4.55 4.55 0 01-3.26 1.49zm-1.89-1.21a3.74 3.74 0 004.29-.46 4.19 4.19 0 00-4.29.46z" class="cls-5"/><path d="M92.61 51.71l-.38-.27a5.1 5.1 0 01-1.87-5.79l.17-.43.39.25a4.69 4.69 0 011.88 5.82zm-1.68-5.31a4.19 4.19 0 001.34 4.11 3.77 3.77 0 00-1.34-4.11z" class="cls-5"/><path d="M91.59 54.42l-.73-.17c.93-4 6.32-10.47 6.55-10.75l.59.5c-.07.05-5.52 6.61-6.41 10.42z" class="cls-5"/><path d="M94.39 37.88h2.95v.75h-2.95z" class="cls-5" transform="rotate(-64.24 95.85480376 38.2580657)"/><path d="M99.99 37.5h3.45v.75h-3.45z" class="cls-5" transform="rotate(-59.83 101.71683168 37.87834805)"/><path d="M101.76 42.62h3.47v.75h-3.47z" class="cls-5" transform="rotate(-51.29 103.5032213 42.9880567)"/><path d="M83.86 8.6h.57v46.73h-.57z"/><path d="M.67 33.21h156.79v.57H.67zM.67 8.32h156.79v.57H.67z"/></g></g></g></svg>