<svg viewBox="0 0 24 24" fill="currentColor"><path d="M12 5.5c-6.628 0-12 1.92-12 7s5.372 6 12 6c6.627 0 12-1.06 12-6 0-5.027-5.386-7-12-7zm0 11c-5.522 0-10-.555-10-4 0-2.209 1.357-3.494 3.489-4.209C5.188 8.963 5 9.71 5 10.5c0 .552.447 1 1 1 .552 0 1-.448 1-1 0-1.511.896-2.875 2-2.875v-.004c.6-.053 1.223-.087 1.864-.104C10.331 8.379 10 9.424 10 10.5v1c0 .553.447 1 1 1 .552 0 1-.447 1-1v-1c0-1.397.77-2.762 1.759-2.96.841.038 1.627.121 2.382.229C15.437 8.508 15 9.49 15 10.5c0 .552.447 1 1 1s1-.448 1-1c0-1.042.896-2 2-2v-.006c1.836.744 3 1.979 3 4.006 0 3.444-4.478 4-10 4z"/></svg>