<svg viewBox="0 0 24 24" fill="currentColor"><path d="M23 22h-2v-9c0-.553-.447-1-1-1h-2V7c0-.553-.447-1-1-1V3c0-.553-.447-1-1-1s-1 .447-1 1v3h-2V1c0-.553-.447-1-1-1s-1 .447-1 1v5H9V3c0-.553-.447-1-1-1s-1 .447-1 1v3c-.553 0-1 .447-1 1v5H4c-.553 0-1 .447-1 1v9H1c-.553 0-1 .447-1 1s.447 1 1 1h22c.553 0 1-.447 1-1s-.447-1-1-1zM8 8h8v4H8V8zm11 14H5v-2.184c.314.112.647.184 1 .184 3.022 0 3.048-2 6-2 2.976 0 3.019 2 6 2 .353 0 .686-.072 1-.184V22zm0-5c0 .553-.447 1-1 1-3.015 0-3.103-2-6-2-2.936 0-3.019 2-6 2-.553 0-1-.447-1-1v-3h14v3z"/></svg>