<svg viewBox="0 0 24 24" fill="currentColor"><path d="M23.676 13.271l.005-.004-14-13-.005.004C9.498.106 9.263 0 9 0c-.178 0-.251.025-.251.025C4.462 1.095 1.095 4.462.025 8.749c0 0-.025.073-.025.251v9c0 .476.338.854.782.956l-.004.019 22 5 .004-.019c.072.017.141.044.218.044.553 0 1-.447 1-1v-9c0-.29-.127-.546-.324-.729zM8.74 2.124L19.592 12.2 2.275 8.265C3.34 5.327 5.733 3.043 8.74 2.124zM22 21.747L2 17.202v-1.949l20 4.545v1.949zm0-4L2 13.202v-2.949l20 4.545v2.949zM8 5c-.553 0-1 .447-1 1s.447 1 1 1 1-.447 1-1-.447-1-1-1z"/></svg>