<svg viewBox="0 0 24 24" fill="currentColor"><path d="M12 15c1.104 0 2-.896 2-2s-.896-2-2-2-2 .896-2 2 .896 2 2 2zm5-8H7c-.552 0-1 .447-1 1 0 .023.012.043.013.065l-.011.001 1 15 .011-.001c.036.521.458.935.987.935h8c.529 0 .951-.414.987-.935l.011.001 1-15-.011-.001C17.988 8.043 18 8.023 18 8c0-.553-.448-1-1-1zm-1.936 15H8.936L8.069 9h7.862l-.867 13zM19 4h-1V3c0-1.657-1.343-3-3-3H9C7.343 0 6 1.343 6 3v1H5c-.552 0-1 .447-1 1s.448 1 1 1h14c.552 0 1-.447 1-1s-.448-1-1-1zm-3 0H8V3c0-.553.448-1 1-1h6c.552 0 1 .447 1 1v1z"/></svg>