<svg viewBox="0 0 24 24" fill="currentColor"><path d="M20 5h-1c0-2.209-1.791-4-4-4-1.201 0-2.267.541-3 1.38C11.267 1.541 10.201 1 9 1 6.791 1 5 2.791 5 5H4C1.791 5 0 6.791 0 9c0 1.921 1.355 3.523 3.162 3.909l1.857 9.287.02-.004c.092.457.477.808.961.808h12c.484 0 .869-.351.961-.808l.02.004 1.857-9.287C22.645 12.523 24 10.921 24 9c0-2.209-1.791-4-4-4zM6.819 21l-1.6-8h2.875l.8 8H6.819zm6.276 0h-2.189l-.801-8h3.79l-.8 8zm4.085 0h-2.075l.801-8h2.875l-1.601 8zM20 11H4c-1.104 0-2-.896-2-2s.896-2 2-2h2c.552 0 1-.447 1-1V5c0-1.104.896-2 2-2s2 .896 2 2c0 .552.447 1 1 1s1-.448 1-1c0-1.104.896-2 2-2s2 .896 2 2v1c0 .553.447 1 1 1h2c1.104 0 2 .896 2 2s-.896 2-2 2z"/></svg>