<svg viewBox="0 0 24 24" fill="currentColor"><path d="M4 0C1.791 0 0 1.791 0 4v2c0 1.861 1.277 3.412 3 3.858V23c0 .553.447 1 1 1s1-.447 1-1V9.858C6.723 9.412 8 7.861 8 6V4c0-2.209-1.791-4-4-4zm2 6c0 1.104-.896 2-2 2s-2-.896-2-2V4c0-1.104.896-2 2-2s2 .896 2 2v2zm8-6h-2c-1.657 0-3 1.343-3 3v6c0 1.657 1.343 3 3 3h1v11c0 .553.447 1 1 1s1-.447 1-1V1c0-.553-.447-1-1-1zm-1 10h-1c-.553 0-1-.447-1-1V3c0-.553.447-1 1-1h1v8zM23 0c-.553 0-1 .447-1 1v5c0 .738-.404 1.376-1 1.723V2c0-.553-.447-1-1-1s-1 .447-1 1v5.723c-.596-.347-1-.985-1-1.723V1c0-.553-.447-1-1-1s-1 .447-1 1v5c0 1.861 1.277 3.412 3 3.858V23c0 .553.447 1 1 1s1-.447 1-1V9.858c1.723-.446 3-1.997 3-3.858V1c0-.553-.447-1-1-1z"/></svg>