<svg viewBox="0 0 24 24" fill="currentColor"><path d="M20.708 3.293S17.836 0 12 0C6.118 0 3.679 3.027 3.609 3.08 3.345 3.263 3 3.743 3 4c0 .139.028.271.079.391l7.999 18.997c.152.359.507.612.922.612s.77-.253.922-.612l7.999-18.997c.051-.12.079-.252.079-.391 0-.276-.112-.525-.292-.707zM6.036 6.258C6.323 6.099 6.648 6 7 6c1.104 0 2 .896 2 2 0 .904-.604 1.659-1.428 1.907L6.036 6.258zm7.947 9.455C13.397 15.364 13 14.731 13 14c0-1.104.896-2 2-2 .179 0 .35.031.515.075l-1.532 3.638zm2.308-5.482C15.884 10.092 15.455 10 15 10c-2.209 0-4 1.791-4 4 0 1.561.903 2.898 2.207 3.558L12 20.423 8.348 11.75C9.891 11.195 11 9.733 11 8c0-2.209-1.791-4-4-4-.627 0-1.212.157-1.741.414l-.1-.237C6.005 3.376 8.031 2 12 2c3.918 0 5.97 1.374 6.839 2.181l-2.548 6.05z"/></svg>