<svg viewBox="0 0 24 24" fill="currentColor"><path d="M4 5c.181 0 .348-.052.494-.136l.006.011C5.75 4.031 8.134 4 12 4s6.25.063 7.469.875l.014-.023c.151.092.327.148.517.148.553 0 1-.447 1-1 0-.418-.258-.775-.622-.925-1.14-.708-3.217-1.023-7.378-1.066V1c0-.553-.447-1-1-1s-1 .447-1 1v1.011c-4.269.054-6.378.456-7.5 1.114l.006.011C3.205 3.308 3 3.628 3 4c0 .553.447 1 1 1zm11 7c.553 0 1-.447 1-1s-.447-1-1-1-1 .447-1 1 .447 1 1 1zm0 9c.553 0 1-.447 1-1v-5c0-.553-.447-1-1-1s-1 .447-1 1v5c0 .553.447 1 1 1zm8-12h-2V7c0-.553-.447-1-1-1H4c-.553 0-1 .447-1 1v2H1c-.553 0-1 .447-1 1s.447 1 1 1h2v10c0 1.657 1.343 3 3 3h12c1.657 0 3-1.343 3-3V11h2c.553 0 1-.447 1-1s-.447-1-1-1zm-4 12c0 .553-.447 1-1 1H6c-.553 0-1-.447-1-1V8h14v13z"/></svg>