<svg viewBox="0 0 24 24" fill="currentColor"><path d="M10.001 10c-.627 0-.8.4-.8.4l-2.998 4s-.2.154-.2.6c0 .553.447 1 .999 1 .627 0 .8-.4.8-.4l2.999-4S11 11.446 11 11c0-.553-.446-1-.999-1zm7.496-7C15.179 3 13.149 4.219 12 6.047 10.851 4.219 8.821 3 6.503 3 2.914 3 .006 5.91.006 9.5c0 .169-.013.334 0 .5 0 3.108 1.42 5.902 3.681 7.902l-.39.391s-.293.17-.293.707c0 .553.447 1 1 1 .276 0 .526-.112.707-.293l.598-.599C7.222 20.294 9.517 21 12 21s4.778-.706 6.691-1.892l.598.599c.181.181.431.293.707.293.553 0 1-.447 1-1 0-.278-.123-.516-.309-.691l-.374-.406c2.261-2 3.681-4.794 3.681-7.902.013-.166 0-.331 0-.5C23.994 5.91 21.086 3 17.497 3zm4.498 7c0 4.971-4.476 9-9.995 9s-9.995-4.029-9.995-9c-.019-.166 0-.329 0-.5 0-2.485 2.014-4.5 4.498-4.5C8.363 5 10.282 6.845 11 8.5c.089.204 5.185 7.081 5.185 7.081s.172.419.813.419c.552 0 .999-.447.999-1 0-.43-.187-.581-.187-.581L13 8c.406-1.338 2.313-3 4.497-3 2.484 0 4.498 2.015 4.498 4.5 0 .171.019.334 0 .5z"/></svg>