<svg viewBox="0 0 24 24" fill="currentColor"><path d="M24 1c0-.553-.448-1-1-1H1C.447 0 0 .447 0 1c0 .047.021.087.026.133l-.017.002 3 22 .018-.002c.068.486.468.867.973.867h16c.505 0 .905-.381.973-.867l.019.002 3-22-.019-.002C23.979 1.087 24 1.047 24 1zM4.873 22L3.236 10H4c1.657 0 3 1.343 3 3l.9 9H4.873zm9.227 0H9.9L9 13c0-1.657 1.343-3 3-3s3 1.343 3 3l-.9 9zm5.027 0H16.1l.9-9c0-1.657 1.343-3 3-3h.764l-1.637 12zm1.909-14H20c-1.639 0-3.088.791-4 2.009C15.088 8.791 13.639 8 12 8s-3.088.791-4 2.009C7.088 8.791 5.639 8 4 8H2.964l-.818-6h19.709l-.819 6z"/></svg>