<svg viewBox="0 0 24 24" fill="currentColor"><path d="M20.97 22.758l-3-12-.018.004C17.843 10.328 17.468 10 17 10h-4V6h5c.391 0 .721-.23.886-.558l.009.005 2-4-.009-.005C20.953 1.308 21 1.161 21 1c0-.553-.447-1-1-1H4c-.553 0-1 .447-1 1 0 .161.047.308.114.442l-.009.005 2 4 .009-.005C5.279 5.77 5.609 6 6 6h5v4H7c-.468 0-.843.328-.952.762l-.018-.004-3.001 12 .019.004C3.028 22.84 3 22.916 3 23c0 .553.447 1 1 1h16c.553 0 1-.447 1-1 0-.084-.028-.16-.048-.238l.018-.004zM6.618 4l-1-2h12.764l-1 2H6.618zM5.281 22L7.78 12h8.438l2.5 10H5.281zM12 15c-2.209 0-4 1.791-4 4 0 .553.447 1 1 1h6c.553 0 1-.447 1-1 0-2.209-1.791-4-4-4zm-1.723 3c.347-.596.984-1 1.723-1s1.376.404 1.723 1h-3.446z"/></svg>