<svg viewBox="0 0 24 24" fill="currentColor"><path d="M3 8h18c.553 0 1-.447 1-1 0-.347-.188-.638-.455-.816l.01-.016-9-6S12.408 0 12 0s-.555.168-.555.168l-9 6 .01.016C2.188 6.362 2 6.653 2 7c0 .553.447 1 1 1zm9-5.798L17.697 6H6.303L12 2.202zM17 11v8c0 .553.447 1 1 1s1-.447 1-1v-8c0-.553-.447-1-1-1s-1 .447-1 1zm6 11H1c-.553 0-1 .447-1 1s.447 1 1 1h22c.553 0 1-.447 1-1s-.447-1-1-1zM9 11v8c0 .553.447 1 1 1s1-.447 1-1v-8c0-.553-.447-1-1-1s-1 .447-1 1zm4 0v8c0 .553.447 1 1 1s1-.447 1-1v-8c0-.553-.447-1-1-1s-1 .447-1 1zm-8 0v8c0 .553.447 1 1 1s1-.447 1-1v-8c0-.553-.447-1-1-1s-1 .447-1 1z"/></svg>