<svg viewBox="0 0 24 24" fill="currentColor"><path d="M15 12h-2V9c0-.553-.447-1-1-1s-1 .447-1 1v4c0 .553.447 1 1 1h3c.553 0 1-.447 1-1s-.447-1-1-1zM5 3c.828 0 1.578.336 2.121.879l1.414-1.414C7.631 1.56 6.381 1 5 1 2.238 1 0 3.238 0 6c0 1.381.56 2.631 1.465 3.535l1.414-1.414C2.336 7.578 2 6.828 2 6c0-1.657 1.343-3 3-3zm14-2c-1.381 0-2.631.56-3.535 1.465l1.414 1.414C17.422 3.336 18.172 3 19 3c1.657 0 3 1.343 3 3 0 .828-.336 1.578-.879 2.121l1.414 1.414C23.44 8.631 24 7.381 24 6c0-2.762-2.238-5-5-5zm-7 3c-4.971 0-9 4.029-9 9 0 2.162.764 4.145 2.034 5.696l-1.929 2.856c0 .001-.105.122-.105.448 0 .553.447 1 1 1 .391 0 .721-.23.886-.558l1.659-2.296C8.06 21.305 9.946 22 12 22s3.94-.695 5.455-1.854l1.659 2.296c.165.328.495.558.886.558.553 0 1-.447 1-1 0-.161-.047-.308-.114-.442l-1.92-2.861C20.236 17.145 21 15.162 21 13c0-4.971-4.029-9-9-9zm0 16c-3.866 0-7-3.134-7-7s3.134-7 7-7 7 3.134 7 7-3.134 7-7 7z"/></svg>