<svg viewBox="0 0 24 24" fill="currentColor"><path d="M23 20H1c-.553 0-1 .447-1 1s.447 1 1 1h22c.553 0 1-.447 1-1s-.447-1-1-1zM1 4h22c.553 0 1-.447 1-1s-.447-1-1-1H1c-.553 0-1 .447-1 1s.447 1 1 1zm0 14c.404 0 .749-.243.906-.588l.004.002L3.462 14h5.076l1.552 3.414.004-.002c.157.345.502.588.906.588.553 0 1-.447 1-1 0-.147-.036-.285-.094-.412l.004-.002-5-11-.004.002C6.748 5.243 6.404 5 6 5s-.749.243-.906.588l-.004-.002-5 11 .004.002C.036 16.715 0 16.853 0 17c0 .553.447 1 1 1zm5-9.583L7.629 12H4.371L6 8.417zM17 12c-1.657 0-3 1.343-3 3s1.343 3 3 3h2c.463 0 .896-.113 1.287-.301.182.185.434.301.713.301.553 0 1-.447 1-1V9.969C22 8.541 19.99 7 18.5 7 16.979 7 15 8.51 15 10c0 .553.447 1 1 1s1-.447 1-1c0-.542.958-1 1.5-1 .511 0 1.5.489 1.5.969V12h-3zm3 3c0 .553-.447 1-1 1h-2c-.553 0-1-.447-1-1s.447-1 1-1h3v1z"/></svg>