<svg viewBox="0 0 24 24" fill="currentColor"><path d="M21.895 22.553l-10-20-.009.005C11.721 2.23 11.391 2 11 2s-.721.23-.886.558l-.009-.005-10 20 .009.005C.047 22.692 0 22.839 0 23c0 .553.447 1 1 1 .391 0 .721-.23.886-.558l.009.005L5.118 17h11.764l3.224 6.447.009-.005c.164.328.494.558.885.558.553 0 1-.447 1-1 0-.161-.047-.308-.114-.442l.009-.005zM6.118 15L11 5.236 15.882 15H6.118zM23 3h-2V1c0-.553-.447-1-1-1s-1 .447-1 1v2h-2c-.553 0-1 .447-1 1s.447 1 1 1h2v2c0 .553.447 1 1 1s1-.447 1-1V5h2c.553 0 1-.447 1-1s-.447-1-1-1z"/></svg>