<svg viewBox="0 0 24 24" fill="currentColor"><path d="M1 12c1.156 0 6.896-3 8-3s2 .896 2 2c0 .553.447 1 1 1s1-.447 1-1c0-1.104.896-2 2-2s6.844 3 8 3c.553 0 1-.447 1-1s-.447-1-1-1c-1.906 0-5.791-3-8-3-1.196 0-2.267.528-3 1.36C11.267 7.528 10.196 7 9 7c-2.209 0-6.094 3-8 3-.553 0-1 .447-1 1s.447 1 1 1zm22 1h-9c-.553 0-1 .447-1 1 0 .542-.427 1-1 1s-1-.427-1-1c0-.553-.447-1-1-1H1c-.553 0-1 .447-1 1s.447 1 1 1h8.226c.465 1.086 1.604 2 2.774 2 1.123 0 2.287-.914 2.767-2H23c.553 0 1-.447 1-1s-.447-1-1-1z"/></svg>