<svg viewBox="0 0 24 24" fill="currentColor"><path d="M9 10c-1.657 0-3 1.343-3 3h2c0-.553.447-1 1-1s1 .447 1 1-.447 1-1 1-1 .447-1 1 .447 1 1 1 1 .447 1 1-.447 1-1 1-1-.447-1-1H6c0 1.657 1.343 3 3 3s3-1.343 3-3c0-.771-.3-1.469-.778-2 .478-.531.778-1.229.778-2 0-1.657-1.343-3-3-3zm8 0c-.161 0-.308.047-.442.114l-.005-.009-2 1 .005.009c-.328.165-.558.495-.558.886 0 .553.447 1 1 1 .161 0 .308-.047.442-.114l.005.009.553-.277V19c0 .553.447 1 1 1s1-.447 1-1v-8c0-.553-.447-1-1-1zm2-4H5c-.553 0-1 .447-1 1s.447 1 1 1h14c.553 0 1-.447 1-1s-.447-1-1-1zm4-4h-3V1c0-.553-.447-1-1-1s-1 .447-1 1v1h-5V1c0-.553-.447-1-1-1s-1 .447-1 1v1H6V1c0-.553-.447-1-1-1S4 .447 4 1v1H1c-.553 0-1 .447-1 1v20c0 .553.447 1 1 1h22c.553 0 1-.447 1-1V3c0-.553-.447-1-1-1zm-1 20H2V4h2c0 .553.447 1 1 1s1-.447 1-1h5c0 .553.447 1 1 1s1-.447 1-1h5c0 .553.447 1 1 1s1-.447 1-1h2v18z"/></svg>