<svg viewBox="0 0 24 24" fill="currentColor"><path d="M11 7c.553 0 1-.448 1-1 0-2.913-2-2.994-2-5 0-.553-.447-1-1-1S8 .447 8 1c0 2.938 2 3.022 2 5 0 .552.447 1 1 1zm4 0c.553 0 1-.448 1-1 0-2.913-2-2.994-2-5 0-.553-.447-1-1-1s-1 .447-1 1c0 2.938 2 3.022 2 5 0 .552.447 1 1 1zm2 4v-1c0-.553-.447-1-1-1H6c-.553 0-1 .447-1 1v13c0 .553.447 1 1 1h10c.553 0 1-.447 1-1v-2.563l2.828-2.608C20.553 17.104 21 16.104 21 15c0-2.209-1.791-4-4-4zm-2 11H7V11h8v11zm3.449-5.645L17 17.704V13c1.104 0 2 .896 2 2 0 1.05-.551 1.355-.551 1.355zM7 7c.553 0 1-.448 1-1 0-2.913-2-2.994-2-5 0-.553-.447-1-1-1S4 .447 4 1c0 2.938 2 3.022 2 5 0 .552.447 1 1 1z"/></svg>