<svg viewBox="0 0 24 24" fill="currentColor"><path d="M22.468 1.537C21.51.578 20.276 0 19.021 0c-1.437 0-2.897.438-3.995 1.537L3.841 12.934c-.516.539-.837 1.265-.837 2.069 0 .793.313 1.509.816 2.045l.854.872-4.38 4.374c-.181.181-.294.431-.294.707 0 .553.448.999 1.002.999.276 0 .526-.111.707-.292l4.388-4.382.798.789s.473.886 2.116.886c.806 0 1.532-.321 2.072-.835L22.468 8.995C23.568 7.892 24 6.546 24 4.976c0-1.253-.579-2.483-1.532-3.439zm-1.489 5.966l-5.036 5.012-.218-.218-.01.01c-.178-.184-.421-.303-.698-.303-.553 0-1.001.447-1.001 1 0 .276.119.52.304.697l-.01.01.216.215-1.591 1.583-.213-.213-.01.01c-.178-.184-.422-.303-.698-.303-.554 0-1.001.447-1.001 1 0 .276.119.52.303.697l-.01.01.21.21-1.798 1.789c-.181.181-.431.293-.707.293-.294 0-1.498-1.09-1.498-1.09l10.214-10.2c.182-.181.294-.431.294-.707 0-.552-.448-.999-1.001-.999-.277 0-.527.112-.708.293L6.089 16.507l-.79-.797c-.181-.181-.293-.431-.293-.707s.112-.526.293-.707L16.494 3.009S18.8.845 20.978 3.03c1.233 1.235 1.233 3.239.001 4.473z"/></svg>