<svg viewBox="0 0 24 24" fill="currentColor"><path d="M12 0C7.582 0 4 3.582 4 8c0 2.959 1.61 5.439 4 6.799V21c0 .553.447 1 1 1h1c0 1.104.896 2 2 2s2-.896 2-2h1c.553 0 1-.447 1-1V14.799c2.39-1.359 4-3.84 4-6.799 0-4.418-3.582-8-8-8zm2 20h-4v-1h2c.553 0 1-.447 1-1s-.447-1-1-1h-2v-1h4v4zm1-7c-.334.219-1 .447-1 1h-1v-3.586l1.707-1.707C14.888 8.526 15 8.276 15 8c0-.553-.447-1-1-1-.276 0-.526.112-.707.293L12 8.586l-1.293-1.293C10.526 7.112 10.276 7 10 7c-.553 0-1 .447-1 1 0 .276.112.526.293.707L11 10.414V14h-1c0-.553-.666-.813-1-1-1.758-1.044-3-2.807-3-5 0-3.313 2.687-6 6-6s6 2.687 6 6c0 2.193-1.242 3.956-3 5z"/></svg>