<svg viewBox="0 0 24 24" fill="currentColor"><path d="M12 5c-1.657 0-3 1.343-3 3s1.343 3 3 3 3-1.343 3-3-1.343-3-3-3zm0 4c-.553 0-1-.447-1-1s.447-1 1-1 1 .447 1 1-.447 1-1 1zm7.707-1.707L18 5.586V3.059c.018-.278-.069-.563-.283-.775-.213-.215-.497-.302-.776-.284h-2.527L12.707.293C12.526.112 12.276 0 12 0s-.526.112-.707.293L9.586 2H7.091c-.279-.018-.564.069-.777.283-.198.197-.295.457-.294.717H6v2.586L4.293 7.293C4.112 7.474 4 7.724 4 8s.112.526.293.707L6 10.414V13h.024c.007.249.101.496.29.686s.437.283.686.29V14h.895l-.89 8.9.02.002C7.021 22.937 7 22.964 7 23c0 .553.447 1 1 1 .225 0 .423-.088.59-.214l.01.014 3.4-2.55 3.4 2.55.01-.014c.167.126.364.214.59.214.553 0 1-.447 1-1 0-.036-.021-.063-.024-.098l.02-.002-.89-8.9H17v-.02c.26.001.52-.097.717-.295.214-.213.301-.497.283-.776v-2.495l1.707-1.707C19.888 8.526 20 8.276 20 8s-.112-.526-.293-.707zM12.6 19.2l-.01.014c-.167-.126-.365-.214-.59-.214-.226 0-.423.088-.59.214l-.01-.014-2.179 1.634.654-6.544 1.417 1.417c.182.181.432.293.708.293s.526-.112.707-.293l1.417-1.417.654 6.544L12.6 19.2zm3.693-9.907c-.181.181-.293.431-.293.707v2h-2c-.276 0-.526.112-.707.293L12 13.586l-1.293-1.293C10.526 12.112 10.276 12 10 12H8v-2c0-.276-.112-.526-.293-.707L6.414 8l1.293-1.293C7.888 6.526 8 6.276 8 6V4h2c.276 0 .526-.112.707-.293L12 2.414l1.293 1.293c.181.181.431.293.707.293h2v2c0 .276.112.526.293.707L17.586 8l-1.293 1.293z"/></svg>