<svg viewBox="0 0 24 24" fill="currentColor"><path d="M18.948 11.684l-2.585-7.757C16.734 3.781 17 3.424 17 3c0-.553-.447-1-1-1V0h-2v2h-4V0H8v2c-.553 0-1 .447-1 1 0 .424.266.781.637.927l-2.585 7.757S5 11.774 5 12c0 .376.143.515.143.515l6 11 .015-.009c.174.29.479.494.842.494s.668-.204.843-.494l.015.009 5.985-11.009c.091-.151.157-.318.157-.506 0-.227-.052-.316-.052-.316zM13 19.08v-6.357c.596-.347 1-.984 1-1.723 0-1.104-.896-2-2-2s-2 .896-2 2c0 .738.404 1.376 1 1.723v6.357l-3.914-7.176L9.721 4h4.559l2.635 7.904L13 19.08z"/></svg>