<svg viewBox="0 0 24 24" fill="currentColor"><path d="M23 0H1C.447 0 0 .447 0 1c0 .552.447 1 1 1h1v13c0 .553.447 1 1 1h5l-4.8 6.4.014.01c-.126.167-.214.364-.214.59 0 .553.447 1 1 1 .327 0 .604-.168.786-.41l.014.01 5.7-7.6h.5v7c0 .553.447 1 1 1s1-.447 1-1v-7h.5l5.7 7.6.014-.01c.182.242.459.41.786.41.553 0 1-.447 1-1 0-.226-.088-.423-.214-.59l.014-.01L16 16h5c.553 0 1-.447 1-1V2h1c.553 0 1-.448 1-1 0-.553-.447-1-1-1zm-3 14H4V2h16v12zM8 6h8c.553 0 1-.448 1-1 0-.553-.447-1-1-1H8c-.553 0-1 .447-1 1 0 .552.447 1 1 1zm0 4h6c.553 0 1-.447 1-1s-.447-1-1-1H8c-.553 0-1 .447-1 1s.447 1 1 1z"/></svg>