<svg viewBox="0 0 24 24" fill="currentColor"><path d="M21 2h-1V1c0-.553-.448-1-1-1H5c-.553 0-1 .447-1 1v1H3C1.343 2 0 3.343 0 5c0 1.333 2.75 3.595 4.216 4.818.75 3.224 3.445 5.695 6.784 6.112V22H6c-.553 0-1 .447-1 1s.447 1 1 1h12c.552 0 1-.447 1-1s-.448-1-1-1h-5v-6.069c3.343-.418 6.039-2.894 6.787-6.122C21.253 8.595 24 6.411 24 5c0-1.754-1.343-3-3-3zM4 6.989C3.114 6.28 2 5.365 2 5c0-.553.447-1 1-1h1v2.989zM18 8c0 3.313-2.687 6-6 6s-6-2.687-6-6V2h12v6zm2-1.016V4h1c.553 0 1 .415 1 1 0 .387-1.114 1.283-2 1.984zM9.532 11.017l2.477-1.791 2.478 1.791-.855-3.028 2.387-1.921-3.007-.081-1.002-2.979-1.002 2.979-3.007.08 2.387 1.921-.856 3.029z"/></svg>