<svg viewBox="0 0 24 24" fill="currentColor"><path d="M23 12h-1.051C21.447 6.947 17.186 3 12 3s-9.447 3.947-9.949 9H1c-.553 0-1 .447-1 1v6c0 .553.447 1 1 1h22c.553 0 1-.447 1-1v-6c0-.553-.447-1-1-1zm-1 6h-3v-1c0-.553-.447-1-1-1s-1 .447-1 1v1h-4c0-.553-.447-1-1-1s-1 .447-1 1H7v-1c0-.553-.447-1-1-1s-1 .447-1 1v1H2v-4h1c.553 0 1-.447 1-1 0-4.418 3.582-8 8-8s8 3.582 8 8c0 .553.447 1 1 1h1v4zM12 9c-2.209 0-4 1.791-4 4 0 .553.447 1 1 1h6c.553 0 1-.447 1-1 0-2.209-1.791-4-4-4zm-1.723 3c.347-.596.984-1 1.723-1s1.376.404 1.723 1h-3.446z"/></svg>