<svg viewBox="0 0 24 24" fill="currentColor"><path d="M23.707 6.299L17.646.264C17.459.075 17.246.004 17 0c-.256-.004-.543.068-.738.264-.359.359-.368.924-.052 1.309L8.711 8.352l-.06-.061c-.382-.383-1.002-.383-1.385 0-.382.383-.382 1.004 0 1.387l2.796 2.846-9.77 9.77C.293 22.293 0 22.454 0 23c0 .553.447 1 1 1 .276 0 .526-.112.707-.293l9.771-9.771 2.826 2.759c.383.383 1.003.383 1.385 0 .383-.383.383-1.004 0-1.387l-.06-.061 6.77-7.51c.385.316.947.309 1.308-.052.181-.181.283-.448.293-.685.011-.265-.092-.5-.293-.701zm-9.468 7.555l-4.138-4.11 7.484-6.768 3.411 3.383-6.757 7.495z"/></svg>