<svg viewBox="0 0 24 24" fill="currentColor"><path d="M7 6h5c.553 0 1-.447 1-1s-.447-1-1-1H7c-.553 0-1 .447-1 1s.447 1 1 1zm16 10V1c0-.553-.447-1-1-1H2c-.553 0-1 .447-1 1v15c-.553 0-1 .447-1 1s.447 1 1 1h1.612L1.05 22.684l.013.004C1.029 22.787 1 22.89 1 23c0 .553.447 1 1 1 .441 0 .805-.291.937-.688l.012.004L4.721 18H19.28l1.771 5.316.013-.004c.131.397.495.688.936.688.553 0 1-.447 1-1 0-.11-.029-.213-.063-.313l.012-.004L21.388 18H23c.553 0 1-.447 1-1s-.447-1-1-1zm-2 0h-2v-1h-4v1H3V2h18v14zM7 10h3c.553 0 1-.447 1-1s-.447-1-1-1H7c-.553 0-1 .447-1 1s.447 1 1 1z"/></svg>