<svg viewBox="0 0 24 24" fill="currentColor"><path d="M16 22c-1.657 0-3-1.343-3-3v-8c0-.553-.448-1-1-1-.553 0-1 .447-1 1v8c0 2.762 2.238 5 5 5 .553 0 1-.448 1-1 0-.553-.447-1-1-1zm-6 0c-1.657 0-3-1.343-3-3v-8c0-.553-.448-1-1-1-.553 0-1 .447-1 1v8c0 2.762 2.238 5 5 5 .552 0 1-.448 1-1 0-.553-.448-1-1-1zm12 0c-1.657 0-3-1.343-3-3v-8c0-.553-.447-1-1-1s-1 .447-1 1v8c0 2.762 2.238 5 5 5 .553 0 1-.448 1-1 0-.553-.447-1-1-1zM20.5 4c.276 0 .5-.224.5-.5s-.224-.5-.5-.5-.5.224-.5.5.224.5.5.5zM23 0H1C.447 0 0 .447 0 1v6c0 .552.447 1 1 1h22c.552 0 1-.448 1-1V1c0-.553-.448-1-1-1zm-1 6h-2V5H4v1H2V2h20v4z"/></svg>