<svg viewBox="0 0 24 24" fill="currentColor"><path d="M17 10h-2c.553 0 1-.447 1-1V5c0-.553-.447-1-1-1h-.132l.964-1.445-.016-.01c.107-.159.184-.34.184-.545 0-.553-.447-1-1-1-.347 0-.638.188-.816.455l-.016-.01-1.044 1.566L11.895.552l-.009.005C11.721.23 11.391 0 11 0c-.553 0-1 .447-1 1 0 .161.047.308.114.442l-.009.005L11.382 4H11c-.553 0-1 .447-1 1v4c0 .553.447 1 1 1H7c-.553 0-1 .447-1 1v10c0 .553.447 1 1 1h1v1c0 .553.447 1 1 1s1-.447 1-1v-1h4v1c0 .553.447 1 1 1s1-.447 1-1v-1h1c.553 0 1-.447 1-1V11c0-.553-.447-1-1-1zm-5-4h2v2h-2V6zm4 14H8v-3h8v3zm0-5H8v-3h8v3z"/></svg>