<svg viewBox="0 0 24 24" fill="currentColor"><path d="M18 0H6C3.791 0 2 1.791 2 4v3c0 .553.447 1 1 1h4c0 1.657 1.343 3 3 3s3-1.343 3-3h1.465l3.32 4.98-4.479 6.27-4.813 2.907c-.289.175-.493.48-.493.843 0 .553.447 1 1 1h10c.553 0 1-.447 1-1 0-.363-.204-.668-.494-.843L15.443 19.7l4.355-6.13c.118-.163.202-.353.202-.57 0-.205-.077-.386-.184-.545L16.868 8H21c.553 0 1-.447 1-1V4c0-2.209-1.791-4-4-4zm-5.39 22l1.39-.834 1.39.834h-2.78zM10 9c-.553 0-1-.447-1-1h2c0 .553-.447 1-1 1zm10-3H4V4c0-1.104.896-2 2-2h12c1.104 0 2 .896 2 2v2z"/></svg>