<svg viewBox="0 0 24 24" fill="currentColor"><path d="M23 20h-1V8c.553 0 1-.447 1-1V4c.552 0 1-.448 1-1 0-.553-.448-1-1-1H1c-.553 0-1 .447-1 1 0 .552.447 1 1 1v3c0 .553.447 1 1 1v12H1c-.553 0-1 .447-1 1s.447 1 1 1h22c.552 0 1-.447 1-1s-.448-1-1-1zm-7 0h-1c0-.327-.167-.604-.41-.786l.01-.014-.933-.7.933-.7-.01-.014c.243-.182.41-.459.41-.786 0-.553-.447-1-1-1-.226 0-.423.088-.59.214l-.01-.014-1.4 1.05-1.4-1.05-.01.014c-.167-.126-.365-.214-.59-.214-.553 0-1 .447-1 1 0 .327.167.604.41.786l-.01.014.933.7-.933.7.01.014c-.243.182-.41.459-.41.786H8v-8h8v8zm4 0h-2V10H6v10H4V8h16v12zm1-14H3V4h18v2z"/></svg>