<svg viewBox="0 0 24 24" fill="currentColor"><path d="M20 20.277V20c0-1.657-1.343-3-3-3h-4v-4h5c.553 0 1-.447 1-1s-.447-1-1-1H6c-.553 0-1 .447-1 1s.447 1 1 1h5v4H7c-1.657 0-3 1.343-3 3v.277c-.596.347-1 .985-1 1.723 0 1.104.896 2 2 2s2-.896 2-2c0-.738-.404-1.376-1-1.723V20c0-.553.447-1 1-1h4v1.277c-.596.347-1 .984-1 1.723 0 1.104.896 2 2 2s2-.896 2-2c0-.738-.404-1.376-1-1.723V19h4c.553 0 1 .447 1 1v.277c-.596.347-1 .984-1 1.723 0 1.104.896 2 2 2s2-.896 2-2c0-.738-.404-1.376-1-1.723zM18 9c.553 0 1-.447 1-1V1c0-.553-.447-1-1-1s-1 .447-1 1v7c0 .553.447 1 1 1z"/></svg>