<svg viewBox="0 0 24 24" fill="currentColor"><path d="M11 13c.553 0 1-.447 1-1s-.447-1-1-1-1 .447-1 1 .447 1 1 1zm-7 8c.316 0 .586-.156.77-.385l3.205-3.982 1.672 2.229-.415.497c-.001 0-.232.161-.232.641 0 .553.447 1 1 1 .309 0 .574-.148.758-.368L15 15.563l4.242 5.069c.184.22.449.368.758.368.553 0 1-.447 1-1 0-.48-.231-.641-.231-.641l-5.011-5.991c-.184-.22-.449-.368-.758-.368-.598 0-.769.359-.769.359l-3.27 3.924-2.175-2.873C8.604 14.167 8.327 14 8 14c-.609 0-.781.375-.781.375l-3.988 5.01C3.094 19.556 3 19.764 3 20c0 .553.447 1 1 1zM23 8h-2.586L12.707.293C12.526.112 12.276 0 12 0c-.546 0-.707.293-.707.293L3.586 8H1c-.553 0-1 .447-1 1v14c0 .553.447 1 1 1h22c.553 0 1-.447 1-1V9c0-.553-.447-1-1-1zM12 2.414L17.586 8H6.414L12 2.414zM22 22H2V10h20v12z"/></svg>