<svg viewBox="0 0 24 24" fill="currentColor"><path d="M23 12.5h-1.684l-1.777-4H23c.553 0 1-.447 1-1s-.447-1-1-1H1c-.553 0-1 .447-1 1s.447 1 1 1h3.461l-1.777 4H1c-.553 0-1 .447-1 1s.447 1 1 1h.795l-.709 1.594.003.001c-.056.125-.089.26-.089.405 0 .553.447 1 1 1 .407 0 .755-.246.911-.595l.01-.016.001-.001L3.983 14.5h16.033l1.062 2.389.001.001.007.017s.146.594.914.594c.553 0 1-.447 1-1 0-.145-.034-.28-.089-.405l.003-.001-.709-1.595H23c.553 0 1-.447 1-1s-.447-1-1-1zm-18.128 0l1.777-4h10.7l1.778 4H4.872z"/></svg>