<svg viewBox="0 0 24 24" fill="currentColor"><path d="M21 19c-.276 0-.526.112-.707.293l-.003-.003c-.641.64-1.526 1.161-2.519 1.574L16.246 14H18c.552 0 1-.447 1-1s-.448-1-1-1H9V8h7c.552 0 1-.448 1-1 0-.553-.448-1-1-1H9V1c0-.553-.448-1-1-1-.553 0-1 .447-1 1v11H6c-.553 0-1 .447-1 1s.447 1 1 1h1.753l-1.526 6.872c-.963-.397-1.827-.892-2.454-1.499C3.59 19.147 3.313 19 3 19c-.553 0-1 .447-1 1 0 .269.106.511.278.689l-.014.015C4.437 22.876 8.687 24 12 24c3.271 0 7.444-1.1 9.615-3.217.233-.183.385-.464.385-.783 0-.553-.447-1-1-1zm-9 3c-1.182 0-2.546-.176-3.863-.508L9.802 14h4.396l1.664 7.489C14.549 21.823 13.188 22 12 22z"/></svg>