<svg viewBox="0 0 24 24" fill="currentColor"><path d="M23.979 13.392l.016-.002-1-9-.016.002c-.057-.499-.465-.892-.979-.892h-6c-.514 0-.922.393-.979.892l-.015-.002-1 9 .016.002c-.004.037-.022.07-.022.108 0 .553.447 1 1 1h3v1c0 1.448-1.271 3-2.5 3-1.104 0-2.5-.896-2.5-2 0-.553-.447-1-1-1s-1 .447-1 1c0 1.104-1.427 2-2.531 2C7.208 18.5 6 16.886 6 15.5v-1h3c.553 0 1-.447 1-1 0-.038-.018-.071-.021-.108l.016-.002-1-9-.016.002C8.922 3.893 8.514 3.5 8 3.5H2c-.514 0-.922.393-.979.892l-.015-.002-1 9 .016.002c-.004.037-.022.07-.022.108 0 .553.447 1 1 1h3v1c0 2.49 2.041 5 4.469 5 1.201 0 2.985-.834 3.531-1.38.577.577 2.299 1.38 3.5 1.38 2.428 0 4.5-2.51 4.5-5v-1h3c.553 0 1-.447 1-1 0-.038-.018-.071-.021-.108zM2.117 12.5l.777-7h4.21l.778 7H2.117zm14 0l.777-7h4.21l.778 7h-5.765z"/></svg>