<svg fill="currentColor" viewBox="0 0 182 123">
  <path d="M32.6026 4.35993l-10.38 32.47997h-9.63L2.73264 4.35993.702637.299927H13.7526l-.58 4.060003 4.47 16.52997.29 2.03.29-2.03 4.52-16.52997-.58-4.060003h12.47l-2.03 4.060003zM60.1526 36.8399h-16.82l-6.96-6.96V7.25993l6.96-6.960003h16.82l6.96 6.960003V29.8799l-6.96 6.96zm-3.77-24.94l-1.04-2.14997-2.15-1.04h-2.9l-2.15 1.04-1.04 2.14997v13.05l1.04 2.15 2.15 1.04h2.9l2.15-1.04 1.04-2.15v-13.05zM97.2729 36.8399h-23.08l1.33-4.06V4.35993l-1.33-4.060003h23.08l7.5401 7.540003V29.2999l-7.5401 7.54zm-2.9-24.07l-1.33-2.73-2.73-1.32997h-3.77l-.58.58V27.2699l.87.87h3.48l2.73-1.33 1.33-2.73v-11.31zM132.653 36.8399l-.58-4.64-4.64-12.76h-.87l-2.61 2.61-.58 1.16v9.57l1.33 4.06h-12.82l1.33-4.06V4.35993l-1.33-4.060003h12.82l-1.33 4.060003v8.11997l.87-1.16 7.83-7.82997 1.16-3.190003h11.31l1.04 1.040003-10.44 10.37997 7.66 20.18 3.19 4.93h-13.34v.01z"/>
  <path d="M168.453 36.8399l.58-4.06-.75-3.19-.58-.58h-8.99l-.58.58-.7 3.19.58 4.06h-12.64l2.09-4.06 7.66-28.99997-.87-3.480003h18.56l-.87 3.480003 7.66 28.99997 2.03 4.06h-13.18zm-5.11-27.25997l-.29-2.03-.29 2.03-2.61 11.01997.58.58h4.81l.58-.58-2.78-11.01997zM42.4925 80.8399h-15.95l-3.48-10.44 5.39 1.74h7.95l1.57-.81.75-1.51v-2.09l-1.33-1.28-8.35-1.74-4.81-4.76v-8.7l6.96-6.96h14.91l3.36 9.98-4.76-1.57h-7.42l-1.57.81-.75 1.51v1.16l1.1 1.1 8.58 1.8 4.81 4.81v9.98l-6.96 6.97zM78.7424 80.8399h-16.82l-6.96-6.96v-22.62l6.96-6.96h16.82l6.96 6.96v22.62l-6.96 6.96zm-3.77-24.94l-1.04-2.15-2.15-1.04h-2.9l-2.15 1.04-1.04 2.15v13.05l1.04 2.15 2.15 1.04h2.9l2.15-1.04 1.04-2.15v-13.05zM114.703 80.8399H91.6226l1.33-4.06v-28.42l-1.33-4.06h23.0804l7.54 7.54v21.46l-7.54 7.54zm-2.9-24.07l-1.33-2.73-2.73-1.33h-3.77l-.58.58v17.98l.87.87h3.48l2.73-1.33 1.33-2.73v-11.31zM147.462 80.8399l.58-4.06-.75-3.19-.58-.58h-8.99l-.58.58-.7 3.19.58 4.06h-12.64l2.09-4.06 7.66-29-.87-3.48h18.56l-.87 3.48 7.66 29 2.03 4.06h-13.18zm-5.1-27.26l-.29-2.03-.29 2.03-2.61 11.02.58.58h4.81l.58-.58-2.78-11.02zM94.4229 106.52h-10.25l.62-2V91.0199l-.62-2h6.25l-.75 2.25V101.89l.38.38h3.5l2.57-.88-1.7 5.13zM97.1729 106.52l.62-2V91.0199l-.62-2h6.1201l-.63 2V104.52l.63 2h-6.1201zM119.293 106.52l.63-2v-7.7501l.13-1-.38 1-4 9.7501h-.13l-4-9.7501-.38-1 .13 1v7.7501l.63 2h-5.37l.62-2V91.0199l-.62-2h6.25l2.87 7.05.13.57.13-.57 2.88-7.05h6.37l-.63 2V104.52l.63 2h-5.89zM139.293 106.52h-10.87l.62-2V91.0199l-.62-2h10.5l1.57 4.75-2.2-.75h-4.3l-.2.25v1.75l.25.25h1.63l1.87-.63v5.25l-1.87-.63h-1.63l-.25.25v2.3701l.38.38h4.2l2.62-.88-1.7 5.14zM63.8824 122.06h-2.78l-1.39-1.39v-4.17l1.39-1.39h2.68l.67 2.03-1.19-.4h-.67l-.6.3-.25.5v2.08l.25.5.6.3h.77l1.19-.4-.67 2.04zM72.0226 122.06h-3.07l-1.29-1.29v-4.36l1.29-1.29h3.07l1.29 1.29v4.36l-1.29 1.29zm-.69-4.81l-.2-.4-.4-.2h-.5l-.4.2-.2.4v2.58l.2.4.4.2h.5l.4-.2.2-.4v-2.58zM81.0523 122.06h-2.78l-1.39-1.39v-4.17l1.39-1.39h2.68l.67 2.03-1.19-.4h-.67l-.6.3-.25.5v2.08l.25.5.6.3h.77l1.19-.4-.67 2.04zM88.6823 122.06l-.1-.89-.82-2.43h-.15l-.5.5-.1.2v1.83l.25.79h-2.38l.25-.79v-5.36l-.25-.79h2.38l-.25.79v1.44l.15-.2 1.44-1.44.2-.59h2.13l.2.2-1.93 1.93 1.41 3.87.56.94h-2.49zM97.8626 116.75h-.77l-.1.1v4.17l.35 1.04h-2.63l.35-1.04v-4.17l-.1-.1h-.77l-1.03.35.67-1.98h4.41l.67 1.98-1.05-.35zM104.982 122.06l.1-.79-.15-.59-.1-.1h-1.64l-.1.1-.15.59.1.79h-2.28l.4-.79 1.39-5.5-.15-.64h3.37l-.15.64 1.39 5.5.4.79h-2.43zm-.93-5.21l-.05-.35-.05.35-.5 2.13.1.1h.89l.1-.1-.49-2.13zM110.242 122.06l.25-.79v-5.36l-.25-.79h2.43l-.25.79v5.36l.25.79h-2.43zM120.412 122.06h-4.07l.25-.79v-5.36l-.25-.79h2.48l-.3.89v4.21l.15.15h1.39l1.02-.35-.67 2.04zM127.622 116.7h-1.41l-.3.15-.15.3v.2l.2.2 1.54.35.94.94v1.93l-1.29 1.29h-2.93l-.67-2.03 1.04.35h1.42l.3-.15.15-.3v-.4l-.25-.25-1.54-.35-.89-.89v-1.64l1.29-1.29h2.78l.62 1.88-.85-.29zM58.1424 92.7699l-.04.13c-.04.09-.13.22-.15.35-.02.09-.13.26-.15.37-.02.2-.07.18-.09.24l-.04.26c-.02.09-.07.18-.09.26v.13l-.09.24c0 .09-.02.15-.02.26 0 .09-.04.07-.04.26 0 .11-.07.35-.07.53l-.04.4v.13c-.02.13-.02.26-.02.4 0 .09-.04.22-.04.4v.4c0 .04-.02.15-.02.26v2.5301c0 .04.02.09.02.13 0 .04-.02.09-.02.13l.02.4v1.19c0 .04-.02.09-.02.13 0 .07.02.11.02.15 0 .04-.02.15-.02.26 0 .18-.02.29-.02.53 0 .2-.04.18-.04.26 0 .04.02.09 0 .13-.02.11.2.18.22.04 0-.04.02-.09.04-.11 0-.09.07-.15.11-.24l.04-.13.07-.11c.04-.09.04-.13.11-.24.09-.13.04-.11.09-.24l.07-.11.04-.13.07-.11c.04-.11.11-.2.11-.24.02-.07 0-.15.09-.26.04-.04.07-.18.09-.24l.07-.11c0-.04.02-.09.02-.13l.07-.11c.04-.09.04-.18.09-.26.05-.08.09-.15.11-.24.02-.11.15-.37.22-.62l.07-.1101c.02-.07.04-.2.09-.24 0-.13.13-.26.15-.37 0-.04.02-.09.02-.13l.07-.11c0-.04.02-.09.02-.13l.07-.11c.02-.07.22-.66.26-.75l.04-.13.07-.11c.04-.11.09-.26.11-.37.02-.09.09-.18.11-.26 0-.04.24-.68.26-.73.07-.09.07-.18.09-.26l.15-.35c0-.04.02-.09.04-.13.02-.04.02-.09.02-.13l.07-.11c.07-.24.15-.33.22-.62 0 0 .22-.46.24-.62 0-.02.15-.31.15-.37.02-.09.09-.18.11-.24 0-.04 0-.09.02-.13.04-.07.09-.2.11-.24.09-.11.11-.24.18-.37.09-.15.09-.22.18-.35.09-.13.09-.24.2-.35.04-.04.02-.11.13-.22.04-.04.29-.46.37-.55l.11-.09.07-.11c.07-.07.24-.18.31-.26.02-.04.07-.04.11-.07.02-.04.04-.09.09-.11.22-.11.46-.29.7-.35.07-.02.02-.07.37-.13l.13-.04c.22-.04.44-.09.66-.09.2 0 .31-.04.35.2.02.13.13.68.07.77-.11.18-.18.11-.31.13-.04.02-.09.02-.13.02l-.11.07c-.2.07-.18.02-.35.15-.11.09-.33.22-.44.31-.11.11-.33.35-.42.48-.13.22-.31.42-.42.66-.04.11-.02.09-.11.24-.02.04-.02.09-.04.11-.15.18-.11.29-.18.37-.04.07-.07.18-.09.24l-.09.1c-.04.09-.07.18-.09.24l-.07.11c-.04.18-.33.95-.35.99 0 .04-.04.07-.07.11-.02.13-.02.13-.09.26-.02.04-.02.09-.04.11 0 .09-.18.46-.2.51 0 .04-.02.09-.02.13l-.07.11c0 .04-.04.22-.09.24 0 .11-.09.22-.09.26-.02.02-.26.7-.26.75-.04.04-.07.18-.09.24-.02.09-.09.13-.11.24 0 .07-.2.51-.2.51-.02.15-.09.24-.09.24-.02.15-.02.11-.09.24-.07.11-.11.37-.18.51l-.07.11c-.04.1501-.2.5701-.22.6401 0 .02-.09.15-.11.24-.04.2-.07.18-.09.24-.02.09-.09.18-.11.24-.04.15.04 0-.09.24-.02.04-.04.09-.04.13l-.07.11c-.04.13.04-.02-.09.26-.04.09-.04.15-.09.24-.07.18-.09.13-.15.37l-.07.11c-.04.18-.15.37-.15.37 0 .04-.02.09-.04.11 0 .09-.13.31-.15.37 0 .04-.04.07-.07.11-.04.2 0 .09-.11.24-.04.09-.04.15-.09.24l-.09.11c-.02.04-.02.09-.04.11-.09.11-.29.53-.4.68l-.09.09-.15.22-.44.48-.2.18c-.04.07-.24.15-.33.2-.15.11-.22.15-.26.18-.07.04-.11.04-.31.13-.07.02-.18.07-.24.09-.04.02-.09.02-.13.02-.11.02-.13.07-.26.07-.11 0-.88.24-.88-.13 0-.13.02-.26.02-.4 0-.46-.07-.35.22-.59l.11-.11c.04-.04.07-.09.13-.22.02-.04.04-.09.04-.13l.07-.11c.02-.04.09-.57.11-.66v-.13c0-.07.02-.2.04-.26.02-.04 0-.09 0-.13.04-.2.04 0 .04-.4l.02-.4c.04-.15 0-.13 0-.26 0-.04.02-.09.02-.13 0-.04-.02-.09-.02-.13 0-.04.02-.15.02-.26v-.53c0-.04-.02-.09-.02-.13 0-.07.02-.15.02-.24 0-.04-.02-.09-.02-.13 0-.04.02-.09 0-.13-.02-.09 0-.42 0-.53 0-.04-.02-.15-.02-.26 0-.18 0-.35-.04-.5301 0-.04.02-.09.02-.13 0-.07-.02-.2-.04-.26-.04-.15-.18-.13-.2-.02-.02.07-.11.31-.13.37 0 .04-.02.09-.04.11 0 .04 0 .0901-.02.1301-.04.09-.07.22-.13.37l-.07.26c-.02.07-.09.15-.11.24-.02.18-.15.4-.18.51 0 .02 0 .09-.02.11-.02.04-.04.09-.04.13-.02.07-.09.15-.11.24l-.22.62c-.07.13-.11.24-.15.37l-.07.11c-.04.2-.24.55-.26.62 0 .04-.04.07-.07.11-.02.13-.04.15-.04.18-.02.02-.04.04-.11.18l-.24.48-.09.11c-.02.02-.07.18-.11.22l-.22.33c-.13.22-.15.2-.24.31l-.07.13-.11.07c-.02.04-.04.09-.09.11-.13.11-.15.18-.4.33-.22.13-.07.07-.33.22-.11.07-.22.13-.35.15-.04.02-.07.07-.11.07-.11.02-.26.11-.37.13-.04 0-.09 0-.13.02-.13.02-.07.04-.24.04-.07 0-.18.02-.26.04-.09.02-.35 0-.42-.04-.09-.09-.07-.18-.07-.29 0-.04-.02-.15-.02-.26 0-.04.02-.15.02-.26 0-.29.2-.22.35-.4.09-.11.2-.35.22-.48 0-.04.02-.07.04-.11.04-.2.09-.46.09-.66 0-.04 0-.09.02-.13.02-.09 0-.18 0-.26 0-.04.02-.15.02-.26v-.13c.02-.09 0-.29 0-.4 0-.02.02-.07.02-.11 0-.04-.02-.15-.02-.26 0-.04.02-.15.02-.26 0-.04-.02-.15-.02-.26v-.4c0-.04-.02-.09-.02-.13 0-.04.02-.09.02-.13 0-.04-.02-.15-.02-.26 0-.11-.02-.22-.02-.26 0-.04.02-.09.02-.13 0-.04-.02-.15-.02-.26 0-.22-.02-.44-.02-.66v-.2601c0-.04-.02-.09-.02-.13 0-.13.04-.11 0-.26v-.13c0-.04-.02-.09-.02-.13 0-.04.02-.15.02-.26 0-.04-.02-.15-.02-.26 0-.04.02-.15.02-.26 0-.04-.02-.07-.02-.11 0-.04.02-.09.02-.13 0-.04-.02-.15-.02-.26v-.26c0-.04.02-.09.02-.13 0-.04-.02-.09 0-.13.02-.09 0-.42 0-.53 0-.04.02-.15.02-.26 0-.31.07-.62.07-.92 0-.09.04-.18.04-.26 0-.18.09-.73.13-.9.02-.09.07-.35.07-.4l.07-.11.04-.26c.02-.04.04-.09.04-.13.04-.04.18-.51.22-.62.02-.07.13-.15.07-.22-.11-.11-.24.02-.37.04h-.13c-.07.02-.22.09-.24.09-.04 0-.09 0-.13.02-.04 0-.09.04-.13.04-.04.02-.09.02-.13.02l-.11.07c-.04 0-.09 0-.13.02-.13.02-.42.15-.62.2-.09.02-.73.33-.84.4-.26.15-.51.33-.73.55l-.18.2c-.07.11-.13.22-.22.33-.04.07-.09.29-.11.37-.02.07-.02.02-.07.24-.02.13-.04.09-.04.26 0 .04-.02.15-.02.26 0 .15 0 .29.02.42.04.15-.04.13.13.51.04.09 0 .24-.11.29-.15.07-.26.15-.42.24l-.13.07c-.11.07-.22.15-.35.13-.15-.04-.11-.09-.22-.18-.07-.07-.31-.48-.33-.59-.02-.09-.07-.18-.09-.24-.02-.04-.02-.09-.02-.13-.02-.04-.04-.09-.04-.13-.04-.15-.07-.53-.07-.68 0-.09.13-.79.15-.9.02-.04.04-.07.04-.11.04-.15.02-.11.09-.24.11-.18.18-.44.31-.59.02-.02.07-.04.09-.09.11-.18.29-.35.42-.48.13-.11.48-.44.62-.51.07-.04.15-.07.22-.11.29-.18.66-.35.97-.42.04 0 .31-.13.37-.13.02-.02.46-.13.51-.13.09-.07.48-.13.62-.15.04-.02.09-.04.13-.04.09 0 .53-.09.64-.11.04-.02.09-.04.13-.04.09-.02.18-.02.26-.04.07 0 .18-.04.24-.07.04-.02.09 0 .13-.02.04 0 .09-.04.13-.04.13 0 .26-.07.4-.07.07-.07.18-.04.24-.07l.13-.07c.04 0 .09 0 .11-.02.11 0 .26-.11.37-.13.15-.02.24-.2.4-.15.13.02.22.2.29.31.04.07.22.29.22.35 0 .09-.15.29-.22.35l-.22.33c-.07.11-.35.62-.37.7 0 .04-.02.07-.04.11-.02.04-.02.09-.02.13 0 .04-.09.18-.11.24-.02.04-.02.18-.07.26-.09.2-.02.11-.07.24-.02.07-.11.29-.11.4 0 .11-.11.51-.11.64 0 .07-.02.2-.04.26v.13c-.04.18-.09.46-.09.64l-.02.53c-.04.15 0 .22-.04.4 0 .04.02.09.02.13-.04.22-.02 1.65-.02 1.98 0 .04 0 .09.02.13 0 .04-.02.09-.02.13 0 .13 0 .26.02.4 0 .04-.02.09-.02.13 0 .04.02.15.02.2601 0 .18.02.29.02.53v.64c0 .04.02.09.02.13 0 .04-.02.15-.02.26 0 .11.02.22.02.26 0 .04-.02.15-.02.26v.79c0 .04-.02.15-.02.26v.13c-.02.04 0 .09 0 .13-.07.24 0 .59.24.22.04-.07.07-.2.11-.24 0-.07.15-.29.18-.37.02-.07.11-.2.15-.35l.04-.13.07-.11c.04-.15 0-.09.09-.24.07-.11.22-.51.24-.62l.07-.13c0-.04 0-.09.02-.13.07-.13.07-.26.15-.37.02-.02.02-.09.02-.11.02-.09.09-.18.11-.26.04-.2.07-.18.09-.24.02-.09.07-.18.07-.26.04-.04.07-.1801.09-.2401l.07-.11c.02-.04-.02-.02.09-.26.02-.04.02-.09.02-.13l.07-.11c.02-.04 0-.07.07-.26.04-.11.18-.53.22-.62.02-.04.02-.18.07-.26.09-.22.22-.53.26-.75.02-.09.35-.97.35-1.01l.11-.24c.02-.07.02-.18.07-.24.04-.04.07-.2.09-.26l.07-.11c.09-.15.09-.35.2-.51.07-.09.09-.26.13-.37.04-.09.15-.26.18-.35.02-.09.07-.15.11-.24.04-.09.04-.15.09-.24.02-.04.07-.07.07-.11.02-.09.09-.15.13-.24.04-.07.07-.15.18-.35.09-.15.18-.33.26-.46.04-.07.11-.13.15-.22.09-.15.22-.26.33-.4.04-.04.04-.09.09-.11.02-.04.07-.04.09-.07.09 0 .11-.02.13-.02.04 0 .07.04.26.24.11.11.42.37.42.51 0 .04.02.09-.02.15-.07-.05-.11.04-.16.1zM65.4924 97.1099c-.02.07-.02.07-.04.11l-.04.13c-.02.07 0 .07-.02.13l-.04.13c-.02.04-.02.04-.04.11l-.04.13c-.02.07-.04.07-.04.11l-.04.13-.04.13-.04.13c-.02.04-.02.07-.02.11-.02.07-.04.07-.07.13-.02.07 0 .07-.02.13-.02.07-.04.04-.07.11 0 .07 0 .07-.02.13l-.04.13c-.02.07-.02.04-.04.11l-.04.13-.04.13c-.02.07-.02.07-.04.11l-.04.13-.04.13c-.02.04 0 .07-.02.13-.02.04-.02.04-.04.1101-.02.07-.04.07-.07.13-.02.04-.02.07-.04.11l-.04.13-.04.13c-.02.07 0 .07-.02.13-.02.04-.02.04-.04.11l-.04.13c-.02.07-.02.07-.04.11l-.04.13c-.02.07-.02.07-.02.13-.02.07-.04.07-.07.13-.02.04-.02.04-.04.11l-.04.13c-.02.07 0 .07-.02.13-.02.07-.02.04-.04.11s-.04.07-.07.13c-.02.07-.02.07-.04.11-.02.07 0 .09-.02.13-.02.07-.04.07-.04.13l-.04.13c-.02.07-.02.07-.04.11l-.04.13-.04.13c-.02.07-.02.07-.04.11 0 .07 0 .07-.02.13-.02.07-.04.07-.07.13-.02.07-.02.07-.04.11l-.04.13c-.02.07 0 .07-.02.13-.02.04-.04.09-.04.13-.02.04-.02.09-.04.13-.02.04-.04.07-.04.11-.02.04-.02.09-.04.13 0 .04-.02.09-.02.13-.02.04 0 .09-.02.13 0 .04-.02.09-.02.13v.13c0 .07-.02.11-.02.13 0 .07.02.11.02.13 0 .07.02.11.02.13.02.07.04.09.07.13.02.04.07.07.09.09.04.02.09.04.13.04.04.02.09.02.13.02.04 0 .09 0 .13-.02.04-.02.09-.02.13-.04.02-.02.07-.07.11-.09.02-.02.07-.04.11-.07.02-.04.07-.07.09-.11.02-.02.07-.04.09-.09.04-.02.07-.07.09-.11.04-.02.09-.04.11-.09.02-.02.04-.07.07-.11.04-.02.07-.07.09-.09.02-.04.07-.07.09-.11.02-.04.07-.07.09-.11.02-.02.04-.07.07-.11.02-.02.04-.07.09-.11.02-.02.04-.07.07-.11.02-.02.04-.07.07-.11.02-.04.04-.07.07-.11.04-.04.04-.07.07-.11.04-.04.07-.07.09-.11.02-.04.04-.09.07-.11.02-.04.04-.09.07-.11l.07-.13c.02-.04.04-.07.07-.11.02-.04.04-.09.07-.11.02-.04.04-.09.07-.11l.07-.13c.02-.04.04-.09.07-.11.02-.04.04-.09.04-.11.02-.04.07-.09.09-.11.02-.04.04-.09.07-.11.02-.04.02-.09.04-.13.02-.04.04-.07.07-.11.02-.04.04-.07.04-.11l.07-.13c.02-.02.02-.07.04-.11.02-.04.04-.09.07-.11.02-.04.04-.09.07-.11 0-.04.02-.09.04-.13.02-.04.04-.07.07-.11.02-.04.02-.09.04-.11.02-.07.07-.09.11-.11.04 0 .09 0 .13.02.07.02.07 0 .13.04l.13.04.13.04c.04.02.07.07.09.13.02.04.02.09 0 .13-.02.04-.02.09-.04.13-.02.04-.04.07-.07.11l-.07.13c-.02.04-.04.07-.07.11-.02.04-.02.09-.04.13-.02.04-.04.07-.07.11l-.07.13c-.02.04-.04.07-.07.11-.02.04-.02.09-.04.13-.02.04-.04.07-.07.11l-.07.13c-.02.04-.04.07-.07.11l-.07.13c-.02.04-.04.07-.07.11-.02.04-.02.09-.04.13-.02.02-.04.07-.07.11-.02.04-.04.09-.07.11l-.07.13c-.02.04-.04.07-.07.11-.04.04-.07.09-.09.11-.02.04-.04.07-.07.11-.02.04-.04.09-.07.11l-.07.13c-.02.02-.04.07-.07.11-.02.04-.04.07-.07.11-.02.04-.04.07-.07.11-.02.04-.04.07-.09.11-.02.04-.04.09-.07.11-.02.04-.04.07-.09.11-.02.04-.04.09-.07.11-.02.04-.04.09-.07.11-.02.04-.04.09-.07.11-.04.04-.07.07-.09.11-.02.02-.07.07-.09.11l-.09.09c-.02.04-.04.07-.09.11l-.09.09c-.02.04-.04.07-.09.11l-.09.09c-.04.02-.07.04-.11.09l-.09.09c-.04.02-.07.04-.11.09-.04.02-.07.04-.11.07-.04.02-.07.04-.11.07-.04.02-.09.04-.11.07l-.13.07c-.02.02-.07.04-.11.07-.04 0-.09.02-.13.02-.04.02-.09.02-.13.04-.04 0-.09.02-.13.04h-.26c-.04 0-.09.02-.13.02h-.11c-.07 0-.09-.02-.13-.02h-.13l-.13-.07c-.04 0-.09 0-.13-.02-.04-.02-.07-.04-.11-.07-.04-.02-.07-.04-.11-.07-.02-.02-.07-.04-.11-.07-.02-.04-.07-.07-.09-.09-.02-.04-.07-.09-.09-.11-.02-.04-.04-.09-.07-.11l-.07-.13c0-.02-.02-.07-.04-.11 0-.04-.02-.09-.02-.13-.02-.04-.04-.09-.04-.13v-.11c-.02-.04-.02-.09-.02-.13-.02-.04-.02-.09-.02-.13v-.13c0-.04.02-.09.02-.13v-.13c0-.04 0-.09.02-.13 0-.04 0-.09.02-.13 0-.04 0-.09.02-.13 0-.04.02-.07.02-.11 0-.04.02-.09.02-.13.02-.04.02-.09.02-.13 0-.04.02-.09.04-.13 0-.04.02-.07.04-.11 0-.04.02-.09.02-.13.02-.04.02-.09.04-.13 0-.04.02-.09.04-.13.02-.04.02-.04.04-.11s0-.07.02-.13c.02-.07.04-.07.07-.11 0-.07.02-.07.04-.13.02-.07 0-.07.02-.13.02-.04.04-.04.04-.11.02-.07.04-.07.07-.13.02-.07 0-.07.02-.13.02-.04.02-.04.04-.11l.04-.13c.02-.07.02-.04.04-.11l.04-.13c.02-.07 0-.07.02-.13.02-.07.04-.04.07-.11l.04-.13c.02-.07 0-.07.02-.13.02-.07.04-.04.07-.11.02-.07.02-.07.02-.13l-.04-.06c.02-.04.02-.04.04-.11l.04-.13c.02-.07.02-.07.04-.11l.04-.13c.02-.07 0-.07.02-.13.02-.07.04-.04.07-.11l.04-.13.04-.13c0-.04.02-.04.04-.1101l.04-.13c.02-.07.02-.07.04-.11.02-.07 0-.07.02-.13.02-.07.04-.07.07-.13.02-.04 0-.07.02-.13.02-.04.02-.04.04-.11l.04-.13c.02-.07 0-.07.02-.13.02-.04.02-.04.04-.11s.04-.07.07-.13c.02-.04 0-.04.02-.11s.04-.07.07-.13c.02-.07 0-.07.02-.13.02-.04.04-.04.07-.11 0-.07 0-.07.02-.13l.04-.13c.02-.04.02-.04.02-.11.02-.07.04-.07.07-.13.02-.04.02-.07.04-.11.02-.07 0-.07.02-.13.02-.07.04-.07.07-.13.02-.04 0-.07.02-.11l.04-.13c.02-.07.04-.07.07-.13.02-.04 0-.04.02-.11.02-.04.04-.09.09-.11.02-.04.07-.04.13-.04h.13c.07 0 .07-.02.13-.02.07 0 .07.02.13.02h.78c.04 0 .07 0 .11.02l.07.07c.02.02.02.07.02.11.02.02.02.07.02.09h-.02l.02.08zm.35-3.87c.04 0 .09.02.13.02.04.02.09.04.11.04.04.02.09.02.13.07.04.02.07.04.11.07.02.04.04.09.07.11.04.04.07.09.07.13.02.02.02.07.04.11 0 .04.02.09.04.13v.26c-.02.04-.02.09-.02.13-.02.04-.02.09-.04.13-.02.04-.02.09-.02.13-.02.04-.04.09-.07.11l-.07.13c-.02.04-.04.07-.07.11-.02.04-.07.07-.09.11-.02.02-.04.07-.09.09-.02.04-.04.07-.09.11-.02.02-.07.04-.11.07-.02.02-.07.04-.11.07-.04.02-.09.04-.11.07-.04 0-.09.04-.13.07-.04 0-.09.02-.13.02h-.13c-.04 0-.09.02-.13.02-.04 0-.09 0-.13-.02-.04 0-.09 0-.13-.02-.04 0-.09 0-.13-.02-.02-.02-.07-.04-.11-.07-.02-.04-.07-.07-.09-.09-.04-.02-.07-.07-.09-.11-.02-.02-.04-.07-.07-.11-.02-.04-.04-.09-.04-.13-.02-.04-.02-.09-.02-.13-.02-.04 0-.09 0-.13v-.26c.02-.04.02-.09.04-.13.02-.04.02-.07.04-.11l.07-.13c.02-.02.02-.09.04-.11.02-.04.04-.09.09-.11.02-.04.04-.09.07-.11.02-.04.04-.07.09-.11.02-.02.07-.04.09-.09.04-.02.07-.04.11-.09.04-.02.07-.04.11-.07.04-.02.09-.04.11-.07.04-.02.09-.02.13-.04.04 0 .09-.02.13-.02.04-.02.09-.02.13-.02h.27v-.01z"/>
  <path d="M70.8124 92.8799l-.04.13c-.02.07 0 .0699-.02.1299-.02.04-.04.04-.04.11-.02.07-.04.0701-.07.1301-.02.04 0 .07-.02.11l-.04.13-.04.1299c-.02.04-.02.07-.04.11l-.04.1301-.04.13c-.02.04-.02.0699-.04.1099l-.04.13c-.02.07 0 .0701-.02.1301-.02.07-.02.07-.04.11l-.04.1299c-.02.07-.04.07-.07.11-.02.07 0 .07-.02.13l-.04.1301-.04.1299c-.02.04-.02.04-.04.11l-.04.13c-.02.07 0 .0701-.02.1301-.02.07-.04.04-.07.11l-.04.1299c0 .02 0 .0701.02.0901.02.04.04.0699.09.0699.07 0 .07-.02.13-.02.07 0 .07.02.13.02h.24c.07 0 .07-.02.13-.02s.07.02.13.02h.13c.07 0 .07-.02.11-.02.07 0 .07.02.13.02.07 0 .07-.02.13-.02.04 0 .07.02.11.02.02.02.04.04.07.09.02.02.04.0701.04.0901 0 .04 0 .07-.02.11l-.04.1299c-.02.04-.02.04-.04.11l-.04.1301c-.02.07-.02.07-.04.11l-.07.13c-.04.02-.09.0199-.13.0199H69.5224c-.04 0-.09.0201-.11.0701-.02.07 0 .07-.02.13l-.04.1299c-.02.04-.02.04-.04.11l-.04.1301c-.02.07-.02.07-.04.11l-.04.1299-.04.13c-.02.07 0 .0701-.02.1301-.02.04-.04.04-.07.11l-.04.1299c-.02.07 0 .07-.02.11-.02.07-.04.07-.07.13-.02.07 0 .0701-.02.1301-.02.07-.02.04-.04.11l-.04.1299c-.02.07-.02.07-.04.11l-.04.13c-.02.07-.02.0701-.02.1301-.02.07-.04.07-.07.11l-.04.1299-.04.13c-.02.04-.02.04-.04.11-.02.0701 0 .0701-.02.1301l-.04.1299c-.02.04-.04.04-.07.1102-.02.07 0 .07-.02.13-.02.07-.02.07-.04.11l-.04.13c-.02.07 0 .07-.02.13-.02.07-.04.04-.07.11l-.04.13-.04.13c-.02.07 0 .07-.02.11-.02.07-.04.07-.07.13-.02.07 0 .07-.02.13-.02.07-.02.07-.04.11l-.04.13c-.02.07-.02.07-.04.11l-.04.13-.04.13c-.02.07-.02.07-.04.11l-.04.13c-.02.07 0 .07-.02.13-.02.07-.02.07-.04.11-.02.07-.04.07-.07.13l-.04.13c-.02.04 0 .04-.02.11l-.04.13-.04.13c-.02.04-.02.04-.04.11l-.04.13-.04.13c-.02.04-.02.04-.04.11l-.04.13c-.02.04-.02.09-.04.13 0 .04-.02.09-.02.13-.02.04-.02.09-.04.13 0 .04-.02.09-.04.11 0 .07-.02.11-.02.15-.02.04-.02.09-.02.13-.02.04-.02.09-.02.13v.26c0 .04.02.09.02.13.02.07.02.11.04.13l.07.13c.04.02.07.04.11.07.04.02.09.04.13.04.04.02.09 0 .13 0h.13c.04 0 .09 0 .13-.02.04-.02.09-.04.11-.07.04 0 .09-.02.13-.04.04-.02.07-.04.11-.07.04-.02.07-.04.11-.09.04-.02.07-.04.11-.07.02-.04.04-.07.09-.11.02-.02.07-.04.11-.07.02-.02.04-.07.09-.11.02-.02.07-.04.09-.09.02-.02.07-.04.09-.09.04-.02.07-.07.09-.11.02-.02.04-.07.09-.09.02-.04.04-.09.07-.11.02-.04.07-.07.09-.11l.09-.09c.02-.04.04-.09.07-.11.04-.04.07-.07.09-.11.02-.04.04-.09.07-.11.02-.04.07-.07.09-.11.02-.04.04-.07.07-.11.02-.04.04-.09.07-.11.02-.04.07-.07.09-.11.02-.04.02-.09.04-.11.02-.04.07-.07.09-.11l.07-.13c.02-.02.04-.07.07-.11.02-.02.04-.07.07-.11.02-.02.04-.09.07-.11.02-.04.04-.09.07-.11.02-.04.04-.09.07-.11.02-.04.04-.09.04-.13.02-.04.07-.07.09-.11.02-.04.04-.09.04-.11.02-.04.04-.09.04-.13.02-.04.04-.09.07-.11l.07-.13.07-.13c.02-.04.04-.07.07-.11.02-.04.02-.09.04-.13.02-.04.07-.07.07-.11.02-.04.07-.09.11-.11.04-.02.09-.02.13 0l.13.04c.07.04.07.04.13.07.07.04.07.02.13.07.04.02.09.04.11.09.02.07 0 .11-.02.15 0 .04-.02.09-.04.13-.02.04-.04.07-.07.11l-.07.13c-.02.04-.04.07-.07.11-.02.04-.02.09-.04.13-.02.02-.04.09-.07.11l-.07.13c-.02.02-.02.07-.04.11l-.07.13c-.02.04-.04.07-.07.11-.02.04-.04.09-.07.11-.02.04-.02.09-.04.13-.02.04-.07.07-.09.11 0 .04-.02.09-.04.11l-.07.13c-.02.04-.04.07-.07.11-.02.04-.04.09-.07.11-.02.04-.04.09-.07.11l-.07.13c-.02.04-.04.07-.07.11-.02.04-.04.09-.07.11l-.07.13-.09.09-.07.13c-.02.02-.04.07-.07.11-.02.04-.07.07-.09.11-.02.02-.04.07-.09.11-.02.02-.04.07-.07.11-.02.02-.04.07-.09.09l-.07.13c-.02.02-.04.07-.09.09-.02.04-.07.07-.09.11-.02.02-.04.07-.07.11-.04.02-.07.07-.09.09l-.11.11c-.02.02-.07.04-.09.09l-.09.09c-.04.02-.07.07-.11.09l-.09.09c-.04.04-.07.07-.11.09l-.09.09c-.04.04-.09.04-.11.09-.04.02-.09.04-.11.07l-.13.07c-.02.02-.07.04-.11.07-.04.02-.07.04-.11.07-.04.02-.09.04-.11.07-.04.02-.09.02-.13.04-.04 0-.09.02-.13.04-.04 0-.09.02-.13.04-.04 0-.09.02-.13.02-.04.02-.07.02-.11.04h-.15c-.02.02-.07.02-.13.02h-.26c-.04-.02-.09 0-.13-.02-.04 0-.09 0-.11-.02-.04 0-.09-.02-.13-.02-.04-.02-.09-.02-.13-.04-.04-.02-.09-.04-.11-.07-.04 0-.09-.04-.11-.07-.04-.02-.09-.04-.11-.07-.04-.04-.07-.07-.11-.09-.02-.04-.04-.09-.07-.11-.02-.04-.07-.07-.09-.11-.02-.04-.04-.07-.07-.11-.02-.04-.02-.09-.04-.13-.02-.02-.04-.07-.07-.11 0-.04-.02-.09-.02-.13 0-.04-.04-.07-.04-.11v-.13c-.02-.04-.02-.09-.02-.13v-.13c-.02-.04-.02-.09-.02-.13 0-.04.02-.09.02-.13v-.13c0-.04.02-.09.02-.13.02-.04.02-.09.02-.13v-.13c.02-.04.04-.09.04-.13.02-.04.02-.09.04-.13 0-.04 0-.09.02-.13 0-.02.02-.07.02-.11.02-.04.02-.09.04-.13 0-.04.04-.09.07-.13 0-.02 0-.09.02-.13.02-.04.02-.04.04-.11 0-.07.02-.07.04-.13.02-.04.02-.04.04-.11s0-.07.02-.13c.02-.07.04-.07.07-.11l.04-.13.04-.13c0-.04 0-.07.02-.11.02-.07.04-.07.07-.13 0-.07 0-.07.02-.13.02-.04.02-.04.04-.11s0-.07.02-.13c.02-.07.04-.07.07-.11l.04-.13c.02-.07 0-.07.02-.13.02-.07.04-.04.07-.11.02-.07.02-.07.02-.13l.04-.13c.02-.04.02-.07.04-.11l.04-.13.04-.13c.02-.04.02-.04.04-.11l.04-.13c.02-.07 0-.07.02-.13.02-.04.04-.04.07-.11.02-.07 0-.07.02-.13.02-.07.04-.04.07-.11 0-.0701.02-.0701.04-.1301.02-.07.02-.07.04-.11.02-.07 0-.0701.02-.1301l.04-.1299c.02-.07.02-.07.04-.11l.04-.13c.02-.07 0-.0701.02-.1301.02-.07.04-.04.07-.11.02-.07 0-.0699.02-.1299.02-.07.04-.07.07-.11l.04-.13.04-.1301c.02-.04 0-.0699.02-.1299.02-.04.02-.04.04-.11l.04-.13c.02-.07.02-.04.04-.11l.04-.1301.04-.1299c.02-.04.02-.04.04-.11l.04-.13c.02-.07.02-.0701.04-.1101.02-.07 0-.07.02-.13l.04-.1299c.02-.07.04-.04.07-.11 0-.04-.02-.09-.04-.11-.02-.02-.04-.0401-.09-.0401h-.78c-.02 0-.07.0001-.09-.0199-.04-.02-.07-.0401-.09-.0701-.02-.04-.04-.07-.04-.11 0-.02.02-.0699.02-.0899l.04-.1301c.02-.07.04-.0699.07-.1299.02-.04 0-.04.04-.11.02-.07 0-.07.02-.13.02-.04.04-.09.09-.11.04-.02.09-.0201.13-.0201h.24c.07 0 .07-.02.13-.02.07 0 .07.02.11.02.07 0 .07-.02.13-.02h.13c.07 0 .07.02.11.02h.13c.04 0 .09-.0399.11-.0899.02-.07.02-.07.04-.11l.04-.1301.04-.1299c0-.04 0-.07.02-.11.02-.07.04-.07.07-.13 0-.07 0-.0701.02-.1301.02-.04.02-.04.04-.11l.04-.1299c.02-.04.02-.04.04-.11s.02-.0701.02-.1301c.02-.07.04-.07.07-.11.02-.07 0-.07.02-.13l.04-.1299c.02-.04.04-.04.07-.11 0-.07 0-.0701.02-.1301.02-.07.04-.04.04-.11l.04-.13.04-.1299c0-.04.02-.04.04-.11l.04-.1301c.02-.07 0-.07.02-.11.02-.07.04-.07.04-.13l.04-.1299c.02-.04.02-.04.04-.11l.04-.1301c.02-.04.02-.04.04-.11l.04-.1299c.02-.04.04-.09.07-.11.04-.02.09-.0401.13-.0401h.13c.07 0 .07.0201.13.0201.07 0 .07-.0201.15-.0201h.13c.07 0 .07.0201.13.0201s.07-.0201.13-.0201h.26c.07 0 .07.0201.13.0201h.09c.04.02.07.0399.09.0699.02.04.02.07.02.11 0 .02.02.07 0 .11.04.04.04.0401.02.1001z"/>
  <path d="M69.0124 106.17c.02-.07.04-.07.07-.13.02-.04 0-.07.02-.11l.04-.13.04-.13c.02-.07.02-.04.04-.11l.04-.13.04-.13c.02-.04.02-.07.04-.13.02-.04 0-.04.02-.11s.04-.07.07-.13c.02-.07 0-.07.02-.13.02-.04.04-.04.07-.11.02-.07 0-.07.02-.13.02-.07.04-.07.04-.13.02-.04.02-.07.04-.11l.04-.13.04-.13c.02-.07.02-.04.04-.11l.04-.13c.02-.07 0-.07.02-.13.02-.07.04-.07.07-.11.02-.07 0-.07.02-.13l.04-.13c.02-.07.04-.07.07-.11.02-.07 0-.07.02-.13l.04-.13c.02-.07.04-.07.07-.11l.04-.13.04-.13c0-.07 0-.07.02-.13.02-.04.02-.04.04-.11l.04-.13c0-.07.02-.07.04-.13.02-.04.02-.04.04-.11l.04-.13c0-.07.02-.07.04-.13 0-.07.02-.04.04-.11s0-.07.02-.13c.02-.07.04-.07.07-.13.02-.04.02-.07.02-.11l.04-.13.04-.13.04-.13c.02-.04.02-.04.04-.11l.04-.13.04-.13c.02-.04.02-.04.04-.11l.04-.13c.02-.07.02-.07.04-.11l.04-.1301c.02-.07 0-.07.02-.13.02-.07.04-.07.07-.13.02-.04 0-.07.02-.11l.04-.13.04-.13c.02-.07.02-.07.04-.11l.04-.13.04-.13c.02-.07.02-.04.04-.11l.04-.13.04-.13c.02-.07 0-.07.02-.13.02-.07.04-.04.07-.11.02-.07 0-.07.02-.13l.04-.13c.02-.07.02-.07.04-.11l.04-.13.04-.13c.02-.04.04-.04.07-.11.02-.07 0-.07.02-.13.02-.07.04-.07.04-.13.02-.04.02-.07.04-.11l.04-.13.04-.13c.02-.07 0-.07.02-.13.02-.04.04-.04.07-.11l.04-.13c.02-.07 0-.07.02-.13.02-.04.04-.04.07-.11 0-.07 0-.07.02-.13l.04-.13c.02-.07.02-.07.04-.11.02-.07.04-.07.04-.13l.04-.13c.02-.04.04-.04.04-.11l.04-.13.04-.13c.02-.07.02-.07.02-.13.02-.04.04-.04.07-.11l.04-.13c.02-.07 0-.07.02-.13.02-.04.02-.04.04-.11l.04-.13c.02-.07.04-.07.07-.11.02-.07 0-.09.02-.13.02-.07.04-.07.07-.13.02-.07 0-.07.02-.13.02-.07.02-.04.04-.11l.04-.13c0-.07.02-.07.04-.13.02-.07.02-.04.04-.11l.04-.13.04-.13c.02-.04.02-.07.04-.11.02-.07 0-.07.02-.13.02-.07.04-.07.07-.13.02-.07 0-.07.02-.13.02-.07.04-.04.07-.11l.04-.13c.02-.07.02-.07.04-.11.02-.07 0-.09.02-.13l.04-.13.04-.13c.02-.04.02-.07.04-.13 0-.04 0-.04.02-.11s.04-.07.07-.13c.02-.07.02-.07.04-.11l.04-.13c.02-.07 0-.07.02-.13l.04-.13c.02-.07.04-.04.07-.11l.04-.13.04-.13c0-.04.02-.09.07-.11.02-.02.09-.02.13-.02h.13c.07 0 .07-.02.13-.02.07 0 .07.02.13.02.07 0 .07-.02.13-.02h.13c.07 0 .07.02.13.02s.07-.02.13-.02c.07 0 .07.02.13.02h.13c.04 0 .07 0 .09.02.04.02.07.02.09.07.02.02.04.07.04.09v.11c-.02.07-.02.07-.04.11l-.04.13c-.02.07-.04.07-.07.13-.02.04 0 .07-.02.11-.02.07-.04.07-.07.13 0 .07 0 .07-.02.13 0 .07-.02.07-.04.11-.02.07 0 .07-.02.13-.02.07-.04.07-.07.13-.02.04-.02.04-.04.11l-.04.13c-.02.07-.02.07-.04.11-.02.07 0 .07-.02.13l-.04.13c-.02.07-.02.07-.04.11l-.04.13-.04.13c-.02.07-.02.07-.04.11l-.04.13-.04.13c-.02.04-.02.04-.04.11s-.02.07-.02.13l-.04.13c-.02.04-.02.04-.04.11s-.04.07-.07.13c0 .07 0 .07-.02.11l-.04.13-.04.13c-.02.07-.02.04-.04.11l-.04.13-.04.13c-.02.07-.02.07-.04.11 0 .07-.02.07-.04.13-.02.07 0 .07-.02.13-.02.04-.02.04-.04.11s-.04.07-.07.13c-.02.07 0 .07-.02.11l-.04.13-.04.13c-.02.07-.02.07-.04.11l-.04.13c0 .07-.02.07-.04.13-.02.04 0 .07-.02.11l-.04.13-.04.13c-.02.07-.02.07-.04.11-.02.07-.04.07-.04.13-.02.04 0 .09.02.11.04.04.09.04.13.02.04-.02.07-.04.11-.07.04-.02.07-.04.11-.07.04-.02.09-.04.11-.07.04 0 .09-.04.13-.04.04-.02.09-.02.11-.02l.13-.07h.13c.04-.02.07-.02.11-.04h.39c.04 0 .09.02.13.02.04 0 .09 0 .13.02.04 0 .09.02.13.04.04 0 .09.02.13.04.04.02.09.02.13.04.02.02.07.04.11.07.02.04.07.07.11.09.02.02.07.04.09.09.04.02.07.04.11.09.02.04.04.07.09.11.02.02.04.07.07.11.03.04.04.09.04.13.02.02.04.07.04.11l.07.13c0 .04 0 .09.02.13 0 .04 0 .09.02.13v.13c0 .04.02.09.02.13 0 .04-.02.09-.02.15v.13c0 .04-.02.09-.02.13 0 .04-.02.09-.02.13-.02.04 0 .09-.02.13 0 .04-.02.09-.02.13-.02.04-.02.09-.02.13-.02.04-.02.09-.04.13-.02.04-.02.09-.04.13 0 .04-.04.09-.04.13l-.04.13-.04.13c-.02.04-.02.04-.04.11l-.04.1301-.04.13c0 .04-.02.04-.04.11l-.04.13c-.02.07-.02.07-.04.11l-.04.13-.04.13c-.02.07 0 .07-.02.11l-.04.13-.04.13c-.02.07-.02.07-.02.13-.02.04-.04.04-.07.11l-.04.13c-.02.07-.02.07-.04.11l-.04.13-.04.13c-.02.07-.02.04-.04.11s0 .07-.02.13l-.04.13-.04.13c-.02.04-.04.04-.07.11 0 .07 0 .07-.02.13-.02.07-.02.07-.04.11l-.04.13-.04.13c-.02.07 0 .07-.02.13-.02.04-.04.04-.07.11l-.04.13c-.02.07-.02.04-.04.11s0 .07-.02.13l-.04.13c-.02.04-.04.09-.07.11 0 .04-.02.09-.04.13 0 .04 0 .09-.02.13 0 .04-.02.09-.04.13 0 .04 0 .09-.02.13 0 .04 0 .09-.02.13 0 .04-.02.09-.02.13v.13c-.02.07-.02.11-.02.13v.15c.02.04.02.09.04.13.02.04.04.07.07.11.02.04.07.07.11.09.02.02.07.04.11.04.04.02.09 0 .13 0h.13l.13-.07c.04-.02.07-.04.11-.07.02-.02.07-.04.11-.09.02-.02.07-.04.11-.07.02-.04.04-.07.09-.11.02-.02.07-.04.09-.09.02-.02.04-.07.09-.11.02-.02.04-.07.09-.09.02-.04.04-.09.07-.11.04-.04.07-.07.09-.11.04-.02.04-.07.07-.11.04-.04.07-.07.09-.11.02-.02.04-.07.07-.11.04-.04.07-.07.09-.11.02-.02.04-.07.07-.11.02-.04.04-.07.07-.11.04-.04.07-.07.09-.11.02-.04.04-.07.07-.11.02-.04.04-.09.07-.11.02-.04.04-.09.07-.11l.07-.13c.02-.04.04-.07.07-.11.02-.04.04-.09.07-.11l.07-.13c.02-.02.07-.07.09-.11.02-.02.02-.09.04-.11.02-.04.04-.07.07-.11.02-.04.04-.09.07-.11l.07-.13c0-.02.02-.07.04-.11.02-.04.04-.07.07-.11.02-.04.02-.09.04-.11l.07-.13c.02-.02.04-.07.07-.11.02-.04.04-.07.07-.11 0-.04 0-.09.02-.13.02-.02.04-.07.07-.11.02-.04.04-.07.07-.11 0-.04.04-.09.04-.11.02-.04.07-.09.11-.11.04 0 .11-.02.15 0 .07.02.04.04.11.07l.13.04c.07.02.07.04.13.07.04.02.09.04.11.09.02.07 0 .11-.02.15-.02.04-.04.09-.04.13-.02.02-.04.07-.07.11l-.07.13c-.02.04-.02.09-.04.13-.02.02-.04.07-.07.11-.02.04-.04.09-.07.11l-.07.13c0 .04-.02.09-.04.13-.02.02-.04.07-.07.11-.02.04-.04.07-.07.11l-.07.13c-.02.02-.04.07-.07.11-.02.04-.04.09-.07.11l-.07.13c0 .04-.02.09-.04.13-.02.02-.04.07-.07.11-.02.04-.04.07-.07.11l-.07.13c-.02.04-.04.07-.07.11-.04.04-.07.07-.09.11-.02.04-.04.09-.07.11l-.07.13c-.02.02-.04.07-.07.09l-.07.13c-.02.04-.04.07-.07.11-.02.02-.04.07-.07.11-.02.04-.04.09-.07.11-.02.04-.07.09-.09.11-.02.04-.04.07-.07.11-.02.04-.07.07-.09.11-.02.04-.04.09-.07.11-.02.04-.04.07-.07.11-.04.04-.07.07-.09.11-.02.02-.04.07-.09.11-.02.02-.04.07-.09.09-.02.04-.04.09-.07.11l-.09.09-.11.11c-.02.02-.07.04-.09.09-.04.02-.07.07-.11.09l-.09.09c-.04.02-.07.07-.11.09-.02.02-.07.04-.11.07-.02.02-.07.04-.11.07-.02.04-.07.07-.11.07l-.13.07c-.02.02-.07.04-.11.07-.04 0-.09.02-.13.02-.04.02-.09.02-.13.04-.04 0-.07.02-.11.02-.04 0-.09.02-.13.02-.04 0-.09.02-.13.02h-.13c-.04 0-.09 0-.13-.02h-.05c-.04 0-.09 0-.13-.02-.04 0-.09-.02-.13-.02-.04-.02-.07-.04-.11-.07-.04 0-.09-.02-.13-.02-.04-.02-.07-.07-.11-.09l-.09-.09c-.04-.02-.07-.04-.09-.09-.04-.02-.09-.07-.11-.09-.02-.04-.02-.09-.04-.13-.02-.02-.04-.07-.07-.11-.02-.02-.04-.07-.07-.11 0-.04 0-.09-.02-.13-.02-.04-.02-.09-.02-.13 0-.04-.02-.07-.02-.11 0-.04-.02-.09-.02-.13 0-.04-.02-.09-.02-.13v-.26c.02-.04.02-.09.04-.13 0-.04-.02-.09 0-.13 0-.04.02-.09.02-.13 0-.04.02-.09.02-.13 0-.04.02-.07.02-.11.02-.04.02-.09.04-.13v-.13c.02-.04.02-.09.04-.13 0-.04.02-.09.02-.13.02-.02.04-.07.07-.11 0-.04.02-.09.02-.13.02-.04.04-.07.04-.11l.04-.13.04-.13c.02-.04.02-.07.02-.11.02-.07.04-.07.07-.13.02-.07.02-.07.04-.11l.04-.13c.02-.07 0-.07.02-.13l.04-.13c.02-.04.02-.04.04-.11l.04-.13c.02-.07.02-.07.04-.11l.04-.13.04-.13c.02-.04.02-.04.04-.11l.04-.13c.02-.07 0-.07.02-.13.02-.07.04-.04.07-.11l.04-.13c.02-.07 0-.07.02-.13.02-.07.02-.07.04-.11l.04-.13c.02-.07.02-.07.04-.11l.04-.13.04-.13c.02-.07 0-.07.02-.13.02-.04.04-.04.07-.11.02-.07 0-.07.02-.13.02-.07.04-.04.07-.1101l.04-.13c0-.04 0-.09.02-.13.02-.02.02-.07.04-.11 0-.04.02-.09.04-.13 0-.04.02-.09.02-.11.02-.04.02-.09.04-.13 0-.04 0-.09.02-.13 0-.04.02-.09.04-.11v-.13c0-.04.02-.09.02-.13v-.13c0-.04.02-.09.02-.13-.02-.04 0-.09-.02-.13 0-.04 0-.09-.02-.11 0-.04-.02-.09-.02-.13-.02-.04-.04-.09-.07-.11-.04-.04-.07-.07-.11-.09-.02-.02-.07-.04-.11-.04-.04-.02-.09-.04-.13-.04h-.13c-.04 0-.09-.02-.13 0-.04 0-.09.02-.11.02l-.13.07c-.04.02-.09.04-.11.07-.04.02-.07.04-.11.09-.02.02-.07.04-.11.09l-.09.09c-.02.04-.04.09-.07.11-.02.04-.07.07-.09.11-.02.02-.04.07-.07.11-.03.04-.04.07-.07.11-.02.04-.04.09-.07.11-.02.04-.02.09-.04.13-.02.04-.04.07-.07.11-.02.04-.04.09-.04.13-.02.04-.04.07-.07.11-.02.04-.04.09-.04.13-.02.04-.07.07-.07.11-.02.04-.02.09-.04.13-.02.04-.04.09-.07.11 0 .04 0 .09-.02.13-.02.04-.04.0901-.04.1301-.02.04-.04.07-.07.11-.03.04-.02.09-.04.13-.02.04-.02.09-.04.13 0 .04-.02.09-.04.11-.02.04-.02.09-.04.13-.02.04-.02.09-.02.13l-.07.13c-.02.02-.02.09-.02.11l-.07.13c0 .04-.02.09-.04.13-.02.04 0 .09-.02.13-.02.04-.04.07-.07.11 0 .04-.02.09-.04.13-.02.04-.02.09-.02.13-.02.04-.04.07-.07.11 0 .04-.02.09-.04.13-.02.04-.02.09-.04.13-.02.04-.02.04-.04.11l-.04.13c-.02.07-.02.07-.04.11l-.04.13c0 .07 0 .07-.02.13-.02.07-.02.07-.04.11 0 .07-.02.07-.04.13l-.04.13c0 .04-.02.04-.02.11-.02.07-.04.07-.04.13-.02.07-.04.04-.07.11-.02.07 0 .07-.02.13l-.04.13c-.02.07-.02.07-.04.11l-.04.13-.04.13c-.02.04-.02.04-.04.11l-.04.13c-.02.04-.02.04-.04.11s0 .07-.02.13l-.04.13c-.02.04-.02.07-.04.11l-.04.13-.04.13c-.02.04-.04.04-.07.11 0 .07 0 .07-.02.11l-.04.13c-.01.04-.01.04-.01.11l-.04.13c-.02.04-.04.04-.07.11 0 .07-.02.07-.02.13-.02.07-.04.04-.07.11l-.04.13c0 .07 0 .07-.02.13-.02.04-.02.04-.04.11-.02.04-.04.09-.07.11-.04.02-.07.02-.11.02h-1.02c-.07 0-.07.02-.13.02s-.07-.02-.11-.02c-.07 0-.13-.02-.18-.07-.02-.07-.04-.13-.02-.18l.05-.12z"/>
</svg>