<svg fill="currentColor" viewBox="0 0 119 31">
  <path d="M47.2125 23.9699l-.99-3.04-.99 3.04h-3.19l2.58 1.88-.99 3.04 2.59-1.88 2.58 1.88-.98-3.04 2.58-1.88h-3.19zM61.1127 23.6599l-1.31-4.05-1.32 4.05h-4.26l3.45 2.5-1.32 4.06 3.45-2.51 3.45 2.51-1.32-4.06 3.44-2.5h-4.26zM74.3726 23.9699l-.99-3.04-.99 3.04h-3.19l2.58 1.88-.99 3.04 2.59-1.88 2.58 1.88-.98-3.04 2.58-1.88h-3.19zM113.433 9.07988c-.247-.02-.494-.02-.74 0 .21-.25.41-.49.58-.73.267.08026.542.13386.82.16.455.0448.914.0448 1.37 0 .919-.09279 1.804-.39374 2.59-.88-.883-.21725-1.799-.26811-2.7-.15-.441.05151-.878.1283-1.31.23l-.41.11c.18-.26.33-.51.46-.74.395-.07287.776-.20787 1.13-.4.416-.22077.789-.51559 1.1-.87.6-.66981.98-1.50741 1.09-2.4-.412.71807-.951 1.35515-1.59 1.88-.304.24074-.641.43611-1 .58h-.09c.329-.6476.616-1.31564.86-2 .381-1.03651.56-2.13613.53-3.239997-.376 1.022537-.807 2.023997-1.29 2.999997-.21.44-.43.88-.65 1.31v-.65c-.031-.37895-.112-.75217-.24-1.11-.132-.38142-.355-.72476-.65-1-.131.72563-.165 1.46549-.1 2.2.041.57308.159 1.13806.35 1.68-.203.4102-.43.80762-.68 1.19.028-.33271.028-.66729 0-1 .001-.40211-.053-.80251-.16-1.19-.129-.3831-.352-.72724-.65-1-.127.72278-.16 1.45872-.1 2.19.047.59784.174 1.18654.38 1.75-.311.39954-.645.78021-1 1.14.05-.12.11-.24.15-.37.153-.52216.217-1.06647.19-1.61-.055-.53328-.208-1.05192-.45-1.53-.225-.50161-.568-.94096-1-1.28.06.55.17 1 .22 1.51.071.46722.118.93787.14 1.41.06.8 0 1.62 0 2.5-.478.41452-.986.79232-1.52 1.13002.156-.3484.271-.7143.34-1.09002.09-.5698.09-1.1502 0-1.72-.096-.58244-.3-1.14196-.6-1.65-.314-.50315-.775-.89766-1.32-1.13.239.47085.443.95887.61 1.46.136.48309.243.97399.32 1.47.15.9.21 1.83002.35 2.83002-.862.5263-1.777.9587-2.73 1.29.252-.1923.477-.4177.67-.67.333-.4668.543-1.0103.61-1.58.065-.57841-.032-1.16352-.28-1.69002-.232-.50331-.599-.93251-1.06-1.24.11.55.26 1 .32 1.48.06.44465.06.89536 0 1.34-.131.88322-.408 1.73832-.82 2.53002-.54.17-1.12.33-1.74.46.251-.2721.482-.563.69-.87.405-.5995.668-1.2835.77-2 .126-.78178-.05-1.58221-.49-2.24002-.409-.59854-.992-1.05614-1.67-1.31.385.53442.72 1.10354 1 1.7.24.52562.339 1.10436.29 1.68-.076.61402-.23 1.21572-.46 1.79002-.16.43-.34.87-.53 1.31-.39.07-.79.14-1.21.19h-.24l.26-.23c.432-.4287.757-.9527.95-1.53.205-.5997.205-1.2504 0-1.85002-.195-.57396-.579-1.06435-1.09-1.39.169.50574.279 1.02913.33 1.56.042.46942-.012.94262-.16 1.39002-.27.7441-.629 1.4526-1.07 2.11-.26 0-.52.05-.78.05.1-.0857.194-.1793.28-.28.326-.3958.55-.8666.65-1.37.099-.481.078-.9789-.06-1.45-.27.42-.46.82-.67 1.19-.199.3514-.427.6859-.6804 1-.2876.3415-.6247.6381-1 .88-3.68-.21-7.35-1.4-11.16-2.68l-.77-4.47002c3.0769 1.5196 6.3045 2.71278 9.63 3.56.2227.11075.4734.15253.72.12.1596-.02692.3123-.085.4494-.17093.1371-.08593.2559-.19803.3497-.32989s.1607-.2809.1969-.43861c.0362-.15771.0409-.32101.014-.48057-.0269-.15955-.085-.31224-.1709-.44935-.086-.13711-.1981-.25595-.3299-.34974-.1319-.09379-.2809-.16068-.4386-.19687s-.321-.04096-.4806-.01404c-.2661.04802-.5088.18311-.6898.38403-.181.20092-.2901.45629-.3102.72597-3.2512-.91493-6.4034-2.15102-9.41-3.69-.079-.05082-.171-.07784-.265-.07784s-.1859.02702-.265.07784c-.075.05556-.1333.13063-.1685.21703-.0353.0864-.0462.18082-.0315.27297l.84 4.92002c-4.39-1.45002-8.92-2.89002-13.65-2.78002-.1326.00767-.2573.06582-.3484.16252-.0912.0967-.1418.22461-.1416.35748-.0016.06607.0107.13175.0361.19274.0255.061.0635.11594.1116.16123.0482.0453.1053.07994.1677.10166.0625.02171.1288.03002.1946.02437 4.78-.09 9.36 1.42 13.78 2.92002l.47 2.75c-4.34-2.82-10.61-3.83-15-3.53-.0657.0038-.13.0206-.1892.0493-.0592.0287-.1122.0689-.1558.1181-.0437.0492-.0772.1066-.0987.1688-.0214.0623-.0303.1281-.0263.1938.0025.0661.0183.1311.0466.191.0283.0598.0684.1133.118.1573.0495.0439.1074.0773.1702.0982.0628.021.1292.0289.1952.0235 4.56-.31 11.1.8 15.22 3.91l.16.95c.0282.1589.1083.3039.2277.4125.1194.1086.2715.1745.4323.1875h.11c.1752.0034.3477-.0439.4967-.1361.149-.0922.2682-.2256.3433-.3839.08-.18.21-.68-.44-1.25l-.41-.34-.55-3.22c2.8151 1.0218 5.7123 1.8013 8.66 2.33.39.22.77.4 1.13.59.36.19.91.46 1.32.71.8785.5095 1.6684 1.1579 2.3404 1.92-.018-.5797-.21-1.1407-.55-1.61-.341-.4746-.7772-.8731-1.2804-1.17l-.41-.19h.6c.29.15.5704.3.8504.43.543.2906 1.061.625 1.55 1 .977.7537 1.68 1.8078 2 3 .207-.6823.164-1.4162-.12-2.07-.276-.6686-.725-1.2519-1.3-1.69-.366-.2906-.774-.5233-1.21-.69l.76-.06.55-.09c.35.2.68.39 1 .61.32.22.91.59 1.33.93.88.65 1.71 1.37 2.68 2.08-.162-.5816-.437-1.1254-.81-1.6-.343-.4802-.75-.911-1.21-1.28-.564-.4223-1.201-.7345-1.88-.92.47-.09.93-.2 1.36-.31l.69.31 1.26.58c.86.37 1.67.76 2.66 1.1-.246-.4654-.587-.8742-1-1.2-.391-.3284-.825-.601-1.29-.81-.371-.1667-.761-.2876-1.16-.36.46-.16.88-.33 1.29-.51l.48.1c.47.11.93.18 1.37.32.926.2189 1.813.5798 2.63 1.07-.155-.5287-.478-.9924-.92-1.32-.43-.3363-.923-.5814-1.45-.72-.256-.0676-.517-.1111-.78-.13.441-.2489.869-.5226 1.28-.82l.32.06c.45.08.88.12 1.3.21.872.141 1.72.4036 2.52.78-.159-.4944-.489-.9162-.93-1.19-.425-.2877-.905-.482-1.41-.57-.268-.0481-.539-.0716-.81-.07l.61-.55002h.17l1.29.11002c.892.0658 1.787.0658 2.68 0-.354-.32996-.773-.58205-1.23-.74002-.428-.13554-.872-.2129-1.32-.23zM46.5226 11.6299c.066.0054.1324-.0025.1952-.0235.0628-.0209.1208-.0543.1703-.0982.0495-.044.0896-.0975.1179-.1573.0283-.0599.0442-.1249.0466-.191.0041-.0657-.0049-.1315-.0263-.1938-.0214-.0622-.055-.1196-.0986-.1688-.0437-.0492-.0966-.0894-.1558-.1181-.0593-.0287-.1236-.0455-.1893-.0493-4.44-.3-10.7.71-15 3.53l.47-2.75c4.46-1.50002 9.08-3.00002 13.82-2.92002.1326 0 .2598-.05268.3536-.14644.0938-.09377.1464-.22095.1464-.35356 0-.13261-.0526-.25978-.1464-.35355-.0938-.09377-.221-.14645-.3536-.14645-4.71-.09-9.26 1.34-13.65 2.81002l.84-4.92002c.0148-.09202.0036-.18635-.0324-.27234-.0359-.08599-.0952-.16021-.1711-.21428-.0759-.05408-.1655-.08586-.2585-.09176-.093-.0059-.1858.01432-.268.05838-3.0127 1.53548-6.1719 2.76496-9.43 3.67-.02-.26968-.1292-.52505-.3102-.72597-.181-.20092-.4236-.33601-.6898-.38403-.1916-.03848-.3897-.03073-.5777.0226-.1881.05334-.3607.15073-.5036.2841-.1429.13337-.252.29888-.3182.48281-.0662.18393-.0875.38099-.0624.57483.0252.19385.0962.3789.2072.53983.1109.16092.2587.29308.4309.38552.1722.09245.364.14251.5595.14604.1954.00353.3889-.03957.5643-.12573 3.344-.8393 6.589-2.03271 9.68-3.56l-.76 4.46002c-3.81 1.28-7.48 2.47-11.16 2.68-.3753-.2419-.7123-.5385-1-.88-.2537-.3141-.4811-.6486-.68-1-.21-.37-.4-.77-.67-1.19-.1383.4711-.1589.969-.06 1.45.0999.5034.3233.9742.65 1.37.0857.1007.1794.1943.28.28l-.78-.02c-.4409-.6574-.8002-1.3659-1.07-2.11-.1482-.4474-.2027-.9206-.16-1.39002.0503-.53087.161-1.05426.33-1.56-.5112.3189-.899.80193-1.1 1.37-.2049.59962-.2049 1.25032 0 1.85002.1852.5784.5077 1.1034.94 1.53l.26.23h-.23c-.43 0-.83-.12-1.22-.19-.19-.44-.37-.88-.53-1.31-.2254-.5758-.3799-1.1769-.46-1.79002-.0655-.57131.0172-1.14988.24-1.68.2799-.59646.6147-1.16558 1-1.7-.6769.25671-1.2594.71369-1.67 1.31-.4575.62932-.6643 1.4065-.58 2.18002.1013.7165.3647 1.4005.77 2 .2077.307.4383.5979.69.87-.62-.13-1.2-.29-1.74-.46-.4125-.7917-.6897-1.6468-.82-2.53002-.0601-.44464-.0601-.89535 0-1.34.06-.47.21-.93.32-1.48-.4611.30749-.8279.73669-1.06 1.24-.2481.5265-.3451 1.11161-.28 1.69002.0747.5745.2988 1.1193.65 1.58.1861.2544.4084.4802.66.67-.9526-.3249-1.8678-.7507-2.72996-1.27.13996-1 .19996-1.93002.34996-2.83002.0769-.49601.1838-.98691.32-1.47.1669-.50113.3707-.98915.61-1.46-.5455.23234-1.0063.62685-1.31996 1.13-.30058.50804-.50404 1.06756-.6 1.65-.09004.5698-.09004 1.1502 0 1.72.06909.37572.18325.74162.34 1.09002-.52763-.3385-1.02905-.7163-1.5-1.13002v-2.5c.02188-.47213.06861-.94278.14-1.41 0-.49.16-1 .22-1.51-.41574.35727-.73834.81029-.94 1.32-.22779.4976-.36008 1.03356-.39 1.58-.02764.54353.0366 1.08783.19 1.61 0 .13.1.25.15.37-.35569-.35979-.68962-.74046-1-1.14.20522-.56346.33306-1.15216.38-1.75.0599-.73128.02629-1.46722-.1-2.19-.29803.27276-.52172.6169-.65 1-.12846.36128-.20915.73781-.24 1.12-.02879.33271-.02879.66729 0 1-.25079-.38238-.47789-.7798-.68-1.19.2003-.55058.32478-1.12586.37-1.71.06465-.73451.03102-1.47437-.1-2.2-.29541.27306-.51578.61739-.64 1-.1358.3562-.21999.72998-.25 1.11v.65c-.22-.43-.44-.87-.65-1.31-.48215-.95969-.91276-1.94443-1.29-2.949997-.03785 1.113257.13869 2.223397.52 3.269997.24364.68436.53089 1.3524.86 2a.31998623.31998623 0 01-.09 0c-.35966-.14389-.69651-.33926-1-.58-.63426-.53164-1.1692-1.17155-1.58-1.89.10953.89259.48994 1.73019 1.09 2.4.31077.35441.68353.64923 1.1.87.36561.19615.76082.33127 1.17.4.13.23.29.48.46.74l-.46-.11c-.42871-.10084-.86272-.17763-1.3-.23-.90031-.12373-1.81575-.07965-2.700003.13.791713.47364 1.680823.76089 2.600003.84.46407.06113.93319.07454 1.4.04.27807-.0252.55284-.07881.82-.16.17.24.37.48.58.73-.24626-.02-.49374-.02-.74 0-.47139.03099-.93601.12863-1.38.29-.47388.1541-.91.40624-1.28.74002.89212.0658 1.78788.0658 2.68 0l1.32-.15002h.17l.61.55002c-.26097-.0064-.52198.0104-.78.05-.50506.088-.98567.2823-1.41.57-.4413.2738-.77091.6956-.93 1.19.79945-.3764 1.64769-.639 2.52-.78.42-.09.85-.13 1.3-.21l.33-.06c.38139.2948.77865.5686 1.19.82-.26349.0189-.52462.0624-.78.13-.52736.1386-1.0208.3837-1.45.72-.44267.3276-.76582.7913-.92 1.32.81701-.4886 1.70392-.8495 2.63-1.07.44-.14.89996-.21 1.36996-.32l.48-.1c.4134.18.8434.35 1.29.51-.3998.0724-.7894.1933-1.16.36-.4642.2113-.898.4837-1.28996.81-.41346.3258-.7541.7346-1 1.2 1-.34 1.79996-.73 2.65996-1.1l1.26-.58.69-.31c.43.11.89.22 1.36.31-.679.1855-1.3168.4977-1.88.92-.4791.3674-.9063.798-1.27 1.28-.3693.4769-.6442 1.02-.81 1.6 1-.71 1.8-1.43 2.68-2.08.4305-.3327.8778-.6431 1.34-.93.32-.22.66-.41 1-.61l.54.09.76.06c-.4363.1667-.8443.3994-1.21.69-.5754.4381-1.0241 1.0214-1.3 1.69-.2423.6693-.2388 1.403.01 2.07.3198-1.1922 1.0225-2.2463 2-3 .4886-.375 1.007-.7094 1.55-1 .28-.13.56-.28.85-.43h.6l-.41.19c-.5032.2969-.9391.6954-1.28 1.17-.3423.4678-.531 1.0304-.54 1.61.6657-.764 1.4529-1.4127 2.33-1.92.41-.25.86-.47 1.32-.71.46-.24.74-.37 1.13-.59 2.9481-.5274 5.8454-1.307 8.66-2.33l-.55 3.22-.41.34c-.65.57-.52 1.07-.44 1.25.0751.1583.1943.2917.3433.3839s.3215.1395.4967.1361h.11c.1609-.013.3129-.0789.4323-.1875s.1995-.2536.2277-.4125l.16-.95c4.15-3.1 10.68-4.22 15.24-3.89zM69.8929 6.19989c-.0447-.04804-.0989-.0862-.1592-.11204-.0602-.02583-.1253-.03876-.1908-.03796h-20c-.0656-.0008-.1306.01213-.1909.03796-.0603.02584-.1145.064-.1591.11204-.0461.06043-.0781.13041-.0937.20481-.0156.0744-.0143.15133.0037.22519.0105 2.7708 1.118 5.42461 3.0801 7.38111 1.962 1.9564 4.619 3.0563 7.3899 3.0589h.05c2.7751-.0185 5.4299-1.136 7.3829-3.1077 1.953-1.9718 3.0451-4.63709 3.0371-7.41231-.003-.13166-.0567-.25708-.15-.35zm-17.79.94h6.34l-4.45 4.49001c-1.1088-1.2467-1.7735-2.82563-1.89-4.49001zm7 .74v6.18001c-1.6212-.0913-3.1673-.7133-4.4-1.77l4.4-4.41001zm1 6.18001V7.87989l4.4 4.36001c-1.2266 1.0677-2.7678 1.7067-4.39 1.82h-.01zm5.08-2.52l-4.48-4.45001h6.33c-.1001 1.64698-.7477 3.21331-1.84 4.45001h-.01zm-5.57 4.53h-.05c-2.415-.0034-4.7377-.9284-6.4938-2.5861-1.7562-1.6577-2.8136-3.92314-2.9562-6.33391h1c.1381 2.07423 1.0352 4.02501 2.52 5.48001 1.5798 1.5441 3.7009 2.4091 5.91 2.41 2.1565-.0166 4.226-.8522 5.7894-2.3376 1.5634-1.4855 2.5038-3.5096 2.6306-5.66241h1c-.1168 2.41061-1.1475 4.68621-2.8827 6.36371-1.7351 1.6775-4.0441 2.631-6.4573 2.6663h-.01z"/>
</svg>