<svg fill="currentColor" viewBox="0 0 130 60">
  <path d="M62.7475 23.9324l-1.75-9.94c-.0108-.0648-.0345-.1268-.0697-.1823-.0353-.0555-.0813-.1034-.1355-.1407-.0541-.0373-.1152-.0633-.1796-.0766-.0643-.0132-.1307-.0133-.1952-.0004-.0651.0109-.1275.0346-.1834.0697-.0559.0351-.1044.0809-.1425.1349-.0381.0539-.0652.1148-.0796.1793-.0144.0644-.016.1311-.0045.1961l1.74 9.91c-.57.12-1.13.28-1.68.45l-2.49-6.9c-.0464-.1246-.1404-.2257-.2614-.2811-.121-.0553-.2589-.0603-.3836-.0139-.1246.0464-.2258.1405-.2811.2614-.0553.121-.0603.259-.0139.3836l2.49 6.86c-.5796.2233-1.1441.4838-1.69.78l-5-8.73c-.0668-.1135-.1757-.1961-.303-.2298-.1273-.0337-.2628-.0158-.377.0498-.1133.067-.1963.1751-.2317.3018-.0354.1268-.0205.2623.0417.3782l5 8.74c-.46.29-.91.6-1.34.93l-4.68-5.58c-.0415-.0507-.0927-.0925-.1506-.1231-.058-.0305-.1215-.0491-.1867-.0547-.0653-.0056-.131.0019-.1933.0222-.0623.0202-.1199.0527-.1694.0956-.1022.0857-.1667.208-.1798.3407-.0131.1328.0263.2653.1098.3693l4.68 5.56c-.4936.4354-.9611.8995-1.4 1.39l-7.73-6.45c-.0495-.0429-.1071-.0754-.1694-.0956-.0623-.0203-.128-.0278-.1933-.0222-.0652.0056-.1287.0242-.1866.0547-.058.0306-.1092.0724-.1507.1231-.0429.0495-.0754.1071-.0956.1694-.0203.0623-.0278.128-.0222.1933.0056.0653.0242.1287.0547.1867.0306.0579.0724.1091.1231.1506l7.73 6.49c-.32.4-.62.82-.9 1.25l-6.24-3.6c-.1154-.0648-.2518-.0811-.3793-.0455-.1274.0356-.2356.1203-.3007.2355-.0656.1142-.0835.2497-.0498.377.0337.1274.1163.2362.2298.303l6.22 3.59c-.3313.6013-.6252 1.2225-.88 1.86l-9.47-3.44c-.1246-.045-.2621-.0387-.3821.0176-.12.0562-.2128.1578-.2579.2824-.0239.061-.0354.1262-.0337.1916.0017.0655.0165.13.0435.1897.0271.0596.0658.1133.1139.1577.0481.0445.1047.0788.1663.101l9.45 3.44c-.15.47-.28 1-.39 1.44l-7-1.23c-.0646-.0129-.1311-.0123-.1955.0016-.0644.014-.1252.041-.1786.0795-.0535.0385-.0985.0875-.1322.1441-.0337.0566-.0554.1195-.0637.1848-.0129.0639-.0127.1297.0006.1935.0134.0637.0395.1241.077.1774.0374.0534.0853.0985.1407.1328.0554.0342.1173.0568.1817.0663l7 1.24c-.1482.8589-.2251 1.7285-.23 2.6 0 .1326.0527.2598.1465.3536.0937.0937.2209.1464.3535.1464.1326 0 .2598-.0527.3536-.1464.0937-.0938.1464-.221.1464-.3536-.0518-2.0123.2998-4.0147 1.0341-5.889.7342-1.8743 1.8364-3.5826 3.2413-5.0243 1.405-1.4416 3.0844-2.5873 4.9392-3.3696 1.8548-.7823 3.8474-1.1854 5.8604-1.1854 2.013 0 4.0057.4031 5.8604 1.1854 1.8548.7823 3.5342 1.928 4.9392 3.3696 1.405 1.4417 2.5071 3.15 3.2414 5.0243.7343 1.8743 1.0858 3.8767 1.034 5.889 0 .1326.0527.2598.1465.3536.0937.0937.2209.1464.3535.1464.1318-.0025.2575-.056.3507-.1493.0932-.0932.1467-.2189.1493-.3507-.007-.7703-.0705-1.539-.19-2.3l9.91-1.75c.0651-.0109.1275-.0345.1834-.0696.0559-.0352.1044-.081.1425-.1349.0381-.0539.0652-.1149.0796-.1793.0144-.0645.016-.1311.0045-.1962-.0244-.1303-.0986-.246-.2069-.3225-.1083-.0766-.2421-.1079-.3731-.0875l-9.91 1.75c-.1513-.6792-.3484-1.3474-.59-2l6.6-2.4c.1254-.0472.2271-.1419.2832-.2635.0562-.1216.0622-.2604.0168-.3865-.0222-.0616-.0565-.1182-.101-.1663-.0444-.0481-.0981-.0868-.1577-.1139-.0597-.027-.1242-.0418-.1897-.0435-.0655-.0017-.1306.0098-.1916.0337l-6.6 2.4c-.2-.45-.41-.89-.64-1.32l8.74-5.05c.1154-.0663.1997-.1757.2344-.3042.0347-.1284.0169-.2654-.0494-.3808-.0663-.1153-.1757-.1996-.3042-.2343-.1284-.0347-.2654-.017-.3808.0493l-8.76 5.06c-.3531-.6213-.7508-1.2162-1.19-1.78l5.46-4.58c.1015-.0839.1658-.2045.1789-.3356.0131-.1311-.026-.262-.1089-.3644-.0857-.1022-.208-.1667-.3407-.1798s-.2653.0263-.3693.1098l-5.49 4.61c-.3305-.3627-.681-.7065-1.05-1.03l6.5-7.74c.0427-.0505.075-.109.0951-.172.0201-.0631.0275-.1295.0219-.1954-.0055-.0659-.024-.1301-.0544-.1889-.0304-.0588-.072-.111-.1226-.1537-.0506-.0427-.109-.075-.1721-.095-.063-.0201-.1294-.0276-.1953-.022-.066.0056-.1301.0241-.1889.0544-.0588.0304-.111.0721-.1537.1226l-6.49 7.74c-.5351-.4184-1.0963-.8025-1.68-1.15l3.62-6.27c.0622-.1159.0771-.2514.0417-.3782-.0354-.1267-.1184-.2348-.2317-.3018-.1142-.0656-.2497-.0835-.377-.0498-.1273.0337-.2362.1163-.303.2298l-3.62 6.27c-.5125-.267-1.04-.5041-1.58-.71l2.48-6.83c.0239-.061.0354-.1261.0337-.1916-.0017-.0655-.0165-.13-.0435-.1896-.027-.0597-.0658-.1133-.1139-.1578-.0481-.0444-.1047-.0788-.1663-.101-.0617-.0241-.1275-.0357-.1937-.0341-.0662.0016-.1314.0163-.1919.0432-.0605.027-.115.0657-.1604.114-.0454.0482-.0807.1049-.104.1669l-2.48 6.83c-.52-.16-1-.31-1.59-.42l1.74-9.91c.0239-.1326-.0059-.2692-.0828-.3799-.0769-.1106-.1946-.1862-.3272-.2101-.1326-.0238-.2693.0059-.3799.0828-.1107.0769-.1862.1946-.2101.3272l-1.74 9.94c-.6092-.0934-1.2238-.1468-1.84-.16v-7.31c0-.1326-.0527-.2598-.1464-.3535-.0938-.0938-.221-.1465-.3536-.1465-.1326 0-.2598.0527-.3535.1465-.0938.0937-.1465.2209-.1465.3535v7.31c-.5827.0176-1.1638.0711-1.74.16zM65.9372 54.7524l-.92-2.84-.92 2.84h-2.98l2.41 1.75-.92 2.83 2.41-1.75 2.41 1.75-.92-2.83 2.41-1.75h-2.98z"/>
  <path d="M129.057 52.9424c-.86-2-3.78-6.78-12.38-8.28-5.38-.94-12.16 1-19.3297 3.15h-.16l.68-3.89.41-.34c.65-.56.52-1.06.44-1.25-.0842-.1857-.229-.3373-.4107-.43-.1817-.0926-.3895-.1208-.5893-.08-.1608.013-.3128.0789-.4323.1875-.1194.1086-.1995.2536-.2277.4125l-.16.94c-3.68 2.76-8.74 3.54-10.84 3.76-.1326.0133-.2545.0787-.3389.1818-.0418.0511-.0731.1099-.0921.1731-.0191.0632-.0255.1295-.019.1951.0066.0657.026.1294.0572.1876.0312.0581.0736.1096.1246.1513.1032.0844.2356.1244.3682.1111 3.7342-.2992 7.3534-1.4339 10.59-3.32l-.59 3.37c-7.43 2.17-15 4.23-21.61 3.09-3.07-.54-7.19-2.31-9.12-5-.031-.0872-.0865-.1636-.16-.22-.0687-.0456-.1478-.0731-.23-.08h-.19c-.0821.0069-.1613.0344-.23.08-.0752.0546-.1312.1316-.16.22-1.93 2.64-6.06 4.41-9.12 5-6.59 1.14-14.18-.92-21.59-3.09l-.59-3.37c3.2034 1.886 6.7871 3.0339 10.49 3.36.1326.0133.2651-.0267.3682-.1111.1032-.0844.1686-.2063.1818-.3389.0133-.1326-.0267-.265-.1111-.3682-.0843-.1031-.2063-.1685-.3389-.1818-2.09-.22-7.15-1-10.83-3.76l-.17-.93c-.0244-.1588-.102-.3046-.2201-.4136-.1181-.109-.2696-.1747-.4299-.1864-.1918-.0257-.3869.0097-.5575.1013-.1706.0915-.3079.2346-.3925.4087-.09.19-.21.69.44 1.25l.41.34.68 3.89h-.16c-7.19-2.15-13.97-4.14-19.36-3.23-8.58997 1.53-11.50997 6.32-12.409966 8.31-.02882.0647-.043874.1346-.044203.2054-.00033.0707.014071.1408.042288.2057.028217.0649.069632.1232.12161.1712.051978.048.113382.0847.180301.1077.06593.0141.13408.0141.2 0 .09704-.0021.19154-.0313.27284-.0843.08129-.053.14613-.1277.18716-.2157.79-1.84 3.51-6.28 11.62997-7.69 5.16-.9 11.82 1 18.88 3.12l.63.18.87 5c-3.16-1.55-13.72-6.24-19.32-3-.1842.0508-.3527.1471-.49.28-.0478.0393-.0885.0867-.12.14-.1012.1303-.174.2804-.2136.4406-.0396.1602-.0452.3269-.0164.4894.0276.1596.0863.3121.1729.449.0865.1369.1992.2553.3315.3487.1323.0933.2817.1596.4397.1952.158.0356.3214.0397.4809.0121.1596-.0275.3122-.0863.449-.1728.1369-.0866.2553-.1992.3487-.3315.0933-.1324.1596-.2818.1952-.4397.0356-.158.0397-.3214.0121-.481-.039-.1845-.1175-.3585-.23-.51 6.3-2.47 18.3 3.84 18.43 3.91.0742.0387.1564.0592.24.06.1053.0009.2077-.0344.29-.1.0768-.0539.1364-.1288.1719-.2156.0354-.0869.0452-.1821.0281-.2744l-1-5.51c7.39 2.15 14.93 4.13 21.59 3 3.2-.56 7.22-2.29 9.41-4.94 2.2 2.65 6.22 4.38 9.42 4.94 6.66 1.16 14.2-.82 21.59-3l-1 5.51c-.017.0923-.0073.1875.0282.2744.0354.0868.0951.1617.1718.2156.082.0663.1846.1017.29.1.0836-.0008.1659-.0213.24-.06.12-.07 12.1297-6.38 18.4297-3.91-.116.1491-.195.3241-.23.51-.028.1596-.025.3234.009.4818.035.1584.101.3084.194.4413.093.1329.211.2461.348.3331.137.087.29.1461.449.1738.322.0527.652-.0224.919-.2092s.45-.4705.511-.7908c.027-.1625.02-.3287-.02-.4885-.039-.1598-.111-.31-.21-.4415-.032-.0558-.076-.1036-.13-.14-.139-.1351-.312-.2316-.5-.28-5.6-3.23-16.1497 1.46-19.3197 3l.88-5 .63-.18c7.0597-2.07 13.7197-4 18.8797-3.12 8.12 1.41 10.84 5.85 11.63 7.69.053.122.153.218.276.2667.124.0488.262.0464.384-.0067.122-.053.218-.1523.267-.2761.049-.1238.046-.2619-.007-.3839h.01z"/>
  <path d="M83.6777 47.3924c-.0859.0133-.1683.0437-.2423.0893-.0739.0457-.138.1058-.1883.1766-.0504.0709-.086.1511-.1048.236-.0188.0849-.0203.1726-.0046.2581.0293.1723.1258.3259.2683.4272.1425.1012.3193.1418.4917.1128.1731-.0317.3267-.1302.4278-.2743.101-.1441.1413-.3221.1122-.4957-.0132-.0856-.0436-.1677-.0894-.2412-.0458-.0735-.106-.137-.1771-.1865-.0711-.0496-.1514-.0842-.2363-.1018-.0848-.0176-.1723-.0177-.2572-.0005zM80.6377 48.4824c.0119.0865.0414.1697.0867.2444.0453.0747.1054.1393.1766.1899.0712.0506.152.086.2374.1042.0854.0182.1737.0187.2593.0015.0887-.0106.1743-.0392.2516-.0839.0774-.0448.1448-.1047.1983-.1763.0534-.0716.0918-.1532.1128-.2401.021-.0868.0241-.177.0092-.2651-.0149-.0881-.0475-.1722-.0959-.2473s-.1115-.1396-.1856-.1896c-.074-.05-.1574-.0844-.2452-.1012-.0877-.0168-.1779-.0156-.2652.0035-.0859.0133-.1683.0437-.2423.0893-.0739.0457-.138.1058-.1883.1766-.0504.0709-.086.1511-.1048.236-.0188.0849-.0203.1726-.0046.2581zM77.9677 48.6324c.0477.1565.151.2901.2904.3757.1394.0856.3052.1172.4664.0889.1611-.0283.3063-.1145.4082-.2425.1019-.1279.1535-.2887.145-.4521-.0477-.1564-.151-.2901-.2904-.3756-.1394-.0856-.3053-.1173-.4664-.089-.1611.0283-.3063.1146-.4082.2425-.1019.128-.1535.2888-.145.4521zM45.4074 47.9224c-.0173.0855-.0172.1736.0003.2591.0175.0854.052.1665.1014.2383.0495.0719.1129.1331.1865.1799.0735.0468.1558.0784.2418.0927.0854.0151.1729.0133.2575-.0054.0847-.0188.1648-.054.2358-.1036.0711-.0497.1316-.1129.1782-.186.0467-.0731.0784-.1546.0935-.24.0151-.0853.0133-.1728-.0054-.2575-.0187-.0846-.0539-.1647-.1036-.2358-.0497-.071-.1129-.1316-.186-.1782s-.1546-.0784-.24-.0935c-.0849-.0172-.1724-.0171-.2572.0005-.0848.0176-.1652.0522-.2363.1018-.071.0495-.1313.113-.1771.1865-.0458.0735-.0762.1556-.0894.2412zM47.9069 48.2624c-.0191.0873-.0203.1775-.0035.2653.0168.0877.0512.1711.1012.2452.05.074.1145.1371.1896.1855.0751.0484.1592.081.2473.096.0881.0149.1783.0117.2651-.0093.0868-.0209.1685-.0593.2401-.1128.0715-.0535.1315-.1209.1762-.1982.0447-.0774.0733-.163.084-.2517.0191-.0872.0203-.1775.0035-.2652-.0168-.0878-.0512-.1712-.1012-.2452-.05-.0741-.1145-.1372-.1896-.1856-.0751-.0484-.1592-.081-.2473-.0959-.0881-.0149-.1783-.0118-.2651.0092-.0869.021-.1685.0594-.2401.1128-.0716.0535-.1315.121-.1763.1983-.0447.0773-.0733.1629-.0839.2516zM50.5672 48.4224c-.0277.0908-.0357.1864-.0237.2805.0121.0941.044.1845.0936.2654.0496.0808.1159.1502.1943.2035.0785.0534.1674.0894.2608.1058.0935.0165.1893.0128.2813-.0106.0919-.0234.1778-.0661.252-.1252.0742-.0591.135-.1333.1784-.2176.0434-.0844.0684-.177.0733-.2718.0085-.1633-.0431-.3241-.145-.4521-.1019-.1279-.2471-.2142-.4083-.2425-.1611-.0283-.3269.0034-.4663.089-.1394.0855-.2427.2192-.2904.3756zM32.1272 28.0524c-.4427 1.9755-.4427 4.0245 0 6 .0209.0672.0628.1258.1195.1675.0566.0417.1251.0642.1955.0642.0703 0 .1388-.0225.1955-.0642.0566-.0417.0985-.1003.1195-.1675l2-6.53 5.13-3.27c.0574-.0381.102-.0927.1276-.1567.0257-.064.0313-.1343.0162-.2015-.0152-.0673-.0505-.1284-.1012-.1751-.0507-.0467-.1144-.077-.1826-.0867-3.27.24-5.13.9-6.18 1.66-.7719-.3245-1.4416-.8519-1.9381-1.5262-.4964-.6743-.8012-1.4703-.8819-2.3038-.1538-.6932-.1087-1.4158.1301-2.0846.2388-.6687.6617-1.2564 1.2199-1.6954.6328-.2858 1.3086-.4649 2-.53-.6086 1.3267-.88 2.7832-.79 4.24.006.0573.0309.111.0707.1526.0398.0417.0923.0689.1493.0774.0542.0013.1074-.0144.1522-.0449.0448-.0305.079-.0742.0978-.1251 1-2.85 2.05-4.05 2.62-4.53.55 0 1.09-.06 1.58-.07.06 0 1.17.89 2.47 3.78.0211.0407.0525.075.0912.0996.0386.0246.083.0385.1288.0404h.08c.0572-.0162.1067-.0523.1397-.1018.033-.0495.0473-.1091.0403-.1682-.1607-1.2185-.4182-2.4223-.77-3.6 1.1815.2578 2.408.2241 3.5736-.0983 1.1656-.3223 2.2351-.9235 3.1164-1.7517l.21-.17c1.23-1 3.69-.86 3.72-.86.1252.0086.249-.0312.3458-.1112.0967-.08.1591-.1941.1742-.3188.018-.1254-.0122-.2529-.0846-.3569-.0724-.1039-.1816-.1765-.3054-.2031l-4-.82 4.73-1.81c.0467-.0207.0904-.0476.13-.08l10.77-1.32998c.0658-.00742.1295-.02785.1874-.06012.0579-.03226.1088-.07571.1497-.12782.041-.05211.0711-.11183.0888-.1757.0177-.06388.0224-.13062.0141-.19636-.0074-.06551-.0278-.12886-.0602-.18627-.0324-.05741-.0761-.1077-.1284-.14784-.0522-.04015-.1121-.06933-.1759-.08581-.0638-.01648-.1303-.0199-.1955-.01008l-11.32 1.39c-1.6171-.08249-3.2271-.26955-4.82-.56-1.5057-.38583-2.9853-.8668-4.43-1.44-.8433-.35454-1.7168-.63233-2.61-.83-3.01-5.32-6.72-5.929996-6.89-5.929996-.0849-.008509-.1706.004427-.2493.037622-.0786.033195-.1476.085587-.2007.152378-.054.066111-.0898.145177-.1038.229366-.0141.08419-.0059.17059.0238.25063.52 1.46.62 3.27-.67 4-4.25 2.3-4.85 5.19998-4.93 5.90998-1.8162 1.7034-2.9262 4.0269-3.11 6.51-.49 8.14 6.04 9.69 9.02 10.33zm-.51-21.89998c1.35-.73 1.85-2.33 1.4-4.28 2.0925.92637 3.829 2.50502 4.95 4.5h-.61c-.5373-.03695-1.077-.01683-1.61.06-2.9465.33674-5.7287 1.5331-8 3.44.8815-1.60479 2.2316-2.90253 3.87-3.72zm-4.34 10.24998c2.59-4.89 7.07-6.31 11.47-6.56998-.3364.77158-.4208 1.62958-.2413 2.45188.1796.8223.6139 1.567 1.2413 2.1281.083.0751.1884.1208.3.13.0774.0025.1544-.0124.2253-.0436.071-.0311.1341-.0777.1847-.1364.0852-.0998.1278-.2292.1184-.3602-.0093-.131-.0698-.253-.1684-.3398-.5285-.4788-.8757-1.1251-.9832-1.8301-.1074-.7049.0314-1.4254.3932-2.03988.92 0 1.83 0 2.7.07.1529-.1552.3374-.2757.541-.35335.2036-.07764.4215-.1106.639-.09665.2245.01535.4429.0797.6399.18855.1969.10884.3676.25953.5001.44143 1.4227.181 2.8558.2678 4.29.26l-4.12 1.57c-.1015.0387-.1877.1094-.2454.2015-.0577.092-.0839.2003-.0746.3085.0103.1078.0546.2095.1265.2903.0719.0809.1677.1369.2735.1597l2.71.56c-.4837.1543-.9371.3911-1.34.7l-.21.17c-.8309.8102-1.8641 1.3824-2.9916 1.6568-1.1276.2744-2.3082.241-3.4184-.0968h-.09c-2.0842-.004-4.1661.1397-6.23.43-1.9987.1725-3.9181.8618-5.57 2-.2.17 0 .22.29.21.29-.01 1-.1 1-.1-.2395 1.0542-.2199 2.1507.057 3.1956.2769 1.0449.8029 2.0072 1.533 2.8044.4946.7021 1.1538 1.2721 1.92 1.66-.1282.3474-.2383.7012-.33 1.06-4.09-1.82-7.67-5.9-5.14-10.68z"/>
  <path d="M43.547 11.6324c.1404.0097.2805-.0226.4025-.0927.122-.0701.2204-.1749.2828-.3011.0623-.1261.0858-.268.0673-.4075-.0184-.1395-.0779-.2704-.1708-.376-.093-.1057-.2153-.1813-.3513-.2174-.1361-.036-.2797-.0308-.4128.015s-.2495.1301-.3346.2423c-.085.1121-.1349.2469-.1431.3874-.011.1868.0522.3703.1757.5107.1236.1405.2976.2265.4843.2393zM89.7476 44.7324c.1326 0 .2598-.0527.3535-.1464.0938-.0938.1465-.221.1465-.3536 0-.1326-.0527-.2598-.1465-.3535-.0937-.0938-.2209-.1465-.3535-.1465-.9065.0006-1.7992-.2216-2.5996-.647-.8004-.4255-1.4839-1.0412-1.9904-1.793-.0485-.0642-.1112-.1163-.1832-.1521-.072-.0359-.1514-.0546-.2318-.0546-.0805 0-.1598.0187-.2318.0546-.072.0358-.1347.0879-.1832.1521-.5062.7507-1.1891 1.3657-1.9885 1.7908-.7995.4252-1.6911.6475-2.5965.6475-.9055 0-1.7971-.2223-2.5965-.6475-.7995-.4251-1.4823-1.0401-1.9885-1.7908-.0485-.0642-.1112-.1163-.1832-.1521-.072-.0359-.1514-.0546-.2318-.0546-.0805 0-.1598.0187-.2318.0546-.072.0358-.1347.0879-.1832.1521-.5074.7507-1.1912 1.3656-1.9914 1.7906-.8003.425-1.6925.6472-2.5986.6472-.9061 0-1.7984-.2222-2.5986-.6472-.8003-.425-1.484-1.0399-1.9914-1.7906-.0485-.0642-.1112-.1163-.1832-.1521-.072-.0359-.1514-.0546-.2318-.0546-.0805 0-.1598.0187-.2318.0546-.072.0358-.1347.0879-.1832.1521-.4749.7476-1.1308 1.3631-1.907 1.7896-.7761.4265-1.6474.6501-2.533.6501-.8856 0-1.7569-.2236-2.5331-.6501-.7762-.4265-1.4321-1.042-1.9069-1.7896-.0448-.0678-.1057-.1233-.1772-.1617-.0716-.0385-.1516-.0585-.2328-.0583-.0826-.0001-.164.0199-.2371.0582-.0732.0384-.136.0939-.1829.1618-.5062.7507-1.1891 1.3657-1.9885 1.7908-.7995.4252-1.6911.6475-2.5965.6475-.9055 0-1.7971-.2223-2.5965-.6475-.7995-.4251-1.4823-1.0401-1.9885-1.7908-.0485-.0642-.1112-.1163-.1832-.1521-.072-.0359-.1514-.0546-.2318-.0546-.0805 0-.1598.0187-.2318.0546-.072.0358-.1347.0879-.1832.1521-.5065.7518-1.1901 1.3675-1.9905 1.793-.8003.4254-1.6931.6476-2.5995.647-.1326 0-.2598.0527-.3536.1465-.0937.0937-.1464.2209-.1464.3535 0 .1326.0527.2598.1464.3536.0938.0937.221.1464.3536.1464.953.0007 1.8947-.2076 2.7585-.6102.8639-.4025 1.629-.9896 2.2415-1.7198.6139.7282 1.3794 1.3134 2.243 1.7149.8637.4015 1.8046.6095 2.757.6095.9524 0 1.8933-.208 2.7569-.6095.8636-.4015 1.6292-.9867 2.2431-1.7149.567.6786 1.2665 1.2344 2.0558 1.6333.7892.3989 1.6515.6326 2.5342.6867h.52c.8874-.0519 1.7549-.2844 2.5493-.6833.7945-.3989 1.4991-.9559 2.0707-1.6367.6129.7297 1.3781 1.3164 2.2419 1.7188.8637.4025 1.8051.6111 2.7581.6111.9529 0 1.8943-.2086 2.7581-.6111.8637-.4024 1.6289-.9891 2.2419-1.7188.6139.7282 1.3794 1.3134 2.2431 1.7149.8636.4015 1.8045.6095 2.7569.6095.9524 0 1.8933-.208 2.7569-.6095.8636-.4015 1.6292-.9867 2.2431-1.7149.6125.7302 1.3776 1.3173 2.2414 1.7198.8639.4026 1.8055.6109 2.7586.6102z"/>
</svg>