<svg fill="currentColor" viewBox="0 0 193 56">
  <path d="M69.2174 19.9005l-.61-1.86-.6 1.86h-1.96l1.58 1.15-.6 1.86 1.58-1.15 1.59 1.15-.61-1.86 1.59-1.15h-1.96z"/>
  <path d="M90.4672 11.6305c-.9383-.6214-1.9916-1.0485-3.0976-1.2563-1.1061-.2079-2.2425-.1921-3.3424.0463-2.2437.4249-4.242 1.6868-5.59 3.53-1.0177 1.4501-1.4186 3.2446-1.1149 4.9899.3037 1.7454 1.2872 3.299 2.7349 4.3201 1.1822.8266 2.644 1.1508 4.0649.9015 1.4208-.2493 2.6849-1.0518 3.5151-2.2315.3366-.4733.5762-1.0086.705-1.575.1287-.5664.144-1.1527.045-1.725-.2041-1.1646-.8624-2.2005-1.83-2.88-.7967-.5564-1.7811-.7751-2.7385-.6083-.9573.1667-1.8098.7053-2.3715 1.4983-.2324.3243-.3977.6917-.4863 1.0807-.0887.389-.0988.7917-.0299 1.1847.0689.393.2155.7682.4312 1.1039.2157.3356.4962.6248.825.8507.5517.3819 1.2324.529 1.8925.4089.6602-.12 1.2456-.4973 1.6275-1.0489.0381-.0539.0652-.1147.0798-.179.0146-.0643.0163-.1309.0052-.1959-.0112-.065-.035-.1271-.0702-.1829-.0351-.0558-.081-.1041-.1348-.1422-.0538-.0381-.1147-.0652-.179-.0798-.0643-.0146-.1308-.0163-.1958-.0052-.065.0112-.1272.035-.183.0702-.0558.0351-.1041.0809-.1422.1348-.1139.1647-.2594.3052-.4281.4132-.1686.1079-.3571.1813-.5544.2157-.1973.0344-.3995.0293-.5948-.0152-.1953-.0444-.3797-.1273-.5427-.2437-.2204-.1512-.4084-.345-.5526-.57-.1443-.225-.242-.4766-.2874-.74-.09-.5316.0321-1.0774.34-1.52.2014-.2859.4572-.5292.7527-.7161.2955-.1869.625-.3137.9696-.3731.3446-.0595.6975-.0504 1.0386.0267.3411.0771.6636.2206.9491.4225.3723.2596.6896.5903.9336.973.2439.3828.4097.81.4878 1.2571.0781.4471.0669.9053-.0329 1.3481-.0998.4427-.2862.8614-.5485 1.2318-.6788.9625-1.7115 1.6167-2.8718 1.8192-1.1603.2024-2.3535-.0634-3.3182-.7392-1.2299-.8699-2.0655-2.1912-2.324-3.6753-.2586-1.4841.0808-3.0101.944-4.2447 2.36-3.34 7.46-4.33 10.64-2.07 3.93 2.77 4.69 8.75 1.65 13.08-1.89 2.69-6.09 4.5-9.19 5-6 1-12.76-.56-19.51-2.48l-.7-4c5.87 3.7 15.22 3.59 17.57 3.18.1326-.0239.2503-.0994.3272-.2101.0769-.1106.1067-.2473.0828-.3799-.0239-.1326-.0994-.2503-.2101-.3272-.1106-.0769-.2473-.1067-.3799-.0828-2.3.4-12.22.46-17.65-3.52l-.17-.93c-.0261-.1581-.1043-.3029-.222-.4116-.1177-.1087-.2683-.175-.428-.1884-.1997-.039-.4067-.01-.588.0824-.1813.0925-.3263.243-.412.4276-.09.19-.21.69.44 1.25.13.11.27.23.41.33l.78 4.51-2.26-.66c-5-1.46-9.77-2.86-14-3.27l-.67-.33c-.46-.24-.91-.45-1.33-.71-.8773-.5029-1.6647-1.1484-2.33-1.91.0331.5866.2461 1.1487.61 1.61.3386.4623.7715.8474 1.27 1.13l.14.07h-.53l-.69-.35c-.5474-.2831-1.0664-.618-1.55-1-.9803-.7511-1.6837-1.8062-2-3-.2073.6823-.1648 1.4162.12 2.07.2444.6975.6729 1.316 1.24 1.79.3482.2737.736.4928 1.15.65l-.72.1-.49.1c-.36-.2-.71-.4-1-.62-.4622-.2869-.9095-.5973-1.34-.93-.89-.64-1.71-1.36-2.69-2.07.1671.5814.4456 1.1248.82 1.6.3612.4812.7888.9088 1.27 1.27.5934.4522 1.2746.7757 2 .95-.4667.1067-.9167.2267-1.35.36l-.83-.39-1.26-.6c-.85-.36-1.67-.76-2.66-1.09.2461.4625.5868.868 1 1.19.3886.3309.8231.6038 1.29.81.454.206.9358.3441 1.43.41-.45.16-.89.34-1.3.52l-.73-.15c-.47-.11-.93-.18-1.37-.32-.928-.2194-1.8179-.5767-2.64-1.06.1518.5298.4799.992.93 1.31.4292.3363.9226.5813 1.45.72.3398.0911.6885.1448 1.04.16-.4719.2579-.9293.5417-1.37.85l-.52-.08c-.45-.09-.88-.12-1.3-.22-.873-.1328-1.7219-.3922-2.52-.77.1591.4944.4887.9161.93 1.19.4274.2819.9068.4756 1.41.57.3322.0391.6678.0391 1 0l-.68.59h-.29l-1.29-.11c-.8955-.0657-1.7945-.0657-2.69 0 .3552.3308.7784.5799 1.24.73.4449.16.9089.2608 1.38.3.2731.0149.5469.0149.82 0-.2333.2533-.4433.5033-.63.75-.2771-.0822-.5619-.1358-.85-.16-.4522-.0451-.9078-.0451-1.36 0-.9203.0876-1.809.3816-2.6.86.8876.2093 1.8056.2567 2.71.14.4376-.0549.8717-.135 1.3-.24.1494-.0294.2964-.0695.44-.12-.18.2733-.34.5233-.48.75-.3959.0763-.7773.2147-1.13.41-.4165.2208-.7892.5156-1.1.87-.5977.6741-.9746 1.5152-1.08 2.41.4051-.7224.9409-1.3632 1.58-1.89.3057-.2401.642-.4385 1-.59h.09c-.3305.647-.6178 1.3151-.86 2-.3753 1.0447-.5517 2.1504-.52 3.26.39-1 .82-2 1.29-3 .2-.44.42-.87.64-1.3v.64c.0381.3788.122.7515.25 1.11.1317.3814.3549.7248.65 1 .1259-.7228.1595-1.4587.1-2.19-.0488-.5762-.1698-1.144-.36-1.69.2015-.3977.4287-.7818.68-1.15-.0362.3323-.0362.6676 0 1 .0391.3818.123.7578.25 1.12.1319.3838.359.7278.66 1 .123-.7232.1532-1.4592.09-2.19-.0474-.5838-.1718-1.1588-.37-1.71.2898-.3485.5968-.6822.92-1 0 .06-.06.12-.08.18-.1544.5219-.2153 1.0669-.18 1.61.0174.5406.1361 1.0732.35 1.57.2192.5046.5634.9452 1 1.28-.06-.55-.18-1-.23-1.51-.0763-.4666-.1231-.9375-.14-1.41-.06-.76-.05-1.54 0-2.37.4453-.3623.9129-.6962 1.4-1-.0978.2798-.1714.5675-.22.86-.09.5698-.09 1.1502 0 1.72.0995.583.3063 1.1425.61 1.65.3142.5003.7752.8914 1.32 1.12-.2415-.4711-.4487-.9591-.62-1.46-.1315-.4843-.2383-.9749-.32-1.47-.14-.85-.21-1.73-.34-2.67.7662-.4586 1.569-.8532 2.4-1.18-.1298.1212-.2471.2552-.35.4-.3394.4673-.5497 1.0156-.61 1.59-.0643.5751.0327 1.1568.28 1.68.232.5033.5989.9325 1.06 1.24-.11-.55-.26-1-.32-1.48-.0601-.4447-.0601-.8954 0-1.34.1118-.8291.362-1.6336.74-2.38.54-.19 1.11-.36 1.72-.52-.2194.2409-.42.4983-.6.77-.4009.6008-.6607 1.2846-.76 2-.1231.7586.0409 1.5358.46 2.18.416.5929 1.0017 1.0461 1.68 1.3-.3853-.5344-.7201-1.1035-1-1.7-.2449-.5241-.345-1.1042-.29-1.68.0729-.6134.2242-1.215.45-1.79.15-.41.32-.83.5-1.25.41-.1.82-.19 1.26-.26h.24l-.28.25c-.4345.4248-.7574.9504-.94 1.53-.1998.6005-.1998 1.2495 0 1.85.199.5718.587 1.0586 1.1 1.38-.1668-.5035-.2808-1.0229-.34-1.55-.0327-.4692.0216-.9405.16-1.39.2771-.7704.65-1.5028 1.11-2.18.27 0 .55-.05.83-.06-.1338.1086-.2607.2255-.38.35-.32.3988-.5395.8686-.64 1.37-.1022.4813-.0781.9808.07 1.45.27-.42.45-.82.66-1.19.2017-.3496.429-.6839.68-1 .3399-.3917.7378-.729 1.18-1 4.53.15 9.84 1.7 15.41 3.33l2.73.8.77 4.4c-3.16-1.55-13.72-6.24-19.32-3-.1851.0487-.3541.1453-.49.28-.0509.039-.0948.0863-.13.14-.0979.1319-.1679.2825-.2057.4424-.0378.1598-.0427.3258-.0143.4876.0276.1595.0863.3121.1729.449.0865.1368.1991.2553.3315.3486.1323.0933.2817.1597.4397.1953.1579.0355.3213.0397.4809.0121.1596-.0276.3121-.0863.449-.1729.1368-.0865.2553-.1991.3486-.3315.0934-.1323.1597-.2817.1953-.4397.0356-.1579.0397-.3214.0121-.4809-.039-.1846-.1175-.3586-.23-.51 6.3-2.47 18.3 3.84 18.43 3.91.0734.0406.1561.0613.24.06.1053.0008.2076-.0345.29-.1.075-.0556.1333-.1306.1685-.217.0353-.0864.0462-.1809.0315-.273l-.86-4.91c6.7 1.88 13.48 3.45 19.51 2.36 3.41-.59 7.77-2.51 9.84-5.45 3.35-4.76 2.48-11.39-1.89-14.46z"/>
  <path d="M105.707 8.5705c.099.00058.196-.02808.278-.08235.082-.05428.147-.13175.186-.22265.038-.0909.049-.19116.03-.28815-.018-.09698-.065-.18636-.134-.25685-.844-.79719-1.895-1.34159-3.034-1.57139-1.138-.22979-2.318-.13577-3.4058.27139.0855-1.05679-.1024-2.1178-.5454-3.08102-.4431-.96321-1.1265-1.79624-1.9846-2.418982-.0656-.052928-.1459-.084354-.23-.09-.0298-.005036-.0602-.005036-.09 0h-.07c-.0874.004259-.1714.035725-.24.09-.8599.621592-1.5453 1.454122-1.9902 2.417412-.4449.96329-.6342 2.0249-.5498 3.08259-1.0878-.40599-2.2675-.49939-3.4057-.26964-1.1381.22974-2.1892.77347-3.0343 1.56964-.0691.07049-.1158.15987-.1342.25685-.0184.09699-.0077.19725.0308.28815.0385.0909.1031.16837.1855.22265.0825.05427.1792.08293.2779.08235 5.45 0 8.44 5.62 8.44 7.48v13.33c0 .1326.0527.2598.1464.3536.0938.0937.221.1464.3536.1464.1326 0 .2598-.0527.3535-.1464.0938-.0938.1465-.221.1465-.3536v-13.33c.01-1.86 2.9998-7.48 8.4198-7.48zm-8.9198 5.48c-1-2.45-3.57-5.75-7.58-6.37.773-.45955 1.6557-.7021 2.555-.7021.8993 0 1.7819.24255 2.555.7021.0864.0466.1847.06671.2825.05782.0978-.00889.1908-.04639.2675-.10782.0776-.06155.1353-.1448.1655-.23916.0303-.09437.0319-.1956.0045-.29084-.2028-.93795-.1471-1.91334.1611-2.82211.3082-.90876.8574-1.7168 1.5889-2.33789.7386.61521 1.2923 1.42313 1.5994 2.33402.3072.91089.3558 1.8891.1406 2.82598-.0281.09498-.0273.19616.0022.2907.0296.09453.0865.17817.1636.2403.0772.06213.171.09996.2697.10868.0986.00872.1976-.01205.2845-.05968.7728-.45955 1.6558-.7021 2.5548-.7021.899 0 1.782.24255 2.555.7021-3.99.62-6.5398 3.95-7.5598 6.37h-.01zM58.7072 9.2905l15 5.49c-.1.3-.18.6-.26.91l-12.4-1.31c-.066-.0083-.1329-.0031-.1968.0152-.0639.0184-.1234.0496-.1748.0917-.0515.0421-.0938.0942-.1245.1532-.0307.059-.049.1236-.0539.1899-.0141.1312.0243.2626.1067.3656.0824.103.2022.1693.3333.1844l12.34 1.25c-.0872.566-.134 1.1374-.14 1.71-.0047 1.8394.4307 3.6532 1.27 5.29.0418.0808.1049.1486.1824.1962.0776.0476.1666.0731.2576.0738.0792-.0011.1575-.0181.23-.05.0596-.0297.1127-.0709.1561-.1214.0435-.0504.0764-.109.0969-.1723.0205-.0634.0281-.1302.0224-.1965-.0056-.0663-.0245-.1309-.0554-.1898-.7676-1.4833-1.1655-3.1299-1.16-4.8.0026-2.784 1.1097-5.4531 3.0783-7.4217 1.9685-1.96856 4.6377-3.07566 7.4217-3.0783.1326 0 .2598-.05268.3535-.14645.0938-.09377.1465-.22094.1465-.35355 0-.13261-.0527-.25979-.1465-.35356-.0937-.09376-.2209-.14644-.3535-.14644-2.2891.00739-4.5229.70435-6.41 2l-5.82-8.030003c-.0378-.054409-.0862-.100598-.1423-.135776-.0561-.035179-.1188-.058617-.1842-.068898-.0654-.010281-.1323-.007192-.1965.00908-.0642.016272-.1244.04539-.177.085594-.1048.077879-.175.193661-.1955.322593-.0206.12894.0101.2608.0855.36741l5.83 8c-.24.19-.46.39-.68.6L65.1972.760497c-.0502-.042319-.1083-.074139-.1709-.093571-.0627-.019432-.1286-.026081-.1939-.019552-.0653.006528-.1286.026101-.1862.057558-.0576.031456-.1082.074155-.149.125565-.0829.102373-.1221.233323-.1089.364393.0131.13107.0774.25167.1789.33561l11.48 9.23c-.3091.3451-.5963.7091-.86 1.09l-10-5.68c-.0565-.03152-.1186-.05161-.1828-.05912-.0643-.0075-.1293-.00229-.1916.01536-.0622.01764-.1203.04736-.171.08747-.0508.04011-.0931.08982-.1246.14629-.0315.05647-.0516.11859-.0591.18282-.0075.06423-.0023.12931.0153.19153.0177.06221.0474.12034.0875.17107s.0898.09306.1463.12458l9.91 5.67c-.2099.3697-.4001.7503-.57 1.14l-15-5.49c-.1248-.04236-.2611-.03478-.3804.02115-.1193.05592-.2124.15585-.2596.27885-.045.12465-.0387.26209.0175.38209.0563.12001.1579.21278.2825.25791zM40.1971 17.0005c1.1615.3309 2.4016.2496 3.51-.23-.0049.0264-.0049.0536 0 .08.0427.1138.0761.2308.1.35.0448.3103.1765.6015.38.84.2635.2237.5805.3753.92.44.1415.0311.279.0781.41.14 1.1445.7772 2.4965 1.1919 3.88 1.19 1.8425.0081 3.6139-.7105 4.93-2v-.07c.3899-.3293.6893-.7527.87-1.23.0949-.2616.1586-.5335.19-.81.0041-.0432.0041-.0868 0-.13.0926-1.5333-.3375-3.0527-1.22-4.31-2-3.1-5.51-5-8-4.34h-.06c-.5979.17424-1.1305.52232-1.53 1-.0402.01732-.0773.04095-.11.07-.2102.22158-.4072.45532-.59.7-1.2435-.45499-2.6114-.43362-3.84.06-.0874.03586-.1633.09484-.2197.17059-.0564.07576-.091.16544-.1003.25941-.0469.77951.0724 1.5601.35 2.29-1.303.0308-2.5518.5274-3.52 1.4-.0713.0639-.1232.1465-.1497.2385-.0265.0919-.0266.1895-.0003.2815.2756.8744.7689 1.6645 1.4336 2.2959.6647.6315 1.479 1.0837 2.3664 1.3141zm14.16-.89c-.096.2605-.2451.4982-.4379.6979-.1929.1997-.4251.3571-.6821.4621l-2.1-3.27 3.31 1.8c-.0194.1061-.0495.21-.09.31zm.18-1.4l-3.53-1.92 2.62-.72c.4922.8031.8028 1.7042.91 2.64zm-3.83-5.77c.9173.61097 1.7224 1.3755 2.38 2.26l-2.77.75.39-3.01zm1.53 8.55c-.8955.0051-1.7784-.2113-2.57-.63l.37-2.81 2.2 3.44zm-2.53-9.09l-.36 2.81-2.2-3.44c.8924-.00599 1.7723.21054 2.56.63zm-4.73.75c.0971-.26145.2477-.49971.4423-.69949.1946-.19977.4289-.35663.6877-.46051l2.1 3.27-3.31-1.8c.0207-.10581.0508-.20955.09-.31h-.01zm3.35 3.32l-2.62.72c-.4922-.8031-.8028-1.7042-.91-2.64l3.53 1.92zm.74.84l-.39 3c-.9173-.611-1.7224-1.3755-2.38-2.26l2.77-.74zm-5.24-2.49c.1597 1.1513.5767 2.2519 1.22 3.22.9405 1.4673 2.2286 2.6798 3.75 3.53.7919.4445 1.6603.7362 2.56.86-.8718.3121-1.8048.415-2.7237.3003-.9188-.1146-1.7979-.4436-2.5663-.9603-.2228-.1326-.4662-.2272-.72-.28-.1609-.0336-.3159-.0909-.46-.17-.0547-.1216-.095-.2491-.12-.38-.0398-.2497-.1318-.4882-.27-.7-.5556-.7756-.9073-1.6786-1.0226-2.6257-.1153-.9471.0094-1.908.3626-2.7943h-.01zm-.47-1.33c-.4239.7457-.7085 1.5624-.84 2.41-.2628-.1103-.5336-.2006-.81-.27-.22-.06-.43-.1-.65-.14h.18c-.3051-.6228-.4658-1.3065-.47-2 .8469-.26191 1.7531-.26191 2.6 0h-.01zm-1.92 3.06c.3502.1136.6859.2679 1 .46.007 1.0056.2502 1.9956.71 2.89-.5386.2079-1.1133.3064-1.6904.29-.5771-.0165-1.1452-.1477-1.6711-.386s-.9991-.5789-1.392-1.0019c-.3929-.4231-.6977-.9201-.8965-1.4621.5483-.4359 1.1926-.735 1.8795-.8724.6869-.1373 1.3967-.1091 2.0705.0824h-.01zM24.0874 43.6305c.2554-.0488.4817-.195.6311-.4078.1493-.2129.2099-.4755.1689-.7322-.0314-.1966-.1208-.3793-.2566-.5248-.1359-.1455-.3121-.2471-.5061-.2919-.194-.0447-.3969-.0306-.5827.0407-.1859.0712-.3463.1963-.4607.3593-.1143.1629-.1774.3563-.1812.5553-.0038.1991.0519.3947.1599.5619.1081.1672.2636.2983.4466.3766.183.0783.3852.1002.5808.0629z"/>
  <path d="M57.7069 36.2405c-4.9168-1.5142-10.2198-1.1581-14.89 1-1.3609.6446-2.6772 1.3796-3.94 2.2v-3.71c-.0002-.0848-.0224-.1681-.0645-.2417s-.1025-.1351-.1755-.1783c-.0738-.0394-.1562-.06-.24-.06-.0837 0-.1661.0206-.24.06-4.81 2.24-8.3 5.54-11.37 8.44-2.64 2.49-4.92 4.64-7.4 5.54-.9937.3679-2.0335.5968-3.09.68 1.2803-1.6938 1.861-3.8146 1.6221-5.9243-.2389-2.1097-1.279-4.047-2.9056-5.4116-1.6265-1.3647-3.7151-2.0524-5.83418-1.921-2.1191.1314-4.10676 1.0718-5.55228 2.6269-.08585.1015-.12867.2325-.11933.3652.00934.1326.0701.2563.16933.3448.04888.0435.10595.0767.16788.0978.06192.021.12743.0295.19267.0248.06523-.0047.12888-.0223.18718-.052.0583-.0296.11007-.0706.15227-.1206.63457-.7735 1.42176-1.4078 2.31242-1.8635.89067-.4557 1.86569-.7229 2.86423-.7849.99851-.0621 1.99911.0823 2.93941.4242.9402.3419 1.7999.8739 2.5253 1.5629.7255.6889 1.3011 1.52 1.6911 2.4413.3899.9214.5858 1.9132.5753 2.9136-.0104 1.0004-.2269 1.9879-.6361 2.9009-.4091.913-1.002 1.7319-1.7417 2.4055-.0614.0382-.1136.0895-.1529.1502-.0392.0608-.0645.1295-.0741.2012-.0095.0717-.0031.1446.0189.2135.0219.0689.0589.1321.1081.1851.0327.029.0699.0527.11.07.0695.0425.1487.0665.23.07h.56c1.3673-.0199 2.7208-.277 4-.76 2.67-1 5-3.19 7.74-5.75s6.1-5.76 10.41-7.92v3.56c-2.594 1.8728-5.0595 3.9173-7.38 6.12-4.85 4.43-9 8.26-15.45 8.26-8.11996 0-9.88996-6.7-9.88996-8.37.01621-1.5016.61918-2.9372 1.68-4 .84546-.8433 1.99086-1.3169 3.18496-1.3169 1.1942 0 2.3396.4736 3.185 1.3169.3314.3266.5946.7158.7742 1.1449.1796.4292.2721.8898.2721 1.3551 0 .4652-.0925.9259-.2721 1.355-.1796.4292-.4428.8184-.7742 1.145-.5077.5044-1.1943.7875-1.91.7875-.7156 0-1.40225-.2831-1.90996-.7875-.19382-.1899-.34697-.4173-.45012-.6683-.10315-.251-.15415-.5204-.14988-.7917-.00291-.2697.04874-.5371.15185-.7863.10311-.2492.25555-.475.44815-.6637.29432-.283.68676-.441 1.09496-.441.4083 0 .8007.158 1.095.441.2109.2129.3295.5003.33.8-.0001.3027-.1185.5934-.33.81-.0478.0449-.0859.0991-.112.1593-.026.0602-.0395.1251-.0395.1907 0 .0656.0135.1305.0395.1907.0261.0602.0642.1144.112.1593.0465.0469.1018.0841.1628.1094.0609.0254.1262.0385.1922.0385s.1314-.0131.1923-.0385c.061-.0253.1163-.0625.1627-.1094.391-.4015.6098-.9397.6098-1.5 0-.5604-.2188-1.0986-.6098-1.5-.4869-.4629-1.1331-.721-1.805-.721-.67181 0-1.31798.2581-1.80496.721-.5541.5817-.85899 1.3568-.84965 2.1602.00934.8033.33217 1.5711.89965 2.1398.69677.6913 1.63846 1.0792 2.61996 1.0792.9815 0 1.9233-.3879 2.62-1.0792.8409-.8468 1.3128-1.9917 1.3128-3.185s-.4719-2.3383-1.3128-3.185c-1.0341-1.0271-2.4324-1.6036-3.89-1.6036-1.45748 0-2.85585.5765-3.88996 1.6036-.62862.6156-1.12903 1.3497-1.47231 2.1599-.34328.8101-.52263 1.6802-.52769 2.5601 0 1.86 1.94 9.38 10.88996 9.38 6.79 0 11.33-4.14 16.13-8.52 2.1216-2.0089 4.3588-3.8921 6.7-5.64v3.4c.001.0973.0297.1923.0828.2738.0532.0815.1286.1461.2172.1862.0866.0396.1828.0531.277.0389.0941-.0142.182-.0555.253-.1189.05 0 4.7-4 9.37-4.65.1215.1835.3.3218.5081.3935.208.0718.4339.0729.6426.0032.2087-.0697.3886-.2063.5118-.3886.1232-.1823.1829-.4002.1697-.6198-.0132-.2197-.0984-.4289-.2426-.5951-.1441-.1663-.339-.2804-.5546-.3246-.2155-.0443-.4397-.0162-.6376.0799-.198.0961-.3587.2548-.4574.4515-3.83.54-7.53 3-9.14 4.24v-3.04c1.3874-.9461 2.8488-1.7788 4.37-2.49 4.4379-2.0534 9.4795-2.3883 14.15-.94.1261.0383.262.0264.3794-.0332.1175-.0597.2073-.1624.2506-.2868.0217-.0636.0303-.131.0253-.198-.005-.0671-.0234-.1324-.0542-.1922-.0308-.0597-.0734-.1126-.1251-.1555-.0517-.043-.1116-.075-.176-.0943z"/>
  <path d="M2.06725 37.9205c1.42887-1.5812 3.30349-2.6921 5.37658-3.1861 2.07309-.4941 4.24727-.3481 6.23567.4187 1.9884.7668 3.6977 2.1183 4.9024 3.8763 1.2046 1.7581 1.848 3.84 1.8453 5.9711 0 .1326.0527.2598.1465.3536.0938.0937.2209.1464.3535.1464.1319-.0026.2575-.0561.3508-.1493.0932-.0932.1467-.2189.1492-.3507.0022-2.3328-.7027-4.6114-2.0217-6.5355-1.3189-1.9241-3.1901-3.4032-5.3667-4.2425-2.1765-.8392-4.55635-.9991-6.82563-.4585-2.26927.5405-4.32144 1.7561-5.88592 3.4865-.04657.0456-.08356.1001-.10881.1602-.02526.0601-.03826.1246-.03826.1898s.013.1297.03826.1898c.02525.0601.06224.1146.10881.1602.04892.0497.1077.0887.17257.1143.06486.0256.13438.0374.20407.0346.0697-.0028.13803-.0202.2006-.051.06258-.0308.11802-.0744.16276-.1279zM2.40698 41.3305c-.0928-.0373-.19252-.0542-.29243-.0497-.09991.0045-.19769.0304-.28676.0759-.08907.0454-.16736.1095-.2296.1878-.06224.0782-.10698.169-.13121.266-.02667.094-.03334.1926-.01959.2894.01375.0968.04763.1897.09944.2726s.12042.154.2014.2088c.08097.0547.17252.092.26875.1092.17492.0452.36044.023.51975-.0622.15931-.0852.28076-.2272.34025-.3978.04199-.1814.01769-.3719-.06851-.537-.0862-.165-.22861-.2938-.40149-.363zM1.55718 45.4305c.17942-.0225.34347-.1127.45869-.2521.11521-.1394.17291-.3174.16131-.4979-.02685-.1863-.12104-.3564-.26476-.478-.14372-.1216-.32702-.1864-.51524-.182-.09868.0022-.19583.0249-.28524.0667-.08941.0418-.169124.1017-.234052.1761-.064928.0743-.113644.1614-.143037.2556-.029393.0942-.038818.1935-.027674.2916.011945.0979.043886.1924.093842.2774.049956.0851.116862.159.196565.2171.079706.0582.170506.0993.266766.1209.09626.0216.19593.0231.29283.0046zM1.45724 46.8905c-.09894.0301-.18986.082-.26604.1519s-.13567.1561-.17408.2521c-.038398.096-.054732.1994-.047789.3025.006942.1032.036989.2035.087909.2935.04134.0897.10069.1699.17437.2357.07367.0658.1601.1157.25389.1467.0938.0309.19296.0423.29131.0332.09836-.009.19382-.0381.28043-.0856.1684-.0784.29937-.2197.3648-.3936.06543-.1738.06012-.3664-.0148-.5364-.07724-.1755-.21872-.3147-.3954-.3891-.17668-.0743-.37513-.0783-.5546-.0109zM125.547 19.9005l-.6-1.86-.61 1.86h-1.96l1.59 1.15-.61 1.86 1.59-1.15 1.58 1.15-.6-1.86 1.58-1.15h-1.96z"/>
  <path d="M148.827 30.7005c-.112.1514-.191.3254-.23.51-.027.1595-.023.323.012.4809.036.158.102.3074.196.4397.093.1324.212.245.348.3315.137.0866.29.1453.449.1729.16.0276.323.0235.481-.0121.158-.0356.308-.102.44-.1953.132-.0933.245-.2118.331-.3486.087-.1369.146-.2895.173-.449.029-.1618.024-.3278-.014-.4876-.038-.1599-.108-.3105-.206-.4424-.038-.0514-.081-.0983-.13-.14-.137-.1329-.305-.2292-.49-.28-5.6-3.23-16.16 1.46-19.32 3l.76-4.4 2.74-.8c5.56-1.63 10.88-3.18 15.4-3.33.445.2709.847.6082 1.19 1 .251.3139.476.6484.67 1 .21.37.4.77.67 1.19.142-.4703.166-.9682.07-1.45-.1-.5014-.32-.9712-.64-1.37-.119-.1245-.246-.2414-.38-.35.28 0 .56 0 .83.06.46.6772.833 1.4096 1.11 2.18.14.4491.191.9213.15 1.39-.055.5268-.166 1.0463-.33 1.55.511-.3244.898-.8102 1.1-1.38.2-.6005.2-1.2495 0-1.85-.186-.5778-.509-1.1024-.94-1.53l-.28-.25c.077-.0055.154-.0055.23 0 .44.07.86.16 1.27.26.17.42.35.84.5 1.25.226.575.377 1.1766.45 1.79.05.5756-.05 1.1544-.29 1.68-.276.5982-.611 1.1677-1 1.7.679-.2528 1.265-.7062 1.68-1.3.457-.6297.664-1.4066.58-2.18-.098-.7174-.361-1.402-.77-2-.173-.2738-.37-.5315-.59-.77.61.16 1.18.33 1.72.52.378.7464.629 1.5509.74 2.38.065.4443.065.8957 0 1.34-.081.4985-.188.9924-.32 1.48.463-.3084.833-.7371 1.07-1.24.248-.5232.345-1.1049.28-1.68-.06-.5744-.27-1.1227-.61-1.59-.106-.1424-.223-.2762-.35-.4.831.3268 1.634.7214 2.4 1.18-.13.94-.2 1.82-.34 2.67-.08.4962-.19.9871-.33 1.47-.162.5042-.37.9929-.62 1.46.548-.2285 1.012-.6194 1.33-1.12.305-.506.509-1.0663.6-1.65.095-.5694.095-1.1506 0-1.72-.048-.2925-.122-.5802-.22-.86.487.3038.955.6377 1.4 1v2.37c-.022.4721-.068.9428-.14 1.41-.06.49-.17 1-.23 1.51.431-.3405.774-.7794 1-1.28.229-.4972.362-1.0334.39-1.58.031-.543-.03-1.0872-.18-1.61 0-.06-.06-.12-.08-.18.324.3178.631.6515.92 1-.198.5512-.322 1.1262-.37 1.71-.063.7308-.033 1.4668.09 2.19.302-.2698.526-.6149.65-1 .137-.3594.221-.7366.25-1.12.037-.3324.037-.6677 0-1 .252.3682.479.7523.68 1.15-.195.5447-.316 1.1131-.36 1.69-.063.7309-.032 1.4668.09 2.19.298-.2749.525-.6181.66-1 .128-.3585.212-.7312.25-1.11v-.64c.22.43.44.86.64 1.3.47 1 .9 1.92 1.29 3 .032-1.112-.141-2.2203-.51-3.27-.246-.6833-.533-1.3511-.86-2h.09c.36.1485.697.3471 1 .59.643.5263 1.182 1.1672 1.59 1.89-.105-.8968-.486-1.7389-1.09-2.41-.305-.3563-.675-.6515-1.09-.87-.355-.1969-.74-.3354-1.14-.41-.14-.23-.29-.48-.47-.75.144.0505.291.0906.44.12.429.105.863.1851 1.3.24.901.1168 1.816.0694 2.7-.14-.787-.4783-1.673-.7723-2.59-.86-.452-.0451-.907-.0451-1.36 0-.291.0251-.579.0787-.86.16-.19-.25-.39-.5-.62-.75.273.015.547.015.82 0 .471-.0392.935-.14 1.38-.3.459-.1505.879-.3997 1.23-.73-.892-.0657-1.788-.0657-2.68 0l-1.29.11h-.29l-.68-.59c.333.0391.668.0391 1 0 .503-.0961.982-.2898 1.41-.57.436-.2801.764-.6996.93-1.19-.798.3778-1.647.6372-2.52.77-.42.1-.86.13-1.3.22l-.52.08c-.44-.3083-.898-.5921-1.37-.85.361-.0032.72-.0468 1.07-.13.527-.1415 1.02-.3862 1.45-.72.448-.3185.773-.7809.92-1.31-.847.5047-1.768.8726-2.73 1.09-.44.14-.9.21-1.37.32l-.73.15c-.42-.18-.85-.36-1.31-.52 1.006-.1364 1.95-.56 2.72-1.22.416-.3198.757-.7258 1-1.19-1 .33-1.81.73-2.66 1.09l-1.27.57-.83.39c-.426-.1267-.876-.2467-1.35-.36.726-.1743 1.407-.4978 2-.95.479-.3639.906-.7911 1.27-1.27.375-.4752.653-1.0186.82-1.6-1 .71-1.81 1.43-2.69 2.07-.43.34-.88.63-1.34.93-.46.3-.68.42-1 .62l-.49-.1-.72-.1c.414-.1572.802-.3763 1.15-.65.576-.4406 1.027-1.0229 1.31-1.69.285-.6538.328-1.3877.12-2.07-.316 1.1938-1.019 2.2489-2 3-.485.3798-1.004.7145-1.55 1l-.69.35h-.53c.05 0 .1 0 .14-.07.505-.2901.942-.6858 1.28-1.16.343-.4685.535-1.03.55-1.61-.666.7639-1.458 1.4097-2.34 1.91-.42.26-.87.47-1.32.71l-.67.33c-4.26.41-9.05 1.81-14 3.27l-2.26.66.78-4.51c.14-.1.28-.22.41-.33.65-.56.53-1.06.44-1.25-.085-.1846-.23-.3351-.412-.4276-.181-.0924-.388-.1214-.588-.0824-.16.0117-.311.0774-.43.1864-.118.109-.195.2548-.22.4136l-.17.94c-5.43 4-15.36 3.92-17.66 3.52-.131-.0205-.264.0109-.373.0874-.108.0766-.182.1923-.207.3226-.02.131.011.2648.088.3731.076.1083.192.1825.322.2069 2.38.41 11.73.52 17.59-3.14l-.69 4c-6.75 1.92-13.55 3.51-19.51 2.48-3.1-.54-7.3-2.35-9.19-5.05-2.9997-4.32-2.2897-10.3 1.65-13.07 3.21-2.26 8.28-1.27 10.63 2.07.867 1.2325 1.21 2.7585.953 4.2433-.257 1.4847-1.092 2.807-2.323 3.6767-.486.3534-1.039.6045-1.625.7382-.587.1338-1.194.1473-1.785.0398-.592-.1075-1.156-.3337-1.657-.6651-.502-.3314-.932-.761-1.263-1.2629-.264-.3693-.452-.7879-.552-1.2311-.099-.4432-.109-.9019-.028-1.3489.077-.4462.241-.8729.483-1.2556.242-.3826.557-.7138.927-.9744.288-.2031.612-.3474.955-.4246.344-.0772.699-.0859 1.045-.0254.345.0577.675.1839.971.3711.295.1872.55.4316.749.7189.158.2165.271.4625.331.7234.061.2609.069.5314.023.7953-.045.264-.144.5161-.289.7413-.145.2253-.333.4191-.555.57-.326.2154-.722.2961-1.106.2253-.384-.0709-.726-.2878-.954-.6053-.038-.0539-.086-.0997-.142-.1348-.056-.0352-.118-.059-.183-.0702-.065-.0111-.131-.0094-.196.0052-.064.0146-.125.0417-.179.0798-.054.0381-.099.0864-.134.1422-.036.0558-.059.1179-.071.1829-.011.065-.009.1316.006.1959.014.0643.041.1251.079.179.387.5468.974.9181 1.634 1.0324.66.1144 1.338-.0375 1.886-.4224.328-.2267.608-.5165.823-.8525.214-.3359.36-.7114.428-1.1043s.057-.7954-.032-1.184c-.09-.3886-.256-.7555-.489-1.0792-.274-.3963-.625-.7333-1.032-.991-.407-.2577-.862-.4308-1.338-.509-.472-.0839-.957-.0732-1.426.0315-.468.1047-.912.3013-1.304.5785-.491.3372-.909.7693-1.23 1.2708-.321.5015-.539 1.0623-.64 1.6492-.101.5755-.087 1.1654.041 1.7354.129.5701.37 1.1087.709 1.5846.831 1.1797 2.095 1.9822 3.515 2.2315 1.421.2493 2.883-.0749 4.065-.9015 1.448-1.0211 2.432-2.5747 2.735-4.3201.304-1.7453-.097-3.5398-1.115-4.9899-1.348-1.8432-3.346-3.1051-5.59-3.53-1.098-.2413-2.234-.2603-3.34-.0559-1.106.2043-2.16.628-3.1 1.2459-4.3797 3.08-5.2397 9.71-1.89 14.47 2.07 2.94 6.43 4.86 9.84 5.45 6 1.05 12.78-.48 19.49-2.37l-.82 4.9c-.017.0922-.007.1875.028.2743.036.0869.096.1617.172.2157.083.0655.185.1008.29.1.084-.0008.166-.0214.24-.06.09-.07 12.09-6.38 18.39-3.91z"/>
  <path d="M108.917 7.8805c2.784.00264 5.453 1.10974 7.422 3.0783 1.968 1.9686 3.075 4.6377 3.078 7.4217.005 1.6701-.392 3.3167-1.16 4.8-.031.0589-.05.1235-.055.1898-.006.0663.002.1331.022.1965.02.0633.053.1219.097.1723.043.0505.096.0917.156.1214.069.0307.144.0476.22.05.093.0011.184-.0235.263-.0712.08-.0477.144-.1165.187-.1988.835-1.6278 1.27-3.4308 1.27-5.26-.006-.5726-.053-1.144-.14-1.71l12.34-1.29c.131-.0151.251-.0814.333-.1844.083-.103.121-.2344.107-.3656-.006-.0658-.025-.1297-.057-.188-.031-.0583-.073-.1099-.124-.1517-.051-.0419-.11-.0732-.174-.0921-.063-.0189-.129-.0251-.195-.0182l-12.42 1.31c-.08-.31-.16-.61-.26-.91l15-5.49c.063-.02095.122-.05442.172-.09843.051-.04401.092-.09766.121-.15778.029-.06013.046-.1255.05-.19226.003-.06676-.007-.13355-.03-.19641-.022-.06287-.057-.12053-.103-.16959-.045-.04906-.1-.08851-.161-.11603-.061-.02751-.127-.04253-.193-.04416-.067-.00164-.134.01015-.196.03466l-15 5.49c-.173-.3899-.367-.7704-.58-1.14l9.92-5.67c.064-.02882.121-.07069.167-.12291.047-.05222.082-.11363.103-.18026.022-.06663.029-.137.021-.20655-.007-.06955-.03-.13674-.065-.19722-.035-.06048-.082-.11291-.139-.1539-.057-.04099-.121-.06962-.19-.08405-.068-.01442-.139-.01432-.207.0003-.069.01462-.133.04344-.19.08459l-10 5.68c-.267-.381-.558-.745-.87-1.09l11.52-9.23c.051-.04071.093-.09098.124-.14794.031-.05696.05-.11949.057-.18403.007-.06454.002-.12981-.017-.1921-.018-.062291-.048-.120373-.089-.170932-.041-.050559-.091-.092605-.148-.123736-.057-.031132-.119-.050739-.184-.057704-.065-.006964-.13-.001149-.192.017114s-.12.048616-.171.089326l-11.55 9.280002c-.22-.21-.45-.41-.68-.6l5.82-8c.04-.05182.069-.11126.085-.17467s.019-.12946.009-.19408c-.01-.06462-.034-.126454-.069-.181699-.035-.055246-.081-.102736-.135-.139553-.052-.039969-.111-.068922-.175-.085079-.063-.016157-.129-.019177-.194-.008875-.064.010302-.126.033709-.181.068783-.056.035073-.103.081072-.14.135171l-5.82 8.000002c-1.888-1.29396-4.121-1.99075-6.41-2-.133 0-.26.05268-.354.14644-.093.09377-.146.22095-.146.35356 0 .13261.053.25978.146.35355.094.09377.221.14645.354.14645v.02zM168.707 42.4605c0 .2351.083.4626.235.6425.151.1799.361.3007.592.3413.232.0406.47-.0017.674-.1194.203-.1178.359-.3034.439-.5244.041-.2567-.02-.5193-.169-.7322-.149-.2128-.376-.3591-.631-.4078-.257-.041-.519.0196-.732.1689-.213.1494-.359.3757-.408.6311z"/>
  <path d="M183.707 36.4705c-1.562-.0018-3.093.439-4.415 1.2713s-2.382 2.0221-3.056 3.4315c-.673 1.4095-.934 2.981-.752 4.5326.183 1.5516.801 3.0198 1.783 4.2346-1.056-.0832-2.096-.3121-3.09-.68-2.48-.9-4.76-3.05-7.4-5.54-3.08-2.9-6.57-6.2-11.38-8.44-.074-.0394-.156-.06-.24-.06-.084 0-.166.0206-.24.06-.07.0452-.128.1073-.169.1807-.04.0733-.061.1556-.061.2393v3.69c-1.281-.8245-2.618-1.5596-4-2.2-4.667-2.1584-9.967-2.5145-14.88-1-.126.0412-.23.1307-.29.2488-.06.1181-.071.2552-.03.3812.043.1244.133.2271.251.2868.117.0596.253.0715.379.0332 4.67-1.4483 9.712-1.1134 14.15.94 1.523.7304 2.985 1.5832 4.37 2.55v3.06c-1.6-1.21-5.3-3.7-9.13-4.24-.069-.1358-.167-.2541-.289-.3459-.121-.0919-.262-.1548-.411-.1841-.257-.041-.519.0196-.732.1689-.213.1494-.359.3757-.408.6311-.024.2162.022.4344.133.6217.111.1872.28.3331.481.4157.202.0825.424.0972.635.0417.21-.0555.397-.178.531-.3491 4.67.7 9.32 4.61 9.37 4.65.071.0651.16.1076.256.1224.095.0147.193.0009.28-.0397.088-.0406.162-.1062.212-.1885.051-.0823.076-.1777.072-.2742v-3.4c2.341 1.7479 4.578 3.6311 6.7 5.64 4.8 4.38 9.34 8.52 16.13 8.52 9 0 10.89-7.52 10.89-9.38-.015-1.7763-.734-3.474-2-4.72-1.034-1.0271-2.433-1.6036-3.89-1.6036-1.458 0-2.856.5765-3.89 1.6036-.841.8467-1.313 1.9917-1.313 3.185s.472 2.3382 1.313 3.185c.697.6913 1.638 1.0792 2.62 1.0792.981 0 1.923-.3879 2.62-1.0792.57-.5765.889-1.3544.889-2.165s-.319-1.5885-.889-2.165c-.487-.4629-1.133-.721-1.805-.721-.672 0-1.318.2581-1.805.721-.391.4014-.61.9396-.61 1.5 0 .5603.219 1.0985.61 1.5.046.0469.102.084.163.1094.061.0254.126.0385.192.0385s.131-.0131.192-.0385.116-.0625.163-.1094c.092-.0935.143-.2191.143-.35s-.051-.2565-.143-.35c-.107-.106-.191-.2323-.247-.3715-.057-.1391-.085-.2883-.083-.4385-.003-.1488.025-.2966.082-.4342s.141-.2621.248-.3658c.294-.283.687-.441 1.095-.441.408 0 .801.158 1.095.441.193.1887.345.4145.448.6637.103.2492.155.5166.152.7863.004.2713-.047.5407-.15.7917s-.256.4784-.45.6683c-.508.5044-1.194.7875-1.91.7875s-1.402-.2831-1.91-.7875c-.334-.3252-.599-.7139-.78-1.1433-.182-.4294-.275-.8907-.275-1.3567 0-.466.093-.9273.275-1.3567.181-.4294.446-.8181.78-1.1433.847-.8409 1.992-1.3128 3.185-1.3128s2.338.4719 3.185 1.3128c1.061 1.0628 1.664 2.4984 1.68 4 0 1.67-1.77 8.37-9.89 8.37-6.41 0-10.6-3.83-15.45-8.26-2.321-2.2026-4.786-4.2472-7.38-6.12v-3.48c4.31 2.16 7.54 5.21 10.41 7.92 2.72 2.56 5.06 4.78 7.74 5.75 1.279.4838 2.633.741 4 .76h.56c.081-.0035.16-.0275.23-.07.04-.0173.077-.041.11-.07.048-.0486.085-.1065.109-.1703.024-.0637.035-.1317.031-.1997-.005-.0772-.028-.1521-.068-.2182-.04-.0662-.096-.1217-.162-.1618-.747-.6711-1.348-1.4896-1.764-2.4041-.415-.9144-.637-1.905-.652-2.9093-.014-1.0044.18-2.0009.569-2.9268.39-.9259.967-1.7611 1.695-2.4532.728-.692 1.591-1.2259 2.536-1.5681.944-.3422 1.949-.4852 2.952-.4201 1.002.0652 1.98.337 2.872.7985.893.4615 1.68 1.1026 2.312 1.8831.087.1008.211.1627.345.172.133.0094.264-.0345.365-.122.101-.0875.163-.2115.172-.3447.009-.1331-.035-.2645-.122-.3653-.758-.8985-1.698-1.6253-2.758-2.1322-1.061-.507-2.217-.7823-3.392-.8078z"/>
  <path d="M172.627 45.5005c.133 0 .26-.0527.354-.1465.093-.0937.146-.2209.146-.3535-.003-2.1312.641-4.2131 1.846-5.9711 1.204-1.758 2.913-3.1095 4.902-3.8763 1.988-.7668 4.162-.9128 6.236-.4187 2.073.494 3.947 1.6049 5.376 3.1861.047.0469.102.084.163.1094.061.0254.126.0385.192.0385s.132-.0131.192-.0385c.061-.0254.117-.0625.163-.1094.047-.0456.084-.1001.109-.1602.025-.0601.038-.1246.038-.1898s-.013-.1297-.038-.1898c-.025-.0601-.062-.1146-.109-.1602-1.564-1.7304-3.616-2.946-5.886-3.4865-2.269-.5406-4.649-.3807-6.825.4585-2.177.8392-4.048 2.3184-5.367 4.2425-1.319 1.9241-2.024 4.2027-2.022 6.5355-.004.0707.006.1416.032.2079.025.0663.064.1265.114.1766.05.0501.11.089.176.1141.067.0251.137.0358.208.0314zM191.777 42.6305c.075-.0558.138-.1258.186-.206.048-.0802.079-.1691.093-.2615.013-.0924.008-.1865-.015-.277-.023-.0905-.063-.1757-.119-.2505-.056-.0749-.126-.138-.206-.1858-.08-.0478-.169-.0793-.261-.0928-.093-.0134-.187-.0086-.278.0143-.09.023-.175.0635-.25.1193-.151.1136-.252.2813-.282.4677-.029.1865.014.3773.122.5323.125.1389.295.2291.479.2548.185.0256.373-.0151.531-.1148zM191.907 44.0605c-.177.0473-.33.1606-.427.3167-.096.1562-.13.3434-.093.5233.054.1784.171.3309.329.4286.159.0977.348.1338.531.1014.099-.0134.194-.0474.279-.0999.085-.0525.157-.1223.214-.2048.056-.0825.094-.1759.111-.2741.018-.0982.014-.199-.01-.2958-.024-.0969-.068-.1875-.129-.2661-.062-.0787-.139-.1434-.227-.1902-.088-.0467-.185-.0744-.285-.0811-.099-.0067-.199.0076-.293.042zM191.847 46.8405c-.181-.009-.359.051-.499.1678-.139.1168-.228.2819-.251.4622-.009.189.052.3746.172.5207.121.1461.291.2421.478.2693.098.0125.197.0052.291-.0215.095-.0267.183-.0723.26-.1339.076-.0616.14-.1381.186-.2248.046-.0867.075-.1819.083-.2798.007-.0982-.006-.1968-.04-.2895-.033-.0927-.085-.1774-.153-.2489-.067-.0715-.149-.1281-.24-.1662-.091-.0382-.188-.057-.287-.0554zM138.157 15.7405c.035.2769.102.5488.2.81.182.4795.481.9058.87 1.24v.06c1.147 1.1373 2.651 1.8433 4.259 1.9982 1.607.1549 3.219-.2507 4.561-1.1482.131-.0619.269-.1089.41-.14.341-.0611.659-.2131.92-.44.196-.2432.327-.5323.38-.84.019-.1171.053-.2313.1-.34l.05-.09c1.105.4797 2.342.561 3.5.23.884-.2446 1.691-.7112 2.344-1.3552.652-.6441 1.13-1.4444 1.386-2.3248.028-.0895.03-.1851.005-.2755-.025-.0904-.075-.1718-.145-.2345-.964-.8793-2.215-1.3801-3.52-1.41.28-.7291.397-1.51097.34-2.29-.005-.09386-.036-.1843-.091-.26054s-.131-.13507-.219-.16946c-1.218-.4762-2.567-.4975-3.8-.06-.174-.24568-.368-.47647-.58-.69-.029-.03531-.067-.06278-.11-.08-.401-.48073-.937-.82926-1.54-1-2.55-.66-6.07 1.23-8.06 4.33-.909 1.2694-1.357 2.8112-1.27 4.37 0 .0369.003.0738.01.11zm1.13.45c-.036-.1015-.066-.205-.09-.31l3.31-1.8-2.09 3.28c-.259-.105-.494-.2634-.689-.4649-.195-.2016-.345-.4418-.441-.7051zm16.83-2.77c-.199.5409-.503 1.037-.895 1.4595-.392.4226-.864.7632-1.388 1.0022-.525.239-1.092.3716-1.668.3902-.576.0186-1.15-.0772-1.689-.2819.455-.8997.698-1.8918.71-2.9.312-.1945.648-.3459 1-.45.67-.1903 1.376-.2189 2.059-.0833.684.1356 1.325.4315 1.871.8633zm-3.25-3.79c.007.6948-.154 1.381-.47 2h.19c-.219.0279-.436.0713-.65.13-.282.0814-.557.1885-.82.32-.122-.8531-.407-1.6747-.84-2.42.841-.26964 1.744-.2801 2.59-.03zm-3.06 1.33c.35.8914.469 1.8569.344 2.8064-.124.9495-.486 1.8521-1.054 2.6236-.136.2126-.228.4507-.27.7-.034.1329-.077.2632-.13.39-.142.0812-.298.1354-.46.16-.25.0583-.49.1562-.71.29-.771.5102-1.65.8353-2.567.9498-.918.1145-1.85.0153-2.723-.2898.898-.1313 1.765-.4226 2.56-.86 1.522-.8498 2.81-2.0624 3.75-3.53.674-.982 1.106-2.1093 1.26-3.29v.05zm-5.23 2.48l2.77.76c-.66.8791-1.465 1.6399-2.38 2.25l-.39-3.01zm3.36-.12l-2.63-.71 3.53-1.98c-.099.9362-.406 1.8383-.9 2.64v.05zm-.4-5.2c.262.09366.501.24073.702.43184.202.1911.361.42206.468.67816 0 .1.06.21.09.31l-3.31 1.8 2.05-3.22zm-1-.22l-2.2 3.44-.37-2.81c.777-.42641 1.645-.65964 2.53-.68l.04.05zm-2.47 9.09c-.79.4226-1.673.6425-2.57.64l2.2-3.44.37 2.8zm-1-7.92l.4 3-2.77-.75c.632-.8872 1.406-1.66426 2.29-2.3l.08.05zm-3 3.13l2.63.72-3.53 1.92c.076-.9495.367-1.8693.85-2.69l.05.05z"/>
</svg>