<svg fill="none" viewBox="0 0 204 125">
  <path fill="var(--fg)" stroke="var(--fg)" stroke-miterlimit="10" stroke-width=".928" d="M40.8932 90.0699c1.46.2 2.75.65 3.88 1.33 1.13.69 2.09 1.61 2.86 2.76.77 1.15 1.32 2.5 1.64 4.03.32 1.55.36 3.0001.12 4.3601-.25 1.35-.75 2.57-1.52 3.65s-1.78 2-3.05 2.77c-1.27.77-2.75 1.33-4.46 1.68l-4.94 1.02-2.88.6-4.22-20.3601 2.88-.6 4.94-1.02c1.71-.35 3.29-.42 4.75-.22zm2.85 17.0501c1.03-.63 1.84-1.37 2.43-2.23.59-.86.96-1.82 1.12-2.89.15-1.06.11-2.1901-.14-3.3701-.24-1.18-.65-2.23-1.21-3.13-.56-.9-1.28-1.63-2.17-2.19-.88-.56-1.92-.92-3.12-1.08-1.2-.17-2.55-.09-4.06.22l-2.65.55-3.05.63 3.33 16.0801 3.05-.63 2.65-.55c1.51-.31 2.78-.78 3.82-1.41zM70.8332 103.5c-.15-.71-.32-1.4-.5-2.08l-13.43 1.7c-.01.7 0 1.41.03 2.14.03.72.1 1.48.2 2.27l-2.15.27c-.41-3.2-.35-6.27.15-9.2101.42-2.37 1.13-4.57 2.13-6.62.43-.89.86-1.67 1.29-2.33.43-.66.83-1.22 1.2-1.66.36-.44.66-.78.89-1.01.23-.23.35-.35.37-.38l.59-.52.68.39c.02.02.17.11.45.29.28.17.65.44 1.1.8.45.36.97.82 1.55 1.36.58.55 1.18 1.2 1.82 1.95.75.88 1.43 1.81 2.04 2.79.61.98 1.17 2.01 1.66 3.08 1.24 2.7 2.06 5.6101 2.45 8.7301l-2.15.27c-.09-.77-.22-1.52-.37-2.23zm-1.21-4.1701c-.6-1.58-1.26-2.95-1.99-4.1-.73-1.16-1.42-2.14-2.08-2.95-.75-.88-1.45-1.61-2.1-2.17-.65-.57-1.17-.99-1.57-1.28-.31.38-.72.91-1.22 1.61-.5.69-1 1.56-1.48 2.6-.46.94-.89 2.06-1.3 3.37-.4 1.31-.7 2.82-.88 4.5401l12.62-1.6201zM78.623 105.17l-1.5-20.7301 2.1601-.16 1.5 20.7301-2.1601.16zM106.253 104.69c-.28-.39-.58-.77-.9-1.13-.32-.36-.66-.71-1.02-1.04-.27.2-.56.39-.84.57-.29.18-.59.35-.9.51-.1.04-.18.08-.25.11s-.15.07-.25.11c-1.14.51-2.3798.82-3.6998.93-.04 0-.08 0-.12.02-.04.01-.08.02-.12.02H96.9832c-.04 0-.08 0-.13-.01s-.09-.01-.13-.01c-.59-.03-1.18-.11-1.75-.23-.58-.12-1.14-.29-1.7-.5h-.03l-.12-.06-.12-.06c-.1-.04-.18-.07-.25-.1s-.14-.06-.22-.1c-.76-.37-1.46-.8-2.12-1.31-.66-.51-1.25-1.08-1.77-1.73-.78-.9401-1.38-1.9701-1.8-3.1001-.42-1.13-.63-2.3-.65-3.53-.01-1.31.2-2.56.64-3.75s1.09-2.29 1.95-3.29h-.03c1.05-1.24 2.31-2.19 3.77-2.86l.03-.03.06-.03c.02 0 .05-.01.09-.03.02-.02.04-.03.06-.03.02 0 .04-.01.06-.03.02 0 .04 0 .06-.02.02-.01.04-.02.06-.02l.16-.09c.02 0 .04-.01.06-.03.12-.04.2-.06.24-.06 0-.02.01-.03.03-.03l.27-.09h.03c.22-.08.45-.16.7-.23.25-.07.49-.13.73-.17h.06c.04-.02.08-.03.12-.03.04 0 .08-.01.12-.03h.09c.04 0 .07 0 .09-.02.02-.01.05-.01.09-.02h.15c.02-.02.07-.03.15-.03h.15c.02-.02.06-.03.12-.03h.18c.02-.02.06-.03.12-.03h.48c.08 0 .14-.01.18-.03h.18c.04.02.11.03.21.03H98.1032c.06 0 .11.01.15.03h.15c.06 0 .11.01.15.03h.12c.08 0 .13.01.15.03h.15c.04 0 .07 0 .09.01.02.01.05.01.09.01h.09c.04.02.08.03.12.03.04 0 .08.01.12.03h.06c.2.04.39.08.5798.13.19.05.38.1.58.16.04.02.09.03.15.04.06.01.11.02.15.04h.03c.04.02.12.05.24.09.02 0 .04.01.06.03.06 0 .13.02.21.06.02.02.04.03.06.03.04.02.07.03.09.04.02.01.05.01.09.01l.12.06c.02.02.04.03.06.03.02 0 .04.01.06.03.04.02.07.03.09.03.02 0 .04.01.06.03.02 0 .03.01.03.03 1.47.64 2.75 1.56 3.83 2.78.88.98 1.55 2.06 2.01 3.24.46 1.18.7 2.43.71 3.73.01 1.23-.18 2.41-.57 3.54-.39 1.13-.96 2.18-1.7 3.1401-.08.1-.16.19-.23.29-.07.1-.16.19-.23.28 1.1 1.1 2.07 2.3 2.89 3.62l-2.66-.01zM93.5132 86.0599c-1.04.49-1.95 1.13-2.71 1.92s-1.36 1.7-1.8 2.74c-.43 1.03-.64 2.14-.63 3.3v.45c.89.01 2.07.1 3.52.26 1.46.16 3.06.5 4.81 1.02 2.86.88 5.3898 2.17 7.5898 3.86.68-.78 1.23-1.66 1.63-2.65.4-.98.6-2.03.59-3.14-.01-1.17-.25-2.26-.71-3.29-.46-1.02-1.08-1.92-1.87-2.7-.79-.77-1.71-1.39-2.77-1.85-1.05-.46-2.1798-.72-3.3598-.76H96.8732c-1.19.07-2.32.35-3.36.84zm6.9398 16.0501c.78-.27 1.5-.62 2.17-1.06-.92-.68-1.91-1.2901-2.9898-1.8201-1.07-.53-2.24-.99-3.49-1.37-1.47-.44-2.84-.74-4.12-.9-1.28-.16-2.34-.26-3.2-.29.29.83.7 1.6 1.23 2.32.53.72 1.16 1.3401 1.88 1.8601.72.53 1.51.94 2.39 1.25.87.31 1.79.47 2.74.5h.03c.04 0 .08 0 .11.01s.06.01.1.01h.48c.04 0 .07-.01.1-.02s.06-.02.1-.02h.03c.84-.05 1.66-.2 2.4398-.47zM129.453 101.01c-.46.9-1.06 1.68-1.79 2.33-.73.65-1.57 1.16-2.51 1.52-.94.36-1.93.51-2.98.45h-.03c-.04 0-.08 0-.12.01-.04.01-.08.01-.12.01h-.03c-.04 0-.08-.01-.12-.02-.04-.01-.08-.02-.12-.02h-.03c-1.04-.1-2.01-.39-2.88-.88-.88-.49-1.63-1.11-2.26-1.86-.63-.75-1.11-1.6-1.44-2.5601-.33-.96-.45-1.97-.38-3.03l.01-.12.94-13.06 2.19.16-.95 13.09-.01.09c-.07.95.08 1.84.46 2.68.43.9601 1.06 1.7401 1.9 2.3401.84.6 1.79.93 2.86 1.01 1.05.08 2.03-.12 2.95-.59.92-.47 1.66-1.15 2.22-2.04h.03c.47-.7401.74-1.6001.81-2.5901l.01-.09v-.03l.94-13.06 2.19.16-.94 13.06-.01.12c-.06 1.03-.33 2.0201-.79 2.9201zM135.973 106.43l2.59-20.6301 2.15.27-2.59 20.6301-2.15-.27zM157.513 100.89c.33.38.64.77.92 1.15.28.38.55.8.81 1.25 1.28 2.15 2.07 4.6 2.37 7.35l-2.25-.41c-.53-3.58-1.94-6.47-4.24-8.69-.72-.68-1.52-1.3-2.41-1.8601l-4.26-.78-1.65 9.0301-2.16-.4 3.75-20.4501 1.05.19 1.11.2 6.72 1.23c.51.09 1.01.19 1.52.28.51.09 1.01.21 1.51.34.15.05.3.09.43.12s.28.09.43.15c.41.18.8.38 1.17.62.37.24.68.52.95.85.33.4.6.83.8 1.29.21.46.34.95.41 1.46.07.6.05 1.21-.06 1.83-.15.82-.42 1.56-.8 2.24-.39.67-.88 1.23-1.5 1.66-.61.43-1.33.7401-2.16.9201-.83.18-1.76.19-2.8.02.07.07.13.14.17.2.05.07.11.13.17.21zm-8.64-4.2101l3.91.72 4.79.88c1.4.26 2.48.11 3.22-.45.75-.56 1.21-1.34 1.4-2.36.19-1.03.02-1.93-.52-2.71-.53-.77-1.5-1.29-2.9-1.54l-4.7-.86-3.91-.72-1.29 7.04zM167.163 111.99l4.85-20.2101 2.11.51-4.85 20.2101-2.11-.51z"/>
  <path fill="var(--fg)" d="M59.3035 122.63c-.16.23-.34.46-.57.66-.22.21-.48.39-.77.55-.29.16-.61.28-.96.38-.35.09-.73.14-1.15.14-.69 0-1.33-.12-1.92-.36-.59-.24-1.1-.58-1.52-1.01-.42-.43-.76-.94-.99-1.53-.24-.59-.36-1.23-.36-1.94 0-.7.12-1.35.36-1.94.24-.59.58-1.1 1.01-1.53.43-.43.94-.76 1.52-1.01.58-.24 1.22-.36 1.9-.36.34 0 .67.03.99.1.32.07.63.17.92.3.29.13.55.28.78.46.23.18.43.38.58.61l-.78.57c-.1-.15-.22-.29-.38-.44-.16-.15-.35-.28-.57-.39-.22-.11-.45-.2-.71-.27-.26-.07-.53-.1-.83-.1-.6 0-1.13.11-1.6.32-.47.21-.87.51-1.2.87-.33.37-.58.79-.75 1.28-.17.48-.26.99-.26 1.53s.09 1.04.27 1.53c.18.48.43.91.76 1.27.33.37.73.66 1.2.87.47.22 1 .32 1.59.32.53 0 1.03-.11 1.51-.33.48-.22.87-.56 1.19-1.04l.74.49zM73.8735 119.52c0 .7-.12 1.35-.36 1.94-.24.59-.58 1.1-1.01 1.53-.43.43-.94.76-1.52 1.01-.58.24-1.22.36-1.9.36-.68 0-1.32-.12-1.9-.36-.58-.24-1.09-.58-1.52-1.01-.43-.43-.76-.94-1.01-1.53-.24-.59-.36-1.23-.36-1.94 0-.7.12-1.35.36-1.94.24-.59.58-1.1 1.01-1.53.43-.43.94-.76 1.52-1.01.58-.24 1.22-.36 1.9-.37.68 0 1.32.12 1.9.36.58.24 1.09.58 1.52 1.01.43.43.76.94 1.01 1.53.23.61.36 1.25.36 1.95zm-.99.01c0-.54-.09-1.05-.26-1.53s-.42-.91-.75-1.28-.73-.66-1.2-.88c-.47-.22-1-.32-1.59-.32-.59 0-1.12.11-1.59.33-.47.22-.87.51-1.2.88-.33.37-.58.79-.75 1.28-.17.48-.26.99-.26 1.53s.09 1.05.26 1.53.42.91.75 1.27.73.65 1.2.87c.47.22 1 .32 1.59.32.59 0 1.12-.11 1.59-.32.47-.21.87-.51 1.2-.87.33-.36.58-.79.75-1.27.17-.49.26-1 .26-1.54zM87.5735 122.63c-.16.23-.34.46-.57.66-.22.21-.48.39-.77.55-.29.16-.61.28-.96.38-.35.09-.73.14-1.15.14-.69 0-1.33-.12-1.92-.36-.59-.24-1.1-.58-1.52-1.01-.42-.43-.76-.94-.99-1.53-.24-.59-.36-1.23-.36-1.94 0-.7.12-1.35.36-1.94.24-.59.58-1.1 1.01-1.53.43-.43.94-.77 1.52-1.01.58-.24 1.22-.36 1.9-.36.34 0 .67.04.99.1.32.07.63.17.92.3.29.13.55.28.78.46.23.18.43.38.58.61l-.78.57c-.1-.15-.22-.29-.38-.44-.16-.15-.35-.28-.57-.39-.22-.11-.45-.2-.71-.27-.26-.07-.53-.1-.83-.1-.6 0-1.13.11-1.6.32-.47.21-.87.51-1.2.87-.33.37-.58.79-.75 1.28-.17.48-.26.99-.26 1.53s.09 1.04.27 1.53c.18.48.43.91.76 1.27.33.37.73.66 1.2.87.47.22 1 .32 1.59.32.53 0 1.03-.11 1.51-.33.48-.22.87-.56 1.19-1.04l.74.49zM94.1336 119.05h.01l4.38-4.13h1.34l-4.64 4.17 4.9004 5.03h-1.3804l-4.6-4.9h-.01v4.9h-.93v-9.2h.94l-.01 4.13zM108.173 124.11h-.94v-8.37h-3.08v-.83h7.09v.83h-3.08l.01 8.37zM115.794 124.11h-1.03l3.97-9.2h.91l3.95 9.2h-1.04l-1.01-2.42h-4.76l-.99 2.42zm1.35-3.27h4.05l-2.03-4.88-2.02 4.88zM130.014 124.11h-.931v-9.2h.931v9.2zM137.453 123.28h4.29v.83h-5.22v-9.2h.93v8.37zM151.614 116.39c-.2-.28-.46-.5-.77-.67-.31-.17-.69-.25-1.13-.25-.23 0-.46.03-.69.1-.23.07-.45.18-.64.32s-.34.32-.46.54c-.12.22-.17.47-.17.77 0 .29.06.54.17.73.11.19.26.35.45.49.19.13.4.25.63.33.24.09.49.17.75.26.32.1.64.22.96.34.32.12.62.28.88.47.26.2.47.44.63.74.16.3.25.68.25 1.14 0 .46-.09.86-.26 1.19-.17.33-.4.61-.68.83-.28.22-.6.38-.96.48-.36.1-.72.16-1.08.16-.28 0-.55-.03-.83-.08-.28-.06-.54-.14-.79-.25-.25-.11-.49-.26-.7-.43-.22-.17-.41-.37-.57-.6l.81-.6c.2.33.48.6.84.82.36.22.78.33 1.27.33.23 0 .47-.04.71-.11s.46-.19.66-.34c.19-.15.36-.34.48-.56.13-.22.19-.48.19-.77 0-.32-.06-.59-.19-.8-.13-.21-.29-.39-.5-.53-.21-.14-.45-.26-.71-.36-.27-.09-.55-.19-.84-.28-.3-.1-.6-.2-.9-.33-.29-.12-.56-.28-.79-.47-.23-.2-.42-.44-.57-.72-.14-.29-.21-.64-.21-1.05 0-.44.09-.82.27-1.14.18-.32.41-.58.7-.79.29-.21.6-.36.95-.45.35-.1.69-.14 1.03-.14.62 0 1.16.11 1.6.33.44.22.78.48 1 .79l-.79.56z"/>
  <path fill="var(--fg)" stroke="var(--fg)" stroke-width=".4992" d="M76.0635 76.6999c-.77 0-1.5-.14-2.2-.42-.7-.28-1.32-.68-1.87-1.21-.55-.53-.96-1.13-1.25-1.81-.29-.68-.43-1.39-.43-2.14 0-.75.14-1.46.43-2.13.29-.67.71-1.27 1.25-1.8s1.17-.93 1.87-1.21c.7-.28 1.43-.42 2.2-.42.86 0 1.67.17 2.43.51.76.34 1.41.83 1.96 1.47l-.83.71c-.45-.51-.98-.9-1.59-1.18-.62-.28-1.27-.42-1.96-.42-.64 0-1.24.12-1.81.36-.57.24-1.06.56-1.48.96-.42.4-.75.88-.99 1.42-.24.54-.36 1.12-.36 1.72 0 .62.12 1.2.36 1.74s.57 1.01.99 1.41c.42.4.91.72 1.48.95.57.23 1.17.35 1.81.35.73 0 1.41-.15 2.04-.45.63-.3 1.18-.73 1.63-1.28l.87.7c-.26.32-.56.62-.9.89-.33.27-.69.49-1.08.68-.81.41-1.67.6-2.57.6zM91.4134 74.1099c-.2.48-.48.89-.83 1.25s-.76.65-1.22.87c-.46.22-.97.33-1.5.34h-.02c-.02 0-.04 0-.06.01-.02 0-.04.01-.06.01h-.02c-.02 0-.04 0-.06-.01-.02-.01-.04-.01-.06-.01h-.02c-.54-.01-1.04-.12-1.5-.34-.47-.22-.87-.51-1.22-.87s-.63-.78-.83-1.25c-.2-.48-.3-.99-.3-1.53v-6.76h1.12v6.76c0 .49.11.94.33 1.35.25.48.6.85 1.06 1.12.45.27.95.41 1.5.41.54 0 1.03-.14 1.48-.41.45-.27.8-.65 1.06-1.12h.02c.21-.39.32-.84.32-1.35v-6.76h1.12v6.76c0 .54-.1 1.05-.31 1.53zM95.0933 76.0999v-10.29h5.8597c.5 0 .93.07 1.3.21.37.14.68.32.92.56.24.24.42.51.54.83.12.31.17.65.17 1.02 0 .54-.11.99-.34 1.35-.23.36-.57.62-1.02.77.69.16 1.22.49 1.61.99.39.5.58 1.09.58 1.79 0 .45-.07.86-.21 1.25-.14.39-.34.72-.62.99-.28.28-.63.5-1.06.66-.43.16-.92.24-1.49.24h-6.2397v-.37zm1.11-6h4.8297c.63 0 1.07-.15 1.34-.45.26-.3.39-.68.39-1.13 0-.47-.14-.85-.43-1.14-.29-.29-.77-.44-1.46-.44h-4.6697v3.16zm6.8197 4.65c.36-.39.55-.88.55-1.48 0-.29-.05-.57-.14-.82-.1-.25-.24-.47-.43-.65-.19-.18-.44-.32-.74-.42-.3-.1-.65-.15-1.05-.15h-5.0097v4.11h5.0497c.81 0 1.4-.2 1.77-.59zM116.013 75.2999c-.03-.37-.07-.73-.12-1.08h-6.92c-.05.35-.09.72-.12 1.08-.03.37-.05.76-.05 1.16h-1.11c0-1.65.22-3.2.67-4.66.36-1.17.87-2.25 1.5-3.22.27-.43.54-.79.81-1.1.26-.31.5-.56.71-.77.21-.2.38-.35.52-.46.13-.1.2-.16.21-.17l.33-.23.32.24c.01.01.08.07.21.17s.3.27.51.48c.21.21.44.48.7.79.26.31.52.68.8 1.11.32.5.61 1.01.86 1.55s.46 1.09.64 1.67c.46 1.45.68 2.98.68 4.59h-1.11c.01-.4-.01-.78-.04-1.15zm-.34-2.2c-.2-.84-.45-1.58-.74-2.21-.29-.63-.58-1.18-.87-1.63-.32-.5-.63-.91-.93-1.24-.29-.33-.53-.58-.71-.75-.18.17-.42.42-.72.74s-.6.73-.92 1.22c-.29.45-.58.99-.87 1.63-.29.64-.53 1.39-.74 2.25h6.5v-.01zM128.694 65.8299v10.63h-1.12v-4.22c-.88-1.79-2.13-3.16-3.74-4.11-.49-.29-.94-.52-1.36-.67-.42-.15-.77-.26-1.06-.33v9.34h-1.11v-10.62l.61.05c.01 0 .11.02.3.05.19.03.45.09.77.18s.69.22 1.1.39c.42.17.85.39 1.31.66 1.08.64 2.03 1.46 2.84 2.48.05.07.11.14.17.21.06.07.12.15.17.23v-4.25h1.12v-.02z"/>
  <path fill="currentColor" d="M42.3832 67.3199c-1.46 1.2-2.95 1.18-4.24-.39l-4.22-5.13c-1.4-1.7-1.08-3.24.33-4.4 1.41-1.16 2.84-.87 4.09.65l.81.99-1.16.96-.8-.97c-.64-.78-1.39-.99-2.07-.43-.73.6-.67 1.36-.04 2.12l4.09 4.97c.65.79 1.47 1.18 2.22.56.73-.6.67-1.31-.01-2.13l-.76-.93 1.16-.96.71.86c1.16 1.42 1.32 3.06-.11 4.23zM46.7834 63.6399l-7.03-10.22 1.3-.89 6.22 9.03 2.74-1.89.81 1.18-4.04 2.79zM57.2334 57.0799l-2.35-2.82-2.24 1.26 1.21 3.47-1.28.72-4.05-12.1 1.74-.99 8.4 9.64-1.43.82zm-6.88-8.22l-.06.03 1.9 5.38 1.84-1.04-3.68-4.37zM63.0831 54.4399c-1.53.7-2.97.22-3.84-1.68l-.21-.47 1.34-.61.1.23c.35.76.98 1.69 2.1 1.19.84-.38.81-1.22.35-2.22-.41-.9-1.26-1.32-2.06-1.5l-1.29-.27c-1.03-.21-2.22-.57-2.99-2.24-.8-1.77-.37-3.39 1.32-4.16 1.53-.7 2.88-.14 3.67 1.6l.25.55-1.32.6-.23-.5c-.35-.77-.98-1.31-1.82-.92-.89.4-.87 1.33-.53 2.09.5 1.1 1.47 1.18 2.2 1.37l1.06.28c1.23.3 2.43.67 3.19 2.35.84 1.84.57 3.46-1.29 4.31zM70.683 51.3699c-1.59.56-2.98-.04-3.68-2.01l-.17-.48 1.39-.49.08.23c.28.79.83 1.77 1.98 1.37.87-.31.91-1.15.55-2.18-.33-.94-1.14-1.42-1.92-1.67l-1.26-.38c-1.01-.3-2.16-.76-2.78-2.5-.65-1.84-.07-3.41 1.68-4.03 1.59-.56 2.88.11 3.51 1.92l.2.57-1.37.48-.18-.52c-.28-.8-.86-1.39-1.73-1.08-.92.32-.99 1.25-.71 2.04.4 1.14 1.36 1.31 2.07 1.56l1.03.37c1.2.41 2.36.88 2.97 2.62.68 1.91.26 3.51-1.66 4.18zM76.2331 49.3899l-3.28-11.96 1.52-.42 3.28 11.96-1.52.42zM83.8534 47.7899c-1.86.37-3.16-.35-3.56-2.35l-1.29-6.52c-.43-2.16.58-3.37 2.37-3.72 1.79-.35 2.92.58 3.3 2.51l.25 1.25-1.48.29-.25-1.23c-.2-.99-.75-1.53-1.62-1.36-.92.18-1.24.88-1.04 1.85l1.25 6.31c.2 1.01.74 1.73 1.7 1.54.92-.18 1.21-.84 1-1.88l-.23-1.18 1.48-.29.22 1.1c.35 1.8-.29 3.32-2.1 3.68zM96.8135 46.1799c-1.89.11-3.08-.78-3.2-2.82l-.38-6.63c-.13-2.19 1.04-3.25 2.86-3.36 1.82-.11 2.81.98 2.92 2.94l.07 1.27-1.5.09-.07-1.26c-.06-1.01-.54-1.62-1.42-1.57-.94.05-1.34.7-1.29 1.69l.37 6.42c.06 1.03.49 1.82 1.47 1.76.94-.05 1.31-.66 1.25-1.72l-.07-1.2 1.5-.09.06 1.11c.11 1.85-.74 3.26-2.57 3.37zM105.253 46.0899c-1.95-.06-2.9-1.21-2.84-3.06l.22-6.73c.06-1.86 1.1-3.1 3.05-3.04 1.98.07 2.9 1.36 2.84 3.25l-.22 6.47c-.06 1.82-1.12 3.17-3.05 3.11zm1.67-9.72c.03-.89-.32-1.61-1.31-1.64-1.01-.03-1.37.66-1.4 1.55l-.22 6.66c-.03.87.3 1.64 1.29 1.68 1.03.03 1.39-.66 1.42-1.59l.22-6.66zM111.313 46.2399l1.48-12.32 1.57.19-1.31 10.89 3.31.4-.17 1.43-4.88-.59zM118.923 47.2999l2.48-12.16 1.55.31-2.19 10.75 3.27.67-.29 1.41-4.82-.98zM126.393 48.9599l3.47-11.91 4.71 1.37-.4 1.38-3.2-.93-1.06 3.64 2.64.77-.4 1.38-2.64-.77-1.2 4.13 3.2.93-.4 1.38-4.72-1.37zM136.403 52.4899c-1.77-.69-2.48-1.99-1.74-3.89l2.41-6.19c.8-2.05 2.3-2.53 4-1.87 1.7.66 2.15 2.05 1.43 3.89l-.46 1.19-1.4-.55.46-1.17c.37-.94.19-1.7-.64-2.02-.87-.34-1.51.08-1.87 1l-2.34 5.99c-.37.96-.31 1.86.6 2.21.87.34 1.47-.06 1.85-1.05l.44-1.12 1.4.55-.41 1.04c-.66 1.72-2.02 2.66-3.73 1.99zM149.243 45.9799l-4.85 9.84-1.43-.7 4.85-9.84-1.88-.92.63-1.29 5.18 2.55-.64 1.29-1.86-.93zM148.533 58.0299l6.21-10.74 1.37.79-6.21 10.74-1.37-.79zM154.943 62.2699c-1.61-1.1-1.81-2.58-.77-4.1l3.79-5.57c1.05-1.54 2.59-2.04 4.2-.94 1.64 1.12 1.73 2.7.66 4.26l-3.64 5.35c-1.03 1.51-2.64 2.08-4.24 1zm6.61-7.32c.5-.73.59-1.53-.23-2.09-.84-.57-1.51-.17-2.01.56l-3.75 5.51c-.49.72-.62 1.55.2 2.11.85.58 1.53.18 2.05-.58l3.74-5.51zM163.353 68.4499l3.73-9.2-.04-.03-6.01 7.26-1.04-.86 7.91-9.56 1.38 1.14-3.5 8.47.03.02 5.58-6.74 1.05.87-7.93 9.59-1.16-.96z"/>
  <path fill="transparent" stroke="currentColor" stroke-miterlimit="10" stroke-width=".464" d="M197.163 58.8499c-2.94.42-6.1.66-6.47.3-.02-.02-.04-.05-.04-.08-.01-.09-.05-.32 1.84-.79 1.18-.29 2.77-.58 4.47-.83 1.7-.24 3.3-.4 4.52-.45 1.94-.08 1.98.15 1.99.24 0 .03 0 .06-.02.09-.25.44-3.36 1.1-6.29 1.52zm-.19-1.27c-1.68.24-3.25.53-4.42.82-1.75.43-1.77.64-1.77.65l.01.01c.24.24 2.74.18 6.35-.33 3.61-.51 6.03-1.15 6.19-1.45v-.01s-.08-.2-1.88-.12c-1.21.03-2.8.19-4.48.43z"/>
  <path fill="transparent" stroke="currentColor" stroke-linejoin="round" stroke-miterlimit="10" stroke-width=".928" d="M199.523 75.5799c-1.03.15-2 .24-2.74.28-1.2.05-1.22-.1-1.23-.17v-.02c-.03-.34.49-.65 1.15-1.04.85-.5 1.91-1.13 1.82-1.95-.15-1.5-.35-2.54-.63-3.97-.45-2.28-.95-3.59-2.32-4.33-4.86-2.63-4.95-5.33-4.92-5.3.24.24 2.88.17 6.49-.35 3.61-.51 6.31-1.42 6.32-1.38.42 3.08-2.54 4.96-3.22 6.37-.68 1.4-1.22 2.5-1.02 4.81.13 1.45.18 2.51.45 3.99.15.81 1.34 1.12 2.3 1.37.74.19 1.33.34 1.4.68v.02c.01.07.03.22-1.14.51-.72.15-1.68.33-2.71.48z"/>
  <path fill="currentColor" d="M197.393 64.0399c-.31-.25-3.23-1.73-4.08-3.04.91-.65 1.96-.62 4.1-.44 2.14.18 3.16-.57 4.12-.8-.34.67-.85 1.31-1.41 1.89-.75.79-1.43 2.02-1.54 2.19-.17.29-.76.54-1.19.2z"/>
  <path fill="transparent" stroke="currentColor" stroke-miterlimit="10" stroke-width=".464" d="M175.693 57.3299c-.02-.03-.02-.06-.02-.09.01-.09.05-.32 1.99-.24 1.22.05 2.82.21 4.52.45 1.7.24 3.28.54 4.47.83 1.89.47 1.86.7 1.84.79 0 .03-.02.06-.04.08-.36.36-3.53.12-6.47-.3s-6.04-1.08-6.29-1.52zm1.99-.2c-1.8-.08-1.88.12-1.88.12v.01c.17.3 2.58.94 6.19 1.45 3.61.51 6.11.57 6.35.33l.01-.01s-.02-.22-1.77-.65c-1.18-.29-2.75-.58-4.42-.82-1.68-.22-3.27-.38-4.48-.43z"/>
  <path fill="transparent" stroke="currentColor" stroke-linejoin="round" stroke-miterlimit="10" stroke-width=".928" d="M176.913 75.0799c-1.17-.29-1.15-.44-1.14-.51v-.02c.07-.34.65-.49 1.4-.68.96-.25 2.15-.55 2.3-1.37.27-1.48.32-2.54.45-3.99.2-2.31-.34-3.41-1.02-4.81-.69-1.41-3.64-3.29-3.22-6.37 0-.04 2.71.87 6.32 1.38 3.61.51 6.25.59 6.49.35.03-.03-.07 2.67-4.92 5.3-1.37.74-1.87 2.06-2.32 4.33-.28 1.43-.48 2.47-.63 3.97-.08.82.97 1.45 1.82 1.95.66.39 1.18.7 1.15 1.04v.02c-.01.07-.03.22-1.23.17-.74-.03-1.71-.13-2.74-.28-1.03-.13-1.99-.31-2.71-.48z"/>
  <path fill="currentColor" d="M181.753 64.0399c.31-.25 3.23-1.73 4.08-3.04-.91-.65-1.96-.62-4.1-.44-2.14.18-3.16-.57-4.12-.8.34.67.85 1.31 1.41 1.89.75.79 1.43 2.02 1.54 2.19.17.29.76.54 1.19.2z"/>
  <path stroke="currentColor" stroke-linecap="round" stroke-miterlimit="10" stroke-width=".928" d="M189.663 55.7999v-3.91M188.064 55.9299l-1.481-2.02M191.153 55.9299l1.48-2.02"/>
  <path fill="transparent" stroke="currentColor" stroke-miterlimit="10" stroke-width=".464" d="M22.2234 58.8499c-2.94.42-6.1.66-6.47.3-.02-.02-.04-.05-.04-.08-.01-.09-.05-.32 1.84-.79 1.18-.29 2.77-.58 4.47-.83 1.7-.24 3.3-.4 4.52-.45 1.94-.08 1.98.15 1.99.24 0 .03 0 .06-.02.09-.25.44-3.35 1.1-6.29 1.52zm-.18-1.27c-1.68.24-3.25.53-4.42.82-1.75.43-1.77.64-1.77.65l.01.01c.24.24 2.74.18 6.35-.33 3.61-.51 6.03-1.15 6.19-1.45v-.01s-.08-.2-1.88-.12c-1.21.03-2.8.19-4.48.43z"/>
  <path fill="transparent" stroke="currentColor" stroke-linejoin="round" stroke-miterlimit="10" stroke-width=".928" d="M24.5836 75.5799c-1.03.15-2 .24-2.74.28-1.2001.05-1.22-.1-1.23-.17v-.02c-.03-.34.49-.65 1.15-1.04.85-.5 1.91-1.13 1.8199-1.95-.15-1.5-.3499-2.54-.6299-3.97-.45-2.28-.95-3.59-2.32-4.33-4.86-2.63-4.95-5.33-4.92-5.3.24.24 2.88.17 6.49-.35 3.61-.51 6.31-1.42 6.32-1.38.42 3.08-2.54 4.96-3.22 6.37-.68 1.4-1.22 2.5-1.02 4.81.13 1.45.1799 2.51.45 3.99.1499.81 1.34 1.12 2.3 1.37.74.19 1.33.34 1.4.68v.02c.01.07.03.22-1.14.51-.72.15-1.68.33-2.71.48z"/>
  <path fill="currentColor" d="M22.4535 64.0399c-.31-.25-3.23-1.73-4.08-3.04.91-.65 1.96-.62 4.1-.44 2.14.18 3.16-.57 4.12-.8-.34.67-.85 1.31-1.41 1.89-.75.79-1.43 2.02-1.54 2.19-.17.29-.76.54-1.19.2z"/>
  <path fill="transparent" stroke="currentColor" stroke-miterlimit="10" stroke-width=".464" d="M.753398 57.3299c-.02-.03-.02-.06-.02-.09.01-.09.05-.32 1.990002-.24 1.22.05 2.82.21 4.52.45 1.7.24 3.28.54 4.47.83 1.89.47 1.86.7 1.84.79 0 .03-.02.06-.04.08-.36.36-3.53.12-6.47-.3-2.93-.42-6.04-1.08-6.290002-1.52zm2.000002-.2c-1.800002-.08-1.880002.12-1.880002.12v.01c.170002.3 2.580002.94 6.190002 1.45s6.11.57 6.35.33l.01-.01s-.02-.22-1.77-.65c-1.18-.29-2.75-.58-4.42-.82-1.68-.22-3.27-.38-4.48-.43z"/>
  <path fill="transparent" stroke="currentColor" stroke-linejoin="round" stroke-miterlimit="10" stroke-width=".928" d="M1.97338 75.0799c-1.170004-.29-1.150004-.44-1.140004-.51v-.02c.07-.34.650004-.49 1.400004-.68.96-.25 2.15-.55 2.3-1.37.27-1.48.32-2.54.45-3.99.2-2.31-.34-3.41-1.02-4.81-.69-1.41-3.640004-3.29-3.220004-6.37 0-.04 2.710004.87 6.320004 1.38 3.61002.51 6.25002.59 6.49002.35.03-.03-.07 2.67-4.92002 5.3-1.37.74-1.87 2.06-2.32 4.33-.28 1.43-.48 2.47-.63 3.97-.08.82.97 1.45 1.82 1.95.66.39 1.18.7 1.15 1.04v.02c-.01.07-.03.22-1.23.17-.74-.03-1.71-.13-2.74-.28-1.03-.13-1.99-.31-2.71-.48z"/>
  <path fill="currentColor" d="M6.81334 64.0399c.31-.25 3.22996-1.73 4.07996-3.04-.90996-.65-1.95996-.62-4.09996-.44-2.14.18-3.16-.57-4.12-.8.34.67.85 1.31 1.41 1.89.75.79 1.43 2.02 1.54 2.19.17.29.76.54 1.19.2z"/>
  <path stroke="currentColor" stroke-linecap="round" stroke-miterlimit="10" stroke-width=".928" d="M14.7334 55.7999v-3.91M13.1336 55.9299l-1.49-2.02M16.2134 55.9299l1.48-2.02"/>
  <path fill="currentColor" d="M76.1832 16.3199l.56 1.73h1.81l-1.46 1.06.56 1.73-1.47-1.07-1.47 1.07.56-1.73-1.47-1.06h1.82l.56-1.73zM89.7135 53.0499l.91 2.82h2.97l-2.4 1.74.92 2.82-2.4-1.74-2.4 1.74.91-2.82-2.39-1.74h2.96l.92-2.82zM102.313 51.8199l1.22 3.76h3.96l-3.2 2.32 1.22 3.76-3.2-2.32-3.1997 2.32 1.2197-3.76-3.1997-2.32h3.9597l1.22-3.76zM114.913 53.0499l.92 2.82h2.96l-2.39 1.74.91 2.82-2.4-1.74-2.4 1.74.92-2.82-2.4-1.74h2.97l.91-2.82zM135.903 69.7499l.69 2.1h2.21l-1.79 1.3.68 2.1-1.79-1.3-1.79 1.3.69-2.1-1.79-1.3h2.21l.68-2.1zM63.2836 69.7499l.69 2.1h2.21l-1.79 1.3.68 2.1-1.79-1.3-1.78 1.3.68-2.1-1.79-1.3h2.21l.68-2.1z"/>
  <path stroke="currentColor" stroke-linecap="round" stroke-width=".928" d="M91.6631 18.0699c-.6.85-1.77 1.05-2.62.46-1.06-.75-1.32-2.21-.57-3.27.93-1.33 2.76-1.65 4.09-.71 1.66 1.17 2.06 3.45.89 5.11-1.46 2.07-4.32 2.57-6.39 1.11-2.59-1.82-3.21-5.4-1.39-7.99 2.28-3.24002 7.28-4.31002 10.52-2.04 4.0499 2.85 4.4899 8.73 1.64 12.78-1.79 2.55-5.71 4.32-8.83 4.87-12.49 2.18-28.85-7.91-39.14-6.12-6.85 1.19-10.01 4.79-11.14 7.41"/>
  <path stroke="currentColor" stroke-linecap="round" stroke-linejoin="round" stroke-width=".928" d="M86.423 24.3799c-2.59.45-12.44.4-17.4-3.88-.83-.72.25-1.06.32-.64.06.34 1.99 11.43 1.99 11.43s-13.11-6.98-18.77-2.97"/>
  <path fill="currentColor" d="M53.1034 29.8799c.6296 0 1.14-.5104 1.14-1.14 0-.6296-.5104-1.14-1.14-1.14-.6296 0-1.14.5104-1.14 1.14 0 .6296.5104 1.14 1.14 1.14z"/>
  <path stroke="currentColor" stroke-linecap="round" stroke-linejoin="round" stroke-width=".928" d="M102.343 26.8399v-12.37c0-1.83-2.8495-7.40002-8.2995-7.40002 0 0 2.6-2.7 6.2195-.76 0 0-.9195-3.3 2.05-5.509999M102.343 14.4699c0-1.84 2.82-7.40002 8.28-7.40002 0 0-2.6-2.7-6.22-.76 0 0 .92-3.3-2.05-5.509999"/>
  <path fill="currentColor" d="M48.0634 17.6299c.35 1.21 1.02 2.08 1.89 2.75.42.36.93.61 1.44.9.26.12.53.26.8.39s.55.25.83.42c-.31.04-.63.03-.95.02-.31-.04-.63-.09-.94-.16-.61-.18-1.22-.43-1.75-.85-.52-.41-.97-.94-1.21-1.57-.25-.6-.33-1.29-.11-1.9z"/>
  <path fill="currentColor" d="M50.6934 18.9599c.7.78 1.37 1.31 2.17 1.77.39.24.81.44 1.23.66.43.22.87.42 1.32.7-1.03.19-2.1-.03-3.02-.56-.45-.28-.88-.63-1.18-1.08-.32-.43-.52-.95-.52-1.49zM44.6235 18.5499c.91.66 1.67 1.32 2.49 1.92.4.32.82.58 1.24.87.43.28.88.51 1.37.81-1.13.18-2.28-.27-3.17-.93-.44-.34-.85-.73-1.18-1.18-.32-.45-.6-.94-.75-1.49zM42.7734 20.5199c.91.31 1.67.68 2.47 1.01.78.37 1.55.66 2.41 1.13-.94.27-1.93.09-2.79-.28-.43-.2-.84-.44-1.19-.75-.37-.31-.69-.66-.9-1.11zM40.5835 21.8199c.84.5 1.61.77 2.44.99.41.12.84.19 1.27.29.44.09.89.17 1.37.32-.44.23-.92.36-1.41.4-.49.04-.99.01-1.47-.12-.48-.14-.95-.34-1.35-.66-.39-.31-.73-.72-.85-1.22zM38.4834 23.6199c.83.4 1.55.57 2.34.72.39.09.79.12 1.2.2.41.06.84.12 1.3.25-.4.25-.84.4-1.29.48-.45.07-.92.08-1.38-.01-.46-.09-.91-.25-1.31-.53-.38-.27-.74-.64-.86-1.11zM37.0034 25.6799c.9-.07 1.69-.01 2.49.03.8.07 1.57.1 2.47.29-.75.53-1.66.69-2.53.63-.87-.07-1.75-.32-2.43-.95zM35.1436 27.9699c.76-.49 1.58-.68 2.41-.79.42-.04.84-.06 1.26-.02.42.05.88.1 1.26.38-.43.11-.81.26-1.21.35-.4.1-.8.16-1.21.22-.81.07-1.64.1-2.51-.14zM35.7534 31.8899c.09-.81.44-1.59 1.01-2.24.28-.32.63-.6 1.02-.81.38-.23.82-.34 1.25-.42l.9-.16-.44.84c-.45.86-.92 1.74-1.34 2.63-.43.89-.83 1.78-1.19 2.75-.07-1.03.16-2.06.47-3.03.33-.97.74-1.9 1.27-2.8l.45.68c-.34.06-.69.12-1.01.27-.32.14-.63.31-.92.55-.57.44-1.06 1.05-1.47 1.74zM51.2732 22.0799c-.57.91-1.09 1.7-1.35 2.55-.15.42-.17.84-.15 1.29.01.46.18.91.31 1.44-.44-.3-.84-.73-1.02-1.28-.2-.54-.21-1.17-.03-1.72s.49-1.04.88-1.42c.38-.39.83-.71 1.36-.86z"/>
  <path fill="currentColor" d="M53.9234 22.1299c-.82.38-1.39.8-1.85 1.34-.23.27-.42.58-.62.92-.2.34-.37.71-.62 1.1-.14-.44-.16-.9-.06-1.35.08-.45.3-.89.6-1.27.32-.36.73-.65 1.19-.79.45-.14.94-.14 1.36.05zM49.0034 22.4099c-.24.6-.49 1.16-.7 1.73-.2.56-.38 1.12-.42 1.66-.12 1.04.46 2.07 1.18 3.14-.62-.23-1.15-.65-1.55-1.21-.4-.54-.64-1.3-.54-2.02.08-.7.36-1.33.71-1.88.35-.56.79-1.05 1.32-1.42zM46.7733 23.2799c-.42.91-.75 1.7-.82 2.52-.05.4-.04.82.03 1.24.05.43.19.86.3 1.37-.42-.28-.78-.67-.99-1.15-.24-.47-.31-1.03-.26-1.56.06-.53.26-1.05.57-1.47.3-.42.69-.77 1.17-.95zM43.6432 24.4899c.17 1.05.22 2.01.37 2.94.07.46.18.91.3 1.36.15.44.33.87.58 1.36-.5-.19-.93-.58-1.23-1.05-.29-.47-.47-1-.56-1.53-.08-.53-.08-1.07.01-1.59.08-.52.24-1.03.53-1.49zM42.0132 25.5999c0 1-.03 1.87.03 2.74.02.44.07.87.13 1.31.05.45.16.89.21 1.4-.79-.63-1.21-1.65-1.27-2.65-.02-.5.02-1.01.17-1.49.15-.48.38-.95.73-1.31zM40.3335 27.2499c.35.68.45 1.34.52 2 .05.67.04 1.28-.09 2.04-.3-.26-.48-.59-.6-.92-.14-.34-.19-.68-.23-1.03-.04-.71.02-1.42.4-2.09zM39.1436 29.0499c.35.68.45 1.34.52 2 .05.67.04 1.28-.09 2.04-.3-.26-.48-.59-.6-.92-.14-.34-.19-.68-.23-1.03-.04-.71.02-1.42.4-2.09z"/>
  <path stroke="currentColor" stroke-linecap="round" stroke-miterlimit="10" stroke-width=".928" d="M81.9733 21.2999c-.72-1.4-1.13-2.99-1.13-4.67 0-5.64 4.57-10.21002 10.21-10.21002M72.8135 5.69988l9.58 5.48002M79.3335.629883l5.57 7.649997M72.7231.639885l10.86 8.730005M67.1733 7.75988l14.26 5.22002M69.1133 13.3899l11.76 1.23"/>
  <path fill="transparent" stroke="currentColor" stroke-linecap="round" stroke-linejoin="round" stroke-miterlimit="10" stroke-width=".928" d="M54.2832 8.59988c1.32.96 1.96 2.49002 1.86 4.00002-1.41.56-3.07.42-4.38-.54-1.32-.96-1.96-2.49002-1.86-4.00002 1.41-.56 3.06-.42 4.38.54z"/>
  <path fill="transparent" stroke="currentColor" stroke-linecap="round" stroke-linejoin="round" stroke-miterlimit="10" stroke-width=".928" d="M51.0935 10.7799c1.57.44 2.71 1.65 3.14 3.1-1.13 1.02-2.73 1.46-4.3 1.02-1.57-.44-2.71-1.65-3.14-3.1 1.13-1.01 2.73-1.46 4.3-1.02z"/>
  <path fill="transparent" d="M54.1634 7.25989c-2.13 2.13-2.43 5.34001-.68 7.69001.17.23.19.84.4 1.05.28.28.86.27 1.17.48 2.33 1.57 5.53 1.33 7.59-.73"/>
  <path stroke="currentColor" stroke-linecap="round" stroke-linejoin="round" stroke-miterlimit="10" stroke-width=".928" d="M54.1634 7.25989c-2.13 2.13-2.43 5.34001-.68 7.69001.17.23.19.84.4 1.05.28.28.86.27 1.17.48 2.33 1.57 5.53 1.33 7.59-.73"/>
  <path fill="transparent" stroke="currentColor" stroke-linecap="round" stroke-linejoin="round" stroke-miterlimit="10" stroke-width=".928" d="M62.8471 15.5442c1.4527-1.4527.7309-4.5299-1.6122-6.87301-2.3432-2.34312-5.4203-3.06492-6.873-1.61219-1.4528 1.45274-.731 4.5299 1.6121 6.873 2.3432 2.3431 5.4203 3.0649 6.8731 1.6122z"/>
  <path stroke="currentColor" stroke-linecap="round" stroke-linejoin="round" stroke-miterlimit="10" stroke-width=".928" d="M61.7234 16.1699l-6.24-9.75002M58.0532 15.4999l1.1-8.40002M54.7134 12.3599l7.79-2.12M53.6436 8.59988l9.92 5.40002"/>
  <path fill="currentColor" d="M57.9134 37.4999c.5026 0 .91-.4074.91-.91s-.4074-.91-.91-.91-.91.4074-.91.91.4074.91.91.91zM34.7132 40.0499c.5026 0 .91-.4074.91-.91s-.4074-.91-.91-.91-.91.4074-.91.91.4074.91.91.91z"/>
  <path stroke="currentColor" stroke-linecap="round" stroke-miterlimit="10" stroke-width=".928" d="M65.9533 33.6499c-4.51-1.46-9.57-.93-13.47.89-11.09 5.18-15.45 16.05-25.97 16.05-7.66 0-9.65-6.33-9.65-8.25"/>
  <path stroke="currentColor" stroke-linecap="round" stroke-linejoin="round" stroke-miterlimit="10" stroke-width=".928" d="M26.5933 46.3899c1.16.08 2.52-.09 4.1-.66 5.14-1.86 9.23-9.15 17.46-12.99l.01 8.34s4.64-3.96 9.29-4.49"/>
  <path stroke="currentColor" stroke-linecap="round" stroke-miterlimit="10" stroke-width=".928" d="M16.8633 42.3599c.01-1.47.58-2.94 1.7-4.06 1.81-1.81 4.75-1.81 6.56 0 1.45 1.45 1.45 3.8 0 5.25-1.16 1.16-3.04 1.16-4.2 0-.93-.93-.93-2.43 0-3.36.74-.74 1.95-.74 2.69 0 .59.59.59 1.56 0 2.15"/>
  <path stroke="currentColor" stroke-linecap="round" stroke-linejoin="round" stroke-miterlimit="10" stroke-width=".928" d="M16.2231 36.3899c1.32-1.53 3.28-2.5 5.46-2.5 3.99 0 7.22 3.23 7.22 7.22 0 2.09-.89 3.97-2.31 5.29"/>
  <path stroke="currentColor" stroke-linecap="round" stroke-linejoin="round" stroke-miterlimit="10" stroke-width=".928" d="M14.0835 34.4599c1.88-2.07 4.58-3.37 7.6-3.37 5.66 0 10.25 4.59 10.25 10.25"/>
  <path fill="currentColor" d="M14.7434 37.9299c.35.15.52.52.44.84-.1.31-.42.5-.8.43-.37-.07-.61-.43-.51-.82.11-.39.52-.6.87-.45zM13.8035 40.4299c.37 0 .7.29.73.61.03.32-.2.63-.58.7-.37.07-.73-.17-.78-.57-.04-.41.26-.75.63-.74zM13.8534 43.0899c.36-.12.75.04.87.34.16.3.01.67-.32.85-.33.18-.74.05-.92-.3-.18-.34.03-.77.37-.89z"/>
  <path fill="currentColor" d="M128.463 16.3199l-.57 1.73h-1.81l1.47 1.06-.56 1.73 1.47-1.07 1.47 1.07-.57-1.73 1.47-1.06h-1.81l-.56-1.73z"/>
  <path stroke="currentColor" stroke-linecap="round" stroke-width=".928" d="M112.973 18.0699c.6.85 1.77 1.05 2.62.46 1.06-.75 1.32-2.21.57-3.27-.93-1.33-2.76-1.65-4.09-.71-1.66 1.17-2.06 3.45-.89 5.11 1.46 2.07 4.32 2.57 6.39 1.11 2.59-1.82 3.21-5.4 1.39-7.99-2.28-3.24002-7.28-4.31002-10.52-2.04-4.05 2.85-4.49 8.73-1.64 12.78 1.79 2.55 5.71 4.32 8.83 4.87 12.49 2.18 28.85-7.91 39.14-6.12 6.85 1.19 10.01 4.79 11.14 7.41"/>
  <path stroke="currentColor" stroke-linecap="round" stroke-linejoin="round" stroke-width=".928" d="M118.213 24.3799c2.59.45 12.44.4 17.4-3.88.83-.72-.25-1.06-.32-.64-.06.34-1.99 11.43-1.99 11.43s13.11-6.98 18.77-2.97"/>
  <path fill="currentColor" d="M151.543 29.8799c.63 0 1.14-.5104 1.14-1.14 0-.6296-.51-1.14-1.14-1.14-.629 0-1.14.5104-1.14 1.14 0 .6296.511 1.14 1.14 1.14zM156.584 17.6299c.21.61.14 1.3-.11 1.92-.24.63-.7 1.16-1.21 1.57-.52.42-1.14.67-1.75.85-.31.07-.63.12-.94.16-.32.01-.63.01-.95-.02.28-.17.56-.29.83-.42.27-.14.53-.27.8-.39.5-.29 1.01-.54 1.44-.9.87-.68 1.53-1.56 1.89-2.77z"/>
  <path fill="currentColor" d="M153.943 18.9599c0 .53-.2 1.05-.51 1.49-.31.45-.73.8-1.18 1.08-.93.53-1.99.75-3.02.56.45-.29.9-.48 1.32-.7.42-.22.84-.42 1.23-.66.79-.45 1.46-.98 2.16-1.77zM160.013 18.5499c-.14.55-.43 1.04-.76 1.48-.33.45-.74.84-1.18 1.18-.89.66-2.04 1.11-3.17.93.49-.3.94-.53 1.37-.81.42-.28.85-.55 1.24-.87.83-.59 1.59-1.25 2.5-1.91zM161.863 20.5199c-.21.44-.53.8-.89 1.11-.36.31-.77.55-1.19.75-.86.38-1.85.55-2.79.28.85-.47 1.63-.76 2.41-1.13.79-.33 1.55-.7 2.46-1.01zM164.053 21.8199c-.12.5-.46.91-.86 1.22-.4.32-.87.53-1.35.66-.49.13-.99.16-1.47.12-.49-.04-.97-.17-1.41-.4.48-.15.93-.23 1.37-.32.44-.1.86-.17 1.27-.29.84-.22 1.61-.49 2.45-.99zM166.163 23.6199c-.13.47-.48.83-.87 1.1-.39.28-.85.43-1.31.53-.46.09-.93.08-1.38.01-.45-.08-.89-.22-1.29-.48.46-.13.88-.19 1.3-.25.41-.08.81-.11 1.2-.2.79-.13 1.52-.3 2.35-.71zM167.633 25.6799c-.68.63-1.56.88-2.43.95-.87.05-1.79-.1-2.53-.63.89-.19 1.67-.22 2.47-.29.81-.04 1.59-.1 2.49-.03zM169.493 27.9699c-.87.24-1.7.21-2.51.13-.41-.05-.81-.12-1.21-.22-.41-.09-.78-.23-1.21-.35.38-.27.84-.33 1.26-.38.43-.04.85-.02 1.26.02.83.12 1.65.32 2.41.8zM168.884 31.8899c-.41-.69-.9-1.3-1.47-1.75-.28-.23-.6-.41-.92-.55-.32-.14-.67-.21-1.01-.27l.45-.68c.53.89.94 1.83 1.27 2.8.31.97.54 2 .47 3.03-.36-.96-.76-1.85-1.19-2.75-.42-.89-.88-1.77-1.34-2.63l-.44-.84.9.16c.43.08.87.19 1.25.42.39.21.74.48 1.02.81.57.66.93 1.44 1.01 2.25zM153.374 22.0799c.52.16.98.47 1.36.85.39.38.69.87.88 1.42.17.55.17 1.18-.03 1.72-.17.55-.58.98-1.02 1.28.13-.53.3-.98.31-1.44.02-.45 0-.87-.15-1.29-.26-.84-.79-1.63-1.35-2.54z"/>
  <path fill="currentColor" d="M150.713 22.1299c.43-.19.92-.18 1.37-.04.46.13.87.43 1.19.79.3.38.51.82.6 1.27.09.45.07.91-.06 1.35-.25-.39-.42-.76-.62-1.1-.2-.34-.4-.64-.62-.92-.47-.55-1.04-.97-1.86-1.35zM155.633 22.4099c.53.37.97.86 1.32 1.41.35.55.63 1.18.71 1.88.1.72-.14 1.48-.54 2.02-.4.56-.93.98-1.55 1.21.72-1.07 1.3-2.1 1.18-3.14-.04-.54-.22-1.1-.42-1.66-.21-.56-.46-1.12-.7-1.72zM157.863 23.2799c.48.19.87.54 1.18.95.31.42.5.93.57 1.47.05.53-.02 1.09-.26 1.56-.21.48-.57.87-.99 1.15.1-.51.24-.94.3-1.37.07-.43.08-.84.03-1.24-.08-.82-.41-1.61-.83-2.52zM160.993 24.4899c.29.46.44.97.53 1.49.09.52.09 1.06.01 1.59-.1.53-.27 1.06-.56 1.53-.3.46-.73.85-1.23 1.05.24-.49.43-.91.58-1.36.12-.45.23-.9.3-1.36.16-.93.21-1.88.37-2.94zM162.623 25.5999c.36.37.58.83.72 1.31.15.48.19.99.17 1.49-.06 1-.48 2.02-1.27 2.65.06-.51.16-.95.21-1.4.06-.44.11-.87.13-1.31.07-.88.04-1.74.04-2.74zM164.303 27.2499c.38.67.45 1.38.4 2.07-.04.35-.1.7-.23 1.03-.13.33-.31.67-.6.92-.13-.75-.14-1.37-.09-2.04.07-.64.17-1.3.52-1.98zM165.493 29.0499c.38.67.45 1.38.4 2.07-.04.35-.1.7-.23 1.03-.13.33-.31.67-.6.92-.13-.75-.14-1.37-.09-2.04.07-.64.17-1.3.52-1.98z"/>
  <path stroke="currentColor" stroke-linecap="round" stroke-miterlimit="10" stroke-width=".928" d="M122.663 21.2999c.72-1.4 1.13-2.99 1.13-4.67 0-5.64-4.57-10.21002-10.21-10.21002M131.823 5.69988l-9.58 5.48002M125.303.629883l-5.56 7.649997M131.913.639885l-10.86 8.730005M137.463 7.75988l-14.25 5.22002M135.533 13.3899l-11.77 1.23"/>
  <path fill="transparent" stroke="currentColor" stroke-linecap="round" stroke-linejoin="round" stroke-miterlimit="10" stroke-width=".928" d="M150.354 8.59988c-1.32.96-1.96 2.49002-1.86 4.00002 1.41.56 3.07.42 4.38-.54 1.32-.96 1.96-2.49002 1.86-4.00002-1.4-.56-3.06-.42-4.38.54z"/>
  <path fill="transparent" stroke="currentColor" stroke-linecap="round" stroke-linejoin="round" stroke-miterlimit="10" stroke-width=".928" d="M153.543 10.7799c-1.57.44-2.71 1.65-3.14 3.1 1.13 1.02 2.73 1.46 4.3 1.02 1.57-.44 2.71-1.65 3.14-3.1-1.13-1.01-2.73-1.46-4.3-1.02z"/>
  <path fill="transparent" d="M150.474 7.25989c2.13 2.13 2.43 5.34001.68 7.69001-.17.23-.19.84-.4 1.05-.28.28-.86.27-1.17.48-2.33 1.57-5.53 1.33-7.59-.73"/>
  <path stroke="currentColor" stroke-linecap="round" stroke-linejoin="round" stroke-miterlimit="10" stroke-width=".928" d="M150.474 7.25989c2.13 2.13 2.43 5.34001.68 7.69001-.17.23-.19.84-.4 1.05-.28.28-.86.27-1.17.48-2.33 1.57-5.53 1.33-7.59-.73"/>
  <path fill="transparent" stroke="currentColor" stroke-linecap="round" stroke-linejoin="round" stroke-miterlimit="10" stroke-width=".928" d="M148.664 13.9312c2.343-2.3432 3.065-5.42031 1.612-6.87305-1.453-1.45273-4.53-.73093-6.873 1.61219-2.343 2.34316-3.065 5.42026-1.612 6.87306 1.452 1.4527 4.529.7309 6.873-1.6122z"/>
  <path stroke="currentColor" stroke-linecap="round" stroke-linejoin="round" stroke-miterlimit="10" stroke-width=".928" d="M142.914 16.1699l6.24-9.75002M146.583 15.4999l-1.1-8.40002M149.934 12.3599l-7.79-2.12M150.994 8.59988l-9.92 5.40002"/>
  <path fill="currentColor" d="M146.733 37.4999c.503 0 .91-.4074.91-.91s-.407-.91-.91-.91c-.502 0-.91.4074-.91.91s.408.91.91.91zM169.933 40.0499c.503 0 .91-.4074.91-.91s-.407-.91-.91-.91c-.502 0-.91.4074-.91.91s.408.91.91.91z"/>
  <path stroke="currentColor" stroke-linecap="round" stroke-miterlimit="10" stroke-width=".928" d="M138.684 33.6499c4.51-1.46 9.57-.93 13.47.89 11.09 5.18 15.45 16.05 25.97 16.05 7.66 0 9.65-6.33 9.65-8.25"/>
  <path stroke="currentColor" stroke-linecap="round" stroke-linejoin="round" stroke-miterlimit="10" stroke-width=".928" d="M178.044 46.3899c-1.16.08-2.52-.09-4.1-.66-5.14-1.86-9.23-9.15-17.46-12.99l-.01 8.34s-4.64-3.96-9.29-4.49"/>
  <path stroke="currentColor" stroke-linecap="round" stroke-miterlimit="10" stroke-width=".928" d="M187.773 42.3599c-.01-1.47-.58-2.94-1.7-4.06-1.81-1.81-4.75-1.81-6.56 0-1.45 1.45-1.45 3.8 0 5.25 1.16 1.16 3.04 1.16 4.2 0 .93-.93.93-2.43 0-3.36-.74-.74-1.95-.74-2.69 0-.59.59-.59 1.56 0 2.15"/>
  <path stroke="currentColor" stroke-linecap="round" stroke-linejoin="round" stroke-miterlimit="10" stroke-width=".928" d="M188.413 36.3899c-1.32-1.53-3.28-2.5-5.46-2.5-3.99 0-7.22 3.23-7.22 7.22 0 2.09.89 3.97 2.31 5.29"/>
  <path stroke="currentColor" stroke-linecap="round" stroke-linejoin="round" stroke-miterlimit="10" stroke-width=".928" d="M190.554 34.4599c-1.88-2.07-4.58-3.37-7.6-3.37-5.66 0-10.25 4.59-10.25 10.25"/>
  <path fill="currentColor" d="M189.693 38.0599c.28-.25.73-.23.96.1.25.32.14.78-.18.96-.33.18-.75.1-.93-.16-.19-.27-.12-.65.15-.9zM190.603 40.4699c.36-.13.74.06.85.45.1.39-.16.77-.53.82-.37.05-.73-.18-.8-.5-.09-.31.11-.65.48-.77zM190.553 43.0499c.38 0 .68.31.67.71-.04.39-.39.67-.76.6-.37-.06-.64-.39-.61-.73.03-.33.31-.59.7-.58z"/>
</svg>