<svg fill="currentColor" viewBox="0 0 171 71">
  <path d="M19.0026 61.2226c0 2.5-.95 4.62-2.85 6.38-1.9 1.76-4.19 2.63-6.85996 2.63-1.57 0-3.44001-.48-5.62001-1.44-.58-.26-1.01999-.39-1.30999-.39-.35 0-.57.4-.65 1.21-.03.42-.22.62-.57.62-.290005 0-.440003-.17-.440003-.52 0-.23.009997-.41.039997-.52.23-1.77.350006-3.41.350006-4.92 0-.29-.03-1.1-.09-2.44-.030004-.17-.040005-.41-.040005-.7 0-.44.170005-.65.520005-.65.29 0 .49.35.61 1.05.75 5.22 3.21 7.82 7.36 7.82 1.76996 0 3.13996-.5 4.10996-1.5.97-1 1.46-2.42 1.46-4.24 0-1.62-.47-3.01-1.42-4.16-.94-1.15-2.56-2.29-4.84996-3.42-2.76-1.36-4.67-2.68-5.75-3.96-1.07-1.28-1.61-2.86-1.61-4.74 0-2.41.77999-4.4 2.32999-5.96 1.55-1.57 3.52-2.35 5.9-2.35.98997 0 2.34997.33 4.08997 1 .61.23 1.06.35 1.35.35.32 0 .53-.06.63-.17.1-.12.2-.42.28-.91.06-.29.22-.44.48-.44.29 0 .43.17.43.52 0 .23-.01.41-.04.52-.09.7-.13 1.54-.13 2.53 0 1.39.07 2.5.22 3.31l.04.7c.03.32-.1.48-.39.48-.32 0-.54-.33-.65-1-.32-1.71-1.07-3.14-2.26-4.29-1.19-1.15-2.52-1.72-3.99997-1.72-1.45 0-2.59999.46-3.45999 1.39-.86001.93-1.28 2.19-1.28 3.79 0 1.86.62 3.35 1.87 4.48.7.64 2.20999 1.54 4.52996 2.7 2.73 1.36 4.69 2.75 5.88 4.16 1.19 1.4 1.79 3 1.79 4.8zM48.4227 69.4226c0 .25-.22.37-.65.37-.29 0-.55-.01-.78-.04l-5.53-.17-5.53.17c-.2.03-.42.04-.65.04-.58 0-.87-.15-.87-.46 0-.33.39-.5 1.18-.5 2.55-.03 3.83-.29 3.83-.77 0-.03-.03-.14-.09-.34l-.36-1.15-.22-.61c-.26-.9-.9-2.89-1.91-5.97h-9.3c-1.74 4.64-2.61 7.31-2.61 8.01 0 .41.17.65.52.74.09.03.81.09 2.18.17.84.03 1.26.17 1.26.44 0 .29-.38.44-1.13.44-1.34 0-2.89-.06-4.66-.17-.43-.03-.89-.04-1.35-.04-.46 0-.92.05-1.35.14-.23.05-.42.07-.57.07-.41 0-.61-.13-.61-.39s.46-.41 1.37-.44c.91-.03 1.57-.17 1.98-.41.41-.25.73-.72.96-1.42 3.73-10.71 6.77-19.32 9.12-25.81.07-.34.2-.73.41-1.16l.19-.79c.09-.32.2-.48.35-.48.09 0 .16.09.22.26.38 1.13 1.23 3.5 2.57 7.1 1.04 2.81 3.64 9.88 7.79 21.2.23.66.53 1.08.89 1.25.36.18 1.11.28 2.24.31.74.03 1.11.17 1.11.41zm-11.79-10.42c-.47-1.31-1.26-3.47-2.35-6.49l-2.09-6.03c-1.22 3.21-2.69 7.38-4.41 12.52h8.85z"/>
  <path d="M74.4528 39.8926c0 .29-.36.42-1.09.39h-1.74c-.46 0-.74.08-.83.24-.09.16-.13.64-.13 1.46v25.04c0 1.54-.01 2.43-.04 2.7-.03.26-.12.39-.26.39-.17 0-.38-.16-.61-.48l-5.56-8.15c-3.23-4.75-7.15-10.68-11.77-17.8v24.38c.03.38.25.62.66.72.41.1 1.39.17 2.95.2.38 0 .57.12.57.35 0 .29-.38.44-1.13.44-.26 0-1.09-.04-2.48-.13-.46-.03-.91-.04-1.35-.04.03 0-.22.03-.76.09s-1.36.09-2.46.09h-.44c-.67 0-1-.13-1-.39s.29-.39.87-.39c1.71-.03 2.71-.14 2.98-.33.28-.19.41-.81.41-1.85v-21.49c0-2.41-.49-3.92-1.48-4.53-.46-.29-1.29-.44-2.48-.44-.75 0-1.13-.15-1.13-.46 0-.27.22-.41.65-.41.58 0 1.32.03 2.22.09.9.06 1.38.09 1.44.09.09 0 .49-.01 1.22-.04.96 0 1.89-.04 2.79-.13l15.02 22.42v-19.37c0-.9-.01-1.44-.04-1.63-.03-.19-.15-.33-.35-.43-.2-.1-.9-.15-2.09-.15-1.04 0-1.57-.13-1.57-.39 0-.29.35-.44 1.04-.44h7.01c.64-.05.96.09.96.38zM103.753 60.5626c0 .23-.13.35-.39.35h-1c-1.33-.06-2.09.17-2.26.69-.1203.35-.1703 1.6-.1703 3.77v1.39c-1.48 1.27-2.91 2.17-4.29 2.69s-3.03.78-4.94.78c-4.59 0-8.23-1.37-10.93-4.11-2.7-2.74-4.05-6.46-4.05-11.17 0-4.76 1.32-8.6 3.96-11.54 2.64-2.93 6.12-4.4 10.45-4.4 1.89 0 3.95.52 6.18 1.57.67.32 1.22.48 1.65.48.55 0 .91-.35 1.09-1.04.1399-.41.32-.61.52-.61.23 0 .35.12.35.35 0 .09-.03.39-.08.91-.15 1.65-.2301 2.84-.2301 3.57v2.83c.03 1.02.0401 1.47.0401 1.35-.06.7-.2501 1.04-.5701 1.04-.26 0-.41-.2-.44-.61-.15-2.83-.9599-5.05-2.4399-6.67-1.48-1.62-3.42-2.43-5.83-2.43-3.02 0-5.41 1.35-7.16 4.06-1.76 2.71-2.63 6.39-2.63 11.04 0 4.48.89 8.04 2.68 10.67 1.79 2.63 4.2 3.95 7.25 3.95 2.32 0 3.9199-.66 4.79-1.99.44-.66.65-1.86.65-3.6 0-1.44-.14-2.29-.41-2.55-.28-.26-1.23-.38-2.85-.35-.41 0-.67-.02-.78-.06-.12-.04-.17-.14-.17-.28 0-.32.32-.48.96-.48h.78c.43.03 1.97.03 4.61 0h4.7903c.58.02.87.14.87.4zM128.653 68.4026c0 1.22-1.02 1.83-3.05 1.83-2.26 0-4.03-.94-5.31-2.83-.55-.81-.91-1.6-1.07-2.35-.16-.75-.4-2.67-.72-5.75-.17-1.86-.77-3.17-1.78-3.94-1.02-.77-2.67-1.18-4.96-1.24v13.71c0 .58.46.94 1.39 1.09.26.03.93.06 2 .09.38 0 .57.12.57.35 0 .26-.25.39-.74.39h-10.23c-.64 0-.96-.13-.96-.39 0-.2.42-.32 1.26-.35 1.36-.03 2.1-.2 2.22-.52.12-.15.17-.71.17-1.7v-24.03c0-1.16-.12-1.86-.37-2.09-.25-.23-.99-.36-2.24-.39-.73 0-1.09-.13-1.09-.39 0-.29.23-.44.7-.44.09 0 .22.02.39.04l5.79.13c.58 0 1.39-.02 2.44-.06 1.16-.08 1.97-.12 2.44-.12 2.7 0 4.84.6 6.42 1.81s2.37 2.84 2.37 4.9c0 2.03-.81 3.71-2.44 5.03-1.63 1.32-3.83 2.1-6.62 2.33-.26.03-.41.07-.44.13 0 .12.15.17.44.17 3.05.52 5.14 1.59 6.29 3.21 1.15 1.62 1.91 4.53 2.29 8.75.23 2.39 1.04 3.58 2.44 3.58.44 0 .65-.09.65-.26 0-.03-.02-.06-.04-.09-.15-.32-.22-.58-.22-.78 0-.61.32-.91.96-.91.7 0 1.05.37 1.05 1.09zm-9.01-21.81c0-4.15-1.8-6.22-5.4-6.22-.96 0-1.61.13-1.96.39-.35.26-.52.72-.52 1.39v11.06c2.79.03 4.79-.48 6.03-1.52 1.23-1.05 1.85-2.74 1.85-5.1zM140.923 69.3426c0 .25-.171.37-.521.37h-.43c-.17-.09-2.15-.13-5.92-.13-.73 0-1.45.03-2.18.09-.38.03-.96.04-1.74.04-.38 0-.57-.13-.57-.39 0-.23.38-.36 1.13-.39 1.16-.03 1.84-.17 2.05-.41.2-.25.3-1.08.3-2.51v-22.97c0-1.43-.07-2.23-.22-2.4-.18-.29-.99-.46-2.42-.52-.56-.03-.84-.13-.84-.31 0-.23.18-.35.53-.35h5.92c.44 0 1.29.02 2.54.04l1.67-.04c.47 0 .701.12.701.37 0 .22-.651.36-1.941.41-.74.03-1.18.16-1.34.39-.16.23-.24.84-.24 1.83v23.24c0 1.65.07 2.55.22 2.7.32.32 1.26.51 2.83.57.31 0 .471.12.471.37zM170.222 69.4226c0 .25-.22.37-.65.37-.29 0-.55-.01-.78-.04l-5.53-.17-5.53.17c-.2.03-.42.04-.65.04-.58 0-.87-.15-.87-.46 0-.33.39-.5 1.18-.5 2.55-.03 3.83-.29 3.83-.77 0-.03-.03-.14-.09-.34l-.36-1.15-.22-.61c-.26-.9-.9-2.89-1.91-5.97h-9.3c-1.74 4.64-2.61 7.31-2.61 8.01 0 .41.17.65.52.74.09.03.81.09 2.18.17.84.03 1.26.17 1.26.44 0 .29-.38.44-1.13.44-1.34 0-2.89-.06-4.66-.17-.43-.03-.89-.04-1.35-.04-.46 0-.92.05-1.35.14-.23.05-.42.07-.57.07-.41 0-.61-.13-.61-.39s.46-.41 1.37-.44c.91-.03 1.57-.17 1.98-.41.41-.25.73-.72.96-1.42 3.73-10.71 6.77-19.32 9.12-25.81.07-.34.2-.73.41-1.16l.19-.79c.09-.32.2-.48.35-.48.09 0 .16.09.22.26.38 1.13 1.23 3.5 2.57 7.1 1.04 2.81 3.64 9.88 7.79 21.2.23.66.53 1.08.89 1.25.36.18 1.11.28 2.24.31.73.03 1.11.17 1.11.41zm-11.8-10.42c-.47-1.31-1.26-3.47-2.35-6.49l-2.09-6.03c-1.22 3.21-2.69 7.38-4.41 12.52h8.85zM69.4627 29.1426c0 1.22-1.02 1.83-3.05 1.83-2.26 0-4.03-.94-5.31-2.83-.55-.81-.91-1.6-1.07-2.35-.16-.75-.4-2.67-.72-5.75-.17-1.86-.77-3.17-1.78-3.94-1.02-.77-2.67-1.18-4.96-1.24v13.71c0 .58.46.94 1.39 1.09.26.03.93.06 2 .09.38 0 .57.12.57.35 0 .26-.25.39-.74.39h-10.23c-.64 0-.96-.13-.96-.39 0-.2.42-.32 1.26-.35 1.36-.03 2.1-.2 2.22-.52.12-.14.17-.71.17-1.7V3.50261c0-1.16-.12-1.86001-.37-2.09001-.25-.23-.99-.36-2.24-.39-.73 0-1.09-.129997-1.09-.389997 0-.29.23-.440003.7-.440003.09 0 .22.010001.39.040001l5.79.129997c.58 0 1.39-.019997 2.44-.059997 1.16-.08 1.97-.120003 2.44-.120003 2.7 0 4.84.600005 6.42 1.810002 1.58 1.2 2.37 2.84 2.37 4.9 0 2.03-.81 3.71-2.44 5.03-1.63 1.32-3.83 2.1-6.62 2.33-.26.03-.41.07-.44.13 0 .12.15.17.44.17 3.05.52 5.14 1.59 6.29 3.21 1.15 1.62 1.91 4.53 2.29 8.75.23 2.39 1.04 3.58 2.44 3.58.44 0 .65-.09.65-.26 0-.03-.02-.06-.04-.09-.15-.32-.22-.58-.22-.78 0-.61.32-.91.96-.91.7 0 1.05.36 1.05 1.09zm-9.01-21.81c0-4.15-1.8-6.22-5.4-6.22-.96 0-1.61.13001-1.96.39001-.35.26-.52.72999-.52 1.38999v11.06c2.79.03 4.79-.48 6.03-1.52 1.23-1.05 1.85-2.75 1.85-5.1zM93.6628 23.4326c0 .12-.03.83-.09 2.13-.06 1.31-.0901 2.55-.0901 3.74v1.44c-2.84-.17-8.4699-.26-16.8899-.26h-5.44c-.55 0-.83-.12-.83-.35 0-.16.09-.25.26-.27.09 0 .6399-.04 1.6499-.12.75-.06 1.2101-.22 1.3701-.48.16-.26.24-.95.24-2.05v-24.53c0-.84-.12-1.35-.37-1.51-.25-.16-1.04-.240002-2.37-.240002-.46 0-.7-.119995-.7-.369995s.32-.370003.96-.370003h18.45c.87 0 1.67-.059998 2.39-.1699979.06 1.2499979.1899 2.9699979.39 5.1799979l.17 1.87001c.03.15.0399.33.0399.56999 0 .29-.1299.44-.3899.44-.32 0-.55-.37-.7-1.1-.55-2.63-1.45-4.29-2.7-4.99-.93-.53-3.37-.79-7.31-.79h-3.57v12.8h1.08c3.25 0 5.23-.25 5.94-.74s1.2-1.93 1.46-4.31c.06-.61.22-.91.48-.91.32 0 .48.26.48.78001 0 .52-.0301 1.28999-.0901 2.30999-.0599 1.02-.0899 1.79-.0899 2.31 0 3.11.05 5.24.14 6.4.02.29.03.54.03.74 0 .38-.16.57-.48.57-.2 0-.34-.12-.41-.37-.07-.25-.1901-1.05-.3701-2.42-.2299-1.71-.9399-2.77-2.1199-3.18-.52-.17-1.88-.26-4.07-.26h-1.95v14.58c6.38 0 10.13-.13 11.23-.39 1.92-.43 3-2.26 3.26-5.5.06-.72.25-1.07.57-1.07.3-.02.44.28.44.89zM123.913 15.3426c0 5.12-1.78 9.11-5.35 11.96-2.61 2.1-6.11 3.14-10.49 3.14H96.2826c-.55 0-.83-.14-.83-.43 0-.26.46-.39 1.39-.39 1.19 0 1.93-.22 2.22-.65.12-.2.17-.75.17-1.65v-23.47c0-1.42-.11-2.25-.33-2.48-.22-.23-.97-.35-2.24-.35-.67 0-1-.160001-1-.480001 0-.23.25-.349999.74-.349999h7.5804c5.22 0 8.92.360004 11.1 1.09 2.64.87 4.77 2.6 6.4 5.17 1.62 2.58 2.43 5.54 2.43 8.89zm-4.87-.18c0-4.83-.94-8.38-2.83-10.63-1.89-2.26-4.83-3.38-8.84-3.38-1.94 0-3.12.21-3.53.61-.17.21-.26.9-.26 2.1v23.23c0 .82.02 1.31.07 1.49.04.17.17.32.37.44.7.35 2.16.52 4.4.52 3.13 0 5.66-1.11 7.57-3.32 2.03-2.34 3.05-6.02 3.05-11.06z"/>
</svg>