<svg fill="currentColor" viewBox="0 0 206 77">
  <path d="M40.0026 4.22984l-8.2 27.99996h-5.5l-4.8-16.2-.2-1.5-.3 1.5-4.7 16.3h-5.5L2.50264 4.32983.702637.829834H11.6026l-.6 3.499996 2.9 10.29997.2 1.8.2-1.8 4.1-13.799966h6.5l4.1 13.799966.2 1.8.2-1.8 2.9-10.29997-.6-3.499996h10.1l-1.8 3.400006zM59.1028 32.2299l1.1-3.5v-8.7l-.4-.5h-5.5l-.5.5v8.8l1.2 3.5h-11.1l1.1-3.5V4.22986l-1.1-3.500002h11.1l-1.2 3.500002v7.00004l.5.5h5.5l.5-.5V4.22986l-1.1-3.500002h11l-1.1 3.500002V28.7299l1.1 3.5h-11.1zM75.9028 32.2299l1.1-3.5V4.22986l-1.1-3.500002h11.3l-1.2 3.500002V28.7299l1.2 3.5h-11.3zM108.503 32.2299H94.8027l-3-9 4.7 1.5h6.9003l1.3-.7.7-1.3v-1.8l-1.2-1.1-7.2003-1.5-4.2-4.1V6.72986l6-6.000002h12.9003l2.9 8.600002-4.1-1.4h-6.4l-1.4.7-.6 1.3v1.00004l1 1 7.4 1.6 4.2 4.1v8.6l-6.2 6zM137.803 32.2299l-.5-4-4-11h-.8l-2.2 2.2-.5 1v8.3l1.1 3.5h-11l1.1-3.5V4.22989l-1.1-3.500005h11l-1.1 3.500005v7.00001l.8-1 6.8-6.80001 1-2.800007h9.8l.9.899997-9 9.00002 6.6 17.4 2.8 4.3h-11.7zM172.303 32.2299h-20.2l1.1-3.5V4.22986l-1.1-3.500002h19.4l2.9 8.600002-4.1-1.4h-7.8l-.5.5v3.00004l.5.5h3l3.2-1.1v9.5l-3.2-1.1h-3l-.5.5v4.3l.8.8h8l4.5-1.5-3 8.9zM202.803 4.22989l-8 16.00001v8l1.4 4h-11.5l1.3-4v-7.8l-8.2-16.30002-2.6-3.499997h11.3l.5 3.199997 3.2 6.50002.6 1.7.5-1.5 3.2-6.50002.5-3.199996h10.4l-2.6 3.400006zM59.9028 76.2299h-15l-7.5-7.5v-21.5l7.5-7.5h14.5l3.7 11-6.1-2h-4.2l-2.9 1.4-1.6 3.2v9.6l1.6 3.2 2.9 1.5h4.6l6.1-2-3.6 10.6zM93.3029 76.2299h-16.8l-7-7v-22.5l7-7h16.8l7.0001 7v22.6l-7.0001 6.9zm-3.8-24.9l-1-2.1-2.1-1h-2.9l-2.1 1-1 2.1v13l1 2.1 2.1 1h2.9l2.1-1 1-2.1v-13zM129.203 76.2299h-21.9l1.3-4.1v-28.3l-1.3-4.1h13.2l-1.5 4.3v22.6l.9.9h7.5l5.2-1.7-3.4 10.4zM155.603 76.2299l.6-4.1-.8-3.2-.6-.6h-9l-.6.6-.7 3.2.6 4.1h-12.6l2.1-4.1 7.7-29-.9-3.5h18.6l-.9 3.5 7.7 29 2 4.1h-13.2zm-5.1-27.2l-.3-2-.3 2-2.6 11 .6.6h4.8l.6-.6-2.8-11z"/>
</svg>