<svg viewBox="0 0 155 71" fill="currentColor" xmlns="http://www.w3.org/2000/svg">
<path d="M22.5027 62.3C22.5027 65.3 21.2027 67.5 18.5027 68.9C17.2027 69.6 15.3027 70 12.9027 70.2C12.2027 70.2 10.3027 70.2 7.00274 70.2H1.70274C1.20274 70.2 1.00274 70.1 1.00274 69.8C1.00274 69.6 1.40273 69.4 2.30273 69.4C3.30273 69.4 4.00274 69.3 4.10274 69.1C4.30274 68.9 4.40274 68.2 4.40274 67.1V43.6C4.40274 42.3 4.30274 41.6 4.20274 41.4C4.00274 41.1 3.30274 40.9 2.00274 40.8C1.20274 40.8 0.802734 40.6 0.802734 40.3C0.802734 40 1.20274 39.9 1.90274 39.9C1.90274 39.9 2.10274 39.9 2.40274 39.9C2.70274 40 3.00273 40 3.30273 40H11.7027C14.8027 40 17.2027 40.6 18.7027 41.6C20.5027 42.8 21.4027 44.5 21.4027 46.8C21.4027 48.8 20.7027 50.4 19.2027 51.7C17.7027 53 15.6027 53.8 13.0027 54.1V54.4C15.6027 54.6 17.7027 55.1 19.2027 56.1C21.4027 57.4 22.5027 59.5 22.5027 62.3ZM16.6027 47.3C16.6027 44.5 16.0027 42.7 14.7027 41.7C14.0027 41.2 12.8027 41 10.9027 41C10.4027 41 9.60274 41 8.60274 41.1V53.7H9.00274L11.4027 53.6C13.1027 53.5 14.3027 53 15.3027 51.8C16.2027 50.8 16.6027 49.3 16.6027 47.3ZM17.9027 61.9C17.9027 58.2 16.4027 56 13.5027 55.1C12.6027 54.8 11.0027 54.7 8.70274 54.7V67.7C8.70274 68.5 8.80274 69 9.00274 69.1C9.30274 69.3 10.1027 69.4 11.4027 69.4C13.4027 69.4 15.0027 68.8 16.2027 67.5C17.3027 66.2 17.9027 64.3 17.9027 61.9Z"/>
<path d="M53.1028 40.4C53.1028 40.6 52.8028 40.8 52.3028 40.8C52.2028 40.8 51.9028 40.8 51.4028 40.8C51.3028 40.8 51.1028 40.8 50.8028 40.8C50.1028 40.8 49.6028 41 49.5028 41.4C49.4028 41.6 49.4028 41.9 49.4028 42.4V58.7C49.4028 62.9 48.6028 66 47.0028 67.9C45.4028 69.8 42.9028 70.8 39.4028 70.8C35.2028 70.8 32.2028 69.6 30.5028 67.2C29.4028 65.6 28.8028 63 28.8028 59.3V41.8C28.7028 41.3 28.4028 41 27.7028 40.8C27.5028 40.8 27.0028 40.8 26.1028 40.8C25.6028 40.7 25.4028 40.6 25.4028 40.4C25.4028 40.1 25.6028 40 26.0028 40H26.8028C26.9028 40 27.3028 40 27.8028 40C28.3028 40 28.7028 40 29.1028 40H35.3028C35.4028 40 35.6028 40 35.8028 40C36.3028 40 36.5028 40.2 36.5028 40.5C36.5028 40.7 36.4028 40.8 36.2028 40.8C36.0028 40.8 35.4028 40.9 34.5028 40.9C34.1028 40.9 33.8028 40.9 33.7028 41C33.4028 41.1 33.2028 41.3 33.2028 41.6C33.2028 41.7 33.2028 42.5 33.2028 44.1V59.7C33.2028 63.5 33.8028 66.1 35.0028 67.5C36.2028 68.9 38.0028 69.6 40.4028 69.6C44.8028 69.6 47.3028 67.1 47.9028 62.1C48.0028 61.3 48.0028 58.2 48.0028 52.6V50.1V46.6V43.6C48.0028 43.3 48.0028 43 48.0028 42.6C48.0028 42.2 48.0028 42.1 48.0028 42.1C48.0028 41.5 47.7028 41.1 47.1028 40.9C46.9028 40.8 46.3028 40.8 45.3028 40.8C44.7028 40.8 44.4028 40.6 44.4028 40.3C44.4028 40 44.6028 39.9 45.0028 39.9C45.2028 39.9 45.4028 39.9 45.6028 39.9C45.9028 39.9 47.2028 39.9 49.4028 39.9C49.7028 39.9 50.1028 39.9 50.5028 39.9C50.9028 39.9 51.2028 39.9 51.3028 39.9H52.0028C52.7028 40.1 53.1028 40.2 53.1028 40.4Z"/>
<path d="M76.3025 62.3C76.3025 65.3 75.0025 67.5 72.3025 68.9C71.0025 69.6 69.1025 70 66.7025 70.2C66.0025 70.2 64.1025 70.2 60.8025 70.2H55.5025C55.0025 70.2 54.8025 70.1 54.8025 69.8C54.8025 69.6 55.2025 69.4 56.1025 69.4C57.1025 69.4 57.8025 69.3 57.9025 69.1C58.1025 68.9 58.2025 68.2 58.2025 67.1V43.6C58.2025 42.3 58.1025 41.6 58.0025 41.4C57.8025 41.1 57.1025 40.9 55.8025 40.8C55.0025 40.8 54.6025 40.6 54.6025 40.3C54.6025 40 55.0025 39.9 55.7025 39.9C55.7025 39.9 55.9025 39.9 56.2025 39.9C56.5025 40 56.8025 40 57.1025 40H65.6025C68.7025 40 71.1025 40.6 72.6025 41.6C74.4025 42.8 75.3025 44.5 75.3025 46.8C75.3025 48.8 74.6025 50.4 73.1025 51.7C71.6025 53 69.5025 53.8 66.9025 54.1V54.4C69.5025 54.6 71.6025 55.1 73.1025 56.1C75.2025 57.4 76.3025 59.5 76.3025 62.3ZM70.5025 47.3C70.5025 44.5 69.9025 42.7 68.6025 41.7C67.9025 41.2 66.7025 41 64.8025 41C64.3025 41 63.5025 41 62.5025 41.1V53.7H62.9025L65.3025 53.6C67.0025 53.5 68.2025 53 69.2025 51.8C70.0025 50.8 70.5025 49.3 70.5025 47.3ZM71.7025 61.9C71.7025 58.2 70.2025 56 67.3025 55.1C66.4025 54.8 64.8025 54.7 62.5025 54.7V67.7C62.5025 68.5 62.6025 69 62.8025 69.1C63.1025 69.3 63.9025 69.4 65.2025 69.4C67.2025 69.4 68.8025 68.8 70.0025 67.5C71.1025 66.2 71.7025 64.3 71.7025 61.9Z"/>
<path d="M101.203 62.3C101.203 65.3 99.9029 67.5 97.2029 68.9C95.9029 69.6 94.0029 70 91.6029 70.2C90.9029 70.2 89.0029 70.2 85.7029 70.2H80.4029C79.9029 70.2 79.7029 70.1 79.7029 69.8C79.7029 69.6 80.1029 69.4 81.0029 69.4C82.0029 69.4 82.7029 69.3 82.8029 69.1C83.0029 68.9 83.1029 68.2 83.1029 67.1V43.6C83.1029 42.3 83.0029 41.6 82.9029 41.4C82.7029 41.1 82.0029 40.9 80.7029 40.8C79.9029 40.8 79.5029 40.6 79.5029 40.3C79.5029 40 79.9029 39.9 80.6029 39.9C80.6029 39.9 80.8029 39.9 81.1029 39.9C81.4029 40 81.7029 40 82.0029 40H90.5029C93.6029 40 96.0029 40.6 97.5029 41.6C99.3029 42.8 100.203 44.5 100.203 46.8C100.203 48.8 99.5029 50.4 98.0029 51.7C96.5029 53 94.4029 53.8 91.8029 54.1V54.4C94.4029 54.6 96.5029 55.1 98.0029 56.1C100.103 57.4 101.203 59.5 101.203 62.3ZM95.3029 47.3C95.3029 44.5 94.7029 42.7 93.4029 41.7C92.7029 41.2 91.5029 41 89.6029 41C89.1029 41 88.3029 41 87.3029 41.1V53.7H87.7029L90.1029 53.6C91.8029 53.5 93.0029 53 94.0029 51.8C94.9029 50.8 95.3029 49.3 95.3029 47.3ZM96.6029 61.9C96.6029 58.2 95.1029 56 92.2029 55.1C91.3029 54.8 89.7029 54.7 87.4029 54.7V67.7C87.4029 68.5 87.5029 69 87.7029 69.1C88.0029 69.3 88.8029 69.4 90.1029 69.4C92.1029 69.4 93.7029 68.8 94.9029 67.5C96.0029 66.2 96.6029 64.3 96.6029 61.9Z"/>
<path d="M127.303 66.8C127.303 67.6 127.303 68.8 127.203 70.5H126.703C126.503 70.5 126.103 70.5 125.403 70.4C124.703 70.3 124.003 70.3 123.103 70.3L105.003 70.2C104.503 70.2 104.303 70.1 104.303 69.8C104.303 69.6 104.703 69.5 105.503 69.4C106.603 69.3 107.303 69.2 107.503 69C107.703 68.8 107.803 68.3 107.803 67.4V43C107.803 41.9 107.703 41.3 107.503 41.1C107.303 40.9 106.503 40.8 105.203 40.8C104.603 40.8 104.403 40.6 104.403 40.3C104.403 40 104.603 39.9 104.903 39.9H105.303C106.303 40 108.203 40 111.003 40C111.303 40 111.803 40 112.503 39.9C113.303 39.9 113.903 39.8 114.403 39.8H114.903C115.403 39.8 115.703 39.9 115.703 40.2C115.703 40.4 115.603 40.5 115.503 40.5C115.303 40.5 114.803 40.6 114.003 40.6C113.203 40.6 112.703 40.8 112.503 41C112.303 41.2 112.303 42 112.303 43.3V69C113.103 69 114.203 69 115.603 69C119.003 69 121.403 68.8 122.803 68.5C124.203 68.2 125.103 67.5 125.603 66.5C126.103 65.5 126.403 64.3 126.503 62.6C126.503 62.2 126.703 62 127.003 62C127.403 62 127.503 62.2 127.503 62.7V63.8C127.503 63.9 127.503 64 127.503 64.2C127.503 64.4 127.503 64.6 127.503 64.8V66.8H127.303Z"/>
<path d="M154.703 40.3C154.703 40.5 154.503 40.6 154.003 40.6C152.403 40.6 151.403 40.9 151.003 41.4C150.703 41.7 149.403 44.2 147.303 48.9C146.303 51 145.403 52.8 144.603 54.3C144.003 55.4 143.703 56.1 143.603 56.5C143.503 56.9 143.503 57.7 143.503 59.1V67.3C143.503 68.3 143.603 68.8 143.903 69C144.103 69.2 145.003 69.3 146.503 69.4C147.303 69.5 147.703 69.6 147.703 69.8C147.703 70 147.503 70.1 147.103 70.1H146.603L140.503 70C138.803 70 137.403 70 136.303 70.1C136.103 70.1 135.903 70.1 135.703 70.1C135.303 70.1 135.103 70 135.103 69.7C135.103 69.4 135.403 69.3 136.103 69.2C137.703 69.1 138.603 69 138.903 68.8C139.203 68.6 139.303 67.9 139.303 66.7V57.5C139.003 56.9 138.203 55.2 136.803 52.4L132.403 43.8C132.003 43 131.403 42 130.803 41C130.503 40.7 129.803 40.6 128.703 40.6C127.603 40.6 127.103 40.4 127.103 40.1C127.103 39.9 127.303 39.8 127.803 39.8C128.403 39.8 129.603 39.8 131.503 39.9C132.503 39.9 133.303 39.9 133.803 39.9L138.803 39.8C139.003 39.8 139.203 39.7 139.503 39.7C140.003 39.7 140.303 39.8 140.303 40.1C140.303 40.4 139.803 40.5 138.803 40.5C137.003 40.5 136.103 40.8 136.103 41.5C136.103 42 137.003 44 138.803 47.5L142.803 55C143.503 53.7 144.303 52.1 145.303 50.2L147.903 45C148.903 43.1 149.403 41.9 149.403 41.3C149.403 40.9 149.203 40.7 148.703 40.6C147.703 40.5 147.003 40.4 146.703 40.4C146.103 40.4 145.703 40.3 145.703 40C145.703 39.8 146.003 39.6 146.503 39.6H149.003H150.403C153.203 39.8 154.703 40 154.703 40.3Z"/>
<path d="M30.9024 27.6C30.9024 28.4 30.9024 29.6 30.8024 31.3H30.3024C30.1024 31.3 29.7024 31.3 29.0024 31.2C28.3024 31.1 27.6024 31.1 26.7024 31.1L8.70244 31C8.20244 31 8.00244 30.9 8.00244 30.6C8.00244 30.4 8.40244 30.3 9.20244 30.2C10.3024 30.1 11.0024 30 11.2024 29.8C11.4024 29.6 11.5024 29.1 11.5024 28.2V3.7C11.5024 2.6 11.4024 2 11.2024 1.8C11.0024 1.6 10.2024 1.5 8.90244 1.5C8.30244 1.5 8.10244 1.3 8.10244 1C8.10244 0.7 8.30244 0.599998 8.60244 0.599998H9.00244C10.0024 0.699998 11.9024 0.699997 14.7024 0.699997C15.0024 0.699997 15.5024 0.699998 16.2024 0.599998C17.0024 0.599998 17.6024 0.5 18.1024 0.5H18.6024C19.1024 0.5 19.4024 0.600002 19.4024 0.900002C19.4024 1.1 19.3024 1.2 19.2024 1.2C19.0024 1.2 18.5024 1.3 17.7024 1.3C16.9024 1.3 16.4024 1.5 16.2024 1.7C16.0024 1.9 16.0024 2.7 16.0024 4V30C16.8024 30 17.9024 30 19.3024 30C22.7024 30 25.1024 29.8 26.5024 29.5C27.9024 29.2 28.8024 28.5 29.3024 27.5C29.8024 26.5 30.1024 25.3 30.2024 23.6C30.2024 23.2 30.4024 23 30.7024 23C31.1024 23 31.2024 23.2 31.2024 23.7V24.8C31.2024 24.9 31.2024 25 31.2024 25.2C31.2024 25.4 31.2024 25.6 31.2024 25.8V27.6H30.9024Z"/>
<path d="M55.8024 24C55.8024 24.1 55.8024 24.8 55.7024 26.1C55.6024 27.4 55.6024 28.7 55.6024 29.8V31.2C52.8024 31.1 47.2024 31 38.7024 31C37.7024 31 36.7024 31 35.7024 31C34.7024 31 34.0024 31 33.7024 31H33.3024C32.7024 31 32.5024 30.9 32.5024 30.6C32.5024 30.4 32.6024 30.4 32.8024 30.3C32.9024 30.3 33.4024 30.3 34.5024 30.2C35.3024 30.1 35.7024 30 35.9024 29.7C36.1024 29.4 36.1024 28.8 36.1024 27.6V3.2C36.1024 2.4 36.0024 1.9 35.7024 1.7C35.5024 1.5 34.7024 1.5 33.3024 1.5C32.8024 1.5 32.6024 1.4 32.6024 1.1C32.6024 0.899998 32.9024 0.699997 33.6024 0.699997H41.0024C41.3024 0.699997 42.9024 0.699997 45.9024 0.699997C48.9024 0.699997 50.9024 0.699997 52.0024 0.699997C52.9024 0.699997 53.7024 0.6 54.4024 0.5C54.5024 1.7 54.6024 3.5 54.8024 5.7L55.0024 7.6C55.0024 7.7 55.0024 7.9 55.0024 8.2C55.0024 8.5 54.9024 8.6 54.6024 8.6C54.3024 8.6 54.0024 8.2 53.9024 7.5C53.3024 4.9 52.4024 3.2 51.2024 2.5C50.3024 2 47.8024 1.7 43.9024 1.7H40.3024V14.5H41.3024C44.5024 14.5 46.5024 14.3 47.2024 13.8C47.9024 13.3 48.4024 11.9 48.7024 9.5C48.8024 8.9 48.9024 8.6 49.2024 8.6C49.5024 8.6 49.7024 8.9 49.7024 9.4C49.7024 9.9 49.7024 10.7 49.6024 11.7C49.5024 12.7 49.5024 13.5 49.5024 14C49.5024 17.1 49.5024 19.2 49.6024 20.4C49.6024 20.7 49.6024 20.9 49.6024 21.1C49.6024 21.5 49.4024 21.7 49.1024 21.7C48.9024 21.7 48.8024 21.6 48.7024 21.3C48.6024 21.1 48.5024 20.2 48.3024 18.9C48.1024 17.2 47.4024 16.1 46.2024 15.7C45.7024 15.5 44.3024 15.4 42.1024 15.4H40.1024V30C46.5024 30 50.2024 29.9 51.3024 29.6C53.2024 29.2 54.3024 27.3 54.6024 24.1C54.7024 23.4 54.8024 23 55.2024 23C55.7024 23.1 55.8024 23.4 55.8024 24Z"/>
<path d="M89.2025 30.7C89.2025 30.9 88.9025 31.1 88.3025 31.1H87.8025C87.4025 31.1 86.7025 31.1 85.6025 31.1C84.5025 31.1 83.7025 31.1 83.1025 31.1C82.2025 31.1 81.2025 31.1 80.1025 31.1C78.9025 31.1 78.1025 31.1 77.8025 31.1H77.5025C76.9025 31.1 76.6025 31 76.6025 30.7C76.6025 30.4 77.0025 30.3 77.9025 30.3C79.4025 30.3 80.3025 30.1 80.6025 29.8C80.7025 29.7 80.8025 28.7 80.8025 26.9V4.30002C80.8025 4.30002 80.6025 4.80002 80.3025 5.80002C79.1025 9.30002 77.4025 14.6 75.2025 21.6L73.2025 28.5C72.8025 29.9 72.5025 30.5 72.3025 30.5C72.1025 30.5 71.9025 30.2 71.6025 29.5C70.8025 26.9 68.4025 20.3 64.5025 9.70001L62.8025 5.10001C62.8025 5.70001 62.8025 6.40002 62.8025 7.40002V21.5C62.8025 26.8 62.8025 29.5 62.9025 29.6C63.1025 30 63.8025 30.2 65.0025 30.2C66.0025 30.2 66.4025 30.3 66.4025 30.6C66.4025 30.9 66.1025 31.1 65.5025 31.1C65.1025 31.1 64.8025 31.1 64.5025 31C64.1025 30.9 63.7025 30.9 63.4025 30.9L58.4025 31.1C57.9025 31.1 57.6025 31 57.6025 30.7C57.6025 30.4 58.4025 30.2 60.1025 30.2C60.8025 30.2 61.2025 30.1 61.3025 29.9C61.4025 29.7 61.5025 28.9 61.5025 27.6V6.70001C61.5025 4.30001 61.5025 3.00002 61.4025 2.80002C61.3025 2.40002 61.0025 2.10002 60.7025 2.00002C60.3025 1.90002 59.5025 1.70001 58.3025 1.70001C57.8025 1.70001 57.6025 1.50002 57.6025 1.30002C57.6025 1.00002 58.0025 0.800018 58.9025 0.800018C59.0025 0.800018 59.3025 0.800018 59.6025 0.800018H61.9025C63.6025 0.800018 64.8025 0.800018 65.6025 0.800018C65.7025 1.20002 66.6025 3.50001 68.1025 7.60001C68.8025 9.30001 70.6025 14.4 73.7025 22.8C74.2025 20.9 74.8025 19 75.4025 17.2L80.1025 2.80002C80.4025 2.00002 80.6025 1.30001 80.9025 0.700012H87.4025C88.3025 0.700012 88.9025 0.700018 89.0025 0.800018C89.1025 0.900018 89.2025 1.00001 89.2025 1.20001C89.2025 1.50001 89.0025 1.60001 88.5025 1.60001C87.7025 1.60001 87.1025 1.60001 86.8025 1.70001C86.1025 1.80001 85.6025 2.00002 85.4025 2.40002C85.3025 2.60002 85.2025 4.30002 85.2025 7.50002V27.8C85.2025 29 85.3025 29.6 85.5025 29.9C85.9025 30.2 86.8025 30.3 88.3025 30.3H88.6025C88.9025 30.3 89.2025 30.5 89.2025 30.7Z"/>
<path d="M119.002 16.1C119.002 20.4 117.702 24.1 115.102 27.1C112.502 30.1 109.302 31.6 105.502 31.6C101.502 31.6 98.1022 30.1 95.4022 27.1C92.7022 24.1 91.3022 20.3 91.3022 15.9C91.3022 11.4 92.6022 7.7 95.2022 4.8C97.8022 1.9 101.202 0.5 105.302 0.5C109.202 0.5 112.402 2 115.002 5C117.702 7.9 119.002 11.6 119.002 16.1ZM114.202 16.3C114.202 11 113.102 6.8 110.902 3.9C109.502 2 107.602 1.1 105.202 1.1C102.902 1.1 101.102 1.8 99.8022 3.2C97.4022 5.8 96.3022 10.1 96.3022 16C96.3022 20.7 97.1022 24.3 98.8022 26.9C100.402 29.5 102.702 30.8 105.702 30.8C108.502 30.8 110.502 29.6 111.902 27.1C113.402 24.4 114.202 20.8 114.202 16.3Z"/>
<path d="M148.903 1.19999C148.903 1.49999 148.503 1.6 147.803 1.6H146.803H146.003C145.503 1.6 145.303 1.7 145.203 1.8C145.103 2 145.103 2.4 145.103 3.3V28.3C145.103 29.8 145.103 30.7 145.103 31C145.103 31.3 145.003 31.4 144.803 31.4C144.603 31.4 144.403 31.2 144.203 30.9L138.603 22.8C135.403 18 131.503 12.1 126.803 5V29.4C126.803 29.8 127.003 30 127.503 30.1C128.003 30.2 128.903 30.3 130.403 30.3C130.803 30.3 131.003 30.4 131.003 30.6C131.003 30.9 130.603 31 129.903 31C129.603 31 128.803 31 127.403 30.9C126.903 30.9 126.503 30.9 126.103 30.9C126.103 30.9 125.903 30.9 125.303 31C124.803 31.1 123.903 31.1 122.803 31.1H122.403C121.703 31.1 121.403 31 121.403 30.7C121.403 30.4 121.703 30.3 122.303 30.3C124.003 30.3 125.003 30.2 125.303 30C125.603 29.8 125.703 29.2 125.703 28.1V6.6C125.703 4.2 125.203 2.7 124.203 2.1C123.703 1.8 122.903 1.69999 121.703 1.69999C120.903 1.69999 120.603 1.49999 120.603 1.19999C120.603 0.899994 120.803 0.8 121.303 0.8C121.903 0.8 122.603 0.799999 123.503 0.899999C124.403 0.999999 124.903 0.999997 124.903 0.999997C125.003 0.999997 125.403 0.999997 126.103 0.999997C127.103 0.999997 128.003 0.999999 128.903 0.899999L143.903 23.3V3.8C143.903 2.9 143.903 2.39999 143.903 2.19999C143.903 1.99999 143.803 1.9 143.603 1.8C143.403 1.7 142.703 1.6 141.503 1.6C140.503 1.6 139.903 1.49999 139.903 1.19999C139.903 0.899994 140.203 0.8 140.903 0.8H142.403C142.803 0.8 143.203 0.8 143.603 0.8C144.103 0.8 144.303 0.8 144.403 0.8C144.403 0.8 144.703 0.8 145.203 0.8C145.703 0.8 146.103 0.8 146.503 0.8H147.803C148.503 0.7 148.903 0.899994 148.903 1.19999Z"/>
</svg>
