<svg viewBox="0 0 24 24" fill="currentColor"><path d="M12 0C5.373 0 0 5.373 0 12s5.373 12 12 12c1.626 0 2.928-.48 4.339-1.068.384-.14.661-.5.661-.932 0-.553-.447-1-1-1-.291 0-.403.075-.403.075-1.185.493-2.234.925-3.597.925-5.522 0-10-4.478-10-10S6.478 2 12 2s10 4.478 10 10v1.5c0 1.381-1.119 2.5-2.5 2.5S17 14.881 17 13.5V8c0-.553-.447-1-1-1s-1 .447-1 1v.022C14.162 7.39 13.131 7 12 7c-2.762 0-5 2.238-5 5s2.238 5 5 5c1.372 0 2.613-.554 3.517-1.448C16.264 16.999 17.758 18 19.5 18c2.485 0 4.5-2.015 4.5-4.5V12c0-6.627-5.373-12-12-12zm0 15c-1.657 0-3-1.343-3-3s1.343-3 3-3 3 1.343 3 3-1.343 3-3 3z"/></svg>