<svg viewBox="0 0 24 24" fill="currentColor"><path d="M16.743 7.257c-.373-.373-.978-.373-1.351 0l-3.378 3.377-3.376-3.377c-.373-.373-.978-.373-1.351 0s-.373.978 0 1.351l3.377 3.378-3.377 3.377c-.373.373-.373.978 0 1.351s.978.373 1.351 0l3.377-3.377 3.378 3.377c.373.373.978.373 1.351 0s.373-.978 0-1.351l-3.377-3.377 3.377-3.378c.372-.374.372-.978-.001-1.351zm3.742-3.742c-4.687-4.687-12.284-4.687-16.971 0s-4.687 12.284 0 16.971 12.284 4.687 16.971 0 4.687-12.285 0-16.971zm-1.414 15.556c-3.905 3.905-10.237 3.905-14.143 0s-3.905-10.237 0-14.143 10.237-3.905 14.143 0 3.906 10.238 0 14.143z"/></svg>