<svg viewBox="0 0 24 24" fill="currentColor"><path d="M12 10c-.552 0-1 .447-1 1s.448 1 1 1 1-.447 1-1-.448-1-1-1zm-5 0c-.552 0-1 .447-1 1s.448 1 1 1 1-.447 1-1-.448-1-1-1zm10 0c-.552 0-1 .447-1 1s.448 1 1 1 1-.447 1-1-.448-1-1-1zm-5-9C5.373 1 0 5.478 0 11c0 2.995 1.513 5.701 4 7.539V22c0 .553.448 1 1 1 .276 0 .526-.112.707-.293L8 20.414c1.252.372 2.594.586 4 .586 6.627 0 12-4.478 12-10S18.627 1 12 1zm0 18c-1.627 0-3.238-.457-4.04-.686l-.001.003c-.106-.038-.216-.067-.334-.067-.247 0-.332.043-.332.043L6 19.586V18c0-.422-.262-.778-.631-.926C3.253 15.607 2 13.416 2 11c0-4.418 4.477-8 10-8s10 3.582 10 8-4.477 8-10 8z"/></svg>