<svg xmlns="http://www.w3.org/2000/svg" xmlns:xlink= "http://www.w3.org/1999/xlink" fill="var(--bg)" stroke="var(--mode, #fff)" viewBox="0 0 41 42">
  <path stroke-width="1.25" d="M28 14.3333c-.46 0-.8767.1867-1.1783.4884l-8.155 10.155-4.155-4.155c-.3017-.3017-.7184-.4884-1.1784-.4884-.9216 0-1.6666.745-1.6666 1.6667 0 .46.1866.8767.4883 1.1783l5.3333 5.3334c.3017.3016.7184.4883 1.1784.4883.46 0 .8766-.1867 1.1783-.4883l9.3333-11.3334c.3017-.3016.4884-.7183.4884-1.1783 0-.9217-.745-1.6667-1.6667-1.6667zM20 1C8.955 1 0 9.955 0 21s8.955 20 20 20 20-8.955 20-20S31.045 1 20 1zm0 36.6667c-9.2033 0-16.66667-7.4634-16.66667-16.6667C3.33333 11.7967 10.7967 4.33333 20 4.33333c9.2033 0 16.6667 7.46337 16.6667 16.66667 0 9.2033-7.4634 16.6667-16.6667 16.6667z"/>
</svg>
