<svg viewBox="192.765 185.775 23.98 23.98" width="23.98" height="23.98" fill="currentColor">
  <path d="M 275.72 275.357 C 275.444 275.357 275.196 275.467 275.014 275.649 L 269.237 283.439 L 265.452 279.653 C 265.272 279.473 265.021 279.36 264.745 279.36 C 264.192 279.36 263.745 279.807 263.745 280.361 C 263.745 280.636 263.859 280.886 264.039 281.067 L 268.532 285.559 C 268.713 285.74 268.962 285.852 269.237 285.852 C 269.513 285.852 269.764 285.74 269.945 285.559 L 276.428 277.062 C 276.607 276.88 276.72 276.63 276.72 276.355 C 276.72 275.803 276.273 275.357 275.72 275.357 Z M 270.229 267.867 C 263.607 267.867 258.238 273.236 258.238 279.857 C 258.238 286.478 263.607 291.847 270.229 291.847 C 276.849 291.847 282.218 286.478 282.218 279.857 C 282.218 273.236 276.849 267.867 270.229 267.867 Z M 270.229 289.848 C 264.712 289.848 260.237 285.375 260.237 279.857 C 260.237 274.339 264.712 269.865 270.229 269.865 C 275.747 269.865 280.22 274.339 280.22 279.857 C 280.22 285.375 275.747 289.848 270.229 289.848 Z" transform="matrix(1, 0, 0, 1, -65.472824, -82.0924)"/>
</svg>
