<svg viewBox="0 0 24 24" fill="currentColor"><path d="M12 0C5.373 0 0 5.373 0 12s5.373 12 12 12 12-5.373 12-12S18.627 0 12 0zm0 2c3.699 0 6.921 2.014 8.651 5H12c-2.067 0-3.839 1.255-4.601 3.043L4.636 5.251C6.464 3.258 9.082 2 12 2zm3 10c0 1.657-1.343 3-3 3s-3-1.343-3-3 1.343-3 3-3 3 1.343 3 3zM2 12c0-1.791.477-3.469 1.302-4.923l4.424 7.53S9.256 17 11.999 17c.208 0 .406-.036.607-.062l-2.81 4.81C5.335 20.744 2 16.765 2 12zm10 10c-.013 0-.025-.002-.038-.002l4.438-7.67c.37-.698.6-1.482.6-2.328 0-1.131-.39-2.162-1.022-3h5.563c.297.947.459 1.954.459 3 0 5.522-4.477 10-10 10z"/></svg>