<svg viewBox="0 0 24 24" fill="currentColor"><path d="M22.963 12.257C22.579 6.53 17.824 2 12 2 6.172 2 1.416 6.535 1.037 12.268.424 12.609 0 13.249 0 14c0 1.104.896 2 2 2s2-.896 2-2c0-.691-.351-1.301-.885-1.66.519-2.499 2.732-4.379 5.385-4.379s4.866 1.88 5.385 4.379c-.534.359-.885.969-.885 1.66 0 1.104.896 2 2 2s2-.896 2-2c0-.784-.455-1.455-1.111-1.783-.595-3.549-3.672-6.256-7.389-6.256-.937 0-1.832.174-2.658.488C7.452 4.935 9.614 4 12 4c4.733 0 8.604 3.656 8.965 8.297-.576.35-.965.979-.965 1.703 0 .687.347 1.292.875 1.652C20.344 18.136 18.142 20 15.5 20s-4.844-1.864-5.375-4.348c.528-.36.875-.965.875-1.652 0-1.104-.896-2-2-2s-2 .896-2 2c0 .786.458 1.46 1.118 1.787C8.729 19.314 11.798 22 15.5 22s6.771-2.686 7.382-6.213C23.542 15.46 24 14.786 24 14c0-.754-.422-1.402-1.037-1.743z"/></svg>