<svg viewBox="0 0 24 24" fill="currentColor"><path d="M15 19c-.276 0-.526.112-.707.293L13 20.586V11c0-.553-.447-1-1-1s-1 .447-1 1v9.586l-1.293-1.293C9.526 19.112 9.276 19 9 19c-.553 0-1 .447-1 1 0 .276.112.526.293.707l3 3c.181.181.431.293.707.293s.526-.112.707-.293l3-3c.181-.181.293-.431.293-.707 0-.553-.447-1-1-1zm5.968-12.186c.006-.106.032-.207.032-.314C21 2.91 18.09 0 14.5 0c-2.238 0-4.211 1.132-5.38 2.854C8.381 2.322 7.48 2 6.5 2 4.015 2 2 4.015 2 6.5c0 .332.041.654.11.967C.829 8.566 0 10.179 0 12c0 3.313 2.687 6 6 6 .553 0 1-.447 1-1s-.447-1-1-1c-2.209 0-4-1.791-4-4 0-1.753 1.135-3.227 2.704-3.767C4.27 7.783 4 7.174 4 6.5 4 5.119 5.119 4 6.5 4s2.487 1.099 2.487 2.479c0 .656 1.013.667 1.013.021C10 4.015 12.015 2 14.5 2S19 4.015 19 6.5c0 .555-.114 1.08-.298 1.57C20.575 8.404 22 10.031 22 12c0 2.209-1.791 4-4 4-.553 0-1 .447-1 1s.447 1 1 1c3.313 0 6-2.687 6-6 0-2.229-1.229-4.15-3.032-5.186z"/></svg>