<svg viewBox="0 0 24 24" fill="currentColor"><path d="M12 0C5.373 0 0 5.373 0 12s5.373 12 12 12 12-5.373 12-12S18.627 0 12 0zM9.943 2.25C8.592 3.249 7.459 4.529 6.622 6H4.054c1.431-1.875 3.492-3.245 5.889-3.75zM2.846 8h2.881c-.334.955-.567 1.956-.654 3H2.051c.105-1.061.383-2.066.795-3zm0 8c-.412-.934-.689-1.939-.795-3h3.022c.087 1.044.319 2.045.653 3h-2.88zm1.208 2h2.568c.837 1.471 1.97 2.751 3.321 3.75-2.397-.505-4.458-1.875-5.889-3.75zM11 20.317c-.823-.64-1.545-1.428-2.141-2.317H11v2.317zM11 16H7.81c-.383-.952-.642-1.963-.742-3H11v3zm0-5H7.067c.101-1.037.36-2.048.743-3H11v3zm0-5H8.859c.596-.889 1.318-1.678 2.141-2.317V6zm10.154 2c.412.934.689 1.939.795 3h-3.022c-.087-1.044-.319-2.045-.653-3h2.88zm-1.208-2h-2.568c-.837-1.471-1.97-2.751-3.321-3.75 2.397.505 4.458 1.875 5.889 3.75zM13 3.683c.823.64 1.545 1.429 2.141 2.317H13V3.683zM13 8h3.19c.383.952.642 1.963.742 3H13V8zm0 5h3.933c-.101 1.037-.359 2.048-.742 3H13v-3zm0 5h2.141c-.596.889-1.317 1.677-2.141 2.317V18zm1.057 3.75c1.352-.999 2.484-2.279 3.321-3.75h2.568c-1.431 1.875-3.492 3.245-5.889 3.75zM21.154 16h-2.881c.334-.955.566-1.956.653-3h3.022c-.104 1.061-.382 2.066-.794 3z"/></svg>