<svg viewBox="0 0 21 20" fill="none">
<circle cx="10.5" cy="10" r="9.5" stroke="currentColor"/>
<path d="M10.49 5.37158C9.88571 5.37158 9.53857 5.74444 9.53857 6.40015C9.53857 6.86301 9.61571 7.49301 9.71857 8.2773C9.84714 9.22872 10.0143 10.3987 10.1171 11.6973H10.8371C10.94 10.3987 11.1071 9.22872 11.2357 8.2773C11.3514 7.49301 11.4286 6.86301 11.4286 6.40015C11.4286 5.74444 11.0686 5.37158 10.49 5.37158ZM10.4771 14.3716C11.03 14.3716 11.4543 13.9473 11.4543 13.4202C11.4543 12.9059 11.03 12.4816 10.49 12.4816C9.92429 12.4816 9.5 12.9059 9.5 13.433C9.5 13.9473 9.92429 14.3716 10.4771 14.3716Z" fill="currentColor"/>
</svg>
