<svg xmlns="http://www.w3.org/2000/svg" fill="currentColor" viewBox="0 0 14 18">
  <path d="M0 6.71544C0 3.01278 3.01108.00048828 6.71227.00048828c3.70123 0 6.71223 3.01229172 6.71223 6.71495172 0 5.51676-6.04417 10.90336-6.30144 11.12996-.1174.1034-.26406.1551-.41079.1551-.14673 0-.29339-.0518-.41072-.1551C6.04415 17.6187 0 12.2321 0 6.71544zm1.24302 0c0 4.17346 4.13295 8.51666 5.46925 9.81156 1.3363-1.2949 5.46923-5.6381 5.46923-9.81156 0-3.01721-2.45349-5.47193-5.46923-5.47193-3.01574 0-5.46925 2.45472-5.46925 5.47193zm2.3618-.00004c0-1.72484 1.39399-3.12811 3.1075-3.12811 1.7135 0 3.1075 1.40327 3.1075 3.12811 0 1.7249-1.394 3.12811-3.1075 3.12811-1.71351 0-3.1075-1.40321-3.1075-3.12811zm1.24296 0c0 1.03945.83642 1.88509 1.86454 1.88509 1.02811 0 1.86453-.84564 1.86453-1.88509s-.83642-1.88509-1.86453-1.88509c-1.02812 0-1.86454.8457-1.86454 1.88509z" />
</svg>
