<svg viewBox="0 0 24 24" fill="currentColor"><path d="M22 15.184V8.816c1.163-.413 2-1.511 2-2.816 0-1.657-1.343-3-3-3s-3 1.343-3 3c0 1.305.837 2.403 2 2.816V11h-6V8.816c1.163-.413 2-1.511 2-2.816 0-1.657-1.343-3-3-3s-3 1.343-3 3c0 1.305.837 2.403 2 2.816V11H6V8.816C7.163 8.403 8 7.305 8 6c0-1.657-1.343-3-3-3S2 4.343 2 6c0 1.305.837 2.403 2 2.816V11H2v-1c0-.553-.448-1-1-1s-1 .447-1 1v2c0 .553.448 1 1 1h3v2.184c-1.163.413-2 1.511-2 2.816 0 1.657 1.343 3 3 3s3-1.343 3-3c0-1.305-.837-2.403-2-2.816V13h6v2.184c-1.163.413-2 1.512-2 2.816 0 1.657 1.343 3 3 3s3-1.343 3-3c0-1.305-.837-2.403-2-2.816V13h6v2.184c-1.163.413-2 1.512-2 2.816 0 1.657 1.343 3 3 3s3-1.343 3-3c0-1.305-.837-2.403-2-2.816zM5 19c-.552 0-1-.447-1-1s.448-1 1-1 1 .447 1 1-.448 1-1 1zM5 7c-.552 0-1-.447-1-1s.448-1 1-1 1 .447 1 1-.448 1-1 1zm8 12c-.552 0-1-.447-1-1s.448-1 1-1 1 .447 1 1-.448 1-1 1zm0-12c-.552 0-1-.447-1-1s.448-1 1-1 1 .447 1 1-.448 1-1 1zm8-2c.552 0 1 .447 1 1s-.448 1-1 1-1-.447-1-1 .448-1 1-1zm0 14c-.552 0-1-.447-1-1s.448-1 1-1 1 .447 1 1-.448 1-1 1z"/></svg>