<svg viewBox="0 0 24 24" fill="currentColor"><path d="M1 17c.429 0 .787-.272.93-.651l.007.003L2.443 15h3.113l.168.447 1.554-1.554-2.341-6.245-.007.003C4.787 7.272 4.429 7 4 7s-.787.272-.93.651l-.007-.003-3 8 .007.003c-.041.11-.07.225-.07.349 0 .553.447 1 1 1zm3-6.152L4.807 13H3.193L4 10.848zM11 9h1.172l1.818-1.819C13.679 7.071 13.349 7 13 7h-3c-.553 0-1 .447-1 1v4.172l2-2V9zm13-8c0-.553-.447-1-1-1-.276 0-.526.112-.707.293l-22 22C.112 22.474 0 22.724 0 23c0 .553.447 1 1 1 .276 0 .526-.112.707-.293l22-22C23.888 1.526 24 1.276 24 1zm-3 8h2c.553 0 1-.447 1-1s-.447-1-1-1h-2c-.639 0-1.229.203-1.715.543l-.742.742C18.203 8.771 18 9.361 18 10c0 1.657 1.343 3 3 3 .553 0 1 .447 1 1s-.447 1-1 1h-2c-.553 0-1 .447-1 1s.447 1 1 1h2c1.657 0 3-1.343 3-3s-1.343-3-3-3c-.553 0-1-.447-1-1s.447-1 1-1zm-7 5c0 .553-.447 1-1 1h-1.172l-1.971 1.971c.049.008.092.029.143.029h3c1.657 0 3-1.343 3-3v-3.172l-2 2V14z"/></svg>