<svg viewBox="0 0 24 24" fill="currentColor"><path d="M22 11c0-1.657-1.343-3-3-3h-.184C18.403 6.837 17.304 6 16 6h-.778c-.55-.609-1.337-1-2.222-1V3c0-1.657-1.343-3-3-3S7 1.343 7 3v6.184C6.686 9.072 6.353 9 6 9c-1.657 0-3 1.343-3 3 0 .564.166 1.087.437 1.538L9 23c0 .553.448 1 1 1h9c.441 0 .804-.291.937-.688l.012.004 2-6-.012-.004c.033-.099.063-.202.063-.312v-6zm-2 5.838L18.279 22H11l-5.843-9.494C5.066 12.355 5 12.188 5 12c0-.553.448-1 1-1s1 .447 1 1c0 .552.448 1 1 1s1-.448 1-1V3c0-.553.448-1 1-1s1 .447 1 1v7c0 .552.448 1 1 1s1-.448 1-1V7c.552 0 1 .447 1 1v2c0 .552.448 1 1 1s1-.448 1-1V8c0-.011-.003-.021-.003-.031H16V8c.552 0 1 .447 1 1v2c0 .553.448 1 1 1s1-.447 1-1v-1c.552 0 1 .447 1 1v5.838z"/></svg>