<svg viewBox="0 0 24 24" fill="currentColor"><path d="M7 13c0-.553-.447-1-1-1-.468 0-.843.328-.952.762l-.018-.004-.512 2.045C4.189 13.93 4 12.988 4 12c0-4.418 3.582-8 8-8 1.286 0 2.467.342 3.543.882l.003-.004c.138.071.288.122.454.122.553 0 1-.447 1-1 0-.396-.235-.731-.569-.894l.007-.012C15.091 2.42 13.608 2 12 2 6.478 2 2 6.478 2 12c0 1.426.313 2.773.852 4H1c-.553 0-1 .447-1 1s.447 1 1 1h4c.468 0 .843-.328.952-.762l.018.004 1-4-.018-.004C6.972 13.16 7 13.084 7 13zm16-7h-4c-.468 0-.843.328-.952.762l-.018-.004-1 4 .018.004c-.02.078-.048.154-.048.238 0 .553.447 1 1 1 .468 0 .843-.328.952-.762l.018.004.512-2.045c.329.873.518 1.815.518 2.803 0 4.418-3.582 8-8 8-1.262 0-2.449-.332-3.51-.854C8.343 19.062 8.182 19 8 19c-.553 0-1 .447-1 1 0 .386.226.711.546.878l-.015.027C8.878 21.58 10.392 22 12 22c5.522 0 10-4.478 10-10 0-1.426-.313-2.773-.852-4H23c.553 0 1-.447 1-1s-.447-1-1-1z"/></svg>