<svg viewBox="0 0 24 24" fill="currentColor"><path d="M23 19h-8.277c-.347-.596-.984-1-1.723-1v-2h8c.553 0 1-.447 1-1V3c0-.553-.447-1-1-1H3c-.553 0-1 .447-1 1v12c0 .553.447 1 1 1h8v2c-.738 0-1.376.404-1.723 1H1c-.553 0-1 .447-1 1s.447 1 1 1h8.277c.347.596.984 1 1.723 1h2c.738 0 1.376-.404 1.723-1H23c.553 0 1-.447 1-1s-.447-1-1-1zM4 14V4h16v10H4zm5-7c0-.553-.447-1-1-1-.276 0-.526.112-.707.293l-2 2C5.111 8.474 5 8.724 5 9c0 .546.293.707.293.707l2 2S7.454 12 8 12c.553 0 1-.447 1-1 0-.276-.112-.526-.293-.707L7.414 9l1.293-1.293C8.888 7.526 9 7.276 9 7zm9.707 1.293l-2-2S16.546 6 16 6c-.553 0-1 .447-1 1 0 .546.293.707.293.707L16.586 9l-1.293 1.293S15 10.454 15 11c0 .553.447 1 1 1 .276 0 .526-.112.707-.293l2-2S19 9.546 19 9s-.293-.707-.293-.707z"/></svg>