<svg viewBox="0 0 24 24" fill="currentColor"><path d="M5 10c-.553 0-1 .447-1 1s.447 1 1 1c3.512 0 7 3.529 7 7 0 .553.447 1 1 1s1-.447 1-1c0-4.45-4.55-9-9-9zm1 6c-1.104 0-2 .896-2 2s.896 2 2 2 2-.896 2-2-.896-2-2-2zM5 5c-.553 0-1 .447-1 1s.447 1 1 1c5.94 0 12 5.935 12 12 0 .553.447 1 1 1s1-.447 1-1c0-7.42-6.622-14-14-14zm15-5H4C1.791 0 0 1.791 0 4v16c0 2.209 1.791 4 4 4h16c2.209 0 4-1.791 4-4V4c0-2.209-1.791-4-4-4zm2 20c0 1.104-.896 2-2 2H4c-1.104 0-2-.896-2-2V4c0-1.104.896-2 2-2h16c1.104 0 2 .896 2 2v16z"/></svg>