<svg
    xmlns="http://www.w3.org/2000/svg"
    fill="currentColor"
    viewBox="0 0 18 18">
    <path d="M6.23355.00001664C7.88561-.00378558 9.47194.64423 10.6455 1.80231c1.1736 1.15807 1.8389 2.73193 1.8503 4.37728.01 1.42991-.4746 2.81265-1.3613 3.92091l1.4931 1.5225c.2584-.2167.6449-.2039.8882.0384L18 16.1275 16.1199 18l-4.4842-4.4661c-.2569-.2558-.2569-.6705 0-.9263.0033-.0033.0067-.0066.01-.0098l-1.5099-1.5038c-1.11179.8802-2.49786 1.3612-3.93112 1.3513-1.65203-.0114-3.23228-.674-4.39506-1.8428C.646846 9.43364-.00380095 7.85373.0000167 6.20835.00383437 4.56296.661806 2.98606 1.82999 1.82259 2.99818.65913 4.58149.00381885 6.23355.00001664zM9.73603 9.69666l.03194-.0324c.91373-.92698 1.42153-2.17663 1.41253-3.47559-.0091-1.29896-.5343-2.54148-1.46078-3.45575-.92651-.91427-2.17887-1.42586-3.48313-1.42286-1.30426.003-2.55424.52035-3.47649 1.43888-.92226.91852-1.44171 2.16345-1.44472 3.46243-.00301 1.29899.51065 2.54629 1.42863 3.46905.91799.92278 2.16555 1.44588 3.46978 1.45488 1.30424.009 2.55896-.4968 3.4897-1.40683l.03254-.03181z" />
</svg>
