<svg viewBox="0 0 24 24" fill="currentColor"><path d="M22.999 14v-1c0-1.657-1.344-3-3.004-3-1.659 0-3.004 1.343-3.004 3v1c-.553 0-1.001.447-1.001 1v6c0 .553.448 1 1.001 1h6.008c.553 0 1.001-.447 1.001-1v-6c0-.553-.448-1-1.001-1zm-4.005-1c0-.553.448-1 1.001-1 .554 0 1.001.447 1.001 1v1h-2.002v-1zm3.004 7h-4.005v-4h4.005v4zm.258-11.922c.181.183.432.297.711.297.553 0 1.001-.447 1.001-1 0-.574-.33-.742-.33-.742C20.592 3.768 16.499 2 11.984 2S3.376 3.768.33 6.633c0 0-.33.168-.33.742 0 .553.448 1 1.001 1 .278 0 .529-.114.711-.297C4.399 5.556 8.005 4 11.984 4c3.978 0 7.585 1.556 10.272 4.078zm-6.097 1.848c.404-.587.971-1.065 1.648-1.402C16.082 7.561 14.102 7 11.984 7c-3.187 0-6.076 1.248-8.228 3.271 0 0-.284.185-.284.729 0 .553.448 1 1.001 1 .306 0 .57-.145.753-.36C7.01 10.007 9.375 9 11.984 9c1.494 0 2.904.339 4.175.926zm-2.805 7.621c-.358-.337-.839-.547-1.37-.547s-1.011.21-1.369.547c0 0-1.181.837.144 1.397.474 0 1.225.056 1.225.056s.82-.053 1.162-.053c1.307-.511.208-1.4.208-1.4zm-6.03-3.759c.278-.244-.346.154-.346.743 0 .553.448 1 1.001 1 .21 0 .395-.08.557-.19 0 0 .825-1.341 3.449-1.341.952 0 1.662.179 2.188.403.301-.563.926-1.164 1.493-1.348C14.595 12.39 13.338 12 11.984 12c-1.793 0-3.42.682-4.66 1.788z"/></svg>