<svg fill="currentColor" viewBox="0 0 32 33">
  <path fill-rule="evenodd" d="M15.5113 1.21241c-2.5214-.00156-4.9993.65426-7.18985 1.90256-2.19058 1.2483-4.01796 3.0458-5.30154 5.21564-1.28359 2.16979-1.97919 4.63689-2.01818 7.15749-.038978 2.5207.58003 5.0081 1.7959 7.2166l-1.79668 7.5076 7.3319-1.8932c1.92995 1.0965 4.08585 1.7355 6.30155 1.8676 2.2158.1321 4.4321-.2463 6.4786-1.1057 2.0466-.8593 3.8686-2.1768 5.3256-3.8511 1.4569-1.6743 2.5102-3.6607 3.0784-5.806.5681-2.1454.636-4.3926.1987-6.5684-.4374-2.1758-1.3682-4.22207-2.7212-5.98142-1.3531-1.75935-3.092-3.18505-5.0828-4.16661-1.9908-.98155-4.1807-1.49291-6.4004-1.49506zm0 27.79149c-2.3863-.0002-4.7288-.6399-6.78386-1.8526l-.21755-.1372-5.80077 1.4903 1.38557-5.9693-.12077-.2092c-1.45522-2.5364-2.03311-5.4819-1.64444-8.38.38867-2.8982 1.72229-5.58727 3.7944-7.65081C8.19599 4.23156 10.8908 2.90875 13.791 2.53165s5.8437.21258 8.3748 1.67758c2.5311 1.465 4.5086 3.72357 5.6257 6.42597 1.1171 2.7023 1.3115 5.6978.5535 8.522-.7579 2.8242-2.4259 5.3195-4.746 7.0997-2.3202 1.7802-5.1631 2.7457-8.0877 2.747zm0-8.4582c-1.4429-.0005-2.8268-.5733-3.8479-1.5927-1.0211-1.0194-1.5958-2.4021-1.5984-3.8448H8.85648c0 1.7636.70084 3.4548 1.94812 4.7019 1.2473 1.2471 2.9388 1.9478 4.7028 1.9478 1.764 0 3.4559-.7007 4.7032-1.9478 1.2473-1.2471 1.9477-2.9383 1.9477-4.7019h-1.2085c-.0022 1.4414-.5754 2.8232-1.5949 3.8425-1.0194 1.0192-2.4019 1.5928-3.8436 1.595z" clip-rule="evenodd"/>
  <path fill-rule="evenodd" d="M7.68156 3.17043c2.2552-1.28468 4.80624-1.95963 7.40204-1.95802 2.2852.00221 4.5398.52847 6.5894 1.53865 2.0495 1.01017 3.8398 2.47743 5.2328 4.28805 1.3929 1.81065 2.3512 3.91659 2.8015 6.15579.4502 2.2392.3804 4.5519-.2046 6.7598-.5849 2.2079-1.6693 4.2522-3.1692 5.9753-1.5 1.7231-3.3758 3.079-5.4827 3.9634-2.1069.8844-4.3886 1.2738-6.6698 1.1379-2.2265-.1327-4.39425-.7624-6.34424-1.8417L0 31.2124l1.91977-8.0191C.717559 20.955.106519 18.4461.145843 15.9043c.040132-2.5942.756264-5.1331 2.077727-7.3662 1.32148-2.23311 3.2028-4.083 5.45799-5.36767zm7.40144-1.1514c-2.4554-.00149-4.8685.63695-7.00181 1.85219-2.13335 1.21526-3.91295 2.96517-5.16297 5.07751C1.66819 11.0611.990763 13.4628.9528 15.9167c-.037963 2.4539.56487 4.8755 1.74896 7.0255l.07525.1366-1.67994 7.0173 6.85303-1.7688.14206.0807c1.87948 1.0673 3.97904 1.6895 6.13684 1.8181 2.1578.1286 4.3162-.2398 6.3093-1.0764 1.993-.8366 3.7674-2.1192 5.1863-3.7492 1.4189-1.63 2.4446-3.5637 2.998-5.6523.5533-2.0885.6193-4.2761.1934-6.3943-.4259-2.1183-1.3324-4.11036-2.65-5.82311-1.3177-1.71279-3.0112-3.10074-4.95-4.05628-1.9387-.95553-4.0713-1.45336-6.233-1.45548.0001 0 0 0 0 0zm6.4639 2.94656c-2.4585-1.42251-5.3177-1.99508-8.1347-1.62892-2.8171.36616-5.43462 1.65059-7.44733 3.65427-2.0127 2.00367-3.30809 4.61476-3.68562 7.42886-.37749 2.8138.18372 5.6736 1.59696 8.1363.00011.0002-.00011-.0002 0 0l.20035.347-1.27363 5.4851 5.33536-1.3703.35998.227c1.99513 1.1757 4.26873 1.7958 6.58493 1.7961 2.8408-.0013 5.6022-.9388 7.8558-2.6673 2.2536-1.7286 3.8737-4.1515 4.61-6.8938.7362-2.7423.5474-5.6509-.5377-8.2748-1.0851-2.62394-3.0059-4.817-5.4644-6.23951zM15.0836 29.8476c3.0183-.0013 5.9522-.9974 8.3467-2.834 2.3945-1.8366 4.1159-4.411 4.8981-7.3246.7823-2.9137.5817-6.004-.5712-8.792-1.153-2.78799-3.1938-5.1181-5.806-6.6295-2.6121-1.51141-5.65-2.11976-8.6431-1.73072-2.9931.38905-5.77428 1.75376-7.91277 3.88266-2.1385 2.1289-3.51485 4.90316-3.91597 7.89316-.40112 2.9899.19528 6.0287 1.69713 8.6454l.00052.001.04142.0717-1.50219 6.4694 6.28573-1.6144.0758.0478.00517.0031c2.12066 1.251 4.53816 1.9108 7.00066 1.911zM8.01378 15.1267h2.01692l.0007.4026c.0024 1.3379.5355 2.6201 1.4827 3.5653.9471.9452 2.2305 1.4763 3.5688 1.4768 1.3373-.002 2.6196-.5339 3.5652-1.4789.9456-.9451 1.4774-2.2264 1.4794-3.5631l.0006-.4027h2.017v.4033c0 1.873-.7441 3.669-2.0692 4.9934-1.3251 1.3244-3.1225 2.0685-4.9965 2.0685-1.8739 0-3.6709-.7441-4.996-2.0685-1.32506-1.3243-2.06962-3.1204-2.06962-4.9934v-.4033zm.82007.8066c.09768 1.5118.74195 2.942 1.82025 4.0198 1.1737 1.1731 2.7655 1.8322 4.4253 1.8322 1.6599 0 3.2521-.6591 4.4258-1.8322 1.0782-1.0777 1.7222-2.508 1.8198-4.0198h-.4049c-.0988 1.4029-.7 2.7287-1.7013 3.7295-1.0967 1.0962-2.5839 1.713-4.1348 1.7153-1.5523-.0005-3.0417-.6165-4.1401-1.7127-1.00309-1.001-1.60575-2.3279-1.70498-3.7321h-.40507z" clip-rule="evenodd"/>
</svg>