<svg viewBox="0 0 24 24" fill="currentColor"><path d="M20 16c-1.202 0-2.269.542-3.001 1.381l-9.09-4.544c.058-.271.091-.55.091-.837s-.033-.566-.091-.837l9.09-4.544C17.731 7.458 18.798 8 20 8c2.209 0 4-1.791 4-4s-1.791-4-4-4-4 1.791-4 4c0 .287.033.566.091.837l-9.09 4.544C6.269 8.541 5.202 8 4 8c-2.209 0-4 1.791-4 4s1.791 4 4 4c1.202 0 2.269-.542 3.001-1.381l9.09 4.544c-.058.271-.091.55-.091.837 0 2.209 1.791 4 4 4s4-1.791 4-4-1.791-4-4-4zm0-14c1.104 0 2 .896 2 2s-.896 2-2 2-2-.896-2-2 .896-2 2-2zM4 14c-1.104 0-2-.896-2-2s.896-2 2-2 2 .896 2 2-.896 2-2 2zm16 8c-1.104 0-2-.896-2-2s.896-2 2-2 2 .896 2 2-.896 2-2 2z"/></svg>