<svg fill="currentColor" viewBox="0 0 14 14">
  <path d="M13.6933 11.6437c0 .7233-.2333 1.3067-.6766 1.7267-.4434.42-1.0267.63-1.75.63H3.28667c-.74667 0-1.33-.21-1.77333-.63-.44334-.42-.67667-1.0034-.67667-1.7267 0-.3267 0-.63.023333-.9333.023334-.3034.07-.63.116667-1.00337.04667-.37333.14-.67666.23333-.98.09334-.30333.23334-.60666.39667-.88666.16333-.28.35-.53667.56-.74667.21-.21.46667-.37333.77-.49.30333-.11667.65333-.18667 1.02667-.18667.04666 0 .18666.07.37333.18667s.42.28.67667.44333c.25666.16334.58333.30334.98.44334.39666.14.81666.18666 1.21333.18666.39667 0 .81667-.07 1.21333-.18666.39667-.14.72334-.28.98-.44334.25667-.16333.49-.30333.6767-.44333.1866-.14.3266-.18667.3733-.18667.3733 0 .7.07 1.0267.18667.3266.11667.56.28.77.49.21.21.3966.44333.56.74667.1633.30333.3033.58333.3966.88666.0934.30334.1867.63.2334.98.0466.34997.1166.67667.1166 1.00337 0 .3266.14.6066.14.9333zm-2.9166-8.14333c0 .95666-.35 1.79666-1.0267 2.47333-.67666.67667-1.51666 1.02667-2.47333 1.02667-.95667 0-1.79667-.35-2.47333-1.02667-.67667-.67667-1.02667-1.51667-1.02667-2.47333 0-.95667.35-1.79667 1.02667-2.47334C5.48.350366 6.32.00036621 7.27667.00036621c.95667 0 1.79667.34999979 2.47333 1.02666379.6767.67667 1.0267 1.51667 1.0267 2.47334z"/>
</svg>
