<svg  xmlns="http://www.w3.org/2000/svg" fill="currentColor" viewBox="0 0 440 90"><path d="M135.39 30.8357h-13.537v-1.0028c1.754 0 2.507-.5014 2.507-2.507V15.2925l-8.524 11.2813h-4.011l-8.775-11.7827v12.2841c0 1.7549.752 2.507 2.257 2.507v1.0028H92.7718v-1.0028c1.7549 0 2.2563-.5014 2.2563-2.507V4.5126c0-2.00557-.5014-2.50696-2.2563-2.50696V1.00286H103.05c0 .50139.251 1.25348.752 2.00556L114.081 16.546l10.028-13.53758c.501-.75208.752-1.50417.752-2.00556h10.278v1.00278c-1.754 0-2.256.50139-2.256 2.50696v22.5626c0 1.7549.502 2.507 2.256 2.507v1.2535h.251zm16.546 0h-13.537v-1.0028c1.504 0 2.256-.7521 2.256-2.507V4.7633c0-1.75488-.752-2.50696-2.256-2.50696V1.00286h13.537v1.00278c-1.504 0-2.256.75209-2.256 2.50696v22.5626c0 1.7549.752 2.507 2.256 2.507v1.2535zm74.707-21.05848l-1.253.25068c-.752-1.50416-1.755-2.25625-3.51-2.25625h-8.022V27.3259c0 1.7549.752 2.507 2.256 2.507v1.0028h-13.287v-1.0028c1.755 0 2.257-.7521 2.257-2.507V7.77165h-8.023c-1.754 0-2.757.75209-3.509 2.25625l-1.254-.50138 2.006-9.025055c.752.250696 1.504.501395 2.507.501395h25.069c1.003 0 1.755-.250699 2.507-.501395l2.256 9.275755zm83.984-7.77158c-1.254 0-1.755.50139-2.507 2.25626l-8.023 22.3119c-.501 1.2535-.501 1.7549-.501 2.0056 0 .7521.501 1.2535 1.254 1.2535v1.0028h-10.279v-1.0028c.752 0 1.003-.5014 1.003-1.0028 0-.2507-.251-1.0028-.752-2.2563l-3.51-8.2729-3.259 8.2729c-.752 1.0028-1.003 1.7549-1.003 2.0056 0 .7521.501 1.0028 1.003 1.0028v1.0028h-10.279v-1.0028c.752 0 1.254-.5014 1.254-1.2535 0-.2507-.251-.7521-.752-2.0055l-8.023-22.31199c-.501-1.75487-1.253-2.25627-2.506-2.25627v-.75208h13.036v1.00278c-1.003 0-1.755.50139-1.755 1.50418 0 .25069 0 .75208.251 1.00278l4.011 13.5376 5.264-12.78551h5.014l5.265 12.78551 4.011-13.5376c.251-.50139.251-.75209.251-1.00278 0-1.00279-.752-1.50418-1.755-1.50418V1.00286h13.036v1.00278h.251zm36.852 0c-1.504 0-2.256.75209-2.256 2.50696V30.585h-7.521c-.251-1.0028-.502-1.7549-1.254-2.507l-13.537-14.5403v13.5375c0 1.7549.752 2.507 2.256 2.507v1.0028h-12.284v-1.0028c1.504 0 2.256-.7521 2.256-2.507V4.5126c0-1.75487-.752-2.50696-2.256-2.50696V1.00286h10.78c0 .50139.251 1.50417 1.003 2.00556l13.036 14.28968V4.7633c0-2.00557-.752-2.50696-2.507-2.50696V1.00286h12.535v1.00278h-.251zM121.853 89.9999h-19.805v-1.5042c2.507 0 3.509-.752 3.509-3.7604v-17.298L93.2732 83.7325h-5.766l-12.7855-17.298v18.0501c0 2.7577 1.0028 3.7605 3.5098 3.7605v1.5041H59.9307v-1.5041c2.5069 0 3.5097-.7521 3.5097-3.7605V51.8941c0-2.7576-.5014-3.7604-3.5097-3.7604v-1.5042h15.0417c0 .7521.2507 2.0056 1.0028 3.0084l15.0418 19.805 14.791-19.805c.752-1.0028 1.003-2.0056 1.003-3.0084h15.042v1.5042c-2.507 0-3.51.7521-3.51 3.7604v32.8412c0 2.7577.752 3.7604 3.51 3.7604v1.5042zm155.932-30.8356l-1.504.5014c-1.002-2.2563-2.507-3.259-5.014-3.259h-11.532v28.3286c0 2.507 1.254 3.7604 3.51 3.7604v1.5042H243.44v-1.5042c2.507 0 3.51-1.0027 3.51-3.7604V56.4067h-11.532c-2.507 0-4.011 1.0027-5.014 3.5097l-1.755-.5014 2.758-13.2869c1.003.2507 2.256.5014 3.76.5014h36.602c1.504 0 2.757-.2507 3.76-.5014l2.256 13.0362zm22.814 30.8356h-19.805v-1.5042c2.256 0 3.51-1.2534 3.51-3.7604V51.8941c0-2.5069-1.003-3.7604-3.51-3.7604v-1.5042h19.805v1.5042c-2.256 0-3.51 1.2535-3.51 3.7604v32.8412c0 2.507 1.003 3.7604 3.51 3.7604v1.5042zm55.153-41.8662c-2.256 0-3.51 1.0028-3.51 3.7604v38.1058h-11.03c-.251-1.2535-.753-2.5069-1.755-3.7604l-19.555-21.3092v19.5543c0 2.507 1.003 3.7605 3.259 3.7605v1.5041h-18.05v-1.5041c2.257 0 3.259-1.0028 3.259-3.7605V51.8941c0-2.7576-1.002-3.7604-3.509-3.7604v-1.5042h15.793c0 .7521.502 2.0056 1.254 3.0084l18.802 20.8077V51.8941c0-2.7576-1.003-3.7604-3.51-3.7604v-1.5042h18.301v1.5042h.251zm24.317 41.8662h-19.805v-1.5042c2.257 0 3.51-1.2534 3.51-3.7604V51.8941c0-2.5069-1.003-3.7604-3.51-3.7604v-1.5042h19.805v1.5042c-2.256 0-3.509 1.2535-3.509 3.7604v32.8412c0 2.507 1.002 3.7604 3.509 3.7604v1.5042zM171.24.250977c-6.518 0-12.786.501392-16.045.752083v1.00279c1.504 0 2.257.75209 2.257 2.75765v22.3119c0 1.7549-.753 2.507-2.257 2.507v1.0028c3.259.2507 9.777.7521 16.546.7521 11.783 0 18.802-6.5181 18.802-15.5432-.25-9.27572-7.52-15.543123-19.303-15.543123zm.251 24.568223c-2.006 0-4.012 0-5.265-.2507V7.52116c1.253-.25069 2.507-.25069 4.763-.25069 5.515 0 10.279 2.50696 10.279 8.77433 0 5.2646-4.262 8.7744-9.777 8.7744zm51.141 61.671c-3.259-4.2618-5.515-7.5209-7.521-11.532 5.516-2.0056 10.78-7.2702 10.78-13.7883 0-11.7827-10.529-15.2925-24.819-15.2925-5.014 0-15.793.5014-20.807.7521v1.5042c2.757 0 3.509 1.0028 3.509 3.5098v33.0918c0 2.7577-.752 3.7605-3.509 3.7605v1.5041h19.805v-1.5041c-2.257 0-3.51-.7521-3.51-3.7605v-8.273h6.267c1.504 4.2619 4.262 9.7772 6.769 13.2869h16.295v-1.5041c-1.755 0-2.507-.7521-3.259-1.7549zM202.075 67.688c-1.755 0-4.011 0-5.515-.2507V56.156c1.504 0 3.51-.2507 5.264-.2507 7.271 0 11.282 1.2535 11.282 5.766 0 4.7632-4.262 6.0167-11.031 6.0167zm-28.329 17.5488l-13.537-32.8412c-.251-.5013-.752-1.7548-.752-2.5069 0-1.0028.501-1.7549 1.754-1.7549v-1.5042h-20.557v1.5042c1.003 0 1.755.5014 1.755 1.7549 0 .5014-.25 1.2535-.752 2.2562L128.37 85.2368c-1.002 2.507-1.504 3.2591-3.76 3.2591v1.5042h18.802v-1.5042c-1.504 0-2.256-.2507-2.256-1.2535 0-.5014 0-1.0028.25-1.7549l.251-1.0028c2.256.7521 5.265 1.5042 8.524 1.5042 3.76 0 7.27-.7521 9.777-1.5042l.251.7521c.25.7521.501 1.2535.501 1.7549 0 1.0028-1.003 1.5042-2.507 1.5042v1.5042h19.053v-1.5042c-1.755-.2507-2.507-.7521-3.51-3.2591zm-23.314-8.7743c-2.507 0-4.262-.2507-6.017-1.0028l6.017-16.546 6.016 16.546c-1.755.7521-3.76 1.0028-6.016 1.0028zM246.699 0c-9.526 0-18.05 5.76601-18.05 15.7938 0 10.2786 9.025 16.0446 18.05 16.0446s18.05-5.5153 18.05-15.7939C265 5.76601 255.724 0 246.699 0zm0 24.5682c-4.763 0-9.025-3.259-9.025-8.7744 0-5.766 4.763-8.52362 9.025-8.52362 4.011 0 9.025 2.25627 9.025 8.52362 0 6.0168-5.014 8.7744-9.025 8.7744z"/></svg>
