<svg viewBox="0 0 24 24" fill="currentColor"><path d="M20 0H4c-.553 0-1 .447-1 1v22c0 .553.447 1 1 1h16c.553 0 1-.447 1-1V1c0-.553-.447-1-1-1zm-1 22H5v-3h1c0 .553.447 1 1 1s1-.447 1-1h1c0 .553.447 1 1 1s1-.447 1-1h5c0 .553.447 1 1 1s1-.447 1-1h1v3zm0-5h-1c0-.553-.447-1-1-1s-1 .447-1 1h-5c0-.553-.447-1-1-1s-1 .447-1 1H8c0-.553-.447-1-1-1s-1 .447-1 1H5v-4h1c0 .553.447 1 1 1s1-.447 1-1h5c0 .553.447 1 1 1s1-.447 1-1h1c0 .553.447 1 1 1s1-.447 1-1h1v4zm0-6h-1c0-.553-.447-1-1-1s-1 .447-1 1h-1c0-.553-.447-1-1-1s-1 .447-1 1H8c0-.553-.447-1-1-1s-1 .447-1 1H5V7h1c0 .553.447 1 1 1s1-.447 1-1h1c0 .553.447 1 1 1s1-.447 1-1h1c0 .553.447 1 1 1 .553 0 1-.447 1-1h5v4zm0-6h-5c0-.553-.447-1-1-1-.553 0-1 .447-1 1h-1c0-.553-.447-1-1-1s-1 .447-1 1H8c0-.553-.447-1-1-1s-1 .447-1 1H5V2h14v3z"/></svg>