<svg viewBox="0 0 24 24" fill="currentColor"><path d="M19 6H5c-.552 0-1 .447-1 1v14c0 .553.448 1 1 1h14c.552 0 1-.447 1-1V7c0-.553-.448-1-1-1zm-8.723 2h3.446c.172.295.277.634.277 1 0 .499-.189.949-.491 1.3-.466-.191-.974-.3-1.509-.3s-1.043.109-1.509.3C10.189 9.949 10 9.499 10 9c0-.366.105-.705.277-1zM12 12c1.104 0 2 .896 2 2s-.896 2-2 2-2-.896-2-2 .896-2 2-2zm6 8H6V8h2.141C8.054 8.319 8 8.652 8 9c0 .952.344 1.814.902 2.498C8.347 12.186 8 13.048 8 14c0 2.209 1.791 4 4 4s4-1.791 4-4c0-.952-.348-1.814-.902-2.502C15.656 10.814 16 9.952 16 9c0-.348-.055-.681-.141-1H18v12zm5-18H1c-.552 0-1 .447-1 1v4c0 .553.448 1 1 1s1-.447 1-1V4h20v3c0 .553.448 1 1 1s1-.447 1-1V3c0-.553-.448-1-1-1z"/></svg>