<svg viewBox="0 0 24 24" fill="currentColor"><path d="M16 16c.552 0 1-.447 1-1s-.448-1-1-1-1 .447-1 1 .448 1 1 1zm-8-4h4c.552 0 1-.447 1-1s-.448-1-1-1H8c-.552 0-1 .447-1 1s.448 1 1 1zm8 0c.552 0 1-.447 1-1s-.448-1-1-1-1 .447-1 1 .448 1 1 1zm-4 2c-.552 0-1 .447-1 1s.448 1 1 1 1-.447 1-1-.448-1-1-1zM23 2H1c-.552 0-1 .447-1 1v4c0 .553.448 1 1 1s1-.447 1-1V4h20v3c0 .553.448 1 1 1s1-.447 1-1V3c0-.553-.448-1-1-1zm-4 4H5c-.552 0-1 .447-1 1v14c0 .553.448 1 1 1 .206 0 .386-.077.544-.184l2.328-1.529 1.42 1.42s.161.293.707.293c.276 0 .526-.111.707-.293L12 20.414l1.293 1.293c.182.182.432.293.707.293s.525-.111.707-.293l1.42-1.42 2.318 1.545S18.591 22 19 22c.552 0 1-.447 1-1V7c0-.553-.448-1-1-1zm-1 13.132l-1.445-.964S16.409 18 16 18c-.275 0-.525.111-.707.293L14 19.586l-1.293-1.293C12.525 18.111 12.276 18 12 18c-.546 0-.707.293-.707.293L10 19.586l-1.293-1.293C8.526 18.111 8.276 18 8 18c-.408 0-.555.168-.555.168L6 19.132V8h12v11.132zM8 16c.552 0 1-.447 1-1s-.448-1-1-1-1 .447-1 1 .448 1 1 1z"/></svg>