<svg viewBox="0 0 24 24" fill="currentColor"><path d="M23.943 14.717l.015-.004-3-10-.017.004C20.818 4.306 20.452 4 20 4h-7V1c0-.553-.447-1-1-1-.553 0-1 .447-1 1v3H4c-.452 0-.819.306-.943.717l-.015-.004-3 10 .015.004C.029 14.809 0 14.898 0 15c0 2.209 1.791 4 4 4s4-1.791 4-4c0-.102-.029-.191-.057-.283l.015-.004L5.344 6H11v13.586l-2.707 2.707C8.112 22.475 8 22.725 8 23c0 .553.447 1 1 1h6c.553 0 1-.447 1-1 0-.275-.111-.525-.293-.707L13 19.586V6h5.656l-2.614 8.713.015.004c-.028.092-.057.181-.057.283 0 2.209 1.791 4 4 4s4-1.791 4-4c0-.102-.029-.191-.057-.283zM4 17c-.738 0-1.376-.404-1.723-1h3.445c-.346.596-.984 1-1.722 1zm1.656-3H2.344L4 8.48 5.656 14zm5.758 8l.586-.586.586.586h-1.172zM20 8.48L21.656 14h-3.313L20 8.48zM20 17c-.738 0-1.376-.404-1.723-1h3.445c-.346.596-.984 1-1.722 1z"/></svg>