<svg viewBox="0 0 24 24" fill="currentColor"><path d="M21 7h-3V4c0-1.657-1.343-3-3-3H3C1.343 1 0 2.343 0 4v6c0 1.305.838 2.403 2 2.816V16c0 .553.447 1 1 1 .276 0 .526-.111.707-.293L6 14.414V16c0 1.657 1.343 3 3 3h7.586l3.707 3.707c.182.182.432.293.707.293.553 0 1-.447 1-1v-3.184c1.162-.414 2-1.512 2-2.816v-6c0-1.657-1.343-3-3-3zM6.594 11L4 13.594V12c0-.553-.447-1-1-1s-1-.447-1-1V4c0-.553.447-1 1-1h12c.553 0 1 .447 1 1v6c0 .553-.447 1-1 1H6.594zM22 16c0 .553-.447 1-1 1s-1 .447-1 1v1.594L17.406 17H9c-.553 0-1-.447-1-1v-3h7c1.657 0 3-1.343 3-3V9h3c.553 0 1 .447 1 1v6zM11 5c0-.553-.447-1-1-1H8c-.553 0-1 .447-1 1 0 .161.047.308.114.442l-.009.005L8.382 8H8c-.553 0-1 .447-1 1s.447 1 1 1h2c.553 0 1-.447 1-1 0-.161-.047-.308-.114-.442l.009-.005L9.618 6H10c.553 0 1-.447 1-1z"/></svg>