<svg viewBox="0 0 24 24" fill="currentColor"><path d="M13 11.09V4.117c1.723.368 3 1.627 3 2.883 0 .553.447 1 1 1s1-.447 1-1c0-2.271-2.164-4.485-5-4.918V1c0-.553-.447-1-1-1-.553 0-1 .447-1 1v1.083C8.164 2.521 6 4.757 6 7c0 2.972 2.164 5.433 5 5.91v6.973C9.278 19.514 8 18.256 8 17c0-.553-.447-1-1-1s-1 .447-1 1c0 2.243 2.164 4.479 5 4.917V23c0 .553.447 1 1 1 .553 0 1-.447 1-1v-1.082c2.836-.434 5-2.646 5-4.918 0-2.973-2.164-5.433-5-5.91zM8 7c0-1.256 1.278-2.514 3-2.883v6.741C9.278 10.412 8 8.861 8 7zm5 12.885v-6.742c1.723.445 3 1.996 3 3.857 0 1.282-1.277 2.523-3 2.885z"/></svg>