<svg viewBox="0 0 24 24" fill="currentColor"><path d="M7 3H1c-.553 0-1 .447-1 1v17c0 .553.447 1 1 1h6c.553 0 1-.447 1-1V4c0-.553-.447-1-1-1zM6 20H2V5h4v15zm-2-1c.553 0 1-.447 1-1s-.447-1-1-1-1 .447-1 1 .447 1 1 1zm20-1c0-.15-.039-.292-.1-.42L15.906 2.577S15.756 2 15 2c-.188 0-.355.066-.506.157L8.485 5.143S8 5.311 8 6c0 .308.094.423.094.423L16.1 21.42c.159.341.5.58.9.58.188 0 .355-.066.506-.157l6.01-2.985-.01-.015c.29-.175.494-.48.494-.843zm-6.576 1.673L10.363 6.434l4.213-2.106 7.061 13.238-4.213 2.107zM18 17c.553 0 1-.447 1-1s-.447-1-1-1-1 .447-1 1 .447 1 1 1z"/></svg>