<svg viewBox="0 0 24 24" fill="currentColor"><path d="M4 14h2c.552 0 1-.448 1-1 0-.553-.448-1-1-1H5v-1c0-.553-.448-1-1-1s-1 .447-1 1v1.184c-1.163.414-2 1.511-2 2.816 0 1.657 1.343 3 3 3 .552 0 1 .447 1 1s-.448 1-1 1H2c-.552 0-1 .447-1 1s.448 1 1 1h1v1c0 .553.448 1 1 1s1-.447 1-1v-1.184c1.163-.414 2-1.511 2-2.816 0-1.657-1.343-3-3-3-.552 0-1-.448-1-1 0-.553.448-1 1-1zm18-7c-.299 0-.559.138-.743.346C20.709 7.853 19.807 8 19 8c-1.305 0-2.402-.838-2.816-2H19c.552 0 1-.447 1-1s-.448-1-1-1h-2.816c.414-1.162 1.511-2 2.816-2 1.137 0 2.246.691 2.246.691S21.434 3 22 3c.552 0 1-.447 1-1 0-.37-.21-.681-.509-.854C21.588.349 20.303 0 19 0c-2.419 0-4.436 1.718-4.898 4H14c-.552 0-1 .447-1 1s.448 1 1 1h.102c.463 2.282 2.479 4 4.898 4 1.381 0 2.818-.372 3.723-1.277 0 0 .277-.182.277-.723 0-.553-.448-1-1-1zm-2.293 4.293C19.525 11.112 19.275 11 19 11s-.525.112-.707.293l-3 3c-.182.182-.293.432-.293.707 0 .553.448 1 1 1 .275 0 .525-.111.707-.293L18 14.414V17c0 1.104-.896 2-2 2h-3.586l1.293-1.293c.182-.182.293-.432.293-.707 0-.553-.448-1-1-1-.275 0-.526.111-.707.293l-3 3C9.112 19.475 9 19.725 9 20s.112.525.293.707l3 3c.181.182.432.293.707.293.552 0 1-.447 1-1 0-.275-.111-.525-.293-.707L12.414 21H16c2.209 0 4-1.791 4-4v-2.586l1.293 1.293c.182.182.432.293.707.293.552 0 1-.447 1-1 0-.275-.111-.525-.293-.707l-3-3z"/></svg>