<svg viewBox="0 0 24 24" fill="currentColor"><path d="M6 19c.421 0 .778-.262.925-.63l.003.001 1.437-3.592.928.928c.181.182.431.293.707.293.391 0 .721-.23.885-.559l.009.006 1.379-2.76 1.019 1.02c.183.182.433.293.708.293.468 0 .843-.328.952-.762l.019.004 2.324-6.199 1.998 2.664c.182.181.432.293.707.293.391 0 .721-.23.885-.558l.01.005 3-6-.01-.005C23.953 3.308 24 3.161 24 3c0-.553-.448-1-1-1-.391 0-.721.23-.885.558l-.01-.005-2.28 4.563-2.117-2.822C17.525 4.112 17.275 4 17 4c-.468 0-.843.328-.952.762l-.019-.004-2.416 6.442-.906-.907C12.525 10.112 12.276 10 12 10c-.391 0-.721.23-.885.558l-.009-.005-1.379 2.759-1.019-1.02C8.526 12.112 8.276 12 8 12c-.421 0-.778.262-.925.63l-.003-.001-1.993 4.98v.002l-.007.018.003.001c-.046.115-.075.239-.075.37 0 .553.448 1 1 1zm17 2H3V1c0-.553-.448-1-1-1S1 .447 1 1c-.552 0-1 .447-1 1s.448 1 1 1v2c-.552 0-1 .447-1 1s.448 1 1 1v2c-.552 0-1 .447-1 1s.448 1 1 1v2c-.552 0-1 .447-1 1s.448 1 1 1v2c-.552 0-1 .447-1 1s.448 1 1 1v2c-.552 0-1 .447-1 1s.448 1 1 1c0 .553.448 1 1 1s1-.447 1-1h2c0 .553.448 1 1 1s1-.447 1-1h2c0 .553.448 1 1 1s1-.447 1-1h2c0 .553.448 1 1 1s1-.447 1-1h2c0 .553.448 1 1 1s1-.447 1-1h2c0 .553.448 1 1 1s1-.447 1-1c.552 0 1-.447 1-1s-.448-1-1-1z"/></svg>