<svg viewBox="0 0 24 24" fill="currentColor"><path d="M23 22h-5v-9.697l3.832-5.748-.016-.01c.107-.159.184-.34.184-.545 0-.553-.447-1-1-1-.348 0-.639.188-.816.455l-.016-.01-3.322 4.985-2.139-2.138C14.525 8.112 14.275 8 14 8s-.525.112-.707.293L11 10.586 8.707 8.293C8.526 8.112 8.276 8 8 8c-.347 0-.638.188-.816.455l-.016-.01-2.521 5.04L2 11.5V1c0-.553-.447-1-1-1S0 .447 0 1v22c0 .553.447 1 1 1h22c.553 0 1-.447 1-1s-.447-1-1-1zM4 22H2v-8l2 1.5V22zm6 0H6v-6.807l2.155-4.625L10 12.414V22zm6 0h-4v-9.586l2-2 2 2V22z"/></svg>