<svg viewBox="0 0 24 24" fill="currentColor"><path d="M3 8h18c.552 0 1-.447 1-1 0-.347-.188-.638-.456-.816l.011-.016-9-6-.011.016C12.386.077 12.206 0 12 0s-.386.077-.544.184l-.01-.016-9 6 .01.016C2.188 6.362 2 6.653 2 7c0 .553.448 1 1 1zm9-5.798L17.697 6H6.303L12 2.202zM18 10v7c0 .553.448 1 1 1s1-.447 1-1v-7c0-.553-.448-1-1-1s-1 .447-1 1zm5 11h-1v-1c0-.553-.448-1-1-1H3c-.552 0-1 .447-1 1v1H1c-.552 0-1 .447-1 1v1c0 .553.448 1 1 1h22c.552 0 1-.447 1-1v-1c0-.553-.448-1-1-1zm-3 1H4v-1h16v1zm-6-12v7c0 .553.448 1 1 1s1-.447 1-1v-7c0-.553-.448-1-1-1s-1 .447-1 1zM4 10v7c0 .553.448 1 1 1s1-.447 1-1v-7c0-.553-.448-1-1-1s-1 .447-1 1zm4 0v7c0 .553.448 1 1 1s1-.447 1-1v-7c0-.553-.448-1-1-1s-1 .447-1 1z"/></svg>