<svg viewBox="0 0 24 24" fill="currentColor"><path d="M16 13c-.553 0-1 .447-1 1s.447 1 1 1 1-.447 1-1-.447-1-1-1zm7-2h-1V7c0-1.305-.838-2.403-2-2.816V3c0-1.657-1.343-3-3-3L3 3C1.343 3 0 4.343 0 6l.187-.008C.072 6.309 0 6.645 0 7v14c0 1.657 1.343 3 3 3h16c1.657 0 3-1.343 3-3v-4h1c.553 0 1-.447 1-1v-4c0-.553-.447-1-1-1zm-6-9c.553 0 1 .447 1 1v1H7.667L17 2zm5 13h-3c-.553 0-1 .447-1 1s.447 1 1 1h1v4c0 .553-.447 1-1 1H3c-.553 0-1-.447-1-1V7c0-.553.447-1 1-1h16c.553 0 1 .447 1 1v4h-1c-.553 0-1 .447-1 1 0 .553.447 1 1 1h3v2z"/></svg>