<svg viewBox="0 0 24 24" fill="currentColor"><path d="M14 13h-1V6c0-.553-.447-1-1-1h-1c-.553 0-1 .447-1 1s-.447 1-1 1-1 .447-1 1 .447 1 1 1c.783 0 1.469-.325 2-.817V13h-1c-.553 0-1 .447-1 1s.447 1 1 1h4c.553 0 1-.447 1-1s-.447-1-1-1zM12 0C6.478 0 2 4.478 2 10v4c0 5.521 4.478 10 10 10 5.521 0 10-4.479 10-10v-4c0-5.522-4.479-10-10-10zM7 20.221c-1.194-.957-2.112-2.242-2.6-3.73.733.859 1.616 1.583 2.6 2.152v1.578zm4 1.698c-.701-.088-1.367-.276-2-.533v-1.854c.642.2 1.31.344 2 .413v1.974zm4-.533c-.633.257-1.3.445-2 .533v-1.976c.689-.068 1.357-.211 2-.412v1.855zm2-1.165v-1.578c.982-.569 1.865-1.293 2.6-2.152-.489 1.488-1.407 2.773-2.6 3.73zM12 18c-4.418 0-8-3.582-8-8s3.582-8 8-8 8 3.582 8 8-3.582 8-8 8z"/></svg>