<svg viewBox="0 0 24 24" fill="currentColor"><path d="M17 8c-.553 0-1 .447-1 1s.447 1 1 1 1-.447 1-1-.447-1-1-1zm6 0h-1.587C20.604 5.999 18.998 4.42 17 3.606V2c0-.553-.447-1-1-1-.275 0-.525.112-.707.293L13.586 3H8c-4.418 0-8 3.582-8 8 0 2.025.759 3.87 2 5.279V19c0 1.657 1.343 3 3 3s3-1.343 3-3h5c0 1.657 1.343 3 3 3s3-1.343 3-3v-1.785c1.052-.849 1.896-1.941 2.413-3.215H23c.553 0 1-.447 1-1V9c0-.553-.447-1-1-1zm-1 3v1h-2.1c-.303 1.789-1.393 3.309-2.899 4.188V19c0 .553-.446 1-1 1-.553 0-1-.447-1-1V16.909c-.327.055-.659.091-1.001.091H8c-.705 0-1.372-.145-2-.367V19c0 .553-.447 1-1 1s-1-.447-1-1v-3.558C2.781 14.346 2 12.77 2 11c0-3.313 2.687-6 6-6h6c.342 0 .674.036 1 .091V6c0 .553.447 1 1 1s1-.447 1-1v-.187c1.508.879 2.598 2.398 2.898 4.188H22V11z"/></svg>