<svg viewBox="0 0 24 24" fill="currentColor"><path d="M16 16c-.553 0-1 .447-1 1s.447 1 1 1c1.043 0 2 .957 2 2s-1.02 2-2 2c-2.021 0-5.197-1.23-7.664-.989 1.003-2.368.63-5.344.027-8.011H15c.553 0 1-.447 1-1 0-.553-.447-1-1-1H7.867C7.418 9.298 6.999 7.857 7 7c.003-2.762 2.238-5 5-5s5 2.238 5 5c0 .553.447 1 1 1s1-.447 1-1c0-3.866-3.134-7-7-7S5 3.134 5 7c0 1.097.346 2.486.746 4H5c-.553 0-1 .447-1 1 0 .553.447 1 1 1h1.267c.831 3.329 1.381 6.912-.963 9.286-.187.182-.304.433-.304.714 0 .553.447 1 1 1 .294 0 .552-.132.734-.334C8.604 21.939 12.183 24 16 24c2.21 0 4-1.854 4-4 0-2.241-1.854-4-4-4z"/></svg>