<svg viewBox="0 0 24 24" fill="currentColor"><path d="M19 6c.553 0 1-.447 1-1s-.447-1-1-1-1 .447-1 1 .447 1 1 1zm-7 7c.553 0 1-.447 1-1 0-.553-.447-1-1-1-.553 0-1 .447-1 1 0 .553.447 1 1 1zM23 0H1C.447 0 0 .447 0 1v22c0 .553.447 1 1 1h22c.553 0 1-.447 1-1V1c0-.553-.447-1-1-1zm-1 22H2v-2h1c.553 0 1-.447 1-1s-.447-1-1-1H2V6h1c.553 0 1-.447 1-1s-.447-1-1-1H2V2h20v20zM5.133 16.5c.274.479.88.643 1.354.366l1.205-.702c.87.9 2.019 1.518 3.308 1.734V19c0 .553.447 1 1 1 .553 0 1-.447 1-1v-1.102c1.289-.217 2.438-.834 3.309-1.734l1.205.702c.475.276 1.079.112 1.354-.366.273-.479.111-1.09-.363-1.366l-1.07-.623c.353-.767.565-1.613.565-2.511 0-.899-.212-1.744-.566-2.511l1.07-.623c.475-.276.637-.888.363-1.366-.274-.479-.881-.643-1.354-.366l-1.205.702c-.871-.9-2.02-1.518-3.309-1.735V5c0-.553-.447-1-1-1-.553 0-1 .447-1 1v1.101c-1.288.217-2.436.835-3.307 1.735l-1.205-.702c-.474-.277-1.08-.113-1.354.366s-.112 1.09.363 1.366l1.07.623C6.212 10.256 6 11.101 6 12c0 .898.212 1.744.566 2.511l-1.07.623c-.475.276-.637.887-.363 1.366zM12 8c2.209 0 4 1.791 4 4s-1.791 4-4 4-4-1.791-4-4 1.791-4 4-4z"/></svg>