<svg viewBox="0 0 24 23.954" fill="currentColor"><path d="M23 13.454h-2v-5c0-1.657-1.791-3-4-3s-4 1.343-4 3v4c0-1.657-1.791-3-4-3s-4 1.343-4 3v1H4c-.553 0-1 .447-1 1s.447 1 1 1h1c0 1.657 1.791 3 4 3s4-1.343 4-3v-1c0 1.657 1.791 3 4 3 1.738 0 3.204-.838 3.755-2H23c.553 0 1-.447 1-1s-.447-1-1-1zm-12 2c0 .553-.896 1-2 1s-2-.447-2-1v-.425c.591.261 1.266.425 2 .425s1.409-.164 2-.425v.425zm-2-2c-1.104 0-2-.447-2-1 0-.553.896-1 2-1s2 .447 2 1c0 .552-.896 1-2 1zm10 1c0 .553-.896 1-2 1s-2-.447-2-1v-.425c.591.261 1.266.425 2 .425s1.409-.164 2-.425v.425zm0-3c0 .553-.896 1-2 1s-2-.447-2-1v-.425c.591.26 1.266.425 2 .425s1.409-.165 2-.425v.425zm-2-2c-1.104 0-2-.447-2-1 0-.553.896-1 2-1s2 .447 2 1c0 .553-.896 1-2 1zm-16 4c-.553 0-1 .447-1 1s.447 1 1 1 1-.447 1-1-.447-1-1-1z"/></svg>