<svg viewBox="0 0 24 24" fill="currentColor"><path d="M16.008 6.058l.973-4.861-.02-.004C16.975 1.128 17 1.068 17 1c0-.553-.447-1-1-1H8c-.553 0-1 .447-1 1 0 .068.025.128.039.192l-.019.004.972 4.864C7.883 8.025 3 13.292 3 17c0 3.471 4.029 7 9 7s9-3.529 9-7c0-3.678-4.9-9.032-4.992-10.942zM14.779 2l-.6 3H9.82l-.6-3h5.559zM12 22c-3.866 0-7-2.52-7-5 0-2.773 5-9.023 5-10h4c0 .977 5 7.257 5 10 0 2.543-3.134 5-7 5zm0-10c.553 0 1 .447 1 1 0 .553.447 1 1 1s1-.447 1-1c0-1.305-.838-2.403-2-2.816V10c0-.553-.447-1-1-1-.553 0-1 .447-1 1v.184c-1.162.413-2 1.511-2 2.816 0 1.657 1.343 3 3 3 .553 0 1 .447 1 1s-.447 1-1 1c-.553 0-1-.447-1-1s-.447-1-1-1-1 .447-1 1c0 1.305.838 2.402 2 2.816V20c0 .553.447 1 1 1 .553 0 1-.447 1-1v-.184c1.162-.414 2-1.512 2-2.816 0-1.657-1.343-3-3-3-.553 0-1-.447-1-1 0-.553.447-1 1-1z"/></svg>