<svg xmlns="http://www.w3.org/2000/svg" fill="currentColor" viewBox="0 0 159 81">
  <path d="M43.8829 19.3999v7.71l.58 2.9-6.67 6.67h-15.66l-6.96-6.96V7.67989l7.54-7.539997h16.9399l3.65 11.020007-6.0899-2.03001h-6.67l-2.9 1.45001-1.74 2.61v11.31l1.16 2.32 2.32 1.16h3.19l1.45-1.45v-6.09l-2.32-4.64h14.04l-1.86 3.6zM50.6631 36.6799l1.33-4.06V4.19989l-1.33-4.059997h13.11l-1.33 4.059997V32.6199l1.33 4.06h-13.11zM101.013 4.19989V36.6799h-7.2502l-11.6-19.14-1.1599-2.32.29 2.32v15.08l1.3299 4.06H70.9629l1.33-4.06V4.19989l-1.62-4.059997h11.4799L91.4329 15.5099l1.1599 2.32-.29-2.32V4.19989L90.9729.139893h11.3701l-1.33 4.059997zM136.393 36.6799l-2.9-2.9-2.9 2.9h-10.15l-6.09-6.09v-9.28l8.12-8.12-3.65-7.31001 5.68-5.739997h14.09l3.31 9.859997-6.09-2.03h-4.64l-.58.58 5.8 11.60001.87-1.74.87-3.77h8.12l1.16.87-7.66 11.31 1.86 3.77 6.09 6.09h-11.31zm-10.44-17.11l-1.45 1.45-.87 1.74v3.19l.93 1.86 1.51.75h2.49l1.45-.87-4.06-8.12zM26.1626 52.8399h-4.18l-.58.58v22.62l1.57 4.64H9.40264l1.56996-4.64v-22.62l-.58-.58H6.21264l-5.510003 1.86 3.600003-10.56H28.0826l3.6 10.56-5.52-1.86zM59.1028 80.6799h-16.82l-6.96-6.96v-22.62l6.96-6.96h16.82l6.96 6.96v22.62l-6.96 6.96zm-3.7701-24.94l-1.0399-2.15-2.15-1.04h-2.9l-2.15 1.04-1.0401 2.15v13.05l1.0401 2.15 2.15 1.04h2.9l2.15-1.04 1.0399-2.15v-13.05zM103.183 48.1999v32.48h-7.2502l-11.6-19.14-1.16-2.32.29 2.32v15.08l1.33 4.06h-11.66l1.33-4.06v-28.42l-1.62-4.06h11.48l9.28 15.37 1.16 2.32-.29-2.32v-11.31l-1.33-4.06h11.3702l-1.33 4.06zM112.292 80.6799l1.33-4.06v-28.42l-1.33-4.06h13.11l-1.33 4.06v28.42l1.33 4.06h-13.11zM154.513 80.6799h-15.08l-7.54-7.54v-21.46l7.54-7.54h14.5l3.65 11.02-6.09-2.03h-4.12l-2.9 1.45-1.57 3.19v9.57l1.57 3.19 2.9 1.45h4.64l6.09-2.03-3.59 10.73z"/>
</svg>