<svg xmlns="http://www.w3.org/2000/svg" fill="currentColor" viewBox="0 0 141.83 119.35">
  <path d="M61.66 13.47c.93-1.25 2.21-2.18 3.69-1s2 2.7.75 4.46c-.48.65-.87 1.36-1.5 2.34l1.71-.05c6.32-.22 11.19 2.35 14.24 7.88a15.73 15.73 0 01-.61 17c-1.18 1.85-3.69 3.22-4.07 5.12s1.54 4.23 1.67 6.41c.21 3.61 1.87 5.89 4.55 8.2 4.12 3.56 7.69 7.74 11.43 11.6-.08-1.86-.1-3.93-.31-6a2.47 2.47 0 00-1-1.66c-4.83-2.87-6.56-7.45-6.79-12.66-.59-13 10.42-26 23.33-27.71a18.53 18.53 0 014.34 0c2.88.32 5.25 1.75 5.84 4.66.65 3.26 1.55 6.84.84 9.95q-4.57 20.04-24.5 27.25c.5 5 .24 10.39 3.65 15.16a51.88 51.88 0 014.64 9 31.86 31.86 0 011.73 5.58c.12.46-.38 1.06-.6 1.6-.47-.41-1.23-.74-1.36-1.24-1.57-6.12-4.66-11.5-8-16.75A3.39 3.39 0 0093.18 81c-2.13-.19-4.3 0-6.55 0 .47 6.64-2.86 11.19-7.34 15a47.51 47.51 0 01-23.11 11 26.31 26.31 0 01-8.85-.13c-3.68-.63-5.43-3.38-5-7.09a45.64 45.64 0 011.28-6.65c4-14.85 15.73-22.39 28.7-21 4.35.46 8.85 1.21 11.71 4.53 2.69 3.13 5.49 1.66 8.38 1.77-8.81-11.72-18.78-21.69-34.19-24.09-1.53 12.18-6.72 18.74-15.72 20.19a17.69 17.69 0 01-18.82-10.22 19.42 19.42 0 014.79-23 17.31 17.31 0 0113-4.32c4.9.37 8.88 2.73 12.36 6.22A18.12 18.12 0 0153.64 28a37.79 37.79 0 01-4.46-2.17A2.67 2.67 0 0148 23.68a3.21 3.21 0 011.92-1.84 19.58 19.58 0 014-.46 37.45 37.45 0 01-.58-4.64c0-2.11 1.44-2.9 3.25-1.83a26.06 26.06 0 012.79 2.16 41.34 41.34 0 012.28-3.6zm-8.41 10.35c-.83-.07-1.66-.06-2.84-.1 3 2.41 4.41 2.44 5.65.37 1.86-1.23 4-2.17 5.48-3.76s2.11-3.76 3.12-5.69l-1-.53c-.78 1.53-1.61 3-2.32 4.6-1 2.31-1.4 2.4-3.06.58-.73-.81-1.53-1.57-2.47-2.53.12 2.69.21 5 .31 7.38-.97-.14-1.92-.25-2.87-.32zm10.13 62.4c-3.14 1.79-5.62 4.71-8.44 7.08a11.85 11.85 0 01-1.88 1.06c.06-.77-.16-1.72.22-2.27 4.06-5.92 10.08-8.91 16.72-10.66 4.25-1.11 8.63-1.75 13.06-2.62-1.81-2.11-4.27-3-6.84-3.71-14.49-3.75-27.28 4.47-30.89 19.9-.35 1.49-.69 3-.89 4.51-.43 3.34 1 5.43 4.34 5.67a31.33 31.33 0 008.86-.56 44.62 44.62 0 0021.41-11.23c3.34-3.18 5.93-6.83 5.29-12.18-7.42.63-14.62 1.4-20.96 5.01zM96.9 51.76c2.33-6 6.43-10.76 11.33-14.83.65-.54 1.74-.54 2.62-.79a8.25 8.25 0 01-1.38 2.44c-6.39 5.54-11 12.2-13 20.49-.56 2.32-.78 4.71-1.26 7.78a38.06 38.06 0 005.45-2.14c8.09-4.9 13.95-11.76 16.52-20.92a23 23 0 00.17-9.5c-.6-3.88-2.65-5.42-6.49-4.81a31.79 31.79 0 00-10.23 3.2c-9.11 5-14.33 15.14-13 24.09.65 4.22 2.39 7.13 5 8.61 1.47-4.59 2.55-9.23 4.27-13.62zM38.5 72.59c8.71.73 16.48-6.23 17.21-15.41S50.07 40 41.25 39.23s-16.43 6.09-17.2 15.35 5.7 17.27 14.45 18.01zm30-51.16c-7.22-.63-13.64 5.12-14.25 12.76s4.69 14.1 11.89 14.73c7.38.65 13.62-4.86 14.28-12.61s-4.59-14.24-11.95-14.88zm5.32 28.41C67 52.46 61.23 51.2 55.71 45.92c.74 2.28 1.19 3.86 1.8 5.38a1.76 1.76 0 001.2.89 41.91 41.91 0 0116.79 6.49l.59-.38c-.74-2.75-1.49-5.49-2.3-8.46z" class="cls-1"/>
  <path d="M37.39 60.73a9.62 9.62 0 00-2.66.64c-1.34.29-3 1.11-3.94.62s-1.62-2.32-1.62-3.57a6.09 6.09 0 00-1-3.42 5.05 5.05 0 01-.34-4.16c.49-.94 2.31-1.25 3.58-1.74.94-.37 2.09-.36 2.9-.9 2-1.33 4.59-1.2 5.09.89.66 2.8.78 5.72 2.17 7.75-.18 2.88-1.89 4.16-4.18 3.89zM31.23 57l.35 3.12 2.55-.81-.13-.8zm1.42-5.64c-1.27.16-2.7 0-2.85.43-.3.76.11 1.8.22 2.72l.86-.11zm4.58-1.61l-3 .89 2.91 1.74.72-.22c-.24-.83-.43-1.64-.63-2.44zm-.93 8.63l2.84-.24-.3-2.65-.83.07z" class="cls-1"/>
</svg>