<svg xmlns="http://www.w3.org/2000/svg" fill="currentColor" viewBox="0 0 266 106">
  <path d="M29.5675 87.7969c.303-.5227.7877-.9162 1.362-1.1058.5586-.2154 1.1775-.2154 1.7361 0 .2506.0772.4804.21.6723.3886.1918.1786.3406.3983.4352.6425.0583.2356.0583.4818 0 .7173-.0318.1175-.0318.2412 0 .3587 0 .2092.2694.269.5837.1494.6032-.2393 1.1427-.6148 1.5763-1.097.4336-.4822.7496-1.0581.9231-1.6826.5078-1.6224.6559-3.3358.434-5.0211-.24-2.1551-.7426-4.2729-1.4966-6.3064L20.2434 33.3262l-1.7062.6874c-1.5766.6605-3.2492 1.0642-4.9539 1.1956-1.1757.1064-2.3593-.0838-3.4423-.553-.78359-.339-1.40193-.9725-1.72115-1.7634-.29125-.7189-.29125-1.5227 0-2.2416.14615-.3529.36793-.6695.64977-.9277.28183-.2582.61688-.4516.98158-.5667.1863-.0708.3843-.1063.5837-.1046.0768-.0121.1554-.0048.2286.0213.0733.0261.1387.0702.1905.1282-.1644.4178-.1644.8823 0 1.3001.2068.5329.5486 1.0031.992 1.3645.4433.3615.973.6019 1.5373.6978 1.4185.3253 2.9029.2053 4.2505-.3437 2.4499-.8862 4.732-2.1796 6.7499-3.8257 2.4769-2.0889 4.8353-4.314 7.0642-6.665 1.9955-1.9925 3.6717-3.6364 5.0287-4.9315 1.465-1.328 3.0257-2.5467 4.6696-3.6463 1.7699-1.1728 3.6679-2.1404 5.6573-2.8842 1.7634-.66656 3.6129-1.07917 5.4927-1.22542 1.5497-.16201 3.116-.04561 4.6246.34371 1.2423.3736 2.0056.91161 2.26 1.61391.1104.2572.161.5361.148.8156-.0129.2795-.0891.5525-.2228.7984-.261.5018-.6979.8901-1.2273 1.0909.3575.5186.6349 1.0878.8232 1.6887.4304 1.1123.5695 2.3159.4041 3.4968-.2091 1.3146-.7968 2.54-1.6913 3.5268-1.0859 1.1988-2.4618 2.0993-3.996 2.6152-1.0588.4441-2.2402.5023-3.3375.1644-.4381-.1169-.845-.3288-1.1917-.6207-.3466-.2919-.6245-.6566-.8139-1.068 1.0361-.4925 1.9392-1.2252 2.6341-2.137.2388-.404.3758-.8598.3992-1.3283.0235-.4686-.0673-.9358-.2645-1.3616-.1562-.4589-.4332-.8675-.8018-1.183s-.8153-.5262-1.2935-.6102c-1.2157-.1878-2.4598-.0325-3.5919.4483-1.9384.6957-3.7872 1.6187-5.5077 2.7497-1.6613 1.1208-3.6369 2.6152-5.9866 4.4832-2.3497 1.8679-4.6246 3.6911-6.256 4.782l4.3702 11.7609 2.1851-.807c1.2631-.3596 2.3365-1.1956 2.9933-2.3312.4603-1.0258.641-2.1548.5239-3.2727l.7483-.284c.932.826 1.6203 1.8904 1.9905 3.0785.3375.9438.5977 1.9133.7783 2.8991.2245 1.1357.4191 2.2416.5687 3.3475.2285 1.8665.6498 3.7044 1.2572 5.4844.1642-.3464.3956-.6568.6808-.9133.2851-.2565.6184-.454.9805-.5811.6486-.2303 1.3569-.2303 2.0055 0 .2855.0783.549.2216.7697.4186.2207.1971.3927.4425.5024.7171.1031.2785.1366.5779.0975.8722-.0392.2942-.1497.5745-.3219.8165-.3493.5627-.8757.9937-1.4967 1.2254-.4708.1863-.983.2429-1.4832.1641-.5002-.0789-.97-.2904-1.3604-.6124-.5719-.4542-1.0758-.9876-1.4967-1.5841-.449-.6276-.883-1.2553-1.2871-1.868l-.7783-1.2254c-.731-1.3001-1.5936-2.5219-2.5742-3.6463-.2531-.3792-.6308-.6583-1.068-.7892-.4371-.1309-.9063-.1055-1.3266.0719l-2.1702.807 9.8779 26.5255c.1099.509.3223.9903.6243 1.4147.302.4245.6873.7832 1.1325 1.0544.4451.2711.9408.4491 1.457.523.5162.0739 1.042.0423 1.5456-.093l.2095.5529c.0409.6715-.185 1.3319-.6286 1.8382-.6607.7046-1.4976 1.2205-2.4246 1.4943-.7368.2968-1.5254.4441-2.3198.4334.3823 1.2952.3351 2.679-.1347 3.9452-.207.534-.5266 1.0172-.9372 1.4169-.4106.3997-.9026.7064-1.4425.8994-.3105 1.5771-.9928 3.0575-1.9905 4.3188-1.0001 1.4378-2.4147 2.5376-4.0559 3.1532-.8561.3806-1.826.4181-2.709.1046-.3326-.119-.6372-.3052-.8947-.5468-.2575-.2417-.4624-.5337-.6019-.8579-.0823-.2437-.1101-.5024-.0817-.7579.0284-.2556.1125-.5019.2463-.7216z"/>
  <path d="M56.7465 66.711c2.3448-1.5443 3.2228-3.472 2.6341-5.7834l-5.6723-22.3113c-.5837-2.3014-2.2899-3.5716-5.0886-3.8107l-.1646-.6575 14.9665-3.7958.1646.6725c-2.3846 1.5342-3.2826 3.457-2.694 5.7683l5.6873 22.3114c.5837 2.3163 2.2749 3.5865 5.0737 3.8256l.1796.6576-14.9665 3.7808-.1198-.6575zM105.926 57.0125c-.411.6469-.998 1.1648-1.691 1.4944-1.144.6666-2.412 1.0937-3.726 1.2553-1.8446.3968-3.7704.11-5.4183-.807-1.3088-.8203-2.3492-2.0046-2.9933-3.4072-.7679-1.7789-1.4032-3.6121-1.9007-5.4844-.4197-1.8036-1.0685-3.5463-1.9307-5.1856-.2873-.5149-.7351-.922-1.2755-1.1594-.5403-.2374-1.1435-.2921-1.7178-.1557l-2.0205.3587 1.7212 11.5218c.1497 1.1219.6746 2.1604 1.4896 2.9471.815.7866 1.8723 1.2753 3.0003 1.3866l.1048.6725-14.9665 2.2416-.1048-.6725c2.4845-1.3001 3.5621-3.1233 3.2029-5.4844l-3.4274-22.7746c-.3392-2.3213-1.8957-3.7559-4.6695-4.3039l-.1497-.6127 17.1067-2.5554c2.8271-.5519 5.756-.2124 8.3813.9714 1.0835.5082 2.0192 1.2842 2.7185 2.2544.6992.9702 1.139 2.1025 1.2775 3.2898.1447.9603.0689 1.9408-.2214 2.8676-.2904.9268-.7879 1.7756-1.4548 2.4823-1.3635 1.5742-3.0891 2.7947-5.0288 3.5567 1.424.5483 2.646 1.5181 3.5022 2.7796.9891 1.5789 1.8212 3.2506 2.4844 4.9912.5663 1.5017 1.2416 2.9602 2.0203 4.3637.546 1.0149 1.415 1.8193 2.47 2.2864 1.01.3663 2.101.4541 3.158.254l.059.6277zM88.4905 39.7522c.9338-.6302 1.6705-1.5108 2.1253-2.5405.5636-1.3061.6522-2.7679.2504-4.1324-.4017-1.3645-1.2686-2.5458-2.4505-3.3395-1.4653-.9471-3.2334-1.3098-4.9539-1.0162l-2.4845.3736 1.8409 12.2989 2.4845-.3736c1.1491-.1623 2.2425-.598 3.1878-1.2703zM108.006 58.0286v-.6874c1.113-.2981 2.087-.9716 2.759-1.906.671-.9345.997-2.0722.923-3.2198l-1.122-22.9988c-.024-1.1634-.462-2.2803-1.235-3.151-.774-.8706-1.832-1.4382-2.986-1.6011v-.6725l23.303-1.1358.314 6.4558h-.733c-.737-1.158-1.68-2.171-2.784-2.9888-.907-.6378-2.005-.9487-3.113-.8816l-5.448.254.554 11.4022 1.961-.0896c1.042-.05 2.051-.3825 2.919-.9617.867-.5792 1.56-1.3833 2.005-2.326h.988l.404 8.3686h-.973c-.526-.9056-1.296-1.646-2.221-2.1372-.926-.4913-1.971-.7138-3.017-.6424l-1.991.1943.778 15.9004 6.496-.3138c1.154-.0178 2.263-.4471 3.128-1.2105 1.026-1.0243 1.844-2.2371 2.409-3.5716h.794l.329 6.8593-24.441 1.061zM144.615 25.1818c-.367.3233-.659.7215-.858 1.1675-.199.4461-.299.9296-.295 1.4178-.004 1.5581.524 3.071 1.497 4.2889 1.325 1.697 2.876 3.2054 4.609 4.4832 5.358 4.2839 7.978 8.3686 7.858 12.254-.027 1.828-.725 3.5826-1.961 4.9316-1.293 1.3846-2.922 2.4138-4.729 2.9888-1.926.6523-3.955.946-5.987.8667-1.726-.041-3.444-.2411-5.133-.5978-1.3-.2214-2.554-.6556-3.712-1.2851l.21-6.8444h.868c.383 1.8961 1.357 3.6224 2.783 4.9315 1.358 1.2926 3.153 2.0286 5.029 2.0623 1.244.0254 2.466-.3292 3.502-1.0162.601-.4181 1.083-.9852 1.398-1.6455.315-.6603.452-1.391.398-2.1204-.039-1.7982-.665-3.5346-1.781-4.9464-1.474-2.0533-3.176-3.9332-5.073-5.604-4.685-4.2889-7.005-7.726-6.915-10.2964-.033-1.1869.243-2.362.802-3.4101.559-1.048 1.381-1.9328 2.386-2.5675 2.35-1.3776 5.066-2.0035 7.783-1.7933 1.62.034 3.233.2191 4.819.553 1.139.1994 2.23.61 3.218 1.2104l-.18 5.9776h-.614c-.936-1.5996-2.095-3.0587-3.442-4.3337-1.028-.9696-2.374-1.5327-3.786-1.5841-.487-.0324-.976.0315-1.438.1879-.463.1564-.889.4023-1.256.7237zM160.285 57.147c2.744-.6576 4.24-2.1519 4.49-4.4832l2.289-22.9689c.225-2.3611-.927-4.1395-3.487-5.3051v-.6874l15.326 1.4944v.6874c-2.724.6426-4.221 2.1519-4.49 4.4832l-2.26 22.9091c-.239 2.3761.928 4.1395 3.472 5.32v.6725l-15.31-1.4944-.03-.6276zM178.618 58.7312c1.177.0117 2.32-.3978 3.22-1.1544.901-.7566 1.5-1.8103 1.689-2.9702l4.296-22.6102c.449-2.3511-.549-4.2191-2.993-5.604l.134-.6724 14.024 2.66c4.242.5573 8.103 2.7314 10.776 6.0672 2.305 3.1383 3.003 7.1233 2.095 11.9552-1.137 5.9776-3.347 10.3113-6.63 13.0013-1.697 1.3668-3.689 2.3224-5.818 2.7917-2.129.4693-4.339.4395-6.455-.0869l-14.397-2.7198.059-.6575zm21.373-1.8979c2.142-3.5929 3.565-7.5667 4.19-11.7011.898-4.7821.749-8.3238-.479-10.6551-.636-1.1752-1.544-2.1824-2.647-2.9385-1.104-.7561-2.371-1.2395-3.698-1.4102l-1.692-.3138-5.642 29.7385 3.068.5828c2.804.528 5.104-.5728 6.9-3.3026zM204.481 67.0998c1.035-.4771 2.168-.7024 3.307-.6576 1.432.0297 2.844.3341 4.161.8967l1.033.4034 11.434-28.5579c.46-1.0685.524-2.2654.181-3.3768-.342-1.1115-1.07-2.0651-2.052-2.6904l.255-.6426 21.641 8.6376-2.409 5.9776-.674-.2839c-.193-1.3616-.629-2.6776-1.287-3.8855-.567-.9524-1.436-1.6887-2.469-2.0921l-5.059-2.0175-4.251 10.5953 1.826.7323c.97.3855 2.026.5015 3.056.3357 1.031-.1657 1.997-.6071 2.796-1.2772l.913.3587-3.113 7.7858-.913-.3587c-.092-1.0433-.478-2.0391-1.114-2.8722-.636-.8331-1.495-1.4694-2.478-1.8351l-1.826-.7323-8.067 20.1445 3.802 3.2129c2.245 1.9925 4.24 3.6065 5.986 4.8419 1.881 1.3403 3.922 2.4397 6.077 3.2727 4.37 1.7335 8.142 2.137 11.315 1.1806 1.564-.4623 2.995-1.2905 4.174-2.4159 1.179-1.1254 2.072-2.5155 2.605-4.0549.612-1.5107.711-3.1795.285-4.7522-.463-1.7632-1.393-3.3689-2.694-4.6475-1.51-1.5127-3.327-2.6847-5.328-3.4371-1.423-.5899-2.95-.8848-4.49-.8668-1.374-.0037-2.727.3353-3.936.9863-1.109.5772-1.974 1.5313-2.44 2.6899-.379.9111-.555 1.8933-.516 2.8789.039.9856.292 1.9511.74 2.8297 1.009 1.9821 2.747 3.4977 4.85 4.2292 2.544.9962 4.48.9414 5.807-.1644.127-.1321.233-.2834.314-.4483.15-.3736-.18-.7024-.973-1.0312-.56-.2006-1.032-.5922-1.332-1.1058-.14-.2206-.225-.4711-.248-.731-.023-.2599.015-.5215.113-.7634.092-.2325.234-.4423.414-.6151.181-.1728.397-.3046.634-.3862.547-.2226 1.159-.2226 1.706 0 .43.1403.827.3663 1.166.6643.34.298.615.6617.81 1.0692.17.3888.258.8086.258 1.2329 0 .4243-.088.8441-.258 1.2329-.311.728-.784 1.3756-1.383 1.8935s-1.308.8925-2.074 1.0953c-2.062.5295-4.245.3179-6.167-.5978-1.873-.7142-3.554-1.8553-4.909-3.3325-1.238-1.314-2.114-2.9253-2.544-4.6775-.405-1.6292-.285-3.3447.344-4.9016.422-1.0383 1.045-1.9834 1.834-2.7809.788-.7975 1.727-1.4318 2.761-1.8666 2.245-1.0461 5.213-1.1109 8.905-.1943-.027-.2527.004-.5081.09-.7472.068-.179.179-.3389.322-.4664.143-.1274.315-.2186.501-.2659.471-.1143.966-.0669 1.407.1345 2.631 1.0046 4.961 2.6665 6.765 4.8269 1.687 2.0049 2.803 4.4255 3.232 7.0087.445 2.5156.17 5.1054-.793 7.472-.817 2.1193-2.257 3.9425-4.131 5.2304-1.933 1.3243-4.186 2.1085-6.525 2.2715-.022.2489-.073.4945-.15.7322-.466 1.0187-1.284 1.8356-2.304 2.3014-1.455.6632-3.042.9853-4.64.9415-1.959-.0122-3.896-.4083-5.702-1.1657-2.357-.9092-4.577-2.136-6.601-3.6463-1.651-1.2251-3.157-2.634-4.489-4.1992-1.168-1.3948-2.46-3.1133-3.877-5.1557-1.051-1.6102-2.217-3.1434-3.487-4.5878-.948-1.0442-2.119-1.8615-3.427-2.391-1.384-.7049-2.959-.946-4.49-.6874-.425.083-.826.2604-1.173.5191-.348.2586-.632.592-.833.9753-.052.0936-.08.199-.08.3063s.028.2127.08.3064c.141.1967.319.3641.524.4931-.191.1116-.406.1765-.627.1894-.221.013-.442-.0263-.645-.1147-.475-.1975-.86-.5653-1.078-1.0311-.125-.2691-.191-.5624-.191-.8593 0-.2969.066-.5902.191-.8593.329-.729.908-1.3171 1.632-1.6587zM69.7825 89.0822l.6735 3.6165c-.4463.4515-.9494.8433-1.4967 1.1656-.6864.3421-1.4166.5885-2.1701.7323-1.3762.3567-2.8312.2571-4.1457-.284-1.3347-.5874-2.4873-1.5215-3.3376-2.7048-1.0322-1.3617-1.7664-2.9247-2.1551-4.5878-.493-1.7892-.6303-3.6575-.4041-5.4994.1792-1.4869.77-2.8946 1.7061-4.0648.8755-1.0465 2.0678-1.7808 3.3974-2.0921.8312-.2226 1.6845-.353 2.5443-.3886.6018-.0516 1.2072.0406 1.7661.269l1.1225 3.7958-.3443.1196-.6285-.7921c-.5551-.7181-1.2665-1.3007-2.0804-1.7036-.6638-.3877-1.4516-.5054-2.2001-.3288-.3509.1116-.6699.3056-.9303.5656-.2603.26-.4546.5785-.5663.9288-.3866 1.0612-.5497 2.1906-.4789 3.3176.0415 1.5141.2575 3.0184.6435 4.4832.3792 1.5553.9419 3.0602 1.6763 4.4832.5171 1.0574 1.2514 1.9943 2.1551 2.7497.2832.2633.6246.4561.9966.5626.3719.1064.7638.1236 1.1436.0501.4198-.0919.8149-.2729 1.1584-.5307.3434-.2579.6273-.5866.8322-.9637.4841-.8989.7602-1.8946.8082-2.9141l.3143.0149zM83.6564 72.3152c1.2943.7654 2.379 1.8383 3.1579 3.1233 1.7999 2.9419 2.415 6.456 1.7212 9.8331-.3076 1.4691-.9647 2.8428-1.9157 4.005-.8227 1.0205-1.9865 1.7103-3.2777 1.9427-1.288.2041-2.6069-.0498-3.7267-.7173-1.2956-.7688-2.3845-1.8407-3.1729-3.1233-.9042-1.4461-1.5145-3.0557-1.7959-4.7372-.3165-1.6821-.286-3.411.0898-5.081.2919-1.4862.9561-2.8743 1.9306-4.0348.822-1.0039 1.9719-1.6865 3.2478-1.9278 1.293-.2211 2.6225.0338 3.7416.7173zm1.0327 16.4384c.4354-1.085.6736-2.2388.7034-3.4073.0726-1.5009-.0278-3.0051-.2993-4.4832-.2486-1.4803-.6602-2.9287-1.2273-4.3188-.4158-1.1016-1.0352-2.1155-1.8259-2.9888-.2216-.3009-.5168-.5401-.8575-.6944-.3407-.1544-.7154-.2189-1.0881-.1872-.6137.1046-1.1225.5977-1.4967 1.4944-.4297 1.086-.6628 2.2397-.6884 3.4072-.0743 1.5009.0262 3.0054.2993 4.4832.2465 1.4808.6582 2.9294 1.2272 4.3188.4228 1.0949 1.0358 2.1067 1.811 2.9888.2212.2976.5142.5346.8518.6887.3375.1542.7087.2205 1.0789.1929.5986-.1494 1.1225-.6674 1.5714-1.5541l-.0598.0598zM108.081 83.2692l.15 3.6762c-.505.3849-1.058.7015-1.646.9414-.695.2491-1.42.4048-2.155.4633-1.414.1616-2.842-.1372-4.071-.8518-1.2662-.7733-2.3002-1.8728-2.9935-3.1831-.833-1.4915-1.3429-3.141-1.4967-4.8418-.2322-1.8458-.1-3.7192.3891-5.5143.39-1.4407 1.1662-2.7479 2.245-3.7808 1.0199-.9103 2.3051-1.4707 3.6671-1.599.855-.0969 1.719-.0969 2.574 0 .602.0237 1.189.1984 1.706.508l.584 3.9154-.359.0747-.569-.8967c-.428-.7683-1.027-1.4279-1.751-1.9277-.604-.4821-1.371-.7123-2.14-.6426-.379.0544-.739.2015-1.047.4284-.308.2268-.555.5263-.719.8717-.5283.9966-.849 2.0895-.9433 3.213-.1687 1.4896-.1687 2.9935 0 4.4831.1391 1.6009.481 3.1776 1.0173 4.6925.371 1.1061.968 2.1237 1.751 2.9887.247.2981.558.5355.911.6936.353.1581.738.2327 1.125.218.43-.0326.848-.1577 1.225-.3666.377-.209.705-.4968.96-.8438.603-.8269 1.017-1.7757 1.212-2.7796l.374.0598zM127.628 85.2715c.42.2616.913.382 1.407.3437v.3587c-.183.3346-.473.598-.824.7472-.524.2988-1.117.4583-1.721.4633-.487.0484-.979-.0123-1.44-.1778-.461-.1654-.879-.4314-1.224-.7786-.674-.7025-1.185-1.5443-1.496-2.4658-.381-1.2012-.691-2.4237-.928-3.6613-.19-.9563-.44-1.8996-.749-2.8244-.209-.5678-.524-.8518-.943-.8368-.071.0004-.141.0184-.204.0523-.062.0338-.116.0826-.155.1419-.061.1097-.092.2334-.09.3587l.27 5.9776c-.016.8382.169 1.6681.539 2.4209.33.5196.826.914 1.406 1.1208v.3885l-6.944.2989v-.3736c.553-.2433 1.011-.6586 1.308-1.1838.297-.5252.415-1.1322.338-1.7303l-.568-12.9863c-.018-.5817-.188-1.1486-.494-1.6438-.261-.4411-.661-.7829-1.138-.9714l-.284-.0896v-.3886l6.974-.3138v.3886c-.496.2375-.901.6312-1.152 1.1208-.353.514-.536 1.1253-.524 1.7484l.18 4.1694.493-.6277c1.692-2.122 2.679-3.3923 2.994-3.8107.503-.5439.831-1.2257.943-1.9577 0-.3586-.27-.6276-.749-.7621v-.3586l4.775-.2093v.3587c-1.161.5557-2.184 1.3622-2.994 2.3611-.254.3139-.987 1.2254-2.17 2.7348l-.943 1.1656-.972 1.2404c.108-.02.22-.02.329 0 .423.0163.836.1367 1.201.3505.366.2137.673.5142.894.8749.696.8832 1.274 1.8527 1.721 2.8841.494 1.076 1.018 2.3612 1.497 3.8705l.284.822c.237.5677.638 1.0518 1.153 1.3897zM137.131 86.1233c.637-.1333 1.209-.4804 1.62-.9835.411-.5031.637-1.1317.64-1.7811l.21-15.0336h-.808c-.346-.0241-.694.0232-1.021.1389-.327.1157-.626.2973-.88.5335-.64.7164-1.147 1.5414-1.497 2.4359h-.359v-4.274l12.318.1793v4.274h-.36c-.313-.9013-.79-1.7372-1.406-2.4657-.248-.2397-.541-.4279-.862-.5536-.321-.1257-.664-.1864-1.009-.1787h-.808l-.225 15.0336c-.02.6507.187 1.2881.586 1.8032.398.5152.964.8761 1.599 1.0213v.3885l-7.738-.1494v-.3886zM165.897 87.7819l-6.406-.4333v-.3587c.355-.0573.676-.2397.907-.514.231-.2743.355-.6222.351-.9804.026-.3133.026-.6282 0-.9415-.148-.79-.453-1.5422-.898-2.2117-.486-.7823-1.081-1.4918-1.766-2.1071-.503-.5108-1.133-.8773-1.826-1.061l-1.707 4.9614c-.102.275-.172.5608-.209.8518-.033.3552.063.7103.269 1.0013.271.303.61.5384.988.6874v.3586l-4.49-.2988v-.2093c.503-.2094.949-.5356 1.3-.9514.351-.4159.598-.9094.721-1.4396l5.792-16.4383 2.095.1345 3.188 16.9016c.097.6079.31 1.1914.628 1.7185.267.4419.643.8074 1.093 1.0611l-.03.2689zm-9.309-9.7434c.702.3096 1.365.7008 1.975 1.1656.574.4176 1.079.9218 1.497 1.4944l-1.497-8.6376-1.975 5.9776zM171.764 88.051c.58-.14 1.1-.4625 1.483-.9199.382-.4575.608-1.0256.642-1.6206l1.587-12.8966c.104-.5926.014-1.2027-.255-1.7408-.27-.538-.705-.9755-1.242-1.248v-.3736l6.9.8368v.3886c-.582.1444-1.103.4698-1.488.9291-.385.4593-.613 1.0288-.653 1.6263l-1.586 12.8966c-.106.5927-.018 1.2038.252 1.7424.269.5385.706.9757 1.245 1.2464v.3886l-6.9-.8518.015-.4035zM184.665 90.1134v-.3885c.589-.1092 1.127-.4052 1.534-.844.407-.4389.662-.9971.726-1.5919l2.275-12.792c.12-.5699.061-1.163-.169-1.6981-.231-.535-.621-.9858-1.118-1.2907v-.3886l6.66 1.1806v.3736c-.585.0641-1.122.3536-1.497.807-.319.5108-.514 1.0891-.569 1.6886l-2.589 14.6302 2.589.3138c.271.0427.548.0203.809-.0655.26-.0858.496-.2324.688-.4277.668-.6928 1.232-1.4779 1.676-2.3312h.36l-.809 4.6027-10.566-1.7783z"/>
  <path d="M208.971 76.6638c-.424.3248-.717.7919-.823 1.3151-.195.8287-.143 1.6961.15 2.4956.36 1.0364.863 2.0173 1.496 2.9141 1.841 2.8394 2.515 5.3201 1.991 7.472-.217.9838-.741 1.8734-1.497 2.5405-.682.6314-1.527 1.0609-2.439 1.2403-.906.2094-1.848.2094-2.754 0-.764-.171-1.503-.4371-2.2-.792-.566-.2355-1.076-.5868-1.497-1.0311l.913-3.7659h.389c-.077 1.0355.141 2.0718.629 2.9888.198.3925.479.7382.822 1.0139.343.2757.742.4752 1.168.5851.567.1171 1.156.027 1.661-.2541.341-.2037.631-.4815.848-.8127.218-.3312.358-.7073.41-1.1001.197-.9662.13-1.9678-.195-2.8991-.374-1.2294-.876-2.4164-1.497-3.5417-1.556-2.7796-2.165-4.8817-1.825-6.3064.111-.6257.361-1.2187.732-1.7357.37-.5171.851-.9452 1.408-1.2531 1.147-.5367 2.45-.6377 3.666-.2839.717.1647 1.41.4156 2.066.7472.487.218.921.5392 1.272.9414l-.808 3.3176-.27-.0747c-.204-.9491-.542-1.8646-1.002-2.7198-.149-.2965-.36-.5578-.618-.7665-.258-.2088-.558-.3601-.879-.444-.221-.0691-.455-.0862-.683-.0499-.229.0363-.446.125-.634.2591z"/>
</svg>