<svg viewBox="0 0 82.17 13.46" fill="currentColor"><defs><style>.cls-1{fill:#a47449}</style></defs><g id="Layer_2" data-name="Layer 2"><g id="Layer_1-2" data-name="Layer 1"><g id="Title_bottom" data-name="Title bottom"><path d="M81.67 2.79H46.13a.5.5 0 00-.5.5.5.5 0 00.5.5h35.54a.51.51 0 00.5-.5.5.5 0 00-.5-.5zM63.48 9.74L46.05 4.42a.5.5 0 00-.63.34.5.5 0 00.34.62l17.43 5.31a.34.34 0 00.14 0 .48.48 0 00.48-.35.5.5 0 00-.33-.6zM45.52 6.38a.51.51 0 00-.7.14.5.5 0 00.14.69l8.75 5.92a.47.47 0 00.28.09.5.5 0 00.28-.91zM43.86 7.9a.5.5 0 00-.68-.21.51.51 0 00-.21.67l2.5 4.75a.49.49 0 00.45.27.46.46 0 00.23-.06.5.5 0 00.21-.67zM36.54 3.29a.5.5 0 00-.5-.5H.5a.5.5 0 00-.5.5.5.5 0 00.5.5H36a.51.51 0 00.54-.5zM36.74 4.76a.51.51 0 00-.62-.34L18.69 9.74a.49.49 0 00.14 1 .39.39 0 00.15 0l17.43-5.36a.5.5 0 00.33-.62zM37.34 6.52a.5.5 0 00-.69-.14l-8.75 5.93a.5.5 0 00-.14.69.52.52 0 00.42.22.51.51 0 00.28-.09l8.75-5.92a.49.49 0 00.13-.69zM39 7.69a.49.49 0 00-.67.21l-2.5 4.75a.49.49 0 00.21.67.46.46 0 00.23.06.48.48 0 00.44-.27l2.5-4.75a.49.49 0 00-.21-.67zM41.08 7.88a.51.51 0 00-.5.5V13a.5.5 0 00.5.5.5.5 0 00.5-.5V8.38a.5.5 0 00-.5-.5zM40.4 3.19a5.08 5.08 0 01-.33-3 3.27 3.27 0 00-1.71 3.01 3.1 3.1 0 002.17 3.21c.58-.97.24-2.06-.13-3.22zM41.25 0c-.57.78-.26 1.75.1 2.88a5.51 5.51 0 01.33 3.4 3.24 3.24 0 001.75-3.08A3.07 3.07 0 0041.25 0z" class="cls-1"/></g></g></g></svg>