<svg fill="none"  viewBox="0 0 344 90">
    <path fill="var(--fg)" d="M41.906 89.9571l-.1706-.5143c1.0237-.6857 1.8767-1.7143 2.218-2.9143.3412-1.3714.3412-2.9143 0-4.4571l-5.1185-22.9715c-.1706-1.3714-.853-2.7428-1.7061-3.7714s-2.0474-1.7143-3.4123-1.8857l-.1706-.5143L56.92 47.6142c2.3886-.5143 4.7772-.6857 7.1658-.5143 1.8768.1715 3.7535.6857 5.4597 1.5429 1.5355.8571 2.9004 1.8857 3.7535 3.2571 1.0237 1.3715 1.7061 3.0857 2.0473 4.6286.3413 1.5429.3413 3.0857.1707 4.4571-.1707 1.3715-.8531 2.7429-1.7062 3.9429-.853 1.2-1.8767 2.4-3.071 3.0857-1.3649.8572-3.0711 1.5429-4.6066 1.8857l-.5119.1715h-.5118c1.3649.5142 2.5592.8571 3.7535 1.2 1.1943.3428 2.3886.3428 3.5829 0 .5119 0 .8531-.1715 1.1943-.5143.3412-.1715.5118-.5143.8531-.6857.1706-.3429.3412-.6858.5118-1.0286.5119.1714.8531.3428 1.3649.5143.5119.1714 1.0237.5143 1.3649.8571.5119.3429.8531.8572 1.1943 1.3714.3413.5143.6825 1.2.6825 1.8858.1706 1.0285.3412 2.0571.1706 3.0857-.1706 1.0285-.5118 1.8857-1.0237 2.7428-.5118.8572-1.3649 1.7143-2.218 2.2286-1.0236.6857-2.3885 1.2-3.5828 1.5429-1.365.3428-2.7299.3428-4.0948 0-1.1943-.3429-2.3886-1.0286-3.5829-1.7143-1.1943-.8572-2.218-1.7143-3.2417-2.7429-1.0236-1.0286-2.0473-1.8857-3.071-2.9143-.8531-.8571-1.8768-1.5428-2.9004-2.2285-.8531-.5143-1.8768-.8572-3.0711-.8572l1.3649 6.5143c.1706 1.5429.8531 2.9143 1.8768 3.9429.853.8571 2.0473 1.5428 3.2416 1.7142l.1707.5143-17.7439 4.4572zm4.2653-3.7715l-.5118 1.3715 10.2368-2.2286c-.6824-.5143-1.1943-1.0286-1.5355-1.7143-.5118-1.0286-1.0237-2.2286-1.1943-3.4286l-1.7061-8.0571 1.0237-.1714c.853-.1715 1.8767-.1715 2.9004 0 .8531.1714 1.7061.5143 2.5592 1.0285.3412.3429.5119.3429.3412.1715l-.3412-.5143c-.5118-.6857-1.1943-1.2-2.0474-1.5429-1.0236-.3428-2.2179-.5143-3.4122-.1714l-2.218.5143 2.0473 9.2571c.1707 1.0286.5119 1.8857.6825 2.7429.1706.5143.3412.8571.8531 1.3714l-7.6777 1.3714zm1.7062-29.1428l10.5781-2.2286c.853-.1714 1.7061-.3428 2.7298-.1714.6824 0 1.1943.1714 1.8767.5143.3413.1714.5119.1714.6825.1714.1706 0 0-.1714-.3412-.3429-.1707-.1714-.5119-.3428-.6825-.5142-.3412-.1715-.6825-.3429-1.0237-.5143-.5118-.1715-1.0237-.1715-1.3649-.3429-.6824 0-1.1943 0-1.8767.1714l-11.7724 2.5715 2.5592 11.6571 1.1943-.3428-2.5592-10.6286zm1.8767 1.2l1.8768 8.5714 9.0425-2.0571c1.365-.1715 2.7299-.8572 3.7535-1.8857.8531-.8572 1.1943-2.2286.8531-3.4286-.1706-1.3714-1.0237-2.4-2.218-2.9143-1.3649-.5143-2.7298-.5143-4.2653-.1714l-9.0426 1.8857zm13.3079 11.4857c2.0474-.3429 3.9242-1.0286 5.6303-2.0571 1.3649-.6858 2.5592-1.7143 3.5829-3.0858.8531-1.0285 1.3649-2.2285 1.7061-3.6.3413-1.2.3413-2.5714 0-3.9428-.1706-.8572-.5118-1.7143-.853-2.5714-.3413-.6858-.8531-1.3715-1.3649-1.8857-.5119-.5143-.8531-1.0286-1.5356-1.3715-.5118-.3428-1.0237-.6857-1.3649-.8571-.5118-.3429-.8531-.5143-.8531-.3429 0 .1715.1707.3429.6825.6857l.8531.6857c.5118.3429.853.8572 1.1943 1.3715.5118.6857.853 1.2 1.3649 2.0571.3412.8572.6824 1.7143.8531 2.5714.3412 1.2.3412 2.4 0 3.6-.3413 1.2-.8531 2.4-1.7062 3.4286-1.0237 1.2-2.3886 2.0572-3.7535 2.9143-1.8768.8571-4.0947 1.5429-6.1421 2.0571l1.7061.3429zm15.0141 4.8c-.1706-.6857-.3413-1.2-.8531-1.5429-.3412-.3428-.6825-.6857-1.1943-.8571-.1706-.1714-.3412-.1714-.3412 0s0 .1714.1706.3429c.1706.3428.3412.6857.5118 1.0285.1706.5143.3413.8572.5119 1.3715.1706.6857.1706 1.3714 0 2.0571-.1706.6857-.3413 1.3714-.6825 1.8857-.3412.6857-1.0237 1.2-1.5355 1.5429-.6825.5143-1.5355.8571-2.218 1.0285-.8531.1715-1.7061.3429-2.5592.1715-.5118 0-1.0237-.1715-1.5355-.1715-.3413 0-.6825-.1714-.8531-.1714-.1706 0 0 .1714.5118.5143.5119.3429 1.1943.6857 1.8768.8571 1.0237.1715 1.8767.1715 2.9004 0 1.8768-.3428 3.5829-1.3714 4.6066-2.9142.6825-1.7143 1.0237-3.4286.6825-5.1429zM106.91 46.5857c-.17-1.5428-.682-3.0857-1.535-4.2857-.683-.8571-1.706-1.5429-2.9-1.8857V39.9l18.085-2.4v.5143c-1.024.6857-1.707 1.3714-2.389 2.4-.682 1.5428-.853 3.0857-.512 4.6286l1.877 14.4c.341 2.3999 0 4.7999-.512 7.1999-.682 2.0572-1.706 4.1143-3.071 5.8286-1.536 1.7143-3.242 3.0857-5.289 4.1143-2.218 1.2-4.607 1.8857-6.995 2.0571-2.389.3429-4.948.3429-7.3366-.1714-2.218-.5143-4.2653-1.3714-6.1421-2.5714-1.8768-1.2-3.4123-2.9143-4.436-4.8-1.1943-2.0572-2.0473-4.4572-2.2179-6.8572l-1.8768-14.4c-.1706-1.5428-.6825-2.9142-1.5355-4.1142-.6825-.8572-1.7062-1.5429-2.9005-1.8858v-.5142l18.0851-2.4v.5143c-1.0237.5142-1.8767 1.3714-2.3886 2.5714-.5118 1.5428-.6824 3.0857-.5118 4.6286l1.8767 14.5714c.1706 1.0285.5119 2.2285.8531 3.0857.3412.8571 1.0237 1.7143 1.7061 2.4.6825.6857 1.5356 1.2 2.3886 1.3714 1.1942.3429 2.2182.3429 3.4122.1714 1.194-.1714 2.218-.5142 3.242-1.0285.853-.5143 1.535-1.2 2.047-2.0572.512-.8571.853-1.8857 1.024-2.7428.17-1.0286.17-2.2286 0-3.2572l-2.048-14.5714zm-16.3785 2.2286c-.1706-1.2-.1706-2.4 0-3.6.1706-.8572.5119-1.5429.8531-2.2286l-1.3649.1714c-.3413.6858-.5119 1.3715-.6825 2.0572-.1706 1.2-.1706 2.5714 0 3.7714l2.0474 14.5714c.1706 1.2.5118 2.5715 1.0237 3.6.3412.6857 1.0237 1.3715 1.7061 1.8857.3412.1715.5119.3429.6825.3429.1706 0 0-.1714-.1706-.3429-.5119-.5142-.8531-1.2-1.1943-1.8857-.5119-1.2-.8531-2.4-1.0237-3.6l-1.8768-14.7428zm25.5925-3.4286c-.171-1.2-.171-2.4 0-3.6.17-.8571.511-1.5428.853-2.2286l-1.365.1715c-.341.6857-.683 1.3714-.683 2.0571-.17 1.2-.17 2.5714 0 3.7714l2.048 14.5715c.17 1.8857 0 3.9428-.683 5.6571-.512 1.8857-1.535 3.6-2.73 4.9714-2.729 2.9143-6.312 4.8-10.236 5.3143-1.195.1714-2.389.1714-3.5833.1714-1.0237 0-2.0474-.1714-2.9005-.3428-.6824-.1714-1.5355-.3429-2.2179-.5143-.6825-.1714-1.1943-.3429-1.5356-.5143l-.853-.3429c-.1707 0-.3413-.1714-.5119-.1714v.1714c.1706.1715.5119.3429.6825.5143.5118.3429 1.0237.6858 1.5355.8572.6825.3428 1.5355.6857 2.218.8571 1.0237.1715 2.0474.3429 3.071.5143 1.3652 0 2.7302 0 4.0952-.1714 2.218-.3429 4.436-1.0286 6.483-2.0572 1.877-1.0285 3.583-2.2285 4.777-3.7714 2.73-3.2571 3.924-7.3714 3.412-11.6571l-1.876-14.2286zM155.365 48.3c-1.023-.8572-2.218-1.5429-3.412-2.0572-1.365-.5143-2.73-1.0285-4.265-1.5428-1.365-.3429-2.901-.6857-4.436-.8572-1.365-.1714-2.73-.1714-4.095-.1714-1.365 0-2.9.3429-4.095 1.0286-.682.5143-1.023 1.3714-1.023 2.0571 0 .5143.17 1.0286.682 1.2.512.3429 1.194.6857 1.877.8572 1.194.3428 2.218.5142 3.412.6857 1.365.1714 3.071.3428 5.119.5143 2.047.1714 4.094.6857 6.142 1.3714 1.535.5143 2.9 1.3714 4.094 2.2286 1.024.8571 1.877 2.0571 2.389 3.2571.512 1.2.853 2.5714.853 3.9429.171 1.7142-.17 3.4285-.682 5.1428-.512 1.7143-1.536 3.0857-2.901 4.2857-1.535 1.3715-3.241 2.4-5.118 3.0858-2.389.8571-4.948 1.3714-7.507 1.5428-2.559.1714-5.119 0-7.507-.5143-1.877-.5143-3.754-1.2-5.46-2.2286-1.365-.8571-2.388-2.0571-3.242-3.4285-.682-1.2-1.194-2.5715-1.194-3.9429-.17-1.0286 0-2.0571.341-2.9143.342-.6857.683-1.3714 1.195-1.8857s1.194-.8571 1.876-1.2c.342 1.2.854 2.2286 1.707 2.9143.853 1.0286 2.047 1.7143 3.241 2.4 1.365.6857 2.901 1.2 4.436 1.5429 1.706.3428 3.583.5142 5.46.3428 1.535 0 2.9-.3428 4.265-1.0286 1.195-.8571 1.536-2.3999.683-3.7714-.171-.1714-.171-.3428-.342-.3428-.682-.5143-1.364-.8572-2.218-1.0286-1.194-.3429-2.388-.5143-3.753-.6857-1.536-.1715-3.242-.3429-5.289-.6857-1.877-.1715-3.754-.5143-5.63-1.2-1.195 0-2.56-.8572-3.754-1.7143-1.024-.8572-1.706-1.8857-2.218-3.0857-.512-1.2-.853-2.5715-.853-3.9429-.171-1.7143.171-3.2571.853-4.8.683-1.5429 1.706-2.9143 2.901-3.9429 1.365-1.2 2.9-2.0571 4.606-2.7428 1.877-.6857 3.924-1.2 5.972-1.2 1.365-.1714 2.9-.1714 4.265 0 1.365 0 2.389.1714 3.412.3428l2.56.3429c.682.1714 1.194.1714 1.876.1714.341 0 .853 0 1.195-.1714.341-.1714.682-.1714.853-.3429.341-.1714.511-.3428.682-.5142l2.218 12.5142-.171.1715zm-6.312 11.3143c.341.3428.512.3428.682.3428.171 0-.17-.3428-.512-.8571-.341-.3429-.853-.8572-1.365-1.0286-.682-.3429-1.364-.6857-2.047-.6857-.853-.1714-2.047-.3429-3.242-.6857-1.194-.3429-2.9-.3429-4.777-.6857-.853 0-1.706-.1715-2.559-.3429-.853-.1714-1.706-.3429-2.559-.6857-.853-.3429-1.536-.5143-2.218-.8572-.512-.1714-1.024-.5142-1.536-.8571-.341-.1714-.512-.3429-.682-.3429-.171 0 0 .3429.341.6858 1.024 1.0285 2.218 1.7142 3.583 2.2285 1.706.6857 3.583 1.2 5.289 1.3715l4.777.5143c1.365.1714 2.389.3428 3.242.5142.682.1715 1.365.3429 2.218.5143.512.3429.853.6857 1.365.8572zm8.019 1.7142c0-1.0285-.171-1.8857-.512-2.9142-.171-.6858-.683-1.3715-1.024-2.0572-.341-.5143-.853-1.0286-1.365-1.3714-.512-.3429-1.024-.6857-1.535-1.0286-.512-.3428-.853-.3428-.853-.3428s.17.3428.682.6857l1.194.8571c.342.3429.853.8572 1.024 1.2.341.5143.682 1.2.853 1.8857.341.8572.341 1.8857.512 2.7429 0 1.3714-.171 2.7428-.683 3.9428-.511 1.3715-1.364 2.5715-2.388 3.4286-1.194 1.0286-2.73 1.8857-4.265 2.5714-2.048.6858-4.095 1.2-6.313 1.2-2.559.1715-5.119.0001-7.678-.6857-1.877-.5142-3.753-1.3714-5.459-2.4-.512-.3428-.854-.5143-.854-.3428 0 .1714.171.3428.512.6857 1.536 1.3714 3.413 2.4 5.46 2.9143 2.559.8571 5.289 1.2 8.019.8571 2.388 0 4.606-.5143 6.824-1.3714 1.706-.6857 3.242-1.5429 4.607-2.7429 1.194-1.0285 2.047-2.4 2.559-3.7714.512-.8571.683-2.4.683-3.9429zm-22.521-11.1428c.17 0 .341.1714.511.1714.171 0 .171 0-.17-.1714-.683-.3429-1.195-.6857-1.706-1.2-.512-.5143-.683-1.2-.683-1.8857-.17-1.3715.341-2.5715 1.365-3.4286 1.536-1.0286 3.412-1.5429 5.289-1.5429h2.901c1.023 0 1.876.1715 2.729.3429.853.1714 1.707.3429 2.218.5143.512.1714 1.195.3428 1.365.3428 1.024.1715 1.024 0 0-.5142-.512-.1715-.853-.5143-1.365-.5143-.682-.3429-1.535-.5143-2.218-.6857-1.876-.5143-3.924-.6858-5.8-.6858-1.365 0-2.56.3429-3.925.6858-.853.3428-1.706.6857-2.559 1.2-.512.5142-1.024 1.2-1.365 1.8857-.17.6857-.341 1.5428-.341 2.4 0 .8571.341 1.7143 1.024 2.2285 1.023.3429 1.876.6858 2.73.8572zm17.914-12l-1.194.3428 1.365 6.5143 1.365.6857-1.536-7.5428zM192.389 48.643c-1.024-.8572-2.218-1.7143-3.412-2.2286-1.365-.6857-2.73-1.2-4.095-1.7143-1.365-.5143-2.901-.8571-4.436-1.2-1.365-.3429-2.73-.5143-4.095-.5143-1.365-.1714-2.9.1714-4.095.6857-.682.5143-1.023 1.2-1.023 2.0572 0 .5143.17 1.0285.512 1.3714.511.5143 1.023.8571 1.706 1.0286 1.023.3428 2.218.6857 3.241.8571 1.365.3429 3.071.5143 5.119 1.0286 2.047.3428 4.095.8571 5.971 1.7143 1.536.5143 2.901 1.3714 4.095 2.5714 1.024 1.0286 1.706 2.0571 2.218 3.4286.512 1.3714.682 2.7428.682 4.1142 0 1.7143-.341 3.6-1.023 5.1429-.683 1.5428-1.706 3.0857-3.071 4.1143-1.536 1.2-3.413 2.2285-5.289 2.7428-2.56.6857-5.119 1.0286-7.678 1.0286s-5.118-.3429-7.507-1.0286c-1.877-.5143-3.754-1.5428-5.289-2.7428-1.194-1.0286-2.389-2.2286-3.071-3.6-.683-1.2-1.024-2.5715-1.024-3.9429 0-1.0285.171-2.0571.512-2.9143.341-.6857.853-1.2 1.365-1.7142.512-.5143 1.194-.8572 2.047-1.0286.171 1.2.683 2.2286 1.536 3.0857.853 1.0286 1.877 1.8857 3.071 2.5714 1.365.6857 2.9 1.3714 4.265 1.7143 1.706.5143 3.583.6857 5.46.6857 1.535.1715 3.071-.1714 4.436-.6857.853-.5143 1.365-1.3714 1.365-2.2286 0-.6857-.171-1.2-.683-1.7142-.511-.5143-1.365-1.0286-2.047-1.2-1.194-.3429-2.389-.6858-3.583-1.0286-1.535-.3429-3.242-.6857-5.118-1.0286-1.877-.3428-3.754-.8571-5.631-1.7143-1.365-.5143-2.729-1.3714-3.753-2.4-.853-.8571-1.706-2.0571-2.047-3.2571-.512-1.2-.683-2.5714-.683-3.9429 0-1.7142.341-3.2571 1.194-4.6285.853-1.3715 1.877-2.7429 3.242-3.7715 1.365-1.0285 3.071-1.8857 4.777-2.4 2.048-.6857 4.095-.8571 6.142-.8571 1.365 0 2.901.1714 4.266.3429 1.194.1714 2.388.3428 3.412.5142l2.559.5143c.512.1715 1.195.1715 1.706.1715.342 0 .853 0 1.195-.1715.341 0 .682-.1714.853-.3428.341-.1715.512-.3429.682-.5143l1.365 12.5143-.341.5143zm.853 13.0285c0-1.0286 0-1.8857-.341-2.9143-.171-.6857-.512-1.3714-.853-2.0571-.342-.5143-.853-1.0286-1.365-1.5429-.512-.3428-1.024-.6857-1.536-1.0285-.512-.3429-.853-.3429-.853-.3429s.171.3429.683.6857c.511.3429.682.6857 1.023 1.0286.342.3428.683.8571 1.024 1.3714.341.6857.512 1.2.682 1.8857.171.8572.342 1.8857.342 2.7429 0 1.3714-.342 2.7428-.853 3.9428-.683 1.2-1.536 2.4-2.73 3.2572-1.365 1.0285-2.901 1.7143-4.436 2.2286-2.048.5142-4.095.8571-6.313.6857-2.559 0-5.118-.3429-7.507-1.2-1.877-.6858-3.754-1.5429-5.289-2.7429-.512-.3428-.853-.5143-.853-.5143s.17.3429.512.8572c1.535 1.5428 3.241 2.5714 5.289 3.2571 2.559 1.0286 5.289 1.5429 8.019 1.5429 2.388 0 4.606-.1715 6.824-.8572 1.706-.5143 3.413-1.3714 4.777-2.4 1.195-1.0286 2.218-2.2285 2.901-3.6.512-1.3714.853-2.7428.853-4.2857zm-7.848-2.2286c.341.3429.512.3429.512.3429s0-.3429-.512-.8571c-.342-.5143-.683-.8572-1.195-1.2-.682-.3429-1.365-.6857-2.047-.8572-.853-.3428-1.877-.5143-3.242-.8571-1.365-.3429-2.9-.6857-4.777-1.0286-.853-.1714-1.706-.3428-2.559-.6857-.853-.1714-1.706-.5143-2.389-.8571-.682-.3429-1.535-.6858-2.047-1.0286-.512-.1715-1.024-.5143-1.536-.8572-.341-.3428-.511-.3428-.682-.3428-.171 0 0 .3428.341.6857 1.024 1.0286 2.048 1.8857 3.412 2.5714 1.707.8572 3.413 1.3714 5.29 1.7143l4.606.8571c1.365.3429 2.389.5143 3.242.6858.682.1714 1.365.3428 2.047.6857.683.5143 1.024.6857 1.536 1.0285zm-13.82-10.4571c.171 0 .341.1714.512.1714.17 0 .17 0-.171-.1714-.682-.3429-1.194-.8571-1.535-1.3714-.342-.5143-.683-1.2-.683-1.8857 0-1.3715.683-2.5715 1.706-3.2572 1.706-1.0285 3.583-1.3714 5.46-1.2 1.024 0 2.047.1715 2.9.3429 1.024.1714 1.877.3428 2.73.5143.853.1714 1.536.3428 2.218.6857.683.3428 1.195.3428 1.365.5143 1.024.3428 1.024.1714.171-.5143-.512-.1714-.853-.5143-1.365-.6857-.683-.3429-1.365-.6858-2.218-.8572-.853-.3428-1.877-.5143-2.73-.6857-1.024-.1714-2.047-.3428-3.071-.3428-1.365 0-2.559 0-3.924.3428-.853.1714-1.877.5143-2.559 1.0286-.683.5143-1.024 1.0286-1.365 1.7143-.342.6857-.512 1.5428-.512 2.2285 0 .8572.341 1.5429.853 2.2286.682.5143 1.365 1.0286 2.218 1.2zm18.768-10.8l-1.195.1714.853 6.5143 1.365.8572-1.023-7.5429zM195.801 74.1857v-.5143c1.194-.3428 2.218-1.0285 2.9-2.0571.683-1.2 1.195-2.7429 1.195-4.1143l1.706-23.4857c.17-1.5429 0-2.9143-.683-4.2858-.512-1.0285-1.535-2.0571-2.73-2.5714v-.5143l18.086 1.3715v.5142c-1.195.3429-2.218 1.2-2.901 2.0572-.682 1.2-1.194 2.7428-1.194 4.1143l-1.706 23.4857c-.171 1.5429 0 2.9143.682 4.2857.512 1.0286 1.536 2.0572 2.559 2.5715v.5142l-17.914-1.3714zm4.948-2.4l-.853 1.2 10.578.6857c-.512-.6857-.853-1.3714-1.024-2.0571-.171-1.2-.341-2.4-.171-3.6l1.706-23.4858c0-1.2.342-2.4.683-3.4285.341-.6857.682-1.3715 1.365-2.0572l-1.365-.1714c-.512.5143-.853 1.0286-1.194 1.7143-.512 1.2-.683 2.4-.683 3.6l-1.706 23.4857c0 1.0286-.171 1.8857-.171 2.9143 0 .5143.171 1.0286.342 1.3714l-7.507-.1714z"/>
    <path fill="var(--fg)" d="M238.795 78.3v-.5143c.512-.1714 1.194-.5143 1.536-.8571.511-.5143 1.023-1.0286 1.364-1.7143.342-.6858.683-1.5429.683-2.4.171-1.0286.171-2.0572 0-3.0858l-13.649-1.8857c-.512 1.0286-.683 1.8857-.853 3.0857-.171.8572 0 1.7143.17 2.4.171.6858.512 1.3715.853 1.8858.342.5142.683.8571 1.365 1.2v.5143L213.032 74.7v-.3429c.341-.1714.683-.3428 1.024-.6857.341-.3429.682-.6857.853-1.0286.341-.3428.682-.8571 1.024-1.5428.341-.6857.853-1.3715 1.365-2.0572.511-.6857.853-1.5428 1.365-2.5714.511-1.0286 1.194-2.4 1.876-3.7714l2.048-4.2858 2.047-4.1142c.682-1.3715 1.194-2.5715 1.706-3.7715.512-1.2 1.024-2.0571 1.365-2.7428.512-1.2 1.024-2.4 1.194-3.6.171-.8572.171-1.7143 0-2.5715-.17-1.0285-1.023-2.0571-1.876-2.4V38.7l26.104 3.4285v.5143c-.512.1714-.853.3429-1.365.5143-.512.3429-.853.8571-1.195 1.3714-.341.6857-.511 1.5429-.682 2.4-.171 1.2 0 2.5715.341 3.7715.171.8571.341 1.8857.512 3.0857.171 1.2.512 2.7428.853 4.2857.341 1.5429.683 3.0857.853 4.8.171 1.7143.683 3.2571.853 4.6286.171 1.3714.512 2.7428.683 3.9428.17 1.2.341 2.0572.512 2.5715.341 1.5428.853 2.9143 1.364 4.2857.342.6857.854 1.3714 1.365 1.8857V80.7l-18.426-2.4zm3.071-11.3143L227.364 65.1l-1.365 2.9143c-.683 1.2-.853 2.4-1.024 3.7714 0 .6857.171 1.3714.341 2.0571l-8.53-1.0285-.853 1.0285 11.09 1.5429c-.512-.8572-.853-1.8857-.853-2.9143-.171-1.3714.17-2.9143.853-4.1143l.853-1.8857 14.161 1.8857-.171-1.3714zM237.089 47.1l1.365.1714-.341-1.2-1.707-.1714-7.165 14.9143 1.194.1714L237.089 47.1zm1.706 1.8857l-.853-.1715-5.801 12.1715 8.872 1.2-2.218-13.2zm4.607 27.0857l-.683 1.2 11.602 1.5429c-.341-.5143-.683-1.2-1.024-1.8857-.341-.8572-.682-1.8858-.853-2.9143-.17-.6857-.341-1.7143-.682-2.9143-.342-1.2-.512-2.5715-.683-4.1143-.17-1.5429-.512-3.0857-.853-4.6286-.341-1.5428-.682-3.2571-.853-4.8l-.853-4.1143c-.171-1.2-.341-2.2286-.512-3.0857-.17-1.0286-.341-1.8857-.341-2.9143 0-.6857 0-1.3714.171-2.0571.17-.5143.341-1.0286.511-1.3714.171-.3429.342-.5143.683-.8572l-1.194-.1714c-.683.6857-1.195 1.5428-1.365 2.4-.342 1.5428-.342 3.2571.17 4.8l4.436 23.6571c.171.6857.171 1.2.341 1.8858.171.5142.342 1.0285.512 1.3714l-8.53-1.0286z"/>
    <path fill="var(--fg)" d="M280.938 86.1857l.17-.5143c1.024-.1714 2.048-.5143 2.901-1.0286.853-.5143 1.535-1.3714 1.706-2.4.512-2.2286-.171-5.1428-1.877-8.7429-2.559-4.8-5.289-9.2571-8.531-13.5428l-3.753 16.9714c-.341 1.3715-.341 2.9143 0 4.4572.341 1.2 1.194 2.2286 2.218 2.9143l-.171.5142-17.744-3.9428.171-.5143c1.194-.1714 2.389-.8571 3.242-1.7143 1.023-1.2 1.535-2.5714 1.876-3.9429l5.119-22.9714c.341-1.3714.341-2.9143 0-4.4572-.341-1.2-1.194-2.2285-2.218-2.9142l.171-.5143 14.161 3.2571 11.26 18.3429 1.877-8.2286c.341-1.3714.341-2.9143 0-4.4571-.341-1.2-1.194-2.2286-2.218-2.9143l.17-.5143 17.744 3.9429-.17.5142c-1.195.1715-2.389.8572-3.242 1.7143-1.024 1.2-1.536 2.5715-1.877 3.9429l-5.118 22.9714c-.341 1.3715-.341 2.9143 0 4.4572.341 1.2 1.194 2.2286 2.218 2.9143l-.171.5143-17.914-4.1143zm-19.792-7.3715l-1.023 1.0286 10.407 2.2286c-.341-.6857-.682-1.3714-.682-2.2286-.171-1.2 0-2.4.341-3.6l4.095-18.3429-.853-1.7143-4.436 19.8858c-.171.8571-.341 1.8857-.512 2.9143 0 .5143 0 1.0285.17 1.5428l-7.507-1.7143zm27.811-11.4857l-11.261-18.5143-.341 1.7143 11.26 18.5143.342-1.7143zm-2.56 17.1429L285.374 85.5l10.066 2.2285c-.341-.6857-.683-1.5428-.683-2.2285-.17-1.2 0-2.4.342-3.6l5.118-22.9715c.171-1.2.683-2.2286 1.194-3.2571.512-.6858 1.024-1.2 1.536-1.7143l-1.365-.3429c-.512.5143-1.024 1.0286-1.365 1.5429-.682 1.0286-1.024 2.2286-1.194 3.4286l-5.119 22.9714c-.17.8571-.341 1.8857-.511 2.9143 0 .5143 0 1.0286.17 1.5429l-7.166-1.5429zM129.432 23.7857v-.3429c.17-.1714.341-.5143.512-.6857.17-.5143 0-1.0286-.171-1.5428l-3.071-8.7429-3.412 8.0571c-.342.6858-.512 1.3715-.342 2.0572 0 .3429.171.6857.512.8571v.3429h-7.166v-.3429c.342-.1714.512-.5142.512-.8571.171-.6857 0-1.3714-.17-1.8857-.342-.8572-.683-1.7143-1.195-2.9143s-.853-2.0572-1.194-3.2572c-.341-1.2-.853-2.2285-1.365-3.2571l-1.194-2.91429c-.341-.85714-.683-1.71429-1.024-2.4-.17-.51429-.341-.85714-.682-1.37143l-.683-1.2c-.17-.34286-.341-.68571-.512-1.02857-.17-.34286-.341-.51429-.511-.68572-.171-.17143-.342-.51428-.512-.685709V.642822h10.919v.342859c-.341.171429-.512.514289-.682.857139-.171.34286-.342.85715-.342 1.37143-.17 1.2 0 2.4.342 3.42857l2.559 7.19998L126.19.814248h1.365l5.118 12.857152 2.56-6.85715c.17-.68571.341-1.2.511-1.88571V3.21425c0-.51428-.17-.85714-.341-1.2-.17-.34286-.512-.68571-.682-.85714V.642822h10.407v.342859l-.512.685709c-.17.17143-.341.51429-.511.68572-.171.17143-.342.51428-.512 1.02857-.171.51428-.342.85715-.512 1.37143 0 .17143-.341.68571-.512 1.37142l-1.024 2.40001-1.194 2.91426c-.512 1.0286-.853 2.2286-1.365 3.2572-.512 1.0285-.853 2.2285-1.365 3.2571s-.853 2.0572-1.194 2.9143c-.171.5143-.341 1.2-.171 1.8857 0 .3429.171.6857.512.8572v.3428l-7.336-.1714zM161.336 23.7857v-.3429c.683-.3428 1.365-.8571 1.707-1.5428.341-.8572.511-1.7143.511-2.5715V14.7h-8.872v4.8c0 .8571.171 1.7143.683 2.5714.341.6857 1.024 1.2 1.706 1.5429v.3428h-11.26v-.3428c.682-.3429 1.364-.8572 1.706-1.5429.512-.8571.682-1.7143.682-2.5714V5.09996c0-1.02857-.17-1.88571-.682-2.74285-.512-.51429-1.024-1.02857-1.706-1.371429V.642822h11.26v.342859c-.682.171429-1.365.685709-1.706 1.371429-.512.85714-.683 1.88571-.683 2.74285v4.45715h8.872V5.09996c.171-.85714 0-1.88571-.341-2.74285-.341-.68572-1.023-1.2-1.706-1.371429V.642822h11.09v.342859c-.682.171429-1.365.685709-1.706 1.371429-.341.85714-.683 1.71428-.512 2.74285V19.5c0 .8571.171 1.7143.512 2.5714.341.6857 1.024 1.2 1.706 1.3714v.3429h-11.261zM174.475 23.7857v-.3428c.682-.3429 1.365-.8572 1.706-1.3715.341-.8571.682-1.7143.512-2.5714V4.92854c0-.85714-.171-1.88572-.512-2.57143-.341-.68572-1.024-1.2-1.706-1.371429V.642822h11.09v.342859c-.683.342859-1.365.857139-1.707 1.371429-.341.85714-.682 1.71429-.511 2.57143V19.5c0 .8571.17 1.8857.511 2.5714.342.6857 1.024 1.2 1.707 1.3715v.3428h-11.09zM191.535 23.7858v-.3429c.682-.3428 1.365-.8571 1.706-1.3714.341-.8572.512-1.7143.512-2.5714V5.95722H190.682c-.341 0-.853 0-1.194.17143-.342 0-.683.17143-1.024.34286-.341.17143-.683.34285-.853.51428l-.341-.17143 1.194-6.685698.853.171426 1.024.171432h13.137l1.024-.171432.853-.171426 1.194 6.685698-.171.17143c-.341-.17143-.512-.51428-.853-.51428-.341-.17143-.682-.34286-1.023-.34286-.342 0-.854-.17143-1.365-.17143H200.066V19.5001c0 .8571.17 1.8857.511 2.5714.342.6857 1.024 1.2 1.707 1.3714v.3429h-10.749zM208.597 23.7858v-.3429c.682-.1714 1.365-.6857 1.706-1.3714.341-.8571.512-1.7143.512-2.5714V5.10005c0-2.22857-.683-3.6-2.218-4.114284V.642908h17.744c.341 0 .853-.171427 1.194-.171427.341 0 .512-.171432.853-.171432l1.365 6.857151h-.341c-.512-.34285-.853-.51428-1.365-.85714-.853-.34286-1.877-.51429-2.73-.34287h-7.848v5.14291c.511-.8572 1.194-1.37147 1.876-1.88576.853-.51428 1.877-.68571 3.071-.68571 1.365 0 2.73.34286 3.754 1.2.853.68567 1.365 1.71427 1.365 2.91427 0 .5143-.171.8572-.341 1.3715-.171.3428-.512.6857-.683.8571-.341.1714-.682.5143-1.024.5143-.341.1714-.853.1714-1.194.1714 0-.5143-.17-1.0286-.512-1.2-.512-.5143-1.194-.6857-1.876-.5143-1.195 0-2.218.5143-2.901 1.3714-.341.5143-.682 1.0286-.853 1.5429-.171.6857-.341 1.3714-.341 2.0571h8.189c1.024 0 1.877-.1714 2.73-.5142.683-.3429 1.194-.6858 1.706-1.2l.341.1714-1.364 7.5429c-.342-.1715-.512-.3429-.854-.3429-.511-.1714-.853-.1714-1.364-.1714-.683 0-1.365-.1715-2.048-.1715l-16.549-.3428z"/>
    <path fill="currentColor" d="M86.2662 18.4713c1.3649 0 2.5592.5143 3.7535 1.2-.1706-1.7143-1.1943-3.0857-2.7298-3.6-1.5355-.8571-3.5829-.5143-4.7772.8572.8531 1.0285 2.218 1.5428 3.7535 1.5428zM89.3371 21.2143c-.5118-1.0286-1.8768-1.2-3.4123-1.3714-1.5355 0-2.9004-.5143-4.0947-1.3715.1706 1.5429 1.1943 3.0857 2.7298 3.6 1.5355.8572 3.5829.5143 4.7772-.8571zM98.5508 17.7857c1.1943-1.2 2.7302-1.8857 4.2652-2.2286-1.535-1.3714-3.5827-1.7143-5.4595-.8571-2.2179.6857-3.7534 2.7428-3.5828 4.9714 1.8767.5143 3.2416-.6857 4.7771-1.8857zM103.84 17.4429c-1.535-.5143-2.73.5143-4.2652 1.7143-1.3649 1.2-3.0711 2.0571-4.9478 2.2285 1.5355 1.3714 3.7535 1.7143 5.46.8572 2.388-.5143 3.924-2.5715 3.753-4.8zM256.881 18.4713c-1.365 0-2.559.5143-3.583 1.2.17-1.5428 1.194-3.0857 2.73-3.6 1.535-.8571 3.583-.5143 4.777.8572-1.024 1.0285-2.389 1.5428-3.924 1.5428zM253.81 21.2143c.511-1.0286 1.876-1.2 3.412-1.3714 1.535 0 2.9-.5143 4.095-1.3715-.171 1.5429-1.195 3.0857-2.73 3.6-1.536.8572-3.583.5143-4.777-.8571zM244.596 17.7857c-1.194-1.2-2.73-1.8857-4.436-2.2286 1.536-1.3714 3.583-1.7143 5.46-.8571 2.218.6857 3.753 2.7428 3.583 4.9714-1.706.5143-3.071-.6857-4.607-1.8857zM239.307 17.4429c1.535-.5143 2.73.5143 4.265 1.7143 1.365 1.3714 3.071 2.0571 4.948 2.4-1.535 1.3714-3.753 1.7142-5.46.8571-2.388-.6857-3.924-2.7428-3.753-4.9714z"/>
    <path stroke="currentColor" stroke-linecap="round" stroke-miterlimit="10" stroke-width="1.5" d="M309.088 84.9858c-2.559-12.3429 1.536-28.6286 23.887-29.6572M309.088 84.9858c1.706-6.6857 5.118-13.7143 11.943-13.7143 5.118 0 6.654 4.2857 6.654 7.2.17 3.7714-2.73 6.8571-6.484 7.0286h-.341c-2.388.1714-4.265-1.7143-4.436-3.9429v-.3428c0-3.6 2.389-4.1143 3.583-4.1143 1.365.1714 2.389 1.2 2.389 2.7428 0 .5143-.171.8572-.341 1.2M32.3528 84.9858c2.5592-12.3429-1.7062-28.6286-23.886-29.6572"/>
    <path stroke="currentColor" stroke-linecap="round" stroke-miterlimit="10" stroke-width="1.5" d="M32.3531 84.9858c-1.7061-6.6857-5.1184-13.7143-11.943-13.7143-5.1184 0-6.6539 4.2857-6.6539 7.2-.1706 3.7714 2.7298 6.8571 6.4833 7.0286h.3412c2.3886.1714 4.2654-1.7143 4.436-3.9429v-.3428c0-3.6-2.3886-4.1143-3.4123-4.1143-1.3649.1714-2.3886 1.2-2.3886 2.7428 0 .5143.1706.8572.3413 1.2"/>
    <path stroke="currentColor" stroke-linecap="round" stroke-linejoin="round" stroke-width="1.5" d="M332.974 55.3285c-25.933-14.5714-60.056-18.8572-60.056-18.8572l18.597-22.6285"/>
    <path stroke="currentColor" stroke-linecap="round" stroke-linejoin="round" stroke-width="1.5" d="M329.733 48.6429c-21.838-11.1428-48.795-14.7428-48.795-14.7428l9.554-11.6572M11.0264 50.0144c21.8386-11.1429 48.625-16.1143 48.625-16.1143L50.097 22.2429"/>
    <path stroke="currentColor" stroke-linecap="round" stroke-linejoin="round" stroke-width="1.5" d="M8.12598 55.3285C37.1304 40.5856 68.1822 36.4713 68.1822 36.4713l-18.597-22.6285"/>
</svg>
