<svg viewBox="0 0 24 24" fill="currentColor"><path d="M12 4C5.373 4 0 6.238 0 9v6c0 2.762 5.373 5 12 5s12-2.238 12-5V9c0-2.762-5.373-5-12-5zm10 11c0 1.001-4.477 3-10 3S2 16.062 2 15v-3.238C4.149 13.109 7.824 14 12 14s7.852-.891 10-2.238V15zM8.264 11.669C9.434 11.221 10.776 11 12 11c1.4 0 2.499.279 3.639.742-1.071.159-2.436.258-3.639.258-1.405 0-2.523-.126-3.736-.331zm11.666-1.031C17.791 9.631 15.195 9 12 9c-2.971 0-5.93.557-8.016 1.44C2.873 9.938 2 9.405 2 9c0-1.063 4.477-3 10-3s10 1.968 10 3c0 .438-.641 1.068-2.07 1.638z"/></svg>