<svg viewBox="0 0 24 24" fill="currentColor"><path d="M24.088 4.912c-.007-.713-.24-1.453-.753-1.996-1.042-1.104-.954-.954-2.126-2.125-1.172-1.172-3.07-1.172-4.242 0-.022.02-11.904 14.059-14.941 17.647l-.231-.231c-.181-.181-.431-.293-.707-.293-.553 0-1 .446-1 1 0 .276.112.526.293.707l4 4c.181.181.431.293.707.293.553 0 1-.447 1-1 0-.276-.112-.526-.293-.707l-.232-.231c3.6-3.059 17.75-15.066 17.772-15.066.526-.56.761-1.265.753-1.998zM4.148 20.559l-.703-.703c.67-.791 1.861-2.201 3.286-3.885l1.325 1.324c-1.695 1.416-3.111 2.6-3.908 3.264zM22.077 5.577c-.04.041-7.068 5.912-12.479 10.431l-1.57-1.57C12.523 9.12 18.33 2.256 18.381 2.205c.391-.391 1.023-.391 1.414 0s1.936 1.674 2.282 2.041c.348.368.348.964 0 1.331zM4.088 7.912c2.209 0 4-1.791 4-4s-1.791-4-4-4-4 1.791-4 4 1.791 4 4 4zm0-6c1.104 0 2 .896 2 2s-.896 2-2 2-2-.896-2-2 .895-2 2-2z"/></svg>