<svg viewBox="0 0 24 24" fill="currentColor"><path d="M12.088-.088c-6.627 0-12 5.373-12 12s5.373 12 12 12 12-5.373 12-12-5.373-12-12-12zm-7.5 18.599c-1.552-1.762-2.5-4.065-2.5-6.599s.948-4.837 2.5-6.599c.425.481.785 1.016 1.111 1.573l-.318.319c-.181.181-.293.431-.293.707 0 .553.447 1 1 1 .171 0 .324-.054.465-.13.229.688.41 1.396.484 2.14-.527.028-.949.456-.949.99s.422.962.949.988c-.074.746-.256 1.453-.484 2.142-.141-.076-.294-.13-.465-.13-.553 0-1 .447-1 1 0 .275.112.525.293.707l.318.318c-.326.558-.686 1.092-1.111 1.574zm7.5 3.401c-2.272 0-4.361-.768-6.04-2.044.408-.459.78-.949 1.115-1.468l.218.219c.181.181.431.293.707.293.553 0 1-.447 1-1 0-.276-.112-.526-.293-.707l-.654-.654c.479-1.135.793-2.355.9-3.639h.047c.553 0 1-.447 1-1 0-.553-.447-1-1-1h-.047c-.107-1.282-.421-2.504-.9-3.639l.654-.654c.181-.181.293-.431.293-.707 0-.553-.447-1-1-1-.276 0-.526.112-.707.293l-.218.218c-.335-.518-.707-1.008-1.115-1.467 1.679-1.277 3.768-2.044 6.04-2.044 2.271 0 4.361.767 6.04 2.044-.407.459-.78.949-1.114 1.467l-.219-.218c-.182-.181-.432-.293-.707-.293-.553 0-1 .447-1 1 0 .276.112.526.293.707l.654.654c-.479 1.135-.793 2.356-.9 3.639h-.047c-.553 0-1 .447-1 1 0 .553.447 1 1 1h.047c.107 1.281.422 2.504.9 3.639l-.654.654c-.181.181-.293.431-.293.707 0 .553.447 1 1 1 .275 0 .525-.112.707-.293l.219-.219c.334.519.707 1.009 1.114 1.468-1.679 1.278-3.769 2.044-6.04 2.044zm7.5-3.401c-.425-.481-.785-1.016-1.111-1.573l.318-.317c.182-.181.293-.431.293-.707 0-.554-.447-1-1-1-.171 0-.324.054-.465.13-.229-.688-.41-1.396-.484-2.141.527-.027.949-.456.949-.989 0-.534-.422-.962-.949-.99.074-.744.256-1.452.484-2.14.141.076.294.13.465.13.553 0 1-.447 1-1 0-.276-.111-.526-.293-.707l-.318-.318c.326-.558.688-1.092 1.111-1.573 1.553 1.762 2.5 4.066 2.5 6.599s-.947 4.834-2.5 6.596z"/></svg>