<svg viewBox="0 0 24 24" fill="currentColor"><path d="M12.088-.088c-6.627 0-12 5.373-12 12s5.373 12 12 12 12-5.373 12-12-5.373-12-12-12zm-1 21.947c-2.137-.215-4.072-1.104-5.599-2.447 1.526-1.346 3.462-2.232 5.599-2.447v4.894zm0-6.9c-2.662.223-5.072 1.316-6.956 2.993-1.085-1.427-1.77-3.16-1.96-5.04h8.916v2.047zm0-4.047H2.172c.19-1.88.875-3.613 1.96-5.04 1.884 1.677 4.294 2.771 6.956 2.993v2.047zm0-4.053c-2.137-.213-4.073-1.101-5.599-2.447 1.527-1.345 3.462-2.233 5.599-2.447v4.894zm2-4.894c2.137.214 4.072 1.103 5.6 2.447-1.525 1.346-3.461 2.233-5.6 2.447V1.965zm0 6.9c2.662-.223 5.072-1.316 6.956-2.993 1.085 1.427 1.771 3.16 1.96 5.04h-8.916V8.865zm0 12.994v-4.896c2.137.214 4.073 1.103 5.6 2.447-1.528 1.347-3.463 2.236-5.6 2.449zm6.956-3.907c-1.884-1.677-4.294-2.771-6.956-2.993v-2.047h8.916c-.191 1.88-.875 3.613-1.96 5.04z"/></svg>