<svg viewBox="0 0 24 24" fill="currentColor"><path d="M23 0H1C.447 0 0 .447 0 1v16c0 .553.447 1 1 1h5.495l.51 5.1s.071.9.995.9h8c.518 0 .93-.398.98-.902L17.505 18H23c.553 0 1-.447 1-1V1c0-.553-.447-1-1-1zM8.42 17.148l1.777 1.185-1.555 1.037-.222-2.222zM15.096 22H8.905l-.038-.376L12 19.535l3.133 2.089-.037.376zm.261-2.63l-1.556-1.037 1.777-1.185-.221 2.222zm.481-4.797L12 17.132l-3.838-2.559L8.105 14h7.79l-.057.573zM9 12V9h6v3H9zm13 4h-4.295L18 13c0-.553-.447-1-1-1V8c0-.553-.447-1-1-1H8c-.553 0-1 .447-1 1v4c-.553 0-1 .447-1 1l.295 3H2V2h20v14z"/></svg>