<svg viewBox="0 0 24 24" fill="currentColor"><path d="M5 10.912c-2.761 0-5 2.238-5 5s2.239 5 5 5 5-2.238 5-5-2.239-5-5-5zm0 8c-1.657 0-3-1.344-3-3 0-1.657 1.343-3 3-3s3 1.343 3 3c0 1.656-1.343 3-3 3zm7.874-5.485l-1.952-3.515H16c.391 0 .721-.23.885-.558l.01.005 3-6-.01-.005c.068-.134.115-.281.115-.442 0-.553-.448-1-1-1h-3c-.552 0-1 .447-1 1 0 .552.448 1 1 1h1.382l-2 4H9.811l-1.111-2H10c.552 0 1-.447 1-1 0-.553-.448-1-1-1H5c-.552 0-1 .447-1 1 0 .553.448 1 1 1h1.412l4.714 8.484.013-.006c.171.305.486.521.861.521.552 0 1-.447 1-1 0-.177-.059-.334-.139-.479l.013-.005zM19 10.912c-2.762 0-5 2.238-5 5s2.238 5 5 5 5-2.238 5-5-2.238-5-5-5zm0 8c-1.657 0-3-1.344-3-3 0-1.657 1.343-3 3-3s3 1.343 3 3c0 1.656-1.343 3-3 3z"/></svg>