<svg viewBox="0 0 24 24" fill="currentColor"><path d="M23.088 10.912v-1c0-.553-.447-1-1-1v-1c0-.553-.447-1-1-1h-4c-.552 0-1 .447-1 1v3h-8v-3c0-.553-.448-1-1-1h-4c-.552 0-1 .447-1 1v1c-.552 0-1 .447-1 1v1c-.552 0-1 .447-1 1 0 .553.448 1 1 1v1c0 .553.448 1 1 1v1c0 .553.448 1 1 1h4c.552 0 1-.447 1-1v-3h8v3c0 .553.448 1 1 1h4c.553 0 1-.447 1-1v-1c.553 0 1-.447 1-1v-1c.553 0 1-.447 1-1 0-.553-.447-1-1-1zm-17 4h-2v-1c-.552 0-1-.447-1-1v-2c0-.553.448-1 1-1v-1h2v6zm15-2c0 .553-.447 1-1 1v1h-2v-6h2v1c.553 0 1 .447 1 1v2z"/></svg>