<svg viewBox="0 0 24 24" fill="currentColor"><path d="M19.088 8.912v-2c0-1.305-.838-2.403-2-2.816v-.184c0-2.209-1.791-4-4-4h-2v2c0 1.617.964 3.001 2.346 3.632-.213.412-.346.873-.346 1.368v2c0 .458-.913 1.813-1.866 3.444-.661-.188-1.374-.326-2.134-.388v-1.057c0-2.209-1.791-4-4-4h-2v2c0 1.446.775 2.702 1.926 3.405-2.317.629-3.926 1.948-3.926 3.595 0 5.993 3.134 8 7 8 1.479 0 2.85-.293 3.98-.987 1.14.631 2.51.987 4.02.987 3.866 0 7-2.134 7-6 0-3.165-4-8.009-4-8.999zm-12 2c-1.104 0-2-.896-2-2 1.104 0 2 .896 2 2zm1 11c-2.762 0-5-1.012-5-6 0-.836 2.238-2 5-2s5 1.164 5 2c0 4.988-2.238 6-5 6zm5-20c1.104 0 2 .896 2 2-1.106 0-2-.895-2-2zm3 20c-.904 0-1.732-.159-2.465-.436.915-1.254 1.465-3.054 1.465-5.564 0-1.064-.721-2.012-1.882-2.717.959-1.671 1.882-3.313 1.882-4.283v-2c0-.553.447-1 1-1s1 .447 1 1v2c0 1.991 4 6.951 4 9 0 2.762-2.238 4-5 4z"/></svg>