<svg viewBox="0 0 24 24" fill="currentColor"><path d="M18.029 8.036l1.933-6.762-.017-.004c.026-.087.055-.174.055-.27 0-.553-.447-1-1-1H5c-.553 0-1 .447-1 1 0 .096.029.183.055.271l-.017.003 1.933 6.762C3.563 9.862 2 12.745 2 16c0 2.731 1.103 5.197 2.879 7 0 0 .722 1 1.121 1h12c.431 0 1.121-1 1.121-1C20.897 21.197 22 18.731 22 16c0-3.255-1.562-6.138-3.971-7.964zM17.674 2l-1.417 4.961C14.964 6.352 13.524 6 12 6s-2.964.352-4.257.961L6.326 2h11.348zm-.406 20H6.732C5.063 20.534 4 18.396 4 16c0-4.418 3.582-8 8-8s8 3.582 8 8c0 2.396-1.063 4.534-2.732 6z"/></svg>