<svg viewBox="0 0 24 24" fill="currentColor"><path d="M6 21c1.657 0 3-1.343 3-3s-1.343-3-3-3-3 1.343-3 3 1.343 3 3 3zm0-4c.553 0 1 .447 1 1s-.447 1-1 1-1-.447-1-1 .447-1 1-1zm17-3h-1V4c0-2.209-1.791-4-4-4h-6C9.791 0 8 1.791 8 4v3H1c-.553 0-1 .447-1 1v15c0 .553.447 1 1 1h10c.553 0 1-.447 1-1V8c0-.553-.447-1-1-1h-1V5h4c1.104 0 2 .896 2 2v11c0 .553.447 1 1 1 0 .553.447 1 1 1h1c.553 0 1-.447 1-1v-1c0-.553-.447-1-1-1h-1V7c0-2.209-1.791-4-4-4h-3.723c.347-.596.985-1 1.723-1h6c1.104 0 2 .896 2 2v11c0 .553.447 1 1 1 0 .553.447 1 1 1h1c.553 0 1-.447 1-1v-1c0-.553-.447-1-1-1zm-13 8H2V9h8v13z"/></svg>