<svg viewBox="0 0 24 24" fill="currentColor"><path d="M5 18c-1.657 0-3 1.343-3 3s1.343 3 3 3 3-1.343 3-3-1.343-3-3-3zm0 4c-.553 0-1-.447-1-1s.447-1 1-1 1 .447 1 1-.447 1-1 1zM20 9l-6-1c-1.104 0-2-.896-2-2l-1-5c0-.553-.448-1-1-1-.982 0-1 1-1 1 0 .553-.448 1-1 1H1c-.553 0-1 .447-1 1v13c0 .553.447 1 1 1h22c.553 0 1-.447 1-1v-3c0-2.209-1.791-4-4-4zm2 6H2V4h6c.556 0 1.069-.161 1.515-.425L10 6H8c-.553 0-1 .447-1 1s.447 1 1 1h2.555c.185.316.414.6.674.854l-1.061 1.591S10 10.591 10 11c0 .553.447 1 1 1 .347 0 .638-.188.816-.455l1.146-1.687c.331.09.678.142 1.038.142l6 1c1.104 0 2 .896 2 2v2zm-3 3c-1.657 0-3 1.343-3 3s1.343 3 3 3 3-1.343 3-3-1.343-3-3-3zm0 4c-.553 0-1-.447-1-1s.447-1 1-1 1 .447 1 1-.447 1-1 1z"/></svg>