<svg viewBox="0 0 24 24" fill="currentColor"><path d="M12 0C5.372 0 0 5.373 0 12s5.372 12 12 12c6.627 0 12-5.373 12-12S18.627 0 12 0zm7.447 5.343c1.374 1.535 2.287 3.491 2.502 5.657h-2.331l-1.5-3 1.329-2.657zM9.75 2.264L9.382 3H7.663c.659-.318 1.357-.568 2.087-.736zM2.431 14.901C2.152 13.983 2 13.01 2 12s.152-1.983.431-2.901L3.882 12l-1.451 2.901zM7.663 21h1.719l.368.736c-.73-.168-1.428-.418-2.087-.736zm1.719-2H5.618l-1.5-3 1.5-3h3.764l1.5 3-1.5 3zm0-8H5.618l-1.5-3 1.5-3h3.764l1.5 3-1.5 3zm2.733 10.994L11.118 20l1.5-3h3.764l1.527 3.055c-1.628 1.196-3.625 1.915-5.794 1.939zM11.118 12l1.5-3h3.764l1.5 3-1.5 3h-3.764l-1.5-3zm5.264-5h-3.764l-1.5-3 .997-1.994c2.169.024 4.166.743 5.794 1.939L16.382 7zm3.065 11.657L18.118 16l1.5-3h2.331c-.215 2.166-1.128 4.122-2.502 5.657z"/></svg>