<svg viewBox="0 0 24 24" fill="currentColor"><path d="M18 12.101V5c0-.553-.447-1-1-1s-1 .447-1 1v1c-2.282-.463-4-2.581-4-5 0-.553-.447-1-1-1-3.494 0-7.195 3.65-7.878 5.479L.4 8.2S0 8.373 0 9c0 .453.207.609.207.609L10.221 23.6c.182.237.456.4.779.4h12c.553 0 1-.447 1-1v-4c0-3.523-2.612-6.41-6-6.899zm-7.888-9.989C10.596 5.118 12.979 7.563 16 8v1h-1c-.553 0-1 .447-1 1s.447 1 1 1h1v1h-1c-.553 0-1 .447-1 1s.447 1 1 1h2c2.419 0 4.436 1.718 4.899 4h-8.376L5.124 5.867c.886-.929 2.73-3.239 4.988-3.755zM22 22H11.514L2.3 9.101l1.555-1.555 8.313 12.009S12.34 20 13 20h9v2z"/></svg>