<svg viewBox="0 0 24 24" fill="currentColor"><path d="M9 16c.553 0 1-.447 1-1s-.447-1-1-1-1 .447-1 1 .447 1 1 1zM4 5h1.246l1.584 5.544C5.16 11.359 4 13.021 4 15c0 2.762 2.238 5 5 5h8c1.657 0 3-1.343 3-3 0-1.037-.78-2.094-1.935-3.063l3.891-12.643-.015-.004c.03-.094.059-.187.059-.29 0-.553-.447-1-1-1h-4c-.553 0-1 .447-1 1s.447 1 1 1h2.646L16.35 12.713C13.774 11.128 10.524 10 9 10c-.081.002-.157.023-.237.028L7.326 5H8c.553 0 1-.447 1-1s-.447-1-1-1H4c-.553 0-1 .447-1 1s.447 1 1 1zm5.125 7C10.831 12 18 14.969 18 17c0 .4-.527 1-1 1H9.125C7.399 18 6 16.657 6 15s1.399-2.959 3.125-3zM21 20c-.553 0-1 .447-1 1H4c0-.553-.447-1-1-1s-1 .447-1 1v2c0 .553.447 1 1 1s1-.447 1-1h16c0 .553.447 1 1 1s1-.447 1-1v-2c0-.553-.447-1-1-1z"/></svg>