<svg viewBox="0 0 24 24" fill="currentColor"><path d="M1 16s2.075-1 5-1c1.483 0 3.91 2 6 2 2.102 0 4.502-2 6-2 2.896 0 5 1 5 1 .553 0 1-.447 1-1s-.447-1-1-1c0 0-2.073-1-5-1-.861 0-1.943.468-3 .95V4h2c.553 0 1-.447 1-1s-.447-1-1-1h-2c-1.104 0-2 .896-2 2v2H7V4h2c.553 0 1-.447 1-1s-.447-1-1-1H7c-1.104 0-2 .896-2 2v9.041C2.635 13.227 1 14 1 14c-.553 0-1 .447-1 1s.447 1 1 1zm6-8h6v2H7V8zm0 4h6v2.789c-.366.121-.711.211-1 .211-1.313 0-3.324-1.355-5-1.828V12zm16 7s-2.073-1-5-1c-1.783 0-4.513 2-6 2-1.587 0-4.2-2-6-2-2.894 0-5 1-5 1-.553 0-1 .447-1 1s.447 1 1 1c0 0 2.075-1 5-1 1.483 0 3.91 2 6 2 2.102 0 4.502-2 6-2 2.896 0 5 1 5 1 .553 0 1-.447 1-1s-.447-1-1-1z"/></svg>