<svg viewBox="0 0 23.999 24" fill="currentColor"><path d="M22.142 1.858c-2.732-2.731-7.478-2.416-10.601.707C9.707 4.4 8.869 6.792 9.022 9.01c0 0-.015 2.183-1.719 6.277-.005.005-.007.012-.012.017l-.005-.005-6.995 6.995c-.179.18-.291.43-.291.706 0 .553.446 1 .999 1 .276 0 .526-.112.706-.292l6.979-6.979c4.141-1.645 6.305-1.751 6.305-1.751 2.218.153 4.609-.685 6.444-2.52 1.706-1.705 2.574-3.895 2.565-5.977-.006-1.73-.617-3.383-1.856-4.623zM9.64 14.397c.224-.591.451-1.242.659-1.908.173.229.329.468.536.676.22.219.469.385.712.565-.661.214-1.314.447-1.907.667zm10.381-3.353c-2.341 2.342-5.821 2.659-7.771.707-1.953-1.951-1.637-5.431.705-7.772 2.342-2.342 5.821-2.658 7.772-.707.853.852 1.273 1.996 1.28 3.209.01 1.564-.667 3.245-1.986 4.563zm-5.032-7.03c-.553 0-.999.447-.999.999s.446 1 .999 1c.552 0 .999-.447.999-1s-.447-.999-.999-.999zm2.998-.999c-.553 0-1 .447-1 1 0 .552.447.999 1 .999.552 0 .999-.447.999-.999 0-.554-.447-1-.999-1zm0 2.998c-.553 0-1 .447-1 .999s.447 1 1 1c.552 0 .999-.447.999-1s-.447-.999-.999-.999z"/></svg>