<svg viewBox="0 0 24 24" fill="currentColor"><path d="M17 3c0-.553-.447-1-1-1h-3V1c0-.553-.447-1-1-1s-1 .447-1 1v1H8c-.553 0-1 .447-1 1 0 0-1 .018-1 1v3c0 .553.447 1 1 1v4c.553 0 1 .447 1 1s-.447 1-1 1v9c0 .553.447 1 1 1h8c.553 0 1-.447 1-1v-9c-.553 0-1-.447-1-1s.447-1 1-1V8c.553 0 1-.447 1-1V4c0-.982-1-1-1-1zm-2 19H9v-3h6v3zm0-11.222c-.609.55-1 1.337-1 2.222s.391 1.672 1 2.222V17H9v-1.778c.609-.55 1-1.337 1-2.222s-.391-1.672-1-2.222V8h6v2.778zM15 6H9c-.553 0-1-.447-1-1s.447-1 1-1h6c.553 0 1 .447 1 1s-.447 1-1 1z"/></svg>