<svg viewBox="0 0 24 24" fill="currentColor"><path d="M23.088-.088h-3c-12.702 0-20 7.298-20 20v3c0 .553.447 1 1 1h3c12.702 0 20-7.298 20-20v-3c0-.553-.447-1-1-1zm-19 22h-2v-2c0-.855.046-1.673.115-2.471l4.355 4.354c-.797.071-1.615.117-2.47.117zm4.949-.465l-6.484-6.484C3.895 8.047 8.223 3.719 15.139 2.377l6.484 6.484c-1.342 6.916-5.67 11.244-12.586 12.586zM22.088 3.912c0 .855-.046 1.673-.115 2.471l-4.354-4.355c.798-.069 1.614-.115 2.471-.115h2l-.002 1.999zm-9 2c-.553 0-1 .447-1 1 0 .276.112.526.293.707l1.293 1.293-1.586 1.586-2.293-2.293c-.181-.181-.431-.293-.707-.293-.553 0-1 .447-1 1 0 .276.112.526.293.707l2.293 2.293-1.586 1.586-1.293-1.293c-.181-.181-.431-.293-.707-.293-.553 0-1 .447-1 1 0 .275.112.525.293.707l4 4c.181.181.431.293.707.293.553 0 1-.447 1-1 0-.276-.112-.526-.293-.707l-1.293-1.293 1.586-1.586 2.293 2.293c.182.181.432.293.707.293.553 0 1-.447 1-1 0-.276-.111-.526-.293-.707l-2.293-2.293 1.586-1.586 1.293 1.293c.182.181.432.293.707.293.553 0 1-.447 1-1 0-.276-.111-.526-.293-.707l-4-4c-.182-.181-.432-.293-.707-.293z"/></svg>