<svg viewBox="0 0 24 24" fill="currentColor"><path d="M23 4h-3V1c0-.553-.447-1-1-1-.546 0-.707.293-.707.293l-5 5C13.111 5.474 13 5.724 13 6v3.586l-4.707 4.707C8.112 14.475 8 14.725 8 15c0 .553.447 1 1 1 .276 0 .526-.111.707-.293L14.414 11H18c.275 0 .525-.112.707-.293l5-5C23.889 5.526 24 5.276 24 5c0-.553-.447-1-1-1zm-5.414 5H15V6.414l3-3V5c0 .553.447 1 1 1h1.586l-3 3zm-1.708 4.779c.077.396.122.802.122 1.221 0 3.866-3.134 7-7 7s-7-3.134-7-7 3.134-7 7-7c.419 0 .825.045 1.221.122l1.643-1.643C10.964 6.174 10.004 6 9 6c-4.971 0-9 4.029-9 9s4.029 9 9 9 9-4.029 9-9c0-1.004-.174-1.964-.479-2.863l-1.643 1.642zm-6.19-3.71C9.461 10.038 9.235 10 9 10c-2.762 0-5 2.238-5 5s2.238 5 5 5 5-2.238 5-5c0-.234-.038-.461-.068-.688l-2.811 2.81C10.578 17.664 9.828 18 9 18c-1.657 0-3-1.343-3-3 0-.828.336-1.578.879-2.121l2.809-2.81z"/></svg>