<svg viewBox="0 0 24 24" fill="currentColor"><path d="M14 0c-.552 0-1 .447-1 1v10H9.535L7.832 8.445l-.015.01C7.637 8.188 7.347 8 7 8H1c-.552 0-1 .447-1 1 0 .205.077.386.183.545l-.015.01L1.798 12l-1.63 2.445.015.01C.077 14.614 0 14.795 0 15c0 .553.448 1 1 1h6c.347 0 .637-.188.817-.455l.015.01L9.535 13H13v10c0 .553.448 1 1 1 4.87 0 10-5.373 10-12S18.87 0 14 0zM6.465 14H2.869l.963-1.445-.015-.01c.106-.159.183-.34.183-.545s-.077-.386-.183-.545l.015-.01L2.869 10h3.596l1.333 2-1.333 2zM15 21.85V13h2c0 .553.448 1 1 1 .275 0 .525-.111.707-.293l1-1c.182-.182.293-.431.293-.707s-.111-.526-.293-.707l-1-1C18.525 10.112 18.275 10 18 10c-.552 0-1 .447-1 1h-2V2.15c2.625.155 7 4.897 7 9.85s-4.326 9.496-7 9.85z"/></svg>