<svg viewBox="0 0 24 24" fill="currentColor"><path d="M21.65 2.349c-3.504-3.506-9.505-3.19-13.399.706-3.028 3.028-3.865 7.317-2.45 10.727l-5.42 5.42c-.181.182-.293.432-.293.708 0 .275.112.525.293.708l3.002 3.002c.181.181.431.293.708.293.277 0 .527-.112.708-.293l5.42-5.42c3.411 1.415 7.699.577 10.729-2.45 2.082-2.082 3.142-4.765 3.142-7.348-.003-2.25-.806-4.422-2.44-6.053zm-10.793 13.93c-.183-.159-.451-.373-.762-.373-.276 0-.527.111-.708.293L4.09 21.496l-1.587-1.587L7.8 14.611c.181-.18.293-.43.293-.707 0-.313-.276-.61-.375-.762-.452-.885-.645-1.854-.642-2.843l6.596 6.597c-1.006.011-1.977-.173-2.815-.617zm8.679-1.94c-1.007 1.007-2.21 1.718-3.453 2.138L7.497 7.89c.428-1.228 1.151-2.412 2.165-3.425 3.117-3.117 7.854-3.432 10.58-.706s2.41 7.463-.706 10.58z"/></svg>