<svg viewBox="0 0 24 24" fill="currentColor"><path d="M12 0C5.372 0 0 5.373 0 12c0 .553.447 1 1 1h10v3H1c-.553 0-1 .447-1 1s.447 1 1 1h2v2H1c-.553 0-1 .447-1 1s.447 1 1 1h10.184c.413 1.162 1.511 2 2.816 2 1.657 0 3-1.343 3-3v-4h5c-.029 0 .628-.141.923-.615 0 0 1.077-1.773 1.077-4.385 0-6.627-5.373-12-12-12zM7 20H5v-2h2v2zm4 0H9v-2h2v2zm10.354-5H16c-.553 0-1 .447-1 1v5c0 .553-.447 1-1 1s-1-.447-1-1v-9c0-.553-.447-1-1-1H2.051C2.553 5.947 6.814 2 12 2c5.521 0 10 4.478 10 10 0 1.118-.277 2.049-.646 3zM16 11c-.553 0-1 .447-1 1 0 .553.447 1 1 1s1-.447 1-1c0-.553-.447-1-1-1z"/></svg>