<svg viewBox="0 0 24 24" fill="currentColor"><path d="M14 5.912c-1.227-3.644-10-5-10 2 .015 1.449.262 2.773.643 4H1c-.553 0-1 .447-1 1 0 .553.447 1 1 1h4.415c2.566 5.301 7.802 8 8.585 8 .945 0 10-4.503 10-14 0-7-8.926-5.643-10-2zm0 14c-.27 0-4.519-2.803-6.71-7.053l1.597-2.13 3.245 5.679.014-.008c.173.301.483.512.854.512.316 0 .586-.156.77-.385l.013.01 3.146-3.934 2.172 2.772c-2.212 2.816-4.906 4.537-5.101 4.537zm6.295-6.271l-2.463-3.283-.016.01c-.177-.268-.468-.456-.816-.456-.316 0-.586.156-.77.385l-.013-.01-3.079 3.852-3.27-5.723-.014.008c-.172-.301-.483-.512-.854-.512-.327 0-.604.167-.786.41L8.2 8.313l-1.781 2.374C6.161 9.801 6 8.877 6 7.912c0-5.199 6.755-2.85 8 1 1.232-3.85 8-6.199 8-1 0 2.121-.712 4.057-1.705 5.729z"/></svg>