<svg viewBox="0 0 24 24" fill="currentColor"><path d="M8 11v-1c0-.553-.398-1-.889-1H.889C.398 9 0 9.447 0 10v1c0 .553.398 1 .889 1h6.223c.49 0 .888-.447.888-1zm16-8c0-.391-.23-.721-.559-.886l.006-.009-3-2-.006.009C20.309.047 20.161 0 20 0c-.398 0-.738.238-.898.577l-.006-.003-.013.03c-.002.005-.004.009-.006.014L12.36 16.932l-9.236-.924-.002.018C3.08 16.02 3.043 16 3 16c-.553 0-1 .447-1 1v6c0 .553.447 1 1 1h12c.421 0 .777-.262.925-.63l.005.001L23.921 3.39l.001-.001.008-.018-.005-.001c.048-.115.075-.239.075-.37zm-9.677 19H4v-3.896l8.876.889.002-.018c.042.005.079.025.122.025.398 0 .738-.238.898-.577l.006.003.013-.029c.002-.006.004-.01.006-.015l6.539-15.881 1.312.874L14.323 22z"/></svg>