<svg viewBox="0 0 24 24" fill="currentColor"><path d="M24 9c0-4.971-4.029-9-9-9H1C.447 0 0 .447 0 1v1c0 .553.447 1 1 1h8c.553 0 1-.447 1-1h5c3.866 0 7 3.134 7 7 0 .11-.012.218-.017.327C20.333 7.298 17.819 6 15 6c-3.313 0-6 2.687-6 6s2.687 6 6 6c2.819 0 5.333-1.298 6.983-3.327.005.109.017.217.017.327 0 3.866-3.134 7-7 7h-5c0-.553-.447-1-1-1H1c-.553 0-1 .447-1 1v1c0 .553.447 1 1 1h14c4.971 0 9-4.029 9-9 0-1.054-.19-2.061-.523-3 .333-.939.523-1.946.523-3zm-9 7c-2.209 0-4-1.791-4-4s1.791-4 4-4c2.791 0 5.193 1.637 6.317 4-1.124 2.362-3.526 4-6.317 4z"/></svg>