<svg viewBox="0 0 24 24" fill="currentColor"><path d="M23 10h-2c-.763 0-1.497.109-2.21.272.122-.387.21-.799.21-1.272V7c0-.553-.447-1-1-1h-2c-.16 0-.31.032-.467.045L12.8 2.4l-.014.01C12.604 2.167 12.327 2 12 2s-.604.167-.786.41L11.2 2.4 8.466 6.045C8.31 6.032 8.16 6 8 6H6c-.553 0-1 .447-1 1v2c0 .458.067.87.165 1.262C4.465 10.106 3.747 10 3 10H1c-.553 0-1 .447-1 1v1c0 5.522 4.478 10 10 10h4c5.522 0 10-4.478 10-10v-1c0-.553-.447-1-1-1zM12 4.667l1.454 1.938c-.527.255-1.023.564-1.454.953-.431-.389-.927-.697-1.454-.952L12 4.667zM10 20c-4.418 0-8-3.582-8-8h1c4.418 0 8 3.582 8 8h-1zm-2.384-8.843C7.232 10.518 7 9.776 7 9V8h1c2.209 0 4 1.791 4 4 0 .553.447 1 1 1s1-.447 1-1c0-1.05-.293-2.021-.767-2.879C13.952 8.43 14.924 8 16 8h1v1c0 .776-.232 1.518-.616 2.157-1.898.997-3.448 2.569-4.384 4.506-.936-1.936-2.485-3.509-4.384-4.506zM14 20h-1c0-4.418 3.582-8 8-8h1c0 4.418-3.582 8-8 8z"/></svg>