<svg viewBox="0 0 24 24" fill="currentColor"><path d="M24 5c0-.445-.2-.6-.2-.6l-3-4S20.627 0 20 0H4c-.627 0-.8.4-.8.4l-3 4S0 4.555 0 5c0 .346.119.474.119.474L7.063 18.37c-.026.209-.063.414-.063.63 0 2.762 2.238 5 5 5s5-2.238 5-5c0-.216-.037-.421-.063-.63l6.932-12.902C23.945 5.326 24 5.172 24 5zM4.5 2h15L21 4H3l1.5-2zm12.306 4l-4.423 8.046c-.129-.01-.251-.046-.383-.046-.133 0-.255.036-.385.046L7.173 6h9.633zm-8.761 9.974L2.674 6h2.215l4.756 8.615c-.622.34-1.171.798-1.6 1.359zM12 22c-1.657 0-3-1.343-3-3s1.343-3 3-3 3 1.343 3 3-1.343 3-3 3zm3.955-6.026c-.43-.561-.979-1.02-1.602-1.36L19.088 6h2.238l-5.371 9.974z"/></svg>