<svg viewBox="0 0 24 24" fill="currentColor"><path d="M10 11c-1.657 0-3 1.343-3 3v3c0 1.657 1.343 3 3 3s3-1.343 3-3v-3c0-1.657-1.343-3-3-3zm1 6c0 .553-.447 1-1 1s-1-.447-1-1v-3c0-.553.447-1 1-1s1 .447 1 1v3zm5-6c-.553 0-1 .447-1 1v7c0 .553.447 1 1 1s1-.447 1-1v-7c0-.553-.447-1-1-1zm7-2c-.553 0-1-.447-1-1V1c0-.553-.447-1-1-1h-4c-.553 0-1 .447-1 1v2c0 2.209-1.791 4-4 4S8 5.209 8 3V1c0-.553-.447-1-1-1H3c-.553 0-1 .447-1 1v7c0 .553-.447 1-1 1s-1 .447-1 1v10c0 2.209 5.373 4 12 4s12-1.791 12-4V10c0-.553-.447-1-1-1zm-1 11c0 .292-4.478 2-10 2S2 20.229 2 20v-9.184C3.162 10.403 4 9.305 4 8V2h2v1c0 3.313 2.687 6 6 6s6-2.687 6-6V2h2v6c0 1.305.838 2.403 2 2.816V20z"/></svg>