<svg viewBox="0 0 24 24" fill="currentColor"><path d="M23 5H8c-.84 0-1.648.131-2.408.37-.117-.129-.26-.281-.471-.491-1.172-1.172-3.071-1.172-4.242 0C-.293 6.05-.293 7.95.879 9.121c.032.032.048.055.077.085C.347 10.335 0 11.627 0 13c0 4.418 3.582 8 8 8s8-3.582 8-8v-1c0-.414.252-.77.61-.922.12-.05.252-.078.39-.078h6c.553 0 1-.447 1-1V6c0-.553-.447-1-1-1zM2.293 6.293c.382-.382.994-.385 1.386-.019-.553.356-1.057.778-1.504 1.254-.247-.386-.22-.897.118-1.235zM22 9h-5c-1.657 0-3 1.343-3 3v1c0 3.313-2.687 6-6 6s-6-2.687-6-6 2.687-6 6-6h2v3c0 .553.447 1 1 1s1-.447 1-1V7h10v2z"/></svg>