<svg viewBox="0 0 24 24" fill="currentColor"><path d="M15 4c1.104 0 2-.896 2-2s-.896-2-2-2-2 .896-2 2 .896 2 2 2zm1 10h-5.213l3.136-7.62c.049-.117.077-.245.077-.38 0-.553-.447-1-1-1H8c-.689 0-.857.485-.857.485l-2 4S5 9.624 5 10c0 .553.447 1 1 1 .363 0 .668-.204.843-.494L8.614 7h2.893L5.079 22.609c0 .001-.001.002-.001.003l-.003.007S5 22.723 5 23c0 .553.447 1 1 1 .417 0 .773-.257.923-.62l3.044-7.387c.012.001.021.007.033.007h4.78l-.741 3.808c-.014.064-.039.124-.039.192 0 .553.447 1 1 1 .873 0 .98-.804.98-.804l.98-5.004c.015-.064.04-.124.04-.192 0-.553-.447-1-1-1zm2-5h-3c-.553 0-1 .447-1 1s.447 1 1 1h3c.553 0 1-.447 1-1s-.447-1-1-1z"/></svg>