<svg viewBox="0 0 24 24" fill="currentColor"><path d="M19 8h-2.734l-6.77-3.868S9.362 4 9 4c-.553 0-1 .447-1 1s-.447 1-1 1H0v13c0 .553.447 1 1 1h22c.553 0 1-.447 1-1v-6c0-2.762-2.238-5-5-5zm3 10H2v-2h20v2zm0-4H2v-2h3c.553 0 1-.447 1-1s-.447-1-1-1H2V8h5c1.112 0 2.072-.612 2.59-1.511l.427.242-.912 1.822.009.005C9.047 8.692 9 8.839 9 9c0 .553.447 1 1 1 .391 0 .721-.23.886-.558l.009.005.863-1.727.984.56-.637 1.272.009.005c-.067.135-.114.282-.114.443 0 .553.447 1 1 1 .391 0 .721-.23.886-.558l.009.005.589-1.178 1.028.585c.146.084.307.146.488.146h3c1.657 0 3 1.343 3 3v1z"/></svg>