<svg viewBox="0 0 24 24" fill="currentColor"><path d="M20 14c-1.104 0-2 .896-2 2 0 .238.049.464.125.677C16.933 19.835 14.738 22 13 22c-1.708 0-3.815-2.014-5.023-5H9c.553 0 1.156-.572 1-1 0 0-1-2-1-4s1-4 1-4c.188-.365-.447-1-1-1H7.958C9.147 4.014 11.234 2 13 2c1.711 0 3.92 2.171 5.122 5.336-.074.209-.122.43-.122.664 0 1.104.896 2 2 2s2-.896 2-2-.896-2-2-2c-.032 0-.063.008-.094.01C18.524 2.426 15.959 0 13 0 9.772 0 6.999 2.872 5.734 7H5c-.553 0-.812.635-1 1 0 0-1 2.021-1 4.031C3 14.021 4 16 4 16c.188.365.447 1 1 1h.734c1.265 4.128 4.038 7 7.266 7 2.959 0 5.524-2.426 6.906-6.01.032.002.062.01.094.01 1.104 0 2-.896 2-2s-.896-2-2-2zM7.313 14c.094.49-.447 1-1 1s-.844-.541-1-1c0 0-.313-.979-.313-1.969 0-1.01.313-2.031.313-2.031.156-.521.447-1 1-1s1.125.604 1 1c0 0-.313.979-.313 1.969 0 1.01.313 2.031.313 2.031z"/></svg>