<svg viewBox="0 0 24 24" fill="currentColor"><path d="M12 0C5.373 0 0 5.373 0 12s5.373 12 12 12 12-5.373 12-12S18.627 0 12 0zM2 12c0-2.532.948-4.837 2.5-6.599C6.053 7.161 7 9.468 7 12s-.947 4.839-2.5 6.599C2.948 16.837 2 14.532 2 12zm10 10c-2.272 0-4.361-.767-6.04-2.044C7.845 17.838 9 15.059 9 12S7.845 6.162 5.96 4.044C7.639 2.767 9.728 2 12 2s4.361.767 6.04 2.044C16.155 6.162 15 8.941 15 12s1.155 5.838 3.04 7.956C16.361 21.233 14.272 22 12 22zm7.5-3.401C17.947 16.839 17 14.532 17 12s.947-4.839 2.5-6.599C21.051 7.163 22 9.468 22 12s-.949 4.837-2.5 6.599z"/></svg>