<svg viewBox="0 0 24 24" fill="currentColor"><path d="M15 8c-.689 0-.857.485-.857.485l-2.111 3.518c-.011 0-.021-.003-.032-.003-1.104 0-2 .896-2 2s.896 2 2 2 2-.896 2-2c0-.351-.098-.676-.257-.962l2.114-3.523S16 9.376 16 9c0-.553-.448-1-1-1zm6.707-1.293S22 6.546 22 6c0-.553-.448-1-1-1-.276 0-.526.112-.707.293l-1.439 1.438C17.768 5.707 16.459 4.918 15 4.459V1c0-.553-.448-1-1-1h-4c-.552 0-1 .447-1 1v3.459C4.943 5.733 2 9.522 2 14c0 5.522 4.477 10 10 10s10-4.478 10-10c0-2.145-.681-4.127-1.831-5.755l1.538-1.538zM11 2h2v2.051C12.671 4.018 12.337 4 12 4c-.338 0-.671.018-1 .051V2zm1 20c-4.418 0-8-3.582-8-8s3.582-8 8-8 8 3.582 8 8-3.582 8-8 8z"/></svg>