<svg viewBox="0 0 24 24" fill="currentColor"><path d="M17 16h-1c-.271 0-.563.26-.563.469s.26.531.563.531c0 .553-.447 1-1 1s-1-.447-1-1 .447-1 1-1 1-.447 1-1-.447-1-1-1c-1.657 0-3 1.343-3 3s1.343 3 3 3 3-1.343 3-3c0-.553-.447-1-1-1zm4.986 6.935L19.998 7.934l-.012.001C19.951 7.414 19.529 7 19 7h-2V5c0-2.762-2.238-5-5-5S7 2.238 7 5v2H5c-.529 0-.951.414-.986.935l-.012-.001-1.988 15.001C2.012 22.957 2 22.977 2 23c0 .553.447 1 1 1h18c.553 0 1-.447 1-1 0-.023-.012-.043-.014-.065zM9 5c0-1.657 1.343-3 3-3s3 1.343 3 3v2H9V5zM4.14 22L5.873 9h12.254l1.733 13H4.14zM10 14c-.316 0-.586.156-.77.385l-.012-.01L8 16.001V15c0-.553-.447-1-1-1s-1 .447-1 1v4c0 .553.447 1 1 1 .316 0 .586-.156.77-.385l.012.01.617-.825.801.8.014-.01c.182.243.459.41.786.41.553 0 1-.447 1-1 0-.226-.088-.423-.214-.59l.014-.01-.063-.063c-.023-.026-.047-.05-.073-.073L9.6 17.199l1.182-1.574-.013-.01c.137-.171.231-.379.231-.615 0-.553-.447-1-1-1z"/></svg>