<svg viewBox="0 0 24 24" fill="currentColor"><path d="M16.515 22.143l-.627-.376-1.944 1.166 1.551.91c.15.091.317.157.505.157.553 0 1-.447 1-1 0-.689-.485-.857-.485-.857zM12 4c1.104 0 2-.896 2-2s-.896-2-2-2-2 .896-2 2 .896 2 2 2zm6 12H6c-.553 0-1 .447-1 1 0 .363.204.668.494.843l-.009.015 2.627 1.576 1.944-1.166L9.61 18h4.779l-6.904 4.143.009.015c-.29.174-.494.479-.494.842 0 .553.447 1 1 1 .188 0 .355-.066.506-.157l.009.015 10-6-.009-.015c.29-.175.494-.48.494-.843 0-.553-.447-1-1-1zm4.707-.707l-3.908-2.932-2.904-5.809-.009.005C15.721 6.23 15.391 6 15 6H9c-.391 0-.721.23-.886.558l-.009-.005-2.904 5.809-3.908 2.932c-.181.18-.293.43-.293.706 0 .553.447 1 1 1 .276 0 .526-.112.707-.293l3.813-2.859c.011-.007.019-.015.029-.021l.158-.119-.01-.01c.074-.075.14-.159.188-.255l.009.005L8 11.236V13c0 .553.447 1 1 1s1-.447 1-1V8h4v5c0 .553.447 1 1 1s1-.447 1-1v-1.764l1.105 2.211.009-.005c.049.096.114.18.188.255l-.009.01.158.119c.01.007.019.015.029.021l3.813 2.859c.181.182.431.294.707.294.553 0 1-.447 1-1 0-.276-.112-.526-.293-.707z"/></svg>