<svg xmlns="http://www.w3.org/2000/svg" fill="currentColor" viewBox="0 0 40 25">
  <path d="M39.9998 5.84832c.0351-.62566-.0579-1.2519-.2731-1.84041-.2153-.5885-.5484-1.12689-.979-1.58223-.4305-.45533-.9494-.81804-1.5249-1.06593-.5755-.24789-1.1956-.375741-1.8222-.375741-.6267 0-1.2467.127851-1.8223.375741-.5755.24789-1.0944.6106-1.5249 1.06593-.4306.45534-.7637.99373-.979 1.58223-.2152.58851-.3082 1.21475-.2731 1.84041.0067.35017.0503.69865.1299 1.03971-.8953.20217-1.8483.44766-2.888.72202-1.834.5343-3.6102 1.05416-4.9387 1.63177-1.3285.57762-2.0072.90978-2.166 1.22748-.043.1214-.043.2539 0 .3754v.0867c.6931 1.444 3.4801 7.8411 4.8808 11.2491.3755.9097.621 1.444.6643 1.6317.1002.2815.2733.5314.5016.7242.2283.1928.5037.3216.798.3733h.3177c1.5575-.163 3.0955-.4774 4.5921-.9386 1.5878-.3786 3.1246-.9458 4.5776-1.6896.2369-.1958.4159-.4527.5177-.7427.1018-.2901.1225-.6025.0599-.9035 0-.1299-.13-.7798-.2888-1.7473-.361-2.2816-.8664-5.8483-1.2419-8.592 1.0337-.2006 1.9659-.75358 2.6374-1.56466.6715-.81109 1.0408-1.83003 1.0449-2.88302zM36.7363 19.0324c.1588.9675.2599 1.6029.2744 1.7329.0406.1476.0377.3039-.0084.4499-.0461.1461-.1335.2757-.2516.3732-1.3762.6918-2.8307 1.2154-4.3321 1.5596-1.4555.459-2.9564.7592-4.4765.8953-.1515-.0261-.2926-.094-.4074-.196-.1149-.1021-.1988-.2343-.2425-.3816 0-.1156-.2888-.7221-.6642-1.6174-1.1986-2.8881-3.509-8.2166-4.5632-10.5559h.2455c.097.0955.1668.2151.2022.3465.1274.0194.2577-.0024.372-.0621.1142-.0597.2065-.1543.2633-.27l.3033.3033h.6209l1.4441-.6499.7653-.3465 1.6607-.5055.7942-.21656.3466-.10108c.6965-.04805 1.3924.10215 2.0072.43324.1-.47562.3357-.91202.6787-1.25635l.5632-.18772c.3754 0 .7509.21661.7653.57762.0988-.28872.2681-.54822.4925-.75498.2244-.20677.4969-.35427.7927-.42914.2455 0 .5199-.08664.7653-.15884.3755 2.68591 1.1264 8.11551 1.5885 11.01801zm-.3899-9.083c-.2022-1.44404-.3466-2.6426-.4043-3.19133v-.10108c-.0376-.12964-.1193-.24204-.2311-.31769-.3288-.15356-.6978-.19905-1.0541-.12997 0-.11552 0-.20216-.2311-.23105l-2.2816-.30325c-.1008.00374-.1963.04647-.2664.11918-.07.07272-.1091.16977-.109.27072-.0159.20667-.0159.41426 0 .62094l-.5054.11552c-.0757-.31207-.1145-.63195-.1156-.95307-.0074-.80104.212-1.58784.6328-2.26949.4208-.68165 1.0259-1.23033 1.7453-1.58265.7195-.35232 1.5239-.4939 2.3204-.40839.7965.08551 1.5526.39462 2.1808.89163.6283.49701 1.1031 1.16162 1.3697 1.91706.2665.75544.3139 1.57088.1366 2.35209-.1773.78122-.572 1.49633-1.1385 2.06273-.5665.5664-1.2817.96096-2.0629 1.1381h.0144z"/>
  <path d="M37.0974 2.77256c-.3099-.18416-.6458-.32047-.9964-.40434-.3779-.0607-.763-.0607-1.1408 0-.0568.00923-.1108.0309-.1583.06347-.0474.03258-.087.07524-.116.12492-.029.04969-.0466.10518-.0516.16249-.005.05731.0027.11501.0226.16898l.7509 2.1805c.0867.23105.2744.25993.4188 0l1.4441-1.81949c.0326-.08705.0331-.1829.0014-.27028-.0318-.08738-.0938-.16053-.1747-.20625zM33.4439 2.96028c-.3269.19115-.6237.42959-.8809.70758-.223.30369-.3983.63971-.5198.99639-.02.05397-.0277.11167-.0227.16898.005.05731.0227.11279.0517.16248.0289.04969.0686.09235.116.12493.0474.03257.1014.05424.1582.06347l2.2672.43321c.2454 0 .361-.10108.2743-.33213l-.8664-2.12275c-.0213-.05401-.054-.1028-.0959-.14305-.0418-.04025-.0918-.07101-.1466-.0902-.0549-.01918-.1131-.02633-.171-.02097-.0578.00537-.1138.02312-.1641.05206zM38.9027 4.72195c-.1482-.35333-.353-.68013-.6065-.96751-.0366-.0427-.082-.07698-.1331-.10048-.0511-.02351-.1066-.03567-.1629-.03567-.0562 0-.1118.01216-.1629.03567-.0511.0235-.0965.05778-.1331.10048l-1.5163 1.73285c-.1588.18773-.0866.37545.1589.40434l2.2671.31769c.0608.01198.1235.00934.183-.00771.0595-.01706.114-.04803.1592-.09036.0452-.04234.0796-.09481.1004-.15309.0209-.05828.0276-.12069.0195-.18206-.0022-.35829-.0607-.714-.1733-1.05415zM38.4548 6.67152l-2.2672-.41877c-.2455 0-.361.10108-.2599.33213l.8664 2.07942c.0207.05445.0534.10357.0956.14373.0422.04017.0929.07037.1483.08838.0554.01801.1141.02337.1719.01569.0577-.00769.113-.02821.1618-.06007.324-.18922.6163-.42797.8664-.70759.2311-.30394.4071-.64607.5199-1.01083.0106-.05026.0111-.10211.0015-.15258-.0095-.05046-.0289-.09854-.0571-.14148-.0282-.04294-.0646-.07989-.1071-.10872-.0425-.02884-.0902-.04899-.1405-.05931zM34.1517 14.1661l-.361-1.4441c-.0658-.2405-.2207-.4471-.4332-.5776-.1054-.0629-.2228-.1032-.3447-.1181-.1218-.0149-.2454-.0042-.3629.0315l-2.5126.6353c-.1618.0425-.309.128-.426.2475-.117.1196-.1994.2686-.2383.4312-1.712-.8481-3.6904-.9831-5.5018-.3754.9819 2.3682 3.0902 7.4657 3.7834 9.1841.3321.8087 8.2888-1.444 8.1588-2.3249-.2888-1.8195-.6065-3.3213-.9964-5.8628-.2493.0808-.5055.1388-.7653.1733zm-3.8267 1.0252c-.1102.0472-.21.1157-.2936.2015-.0837.0859-.1495.1874-.1938.2988-.0443.1113-.0661.2304-.0643.3502.0019.1199.0274.2381.0751.3481l.3611.852-.0867.3899c-.002.0273-.011.0536-.0262.0763-.0152.0228-.036.0413-.0604.0536-.0227.0104-.0473.0158-.0722.0158s-.0496-.0054-.0722-.0158l-2.4549-.4332c-.0257-.0016-.0506-.0089-.0731-.0214-.0225-.0125-.0419-.0299-.0569-.0508-.0148-.0519-.0148-.1069 0-.1588l.491-2.4693c-.0029-.0348.0021-.0697.0146-.1022s.0322-.0617.0576-.0856c.0227-.0104.0473-.0157.0722-.0157s.0496.0053.0722.0157l2.4693.4766c.0526.0117.099.0426.13.0866l-.2888.1877zm.2744-.9675h-.3322l-.1299-.4909c-.0173-.0328-.0259-.0694-.025-.1064.0009-.037.0112-.0731.03-.105.0189-.0318.0455-.0583.0775-.0769.032-.0187.0682-.0288.1052-.0294l2.4982-.6499c.016-.0067.0332-.0102.0505-.0102.0174 0 .0346.0035.0506.0102.0256.0126.048.0308.0655.0534.0175.0225.0297.0487.0355.0766l.3322 1.2996c-.1122-.0464-.2324-.0704-.3538-.0704-.1214 0-.2416.024-.3538.0704l-1.4441.5921c.0063-.0576.0063-.1157 0-.1733-.1383-.1962-.3438-.3349-.5776-.3899h-.0288zm3.4801 3.3069l-2.3105.9964c-.048.0197-.1018.0202-.1502.0014-.0483-.0188-.0876-.0555-.1097-.1025l-.5343-1.2708.3177-1.5884 1.6462-.7076h.1444c.0262.0057.0506.018.0708.0357.0202.0176.0356.0402.0447.0654l.9964 2.3105c.0208.0462.0235.0987.0074.1468-.016.0482-.0496.0885-.094.1131h-.0289zM19.0616 10.4693c-.1589-.3177-.722-.66426-2.1661-1.22743-1.444-.56318-3.1047-1.09748-4.9964-1.63177-.9819-.27437-1.93499-.51986-2.88806-.72202.09141-.33918.13992-.68847.14441-1.03972.01178-.8734-.22501-1.73216-.68276-2.4761-.45774-.74395-1.11756-1.34241-1.90252-1.7256-.78495-.38318-1.66267-.5353-2.53078-.43859-.86812.0967-1.69085.43824-2.37224.98476C.985765 2.73936.473811 3.46836.191 4.29479c-.2828107.82644-.324821 1.71625-.1211303 2.56566C.27356 7.70985.714555 8.48384 1.34142 9.09213c.62686.6083 1.41376 1.02587 2.2689 1.20387-.37545 2.7437-.88086 6.3105-1.24187 8.6643-.15885.9675-.25993 1.6173-.27437 1.7473-.06756.2996-.05068.6121.04874.9027.09942.2907.2775.548.51443.7435 1.45303.7437 2.98982 1.3109 4.57762 1.6895 1.49658.4612 3.03453.7756 4.59203.9386h.3177c.2943-.0516.5697-.1804.798-.3732.2283-.1928.4014-.4427.5017-.7242l.6787-1.6318c1.444-3.4079 4.1732-9.8051 4.8664-11.2491v-.0866c.0429-.1215.0429-.254 0-.3755l.0722-.0722zM.361225 5.84836c-.033717-.57738.050897-1.15557.248649-1.69908.197752-.54351.504476-1.04089.901346-1.46161.39686-.42072.87551-.75591 1.40657-.98501.53106-.2291 1.10333-.34728 1.6817-.34728s1.15064.11818 1.6817.34728c.53106.2291 1.00971.56429 1.40658.98501.39687.42072.70359.9181.90134 1.46161.19775.54351.28237 1.1217.24865 1.69908-.01991.32342-.07808.64334-.17329.95307l-.50541-.11552c.01586-.20668.01586-.41426 0-.62094.00062-.05645-.01102-.11235-.03412-.16386-.0231-.0515-.05711-.09738-.09968-.13446-.04256-.03707-.09267-.06446-.14686-.08027-.05419-.01581-.11117-.01967-.16699-.0113l-2.28159.30325c-.17329 0-.24549.11552-.23105.23105-.29519-.03227-.5937.01251-.86643.12996-.05562.03565-.10347.08217-.14069.13676-.03722.05459-.06304.11613-.07591.18093v.08664c0 .54874-.21661 1.73285-.41877 3.19134-.93787-.20031-1.77943-.71433-2.38586-1.45727C.704687 7.7348.369632 6.80734.361225 5.84836zM13.3576 21.8628c-.361.8953-.6065 1.444-.6642 1.6173-.0421.1482-.1256.2813-.2407.3836-.1151.1023-.2571.1696-.4092.194-1.5318-.154-3.0424-.4735-4.50538-.953-1.50054-.3471-2.95471-.8706-4.33213-1.5596-.11807-.0975-.20542-.2271-.25154-.3731-.04612-.1461-.04903-.3023-.00839-.45 0-.13.11553-.7653.27437-1.7328.46209-2.8881 1.213-8.3322 1.55957-11.01809.24549 0 .51985.10108.76534.15884.29582.07487.56829.22237.79271.42914.22442.20677.39369.46626.49249.75498 0-.36101.38989-.56318.76534-.57762l.56318.18773c.35598.34456.60216.78667.70758 1.27072.61528-.32954 1.31076-.47965 2.00726-.43318l.3465.10108.8376.2455 1.6173.4188.7653.3465 1.4441.6787h.6209l.3033-.3032c.0568.1157.1491.2103.2633.27.1143.0597.2446.0815.3721.0621.0407-.1291.1098-.2475.2021-.3466h.2455c-1.0541 2.4116-3.3646 7.7257-4.5632 10.6282h.0289z"/>
  <path d="M4.21678 5.18406c.1444.18772.34657.15884.41877 0l.7509-2.29603c.02274-.05276.03307-.11003.03019-.1674-.00288-.05737-.01888-.11332-.04678-.16354-.02789-.05022-.06694-.09336-.11414-.12611-.04719-.03276-.10127-.05424-.15808-.06281-.37304-.06015-.75331-.06015-1.12635 0-.38148.07184-.74781.2086-1.08303.40433-.05082.02735-.09494.06563-.12917.11209-.03423.04647-.05772.09995-.06877.15659-.01105.05664-.00939.11503.00486.17095.01425.05593.04074.10799.07755.15243l1.44405 1.8195zM5.40065 5.61734l2.25271-.43321c.05678-.00923.11082-.0309.15824-.06348.04741-.03257.08703-.07523.11602-.12492.02899-.04969.04662-.10517.05163-.16248.00501-.05731-.00272-.11501-.02264-.16898-.12149-.35668-.2968-.6927-.51986-.99639-.25713-.27799-.55397-.51643-.88086-.70758-.04924-.02885-.10421-.04654-.16103-.05183-.05682-.00528-.11411.00198-.16782.02126-.05371.01928-.10254.05011-.14302.09033-.04049.04021-.07166.08883-.09131.1424l-.86642 2.12275c-.10109.23105.02888.38989.27436.33213zM3.66784 5.9061c.24549 0 .30325-.21661.1444-.40434L2.3682 3.76891c-.03794-.04302-.08461-.07748-.13689-.10108-.05229-.0236-.109-.03581-.16636-.03581-.05736 0-.11407.01221-.16636.03581-.05228.0236-.09895.05806-.13689.10108-.25343.28738-.45828.61418-.6065.96751-.1308.33239-.208759.68321-.231044 1.03971-.010457.06782-.003481.13719.020272.20157.023753.06438.063502.12166.115502.16644.052.04477.11454.07558.18174.08952.06719.01393.13682.01053.20234-.00988l2.22383-.31768zM3.81248 6.25276l-2.26715.41877c-.05907.01067-.11503.03437-.16381.06936-.04878.035-.08915.08042-.11819.13296-.02903.05254-.046.11089-.04968.17081-.00368.05992.00604.11991.02843.17561.11993.36181.2953.70282.51986 1.01083.25013.27961.54247.51836.86642.70758.05455.03109.1158.04855.17854.05089.06274.00234.12511-.0105.18183-.03744.05671-.02694.10607-.06717.1439-.11728.03782-.05012.06299-.10862.07335-.17054l.88087-2.13718c.08664-.17329-.02888-.31769-.27437-.27437zM10.527 13.3863c-.039-.1626-.1213-.3117-.2383-.4312-.117-.1195-.2642-.2051-.42599-.2475l-2.51264-.6354c-.11746-.0356-.24109-.0463-.36294-.0314-.12186.0149-.23924.0551-.34464.1181-.20877.1346-.36244.3395-.43321.5776l-.36101 1.444c-.26075-.0439-.51693-.1115-.76534-.2021-.3899 2.5415-.70759 4.0433-.99639 5.8628-.12997.8664 7.82666 3.1336 8.15886 2.3249.7509-1.7329 2.8014-6.8303 3.7834-9.1697-1.8133-.6032-3.7918-.463-5.5018.3899zM8.47643 18.426c-.02206.047-.06135.0837-.10975.1026-.04839.0188-.10216.0183-.15018-.0015l-2.31047-.9964c-.04044-.0153-.07489-.0433-.09828-.0797-.0234-.0364-.0345-.0793-.03168-.1225l.99639-2.3104c.02372-.0476.06522-.0839.11552-.1011h.1444l1.63177.6498.31769 1.5885-.50541 1.2707zm.31769-3.8123c-.01129.0573-.01129.1161 0 .1733l-1.44405-.592c-.11216-.0465-.23238-.0704-.35379-.0704-.12141 0-.24163.0239-.35379.0704l.27437-1.1986c.00587-.0279.01802-.0541.03553-.0766.01752-.0226.03994-.0408.06555-.0534.0328-.011.06829-.011.10109 0h.10108l2.51263.6499c.02716.0065.05266.0187.07489.0356.02224.0169.04072.0383.05429.0627.01357.0244.02193.0514.02455.0792.00262.0278-.00055.0559-.00932.0824l-.11552.491h-.34657c-.12147.0131-.23906.0505-.34574.1101-.10668.0595-.20028.1399-.2752.2364zm3.88448 2.6138c-.0141.0217-.0334.0396-.056.0522-.0227.0126-.0481.0194-.074.02l-2.4404.4909c-.0227.0104-.0473.0158-.0722.0158s-.04955-.0054-.07221-.0158c-.04404-.031-.07493-.0773-.08664-.1299l-.08664-.3899.31769-.8809c.0477-.1099.0732-.2282.0751-.3481.0019-.1198-.02-.2388-.0643-.3502-.0442-.1114-.1101-.2129-.19373-.2988-.08364-.0858-.18342-.1543-.29361-.2014l-.27437-.1156c.03104-.044.07738-.0749.12997-.0866l2.49824-.5487c.0226-.0104.0472-.0158.0722-.0158.0249 0 .0495.0054.0722.0158.0404.0282.0708.0687.0866.1155l.491 2.4693c.0153.0687.005.1405-.0289.2022zM20.5344 0c-.1412.00282549-.2765.0572788-.3803.153067-.1037.095787-.1688.226272-.1829.366789l-.2599 5.978334c-.0039.07019.0061.14046.0294.20678.0233.06632.0594.12739.1064.1797.047.05232.1038.09486.1672.12518.0634.03032.1322.04783.2024.05152.1407.0002.276-.05364.3781-.15038.1022-.09674.1632-.229.1706-.36947l.2888-5.978343c.0039-.071357-.0066-.142768-.0308-.210007s-.0616-.12894-.1101-.181451c-.0484-.05251-.107-.094764-.172-.1242596C20.6762.0179639 20.6058.00182567 20.5344 0zM22.6858 7.3791c.0771.0054.1545-.006.2268-.03343.0723-.02742.1378-.07022.192-.12542l2.4115-3.03249c.089-.11339.1297-.25722.1135-.40043-.0162-.1432-.0881-.27428-.2001-.36491-.0554-.04591-.1195-.08016-.1884-.10071-.0689-.02055-.1413-.02697-.2127-.01888-.0715.00809-.1406.03053-.2032.06596-.0626.03544-.1174.08315-.1611.14027L22.267 6.49823c-.0459.05537-.0801.11943-.1007.18836-.0205.06892-.027.14129-.0189.21275.0081.07147.0306.14056.066.20315s.0831.11738.1403.16108c.096.07209.2121.11247.3321.11553zM17.5161 6.9314c.0489.0733.1156.13296.194.17337.0783.04042.1656.06026.2536.05768.1075.00229.2132-.02791.3033-.08664.1194-.07956.2028-.20271.2325-.34306.0297-.14036.0033-.28676-.0737-.40785l-2.1372-3.19133c-.0398-.05879-.0908-.10916-.1501-.14823-.0593-.03907-.1257-.06608-.1954-.07949-.1408-.02708-.2866.00289-.4054.08331-.1187.08043-.2006.20473-.2277.34555-.0271.14082.0029.28663.0833.40536l2.1228 3.19133z"/>
</svg>
