<svg viewBox="0 0 89.69 11.02" fill="currentColor"><defs><style>.cls-1{fill:#4c9c2e}</style></defs><g id="Layer_2" data-name="Layer 2"><g id="Layer_1-2" data-name="Layer 1"><g id="Title_bottom" data-name="Title bottom"><path d="M54.81 0h-10l-9.93.1a.5.5 0 00-.5.5 10.41 10.41 0 003.1 7.4 10.43 10.43 0 007.36 3h.06A10.48 10.48 0 0055.31.5a.5.5 0 00-.5-.5zM37.38 1.09h6.34l-4.45 4.45a7.48 7.48 0 01-1.89-4.45zm7 .74v6.18A7.4 7.4 0 0140 6.23zm1 6.18V1.83l4.4 4.36A7.45 7.45 0 0145.38 8zm5.09-2.52L46 1h6.34a7.55 7.55 0 01-1.87 4.49zM44.89 10a9.31 9.31 0 01-6.7-2.74A9.39 9.39 0 0135.4 1.1h1a8.46 8.46 0 002.51 5.5A8.44 8.44 0 0044.85 9a8.5 8.5 0 008.42-8h1a9.48 9.48 0 01-9.38 9zM83 2.12H59.14a.5.5 0 00-.5.5.5.5 0 00.5.5H83a.5.5 0 00.5-.5.5.5 0 00-.5-.5zM73 5.6H58.14a.5.5 0 00-.5.5.5.5 0 00.5.5H73a.5.5 0 00.5-.5.5.5 0 00-.5-.5zM63 9.08h-5.9a.5.5 0 000 1H63a.5.5 0 100-1zM85.14 2.09a.53.53 0 00-.53.53.53.53 0 101.06 0 .53.53 0 00-.53-.53zM87.15 2.09a.53.53 0 00-.53.53.53.53 0 101.06 0 .53.53 0 00-.53-.53zM89.16 2.09a.53.53 0 00-.53.53.53.53 0 00.53.53.52.52 0 00.53-.53.53.53 0 00-.53-.53zM75.14 5.57a.53.53 0 10.53.53.53.53 0 00-.53-.53zM77.15 5.57a.53.53 0 10.53.53.53.53 0 00-.53-.53zM79.16 5.57a.53.53 0 000 1.06.53.53 0 100-1.06zM65.2 9.05a.53.53 0 10.53.53.53.53 0 00-.53-.53zM67.21 9.05a.53.53 0 000 1.06.53.53 0 100-1.06zM69.23 9.05a.53.53 0 000 1.06.53.53 0 100-1.06zM31.05 2.62a.5.5 0 00-.5-.5H6.65a.5.5 0 00-.5.5.5.5 0 00.5.5h23.9a.5.5 0 00.5-.5zM32.05 6.1a.5.5 0 00-.5-.5h-14.9a.5.5 0 00-.5.5.5.5 0 00.5.5h14.9a.5.5 0 00.5-.5zM32.55 9.08h-5.9a.5.5 0 000 1h5.9a.5.5 0 000-1zM4.55 2.09a.52.52 0 00-.55.53.53.53 0 101 0 .53.53 0 00-.45-.53zM2.54 2.09a.53.53 0 00-.54.53.53.53 0 001.06 0 .53.53 0 00-.52-.53zM.53 2.09a.53.53 0 00-.53.53.53.53 0 00.53.53.53.53 0 00.53-.53.53.53 0 00-.53-.53zM14.55 5.57a.53.53 0 10.53.53.52.52 0 00-.53-.53zM12.54 5.57a.53.53 0 10.53.53.53.53 0 00-.53-.53zM10.53 5.57a.53.53 0 10.53.53.53.53 0 00-.53-.53zM24.49 9.05a.53.53 0 10.53.53.53.53 0 00-.53-.53zM22.48 9.05a.53.53 0 10.53.53.53.53 0 00-.53-.53zM20.47 9.05a.53.53 0 000 1.06.53.53 0 000-1.06z" class="cls-1"/></g></g></g></svg>