<svg viewBox="0 0 105.43 51.85" fill="currentColor"><defs><style>.cls-1{fill:#4c9c2e}</style></defs><g id="Layer_2" data-name="Layer 2"><g id="Layer_1-2" data-name="Layer 1"><g id="Text_top" data-name="Text top"><path d="M40.66 16l-.14.27a.48.48 0 000 .39 2.51 2.51 0 00.74 1 .48.48 0 000 .42 3.05 3.05 0 001.51 1.27v.16a.48.48 0 00.09.35A3.65 3.65 0 0044.67 21a.51.51 0 00.27.42 4.11 4.11 0 001.89.36l.14.23a.47.47 0 00.42.24.39.39 0 00.15 0c1.93-.6 2.58-1.23 3.05-2.06l1.66.82v2.63a.5.5 0 001 0V21l1.66-.82c.48.83 1.13 1.46 3.05 2.06a.39.39 0 00.15 0 .49.49 0 00.43-.24l.14-.23a4.09 4.09 0 001.88-.36.51.51 0 00.27-.42 3.65 3.65 0 001.84-.99.48.48 0 00.1-.35v-.16a3.07 3.07 0 001.52-1.27.51.51 0 000-.42 2.51 2.51 0 00.74-1 .48.48 0 000-.39l-.19-.41.3-1a.48.48 0 00-.3-.6l-1-.39-.13-.28a.53.53 0 00-.28-.27 2.55 2.55 0 00-1.28 0 .47.47 0 00-.34-.24 3 3 0 00-1.94.42l-.11-.11a.48.48 0 00-.34-.14 3.41 3.41 0 00-1.95.82.5.5 0 00-.5 0 3.91 3.91 0 00-1.44 1.27h-.27a.48.48 0 00-.52.32c-.7 1.89-.6 2.79-.23 3.67l-1.22.6v-5.78c1.22-.06 2.28-.4 4-2.25a.51.51 0 00.05-.62l-.22-.35a4.85 4.85 0 00.65-2.31.48.48 0 00-.26-.43l-.12-.07a4.43 4.43 0 00-.13-2.65.46.46 0 00-.26-.24l-.27-.1a3.78 3.78 0 00-.57-2.42.51.51 0 00-.37-.21h-.12a3.16 3.16 0 00-.74-1.44.6.6 0 00-.37-.14h-.43l-1-.94a.52.52 0 00-.68 0l-1 .94h-.44a.52.52 0 00-.36.14 3.09 3.09 0 00-.75 1.44h-.12a.51.51 0 00-.37.21 3.91 3.91 0 00-.57 2.42l-.27.1a.49.49 0 00-.27.24 4.43 4.43 0 00-.13 2.65l-.17.07a.48.48 0 00-.26.43 5 5 0 00.65 2.31l-.22.35a.5.5 0 00.06.62c1.76 1.85 2.82 2.19 4 2.25v5.63l-1.23-.6c.37-.88.48-1.78-.22-3.67a.5.5 0 00-.53-.32h-.27a3.87 3.87 0 00-1.43-1.27.5.5 0 00-.5 0 3.59 3.59 0 00-1.92-.82.48.48 0 00-.34.14l-.12.11a3.07 3.07 0 00-1.93-.42.49.49 0 00-.35.24 2.55 2.55 0 00-1.28 0 .55.55 0 00-.29.27l-.12.28-1 .39a.5.5 0 00-.3.6zm14.84.34h.18a.48.48 0 00.49-.25 3.58 3.58 0 01.94-1l.08.06a.51.51 0 00.62 0 3.92 3.92 0 011.41-.8l.23.22a.49.49 0 00.64 0 2.75 2.75 0 011.32-.48l.07.12a.51.51 0 00.59.22 2.3 2.3 0 01.84-.11l.11.24a.51.51 0 00.27.27l.76.29-.23.79a.51.51 0 000 .38l.12.23a2.24 2.24 0 01-.6.6.51.51 0 00-.18.6v.13a2.65 2.65 0 01-1.19.75.52.52 0 00-.36.54v.31a3.69 3.69 0 01-1.49.63.5.5 0 00-.41.47v.1a3.67 3.67 0 01-1.38.12.52.52 0 00-.49.24l-.09.15a3.25 3.25 0 01-2.08-1.42l.91-.45 2.28.78h.16a.51.51 0 00.48-.34.5.5 0 00-.32-.63L58 18.71l1.34-.71 1.58.54h.16a.5.5 0 00.47-.34.5.5 0 00-.31-.63l-.63-.21 1.71-.85a.5.5 0 10-.44-.89l-1.71.84.21-.63a.5.5 0 10-.94-.32l-.54 1.57-1.35.67.45-1.28a.5.5 0 00-.94-.32l-.78 2.28-.91.45a3.29 3.29 0 01.13-2.51zm-6.28-4.74l.17-.27a.5.5 0 000-.55 4.4 4.4 0 01-.65-1.76l.18-.1a.49.49 0 00.25-.57 4.64 4.64 0 01-.11-2.15l.43-.16a.5.5 0 00.33-.55A3.41 3.41 0 0150 3.62h.25a.5.5 0 00.46-.42 3 3 0 01.4-1.12h.4a.47.47 0 00.4-.08l.84-.77.84.77a.5.5 0 00.36.13h.4a3 3 0 01.41 1.12.48.48 0 00.46.42h.24a3.56 3.56 0 01.23 1.9.49.49 0 00.32.55l.43.16a4.59 4.59 0 01-.1 2.15.5.5 0 00.24.57l.18.1a4.41 4.41 0 01-.65 1.76.5.5 0 000 .55l.18.27c-1.4 1.4-2.18 1.62-3 1.66v-1.51l2.17-2.17a.48.48 0 000-.7.5.5 0 00-.71 0l-1.46 1.46V8.18l1.51-1.51a.5.5 0 10-.75-.67l-.8.8V4.07a.5.5 0 00-1 0v2.69l-.8-.8a.5.5 0 10-.71.71l1.51 1.51v2.24L50.79 9a.5.5 0 00-.71 0 .5.5 0 000 .7l2.17 2.17v1.46c-.85-.08-1.64-.33-3.03-1.7zm-7 3.24a.5.5 0 00.28-.27l.1-.24a2.36 2.36 0 01.85.11.5.5 0 00.58-.22l.07-.12a2.69 2.69 0 011.33.48.5.5 0 00.64 0l.23-.22a3.74 3.74 0 011.4.8.51.51 0 00.62 0l.08-.06a3.42 3.42 0 01.94 1 .54.54 0 00.49.25h.18a3.26 3.26 0 01.14 2.51l-.92-.45-.77-2.28a.5.5 0 00-.64-.31.5.5 0 00-.31.63l.49 1.36-1.36-.67-.53-1.57a.5.5 0 00-.64-.31.5.5 0 00-.31.63l.22.63-1.72-.84a.51.51 0 00-.67.22.5.5 0 00.23.67l1.71.85-.62.21a.5.5 0 00.16 1h.16l1.53-.63 1.35.67-1.33.45a.5.5 0 00.16 1h.16l2.28-.78.91.45a3.22 3.22 0 01-2.07 1.42l-.09-.15a.51.51 0 00-.43-.24H47a3.61 3.61 0 01-1.37-.12v-.1a.49.49 0 00-.4-.47 3.74 3.74 0 01-1.49-.63v-.31a.51.51 0 00-.36-.54 2.71 2.71 0 01-1.19-.75v-.13a.51.51 0 00-.18-.6 2.39 2.39 0 01-.6-.6l.13-.23a.5.5 0 000-.38l-.23-.79zM39.56 50.3a1.28 1.28 0 001.28 1.28h1.06a1.28 1.28 0 001.29-1.28V48h-3.63zM62.32 50.3a1.28 1.28 0 001.28 1.28h1.06a1.28 1.28 0 001.28-1.28V48h-3.62zM46.38 38.1v4.59l1.36.03v-4.95l-1.36.33zM48.74 37.53v5.21l1.37.03V37.2l-1.37.33zM51.11 36.96v5.83l1.36.03v-6.19l-1.36.33zM45.38 38.34l-.49.12a1.11 1.11 0 00-.89 1.08v3.1h1.36zM53.47 36.63v6.19l1.36-.03v-5.83l-1.36-.33zM58.19 37.76v4.96l1.36-.03v-4.6l-1.36-.33zM62 39.54a1.11 1.11 0 00-.87-1.08l-.55-.13v4.34H62zM55.83 37.2v5.57l1.36-.03v-5.22l-1.36-.32z" class="cls-1"/><path d="M68.43 34.39a5.83 5.83 0 00-3.06-1.59c-.3 0-.93-.12-1.75-.21l.66-.66h1.42a.74.74 0 00.74-.74v-.43a.74.74 0 00-.74-.76h-1.57a.74.74 0 00-.74.74v.43a.58.58 0 000 .18l-.61.6-1.35-3.14a3.66 3.66 0 00-3.36-2.21H47.4a3.65 3.65 0 00-3.4 2.19l-1.35 3.14-.61-.6a1.13 1.13 0 000-.18v-.43a.74.74 0 00-.74-.74h-1.5a.74.74 0 00-.74.74v.43a.74.74 0 00.74.74h1.43l.67.67-1.65.2a5.93 5.93 0 00-2.94 1.47 2.55 2.55 0 00.23 4.5 2.15 2.15 0 00-.49 1.35 2.2 2.2 0 00.73 1.62v.49a.85.85 0 00.86.79H43v-3.44a2.11 2.11 0 011.64-2.06l8.31-2 8.36 2A2.12 2.12 0 0163 39.54V43h4a.85.85 0 00.85-.79v-.62a2.15 2.15 0 00.22-2.71v-.24a2.55 2.55 0 001.35-2.24 2.58 2.58 0 00-.99-2.01zM37 36.42A1.59 1.59 0 1138.56 38 1.59 1.59 0 0137 36.42zm2.22 4.88a1.2 1.2 0 111.19-1.19 1.19 1.19 0 01-1.22 1.19zm14.73-8a.74.74 0 01-.25.52l-.42.31a.45.45 0 01-.52 0l-.42-.31a.75.75 0 01-.26-.52v-.4a.32.32 0 01.32-.32h1.2a.32.32 0 01.32.32zM53 31.55c-.3 0-5.69.48-9.4.84l1.4-3.2a2.64 2.64 0 012.44-1.61h10.67a2.65 2.65 0 012.44 1.61l1.37 3.18c-3.6-.37-8.61-.8-8.92-.82zm13.21 9.75a1.2 1.2 0 111.19-1.19 1.19 1.19 0 01-1.19 1.19zm.62-3.3a1.59 1.59 0 111.6-1.59 1.59 1.59 0 01-1.6 1.59zM67.79 44.32h-6.51v-.23a.5.5 0 00-1 0v.23h-15v-.23a.5.5 0 00-1 0v.23h-6.6a1.25 1.25 0 000 2.5h6.62V47a.5.5 0 001 0v-.15h15V47a.5.5 0 001 0v-.15h6.51a1.25 1.25 0 000-2.5zM35.68 14.18l5.44 11.28a.48.48 0 00.45.28.41.41 0 00.21 0A.49.49 0 0042 25l-5.42-11.26a.49.49 0 00-.66-.23.5.5 0 00-.24.67zM39.27 26.8a.5.5 0 00.36.16.53.53 0 00.34-.13.5.5 0 000-.71l-6.06-6.56a.5.5 0 00-.71 0 .5.5 0 000 .7zM35.26 12.36a.53.53 0 00.53-.53.53.53 0 00-1.06 0 .53.53 0 00.53.53zM32 17.68a.53.53 0 10.53.53.53.53 0 00-.53-.53zM38.07 28.1a.52.52 0 00.44-.25.5.5 0 00-.19-.68l-5.19-3a.5.5 0 00-.68.19.5.5 0 00.19.68l5.18 3a.57.57 0 00.25.06zM31.29 24.28a.54.54 0 00.35-.67.53.53 0 00-.67-.34.52.52 0 00-.34.66.53.53 0 00.66.35zM63.72 25.69a.42.42 0 00.22 0 .5.5 0 00.45-.28l5.43-11.28a.5.5 0 00-.9-.44L63.49 25a.49.49 0 00.23.69zM65.53 26.83a.55.55 0 00.34.13.52.52 0 00.37-.16l6.06-6.57a.5.5 0 00-.73-.67l-6.07 6.56a.51.51 0 00.03.71zM70.25 12.36a.53.53 0 00.53-.53.53.53 0 00-.53-.53.53.53 0 00-.53.53.52.52 0 00.53.53zM74 18.21a.53.53 0 00-.53-.53.53.53 0 000 1.06.53.53 0 00.53-.53zM72.37 24.21l-5.18 3a.5.5 0 00.24.93.54.54 0 00.25-.06l5.19-3a.51.51 0 00.19-.68.52.52 0 00-.69-.19zM73.87 23.61a.53.53 0 00.34.67.54.54 0 00.67-.35.53.53 0 00-.35-.66.52.52 0 00-.66.34zM94 25l-1.21-1.6a37 37 0 00-4.57 4.13l1.45 1.38A34.61 34.61 0 0194 25z" class="cls-1"/><path d="M78.21 46.57c.17-.35.34-.69.5-1a6.64 6.64 0 002.12-.45 8.78 8.78 0 002.59-1.56 9.11 9.11 0 001.92-2.32 7.39 7.39 0 001-2.84c-.85.61-1.51 1.26-2.21 1.86s-1.35 1.2-2 1.79-1.34 1.14-2 1.71l-.76.6c1.16-2.3 2.35-4.45 3.55-6.41l-.95-.57c0-.19.09-.38.13-.57l.15-.24 1.1.69a54.74 54.74 0 015.83-7.78l-1.55-1.38a50.15 50.15 0 00-3.32 4.08l.06-.17a28.68 28.68 0 001.34-5.27 24.41 24.41 0 00.2-5.47A15.06 15.06 0 0084.53 16c0 1.83 0 3.56-.18 5.3s-.37 3.44-.61 5.16-.56 3.44-.87 5.17c-.18 1-.36 1.94-.53 2.93a18.27 18.27 0 00-.12-4.18A18 18 0 0081 25.9a14.12 14.12 0 00-2.32-4c.23 1.54.58 3 .83 4.41s.49 2.86.7 4.29c.32 2.16.53 4.31.72 6.55a93.36 93.36 0 00-4.55 8.53zM96.42 40.47l.81 1.83c1.84-.82 3.69-1.54 5.5-2.14l-.63-1.9c-1.87.63-3.78 1.37-5.68 2.21z" class="cls-1"/><path d="M90.92 45.83l-.78.09c2-1.16 4-2.21 6-3.15l-.8-1.77-.4.2a11.56 11.56 0 001.31-2.75 13.15 13.15 0 00.65-3.56c0-.6 0-1.2-.05-1.8a13.65 13.65 0 00-.35-1.78 13.9 13.9 0 00-.63 1.69c-.19.55-.36 1.1-.52 1.64-.35 1.08-.64 2.16-1 3.2-.18.57-.38 1.14-.58 1.7a8.51 8.51 0 00.07-2.89 7.21 7.21 0 00-1-2.86c-.28 1-.39 1.94-.56 2.85s-.32 1.77-.48 2.63-.39 1.72-.63 2.59c-.13.5-.28 1-.44 1.51A84.14 84.14 0 0083.12 48l1.15 1.64c.65-.47 1.32-.9 2-1.34l1.88-.21c1-.13 2-.22 3-.31 2-.2 3.91-.26 6.11-.46a7.54 7.54 0 00-3-1.33 10.27 10.27 0 00-3.34-.16zM98.66 23.64a19.46 19.46 0 013.1-1.64c1.1-.49 2.27-.82 3.52-1.3a8.77 8.77 0 00-4-.2 9.74 9.74 0 00-3.71 1.5 10.28 10.28 0 00-2.9 2.79 8.13 8.13 0 00-1.48 3.67 27.15 27.15 0 015.47-4.82zM103.62 29.11a16.32 16.32 0 00-2-.71 13.3 13.3 0 00-4.18-.47 11.52 11.52 0 00-4.13 1 7.44 7.44 0 00-3.27 2.64 20.22 20.22 0 013.76-1.16 25.18 25.18 0 013.74-.48c1.26-.05 2.53 0 3.83 0 .65 0 1.3.1 2 .12s1.33.12 2.05.11a13.6 13.6 0 00-1.8-1.05zM78.09 51.85h3.22c.66-.51 1.33-1 2-1.51l-1.16-1.62c-1.39 1-2.74 2.05-4.06 3.13zM73.71 51.85h2.17c.66-1.58 1.32-3.11 2-4.54l-1.82-.84c-.79 1.69-1.58 3.53-2.35 5.38zM15.77 28.86l1.45-1.38a37.73 37.73 0 00-4.57-4.13L11.44 25a35.33 35.33 0 014.33 3.86z" class="cls-1"/><path d="M16.32 29.45a55.51 55.51 0 015.83 7.78l1.1-.69c.05.08.09.16.15.24s.07.38.12.57l-.94.57c1.2 2 2.39 4.11 3.54 6.41l-.76-.6c-.7-.57-1.38-1.13-2.05-1.71s-1.33-1.16-2-1.79S20 39 19.11 38.37a7.23 7.23 0 001 2.84A8.91 8.91 0 0022 43.53a8.73 8.73 0 002.58 1.56 6.7 6.7 0 002.12.45l.5 1 1.8-.83a93.34 93.34 0 00-4.56-8.53c.2-2.24.4-4.39.72-6.55.21-1.43.42-2.86.71-4.29s.6-2.87.83-4.41a13.92 13.92 0 00-2.33 4 18 18 0 00-1.19 4.46 18.85 18.85 0 00-.12 4.18c-.17-1-.35-2-.52-2.93-.32-1.73-.6-3.45-.87-5.17s-.46-3.43-.62-5.16-.16-3.47-.17-5.3a15.29 15.29 0 00-1.39 5.29 25 25 0 00.2 5.47A28.7 28.7 0 0021.06 32l.06.17a52.41 52.41 0 00-3.33-4.08zM3.33 38.26l-.64 1.9c1.81.6 3.66 1.32 5.51 2.14l.8-1.83c-1.89-.84-3.81-1.58-5.67-2.21z" class="cls-1"/><path d="M14.7 43.32c-.15-.51-.3-1-.43-1.51-.24-.87-.45-1.72-.63-2.59s-.35-1.73-.49-2.63-.28-1.83-.55-2.85a7.23 7.23 0 00-1 2.86 8.78 8.78 0 00.08 2.89c-.21-.56-.4-1.13-.59-1.7-.36-1-.65-2.12-1-3.2-.15-.54-.33-1.09-.52-1.64a15.7 15.7 0 00-.62-1.68 13.69 13.69 0 00-.36 1.78c0 .6-.07 1.2-.05 1.8a13.54 13.54 0 00.65 3.56 12 12 0 001.31 2.75l-.4-.2-.84 1.81c2 .94 4 2 6 3.15-.25 0-.51-.07-.77-.09a10.32 10.32 0 00-3.28.2 7.5 7.5 0 00-3 1.33c2.19.2 4.13.26 6.1.46 1 .09 2 .18 3 .31l1.88.21c.66.44 1.33.87 2 1.34L22.3 48a82.77 82.77 0 00-7.6-4.68zM6.77 23.64a27.1 27.1 0 015.46 4.78 8.13 8.13 0 00-1.48-3.67A10.15 10.15 0 007.85 22a9.74 9.74 0 00-3.76-1.5 8.78 8.78 0 00-3.95.2c1.25.48 2.42.81 3.52 1.3a19.57 19.57 0 013.11 1.64zM7.84 29.92a25 25 0 013.74.48 20.22 20.22 0 013.76 1.16 7.47 7.47 0 00-3.26-2.64 11.62 11.62 0 00-4.13-1 13.36 13.36 0 00-4.19.47 17 17 0 00-2 .71A14.15 14.15 0 000 30.17c.71 0 1.38-.06 2.05-.11s1.32-.09 2-.12c1.26-.06 2.53-.07 3.79-.02zM22.1 50.34c.68.49 1.35 1 2 1.51h3.21c-1.31-1.08-2.67-2.13-4.06-3.13zM27.56 47.31c.66 1.43 1.33 3 2 4.54h2.18c-.78-1.88-1.57-3.69-2.35-5.38z" class="cls-1"/></g></g></g></svg>