<svg fill="currentColor" viewBox="0 0 193 94"><path d="M47.3727 35.8364l.92-.39-7.77-15.92c-.0278-.0588-.067-.1115-.1154-.155-.0483-.0435-.1049-.077-.1663-.0984-.0615-.0214-.1266-.0304-.1915-.0263-.0649.004-.1284.0209-.1868.0497-.0591.0288-.112.069-.1556.1183-.0437.0493-.0771.1067-.0985.1689-.0213.0623-.0302.1281-.0261.1938.0042.0657.0212.1299.0502.189l7.74 15.87zm-7.01 3.2401l.9-.44-8.63-14.95c-.0321-.0572-.0754-.1074-.1272-.1476-.0519-.0402-.1113-.0695-.1747-.0863-.0634-.0168-.1296-.0207-.1945-.0114-.065.0092-.1274.0314-.1836.0653-.1152.0651-.1999.1732-.2355.3007-.0356.1275-.0193.2639.0455.3793l8.6 14.89zm-6.7702 3.7599l.85-.52-9.4-13.93c-.0327-.0626-.0782-.1177-.1337-.1614-.0555-.0438-.1196-.0753-.1881-.0925-.0686-.0171-.14-.0196-.2095-.0071-.0696.0124-.1357.0394-.1941.0793-.0583.0398-.1075.0916-.1444.1518-.0369.0603-.0606.1277-.0696.1978-.0089.07-.0029.1412.0177.2088.0206.0676.0552.1301.1017.1833l9.37 13.89zm-6.5099 4.2501l.82-.57-10.09-12.88c-.0407-.0519-.0912-.0953-.1487-.1276-.0574-.0324-.1207-.0531-.1861-.061-.0655-.0078-.1319-.0028-.1954.015s-.1229.0478-.1748.0886c-.0518.0407-.0952.0912-.1275.1487-.0324.0574-.0531.1207-.061.1862-.0079.0654-.0028.1318.015.1953.0177.0635.0478.1229.0885.1748l10.06 12.83zM4.96277 48.7964c-.46365-.002-.91744.1338-1.30378.3902-.38634.2564-.68781.6217-.86616 1.0497-.17835.428-.22553.8993-.13556 1.3542.08997.4548.31304.8727.64089 1.2005.32786.3279.74572.5509 1.20057.6409.45484.09.92617.0428 1.35415-.1355.42799-.1784.79334-.4799 1.0497-.8662.25636-.3863.39217-.8401.39019-1.3038 0-.306-.06026-.609-.17736-.8916-.11709-.2827-.28872-.5396-.50508-.756-.21636-.2163-.47322-.3879-.7559-.505-.28269-.1171-.58568-.1774-.89166-.1774zm0 3.67c-.26544.002-.52549-.0749-.74717-.2209-.22167-.1461-.39498-.3547-.49793-.5993-.10296-.2447-.13093-.5144-.08036-.775.05057-.2606.1774-.5003.3644-.6887s.42574-.317.68594-.3696c.26021-.0525.53015-.0265.77558.0746.24544.1011.45531.2728.603.4934.14769.2206.22654.4801.22654.7455.00132.1755-.03211.3495-.09835.512-.06625.1626-.16401.3104-.28764.4349-.12364.1246-.2707.2235-.43272.2909-.16202.0675-.33578.1022-.51129.1022zm5.07993-.9999c-.46044.0019-.90994.1403-1.29179.3975-.38184.2572-.67893.6218-.85375 1.0477-.17482.4259-.21954.8941-.12851 1.3454.09103.4513.31373.8656.63998 1.1904.32625.3249.74143.5458 1.19313.6349.45174.0891.91964.0424 1.34484-.1343.4252-.1766.7885-.4753 1.0441-.8582.2555-.383.392-.833.392-1.2934 0-.3069-.0606-.6107-.1784-.894-.1177-.2834-.2902-.5407-.5076-.7572-.2174-.2164-.4755-.3879-.7593-.5044-.2839-.1165-.5879-.1758-.8947-.1744zm0 3.66c-.26266-.002-.51881-.0817-.73621-.229-.21739-.1474-.38631-.3558-.48544-.599-.09913-.2432-.12405-.5103-.07161-.7676.05245-.2573.1799-.4934.36629-.6784.1864-.185.42339-.3107.68111-.3612.25776-.0505.52466-.0236.76706.0774.2425.1009.4496.2714.5953.4899.1457.2185.2234.4752.2235.7379 0 .1755-.0348.3492-.1022.5112-.0675.1621-.1664.3091-.2909.4328-.1246.1236-.2724.2213-.4349.2876-.1625.0662-.3365.0997-.512.0984zm-.14992-5.8501c.36282.002.71802-.1039 1.02042-.3042.3025-.2003.5386-.486.6783-.8208.1398-.3348.1769-.7036.1066-1.0595-.0703-.3559-.2448-.6829-.5013-.9394-.2566-.2566-.5836-.4311-.9395-.5014-.35589-.0703-.72467-.0332-1.05946.1066-.3348.1397-.6205.3758-.82082.6783-.20032.3025-.30622.6576-.30424 1.0204 0 .4827.19175.9456.53307 1.287.34131.3413.80424.533 1.28693.533zm0-2.65c.16462-.002.32602.045.46382.135.1378.09.2457.2189.3101.3704.0644.1515.0822.3187.0513.4803-.0309.1617-.1091.3105-.2248.4276-.1156.1171-.2635.1971-.4248.23-.16125.0328-.32865.017-.48089-.0455-.15225-.0626-.28247-.1689-.37412-.3056-.09166-.1367-.1406-.2976-.14061-.4622.0026-.2166.08982-.4237.24304-.5769.15322-.1533.36029-.2405.57696-.2431v-.01zm-7.35014 8.2301c-.36236-.002-.71715.1036-1.01941.3035-.30225.1999-.538362.485-.678405.8192-.140043.3342-.177713.7025-.108235 1.0581.069477.3557.242974.6827.4985.9396.25553.2569.58158.4322.93684.5036.35525.0715.72372.0358 1.05869-.1024.33497-.1382.62137-.3727.8229-.6739.20153-.3012.30911-.6554.30912-1.0177 0-.4836-.19142-.9476-.53246-1.2905-.34103-.3429-.80393-.5369-1.28754-.5395zm0 2.65c-.165.0019-.32683-.0453-.46485-.1357-.13801-.0905-.24594-.22-.31-.3721-.06405-.152-.08133-.3197-.04963-.4817.03171-.1619.11096-.3107.22764-.4274.11667-.1166.26548-.1959.42741-.2276.16193-.0317.32964-.0144.4817.0496.15206.0641.28159.172.37202.31.09044.138.13768.2999.13571.4649 0 .2174-.0864.426-.24017.5798-.15378.1538-.36235.2402-.57983.2402zm3.85011-16c-.35996 0-.71184.1067-1.01113.3067-.2993.2-.53257.4842-.67033.8168-.13775.3325-.17379.6985-.10356 1.0515.07022.3531.24356.6774.49809.9319.25453.2545.57882.4279.93187.4981.35305.0702.71899.0342 1.05155-.1036.33256-.1377.61681-.371.81679-.6703.19998-.2993.30672-.6512.30672-1.0111-.00262-.4819-.19521-.9433-.53596-1.2841-.34075-.3407-.80215-.5333-1.28404-.5359zm0 2.64c-.16218 0-.32071-.0481-.45556-.1382-.13485-.0901-.23995-.2182-.30202-.368-.06206-.1499-.0783-.3147-.04666-.4738.03164-.1591.10974-.3052.22442-.4199.11468-.1146.26079-.1927.41985-.2244.15906-.0316.32394-.0154.47378.0467.14983.0621.2779.1672.368.302.0901.1349.13819.2934.13819.4556 0 .2174-.08639.426-.24017.5798s-.36235.2402-.57983.2402zm183.41025 7.05c0-.4609-.137-.9114-.393-1.2945-.256-.3832-.62-.6818-1.046-.8582-.426-.1763-.894-.2225-1.346-.1326-.452.0899-.867.3118-1.193.6377-.326.3259-.548.741-.638 1.193-.09.452-.043.9205.133 1.3462.176.4258.475.7897.858 1.0457.383.256.834.3927 1.295.3927.618 0 1.21-.2455 1.647-.6825.437-.4369.683-1.0296.683-1.6475zm-2.33 1.33c-.266.0019-.527-.0752-.749-.2217-.222-.1465-.395-.3557-.497-.6009-.103-.2453-.13-.5155-.079-.7764.051-.2608.179-.5005.367-.6885.188-.188.428-.3159.689-.3672.261-.0514.531-.024.776.0786.245.1027.454.276.601.4979.146.2218.224.4823.222.7482 0 .1746-.035.3476-.102.5089-.066.1614-.164.308-.288.4315-.123.1235-.27.2215-.431.2883-.162.0669-.335.1013-.509.1013zm-5.081-1.0001c-.463-.002-.917.1338-1.303.3902-.387.2563-.688.6217-.866 1.0497-.179.428-.226.8993-.136 1.3541.09.4549.313.8727.641 1.2006.328.3279.746.5509 1.2.6409.455.09.927.0428 1.355-.1356.428-.1783.793-.4798 1.049-.8661.257-.3864.392-.8402.39-1.3038-.002-.6172-.249-1.2083-.685-1.6447-.436-.4364-1.027-.6827-1.645-.6853zm0 3.67c-.265.002-.525-.0749-.747-.221-.221-.146-.395-.3546-.498-.5992-.103-.2447-.131-.5145-.08-.775.051-.2606.177-.5003.364-.6887s.426-.3171.686-.3696c.261-.0525.53-.0266.776.0746.245.1011.455.2728.603.4934.148.2206.226.48.226.7455 0 .3537-.139.693-.388.944-.25.251-.588.3934-.942.396zm-1.669-7.68c0 .36.106.7118.306 1.0111.2.2993.485.5326.817.6704.333.1377.699.1738 1.052.1035.353-.0702.677-.2435.932-.4981.254-.2545.427-.5788.498-.9318.07-.3531.034-.719-.104-1.0516-.138-.3325-.371-.6168-.67-.8168-.3-.1999-.651-.3067-1.011-.3067-.483 0-.946.1918-1.287.5331-.342.3413-.533.8042-.533 1.2869zm1.82-.82c.162 0 .32.0481.455.1382.135.0901.24.2182.302.368s.079.3147.047.4738c-.032.159-.11.3052-.225.4198-.114.1147-.26.1928-.419.2245-.159.0316-.324.0154-.474-.0467-.15-.0621-.278-.1672-.368-.302-.09-.1349-.138-.2934-.138-.4556 0-.2175.086-.426.24-.5798s.362-.2402.58-.2402zm7.83 8.1601c-.365-.0019-.722.1051-1.025.3073-.303.2022-.539.4903-.678.8274-.138.3372-.173.708-.099 1.0649.074.357.252.6838.513.9386.26.2549.591.4261.949.4918.359.0657.729.0228 1.063-.1231.334-.1459.617-.3883.812-.6959.195-.3077.294-.6667.285-1.031-.013-.4749-.211-.9262-.55-1.2584-.34-.3321-.795-.5192-1.27-.5216zm0 2.65c-.165.0019-.326-.045-.464-.135-.138-.09-.246-.2189-.31-.3704-.065-.1515-.083-.3187-.052-.4803.031-.1617.109-.3105.225-.4276.116-.1171.264-.1971.425-.23.161-.0328.329-.017.481.0455.152.0626.282.1689.374.3056.092.1367.141.2976.141.4622 0 .2184-.087.428-.24.5834-.154.1553-.362.2439-.58.2466zm-2.51-14.1201c-.002-.3595-.111-.7104-.312-1.0084-.201-.298-.486-.5297-.819-.6659-.333-.1362-.698-.1708-1.051-.0995-.352.0714-.675.2455-.929.5004-.253.2549-.426.5792-.495.932-.07.3528-.033.7182.105 1.0502.138.332.371.6156.671.8152.299.1995.65.306 1.01.306.483-.0026.946-.1966 1.287-.5395.341-.3429.533-.8069.533-1.2905zm-2.64 0c0-.1077.021-.2143.062-.3138.041-.0995.102-.1899.178-.266.076-.0762.166-.1366.266-.1778.099-.0412.206-.0624.314-.0624.107 0 .214.0212.313.0624.1.0412.19.1016.266.1778.077.0761.137.1665.178.266.041.0995.063.2061.063.3138 0 .1077-.022.2143-.063.3138-.041.0995-.101.1899-.178.266-.076.0762-.166.1366-.266.1778-.099.0412-.206.0624-.313.0624-.108 0-.215-.0212-.314-.0624-.1-.0412-.19-.1016-.266-.1778-.076-.0761-.137-.1665-.178-.266-.041-.0995-.062-.2061-.062-.3138z"/><path d="M171.633 51.5264l10.4-11.55c.088-.0994.134-.2301.127-.3632-.008-.1332-.068-.2579-.167-.3468-.1-.0888-.231-.1345-.364-.127-.133.0075-.258.0676-.346.167l-10.45 11.61c-.77-.6-1.55-1.18-2.34-1.75l7.3-8.7c.084-.1027.125-.2345.114-.3672-.011-.1326-.074-.2557-.174-.3428-.05-.0428-.108-.0754-.17-.0956-.062-.0203-.128-.0278-.193-.0222-.065.0056-.129.0242-.187.0548-.058.0305-.109.0724-.15.123l-7.31 8.76c-.79-.57-1.58-1.12-2.38-1.67l9.91-12.69c.082-.1047.119-.2379.103-.3701-.016-.1322-.084-.2526-.188-.3349-.105-.0822-.238-.1194-.371-.1035-.132.016-.252.0838-.334.1885l-9.95 12.75c-.81-.54-1.62-1.07-2.43-1.58l7-9.63c.038-.0531.066-.1134.082-.1774.015-.064.018-.1303.008-.1953-.011-.065-.034-.1274-.068-.1835-.034-.0562-.079-.105-.132-.1438-.054-.0387-.114-.0666-.178-.082-.064-.0155-.13-.0182-.195-.0079-.065.0102-.128.0331-.184.0674-.056.0343-.105.0794-.143.1325l-7 9.68c-.82-.51-1.64-1-2.47-1.5l9.3-13.78c.072-.1118.099-.2477.072-.3785-.026-.1309-.102-.2463-.212-.3215-.111-.0723-.245-.0982-.374-.072s-.243.1024-.316.212l-9.34 13.83c-.83-.48-1.66-.95-2.51-1.41l6.57-10.52c.026-.0602.039-.1251.04-.1908 0-.0656-.013-.1307-.038-.1913-.025-.0607-.062-.1156-.109-.1616s-.102-.0822-.163-.1063c-.114-.0679-.249-.0891-.378-.0593-.128.0299-.241.1085-.312.2193l-6.6 10.57c-.84-.45-1.69-.9-2.54-1.33l8.55-14.81c.064-.1154.081-.2518.045-.3792-.036-.1275-.12-.2356-.235-.3008-.057-.0338-.119-.056-.184-.0652-.065-.0093-.131-.0054-.195.0114-.063.0168-.122.0461-.174.0863-.052.0401-.095.0903-.127.1475l-8.54 14.81c-.86-.43-1.72-.84-2.58-1.25l6-11.33c.036-.0581.06-.123.07-.1908.01-.0678.006-.137-.011-.2032-.018-.0662-.049-.1281-.092-.1818-.042-.0538-.095-.0981-.156-.1304-.06-.0323-.127-.0518-.195-.0574-.068-.0055-.137.0031-.202.0252-.065.0222-.124.0575-.175.1036-.051.0462-.091.1023-.119.1648l-6.05 11.39c-.87-.4-1.74-.79-2.62-1.17l7.68-15.74c.038-.0591.064-.1259.075-.1957.011-.0699.007-.1412-.012-.2095-.018-.0682-.051-.1317-.096-.1862-.045-.0546-.101-.099-.164-.1304-.064-.0313-.133-.0489-.204-.0514-.07-.0026-.141.0098-.206.0365-.066.0266-.125.0668-.174.118-.049.0511-.086.1121-.109.1787l-7.7 15.79-2.64-1.08 5.37-12.09c.054-.1207.058-.2579.011-.3816-.047-.1237-.141-.2238-.261-.2784-.061-.0279-.126-.0432-.192-.0452-.066-.0019-.132.0096-.194.0339-.062.0243-.118.0609-.165.1075-.047.0467-.084.1024-.109.1638l-5.41 12.13c-.88-.34-1.77-.67-2.66-1l6.7-16.58c.05-.1233.049-.2616-.002-.3844-.052-.1229-.15-.2202-.273-.2706-.124-.0504-.262-.0497-.385.0019s-.22.1498-.27.2731l-6.71 16.62c-.9-.31-1.79-.62-2.69-.91l4.64-12.75c.024-.0622.036-.1286.034-.1955-.001-.0668-.016-.1326-.044-.1936-.027-.0609-.067-.1157-.116-.1611-.049-.0454-.107-.0805-.17-.1033-.062-.0227-.129-.0326-.196-.0291-.067.0036-.132.0204-.192.0497-.06.0292-.114.0702-.158.1205s-.078.109-.098.1724l-4.62 12.8c-.9-.29-1.81-.56-2.72-.82l5.62-17.3c.021-.0623.03-.1283.026-.1942-.005-.0658-.022-.1301-.052-.1889-.03-.0588-.072-.111-.122-.1535-.051-.0424-.109-.0741-.172-.0934-.126-.0383-.262-.0264-.38.0333-.117.0596-.207.1624-.25.2867l-5.63 17.34c-.9-.26-1.81-.5-2.73-.74l3.82-13.31c.037-.1326.02-.2745-.048-.3945-.067-.12-.18-.2083-.312-.2455-.133-.0371-.275-.02-.395.0475s-.208.1799-.245.3125l-3.83 13.34c-.91-.23-1.82-.44-2.74-.65l4.46-17.88c.03-.1298.008-.2664-.061-.3804-.069-.1141-.18-.1964-.309-.2296-.129-.03-.264-.008-.377.0613-.112.0693-.193.1803-.223.3087l-4.47 17.92c-.92-.2-1.84-.39-2.76-.56l2.92-13.77c.014-.0637.016-.1297.005-.1942-.012-.0644-.036-.1259-.071-.1809-.035-.055-.082-.1023-.136-.1392-.054-.0369-.114-.0626-.178-.0757-.131-.0241-.267.0029-.378.0754-.112.0726-.191.1852-.222.3146l-2.88 13.76c-.93-.17-1.85-.33-2.78-.48l3.24-18.31996c.02-.13101-.011-.26484-.088-.37311-.076-.10827-.192-.18248-.322-.20689-.065-.01147-.132-.00994-.197.00449-.064.01444-.125.0415-.179.07962-.054.03812-.1.08655-.135.14248-.035.05593-.059.11827-.069.18341l-3.24 18.35996c-.92-.14-1.85-.26-2.78-.38l2-14.1c.017-.1312-.019-.2639-.1-.3688-.08-.105-.199-.1737-.33-.1912-.065-.0098-.131-.0068-.194.0091s-.123.0442-.175.0833c-.052.0391-.096.0882-.129.1445-.033.0562-.054.1185-.062.1831l-2 14.12c-.92-.1066-1.84-.2066-2.76-.3l.51-4.81c.008-.0659.003-.1329-.016-.1968-.018-.0639-.049-.1233-.091-.1748-.042-.0514-.095-.0938-.154-.1245-.059-.0306-.123-.049-.189-.0539-.132-.014-.263.0243-.366.1068-.103.0824-.169.2022-.184.3332l-.5 4.82c-3.49-.3-7-.46-10.5104-.46v-4.03l1.6599-.82c.4801.83 1.1301 1.47 3.0505 2.06.049.0097.1.0097.15 0 .086.0015.171-.0199.247-.062.075-.0422.138-.1036.183-.178l.14-.23c.646.0304 1.29-.0929 1.88-.36.077-.041.142-.1011.189-.1747.048-.0735.075-.158.081-.2453.696-.1436 1.336-.4877 1.84-.99.078-.099.113-.2247.1-.35v-.16c.633-.2437 1.167-.6903 1.52-1.27.029-.066.045-.1375.045-.21 0-.0724-.016-.144-.045-.21.327-.2676.584-.6108.75-1 .049-.1252.049-.2647 0-.39l-.15-.27.3-1c.038-.1193.028-.2489-.028-.3611-.056-.1121-.154-.1978-.272-.2389l-1-.39-.13-.28c-.027-.0614-.065-.1169-.113-.1633s-.105-.0826-.167-.1067c-.42-.1088-.861-.1088-1.28 0-.035-.0634-.083-.118-.142-.1596-.059-.0417-.127-.0691-.198-.0804-.676-.0802-1.359.0676-1.94.42l-.11-.11c-.045-.0445-.098-.0798-.157-.1038-.058-.024-.12-.0363-.183-.0362-.715.0833-1.391.3676-1.95.82-.076-.0438-.163-.067-.25-.067-.088 0-.174.0232-.25.067-.5785.2971-1.0735.7336-1.4404 1.27h-.26c-.1115-.0139-.2244.0101-.3205.0681-.0962.0581-.17.1468-.2095.2519-.7 1.89-.6001 2.79-.2301 3.67l-1.22.6v-5.92c1.22-.06 2.28-.4 4.0005-2.25.069-.0882.107-.1975.107-.31 0-.1125-.038-.2217-.107-.31l-.22-.35c.404-.7049.631-1.4978.66-2.30996-.004-.08781-.03-.1733-.075-.24849-.046-.0752-.109-.13765-.185-.18151l-.1-.07c.227-.87533.185-1.79879-.12-2.65-.061-.11213-.16-.19773-.28-.24l-.27-.1c.088-.84787-.113-1.70069-.5704-2.42-.043-.05958-.0982-.10918-.1621-.14543-.0639-.03624-.1348-.05827-.208-.06457h-.12c-.1174-.53612-.3724-1.03241-.74-1.44-.1039-.08716-.2343-.13651-.3699-.14h-.43l-1-.940004c-.0945-.081633-.2152-.126553-.3401-.126553-.1248 0-.2455.04492-.3399.126553l-1 .940004h-.43c-.1357.00349-.2661.05284-.3701.14-.3738.40456-.6328.90172-.75 1.44h-.1999c-.0732.0063-.1441.02833-.208.06457-.0639.03625-.1191.08585-.1621.14543-.4482.72316-.6483 1.5728-.5699 2.42l-.2701.1c-.1172.04269-.2138.12853-.27.24-.308.85031-.3533 1.77361-.1299 2.65l-.1201.07c-.0788.04065-.1448.10235-.1907.17826-.0459.0759-.0699.16304-.0693.25174.0382.81476.2751 1.60776.69 2.30996l-.22.35c-.0599.0955-.0865.2081-.0756.3203.0109.1121.0586.2175.1356.2997 1.76 1.85 2.82 2.19 4 2.25v5.63l-1.2199-.6c.37-.88.4799-1.78-.22-3.67-.0396-.1051-.1134-.1938-.2096-.2519-.0961-.058-.209-.082-.3204-.0681h-.2701c-.3629-.5363-.8545-.9729-1.43-1.27-.076-.0438-.1622-.067-.25-.067-.0877 0-.1739.0232-.25.067-.5541-.4608-1.233-.7463-1.9499-.82-.0631-.0001-.1256.0122-.184.0362-.0583.024-.1114.0593-.1561.1038l-.11.11c-.5817-.3524-1.2645-.5002-1.9399-.42-.0727.0112-.1418.0386-.2024.0802-.0606.0415-.111.0962-.1476.1598-.4198-.1088-.8603-.1088-1.2801 0-.1268.0509-.2302.1471-.2899.27l-.12.28-1 .39c-.1155.0451-.2102.1314-.2656.2423-.0554.1108-.0677.2383-.0345.3577l.3001 1-.14.27c-.0273.0614-.0414.1279-.0414.195 0 .0672.0141.1337.0414.195.1589.3928.4174.7375.75 1-.0319.0655-.0484.1373-.0484.21 0 .0728.0165.1446.0484.21.3515.5765.8817 1.0225 1.51 1.27v.16c-.0168.124.0155.2495.0899.35.4406.596 1.0504 1.0455 1.75 1.29.0053.0873.0329.1718.0801.2453.0473.0736.1127.1337.1899.1747.5927.2679 1.2404.3913 1.8901.36l.14.23c.0424.0759.1051.1385.181.1809.0759.0423.1621.0628.249.0591.0461.0097.0938.0097.14 0 1.93-.59 2.58-1.23 3-2.06l1.6599.82v4c-3.46 0-6.9066.1667-10.3399.5l-.4401-5.09c-.0132-.1326-.0786-.2545-.1818-.3389-.1031-.0844-.2355-.1243-.3682-.1111-.1326.0133-.2545.0787-.3389.1818-.0843.1032-.1243.2356-.1111.3682l.5401 5.12c-.9401.09-1.8701.2-2.8001.31l-2-14.18c-.0185-.1326-.089-.2524-.1959-.333-.1069-.0807-.2414-.1155-.3741-.097-.1326.0186-.2524.0891-.333.196-.0806.1069-.1155.2414-.097.374l2 14.16c-.93.12-1.85.26-2.78.4L74.4126 8.63644c-.0109-.06514-.0346-.12748-.0697-.18341-.0351-.05593-.081-.10436-.1349-.14248-.0539-.03812-.1149-.06518-.1793-.07962-.0644-.01443-.1311-.01596-.1961-.00449-.1304.02441-.2461.09862-.3226.20689-.0766.10827-.1079.2421-.0875.37311l3.3 18.45996c-.9199.15-1.84.31-2.76.49l-3-13.88c-.031-.1294-.1106-.242-.2222-.3146-.1116-.0725-.2468-.0995-.3778-.0754-.064.0131-.1249.0388-.1789.0757-.054.0369-.1001.0842-.1355.1392-.0354.055-.0594.1165-.0707.1809-.0113.0645-.0095.1305.0052.1942l2.9399 13.86c-.92.18-1.84.37-2.75.57l-4.45-18.02c-.0308-.1284-.1112-.2394-.2237-.3087-.1124-.0693-.2476-.0913-.3762-.0613-.1292.0332-.2403.1155-.3095.2296-.0691.114-.0909.2506-.0606.3804l4.49 18c-.91.21-1.83.43-2.74.66l-3.91-13.47c-.0371-.1326-.1254-.245-.2454-.3125s-.2619-.0846-.3946-.0475c-.1326.0372-.245.1255-.3125.2455s-.0846.2619-.0475.3945l3.9 13.44-2.77.74-5.63-17.47c-.0433-.1243-.1331-.2271-.2506-.2867-.1174-.0597-.2533-.0716-.3793-.0333-.0632.0193-.1218.051-.1723.0934-.0506.0425-.092.0947-.1219.1535-.0299.0588-.0476.1231-.052.1889-.0045.0659.0044.1319.0261.1942l5.6601 17.42c-.9001.26-1.8.54-2.7.83l-4.7101-12.92c-.0477-.1211-.1407-.2188-.2593-.2724-.1187-.0535-.2535-.0587-.3759-.0145-.1224.0443-.2227.1346-.2796.2516-.0569.1171-.0659.2517-.0252.3753l4.7 12.91c-.9.3-1.79.6-2.68.92l-6.75-16.79c-.0503-.1233-.1477-.2215-.2705-.2731-.1228-.0516-.2611-.0523-.3844-.0019-.1234.0504-.2216.1477-.2732.2706-.0516.1228-.0522.2611-.0019.3844l6.77 16.74c-.8899.32-1.7799.66-2.66 1l-5.47-12.3c-.0262-.0604-.0641-.115-.1115-.1608-.0474-.0457-.1033-.0817-.1646-.1059-.0613-.0241-.1267-.0359-.1926-.0348-.0659.0012-.1308.0153-.1913.0415-.0604.0263-.115.0642-.1608.1116-.0457.0474-.0817.1033-.1058.1646-.0242.0613-.036.1267-.0349.1926.0012.0658.0153.1308.0416.1912l5.4599 12.27c-2.0933.8134-4.1499 1.6967-6.1699 2.65l-6.1601-11.58c-.0305-.0587-.0724-.1108-.1232-.1532-.0508-.0425-.1096-.0744-.1729-.0939-.0632-.0195-.1297-.0263-.1956-.0199-.0659.0063-.1299.0257-.1882.057-.0579.0314-.1091.074-.1505.1252-.0414.0512-.0723.1101-.0909.1733-.0185.0632-.0245.1294-.0174.1949.0071.0655.0271.1289.0588.1866l6.1299 11.54c-2 .96-4 1.96-6 3l-6.7199-10.74c-.0719-.1108-.184-.1894-.3127-.2193-.1288-.0298-.264-.0086-.3774.0593-.0569.0338-.1064.0787-.1455.1322-.0391.0534-.0669.1142-.0819.1786-.015.0645-.0167.1314-.0051.1965.0116.0652.0363.1274.0725.1827l6.7 10.73c-2 1.09-3.9 2.24-5.81 3.44l-7.1999-9.91c-.0388-.0531-.0876-.0982-.1438-.1325-.0561-.0343-.1185-.0572-.1835-.0674-.065-.0103-.1313-.0076-.1953.0079-.064.0154-.1243.0433-.1775.082-.0531.0388-.0982.0876-.1325.1438-.0343.0561-.0572.1185-.0674.1835s-.0076.1313.0079.1953c.0154.064.0433.1243.082.1774l7.16 9.86c-1.9 1.21-3.7699 2.49-5.6099 3.82l-7.5501-9c-.0414-.0506-.0927-.0925-.1506-.123-.0579-.0306-.1214-.0492-.1867-.0548-.0652-.0056-.131.0019-.1932.0222-.0623.0202-.1199.0528-.1695.0956-.1006.0871-.1633.2102-.1745.3428-.0112.1327.0299.2645.1145.3672l7.5 8.94c-.78.57-1.56 1.15-2.33 1.75l-10.66-11.85c-.0439-.0492-.0972-.0893-.1567-.118-.0595-.0286-.124-.0453-.19-.049-.0659-.0037-.1319.0056-.1942.0274-.0624.0218-.1198.0556-.1691.0996-.0492.044-.0893.0973-.118.1568-.0286.0595-.0453.124-.049.19-.0037.0659.0056.1319.0274.1942.0218.0624.0557.1198.0996.169l10.62 11.79c-1.2733 1-2.5233 2.0234-3.75 3.07-.106.0862-.1735.211-.1876.347-.0141.136.0265.2719.1126.378.0862.1061.2111.1736.347.1877.136.0141.272-.0265.378-.1127 21.9584-18.6752 49.8442-28.9298 78.67-28.9298 28.8255 0 56.7115 10.2546 78.6705 28.9298.088.0771.202.1197.32.12.073.0024.145-.0127.211-.044.066-.0313.124-.0779.169-.136.043-.0488.076-.1059.097-.1678.021-.062.03-.1275.025-.1927-.004-.0652-.022-.1289-.052-.1872-.029-.0583-.07-.1101-.12-.1523-1.35-1.18-2.7-2.24-4.08-3.35zm-72.8205-34.52h.1701c.0971.0108.1953-.0071.2824-.0515.0871-.0445.1593-.1134.2075-.1985.246-.3908.5655-.7304.9405-1l.09.06c.087.0673.194.1038.305.1038.11 0 .217-.0365.305-.1038.406-.3655.887-.6384 1.41-.8l.23.22c.089.0768.202.119.32.119.117 0 .231-.0422.32-.119.391-.2715.845-.4369 1.32-.48l.07.12c.059.0975.15.1721.257.212.107.0399.224.0427.333.008.27-.0883.555-.1256.84-.11l.11.24c.051.1216.148.2184.27.27l.76.29-.22.79c-.028.0597-.042.1245-.042.19 0 .0656.014.1304.042.19l.12.23c-.16.2364-.364.4401-.6.6-.093.0658-.161.1605-.193.2691-.033.1087-.028.2252.013.3309v.13c-.322.3527-.733.6118-1.19.75-.113.0344-.21.1075-.274.2062-.064.0988-.091.217-.076.3338v.31c-.444.3177-.953.5328-1.49.63-.112.0203-.213.0779-.288.1633-.074.0854-.117.1935-.122.3067v.1c-.448.1329-.917.1737-1.38.12-.097-.0117-.194.0047-.281.0473-.087.0426-.16.1096-.209.1927l-.09.15c-.424-.0864-.826-.2565-1.1836-.5003-.3572-.2438-.6621-.5565-.8969-.9197l.91-.45 2.2805.78h.16c.105.0014.209-.0308.295-.0919.086-.0611.151-.1479.185-.2481.021-.0623.03-.1283.026-.1942-.005-.0658-.022-.1301-.052-.1889-.03-.0588-.072-.111-.122-.1535-.051-.0424-.109-.0741-.172-.0934l-1.33-.45 1.35-.67 1.58.54h.16c.132.0213.268-.0111.377-.0898.108-.0788.181-.1976.203-.3302.021-.1326-.012-.2682-.09-.3769-.079-.1088-.198-.1818-.33-.2031l-.63-.21 1.71-.85c.066-.0235.127-.0609.178-.1097.051-.0488.092-.1079.118-.1734.027-.0655.039-.1359.037-.2066-.003-.0707-.02-.14-.052-.2034-.031-.0633-.075-.1194-.13-.1643-.055-.045-.118-.0778-.186-.0964-.068-.0186-.14-.0226-.21-.0116-.07.011-.136.0367-.195.0754l-1.71.84.21-.63c.025-.1197.006-.2445-.055-.3509-.06-.1064-.158-.187-.273-.2264-.116-.0394-.242-.035-.355.0124-.113.0474-.205.1346-.257.2449l-.54 1.57-1.35.67.45-1.34c.025-.1197.006-.2445-.055-.3509-.06-.1064-.158-.187-.273-.2264-.116-.0394-.242-.035-.355.0124-.113.0474-.205.1346-.257.2449l-.7805 2.28-.9099.45c-.2318-.813-.1385-1.6843.2599-2.43zm-5.3699 2.51l-.9101-.45-.81-2.28c-.0213-.0626-.0549-.1203-.0987-.1699-.0438-.0495-.097-.0898-.1565-.1187-.0596-.0288-.1242-.0455-.1902-.0492-.0661-.0037-.1322.0058-.1945.0278-.1241.0433-.2262.1336-.2842.2515-.0581.1179-.0673.2539-.0258.3785l.46 1.34-1.36-.67-.53-1.57c-.0214-.0626-.0549-.1203-.0988-.1699-.0438-.0495-.097-.0898-.1565-.1187-.0596-.0288-.1242-.0455-.1903-.0492-.066-.0037-.1321.0058-.1944.0278-.1241.0433-.2262.1336-.2842.2515-.058.1179-.0673.2539-.0259.3785l.22.63-1.72-.84c-.1152-.0406-.2414-.0377-.3547.0084-.1132.046-.2057.132-.2599.2415-.0542.1096-.0663.2353-.0341.3532.0321.118.1064.22.2088.2869l1.71.85-.6201.21c-.1326.0213-.2513.0943-.3301.2031-.0787.1087-.1111.2443-.0898.3769.0212.1326.0942.2514.203.3302.1087.0787.2443.1111.377.0898h.1599l1.6-.63 1.36.67-1.3399.45c-.1327.0213-.2514.0943-.3302.2031-.039.0538-.067.1148-.0824.1795-.0154.0647-.018.1318-.0075.1974.0106.0657.0339.1286.0687.1853.0349.0566.0805.1059.1344.1449.1087.0787.2443.1111.3769.0898h.1601l2.29-.78.9099.45c-.237.3602-.5427.6702-.8996.9121-.3569.242-.758.4112-1.1804.4979l-.0899-.15c-.0456-.073-.109-.1333-.1842-.1753-.0752-.042-.1597-.0642-.2459-.0647h-.0699c-.4602.0479-.9253.0072-1.3701-.12v-.1c-.0026-.1123-.0438-.2203-.1167-.3059-.0728-.0855-.1728-.1435-.2833-.1641-.5371-.0972-1.046-.3123-1.49-.63v-.31c.0141-.1181-.0145-.2373-.0804-.3363-.066-.099-.1651-.1712-.2796-.2037-.4547-.143-.8647-.4014-1.1899-.75l.0499-.13c.0411-.1057.0456-.2222.013-.3309-.0326-.1086-.1005-.2033-.193-.2691-.2341-.1626-.4373-.3658-.6-.6l.13-.23c.0501-.1217.0501-.2582 0-.38l-.2-.79.7601-.29c.0623-.024.1192-.0602.1673-.1066.0481-.0464.0864-.1019.1127-.1634l.11-.24c.2843-.0149.569.0223.8399.11.1073.0359.2236.0336.3293-.0065.1057-.0401.1943-.1155.2507-.2135l.07-.12c.4783.0386.9374.2043 1.3301.48.0898.0749.203.1158.32.1158.1169 0 .2301-.0409.32-.1158l.2299-.22c.5193.1617.9971.4347 1.4.8.089.0682.198.1051.3101.1051.112 0 .221-.0369.31-.1051l.08-.06c.3805.2631.7009.604.9399 1 .051.0826.1237.1495.2101.1936s.1832.0636.28.0564h.18c.1918.3849.3056.804.3347 1.2331.0292.429-.0268.8596-.1647 1.2669zm2.11-12.11996l-.8301-.76c-.0466-.04662-.1019-.0836-.1628-.10883-.0609-.02523-.1262-.03822-.1922-.03822-.0659 0-.1312.01299-.1921.03822-.0609.02523-.1162.06221-.1628.10883-.0467.04662-.0837.10196-.1089.16287-.0252.06091-.0382.1262-.0382.19213 0 .06593.013.13121.0382.19212.0252.06091.0622.11626.1089.16288l1.51 1.51v2.23996l-1.43-1.45996c-.0465-.04687-.1018-.08407-.1628-.10945-.0609-.02538-.1262-.03845-.1923-.03845-.066 0-.1313.01307-.1922.03845-.061.02538-.1163.06258-.1627.10945-.0917.09346-.143.21912-.143.35 0 .13086.0513.25656.143.34996l2.17 2.17v1.46c-.85 0-1.64-.26-3-1.66l.1699-.27c.0538-.0816.0825-.1772.0825-.275 0-.0977-.0287-.1933-.0825-.275-.3406-.5331-.5623-1.1334-.65-1.75996l.1901-.1c.0981-.05432.1751-.14006.2187-.24345.0435-.10338.051-.21839.0212-.32655-.1996-.69898-.2372-1.4343-.11-2.15l.43-.16c.1108-.03844.2045-.11458.2649-.21512.0603-.10053.0834-.21906.0651-.33488-.1097-.64223-.0297-1.30251.2301-1.9h.24c.1128-.00764.2198-.05333.3033-.12962.0836-.07629.1388-.17866.1567-.29038.0572-.39629.1932-.7771.4-1.12h.4c.1205-.00053.2372-.04295.3299-.12l.8401-.77.8399.77c.1006.08503.2284.13116.36.13h.4c.2103.34213.3497.72299.41 1.12.0143.11327.0684.21777.1527.29475.0843.07697.1933.12138.3074.12525h.24c.2543.59897.334 1.25765.2299 1.9-.0208.11476 0 .23319.0586.33401.0587.10081.1514.1774.2614.21599l.43.16c.1376.71446.1033 1.45139-.1 2.15-.0297.10816-.0222.22317.0213.32655.0436.10339.1206.18913.2188.24345l.1804.1c-.0922.62396-.31 1.22276-.6405 1.75996-.0537.0817-.0824.1773-.0824.275 0 .0978.0287.1934.0824.275l.18.27c-1.4 1.4-2.18 1.62-3 1.66v-1.51l2.12-2.17c.0844-.0891.1315-.2072.1315-.32996 0-.12276-.0471-.24086-.1315-.33-.0464-.04687-.1017-.08407-.1627-.10945-.0609-.02538-.1262-.03845-.1923-.03845-.066 0-.1313.01307-.1922.03845-.061.02538-.1163.06258-.1627.10945l-1.46 1.45996V8.81644l1.5099-1.51c.0469-.04649.0841-.10179.1095-.16272.0254-.06092.0384-.12628.0384-.19228 0-.06601-.013-.13136-.0384-.19229-.0254-.06093-.0626-.11623-.1095-.16271-.0951-.09225-.2224-.14384-.3549-.14384-.1326 0-.2599.05159-.3551.14384l-.7999.8v-2.69c0-.13261-.0527-.25979-.1465-.35356-.0938-.09377-.2209-.14644-.3535-.14644-.1319.00256-.2576.05606-.3508.14928-.0932.09321-.1467.21891-.1492.35072v2.69zM106.513 82.6299H96.5125l-9.93.1c-.1326 0-.2598.0527-.3535.1464-.0938.0938-.1465.221-.1465.3536.0016 1.3772.2763 2.7404.8085 4.0106.5321 1.2703 1.311 2.4223 2.2915 3.3894 1.9613 1.9322 4.6069 3.0106 7.36 3h.06c2.7708-.0185 5.4215-1.1336 7.3725-3.1013 1.951-1.9677 3.043-4.6279 3.038-7.3987 0-.1326-.053-.2598-.147-.3536-.094-.0937-.221-.1464-.353-.1464zm-17.4305 1.09h6.34l-4.45 4.45c-1.1052-1.2332-1.7699-2.7984-1.89-4.45zm7 .74v6.18c-1.6153-.0984-3.1539-.7237-4.38-1.78l4.38-4.4zm1 6.18v-6.18l4.4005 4.36c-1.23 1.068-2.7754 1.7038-4.4005 1.81v.01zm5.0905-2.52l-4.4705-4.49h6.3405c-.111 1.662-.769 3.2406-1.87 4.49zm-5.5805 4.51c-1.2431.0138-2.4765-.2216-3.6272-.6922s-2.1955-1.1669-3.0728-2.0478c-1.6627-1.6356-2.6573-3.8314-2.79-6.16h1c.1307 2.0799 1.0245 4.0384 2.51 5.5 1.5876 1.5496 3.7215 2.4118 5.94 2.4 2.1565-.0166 4.2265-.8522 5.7895-2.3376 1.563-1.4855 2.504-3.5096 2.631-5.6624h1c-.123 2.4129-1.162 4.6882-2.905 6.3609-1.743 1.6727-4.0595 2.6167-6.4755 2.6391zm38.1105-7.88h-23.86c-.133 0-.26.0527-.354.1464-.094.0938-.146.221-.146.3536 0 .1326.052.2598.146.3535.094.0938.221.1465.354.1465h23.86c.132 0 .26-.0527.353-.1465.094-.0937.147-.2209.147-.3535 0-.1326-.053-.2598-.147-.3536-.093-.0937-.221-.1464-.353-.1464zm-10 3.48h-14.86c-.133 0-.26.0526-.354.1464-.094.0938-.146.221-.146.3536 0 .1326.052.2597.146.3535s.221.1465.354.1465h14.86c.132 0 .26-.0527.353-.1465.094-.0938.147-.2209.147-.3535 0-.1326-.053-.2598-.147-.3536-.093-.0938-.221-.1464-.353-.1464zm-10 3.4799h-5.9c-.133 0-.26.0527-.354.1465-.094.0938-.146.2209-.146.3535 0 .1326.052.2598.146.3536.094.0938.221.1464.354.1464h5.9c.132 0 .26-.0526.353-.1464.094-.0938.147-.221.147-.3536 0-.1326-.053-.2597-.147-.3535-.093-.0938-.221-.1465-.353-.1465zm22.139-6.99c-.14 0-.275.0559-.374.1553-.1.0994-.156.2342-.156.3747 0 .1406.056.2754.156.3748.099.0994.234.1552.374.1552.141 0 .276-.0558.375-.1552.1-.0994.155-.2342.155-.3748 0-.1405-.055-.2753-.155-.3747-.099-.0994-.234-.1553-.375-.1553zm2.011 0c-.07 0-.139.0138-.203.0404s-.123.0657-.172.1149c-.049.0492-.088.1076-.115.1719-.027.0643-.04.1332-.04.2028 0 .1406.056.2754.155.3748.099.0994.234.1552.375.1552.14 0 .275-.0558.375-.1552.099-.0994.155-.2342.155-.3748 0-.1405-.056-.2753-.155-.3747-.1-.0994-.235-.1553-.375-.1553zm2.01 0c-.141 0-.276.0559-.375.1553-.1.0994-.155.2342-.155.3747 0 .0696.013.1386.04.2029.026.0643.066.1227.115.1719.049.0492.107.0883.172.1149.064.0266.133.0403.203.0403.069.0014.139-.0114.204-.0375.065-.0262.124-.0652.173-.1147.05-.0494.089-.1084.115-.1733.026-.0649.039-.1345.038-.2045 0-.1405-.056-.2753-.156-.3747-.099-.0994-.234-.1553-.374-.1553zm-14.021 3.48c-.104 0-.207.0311-.294.0894-.087.0582-.155.141-.195.2378-.04.0969-.051.2034-.03.3062.02.1028.071.1973.145.2714.074.0741.168.1246.271.145.103.0205.209.01.306-.0301s.18-.1081.238-.1952c.058-.0872.089-.1896.089-.2945 0-.1405-.055-.2753-.155-.3747-.099-.0994-.234-.1553-.375-.1553zm2.011 0c-.105 0-.208.0311-.295.0894-.087.0582-.155.141-.195.2378-.04.0969-.051.2034-.03.3062.02.1028.071.1973.145.2714.074.0741.169.1246.271.145.103.0205.21.01.307-.0301.096-.0401.179-.1081.237-.1952.059-.0872.09-.1896.09-.2945 0-.1405-.056-.2753-.155-.3747-.1-.0994-.235-.1553-.375-.1553zm2.01 0c-.141 0-.276.0559-.375.1553-.1.0994-.155.2342-.155.3747 0 .1406.055.2754.155.3748.099.0994.234.1552.375.1552.14 0 .275-.0558.374-.1552.1-.0994.156-.2342.156-.3748 0-.1405-.056-.2753-.156-.3747-.099-.0994-.234-.1553-.374-.1553zm-13.96 3.4801c-.105 0-.208.0311-.295.0894-.087.0582-.155.141-.195.2378-.04.0969-.051.2034-.03.3062.02.1028.071.1973.145.2714.074.0741.168.1246.271.145.103.0205.21.01.306-.0301.097-.0401.18-.1081.238-.1952.058-.0872.09-.1896.09-.2945 0-.1405-.056-.2753-.156-.3747-.099-.0994-.234-.1553-.374-.1553zm2.01 0c-.141 0-.276.0559-.375.1553-.099.0994-.155.2342-.155.3747 0 .1406.056.2754.155.3748.099.0994.234.1552.375.1552.14 0 .275-.0558.375-.1552.099-.0994.155-.2342.155-.3748 0-.1405-.056-.2753-.155-.3747-.1-.0994-.235-.1553-.375-.1553zm2.02 0c-.141 0-.276.0559-.375.1553-.099.0994-.155.2342-.155.3747 0 .1406.056.2754.155.3748.099.0994.234.1552.375.1552.14 0 .275-.0558.375-.1552.099-.0994.155-.2342.155-.3748 0-.1405-.056-.2753-.155-.3747-.1-.0994-.235-.1553-.375-.1553zm-38.1805-6.43c0-.1326-.0526-.2598-.1464-.3536-.0938-.0937-.221-.1464-.3536-.1464h-23.9c-.1326 0-.2597.0527-.3535.1464-.0938.0938-.1465.221-.1465.3536 0 .1326.0527.2598.1465.3535.0938.0938.2209.1465.3535.1465h23.9c.1326 0 .2598-.0527.3536-.1465.0938-.0937.1464-.2209.1464-.3535zm1 3.48c0-.1326-.0526-.2598-.1464-.3536-.0938-.0938-.221-.1464-.3536-.1464h-14.9c-.1326 0-.2597.0526-.3535.1464s-.1465.221-.1465.3536c0 .1326.0527.2597.1465.3535s.2209.1465.3535.1465h14.9c.1326 0 .2598-.0527.3536-.1465.0938-.0938.1464-.2209.1464-.3535zm.5 2.9799h-5.9c-.1326 0-.2597.0527-.3535.1465s-.1465.2209-.1465.3535c0 .1326.0527.2598.1465.3536.0938.0938.2209.1464.3535.1464h5.9c.1326 0 .2598-.0526.3536-.1464.0938-.0938.1464-.221.1464-.3536 0-.1326-.0526-.2597-.1464-.3535s-.221-.1465-.3536-.1465zm-27.9996-6.9899c-.0717-.0042-.1434.0065-.2106.0314-.0673.0249-.1287.0635-.1804.1133-.0516.0497-.0924.1097-.1198.176-.0274.0663-.0407.1375-.0392.2093-.0281.0799-.0367.1654-.0249.2493.0117.0839.0434.1637.0924.2328.0489.0692.1138.1255.189.1644.0753.0389.1587.0593.2435.0593.0847 0 .1681-.0204.2434-.0593.0752-.0389.1401-.0952.189-.1644.049-.0691.0807-.1489.0924-.2328.0118-.0839.0032-.1694-.0248-.2493.0014-.1278-.0433-.2517-.126-.3491-.0827-.0974-.1978-.1617-.324-.1809zm-2.0103 0c-.0704-.0013-.1404.0114-.2059.0375-.0654.026-.125.0648-.1753.1142-.0503.0493-.0902.1082-.1175.1732-.0272.0649-.0413.1347-.0413.2051 0 .1406.0559.2754.1553.3748.0994.0994.2342.1552.3747.1552.1406 0 .2754-.0558.3748-.1552.0994-.0994.1552-.2342.1552-.3748.0001-.1388-.0544-.2721-.1516-.3712-.0973-.0991-.2295-.1561-.3684-.1588zm-2.01-.0001c-.1405 0-.2753.0559-.3747.1553-.0994.0994-.1553.2342-.1553.3747 0 .0696.0137.1386.0404.2029.0266.0643.0657.1227.1149.1719.0492.0492.1076.0883.1719.1149s.1332.0403.2028.0403.1386-.0137.2029-.0403c.0643-.0266.1227-.0657.1719-.1149.0492-.0492.0883-.1076.1149-.1719s.0403-.1333.0403-.2029c0-.1405-.0558-.2753-.1552-.3747-.0994-.0994-.2342-.1553-.3748-.1553zm14.0201 3.4801c-.1049 0-.2073.0311-.2945.0893-.0872.0583-.1551.1411-.1952.2379-.0401.0968-.0506.2034-.0302.3062.0205.1028.071.1973.1451.2714.0741.0741.1685.1246.2714.145.1028.0205.2093.01.3062-.0301.0968-.0401.1796-.1081.2378-.1952.0583-.0872.0894-.1896.0894-.2945.0013-.0699-.0115-.1395-.0376-.2044-.0262-.0649-.0652-.1239-.1146-.1734-.0495-.0495-.1085-.0884-.1734-.1146-.0649-.0262-.1345-.0389-.2044-.0376zm-2.0103-.0001c-.1048 0-.2073.0311-.2944.0894-.0872.0582-.1551.141-.1953.2378-.0401.0969-.0506.2034-.0301.3062.0204.1028.0709.1973.145.2714.0742.0741.1686.1246.2714.145.1028.0205.2094.01.3062-.0301.0969-.0401.1796-.1081.2379-.1952.0582-.0872.0893-.1896.0893-.2945 0-.1405-.0558-.2753-.1552-.3747-.0994-.0994-.2342-.1553-.3748-.1553zm-2.0098 0c-.1048 0-.2073.0311-.2944.0894-.0872.0582-.1551.141-.1952.2378-.0401.0969-.0506.2034-.0302.3062.0205.1028.0709.1973.1451.2714.0741.0741.1685.1246.2713.145.1028.0205.2094.01.3063-.0301.0968-.0401.1796-.1081.2378-.1952.0583-.0872.0893-.1896.0893-.2945 0-.1405-.0558-.2753-.1552-.3747-.0994-.0994-.2342-.1553-.3748-.1553zm13.96 3.4801c-.1048 0-.2073.0311-.2945.0894-.0871.0582-.155.141-.1952.2378-.0401.0969-.0506.2034-.0301.3062.0204.1028.0709.1973.145.2714.0742.0741.1686.1246.2714.145.1028.0205.2094.01.3062-.0301.0969-.0401.1796-.1081.2379-.1952.0582-.0872.0893-.1896.0893-.2945 0-.1405-.0558-.2753-.1552-.3747-.0994-.0994-.2342-.1553-.3748-.1553zm-2.0098 0c-.1048 0-.2073.0311-.2944.0894-.0872.0582-.1551.141-.1952.2378-.0401.0969-.0506.2034-.0302.3062.0205.1028.0709.1973.1451.2714.0741.0741.1685.1246.2713.145.1028.0205.2094.01.3063-.0301.0968-.0401.1796-.1081.2378-.1952.0582-.0872.0893-.1896.0893-.2945 0-.1405-.0558-.2753-.1552-.3747-.0994-.0994-.2342-.1553-.3748-.1553zm-2.0102 0c-.1406 0-.2754.0559-.3748.1553-.0994.0994-.1552.2342-.1552.3747 0 .1406.0558.2754.1552.3748.0994.0994.2342.1552.3748.1552.1405 0 .2753-.0558.3747-.1552.0994-.0994.1553-.2342.1553-.3748 0-.1405-.0559-.2753-.1553-.3747-.0994-.0994-.2342-.1553-.3747-.1553z"/></svg>