<svg xmlns:xlink="http://www.w3.org/1999/xlink" id="Layer_1" x="0" y="0" version="1.1" viewBox="0 0 232.5 150" xml:space="preserve" fill="currentColor"><style>.st0{enable-background:new}.st1{fill:#231f20}.st2{fill:#4c9c2e}.st3,.st4{stroke:#4c9c2e;stroke-miterlimit:10}.st3{fill:#fff;stroke-width:.9294}.st4{fill:none}.st4,.st5,.st6{stroke-width:.9294;stroke-linecap:round}.st5{fill:#4c9c2e;stroke:#4c9c2e;stroke-miterlimit:10}.st6{fill:none;stroke-linejoin:round}.st10,.st11,.st6,.st7,.st9{stroke:#4c9c2e;stroke-miterlimit:10}.st7{fill:#fff;stroke-width:.9294;stroke-linecap:round;stroke-linejoin:round}.st10,.st11,.st9{fill:none;stroke-width:1.8589}.st10,.st11{stroke-dasharray:11.9676,.9973}.st11{stroke-dasharray:13.0832,1.0903}</style><g class="st0"><path d="M71.7 121.2c-.2.2-.3.5-.6.7-.2.2-.5.4-.8.6s-.6.3-1 .4c-.4.1-.7.1-1.2.1-.7 0-1.3-.1-1.9-.4-.6-.2-1.1-.6-1.5-1-.4-.4-.8-.9-1-1.5-.2-.6-.4-1.2-.4-1.9s.1-1.3.4-1.9c.2-.6.6-1.1 1-1.5.4-.4.9-.8 1.5-1 .6-.2 1.2-.4 1.9-.4.3 0 .7 0 1 .1l.9.3c.3.1.5.3.8.5l.6.6-.8.6c-.1-.1-.2-.3-.4-.4-.2-.1-.3-.3-.6-.4-.2-.1-.5-.2-.7-.3-.3-.1-.5-.1-.8-.1-.6 0-1.1.1-1.6.3-.5.2-.9.5-1.2.9-.3.4-.6.8-.8 1.3-.2.5-.3 1-.3 1.5s.1 1 .3 1.5c.2.5.4.9.8 1.3.3.4.7.7 1.2.9.5.2 1 .3 1.6.3.5 0 1-.1 1.5-.3.5-.2.9-.6 1.2-1l.9.2zM86.3 118.1c0 .7-.1 1.3-.4 1.9-.2.6-.6 1.1-1 1.5-.4.4-.9.8-1.5 1-.6.2-1.2.4-1.9.4s-1.3-.1-1.9-.4c-.6-.2-1.1-.6-1.5-1-.4-.4-.8-.9-1-1.5-.2-.6-.4-1.2-.4-1.9s.1-1.3.4-1.9c.2-.6.6-1.1 1-1.5.4-.4.9-.8 1.5-1 .6-.2 1.2-.4 1.9-.4s1.3.1 1.9.4c.6.2 1.1.6 1.5 1 .4.4.8.9 1 1.5.3.5.4 1.2.4 1.9zm-1 0c0-.5-.1-1-.3-1.5-.2-.5-.4-.9-.8-1.3-.3-.4-.7-.7-1.2-.9s-1-.3-1.6-.3c-.6 0-1.1.1-1.6.3s-.9.5-1.2.9c-.3.4-.6.8-.8 1.3-.2.5-.3 1-.3 1.5s.1 1 .3 1.5c.2.5.4.9.8 1.3.3.4.7.7 1.2.9.5.2 1 .3 1.6.3.6 0 1.1-.1 1.6-.3.5-.2.9-.5 1.2-.9.3-.4.6-.8.8-1.3.2-.5.3-1 .3-1.5zM100 121.2c-.2.2-.3.5-.6.7-.2.2-.5.4-.8.6s-.6.3-1 .4c-.4.1-.7.1-1.2.1-.7 0-1.3-.1-1.9-.4-.6-.2-1.1-.6-1.5-1-.4-.4-.8-.9-1-1.5-.2-.6-.4-1.2-.4-1.9s.1-1.3.4-1.9c.2-.6.6-1.1 1-1.5.4-.4.9-.8 1.5-1 .6-.2 1.2-.4 1.9-.4.3 0 .7 0 1 .1l.9.3c.3.1.5.3.8.5l.6.6-.8.6c-.1-.1-.2-.3-.4-.4-.2-.1-.3-.3-.6-.4-.2-.1-.5-.2-.7-.3-.3-.1-.5-.1-.8-.1-.6 0-1.1.1-1.6.3-.5.2-.9.5-1.2.9-.3.4-.6.8-.8 1.3-.2.5-.3 1-.3 1.5s.1 1 .3 1.5c.2.5.4.9.8 1.3.3.4.7.7 1.2.9.5.2 1 .3 1.6.3.5 0 1-.1 1.5-.3.5-.2.9-.6 1.2-1l.9.2zM106.5 117.6l4.4-4.1h1.3l-4.6 4.2 4.9 5h-1.4l-4.6-4.9v4.9h-.9v-9.2h.9v4.1zM120.6 122.7h-.9v-8.4h-3.1v-.8h7.1v.8h-3.1v8.4z" class="st1"/></g><g class="st0"><path d="M129.4 122.7h-1l4-9.2h.9l4 9.2h-1l-1-2.4h-4.8l-1.1 2.4zm1.4-3.3h4.1l-2-4.9-2.1 4.9z" class="st1"/></g><g class="st0"><path d="M143.6 122.6h-.9v-9.2h.9v9.2z" class="st1"/></g><g class="st0"><path d="M151.1 121.8h4.3v.8h-5.2v-9.2h.9v8.4z" class="st1"/></g><g class="st0"><path d="M165.3 114.9c-.2-.3-.5-.5-.8-.7-.3-.2-.7-.3-1.1-.3-.2 0-.5 0-.7.1l-.6.3c-.2.1-.3.3-.5.5s-.2.5-.2.8.1.5.2.7.3.4.4.5l.6.3c.2.1.5.2.7.3.3.1.6.2 1 .3.3.1.6.3.9.5s.5.4.6.7c.2.3.2.7.2 1.1 0 .5-.1.9-.3 1.2-.2.3-.4.6-.7.8-.3.2-.6.4-1 .5-.4.1-.7.2-1.1.2-.3 0-.6 0-.8-.1-.3-.1-.5-.1-.8-.3-.3-.1-.5-.3-.7-.4l-.6-.6.8-.6c.2.3.5.6.8.8.4.2.8.3 1.3.3.2 0 .5 0 .7-.1.2-.1.5-.2.7-.3.2-.2.4-.3.5-.6s.2-.5.2-.8c0-.3-.1-.6-.2-.8s-.3-.4-.5-.5c-.2-.1-.4-.3-.7-.4-.3-.1-.6-.2-.8-.3l-.9-.3c-.3-.1-.6-.3-.8-.5-.2-.2-.4-.4-.6-.7-.1-.3-.2-.6-.2-1.1 0-.4.1-.8.3-1.1s.4-.6.7-.8.6-.4.9-.5c.3-.1.7-.1 1-.1.6 0 1.2.1 1.6.3s.8.5 1 .8l-.5.9z" class="st1"/></g><path d="M88.8 81.2c.7-2.3 1.7-4 3.1-5.3s3-2 4.9-2.1c1.9-.1 3.6.4 5.2 1.5 1.5 1.1 2.8 2.8 3.7 5 .9 2.2 1.5 4.8 1.7 7.7.2 2.9-.1 5.5-.7 7.8-.7 2.3-1.7 4.1-3.1 5.4-1.4 1.3-3 2-4.9 2.1-1.9.1-3.6-.4-5.2-1.6-1.5-1.2-2.8-2.8-3.7-5.1-.9-2.2-1.5-4.8-1.7-7.8-.2-2.8.1-5.4.7-7.6zm12.4 14.6c.6-1.9.9-4.4.7-7.4-.2-3.2-.7-5.8-1.6-7.7s-1.9-2.8-3.2-2.8c-.8.1-1.5.5-2.1 1.4-.6.9-1 2.1-1.3 3.7-.2 1.6-.3 3.4-.2 5.4.1 2.1.4 3.9.8 5.5s1 2.8 1.7 3.6c.7.8 1.4 1.2 2.2 1.2 1.4 0 2.4-1 3-2.9zM118.2 74.9c-.1.3-.2.7-.2 1.1l.1 23.3c0 5.3-2.4 7.9-7.2 7.9-.8 0-1.5-.2-2.2-.5-.7-.3-1.1-.6-1.3-.9l.5-3.9h.2c.4.4.8.7 1.2.8s.9.2 1.4.2c1.6 0 2.3-1 2.3-3.1l.1-23.8c0-.6-.2-1.4-.7-2.3v-.3h6.4v.3c-.3.4-.5.9-.6 1.2zM131.6 73.7v.3c-.5.9-.8 1.6-.8 2.2l-.8 24c0 .4 0 .7.1 1s.3.7.5 1.2v.3l-6.3-.2v-.3c.5-.9.8-1.6.8-2.2l.8-24c0-.4 0-.7-.2-1s-.3-.7-.5-1.2v-.3l6.4.2zM138.9 103.2v-.3c.3-.4.6-.8.8-1.1s.3-.7.3-1l1.9-22-2.2-.2c-.6-.1-1.5.2-2.6.7l-.5.3h-.2l.5-5.8 15.7 1.3-.6 5.9h-.2l-.5-.4c-1-.7-1.9-1.1-2.5-1.2l-2.2-.2-1.9 22c0 .4 0 .7.1 1.1.1.4.3.8.6 1.2v.3l-6.5-.6zM156 82.3c1.1-2.1 2.5-3.6 4.1-4.6s3.4-1.3 5.3-1.1 3.5 1.1 4.7 2.6 2.1 3.3 2.6 5.7.5 5 .1 7.9c-.4 2.9-1.2 5.4-2.3 7.5-1.1 2.1-2.5 3.7-4.1 4.7s-3.4 1.4-5.3 1.1-3.5-1.2-4.7-2.6c-1.3-1.4-2.1-3.3-2.6-5.7-.5-2.4-.5-5-.1-7.9.4-3 1.2-5.5 2.3-7.6zm9.1 16.9c1-1.7 1.7-4.1 2.2-7.1.5-3.2.5-5.8 0-7.8-.4-2.1-1.3-3.2-2.5-3.3-.8-.1-1.6.2-2.3.9-.8.8-1.4 1.9-2 3.4s-1 3.2-1.3 5.2c-.3 2.1-.4 3.9-.3 5.5s.4 2.9.9 3.9 1.1 1.5 1.9 1.6c1.2.3 2.4-.5 3.4-2.3zM87.4 104.9c-.5-.1-1.1-.5-1.7-1.2-.6-.6-1.1-1.6-1.4-2.9-.1-.4-.2-.9-.3-1.3l-3.1-21.8c-.1-.4-.1-.8 0-1.1 0-.3.2-.7.4-1.2v-.3l-6.2.9L72 86.9l-6.4-9.6c-1.2.1-2.2.2-3.2.3-2.3.4-4 1.2-5.2 2.4-1.2 1.2-1.7 2.8-1.3 4.8.1.8.5 1.5 1 2s1.1.7 1.8.6c.3-.1.6-.2.8-.3.2-.2.3-.3.3-.5v-.2c-.2-.1-.3-.3-.5-.6s-.2-.6-.3-.9c-.2-1.1.1-1.9.8-2.6.3-.3.8-.6 1.3-.8l3.2 22.7c.1.7-.1 1.5-.5 2.3v.3l6.2-.9v-.3c-.6-.6-1-1.3-1.1-1.9l-2.4-17.1 6.7 9.7.4-.1 3.8-11.1L79 96.8c.1.6.1 1.2.2 1.8.2 1.4.4 2.5.6 3.2.2 1 .7 1.9 1.2 2.7.6.7 1.2 1.3 2 1.6.8.3 1.5.4 2.3.2.8-.2 1.5-.6 2.2-1.2l-.1-.2z" class="st1"/><path d="M208 68.2c.3 1.7 1.1 7 1.3 8.2.1.6-5.1 1.8-5.2 1.2-.4-1.5-2-7.6-2.5-9.4 0 0 1.3-.9 3.2-.1 2 .8 3.2.1 3.2.1z" class="st2"/><path d="M205.4 69.4c.2 0 .4-.3.3-.5l-.4-1.9c0-.2-.3-.4-.5-.3l-1.8.3c-.2 0-.4.3-.3.5l.4 1.9c0 .2.3.4.5.3l1.8-.3z" class="st3"/><path d="M204.3 70.4c-.1.2.1.4.3.4l1.6.4c.2.1.4-.1.4-.3l.4-1.6c.1-.2-.1-.4-.3-.4l-1.6-.4c-.2-.1-.4.1-.4.3l-.4 1.6z" class="st3"/><path d="M199.2 62.2v-2.8M200.3 62.3l1-1.5M198.1 62.3l-1-1.5" class="st4"/><ellipse cx="204" cy="64.2" class="st5" rx="4.3" ry="1.1" transform="rotate(-11.986 203.9739839 64.16530019)"/><path d="M199.8 65.1l3.5 13.2c.1.5 1.8.5 3.8.1 2-.4 3.5-1.2 3.4-1.6l-2.2-13.5" class="st4"/><path d="M190.8 68.9c-.1 1.7-.5 7-.6 8.3 0 .6 5.2 1.3 5.3.8.3-1.6 1.4-7.7 1.7-9.6 0 0-1.4-.8-3.2.2-1.9 1-3.2.3-3.2.3z" class="st2"/><path d="M193.6 69.9c-.2 0-.4-.2-.4-.5l.2-1.9c0-.2.2-.4.5-.4l1.9.2c.2 0 .4.2.4.5l-.2 1.9c0 .2-.2.4-.5.4l-1.9-.2z" class="st3"/><path d="M194.7 70.8c.1.2 0 .4-.2.5l-1.5.5c-.2.1-.4 0-.5-.2L192 70c-.1-.2 0-.4.2-.5l1.5-.5c.2-.1.4 0 .5.2l.5 1.6z" class="st3"/><ellipse cx="194.5" cy="64.6" class="st5" rx="1" ry="4.3" transform="rotate(-82.9 194.53079897 64.59658516)"/><path d="M198.8 65.1l-2.3 13.5c-.1.5-1.7.7-3.7.4s-3.6-.8-3.5-1.3l1-13.7" class="st4"/><circle cx="27.7" cy="53.2" r="1.7" class="st4"/><circle cx="32.4" cy="55.7" r="1.7" class="st4"/><circle cx="32.3" cy="49.8" r="1.2" class="st4"/><circle cx="25.5" cy="58.3" r="1.2" class="st4"/><circle cx="29" cy="45.9" r="1.2" class="st4"/><circle cx="200.1" cy="53.2" r="1.7" class="st4"/><circle cx="195.4" cy="55.7" r="1.7" class="st4"/><circle cx="195.5" cy="49.8" r="1.2" class="st4"/><circle cx="202.8" cy="58.3" r="1.2" class="st4"/><circle cx="198.8" cy="45.9" r="1.2" class="st4"/><path d="M188.9 56.9c-19.8-16.8-45.4-27-73.4-27S61.8 40.1 42 56.9" class="st4"/><path d="M158 65.2c-12.8-7-27.4-11.1-43-11.1s-30.3 4-43 11.1" class="st4"/><path d="M115.2 54.2v11M117 54.2l3.6 7.4M120.2 54.3l5.1 4M113.3 54.2l-3.6 7.4M110.1 54.3l-5.1 4" class="st6"/><g><path d="M115.2 19c-1.2 0-2.1 0-3.9-2l.4-.6s-.7-1.1-.7-2.2l.4-.2s-.4-1.6 0-2.5l.6-.2s-.2-1.4.4-2.3h.5s.1-1 .6-1.4h.6l1.1-1 1.1 1h.6c.5.5.6 1.4.6 1.4h.5c.7.9.4 2.3.4 2.3l.6.2c.4.9 0 2.5 0 2.5l.4.2c0 1.1-.7 2.2-.7 2.2l.3.6c-1.8 2-2.7 2-3.8 2z" class="st7"/><path d="M115.2 10v19.4M116.7 12.1l-1.5 1.5-1.6-1.5M117.3 14.8l-2.1 2.2-2.2-2.2" class="st6"/><path d="M117.4 24.4c-.4-.8-.7-1.5 0-3.5l.5.1s.5-.9 1.3-1.3l.3.2s1-.9 1.8-.9l.4.4s.9-.7 1.8-.5l.2.3s.7-.2 1.3-.1l.2.4 1.1.4-.3 1.1.2.4c-.2.5-.8 1-.8 1l.1.3c-.4.8-1.5 1.1-1.5 1.1l.1.5c-.5.6-1.8.9-1.8.9v.4c-.8.4-1.8.3-1.8.3l-.3.5c-2.1-.6-2.4-1.2-2.8-2z" class="st7"/><path d="M123.8 21.2l-8.6 4.2M122.9 23l-1.7-.6.6-1.6M121.1 24.4l-2.3-.8.8-2.3" class="st6"/><g><path d="M112.9 24.4c.4-.8.7-1.5 0-3.5l-.5.1s-.5-.9-1.3-1.3l-.3.2s-1-.9-1.8-.9l-.4.4s-.9-.7-1.8-.5l-.2.3s-.7-.2-1.3-.1l-.2.4-1.1.4.3 1.1-.2.4c.2.5.8 1 .8 1l-.1.3c.4.8 1.5 1.1 1.5 1.1l-.1.5c.5.6 1.8.9 1.8.9v.4c.8.4 1.8.3 1.8.3l.3.5c2.1-.6 2.5-1.2 2.8-2z" class="st7"/><path d="M106.5 21.2l8.7 4.2M107.4 23l1.7-.6-.6-1.6M109.2 24.4l2.3-.8-.8-2.3" class="st6"/></g></g><circle cx="121.3" cy="63.2" r=".5" class="st2"/><circle cx="126.6" cy="59.4" r=".5" class="st2"/><circle cx="103.7" cy="59.4" r=".5" class="st2"/><circle cx="109" cy="63.2" r=".5" class="st2"/><g><path d="M152.6 66.4c-7.2-4-15-6.8-23.3-8.4M101.1 58c-8.5 1.5-16.4 4.4-23.7 8.4" class="st4"/></g><path d="M143.9 65.8c-4.7-2-9.6-3.5-14.7-4.6M101.1 61.2c-5.2 1-10.3 2.6-15 4.6" class="st4"/><g><path d="M55.9 69.9c-1.5 1.2-3 1.2-4.2-.4l-4.2-5.1c-1.4-1.7-1.1-3.2.3-4.4 1.4-1.2 2.8-.9 4.1.7l.8 1-1.2 1-.8-1c-.6-.8-1.4-1-2.1-.4-.7.6-.7 1.4 0 2.1l4.1 5c.7.8 1.5 1.2 2.2.6.7-.6.7-1.3 0-2.1l-.8-.9 1.2-1 .7.9c1.2 1.2 1.3 2.9-.1 4zM60.3 66.2l-7-10.2 1.3-.9 6.2 9 2.8-1.9.8 1.2-4.1 2.8zM70.8 59.7l-2.3-2.8-2.2 1.3 1.2 3.5-1.3.7L62 50.2l1.8-1 8.4 9.7-1.4.8zm-6.9-8.3l1.8 5.4 1.8-1-3.6-4.4zM76.6 57c-1.5.7-3 .2-3.8-1.7l-.2-.5 1.3-.6.1.2c.3.8 1 1.7 2.1 1.2.8-.4.8-1.2.3-2.2-.4-.9-1.3-1.3-2.1-1.5l-1.3-.3c-1-.2-2.2-.6-3-2.2-.8-1.8-.4-3.4 1.3-4.2 1.5-.7 2.9-.1 3.7 1.6l.2.5-1.2.7-.2-.5c-.3-.8-1-1.3-1.8-.9-.9.4-.9 1.3-.5 2.1.5 1.1 1.5 1.2 2.2 1.4l1.1.3c1.2.3 2.4.7 3.2 2.3.7 1.9.5 3.5-1.4 4.3zM84.2 54c-1.6.6-3 0-3.7-2l-.2-.5 1.4-.5.1.2c.3.8.8 1.8 2 1.4.9-.3.9-1.2.6-2.2-.3-.9-1.1-1.4-1.9-1.7l-1.3-.4c-1-.3-2.2-.8-2.8-2.5-.7-1.8-.1-3.4 1.7-4 1.6-.6 2.9.1 3.5 1.9l.2.6-1.4.5-.2-.5c-.3-.8-.9-1.4-1.7-1.1-.9.3-1 1.2-.7 2 .4 1.1 1.4 1.3 2.1 1.6l1 .4c1.2.4 2.4.9 3 2.6.7 1.9.3 3.5-1.7 4.2zM89.8 52l-3.3-12 1.5-.4 3.3 12-1.5.4zM97.4 50.4c-1.9.4-3.2-.3-3.6-2.3l-1.3-6.5c-.4-2.2.6-3.4 2.4-3.7 1.8-.3 2.9.6 3.3 2.5l.2 1.2-1.4.2-.2-1.2c-.2-1-.8-1.5-1.6-1.4-.9.2-1.2.9-1 1.8l1.2 6.3c.2 1 .7 1.7 1.7 1.5.9-.2 1.2-.8 1-1.9l-.2-1.2 1.5-.3.2 1.1c.3 2-.4 3.5-2.2 3.9zM110.4 48.8c-1.9.1-3.1-.8-3.2-2.8l-.4-6.6c-.1-2.2 1-3.3 2.9-3.4 1.8-.1 2.8 1 2.9 2.9l.1 1.3-1.5.1-.1-1.3c-.1-1-.5-1.6-1.4-1.6-.9 0-1.3.7-1.3 1.7l.4 6.4c.1 1 .5 1.8 1.5 1.8.9 0 1.3-.7 1.2-1.7l-.1-1.2 1.5-.1.1 1.1c.1 1.8-.8 3.3-2.6 3.4zM118.8 48.7c-1.9-.1-2.9-1.2-2.8-3.1l.2-6.7c.1-1.9 1.1-3.1 3.1-3 2 .1 2.9 1.4 2.8 3.3l-.2 6.5c-.1 1.7-1.1 3-3.1 3zm1.7-9.8c0-.9-.3-1.6-1.3-1.6s-1.4.7-1.4 1.5l-.2 6.7c0 .9.3 1.7 1.3 1.7s1.4-.7 1.4-1.6l.2-6.7zM124.9 48.8l1.5-12.3 1.6.2-1.3 10.9 3.3.4-.2 1.4-4.9-.6zM132.5 49.9l2.5-12.2 1.6.3-2.2 10.8 3.3.7-.3 1.4-4.9-1zM140 51.5l3.5-11.9 4.7 1.4-.4 1.4-3.2-.9-1.1 3.7 2.6.8-.4 1.4-2.6-.8-1.2 4.1 3.2.9-.4 1.4-4.7-1.5zM150 55.1c-1.8-.7-2.5-2-1.7-3.9l2.4-6.2c.8-2 2.3-2.5 4-1.9 1.7.7 2.1 2.1 1.4 3.9l-.5 1.2-1.4-.5.5-1.2c.4-.9.2-1.7-.6-2-.9-.3-1.5.1-1.9 1l-2.3 6c-.4 1-.3 1.9.6 2.2.9.3 1.5-.1 1.9-1l.4-1.1 1.4.5-.4 1c-.7 1.7-2 2.7-3.8 2zM162.9 48.6l-4.9 9.9-1.4-.7 4.9-9.9-1.9-.9.6-1.3 5.2 2.6-.6 1.3-1.9-1zM162.2 60.6l6.2-10.8 1.4.8-6.2 10.8-1.4-.8zM168.6 64.9c-1.6-1.1-1.8-2.6-.8-4.1l3.8-5.6c1.1-1.5 2.6-2 4.2-.9s1.7 2.7.7 4.3l-3.6 5.4c-1.1 1.4-2.7 2-4.3.9zm6.6-7.4c.5-.7.6-1.5-.2-2.1-.8-.6-1.5-.2-2 .6l-3.8 5.5c-.5.7-.6 1.5.2 2.1.9.6 1.5.2 2.1-.6l3.7-5.5zM177 71.1l3.7-9.2-6 7.3-1-.9 7.9-9.6 1.4 1.1-3.5 8.5 5.6-6.8 1.1.9-7.9 9.6-1.3-.9z" class="st2"/></g><g><defs><path id="SVGID_1_" d="M41.6 57.1c19.8-16.8 45.4-27 73.4-27s53.6 10.2 73.4 27l15.7-22.6L178.5 17 138.9 2.2 102-.1 53.6 12.2 25 35.6l16.6 21.5z"/></defs><clipPath id="SVGID_2_"><use overflow="visible" xlink:href="#SVGID_1_"/></clipPath><g clip-path="url(#SVGID_2_)"><path d="M131.2 17.2l-16 113.5M139.1 18.6l-23.9 112.1M146.8 20.5l-31.6 110.2M154.4 23l-39.2 107.7M161.9 26l-46.7 104.7M169.1 29.5l-53.9 101.2M176 33.5l-60.8 97.2M182.6 38l-67.4 92.7M188.9 42.9l-73.7 87.8M99.3 17.2l15.9 113.5M91.4 18.6l23.8 112.1M83.6 20.5l31.6 110.2M76 23l39.2 107.7M68.6 26l46.6 104.7M61.4 29.5l53.8 101.2M54.5 33.5l60.7 97.2M47.8 38l67.4 92.7M41.5 42.9l73.7 87.8" class="st4"/><g><path d="M126.3 25.4l-11.1 105.3M135.9 13.7l-20.7 117M144 15.4l-28.8 115.3M151.9 17.7l-36.7 113M159.7 20.6l-44.5 110.1M167.3 23.9l-52.1 106.8M174.6 27.8l-59.4 102.9M181.7 32.2l-66.5 98.5M188.4 37.1l-73.2 93.6M194.7 42.4l-79.5 88.3M104.1 25.2l11.1 105.5M94.6 13.7l20.6 117M86.5 15.4l28.7 115.3M78.5 17.7l36.7 113M70.7 20.6l44.5 110.1M63.1 23.9l52.1 106.8M55.8 27.8l59.4 102.9M48.8 32.2l66.4 98.5M42.1 37.1l73.1 93.6M35.7 42.4l79.5 88.3" class="st4"/></g></g></g><g><path d="M39.1 68.2c.3 1.7 1.1 7 1.3 8.2.1.6-5.1 1.8-5.2 1.2-.4-1.5-2-7.6-2.5-9.4 0 0 1.3-.9 3.2-.1 1.9.8 3.2.1 3.2.1z" class="st2"/><path d="M36.5 69.4c.2 0 .4-.3.3-.5l-.3-1.9c0-.2-.3-.4-.5-.3l-1.9.3c-.2 0-.4.3-.3.5l.4 1.9c0 .2.3.4.5.3l1.8-.3z" class="st3"/><path d="M35.4 70.4c0 .2.1.4.3.4l1.6.4c.2.1.4-.1.4-.3l.4-1.6c0-.2-.1-.4-.3-.4l-1.6-.4c-.2-.1-.4.1-.4.3l-.4 1.6z" class="st3"/><path d="M30.2 62.2v-2.8M31.4 62.3l1-1.5M29.2 62.3l-1-1.5" class="st4"/><ellipse cx="35.1" cy="64.2" class="st5" rx="4.3" ry="1.1" transform="rotate(-11.986 35.05464096 64.17665466)"/><path d="M30.8 65.1l3.5 13.2c.1.5 1.8.5 3.8.1 2-.4 3.5-1.2 3.4-1.6l-2.2-13.5" class="st4"/><path d="M21.9 68.9c-.1 1.7-.5 7-.6 8.3 0 .6 5.2 1.3 5.3.8.3-1.6 1.4-7.7 1.7-9.6 0 0-1.4-.8-3.2.2-1.9 1-3.2.3-3.2.3z" class="st2"/><path d="M24.6 69.9c-.2 0-.4-.2-.4-.5l.2-1.9c0-.2.2-.4.5-.4l1.9.2c.2 0 .4.2.4.5l-.2 1.9c0 .2-.2.4-.5.4l-1.9-.2z" class="st3"/><path d="M25.8 70.8c.1.2 0 .4-.2.5l-1.6.5c-.2.1-.4 0-.5-.2L23 70c-.1-.2 0-.4.2-.5l1.5-.5c.2-.1.4 0 .5.2l.6 1.6z" class="st3"/><ellipse cx="25.6" cy="64.6" class="st5" rx="1" ry="4.3" transform="rotate(-82.9 25.59593222 64.58536644)"/><path d="M29.9 65.1l-2.3 13.5c-.1.5-1.7.7-3.7.4s-3.6-.8-3.5-1.3l1-13.7" class="st4"/><path d="M128.5 129.8h22.3M127.6 133h13.9M126.7 136.2h5.5" class="st6"/><circle cx="152.7" cy="129.8" r=".5" class="st2"/><circle cx="154.6" cy="129.8" r=".5" class="st2"/><circle cx="156.4" cy="129.8" r=".5" class="st2"/><circle cx="143.4" cy="133" r=".5" class="st2"/><circle cx="145.3" cy="133" r=".5" class="st2"/><circle cx="147.1" cy="133" r=".5" class="st2"/><circle cx="134.2" cy="136.2" r=".5" class="st2"/><circle cx="136" cy="136.2" r=".5" class="st2"/><circle cx="137.9" cy="136.2" r=".5" class="st2"/><path d="M102 129.8H79.8M102.9 133H89M103.8 136.2h-5.5" class="st6"/><circle cx="77.8" cy="129.8" r=".5" class="st2"/><circle cx="75.9" cy="129.8" r=".5" class="st2"/><circle cx="74.1" cy="129.8" r=".5" class="st2"/><circle cx="87.1" cy="133" r=".5" class="st2"/><circle cx="85.2" cy="133" r=".5" class="st2"/><circle cx="83.3" cy="133" r=".5" class="st2"/><circle cx="96.3" cy="136.2" r=".5" class="st2"/><circle cx="94.5" cy="136.2" r=".5" class="st2"/><circle cx="92.6" cy="136.2" r=".5" class="st2"/><path d="M207.2 90c-1.7.6-3.4 1.3-5.1 2.2" class="st9"/><path d="M201.2 92.7c-7.2 3.8-13.9 9.7-19.8 15.8" class="st10"/><path d="M181.1 108.9c-1.3 1.4-2.5 2.8-3.8 4.1" class="st9"/><path d="M187.6 103c.5-1.8 1-3.5 1.4-5.2.4-1.7.8-3.4 1.1-5.2.3-1.7.6-3.5.7-5.2.2-1.8.3-3.5.5-5.4.6 1.7.9 3.6 1 5.4.1.9 0 1.8 0 2.8l-.3 2.7c-.3 1.8-.8 3.6-1.5 5.3-.8 1.7-1.7 3.4-2.9 4.8z" class="st2"/><g><path d="M189.5 100.4c2.1-3.8 4.3-7.4 6.1-11.2.9-1.9 1.8-3.8 2.6-5.7.8-2 1.4-4 1.9-6.1.2 2.2-.1 4.4-.6 6.5-.5 2.1-1.3 4.2-2.3 6.1-1 1.9-2.1 3.8-3.4 5.6-1.2 1.7-2.7 3.4-4.3 4.8z" class="st2"/></g><g><path d="M180.3 109.2l3.6-1.2c1.1-.4 2.3-.8 3.4-1.3 1.1-.4 2.2-.9 3.3-1.5 1.1-.5 2.2-1.1 3.4-1.7-.7 1.1-1.6 2.1-2.6 2.9-.5.4-1.1.8-1.6 1.1-.6.3-1.2.6-1.8.8-1.2.5-2.5.8-3.8.9-1.3.4-2.7.4-3.9 0z" class="st2"/></g><g><path d="M210 114.6c-1.9-.2-3.7-.4-5.6-.4" class="st9"/><path d="M203.4 114.1c-9.9-.3-19.2 1.1-27.5 3.4" class="st11"/><path d="M175.4 117.7c-.8.2-1.5.4-2.3.7-1 .3-2.1.7-3 1" class="st9"/><path d="M194.2 114.3c1.2-.7 2-1.5 2.8-2.5.8-.9 1.5-1.9 2.2-3 .7-1 1.3-2.1 2-3.2.3-.6.6-1.1 1-1.7.3-.6.7-1.1 1.1-1.7 0 .7-.1 1.3-.2 2s-.3 1.3-.5 1.9c-.2.6-.5 1.2-.7 1.9-.3.6-.6 1.2-1 1.8-.7 1.1-1.6 2.2-2.8 3-1.2.9-2.5 1.6-3.9 1.5z" class="st2"/><g><path d="M196 114.4c1.3-1 2.4-2 3.5-3s2.2-2.1 3.2-3.2c.5-.6 1-1.1 1.5-1.7.5-.6 1-1.2 1.5-1.7l1.5-1.8 1.5-1.8c-.2.8-.5 1.5-.8 2.3-.3.7-.6 1.4-1.1 2.1-.8 1.4-1.8 2.7-2.8 3.8-1.1 1.1-2.3 2.2-3.7 3.1-1.3.9-2.7 1.6-4.3 1.9z" class="st2"/></g><g><path d="M194.1 120.7l-3.4-1.5c-1.1-.5-2.2-.9-3.4-1.3-1.1-.4-2.3-.8-3.4-1.1-1.2-.4-2.4-.6-3.6-1 1.2-.4 2.6-.5 3.9-.4.7 0 1.3.2 1.9.3.6.2 1.3.3 1.9.5 1.2.4 2.4 1.1 3.4 1.8s2 1.6 2.7 2.7z" class="st2"/></g></g><g><path d="M205 95.7c.8-1.4 1.9-2.5 3.2-3.5 1.3-.9 2.8-1.6 4.3-2.1.4-.1.8-.2 1.2-.2.4-.1.8-.2 1.2-.2.8 0 1.6-.1 2.4.1 1.6.2 3.1.7 4.4 1.5-1.6 0-3-.1-4.5 0-1.4.1-2.9.3-4.2.7-1.4.3-2.7.9-4 1.5-1.4.6-2.7 1.4-4 2.2z" class="st2"/></g><g><path d="M200.3 98.2c1.4-1 3-1.4 4.7-1.6 1.7-.2 3.4 0 5 .4s3.2 1.1 4.6 2c.7.4 1.4 1 2 1.5.6.6 1.2 1.1 1.7 1.8-.8-.3-1.5-.7-2.2-1-.8-.3-1.5-.7-2.2-.9-.7-.3-1.4-.6-2.2-.8-.7-.3-1.5-.5-2.2-.7-1.5-.4-3-.7-4.5-.8-1.5-.2-3.1-.2-4.7.1z" class="st2"/></g><g><path d="M23.4 90c1.7.6 3.4 1.3 5.1 2.2" class="st9"/><path d="M29.4 92.7c7.2 3.8 13.9 9.7 19.8 15.8" class="st10"/><path d="M49.5 108.9c1.3 1.4 2.5 2.8 3.8 4.1" class="st9"/><path d="M43 103c-1.2-1.4-2.1-3.1-2.8-4.7-.7-1.7-1.2-3.5-1.5-5.3-.2-.9-.2-1.8-.3-2.7 0-.9-.1-1.8 0-2.8.1-1.8.4-3.7 1-5.4.2 1.8.2 3.6.5 5.4.2 1.8.4 3.5.7 5.2.3 1.7.7 3.4 1.1 5.2.3 1.6.8 3.3 1.3 5.1z" class="st2"/><g><path d="M41.1 100.4c-1.7-1.4-3.1-3.1-4.4-4.8-1.3-1.7-2.4-3.6-3.4-5.6-1-2-1.8-4-2.3-6.1-.5-2.1-.8-4.3-.6-6.5.6 2.1 1.2 4.1 1.9 6.1.8 1.9 1.6 3.9 2.6 5.7 2 3.8 4.1 7.4 6.2 11.2z" class="st2"/></g><g><path d="M50.3 109.2c-1.3.4-2.6.4-3.9.3-1.3-.1-2.6-.5-3.8-.9-.6-.2-1.2-.6-1.8-.8-.5-.4-1.1-.7-1.6-1.1-1-.8-1.9-1.8-2.6-2.9 1.2.5 2.3 1.2 3.4 1.7l3.3 1.5c1.1.5 2.2.9 3.4 1.3l3.6.9z" class="st2"/></g></g><g><path d="M20.5 114.6c1.9-.2 3.7-.4 5.6-.4" class="st9"/><path d="M27.2 114.1c9.9-.3 19.2 1.1 27.5 3.4" class="st11"/><path d="M55.2 117.7c.8.2 1.5.4 2.3.7 1 .3 2 .7 3 1" class="st9"/><path d="M36.4 114.3c-1.4.1-2.7-.6-3.8-1.4-1.1-.8-2-1.9-2.8-3-.4-.6-.7-1.2-1-1.8-.2-.6-.5-1.2-.7-1.9-.2-.6-.4-1.3-.5-1.9-.1-.7-.2-1.3-.2-2 .4.6.8 1.1 1.1 1.7.3.6.7 1.1 1 1.7.7 1.1 1.3 2.2 2 3.2.7 1.1 1.4 2 2.2 3 .7.9 1.5 1.7 2.7 2.4z" class="st2"/><g><path d="M34.6 114.4c-1.6-.3-3.1-1-4.4-1.8-1.4-.8-2.6-1.9-3.7-3.1-1.1-1.2-2.1-2.4-2.8-3.8-.4-.7-.7-1.4-1.1-2.1-.3-.7-.6-1.5-.8-2.3.6.6 1 1.2 1.5 1.8l1.5 1.8c.5.6 1 1.2 1.5 1.7.5.6 1 1.1 1.5 1.7 1 1.1 2.1 2.2 3.2 3.2 1.2.9 2.3 1.9 3.6 2.9z" class="st2"/></g><g><path d="M36.5 120.7c.7-1.1 1.7-2 2.7-2.8 1-.8 2.2-1.4 3.5-1.8.6-.2 1.2-.4 1.9-.5.7-.1 1.3-.2 1.9-.3 1.3-.1 2.6 0 3.9.4-1.3.4-2.5.7-3.6 1-1.2.3-2.3.7-3.4 1.1-1.1.4-2.2.9-3.4 1.3l-3.5 1.6z" class="st2"/></g></g><g><path d="M25.6 95.7c-1.3-.8-2.6-1.6-3.9-2.2-1.3-.6-2.7-1.2-4-1.5-1.4-.4-2.8-.6-4.2-.7-1.5-.1-2.9 0-4.5 0 1.4-.8 2.9-1.3 4.4-1.5.8-.1 1.6-.1 2.4-.1.4 0 .8.1 1.2.2s.8.1 1.2.2c1.5.4 3 1.1 4.3 2.1 1.2 1 2.3 2.1 3.1 3.5z" class="st2"/></g><g><path d="M30.3 98.2c-1.6-.3-3.2-.3-4.7-.2-1.5.1-3 .4-4.5.8-.7.2-1.5.4-2.2.7-.8.2-1.5.6-2.2.8-.7.3-1.4.6-2.2.9-.7.3-1.4.7-2.2 1 .5-.6 1.1-1.2 1.7-1.8.7-.5 1.3-1 2-1.5 1.4-.9 3-1.6 4.6-2 1.6-.4 3.3-.6 5-.4 1.6.2 3.3.7 4.7 1.7z" class="st2"/></g></g><g><path d="M122.7 127.8c0 4.1-3.3 7.4-7.4 7.5s-7.4-3.3-7.5-7.4l14.9-.1z" class="st6"/><path d="M124.5 127.8c0 5.1-4.1 9.3-9.2 9.3s-9.3-4.1-9.3-9.2l18.5-.1zM115.3 135.2l-.1-7.3M120.5 133.1l-5.3-5.2M110.1 133.1l5.1-5.2" class="st6"/></g></svg>