<svg viewBox="0 0 93.58 14.16" fill="currentColor"><defs><style>.cls-1{fill:#4c9c2e}</style></defs><g id="Layer_2" data-name="Layer 2"><g id="Layer_1-2" data-name="Layer 1"><g id="Title_mid" data-name="Title mid"><path d="M93.33 12A96.41 96.41 0 0052.44.17a.34.34 0 00-.1 0C51.23.1 50.11.06 49 0h-4A96.31 96.31 0 00.26 12a.51.51 0 00-.2.68.51.51 0 00.68.2A95.27 95.27 0 0139.93 1.26l-4.2 3.25a.5.5 0 00-.09.7.47.47 0 00.36.19.5.5 0 00.31-.1l5.37-4.15c.81 0 1.63-.09 2.45-.11l-3.49 7.19a.49.49 0 00.23.66.43.43 0 00.22.06.52.52 0 00.45-.28L45.28 1h1.18v11.4a.5.5 0 00.5.5.5.5 0 00.5-.5V1h1.19l3.74 7.64a.51.51 0 00.45.28.46.46 0 00.22-.06.49.49 0 00.23-.66l-3.52-7.15c.82 0 1.65.07 2.47.11l5.35 4.14a.5.5 0 00.61-.79L54 1.29a95.26 95.26 0 0138.84 11.56.53.53 0 00.24.06.49.49 0 00.44-.26.5.5 0 00-.19-.65z" class="cls-1"/><circle cx="53.59" cy="10.25" r=".53" class="cls-1"/><circle cx="59.31" cy="6.13" r=".53" class="cls-1"/><circle cx="34.68" cy="6.13" r=".53" class="cls-1"/><circle cx="40.34" cy="10.25" r=".53" class="cls-1"/><path d="M87.52 13.23a83.65 83.65 0 00-25.26-9.06.51.51 0 00-.59.4.5.5 0 00.41.58 82.67 82.67 0 0125 9 .53.53 0 00.24.06.49.49 0 00.24-.93zM31.73 4.1a83.59 83.59 0 00-25.67 9.13.5.5 0 00-.2.68.52.52 0 00.44.25.5.5 0 00.24-.06 82.78 82.78 0 0125.37-9 .51.51 0 00.41-.58.5.5 0 00-.59-.42zM78.13 12.59a78.34 78.34 0 00-15.87-4.93.48.48 0 00-.58.39.5.5 0 00.39.59 77.84 77.84 0 0115.67 4.87.43.43 0 00.19 0 .49.49 0 00.46-.3.49.49 0 00-.26-.62zM31.73 7.58a78.9 78.9 0 00-16.28 5 .5.5 0 00.2 1 .45.45 0 00.2 0 77.5 77.5 0 0116.07-5.02.5.5 0 00.39-.56.48.48 0 00-.58-.42z" class="cls-1"/></g></g></g></svg>