<svg viewBox="0 0 191.47 57.87" fill="currentColor"><defs><style>.cls-1{fill:#4c9c2e}</style></defs><g id="Layer_2" data-name="Layer 2"><g id="Layer_1-2" data-name="Layer 1"><g id="Title_top" data-name="Title top"><path d="M46.65 35.2l.92-.39-7.77-15.92a.49.49 0 00-.66-.23.5.5 0 00-.23.67zM39.64 38.44l.9-.44-8.63-14.95a.49.49 0 00-.68-.18.5.5 0 00-.19.68zM32.87 42.2l.85-.52-9.4-13.93a.5.5 0 10-.82.56zM26.36 46.45l.82-.57L17.09 33a.5.5 0 00-.79.62zM4.24 48.16a2.34 2.34 0 102.33 2.33 2.33 2.33 0 00-2.33-2.33zm0 3.67a1.34 1.34 0 111.33-1.34 1.33 1.33 0 01-1.33 1.34zM9.32 50.83a2.33 2.33 0 102.34 2.33 2.33 2.33 0 00-2.34-2.33zm0 3.66a1.33 1.33 0 111.34-1.33 1.33 1.33 0 01-1.34 1.33zM9.17 48.64a1.83 1.83 0 10-1.82-1.82 1.82 1.82 0 001.82 1.82zm0-2.65a.83.83 0 11-.82.83.83.83 0 01.82-.82zM1.82 54.22a1.83 1.83 0 101.82 1.83 1.83 1.83 0 00-1.82-1.83zm0 2.65a.83.83 0 11.82-.82.82.82 0 01-.82.82zM5.67 40.87a1.82 1.82 0 101.82 1.82 1.83 1.83 0 00-1.82-1.82zm0 2.64a.82.82 0 11.82-.82.82.82 0 01-.82.82zM189.08 50.56a2.33 2.33 0 10-2.33 2.33 2.33 2.33 0 002.33-2.33zm-2.33 1.33a1.34 1.34 0 111.33-1.33 1.33 1.33 0 01-1.33 1.33zM181.67 50.89a2.34 2.34 0 102.33 2.33 2.34 2.34 0 00-2.33-2.33zm0 3.67a1.34 1.34 0 111.33-1.34 1.34 1.34 0 01-1.33 1.34zM180 46.88a1.82 1.82 0 101.82-1.82 1.82 1.82 0 00-1.82 1.82zm1.82-.82a.82.82 0 11-.82.82.82.82 0 01.82-.82zM189.65 54.22a1.83 1.83 0 101.82 1.78 1.83 1.83 0 00-1.82-1.78zm0 2.65a.83.83 0 11.82-.83.83.83 0 01-.82.83zM187.14 42.75a1.82 1.82 0 10-1.82 1.83 1.83 1.83 0 001.82-1.83zm-2.64 0a.82.82 0 111.64 0 .82.82 0 11-1.64 0z" class="cls-1"/><path d="M170.91 50.89l10.4-11.55a.5.5 0 00-.75-.67l-10.45 11.61c-.77-.6-1.55-1.18-2.34-1.75l7.3-8.7a.51.51 0 00-.06-.71.49.49 0 00-.7.06L167 47.94c-.79-.57-1.58-1.12-2.38-1.67l9.91-12.69a.5.5 0 00-.79-.62l-9.95 12.75c-.81-.54-1.62-1.07-2.43-1.58l7-9.63a.5.5 0 10-.81-.59l-7 9.68c-.82-.51-1.64-1-2.47-1.5l9.3-13.78a.51.51 0 00-.14-.7.5.5 0 00-.69.14l-9.34 13.83c-.83-.48-1.66-.95-2.51-1.41l6.57-10.52A.49.49 0 00161 29a.51.51 0 00-.69.16l-6.6 10.57c-.84-.45-1.69-.9-2.54-1.33l8.55-14.81a.5.5 0 00-.19-.68.49.49 0 00-.68.18l-8.54 14.81c-.86-.43-1.72-.84-2.58-1.25l6-11.33a.5.5 0 10-.88-.47l-6.05 11.39c-.87-.4-1.74-.79-2.62-1.17l7.68-15.74a.5.5 0 10-.89-.44l-7.7 15.79-2.64-1.08L146 21.51a.5.5 0 00-.25-.66.49.49 0 00-.66.26l-5.41 12.13c-.88-.34-1.77-.67-2.66-1l6.7-16.58a.5.5 0 00-.93-.38l-6.71 16.62c-.9-.31-1.79-.62-2.69-.91l4.64-12.75a.5.5 0 10-.94-.34l-4.62 12.8c-.9-.29-1.81-.56-2.72-.82l5.62-17.3a.49.49 0 00-.32-.63.51.51 0 00-.63.32l-5.63 17.34c-.9-.26-1.81-.5-2.73-.74l3.82-13.31a.5.5 0 00-1-.28l-3.83 13.34c-.91-.23-1.82-.44-2.74-.65l4.46-17.88a.51.51 0 00-.37-.61.5.5 0 00-.6.37l-4.47 17.92c-.92-.2-1.84-.39-2.76-.56l2.92-13.77a.49.49 0 00-.38-.59.52.52 0 00-.6.39L117.63 27c-.93-.17-1.85-.33-2.78-.48l3.24-18.32a.51.51 0 00-.41-.58.5.5 0 00-.58.41l-3.24 18.36c-.92-.14-1.85-.26-2.78-.38l2-14.1a.5.5 0 00-.43-.56.49.49 0 00-.56.42l-2 14.12q-1.38-.16-2.76-.3l.51-4.81a.49.49 0 00-.45-.55.5.5 0 00-.55.44l-.5 4.82c-3.49-.3-7-.46-10.51-.46V21l1.66-.82c.48.83 1.13 1.47 3.05 2.06a.39.39 0 00.15 0 .49.49 0 00.43-.24l.14-.23a4.09 4.09 0 001.88-.36.51.51 0 00.27-.42 3.65 3.65 0 001.84-.99.48.48 0 00.1-.35v-.16a3.07 3.07 0 001.52-1.27.51.51 0 000-.42 2.61 2.61 0 00.75-1 .53.53 0 000-.39l-.15-.27.3-1a.48.48 0 00-.3-.6l-1-.39-.13-.28a.5.5 0 00-.28-.27 2.55 2.55 0 00-1.28 0 .47.47 0 00-.34-.24 3.05 3.05 0 00-1.94.42l-.11-.11a.48.48 0 00-.34-.14 3.8 3.8 0 00-1.95.82.5.5 0 00-.5 0 3.91 3.91 0 00-1.44 1.27h-.26a.5.5 0 00-.53.32c-.7 1.89-.6 2.79-.23 3.67l-1.22.6v-5.92c1.22-.06 2.28-.4 4-2.25a.5.5 0 000-.62l-.22-.35a5 5 0 00.66-2.31.52.52 0 00-.26-.43l-.1-.07a4.5 4.5 0 00-.12-2.65.51.51 0 00-.28-.24l-.27-.1a3.78 3.78 0 00-.57-2.42.51.51 0 00-.37-.21h-.12a3.16 3.16 0 00-.74-1.44.6.6 0 00-.37-.14h-.43l-1-.94a.52.52 0 00-.68 0l-1 .94h-.43a.6.6 0 00-.37.14 3.09 3.09 0 00-.75 1.44h-.2a.51.51 0 00-.37.21 3.91 3.91 0 00-.57 2.42l-.27.1a.49.49 0 00-.27.24 4.51 4.51 0 00-.13 2.65l-.12.07a.48.48 0 00-.26.43 5 5 0 00.69 2.31l-.22.35a.51.51 0 00.06.62c1.76 1.85 2.82 2.19 4 2.25v5.63l-1.22-.6c.37-.88.48-1.78-.22-3.67a.5.5 0 00-.53-.32h-.27a3.87 3.87 0 00-1.43-1.27.5.5 0 00-.5 0 3.63 3.63 0 00-1.95-.82.48.48 0 00-.34.14l-.11.11a3.05 3.05 0 00-1.94-.42.49.49 0 00-.35.24 2.55 2.55 0 00-1.28 0 .55.55 0 00-.29.27l-.12.28-1 .39a.5.5 0 00-.3.6l.3 1-.14.27a.48.48 0 000 .39 2.44 2.44 0 00.75 1 .48.48 0 000 .42 3.1 3.1 0 001.51 1.27v.16a.48.48 0 00.09.35A3.69 3.69 0 0087.25 21a.51.51 0 00.27.42 4.11 4.11 0 001.89.36l.14.23a.47.47 0 00.43.24.34.34 0 00.14 0c1.93-.59 2.58-1.23 3-2.06l1.66.82v4q-5.19 0-10.34.5L84 20.42a.5.5 0 00-1 .1l.54 5.12c-.94.09-1.87.2-2.8.31l-2-14.18a.5.5 0 00-1 .14l2 14.16c-.93.12-1.85.26-2.78.4L73.69 8a.5.5 0 00-.58-.41.51.51 0 00-.41.58L76 26.63c-.92.15-1.84.31-2.76.49l-3-13.88a.52.52 0 00-.6-.39.49.49 0 00-.38.59L72.2 27.3c-.92.18-1.84.37-2.75.57L65 9.85a.5.5 0 00-.6-.37.51.51 0 00-.37.61l4.49 18c-.91.21-1.83.43-2.74.66l-3.91-13.47a.5.5 0 00-1 .28L64.77 29l-2.77.74-5.63-17.47a.51.51 0 00-.63-.32.49.49 0 00-.32.63L61.08 30c-.9.26-1.8.54-2.7.83l-4.71-12.92a.5.5 0 00-.94.34l4.7 12.91c-.9.3-1.79.6-2.68.92L48 15.29a.5.5 0 00-.93.38l6.77 16.74c-.89.32-1.78.66-2.66 1l-5.47-12.3a.5.5 0 10-.92.4l5.46 12.27q-3.14 1.22-6.17 2.65l-6.16-11.58a.5.5 0 00-.68-.21.5.5 0 00-.2.68l6.13 11.54q-3 1.44-6 3l-6.72-10.74a.51.51 0 00-.69-.16.49.49 0 00-.16.69l6.7 10.73c-2 1.09-3.9 2.24-5.81 3.44l-7.2-9.91a.5.5 0 10-.81.59l7.16 9.86c-1.9 1.21-3.77 2.49-5.61 3.82l-7.55-9a.49.49 0 00-.7-.06.51.51 0 00-.06.71l7.5 8.94c-.78.57-1.56 1.15-2.33 1.75L10.23 38.67a.5.5 0 00-.75.67L20.1 51.13q-1.91 1.5-3.75 3.07a.5.5 0 00.65.8 121.43 121.43 0 01157.34 0 .49.49 0 00.32.12.46.46 0 00.38-.18.49.49 0 00-.05-.7c-1.35-1.18-2.7-2.24-4.08-3.35zM98.09 16.37h.17a.5.5 0 00.49-.25 3.58 3.58 0 01.94-1l.09.06a.5.5 0 00.61 0 3.78 3.78 0 011.41-.8l.23.22a.49.49 0 00.64 0 2.75 2.75 0 011.32-.48l.07.12a.51.51 0 00.59.22 2.3 2.3 0 01.84-.11l.11.24a.51.51 0 00.27.27l.76.29-.22.79a.46.46 0 000 .38l.12.23a2.24 2.24 0 01-.6.6.51.51 0 00-.18.6v.13a2.65 2.65 0 01-1.19.75.5.5 0 00-.35.54v.31a3.69 3.69 0 01-1.49.63.5.5 0 00-.41.47v.1a3.45 3.45 0 01-1.38.12.5.5 0 00-.49.24l-.09.15a3.25 3.25 0 01-2.08-1.42l.91-.45 2.28.78h.16a.5.5 0 00.48-.34.49.49 0 00-.32-.63l-1.33-.45 1.35-.67 1.58.54h.16a.5.5 0 00.16-1l-.63-.21 1.71-.85a.5.5 0 10-.44-.89l-1.71.84.21-.63a.5.5 0 00-.94-.32l-.54 1.57-1.35.67.45-1.34a.5.5 0 00-.94-.32l-.78 2.28-.91.45a3.26 3.26 0 01.26-2.43zm-5.37 2.51l-.91-.45-.81-2.28a.5.5 0 00-.64-.31.5.5 0 00-.31.63l.46 1.34-1.36-.67-.53-1.57a.5.5 0 00-.64-.31.5.5 0 00-.31.63l.22.63-1.72-.84a.5.5 0 00-.44.89l1.71.85-.62.21a.5.5 0 00.16 1h.16l1.6-.63 1.36.67-1.34.45a.5.5 0 00.16 1h.16l2.29-.78.91.45a3.28 3.28 0 01-2.08 1.41l-.09-.15a.51.51 0 00-.43-.24h-.07a3.62 3.62 0 01-1.37-.12v-.1a.49.49 0 00-.4-.47 3.69 3.69 0 01-1.49-.63v-.31a.5.5 0 00-.36-.54 2.76 2.76 0 01-1.19-.75l.05-.13a.51.51 0 00-.18-.6 2.39 2.39 0 01-.6-.6l.13-.23a.5.5 0 000-.38l-.2-.79.76-.29a.5.5 0 00.28-.27l.11-.24a2.33 2.33 0 01.84.11.49.49 0 00.58-.22l.07-.12a2.69 2.69 0 011.33.48.5.5 0 00.64 0l.23-.22a3.74 3.74 0 011.4.8.51.51 0 00.62 0l.08-.06a3.27 3.27 0 01.94 1 .53.53 0 00.49.25h.18a3.26 3.26 0 01.17 2.5zm2.11-12.12L94 6a.5.5 0 10-.71.71l1.51 1.51v2.24L93.37 9a.5.5 0 00-.71 0 .5.5 0 000 .7l2.17 2.17v1.46c-.85 0-1.64-.26-3-1.66l.17-.27a.5.5 0 000-.55 4.4 4.4 0 01-.65-1.76l.19-.1a.5.5 0 00.24-.57 4.78 4.78 0 01-.11-2.15l.43-.16a.5.5 0 00.33-.55 3.35 3.35 0 01.23-1.9h.24a.5.5 0 00.46-.42 3 3 0 01.4-1.12h.4a.52.52 0 00.33-.12l.84-.77.84.77a.55.55 0 00.36.13h.4a3 3 0 01.41 1.12.48.48 0 00.46.42h.24a3.45 3.45 0 01.23 1.9.49.49 0 00.32.55l.43.16a4.59 4.59 0 01-.1 2.15.5.5 0 00.24.57l.18.1a4.65 4.65 0 01-.64 1.76.5.5 0 000 .55l.18.27c-1.4 1.4-2.18 1.62-3 1.66v-1.51L98 9.66A.48.48 0 0098 9a.5.5 0 00-.71 0l-1.46 1.46V8.18l1.51-1.51a.5.5 0 000-.71.51.51 0 00-.71 0l-.8.8V4.07a.5.5 0 00-.5-.5.51.51 0 00-.5.5z" class="cls-1"/></g></g></g></svg>