<svg viewBox="0 0 24 24" fill="currentColor"><path d="M12 11c-.552 0-1 .447-1 1s.448 1 1 1 1-.447 1-1-.448-1-1-1zm0 5c-.552 0-1 .447-1 1s.448 1 1 1 1-.447 1-1-.448-1-1-1zm0-10c-.552 0-1 .447-1 1s.448 1 1 1 1-.447 1-1-.448-1-1-1zm9 1c0-.771-.3-1.469-.779-2C20.7 4.469 21 3.771 21 3c0-1.657-1.343-3-3-3-.772 0-1.468.3-2 .778C15.468.3 14.772 0 14 0s-1.468.3-2 .778C11.468.3 10.772 0 10 0S8.532.3 8 .778C7.468.3 6.772 0 6 0 4.343 0 3 1.343 3 3c0 .771.3 1.469.778 2C3.3 5.531 3 6.229 3 7c0 1.045.535 1.963 1.345 2.5C3.535 10.037 3 10.955 3 12s.535 1.963 1.345 2.5C3.535 15.037 3 15.955 3 17c0 .771.3 1.469.778 2C3.3 19.531 3 20.229 3 21c0 1.657 1.343 3 3 3 .772 0 1.468-.3 2-.778.532.478 1.228.778 2 .778s1.468-.3 2-.778c.532.478 1.228.778 2 .778s1.468-.3 2-.778c.532.478 1.228.778 2 .778 1.657 0 3-1.343 3-3 0-.771-.3-1.469-.779-2 .479-.531.779-1.229.779-2 0-1.045-.536-1.963-1.346-2.5.81-.537 1.346-1.455 1.346-2.5s-.536-1.963-1.346-2.5C20.464 8.963 21 8.045 21 7zm-3-1c.552 0 1 .447 1 1s-.448 1-1 1-1 .672-1 1.5.448 1.5 1 1.5 1 .447 1 1-.448 1-1 1-1 .672-1 1.5.448 1.5 1 1.5 1 .447 1 1-.448 1-1 1-1 .447-1 1 .448 1 1 1 1 .447 1 1-.448 1-1 1-1-.447-1-1-.448-1-1-1-1 .447-1 1-.448 1-1 1-1-.447-1-1-.448-1-1-1-1 .447-1 1-.448 1-1 1-1-.447-1-1-.448-1-1-1-1 .447-1 1-.448 1-1 1-1-.447-1-1 .448-1 1-1 1-.447 1-1-.448-1-1-1-1-.447-1-1 .448-1 1-1 1-.672 1-1.5S6.552 13 6 13s-1-.447-1-1 .448-1 1-1 1-.672 1-1.5S6.552 8 6 8s-1-.447-1-1 .448-1 1-1 1-.447 1-1-.448-1-1-1-1-.447-1-1 .448-1 1-1 1 .447 1 1 .448 1 1 1 1-.447 1-1 .448-1 1-1 1 .447 1 1 .448 1 1 1 1-.447 1-1 .448-1 1-1 1 .447 1 1 .448 1 1 1 1-.447 1-1 .448-1 1-1 1 .447 1 1-.448 1-1 1-1 .447-1 1 .448 1 1 1z"/></svg>