<svg viewBox="0 0 24 24" fill="currentColor"><path d="M11 10h2c-3.5-3.5 3.188-6.813 0-10h-2c3.394 3.394-3.5 6.5 0 10zm5 0h2c-3.5-3.5 3.188-6.813 0-10h-2c3.394 3.394-3.5 6.5 0 10zm7 1H1c-.553 0-1 .447-1 1 0 4.432 2.88 7.908 7 9.603V23c0 .553.447 1 1 1h8c.553 0 1-.447 1-1v-1.397c4.12-1.694 7-5.171 7-9.603 0-.553-.447-1-1-1zm-7 9c-.553 0-1 .447-1 1v1H9v-1c0-.553-.447-1-1-1-3.203-1.261-5.511-3.788-5.916-7h19.832c-.405 3.212-2.714 5.739-5.916 7zM6 10h2C4.5 6.5 11.188 3.188 8 0H6c3.394 3.394-3.5 6.5 0 10z"/></svg>