<svg viewBox="0 0 24 24" fill="currentColor"><path d="M23.442 7.114l.005-.009-2.838-1.419.36-1.444-.018-.004C20.972 4.16 21 4.084 21 4c0-.553-.447-1-1-1-.085 0-.162.021-.239.042l-.003-.012-1.444.36L16.895.552l-.009.005C16.721.23 16.391 0 16 0c-.553 0-1 .447-1 1v5.28c-1.618-.589-3.498-.247-4.796 1.051l-2.873 2.873C6.033 11.502 5.691 13.382 6.28 15H1c-.553 0-1 .447-1 1 0 .391.23.721.558.886l-.005.009 2.838 1.419-.36 1.444.018.004C3.028 19.84 3 19.916 3 20c0 .553.447 1 1 1 .085 0 .162-.021.239-.042l.003.012 1.444-.36 1.419 2.838.009-.005c.165.327.495.557.886.557.553 0 1-.447 1-1v-5.28c1.618.589 3.498.247 4.796-1.051l2.873-2.873c1.298-1.298 1.64-3.178 1.051-4.796H23c.553 0 1-.447 1-1 0-.391-.23-.721-.558-.886zM7 18.219l-1.626.407L5.781 17H7v1.219zm8.232-5.86l-2.873 2.873c-.992.992-2.6.992-3.592 0s-.992-2.6 0-3.592l2.873-2.873c.992-.992 2.6-.992 3.592 0s.993 2.6 0 3.592zM18.219 7H17V5.781l1.626-.407L18.219 7z"/></svg>