<svg viewBox="0 0 24 24" fill="currentColor"><path d="M19 7h-2c-.552 0-1 .447-1 1 0 .161.047.308.115.442l-.009.005 2 2 .009-.005c.164.328.494.558.885.558.552 0 1-.447 1-1V8c0-.553-.448-1-1-1zm1-4h-1.382l.267-.558C18.953 2.308 19 2.161 19 2c0-.553-.448-1-1-1H2c-.552 0-1 .447-1 1 0 .552.448 1 1 1 1 0 2 1.343 2 3 0 .828-.492 1.547-1.004 1.965C2.996 7.965 0 10.044 0 15c0 5.522 4.477 8 10 8s10-2.478 10-8c2.209 0 4-1.791 4-4V7c0-2.209-1.791-4-4-4zm2 8c0 1.104-.896 2-2 2h-1c-.552 0-1 .447-1 1v1c0 4.418-3.582 6-8 6s-8-1.582-8-6c0-3.386 2.223-5.59 2.223-5.59C4.815 8.818 6 7.381 6 6c0-1.131-.39-2.162-1.022-3h11.404l-.276.553c-.001 0-.106.121-.106.447 0 .552.448 1 1 1h3c1.104 0 2 .896 2 2v4z"/></svg>