<svg viewBox="0 0 24 24" fill="currentColor"><path d="M23 0h-4c-.321 0-.594.161-.776.396l-.013-.01L13.844 6H8c0-2.209-1.791-4-4-4S0 3.791 0 6c0 .553.448 1 1 1h2c0 .276.112.526.293.707L11 15.414V22H8c-.552 0-1 .447-1 1 0 .552.448 1 1 1h8c.552 0 1-.448 1-1 0-.553-.448-1-1-1h-3v-6.586l7.707-7.707S21 7.546 21 7c0-.553-.448-1-1-1h-3.622l3.111-4H23c.552 0 1-.447 1-1s-.448-1-1-1zM4 6c0-.553-.448-1-1-1h-.722c.346-.596.984-1 1.722-1 1.104 0 2 .896 2 2H4zm13.586 2L12 13.586 6.414 8h5.875L11.21 9.386l.013.01c-.132.169-.223.373-.223.604 0 .553.448 1 1 1 .321 0 .594-.161.776-.396l.013.011L14.822 8h2.764z"/></svg>