<svg viewBox="0 0 24 24" fill="currentColor"><path d="M23.836 16.38l.017-.011-2.864-4.98C20.93 10.061 19.843 9 18.5 9H17c0-1.657-1.343-3-3-3h-4C8.343 6 7 7.343 7 9H5.5c-1.343 0-2.43 1.061-2.489 2.389l-2.863 4.98.017.011c-.1.158-.165.338-.165.543C0 17.518.462 18 1.032 18c.212 0 .398-.083.562-.197l.011.017 2.178-1.515c.45.428 1.059.695 1.733.695l4.524-.697.065.145.009-.005c.165.327.495.557.886.557h2c.391 0 .721-.23.886-.558l.009.005.064-.144c1.909.295 4.525.697 4.525.697.674 0 1.282-.267 1.733-.695l2.178 1.515.01-.017c.164.114.351.197.563.197.57 0 1.032-.482 1.032-1.077 0-.205-.066-.385-.164-.543zM6.019 15c-.986 0-1.006-1-1.006-1l-.012-1.884.013-.023L5 12.084V12c0-.553.447-1 1-1h1.64l1.569 3.467-3.19.533zm6.387 0h-.813L9.25 9.784C9.135 9.602 9 9.325 9 9c0-.553.447-1 1-1h4c.553 0 1 .447 1 1 0 .325-.135.57-.25.784L12.406 15zm6.593-2.916l-.014.009.014.023L18.987 14s-.02 1-1.006 1l-3.19-.533L16.36 11H18c.553 0 1 .447 1 1l-.001.084z"/></svg>