<svg viewBox="0 0 24 24" fill="currentColor"><path d="M6.995 10c-.553 0-1 .447-1 1s.447 1 1 1c.553 0 1-.447 1-1s-.448-1-1-1zm4.001-1c-.553 0-1 .447-1 1v4c0 .553.447 1 1 1 .553 0 1-.447 1-1v-4c0-.553-.447-1-1-1zM23 4c-.275 0-.525.112-.707.293L18.999 8c-2.103-1.754-5.039-3-8.003-3C6.112 5 1.915 7.872 0 12c1.915 4.128 6.112 7 10.996 7 2.964 0 5.9-1.246 8.003-3l3.294 3.707c.18.182.43.293.707.293.553 0 1-.447 1-1V5c0-.553-.447-1-1-1zm-1 12.586L18.999 13c-1.849 2.275-4.825 4-8.003 4-3.732 0-6.983-2.014-8.728-5 1.745-2.986 4.996-5 8.728-5 3.178 0 6.154 1.724 8.003 4L22 7.414v9.172z"/></svg>