<svg viewBox="0 0 24 24" fill="currentColor"><path d="M1 9h22c.553 0 1-.447 1-1 0-4.418-5.373-8-12-8S0 3.582 0 8c0 .553.447 1 1 1zm11-7c4.954 0 9.055 2.163 9.85 5H2.15C2.945 4.163 7.046 2 12 2zM2 16c0 .553.447 1 1 1h18c.553 0 1-.447 1-1s-.447-1-1-1H3c-.553 0-1 .447-1 1zm5.555-2.109c.134.067.284.109.445.109s.311-.042.445-.109L12 12.118l3.555 1.772c.134.068.284.11.445.11s.311-.042.445-.109l4.002-1.996S21 11.743 21 11c0-.553-.447-1-1-1-.327 0-.447.105-.447.105L16 11.882l-3.555-1.772c-.134-.068-.284-.11-.445-.11-.327 0-.447.105-.447.105L8 11.882 4.445 10.11C4.311 10.042 4.161 10 4 10c-.553 0-1 .447-1 1 0 .392.227.727.555.891l4 2zM21 18H3c-1.657 0-3 1.343-3 3s1.343 3 3 3h18c1.657 0 3-1.343 3-3s-1.343-3-3-3zm0 4H3c-.553 0-1-.447-1-1s.447-1 1-1h18c.553 0 1 .447 1 1s-.447 1-1 1z"/></svg>