<svg viewBox="0 0 24 24" fill="currentColor"><path d="M21.972 5.861C21.901 5.378 21.503 5 21 5V4c0-2.209-1.791-4-4-4s-4 1.791-4 4v1c-.503 0-.901.378-.972.861l-.359 2.414C11.494 8.107 11.264 8 11 8V7c0-2.209-1.791-4-4-4S3 4.791 3 7v1c-.503 0-.901.378-.972.861l-2 14C.021 22.908 0 22.951 0 23c0 .553.447 1 1 1h12c.553 0 1-.447 1-1 0-.049-.021-.092-.028-.139L13.71 21H23c.475 0 1-.43 1-1L21.972 5.861zM5 7c0-1.104.896-2 2-2s2 .896 2 2v1H5V7zM2.153 22l1.714-12h6.266l1.714 12H2.153zM15 4c0-1.104.896-2 2-2s2 .896 2 2v1h-4V4zm-1.562 15h-.01l-.633-4.5L13.867 7h6.266l1.714 12h-8.409zM8 12H6c-.553 0-1 .447-1 1v6c0 .553.447 1 1 1s1-.447 1-1v-2h1c.553 0 1-.447 1-1v-3c0-.553-.447-1-1-1zm0 4H7v-3h1v3zm9-6c.553 0 1 .447 1 1h1c0-1.104-.896-2-2-2s-2 .896-2 2c0 .555.289 1.088.592 1.419 0 0 2.197 3.581 1.408 3.581-.553 0-1-.447-1-1h-1c0 1.104.896 2 2 2s2-.896 2-2c0-.555-.289-1.088-.592-1.419 0 0-2.353-3.581-1.408-3.581z"/></svg>