<svg viewBox="0 0 24 24" fill="currentColor"><path d="M4.62 17.077c-.363.15-.62.505-.62.923 0 .553.447 1 1 1 .135 0 .263-.028.38-.077l.001.002.007-.003c.001-.001.002-.001.002-.001l16.991-6.996-.001-.002c.363-.15.62-.506.62-.923 0-.553-.447-1-1-1-.135 0-.263.028-.38.077l-.001-.002-.007.003c-.001 0-.002.001-.003.001l-16.99 6.996.001.002zM15 10c2.209 0 4-1.343 4-3V3c0-1.657-1.791-3-4-3s-4 1.343-4 3v4c0 1.657 1.791 3 4 3zm0-8c1.104 0 2 .447 2 1 0 .552-.896 1-2 1s-2-.448-2-1c0-.553.896-1 2-1zm-2 3.584c.591.258 1.268.416 2 .416s1.409-.158 2-.416V7c0 .552-.896 1-2 1s-2-.448-2-1V5.584zM22 15c-.135 0-.263.028-.38.077l-.001-.002-.007.003c-.001.001-.002.001-.003.001l-16.99 6.996.001.002c-.363.15-.62.505-.62.923 0 .553.447 1 1 1 .135 0 .263-.028.38-.077l.001.002.007-.003c.001-.001.002-.001.002-.001l16.991-6.996-.001-.002c.363-.15.62-.506.62-.923 0-.553-.447-1-1-1zM9 11V7c0-1.657-1.791-3-4-3S1 5.343 1 7v4c0 1.657 1.791 3 4 3s4-1.343 4-3zM5 6c1.104 0 2 .447 2 1 0 .552-.896 1-2 1s-2-.448-2-1c0-.553.896-1 2-1zm-2 5V9.584c.59.258 1.268.416 2 .416s1.409-.158 2-.416V11c0 .553-.896 1-2 1s-2-.447-2-1z"/></svg>