<svg viewBox="0 0 24 24" fill="currentColor"><path d="M20 3.5c-.638 0-3.437.987-3.437.987C15.869 3.888 14.99 3.5 14 3.5c-.205 0-.287.042-.287.042l-9.934 2.98C1.675 6.64 0 8.366 0 10.5c0 1.861 1.277 3.412 3 3.858V19.5c0 .553.447 1 1 1h6c.101 0 .191-.029.283-.057l.004.015 9.996-3.015c.411-.124.717-.491.717-.943v-5.142c1.723-.446 3-1.997 3-3.858 0-2.209-1.791-4-4-4zM9.713 12.542S9 12.671 9 13.5v5H5v-5c0-.553-.447-1-1-1-1.104 0-2-.896-2-2s.896-2 2-2 2 .896 2 2c0 .553.447 1 1 1s1-.447 1-1c0-1.104.896-2 2-2s2 .896 2 2c0 .656-.321 1.234-.81 1.599l-1.477.443zM19 15.756l-8 2.4v-3.798c.344-.089.664-.233.966-.404L19 11.844v3.912zM20 9.5c-.101 0-.191.029-.283.057l-5.801 1.725c.051-.254.084-.513.084-.782 0-1.096-.442-2.087-1.156-2.81L20 5.5c1.046.064 2 .938 2 2 0 1.104-.896 2-2 2z"/></svg>