<svg viewBox="0 0 140.76 14.69" fill="currentColor"><defs><style>.cls-1{fill:#bc4700}</style></defs><g id="Layer_2" data-name="Layer 2"><g id="Layer_1-2" data-name="Layer 1"><g id="Title_bottom" data-name="Title bottom"><path d="M85.27 1a.37.37 0 000-.11.62.62 0 00-.19-.3.64.64 0 00-.8 0 3.37 3.37 0 01-.81.32 18.55 18.55 0 01-2-.05 10.52 10.52 0 00-1.93 0h-.5a7.37 7.37 0 00-3.26.47 10.91 10.91 0 00-2.29-.89.33.33 0 00-.14 0 3.62 3.62 0 00-.55-.2 6 6 0 00-6.92 3.21A12.14 12.14 0 0059 5.15l-.27.15a4.65 4.65 0 00-1.38.94l-.06.09-.06.1a.61.61 0 000 .35.65.65 0 00.63.51 3.81 3.81 0 01.83.24c.19.1 1 .79 1.52 1.25A10.4 10.4 0 0061.67 10c.08 0 .21.16.4.31A6.75 6.75 0 0065.25 12h.35a9.65 9.65 0 001.57-.17 5.23 5.23 0 001.8 1 3.64 3.64 0 00.53.12.5.5 0 00.19.1 14.63 14.63 0 004 .63c3.41 0 5.1-1.63 5.87-2.82a1.72 1.72 0 01.44-.32 1.6 1.6 0 00.79-.79 2.07 2.07 0 00-.14-1.44 12.11 12.11 0 004-5.26l.13-.28a4.89 4.89 0 00.51-1.6.34.34 0 00-.02-.17zm-6.22.82a2.62 2.62 0 00.72 0h1.67a16.5 16.5 0 002.14 0 7.52 7.52 0 01-2 1.59 4 4 0 01-2.58.72 8.16 8.16 0 00-2-2.12 9.67 9.67 0 012.05-.15zM65.44 4.43c0 .13-.1.25-.14.39A7.5 7.5 0 0065 7.2a5 5 0 00-3.16-1.54 9.39 9.39 0 00-1.43-.1 10.27 10.27 0 015.03-1.13zM65.33 11a6.16 6.16 0 01-2.64-1.48 3.12 3.12 0 00-.58-.42C62 9 61.3 8.44 60.82 8a16.21 16.21 0 00-1.66-1.35 7.12 7.12 0 012.53 0 4.15 4.15 0 012.74 1.4 7.07 7.07 0 00.78.65 7.09 7.09 0 00.36 1 5.75 5.75 0 00.74 1.3 4.75 4.75 0 01-.98 0zm1.15-1.68a6 6 0 01-.22-4.21c.89-2.94 3.7-4.7 6.25-3.93s3.91 3.81 3 6.75A6 6 0 0173 11.31a4.39 4.39 0 01-6.51-2zm13.41.08a2 2 0 01-.38.27 2.22 2.22 0 00-.74.63c-.77 1.11-2.43 2.7-6.13 2.3a7.09 7.09 0 00.87-.44 7 7 0 003-3.94 6.85 6.85 0 00-.78-5.81 8 8 0 013.73 5.43 2.72 2.72 0 00.19.5 1.84 1.84 0 01.24 1.06zm.43-2.08a11.29 11.29 0 00-.77-2.17 5.17 5.17 0 002.55-.78 8.47 8.47 0 001.19-.8 10.52 10.52 0 01-2.97 3.75z" class="cls-1"/><path d="M71.1 5.76h.15a.8.8 0 00.58-.34s1.63-2.15 1.32-2.86c-.21-.48-1-.66-1.2-.7a1.29 1.29 0 00-1.15.21c-.5.5-.26 2.7-.15 3.1a.72.72 0 00.45.59zm.44-2.93a2.94 2.94 0 01.62.12 9.91 9.91 0 01-.64 1.22 7.12 7.12 0 01.02-1.34zM71.38 6.5c.08.43.56.52.74.55a10.54 10.54 0 001.15.07c.66 0 1.4-.08 1.61-.44A2.44 2.44 0 0074.82 5a1.09 1.09 0 00-.6-.73c-.41-.13-1.1.23-2.08 1.08-.7.65-.81.88-.76 1.15zm2.49-1.19a3.23 3.23 0 01.16.76 6.74 6.74 0 01-1.25 0 8.67 8.67 0 011.09-.76zM72.05 7.11c-.22-.05-.68-.16-.94.16s-.22.6.32 1.66c.73 1.43 1.11 1.54 1.32 1.54h.06c.4 0 .8-.44 1.06-.79a1.6 1.6 0 00.45-1.22c-.17-.8-2.24-1.34-2.27-1.35zm.8 2.26a8.85 8.85 0 01-.67-1.18 5.15 5.15 0 011.12.52 3 3 0 01-.45.66zM69.59 6.28a1.38 1.38 0 00.5.13.56.56 0 00.42-.17c.19-.2.26-.49 0-1.39-.33-1.25-.71-1.93-1.12-2a1.09 1.09 0 00-.91.26c-.24.19-1 .82-1 1.36-.01.76 2.09 1.8 2.11 1.81zm-.48-2.42a7.78 7.78 0 01.46 1.28 7.41 7.41 0 01-1-.73 2.86 2.86 0 01.54-.55zM70.31 7c0-.42-.48-.58-.7-.66 0 0-2-.71-2.63-.15a1.65 1.65 0 00-.31 1.27 1.83 1.83 0 00.44 1.25.54.54 0 00.36.12 3.79 3.79 0 001.63-.62c1.05-.56 1.24-.86 1.21-1.21zm-2.59.76a2.83 2.83 0 01-.06-.76 6.14 6.14 0 011.25.19 7.81 7.81 0 01-1.19.6z" class="cls-1"/><path d="M71 8.14a.72.72 0 00-.44-.58.75.75 0 00-.74.3S68.15 10 68.45 10.7c.21.49 1 .68 1.19.73a2.12 2.12 0 00.44.05 1 1 0 00.71-.24c.51-.49.3-2.7.21-3.1zm-.92 2.34a2.35 2.35 0 01-.62-.13 8.51 8.51 0 01.66-1.2 7.69 7.69 0 01-.05 1.33zM49.07 1.57a5.33 5.33 0 00-3.75 1.92 3.58 3.58 0 00-.5 3 .5.5 0 001-.23 2.6 2.6 0 01.35-2.19 4.35 4.35 0 013-1.51 4.26 4.26 0 013.56 1.15 6 6 0 011.49 4.73 5.72 5.72 0 01-2.31 4.08c-1.71 1.22-4.18 1.5-7.14.78s-5.53-2.82-8.1-5A44.21 44.21 0 0032.51 5a14.15 14.15 0 013.84 1.41L38 7.3c4.2 2.33 9.43 5.23 12.86 3.06a2.87 2.87 0 001.45-3.09A2.69 2.69 0 0050 5.19a2.35 2.35 0 00-2.44 1.54 1.37 1.37 0 00.8 1.67.51.51 0 00.67-.24.5.5 0 00-.24-.67c-.32-.15-.31-.33-.27-.48a1.3 1.3 0 011.36-.82 1.67 1.67 0 011.38 1.3 1.89 1.89 0 01-1 2c-2.92 1.86-7.87-.89-11.84-3.09l-1.6-.88a13.45 13.45 0 00-6.34-1.73A13.58 13.58 0 0026 2.43a6.33 6.33 0 00-6.19 3 5.67 5.67 0 00-.72 4.15C15.51 6.06 7.27-2 1.56 3.55A4.42 4.42 0 00.22 8.24 4.66 4.66 0 004 11.31a4.16 4.16 0 004.07-2.19.51.51 0 00-.86-.53 3.17 3.17 0 01-3.08 1.73 3.69 3.69 0 01-3-2.41 3.4 3.4 0 011.12-3.64c5-4.91 12.55 2.49 16.16 6a13.23 13.23 0 001.8 1.63.5.5 0 00.66-.71 4.77 4.77 0 01-.22-5.3 5.33 5.33 0 015.21-2.51 12.08 12.08 0 012.68.66 6.3 6.3 0 00-1.15.42 5.17 5.17 0 00-2.8 4.08A3.79 3.79 0 0025.66 12a4.24 4.24 0 002.89 1.13 3.81 3.81 0 00.75-.13 3.6 3.6 0 003-3.06 2.28 2.28 0 00-1.4-2.43.5.5 0 00-.38.93 1.3 1.3 0 01.8 1.41 2.6 2.6 0 01-2.2 2.15 3.26 3.26 0 01-2.76-.8 2.77 2.77 0 01-.78-2.51 4.19 4.19 0 012.26-3.33 5.93 5.93 0 012.41-.56A31.29 31.29 0 0136 9c2.55 2.18 5.18 4.43 8.51 5.23a13.74 13.74 0 003.26.42 7.88 7.88 0 004.7-1.36 6.72 6.72 0 002.73-4.81A7 7 0 0053.42 3a5.26 5.26 0 00-4.35-1.43zM139.21 3.55c-5.71-5.56-14 2.51-17.52 6a5.62 5.62 0 00-.69-4.14 6.35 6.35 0 00-6.19-3 13.38 13.38 0 00-4.5 1.39 13.32 13.32 0 00-6.34 1.72l-1.61.88c-4 2.2-8.91 4.95-11.84 3.09a1.89 1.89 0 01-1-2 1.67 1.67 0 011.39-1.3 1.29 1.29 0 011.3.81c.05.15.05.33-.27.48a.5.5 0 00.43.91 1.36 1.36 0 00.8-1.67 2.33 2.33 0 00-2.43-1.54 2.69 2.69 0 00-2.24 2.09 2.87 2.87 0 001.5 3.09c3.42 2.17 8.65-.73 12.86-3.06l1.59-.88A13.77 13.77 0 01108.26 5a45.69 45.69 0 00-4.16 3.27c-2.57 2.2-5 4.28-8.09 5s-5.44.44-7.15-.78a5.71 5.71 0 01-2.3-4.08 6 6 0 011.49-4.73 4.26 4.26 0 013.56-1.15 4.39 4.39 0 013 1.51A2.56 2.56 0 0195 6.26a.5.5 0 00.37.6.5.5 0 00.63-.37 3.61 3.61 0 00-.51-3A5.7 5.7 0 0087.34 3a7 7 0 00-1.78 5.52 6.71 6.71 0 002.72 4.81A7.88 7.88 0 0093 14.69a13.74 13.74 0 003.26-.42c3.33-.8 6-3 8.51-5.23a31.29 31.29 0 015.76-4.21 5.89 5.89 0 012.41.56 4.15 4.15 0 012.26 3.33 2.77 2.77 0 01-.77 2.51 3.29 3.29 0 01-2.77.8 2.61 2.61 0 01-2.2-2.18 1.3 1.3 0 01.8-1.41.5.5 0 00.28-.65.51.51 0 00-.66-.28 2.29 2.29 0 00-1.43 2.49 3.59 3.59 0 003 3.06 3.91 3.91 0 00.76.07A4.2 4.2 0 00115.1 12a3.79 3.79 0 001.07-3.37 5.15 5.15 0 00-2.8-4.08 5.8 5.8 0 00-1.15-.42 12.22 12.22 0 012.68-.66 5.36 5.36 0 015.22 2.51 4.77 4.77 0 01-.23 5.3.5.5 0 000 .62.49.49 0 00.62.09 13.88 13.88 0 001.8-1.63c3.61-3.55 11.12-11 16.15-6A3.4 3.4 0 01139.54 8a3.68 3.68 0 01-3 2.41 3.18 3.18 0 01-3.08-1.73.5.5 0 10-.85.53 4.17 4.17 0 004 2.19 4.64 4.64 0 003.8-3.07 4.43 4.43 0 00-1.2-4.78z" class="cls-1"/></g></g></g></svg>