<svg viewBox="0 0 120.34 51.5" fill="currentColor"><defs><style>.cls-1{fill:#bc4700}</style></defs><g id="Layer_2" data-name="Layer 2"><g id="Layer_1-2" data-name="Layer 1"><g id="Text_top" data-name="Text top"><path d="M60.25 0a.37.37 0 00-.37.38v16.74a.37.37 0 00.37.38.38.38 0 00.38-.38V.38a.38.38 0 00-.38-.38zM56.48 19.58a.36.36 0 00.36.28h.09a.37.37 0 00.27-.45l-1.54-6.27a.37.37 0 10-.72.18zM52.92 5.09l1.23 5a.37.37 0 00.36.29h.09a.39.39 0 00.28-.46l-1.23-5a.38.38 0 00-.46-.27.37.37 0 00-.27.44zM52.53 3.53a.39.39 0 00.37.29h.1a.38.38 0 00.27-.46l-.52-2.11a.38.38 0 00-.46-.25.39.39 0 00-.28.46zM46.53 18.18a.37.37 0 00.28-.62l-8.1-9.19-.56.5 8.09 9.18a.37.37 0 00.29.13zM39.38 19.25a.38.38 0 00.31-.16.37.37 0 00-.09-.52L29 11.18l-.43.62 10.63 7.38a.33.33 0 00.18.07zM35.74 42.49a.4.4 0 00-.49-.22l-14.79 5.51.26.7L35.51 43a.39.39 0 00.23-.51zM42.59 44.93L35 50.07a.37.37 0 00-.1.53.38.38 0 00.31.16.42.42 0 00.21-.06L43 45.55a.37.37 0 00.1-.52.36.36 0 00-.51-.1zM55.79 37.77L50 44.22a.38.38 0 000 .53.35.35 0 00.25.1.35.35 0 00.28-.13l5.81-6.45zM48.7 45.65L44.82 50a.38.38 0 000 .53.35.35 0 00.25.1.38.38 0 00.28-.12l3.87-4.31a.37.37 0 10-.55-.5zM58.63 39.68a.37.37 0 00-.45.27l-2.47 9.62A.37.37 0 0056 50h.09a.37.37 0 00.36-.29l2.47-9.62a.36.36 0 00-.29-.41zM60.08 42.46a.37.37 0 00-.37.37v5.92a.37.37 0 00.38.37.37.37 0 00.37-.37v-5.92a.38.38 0 00-.38-.37zM62.87 42.88a.38.38 0 00-.45-.28.37.37 0 00-.28.45l1.91 8.16a.37.37 0 00.37.29h.08a.37.37 0 00.28-.45zM62.84 37.62a.38.38 0 00-.51-.16.37.37 0 00-.16.5l5.37 10.55a.38.38 0 00.67-.34zM67.1 40.73a.38.38 0 00-.53 0 .37.37 0 000 .53l8 9.21a.39.39 0 00.28.13.35.35 0 00.25-.1.37.37 0 000-.52zM77.25 45a.37.37 0 00-.52.09.38.38 0 00.09.53l6.59 4.68a.39.39 0 00.21.06.37.37 0 00.31-.15.38.38 0 00-.09-.53zM90.07 44.77l-5.85-2.31a.38.38 0 00-.49.21.38.38 0 00.22.49l5.85 2.31a.31.31 0 00.13 0 .38.38 0 00.14-.73zM91.44 45.72a.37.37 0 00.21.48l5.74 2.28.28-.7-5.74-2.27a.37.37 0 00-.49.21zM82.72 18.81a.37.37 0 00.21-.06l9.43-6.26-.42-.63-9.42 6.27a.37.37 0 00-.11.52.38.38 0 00.31.16zM73.36 9.52a.38.38 0 00-.51.15l-3.53 6.43a.37.37 0 00.15.51.37.37 0 00.18 0 .39.39 0 00.33-.19L73.51 10a.38.38 0 00-.15-.48zM66.47 11.58a.36.36 0 00-.26-.45.37.37 0 00-.46.26l-2 7.39.73.19zM67 8.05h.1a.37.37 0 00.36-.28l1.66-6.19a.38.38 0 00-.73-.19l-1.62 6.2a.37.37 0 00.23.46zM47.9 7.56A1.87 1.87 0 1046 5.7a1.87 1.87 0 001.9 1.86zm0-2.73a.87.87 0 11-.9.87.87.87 0 01.9-.87zM44 12.37a1.87 1.87 0 10-1.9-1.87 1.87 1.87 0 001.9 1.87zm0-2.73a.87.87 0 11-.86.86.87.87 0 01.86-.86zM49.49 12l-1.1-2.1a.36.36 0 00-.5-.15.36.36 0 00-.16.5l.93 1.75a3 3 0 00-1.11.48 2.79 2.79 0 00-1.1 1.82 2.79 2.79 0 004.39 2.7l.28-.25.47.9a.4.4 0 00.33.2.34.34 0 00.17-.05.36.36 0 00.16-.5l-.63-1.21a2.6 2.6 0 00.32-.91 2.76 2.76 0 00-.51-2.06A2.71 2.71 0 0049.62 12zm1.14 1.7A1.77 1.77 0 0151 15a1.75 1.75 0 01-.7 1.16 1.77 1.77 0 01-2.81-1.7 1.8 1.8 0 011.7-1.46h.28a1.83 1.83 0 011.16.68zM72.94 8.21a1.85 1.85 0 001.53-.8.36.36 0 00.53-.13l1.45-2.65a.36.36 0 00-.15-.5.37.37 0 00-.51.14l-1 1.88a1.86 1.86 0 10-1.84 2.06zm0-2.72a.86.86 0 11-.86.86.85.85 0 01.86-.86zM67.15 11.16A1.86 1.86 0 1069 9.29a1.86 1.86 0 00-1.85 1.87zm2.72 0a.86.86 0 11-.86-.87.87.87 0 01.86.87zM76.48 13.74a2.78 2.78 0 10-2.23 4.42A2.78 2.78 0 0077 15.72l2.68-2.91a.37.37 0 000-.53.38.38 0 00-.53 0l-2.19 2.38a2.52 2.52 0 00-.48-.92zM76 15.65a1.73 1.73 0 01-.71 1.16 1.77 1.77 0 01-2.1-2.81 1.8 1.8 0 012.49.38 1.77 1.77 0 01.32 1.27zM79.56 26.7c-1 .6-3.2 1.33-2.48 2.2 2.87 3.47 2.53 9.24 2.53 9.24a4 4 0 002.22-.85c.89-2.76-1.28-11.19-2.27-10.59zM65.43 23.41a.45.45 0 00-.65-.18 3.87 3.87 0 00-.91.88 4 4 0 00-.5 1.16.44.44 0 00.39.55l2.56.28c.27 0 .4-.15.27-.4zM66.27 27.27l-2.57-.14a.44.44 0 00-.47.48 3.14 3.14 0 001.06 2.24.44.44 0 00.67-.07l1.52-2.07c.16-.22.07-.42-.21-.44zM69.31 22.42a4 4 0 00-1.21-.35 3.94 3.94 0 00-1.26.15.45.45 0 00-.28.61l1 2.35c.11.26.33.28.48 0l1.41-2.15a.44.44 0 00-.14-.61zM75.12 23.07a.21.21 0 01.07.1.2.2 0 010 .11.5.5 0 00.17.69.59.59 0 00.26.07.51.51 0 00.43-.25 1.17 1.17 0 00-.55-1.64.5.5 0 00-.65.27.49.49 0 00.27.65zM78.56 24.25h.12a.51.51 0 00.37-.61.09.09 0 010-.07.49.49 0 00-.07-.7.5.5 0 00-.7.07 1.09 1.09 0 00-.21.94.49.49 0 00.49.37zM72.73 25.87h.06a.5.5 0 00.5-.44.67.67 0 01.22-.41.51.51 0 00.06-.71.49.49 0 00-.7-.06 1.68 1.68 0 00-.58 1.06.51.51 0 00.44.56zM76.53 22.12a.5.5 0 00.5.47.49.49 0 00.47-.52v-.48a.5.5 0 00-.48-.48h-.48a.54.54 0 00-.52.48.49.49 0 00.51.53z" class="cls-1"/><path d="M115.87 27.29c-2.9-.19-5-.34-5.88-.41l-1.78-.25a1.1 1.1 0 00-1.25.7c-.4 0-.72-.09-.9-.12l-.34-.13a18.81 18.81 0 00-5.72-3.53l-.45-.2a54.55 54.55 0 00-6.71-1.54.51.51 0 00-.56.3 2.48 2.48 0 00.13 1.76 1.68 1.68 0 00-.55 0l-2 .41c-.7-1.16-1.36-2-1.65-2s-.91.41-2.13 1.5c-.33.28-.73.64-.83.69a3.8 3.8 0 01-1.08-.33 3.31 3.31 0 00-.8-.26 2.3 2.3 0 00-1.1.17c-.32-.45-.61-.83-.83-1.09a1.05 1.05 0 000-.63c-.18-.68-1-1.07-2.39-1.16a1.46 1.46 0 00-.42-1 1.78 1.78 0 00-1.43-.29 2.73 2.73 0 01-.86 0l-.34-.16c-.87-.27-2-.6-2.65 0a1.64 1.64 0 00-.52 1.45 1.82 1.82 0 01-.14.84.37.37 0 00-.14-.44l-.32-.22A7.15 7.15 0 0064 33.06l.32.22a.36.36 0 00.22.07.42.42 0 00.21-.06l.08-.06.65-.94a22.58 22.58 0 00.7 2.94 11.6 11.6 0 006.87 7.88 5 5 0 001.65.22 15.07 15.07 0 004.3-.69c.32-.11.62-.2.91-.28a5.6 5.6 0 003.39-2.09 5.71 5.71 0 00.79-1.27 8.15 8.15 0 002.13.58.57.57 0 00.25 0 2.78 2.78 0 00.55-.42 2.09 2.09 0 01.66-.45 6.69 6.69 0 011.07.2l.33.08a1.69 1.69 0 00.93.5c1.23.31 6.36.87 13.66-.63a27.87 27.87 0 013.89.74c.41 1.24.89 2 1.36 2.09l4.38 1a3.58 3.58 0 001.52.9c.8.19 2.78.62 5.52 1.19zM92 24.85a.5.5 0 01.48.12.4.4 0 01.07.21l-1.55-.1zm-18.2-3.79c0-.18 0-.49.14-.6a.53.53 0 01.34-.09 5.57 5.57 0 011.4.31l.46.13a3.5 3.5 0 001.2.05c.25 0 .6-.05.68 0s.09.09.09.47a1.1 1.1 0 010 .24.5.5 0 00.13.48.48.48 0 00.48.13 1.19 1.19 0 011.32.4 1 1 0 01-.14 1.18 3.91 3.91 0 01-2.43 1 11.25 11.25 0 00-1.21.25h-.12a30.74 30.74 0 01-6.58 1.43l.89-1.3c1.6-.81 3.47-2.14 3.35-4.08zm-9.32 11.36a6.37 6.37 0 01.26-10.65 6.38 6.38 0 017 .17zm18 7.23a4.68 4.68 0 01-2.89 1.75c-.3.08-.62.17-1 .29-1.57.53-4.21.86-5.25.48A10.79 10.79 0 0167.18 35a16.8 16.8 0 01-.77-3.69.35.35 0 000-.18l2.28-3.3a27.9 27.9 0 005.18-.84 28.44 28.44 0 003.48-1.13l.31-.06a4.6 4.6 0 003.06-1.34 2.26 2.26 0 00.28-.5 13.6 13.6 0 012.65 5.37c.67 3.56.62 8.16-1.12 10.32zm6.14-3.06l-.21-.06a4.87 4.87 0 00-1.56-.29 2.59 2.59 0 00-.77.42 2.57 2.57 0 01-.59.34 1.58 1.58 0 01-.78-.21 21.4 21.4 0 00-.18-7.71 11.17 11.17 0 00-.78-2.37.73.73 0 01.2-.25 3.66 3.66 0 01.7.22 3.08 3.08 0 001 .29.87.87 0 00.31-.09 2 2 0 000 .25 1.83 1.83 0 00.92 1.64 1.62 1.62 0 00-1.13 1.44 2.15 2.15 0 001.59 2.34h.21a2.08 2.08 0 00-.38 1c-.13 1 .25 2.2 1.19 2.36l.56.1a2.14 2.14 0 00-.25.58zm15 1.18h-.14c-7.16 1.48-12.12 1-13.33.65a.89.89 0 01-.68-.91 1 1 0 01.25-.87 2.57 2.57 0 001.35-.18 1.07 1.07 0 00.16-.14.56.56 0 000-.49c-.12-.27-.15-.36-2.8-.83-.24 0-.46-.63-.38-1.26 0-.33.18-.72.36-.66a6.71 6.71 0 002-.06.51.51 0 00.36-.52.51.51 0 00-.44-.46l-2.95-.48a1.19 1.19 0 01-.75-1.26.66.66 0 01.81-.63 13 13 0 002.51-.26 2.28 2.28 0 00.64 0 .52.52 0 00.46-.53c0-.46-.37-.48-1-.49h-.1l-.39-.08a18.25 18.25 0 00-2.17-.38c-.55 0-.59-.7-.6-.83a1 1 0 01.97-1.1 53.14 53.14 0 0110 .84.48.48 0 00.54-.34.56.56 0 00-.28-.64l-.02-.03h-.14c-3-.57-4-1.5-4.44-2.18a1.51 1.51 0 01-.21-.71 48.14 48.14 0 016 1.37l.48.21a18 18 0 015.46 3.41.59.59 0 00.17.1l.5.19c.23 0 .59.1 1 .15a32.65 32.65 0 00.46 10.1 25.58 25.58 0 00-3.59-.7zm5.52 2.89c-.51-.37-2.22-4.67-1.38-12.81a.24.24 0 01.07-.19.14.14 0 01.09 0h.06l1.15.16a37.41 37.41 0 003.31 13.61zM40.78 26.7c-1-.6-3.15 7.83-2.27 10.59a4 4 0 002.22.85s-.34-5.77 2.53-9.24c.74-.9-1.49-1.6-2.48-2.2zM56.58 25.82a.44.44 0 00.39-.55 3.82 3.82 0 00-.49-1.16 4 4 0 00-.92-.88.45.45 0 00-.65.18l-1.16 2.29c-.12.25 0 .43.28.4zM56.64 27.13l-2.57.14c-.27 0-.37.22-.2.44l1.52 2.07a.44.44 0 00.67.07 3.86 3.86 0 00.75-1 3.8 3.8 0 00.3-1.23.44.44 0 00-.47-.49zM53.5 22.22a3.91 3.91 0 00-1.25-.15 4 4 0 00-1.22.35.43.43 0 00-.17.65l1.4 2.15c.15.24.37.22.48 0l1-2.35a.44.44 0 00-.24-.65zM44.3 23.79a.5.5 0 00.43.25A.59.59 0 0045 24a.51.51 0 00.18-.69v-.11a.13.13 0 01.07-.1.5.5 0 00-.39-.92 1.12 1.12 0 00-.63.7 1.1 1.1 0 00.07.91zM41.3 23.63a.51.51 0 00.36.61h.12a.5.5 0 00.49-.38 1.07 1.07 0 00-.22-.94.5.5 0 00-.77.63.19.19 0 01.02.08zM47.06 25.43a.49.49 0 00.49.44h.06a.5.5 0 00.44-.56 1.68 1.68 0 00-.58-1.06.49.49 0 00-.7.06.51.51 0 00.06.71.68.68 0 01.23.41zM43.26 22.62a.49.49 0 00.5-.47.5.5 0 00.48-.52.55.55 0 00-.52-.48h-.49a.5.5 0 00-.48.48v.48a.5.5 0 00.51.51z" class="cls-1"/><path d="M56 21.1a7.15 7.15 0 00-7.85.2l-.32.22a.39.39 0 00-.14.44 1.82 1.82 0 01-.15-.84 1.61 1.61 0 00-.54-1.45c-.7-.55-1.78-.22-2.65 0l-.42.13a2.73 2.73 0 01-.86 0 1.79 1.79 0 00-1.44.29 1.41 1.41 0 00-.41 1c-1.4.09-2.22.48-2.39 1.16a1 1 0 000 .63c-.22.26-.51.64-.83 1.09a2.26 2.26 0 00-1-.1 3.22 3.22 0 00-.81.26 3.8 3.8 0 01-1.08.33c-.09-.05-.5-.41-.82-.69-1.23-1.09-1.8-1.54-2.14-1.5s-.95.85-1.65 2l-2-.41a1.68 1.68 0 00-.55 0 2.42 2.42 0 00.13-1.76.5.5 0 00-.55-.3 54.67 54.67 0 00-6.72 1.54l-.45.2a18.81 18.81 0 00-5.69 3.54l-.34.13c-.18 0-.5.08-.9.12a1.17 1.17 0 00-.31-.45 1.15 1.15 0 00-.93-.25l-1.79.25c-.91.07-3 .22-5.88.41L0 44.69c2.74-.57 4.72-1 5.52-1.19a3.61 3.61 0 001.53-.9l4.37-1c.47-.1 1-.85 1.36-2.09a27.87 27.87 0 013.89-.74c7.3 1.5 12.43.94 13.66.63a1.65 1.65 0 00.93-.5l.33-.08a6.57 6.57 0 011.08-.2 2.06 2.06 0 01.65.45 3.51 3.51 0 00.55.42.6.6 0 00.25 0 8.15 8.15 0 002.13-.49 6.08 6.08 0 00.75 1.27 5.63 5.63 0 003.39 2.09c.29.08.59.17.91.28a15.13 15.13 0 004.26.69 5 5 0 001.65-.22 11.58 11.58 0 006.87-7.88 21 21 0 00.7-2.94l.65.94.08.06a.42.42 0 00.21.06.34.34 0 00.22-.07l.32-.22a7.15 7.15 0 00-.29-12zM11.13 40.66l-3.29.74a37.82 37.82 0 003.31-13.61l1.14-.16h.06a.19.19 0 01.1 0 .25.25 0 01.06.19c.85 8.18-.86 12.47-1.38 12.84zm29.19-18a1.19 1.19 0 011.32-.4.48.48 0 00.48-.13.48.48 0 00.13-.48 1.1 1.1 0 010-.24c0-.38.08-.46.09-.47s.43-.05.69 0a3.52 3.52 0 001.2-.05l.46-.13a5.4 5.4 0 011.39-.31.58.58 0 01.35.09c.14.11.14.42.13.6-.11 2 1.75 3.27 3.37 4.13l.9 1.3a30.66 30.66 0 01-6.59-1.43h-.12a11.07 11.07 0 00-1.2-.25 3.88 3.88 0 01-2.43-1 1 1 0 01-.17-1.28zM27.82 25a.51.51 0 01.49-.12l1.08.23-1.64.1a.74.74 0 01.07-.21zm1.23 11.36a.67.67 0 00.15.14 2.6 2.6 0 001.36.18 1.08 1.08 0 01.25.87.9.9 0 01-.69.91c-1.21.31-6.16.83-13.32-.65h-.15a25.19 25.19 0 00-3.55.65 32.7 32.7 0 00.45-10.1 10.44 10.44 0 001-.15l.5-.19a.48.48 0 00.17-.1 18 18 0 015.47-3.41l.47-.21a47.93 47.93 0 016-1.37 1.54 1.54 0 01-.22.71c-.38.68-1.47 1.61-4.44 2.18h-.13l-.1.05a.55.55 0 00-.27.64.46.46 0 00.53.34 53.19 53.19 0 0110-.84 1 1 0 01.79 1.09c0 .13 0 .79-.6.83a18.66 18.66 0 00-2.17.38l-.39.08h-.1c-.58 0-.93 0-.95.49a.52.52 0 00.47.53 2.21 2.21 0 00.63 0 13 13 0 002.52.26.65.65 0 01.8.63 1.17 1.17 0 01-.75 1.26l-2.94.48a.51.51 0 00-.45.46.51.51 0 00.36.52 6.81 6.81 0 002 .06c.17-.06.31.33.35.66.08.63-.14 1.22-.37 1.26-2.65.47-2.69.56-2.81.83a.53.53 0 00.13.5zm6.72-7.25a21.17 21.17 0 00-.18 7.71 1.61 1.61 0 01-.79.21 2.35 2.35 0 01-.58-.34 2.62 2.62 0 00-.78-.42 4.87 4.87 0 00-1.56.29l-.21.06a1.82 1.82 0 00-.26-.5L32 36c1-.16 1.32-1.34 1.2-2.36a2.29 2.29 0 00-.38-1h.2a2.14 2.14 0 001.59-2.34 1.6 1.6 0 00-1.12-1.44 1.84 1.84 0 00.91-1.64 2 2 0 000-.25.94.94 0 00.31.09 3.08 3.08 0 001-.29 3.5 3.5 0 01.71-.22.75.75 0 01.19.25 11.75 11.75 0 00-.84 2.28zm18.16 2.18a16.24 16.24 0 01-.77 3.71 10.74 10.74 0 01-6.25 7.22c-1 .38-3.68 0-5.25-.48-.34-.12-.66-.21-1-.29a4.68 4.68 0 01-2.89-1.75c-1.73-2.16-1.79-6.76-1.06-10.37a13.6 13.6 0 012.64-5.37 2.32 2.32 0 00.29.5 4.58 4.58 0 003 1.34l.31.06a29 29 0 003.48 1.13 28 28 0 005.18.84L54 31.08a.48.48 0 00-.07.18zm1.93 1.16l-7.25-10.51a6.37 6.37 0 017.25 10.48z" class="cls-1"/></g></g></g></svg>