<svg fill="currentColor" viewBox="0 0 204 94"><path stroke-linecap="round" stroke-linejoin="round" stroke-miterlimit="10" stroke-width=".9293" d="M101.003 5.72996c.662 0 1.2-.53726 1.2-1.2 0-.66275-.538-1.2-1.2-1.2-.663 0-1.2003.53725-1.2003 1.2 0 .66274.5373 1.2 1.2003 1.2z"/><path d="M122.903 20.2299c3.8-.1 7.7.2 11.5.9s7.5 1.6 11.2 2.8c3.7 1.2 7.2 2.7 10.7 4.4 1.7.9 3.4 1.8 5.1 2.8.8.5 1.7 1 2.5 1.6.8.5 1.6 1.1 2.2 1.9.2.2.1.5-.1.7-.1.1-.3.1-.4.1-.9-.3-1.6-1-2.4-1.5-.8-.5-1.6-1.1-2.4-1.6-1.6-1-3.3-1.9-4.9-2.8-3.4-1.8-6.9-3.3-10.4-4.6-3.6-1.3-7.2-2.4-11-3.1-4-.9-7.8-1.4-11.6-1.6z"/><path d="M129.403 20.9299c-1-1.7-3.4-2.1-5.5-3.5s-5.5-4.5-7.3-4.7c1.5-.7 5.3-.9 7.7.9 2.4 1.8 3.6 4.4 4.2 5.2.6.8.9 2.1.9 2.1zm16.9 3.4c-.8-.7-3.2-2.9-4.7-5s-3-6.3-4.6-7.1c1.6-.1 5.3.9 7 3.4 1.7 2.5 1.4 5.3 1.8 6.2.3 1 .5 2.5.5 2.5zm-12.3-2.9c-1.3-2-4.4-3.2-5.7-5.3-1.7-2.8-4.7-6.1-6.4-6.70001 1.6-.3 6.4 1.90001 8.3 4.20001 1.8 2.3 2.2 2.8 2.7 3.7.4.9 1.1 4.1 1.1 4.1zm5.6 1.1c-1-2.2-4-3.7-5-6-1.3-2.9-3.9-6.59995-5.5-7.49995 1.7-.1 6.2 2.69995 7.7 5.29995s1.8 3.1 2.2 4c.4.9.6 4.2.6 4.2zm11.6 4.1001c-.5-2.3-2.2-4.8-3.4-7-1.7-3.3-3.7-6.8-6.2-8 3.1.1 7.6 2.7 8.7 5.5 1.9 4.5.9 9.5.9 9.5zm4.4 2.1c-.1-2-1.1-4.3-1.6-6.4-.9-3-1.4-5-2.7-6.6 2.3.5 4.3 2.3 4.8 4.8.8 4.1-.5 8.2-.5 8.2zm-13-5.4c-1 .1-2.3.5-3.3.9-1.8.8-2 1.5-3.7 2.1 1.3.5 3 .4 4.1-.2 1.7-.7 2.9-2.8 2.9-2.8zm-10.6-2.4001c-1.9.5-4.8.5-6.8.7-3.5.5-3.8 1.3-5.4 1.1 1.2.6 3.4.9 5.8.4 2.5-.5 3-.6 3.7-.8.7-.2 2.7-1.4 2.7-1.4zm5.6.9001c-1.7.7-4.7.5-6.5 1.2-2.3.9-5.9 1.8-7.5 1.7 1.3.5 6 .5 8.3-.2 2.3-.7 2.8-.8 3.4-1.1.6-.2 2.3-1.6 2.3-1.6zm10.8 3.4c-1.4.8-2.8.3-4.7.9-2.7.9-2.5 3.1-4.9 2.9 2.5.8 3.9 0 6-.9 3.4-1.4 3.6-2.9 3.6-2.9zm4.8 2.1c-.8.6-2.2 1-3.3 1.4-1.6.6-2.7 1.1-4.2 1.2 1.8.5 3.9.5 5.1-.1 2-.9 2.4-2.5 2.4-2.5zm-27.6-6.9c-2.9-1.5-4-2.6-7.3-2.8-5.1-.3-7-1.5-7-1.5s.4 3.3 4.8 3.8c4.5.4 9.5.5 9.5.5z"/><path stroke-linecap="round" stroke-linejoin="round" stroke-width=".9293" d="M163.603 36.2299c0-.6.1-1.2.6-1.5.2-.1.4-.2.6-.2.8-.2 1.6-.4 2.5-.6.2-.1.4-.1.6-.1.4 0 .8.2 1.1.2.6 0 1.1-.4 1.6-.6.5-.2 1.3-.2 1.6.3.2.3.1.7-.1 1-.2.3-.5.5-.8.7.7.6 1.3 1.4 2.1 2 .8.5 1.9.8 2.7.3.2-.2.2-.2.4-.5.2-.2.5-.4.7-.2.1.1.1.3.2.5s.3.3.5.3c.4.1 1.7-1.3 2.1-1.4.5-.1 1-.4 1.5-.2.4.2.4.9.2 1.3.2.3.7.2 1 .2.3 0 .6.1.9.2.3.2.5.4.6.7.1.3 0 .7-.4.8.2.5-.2 1.2-.7 1.4-.5.2-1-.2-1.6-.3-.6-.1-.7-.3-1.3-.3-.2 0-.9 0-1.1-.1-.4-.1-1.1.3-1.6.3-.6 0-1.5.4-2 .3.2.6.8 1 1.5 1.1.6.1 1.3.1 1.9.1.6 0 1.3.2 1.7.7-.4.4-.8.8-1.3 1.1.3.2.9 0 1.1.3.3.3 0 .9-.3 1.2-.4.4-.8.6-1.3.7h-.3c-.1 0-.2-.1-.3-.1-.5-.3-1-.7-1.5-1-.1-.1-.2-.2-.4-.2-.1 0-.3 0-.4.1-.5.2-.7.5-1.3.3-.2-.1-1.2-.7-1.1-.9-.1.2.1.4.2.6.1.2.3.3.3.5s-.2.4-.4.3c.2.2.2.6-.1.9-.2.2-.6.3-.9.4-.2 0-.4.1-.5 0-.1-.1-.2-.2-.2-.3-.4-.7-.7-1.4-1.1-2.1-.1-.3-.4 0-.6-.3-.2-.3.1-.6.4-.9.4-.4.4-1.1.3-1.7-.1-.6-.4-1.1-.8-1.6-.2.4-.3.8-.5 1.3-.1.2-.1.3-.3.5-.1.1-.3.2-.5.2-.5 0-1-.5-.9-1 0-.2.1-.5 0-.7l-.3-.3c-.1-.2 0-.5.2-.7.2-.2.5-.3.6-.5.1-.3-.1-.7-.3-.9-.3-.5-.7-.9-1-1.4-.1-.2-.4-.4-.5-.2-.2.2 0 .4-.1.6-.1.2-.5.1-.7.1h-.4c-.6.1-1.3-.3-1.8-.6.1.2 0 .1 0-.1z"/><path d="M175.903 41.2298c-.5.3-1.6-.6-2.2-1.2l2.2 1.2z"/><path stroke-linecap="round" stroke-linejoin="round" stroke-width=".9293" d="M175.903 41.2298c-.5.3-1.6-.6-2.2-1.2"/><path d="M171.303 35.4299c-.4 0-.8-.1-1.1-.3l1.1.3z"/><path stroke-linecap="round" stroke-linejoin="round" stroke-width=".9293" d="M171.303 35.4299c-.4 0-.8-.1-1.1-.3"/><path d="M179.203 43.83c-.4-.1-.8-.3-1.1-.6l1.1.6z"/><path stroke-linecap="round" stroke-linejoin="round" stroke-width=".9293" d="M179.203 43.83c-.4-.1-.8-.3-1.1-.6"/><path d="M161.903 15.73c0-.4 1.1 1.1.9 2.1-.1.6-.6 1.5-.6 1.5-1.2-1.9-.3-2.2-.3-3.6z"/><path d="M159.403 17.03c1.1.9 2 .3 2.6 2.4 0 0-1-.1-1.5-.4-.9-.5-1.5-2.3-1.1-2zm2.5-1.5c.2-1.2.1-3-.5-4.7.1.1 1 2.2.6 4.7h-.1zm-2.7 1.4v.1c-2.2-1.2-3.4-3.3-3.4-3.3 1 1.4 2.4 2.6 3.4 3.2zm2.5-1.4c-.1.6-.6 1.5-.6 1.5-1.2-1.8-.3-2.1-.3-3.5 0-.5 1.1 1 .9 2z"/><path d="M160.903 17.1301s-1-.1-1.5-.4c-.8-.4-1.4-2.2-1.1-2 1.1.8 1.9.3 2.6 2.4zm-.1-3.8001c.2-1.2.1-3.1-.5-4.60002.1.1 1 2.10002.6 4.60002h-.1z"/><path d="M158.103 14.7301c-2.2-1.2-3.3-3.2-3.3-3.3.9 1.4 2.3 2.6 3.4 3.2-.1 0-.1.1-.1.1zm1.4-3.8001c0-.4 1.1 1.1001.9 2.1001-.1.6-.6 1.5-.6 1.5-1.2-1.8-.3-2.2001-.3-3.6001z"/><path d="M159.603 14.6301s-1-.1-1.5-.4c-.8-.4-1.4-2.2-1.1-2 1.1.9 2 .3 2.6 2.4zm0-3.8001s.2-1.10002 0-2.40002c-.1-.5 0-.7-.4-1.7.1.1.9 1.6.5 4.10002h-.1z"/><path d="M156.903 12.13v.1c-2.2-1.2-3-2.80004-3-2.90004.6.90004.8 1.00004 1.1 1.40004.9.9 1.9 1.4 1.9 1.4zm2.4-1.5c-.1.5-.6 1.4-.6 1.4-1.2-1.7-.3-2-.3-3.39997 0-.4 1 1.1.9 1.99997zm-.9 1.5s-1-.1-1.5-.4c-.8-.4-1.4-2.09999-1-1.89999 1 .89999 1.8.39999 2.5 2.29999z"/><path d="M158.403 8.53003s.2-1.1 0-2.3c-.1-.5 0-.6-.4-1.7.1 0 .9 1.5.5 4 0 0-.1-.1-.1 0zm-2.7 1.29998c-2.2-1.1-2.9-2.60001-2.9-2.70001.6.9.7 1 1.1 1.3.9.9 1.8 1.40001 1.8 1.40001zm1.8-.10005c-1.2-1.6-.3-2-.3-3.3 0-.4 1 1 .9 1.9-.1.6-.6 1.4-.6 1.4z"/><path d="M154.803 7.63001c1 .8 1.8.3 2.4 2.2 0 0-1-.1-1.4-.4-.8-.4-1.3-2-1-1.8zm2.4-1.29998s.2-1 0-2.2c-.1-.5 0-.6-.4-1.6.1 0 .9 1.5.4 3.8.1 0 .1 0 0 0z"/><path d="M154.703 7.63003c-2.1-1.1-2.8-2.5-2.8-2.6.6.9.7.9 1 1.3.9.8 1.8 1.3 1.8 1.3zm2.2-1.6c-.1.5-.6 1.3-.6 1.3s-.6-.8-.6-1.4c0-.5.3-1 .3-1.8 0-.4 1 1 .9 1.9zm-.9 1.39996s-1-.1-1.4-.4c-.8-.4-1.3-2-1-1.8.6.5 1.3.5 1.6.8.5.5.8 1.4.8 1.4zm-.5-1.49999s-.9-.49999-1.2-.8c-.4-.5-.5-1.8-.3-2l-1.1-2.499995 1.3 2.399995c.3 0 1.3.8 1.4 1.5 0 .5-.1 1.4-.1 1.4zm.6-1.9c.1-.4.2-1.5-.3-2.9.1 0 .8 1.6.3 2.9 0 0 .1 0 0 0z"/><path d="M153.503 5.32996c-1.3-.5-2.1-1.9-2.1-2 .5.7.6.9.9 1.1.7.7 1.2.8 1.2.9 0 0 0-.1 0 0z"/><path stroke-linecap="round" stroke-linejoin="round" stroke-miterlimit="10" stroke-width=".9293" d="M174.302 28.83c.3-5-.4-6.4-2.7-9.7-3.4-5.1-1.4-8.9-1.4-8.9s-4.3 4.1-2.4 9.1c1.6 4.2 6.5 9.5 6.5 9.5zm-144.5992 0c-.3-5 .4-6.4 2.7-9.7 3.4-5.1 1.4-8.9 1.4-8.9s4.3 4.1 2.4 9.1c-1.7 4.2-6.5 9.5-6.5 9.5z"/><path stroke-linecap="round" stroke-linejoin="round" stroke-width=".9293" d="M162.203 19.8301c4.1 10.6 11.5 13.7 21.2 9 4.5-2.2 5.3-9.6 1.4-10-2.5-.2-4.1 3.5-4 5.5.2 5.7 5 8.7 7.1 9.7-.4-1.2-.2-3.3.4-4.6 1.1-2.2 4.1-2.6 6.1-1.8 4.4 1.8 2.9 7.7 2.1 8.6-2.2 2.5-5-.5-2.1-2.2.9-.5 3-1.6 5.9-.5 2.8 1 3.4 5.5 1.5 7.1"/><path stroke-linecap="round" stroke-linejoin="round" stroke-miterlimit="10" stroke-width=".9293" d="M188.503 41.4299c.552 0 1-.4477 1-1s-.448-1-1-1-1 .4477-1 1 .448 1 1 1zm1.6 4.8001c.552 0 1-.4477 1-1s-.448-1-1-1c-.553 0-1 .4477-1 1s.447 1 1 1zm-4 3.5999c.884 0 1.6-.7164 1.6-1.6 0-.8837-.716-1.6-1.6-1.6-.884 0-1.6.7163-1.6 1.6 0 .8836.716 1.6 1.6 1.6z"/><path d="M80.7029 20.2299c-3.8.2-7.6.7-11.4 1.5-3.7.8-7.4 1.8-11 3.1-3.6 1.3-7.1 2.8-10.4 4.6-1.7.9-3.3 1.8-4.9 2.8-.8.5-1.6 1-2.4 1.6-.8.5-1.5 1.2-2.4 1.5-.3.1-.5-.1-.6-.3-.1-.2 0-.3.1-.4.6-.8 1.4-1.3 2.2-1.9.8-.5 1.6-1.1 2.5-1.6 1.7-1 3.4-1.9 5.1-2.8 3.5-1.7 7-3.2 10.7-4.4 3.7-1.2 7.4-2.2 11.2-2.8 3.6-.6 7.5-1 11.3-.9z"/><path d="M74.1025 20.9299c1-1.7 3.4-2.1 5.5-3.5s5.5-4.5 7.3-4.7c-1.5-.7-5.3-.9-7.7.9-2.4 1.8-3.6 4.4-4.2 5.2-.6.8-.9 2.1-.9 2.1zm-16.7998 3.4c.8-.7 3.2-2.9 4.7-5 1.5-2 3-6.3 4.6-7.1-1.6-.1-5.3.9-7 3.4-1.6 2.5-1.4 5.3-1.8 6.2-.4 1-.5 2.5-.5 2.5zm12.2998-2.9c1.3-2 4.4-3.2 5.7-5.3 1.7-2.8 4.7-6.1 6.4-6.70001-1.6-.3-6.4 1.90001-8.3 4.20001-1.9 2.3-2.2 2.8-2.7 3.7-.4.9-1.1 4.1-1.1 4.1zm-5.5996 1.1c1-2.2 4-3.7 5-6 1.3-2.9 3.9-6.59995 5.5-7.49995-1.7-.1-6.2 2.69995-7.7 5.29995s-1.8 3.1-2.2 4c-.3.9-.6 4.2-.6 4.2zM52.4026 26.63c.5-2.3 2.2-4.8 3.4-7 1.7-3.3 3.7-6.8 6.2-8-3.1.1-7.6 2.7-8.7 5.5-1.9 4.5-.9 9.5-.9 9.5zm-4.3997 2.1c.1-2 1.1-4.3 1.6-6.4.9-3 1.4-5 2.7-6.6-2.3.5-4.3 2.3-4.8 4.8-.8 4.1.5 8.2.5 8.2zm13-5.4c1 .1 2.3.5 3.3.9 1.8.8 2 1.5 3.7 2.1-1.3.5-3 .4-4.1-.2-1.7-.7-2.9-2.8-2.9-2.8zm10.5996-2.4001c1.9.5 4.8.5 6.8.7 3.5.5 3.8 1.3 5.4 1.1-1.2.6-3.4.9-5.8.4-2.5-.5-3-.6-3.7-.8-.7-.2-2.7-1.4-2.7-1.4zm-5.5996.9001c1.7.7 4.7.5 6.5 1.2 2.3.9 5.9 1.8 7.5 1.7-1.3.5-6 .5-8.3-.2-2.3-.7-2.8-.8-3.4-1.1-.6-.2-2.3-1.6-2.3-1.6zm-10.8003 3.4c1.4.8 2.8.3 4.7.9 2.7.9 2.5 3.1 4.9 2.9-2.5.8-3.9 0-6-.9-3.4-1.4-3.6-2.9-3.6-2.9zm-4.7998 2.1c.8.6 2.2 1 3.3 1.4 1.6.6 2.7 1.1 4.2 1.2-1.8.5-3.9.5-5.1-.1-2-.9-2.4-2.5-2.4-2.5zm27.6001-6.9c2.9-1.5 4-2.6 7.3-2.8 5.1-.3 7-1.5 7-1.5s-.4 3.3-4.8 3.8c-4.5.4-9.5.5-9.5.5z"/><path stroke-linecap="round" stroke-linejoin="round" stroke-width=".9293" d="M40.0028 36.2299c0-.6-.1-1.2-.6-1.5-.2-.1-.4-.2-.6-.2-.8-.2-1.6-.4-2.5-.6-.2-.1-.4-.1-.6-.1-.4 0-.8.2-1.1.2-.6 0-1.1-.4-1.6-.6-.5-.2-1.3-.2-1.6.3-.2.3-.1.7.1 1 .2.3.5.5.8.7-.7.6-1.3 1.4-2.1 2-.8.5-1.9.8-2.7.3-.2-.2-.2-.2-.4-.5-.2-.2-.5-.4-.7-.2-.1.1-.1.3-.2.5s-.3.3-.5.3c-.4.1-1.7-1.3-2.1-1.4-.5-.1-1-.4-1.5-.2-.4.2-.4.9-.2 1.3-.2.3-.7.2-1 .2-.3 0-.6.1-.9.2-.3.2-.5.4-.6.7-.1.3 0 .7.4.8-.2.5.2 1.2.7 1.4.5.2 1-.2 1.6-.3.6-.1.7-.3 1.3-.3.2 0 .9 0 1.1-.1.4-.1 1.1.3 1.6.3.6 0 1.5.4 2 .3-.2.6-.8 1-1.5 1.1-.6.1-1.3.1-1.9.1-.6 0-1.3.2-1.7.7.4.4.8.8 1.3 1.1-.3.2-.9 0-1.1.3-.3.3 0 .9.3 1.2.4.4.8.6 1.3.7h.3c.1 0 .2-.1.3-.1.5-.3 1-.7 1.5-1 .1-.1.2-.2.4-.2.1 0 .3 0 .4.1.5.2.7.5 1.3.3.2-.1 1.2-.7 1.1-.9.1.2-.1.4-.2.6-.1.2-.3.3-.3.5s.2.4.4.3c-.2.2-.2.6.1.9.2.2.6.3.9.4.2 0 .4.1.5 0 .1-.1.2-.2.2-.3.4-.7.7-1.4 1.1-2.1.1-.3.4 0 .6-.3.2-.3-.1-.6-.4-.9-.4-.4-.4-1.1-.3-1.7.1-.6.4-1.1.8-1.6.2.4.3.8.5 1.3.1.2.1.3.3.5.1.1.3.2.5.2.5 0 1-.5.9-1 0-.2-.1-.5 0-.7l.3-.3c.1-.2 0-.5-.2-.7-.2-.2-.5-.3-.6-.5-.1-.3.1-.7.3-.9.3-.5.7-.9 1-1.4.1-.2.4-.4.5-.2.2.2 0 .4.1.6.1.2.5.1.7.1h.4c.6.1 1.3-.3 1.8-.6-.1.2 0 .1 0-.1z"/><path d="M27.7026 41.2298c.5.3 1.6-.6 2.2-1.2l-2.2 1.2z"/><path stroke-linecap="round" stroke-linejoin="round" stroke-width=".9293" d="M27.7026 41.2298c.5.3 1.6-.6 2.2-1.2"/><path d="M32.3027 35.4299c.4 0 .8-.1 1.1-.3l-1.1.3z"/><path stroke-linecap="round" stroke-linejoin="round" stroke-width=".9293" d="M32.3027 35.4299c.4 0 .8-.1 1.1-.3"/><path d="M24.4028 43.83c.4-.1.8-.3 1.1-.6l-1.1.6z"/><path stroke-linecap="round" stroke-linejoin="round" stroke-width=".9293" d="M24.4028 43.83c.4-.1.8-.3 1.1-.6"/><path d="M41.7026 15.73c0-.4-1.1 1.1-.9 2.1.1.6.6 1.5.6 1.5 1.2-1.9.3-2.2.3-3.6z"/><path d="M44.2025 17.03c-1.1.9-2 .3-2.6 2.4 0 0 1-.1 1.5-.4.9-.5 1.5-2.3 1.1-2zm-2.4996-1.5c-.2-1.2-.1-3 .5-4.7-.1.1-1 2.2-.6 4.7h.1z"/><path d="M44.3027 16.93v.1c2.2-1.2 3.4-3.3 3.4-3.3-.9 1.4-2.3 2.6-3.4 3.2zm-2.4-1.4c.1.6.6 1.5.6 1.5 1.2-1.8.3-2.1.3-3.5 0-.5-1.1 1-.9 2z"/><path d="M42.7026 17.1301s1-.1 1.5-.4c.8-.4 1.4-2.2 1.1-2-1.1.8-1.9.3-2.6 2.4zm.0999-3.8001c-.2-1.2-.1-3.1.5-4.60002-.1.1-1 2.10002-.6 4.60002h.1z"/><path d="M45.5028 14.7301c2.2-1.2 3.3-3.2 3.3-3.3-.9 1.4-2.3 2.6-3.4 3.2.1 0 .1.1.1.1zM44.0024 10.93c0-.4-1.1 1.1001-.9 2.1001.1.6.6 1.5.6 1.5 1.3-1.8.3-2.2001.3-3.6001z"/><path d="M44.0024 14.6301s1-.1 1.5-.4c.8-.4 1.4-2.2 1.1-2-1.1.9-2 .3-2.6 2.4zm.0003-3.8001s-.2-1.10002 0-2.40002c.1-.5 0-.7.4-1.7-.1.1-.9 1.6-.5 4.10002h.1z"/><path d="M46.7026 12.13v.1c2.2-1.2 3-2.80004 3-2.90004-.6.90004-.8 1.00004-1.1 1.40004-.9.9-1.9 1.4-1.9 1.4zm-2.4002-1.5c.1.5.6 1.4.6 1.4 1.2-1.7.3-2 .3-3.39997 0-.4-1 1.1-.9 1.99997zm.9002 1.5s1-.1 1.5-.4c.8-.4 1.4-2.09999 1-1.89999-1 .89999-1.8.39999-2.5 2.29999z"/><path d="M45.2024 8.53003s-.2-1.1 0-2.3c.1-.5 0-.6.4-1.7-.1 0-.9 1.5-.5 4 0 0 .1-.1.1 0zm2.7004 1.29998c2.2-1.1 2.9-2.60001 2.9-2.70001-.6.9-.7 1-1.1 1.3-.9.9-1.8 1.40001-1.8 1.40001zm-1.8002-.10005c1.2-1.6.3-2 .3-3.3 0-.4-1 1-.9 1.9.1.6.6 1.4.6 1.4z"/><path d="M48.8028 7.63001c-1 .8-1.8.3-2.4 2.2 0 0 1-.1 1.4-.4.7-.4 1.3-2 1-1.8zm-2.4-1.29998s-.2-1 0-2.2c.1-.5 0-.6.4-1.6-.1 0-.9 1.5-.4 3.8-.1 0-.1 0 0 0z"/><path d="M48.9028 7.63003c2.1-1.1 2.8-2.5 2.8-2.6-.6.9-.7.9-1 1.3-.9.8-1.8 1.3-1.8 1.3zm-2.2002-1.6c.1.5.6 1.3.6 1.3s.6-.8.6-1.4c0-.5-.3-1-.3-1.8-.1-.4-1 1-.9 1.9zm.7998 1.39996s1-.1 1.4-.4c.8-.4 1.3-2 1-1.8-.6.5-1.3.5-1.6.8-.5.5-.8 1.4-.8 1.4zm.6-1.49999s.9-.49999 1.2-.8c.4-.5.5-1.8.3-2l1.1-2.499995-1.3 2.399995c-.3 0-1.3.8-1.4 1.5 0 .5.1 1.4.1 1.4z"/><path d="M47.5025 4.03c-.1-.4-.2-1.5.3-2.9-.1 0-.8 1.6-.3 2.9-.1 0-.1 0 0 0zm2.6002 1.29996c1.3-.5 2.1-1.9 2.1-2-.5.7-.6.9-.9 1.1-.7.7-1.3.8-1.2.9 0 0 0-.1 0 0z"/><path stroke-linecap="round" stroke-linejoin="round" stroke-width=".9293" d="M41.4027 19.8301c-4.1 10.6-11.5 13.7-21.2 9-4.5-2.2-5.3-9.6-1.4-10 2.5-.2 4.1 3.5 4 5.5-.2 5.7-5 8.7-7.1 9.7.4-1.2.2-3.3-.4-4.6-1.1-2.2-4.1-2.6-6.10001-1.8-4.4 1.8-2.9 7.7-2.1 8.6 2.2 2.5 5.00001-.5 2.1-2.2-.9-.5-3-1.6-5.9-.5-2.800002 1-3.4000016 5.5-1.5 7.1"/><path stroke-linecap="round" stroke-linejoin="round" stroke-miterlimit="10" stroke-width=".9293" d="M15.8027 42.23c.5523 0 1-.4477 1-1s-.4477-1-1-1-1 .4477-1 1 .4477 1 1 1zm-2.7998 3.3999c.5523 0 1-.4477 1-1s-.4477-1-1-1-1 .4477-1 1 .4477 1 1 1zm3.6996 3.6001c.8837 0 1.6-.7163 1.6-1.6 0-.8836-.7163-1.6-1.6-1.6-.8836 0-1.6.7164-1.6 1.6 0 .8837.7164 1.6 1.6 1.6zM103.403 9.93003c.662 0 1.2-.53726 1.2-1.2s-.538-1.2-1.2-1.2c-.663 0-1.2.53726-1.2 1.2s.537 1.2 1.2 1.2zM99.2026 13.33c1.1044 0 2.0004-.8955 2.0004-2 0-1.1046-.896-2.00004-2.0004-2.00004-1.1045 0-2 .89544-2 2.00004 0 1.1045.8955 2 2 2zm3.9004 4.5c1.104 0 2-.8955 2-2 0-1.1046-.896-2-2-2-1.105 0-2 .8954-2 2 0 1.1045.895 2 2 2z"/><path stroke-linecap="round" stroke-miterlimit="10" stroke-width=".9293" d="M98.9225 83.0931c-3.4-.3-5.4.9-6.9 1.6-1.5.8-1.3.9-1 1 .2 0 .6.1.9.3.3.2 2.5 2.2 2.8 2.3.3.1 1.9 1.7 3.2 1.8 1.3.1 3.3995-.6 3.3995-.6l-2.3995-6.4z"/><path stroke-linecap="round" stroke-miterlimit="10" stroke-width=".9293" d="M98.6223 87.4932c-1.4-.6-1.5-2-4-2.3-2.1-.3-3.3.2-3.8.4m20.2997 1.6998c2.9-1.9 3.7-4 4.4-5.5.7-1.5.4-1.5.2-1.4-.2.1-.5.2-.9.4-.4.1-3.3-.1-3.6-.1-.3.1-2.5-.2-3.6.5s-2.4 2.6-2.4 2.6l5.9 3.5z"/><path stroke-linecap="round" stroke-miterlimit="10" stroke-width=".9293" d="M108.722 83.6931c1.4-.4 2.4.6 4.6-.6 1.9-1.1 2.4-2.2 2.7-2.7"/><path d="M105.422 80.293c4.8 1.3 5.7 4.8 6.1 6.3.1.4.6 1.1.4 1.7-.1.4-.9.6-1.1.9-1.1 1.7-3.7 3.3-8.7 1.8"/><path stroke-linecap="round" stroke-miterlimit="10" stroke-width=".9293" d="M105.422 80.293c4.8 1.3 5.7 4.8 6.1 6.3.1.4.6 1.1.4 1.7-.1.4-.9.6-1.1.9-1.1 1.7-3.7 3.3-8.7 1.8"/><path stroke-miterlimit="10" stroke-width=".9293" d="M107.893 86.8995c.9-2.9589-.511-6.0094-3.153-6.8136-2.642-.8041-5.5138.9427-6.4145 3.9016-.9006 2.9588.511 6.0093 3.1525 6.8135 2.642.8041 5.514-.9427 6.415-3.9015z"/><path stroke-miterlimit="10" stroke-width=".9293" d="M103.422 84.2931c-.2-.1-.3-2.4-.1-2.6.3-.3 1.3 0 1.4.3.1.3-1.1 2.4-1.3 2.3zm.6 1.1c0-.2 1.7-1.7 2-1.5.3.1.5 1.3.4 1.6-.2.2-2.4.1-2.4-.1zm-.4 1.1c.2-.2 2.1.6 2.2.9.1.3-.7 1.3-1 1.3-.3 0-1.3-2-1.2-2.2zm-1.2-1.6c.2-.2-.5-2.3-.8-2.4-.3-.1-1.2.8-1.2 1.1 0 .3 1.8 1.5 2 1.3zm-.3 1.0999c0-.3-2-.7-2.3001-.5-.3.2-.1 1.5.1 1.6.2001.2 2.2001-.8 2.2001-1.1zm.5.9c.2.1.3 2.4 0 2.6-.3.3-1.3-.1-1.4-.3-.1-.2 1.2-2.4 1.4-2.3z"/><path stroke-linecap="round" stroke-linejoin="round" stroke-miterlimit="10" stroke-width=".9293" d="M82.4224 86.793c-1.3-.6-.1-2.2999 1.3-2.0999 1.6.2 2.7 2.6.5 3.9-3.3 2.0999-8.9-1.5-13-3.7001-4.8-2.5999-10-2.0999-10.7 2.5001-.4 2.6 1.9 3.9 3.8 3.6 2.5-.5 3.3-3.5001 1.4-4.2001"/><path stroke-linecap="round" stroke-linejoin="round" stroke-miterlimit="10" stroke-width=".9293" d="M79.3223 85.3931c-.6-2.6 1.8-3.8 3.5-4 3.9-.4 5.5 3 5.2 6-.2 2.7-2.7 6.5-9.4 4.9-6.4-1.6-9.9-9.2-17.3-10.2-4.3-.5-7.7 4.1-5.1001 8-1.5-.9-11.0999-13-17.1999-7.1-4.1 4 2.4 9.3 5.3 4.6m78.4997-.8001c1.3-.6.1-2.2999-1.3-2.0999-1.6.2-2.7 2.6-.5 3.9 3.3 2.0999 8.9-1.5 13-3.7001 4.8-2.5999 10-2.0999 10.7 2.5001.4 2.6-1.9 3.9-3.8 3.6-2.5-.5-3.3-3.5001-1.4-4.2001"/><path stroke-linecap="round" stroke-linejoin="round" stroke-miterlimit="10" stroke-width=".9293" d="M125.922 85.3931c.6-2.6-1.8-3.8-3.5-4-3.9-.4-5.5 3-5.2 6 .2 2.7 2.7 6.5 9.4 4.9 6.5-1.6 9.9-9.2 17.4-10.1 4.3-.5 7.7 4.1 5.1 8 1.5-.9 11.1-13 17.2-7.1 4.1 4-2.4 9.3-5.3 4.6"/></svg>