<svg id="Layer_1" x="0" y="0" version="1.1" viewBox="0 0 232.5 150" xml:space="preserve" fill="currentColor"><style>.st0{enable-background:new}.st1{fill:#231f20}.st2,.st3{fill:none;stroke:#231f20;stroke-width:.4646;stroke-linecap:round;stroke-linejoin:round}.st3{stroke:#bc4700;stroke-width:.9293;stroke-miterlimit:10}.st4{fill:#bc4700}.st5{fill:none;stroke-linecap:round;stroke-miterlimit:10}.st5,.st6,.st9{stroke:#bc4700;stroke-width:.9293}.st6{fill:#fff;stroke-linecap:round;stroke-linejoin:round}.st9{fill:none}.st10,.st11,.st9{stroke-miterlimit:10}.st10{fill:none;stroke:#bc4700;stroke-width:.697;stroke-linecap:round}.st11{fill:#bc4700;stroke-width:.4646}.st11,.st12,.st13{stroke:#bc4700}.st12{fill:#fff;stroke-width:.4646;stroke-miterlimit:10}.st13{fill:none;stroke-width:.9293;stroke-linecap:round;stroke-linejoin:round}</style><g class="st0"><path d="M73 125.9c-.2.2-.3.5-.6.7s-.5.4-.8.6c-.3.2-.6.3-1 .4-.4.1-.7.1-1.2.1-.7 0-1.3-.1-1.9-.4-.6-.2-1.1-.6-1.5-1-.4-.4-.8-.9-1-1.5-.2-.6-.4-1.2-.4-1.9s.1-1.3.4-1.9.6-1.1 1-1.5c.4-.4.9-.8 1.5-1s1.2-.4 1.9-.4c.3 0 .7 0 1 .1l.9.3c.3.1.5.3.8.5l.6.6-.8.6c-.1-.1-.2-.3-.4-.4-.2-.1-.3-.3-.6-.4-.2-.1-.5-.2-.7-.3-.3-.1-.5-.1-.8-.1-.6 0-1.1.1-1.6.3-.5.2-.9.5-1.2.9-.3.4-.6.8-.8 1.3-.2.5-.3 1-.3 1.5s.1 1 .3 1.5c.2.5.4.9.8 1.3s.7.7 1.2.9c.5.2 1 .3 1.6.3.5 0 1-.1 1.5-.3s.9-.6 1.2-1l.9.2zM87.6 122.8c0 .7-.1 1.3-.4 1.9-.2.6-.6 1.1-1 1.5-.4.4-.9.8-1.5 1-.6.2-1.2.4-1.9.4s-1.3-.1-1.9-.4c-.6-.2-1.1-.6-1.5-1-.4-.4-.8-.9-1-1.5s-.4-1.2-.4-1.9.1-1.3.4-1.9.6-1.1 1-1.5c.4-.4.9-.8 1.5-1s1.2-.4 1.9-.4 1.3.1 1.9.4 1.1.6 1.5 1c.4.4.8.9 1 1.5.3.6.4 1.2.4 1.9zm-1 0c0-.5-.1-1-.3-1.5-.2-.5-.4-.9-.8-1.3-.3-.4-.7-.7-1.2-.9-.5-.2-1-.3-1.6-.3s-1.1.1-1.6.3c-.5.2-.9.5-1.2.9-.3.4-.6.8-.8 1.3-.2.5-.3 1-.3 1.5s.1 1 .3 1.5c.2.5.4.9.8 1.3.3.4.7.7 1.2.9.5.2 1 .3 1.6.3s1.1-.1 1.6-.3c.5-.2.9-.5 1.2-.9.3-.4.6-.8.8-1.3.2-.4.3-.9.3-1.5zM101.3 125.9c-.2.2-.3.5-.6.7s-.5.4-.8.6c-.3.2-.6.3-1 .4-.4.1-.7.1-1.2.1-.7 0-1.3-.1-1.9-.4-.6-.2-1.1-.6-1.5-1-.4-.4-.8-.9-1-1.5-.2-.6-.4-1.2-.4-1.9s.1-1.3.4-1.9.6-1.1 1-1.5c.4-.4.9-.8 1.5-1s1.2-.4 1.9-.4c.3 0 .7 0 1 .1l.9.3c.3.1.5.3.8.5l.6.6-.8.6c-.1-.1-.2-.3-.4-.4-.2-.1-.3-.3-.6-.4-.2-.1-.5-.2-.7-.3-.3-.1-.5-.1-.8-.1-.6 0-1.1.1-1.6.3-.5.2-.9.5-1.2.9-.3.4-.6.8-.8 1.3-.2.5-.3 1-.3 1.5s.1 1 .3 1.5c.2.5.4.9.8 1.3s.7.7 1.2.9c.5.2 1 .3 1.6.3.5 0 1-.1 1.5-.3s.9-.6 1.2-1l.9.2zM107.8 122.3l4.4-4.1h1.3l-4.6 4.2 4.9 5h-1.4l-4.6-4.9v4.9h-.9v-9.2h.9v4.1zM121.8 127.4h-.9V119h-3.1v-.8h7.1v.8h-3.1v8.4z" class="st1"/></g><g class="st0"><path d="M130.7 127.4h-1l4-9.2h.9l4 9.2h-1l-1-2.4h-4.8l-1.1 2.4zm1.3-3.3h4.1l-2-4.9-2.1 4.9z" class="st1"/></g><g class="st0"><path d="M144.9 127.4h-.9v-9.2h.9v9.2z" class="st1"/></g><g class="st0"><path d="M152.4 126.6h4.3v.8h-5.2v-9.2h.9v8.4z" class="st1"/></g><g class="st0"><path d="M166.5 119.7c-.2-.3-.5-.5-.8-.7-.3-.2-.7-.3-1.1-.3-.2 0-.5 0-.7.1l-.6.3c-.2.1-.3.3-.5.5-.1.2-.2.5-.2.8s.1.5.2.7c.1.2.3.4.4.5l.6.3c.2.1.5.2.7.3.3.1.6.2 1 .3.3.1.6.3.9.5.3.2.5.4.6.7.2.3.2.7.2 1.1s-.1.9-.3 1.2c-.2.3-.4.6-.7.8-.3.2-.6.4-1 .5-.4.1-.7.2-1.1.2-.3 0-.6 0-.8-.1-.3-.1-.5-.1-.8-.3-.3-.1-.5-.3-.7-.4l-.6-.6.8-.6c.2.3.5.6.8.8.4.2.8.3 1.3.3.2 0 .5 0 .7-.1.2-.1.5-.2.7-.3.2-.2.4-.3.5-.6.1-.2.2-.5.2-.8 0-.3-.1-.6-.2-.8-.1-.2-.3-.4-.5-.5-.2-.1-.4-.3-.7-.4-.3-.1-.6-.2-.8-.3l-.9-.3c-.3-.1-.6-.3-.8-.5-.2-.2-.4-.4-.6-.7-.1-.3-.2-.6-.2-1.1 0-.4.1-.8.3-1.1.2-.3.4-.6.7-.8.3-.2.6-.4 1-.5.3-.1.7-.1 1-.1.6 0 1.2.1 1.6.3.4.2.8.5 1 .8l-.6.9z" class="st1"/></g><path d="M46.4 114.1l-6.1 1.7.3-.9c.1-.2.2-.5.2-.8s.1-.5 0-.7l-4.4-15.9.2 18.2-9.1-15.7 4.3 15.4c.1.3.2.7.5.9s.4.5.6.7c.2.2.5.4.8.6l-6.2 1.7c.1-.4.3-.7.4-1.1.1-.3.1-.6.2-1v-.9l-7.2-25.7c-.1-.2-.2-.4-.4-.6l-.6-.6c-.2-.2-.5-.4-.8-.6l7.2-2c-.2.3-.3.6-.4.8-.1.2-.2.5-.2.8s0 .6.2.8l7.1 12.9-.6-14.7c0-.3-.1-.6-.3-.8s-.3-.4-.5-.6c-.2-.2-.5-.4-.8-.6l7.2-2c-.2.3-.3.6-.4 1-.1.3-.1.6-.2.9s0 .7.1 1l7 25.3c.1.3.2.6.4.9.2.3.4.5.6.7.4.6.6.8.9.9zM48.8 80.6c.8-.2 1.7-.2 2.5 0s1.5.5 2.2.9c.7.5 1.2 1 1.7 1.7s.8 1.4 1 2.3l4.1 19.4c.2.8.2 1.7 0 2.5s-.5 1.6-.9 2.2c-.4.7-1 1.3-1.6 1.7-.7.5-1.4.8-2.2 1l-1.1.3c-.8.2-1.7.2-2.5 0s-1.5-.5-2.2-.9c-.7-.5-1.3-1-1.7-1.7s-.8-1.4-1-2.3L43 88.3c-.2-.8-.2-1.7 0-2.5s.5-1.6.9-2.2c.4-.7 1-1.3 1.6-1.8.7-.5 1.4-.8 2.2-1l1.1-.2zm3.4 5.8c-.1-.6-.4-1-.9-1.4-.5-.4-1-.5-1.6-.4l-1.2.2c-.6.1-1 .5-1.3 1-.3.6-.4 1.1-.3 1.7l4 19.2c.1.6.4 1 .9 1.4s1 .5 1.6.4l1.2-.3c.6-.1 1-.5 1.3-1 .3-.6.4-1.1.3-1.7l-4-19.1zM74.8 86.1l-6.4 1c.2-.2.4-.5.5-.8.1-.2.2-.5.3-.8s.1-.5.1-.8l-.1-.4c-.2-1-.5-1.7-1-2.1-.5-.4-1.1-.6-1.8-.5-.7.1-1.2.4-1.6 1s-.5 1.3-.3 2.3c.2.9.5 1.8 1.1 2.6s1.2 1.6 2 2.4c.8.8 1.6 1.6 2.5 2.3s1.7 1.6 2.5 2.5c.8.9 1.5 1.9 2.1 2.9.6 1.1 1 2.2 1.2 3.6.7 4.7-1 7.4-5.2 8.1-1.1.2-2.1.2-2.9.1s-1.6-.4-2.2-.8c-.6-.5-1.1-1.1-1.6-2-.4-.9-.7-2-.9-3.3l-.1-.8c0-.3-.1-.5-.3-.7-.2-.2-.3-.4-.5-.6-.2-.2-.5-.4-.7-.6l6.4-1c-.2.3-.4.5-.5.8-.1.2-.2.5-.3.8s-.1.5-.1.8l.2 1c.2 1 .5 1.7 1 2.1.5.4 1.2.6 1.8.5.7-.1 1.2-.4 1.6-1s.5-1.3.4-2.3c-.2-.9-.5-1.8-1.1-2.6s-1.2-1.6-2-2.4c-.8-.8-1.6-1.6-2.5-2.3-.9-.8-1.8-1.6-2.5-2.5-.8-.9-1.5-1.9-2.1-2.9s-1-2.2-1.2-3.6c-.4-2.5-.1-4.4.8-5.7.9-1.3 2.4-2.1 4.5-2.4 2.1-.3 3.8 0 5 .9 1.2.9 2.1 2.7 2.4 5.2l.3.9c.1.3.3.5.5.7.2.1.5.3.7.4zM87.2 98.6c-.2-.3-.3-.6-.5-.8-.2-.3-.4-.5-.7-.7l6.4-.7c-.2.2-.4.5-.6.8-.1.2-.2.5-.3.8-.1.3-.1.6-.1.9l.2 1.7c.1.8 0 1.7-.2 2.4-.2.8-.6 1.5-1.1 2.1-.5.6-1.1 1.1-1.8 1.5-.7.4-1.5.6-2.3.7l-1.2.1c-.8.1-1.7 0-2.4-.2-.8-.2-1.5-.6-2.1-1.1s-1.1-1.1-1.5-1.8c-.4-.7-.6-1.5-.7-2.3l-2-20.2c-.1-.8 0-1.7.2-2.4.2-.8.6-1.5 1.1-2.1.5-.6 1.1-1.1 1.8-1.5.7-.4 1.5-.6 2.3-.7l1.2-.1c.8-.1 1.7 0 2.4.2.8.2 1.5.6 2.1 1.1.6.5 1.1 1.1 1.5 1.8.4.7.6 1.5.7 2.3l.1 1.2c0 .4.1.7.3 1 .2.3.3.6.5.8.2.3.4.5.7.7l-6.5.7c.2-.2.4-.5.6-.8.1-.2.2-.5.3-.8s.1-.6.1-1l-.1-1.4c-.1-.6-.3-1.1-.8-1.4-.5-.4-1-.5-1.5-.4l-1.2.1c-.6.1-1.1.3-1.4.8s-.5 1-.4 1.6l2 20.2c.1.6.3 1 .8 1.4s1 .5 1.6.4l1.2-.1c.6-.1 1.1-.3 1.4-.8s.5-1 .4-1.6l-.2-1.5c-.1-.3-.2-.7-.3-.9zM100 73.9c.8-.1 1.7.1 2.4.4.8.3 1.4.7 2 1.3.6.6 1.1 1.2 1.4 1.9.4.7.6 1.5.6 2.4l1.1 19.8c.1.9-.1 1.7-.3 2.4-.3.8-.7 1.5-1.2 2.1s-1.2 1.1-1.9 1.5c-.7.4-1.5.6-2.4.6l-1.2.1c-.8.1-1.7-.1-2.4-.4-.8-.3-1.4-.7-2-1.3-.6-.6-1.1-1.2-1.4-1.9-.4-.7-.6-1.5-.6-2.4L93 80.6c-.1-.9.1-1.7.3-2.4.3-.8.7-1.5 1.2-2.1.5-.6 1.2-1.1 1.9-1.5.7-.4 1.5-.6 2.4-.6l1.2-.1zm2.5 6.3c0-.6-.3-1.1-.7-1.6-.4-.5-1-.7-1.5-.7L99 78c-.6 0-1.1.3-1.5.8-.4.5-.6 1.1-.5 1.6l1.1 19.6c0 .6.3 1.1.7 1.6.4.5.9.7 1.6.7l1.2-.1c.6 0 1.1-.3 1.5-.8.4-.5.6-1 .5-1.6l-1.1-19.6zM135.2 74.5c-.3.2-.5.4-.8.7-.2.2-.4.4-.6.7-.2.3-.3.6-.4.9l-5.4 26.6c-.1.4-.1.7 0 1 .1.3.2.6.3.8.1.3.3.5.6.8l-6.5-.1.1-.1c.1-.1.1-.2.3-.3s.2-.3.3-.5c.1-.2.2-.5.2-.8.1-.3.1-.6 0-.9l-1.9-15-2.5 14.9c-.1.3-.1.6 0 .9s.1.5.2.8l.3.6c.1.2.2.3.2.3l.1.1-6.5-.1c.2-.2.4-.4.6-.7.1-.2.2-.5.3-.8.1-.3.1-.7.1-1l-4.2-27c-.1-.4-.2-.7-.3-1-.2-.3-.3-.5-.6-.7l-.7-.7 6.4.1c-.2.2-.3.5-.5.8-.1.2-.2.5-.3.8s-.1.6 0 .8l2.8 18.3 2.9-17.7v-.1-.1c.1-.3 0-.7-.1-1-.2-.3-.3-.6-.5-.8-.2-.3-.5-.6-.8-.8h.8l5.5.1h.8c-.3.2-.6.5-.8.8-.2.2-.4.5-.6.8-.2.3-.2.6-.2.9v.2l2.2 18 3.6-18.2c.1-.3.1-.6 0-.8-.1-.3-.1-.5-.3-.8-.1-.3-.3-.6-.4-.8l6.3.1zM159.5 108.9l-6.3-.8.7-.7c.2-.2.4-.4.5-.7.2-.2.2-.5.3-.7l2-16.3-6.7 16.9-2.5-17.9-1.9 15.9c0 .4 0 .7.1 1l.3.9c.1.3.3.6.5.8l-6.4-.8c.3-.3.5-.6.7-.8.2-.3.4-.5.5-.8.2-.3.3-.6.3-.8l3.2-26.5c0-.2 0-.4-.1-.7-.1-.3-.2-.5-.3-.8-.1-.3-.3-.6-.5-.8l7.4.9c-.3.2-.5.4-.7.6-.2.2-.3.4-.5.7-.1.2-.2.5-.1.8l1.6 14.7 5-13.8c.1-.3.1-.6 0-.8-.1-.3-.1-.5-.3-.8-.1-.3-.3-.6-.5-.8l7.4.9c-.3.2-.5.5-.7.7-.2.2-.4.5-.5.8s-.2.6-.3 1l-3.1 26.1c0 .3 0 .7.1 1s.2.6.3.8c.1.3.3.6.5.8zM182.5 80.9c-.3.2-.5.4-.8.6-.2.2-.4.4-.6.7-.2.3-.3.6-.4.9l-4.3 22.7c-.2.8-.5 1.6-.9 2.3-.5.7-1 1.2-1.6 1.7s-1.4.8-2.1.9-1.6.2-2.4 0l-1.1-.2c-.8-.2-1.6-.5-2.3-.9s-1.2-1-1.7-1.7c-.4-.7-.8-1.4-.9-2.2-.2-.8-.2-1.6 0-2.4l4.3-22.9c.1-.3 0-.6 0-.8-.1-.3-.2-.5-.3-.8-.1-.3-.3-.6-.4-.8l6.4 1.2c-.3.2-.5.3-.7.6l-.6.6c-.2.2-.3.5-.3.7l-4.3 22.9c-.1.6 0 1.1.3 1.6s.8.8 1.4.9l1.1.2c.6.1 1.1 0 1.6-.3s.8-.8.9-1.4l4.3-22.9c0-.2 0-.4-.1-.8-.1-.3-.2-.6-.3-.8-.1-.3-.3-.6-.4-.8l6.2 1.2zM188.6 110.7c.4-.1.8-.2 1.1-.3.3-.1.6-.3.9-.4s.5-.3.6-.4l-2.7 5.3-10.7-2.6c.3-.2.6-.5.8-.8.2-.2.4-.5.6-.8.2-.3.3-.6.4-.9v-.1l6.2-25.6c.1-.4.1-.7.1-1.1s-.1-.6-.2-.9c-.1-.3-.2-.6-.4-.8l6.3 1.5c-.5.2-.9.4-1.2.8-.3.4-.5.8-.6 1.1l-6 24.8 3.6.9c.5.4.8.4 1.2.3zM202.9 114.7c.3-.1.6-.1.9-.2.3-.1.6-.2.8-.3l-2.2 4.7-11.6-3.4c.3-.2.6-.5.8-.7.2-.2.4-.5.7-.8.2-.3.4-.6.5-.9l7.5-25.4c.1-.2.1-.5 0-.8 0-.3-.1-.6-.2-.9l-.3-.9 11.6 3.4-.7 5.2c-.2-.3-.4-.5-.6-.7l-.6-.6c-.2-.2-.5-.4-.9-.5h-.1l-4.9-1.4-2.7 9.1 3.6 1.1c.3.1.6.1.8.1.3 0 .6-.1.8-.2.3-.1.6-.2.8-.4l-1.8 6.1c-.1-.2-.2-.5-.4-.7-.1-.2-.3-.4-.5-.6-.2-.2-.5-.3-.9-.5l-3.7-1.1-2.9 10 5.1 1.5c.4-.2.7-.2 1.1-.2z" class="st1"/><g><path d="M31.6 110.2L33 115c.6 2.1 2.7 3.1 3 3.3l-7 1.8m9.2-12.7l.1 8.4m1.5-31.4c-.2.3-.3.6-.4 1-.1.3-.1.6-.2.9 0 .3 0 .7.1 1l7.3 25.4c.3 1 2 1.9 2.3 2.1l-6.6 1.7M28.1 87.4c-.2.3-.3.6-.4.8-.1.2-.2.5-.2.8s0 .6.2.8l3.9 7.1M56.9 83.6c.5.7.8 1.4 1 2.3l4.1 19.4c.5 2.6-.3 7.2-6.1 8.1m-6.2-27.1c-1.8.2-1.3 1.7-1.2 2.6l3.6 16.9M71.7 78.3c1.7 1 2.3 2.7 2.7 5.2.2 1.7 2 2.9 2.3 3.1l-5.6 1M69 101.1c-1.3.9-.6 2.8.2 3.3m-2.6-20.8c-1.2.7-.6 2.8 1 4.5 4.6 4.9 10.3 8.4 10 15.7-.1 2.9-1.4 7-8.8 7M82.4 80.5c-.4.4-.5 1-.4 1.6l1.8 19.1c.2 1.2.8 1.2 1.1 1.2m3.8-26.6c2 1.3 2.2 4.2 2.4 5.5.2 1.7 1.9 3.8 2.1 4l-6.5.7m7.1 11.4c-.2.2-.5.5-.6.8-.3 1.5.1 2.8.1 4.2-.1 2.1-.8 3.8-3.6 5.4-1.7 1-4.7 1.1-5.5.8M121.2 96.5l-1 6.9c-.1 2.4 1.1 3.7 1.2 3.8l.1.1-6.5-.1m21.9-31.3c-.3.2-.5.4-.8.7-.2.2-.4.4-.6.7-.2.3-.3.6-.4.9l-5.4 26.6c-.1.4-.1.7 0 1s.2.6.3.8c.1.3.3.5.6.8l-6.5-.1m2.5-31.8c-1.2.7-1.2 1.9-1.2 2.7v.2l1.1 8.8m-10-11.7c-.2.2-.3.5-.5.8-.1.2-.2.5-.3.8s-.1.6 0 .8l1.4 9.1M174.9 80.6c-.3.2-.5.3-.7.6l-.6.6c-.2.2-.3.5-.3.7l-4.1 21.9m15-22.1c-.3.2-.5.4-.8.6-.2.2-.4.4-.6.7-.2.3-.3.6-.4.9l-4.3 22.7c-1.1 4.8-6 6.5-10.9 4.7M193.5 84.4c-.5.2-.9.4-1.2.8-.3.4-.5.8-.6 1.1l-5.3 21.8m6 2.7l-3 5.8-10.1-2.4M206.2 115.5l-2.5 5.2-11.6-3.4m16.3-16s-2.1 7-2.4 7.7c-.6-2.4-2.9-3-4.8-3.6l-2.1 7.2m13.1-22.8l-1.1 7c-.9-2.8-2.4-3.1-6.1-4.3-.2.8-1.8 6.2-1.8 6.2M107.5 78.3c.4.7.6 1.5.6 2.4l1 19.8c.1 2.6-1.5 7.1-7.3 7.1m-2-27.6c-1.9 0-1.5 1.5-1.5 2.5l1.2 17.2M147.3 99.4l-.5 4.9c-.3 2.2 1.3 3.9 1.5 4.2l-7.1-1.1m13.4-8l-3.1 7.8m13.4-28.4c-.3.2-.5.5-.7.7-.2.2-.4.5-.5.8-.2.3-.3.6-.3 1l-3.1 26.3c-.1 1.1 1.1 2.6 1.3 2.8l-6.7-.9m-2-32.4c-.3.2-.5.4-.7.6-.2.2-.3.4-.5.7-.1.2-.2.5-.1.8l.8 8.1" class="st2"/></g><g><circle cx="115.8" cy="14.9" r="1.2" class="st3"/><path d="M55.9 69.9c-1.5 1.2-3 1.2-4.2-.4l-4.2-5.1c-1.4-1.7-1.1-3.2.3-4.4 1.4-1.2 2.8-.9 4.1.7l.8 1-1.2 1-.8-1c-.6-.8-1.4-1-2.1-.4-.7.6-.7 1.4 0 2.1l4.1 5c.7.8 1.5 1.2 2.2.6.7-.6.7-1.3 0-2.1l-.8-.9 1.2-1 .7.9c1.2 1.2 1.4 2.8-.1 4zM60.3 66.2l-7-10.2 1.3-.9 6.2 9.1 2.8-1.9.8 1.2-4.1 2.7zM70.8 59.6l-2.3-2.8-2.2 1.3 1.2 3.5-1.3.7-4.1-12.1 1.8-1 8.4 9.7-1.5.7zm-6.9-8.2l1.8 5.4 1.8-1-3.6-4.4zM76.7 57c-1.5.7-3 .2-3.8-1.7l-.2-.5 1.3-.6.1.2c.3.8 1 1.7 2.1 1.2.8-.4.8-1.2.3-2.2-.4-.9-1.3-1.3-2.1-1.5l-1.3-.3c-1-.2-2.2-.6-3-2.2-.8-1.8-.4-3.4 1.3-4.2 1.5-.7 2.9-.1 3.7 1.6l.2.5-1.2.7-.2-.5c-.3-.8-1-1.3-1.8-.9-.9.4-.9 1.3-.5 2.1.5 1.1 1.5 1.2 2.2 1.4l1.1.3c1.2.3 2.4.7 3.2 2.3.7 1.8.4 3.4-1.4 4.3zM84.3 53.9c-1.6.6-3 0-3.7-2l-.2-.5 1.4-.5.1.2c.3.8.8 1.8 2 1.4.9-.3.9-1.2.6-2.2-.3-.9-1.1-1.4-1.9-1.7l-1.3-.4c-1-.3-2.2-.8-2.8-2.5-.7-1.8-.1-3.4 1.7-4 1.6-.6 2.9.1 3.5 1.9l.2.6-1.4.5-.2-.5c-.3-.8-.9-1.4-1.7-1.1-.9.3-1 1.2-.7 2 .4 1.1 1.4 1.3 2.1 1.6l1 .4c1.2.4 2.4.9 3 2.6.6 1.9.2 3.5-1.7 4.2zM89.8 51.9l-3.3-12 1.5-.4 3.3 12-1.5.4zM97.5 50.3c-1.9.4-3.2-.3-3.6-2.3l-1.3-6.5c-.4-2.2.6-3.4 2.4-3.7 1.8-.3 2.9.6 3.3 2.5l.2 1.2-1.5.3-.2-1.2c-.2-1-.8-1.5-1.6-1.4-.9.2-1.2.9-1 1.8l1.2 6.3c.2 1 .7 1.7 1.7 1.5.9-.2 1.2-.8 1-1.9l-.2-1.2 1.5-.3.2 1.1c.3 1.9-.3 3.5-2.1 3.8zM110.4 48.7c-1.9.1-3.1-.8-3.2-2.8l-.4-6.6c-.1-2.2 1-3.3 2.9-3.4 1.8-.1 2.8 1 2.9 2.9l.1 1.3-1.5.1-.1-1.3c-.1-1-.5-1.6-1.4-1.6-.9 0-1.3.7-1.3 1.7l.4 6.4c.1 1 .5 1.8 1.5 1.8.9 0 1.3-.7 1.2-1.7l-.1-1.2 1.5-.1.1 1.1c.1 1.9-.7 3.3-2.6 3.4zM118.9 48.6c-1.9-.1-2.9-1.2-2.8-3.1l.2-6.7c.1-1.9 1.1-3.1 3.1-3 2 .1 2.9 1.4 2.8 3.3l-.2 6.5c-.1 1.7-1.2 3.1-3.1 3zm1.7-9.7c0-.9-.3-1.6-1.3-1.6s-1.4.7-1.4 1.5l-.2 6.7c0 .9.3 1.6 1.3 1.7 1 0 1.4-.7 1.4-1.6l.2-6.7zM125 48.8l1.5-12.3 1.6.2-1.3 10.9 3.3.4-.2 1.4-4.9-.6zM132.6 49.8l2.5-12.2 1.6.3-2.2 10.8 3.3.7-.3 1.4-4.9-1zM140.1 51.5l3.5-11.9 4.7 1.4-.4 1.4-3.2-.9-1.1 3.7 2.6.8-.4 1.4-2.6-.8-1.2 4.1 3.2.9-.4 1.4-4.7-1.5zM150.1 55c-1.8-.7-2.5-2-1.7-3.9l2.4-6.2c.8-2 2.3-2.5 4-1.9s2.1 2.1 1.4 3.9l-.5 1.2-1.4-.5.5-1.2c.4-.9.2-1.7-.6-2-.9-.3-1.5.1-1.9 1l-2.3 6c-.4 1-.3 1.9.6 2.2.9.3 1.5-.1 1.9-1l.4-1.1 1.4.5-.4 1c-.7 1.8-2.1 2.7-3.8 2zM162.9 48.5l-4.9 9.9-1.4-.7 4.9-9.9-1.9-.9.6-1.3 5.2 2.6-.6 1.3-1.9-1zM162.2 60.6l6.2-10.8 1.4.8-6.2 10.8-1.4-.8zM168.7 64.8c-1.6-1.1-1.8-2.6-.8-4.1l3.8-5.6c1.1-1.5 2.6-2 4.2-.9s1.7 2.7.7 4.3l-3.6 5.4c-1.1 1.4-2.7 2-4.3.9zm6.6-7.3c.5-.7.6-1.5-.2-2.1-.8-.6-1.5-.2-2 .6l-3.8 5.5c-.5.7-.6 1.5.2 2.1.9.6 1.5.2 2.1-.6l3.7-5.5zM177.1 71l3.7-9.2-6 7.3-1-.9 7.9-9.6 1.4 1.1-3.5 8.5 5.6-6.8 1.1.9-7.9 9.6-1.3-.9z" class="st4"/><path d="M110.2 134c-3.4-.3-5.4.9-6.9 1.6-1.5.8-1.3.9-1 1s.6.1.9.3c.3.1 2.5 2.1 2.8 2.3.3.1 1.9 1.7 3.2 1.8 1.3.1 3.4-.6 3.4-.6l-2.4-6.4z" class="st5"/><path d="M109.9 138.4c-1.3-.6-1.5-2-4-2.3-2.2-.3-3.3.2-3.8.4M122.4 138.2c2.9-1.9 3.7-4 4.4-5.5s.4-1.5.2-1.4c-.2.1-.5.2-.9.4-.3.1-3.3-.1-3.6-.1-.3.1-2.5-.2-3.6.5s-2.4 2.6-2.4 2.6l5.9 3.5z" class="st5"/><path d="M120 134.6c1.4-.4 2.4.6 4.6-.6 1.9-1.1 2.4-2.2 2.7-2.7" class="st5"/><path d="M137.7 30.6c3.8-.1 7.7.2 11.5.9s7.5 1.6 11.2 2.8c3.7 1.2 7.2 2.7 10.7 4.4 1.7.9 3.4 1.8 5.1 2.8.8.5 1.6 1 2.5 1.5.8.5 1.6 1 2.2 1.9.2.2.1.5-.1.7-.1.1-.3.1-.4.1-.9-.3-1.6-1-2.4-1.5-.8-.5-1.6-1.1-2.4-1.6-1.6-1-3.3-1.9-4.9-2.8-3.4-1.8-6.9-3.3-10.4-4.6-3.6-1.3-7.2-2.4-11-3.2-4-.7-7.8-1.2-11.6-1.4z" class="st4"/><path d="M144.2 31.3c-1-1.7-3.4-2.1-5.5-3.5s-5.5-4.5-7.3-4.7c1.5-.7 5.3-.9 7.7.9 2.4 1.8 3.6 4.4 4.2 5.2s.9 2.1.9 2.1zM161.1 34.7c-.8-.7-3.2-2.9-4.7-5s-3-6.3-4.6-7c1.6-.1 5.3.9 7 3.4s1.4 5.3 1.8 6.2c.3.9.5 2.4.5 2.4zM148.8 31.9c-1.3-2-4.4-3.2-5.7-5.3-1.7-2.8-4.7-6.1-6.4-6.7 1.6-.3 6.4 1.9 8.3 4.2s2.2 2.8 2.6 3.7c.5.8 1.2 4.1 1.2 4.1zM154.4 32.9c-1-2.2-4-3.7-5-6-1.3-3-3.9-6.6-5.5-7.5 1.6 0 6.1 2.7 7.7 5.3s1.8 3.1 2.2 4 .6 4.2.6 4.2zM165.9 37c-.5-2.3-2.2-4.8-3.4-7-1.7-3.3-3.7-6.8-6.2-8 3.1.1 7.6 2.7 8.7 5.5 1.9 4.5.9 9.5.9 9.5zM170.4 39.1c-.1-2-1.1-4.3-1.6-6.3-.9-3-1.4-5-2.7-6.6 2.3.5 4.3 2.3 4.8 4.8.8 4-.5 8.1-.5 8.1zM157.4 33.7c-.9.1-2.3.5-3.3.9-1.8.8-2 1.5-3.7 2.1 1.2.5 3 .4 4.1-.2 1.7-.7 2.9-2.8 2.9-2.8zM146.8 31.3c-1.9.5-4.8.5-6.8.7-3.5.5-3.8 1.3-5.4 1.1 1.2.5 3.4.9 5.9.4s3-.6 3.7-.8c.6-.2 2.6-1.4 2.6-1.4zM152.4 32.2c-1.7.7-4.7.5-6.5 1.2-2.3.9-5.9 1.8-7.5 1.7 1.3.5 6 .5 8.3-.2s2.8-.8 3.4-1.1c.6-.2 2.3-1.6 2.3-1.6zM163.2 35.6c-1.4.8-2.8.3-4.7.9-2.7.9-2.5 3.1-4.9 2.9 2.5.8 3.9 0 6-.9 3.4-1.4 3.6-2.9 3.6-2.9zM168 37.7c-.8.6-2.2 1-3.3 1.4-1.6.6-2.7 1-4.2 1.2 1.8.5 3.9.5 5.1-.1 2-.9 2.4-2.5 2.4-2.5zM140.4 30.8c-2.9-1.5-4-2.6-7.3-2.8-5.1-.3-7-1.5-7-1.5s.4 3.2 4.8 3.8c4.5.4 9.5.5 9.5.5z" class="st4"/><path d="M178.4 46.6c0-.6.1-1.2.6-1.5.2-.1.4-.2.6-.2.8-.2 1.6-.4 2.5-.6.2 0 .4-.1.6-.1.4 0 .8.2 1.1.2.6 0 1.1-.4 1.6-.6.5-.2 1.3-.2 1.6.3.2.3.1.7-.1 1-.2.3-.5.5-.8.7.7.7 1.3 1.4 2.1 2s1.9.8 2.7.3c.2-.2.2-.2.4-.5.2-.2.5-.4.7-.2.1.1.1.3.2.5s.3.3.5.3c.4.1 1.7-1.3 2.1-1.4.5-.1 1-.4 1.5-.2s.4.9.2 1.3c.2.3.6.2 1 .2.3 0 .6.1.9.2.3.2.5.4.6.7s-.1.7-.4.8c.2.5-.2 1.2-.7 1.4s-1.1-.2-1.6-.3c-.6-.2-.7-.3-1.3-.3-.2 0-.9 0-1.1-.1-.4-.1-1.1.3-1.6.3-.6 0-1.5.4-2 .3.2.6.8 1 1.5 1.1.6.1 1.3.1 1.9.1s1.3.2 1.7.7c-.4.4-.8.8-1.3 1.1.4.2.9 0 1.1.3.3.3 0 .9-.3 1.2-.4.4-.8.6-1.3.7h-.3c-.1 0-.2-.1-.3-.1-.5-.3-1-.7-1.5-1-.1-.1-.2-.2-.4-.2-.1 0-.3 0-.4.1-.5.2-.7.5-1.3.3-.2-.1-1.2-.7-1.1-.9-.1.2.1.4.2.6.1.2.3.3.3.5s-.2.4-.4.3c.2.2.2.6-.1.9-.2.2-.6.3-.9.4-.2 0-.4.1-.5 0-.1-.1-.2-.2-.2-.3-.4-.7-.7-1.4-1.1-2.1-.1-.3-.4 0-.6-.3-.2-.3.1-.6.4-.9.4-.4.4-1.1.3-1.7s-.4-1.1-.8-1.6c-.1.4-.3.8-.5 1.3-.1.2-.1.3-.3.5-.1.1-.3.2-.5.2-.5 0-1-.5-.9-1 0-.2.1-.5 0-.7l-.3-.3c-.1-.2 0-.5.2-.7.2-.2.4-.3.6-.5.1-.3-.1-.7-.3-.9-.3-.5-.7-.9-1-1.3-.1-.2-.4-.4-.5-.2-.2.2 0 .4-.1.6-.1.2-.5.1-.7.1h-.4c-.6.1-1.3-.3-1.8-.6.1.1 0 0 0-.2zM190.7 51.6c-.5.3-1.6-.6-2.2-1.2M186.1 45.8c-.4 0-.8-.1-1.1-.3M193.9 54.2c-.4-.1-.8-.3-1.1-.6" class="st6"/><g><path d="M176.7 26.1c0-.4 1.1 1.1.9 2-.1.6-.6 1.5-.6 1.5-1.2-1.7-.3-2.1-.3-3.5z" class="st4"/><path d="M174.2 27.4c1.1.9 2 .3 2.6 2.4 0 0-1-.1-1.5-.4-.9-.5-1.5-2.3-1.1-2zM176.7 26c.2-1.2.1-3-.5-4.7.1 0 1 2.2.6 4.7 0 0 0-.1-.1 0zM174 27.3s-.1.1 0 .1c-2.2-1.2-3.4-3.2-3.4-3.3 1 1.4 2.3 2.6 3.4 3.2zM176.5 25.9c-.1.6-.6 1.5-.6 1.5-1.2-1.8-.3-2.1-.3-3.5 0-.5 1.1 1.1.9 2z" class="st4"/><path d="M175.7 27.5s-1-.1-1.5-.4c-.8-.4-1.4-2.2-1.1-2 1.1.9 1.9.3 2.6 2.4zM175.6 23.7c.2-1.2.1-3.1-.5-4.6.1 0 .9 2.1.6 4.6h-.1z" class="st4"/><path d="M172.9 25.1c-2.2-1.2-3.3-3.2-3.3-3.3.9 1.4 2.3 2.6 3.4 3.1-.1.1-.1.2-.1.2zM174.4 21.3c0-.4 1.1 1.1.9 2-.1.6-.6 1.5-.6 1.5-1.3-1.7-.3-2-.3-3.5z" class="st4"/><path d="M174.4 25s-1-.1-1.5-.4c-.8-.4-1.4-2.2-1.1-2 1.1.9 2 .3 2.6 2.4zM174.4 21.2s.2-1.1 0-2.4c-.1-.5-.1-.7-.4-1.7.1 0 .9 1.6.5 4.1h-.1z" class="st4"/><path d="M171.7 22.5s-.1.1 0 .1c-2.2-1.2-3-2.8-3-2.9.6 1 .8 1 1.1 1.4.9.9 1.9 1.4 1.9 1.4zM174.1 21c-.1.5-.6 1.4-.6 1.4-1.2-1.7-.3-2-.3-3.4 0-.4 1 1.1.9 2zM173.2 22.5s-1-.1-1.5-.4c-.8-.4-1.4-2.1-1-1.9 1 .9 1.8.3 2.5 2.3z" class="st4"/><path d="M173.2 18.9s.2-1.1 0-2.3c-.1-.5-.1-.6-.4-1.7.1.1.9 1.5.5 4 0 0-.1-.1-.1 0zM170.5 20.2v.1c-2.1-1.2-2.9-2.7-2.9-2.8.6.9.7 1 1.1 1.3.9.9 1.8 1.4 1.8 1.4zM172.3 20.1c-1.2-1.6-.3-2-.3-3.3 0-.4 1 1 .9 1.9-.1.6-.6 1.4-.6 1.4z" class="st4"/><path d="M169.6 18c1 .8 1.8.3 2.4 2.2 0 0-1-.1-1.4-.4-.7-.4-1.3-2-1-1.8zM172 16.7s.2-1 0-2.2c-.1-.5 0-.6-.4-1.6.1.1.8 1.5.5 3.8h-.1z" class="st4"/><path d="M169.5 18v.1c-2.1-1.1-2.8-2.6-2.8-2.7.6.9.7.9 1 1.3.9.8 1.8 1.3 1.8 1.3zM171.7 16.4c-.1.5-.6 1.4-.6 1.4s-.6-.8-.6-1.4c0-.5.3-1.1.3-1.8 0-.5 1 .9.9 1.8zM170.9 17.9s-.9-.1-1.4-.4c-.8-.4-1.3-2-1-1.8.6.5 1.3.5 1.6.9.5.3.8 1.3.8 1.3zM170.3 16.3s-.9-.5-1.2-.8c-.4-.5-.5-1.9-.3-2l-1.1-2.5 1.3 2.4c.3 0 1.3.8 1.4 1.5 0 .5-.1 1.4-.1 1.4zM170.9 14.4c0-.1 0 0 0 0 .1-.4.2-1.5-.3-2.9.1 0 .8 1.6.3 2.9.1 0 0 0 0 0zM168.3 15.7c-1.3-.5-2.1-1.9-2.1-2 .5.7.6.9.9 1.1.7.7 1.3.8 1.2.9 0-.1 0 0 0 0z" class="st4"/></g><path d="M189.1 39.2c.3-5-.4-6.4-2.7-9.7-3.4-5.1-1.4-8.9-1.4-8.9s-4.3 4-2.4 9.1c1.6 4.2 6.5 9.5 6.5 9.5zM44.5 39.2c-.3-5 .4-6.4 2.7-9.7 3.4-5.1 1.4-8.9 1.4-8.9s4.3 4 2.4 9.1c-1.7 4.2-6.5 9.5-6.5 9.5zM86.8 61.5c-.4-2.7-6.9-1.8-6.5 2 .2 2 2.7 2.8 4.7 2.9 7.6.1 14.2-6 20.3-8.4 2.7-1.1 5.6-.5 6.2 1.1 1.3 3.3-2.7 5-6.7 5-4.3 0-9-2.2-9-5.3 0-2.4 3.8-2.7 3.7-1M143 61.5c.4-2.7 6.9-1.8 6.5 2-.2 2-2.7 2.8-4.7 2.9-7.6.1-14.2-6-20.3-8.4-2.7-1.1-5.6-.5-6.2 1.1-1.3 3.3 2.7 5 6.7 5 4.3 0 9-2.2 9-5.3 0-2.4-3.8-2.7-3.6-1" class="st3"/><path stroke-linecap="round" stroke-miterlimit="10" stroke-width=".9293" d="M116.7 131.2c4.8 1.3 5.7 4.8 6.1 6.3.1.4.6 1.1.4 1.7-.1.4-.8.6-1.1.9-1.1 1.7-3.7 3.3-8.7 1.8"/><g><ellipse cx="114.4" cy="136.4" fill="#fff" stroke="#bc4700" stroke-miterlimit="10" stroke-width=".9293" rx="5.7" ry="5" transform="rotate(-73.07 114.376815 136.36649194)"/><path d="M114.7 135.2c-.2-.1-.3-2.4-.1-2.6.3-.3 1.3 0 1.4.3s-1.1 2.4-1.3 2.3zM115.3 136.3c-.1-.2 1.7-1.7 2-1.6s.5 1.3.4 1.6c-.2.3-2.4.2-2.4 0zM114.9 137.4c.2-.2 2.1.6 2.2.9s-.7 1.3-1 1.3-1.3-2-1.2-2.2zM113.7 135.8c.2-.2-.5-2.3-.8-2.4s-1.2.8-1.2 1.1 1.8 1.5 2 1.3zM113.4 136.9c0-.2-2-.7-2.3-.4-.3.2-.2 1.5.1 1.6s2.2-1 2.2-1.2zM113.9 137.8c.2.1.3 2.4 0 2.6s-1.3-.1-1.4-.3c-.1-.3 1.2-2.4 1.4-2.3z" class="st9"/></g><path d="M93.7 137.7c-1.2-.6-.1-2.2 1.3-2.1 1.6.2 2.7 2.6.5 3.9-3.3 2.1-8.9-1.5-13-3.7-4.8-2.6-10-2.1-10.7 2.5-.4 2.6 1.9 3.9 3.8 3.6 2.5-.5 3.2-3.5 1.4-4.2" class="st3"/><path d="M90.6 136.2c-.6-2.6 1.8-3.8 3.5-4 3.9-.4 5.4 3 5.2 6-.2 2.7-2.7 6.5-9.4 4.9-6.5-1.6-9.9-9.2-17.4-10.1-4.3-.5-7.7 4.1-5.1 8-1.5-.9-11.1-13-17.2-7.1-4.1 4 2.4 9.3 5.3 4.6M134.1 137.7c1.2-.6.1-2.2-1.3-2.1-1.6.2-2.6 2.6-.5 3.9 3.3 2.1 8.9-1.5 13-3.7 4.8-2.6 10-2.1 10.7 2.5.4 2.6-1.9 3.9-3.8 3.6-2.5-.5-3.2-3.5-1.4-4.2" class="st3"/><path d="M137.2 136.2c.6-2.6-1.8-3.8-3.5-4-3.9-.4-5.4 3-5.2 6 .2 2.7 2.7 6.5 9.4 4.9 6.5-1.6 9.9-9.2 17.4-10.1 4.3-.5 7.7 4.1 5.1 8 1.5-.9 11.1-13 17.2-7.1 4.1 4-2.4 9.3-5.3 4.6" class="st3"/><g><path d="M202.2 65.8l.2-3.9M203.8 66l1.5-1.9M200.7 65.9l-1.3-2.1" class="st10"/><g><path d="M214.3 68.2c.1.2 1.6 1.7 2 3.7.4 2.3.4 5-.7 6.3-.8 1-1.5 1-2.4 1.3s-2.6.5-3.3.3-3-1.4-3.9-4.4c-.7-2.4-.4-4.2-.5-4.9" class="st3"/><ellipse cx="209.9" cy="69.1" class="st4" rx="4.7" ry="1.2" transform="matrix(.9682 -.25 .25 .9682 -10.6164 54.67)"/><path d="M216.6 74.2s.3.1.4.1c.1-.1.4-.3.6-.4.2-.1 1.4.2 1.5.1.1-.1.2-1.8-.2-2.9s-.8-2.3-1.1-2.3c-.1 0-.9.8-1.1.8-.2 0-.7-.2-.8-.1-.1.1-.2.4-.2.4l-.7-1.1c.3-.2.4-.2.6-.2.2 0 .8.2.9.2s1-1.1 1.2-1.1 1.7 1.9 1.9 3.1c.2 1.2.3 3.5-.1 3.8-.2.2-1.3-.1-1.5-.1s-.4.3-.5.4-.9.2-.9.2v-.9z" class="st11"/><g><path d="M204.9 67.4c-.4.3-.8.7-1.1 1.1-1.2 1.8-.8 4.2 1 5.4l.1.1 4.4-6.4-.1-.1c-1.3-.8-3-.9-4.3-.1z" class="st12"/><path d="M204.9 74.2s-.1 0 0 0l-.3-.1c-1.8-1.3-2.3-3.8-1-5.6.3-.5.7-.8 1.2-1.1 1.4-.8 3.1-.8 4.4.1l.2.1s.1.1 0 .1l-4.5 6.5zm0-6.8c-.4.3-.8.7-1.1 1.1-1.2 1.8-.8 4.2 1 5.4l.1.1 4.4-6.4-.1-.1c-1.3-.8-3-.9-4.3-.1z" class="st12"/><path d="M204.4 69.9c-.2 0-.3-.2-.2-.3 0 0 .1-.4.3-.7.2-.3.5-.5.5-.5.1-.1.3-.1.4.1l.7 1.3c.1.2 0 .2-.2.2l-1.5-.1zM205.1 72.3c-.1.1-.3.2-.4 0 0 0-.3-.3-.4-.6-.1-.3-.2-.7-.2-.7 0-.2.1-.3.3-.3l1.5.1c.2 0 .2.1.1.3l-.9 1.2zM206 68.2c-.1-.2 0-.3.2-.4 0 0 .4-.1.7-.1.4 0 .7.2.7.2.1.1.2.2.1.4l-.8 1.3c-.1.1-.2.1-.3 0l-.6-1.4z" class="st4"/></g><path d="M212.2 71.7c-.4-.5.9-.9 1.4-1.3s1.9 4.6 1.3 6.2c-.6.5-1.3.5-1.3.5s.3-3.3-1.4-5.4z" class="st4"/></g><g><path d="M190.3 68.3c-.1.2-1.6 1.7-2 3.7-.4 2.3-.4 5 .7 6.3.8 1 1.5 1 2.4 1.3s2.6.5 3.3.3 3-1.4 3.9-4.4c.7-2.4.4-4.2.5-4.9" class="st3"/><ellipse cx="194.7" cy="69.3" class="st4" rx="1.2" ry="4.7" transform="matrix(.25 -.9682 .9682 .25 78.9704 240.4756)"/><path d="M188 74.3s-.3.1-.4.1-.4-.3-.6-.4-1.4.2-1.5.1c-.1-.1-.2-1.8.2-2.9s.8-2.3 1.1-2.3c.1 0 .9.8 1.1.8.2 0 .7-.2.8-.1s.2.4.2.4l.7-1.1c-.3-.2-.4-.2-.6-.2-.2 0-.8.2-.9.2s-1-1.1-1.2-1.1-1.7 1.9-1.9 3.1-.3 3.5.1 3.8c.2.2 1.3-.1 1.5-.1s.4.3.5.4c.1.1.9.2.9.2v-.9z" class="st11"/><g><path d="M195.5 67.7l-.1.1 4.4 6.4.1-.1c1.8-1.2 2.2-3.7 1-5.4-.3-.4-.7-.8-1.1-1.1-1.4-.9-3-.8-4.3.1z" class="st12"/><path d="M199.7 74.3l-4.5-6.5v-.1l.2-.1c1.3-.9 3.1-1 4.4-.1.5.3.9.7 1.2 1.1 1.3 1.8.8 4.4-1 5.6l-.2.1h-.1zm-4.2-6.6l-.1.1 4.4 6.4.1-.1c1.8-1.2 2.2-3.7 1-5.4-.3-.4-.7-.8-1.1-1.1-1.4-.9-3-.8-4.3.1z" class="st12"/><path d="M200.2 70.1c.2 0 .3-.2.2-.3 0 0-.1-.4-.3-.7-.2-.3-.5-.5-.5-.5-.1-.1-.3-.1-.4.1l-.7 1.3c-.1.2 0 .2.2.2l1.5-.1zM199.6 72.4c.1.1.3.2.4 0 0 0 .3-.3.4-.6.1-.3.2-.7.2-.7 0-.2-.1-.3-.3-.3l-1.5.1c-.2 0-.2.1-.1.3l.9 1.2zM198.6 68.3c.1-.2 0-.3-.2-.4 0 0-.4-.1-.7-.1-.4 0-.7.2-.7.2-.1.1-.2.2-.1.4l.8 1.3c.1.1.2.1.3 0l.6-1.4z" class="st4"/></g><path d="M192.4 71.9c.4-.5-.9-.9-1.4-1.3s-1.9 4.6-1.3 6.2c.6.5 1.3.5 1.3.5s-.3-3.4 1.4-5.4z" class="st4"/></g></g><g><path d="M30.4 65.8l.1-3.9M31.9 66l1.6-1.9M28.9 65.9l-1.4-2.1" class="st10"/><g><path d="M42.5 68.2c.1.2 1.6 1.7 2 3.7.5 2.3.4 5-.7 6.3-.8 1-1.5 1-2.4 1.3s-2.5.5-3.3.3-3-1.4-3.8-4.4c-.7-2.4-.5-4.2-.5-4.9" class="st3"/><ellipse cx="38.1" cy="69.1" class="st4" rx="4.7" ry="1.2" transform="matrix(.9682 -.25 .25 .9682 -16.0736 11.7103)"/><path d="M44.8 74.2s.3.1.5.1c.2-.1.4-.3.6-.4s1.4.2 1.5.1c.1-.1.2-1.8-.2-2.9s-.8-2.3-1.1-2.3c-.1 0-.9.8-1.1.8-.2 0-.7-.2-.8-.1-.1.1-.2.4-.2.4l-.7-1.1c.3-.2.4-.2.6-.2s.8.2.9.2c.2-.1 1-1.1 1.2-1.1s1.7 1.9 1.9 3.1c.2 1.2.3 3.5-.1 3.8-.2.2-1.3-.1-1.5-.1s-.4.3-.5.4c-.2.1-.9.2-.9.2l-.1-.9z" class="st11"/><g><path d="M33 67.4c-.5.3-.8.7-1.1 1.1-1.2 1.8-.8 4.2 1 5.4l.1.1 4.4-6.4-.1-.1c-1.3-.8-3-.9-4.3-.1z" class="st12"/><path d="M33 74.2l-.3-.1c-1.8-1.3-2.3-3.8-1-5.6.3-.5.7-.8 1.2-1.1 1.4-.8 3.1-.8 4.5.1l.2.1v.1L33 74.2c.1 0 .1 0 0 0zm0-6.8c-.5.3-.8.7-1.1 1.1-1.2 1.8-.8 4.2 1 5.4l.1.1 4.4-6.4-.1-.1c-1.3-.8-3-.9-4.3-.1z" class="st12"/><path d="M32.5 69.9c-.2 0-.3-.2-.2-.3 0 0 .1-.4.3-.7.2-.3.5-.5.5-.5.1-.1.3-.1.4.1l.7 1.3c.1.2 0 .2-.2.2l-1.5-.1zM33.2 72.3c-.1.1-.3.2-.4 0 0 0-.3-.3-.5-.6s-.2-.7-.2-.7c0-.2.1-.3.3-.3l1.5.1c.2 0 .2.1.1.3l-.8 1.2zM34.2 68.2c-.1-.2 0-.3.2-.4 0 0 .4-.1.7-.1.3 0 .7.2.7.2.2.1.2.2.1.4l-.9 1.3c-.1.1-.2.1-.3 0l-.5-1.4z" class="st4"/></g><path d="M40.3 71.7c-.4-.5.9-.9 1.5-1.3s1.8 4.6 1.3 6.2c-.6.5-1.3.5-1.3.5s.2-3.3-1.5-5.4z" class="st4"/></g><g><path d="M18.5 68.3c-.1.2-1.6 1.7-2 3.7-.5 2.3-.4 5 .7 6.3.8 1 1.5 1 2.4 1.3s2.5.5 3.3.3c.7-.3 3-1.4 3.9-4.4.7-2.4.5-4.2.5-4.9" class="st3"/><ellipse cx="22.9" cy="69.3" class="st4" rx="1.2" ry="4.7" transform="matrix(.25 -.9682 .9682 .25 -49.9108 74.0816)"/><path d="M16.2 74.3s-.3.1-.4.1c-.1-.1-.4-.3-.6-.4-.2-.1-1.4.2-1.5.1-.1-.1-.2-1.8.2-2.9s.8-2.3 1.1-2.3c.1 0 .9.8 1.1.8.2 0 .7-.2.8-.1.1.1.2.4.2.4l.7-1.1c-.3-.2-.4-.2-.6-.2s-.8.2-.9.2-1-1.1-1.2-1.1c-.2 0-1.7 1.9-1.9 3.1-.2 1.2-.3 3.5.1 3.8.2.2 1.3-.1 1.5-.1s.4.3.5.4c.1.1.9.2.9.2v-.9z" class="st11"/><g><path d="M23.6 67.7l-.1.1 4.4 6.4.1-.1c1.8-1.2 2.2-3.7 1-5.4-.3-.4-.7-.8-1.1-1.1-1.3-.9-3-.8-4.3.1z" class="st12"/><path d="M27.9 74.3l-4.5-6.5v-.1l.2-.1c1.3-.9 3.1-1 4.5-.1.5.3.9.7 1.2 1.1 1.3 1.8.8 4.4-1 5.6l-.3.1h-.1zm-4.3-6.6l-.1.1 4.4 6.4.1-.1c1.8-1.2 2.2-3.7 1-5.4-.3-.4-.7-.8-1.1-1.1-1.3-.9-3-.8-4.3.1z" class="st12"/><path d="M28.4 70.1c.2 0 .3-.2.2-.3 0 0-.1-.4-.3-.7-.2-.3-.5-.5-.5-.5-.1-.1-.3-.1-.4.1l-.7 1.3c-.1.2 0 .2.2.2l1.5-.1zM27.7 72.4c.1.1.3.2.4 0 0 0 .3-.3.5-.6.1-.3.2-.7.2-.7 0-.2-.1-.3-.3-.3l-1.5.1c-.2 0-.2.1-.1.3l.8 1.2zM26.8 68.3c.1-.2 0-.3-.2-.4 0 0-.4-.1-.7-.1-.4 0-.7.2-.7.2-.1.1-.2.2-.1.4l.8 1.3c.1.1.2.1.3 0l.6-1.4z" class="st4"/></g><path d="M20.6 71.9c.4-.5-.9-.9-1.5-1.3s-1.9 4.6-1.3 6.2c.6.5 1.3.5 1.3.5s-.2-3.4 1.5-5.4z" class="st4"/></g></g><path d="M177 30.1c4.1 10.6 11.5 13.7 21.2 9 4.5-2.2 5.3-9.6 1.4-10-2.5-.2-4.1 3.5-4 5.5.2 5.7 4.9 8.7 7.1 9.7-.4-1.2-.2-3.3.4-4.5 1.1-2.2 4.1-2.6 6.1-1.8 4.4 1.8 2.9 7.7 2.1 8.6-2.2 2.5-5-.5-2.1-2.2.9-.5 3-1.5 5.9-.5 2.8 1 3.4 5.5 1.5 7.1" class="st13"/><circle cx="203.3" cy="50.8" r="1" class="st3"/><circle cx="204.9" cy="55.6" r="1" class="st3"/><circle cx="200.9" cy="58.6" r="1.6" class="st3"/><g><path d="M95.5 30.6c-3.8.2-7.6.7-11.4 1.5-3.7.8-7.4 1.8-11 3.2-3.6 1.3-7.1 2.8-10.5 4.6-1.7.9-3.3 1.8-5 2.8-.8.5-1.6 1-2.4 1.6-.8.5-1.5 1.2-2.4 1.5-.2.1-.5 0-.6-.3 0-.2 0-.3.1-.4.6-.8 1.4-1.3 2.2-1.9.8-.5 1.6-1 2.5-1.5 1.7-1 3.4-1.9 5.1-2.8 3.4-1.7 7-3.2 10.7-4.4 3.7-1.2 7.4-2.2 11.2-2.9 3.8-.7 7.7-1.1 11.5-1z" class="st4"/><path d="M88.9 31.3c1-1.7 3.4-2.1 5.5-3.5s5.5-4.5 7.3-4.7c-1.5-.7-5.3-.9-7.7.9-2.4 1.8-3.6 4.4-4.2 5.2s-.9 2.1-.9 2.1zM72.1 34.7c.8-.7 3.2-2.9 4.7-5s3-6.3 4.6-7c-1.7-.1-5.3.9-7 3.4s-1.4 5.3-1.8 6.2c-.4.9-.5 2.4-.5 2.4zM84.4 31.9c1.3-2 4.4-3.2 5.7-5.3 1.7-2.8 4.7-6.1 6.4-6.7-1.6-.3-6.4 1.9-8.3 4.2s-2.2 2.8-2.7 3.7c-.4.8-1.1 4.1-1.1 4.1zM78.8 32.9c1-2.2 4-3.7 5-6 1.3-3 3.9-6.6 5.5-7.5-1.7 0-6.2 2.7-7.7 5.3s-1.8 3.1-2.2 4c-.3.9-.6 4.2-.6 4.2zM67.2 37c.5-2.3 2.2-4.8 3.4-7 1.7-3.3 3.7-6.8 6.2-8-3.1.1-7.6 2.7-8.7 5.5-1.9 4.5-.9 9.5-.9 9.5zM62.8 39.1c.1-2 1.1-4.3 1.6-6.3.9-3 1.4-5 2.7-6.6-2.3.5-4.3 2.3-4.8 4.8-.8 4 .5 8.1.5 8.1zM75.8 33.7c.9.1 2.3.5 3.3.9 1.8.8 2 1.5 3.7 2.1-1.2.5-3 .4-4.1-.2-1.7-.7-2.9-2.8-2.9-2.8zM86.4 31.3c1.9.5 4.8.5 6.8.7 3.5.5 3.8 1.3 5.4 1.1-1.2.5-3.4.9-5.8.4s-3-.6-3.7-.8c-.7-.2-2.7-1.4-2.7-1.4zM80.8 32.2c1.7.7 4.7.5 6.5 1.2 2.3.9 5.9 1.8 7.5 1.7-1.3.5-6 .5-8.3-.2s-2.8-.8-3.4-1.1c-.6-.2-2.3-1.6-2.3-1.6zM69.9 35.6c1.4.8 2.8.3 4.7.9 2.7.9 2.5 3.1 4.9 2.9-2.5.8-3.9 0-6-.9-3.3-1.4-3.6-2.9-3.6-2.9zM65.2 37.7c.8.6 2.2 1 3.3 1.4 1.6.6 2.7 1 4.2 1.2-1.8.5-3.9.5-5.1-.1-2-.9-2.4-2.5-2.4-2.5zM92.8 30.8c2.9-1.5 4-2.6 7.3-2.8 5.1-.3 7-1.5 7-1.5s-.4 3.2-4.8 3.8c-4.5.4-9.5.5-9.5.5z" class="st4"/><path d="M54.8 46.6c0-.6-.1-1.2-.6-1.5-.2-.1-.4-.2-.6-.2-.8-.2-1.6-.4-2.5-.6-.2 0-.4-.1-.7-.1-.4 0-.8.2-1.1.2-.6 0-1.1-.4-1.7-.6-.5-.2-1.3-.2-1.6.3-.2.3-.1.7.1 1 .2.3.5.5.8.7-.7.7-1.3 1.4-2.1 2s-1.9.8-2.7.3c-.2-.2-.2-.2-.4-.5-.2-.2-.5-.4-.7-.2-.1.1-.1.3-.2.5s-.3.3-.5.3c-.4.1-1.7-1.3-2.1-1.4-.5-.1-1-.4-1.5-.2s-.4.9-.2 1.3c-.2.3-.7.2-1 .2-.3 0-.6.1-.9.2-.3.2-.5.4-.6.7-.1.3 0 .7.3.8-.2.5.2 1.2.7 1.4s1-.2 1.6-.3c.6-.2.7-.3 1.3-.3.2 0 .9 0 1.1-.1.4-.1 1.1.3 1.6.3.6 0 1.5.4 2 .3-.2.6-.8 1-1.5 1.1s-1.3.1-1.9.1-1.3.2-1.7.7c.4.4.8.8 1.3 1.1-.3.2-.8 0-1.1.3-.3.3 0 .9.3 1.2.3.4.8.6 1.3.7h.3c.1 0 .2-.1.3-.1.5-.3 1-.7 1.5-1 .1-.1.2-.2.4-.2.1 0 .3 0 .4.1.5.2.7.5 1.3.3.2-.1 1.2-.7 1.1-.9.1.2-.1.4-.2.6-.1.2-.3.3-.3.5s.2.4.4.3c-.2.2-.2.6.1.9s.6.3.9.4c.2 0 .3.1.5 0 .1-.1.2-.2.2-.3.4-.7.7-1.4 1.1-2.1.1-.3.4 0 .6-.3.2-.3-.2-.6-.4-.9-.4-.4-.4-1.1-.3-1.7s.5-1.1.8-1.6c.2.4.3.8.5 1.3.1.2.1.3.3.5.1.1.3.2.5.2.5 0 1-.5.9-1 0-.2-.1-.5 0-.7l.3-.3c.1-.2 0-.5-.2-.7-.2-.2-.5-.3-.5-.5-.1-.3.1-.7.3-.9.3-.5.7-.9 1-1.3.1-.2.4-.4.5-.2.2.2 0 .4.1.6.1.2.5.1.7.1h.4c.7.1 1.3-.3 1.8-.6.1.1.2 0 .2-.2zM42.5 51.6c.5.3 1.6-.6 2.2-1.2M47.1 45.8c.4 0 .8-.1 1.1-.3M39.2 54.2c.4-.1.8-.3 1.1-.6" class="st6"/></g><g><path d="M56.5 26.1c0-.4-1.1 1.1-.9 2 .1.6.6 1.5.6 1.5 1.2-1.7.3-2.1.3-3.5z" class="st4"/><path d="M59 27.4c-1.1.9-2 .3-2.6 2.4 0 0 1-.1 1.5-.4.9-.5 1.4-2.3 1.1-2zM56.5 26c-.2-1.2-.1-3 .5-4.7-.1 0-1 2.2-.6 4.7 0 0 0-.1.1 0zM59.2 27.3v.1c2.2-1.2 3.4-3.2 3.4-3.3-1 1.4-2.4 2.6-3.4 3.2zM56.7 25.9c.1.6.6 1.5.6 1.5 1.2-1.8.3-2.1.3-3.5 0-.5-1.1 1.1-.9 2z" class="st4"/><path d="M57.5 27.5s1-.1 1.5-.4c.8-.4 1.4-2.2 1.1-2-1.1.9-1.9.3-2.6 2.4zM57.6 23.7c-.2-1.2-.1-3.1.5-4.6-.1 0-1 2.1-.6 4.6h.1z" class="st4"/><path d="M60.3 25.1c2.2-1.2 3.3-3.2 3.3-3.3-.9 1.4-2.3 2.6-3.4 3.1.1.1.1.2.1.2zM58.8 21.3c0-.4-1.1 1.1-.9 2 .1.6.6 1.5.6 1.5 1.3-1.7.3-2 .3-3.5z" class="st4"/><path d="M58.8 25s1-.1 1.5-.4c.8-.4 1.4-2.2 1.1-2-1.1.9-2 .3-2.6 2.4zM58.8 21.2s-.2-1.1 0-2.4c.1-.5 0-.7.4-1.7-.1 0-.9 1.6-.5 4.1h.1z" class="st4"/><path d="M61.5 22.5v.1c2.2-1.2 3-2.8 3-2.9-.6 1-.8 1-1.1 1.4-.9.9-1.9 1.4-1.9 1.4zM59.1 21c.1.5.6 1.4.6 1.4 1.2-1.7.3-2 .3-3.4 0-.4-1 1.1-.9 2zM60 22.5s1-.1 1.5-.4c.8-.4 1.4-2.1 1-1.9-1 .9-1.8.3-2.5 2.3z" class="st4"/><path d="M60 18.9s-.2-1.1 0-2.3c.1-.5 0-.6.4-1.7-.1.1-.8 1.5-.5 4 0 0 .1-.1.1 0zM62.7 20.2v.1c2.2-1.2 2.8-2.7 2.8-2.8-.6.9-.7 1-1.1 1.3-.8.9-1.7 1.4-1.7 1.4zM60.9 20.1c1.2-1.6.3-2 .3-3.3 0-.4-1 1-.9 1.9.1.6.6 1.4.6 1.4z" class="st4"/><path d="M63.6 18c-1 .8-1.8.3-2.4 2.2 0 0 1-.1 1.4-.4.7-.4 1.3-2 1-1.8zM61.2 16.7s-.2-1 0-2.2c.1-.5 0-.6.4-1.6-.1.1-.9 1.5-.4 3.8-.1 0-.1 0 0 0z" class="st4"/><path d="M63.7 18v.1c2.1-1.1 2.8-2.6 2.7-2.7-.6.9-.7.9-1 1.3-.8.8-1.7 1.3-1.7 1.3zM61.5 16.4c.1.5.5 1.4.5 1.4s.6-.8.6-1.4c0-.5-.3-1.1-.3-1.8 0-.5-.9.9-.8 1.8zM62.3 17.9s1-.1 1.4-.4c.8-.4 1.3-2 1-1.8-.6.5-1.3.5-1.6.9-.5.3-.8 1.3-.8 1.3zM62.9 16.3s.9-.5 1.2-.8c.4-.5.5-1.9.3-2l1.1-2.5-1.3 2.4c-.3 0-1.3.8-1.4 1.5 0 .5.1 1.4.1 1.4z" class="st4"/><path d="M62.3 14.4c0-.1 0 0 0 0-.1-.4-.2-1.5.3-2.9-.1 0-.8 1.6-.3 2.9-.1 0-.1 0 0 0zM64.9 15.7c1.3-.5 2.1-1.9 2.1-2-.5.7-.6.9-.9 1.1-.7.7-1.3.8-1.2.9 0-.1 0 0 0 0z" class="st4"/></g><path d="M56.2 30.1c-4.1 10.6-11.5 13.7-21.2 9-4.5-2.2-5.3-9.6-1.4-10 2.5-.2 4.1 3.5 4 5.5-.2 5.7-5 8.7-7.1 9.7.4-1.2.2-3.3-.4-4.5C29 37.6 26 37.2 24 38c-4.4 1.8-2.9 7.7-2.1 8.6 2.2 2.5 5-.5 2.1-2.2-.9-.5-3-1.5-5.9-.5-2.8 1-3.4 5.5-1.5 7.1" class="st13"/><circle cx="30.6" cy="51.6" r="1" class="st3"/><circle cx="27.8" cy="55" r="1" class="st3"/><circle cx="31.5" cy="58" r="1.6" class="st3"/><circle cx="118.2" cy="19.1" r="1.2" class="st3"/><circle cx="114" cy="21.6" r="2" class="st3"/><circle cx="117.9" cy="26.2" r="2" class="st3"/></g></svg>