<svg viewBox="0 0 75.53 11.43" fill="currentColor"><defs><style>.cls-1{fill:#bc4700}</style></defs><g id="Layer_2" data-name="Layer 2"><g id="Layer_1-2" data-name="Layer 1"><g id="Title_mid" data-name="Title mid"><path d="M27.25 1.42A50 50 0 0020.37 5l-1 .59a3.72 3.72 0 01-1.66-2.83 1.61 1.61 0 01.92-1.48 1.94 1.94 0 011.8-.1.46.46 0 01.22.47.49.49 0 00.45.54.5.5 0 00.54-.45A1.45 1.45 0 0021 .34a2.89 2.89 0 00-2.87.06 2.62 2.62 0 00-1.45 2.36 4.54 4.54 0 001.72 3.37c-4 2.31-8.26 4.36-12.81 4.3C3.52 10.4 1.2 9.56 1 7.81.82 5.87 2.54 4.75 4.23 4.53c1.26-.16 2.64.2 2.8 1.21a.5.5 0 001-.16c-.23-1.47-1.84-2.31-3.91-2S-.25 5.31 0 7.91c.25 2.38 3 3.48 5.55 3.52h.24c4.87 0 9.24-2.22 13.45-4.64A14.39 14.39 0 0026.88 9c2.7 0 6.06-.68 7.45-2.71a3.47 3.47 0 00.27-3.35C33.8.9 30.36.21 27.25 1.42zm6.25 4.25C32.57 7 30 8 27 8h-.12a14 14 0 01-6.63-1.73l.61-.36a49.66 49.66 0 016.74-3.5c2.82-1.1 5.52-.43 6.06.9a2.44 2.44 0 01-.16 2.36zM71.44 3.54c-2.08-.27-3.69.57-3.92 2a.5.5 0 00.42.57.5.5 0 00.57-.41c.16-1 1.52-1.38 2.8-1.21 1.68.22 3.41 1.34 3.21 3.28C74.33 9.56 72 10.4 70 10.43c-4.57 0-8.77-2-12.82-4.3a4.51 4.51 0 001.72-3.37A2.63 2.63 0 0057.41.4a2.89 2.89 0 00-2.82-.06 1.46 1.46 0 00-.67 1.4.5.5 0 00.54.45.5.5 0 00.46-.54.46.46 0 01.22-.47 1.92 1.92 0 011.79.1 1.61 1.61 0 01.92 1.48 3.72 3.72 0 01-1.66 2.83l-1-.59a50.6 50.6 0 00-6.88-3.58C45.17.21 41.74.9 40.94 2.89a3.44 3.44 0 00.26 3.35C42.59 8.27 46 8.93 48.65 9a14.39 14.39 0 007.62-2.16c4.21 2.42 8.59 4.64 13.45 4.64H70c2.58 0 5.3-1.14 5.55-3.52.23-2.65-1.96-4.14-4.11-4.42zM48.64 8C45.65 8 43 7.06 42 5.67a2.44 2.44 0 01-.16-2.41c.34-.87 1.61-1.45 3.23-1.45a7.66 7.66 0 012.82.55 49.08 49.08 0 016.74 3.5l.61.36A14 14 0 0148.64 8z" class="cls-1"/></g></g></g></svg>