<svg viewBox="0 0 218.84 52.89" fill="currentColor"><defs><style>.cls-1{fill:#bc4700}</style></defs><g id="Layer_2" data-name="Layer 2"><g id="Layer_1-2" data-name="Layer 1"><g id="Title_top" data-name="Title top"><path d="M31.51 30.9a.5.5 0 00.17 0 .49.49 0 00.37-.16c.22-.24 5.33-5.87 7-10.29 2.2-5.73-2.63-10.34-2.68-10.39a.49.49 0 00-.64 0 .5.5 0 00-.14.63s2 3.85-1.5 9c-2.35 3.51-3.29 5.16-2.94 10.76a.51.51 0 00.36.45zM35 20.26a11.39 11.39 0 002.2-7.64 8.23 8.23 0 011 7.49c-1.24 3.22-4.5 7.27-6 9.05-.2-4.24.58-5.66 2.8-8.9zM84 21.16c-1.36 0-2.71.1-4.06.23 1.24-1.42 3.55-1.91 5.53-3.29 2.2-1.53 5.91-4.84 7.84-5.07-1.63-.72-5.73-1-8.28 1s-3.85 4.77-4.53 5.56a4.74 4.74 0 00-.84 1.88c-1.56.14-3.12.35-4.67.61 1.52-1.91 4.5-3.13 5.78-5.26 1.79-3 5.07-6.53 6.88-7.24-1.76-.29-7 2.05-8.92 4.57a24.18 24.18 0 00-2.86 4 29.74 29.74 0 00-1.14 4l-.43.06c-1.82.32-3.63.72-5.42 1.16 1.2-2.16 4.11-3.78 5.14-6.11 1.39-3.17 4.18-7.13 5.88-8.07-1.77 0-6.62 2.93-8.25 5.69a23.42 23.42 0 00-2.32 4.29 30.93 30.93 0 00-.63 4.24c-2.17.54-4.31 1.16-6.44 1.87-.26.08-.53.19-.79.28a38.75 38.75 0 005-5.26c1.56-2.18 3.22-6.73 5-7.59-1.77-.14-5.73 1-7.49 3.66S62.34 22 62 23a13.64 13.64 0 00-.59 2.53q-2.52.85-5 1.88c.71-2.31 2.3-4.69 3.44-6.86 1.83-3.51 4-7.35 6.67-8.59-3.38.13-8.17 2.91-9.39 5.88a19.87 19.87 0 00-1 9.69q-2.34 1-4.62 2.11a44.37 44.37 0 011.69-6.17c.93-3.21 1.55-5.34 2.9-7.11a6.82 6.82 0 00-5.21 5.17 19.3 19.3 0 00.39 8.21l-.49.24c-1.84.94-3.68 1.92-5.46 3-.89.54-1.78 1.08-2.64 1.67A14.28 14.28 0 0041 35.84l-1.94-.48a3.75 3.75 0 00-.82-.12 2.79 2.79 0 00-.74.12 2.44 2.44 0 01-.49.09 2.51 2.51 0 01-1.07-.36l-.5-.23a1.83 1.83 0 00-2.34.49 1.56 1.56 0 00.14 1.65 2.31 2.31 0 00.53.55l-.41.42A8.83 8.83 0 0132 39.22a2.21 2.21 0 01-2.36.28.39.39 0 01-.15-.16l-.16-.23a1.29 1.29 0 00-.88-.5.87.87 0 00-.65.26 1 1 0 00-.26.53v.1a.41.41 0 01-.2.09 7.23 7.23 0 01-.94-.71 3.28 3.28 0 00-1.21-.79 2.3 2.3 0 01-.43-.12 1.75 1.75 0 00-1.47 0 1.42 1.42 0 00-.57 1.63h-.46a2.68 2.68 0 00-1.24.33 1.78 1.78 0 00-.95 1.07 1.26 1.26 0 00.3 1.22 1.85 1.85 0 001.1 1.77 1.91 1.91 0 001.6-.15 3.75 3.75 0 01.47-.17 5.61 5.61 0 00.57-.18 2.64 2.64 0 01.77-.18h.31a4.48 4.48 0 00.93-.1 2.31 2.31 0 01.61.14 3.68 3.68 0 00.92.19 5 5 0 01.88.16l.36.08a2.15 2.15 0 01-.71.28 6.47 6.47 0 01-1.2.1h-.77a3.15 3.15 0 00-2.18.94.5.5 0 000 .66 7.66 7.66 0 00.57.57.84.84 0 00-.33.21 1 1 0 00-.32.72 2 2 0 00.6 1.31 3.57 3.57 0 001.61.93 1.13 1.13 0 00.53 0 1.18 1.18 0 00.49-.21l1.62-1.08a.7.7 0 01.19-.1s.05 0 .17.06l.33.17a1.53 1.53 0 001.49.18 1 1 0 00.25.45V49a1.25 1.25 0 00.39.92 2.37 2.37 0 001.19.53 2 2 0 00.39 0 1 1 0 00.52-.14 1.29 1.29 0 00.41-.5l1.09-2.14a.8.8 0 00.65-.34c.43-.59-.09-1.19-.35-1.48l-.07-.09a1.5 1.5 0 01-.22-1.34 3 3 0 01.22-.61l.12.34a1.56 1.56 0 00.41.7 1.28 1.28 0 00.85.3 1.57 1.57 0 001.5-1.67v-.23-.2a1.14 1.14 0 00.27-.27 1 1 0 00-.36-1.37s-.12-.09-.18-.14a1 1 0 01-.25-.21s0-.16.24-.52l.83-1.13v.07A1 1 0 0040 40h.16a.58.58 0 01.18 0h.15a3.62 3.62 0 002.27-.71 1 1 0 00.59-.94 2.59 2.59 0 00-.71-1.89c.29-.21.57-.42.87-.61.83-.59 1.69-1.13 2.56-1.68 1.72-1.08 3.51-2.08 5.32-3 1-.52 2-1 3-1.49a5.22 5.22 0 002.17 1.89 8.92 8.92 0 005.48.1 15.58 15.58 0 01-4.48-1.29c-.8-.31-1.78-.62-2.58-1q2.25-1.05 4.56-2A8.07 8.07 0 0063 29.7c2.23.93 3.71 1.83 6.44 1-2.62.18-2.36-2.15-5.3-3.15a21.44 21.44 0 00-3.76-.55c.74-.29 1.47-.58 2.21-.85 1.07-.4 2.14-.76 3.22-1.11a7.88 7.88 0 002.66 2.5 6.11 6.11 0 004.44.17c-1.8-.63-2-1.4-3.94-2.27a13.31 13.31 0 00-2.13-.72c1.54-.47 3.08-.91 4.64-1.29a14.8 14.8 0 001.8 1.24 25.81 25.81 0 003.72 1.2c2.47.73 7.58.69 9 .19a27.06 27.06 0 01-8.1-1.84c-1.49-.58-3.79-.62-5.61-.94 1.69-.4 3.39-.76 5.11-1.05a20.54 20.54 0 002.37 1.25 29 29 0 003.95.91 10.81 10.81 0 006.29-.45c-1.74.18-2-.74-5.81-1.23-1.82-.23-4.35-.23-6.3-.56 2.25-.37 4.52-.64 6.79-.83 1.76 0 5.69-.16 9.27-.56 4.79-.54 5.22-4 5.22-4S97 18 91.51 18.32c-3.43.23-4.67 1.33-7.51 2.84zM42.21 38.4a2.81 2.81 0 01-1.65.58h-.11a2.21 2.21 0 00-.37 0h-.25a.78.78 0 00-.21-.67.76.76 0 00-.56-.2 1.12 1.12 0 00-.75.49L37.23 40a1.56 1.56 0 00-.37 1.49 1.58 1.58 0 00.61.66l.14.1a.16.16 0 01.07.07 1.23 1.23 0 00-.23.23 1.12 1.12 0 00-.13.92.77.77 0 010 .15.5.5 0 01-.14.39.52.52 0 01-.37.19.2.2 0 01-.17 0 1.12 1.12 0 01-.14-.29l-.5-1.37a.5.5 0 00-.42-.33.51.51 0 00-.48.23 6.65 6.65 0 00-.87 1.84 2.49 2.49 0 00.44 2.22l.08.1.16.18a.74.74 0 00-.54.41l-1.15 2.25v.1h-.19a1.53 1.53 0 01-.71-.27.33.33 0 01-.09-.2.5.5 0 00.06-.68.51.51 0 00-.21-.15 1.34 1.34 0 01.11-.14 1.12 1.12 0 00.3-1.1.49.49 0 00-.63-.31.5.5 0 00-.32.33 5.56 5.56 0 01-.91.61c-.26.1-.33.06-.64-.12l-.4-.21a1.28 1.28 0 00-.69-.15 1.57 1.57 0 00-.65.27l-1.61 1.07-.09.06h-.1a2.57 2.57 0 01-1.17-.66 1 1 0 01-.32-.62 1.22 1.22 0 01.34 0 1.9 1.9 0 00.8-.19.52.52 0 00.25-.44.49.49 0 00-.26-.43 5.23 5.23 0 01-.94-.68 2.71 2.71 0 011.14-.31h.72a7.29 7.29 0 001.38-.22 2.53 2.53 0 001.94-1.48.52.52 0 00-.07-.48.5.5 0 00-.44-.19 5 5 0 01-1.07-.17 6.46 6.46 0 00-1.07-.18 2.77 2.77 0 01-.66-.15 2.14 2.14 0 00-1.18-.14 6.11 6.11 0 01-.7.06h-.37a4.4 4.4 0 00-1 .23 4.27 4.27 0 01-.5.16c-.2.06-.4.14-.6.22-.37.15-.6.24-.79.16s-.62-.57-.5-.89a.48.48 0 000-.39.49.49 0 00-.27-.26c-.06 0-.11-.16-.08-.28a.83.83 0 01.44-.46 1.54 1.54 0 01.73-.2h.19a1.31 1.31 0 001.33-.45.5.5 0 000-.5c-.17-.31-.17-.7 0-.79s.39 0 .67.1a5 5 0 00.54.15 6.93 6.93 0 01.77.58c.81.68 1.3 1.05 1.76.93a1.35 1.35 0 00.89-.58 1.84 1.84 0 00.12-.32.59.59 0 01.1.16 1.41 1.41 0 00.44.45 3.2 3.2 0 003.49-.28 10.07 10.07 0 001.52-1.38c.27-.27.53-.54.81-.8a.5.5 0 00.16-.4.47.47 0 00-.22-.38 2.94 2.94 0 01-.77-.65.61.61 0 01-.1-.59c.14-.26.68-.25 1.08-.07a3.55 3.55 0 01.44.21 3.48 3.48 0 001.54.46 3.86 3.86 0 00.72-.12 2 2 0 01.5-.09 1.69 1.69 0 01.57.09l2.64.66a1.38 1.38 0 01.46.16c.29.19.37.68.4 1.18zM44.27 20.1c1.34-1.91.34-2.28.34-3.8 0-.45-1.16 1.2-1 2.21a6.73 6.73 0 00.66 1.59z" class="cls-1"/><path d="M46.18 19.79c.91-.48 1.52-2.4 1.16-2.13-1.21.92-2.1.34-2.82 2.57a7 7 0 001.66-.44zM44.58 16.14a11 11 0 01.58-5 9.13 9.13 0 00-.69 5.06.09.09 0 01.11-.06z" class="cls-1"/><path d="M51.15 14.1a11 11 0 01-3.66 3.48v.12a9.26 9.26 0 003.66-3.6zM44.83 16.07a6.42 6.42 0 00.65 1.59c1.34-1.91.34-2.28.34-3.8 0-.45-1.16 1.2-.99 2.21z" class="cls-1"/><path d="M48.56 15.22c-1.21.92-2.11.34-2.83 2.57a7 7 0 001.66-.44c.91-.47 1.52-2.35 1.17-2.13zM45.8 13.7a11.14 11.14 0 01.52-4.94 9 9 0 00-.64 5s.08-.08.12-.06z" class="cls-1"/><path d="M48.7 15.15v.11a9.15 9.15 0 003.59-3.51 11.37 11.37 0 01-3.59 3.4zM46.16 13.39a6.85 6.85 0 00.65 1.61c1.34-1.91.34-2.28.34-3.8 0-.47-1.15 1.18-.99 2.19z" class="cls-1"/><path d="M47.07 15.11a7 7 0 001.66-.44c.9-.48 1.52-2.4 1.16-2.13-1.21.92-2.11.34-2.82 2.57zM47.13 11a9.81 9.81 0 010-2.54 6.89 6.89 0 01.46-1.86 6.94 6.94 0 00-.59 4.45.09.09 0 01.13-.05z" class="cls-1"/><path d="M52.06 10.94a9.82 9.82 0 01-2 1.52v.11a7 7 0 003.19-3.12 6.41 6.41 0 01-1.19 1.49zM47.47 10.78a6.2 6.2 0 00.62 1.52c1.29-1.83.33-2.18.33-3.64 0-.43-1.11 1.15-.95 2.12zM51.13 10c-1.15.88-2 .33-2.7 2.46a6.58 6.58 0 001.57-.41c.89-.46 1.48-2.3 1.13-2.05z" class="cls-1"/><path d="M48.4 8.51a9.52 9.52 0 010-2.43 6.09 6.09 0 01.44-1.79 6.58 6.58 0 00-.54 4.25s.06-.06.1-.03zM54.37 7a5.82 5.82 0 01-1.16 1.43 9.41 9.41 0 01-1.94 1.47v.1a6.52 6.52 0 003.1-3zM48.75 8.38a6.27 6.27 0 00.6 1.48c1.25-1.78.32-2.12.32-3.53 0-.41-1.08 1.12-.92 2.05z" class="cls-1"/><path d="M49.62 10a6 6 0 001.54-.41c.84-.44 1.41-2.22 1.08-2-1.12.87-1.96.34-2.62 2.41zM49.65 6.19a9 9 0 010-2.36 6 6 0 01.43-1.73 6.41 6.41 0 00-.53 4.12s.06-.06.1-.03z" class="cls-1"/><path d="M54.25 6.12a9 9 0 01-1.88 1.42s.05.06 0 .1a6.37 6.37 0 003-2.9 5.81 5.81 0 01-1.12 1.38zM50 5.82a6.17 6.17 0 00.59 1.45 3.82 3.82 0 00.65-1.51c0-.53-.33-1.13-.33-2 .02-.37-1.04 1.14-.91 2.06zM53.5 5.08c-.66.5-1.36.57-1.76.91a3.84 3.84 0 00-.82 1.43A6.2 6.2 0 0052.44 7c.82-.41 1.39-2.17 1.06-1.92zM51.55 5.76a6.17 6.17 0 001.26-.93 2.78 2.78 0 00.37-2.17L54.42 0 53 2.58a2.91 2.91 0 00-1.52 1.63 5.92 5.92 0 000 1.57z" class="cls-1"/><path d="M50.84 3.67a4.68 4.68 0 01.23-3.1 4.52 4.52 0 00-.33 3.11zM53.66 5.13A4.56 4.56 0 0055.94 3a4.69 4.69 0 01-1 1.21 3.29 3.29 0 01-1.33.79s.05.09.05.13zM9.87 29.56c2-.8 4.88-.28 5.88 1.74a6.76 6.76 0 01.4 4.5.5.5 0 00.13.54.51.51 0 00.55.08 15.29 15.29 0 006-4.92c4.59 1.9 8.71 2.15 12.28.74 4.14-1.65 7.39-5.48 9.66-11.4a.5.5 0 00-.94-.35c-2.16 5.64-5.22 9.28-9.09 10.82-3.27 1.29-7.1 1.07-11.38-.67a10.88 10.88 0 001.4-5.07 8 8 0 00-2.2-5.38 3.4 3.4 0 00-2.65-1.05 3.34 3.34 0 00-3 3 8.43 8.43 0 004.38 8.63l.61.29A13.85 13.85 0 0117.33 35a8.09 8.09 0 00-.69-4.19c-1.26-2.54-4.71-3.2-7.15-2.22a5.46 5.46 0 00-3.38 4 7.57 7.57 0 00-.2 1.88 8 8 0 00-2.79.55 5.1 5.1 0 00-3 4.06 4.67 4.67 0 001.27 4.42.49.49 0 00.71-.07.5.5 0 00-.07-.7 3.65 3.65 0 01-1-3.44A4.17 4.17 0 013.47 36 7 7 0 016 35.51a6.74 6.74 0 001 3.19 2.9 2.9 0 003 1.06 2.05 2.05 0 001.42-1.71 2.63 2.63 0 00-1.59-2.47 8 8 0 00-3-1 7.11 7.11 0 01.17-1.7 4.43 4.43 0 012.87-3.32zm11.81.35a7.48 7.48 0 01-3.84-7.55A2.43 2.43 0 0120 20.14h.16a2.49 2.49 0 011.72.78 7 7 0 011.89 4.63 9.9 9.9 0 01-1.33 4.71zm-12.3 6.54c.74.42 1.14 1 1.09 1.49a1 1 0 01-.74.86 1.9 1.9 0 01-2-.77A6 6 0 017 35.58a6.82 6.82 0 012.38.87zM15.24 43.76a1.54 1.54 0 101.54-1.54 1.54 1.54 0 00-1.54 1.54zm2.08 0a.54.54 0 01-1.08 0 .54.54 0 011.08 0zM13.78 45.89a1.54 1.54 0 101.54 1.54 1.54 1.54 0 00-1.54-1.54zm0 2.08a.54.54 0 11.54-.54.54.54 0 01-.54.57zM18.11 48.44A2.24 2.24 0 0016 52a2.18 2.18 0 001.46.89 2.07 2.07 0 00.35 0A2.21 2.21 0 0020 51a2.18 2.18 0 00-.4-1.66 2.26 2.26 0 00-1.49-.9zm.39 3.21a1.23 1.23 0 01-.91.22 1.19 1.19 0 01-.81-.49 1.23 1.23 0 011-2H18a1.19 1.19 0 01.81.49 1.21 1.21 0 01.23.92 1.23 1.23 0 01-.54.86zM186.79 30.76a.47.47 0 00.37.16.44.44 0 00.16 0 .5.5 0 00.33-.44c.36-5.6-.58-7.25-2.94-10.76-3.47-5.17-1.52-9-1.5-9a.5.5 0 00-.78-.6c-.05.05-4.88 4.66-2.68 10.39 1.7 4.38 6.82 10.01 7.04 10.25zm-5.1-18.14a11.37 11.37 0 002.19 7.64c2.18 3.24 3 4.66 2.84 8.9-1.53-1.78-4.8-5.83-6-9a8.23 8.23 0 01.97-7.54zM198.77 41a1.81 1.81 0 00-.91-1.07 2.71 2.71 0 00-1.24-.33H196.16a1.43 1.43 0 00-.57-1.63 1.75 1.75 0 00-1.47 0 2.54 2.54 0 01-.43.12 3.13 3.13 0 00-1.21.79 6.64 6.64 0 01-.95.71.46.46 0 01-.2-.09v-.1a1.13 1.13 0 00-.26-.53.87.87 0 00-.65-.26 1.34 1.34 0 00-.89.5c-.07.1-.11.17-.16.23a.36.36 0 01-.14.16 2.23 2.23 0 01-2.37-.28 9.31 9.31 0 01-1.39-1.22l-.4-.42a2.53 2.53 0 00.53-.55 1.6 1.6 0 00.15-1.66 1.84 1.84 0 00-2.35-.49l-.5.23a2.43 2.43 0 01-1.06.36 2.53 2.53 0 01-.5-.09 2.65 2.65 0 00-.73-.12 3.75 3.75 0 00-.82.12l-1.95.48a14.17 14.17 0 00-1.66-1.22c-.86-.59-1.75-1.13-2.64-1.67-1.78-1.07-3.62-2.05-5.47-3l-.49-.24a19.27 19.27 0 00.4-8.21 6.82 6.82 0 00-5.21-5.17c1.35 1.77 2 3.9 2.89 7.11a44.41 44.41 0 011.7 6.17q-2.3-1.12-4.63-2.11a19.75 19.75 0 00-1-9.69c-1.22-3-6-5.75-9.38-5.88C155 13.18 157.2 17 159 20.53c1.13 2.17 2.72 4.55 3.43 6.86q-2.46-1-5-1.88a12.86 12.86 0 00-.59-2.53c-.38-1-.17-4-1.93-6.69s-5.71-3.8-7.49-3.66c1.75.86 3.4 5.41 5 7.59a38.1 38.1 0 005 5.26c-.27-.09-.53-.2-.8-.28-2.12-.71-4.27-1.33-6.43-1.87a30.93 30.93 0 00-.63-4.24 24.14 24.14 0 00-2.32-4.29c-1.64-2.76-6.48-5.74-8.26-5.69 1.71.94 4.49 4.9 5.89 8.07 1 2.33 3.93 3.95 5.14 6.11-1.8-.44-3.6-.84-5.42-1.16l-.44-.06a28.35 28.35 0 00-1.14-4 23.18 23.18 0 00-2.85-4c-2-2.52-7.16-4.86-8.92-4.57 1.81.71 5.09 4.28 6.88 7.24 1.28 2.13 4.26 3.35 5.78 5.26-1.55-.26-3.11-.47-4.67-.61a4.88 4.88 0 00-.84-1.88c-.69-.79-2-3.62-4.53-5.56s-6.66-1.67-8.28-1c1.93.23 5.64 3.54 7.84 5.07 2 1.38 4.28 1.87 5.53 3.29-1.35-.13-2.71-.2-4.06-.23-2.86-1.51-4.1-2.61-7.53-2.84-5.49-.36-7.57-1.6-7.57-1.6s.42 3.5 5.22 4c3.58.4 7.51.52 9.26.56 2.28.19 4.55.46 6.8.83-2 .33-4.48.33-6.3.56-3.8.49-4.08 1.41-5.82 1.23a10.83 10.83 0 006.3.45 29 29 0 003.95-.91 21.39 21.39 0 002.37-1.25c1.71.29 3.41.65 5.1 1.05-1.82.32-4.11.36-5.6.94a27.12 27.12 0 01-8.1 1.84c1.38.5 6.48.54 9-.19a26.33 26.33 0 003.67-1.19 15.61 15.61 0 001.8-1.24c1.56.38 3.1.82 4.63 1.29a13.19 13.19 0 00-2.12.72c-1.93.87-2.15 1.64-3.94 2.27a6.08 6.08 0 004.43-.17 7.79 7.79 0 002.66-2.5c1.08.35 2.16.71 3.22 1.11.74.27 1.48.56 2.21.85a21.22 21.22 0 00-3.74.52c-2.94 1-2.68 3.33-5.3 3.15 2.73.85 4.2-.05 6.44-1a8 8 0 003.46-2.36q2.31.94 4.57 2c-.81.35-1.78.66-2.59 1a15.52 15.52 0 01-4.47 1.29 8.89 8.89 0 005.47-.1 5.2 5.2 0 002.18-1.89c1 .48 2 1 3 1.49 1.8 1 3.59 2 5.32 3 .86.55 1.73 1.09 2.56 1.68.3.19.58.4.86.61a2.62 2.62 0 00-.7 1.89 1 1 0 00.59.94 3.6 3.6 0 002.27.71h.15a.58.58 0 01.18 0h.16a1 1 0 001.06-.38.13.13 0 000-.07l.83 1.13c.27.36.26.48.25.52a1 1 0 01-.25.21l-.19.14a1 1 0 00-.35 1.37 1 1 0 00.27.27v.2a1.81 1.81 0 000 .23 1.53 1.53 0 00.39 1.15 1.55 1.55 0 001.1.52 1.26 1.26 0 00.85-.3 1.59 1.59 0 00.42-.7l.12-.34a3.73 3.73 0 01.22.61 1.53 1.53 0 01-.22 1.34l-.08.09c-.25.29-.78.89-.35 1.48a.82.82 0 00.66.34l1.09 2.14a1.13 1.13 0 00.41.5 1 1 0 00.51.14 1.77 1.77 0 00.39 0 2.43 2.43 0 001.2-.53 1.29 1.29 0 00.39-.92.13.13 0 000-.06.85.85 0 00.25-.45 1.53 1.53 0 001.49-.18l.32-.17c.12 0 .15-.07.18-.06a.7.7 0 01.19.1l1.61 1.08a1.23 1.23 0 00.5.21 1.09 1.09 0 00.52 0 3.61 3.61 0 001.62-.93 2.1 2.1 0 00.6-1.31 1 1 0 00-.32-.72.92.92 0 00-.33-.21 7.66 7.66 0 00.57-.57.5.5 0 000-.66 3.14 3.14 0 00-2.17-.94h-.78a6.62 6.62 0 01-1.2-.1 2.24 2.24 0 01-.71-.28l.37-.08a5.1 5.1 0 01.87-.16 3.75 3.75 0 00.93-.19 2.23 2.23 0 01.61-.14 4.4 4.4 0 00.93.1h.31a2.64 2.64 0 01.77.18 4.9 4.9 0 00.57.18 4.43 4.43 0 01.47.17 1.76 1.76 0 002.7-1.62 1.31 1.31 0 00.24-1.15zm-1 .54a.55.55 0 00-.28.26.58.58 0 000 .39c.13.32-.16.74-.49.89s-.43 0-.8-.16a5.31 5.31 0 00-.6-.22 5 5 0 01-.5-.16 4.15 4.15 0 00-1-.23h-.37a5.72 5.72 0 01-.69-.06 2.13 2.13 0 00-1.18.14 2.88 2.88 0 01-.66.15 6.4 6.4 0 00-1.08.18 4.88 4.88 0 01-1.06.17.49.49 0 00-.44.19.52.52 0 00-.07.48 2.51 2.51 0 001.9 1.44 7.22 7.22 0 001.38.12h.71a2.71 2.71 0 011.15.31 5 5 0 01-.95.68.5.5 0 000 .87 1.89 1.89 0 00.79.19 1.22 1.22 0 01.34 0 .91.91 0 01-.32.62 2.52 2.52 0 01-1.17.66h-.1l-.09-.06-1.61-1.07a1.47 1.47 0 00-.64-.27 1.26 1.26 0 00-.69.15 3.87 3.87 0 00-.41.21c-.3.18-.38.22-.63.12a5.56 5.56 0 01-.91-.61.52.52 0 00-.33-.33.5.5 0 00-.63.31 1.12 1.12 0 00.3 1.1l.12.14a.54.54 0 00-.22.15.51.51 0 00.06.68.3.3 0 01-.08.2 1.57 1.57 0 01-.72.27h-.18v-.1l-1.15-2.25a.76.76 0 00-.54-.41l.15-.18.09-.1a2.52 2.52 0 00.43-2.22 6.65 6.65 0 00-.87-1.84.51.51 0 00-.48-.23.51.51 0 00-.42.33l-.49 1.37a.87.87 0 01-.13.29.22.22 0 01-.17 0 .5.5 0 01-.37-.19.51.51 0 01-.15-.39v-.15a1.13 1.13 0 00-.14-.92.83.83 0 00-.23-.23.23.23 0 01.07-.07l.14-.1a1.52 1.52 0 00.61-.66 1.53 1.53 0 00-.36-1.49l-1.07-1.46a1.18 1.18 0 00-.76-.49.74.74 0 00-.55.2.82.82 0 00-.23.85h-.25a2.45 2.45 0 00-.38 0h-.11a2.76 2.76 0 01-1.64-.58l-.1-.07c0-.5.11-1 .4-1.18a1.32 1.32 0 01.45-.16l2.65-.66a1.67 1.67 0 01.56-.09 2 2 0 01.51.09 3.62 3.62 0 00.71.12 3.4 3.4 0 001.54-.46l.44-.21c.41-.18.94-.19 1.09.07a.61.61 0 01-.1.59 3.12 3.12 0 01-.77.65.5.5 0 00-.06.78c.28.26.54.53.8.8a10.66 10.66 0 001.53 1.38 3.2 3.2 0 003.49.28 1.37 1.37 0 00.43-.45 1.16 1.16 0 01.11-.16 1 1 0 00.12.32 1.33 1.33 0 00.89.58c.46.12.94-.25 1.75-.93a6.06 6.06 0 01.78-.58c.15 0 .35-.09.54-.15a1.1 1.1 0 01.67-.1c.16.09.15.48 0 .79a.52.52 0 000 .5 1.32 1.32 0 001.33.45h.2a1.58 1.58 0 01.73.2.91.91 0 01.44.46.28.28 0 01-.02.21zM175.22 18.51c.17-1-1-2.66-1-2.21 0 1.52-1 1.89.34 3.8a6.85 6.85 0 00.66-1.59z" class="cls-1"/><path d="M172.66 19.79a6.81 6.81 0 001.65.44c-.71-2.23-1.61-1.65-2.82-2.57-.36-.27.26 1.65 1.17 2.13zM174.25 16.14h.12a9.24 9.24 0 00-.69-5.06 11 11 0 01.57 5.06zM171.31 17.7a.1.1 0 010-.12 10.9 10.9 0 01-3.66-3.48 9.26 9.26 0 003.66 3.6zM173.36 17.66a6.85 6.85 0 00.65-1.59c.17-1-1-2.66-1-2.21-.01 1.52-1.01 1.89.35 3.8z" class="cls-1"/><path d="M173.1 17.79c-.71-2.23-1.61-1.65-2.82-2.57-.36-.27.26 1.66 1.16 2.13a7 7 0 001.66.44zM173 13.7a.09.09 0 01.11 0 9.11 9.11 0 00-.63-5 11.29 11.29 0 01.52 5zM170.09 15.26v-.11a11.37 11.37 0 01-3.63-3.4 9.09 9.09 0 003.63 3.51zM171.68 11.18c0 1.52-1 1.89.34 3.8a6.73 6.73 0 00.66-1.59c.16-1.01-1-2.66-1-2.21z" class="cls-1"/><path d="M170.11 14.67a7 7 0 001.66.44c-.72-2.23-1.62-1.65-2.82-2.57-.36-.27.25 1.65 1.16 2.13zM171.71 11h.11a6.83 6.83 0 00-.57-4.43 6.17 6.17 0 01.46 1.86 10.1 10.1 0 010 2.57zM168.76 12.57a.09.09 0 010-.11 9.91 9.91 0 01-2-1.52 6.15 6.15 0 01-1.21-1.49 6.89 6.89 0 003.21 3.12zM170.42 8.66c0 1.46-1 1.81.32 3.64a6.51 6.51 0 00.63-1.52c.16-.97-.96-2.55-.95-2.12zM167.7 10c-.34-.26.25 1.58 1.12 2a6.47 6.47 0 001.59.42c-.69-2.08-1.55-1.53-2.71-2.42z" class="cls-1"/><path d="M170.44 8.51h.11a6.62 6.62 0 00-.55-4.22 5.77 5.77 0 01.44 1.79 9.27 9.27 0 010 2.43zM167.52 10v-.1a9.41 9.41 0 01-1.94-1.47A6.07 6.07 0 01164.46 7a6.58 6.58 0 003.06 3zM169.17 6.33c0 1.41-.93 1.75.31 3.53a6.15 6.15 0 00.61-1.48c.15-.93-.92-2.46-.92-2.05z" class="cls-1"/><path d="M166.6 7.61c-.33-.25.24 1.53 1.08 2a6 6 0 001.54.41c-.67-2.09-1.5-1.56-2.62-2.41zM169.19 6.19h.1a6.45 6.45 0 00-.52-4.12 5.86 5.86 0 01.42 1.73 9.24 9.24 0 010 2.39z" class="cls-1"/><path d="M163.46 4.74a6.43 6.43 0 003 2.9v-.1a9 9 0 01-1.88-1.42 5.76 5.76 0 01-1.12-1.38zM168.82 5.82c.15-.92-.91-2.43-.91-2 0 .83-.37 1.43-.33 2a3.86 3.86 0 00.64 1.51 6 6 0 00.6-1.51zM165.34 5.08c-.33-.25.23 1.51 1.06 1.94a6.09 6.09 0 001.52.4A4 4 0 00167.1 6c-.4-.35-1.1-.42-1.76-.92zM165.64 2.69a2.83 2.83 0 00.36 2.17 6.43 6.43 0 001.27.93 6.41 6.41 0 000-1.57 2.92 2.92 0 00-1.53-1.63L164.42 0z" class="cls-1"/><path d="M167.94 3.69h.06a4.6 4.6 0 00-.32-3.11 4.72 4.72 0 01.26 3.11zM165.17 5.13a.09.09 0 01.05-.09 3.29 3.29 0 01-1.33-.84 4.9 4.9 0 01-1-1.21 4.61 4.61 0 002.28 2.14zM218.75 39.12a5.09 5.09 0 00-3-4.06 8 8 0 00-2.79-.55 8.65 8.65 0 00-.2-1.88 5.47 5.47 0 00-3.39-4c-2.43-1-5.89-.32-7.15 2.22a8.09 8.09 0 00-.72 4.15 13.83 13.83 0 01-4.5-3.9l.6-.29a8.43 8.43 0 004.4-8.63 3.35 3.35 0 00-3-3 3.39 3.39 0 00-2.65 1.05 8 8 0 00-2.21 5.38 10.88 10.88 0 001.4 5.07c-4.28 1.74-8.1 2-11.37.67-3.87-1.54-6.93-5.18-9.1-10.82a.49.49 0 00-.64-.29.5.5 0 00-.29.64c2.27 5.92 5.52 9.75 9.66 11.4 3.56 1.41 7.69 1.16 12.28-.74a15.22 15.22 0 006 4.92.49.49 0 00.54-.08.5.5 0 00.14-.54 6.7 6.7 0 01.4-4.5c1-2 3.9-2.54 5.88-1.74a4.45 4.45 0 012.79 3.3 7.11 7.11 0 01.17 1.7 8.09 8.09 0 00-3 1 2.66 2.66 0 00-1.59 2.47 2.05 2.05 0 001.43 1.71 2.91 2.91 0 003-1.06 6.76 6.76 0 001.05-3.19 7 7 0 012.5.48 4.19 4.19 0 012.4 3.3 3.67 3.67 0 01-1 3.44.49.49 0 00-.07.7.5.5 0 00.38.19.47.47 0 00.32-.12 4.62 4.62 0 001.33-4.4zm-23.64-13.58a7 7 0 011.9-4.63 2.47 2.47 0 011.72-.78h.16a2.42 2.42 0 012.1 2.22 7.47 7.47 0 01-3.83 7.55l-.72.34a10 10 0 01-1.33-4.7zm16 12.49a1.88 1.88 0 01-2 .77 1 1 0 01-.74-.86c-.06-.52.34-1.07 1.09-1.49a6.75 6.75 0 012.39-.87 5.82 5.82 0 01-.78 2.42zM202.05 45.3a1.54 1.54 0 10-1.54-1.54 1.54 1.54 0 001.54 1.54zm0-2.08a.54.54 0 01.54.54.54.54 0 01-.54.54.54.54 0 01-.54-.54.55.55 0 01.54-.54zM205.05 45.89a1.54 1.54 0 101.54 1.54 1.54 1.54 0 00-1.54-1.54zm0 2.08a.54.54 0 010-1.08.54.54 0 010 1.08zM202.38 48.85a2.24 2.24 0 00-3.53 2.15 2.23 2.23 0 002.21 1.9 2 2 0 00.34 0 2.18 2.18 0 001.46-.89 2.23 2.23 0 00-.48-3.16zm-.32 2.53a1.22 1.22 0 01-.81.49 1.26 1.26 0 01-.92-.22 1.23 1.23 0 01-.26-1.73 1.2 1.2 0 01.8-.49h.19a1.21 1.21 0 01.73.24 1.23 1.23 0 01.27 1.71zM108.49 6.11a1.81 1.81 0 10-1.8-1.81 1.8 1.8 0 001.8 1.81zm0-2.61a.81.81 0 11-.8.8.8.8 0 01.8-.8zM109.27 8.82a1.81 1.81 0 101.8-1.8 1.81 1.81 0 00-1.8 1.8zm1.8-.8a.81.81 0 11-.8.8.8.8 0 01.8-.82zM109.13 11.63a2.61 2.61 0 00-2.5-2.72 2.61 2.61 0 00-2 4.38 2.59 2.59 0 001.81.84h.11a2.61 2.61 0 002.61-2.5zm-1.52 1.08a1.52 1.52 0 01-1.16.42 1.61 1.61 0 01.07-3.22h.07a1.61 1.61 0 011 2.8zM110.67 13.74a2.68 2.68 0 102.68 2.68 2.69 2.69 0 00-2.68-2.68zm0 4.36a1.68 1.68 0 111.68-1.68 1.68 1.68 0 01-1.68 1.68z" class="cls-1"/></g></g></g></svg>