<svg viewBox="0 0 24 24" fill="currentColor"><path d="M12 0C5.373 0 0 5.373 0 12s5.373 12 12 12 12-5.373 12-12S18.627 0 12 0zm0 22C6.478 22 2 17.522 2 12S6.478 2 12 2s10 4.478 10 10-4.478 10-10 10zm6-14c-.161 0-.308.047-.442.114l-.005-.009L12 10.882V9c0-.553-.447-1-1-1-.161 0-.308.047-.442.114l-.005-.009-6 3 .005.009C4.23 11.279 4 11.609 4 12s.23.721.558.886l-.005.009 6 3 .005-.009c.134.067.281.114.442.114.553 0 1-.447 1-1v-1.882l5.553 2.776.005-.009c.134.068.281.115.442.115.553 0 1-.447 1-1V9c0-.553-.447-1-1-1zm-8 5.382L7.236 12 10 10.618v2.764zm7 0L14.236 12 17 10.618v2.764z"/></svg>