<svg viewBox="0 0 24 24" fill="currentColor"><path d="M18 7c0-.553-.447-1-1-1-.276 0-.526.112-.707.293L12 10.586 7.707 6.293C7.526 6.112 7.276 6 7 6c-.553 0-1 .447-1 1 0 .276.112.526.293.707L10.586 12l-4.293 4.293C6.112 16.474 6 16.724 6 17c0 .553.447 1 1 1 .276 0 .526-.112.707-.293L12 13.414l4.293 4.293c.181.181.431.293.707.293.553 0 1-.447 1-1 0-.276-.112-.526-.293-.707L13.414 12l4.293-4.293C17.888 7.526 18 7.276 18 7zm3-7H3C1.343 0 0 1.343 0 3v18c0 1.657 1.343 3 3 3h18c1.657 0 3-1.343 3-3V3c0-1.657-1.343-3-3-3zm1 21c0 .553-.447 1-1 1H3c-.553 0-1-.447-1-1V3c0-.553.447-1 1-1h18c.553 0 1 .447 1 1v18z"/></svg>