<svg viewBox="0 0 24 24" fill="currentColor"><path d="M16 11c-.553 0-1 .447-1 1s.447 1 1 1 1-.447 1-1-.447-1-1-1zm2 0c.553 0 1-.447 1-1s-.447-1-1-1-1 .447-1 1 .447 1 1 1zM6 11c-.553 0-1 .447-1 1s.447 1 1 1 1-.447 1-1-.447-1-1-1zm14 0c-.553 0-1 .447-1 1s.447 1 1 1 1-.447 1-1-.447-1-1-1zm-2-5c-1.225 0-2.36.37-3.31 1H13V3c0-1.657-1.343-3-3-3H1C.447 0 0 .447 0 1s.447 1 1 1h9c.553 0 1 .447 1 1v4H9.31C8.36 6.37 7.225 6 6 6c-3.313 0-6 2.687-6 6v10c0 1.104.896 2 2 2s2-.896 2-2l.823-4.118c.381.075.774.118 1.177.118 2.215 0 4.129-1.214 5.168-3h1.664c1.039 1.786 2.953 3 5.168 3 .403 0 .796-.043 1.176-.118L20 22c0 1.104.896 2 2 2s2-.896 2-2V12c0-3.313-2.687-6-6-6zm4 16l-1.397-6.985C19.901 15.62 18.999 16 18 16c-1.861 0-3.412-1.277-3.858-3H9.858C9.412 14.723 7.861 16 6 16c-.999 0-1.901-.38-2.603-.985L2 22V12c0-2.209 1.791-4 4-4 1.008 0 1.917.385 2.62 1h6.76c.703-.615 1.612-1 2.62-1 2.209 0 4 1.791 4 4v10zm-4-9c-.553 0-1 .447-1 1s.447 1 1 1 1-.447 1-1-.447-1-1-1z"/></svg>