<svg viewBox="0 0 24 24" fill="currentColor"><path d="M23 0c-.049 0-.091.021-.139.028L22.858.01l-14 2 .003.019C8.377 2.099 8 2.497 8 3v13.555C7.41 16.211 6.732 16 6 16H4c-2.209 0-4 1.791-4 4s1.791 4 4 4h2c2.209 0 4-1.791 4-4V8.867l12-1.714v7.401c-.59-.343-1.268-.554-2-.554h-2c-2.209 0-4 1.791-4 4s1.791 4 4 4h2c2.209 0 4-1.791 4-4V1c0-.553-.448-1-1-1zM6 22H4c-1.104 0-2-.896-2-2s.896-2 2-2h2c1.104 0 2 .896 2 2s-.896 2-2 2zm14-2h-2c-1.104 0-2-.896-2-2s.896-2 2-2h2c1.104 0 2 .896 2 2s-.896 2-2 2zm2-14.867L10 6.847v-2.98l12-1.714v2.98z"/></svg>