<svg viewBox="0 0 24 24" fill="currentColor"><path d="M20 6V1c0-.553-.448-1-1-1-.161 0-.308.047-.443.114l-.004-.009L10.764 4H2c-.552 0-1 .447-1 1v8c0 .553.448 1 1 1h3.323l3.749 9.371.003-.001c.147.368.504.63.925.63h4c.552 0 1-.447 1-1 0-.131-.029-.255-.075-.37l.003-.001-.007-.018v-.001l-3.266-8.165 6.897 3.449.004-.009c.136.068.283.115.444.115.552 0 1-.447 1-1v-5c1.657 0 3-1.343 3-3s-1.343-3-3-3zm-7.477 16h-1.846l-3.2-8h1.846l3.2 8zM18 15.382l-6.553-3.276-.004.009C11.308 12.047 11.161 12 11 12H3V6h8c.161 0 .308-.047.443-.114l.004.009L18 2.618v12.764zM20 10V8c.552 0 1 .447 1 1s-.448 1-1 1z"/></svg>