<svg viewBox="0 0 24 24" fill="currentColor"><path d="M9 11h4c.553 0 1-.447 1-1s-.447-1-1-1H9c-.553 0-1 .447-1 1s.447 1 1 1zm14.707-1.707l-6-6C17.526 3.112 17.276 3 17 3H5c-.553 0-1 .447-1 1v14c0 .553-.447 1-1 1s-1-.447-1-1V8c0-.553-.447-1-1-1s-1 .447-1 1v10c0 1.657 1.343 3 3 3h18c1.657 0 3-1.343 3-3v-8c0-.276-.112-.526-.293-.707zM18 6.414L20.586 9H18V6.414zM22 18c0 .553-.447 1-1 1H5.816c.112-.314.184-.647.184-1V5h10v5c0 .553.447 1 1 1h5v7zM9 13c-.553 0-1 .447-1 1s.447 1 1 1h8c.553 0 1-.447 1-1s-.447-1-1-1H9z"/></svg>