<svg viewBox="0 0 24 24" fill="currentColor"><path d="M1 9h16c.553 0 1-.447 1-1s-.447-1-1-1H1c-.553 0-1 .447-1 1s.447 1 1 1zm0 6h16c.553 0 1-.447 1-1s-.447-1-1-1H1c-.553 0-1 .447-1 1s.447 1 1 1zM21 5c-.553 0-1 .447-1 1v11.184c-.314-.112-.647-.184-1-.184h-2c-1.657 0-3 1.343-3 3s1.343 3 3 3h2c1.657 0 3-1.343 3-3V6c0-.553-.447-1-1-1zm-2 16h-2c-.553 0-1-.447-1-1s.447-1 1-1h2c.553 0 1 .447 1 1s-.447 1-1 1zm-8-2H1c-.553 0-1 .447-1 1s.447 1 1 1h10c.553 0 1-.447 1-1s-.447-1-1-1zM23 1H1c-.553 0-1 .447-1 1s.447 1 1 1h22c.553 0 1-.447 1-1s-.447-1-1-1z"/></svg>