<svg viewBox="0 0 24 24" fill="currentColor"><path d="M19 7H5c-.553 0-1 .447-1 1s.447 1 1 1h13v7c0 .553.447 1 1 1s1-.447 1-1V8c0-.276-.112-.526-.293-.707S19.276 7 19 7zm4-4H9c-.553 0-1 .447-1 1s.447 1 1 1h13v7c0 .553.447 1 1 1s1-.447 1-1V4c0-.553-.447-1-1-1zM7 18c.161 0 .308-.047.442-.114l.005.009 2-1-.005-.009c.328-.165.558-.495.558-.886s-.23-.721-.558-.886l.005-.009-2-1-.005.009C7.308 14.047 7.161 14 7 14c-.553 0-1 .447-1 1v2c0 .553.447 1 1 1zm8-7H1c-.553 0-1 .447-1 1v8c0 .553.447 1 1 1h14c.553 0 1-.447 1-1v-8c0-.553-.447-1-1-1zm-1 8H2v-6h12v6z"/></svg>