<svg viewBox="0 0 24 24" fill="currentColor"><path d="M14 9c.11 0 .213-.03.313-.063l.004.012 9-3-.004-.012C23.709 5.805 24 5.441 24 5c0-.553-.447-1-1-1-.11 0-.213.029-.313.063l-.004-.012-9 3 .004.012C13.291 7.195 13 7.559 13 8c0 .553.447 1 1 1zm-4-1c-.161 0-.308.047-.442.114l-.005-.009L8 8.882V8c0-.553-.447-1-1-1H1c-.553 0-1 .447-1 1v4c0 .553.447 1 1 1h.882L.106 16.553l.009.005C.047 16.692 0 16.839 0 17c0 .553.447 1 1 1 .391 0 .721-.23.886-.558l.009.005L4 13.236l2.105 4.211.009-.005c.165.328.495.558.886.558.553 0 1-.447 1-1 0-.161-.047-.308-.114-.442l.009-.005L6.118 13H7c.553 0 1-.447 1-1v-.882l1.553.776.005-.009c.134.068.281.115.442.115.553 0 1-.447 1-1V9c0-.553-.447-1-1-1zm-4 3H2V9h4v2zm17.313 3.063l.004-.012-9-3-.004.012c-.1-.034-.203-.063-.313-.063-.553 0-1 .447-1 1 0 .441.291.805.688.937l-.004.012 9 3 .004-.012c.099.033.202.063.312.063.553 0 1-.447 1-1 0-.441-.291-.805-.687-.937z"/></svg>