<svg viewBox="0 0 24 24" fill="currentColor"><path d="M17 12c0 .553.409 1 .914 1 .541 0 .709-.349.709-.349C19.625 11.281 20 9.891 20 8s-.403-3.313-1.406-4.683c0 0-.161-.317-.68-.317-.505 0-.914.447-.914 1 0 .415.15.581.15.581C17.902 5.608 18 6.582 18 8s-.068 2.36-.821 3.388c0 0-.179.165-.179.612zm-11.623.651s.168.349.709.349c.505 0 .914-.447.914-1 0-.447-.179-.612-.179-.612C6.068 10.36 6 9.418 6 8s.098-2.423.85-3.45c0 0 .15-.149.15-.55 0-.553-.409-1-.914-1-.5 0-.68.286-.68.286C4.403 4.655 4 6.109 4 8s.375 3.281 1.377 4.651zM21.658.508S21.205 0 20.763 0C20.367 0 20 .447 20 1c0 .568.271.757.271.757C21.489 3.468 22 5.637 22 8s-.511 4.532-1.729 6.243c0 0-.271.188-.271.757 0 .553.523 1 .889 1 .348 0 .77-.508.77-.508C23.12 13.438 24 10.836 24 8s-.88-5.438-2.342-7.492zm-1.733 22.111l-.003-.007c-.001-.001-.001-.002-.001-.003l-6.996-16.99-.002.001C12.773 5.257 12.417 5 12 5c-.418 0-.773.257-.923.62l-.002-.001-6.996 16.99c0 .001-.001.002-.001.003l-.003.007.002.001c-.049.117-.077.245-.077.38 0 .553.447 1 1 1 .417 0 .773-.257.923-.62l.002.001L7.316 20h9.367l1.392 3.381.002-.001c.15.363.505.62.923.62.553 0 1-.447 1-1 0-.135-.028-.263-.077-.38l.002-.001zM12 8.626L13.801 13h-3.602L12 8.626zM8.141 18l1.235-3h5.248l1.235 3H8.141zm-4.412-3.757C2.511 12.532 2 10.363 2 8s.511-4.532 1.729-6.243c0 0 .271-.189.271-.757 0-.553-.398-1-.795-1-.473 0-.863.508-.863.508C.88 2.562 0 5.164 0 8s.88 5.438 2.342 7.492c0 0 .297.508.77.508.49 0 .888-.447.888-1 0-.568-.271-.757-.271-.757z"/></svg>