<svg viewBox="0 0 24 24" fill="currentColor"><path d="M10 7c.552 0 1-.447 1-1s-.448-1-1-1-1 .447-1 1 .448 1 1 1zm4 8c.552 0 1-.447 1-1s-.448-1-1-1-1 .447-1 1 .448 1 1 1zm0-4c.552 0 1-.447 1-1s-.448-1-1-1-1 .447-1 1 .448 1 1 1zm4-10h-5c0-.553-.448-1-1-1s-1 .447-1 1H6c-.552 0-1 .447-1 1v21c0 .553.448 1 1 1h12c.552 0 1-.447 1-1V2c0-.553-.448-1-1-1zm-1 21H7V3h10v19zM14 7c.552 0 1-.447 1-1s-.448-1-1-1-1 .447-1 1 .448 1 1 1zm-4 4c.552 0 1-.447 1-1s-.448-1-1-1-1 .447-1 1 .448 1 1 1zm0 8h4c.552 0 1-.447 1-1s-.448-1-1-1h-4c-.552 0-1 .447-1 1s.448 1 1 1zm0-4c.552 0 1-.447 1-1s-.448-1-1-1-1 .447-1 1 .448 1 1 1z"/></svg>