<svg viewBox="0 0 24 24" fill="currentColor"><path d="M10 5c-.188 0-.355.066-.506.157l-.009-.014L4.723 8H1c-.553 0-1 .447-1 1v6c0 .553.447 1 1 1h3.723l4.763 2.857.009-.015c.15.092.317.158.505.158.553 0 1-.447 1-1V6c0-.553-.447-1-1-1zM9 16.233l-3.485-2.091-.009.015C5.355 14.066 5.188 14 5 14H2v-4h3c.188 0 .355-.066.506-.157l.009.015L9 7.767v8.466zm8.73-9.905C17.548 6.129 17.291 6 17 6c-.553 0-1 .447-1 1 0 .268.108.509.28.688l-.007.007C17.359 8.78 18 10.343 18 12s-.641 3.188-1.727 4.273l.02.02c-.181.181-.293.431-.293.707 0 .553.447 1 1 1 .345 0 .633-.186.813-.45C19.183 16.112 20 14.143 20 12c0-2.187-.849-4.227-2.27-5.672zm2.974-3.063l-.016.015C20.509 3.108 20.268 3 20 3c-.553 0-1 .447-1 1 0 .3.138.561.347.743C21.116 6.554 22 9.27 22 12c0 2.762-.9 5.48-2.71 7.29l.003.003c-.181.181-.293.431-.293.707 0 .553.447 1 1 1 .288 0 .543-.125.726-.32C22.882 18.509 24 15.302 24 12c0-3.313-1.124-6.563-3.296-8.735zm-5.975 6.06C14.547 9.128 14.29 9 14 9c-.553 0-1 .447-1 1 0 .276.112.526.293.707l-.004.004c.362.361.711.736.711 1.289s-.349.928-.711 1.289l.004.004c-.181.181-.293.431-.293.707 0 .553.447 1 1 1 .29 0 .547-.128.729-.325C15.439 13.956 16 13.091 16 12s-.561-1.956-1.271-2.675z"/></svg>