<svg fill="currentColor" viewBox="0 0 143 35"><path d="M4.44189 34.186V4.06976L142.407 4.06975l-4.812 15.05815 4.812 15.0581H4.44189z" opacity=".2"/><path d="M133.048 15.2103l4.604 14.4059H.87207L.872069.499935 137.652.499929 133.048 14.9059l-.048.1522.048.1522z"/><path d="M17.6918 18.1396l-.1808-1.1851h-2.3099v-5.7448h-1.3358v6.9299h3.8265zm3.4603 0v-6.9299h-1.3357v6.9299h1.3357zm10.3355 0l-.5323-6.9299h-1.6571l-1.7476 5.2326-1.7576-5.2326h-1.6872l-.5323 6.9299h1.1951l.3515-5.112 1.7476 5.1321h1.1851l1.7375-5.1321.3716 5.112h1.3257zm3.7515 0v-6.9299h-1.3357v6.9299h1.3357zm7.7443-5.7749l-.1908-1.155h-5.3832v1.155h2.089v5.7749h1.3257v-5.7749h2.1593zm6.1814 5.7749v-1.1248h-2.8121v-1.9082h2.2698l-.1808-1.1149h-2.089v-1.6571h2.7117v-1.1249H45.037v6.9299h4.1278zm8.0697-3.475c0-2.0388-1.2454-3.4549-3.6558-3.4549h-2.1995v6.9299h2.1995c2.3602 0 3.6558-1.4161 3.6558-3.475zm-1.3559.0101c0 1.627-.8737 2.3702-2.33 2.3702h-.8437v-4.7404h.8638c1.3859 0 2.3099.7733 2.3099 2.3702zm12.0618-2.31l-.1908-1.155h-5.3833v1.155h2.089v5.7749h1.3258v-5.7749h2.1593zm3.4395 5.7749v-6.9299h-1.3357v6.9299h1.3357zm10.3355 0l-.5323-6.9299H79.526l-1.7476 5.2326-1.7576-5.2326h-1.6873l-.5323 6.9299h1.1952l.3515-5.112 1.7476 5.1321h1.1851l1.7375-5.1321.3716 5.112h1.3257zm6.4933 0v-1.1248h-2.8121v-1.9082h2.2698l-.1808-1.1149h-2.089v-1.6571h2.7117v-1.1249h-4.0274v6.9299h4.1278zm11.7041-3.475c0-2.1392-1.2554-3.5854-3.244-3.5854-1.9786 0-3.2641 1.4563-3.2641 3.6055 0 2.1393 1.2755 3.5855 3.244 3.5855 1.9886 0 3.2641-1.4663 3.2641-3.6056zm-1.3458.0101c0 1.5165-.7131 2.4907-1.9083 2.4907-1.1851 0-1.8981-.9742-1.8981-2.4907 0-1.5166.713-2.4908 1.8981-2.4908 1.1852 0 1.9083.9742 1.9083 2.4908zm9.252 3.4649v-6.9299h-1.235v4.5396l-3.114-4.5396h-1.255v6.9299h1.235v-4.7705l3.264 4.7705h1.105zm6.399 0l-.181-1.1851h-2.31v-5.7448h-1.336v6.9299h3.827zm6.759-6.9299h-1.446l-1.688 3.0532-1.737-3.1235-1.386.221 2.42 4.1378v2.6414h1.336v-2.6514l2.501-4.2785z"/></svg>