<svg fill="currentColor" viewBox="0 0 452 52"><g clip-path="url(#clip0)"><path d="M451.9 26.1l-26.3 26.3-399.1001-.0001-26.300011-26.3L26.4999-.300067 425.6-.30005 451.9 26.1z"/><path fill-rule="evenodd" d="M10.8254 15.4339l2.005-2.0125H439.269l2.005 2.0126-430.4486-.0001zm1.9538 23.2453l-2.0126-2.0125H441.333l-2.012 2.0126-426.5418-.0001zM16.0999 42l-2.0126-2.0126H438.012L436 42H16.0999zM435.861 10l2.005 2.0126H14.2339l2.0049-2.01262L435.861 10z" clip-rule="evenodd"/><g fill="#0E1218" clip-path="url(#clip1)"><g clip-path="url(#clip2)"><path d="M387 28.85h-2.4v-.2c.3 0 .4-.1.4-.4v-2.1l-1.5 2h-.7l-1.5-2.1v2.2c0 .3.1.4.4.4v.2h-2.2v-.2c.3 0 .4-.1.4-.4v-4c0-.3-.1-.4-.4-.4v-.2h1.9c0 .1 0 .2.1.4l1.8 2.4 1.8-2.4c.1-.1.1-.3.1-.4h1.8v.2c-.3 0-.4.1-.4.4v4c0 .3.1.4.4.4v.2zm-1-.4v-4.3h-.3l-2.4 3.2-2.4-3.2h-.3v4.3h.2v-4l2.4 3.2h.2l2.4-3.1v3.9h.2zm7.7.4h-2.3v-.2c.2 0 .3-.1.3-.2s0-.1-.1-.2v-.1c-.3.1-.7.2-1.2.2-.4 0-.8-.1-1-.2v.3c0 .1.1.2.3.2v.2h-2.3v-.2c.2 0 .3-.1.4-.4l1.6-4c.1-.1.1-.2.1-.3 0-.1-.1-.2-.2-.2v-.2h2.5v.2c-.1 0-.2.1-.2.2s.1.2.1.3l1.6 4c.1.3.2.4.4.4v.2zm-1-.4l-1.8-4.3h-.8l-1.7 4.3h.3l.3-.8c.3.2.8.3 1.5.3s1.3-.2 1.6-.4l.3.8h.3v.1zm-.7-1.1c-.4.2-.8.3-1.5.3-.6 0-1-.1-1.4-.3l1.2-3h.5l1.2 3zm-1.5-2.2l-.7 2c.2.1.4.1.7.1.3 0 .5 0 .7-.1l-.7-2zm9.1 3.7h-2c-.3-.4-.6-1.1-.8-1.6h-.8v1c0 .3.1.4.4.4v.2H394v-.2c.3 0 .4-.1.4-.4v-4c0-.3-.1-.4-.4-.4v-.2c.6 0 1.9-.1 2.5-.1 1.7 0 3 .4 3 1.8 0 .8-.6 1.4-1.3 1.7.2.5.5.9.9 1.4.1.1.2.2.4.2v.2h.1zm-3-4.7h-1.4v4.3h.2v-1.7h1.8c.2.4.6 1.2.9 1.6h.3c-.3-.4-.7-1.2-.9-1.6.8-.1 1.4-.6 1.4-1.4 0-1-1.1-1.2-2.3-1.2zm.9 2.4c-.2 0-.5.1-.8.1-.4 0-1 0-1.3-.1v-2.2h1.2c1.1 0 2.1.2 2.1 1.1 0 .5-.4 1-1.2 1.1zm-.8-1.7h-.6v1.3h.7c.8 0 1.3-.2 1.3-.7-.1-.5-.6-.6-1.4-.6zm9.1.3l-.2.1c-.1-.3-.3-.4-.6-.4h-1.4v3.4c0 .3.1.4.4.4v.2h-2.4v-.2c.3 0 .4-.1.4-.4v-3.4h-1.4c-.3 0-.5.1-.6.4l-.2-.1.3-1.6c.1 0 .3.1.5.1h4.4c.2 0 .3 0 .4-.1l.4 1.6zm-.6-.8v-.2h-4.7v.2h2.3v4.1h.2v-4.1h2.2zm3.4 4.5h-2.4v-.2c.3 0 .4-.1.4-.4v-3.9c0-.3-.1-.4-.4-.4v-.2h2.4v.2c-.3 0-.4.1-.4.4v3.9c0 .3.1.4.4.4v.2zm-1.1-.4v-4.3h-.2v4.3h.2zm7.7-4.6c-.3 0-.4.1-.4.4v4.6h-1.3c0-.2-.1-.3-.2-.4l-2.4-2.6v2.4c0 .3.1.4.4.4v.2h-2.2v-.2c.3 0 .4-.1.4-.4v-3.9c0-.3-.1-.4-.4-.4v-.2h1.9c0 .1.1.3.2.4l2.3 2.5v-2.2c0-.3-.1-.4-.4-.4v-.2h2.2-.1zm-.9 4.6v-4.3h-.2v3.9l-3.7-3.9h-.3v4.3h.3v-4l3.7 4h.2zm3.9.4h-2.4v-.2c.3 0 .4-.1.4-.4v-3.9c0-.3-.1-.4-.4-.4v-.2h2.4v.2c-.3 0-.4.1-.4.4v3.9c0 .3.1.4.4.4v.2zm-1.1-.4v-4.3h-.2v4.3h.2zm-78.8.4501h-2.4v-.2c.3 0 .4-.1.4-.4v-2.2l-1.5 2h-.7l-1.5-2.1v2.2c0 .3.1.4.4.4v.2h-2.2v-.2c.3 0 .4-.1.4-.4v-4c0-.3-.1-.4-.4-.4v-.2h1.8c0 .1 0 .2.1.4l1.8 2.4 1.8-2.4c.1-.1.1-.3.1-.4h1.8v.2c-.3 0-.4.1-.4.4v4c0 .3.1.4.4.4v.3h.1zm-1.1-.5v-4.3h-.3l-2.4 3.2-2.4-3.2h-.3v4.3h.2v-4l2.4 3.2h.2l2.4-3.1v3.9h.2zm4 .5h-2.4v-.2c.3 0 .4-.1.4-.4v-3.9c0-.3-.1-.4-.4-.4v-.2h2.4v.2c-.3 0-.4.1-.4.4v3.9c0 .3.1.4.4.4v.2zm-1.1-.5v-4.3h-.2v4.3h.2zm4.5.6c-1.2 0-2.3-.1-2.9-.1v-.2c.3 0 .4-.1.4-.4v-3.9c0-.4-.1-.5-.4-.5v-.2c.6 0 1.7-.1 2.8-.1 2.1 0 3.4 1.1 3.4 2.7 0 1.5-1.3 2.7-3.3 2.7zm-.1-5c-.5 0-1.3.1-1.7.1v4.3c.4 0 1.3.1 1.8.1 1.6 0 2.6-.9 2.6-2.2 0-1.6-1.3-2.3-2.7-2.3zm.1 4.3c-.5 0-1.3-.1-1.6-.1v-3.8c.3 0 1-.1 1.5-.1 1.2 0 2.5.6 2.5 2 0 1.2-1.1 2-2.4 2zm-.1-3.6c-.4 0-.6 0-.8.1v3h.9c1 0 1.7-.6 1.7-1.6s-.8-1.5-1.8-1.5zm9.7.5l-.2.1c-.1-.3-.3-.4-.6-.4H352v3.4c0 .3.1.4.4.4v.2H350v-.2c.3 0 .4-.1.4-.4v-3.4H349c-.3 0-.5.1-.6.4l-.2-.1.3-1.6c.1 0 .3.1.5.1h4.4c.2 0 .3 0 .4-.1l.4 1.6zm-.6-.9v-.2h-4.7v.2h2.3v4h.2v-4h2.2zm4.2 4.7c-1.6 0-3.2-1-3.2-2.8 0-1.7 1.5-2.8 3.2-2.8 1.6 0 3.2 1 3.2 2.8-.1 1.8-1.6 2.8-3.2 2.8zm0-5c-1.5 0-2.5 1-2.5 2.2 0 1.4 1.2 2.3 2.5 2.3 1.4 0 2.5-.9 2.5-2.3 0-1.3-1.2-2.2-2.5-2.2zm0 4.3c-1.2 0-2.3-.9-2.3-2.1 0-1.1 1-2 2.3-2 1.2 0 2.3.9 2.3 2-.1 1.2-1.2 2.1-2.3 2.1zm0-3.6c-.8 0-1.6.5-1.6 1.5s.8 1.5 1.6 1.5c.7 0 1.6-.5 1.6-1.5-.1-1.1-.9-1.5-1.6-1.5zm11.1-.9c-.2 0-.3.1-.4.4l-1.4 3.9c-.1.2-.1.3-.1.4 0 .1.1.2.2.2v.2h-1.8v-.2c.1 0 .2-.1.2-.2s0-.2-.1-.4l-.6-1.4-.6 1.4c-.1.2-.1.3-.1.4 0 .1.1.2.2.2v.2h-1.8v-.2c.1 0 .2-.1.2-.2 0 0 0-.1-.1-.4l-1.4-3.9c-.1-.3-.2-.4-.4-.4v-.2h2.3v.2c-.2 0-.3.1-.3.3v.2l.7 2.4.9-2.2h.9l.9 2.2.7-2.3v-.2c0-.2-.1-.3-.3-.3v-.2h2.3v.1h-.1zm-1 .3h-.3l-1.4 4-1.3-3.1h-.2l-1.3 3.1-1.4-4h-.3l1.5 4.3h.2l1.3-3.1 1.3 3.1h.2l1.7-4.3zm7.5-.3c-.3 0-.4.1-.4.4v4.6h-1.3c0-.2-.1-.3-.2-.4l-2.4-2.6v2.4c0 .3.1.4.4.4v.2h-2.2v-.2c.3 0 .4-.1.4-.4v-3.9c0-.3-.1-.4-.4-.4v-.2h1.9c0 .1.1.3.2.4l2.3 2.5v-2.2c0-.3-.1-.4-.4-.4v-.2h2.2-.1zm-1 4.6v-4.3h-.2v3.9l-3.6-3.9h-.3v4.3h.2v-4l3.7 4h.2z"/></g><path d="M303.6 28.3c0 .1.2.2.3.2.1.1.2.1.5.1h.6c.1 0 .3-.1.4-.1.1 0 .1-.1.2-.2.1 0 .3-.2.4-.2.1-.1.2-.2.2-.3.1-.1.1-.3.1-.5v-.7c0-.2-.1-.3-.2-.5s-.1-.2-.1-.3c0 0-.1-.2-.1-.3 0-.1-.3-.2-.4-.4-.2-.1-.5-.1-.5-.1h-.4c-.1 0-.2.1-.3.1-.1 0-.2.1-.2.1-.1 0-.2.1-.4.3-.2.2-.5.7-.6.7-.1 0-.2.3-.2.3s-.2.2-.3.2c-.1 0-.2.2-.3.4-.1.2-.4.5-.4.5 0 .1-.1.2-.2.2l-.2.2c-.1.1-.2.3-.2.3l-.3.3c-.1.1-.1 0-.2.1-.1 0-.3.2-.4.3-.1.1-.3.1-.4.2-.1.1-.4.1-.4.2-.1 0-.2.1-.4.1h-.6c-.1-.1-.3 0-.4-.1-.1 0-.4-.1-.6-.1-.2 0-.3-.1-.5-.2-.1 0-.3-.1-.4-.2-.1-.1-.1-.1-.4-.2-.3-.1-.7-.4-.8-.5l-.2-.2-.2-.2-.2-.2-.2-.2-.2-.2c-.1-.1-.1-.2-.2-.3 0-.1-.2-.2-.2-.3 0-.1-.1-.2-.2-.4s-.2-.7-.2-.8v-.9c0-.2.2-.5.2-.6 0-.1.3-.4.4-.5.1-.1.1-.2.2-.2s.3-.1.4-.2c.1-.1.2-.1.2-.1s.2-.1.7-.1c.2 0 .7.2.8.3.1.1.1.2.1.2 0 .1.1.1.3.3.2.2.2.2.2.4 0 .1-.1.1-.1.1h-.1c0-.1-.1-.2-.2-.2l-.4-.2c-.1 0-.1-.1-.2-.1s-.2.1-.3.1h-.3c-.1 0-.3.1-.3.1-.1 0-.4.2-.5.2-.1.1-.2.3-.3.3-.1.1-.2.2-.2.3v1.1c0 .4.4.9.5 1 .2.2.5.3.8.3h.4c.2 0 .5-.1.5-.2.1-.1.4-.2.6-.3.2-.1.3-.2.4-.3.1-.1.2-.1.3-.3.1-.2.3-.2.4-.3.1-.1.2-.3.3-.4.1-.1.2-.3.3-.4.1-.1.2-.3.3-.4.1-.1.1-.1.2-.3.1-.1.1-.1.2-.1l.3-.3c.2-.1.2-.3.4-.4.1-.1.2-.2.3-.2.1-.1.5-.2.5-.2l.5-.1h.2c.3 0 .6.1.7.1.2 0 .2 0 .4.1s.1.1.4.2c.3.1.8.3 1 .4.2.1.4.3.6.4.2.1.2.2.3.4.1.2.3.2.4.3l.3.3.2.2c.1.1.1.3.3.4.2.2.1.3.2.5.1.3.2.8.3 1v.1c0 .2-.1.4-.1.6 0 .1-.2.5-.2.7-.1.1-.1.2-.2.3-.1.1-.1.2-.2.3-.1.1-.3.2-.4.3-.1 0-.2.1-.2.1-.1 0-.2.1-.3.1H304.4c-.2 0-.2-.1-.4-.2-.1-.1-.2-.1-.3-.2-.1-.1 0-.2-.2-.2s-.2-.1-.4-.4c0-.1-.1-.2-.1-.2 0-.2.1-.3.2-.3h.1c.3-.1.3 0 .3.2zm0-4.4c-.1 0-.2-.1-.3-.2-.1-.1-.1-.1-.2-.1h-.4c-.1 0-.2-.1-.3-.1h-.4c-.2.1-.7.2-.8.3-.2.1-.3.1-.4.2-.1.1-.2.1-.2.2-.1.1-.2.3-.3.3-.1.1-.1.2-.2.3-.1.1-.4.4-.5.6-.1.2-.3.4-.4.5-.1.1 0 .1-.2.3-.2.2-.2.2-.3.4l-.4.4-.3.3c-.1 0-.4.3-.6.4-.2.1-.3.2-.4.2h-.7v.1c.1.2.3.2.4.3.1.1.1.2.3.2.2 0 .3.1.3.1s.3 0 .4.1c.1.1.3.1.4.1h.1c.2 0 .4 0 .6-.1.2 0 .5-.3.6-.3.1-.1.2-.2.5-.3.3-.1.3-.1.3-.2.1-.1.2.1.4-.4.2-.4.4-.5.5-.7.1-.2.4-.7.7-1 .3-.3.3-.2.4-.3.1-.1.2-.2.2-.3.1-.1.2-.4.5-.5.2-.1.4-.2.5-.2.1 0 .4-.1.4-.1.1 0 .2-.1.2-.2 0 0 0-.1-.1-.1-.1-.1-.2-.2-.3-.2z"/><g clip-path="url(#clip3)"><path d="M238.6 28.85h-2.4v-.2c.3 0 .4-.1.4-.4v-2.1l-1.5 2h-.7l-1.5-2.1v2.2c0 .3.1.4.4.4v.2h-2.2v-.2c.3 0 .4-.1.4-.4v-4c0-.3-.1-.4-.4-.4v-.2h1.8c0 .1 0 .2.1.4l1.8 2.4 1.8-2.4c.1-.1.1-.3.1-.4h1.8v.2c-.3 0-.4.1-.4.4v4c0 .3.1.4.4.4v.2h.1zm-1.1-.4v-4.3h-.3l-2.4 3.2-2.4-3.2h-.3v4.3h.2v-4l2.4 3.2h.2l2.4-3.1v3.9h.2zm7.7.4h-2.3v-.2c.2 0 .3-.1.3-.2s0-.1-.1-.2v-.1c-.3.1-.7.2-1.2.2-.4 0-.8-.1-1-.2v.3c0 .1.1.2.3.2v.2h-2.3v-.2c.2 0 .3-.1.4-.4l1.6-4c.1-.1.1-.2.1-.3 0-.1-.1-.2-.2-.2v-.2h2.5v.2c-.1 0-.2.1-.2.2s.1.2.1.3l1.6 4c.1.3.2.4.4.4v.2zm-1-.4l-1.8-4.3h-.8l-1.7 4.3h.3l.3-.8c.3.2.8.3 1.5.3s1.3-.2 1.6-.4l.3.8h.3v.1zm-.7-1.1c-.4.2-.8.3-1.5.3-.6 0-1-.1-1.4-.3l1.2-3h.5l1.2 3zm-1.5-2.2l-.7 2c.2.1.4.1.7.1.3 0 .5 0 .7-.1l-.7-2zm9.1 3.7h-2c-.3-.4-.6-1.1-.8-1.6h-.8v1c0 .3.1.4.4.4v.2h-2.4v-.2c.3 0 .4-.1.4-.4v-4c0-.3-.1-.4-.4-.4v-.2c.6 0 1.9-.1 2.5-.1 1.7 0 3 .4 3 1.8 0 .8-.6 1.4-1.3 1.7.2.5.5.9.9 1.4.1.1.2.2.4.2v.2h.1zm-3-4.7h-1.4v4.3h.2v-1.7h1.8c.2.4.6 1.2.9 1.6h.3c-.3-.4-.7-1.2-.9-1.6.8-.1 1.4-.6 1.4-1.4 0-1-1-1.2-2.3-1.2zm.9 2.4c-.2 0-.5.1-.8.1-.4 0-1 0-1.3-.1v-2.2h1.2c1.1 0 2.1.2 2.1 1.1 0 .5-.4 1-1.2 1.1zm-.8-1.7h-.6v1.3h.7c.8 0 1.3-.2 1.3-.7 0-.5-.5-.6-1.4-.6zm9.2.3l-.2.1c-.1-.3-.3-.4-.6-.4h-1.4v3.4c0 .3.1.4.4.4v.2h-2.4v-.2c.3 0 .4-.1.4-.4v-3.4h-1.4c-.3 0-.5.1-.6.4l-.2-.1.3-1.6c.1 0 .3.1.5.1h4.4c.2 0 .3 0 .4-.1l.4 1.6zm-.6-.8v-.2h-4.7v.2h2.3v4.1h.2v-4.1h2.2zm3.3 4.5h-2.4v-.2c.3 0 .4-.1.4-.4v-3.9c0-.3-.1-.4-.4-.4v-.2h2.4v.2c-.3 0-.4.1-.4.4v3.9c0 .3.1.4.4.4v.2zm-1.1-.4v-4.3h-.2v4.3h.2zm7.8-4.6c-.3 0-.4.1-.4.4v4.6h-1.3c0-.2-.1-.3-.2-.4l-2.4-2.6v2.4c0 .3.1.4.4.4v.2h-2.2v-.2c.3 0 .4-.1.4-.4v-3.9c0-.3-.1-.4-.4-.4v-.2h1.9c0 .1.1.3.2.4l2.3 2.5v-2.2c0-.3-.1-.4-.4-.4v-.2h2.1zm-1 4.6v-4.3h-.2v3.9l-3.6-3.9h-.3v4.3h.2v-4l3.7 4h.2zm3.9.4h-2.4v-.2c.3 0 .4-.1.4-.4v-3.9c0-.3-.1-.4-.4-.4v-.2h2.4v.2c-.3 0-.4.1-.4.4v3.9c0 .3.1.4.4.4v.2zm-1.1-.4v-4.3h-.2v4.3h.2zm-78.7.4501h-2.4v-.2c.3 0 .4-.1.4-.4v-2.2l-1.5 2h-.7l-1.5-2.1v2.2c0 .3.1.4.4.4v.2h-2.2v-.2c.3 0 .4-.1.4-.4v-4c0-.3-.1-.4-.4-.4v-.2h1.8c0 .1 0 .2.1.4l1.8 2.4 1.8-2.4c.1-.1.1-.3.1-.4h1.8v.2c-.3 0-.4.1-.4.4v4c0 .3.1.4.4.4v.3h.1zm-1.1-.5v-4.3h-.3l-2.4 3.2-2.4-3.2h-.3v4.3h.2v-4l2.4 3.2h.2l2.4-3.1v3.9h.2zm4 .5h-2.4v-.2c.3 0 .4-.1.4-.4v-3.9c0-.3-.1-.4-.4-.4v-.2h2.4v.2c-.3 0-.4.1-.4.4v3.9c0 .3.1.4.4.4v.2zm-1.1-.5v-4.3h-.2v4.3h.2zm4.5.6c-1.2 0-2.3-.1-2.9-.1v-.2c.3 0 .4-.1.4-.4v-3.9c0-.4-.1-.5-.4-.5v-.2c.6 0 1.7-.1 2.8-.1 2.1 0 3.4 1.1 3.4 2.7 0 1.5-1.2 2.7-3.3 2.7zm-.1-5c-.5 0-1.3.1-1.7.1v4.3c.4 0 1.3.1 1.8.1 1.6 0 2.6-.9 2.6-2.2 0-1.6-1.2-2.3-2.7-2.3zm.1 4.3c-.5 0-1.3-.1-1.6-.1v-3.8c.3 0 1-.1 1.5-.1 1.2 0 2.5.6 2.5 2 0 1.2-1 2-2.4 2zm-.1-3.6c-.4 0-.6 0-.8.1v3h.9c1 0 1.7-.6 1.7-1.6s-.8-1.5-1.8-1.5zm9.8.5l-.2.1c-.1-.3-.3-.4-.6-.4h-1.4v3.4c0 .3.1.4.4.4v.2h-2.4v-.2c.3 0 .4-.1.4-.4v-3.4h-1.4c-.3 0-.5.1-.6.4l-.2-.1.3-1.6c.1 0 .3.1.5.1h4.4c.2 0 .3 0 .4-.1l.4 1.6zm-.6-.9v-.2h-4.7v.2h2.3v4h.2v-4h2.2zm4.1 4.7c-1.6 0-3.2-1-3.2-2.8 0-1.7 1.5-2.8 3.2-2.8 1.6 0 3.2 1 3.2 2.8 0 1.8-1.6 2.8-3.2 2.8zm0-5c-1.5 0-2.5 1-2.5 2.2 0 1.4 1.2 2.3 2.5 2.3 1.4 0 2.5-.9 2.5-2.3 0-1.3-1.1-2.2-2.5-2.2zm0 4.3c-1.2 0-2.3-.9-2.3-2.1 0-1.1 1-2 2.3-2 1.2 0 2.3.9 2.3 2 0 1.2-1.1 2.1-2.3 2.1zm0-3.6c-.8 0-1.6.5-1.6 1.5s.8 1.5 1.6 1.5c.7 0 1.6-.5 1.6-1.5 0-1.1-.9-1.5-1.6-1.5zm11.2-.9c-.2 0-.3.1-.4.4l-1.4 3.9c-.1.2-.1.3-.1.4 0 .1.1.2.2.2v.2h-1.8v-.2c.1 0 .2-.1.2-.2s0-.2-.1-.4l-.6-1.4-.6 1.4c-.1.2-.1.3-.1.4 0 .1.1.2.2.2v.2h-1.8v-.2c.1 0 .2-.1.2-.2 0 0 0-.1-.1-.4l-1.4-3.9c-.1-.3-.2-.4-.4-.4v-.2h2.3v.2c-.2 0-.3.1-.3.3v.2l.7 2.4.9-2.2h.9l.9 2.2.7-2.3v-.2c0-.2-.1-.3-.3-.3v-.2h2.3v.1h-.1zm-1.1.3h-.3l-1.4 4-1.3-3.1h-.2l-1.3 3.1-1.4-4h-.3l1.5 4.3h.2l1.3-3.1 1.3 3.1h.2l1.7-4.3zm7.5-.3c-.3 0-.4.1-.4.4v4.6h-1.3c0-.2-.1-.3-.2-.4l-2.4-2.6v2.4c0 .3.1.4.4.4v.2h-2.2v-.2c.3 0 .4-.1.4-.4v-3.9c0-.3-.1-.4-.4-.4v-.2h1.9c0 .1.1.3.2.4l2.3 2.5v-2.2c0-.3-.1-.4-.4-.4v-.2h2.2-.1zm-1 4.6v-4.3h-.2v3.9l-3.6-3.9h-.3v4.3h.2v-4l3.7 4h.2z"/></g><path d="M155.2 28.3c0 .1.2.2.3.2.1.1.2.1.5.1h.6c.1 0 .3-.1.4-.1.1 0 .1-.1.2-.2.1 0 .3-.2.4-.2.1-.1.2-.2.2-.3.1-.1.1-.3.1-.5v-.7c0-.2-.1-.3-.2-.5s-.1-.2-.1-.3c0 0-.1-.2-.1-.3 0-.1-.3-.2-.4-.4-.1-.2-.5-.1-.5-.1h-.4c-.1 0-.2.1-.3.1-.1 0-.2.1-.2.1-.1 0-.2.1-.4.3-.2.1-.5.7-.6.7-.1 0-.2.3-.2.3s-.2.2-.3.2c-.1 0-.2.2-.3.4-.1.2-.4.5-.4.5 0 .1-.1.2-.2.2l-.2.2c-.1.1-.2.3-.2.3l-.3.3c-.1.1-.1 0-.2.1-.1 0-.3.2-.4.3-.1.1-.3.1-.4.2-.1.1-.4.1-.4.2-.1 0-.2.1-.4.1h-.6c-.1-.1-.3 0-.4-.1-.1 0-.4-.1-.6-.1-.2 0-.3-.1-.5-.2-.1 0-.3-.1-.4-.2-.1-.1-.1-.1-.4-.2-.3-.1-.7-.4-.8-.5l-.2-.2-.2-.2-.2-.2-.2-.2-.2-.2c-.1-.1-.1-.2-.2-.3 0-.1-.2-.2-.2-.3 0-.1-.1-.2-.2-.4s-.2-.7-.2-.8v-.9c0-.2.2-.5.2-.6 0-.1.3-.4.4-.5.1-.1.1-.2.2-.2s.3-.1.4-.2c.1-.1.2-.1.2-.1s.2-.1.7-.1c.2 0 .7.2.8.3.1.1.1.2.1.2 0 .1.1.1.3.3.2.2.2.2.2.4 0 .1-.1.1-.1.1h-.1c0-.1-.1-.2-.2-.2l-.4-.2c-.1 0-.1-.1-.2-.1s-.2.1-.3.1h-.3c-.1 0-.3.1-.3.1-.1 0-.4.2-.5.2-.1.1-.2.3-.3.3-.1.1-.2.2-.2.3v1.1c0 .4.4.9.5 1 .2.2.5.3.8.3h.4c.2 0 .5-.1.5-.2.1-.1.4-.2.6-.3.2-.1.3-.2.4-.3.1-.1.2-.1.3-.3.1-.2.3-.2.4-.3.1-.1.2-.3.3-.4.1-.1.2-.3.3-.4.1-.1.2-.3.3-.4.1-.1.1-.1.2-.3.1-.1.1-.1.2-.1l.3-.3c.1-.1.2-.3.4-.4.1-.1.2-.2.3-.2.1-.1.5-.2.5-.2l.5-.1h.2c.3 0 .6.1.7.1.2 0 .2 0 .4.1s.1.1.4.2c.3.1.8.3 1 .4.2.1.4.3.6.4.2.1.2.2.3.4.1.2.3.2.4.3l.3.3.2.2c.1.1.1.3.3.4.2.1.1.3.2.5.1.3.2.8.3 1v.1c0 .2-.1.4-.1.6 0 .1-.2.5-.2.7-.1.1-.1.2-.2.3-.1.1-.1.2-.2.3-.1.1-.3.2-.4.3-.1 0-.2.1-.2.1-.1 0-.2.1-.3.1H156c-.2 0-.2-.1-.4-.2-.1-.1-.2-.1-.3-.2-.1-.1 0-.2-.2-.2s-.2-.1-.4-.4c0-.1-.1-.2-.1-.2 0-.2.1-.3.2-.3h.1c.3-.1.3 0 .3.2zm0-4.4c-.1 0-.2-.1-.3-.2-.1-.1-.1-.1-.2-.1h-.4c-.1 0-.2-.1-.3-.1h-.4c-.2.1-.7.2-.8.3-.2.1-.3.1-.4.2-.1.1-.2.1-.2.2-.1.1-.2.3-.3.3-.1.1-.1.2-.2.3-.1.1-.4.4-.5.6-.1.2-.3.4-.4.5-.1.1 0 .1-.2.3-.2.2-.2.2-.3.4l-.4.4-.3.3c-.1 0-.4.3-.6.4-.2.1-.3.2-.4.2h-.7v.1c.1.2.3.2.4.3.1.1.1.2.3.2.2 0 .3.1.3.1s.3 0 .4.1c.1.1.3.1.4.1h.1c.2 0 .4 0 .6-.1.2 0 .5-.3.6-.3.1-.1.2-.2.5-.3.2-.2.3-.1.3-.2.1-.1.2.1.4-.4s.4-.5.5-.7c.1-.2.4-.7.7-1 .3-.3.3-.2.4-.3.1-.1.2-.2.2-.3.1-.1.2-.4.5-.5.2-.1.4-.2.5-.2.1 0 .4-.1.4-.1.1 0 .2-.1.2-.2 0 0 0-.1-.1-.1-.1-.1-.2-.2-.3-.2z"/><g clip-path="url(#clip4)"><path d="M90.1999 28.85h-2.4v-.2c.3 0 .4-.1.4-.4v-2.1l-1.5 2h-.7l-1.5-2.1v2.2c0 .3.1.4.4.4v.2h-2.2v-.2c.3 0 .4-.1.4-.4v-4c0-.3-.1-.4-.4-.4v-.2h1.8c0 .1 0 .2.1.4l1.8 2.4 1.8-2.4c.1-.1.1-.3.1-.4h1.8v.2c-.3 0-.4.1-.4.4v4c0 .3.1.4.4.4v.2h.1zm-1.1-.4v-4.3h-.3l-2.4 3.2-2.4-3.2h-.3v4.3h.2v-4l2.4 3.2h.2l2.4-3.1v3.9h.2zm7.8.4h-2.3v-.2c.2 0 .3-.1.3-.2s0-.1-.1-.2v-.1c-.3.1-.7.2-1.2.2-.4 0-.8-.1-1-.2v.3c0 .1.1.2.3.2v.2h-2.3v-.2c.2 0 .3-.1.4-.4l1.6-4c.1-.1.1-.2.1-.3 0-.1-.1-.2-.2-.2v-.2h2.5v.2c-.1 0-.2.1-.2.2s.1.2.1.3l1.6 4c.1.3.2.4.4.4v.2zm-1.1-.4l-1.7-4.3h-.8l-1.7 4.3h.3l.3-.8c.3.2.8.3 1.5.3s1.3-.2 1.6-.4l.3.8h.2v.1zm-.6-1.1c-.4.2-.8.3-1.5.3-.6 0-1-.1-1.4-.3l1.2-3h.5l1.2 3zm-1.6-2.2l-.7 2c.2.1.4.1.7.1.3 0 .5 0 .7-.1l-.7-2zm9.2001 3.7h-2c-.3-.4-.6-1.1-.8001-1.6h-.8v1c0 .3.1.4.4.4v.2h-2.4v-.2c.3 0 .4-.1.4-.4v-4c0-.3-.1-.4-.4-.4v-.2c.6 0 1.9-.1 2.5-.1 1.7001 0 3.0001.4 3.0001 1.8 0 .8-.6 1.4-1.3 1.7.2.5.5.9.9 1.4.1.1.2.2.4.2v.2h.1zm-3.1001-4.7h-1.4v4.3h.2v-1.7H100.3c.2.4.6 1.2.9 1.6h.3c-.3-.4-.7-1.2-.9-1.6.8-.1 1.4-.6 1.4-1.4.1-1-1-1.2-2.3001-1.2zm.9001 2.4c-.2 0-.5.1-.8001.1-.4 0-1 0-1.3-.1v-2.2h1.2c1.1001 0 2.1001.2 2.1001 1.1 0 .5-.3 1-1.2 1.1zm-.8001-1.7h-.6v1.3h.7c.8001 0 1.3001-.2 1.3001-.7 0-.5-.5-.6-1.4001-.6zm9.2001.3l-.2.1c-.1-.3-.3-.4-.6-.4h-1.4v3.4c0 .3.1.4.4.4v.2h-2.4v-.2c.3 0 .4-.1.4-.4v-3.4h-1.4c-.3 0-.5.1-.6.4l-.2-.1.3-1.6c.1 0 .3.1.5.1h4.4c.2 0 .3 0 .4-.1l.4 1.6zm-.6-.8v-.2h-4.7v.2h2.3v4.1h.1v-4.1h2.3zm3.3 4.5h-2.4v-.2c.3 0 .4-.1.4-.4v-3.9c0-.3-.1-.4-.4-.4v-.2h2.4v.2c-.3 0-.4.1-.4.4v3.9c0 .3.1.4.4.4v.2zm-1-.4v-4.3h-.2v4.3h.2zm7.7-4.6c-.3 0-.4.1-.4.4v4.6h-1.3c0-.2-.1-.3-.2-.4l-2.4-2.6v2.4c0 .3.1.4.4.4v.2h-2.2v-.2c.3 0 .4-.1.4-.4v-3.9c0-.3-.1-.4-.4-.4v-.2h1.9c0 .1.1.3.2.4l2.3 2.5v-2.2c0-.3-.1-.4-.4-.4v-.2h2.2-.1zm-1 4.6v-4.3h-.2v3.9l-3.6-3.9h-.3v4.3h.2v-4l3.7 4h.2zm3.9.4h-2.4v-.2c.3 0 .4-.1.4-.4v-3.9c0-.3-.1-.4-.4-.4v-.2h2.4v.2c-.3 0-.4.1-.4.4v3.9c0 .3.1.4.4.4v.2zm-1-.4v-4.3h-.2v4.3h.2zm-78.7.4501h-2.4v-.2c.3 0 .4-.1.4-.4v-2.2l-1.5 2h-.7l-1.5-2.1v2.2c0 .3.0999.4.3999.4v.2H34.1v-.2c.3 0 .3999-.1.3999-.4v-4c0-.3-.0999-.4-.3999-.4v-.2h1.8c0 .1-.0001.2.0999.4l1.8 2.4 1.8001-2.4c.1-.1.1-.3.1-.4h1.7999v.2c-.3 0-.3999.1-.3999.4v4c0 .3.0999.4.3999.4v.3H41.6zm-1.1001-.5v-4.3H40.2l-2.4001 3.2-2.3999-3.2h-.3v4.3h.1999v-4l2.4001 3.2h.2l2.3999-3.1v3.9h.2zm4 .5H42.1v-.2c.3 0 .3999-.1.3999-.4v-3.9c0-.3-.0999-.4-.3999-.4v-.2h2.3999v.2c-.3 0-.3999.1-.3999.4v3.9c0 .3.0999.4.3999.4v.2zm-1-.5v-4.3h-.2v4.3h.2zm4.5.6c-1.2 0-2.2999-.1-2.8999-.1v-.2c.3 0 .3999-.1.3999-.4v-3.9c0-.4-.0999-.5-.3999-.5v-.2c.6 0 1.7-.1 2.8-.1 2.1 0 3.3999 1.1 3.3999 2.7 0 1.5-1.3 2.7-3.3 2.7zm-.0999-5c-.5 0-1.3.1-1.7.1v4.3c.4 0 1.2999.1 1.7999.1 1.6 0 2.6001-.9 2.6001-2.2 0-1.6-1.3-2.3-2.7-2.3zm0 4.3c-.5 0-1.3001-.1-1.6001-.1v-3.8c.3 0 1-.1 1.5-.1 1.2 0 2.5.6 2.5 2 0 1.2-.9999 2-2.3999 2zm0-3.6c-.4 0-.6 0-.8.1v3h.8999c1 0 1.7001-.6 1.7001-1.6s-.9-1.5-1.8-1.5zm9.6999.5l-.1999.1c-.1-.3-.3-.4-.6-.4h-1.4v3.4c0 .3.1.4.4.4v.2h-2.4v-.2c.3 0 .4-.1.4-.4v-3.4h-1.4c-.3 0-.5.1-.6.4l-.2-.1.3-1.6c.1 0 .3.1.5.1h4.4c.2 0 .3 0 .4-.1l.3999 1.6zm-.6-.9v-.2H52.3v.2h2.2999v4H54.7v-4h2.2999zm4.1 4.7c-1.6 0-3.1999-1-3.1999-2.8 0-1.7 1.4999-2.8 3.1999-2.8 1.6 0 3.2001 1 3.2001 2.8 0 1.8-1.6001 2.8-3.2001 2.8zm0-5c-1.5 0-2.5 1-2.5 2.2 0 1.4 1.2 2.3 2.5 2.3 1.4 0 2.5-.9 2.5-2.3 0-1.3-1.1-2.2-2.5-2.2zm0 4.3c-1.2 0-2.2999-.9-2.2999-2.1 0-1.1.9999-2 2.2999-2 1.2 0 2.3001.9 2.3001 2 0 1.2-1.1001 2.1-2.3001 2.1zm0-3.6c-.8 0-1.6.5-1.6 1.5s.8 1.5 1.6 1.5c.7 0 1.6001-.5 1.6001-1.5 0-1.1-.9001-1.5-1.6001-1.5zm11.2001-.9c-.2 0-.3.1-.4.4l-1.4001 3.9c-.1.2-.0999.3-.0999.4 0 .1.0999.2.1999.2v.2H68.8v-.2c.1 0 .1999-.1.1999-.2s.0001-.2-.0999-.4l-.6-1.4-.6 1.4c-.1.2-.1001.3-.1001.4 0 .1.1001.2.2001.2v.2h-1.8001v-.2c.1 0 .2001-.1.2001-.2 0 0-.0001-.1-.1001-.4l-1.3999-3.9c-.1-.3-.2-.4-.4-.4v-.2h2.2999v.2c-.2 0-.2999.1-.2999.3v.2l.6999 2.4.9001-2.2h.9l.9 2.2.7-2.3v-.2c0-.2-.1001-.3-.3001-.3v-.2H72.4v.1h-.1zm-1.1.3h-.3l-1.4001 4-1.2999-3.1h-.2001l-1.2999 3.1-1.4-4h-.3001l1.5 4.3H66.7l1.2999-3.1 1.3001 3.1h.1999l1.7001-4.3zm7.5-.3c-.3 0-.4.1-.4.4v4.6h-1.3001c0-.2-.0999-.3-.1999-.4l-2.4-2.6v2.4c0 .3.1.4.4.4v.2h-2.2001v-.2c.3 0 .4-.1.4-.4v-3.9c0-.3-.1-.4-.4-.4v-.2h1.9c0 .1.1001.3.2001.4l2.2999 2.5v-2.2c0-.3-.1-.4-.4-.4v-.2H78.7zm-.9 4.6v-4.3h-.2001v3.9l-3.6-3.9H73.7v4.3h.2v-4l3.6999 4H77.8z"/></g></g></g><defs><clipPath id="clip0"><path d="M0 0h52v452H0z" transform="rotate(90 226 226)"/></clipPath><clipPath id="clip1"><path d="M0 0h6.8v384.1H0z" transform="rotate(90 197.7 220.5)"/></clipPath><clipPath id="clip2"><path d="M0 0h5.6v87.4H0z" transform="rotate(90 197.39995 220.80005)"/></clipPath><clipPath id="clip3"><path d="M0 0h5.6v87.3H0z" transform="rotate(90 123.14995 146.55005)"/></clipPath><clipPath id="clip4"><path d="M0 0h5.6v87.2H0z" transform="rotate(90 48.94995 72.35005)"/></clipPath></defs></svg>