<svg viewBox="0 0 364.8226 154.1824" fill="currentColor"><g data-name="Layer 2"><path fill-rule="evenodd" d="M179.0436 5.1166a2.9105 2.9105 0 111.837.6689 2.89 2.89 0 01-1.837-.6689zm6.698-2.2719a2.8973 2.8973 0 10.89-.6985 2.8863 2.8863 0 00-.89.6985zm3.397 6.2139a2.9034 2.9034 0 014.6611 2.114 2.895 2.895 0 01-2.151 2.98 2.907 2.907 0 01-3.3531-1.5207 2.8861 2.8861 0 01.843-3.5729zm17.978 3.252a2.2916 2.2916 0 01.8511.7975v.001a2.2809 2.2809 0 01.25 1.89l-.582 1.8825-.582 1.8827a.7721.7721 0 01-.14.2619.7626.7626 0 01-1.0741.1025.7567.7567 0 01-.239-.81l.582-1.8825.582-1.8826a.7718.7718 0 00-.5059-.9567.7769.7769 0 00-.9711.4855l-.8 2.6694-.801 2.6695a18.0734 18.0734 0 01-6.3829 9.2216l-1.5651 1.195-1.566 1.1952a.763.763 0 01-1.006-.07.7561.7561 0 01-.051-1.0028l2.89-3.6242 2.89-3.624a.726.726 0 00.13-.2637.7112.7112 0 00.013-.2933.7118.7118 0 00-.3051-.4875.7406.7406 0 00-.5589-.1054.7241.7241 0 00-.3011.15 3.3854 3.3854 0 00-.248.2326c-.071.0682-.1409.1358-.2119.2035l-.0031.0024-.128.1224c-.114.11-.227.2193-.337.333l-2.16 2.1021-2.16 2.1022-.002.0021-.0029.0022-.0371.0326-.039.0308-.012.0083-.012.0083-.0379.0246-.04.0224-.006.0033-.006.0031-.038.018-.039.0163a9.4386 9.4386 0 00-1.58.83 10.4176 10.4176 0 00-2.903 2.7212 12.462 12.462 0 00-1.707 3.7187 14.4433 14.4433 0 00-.45 2.1594v7.0725h7.236v-5.0254a.76.76 0 01.28-.5866l2.937-2.3891 2.937-2.3889a11.4819 11.4819 0 003.05-4.2905 43.3376 43.3376 0 001.837-5.2629c.049-.1613.167-.5491.294-.9623l.006-.0194.102-.3319c.1611-.5275.308-1.0034.308-1.0034a.76.76 0 111.453.4459l-.307 1c-.162.5253-.3379 1.1019-.4 1.3067a43.3823 43.3823 0 01-1.973 5.6 12.746 12.746 0 01-3.41 4.691l-2.797 2.2753-2.7966 2.2752v5.4236a.7609.7609 0 01-.058.29.763.763 0 01-.4111.41.7609.7609 0 01-.291.0577h-8.756a.7625.7625 0 01-.538-.2219.7508.7508 0 01-.165-.2457.7591.7591 0 01-.058-.29v-7.873l.001-.0364.003-.036a14.8381 14.8381 0 01.4521-2.287 14.0528 14.0528 0 011.9779-4.3492 11.7119 11.7119 0 012.728-2.7244 12.1851 12.1851 0 012.121-1.2306l1.207-3.6913 1.207-3.6914a2.1386 2.1386 0 013.235-1.1051l.117-.3737.1161-.3738a2.0815 2.0815 0 012.5089-1.3939 2.0156 2.0156 0 01.329.1157 2.147 2.147 0 01.3021.1678l.1779-.5488.179-.5486a2.1054 2.1054 0 013.1821-1.0807 2.2965 2.2965 0 013.08-.87zm-11.475 6.1194a.6211.6211 0 00-.306.362l-.7819 2.3945-.7821 2.3925.985-.9588.985-.9589.388-1.2478.389-1.2478a.62.62 0 00-.877-.7357zm2.432 1.6146a2.1392 2.1392 0 01.257-.0163h.0271a2.2 2.2 0 01.3029.0246 2.3915 2.3915 0 01.2941.064l.4639-1.43.4651-1.43a.5571.5571 0 00-.1741-.5994.5609.5609 0 00-.192-.1057.5644.5644 0 00-.43.0374.5659.5659 0 00-.277.33l-.4939 1.585-.4941 1.585a2.4509 2.4509 0 01.251-.0451zm2.403 2.866a16.5366 16.5366 0 00.998-1.8948 16.8792 16.8792 0 00.755-2.03l.5871-1.9578.5869-1.9578a.5664.5664 0 00.012-.2832.5891.5891 0 00-.204-.3318.5689.5689 0 00-.26-.1165.5816.5816 0 00-.651.39l-.4859 1.4973-.4861 1.4974-.546 1.6817-.546 1.6816a2.24 2.24 0 01.24 1.8239zm-25.012 4.0257a11.7157 11.7157 0 012.728 2.7244h.001a14.0564 14.0564 0 011.978 4.3492 14.8417 14.8417 0 01.453 2.2873l.002.0361v7.9073a.7586.7586 0 01-.058.29.7614.7614 0 01-.411.41.7608.7608 0 01-.291.0576h-8.756a.7639.7639 0 01-.538-.2216.7811.7811 0 01-.165-.2457.7586.7586 0 01-.058-.29V38.82l-1.616-1.3155-1.617-1.3164a.7565.7565 0 01-.276-.51.75.75 0 01.029-.2941.7633.7633 0 01.1391-.261.7625.7625 0 01.5119-.2744.7584.7584 0 01.5571.1669l1.7569 1.429 1.756 1.429a.76.76 0 01.28.5866v5.0259h7.239v-7.0737a14.4454 14.4454 0 00-.45-2.1574 12.4222 12.4222 0 00-1.7069-3.72 10.4219 10.4219 0 00-2.903-2.7213 9.466 9.466 0 00-1.582-.8308l-.0381-.0162-.037-.0173-.008-.0045-.008-.0045-.037-.0211-.0359-.023-.0131-.0089-.013-.0093-.04-.0309-.037-.0333-.002-.0018-.001-.0018-2.16-2.1016-2.16-2.1018-.001-.0012h-.001l-.44-.4279-.439-.428a.7206.7206 0 00-1.069.9619l2.89 3.6241 2.89 3.6241a.7569.7569 0 01-.052 1.0023.7624.7624 0 01-1.0049.07l-1.5661-1.1951-1.566-1.195a18.0617 18.0617 0 01-6.3829-9.222l-.8011-2.6693-.801-2.6694a.7748.7748 0 00-1.476.4714l1.2 3.8823 1.201 3.8823c.062.2.1231.402.185.6059l.137.4521.0491.164a43.349 43.349 0 001.8369 5.2629 11.4838 11.4838 0 003.05 4.29.7585.7585 0 01-.962 1.173 12.7578 12.7578 0 01-3.409-4.6911 43.3777 43.3777 0 01-1.9729-5.6c-.0611-.2047-.1231-.4082-.1841-.61s-.123-.4023-.184-.6l-1.2-3.8824-1.201-3.8823a2.2943 2.2943 0 014.18-1.8172 2.0985 2.0985 0 013.182 1.0806l.178.5487.178.5487a2.2078 2.2078 0 01.303-.1677 2.0193 2.0193 0 01.329-.1158 2.0806 2.0806 0 012.508 1.3935l.117.3737.117.3738a2.1413 2.1413 0 013.235 1.1052l1.2071 3.6913 1.207 3.6912a12.1389 12.1389 0 012.1199 1.2304zm-6.953-8.4391a.6271.6271 0 00-.144.1612v-.0022a.6061.6061 0 00-.065.5084l.3891 1.2474.3889 1.2474.9841.9589.985.9588-.7821-2.3925-.782-2.3927a.6166.6166 0 00-.69-.4184.606.606 0 00-.284.1232zm-6.507-1.47l.587 1.9578a16.9055 16.9055 0 00.755 2.03 16.4233 16.4233 0 00.999 1.8963 2.2358 2.2358 0 01.239-1.8249l-.5459-1.6815-.5461-1.6817v-.0009l-.486-1.4974-.486-1.4972a.581.581 0 00-.651-.39.5655.5655 0 00-.259.1166.5861.5861 0 00-.206.3317.5559.5559 0 00.013.2833zm4.156 3.0259a2.1861 2.1861 0 01.303-.0245v.0009a2.0859 2.0859 0 01.27.0134 2.31 2.31 0 01.2641.0456l-.4931-1.5849-.4939-1.5847a.5475.5475 0 00-.1061-.1915.559.559 0 00-.171-.1368.5632.5632 0 00-.621.0682.5592.5592 0 00-.175.5981l.465 1.43.464 1.43a2.372 2.372 0 01.294-.0641zm23.711-3.9844a2.8688 2.8688 0 10.4861 1.02 2.9025 2.9025 0 00-.4861-1.0203zM173.7206 9.8a2.888 2.888 0 10-1.3406-3.648 2.8858 2.8858 0 001.3406 3.648zm3.713 5.9991a2.8844 2.8844 0 11.246-1.9337 2.8992 2.8992 0 01-.246 1.9339zm5.768 4.1291a2.8915 2.8915 0 00-1.53-3.3392 2.8875 2.8875 0 101.53 3.3392zm9.2271-15.4895a.9232.9232 0 000 1.2352.8514.8514 0 001.2009 0 .9232.9232 0 000-1.2352.8518.8518 0 00-.926-.1835.8366.8366 0 00-.2749.1837zm1.108.1007a.7922.7922 0 010 1.0339.723.723 0 01-.233.1559.7177.7177 0 01-.55 0 .7072.7072 0 01-.232-.1559.7922.7922 0 010-1.0339.7072.7072 0 01.232-.1559.7179.7179 0 01.7831.1559zm-.49.0443h-.321v.9453h.1321v-.4039h.1359l.14.2019.14.202h.138l-.1411-.2065-.141-.2063a.2657.2657 0 00.151-.0885.2625.2625 0 00.0621-.1733.2576.2576 0 00-.0191-.1058.24.24 0 00-.06-.0893.3088.3088 0 00-.217-.0754zm.123.3811a.1723.1723 0 01-.123.04h-.1889v-.301h.1889a.1726.1726 0 01.123.04.167.167 0 010 .2215zm-78.317 85.1507v4.07h137.965l-4.812-15.0581 4.812-15.0581h-5.37l1.3-4.07H110.7826v30.1164zm128.033-15.058l4.4929 14.0582h-135.596V60.9994h135.596zM207.08 71.0784c1.9879 0 3.2439 1.4463 3.2439 3.5855s-1.276 3.6056-3.264 3.6056c-1.969 0-3.244-1.4463-3.244-3.5855-.0003-2.1493 1.2847-3.6056 3.2641-3.6056zm-.01 6.0863c1.195 0 1.908-.9742 1.908-2.4907s-.723-2.4908-1.908-2.4908-1.899.9742-1.899 2.4908.7136 2.4907 1.899 2.4907zm-79.148-.2109l.181 1.1851h-3.827v-6.93h1.336v5.7448zm3.641-5.7448v6.93h-1.336v-6.93zm10.3361 6.93l-.5331-6.93h-1.657l-1.747 5.2326-1.758-5.2326h-1.687l-.533 6.93h1.196l.351-5.1121 1.748 5.1322h1.185l1.737-5.1322.372 5.1121zm3.7509-6.93v6.93h-1.336v-6.93zm7.744 1.155l-.19-1.155h-5.384v1.155h2.089v5.7749h1.3261V72.364zm6.182 4.65v1.1248h-4.128v-6.93h4.027v1.1249h-2.711v1.6573h2.089l.18 1.1148h-2.269v1.9083zm8.069-2.35c0-2.0388-1.245-3.4549-3.655-3.4549h-2.2v6.93h2.2a3.3 3.3 0 003.6546-3.4752zm-1.355.01a2.0975 2.0975 0 01-2.33 2.37h-.844v-4.74h.864a2.1263 2.1263 0 012.31 2.37zm11.871-3.465l.19 1.155h-2.1589v5.7749h-1.3261V72.364h-2.089v-1.155zm3.63 0h-1.3359v6.93h1.3359zm8.146 0h1.657l.532 6.93h-1.325l-.3719-5.1121-1.737 5.1322h-1.1861l-1.7469-5.1322-.3521 5.1121h-1.195l.532-6.93h1.688l1.757 5.2326zm8.683 6.93v-1.1249h-2.812v-1.9083h2.269l-.18-1.1148h-2.089v-1.6571h2.711V71.209h-4.027v6.93zm19.61-6.93h-1.235v4.54l-3.114-4.54h-1.255v6.93h1.235v-4.7707l3.264 4.7706h1.105zm6.218 5.7448l.181 1.1851h-3.8269v-6.93h1.336v5.7448zm6.94-5.7448h-1.446l-1.6881 3.0532-1.737-3.1235-1.386.221 2.42 4.1378v2.6414h1.336v-2.6514zM14.1887 153.7054q.6571.144 1.4414.29.6479.099 1.3072.143t1.3321.044q.699-.003 1.3715-.044t1.3163-.129q.7279-.0915 1.3875-.22t1.2471-.303q.6734-.231 1.3032-.492t1.2179-.55q.7856-.46 1.359-.823t.9383-.622q.3617-.288.8657-.766t1.1476-1.141q.6171-.639 1.0661-1.144t.7278-.88a2.2346 2.2346 0 00.1676-.305.5855.5855 0 00.056-.217.7177.7177 0 00-.3392-.635l-.3475-.335-.388-.373q-.267-.2565-.4537-.436c-.27-.261-.4146-.401-.4342-.421q-.2235-.204-.6434-.592t-1.0375-.968q-.2527-.231-.4693-.411c-.1446-.121-.2751-.225-.3975-.312s-.2558-.19-.4008-.311-.3005-.257-.469-.412a.84.84 0 00-.2372-.132.83.83 0 00-.266-.044.86.86 0 00-.336.059.5284.5284 0 00-.2244.174 12.5608 12.5608 0 01-1.05 1.214 7.304 7.304 0 01-1.02.866 8.5511 8.5511 0 01-1.2609.738 7.3057 7.3057 0 01-1.317.477 7.6261 7.6261 0 01-1.3322.304 10.8169 10.8169 0 01-1.5258.1 10.4338 10.4338 0 01-1.3451-.087 10.959 10.959 0 01-1.3421-.26 8.4264 8.4264 0 01-1.3186-.478 5.3977 5.3977 0 01-1.0362-.622 8.76 8.76 0 01-.9518-.809 10.0767 10.0767 0 01-2.2958-3.354 6.3905 6.3905 0 01-.3029-.73 8.1222 8.1222 0 01-.2312-.801l-.1613-.688c-.0421-.178-.0728-.306-.0924-.383q-.1944-.7215-.3071-1.387a10.37 10.37 0 01-.1395-1.274q-.0833-.663-.1258-1.343t-.0426-1.374q0-.348.0268-1.012t.0827-1.647q.1412-.9255.2533-1.576t.1975-1.026q.1675-.6945.3774-1.331t.4631-1.215q.3617-.75.6981-1.314a7.79 7.79 0 01.6452-.94 8.0889 8.0889 0 01.8956-1.041 6.582 6.582 0 011.0076-.809 10.5162 10.5162 0 012.3551-.985 8.35 8.35 0 011.2306-.259 10.05 10.05 0 011.3426-.088 12.3512 12.3512 0 011.3321.072 11.9764 11.9764 0 011.3027.217 7.8763 7.8763 0 011.1627.404 11.7355 11.7355 0 011.2447.637 6.7652 6.7652 0 01.9946.679 12.378 12.378 0 011.08.997 1.0974 1.0974 0 00.28.218.6094.6094 0 00.28.071.63.63 0 00.2666-.057.7975.7975 0 00.2371-.173l.7855-.868.7856-.867c.1488-.173.2912-.331.4263-.471s.2633-.265.384-.369.2487-.227.3839-.367.2774-.297.4284-.471l.7835-.868.7834-.867a.7649.7649 0 00.1677-.259.8831.8831 0 00.0557-.319.7311.7311 0 00-.0557-.259 1.829 1.829 0 00-.1677-.319q-.588-.6075-1.0364-1.041t-.7538-.694q-.3383-.26-.8415-.621-.5032-.363-1.1763-.824-.5616-.3735-1.0937-.679t-1.0375-.535l-.3839-.159-.5971-.247c-.232-.096-.4588-.182-.678-.259s-.4315-.144-.6349-.202q-.3927-.087-.981-.188t-1.3727-.218q-.7843-.06-1.4009-.088c-.4111-.02-.7653-.029-1.063-.029-.3173 0-.6958.02-1.1354.058s-.9394.097-1.5.174q-.8964.1155-1.5532.23t-1.0773.231q-.5049.1455-1.1224.377t-1.3459.549q-.5317.261-1.1057.607t-1.1876.78q-.5335.3765-1.0386.81t-.9807.924q-.5317.549-.9808 1.071t-.8136 1.012q-.4466.6345-.797 1.2t-.6036 1.056q-.3642.6375-.6575 1.259t-.52 1.228q-.249.609-.4594 1.259t-.3808 1.344q-.1382.49-.2785 1.157T.4451 126.07q-.1672 1.245-.25 1.922t-.0828.792q-.0579.867-.0853 1.547T0 131.5024q.0009.462.0271 1.156.0264.696.0853 1.62.0564.723.1388 1.402t.1939 1.315q.0874.723.2132 1.403t.2964 1.314q.2793.8685.5024 1.518t.3907 1.084q.2268.609.52 1.23.2929.6225.6574 1.257.45.8115.7989 1.388t.6017.925q.5622.7515.9954 1.286t.7423.853q.4466.4635.9516.897t1.0662.836a12.0423 12.0423 0 001.05.738q.5744.363 1.2473.708a11.2531 11.2531 0 001.0768.478q.63.246 1.4445.506.5319.1455 1.1888.289zm35.56.291q-.5023-.0585-1.1609-.203t-1.4693-.375q-.84-.2895-1.4709-.535t-1.05-.45q-.6729-.345-1.2337-.692a11.58 11.58 0 01-1.0071-.694q-.5611-.435-1.08-.881t-.9948-.911q-.3084-.318-.7426-.852-.4341-.5355-.9948-1.288-.4465-.6345-.81-1.214t-.6471-1.1q-.3083-.5775-.5879-1.199t-.5323-1.288q-.1677-.4335-.3637-1.084t-.4195-1.518l-.1409-.504-.1965-.709q-.1113-.405-.1809-.781c-.0448-.239-.078-.481-.0994-.723q-.1113-.636-.1939-1.315t-.1387-1.402q-.0589-.924-.0852-1.62c-.0176-.463-.0267-.849-.0273-1.156 0-.617.0045-1.151.0136-1.605s.0233-.824.0426-1.113l.195-1.358.1944-1.359q.1706-.924.31-1.59t.25-1.071c.0941-.346.2157-.737.3649-1.17s.3268-.911.5323-1.432.4021-.988.588-1.401.3637-.776.5328-1.086a7.3364 7.3364 0 01.5318-.938q.3642-.564.9253-1.316.476-.6345.91-1.155t.8279-.927c.1118-.096.2443-.214.3975-.352s.3285-.301.5258-.485.3865-.349.5684-.498.3572-.282.5258-.399q.5019-.3735 1.0763-.721t1.2171-.665q.476-.2025 1.1062-.434t1.4149-.492c.4313-.115.8615-.217 1.29-.303s.8581-.159 1.2874-.217q.8406-.1155 1.4995-.172.6588-.0585 1.1354-.058c.243 0 .4926.009.7491.029s.52.048.7915.087c.2691.039.5.073.6918.102s.3433.053.455.072q.8406.1155 1.4844.23t1.0935.231a9.9691 9.9691 0 011.1762.391q.6162.2475 1.2879.594.7587.3765 1.3467.708t1.0081.62q.3646.261.8824.681.5176.4185 1.1879.997.1707.1725.6044.693.4338.519 1.1331 1.388.5054.7515.87 1.33t.5878.982q.3083.5805.5879 1.201.28.6225.5323 1.286.2524.609.4631 1.259t.3774 1.343q.2231.8685.3774 1.533t.24 1.128q.0819.4335.1531 1.113t.128 1.604q.0559.435.0828 1.113.0268.68.0263 1.605 0 .924-.0128 1.62t-.04 1.156q-.0294.519-.0989 1.199t-.1814 1.518q-.03.204-.1973.883t-.4764 1.834q-.1121.4335-.2236.81t-.223.695c-.0258.071-.0508.141-.0752.209l-.043.12c-.0326.091-.0642.179-.095.263l-.0219.061-.0331.092-.0231.065c-.0362.101-.0706.197-.1043.287q-.2526.666-.5323 1.288t-.588 1.199q-.3646.666-.7288 1.259t-.7288 1.113a11.3053 11.3053 0 01-.8262 1.127 9.8176 9.8176 0 01-.9112.953q-.4465.465-.9647.912t-1.1059.88a10.556 10.556 0 01-.9683.622q-.5744.333-1.3293.709-.5616.2895-1.1762.549c-.41.174-.839.337-1.2879.492q-.8145.231-1.4716.375t-1.1635.203q-.6435.0885-1.3155.129-.6722.042-1.372.044-.6729 0-1.3316-.044t-1.3031-.131zm5.2656-9.251a6.17 6.17 0 001.2051-.421 7.128 7.128 0 001.1492-.679 7.4035 7.4035 0 00.9383-.824 10.3366 10.3366 0 00.9082-1.085 9.379 9.379 0 00.7165-1.098 10.2323 10.2323 0 00.5747-1.215c.1683-.405.3227-.818.4628-1.242s.2662-.857.378-1.301c.1279-.502.2319-.974.3066-1.417a10.2811 10.2811 0 00.14-1.244c.0373-.307.0658-.659.0854-1.054s.0292-.833.0289-1.315q0-.9255-.0289-1.677t-.0854-1.33q-.1412-.924-.2527-1.575t-.1936-1.027a10.8954 10.8954 0 00-.3085-1.244q-.2056-.663-.475-1.302a8.5945 8.5945 0 00-.5349-1.025q-.3369-.5625-.8136-1.229a12.9287 12.9287 0 00-1.0076-1.042 6.2624 6.2624 0 00-.8957-.693 7.2125 7.2125 0 00-1.1489-.679 6.27 6.27 0 00-1.2012-.421 7.1627 7.1627 0 00-1.1515-.216 12.8615 12.8615 0 00-1.4284-.073 11.0688 11.0688 0 00-1.2476.073 12.4834 12.4834 0 00-1.2733.216 6.2363 6.2363 0 00-1.2051.421 7.149 7.149 0 00-1.1515.679 6.0143 6.0143 0 00-.9647.767 7.9044 7.9044 0 00-.8823 1.025q-.4759.666-.8126 1.23a8.2256 8.2256 0 00-.531 1.026 9.4668 9.4668 0 00-.4219 1.113q-.1962.6225-.3657 1.374-.1677.693-.2931 1.343t-.2106 1.259q-.0558.606-.0825 1.358t-.0268 1.649q0 .258.0268.851t.0825 1.518q.1122.897.2238 1.562t.2273 1.101q.1373.49.3607 1.113t.5318 1.374a11.6071 11.6071 0 00.6049 1.271 7.8361 7.8361 0 00.6864 1.042 7.6156 7.6156 0 00.8394 1.084 5.94 5.94 0 00.9508.824 7.8037 7.8037 0 001.1789.723 5.9025 5.9025 0 001.1757.434 7.165 7.165 0 001.1515.217 13.102 13.102 0 001.4282.072 13.8749 13.8749 0 001.4977-.072 6.4456 6.4456 0 001.1338-.219zm55.69 8.642l1.178-.029 1.175.028 1.178.029a.7048.7048 0 00.306-.065.7844.7844 0 00.254-.197.8942.8942 0 00.167-.28.9224.9224 0 00.056-.325v-1.389l.028-.693.029-.694V144.22l-.029-1.388-.028-1.388v-16.71l.028-1.388.029-1.388q-.0015-.52-.015-.867c-.006-.174-.02-.348-.043-.52v-9.711a.89.89 0 00-.056-.319.7609.7609 0 00-.168-.26.7746.7746 0 00-.254-.173.7994.7994 0 00-.306-.057c-.261 0-.505-.003-.73-.008s-.43-.012-.618-.022q-.279-.015-.63-.022-.3495-.0075-.77-.007h-1.344c-.133.019-.314.034-.546.044s-.516.015-.853.015c-.261 0-.503-.003-.728-.008s-.43-.012-.616-.022-.396-.017-.629-.022-.491-.007-.771-.007a.9744.9744 0 00-.329.058 1.2662 1.2662 0 00-.574.434 1.1364 1.1364 0 00-.161.316q-.141.3765-.253.695t-.198.579l-.18.563-.209.65-.449 1.214-.448 1.215q-.225.609-.434 1.23t-.407 1.257l-.42 1.214-.42 1.214-.449 1.243-.449 1.244-.474 1.213-.475 1.215-.394 1.243-.3938 1.244-.4753 1.214-.4745 1.214q-.197.636-.4073 1.259-.21.621-.4331 1.228-.2815.8385-.4922 1.46t-.348 1.026a.2018.2018 0 01-.0412.033l-.0113.006-.011.006a.1841.1841 0 01-.0768.014.2081.2081 0 01-.0781-.014.1918.1918 0 01-.0314-.018.1312.1312 0 01-.0306-.027l-.4484-1.243-.4488-1.243-.42-1.214-.42-1.214-.21-.651-.1838-.565c-.0549-.172-.12-.365-.1942-.577s-.1586-.444-.2524-.694l-.4485-1.244-.4487-1.243-.42-1.215-.42-1.213c-.0745-.212-.1466-.411-.2166-.599s-.1378-.365-.2035-.529-.138-.359-.2171-.586-.1656-.484-.26-.773l-.4467-1.214-.4463-1.214-.4488-1.244-.4485-1.243-.42-1.243-.42-1.242q-.1407-.4335-.26-.774t-.2174-.586l-.2035-.513-.2175-.558a.8671.8671 0 00-.1194-.316.9642.9642 0 00-.2439-.261 1.1758 1.1758 0 00-.3152-.173.9452.9452 0 00-.3282-.058h-2.7491c-.2784 0-.5347.002-.7675.007s-.4453.012-.6312.022-.3907.018-.6146.022-.4663.008-.729.008c-.28 0-.538-.003-.7713-.008s-.4434-.012-.6293-.022-.3918-.017-.6161-.022-.4671-.007-.7278-.007a.76.76 0 00-.3147.065.9578.9578 0 00-.4625.477.8432.8432 0 00-.0633.326v2.775l.0287 1.388.0286 1.388v8.326l-.0286 1.388-.0287 1.388.0287 1.388.0286 1.388-.0286 1.387-.0287 1.387v5.611l.0287 1.386.0286 1.387v5.552l-.0286 1.389-.0287 1.387q0 .5205.0138.867a4.4526 4.4526 0 00.0425.52v1.39a.8985.8985 0 00.223.605.7525.7525 0 00.2525.196.7138.7138 0 00.3079.066h2.3546l1.1752-.029 1.1754-.03h2.3548a.8118.8118 0 00.3079-.057.775.775 0 00.2523-.173.79.79 0 00.1673-.26.88.88 0 00.056-.318v-2.661l.0281-1.33.0284-1.331c0-.268-.0025-.515-.0071-.743s-.0123-.433-.0234-.616q-.0132-.276-.02-.616c-.0042-.228-.0062-.476-.0062-.746v-2.658l.0281-1.33.0284-1.331v-2.717l-.0284-1.331-.0281-1.33v-2.658l.0135-.045.0427-.015.0427.015.0153.045q.1113.318.2231.606t.2228.55q.1118.26.2371.592c.0836.221.1725.467.2666.736l.42 1.273.42 1.272.4487 1.272.4485 1.272.2236.608.223.607a4.6635 4.6635 0 01.2392.52q.1275.318.2686.752l.1945.636.1949.635.2257.636.2252.636q.1377.435.2558.781c.0788.232.1509.434.2166.608s.1336.357.2033.549.142.395.2168.608l.42 1.272.42 1.271a1.0292 1.0292 0 00.1614.312 1.0164 1.0164 0 00.2592.237 1.2 1.2 0 00.3306.152 1.2859 1.2859 0 00.37.051H96.08q.45 0 .8142-.007c.2431-.004.4575-.012.6434-.022s.3962-.016.63-.022.4907-.008.7707-.008a1.1182 1.1182 0 00.66-.186 1.1461 1.1461 0 00.403-.563l.449-1.244.448-1.243.449-1.273.449-1.273c.094-.289.181-.548.26-.78s.151-.432.217-.606.133-.358.203-.55.143-.395.217-.607c.092-.251.173-.483.243-.694s.129-.405.178-.578q.0675-.261.173-.578c.07-.211.153-.443.247-.694.074-.212.148-.415.223-.607s.148-.376.223-.549.154-.371.238-.593.173-.468.265-.738l.42-1.272.421-1.273.448-1.272.449-1.272.014-.013.012-.008a.1091.1091 0 01.031-.014.0865.0865 0 01.057.006l.042.037.016.052v5.319c0 .27-.004.517-.01.744s-.013.43-.021.613c-.009.185-.015.39-.02.616s-.007.475-.007.745l.029 1.33.029 1.331v5.376l-.029 1.33-.029 1.33v2.661a.85.85 0 00.063.324.88.88 0 00.187.281.8944.8944 0 00.276.197.7568.7568 0 00.315.065h2.35zm47.507-.029l-1.178.029-1.1769.029h-2.35a.7568.7568 0 01-.315-.065.8944.8944 0 01-.276-.197.88.88 0 01-.187-.281.8305.8305 0 01-.062-.324v-2.661l.028-1.33.028-1.33v-5.376l-.028-1.331-.028-1.33q0-.405.006-.745t.02-.616c.0079-.183.0159-.387.0209-.613s.009-.474.009-.744v-5.319l-.0149-.052-.043-.037a.08.08 0 00-.0571-.006.1458.1458 0 00-.0569.035l-.4481 1.272-.449 1.272-.42 1.273-.42 1.272q-.138.405-.265.738c-.085.22-.1639.419-.239.593s-.148.356-.223.549-.149.396-.223.607c-.094.251-.176.483-.246.694s-.128.404-.174.578q-.072.26-.177.578c-.07.211-.151.443-.243.694q-.1125.318-.217.607t-.204.55c-.0649.174-.137.375-.217.606s-.166.491-.26.78l-.4479 1.273-.4491 1.273-.448 1.243-.449 1.244a1.1547 1.1547 0 01-.4039.563 1.114 1.114 0 01-.6591.186q-.4215 0-.7719.008c-.233.006-.4431.013-.6291.022s-.401.018-.643.022-.515.007-.815.007h-2.8009a1.2917 1.2917 0 01-.37-.051 1.2046 1.2046 0 01-.33-.152 1.0053 1.0053 0 01-.2589-.237 1.0173 1.0173 0 01-.1611-.312l-.4209-1.271-.42-1.272c-.074-.213-.146-.415-.216-.608s-.138-.375-.204-.549-.138-.376-.2159-.608-.1641-.491-.2561-.781l-.225-.636-.2259-.636-.194-.635-.1951-.636c-.095-.289-.1839-.54-.269-.752a4.6985 4.6985 0 00-.239-.52l-.223-.607-.224-.608-.448-1.272-.449-1.272-.42-1.272-.42-1.273c-.094-.269-.183-.515-.267-.736s-.162-.419-.2359-.592-.1491-.357-.224-.55-.1491-.394-.2231-.606l-.015-.045-.043-.015-.043.015-.013.045v2.658l.029 1.33.028 1.331v2.717l-.028 1.331-.029 1.33v2.658c0 .27.002.518.006.746s.011.432.02.616q.0165.2745.024.616c.004.228.007.475.007.743l-.028 1.331-.029 1.33v2.661a.8845.8845 0 01-.056.318.7744.7744 0 01-.42.433.8091.8091 0 01-.308.057h-2.354l-1.1759.03-1.1751.029h-2.355a.7145.7145 0 01-.308-.066.7606.7606 0 01-.252-.196.8877.8877 0 01-.167-.281.9169.9169 0 01-.056-.324v-1.39a4.305 4.305 0 01-.042-.52q-.015-.3465-.015-.867l.029-1.387.028-1.389v-5.552l-.028-1.387-.029-1.386v-5.611l.029-1.387.028-1.387-.028-1.388-.029-1.388.029-1.388.028-1.388v-8.326l-.028-1.388-.029-1.388V110.86a.8638.8638 0 01.063-.326.8987.8987 0 01.192-.282.8408.8408 0 01.271-.195.7633.7633 0 01.315-.065c.26 0 .503.002.727.007s.431.012.617.022.396.018.63.022.49.008.77.008q.3945 0 .7291-.008t.6149-.022q.282-.015.631-.022t.768-.007h2.7491a.9725.9725 0 01.3279.058 1.1978 1.1978 0 01.315.173.9646.9646 0 01.244.261.87.87 0 01.119.316l.217.558.203.513c.066.164.138.359.218.586s.166.485.2591.774l.42 1.242.421 1.243.448 1.243.449 1.244.446 1.214.447 1.214q.141.4335.26.773c.0791.227.1521.422.217.586s.133.34.203.529.142.387.2171.599l.42 1.213.421 1.215.448 1.243.449 1.244c.0941.25.1781.482.252.694s.14.405.194.577l.184.565.21.651.42 1.214.42 1.214.4489 1.243.449 1.243a.1626.1626 0 00.062.045.2025.2025 0 00.077.014.1819.1819 0 00.077-.014.2171.2171 0 00.064-.045l.0831-.245.265-.781q.21-.6225.4919-1.46.2235-.606.433-1.228t.4071-1.259l.476-1.214.4739-1.214.394-1.244.394-1.243.475-1.215.475-1.213.448-1.244.449-1.243.42-1.214.42-1.214c.132-.424.267-.843.408-1.257s.284-.824.433-1.23l.448-1.215.449-1.214.209-.65.18-.563q.0855-.26.1981-.579t.2529-.695a1.1364 1.1364 0 01.161-.316 1.2374 1.2374 0 01.26-.261 1.1662 1.1662 0 01.3151-.173.9634.9634 0 01.3279-.058q.42 0 .771.007t.63.022c.186.011.391.018.6161.022s.4689.008.7269.008c.337 0 .6221-.005.853-.015.233-.01.415-.025.546-.044h1.343c.28 0 .538.002.772.007s.444.012.63.022c.188.01.393.018.617.022s.47.008.731.008a.7615.7615 0 01.562.23.7833.7833 0 01.167.26.89.89 0 01.056.319v9.711c.022.172.0371.346.042.52.01.231.016.52.016.867l-.029 1.388-.028 1.388v16.71l.028 1.388.029 1.388v5.552l-.029.694-.028.693v1.389a.8981.8981 0 01-.223.605.8027.8027 0 01-.256.197.7048.7048 0 01-.306.065l-1.178-.029zm22.691.434q.6435.1455 1.3981.26c.2839.04.642.07 1.0719.089s.934.029 1.5121.029q.6733-.003 1.3169-.044t1.261-.129q.6735-.093 1.303-.22.63-.129 1.217-.304a12.6471 12.6471 0 001.288-.405 10.9969 10.9969 0 001.177-.519q.588-.318 1.134-.666.5475-.348 1.05-.723a12.9761 12.9761 0 001.093-.911 7.6438 7.6438 0 00.8151-.88q.2789-.3465.6429-.896t.81-1.302q.3392-.6645.6181-1.272c.1859-.404.3539-.79.5029-1.155q.282-.7815.463-1.417a10.894 10.894 0 00.268-1.129q.1666-.6645.293-1.33.1247-.6645.21-1.329.111-.7515.181-1.416t.099-1.245q.057-.867.086-1.531c.019-.443.029-.82.029-1.129 0-.25-.004-.481-.0089-.693s-.0141-.405-.0221-.579-.016-.37-.02-.591-.007-.468-.007-.739v-2.602c0-.25.002-.482.007-.693s.011-.406.02-.579.016-.37.0221-.591.0089-.468.0089-.74c0-.249-.004-.48-.0089-.692s-.0141-.405-.0221-.579-.016-.37-.02-.592-.007-.468-.007-.738v-12.952a.9063.9063 0 00-.223-.608.7762.7762 0 00-.2559-.195.7169.7169 0 00-.306-.065H195.08c-.2431 0-.4671.003-.6731.007s-.392.013-.561.023-.35.017-.5459.022-.4061.007-.6311.007a.8383.8383 0 00-.5869.231.7614.7614 0 00-.254.578v5.145q0 .4065.0069.739c.006.222.013.419.024.592.008.174.015.367.02.579s.006.443.006.692c.0011.271.0031.518.008.739s.012.419.023.592c.0091.174.015.366.02.579s.0061.443.0061.692v2.603c0 .27-.002.517-.0061.738s-.0109.419-.02.592c-.011.174-.018.367-.023.579s-.008.443-.008.692v7.807q.0017.4635-.026 1.1t-.0829 1.446q-.0586.8385-.1281 1.46c-.047.414-.097.757-.1519 1.027a12.84 12.84 0 01-.2831 1.271 10.42 10.42 0 01-.391 1.157 7.8653 7.8653 0 01-.644 1.272 3.3027 3.3027 0 01-.699.808 3.0593 3.0593 0 01-.8839.608 6.245 6.245 0 01-1.3.433 5.571 5.571 0 01-1.052.218 11.6683 11.6683 0 01-1.36.072q-.699 0-1.3159-.058a9.663 9.663 0 01-1.1481-.173 5.1667 5.1667 0 01-1.163-.419 5.0433 5.0433 0 01-1.0229-.681 4.55 4.55 0 01-.7861-.924 5.4388 5.4388 0 01-.558-1.157 4.294 4.294 0 01-.3649-.953 14.2089 14.2089 0 01-.3091-1.474q-.1665-1.0425-.253-1.664a8.1381 8.1381 0 01-.085-.823q-.0555-.753-.082-1.389-.027-.6345-.027-1.157 0-.375.007-.693c.004-.212.011-.405.019-.579s.015-.37.02-.591.007-.468.007-.739v-10.409q-.0015-.3735-.007-.692c-.004-.213-.011-.405-.02-.579s-.015-.37-.019-.592-.007-.468-.007-.739q0-.3735.007-.692c.004-.212.011-.405.019-.579s.015-.37.02-.592.007-.468.007-.739c-.001-.25-.003-.48-.007-.692s-.011-.405-.02-.58q-.0135-.258-.019-.591c-.005-.221-.007-.468-.007-.739l.026-.636.027-.635.028-.637.028-.635a.7715.7715 0 00-.069-.325.8926.8926 0 00-.211-.283 1.11 1.11 0 00-.28-.195.6609.6609 0 00-.28-.065c-.2431 0-.4671.003-.6721.007s-.389.013-.558.023-.351.017-.5479.022-.4061.007-.6291.007c-.243 0-.467-.003-.6729-.007s-.392-.012-.5611-.022-.35-.018-.547-.023c-.195-.004-.406-.007-.6309-.007h-2.4071a.7963.7963 0 00-.3149.065.8565.8565 0 00-.2711.195.8948.8948 0 00-.191.283.8407.8407 0 00-.0639.325c.0009.309.0049.569.0139.78a4.26 4.26 0 00.043.492v9.077q-.0014.408-.007.739-.0075.333-.0239.591c-.0091.175-.015.368-.02.58s-.0059.443-.0059.693c0 .27.0019.517.0059.738s.011.419.02.592q.0163.261.0239.579c.0041.212.007.443.007.692v7.807q0 .927.013 1.591c.009.443.023.8.043 1.069q.027.5805.0961 1.245t.1839 1.416c.018.213.048.439.089.68s.095.496.161.766.12.506.1611.708.0729.37.0919.505q.2235.867.405 1.504t.3221 1.042c.1489.365.3169.751.5039 1.155s.393.829.616 1.272a10.4718 10.4718 0 001.515 2.14 8.5178 8.5178 0 00.81.896q.4755.462 1.093.954a9.181 9.181 0 001.052.78 8.4594 8.4594 0 001.133.609 9.1908 9.1908 0 001.079.491q.603.231 1.332.433.5307.174 1.1747.318zm31.817-.404c-.168-.01-.35-.018-.545-.023s-.406-.007-.632-.007c-.243 0-.466 0-.67.007l-.114.004c-.161.006-.309.011-.445.019-.169.01-.352.016-.548.021s-.4069.008-.63.008a.7145.7145 0 01-.308-.066.7616.7616 0 01-.252-.196.8973.8973 0 01-.223-.605v-6.939a4.5766 4.5766 0 01-.043-.522c-.0089-.231-.013-.521-.013-.867s.0041-.636.013-.868a4.3066 4.3066 0 01.043-.519v-6.999l-.029-1.388-.028-1.387v-2.774c0-.347.004-.637.013-.868a4.5553 4.5553 0 01.043-.521v-2.776l-.029-.693-.028-.693V121.96l.028-1.389.029-1.387v-1.385l-.029-.693-.028-.694.028-1.388.029-1.388v-2.835a.6786.6786 0 01.056-.274.7951.7951 0 01.167-.245.7471.7471 0 01.252-.173.7981.7981 0 01.3081-.057h4.819q.3344 0 .63-.008c.196-.005.379-.012.548-.022s.348-.017.543-.022.4061-.008.629-.008a1.3213 1.3213 0 01.703.189 1.5822 1.5822 0 01.532.564l.643 1.214.644 1.214c.058.111.113.217.167.32l.1.192.091.175.289.555c.0411.08.084.164.129.254.049.096.101.197.157.304.106.207.226.436.357.687q.336.606.657 1.228.3225.6225.631 1.259l.7 1.214.7 1.214.646 1.214.645 1.214q.168.3465.315.644.147.2955.272.542t.301.572q.1755.327.399.73l.672 1.244.672 1.243.645 1.214.646 1.214c.111.212.221.412.328.6s.213.364.315.528.213.36.329.586.24.484.3721.774q.2235.405.3969.73t.303.572q.1245.246.2721.542t.3139.642h.114a.1825.1825 0 00.0831-.014l.01-.006.01-.012a.04.04 0 00.006-.026v-1.389q-.0255-.201-.0389-.606t-.013-1.013c0-.212.0019-.414.0069-.607s.011-.376.0191-.549.015-.371.02-.593.007-.468.006-.737v-4.05c-.021-.173-.035-.347-.0389-.521-.0081-.231-.013-.52-.013-.868v-.007c0-.266 0-.512.0069-.736.002-.066.003-.129.005-.191.004-.153.008-.294.0141-.425.0089-.185.0159-.388.02-.617s.006-.475.006-.745v-6.765c-.021-.172-.035-.346-.0389-.519-.0081-.232-.013-.521-.013-.868q0-.4035.0069-.745c.0041-.227.011-.432.0191-.616s.015-.387.02-.613.007-.475.006-.747a.7541.7541 0 01.057-.281.9629.9629 0 01.171-.267.7049.7049 0 01.251-.196.6889.6889 0 01.309-.064h7.226a.5947.5947 0 01.271.065.91.91 0 01.259.195.9787.9787 0 01.191.267.6819.6819 0 01.063.281v34.812a4.3062 4.3062 0 00-.043.52c-.009.231-.0139.521-.0139.867l.0289 1.388.028 1.388-.028 1.388-.0289 1.388a.8419.8419 0 01-.056.318.75.75 0 01-.1671.261.7927.7927 0 01-.2379.172.6428.6428 0 01-.265.058h-3.6411a3.2013 3.2013 0 01-.437.044q-.2938.015-.7409.015-.3346 0-.63-.008c-.196-.005-.379-.012-.5469-.021s-.3561-.018-.5611-.023c-.104-.002-.213-.004-.326-.005-.11-.001-.224-.002-.343-.002a1.3871 1.3871 0 01-.715-.173 1.1756 1.1756 0 01-.463-.52l-.671-1.243-.672-1.244-.646-1.214-.645-1.214q-.168-.29-.489-.912t-.798-1.575l-.672-1.244-.672-1.243-.674-1.214-.674-1.214-.643-1.214-.6439-1.214-.3371-.636-.337-.636a4.5634 4.5634 0 00-.236-.536c-.102-.202-.2279-.429-.377-.679l-.645-1.244-.645-1.243-.6729-1.214-.6711-1.214c-.112-.213-.221-.413-.3289-.6s-.2121-.363-.3151-.528-.2129-.359-.33-.586-.241-.485-.37-.774l-.0571-.028-.057-.029a.1093.1093 0 00-.044.006.1078.1078 0 00-.024.012l-.015.011-.011.017a.1089.1089 0 00-.01.025.0677.0677 0 00-.0039.019.0792.0792 0 00-.0011.027q0 .405.006.744c.005.227.011.431.02.614s.0161.389.02.616.0059.475.0059.744v13.589q0 .405-.0059.745c-.0051.226-.0111.432-.02.616s-.015.387-.02.614-.006.474-.006.744.002.518.006.745.011.432.02.616.0161.388.02.616c.0039.226.0059.475.0059.743v2.72a.7726.7726 0 01-.0619.318.746.746 0 01-.1871.26.95.95 0 01-.2609.173.6754.6754 0 01-.2731.057c-.243 0-.467.003-.672.007s-.392.013-.558.023c-.084.004-.17.008-.26.012q-.1381.0045-.2881.009-.294.0075-.629.008c-.243 0-.468-.003-.673-.008-.207-.0076-.3939-.0146-.563-.0236zm36.475-.03h3.5821a4.0722 4.0722 0 00.4809.045c.205.01.458.016.758.016h2.407a.621.621 0 00.274-.066.9987.9987 0 00.261-.196.9.9 0 00.186-.281.8237.8237 0 00.0631-.325v-6.939l-.026-.694-.0271-.695v-2.776c0-.347.0051-.636.013-.867.0051-.174.0181-.347.04-.52v-2.776c-.022-.172-.035-.346-.04-.519q-.0135-.348-.013-.868v-13.936l.0271-1.388.026-1.388v-5.55l-.026-1.388-.0271-1.387a.9016.9016 0 00-.058-.326.9324.9324 0 00-.171-.282.7811.7811 0 00-.237-.195.5623.5623 0 00-.2659-.065h-7.2261a.7633.7633 0 00-.315.065.9505.9505 0 00-.462.477.8267.8267 0 00-.063.326l.028 1.387.0291 1.388v2.776l-.0291 1.387-.028 1.387.028 1.388.0291 1.388v8.328l-.0291 1.387-.028 1.387c0 .271.002.521.006.753s.011.443.02.636q.0165.2895.024.65c.004.241.0071.506.0071.795v2.777l-.0291 1.386-.028 1.387c-.001.348.004.637.013.868a4.36 4.36 0 00.043.522v4.162l-.029 1.389-.028 1.387q0 .5205.013.867a4.5646 4.5646 0 00.043.52v1.387a.8807.8807 0 00.056.318.7876.7876 0 00.167.261.76.76 0 00.252.172.8158.8158 0 00.3083.058zm24.979.06a.7555.7555 0 01-.314-.065.88.88 0 01-.272-.196.905.905 0 01-.189-.282.7984.7984 0 01-.065-.324l.0281-1.388.0289-1.388-.0289-1.388-.0281-1.388.0281-.693.0289-.694v-2.775l-.0289-.695-.0281-.695.0281-1.387.0289-1.387-.0289-1.388-.0281-1.388.0281-1.388.0289-1.388v-2.776l-.0289-1.388-.0281-1.388.0281-1.387.0289-1.387v-2.776l.028-1.388.0291-1.388a.3661.3661 0 00-.0361-.159.405.405 0 00-.104-.132.4985.4985 0 00-.147-.088.4573.4573 0 00-.16-.029h-1.177a3.1868 3.1868 0 01-.4359.045c-.1971.009-.444.013-.742.013l-1.177-.028-1.1771-.028H264.82a4.1961 4.1961 0 01-.462.044q-.2955.0135-.715.014a.7279.7279 0 01-.3079-.065.7508.7508 0 01-.2531-.195.9352.9352 0 01-.167-.282.924.924 0 01-.056-.326v-.019c0-.223 0-.434-.0069-.63l-.004-.111c-.005-.161-.0111-.312-.02-.453-.0109-.172-.0149-.366-.0189-.578s-.0061-.443-.0061-.693l.0281-1.157.0279-1.157c0-.25-.0019-.477-.0069-.679s-.013-.381-.0241-.536c-.008-.153-.0149-.327-.0189-.519s-.0071-.405-.0061-.637a.8372.8372 0 01.0621-.325.8929.8929 0 01.1909-.283.8715.8715 0 01.272-.195.7932.7932 0 01.315-.065l1.289.03 1.288.029h2.578l1.2871-.029 1.2869-.03h20.5621a.7968.7968 0 01.315.065.8455.8455 0 01.2719.195.8915.8915 0 01.191.283.8418.8418 0 01.0631.325v4.798q0 .3465-.0071.636l-.003.115c0 .019-.001.037-.002.055l-.003.086c-.001.051-.0029.1-.006.148-.0009.04-.003.079-.0049.116-.0111.155-.0191.333-.0241.536s-.0069.428-.0069.677a.8882.8882 0 01-.056.319.7733.7733 0 01-.167.26.7571.7571 0 01-.2521.176.8189.8189 0 01-.3089.058l-1.177.028-1.177.028-.5611-.028-.56-.028h-5.882a.3751.3751 0 00-.1559.02.3931.3931 0 00-.1361.081.4.4 0 00-.078.141.4227.4227 0 00-.02.162l.029 1.388.0281 1.388-.0281 1.388-.029 1.388.029 1.387.0281 1.387-.0281.694-.029.695v6.939l.029 1.387.0281 1.389-.0281.693-.029.694v4.162l-.028 1.389-.029 1.387.029.694.028.693.029.695.0281.694v2.776a.786.786 0 01-.064.318.7973.7973 0 01-.19.261.8548.8548 0 01-.272.172.845.845 0 01-.314.058c-.3 0-.552.005-.7581.014a4.0094 4.0094 0 00-.477.044h-5.996zm25.044-.06h3.585c.079.012.159.022.239.03s.159.013.239.015c.2061.01.458.016.7581.016h2.4069a.6221.6221 0 00.2741-.066.9772.9772 0 00.26-.196.8842.8842 0 00.187-.281.84.84 0 00.063-.325v-6.939l-.026-.694-.0269-.695v-2.776q0-.52.0139-.867a5.0321 5.0321 0 01.039-.52v-2.776a5.0129 5.0129 0 01-.039-.519q-.0135-.348-.0139-.868v-13.936l.0269-1.388.026-1.388v-5.55l-.026-1.388-.0269-1.387a.906.906 0 00-.0581-.326.95.95 0 00-.17-.282.7908.7908 0 00-.237-.195.5658.5658 0 00-.267-.065h-7.2259a.7555.7555 0 00-.314.065.8427.8427 0 00-.272.195.8814.8814 0 00-.1911.282.8447.8447 0 00-.0629.326l.0289 1.387.028 1.388v2.776l-.028 1.387-.0289 1.387.0289 1.388.028 1.388v8.328l-.028 1.387-.0289 1.387c0 .189.0009.367.0029.537.0011.042.0011.084.002.125.001.03.001.061.002.091.004.231.011.443.0191.636q.0163.2895.0239.65t.007.795v2.777l-.028 1.386-.0289 1.387c0 .348.004.637.0139.868a4.53 4.53 0 00.0421.522v4.162l-.0281 1.389-.0279 1.387q0 .5205.013.867a4.4971 4.4971 0 00.043.52v1.387a.8765.8765 0 00.056.318.7831.7831 0 00.1669.26.7556.7556 0 00.253.173.8089.8089 0 00.3062.058zm21.123.03c-.1689-.01-.35-.018-.546-.023s-.406-.007-.6319-.007c-.0921 0-.1821 0-.27.001-.141.001-.274.003-.4.006-.2049.005-.392.012-.56.023-.168.008-.35.016-.547.021s-.406.008-.63.008a.72.72 0 01-.309-.067.7281.7281 0 01-.251-.197.9008.9008 0 01-.167-.281.9231.9231 0 01-.056-.324v-6.94a4.3394 4.3394 0 01-.0429-.521q-.0136-.348-.0141-.868c.001-.347.005-.636.0141-.867a4.29 4.29 0 01.0429-.519v-6.999l-.028-1.388-.029-1.388v-2.773q0-.522.0141-.868a4.5534 4.5534 0 01.0419-.521V126.12l-.0279-.693-.0291-.694v-2.776l.0291-1.388.0279-1.388v-1.382l-.0279-.694-.0291-.693.0291-1.388.0279-1.388v-2.835a.6976.6976 0 01.056-.274.8177.8177 0 01.168-.245.7293.7293 0 01.2521-.173.81.81 0 01.3079-.058h5.013c.152-.001.297-.004.435-.007.1971-.005.38-.012.548-.022.1661-.01.348-.018.544-.022s.4061-.008.629-.008a1.3257 1.3257 0 01.702.188 1.585 1.585 0 01.5321.565l.6439 1.214.643 1.214.141.27c.0771.148.15.287.217.417l.29.555q.1245.2475.285.558.162.3105.358.687.336.606.6569 1.228t.63 1.258l.7 1.215.7009 1.214.645 1.214.646 1.214c.044.092.088.181.13.268.064.131.125.256.1841.376q.1468.2955.2729.542c.083.164.1831.352.3.572s.2509.46.4.73l.671 1.243.672 1.244.646 1.214.6451 1.214q.168.318.328.6.162.282.3159.528c.1021.164.212.359.328.586s.241.485.372.774q.2235.405.3981.73t.302.572q.1243.246.2719.542t.315.642h.114a.1779.1779 0 00.082-.014l.011-.007.01-.011a.0464.0464 0 00.0061-.026v-1.389q-.0272-.201-.039-.606-.0135-.405-.013-1.013 0-.318.0059-.608c.004-.193.0111-.375.02-.548.005-.105.01-.219.013-.342.0029-.08.005-.164.0069-.251.0011-.079.003-.16.004-.245.001-.154.0021-.318.0021-.493v-4.049a5.0514 5.0514 0 01-.039-.521q-.0135-.3465-.013-.868 0-.4035.0059-.743c.004-.226.0111-.432.02-.617s.0149-.387.02-.616.0061-.475.0061-.745v-6.765a5.0114 5.0114 0 01-.039-.52q-.0135-.3465-.013-.867c0-.269.0019-.518.0059-.745s.0111-.432.02-.616.0149-.387.02-.614.0061-.475.0061-.746a.7319.7319 0 01.056-.281.9756.9756 0 01.1709-.268.7532.7532 0 01.25-.195.7247.7247 0 01.31-.064h7.2261a.6147.6147 0 01.272.064.9706.9706 0 01.2559.195.999.999 0 01.191.268.6654.6654 0 01.062.281v34.812a4.5181 4.5181 0 00-.042.52c-.01.231-.014.52-.014.867l.0291 1.388.0279 1.388-.0279 1.388-.0291 1.388a.8786.8786 0 01-.056.318.7876.7876 0 01-.167.261.81.81 0 01-.2389.172.636.636 0 01-.2651.058H342.86a3.3574 3.3574 0 01-.4361.044q-.2954.015-.742.015-.3345 0-.629-.008c-.1959-.006-.379-.013-.548-.021s-.3549-.018-.56-.023-.4289-.007-.669-.007a1.3928 1.3928 0 01-.716-.173 1.178 1.178 0 01-.4619-.52l-.672-1.244-.6721-1.243-.645-1.214-.646-1.214q-.168-.29-.489-.912t-.797-1.575l-.672-1.244-.672-1.243-.674-1.214-.6739-1.214-.6441-1.214-.643-1.214-.3369-.636-.337-.636a4.5075 4.5075 0 00-.236-.536c-.1021-.202-.2281-.429-.3771-.679l-.6449-1.244-.646-1.243-.6721-1.214-.67-1.21c-.1109-.213-.22-.412-.3269-.6s-.2131-.363-.315-.528-.2141-.359-.331-.586-.241-.484-.37-.774l-.0569-.028-.0571-.028a.0769.0769 0 00-.026.001l-.018.004a.1021.1021 0 00-.038.024.095.095 0 00-.0119.016.1138.1138 0 00-.01.025l-.0029.009a.1566.1566 0 00-.0021.038q0 .4035.0071.744c.004.226.0109.43.0189.613s.0151.39.02.616.007.475.006.744v13.589q0 .405-.006.745t-.02.616c-.008.183-.0149.388-.0189.614s-.0071.474-.0071.744c0 .152.001.297.0021.435.0009.108.0029.211.005.31.004.227.0109.432.0189.616.003.061.0061.125.008.191.005.132.009.274.012.425q.0061.3405.006.743v2.72a.7647.7647 0 01-.062.318.7367.7367 0 01-.187.26.9578.9578 0 01-.26.173.684.684 0 01-.2739.058q-.3647 0-.672.007c-.2061.005-.392.012-.5581.022-.1709.009-.3509.017-.548.021s-.406.008-.629.008c-.2429 0-.4669-.002-.673-.008-.054-.003-.106-.006-.1569-.008-.0831-.005-.1621-.009-.2391-.012-.0575-.0026-.1125-.006-.1651-.0076zm36.471-.03h3.585a4.0293 4.0293 0 00.4781.045c.2049.01.4579.016.758.016h2.4069a.6221.6221 0 00.2741-.066.9772.9772 0 00.26-.196.8858.8858 0 00.187-.281.8587.8587 0 00.063-.325v-6.939l-.026-.694-.0269-.695v-2.776q0-.52.013-.867a4.7952 4.7952 0 01.04-.52v-2.776a4.7769 4.7769 0 01-.04-.519q-.0135-.348-.013-.868v-13.936l.0269-1.388.026-1.388v-5.55l-.026-1.388-.0269-1.387a.906.906 0 00-.0581-.326.9344.9344 0 00-.171-.282.789.789 0 00-.2359-.195.5669.5669 0 00-.267-.065h-7.2261a.7547.7547 0 00-.3139.065.8441.8441 0 00-.2721.195.8827.8827 0 00-.191.282.8448.8448 0 00-.063.326l.028 1.387.0291 1.388v2.776l-.0295 1.387-.028 1.387.028 1.388.0291 1.388v8.328l-.0291 1.387-.028 1.387c0 .271.002.521.006.753s.0121.443.02.636q.0163.2895.0239.65c.004.241.0071.506.0071.795v2.777L356 140.06l-.028 1.387c0 .348.004.637.0141.868a4.5526 4.5526 0 00.0419.522v4.162l-.028 1.389-.028 1.387c-.001.347.004.636.0131.867a4.3061 4.3061 0 00.0429.52v1.387a.8829.8829 0 00.056.318.7849.7849 0 00.167.26.7611.7611 0 00.2521.173.8135.8135 0 00.3075.0584z" data-name="Layer 1"/></g></svg>