<svg viewBox="0 0 24 24" fill="currentColor"><path d="M23 11h-1.05c-.47-4.725-4.226-8.48-8.95-8.949V1c0-.553-.448-1-1-1s-1 .447-1 1v1.051C6.276 2.52 2.52 6.275 2.05 11H1c-.552 0-1 .447-1 1s.448 1 1 1h1.05c.469 4.725 4.226 8.48 8.95 8.949V23c0 .553.448 1 1 1s1-.447 1-1v-1.051c4.724-.469 8.48-4.225 8.95-8.949H23c.552 0 1-.447 1-1s-.448-1-1-1zm-4 2h.931c-.452 3.617-3.314 6.479-6.931 6.931V19c0-.553-.448-1-1-1s-1 .447-1 1v.931C7.383 19.479 4.521 16.617 4.069 13H5c.552 0 1-.447 1-1s-.448-1-1-1h-.931C4.521 7.383 7.383 4.521 11 4.069V5c0 .553.448 1 1 1s1-.447 1-1v-.931c3.617.452 6.479 3.313 6.931 6.931H19c-.552 0-1 .447-1 1s.448 1 1 1zm-7-4c-1.657 0-3 1.343-3 3s1.343 3 3 3 3-1.343 3-3-1.343-3-3-3zm0 4c-.552 0-1-.447-1-1s.448-1 1-1 1 .447 1 1-.448 1-1 1z"/></svg>