<svg viewBox="0 0 24 24" fill="currentColor"><path d="M23.221 10C23.7 9.469 24 8.771 24 8c0-1.657-1.343-3-3-3H1c-.552 0-1 .447-1 1s.448 1 1 1h3v2H1c-.552 0-1 .447-1 1s.448 1 1 1h3v2H1c-.552 0-1 .447-1 1s.448 1 1 1h3v2H1c-.552 0-1 .447-1 1s.448 1 1 1h20c1.657 0 3-1.343 3-3 0-.771-.3-1.469-.779-2 .479-.531.779-1.229.779-2s-.3-1.469-.779-2zM16 17H6v-2h10v2zm0-4H6v-2h10v2zm0-4H6V7h10v2zm5 8h-3v-2h3c.552 0 1 .447 1 1s-.448 1-1 1zm0-4h-3v-2h3c.552 0 1 .447 1 1s-.448 1-1 1zm0-4h-3V7h3c.552 0 1 .447 1 1s-.448 1-1 1z"/></svg>