<svg viewBox="0 0 24 24" fill="currentColor"><path d="M12 11h3c.553 0 1-.447 1-1s-.447-1-1-1h-3c-.553 0-1 .447-1 1s.447 1 1 1zm0-4h7c.553 0 1-.447 1-1s-.447-1-1-1h-7c-.553 0-1 .447-1 1s.447 1 1 1zm11-6H1c-.553 0-1 .447-1 1v13c0 .553.447 1 1 1h3v6c0 .553.447 1 1 1s1-.447 1-1V9c0-.553.447-1 1-1s1 .447 1 1v11c0 .553.447 1 1 1s1-.447 1-1v-4h2v6c0 .553.447 1 1 1s1-.447 1-1v-2c0-.553.447-1 1-1s1 .447 1 1v2c0 .553.447 1 1 1s1-.447 1-1v-2c0-.553.447-1 1-1s1 .447 1 1v2c0 .553.447 1 1 1s1-.447 1-1v-2c0-1.657-1.343-3-3-3-.771 0-1.469.3-2 .778-.531-.478-1.229-.778-2-.778-.353 0-.686.072-1 .184V16h9c.553 0 1-.447 1-1V2c0-.553-.447-1-1-1zm-1 13H10V9c0-1.657-1.343-3-3-3S4 7.343 4 9v5H2V3h20v11z"/></svg>