<svg viewBox="0 0 24 24" fill="currentColor"><path d="M12 0C5.373 0 0 5.373 0 12s5.373 12 12 12 12-5.373 12-12S18.627 0 12 0zm0 22C6.478 22 2 17.522 2 12S6.478 2 12 2s10 4.478 10 10-4.478 10-10 10zm4.713-14.743c-.373-.373-.978-.373-1.351 0l-3.365 3.365-3.34-3.357c-.385-.385-1.008-.385-1.393 0s-.385 1.008 0 1.393l3.357 3.34-3.365 3.365c-.373.373-.373.978 0 1.351s.978.373 1.351 0l3.369-3.368 3.386 3.368c.373.373.978.373 1.351 0s.373-.978 0-1.351l-3.368-3.386 3.368-3.369c.373-.374.373-.978 0-1.351z"/></svg>