<svg viewBox="0 0 24 24" fill="currentColor"><path d="M24 8c0-4.418-3.582-8-8-8-1.459 0-2.822.396-4 1.079C10.822.396 9.459 0 8 0 3.582 0 0 3.582 0 8c0 2.961 1.613 5.54 4.004 6.923-.001.026-.004.051-.004.077 0 4.418 3.582 8 8 8s8-3.582 8-8c0-.025-.005-.05-.005-.076C22.387 13.541 24 10.962 24 8zM12.003 3.561c1.027.938 1.73 2.228 1.916 3.681C13.303 7.09 12.663 7 12 7c-.666 0-1.303.106-1.921.26.183-1.466.88-2.759 1.924-3.699zm-1.845 5.748c.581-.19 1.196-.304 1.842-.304s1.255.128 1.838.317c-.277 1.227-.94 2.298-1.839 3.113-.906-.817-1.566-1.894-1.841-3.126zm.083 4.236c-.694.281-1.445.45-2.241.45-.646 0-1.255-.128-1.838-.317.311-1.375 1.097-2.566 2.171-3.404.368 1.244 1.031 2.36 1.908 3.271zm5.423-3.259c1.075.837 1.863 2.022 2.178 3.391-.583.189-1.195.318-1.842.318-.795 0-1.55-.162-2.245-.443.876-.909 1.539-2.024 1.909-3.266zM2.004 8c0-3.312 2.685-5.995 5.996-5.995.797 0 1.552.163 2.245.446C8.857 3.89 8 5.844 8 8c0 .03.004.059.004.089-1.745 1.013-3.081 2.652-3.668 4.625C2.927 11.617 2.004 9.924 2.004 8zM12 20.995c-3.051 0-5.542-2.288-5.919-5.236C6.697 15.91 7.337 16 8 16c1.458 0 2.813-.404 3.99-1.085C13.169 15.601 14.537 16 16 16c.663 0 1.303-.09 1.919-.241-.377 2.948-2.868 5.236-5.919 5.236zm7.66-8.277c-.589-1.974-1.915-3.629-3.664-4.642 0-.025.004-.051.004-.076 0-2.158-.858-4.112-2.247-5.551.695-.282 1.451-.444 2.247-.444 3.311 0 5.995 2.684 5.995 5.995 0 1.926-.924 3.621-2.335 4.718z"/></svg>