<svg viewBox="0 0 24 24" fill="currentColor"><path d="M23.707 8.293l-3-3C20.526 5.112 20.276 5 20 5h-6c-.553 0-1 .447-1 1v6h-2V9c0-.276-.112-.526-.293-.707l-3-3c-.091-.091-.198-.164-.317-.215C7.27 5.028 7.138 5 7 5H1c-.553 0-1 .447-1 1v12c0 .553.447 1 1 1h9c.553 0 1-.447 1-1v-4h2v4c0 .553.447 1 1 1h9c.553 0 1-.447 1-1V9c0-.276-.112-.526-.293-.707zM9 12H5c-.553 0-1 .447-1 1s.447 1 1 1h4v3H2V7h4v2c0 .553.447 1 1 1h2v2zm13 5h-7v-3h1.586l-.293.293c-.181.181-.293.431-.293.707 0 .553.447 1 1 1 .276 0 .526-.112.707-.293l2-2c.181-.181.293-.431.293-.707s-.112-.526-.293-.707l-2-2C17.526 10.112 17.276 10 17 10c-.553 0-1 .447-1 1 0 .276.112.526.293.707l.293.293H15V7h4v2c0 .553.447 1 1 1h2v7z"/></svg>