<svg viewBox="0 0 24 24" fill="currentColor"><path d="M12 4c.553 0 1-.447 1-1V1c0-.553-.447-1-1-1s-1 .447-1 1v2c0 .553.447 1 1 1zm7 12c-1.596 0-2.962.941-3.604 2.292L13.201 15l5.616-8.423-.016-.011C18.918 6.403 19 6.215 19 6c0-.553-.447-1-1-1-.338 0-.621.178-.802.434l-.016-.011L12 13.198 6.817 5.423l-.015.011C6.621 5.178 6.337 5 6 5c-.553 0-1 .447-1 1 0 .215.082.403.198.566l-.015.011L10.799 15l-2.195 3.292C7.962 16.941 6.596 16 5 16c-2.209 0-4 1.791-4 4s1.791 4 4 4c1.679 0 3.225-.958 3.817-2.424L12 16.802l3.183 4.774C15.775 23.042 17.321 24 19 24c2.209 0 4-1.791 4-4s-1.791-4-4-4zM5 22c-1.104 0-2-.896-2-2s.896-2 2-2 2 .896 2 2-.896 2-2 2zm14 0c-1.104 0-2-.896-2-2s.896-2 2-2 2 .896 2 2-.896 2-2 2zm-7-12c.553 0 1-.447 1-1V7c0-.553-.447-1-1-1s-1 .447-1 1v2c0 .553.447 1 1 1z"/></svg>