<svg viewBox="0 0 24 24" fill="currentColor"><path d="M23.707 8.293l-5-5C18.526 3.112 18.276 3 18 3H1c-.553 0-1 .447-1 1v16c0 .553.447 1 1 1h22c.553 0 1-.447 1-1V9c0-.276-.112-.526-.293-.707zM19 6.414L20.586 8H19V6.414zM22 19H2V5h15v4c0 .553.447 1 1 1h4v9zm-6.063-3.352l-3-8-.007.003C12.787 7.272 12.429 7 12 7s-.787.272-.93.651l-.007-.003-3 8 .007.003c-.041.11-.07.225-.07.349 0 .553.447 1 1 1 .429 0 .787-.272.93-.651l.007.003.506-1.352h3.113l.507 1.352.007-.003c.143.379.501.651.93.651.553 0 1-.447 1-1 0-.124-.029-.239-.07-.349l.007-.003zM11.193 13L12 10.848 12.807 13h-1.614z"/></svg>