<svg viewBox="0 0 24 24" fill="currentColor"><path d="M23 10c.553 0 1-.447 1-1s-.447-1-1-1h-1V4h1c.553 0 1-.447 1-1s-.447-1-1-1h-1V1c0-.553-.447-1-1-1s-1 .447-1 1v1h-4V1c0-.553-.447-1-1-1s-1 .447-1 1v1h-4V1c0-.553-.447-1-1-1S8 .447 8 1v1H4V1c0-.553-.447-1-1-1S2 .447 2 1v1H1c-.553 0-1 .447-1 1s.447 1 1 1h1v4H1c-.553 0-1 .447-1 1s.447 1 1 1h1v4H1c-.553 0-1 .447-1 1s.447 1 1 1h1v4H1c-.553 0-1 .447-1 1s.447 1 1 1h1v1c0 .553.447 1 1 1s1-.447 1-1v-1h4v1c0 .553.447 1 1 1s1-.447 1-1v-1h4v1c0 .553.447 1 1 1s1-.447 1-1v-1h4v1c0 .553.447 1 1 1s1-.447 1-1v-1h1c.553 0 1-.447 1-1s-.447-1-1-1h-1v-4h1c.553 0 1-.447 1-1s-.447-1-1-1h-1v-4h1zM8 20H4v-4h4v4zm0-6H4v-4h4v4zm0-6H4V4h4v4zm6 12h-4v-4h4v4zm0-6h-4v-4h4v4zm0-6h-4V4h4v4zm6 12h-4v-4h4v4zm0-6h-4v-4h4v4zm0-6h-4V4h4v4z"/></svg>