<svg viewBox="0 0 24 24" fill="currentColor"><path d="M21 4h-1V3c.552 0 1-.447 1-1s-.448-1-1-1H4c-.552 0-1 .447-1 1s.448 1 1 1v1H3C1.343 4 0 5.343 0 7c0 3.55 1.55 6.729 4 8.927V22c0 .553.448 1 1 1h14c.552 0 1-.447 1-1v-6.073C22.45 13.73 24 10.55 24 7c0-1.657-1.343-3-3-3zM4 12.981C2.75 11.313 2 9.246 2 7c0-.553.448-1 1-1h1v6.981zM18 21H6v-3.618C7.767 18.404 9.812 19 12 19s4.233-.596 6-1.618V21zm0-6.014C16.328 16.245 14.254 17 12 17s-4.328-.755-6-2.014V3h4v3c0 .553.448 1 1 1s1-.447 1-1V3h2v7c0 .553.448 1 1 1s1-.447 1-1V3h2v11.986zm2-2.005V6h1c.552 0 1 .447 1 1 0 2.246-.75 4.313-2 5.981z"/></svg>