<svg viewBox="0 0 24 24" fill="currentColor"><path d="M23 16h-4.006l3.515-2.015c.478-.273.641-.88.365-1.354L19.878 7.48c-.276-.475-.887-.637-1.364-.363l-3.822 2.19 2.181-3.811c.272-.478.11-1.089-.362-1.364l-5.143-2.996c-.474-.275-1.079-.112-1.353.365L8 5.024V1c0-.553-.447-1-1-1H1C.447 0 0 .447 0 1v22c0 .553.447 1 1 1h22c.553 0 1-.447 1-1v-6c0-.553-.447-1-1-1zM6 22H2V2h4v20zM18.647 9.33l1.997 3.435-11.8 6.763 3.897-6.813 5.906-3.385zM8 9.019l3.234-5.652 3.428 1.997L8 17.009v-7.99zM22 22H8.525l6.979-4H22v4z"/></svg>