<svg viewBox="0 0 24 24" fill="currentColor"><path d="M.472 8.846l-.002.002 8 5 .002-.002c.153.096.334.154.528.154.118 0 .229-.024.335-.062l.001.003 14-5-.001-.003C23.37 8.895 24 8.707 24 8c0-.311-.182-.646-.479-.833l.01-.015-8-5-.01.015C15.366 2.07 15.195 2 15 2c-.118 0-.228.029-.333.067l-.003-.009-14 5 .003.009C.28 7.205 0 7.565 0 8c0 .357.189.669.472.846zm14.409-4.742l5.837 3.648-11.599 4.144-5.837-3.649 11.599-4.143zM23 15c-.118 0-.229.024-.335.062l-.001-.003-13.545 4.837-7.589-4.744-.002.002C1.375 15.058 1.194 15 1 15c-.553 0-1 .447-1 1 0 .357.189.669.472.846l-.002.002 8 5 .002-.002c.153.096.334.154.528.154.118 0 .229-.024.335-.062l.001.003 14-5-.001-.003c.387-.138.665-.503.665-.938 0-.553-.447-1-1-1zm0-4c-.118 0-.229.024-.335.062l-.001-.003-13.545 4.837-7.589-4.744-.002.002C1.375 11.058 1.194 11 1 11c-.553 0-1 .447-1 1 0 .357.189.669.472.846l-.002.002 8 5 .002-.002c.153.096.334.154.528.154.118 0 .229-.024.335-.062l.001.003 14-5-.001-.003c.387-.138.665-.503.665-.938 0-.553-.447-1-1-1z"/></svg>