<svg viewBox="0 0 24 24" fill="currentColor"><path d="M15 10c-1.657 0-3 1.343-3 3s1.343 3 3 3 3-1.343 3-3-1.343-3-3-3zm0 4c-.552 0-1-.447-1-1s.448-1 1-1 1 .447 1 1-.448 1-1 1zM3 14c1.657 0 3-1.343 3-3S4.657 8 3 8s-3 1.343-3 3 1.343 3 3 3zm0-4c.552 0 1 .447 1 1s-.448 1-1 1-1-.447-1-1 .448-1 1-1zm20 4c-.552 0-1-.447-1-1 0-3.866-3.134-7-7-7s-7 3.134-7 7c0 1.657-1.343 3-3 3H1c-.552 0-1 .447-1 1s.448 1 1 1h4c2.761 0 5-2.238 5-5s2.239-5 5-5 5 2.238 5 5c0 1.657 1.343 3 3 3 .552 0 1-.447 1-1s-.448-1-1-1z"/></svg>