<svg viewBox="0 0 24 24" fill="currentColor"><path d="M22.879 20.536l-3.753-6.054c-.267-.476-.856-.639-1.318-.363l-.67.398-1.873-2.498 3.517-4.395-.012-.01c.136-.17.23-.378.23-.614 0-.205-.077-.386-.184-.545l.016-.01-1.033-1.551c.245-.301.294-.726.084-1.078L15.895.473C15.704.154 15.449 0 15 0c-.158 0-.317.038-.464.121L2.482 6.874C2.071 7.104 2 7.578 2 8c0 .069.082.13.119.192l1.988 3.342c.184.31.549.466.893.466.169 0 .309-.024.465-.112l10.624-5.952.674 1.011-3.544 4.429.012.01c-.137.17-.231.378-.231.614 0 .226.088.423.214.59l-.014.01 2.209 2.946-.943.562c-.462.274-.62.882-.354 1.357l3.754 6.054c.216.385.734.481 1.134.481.096 0 .097-.065.184-.117l3.343-1.988c.299-.179.473-.562.473-.895 0-.179-.027-.298-.121-.464zM5.332 9.734l-.994-1.671L14.67 2.274l.994 1.671L5.332 9.734zm13.723 11.93l-2.789-4.332 1.671-.994 2.789 4.332-1.671.994z"/></svg>