<svg viewBox="0 0 24 24" fill="currentColor"><path d="M12 0C5.373 0 0 5.373 0 12c0 .276.112.526.293.707 0 0 1.729 3.729 4.469 6.469 2.761 2.761 6.531 4.531 6.531 4.531.181.181.431.293.707.293 6.627 0 12-5.373 12-12S18.627 0 12 0zM6.207 17.793c-1.505-1.506-2.708-3.307-3.491-4.633 4.145.719 7.405 3.979 8.124 8.124-1.326-.783-3.127-1.986-4.633-3.491zm6.736 4.159c-.255-2.952-1.584-5.593-3.587-7.542l.183-.41h4.999l.975 2.145c-.301.172-.513.483-.513.855 0 .553.447 1 1 1h2c.553 0 1-.447 1-1s-.447-1-1-1h-.356L12.91 5.586l-.004.002C12.749 5.243 12.404 5 12 5c-.407 0-.755.246-.911.595l-.003-.001-.007.016-.001.001-3.327 7.487c-1.652-1.128-3.598-1.859-5.703-2.042C2.523 5.977 6.796 2 12 2c5.522 0 10 4.478 10 10 0 5.204-3.977 9.477-9.057 9.952zM10.428 12l1.582-3.561L13.629 12h-3.201z"/></svg>