<svg viewBox="0 0 24 24" fill="currentColor"><path d="M21.508 7.022l-2.563-1.477.493-.853c.272-.471.11-1.073-.361-1.345L13.952.392c-.471-.272-1.075-.11-1.347.36l-.493.853L9.549.129C9.375.028 9.186 0 8.999 0c-.32 0-.625.192-.797.489C8.11.647 6.229 3.9 6.229 3.9c-.272.472-.11 1.074.361 1.347l3.417 1.969-7.878 13.351c-.08.139-.12.288-.128.438-.02.36.156.716.489.908l3.417 1.97c.109.06.445.093.521.108.269-.025.684-.249.825-.468l7.877-13.352 3.417 1.969c.472.272 1.076.111 1.348-.36 0 0 1.881-3.253 1.973-3.411.067-.118.107-.239.123-.366.049-.382-.128-.776-.483-.981zM6.04 21.685l-1.708-.986L11.716 8.2l1.708.986L6.04 21.685zM18.682 9.942l-10.25-5.91.986-1.706 2.563 1.477c.473.272 1.076.111 1.348-.36l.491-.853 3.417 1.97-.493.853c-.272.471-.11 1.073.361 1.345l2.563 1.478-.986 1.706zM6.43 23.991c-.016.001-.036.009-.052.009.075 0 .08-.004.052-.009z"/></svg>