<svg viewBox="0 0 24 24" fill="currentColor"><path d="M14 14c-.553 0-1 .447-1 1s.447 1 1 1 1-.447 1-1-.447-1-1-1zm-6 0c-.553 0-1 .447-1 1s.447 1 1 1 1-.447 1-1-.447-1-1-1zm15-7c-.205 0-.386.077-.545.184l-.01-.016L18 10.132V8c0-.553-.447-1-1-1-.205 0-.386.077-.545.184l-.01-.016L12 10.132V8c0-.553-.447-1-1-1-.205 0-.386.077-.545.184l-.01-.016L6 10.132V1c0-.553-.447-1-1-1H1C.447 0 0 .447 0 1v22c0 .553.447 1 1 1h22c.552 0 1-.447 1-1V8c0-.553-.448-1-1-1zm-1 15H2V2h2v10c0 .553.447 1 1 1 .205 0 .386-.077.545-.184l.01.016L10 9.868V12c0 .553.447 1 1 1 .205 0 .386-.077.545-.184l.01.016L16 9.868V12c0 .553.447 1 1 1 .205 0 .386-.077.545-.184l.01.016L22 9.868V22zm-2-6c.553 0 1-.447 1-1s-.447-1-1-1-1 .447-1 1 .447 1 1 1z"/></svg>