<svg fill="currentColor" viewBox="0 0 84 75"><g fill="#92BDA5" clip-path="url(#clip0)"><path d="M35.2164 55.9402v.4033c0 .1345-.1345.269-.1345.269 0 .1344-.1344.1344-.1344.1344l-.1345.1345c.1345-.1345.2689-.1345.4034-.4034 0-.2689-.1345-.5378 0-.5378-.1345-.2689-.2689-.2689-.2689-.4034h-.1345c-.1344-.1344-.1344-.1344-.2689-.1344v-.1345h-.4033.1344-.4033c0 .1345.2689.1345.4033.1345v.1344s.1345 0 .1345.1345c.1344.1344.4033.2689.1344.2689l-.1344.4033h-.1345.1345s.1344.1345.1344.269c0 .1344 0 .2689-.1344.4033 0 .1345 0 .1345.1344.1345-.1344 0-.1344.1344-.2689.1344 0 0-.2689.1345-.5378.1345h-.2689s-.1345 0-.1345-.1345l-.2689-.2689s-.1344-.1344-.1344 0l-.1345-.1344c-.1344-.1345-.2689-.4034-.2689-.5379-.2689-.4033.1345-1.21.5378-1.4789h.1345s.1344-.0001.1344-.1345h.8068c0 .4034.1344.4034.2689.4034 0 0 .1344 0 .1344.1344 0 0 .1345 0 .1345.1345 0 0 .1344.1344.1344.2689.2689 0 .2689.1344.4034.2689zm-4.1681-.5378h-2.4201c-.1345 0-.269 0-1.0757.1344h-.5378c-.5378 0-.9412.1345-1.0756.1345h-.1345c-.2689-.1345-.1344-.1345-.4033-.1345h-1.6135v-.1344c-.5378 0 1.7479-.2689.4034-.1345h-.1345c-1.479.1345-2.0168.4034-2.2857.5378h-.4033c-.269 0-.6723 0-.9412.1345-.4034.2689-.8067.4033-1.2101 1.2101-.5378.8067-.8067 1.6134-.8067 2.1512v.1345c.1344.5378.2689.5378.4033.9412.1345.4033.4034.2689.5378.4033 0 .1345.4034.2689.6723.2689.1345 0 .2689 0 .4034-.1344.1344-.1345.1344-.2689.1344-.5378 0-.269-.1344-.4034-.4033-.5379-.4034-.1344-.8068-.2689-.9412-.5378 0-.1344-.1345-.2689-.1345-.4033 0-.1345 0-.2689.1345-.2689.1344-.1345.1344-.9412.4034-.9412.2689 0 .5378-.2689.6722-.4034.1345-.1344.4034-.1344 1.0757-.4033.6722-.1345 2.0168-.4034 2.4201-.4034.4034 0 1.0756.1344 2.0168 0 .4034 0-3.2269-.1345-2.958-.1345h5.7816c.6722.1345 1.4789.1345 2.1512.1345.2689 0 .5378 0 .6723-.1345v-.4033c0-.2689-.2689-.5378-.4034-.5378zm4.0336-3.0925c-.4033-.1344-.8067-.1344-1.0756 0 0-.1344-.4034 0-.5378-.1344-.2689.1344-.5378-.1345-.8067 0 0 0 0-.1345.1344-.1345-.1344 0-.5378.1345-.5378 0-.5378 0-1.2101 0-1.479.1345-.1344.1344-.2689 0-.4033.1344-.269.1345-.6723.1345-.8068.1345v-.1345h-.4033.1344c0 .2689-.2689-.1344-.5378 0-.2689 0-.5378.4034-.8067.2689-.1345.1345.1344-.1344-.1345-.1344 0-.1345.1345-.1345 0-.1345-.1344 0-.2689-.1344-.5378 0v-.1344c-.2689.1344-.5378-.1345-.8067 0-.1345.2689 0 0-.4034.1344l-.1344-.1344c-.1345 0-.1345.1344-.2689.1344 0-.1344-.1345 0-.1345-.1344-.4033-.1345-.6723.1344-1.2101 0-.1344.1344-.2689 0-.4033.1344 0 0-.4034 0-.2689-.1344v-.1345c-.2689-.1344-.5378.1345-.6723 0 .1345 0 .1344 0 .1344.1345h-.2689v-.1345h-.4033v.1345c-.1345 0-.2689-.1345-.4034-.1345-.1344.1345.1345.1345 0 .1345-.2689 0 3.2269-.1345 2.958-.1345 0 .1345 0 .1345-.1345.1345v-.1345c-.2689.1345-.1344-.1344-.4033-.1344v.1344c-.2689.1345-.1345-.1344-.5378 0 .1344 0 0 .1345-.1345.1345v-.1345h-.1344s0-.1344-.1345-.1344l.1345-.1345-.2689.1345c-.1345-.1345-.5379 0-.5379-.1345 0 0-.4033 0-.5378.1345.1345-.1345-.1344-.1345-.1344-.1345-.1345.1345-.4034.1345-.5378 0-.4034-.1344-.8068.1345-1.2101 0 0 .1345-.1345 0-.1345.1345.1345.5378-.2689.1344-.4033.5378-.1345 0-.2689-.1345-.2689-.1345h-.6723c-.1345 0-.1345.2689-.4034.1345.1345-.1345 0 0-.1344 0 0 0 .1344 0 0-.1345-.1345 0-.1345 0 0 0-.1345-.1344-.4034 0-.4034-.1344-.5378.1344-.9412.2689-1.2101.4033-.1344-.1344 0-.1344.1345-.1344h-.2689c0-.1345.1344 0 .2689-.1345-.4034-.1344-.6723.1345-1.0757 0l-.1344.1345h-.1345s0-.1345-.1344-.1345c-.1345 0-.4034.1345-.5378.1345h-.2689v-.1345s0 .1345-.1345.1345h-.1344s.1344 0 .1344-.1345c-.2689.1345-.1344.1345-.5378.1345-.2689 0-.4034 0-.6723-.1345-1.0756-.5378-1.6134.4034-2.958.6723-1.47895.2689-1.74786.6723-2.55458.9412-.13446 0-.26891.1344-.40336.1344-.67227.5378-1.47899 1.6135-2.15126 2.1513-.67227.5378-.26891.6723-.40336 1.6134-.13446 1.0757-.40337 1.8824-.13446 2.8236.13446.2689.13446.4033.26891.5378.26891.2689.53781.5378.67227.8067.13445.1345.26891.2689.40336.5378.40336.9412.53781 1.3446.67227 2.0168v.1345c0 .1344.13445.1344.26891 0 .13445-.1345.40336-.6723.67226-.9412.40337.1345.94118.6723 2.28572.9412 1.47902.2689 1.61342-.1345 2.28572-.2689.4034 0 .8067-.4034 1.3445-.6723.5378-.4034 1.0757-.8067 1.2101-.9412.2689-.2689 1.2101-2.1512 1.3446-2.5546.1344-.4034-.4034-1.6134-.8068-2.2857l-.1344-.1345c-.5378-.6722-1.0757-.9411-1.8824-1.0756-.6722-.1345-1.479.1345-2.0168.4034l-.1344.1344c-.5379.4034-1.21012 1.3446-1.21012 1.7479 0 .2689.13442.6723.40332 1.0756.1345.1345.2689.269.4034.4034.4034.4034 1.479.8067 1.7479.5378.2689-.2689.5378-.9412.2689-1.3445l-.1344-.1345c-.1345-.1344-.8068-.1344-.9412-.2689l-.2689-.2689c-.1345-.1344-.1345-.2689-.2689-.4033-.1345-.269 0-.4034.2689-.5379.2689-.1344.5378-.2689.9411-.4033h.1345c.6723-.2689 1.2101-.2689 2.2857 1.0756l.1345.1345c.9411 1.21-.1345 2.689-.8068 3.3613-.1344.1345-.2689.2689-.5378.4034-.4033.2689-1.0756.5378-1.6134.5378h-.1345c-.5378.1344-.9411.1344-1.7479.1344-.80669 0-1.61341-.6722-2.01677-1.3445-.13446-.1345-.13446-.2689-.13446-.4034 0-.1344-.13445-.2689-.13445-.4033-.13446-.2689-.26891-.2689-.40336-.4034 0-.1344-.13446-.1344-.13446-.4033-.13445-.6723-.80672-1.479-.67227-2.2858 0-.4033.26891-.8067.53782-1.4789.13445-.6723 1.21008-1.6135 1.61344-2.0169.40337-.2689 1.74791-.4033 2.28571-.8067h-.1344c.2689-.1344.5378-.1344.8067-.1344.2689 0 .5378.1344.5378.1344.9412.2689 1.479 0 2.5546-.1344.9412 0 1.2101.1344 2.2857.1344h.9412c.5378 0 1.0756 0 1.479-.1344.1345 0 .1345-.1345.2689 0h.5378c.2689 0 .5378-.1345.6723 0V53.52c.4034.1345.6723-.1344 1.0756 0 .5378-.2689.8067.1345 1.3446-.1344-.1345 0 0 0 0 .1344.2689 0 .5378 0 .5378-.2689.1344 0 .1344 0 .1344.1345 0-.1345.1345-.1345.2689-.1345h.4034c.2689 0 0 .1345.2689.1345v-.1345c.2689 0 .5378.2689.8067.2689 1.2101 0-1.3445-.2689-.2689 0v.1345c0 .1344.2689-.2689.4034-.1345h.1344s.1345 0 0 .1345h.2689l.1345.1344c.5378.1345.9412-.1344 1.3445-.1344.5378.1344 1.7479 0 2.4202-.1345.9412-.2689 2.0168.4034 2.958.1345h.9412c-.1345-.1345 4.0336-.1345.9411-1.3446zm3.2269-1.8823c.1345 0 .1345 0 0 0h.8068s3.4957 0 .8067-1.0757c-.4034-.1344-.6723-.1344-.9412 0 0-.1344-.2689 0-.4034-.1344-.2689.1344-.5378-.1345-.6722 0v-.1345c-.1345 0-.4034.1345-.4034 0-.4034 0-.9412 0-1.2101.1345-.1344.1344-.1344 0-.4033.1344-.1345.1345-.4034 0-.5379.1345v-.1345h-.2689.1345c0 .269-.2689-.1344-.4034 0-.2689 0-.4033.4034-.6722.269-.1345.1344.1344-.1345 0-.1345 0-.1345.1344-.1345 0-.1345-.1345 0-.2689-.1344-.4034 0v-.1344c-.2689.1344-.4034-.1345-.6723 0-.2689.1344-.1344-.2689-.4033-.1345l-.1345-.1344c-.1344 0-.1344.1344-.2689.1344 0-.1344-.1344 0-.1344-.1344-.269-.1345-.5379.1344-.9412 0-.1345.1344-.2689 0-.2689.1344 0 0-.4034 0-.1345-.1344v-.1345c-.2689-.1344-.4033.1345-.6723 0 0 0 .1345 0 .1345.1345h-.1345v-.1345h-.2689v.1345c-.1344 0-.1344-.1345-.4033-.1345-.1345.1345.1344.1345 0 .1345-.1345 0-.5378-.1345-.6723-.1345 0 .1345 0 .1345-.1344.1345v-.1345c-.269.1345-.1345-.1344-.4034-.1344l-.1345.1344c-.2689.1345-.1344-.1344-.4033 0 .1344 0 0 .1345-.1345.1345v-.1345h-.1344s0-.1344-.1345-.1344c-.1344-.1345-.4033 0-.4033-.1345 0 0-.269 0-.4034.1345 0-.1345-.1345-.1345 0-.1345-.1345.1345-.2689.1345-.4034 0-.4033-.1344-.6722.1345-.9411 0 0 .1345-.1345 0-.1345.1345-.4034.1344-.6723-.2689-.8067.1344-.1345 0-.1345-.1344-.2689-.1344h-.5378c-.1345 0-.1345.2689-.269.1344 0-.1344.0001 0-.1344 0v-.1344c-.1345 0-.1345 0 0 0-.1345-.1345-.4034 0-.4034-.1345-.4033 0 3.2269.1345 2.958.1345 0 0 0-.1345.1345-.1345h-.2689c0-.1344.1344 0 .1344-.1344-.2689-.1345-.5378.1344-.8067 0v.1344s0 .1345-.1345.1345c0-.1345 0-.1345-.1344-.1345-.1345-.1344-.2689 0-.5378.1345H21.771c-.4033 0-1.7479-.2689-2.4202-.4034-.6722-.2689-.8067-.1344-1.0756-.4033-.1344.5378-.2689.2689-.6723.2689-.2689 0-.1344-.8068-.4033-.9412 0 0-.1345-.1345-.1345-.2689 0-.1345 0-.2689.1345-.4034.1344-.1344.5378-.4033.9412-.5378.2689-.1345.4033-.2689.4033-.5378 0-.1345 0-.2689-.1344-.5378-.1345-.1345-.2689-.1345-.4034-.1345-.2689 0-.5378.1345-.6723.2689-.1344.1345-.4033 0-.5378.4034-.2689.4033-.4033.4033-.5378.9412v.1344c0 .5378.2689 1.3446.8067 2.1513.5378.8067.9412.9412 1.2101 1.2101.2689.1344.5378.1344.9412.1344h.4034c.2689.1345.8067.4034 2.2857.5378h.1344c.9412 0 2.1513 0 2.958-.1344.2689 0 .5378.1344.9412 0H23.25c.1345-.1345.5378 0 .6723-.1345l.1344.1345c.1345 0 .1345-.1345.2689 0h.4034c.1344 0 .4034-.1345.5378 0v-.1345c.4034.1345.5378-.1344.8067 0 .4034-.2689.6723.1345 1.0757-.1344v.1344c.2689 0 .4033 0 .4033-.2689.1345 0 .1345 0 .1345.1345 0-.1345.1344-.1345.2689-.1345h.4033v-.1344c.1345 0 0 .1344.269.1344v-.1344c.2689 0 .4033.2689.6722.2689.9412 0 2.0168-.2689 2.958 0v.1344c0 .1345.2689-.2689.2689-.1344h.1345s.1344 0 0 .1344h.1344v.1345c.4034.1344.6723-.1345 1.0757-.1345.5378.1345 1.4789 0 2.0168-.1344.8067-.1345 1.7479.5378 2.4201.2689zm-25.0084-.4034c.1345.1345.1345.1345.1345.2689.1344 0 .1344.1345.2689.2689l.1344.1345.1345.1344h.4034c.5378.1345 1.21-.2689 1.3445-.6722v-.4034c0-.2689 0-.4034-.1345-.6723 0-.1344-.1344-.1344-.1344-.2689 0 0 0-.1344-.1345-.1344l-.1344-.1345s-.1345-.1344-.2689-.1344c0 0-.1345-.1345-.2689-.1345h-.4034c-.1345 0-.1345 0-.2689.1345v.1344c0 .1345 0 .1345-.1345.2689.1345-.1344.1345-.2689.4034-.4033.1345-.1345.4034-.1345.5378 0 .1345-.1345.2689 0 .2689 0v.1344c.1345.1345.1345.1345.1345.2689v.4034-.1345c.1344.1345.1344.2689.1344.4034-.1344 0-.1344-.2689-.2689-.4034h-.1344s0-.1344-.1345-.1344c0 .1344-.2689-.2689-.2689 0l-.4034.1344v.1345-.1345s-.1344-.1344-.2689-.1344c-.1344 0-.2689.1344-.4033.1344-.1345.1345-.1345 0-.1345 0 0 .1345-.1344.1345-.1344.2689 0 0-.1345.269 0 .5379 0-.1345 0 0 .1344.1344zm35.4832 5.916v.4033c0 .1345.1344.269.1344.269 0 .1344.1345.1344.1345.1344l.1344.1345c-.1344-.1345-.2689-.1345-.4033-.4034 0-.2689.1344-.5378 0-.5378.1344-.2689.2689-.2689.2689-.4034h.1344c.1345-.1344.1345-.1344.2689-.1344v-.1345h.4034-.1344.4033c0 .1345-.2689.1345-.4033.1345v.1344s-.1345 0-.1345.1345c-.1345.1344-.4034.2689-.1345.2689l.1345.4033h.1345-.1345s-.1345.1345-.1345.269c0 .1344 0 .2689.1345.4033 0 .1345 0 .1345-.1345.1345.1345 0 .1345.1344.269.1344 0 0 .2689.1345.5378.1345h.2689s.1344 0 .1344-.1345c.1345-.1344.1345-.1344.2689-.2689 0 0 .1345-.1344.1345 0l.1344-.1344c.1345-.1345.269-.4034.269-.5379.2689-.4033-.1345-1.21-.5379-1.4789h-.1344s-.1345-.0001-.1345-.1345h-.8067c0 .4034-.1344.4034-.2689.4034 0 0-.1345 0-.1345.1344 0 0-.1344 0-.1344.1345 0 0-.1345.1344-.1345.2689-.2689 0-.2689.1344-.4033.2689zm4.168-.5378h2.4202c.1345 0 .2689 0 1.0756.1344h.5379c.5378 0 .9411.1345 1.0756.1345h.1344c.2689-.1345.1345-.1345.4034-.1345h1.6134v-.1344c.5379 0-1.7479-.2689-.4033-.1345h.1344c1.479.1345 2.0168.4034 2.2858.5378h.4033c.2689 0 .6723 0 .9412.1345.4034.2689.8067.4033 1.2101 1.2101.5378.8067.8067 1.6134.8067 2.1512v.1345c-.1345.5378-.2689.5378-.4034.9412-.1344.4033-.4033.2689-.5378.4033 0 .1345-.4033.2689-.6722.2689-.1345 0-.269 0-.4034-.1344-.1345-.1345-.1345-.2689-.1345-.5378 0-.269.1345-.4034.4034-.5379.4034-.1344.8067-.2689.9412-.5378 0-.1344.1344-.2689.1344-.4033 0-.1345 0-.2689-.1344-.2689-.1345-.1345-.1345-.9412-.4034-.9412s-.5378-.2689-.6722-.4034c-.1345-.1344-.4034-.1344-1.0757-.4033-.6723-.1345-2.0168-.4034-2.4202-.4034-.4033 0-1.0756.1344-2.0168 0-.4033 0 3.2269-.1345 2.958-.1345h-5.7815c-.6723.1345-1.479.1345-2.1512.1345-.269 0-.5379 0-.6723-.1345v-.4033c0-.2689.2689-.5378.4033-.5378zm-4.0336-3.0925c.4034-.1344.8068-.1344 1.0757 0 0-.1344.4033 0 .5378-.1344.2689.1344.5378-.1345.8067 0 0 0 0-.1345-.1345-.1345.1345 0 .5379.1345.5379 0 .5378 0 1.21 0 1.479.1345.1344.1344.2689 0 .4033.1344.2689.1345.6723.1345.8067.1345v-.1345h.4034-.1345c0 .2689.269-.1344.5379 0 .2689 0 .5378.4034.8067.2689.1344.1345-.1345-.1344.1344-.1344 0-.1345-.1344-.1345 0-.1345.1345 0 .2689-.1344.5379 0v-.1344c.2689.1344.5378-.1345.8067 0 .1344.2689 0 0 .4033.1344l.1345-.1344c.1344 0 .1344.1344.2689.1344 0-.1344.1345 0 .1345-.1344.4033-.1345.6722.1344 1.21 0 .1345.1344.2689 0 .4034.1344 0 0 .4034 0 .2689-.1344v-.1345c.2689-.1344.5378.1345.6723 0-.1345 0-.1345 0-.1345.1345h.2689v-.1345h.4034v.1345c.1344 0 .2689-.1345.4033-.1345.1345.1345-.1344.1345 0 .1345.269 0-3.2268-.1345-2.9579-.1345 0 .1345 0 .1345.1344.1345v-.1345c.2689.1345.1345-.1344.4034-.1344v.1344c.2689.1345.1344-.1344.5378 0-.1345 0 0 .1345.1344.1345v-.1345h.1345s0-.1344.1345-.1344l-.1345-.1345.2689.1345c.1345-.1345.5378 0 .5378-.1345 0 0 .4034 0 .5378.1345-.1344-.1345.1345-.1345.1345-.1345.1344.1345.4034.1345.5378 0 .4034-.1344.8067.1345 1.2101 0 0 .1345.1345 0 .1345.1345-.1345.5378.2689.1344.4033.5378.1345 0 .2689-.1345.2689-.1345h.6723c.1344 0 .1344.2689.4033.1345-.1344-.1345 0 0 .1345 0 0 0-.1345 0 0-.1345.1345 0 .1345 0 0 0 .1345-.1344.4034 0 .4034-.1344.5378.1344.9411.2689 1.21.4033.1345-.1344 0-.1344-.1344-.1344h.2689c0-.1345-.1345 0-.2689-.1345.4034-.1344.6723.1345 1.0756 0l.1345.1345h.1344s0-.1345.1345-.1345c.1344 0 .4033.1345.5378.1345h.2689v-.1345s0 .1345.1345.1345h.1344s-.1344 0-.1344-.1345c.2689.1345.1344.1345.5378.1345.2689 0 .4033 0 .6722-.1345 1.0757-.5378 1.6135.4034 2.958.6723 1.479.2689 1.7479.6723 2.5547.9412.1344 0 .2689.1344.4033.1344.6723.5378 1.479 1.6135 2.1513 2.1513.6722.5378.2689.6723.4033 1.6134.1345 1.0757.4034 1.8824.1345 2.8236-.1345.2689-.1345.4033-.2689.5378-.2689.2689-.5378.5378-.6723.8067-.1344.1345-.2689.2689-.4033.5378-.4034.9412-.5379 1.3446-.6723 2.0168v.1345c0 .1344-.1345.1344-.2689 0-.1345-.1345-.4034-.6723-.6723-.9412-.4034.1345-.9412.6723-2.2857.9412-1.479.2689-1.6135-.1345-2.2857-.2689-.4034 0-.8068-.4034-1.3446-.6723-.5378-.4034-1.0756-.8067-1.21-.9412-.269-.2689-1.2101-2.1512-1.3446-2.5546-.1344-.4034.4034-1.6134.8067-2.2857l.1345-.1345c.5378-.6722 1.0756-.9411 1.8823-1.0756.6723-.1345 1.479.1345 2.0168.4034l.1345.1344c.5378.4034 1.2101 1.3446 1.2101 1.7479 0 .2689-.1345.6723-.4034 1.0756-.1344.1345-.2689.269-.4033.4034-.4034.4034-1.479.8067-1.7479.5378-.2689-.2689-.5378-.9412-.2689-1.3445l.1344-.1345c.1345-.1344.8067-.1344.9412-.2689l.2689-.2689c.1345-.1344.1345-.2689.2689-.4033.1345-.269 0-.4034-.2689-.5379-.2689-.1344-.5378-.2689-.9412-.4033h-.1344c-.6723-.2689-1.2101-.2689-2.2857 1.0756l-.1345.1345c-.9412 1.21.1345 2.689.8067 3.3613.1345.1345.2689.2689.5378.4034.4034.2689 1.0757.5378 1.6135.5378h.1344c.5379.1344.9412.1344 1.7479.1344.8068 0 1.6135-.6722 2.0168-1.3445.1345-.1345.1345-.2689.1345-.4034 0-.1344.1345-.2689.1345-.4033.1344-.2689.2689-.2689.4033-.4034 0-.1344.1345-.1344.1345-.4033.1344-.6723.8067-1.479.6722-2.2858 0-.4033-.2689-.8067-.5378-1.4789-.1344-.6723-1.2101-1.6135-1.6134-2.0169-.4034-.2689-1.7479-.4033-2.2857-.8067h.1344c-.2689-.1344-.5378-.1344-.8067-.1344-.2689 0-.5378.1344-.5378.1344-.9412.2689-1.479 0-2.5546-.1344-.9412 0-1.2101.1344-2.2858.1344h-.9411c-.5379 0-1.0757 0-1.479-.1344-.1345 0-.1345-.1345-.2689 0h-.5378c-.269 0-.5379-.1345-.6723 0V53.52c-.4034.1345-.6723-.1344-1.0757 0-.5378-.2689-.8067.1345-1.3445-.1344.1345 0 0 0 0 .1344-.2689 0-.5378 0-.5378-.2689-.1345 0-.1345 0-.1345.1345 0-.1345-.1344-.1345-.2689-.1345h-.4033c-.2689 0 0 .1345-.2689.1345v-.1345c-.2689 0-.5379.2689-.8068.2689-1.21 0 1.3446-.2689.269 0v.1345c0 .1344-.269-.2689-.4034-.1345h-.1345s-.1344 0 0 .1345h-.2689l-.1344.1344c-.5378.1345-.9412-.1344-1.3446-.1344-.5378.1344-1.7479 0-2.4201-.1345-.9412-.2689-2.0168.4034-2.958.1345h-.9412c.1345-.1345-4.0336-.1345-.9412-1.3446zm-3.2269-1.8823c-.1344 0-.1344 0 0 0h-.8067s-3.4958 0-.8067-1.0757c.4034-.1344.6723-.1344.9412 0 0-.1344.2689 0 .4033-.1344.2689.1344.5379-.1345.6723 0v-.1345c.1345 0 .4034.1345.4034 0 .4033 0 .9411 0 1.21.1345.1345.1344.1345 0 .4034.1344.1345.1345.4034 0 .5378.1345v-.1345h.2689-.1344c0 .269.2689-.1344.4033 0 .2689 0 .4034.4034.6723.269.1345.1344-.1344-.1345 0-.1345 0-.1345-.1344-.1345 0-.1345.1345 0 .2689-.1344.4034 0v-.1344c.2689.1344.4033-.1345.6722 0 .2689.1344.1345-.2689.4034-.1345l.1345-.1344c.1344 0 .1344.1344.2689.1344 0-.1344.1344 0 .1344-.1344.2689-.1345.5378.1344.9412 0 .1345.1344.2689 0 .2689.1344 0 0 .4034 0 .1345-.1344v-.1345c.2689-.1344.4033.1345.6722 0 0 0-.1344 0-.1344.1345h.1344v-.1345h.2689v.1345c.1345 0 .1345-.1345.4034-.1345.1344.1345-.1345.1345 0 .1345.1344 0 .5378-.1345.6723-.1345 0 .1345 0 .1345.1344.1345v-.1345c.2689.1345.1345-.1344.4034-.1344l.1344.1344c.2689.1345.1345-.1344.4034 0-.1345 0 0 .1345.1344.1345v-.1345h.1345s0-.1344.1345-.1344c.1344-.1345.4033 0 .4033-.1345 0 0 .2689 0 .4034.1345 0-.1345.1344-.1345 0-.1345.1344.1345.2689.1345.4033 0 .4034-.1344.6723.1345.9412 0 0 .1345.1345 0 .1345.1345.4033.1344.6722-.2689.8067.1344.1344 0 .1344-.1344.2689-.1344h.5378c.1345 0 .1345.2689.2689.1344 0-.1344 0 0 .1345 0v-.1344c.1344 0 .1344 0 0 0 .1344-.1345.4033 0 .4033-.1345.4034 0-3.2269.1345-2.9579.1345 0 0-.0001-.1345-.1345-.1345h.2689c0-.1344-.1344 0-.1344-.1344.2689-.1345.5378.1344.8067 0v.1344s0 .1345.1344.1345c0-.1345 0-.1345.1345-.1345.1344-.1344.2689 0 .5378.1345h2.1513c.4033 0 1.7479-.2689 2.4201-.4034.6723-.2689.8067-.1344 1.0757-.4033.1344.5378.2689.2689.6722.2689.2689 0 .1345-.8068.4034-.9412 0 0 .1344-.1345.1344-.2689 0-.1345 0-.2689-.1344-.4034-.1345-.1344-.5378-.4033-.9412-.5378-.2689-.1345-.4034-.2689-.4034-.5378 0-.1345 0-.2689.1345-.5378.1345-.1345.2689-.1345.4034-.1345.2689 0 .5378.1345.6722.2689.1345.1345.4034 0 .5378.4034.269.4033.4034.4033.5379.9412v.1344c0 .5378-.2689 1.3446-.8068 2.1513-.5378.8067-.9411.9412-1.21 1.2101-.269.1344-.5379.1344-.9412.1344h-.4034c-.2689.1345-.8067.4034-2.2857.5378H61.96c-.9411 0-2.1512 0-2.9579-.1344-.2689 0-.5378.1344-.9412 0H60.75c-.1345-.1345-.5378 0-.6723-.1345l-.1345.1345c-.1344 0-.1344-.1345-.2689 0h-.4033c-.1345 0-.4034-.1345-.5378 0v-.1345c-.4034.1345-.5379-.1344-.8068 0-.4033-.2689-.6722.1345-1.0756-.1344v.1344c-.2689 0-.4034 0-.4034-.2689-.1344 0-.1344 0-.1344.1345 0-.1345-.1345-.1345-.2689-.1345h-.4034v-.1344c-.1344 0 0 .1344-.2689.1344v-.1344c-.2689 0-.4033.2689-.6723.2689-.9411 0-2.0168-.2689-2.9579 0v.1344c0 .1345-.2689-.2689-.2689-.1344h-.1345s-.1345 0 0 .1344h-.1345v.1345c-.4033.1344-.6722-.1345-1.0756-.1345-.5378.1345-1.479 0-2.0168-.1344-.8067-.1345-1.7479.5378-2.4202.2689zm25.0084-.4034c-.1344.1345-.1344.1345-.1344.2689-.1345 0-.1345.1345-.2689.2689l-.1345.1345-.1344.1344h-.4034c-.5378.1345-1.2101-.2689-1.3445-.6722v-.4034c0-.2689 0-.4034.1344-.6723 0-.1344.1345-.1344.1345-.2689 0 0 0-.1344.1344-.1344l.1345-.1345s.1344-.1344.2689-.1344c0 0 .1345-.1345.2689-.1345h.4034c.1344 0 .1344 0 .2689.1345v.1344c0 .1345 0 .1345.1344.2689-.1344-.1344-.1344-.2689-.4033-.4033-.1345-.1345-.4034-.1345-.5378 0-.1345-.1345-.269 0-.269 0v.1344c-.1344.1345-.1344.1345-.1344.2689v.4034-.1345c-.1345.1345-.1345.2689-.1345.4034.1345 0 .1345-.2689.2689-.4034h.1345s0-.1344.1345-.1344c0 .1344.2689-.2689.2689 0l.4033.1344v.1345-.1345s.1345-.1344.2689-.1344c.1345 0 .2689.1344.4034.1344.1344.1345.1344 0 .1344 0 0 .1345.1345.1345.1345.2689 0 0 .1345.269 0 .5379 0-.1345 0 0-.1345.1344z"/></g><path d="M83.7142 4.71429v-.28572c-.1428-.14286-.5714-.42857-1-.14286H70.8571c-.4286 0-.2857 0-.7143.14286h-.1429c-.2857 0-1.1428-.14286-2.2857-.14286h-1.1428c-1.5715-.14285-1.8572-.14285-2.1429-.14285h-5.1429c-.4285 0-1 .28572-1 .57143 0 .14286.1429.42857.2858.42857.1428.14285.7142.14286 1.2857.14286 1.4285 0 3-.00001 4.4285-.14286h18.1429c.5714 0 .5714 0 1-.14286.1429-.14286.2857-.14285.2857-.28571zM48.7142 4c.1429.28572.1429.42858.1429.71429 0 .14286.1428-.00001-.2857.42857v.28572c-.1429.42857-.8572.85714-1.4286.71428C46.9999 6 46.8571 6 46.5714 5.85714l-.1429-.14285-.1429-.14286c-.1428-.14286-.1428-.28571-.2857-.28571l-.1428-.14286c-.1429-.28572-.1429-.28571-.1429-.28571-.1428-.28572 0-.57144 0-.57144 0-.14285.1429-.14285.1429-.28571 0 0 0 .14286.1428 0 .1429 0 .2857-.14285.4286-.14285.1429 0 .2857.14285.2857.14285l.4286-.14285c.1428-.28571.2857 0 .4286.14285.1428 0 .1428.14286.1428.14286h.1429c.1428.14286.1428.42858.2857.42858.1428-.14286 0-.28572 0-.42858v-.28571c0-.14286 0-.14286-.1429-.28572v-.14286s-.1428-.14285-.2857-.14285c-.1428-.14286-.4286-.14286-.5714 0-.1638.0819-.2337.1638-.2905.2457-.0099.05472-.0411.08586-.1381.18286.061-.06095.0959-.1219.1381-.18286.0048-.02586.0048-.057.0048-.10285l.1428-.14285s.1429-.14286.2857-.14286h.4286c.1429 0 .2857.14286.2857.14286.1429 0 .2857.14285.2857.14285l.1429.14286c.1429 0 .1429.14285.1429.14285 0 .14286.1428.14287.1428.28572zm3-.71428h.2857c.5715.14286.8572 1 .7143 1.57143 0 .14285-.1428.42857-.2857.57143l-.1429.14285c0-.14286-.1428 0-.1428 0l-.2857.28571c0 .14286-.1429.14287-.1429.14287h-.2857c-.2857 0-.5714-.14287-.5714-.14287-.1429 0-.1429-.14285-.2857-.14285.1428 0 .1428 0 .1428-.14286-.1428-.14286-.1428-.28572-.1428-.42857 0-.14286.1428-.28571.1428-.28571l-.1428-.42858c-.2858 0 0-.14285.1428-.28571C50.7142 4 50.8571 4 50.8571 4v-.14285c.1428 0 .4285-.00001.4285-.14287h-.7142v.14287c-.1429 0-.1429 0-.2858.14285h-.1428s0 .14286-.1429.28571v.42858c0 .14286.1429.28571.1429.28571 0 .03932.0108.06782.0265.08848.015.01327.0299.02529.0449.0365.0357.01788.0714.01788.0714.01788l.1429.14286c-.0714-.07144-.1429-.10715-.2143-.16074-.0161-.00802-.0321-.01965-.0449-.0365-.0565-.05013-.1129-.1184-.1694-.23133-.1428-.14286 0-.42858 0-.57144 0-.14285.1429-.28571.1429-.28571 0-.14285.1428-.28572.1428-.28572 0-.14285.1429-.14285.1429-.14285 0-.14286.1429-.14286.1429-.14286.1428-.14285.1428-.14285.2857-.14285h.8571zm4.1429 1.14285s.1428.00001.1428.14287c0 0 .0899-.00003-.0155.21395.0095.05678.0155.12667.0155.21461 0 .09393-.0617.24963-.1446.38586-.006.10948-.0316.21895-.1411.32843-.1428 0-.2857.14285-.2857.14285-.1429.14286-.2857.14287-.2857.14287h-.8572c-.1428 0-.4285-.14287-.5714-.28572 0-.14286 0 0-.1428-.14286-.1429 0-.1429-.14285-.1429-.14285 0 .14285-.1429 0-.1429 0-.2857-.42858-.2857-1.28572.1429-1.57143 0-.14286.1429-.28572.4286-.42858 0 .14286.1428 0 .1428 0h.1429c0-.14285.1428-.14285.2857-.14285h.5714c.1429 0 .4286.28571.4286.28571 0 .14286 0 .14286.1429.28572 0 0-.1429 0-.1429.14285.1429.14286.1429.28571 0 .42857 0 .14286-.1429.14287-.1429.14287h-.1428v.57142c.2857.28571-.1429.28572-.2857.28572h-.1429v.14285c-.1428 0-.4286-.14286-.4286 0 .1429 0 .2858.14286.4286.14286h-.1428c.1428 0 .2857.14285.2857.14285h.1428v-.14285h.4286s.1429 0 .2857-.14286c.0489-.04892.0979-.11461.1411-.18557.0018-.03338.0018-.06676.0018-.10014V5c.059-.08858.0998-.15887.1273-.21461-.0371-.21998-.1273-.24328-.1273-.35682zM19.4285 4h1.7143c.2857 0 .8571.28572.8571.71429 0 .14286-.1428.42857-.2857.42857-.1428.14285-.7143.14286-1.1428.14286-1.1429 0-2.4286-.00001-3.7143-.14286H1.42848c-.428555 0-.571415 0-.857126-.14286-.142857-.14286-.285709-.14285-.285709-.28571v-.28572c.142857-.14286.571428-.28571.714285-.28571h9.99997c.4286 0 .2857 0 .7143.14285h.1429c.2857 0 1-.14285 2-.14285h1C16.2856 4 16.5714 4 16.7142 4h2.7143zm13.9481.04219C33.4048 4.02374 33.4285 4 33.4285 4s.1081.10812-.0519.04219c-.0408.0268-.091.04244-.091-.04219v.57144s-.1428.14285-.1428.28571c-.1429 0-.1429.14285-.1429.14285-.1428.14286-.1428.28572-.2857.28572l-.1428.14286c0 .14285-.1429.14285-.1429.14285-.1429.14286-.4286.28571-.5714.28571-.5715.28572-1.2857-.14286-1.4286-.71428C30.2856 5 30.4285 5 30.4285 5v-.28571c0-.28571.1429-.57143.1429-.71429 0-.14285.1428-.14286.1428-.28572.1429 0 .1429-.14285.1429-.14285l.1428-.14286c.1429 0 .1429-.14285.2857-.14285 0-.14286.1429-.14286.2858-.14286h.4285c.1429 0 .2857.14286.2857.14286.1429 0 .1429.14285.1429.14285.1429.14286.1429.14286.1429.28571-.1429-.14285-.1429-.2857-.4286-.42856h-.5714c-.1429 0-.2858.14285-.2858.14285v.14286c0 .14286-.1428.28572-.1428.28572v.71429c.1428 0 .1428-.28572.2857-.42858h.1429L31.7142 4c.1429-.14285.2857-.42856.4286-.14285L32.5714 4c0-.14285.1428-.14285.2857-.14285.1428 0 .4285 0 .4285.14285.0372.01858.0671.03233.091.04219zm-3.5195-.47076c0 .14286 0 .14286.1428.28572 0 0 0 .04762.055.14285h.0879s.1428.14286.1428.28571c.1429.14286.1429.42858 0 .57144-.0968.19366-.1936.32169-.2905.38409-.01.04448-.0412.04448-.138.04448.046 0 .092-.01483.138-.04448.0048-.02115.0048-.05235.0048-.09838 0 0 .1429 0 .1429-.14286 0 0 .1428-.14285.1428-.28571v-.42858c-.1207-.12075-.1904-.21599-.2307-.28571h-.055c-.1428-.14285-.2857-.14285-.2857-.14285v-.14287h-.7143c0 .14286.2857.00001.4286.14287V4c0 .14286.1429.14286.1429.14286s.4285.14285.1428.28571l-.1428.42858s.1428.14285.1428.28571c0 .14285 0 .28571-.1428.42857l.1428.14286c-.1428 0-.1428.14285-.2857.14285 0 .14286-.4286.14287-.5714.14287h-.2857c0-.14286-.1429-.14287-.1429-.14287l-.2857-.28571h-.1429l-.1428-.14285c-.1429-.28572-.2857-.42858-.2857-.57143-.2858-.57143 0-1.28572.5714-1.57143.1428-.14286.1428 0 .1428 0 0-.14286.1429-.14286.1429-.14286h.8571c.1429 0 .1429.14286.2858.14286 0 .14286.1428.14285.1428.14285l.1429.14286zm-4.2857-.42857l.1428.14286c.1429.14286.2857.14286.2857 0 .4286.28571.4286 1.14285.1429 1.57143 0 0-.1429.14285-.1429 0L25.8571 5c0 .14286 0 0-.1429.14286-.1428.14285-.4286.28572-.5714.28572h-.1429c-.1428 0-.1428.14285-.2857.14285h-.1428v-.14285h-.4286c-.1429 0-.1429 0-.2857-.14286-.0024-.00234-.0047-.00467-.007-.00701-.0785-.01213-.1359-.04529-.1359-.13585 0-.00414-.0001-.00828-.0003-.01242-.0819-.1044-.1425-.22993-.1425-.41615v-.42858l.1428-.14285c0 .14286-.1428.14286-.1428.57143 0 .13872.1347.27744.1425.41615.0416.05317.0888.10085.1362.14827.0452.00701.0975.00701.1498.00701.1429.14285.1429.14286.2857.14286h.5715c.1428 0 .2857-.00001.4285-.14286 0-.14286-.2857 0-.4285 0v-.14286h-.1429c-.1428-.14286-.4286 0-.2857-.28571v-.57144h-.1429s-.1428.00001-.1428-.14285v-.42858c0-.14285-.1429-.14285-.1429-.14285 0-.14286 0-.28571.1429-.28571 0 0 .2857-.28572.4286-.28572h.5714c0 .14285.1428.14286.2857.14286h.1429zm17.1428 1.28571s.4286.42857.4286.57143c-.1429 0-.2857.14286-1.1429.71429-.4285.57142-.5714.71429-.8571 1l-.7143.85714s-.5714.57143-.7143.42857c-.1428-.14286-.2857-.71428-.5714-1-.1429-.28571-.4286-.42857-.8572-.71428-.2857-.28572-.4285-.57143-1-.85714-.4285-.14286-.4285-.42858-.5714-.57143 0 0 .1429-.57143.4286-.71429.2857-.28571.7143-.28572.8571-.57143.1429-.28572.7143-.71428.8572-.85714 0-.14286.2857-.42858.5714-.57143.2857-.28572.2857-.71429.5714-.71429 0 0 .5715.42857.7143.71429.1429.14285.2857.71428.4286.85714 0 .14285.5714.42857.7143.57143l.8571.85714z"/><defs><clipPath id="clip0"><path d="M0 0h74.8393v40H0z" transform="translate(4.58032 34.7805)"/></clipPath></defs></svg>