<svg fill="currentColor" viewBox="0 0 148 143"><g fill="#92BDA5" clip-path="url(#clip0)"><path d="M8.81483 10.4317c-.18879.1621-.32274.3504-.53782.3504-.11927-.0101-.23864.0183-.34055.0809-.10191.0626-.18098.1562-.22558.267-.16249.484-.24362.243-.32273.6726-.02855.269-.29846.5934-.35105.8341-.06663.2458-.10279.4988-.10766.7533-.01293.1225.01564.2457.08114.3502.06551.2111.11871.4258.15934.6431.18458.2113.33894.4471.4587.7006.13485.2957.43241.0789.75515.2957.36244.1663.76066.24 1.15878.2145.19904-.006.39481-.052.57565-.1353.1808-.0832.3429-.202.4766-.3491.1623-.1883.2436-.243.2436-.3502 0-.0527-.0285-.1074-.1099-.1883-.0589-.0494-.1062-.1112-.1385-.1808-.0324-.0696-.0491-.1455-.0489-.2223-.0053-.1628.0419-.3229.1348-.4569.1032-.0958.2368-.1524.3776-.1598.4302 0 .8889.2145.8889.6983-.0421.3314-.1523.6505-.3238.9374-.1715.2868-.4006.5352-.673.7296-.3201.2458-.7038.3955-1.10616.4313-.10743 0-.43016.1072-.53939.1072-.16935.0235-.34042.0323-.51129.0264-.15351.0079-.30741-.0011-.45893-.0269-.4836-.0349-.95744-.1534-1.40039-.3501-.52869-.2271-.96549-.6249-1.24014-1.1294-.15141-.3244-.28642-.6562-.40454-.9941-.02854-.2407-.05506-.753-.05506-.9675-.01147-.5617.09002-1.12.29846-1.6419.20845-.5219.51963-.9969.91516-1.39686 1.02413-.87705 2.31725-1.37993 3.66628-1.42578.7219-.01378 1.4436.04041 2.1553.16186.3571.1573.7272.28331 1.1062.37662.2193.02649.4304.09965.6189.21454.2697.18831.4324.13585.7549.37662s.5138.6196.8626.6983c.325.0809.4852.4051.5664.4838.0811.0787.5661.7006.809.7006.1349 0 .2151-.3502.5927-.9151.232-.3916.5229-.74533.8626-1.04875.215-.15962.1348-.3764.4045-.69832.2365-.24832.4361-.52915.5927-.83394.2436-.37662.836-.94155.9174-1.18232.1161-.32931.2991-.63116.5376-.88663.2803-.34442.5419-.70363.7836-1.07606.2151-.26902.7264-.77925.7527-1.10117.0286-.29547.4873-.45755.6475-.72679.2962-.45754.3248-.61738.4587-.83417.1077-.18606.3776-.29546.485-.51.1349-.21454.2436-.35039.3776-.59116.1214-.244008.2757-.470287.4587-.672539.2572-.238646.5728-.4057036.9151-.484451.3334.159631.6286.388524.8659.67132.2374.282796.4113.61296.5103.96832-.0334.26779-.1255.52495-.2697.75325-.0549.1345-.2437.83417-.485 1.39887-.2468.55298-.4366 1.12954-.5664 1.7208-.1888.59116-.1337.75078-.2697 1.1274-.1648.31909-.3002.65247-.4045.99602 0 .21477-.0263.32192-.0263.53646-.0285.34868-.1015.69229-.2174 1.02248-.0695.41265-.1775.81788-.3225 1.21058-.1307.3081-.2129.6344-.2436.9675.0003.2456-.036.4899-.1076.7248-.0526.3766-.2151.9416-.3225 1.8831-.1075.9416-.2965 1.5872-.2965 1.8831 0 .2959-.0263.2955-.0263.6174 0 .269-.2173.243-.2173.4035 0 .269.1625.0812.1625.5381 0 .5647-.1074.9675-.1349 1.5872-.0285.4035-.0548.6983-.0548 1.0749 0 .3766.0263.8057.0263 1.1559-.0061.0906.0036.1816.0285.269.0356.1499.0533.3035.0528.4575.0089.0916-.0009.184-.0289.2717-.0279.0877-.0733.1688-.1335.2386-.5303.2654-1.1058.4295-1.6966.4837-.1135-.0026-.2216-.0486-.3021-.1285-.0804-.0798-.1271-.1874-.1303-.3005.0046-.3147-.013-.6294-.0526-.9416-.0549-.2957-.4324-1.3991-.5394-1.9376-.1349-.5627-.2416-.994-.3228-1.237-.1589-.477-.3479-.9435-.5661-1.3966-.1362-.243-.4587-.4036-.4587-.5381-.0171-.1675-.0827-.3265-.1888-.4575-.1581-.1504-.2943-.3221-.4045-.5102-.1142-.2482-.2693-.4755-.4587-.6726-.1625-.1345-.1077-.269-.2697-.4838-.1888-.2145-.4587-.6458-.6475-.6458-.1333.0245-.2555.0904-.349.1883-.3511.2955-.2697.4838-.4046.6459-.1622.1618-.5661.4575-.5661.5911.0033.0736-.0123.1468-.0453.2127-.0331.0659-.0824.1222-.1435.1637-.2436.1883-.1076.2957-.2436.4313-.2808.2648-.5167.5733-.6983.9136-.1235.2266-.2779.4352-.4587.6196l-.6475.753s-.4302.5365-.5926.7248c-.1349.1883-.5113.269-.6743.51-.1625.269-.2151.5122-.4045.6725-.5266.5188-1.0852 1.0043-1.6723 1.4538-.3285.2567-.6805.4819-1.0514.6726-.33209.0914-.643.2468-.91516.4575-.08136.1334-.62119.2145-.80908.267-.21508.0547-1.34847.2168-1.72514.269-.32941.0534-.66256.0806-.99629.0812-.51781-.0016-1.03357-.0649-1.53636-.1883-.39137-.0921-.77122-.2274-1.13249-.4036-.24351-.1546-.46957-.335-.67423-.538-.08136-.1071-.511519-.269-.592652-.4575-.081132-.1886-.51062-.7001-.51062-.862-.007602-.1908-.084898-.3723-.217328-.5102-.1353727-.4904-.19895886-.9978-.1887852-1.5063.0216654-.4906.1316702-.9733.3247562-1.4251.236808-.5108.598293-.9541 1.051359-1.2895.45209-.3747 1.00465-.6086 1.58894-.6725.11025.0023.21963.02.32498.0524.10184.034.19288.0942.26392.1746.07103.0803.11954.178.14062.283-.03123.1326-.10718.2505-.21515.334-.10797.0834-.24139.1274-.37795.1244-.33163-.0217-.66377.0338-.97022.1621-.32476.1345-.40589.2146-.43219.4291-.02629.2145-.21575.2426-.21575.4571 0 .1621-.21508.3504-.21508.5102 0 .0547.08113.081.10743.1357.0331.0668.05105.14.05259.2145 0 .1345-.0263.269-.0263.3766-.004.0553.00501.1107.0263.1619.1099.241.05506.6725.1099.751.15781.3704.35651.7221.59242 1.0487.29644.243.37758.1883.51152.3502.22836.2217.49244.4035.78122.538.50736.0892 1.02161.1338 1.5368.1331.24362 0 .62119-.1333.86257-.1333.06391.0137.12695.0312.18878.0524.2697-.0262.72863-.269.88887-.269.08113 0 .21733.0285.37757.0285.10968 0 .21733 0 .26969-.0547.22104-.1992.46574-.3706.72863-.5103.379-.1839.72466-.4296 1.02281-.7268.30372-.257.63932-.4741.9985-.6458.1077-.0525.5116-.5912.6743-.6983.1627-.1072.5115-.4838.6742-.6174.1627-.1336.8077-.8604 1.2664-1.3989.4325-.538.6475-.5649 1.0251-1.1012.3511-.538.2697-.6196.485-.6458.2962-.0547.1625-.3504.3511-.5912.2713-.4127.568-.8083.8884-1.1845.2099-.1958.3996-.4122.5661-.6459.0263-.0525-.1625-.1861-.2962-.267-.1625-.0812-.4324-.484-.7552-.6725-.351-.1883-.6474-.6459-.9439-.6459-.1058-.0008-.2104-.0227-.3077-.0645-.0972-.0417-.1851-.1024-.2584-.1785-.104-.105-.2313-.1839-.3717-.2303-.1404-.0465-.2898-.0591-.436-.0369-.2499.0098-.4989-.0361-.7287-.1345-.2095-.1621-.464-.256-.7288-.269-.3225 0-.8624-.0527-1.319-.0527-.75563 0-1.1586.2145-1.26827.4028zM23.5066 4.38292c-.1362 0-.2436.13451-.3247.15984-.1641.13454-.3013.29865-.4046.48378-.1338.23482-.2968.45182-.4852.64586-.1623.21454-.7812 1.39888-.9174 1.53249-.1866.18831-.2151.53803-.4046.59093-.2697.08116-.5926.88887-.834 1.15811-.2173.24099-.2697.42908-.5138.61739-.215.18831-.2413.59118-.4045.80568-.1348.243-.0814.2977-.2436.324-.1866.0264-.1603.429-.4046.7794-.2416.3217-.2964.2955-.4045.6726-.0452.0832-.0728.1747-.0811.269 0 .1074.0548.1598.1622.269.1798.2482.3419.5086.485.7795.2151.269.4853.6725.6743.9128.2416.324.5394.565.5663.7268.081.2583.2295.4904.4302.6725.2302.2825.4296.5886.5949.9131.0263.0547.0526.081.1074.081.0416-.0029.0807-.0206.1102-.05.0294-.0294.0472-.0684.0501-.1099 0-.0285-.0263-.1883-.0263-.3239-.0041-.1305.0249-.2599.0845-.3762.1018-.2648.1387-.55.1076-.8319 0-.324.1074-.8071.1623-1.4251.0528-.5912.1888-1.1034.3227-2.1784.0462-.3331.1369-.6585.2697-.9675.0262-.4068.0805-.81129.1625-1.2106.1886-.53623.2414-.83417.3225-1.07494.0548-.18831.3227-1.29149.4302-1.47958.0983-.23876.1533-.49304.1625-.751 0-.16208.2436-.51224.2962-.78148.0526-.26924.1362-.42908.1362-.53646.0002-.08228-.029-.29682-.1886-.29682zm17.6718 8.25338c.0962.1523.1436.3303.136.5102.0043.2804-.0605.5575-.1888.8071-.187.2681-.3584.5466-.5136.8341-.0218.0783-.0307.1596-.0263.2408 0 .1345.0263.2955.0263.4575-.0046.1091-.0223.2171-.0526.322-.1625.538-.1625 1.3177-.3227 1.8279-.07.1349-.116.2808-.136.4313 0 .081.0812.1884.0812.2691-.0505.5152-.1319 1.0269-.2437 1.5324.2174-.0811.3513-.0811.485-.1358.2123-.0771.4198-.167.6212-.269.2005-.0958.3903-.2125.5662-.3482.2945-.1536.5744-.3337.8362-.538.2151-.1883.4046-.6983.6453-.6983.2407 0 .325.1345.325.269.0043.0673-.0152.1339-.0551.1883-.5205.7179-1.1916 1.3141-1.9665 1.747-.5267.3072-1.1006.5255-1.6986.6459-.1004.3422-.2794.6564-.5228.9175-.2435.2611-.5447.4619-.8796.5865-.496.2016-1.0272.3028-1.5627.2977-.4956.005-.9883-.0772-1.4552-.243-.4451-.1728-.836-.4607-1.1325-.8342-.3284-.4442-.6087-.9219-.8363-1.4251-.2561-.3741-.4049-.8109-.4301-1.2632.0216-.2079.0859-.4091.1887-.5912.1075-.2145.1888-.3764.4046-.3764.1291.0085.2562.0357.3773.081.1488.0433.304.0611.4587.0524.5141-.1116.9834-.3729 1.3485-.7508.7264-.6458 1.5078-1.4253 2.1816-2.1259.0548-.0524.1886-.0262.2436-.0809.0551-.0547.0549-.186.0812-.2672.1074-.2166.215-.243.3225-.3502l1.2136-1.2632c.2929-.3105.6663-.5341 1.0788-.6459.149.0238.2883.0893.4016.1888zm-6.4682 8.0126c-.0024.0638.0066.1276.0266.1883.2127.3454.5508.5955.9439.6983.1824.1027.3841.1669.5924.1883.2731-.0137.5398-.0869.7814-.2145.118-.0661.2187-.159.2938-.2713.0752-.1122.1227-.2406.1386-.3746-.215 0-.4045.0265-.5926.0265-.1275-.0027-.2542-.0204-.3776-.0527-.0548 0-.1622-.1345-.2962-.1345-.0548 0-.0811.0547-.1097.0547-.0263.0262-.1076.0262-.1348.0262-.0548 0-.1349-.0262-.1625-.0262-.3225 0-.6187-.3766-.8075-.3766-.0745.0046-.1474.0232-.2151.0547-.0807.0515-.0541.1325-.0807.2134zm1.0777-.8071c.4629.2177.9721.3192 1.4833.2955.1756-.0038.349-.0402.5113-.1071.0531-.2998.125-.5959.2151-.8867 0-.0527-.0263-.1074-.0263-.1883.0263-.0811.1625-.269.1888-.3766 0-.0262-.0812-.0525-.0812-.1072 0-.5102.2697-.8341.2697-1.4515 0-.2146.1623-.5912.1623-.8342 0-.0809.2416-.9415.2151-.9415-.0549 0-.2437.2954-.2962.3239-.5585.3738-1.0429.8474-1.4287 1.3969-.4515.508-.9377.9842-1.4553 1.4251-.1541.1164-.2826.2632-.3775.4313-.0286.0809-.0549.0809-.0549.1074.0134.0554.0318.1096.0549.1618-.0146.0796-.0241.16-.0286.2408 0 .0549 0 .0811.0286.1074.1894.2141.4312.2432.6196.403z"/><path d="M46.7353 13.6041c.1578.0106.3127.0468.4587.1072.2697.1883.1349.4313.2965.5911.0687.0954.1317.1948.1885.2977.022.0693.031.142.0266.2146 0 .5649-.4302 1.0487-.6743 1.6661-.0528.1345-.1888.2954-.2416.4311-.1885.4293-.3773.8604-.5394 1.2894-.0811.2431-.0548.4314-.1348.6726-.136.3241-.1623.7795-.3511 1.1561-.0262.0809-.1076.0547-.1887.269-.0216.0694-.0305.142-.0263.2145v.1621c-.0501.1751-.0774.356-.0814.538 0 .081.0265.1345.0265.1883 0 .1072.0812.1334.1623.1334.0814.0044.163-.0044.2416-.0262.1937-.0467.3831-.1097.5661-.1883l.1077-.1881c.2171-.1345.4322-.2145.6472-.3504.2397-.2373.4648-.4888.6743-.753.055-.0789.1888-.0789.2436-.1598.1884-.1535.3521-.335.4852-.5381.0812-.1071.3488-.2407.4587-.3501.3225-.2146.9152-1.1012 1.1851-1.1012.0498-.0044.1.0013.1475.0167.0475.0153.0915.0401.1293.0728.0377.0326.0685.0726.0904.1174.022.0447.0347.0935.0373.1433.0011.0375-.008.0745-.0262.1073-.1985.3215-.4441.6115-.7287.8604l-.1888.0525c-.1467.2006-.3089.3894-.485.5649-.4852.4576-1.0513.7793-1.5078 1.2631l-.2173.269c-.0814.0547-.1888.0262-.2964.0809-.1338.0809-.2151.2955-.3511.4035-.3178.1605-.6518.2867-.9965.3764-.3364.1372-.6901.2277-1.0511.269-.0528 0-.0814-.0264-.1349-.0264-.4549-.0658-.8737-.2843-1.1873-.6194-.0927-.2397-.1296-.4973-.1077-.7533-.0016-.2253.0167-.4504.0549-.6725.2253-.9891.5504-1.9529.9702-2.8767-.001-.0139-.0072-.027-.0173-.0367-.0102-.0097-.0235-.0153-.0375-.0157-.0528 0-.0528.0809-.1888.1883-.1498.1079-.2934.2241-.4302.3481-.0813.081-.1076.1881-.1888.269-.0869.0649-.1683.1366-.2436.2146-.1257.1596-.2937.2809-.485.3502-.2151 0-.3227-.2431-.3227-.3502 0-.1345.3775-.5102.4587-.6436.0526-.1097.1888-.0812.2697-.1621.0791-.1072.1076-.2955.2151-.4035.0538-.0876.1171-.1691.1887-.243.0812-.081.1888-.1346.2414-.1884.2133-.2474.4112-.5076.5927-.7792.1576-.2515.3291-.4941.5135-.7268.1888-.1883.4046-.5364.7001-.8319.1104-.1233.2277-.2403.3513-.3504.215-.3217.0811-.3502.4045-.51.093-.0417.1947-.0601.2964-.0536zm4.3677-8.03905c.1075.0547.1349.21454.1349.40352-.0102.33768-.0649.67255-.1625.99603-.2151.75324-1.0228 2.36441-1.8326 2.36441-.1888 0-.2416-.15984-.2416-.34792-.0043-.09048.0047-.1811.0265-.26902.1036-.31464.1756-.63874.2151-.96755.0044-.11735-.0045-.23481-.0265-.35017-.0272-.11448-.0455-.23087-.0548-.34815.004-.12942.0316-.25703.0813-.37662.1623-.35017.5136-.48378.7549-.72679.1625-.18831.1888-.56493.5927-.56493.1863.00757.3655.07302.5126.18719z"/><path d="M54.6651 12.5816c.0528-.0789.1602-.0789.2416-.1598.201-.2105.4514-.3678.7286-.4576.2539.1396.482.3216.6742.5381.0509.1841.0782.3739.0812.5649-.0123.3501-.0859.6954-.2174 1.0202-.2442.8024-.5502 1.5848-.9151 2.3402-.0205.2531-.0563.5046-.1075.7533-.1241.2251-.2327.4584-.3249.6983-.1106.3164-.2007.6396-.2697.9675-.0263 0 .0811-.1618.1888-.3217l.2436-.269.5926-.807c.0549-.0525.1888 0 .2436-.0789.1888-.269.4565-.5123.7264-.8602l.9702-1.0225c.5004-.522 1.0619-.9821 1.6724-1.3704.5384-.3241 1.1495-.509 1.7777-.538.2724-.0056.5416.0593.7814.1883.2733.2027.4892.4726.6265.7834.1373.3109.1914.6519.157.9899.0047.1887-.0048.3776-.0285.5649-.0682.2665-.1578.527-.2677.7792l-.0551.486c-.1951.558-.4574 1.0903-.7812 1.5852-.1185.2009-.2269.4077-.3247.6194-.1077.1599-.3491.3219-.4567.484l-.2437.3764c-.5925.5634-1.2531 1.051-1.9665 1.4516-.1096.0809-.1359.1883-.2436.2407-.4715.1881-.9735.2884-1.4813.2957-.326.0031-.6494-.0595-.9506-.184-.3012-.1246-.5741-.3085-.8024-.5407 0-.0263-.1602-.1621-.1602-.2146-.0549-.1345-.1625-.0547-.1625-.2977 0-.2145.1076-.2954.2151-.2954.047-.0018.0938.0079.1362.0284l.349.1334c.2378.1341.5083.1993.7812.1883.2864-.0018.57-.0567.8363-.1621.3773-.1596.4045-.3217.6209-.4837.3228-.1883.5116-.6726.9966-1.0485.1076-.0812.2962-.0527.3775-.1599.1075-.1358.1075-.3766.1623-.5124.2113-.3982.4451-.7841.7003-1.1559.1959-.361.3583-.7391.485-1.1296.0027-.1466.0301-.2917.0811-.4291.124-.2238.1974-.4718.2151-.7268 0-.4291-.0526-.8319-.2697-.8319-.8701.2087-1.641.7116-2.1816 1.4231-.1625.1618-.6475.6725-.7834.7814-.0814.0787-.1603.0787-.2416.1599-.3914.4014-.7606.8238-1.106 1.2652l-.9965 1.2086c-.2151.3239-.2697.4575-.485.807-.4046.6439-.6743 1.2633-.9988 1.8282-.16.2955-.3488.51-.5113.7793-.1625.3504-.1888.6985-.3227 1.0487-.0391.1868-.1025.3676-.1886.538-.1362.3744-.4061.9131-.4852 1.1561-.0107.0099-.0188.0222-.0238.0359-.005.0137-.0066.0283-.0047.0428 0 .243-.1886.3241-.2414.4313-.1623.3219-.0549.4576-.1349.7268-.3145 1.1363-.7295 2.2426-1.2401 3.3057-.0403.0838-.0584.1764-.0526.269v.2691c.0058.0929-.0131.1857-.0548.269-.3033.7298-.5028 1.4983-.5927 2.2832-.0292.1695-.0468.3407-.0526.5125 0 .1596.0263.5647.0263.9938.0413.3663-.0147.737-.1625 1.0749-.2117.1253-.4538.1904-.7001.1883-.2666-.0004-.528-.0747-.7549-.2145-.1625-.1074-.3227-.1883-.3775-.3481-.0243-.1062-.0331-.2153-.0263-.324.0329-.8075.1498-1.6094.3488-2.3929.1099-.269.1625-.753.3249-1.1296.2151-.753.3489-1.3451.5662-2.0425.0813-.269.3227-.538.3227-.6459.0744-.1195.1376-.2455.1888-.3766 0-.2954 0-.51.1623-.6725.135-.3145.208-.652.215-.994.1542-.9005.4258-1.777.8078-2.6072.0781-.108.1416-.2258.1888-.3504.2173-.324.1624-.6459.2984-1.0223.349-.8868.5927-1.8282.9965-2.7148l.2963-.9675c.0548-.3767.5393-1.5063.5926-1.9091.1636-.5998.3994-1.1777.7023-1.7208.0179-.0521.0268-.1069.0263-.1619 0-.0547 0-.0812-.0548-.0812-.0263 0-.0528.0265-.1077.055-.1057.0503-.1908.1353-.2413.2407-.0286.1345-.1625.1345-.2174.2168-.3225.3217-.5376.6983-.8077 1.02l-.4322.4036c-.349.405-1.0513 1.3179-1.4815 1.3179-.0455.0059-.0905.0147-.1348.0262-.0834-.0236-.1586-.0698-.2174-.1334-.01-.0108-.0175-.0236-.0221-.0376-.0045-.0141-.0059-.0289-.0042-.0435 0-.1072.1625-.2408.2151-.3217.1453-.1849.3077-.3557.485-.5102.4324-.4576.9988-1.1844 1.5101-1.7755.0548-.0547.2436-.1072.2962-.1619.1888-.1883.2153-.4291.3776-.6458.1089-.1495.2262-.2928.3512-.4291.0526-.0812.0812-.3766.1603-.4291.1359-.1883.485-.5934.7549-.8889.2418-.3214.3229-.3214.5929-.6454zm23.2163 6.6422h.2436c.1744.0109.3491-.0167.5115-.0809.1729-.043.337-.1156.485-.2146.1386-.0556.274-.1184.4059-.1883.2086-.1378.4066-.2907.5927-.4575.1076-.0812.2151-.1883.349-.1883.075.0295.1388.0817.1825.1493.0436.0675.065.147.0611.2273 0 .1618-.7.6194-.8362.6983-.1404.1297-.3053.2301-.485.2955-.0729-.0046-.146.0051-.2151.0284-.0811.0263-.1077.1074-.1888.1345-.3723.1276-.7657.1826-1.1588.1619-.362.025-.7222-.0695-1.025-.269-.2151.4035-.2414.269-.485.5912l-.0526.0809c-.2348.358-.516.6834-.8363.9678-.1349.0809-.2151.0547-.3248.1618-.0791.0812-.1076.2957-.1888.3504-.0263 0-.0262.0262-.1076.0787-.2634.2429-.5633.4431-.8889.5934-.4228.1572-.87.2387-1.3212.2408-.3808.0279-.762-.0473-1.1035-.2176-.3414-.1703-.6305-.4294-.8365-.75-.2413-.5211-.3521-1.0928-.3228-1.6661-.0136-.4734.0501-.9459.1888-1.3989.1349-.3219.0789-.6458.2677-.9151.0573-.0681.1204-.1311.1888-.1883.1625-.267.1888-.6436.3512-.9128.3066-.458.6393-.898.9963-1.318.0814-.1074.1888-.1074.2697-.1883.0814-.1074.1888-.2955.2697-.3766.4476-.4353.9673-.79 1.5362-1.0485.0409-.0242.089-.0335.1361-.0264h.1888c.3478-.049.6903-.1303 1.0228-.2431.1703-.0218.342-.0305.5136-.0262.5316-.0072 1.0445.1959 1.4264.5649.1788.1845.3169.4043.4054.6452.0885.241.1254.4977.1084.7537v.1883c0 .1072-.055.1599-.0813.267.0043.1443-.0045.2887-.0263.4313-.0604.3123-.1507.618-.2697.9129-.0417.6825-.2652 1.3416-.6475 1.9091.0921.0887.2025.1563.3235.198.121.0418.2496.0568.377.0439zm-1.2927-4.7595c-.0549 0-.1338.0264-.1888.0264-.6473.1094-.7001.269-1.2399.6459-.2695.2337-.5137.4948-.7287.7792-.2448.2324-.4703.4842-.6742.753-.1076.1883-.0265.3504-.349.565-.1362.0809-.3776.1356-.4587.269 0 .1345.0811.2957.0811.3766-.1185.458-.2909.9004-.5135 1.3179-.1011.2281-.1905.4612-.2677.6984v.538c0 .5365.0789.751.3488.9678.1862.1126.405.1596.6212.1334.3877-.0039.761-.1472 1.0514-.4036.2898-.1978.5524-.4327.7812-.6985.4215-.4416.7918-.9292 1.1039-1.4536-.2134-.2836-.3774-.6011-.485-.9391-.0288-.1333-.0463-.2688-.0526-.4051v-.6967c.0236-.1661.0875-.324.1861-.4598.0987-.1359.2292-.2456.3801-.3197.1623-.108.3455-.181.5378-.2145.2962 0 .4324 0 .5661.1345l.0265-.2408c0-.0549.0812-.1621.0812-.2168 0-.0811-.0812-.1883-.0812-.2407-.0265-.269 0-.565-.1865-.7533-.071-.0673-.1567-.117-.2504-.1453-.0937-.0283-.1928-.0344-.2892-.0176z"/><path d="M80.3944 23.9284c-.0068-.1352.0028-.2707.0286-.4035.1602-.7268.0789-1.5872.2962-2.2855.0384-.0754.0835-.1472.1348-.2146.0665-.221.1208-.4455.1625-.6725.1601-.538.2697-1.0487.4587-1.5872.1636-.3589.3072-.7265.4302-1.1012-.0349-.0128-.071-.0223-.1076-.0284-.2952.4563-.6591.8646-1.0788 1.2105-.097.0228-.1968.0317-.2962.0263-.07-.0202-.1316-.0624-.1755-.1204-.044-.058-.0679-.1287-.0682-.2013 0-.0263.0263-.081.0263-.1074.055-.2435.1766-.467.3513-.6457.2681-.1954.5205-.4113.7549-.6458.2845-.3919.6004-.7599.9448-1.1005.2414-.2957.1349-.8071.3228-1.0487.0472-.0605.1017-.1149.1622-.1621l.0529-.2955c.1622-.4838.3773-.9151.5393-1.3989.6526-2.0219 1.5201-3.96836 2.5878-5.80619.1074-.08092.1622-.24301.2436-.32393.1865-.26902.3225-.67254.4301-.77947.4302-.42908 1.5364-2.44535 2.6426-2.9029.4156-.2466.8903-.37671 1.3739-.37662.1769-.00922.3531.02779.5112.10738.2465.14144.4511.34529.5931.59094.1421.24564.2166.52435.216.80794 0 .21454-.0285.48378-.0548.72477-.1132.57475-.2664 1.14091-.4587 1.69435-.0528.18831-.2416.48377-.2679.61738-.0263.13362-.1888.40509-.3776.8604-.1871.45688-.4415.88334-.7549 1.26527-.2136.33461-.4575.64898-.7286.93928-.0811.1094-.1888.0547-.3776.269-.1888.2144-.1888.5123-.5376.9676-.3488.4553-.5663.8604-.9174 1.2917-.1348.1599-.8363.8604-.9965 1.0487-.2399.2635-.502.5059-.7835.7246-.0263.0284-.0528.0284-.5641.538-.5674.546-.9372 1.2644-1.0513 2.0425-.1888.538-.4587 1.1559-.6475 1.7208-.0255.1994-.0614.3974-.1074.5932-.3248.9678-.2697 1.504-.5394 2.2308-.08.3996-.1342.804-.1623 1.2105-.1602.5912-.2414 1.3157-.4565 1.9089-.0231.05-.033.105-.0285.1599 0 .243.1074.5911.1074.7532 0 .243-.1602.4576-.1602.6983.0243.0607.042.1239.0528.1883-.0567.1737-.0842.3555-.0814.5381 0 .1073.0286.2145.0286.3219 0 .2955-.2436.5932-.2436.9151-.004.0552.005.1107.0263.1618.0236.0781.0333.1597.0285.241 0 .269-.0811.591-.0811.834.0022.092.02.1829.0526.269.0482.0812.0761.1728.0813.267 0 .1621-.0813.2977-.0813.4313.0285.7793.1362 1.9901.809 2.1784.0699.02.1425.0288.2151.0262.3248 0 .5927-.2146.7549-.7795.0266-.1356.1077-.4035.1077-.4838.0486-.2428.1306-.4778.2436-.6983.0958-.262.1678-.5321.2151-.807.1625-.3764.2697-.8867.4045-1.2633.1075-.3764.0812-.9151.1623-1.2105.0408-.2224.068-.447.0814-.6726 0-.1345.1602-.2145.1887-.3766-.0527-.1185-.0804-.2467-.0813-.3764-.0065-.1167.0023-.2337.0263-.3481.0819-.3159.1181-.6418.1076-.9678 0-.5647-.0526-1.1844-.0811-1.5345 0-.4291.0811-.8582.0811-1.2895.0044-.135-.0044-.2702-.0263-.4035-.0813-.4576-.0813-.8867-.1348-1.3451-.0367-.3903-.1375-.772-.2985-1.1296-.1602-.243-.5926-.2691-.5926-.565 0-.0262.0285-.0809.0285-.1071.0627-.243.1723-.4715.3228-.6726.1131-.0375.2318-.056.351-.0547h.1349c.7.0547.6475.5647 1.3212.7531.3097.0706.6263.1065.944.1071.3218.0165.6433-.038.9416-.1596.2528-.0752.4904-.1938.7024-.3504l.5375-.4313c.0812-.0787.1362-.1072.1888-.1072.0322-.0006.0642.0052.094.0172.0299.012.057.0299.0797.0526.0228.0227.0407.0497.0527.0795.012.0298.0179.0616.0173.0937 0 .1883-.3513.51-.5113.7246-.2566.1983-.527.3781-.8091.538-.3301.179-.7036.2632-1.0788.243-.2436 0-.4587-.0282-.6212-.0282-.2848.0243-.5712-.0219-.8338-.1345-.0657.133-.0939.2813-.0813.429.0091.1837.0454.365.1076.5381 0 .0262.0263.0547.0263.0811.0258.1959.0354.3935.0286.591v.7532c0 .1619.0262.3764.0262.6983-.0652.7154-.0836 1.4343-.0548 2.1521 0 .1599-.0811.322-.0811.484.0116.2688.0027.5381-.0265.8055-.1075.7795-.2151 1.2633-.2697 1.9091.0263.0962.036.1961.0285.2955-.0433.3838-.1532.7572-.3247 1.1034-.1077.2957-.0263.4291-.1077.6725-.2151.7533-.4045 1.8018-.5924 2.2311-.3776.8601-.6743 2.0972-1.5364 2.3402-.3137.1151-.639.1958-.9702.2407-.0641.0044-.1283-.0045-.1888-.0262-.3683-.0838-.7054-.2696-.9725-.5361s-.4534-.6027-.5373-.9701c-.3066-.9756-.4787-1.9882-.5116-3.0101 0-.243.1077-.4578.1077-.6725 0-.3764-.0814-.753-.0814-1.1297.0207-.1293.0569-.2556.1077-.3764-.0228-.1241-.0316-.2505-.0263-.3766.0057-.4243.0505-.8471.1337-1.2632.0333-.2136.0422-.4303.0265-.6459.0547-.4519.2439-1.1769.2697-1.7961zM90.745 5.91538c.0549-.37662.2172-.56493.2172-.75324-.0065-.23627-.0713-.46729-.1888-.67254-.0512-.06418-.1173-.1149-.1927-.14773-.0753-.03282-.1575-.04676-.2395-.04058-.1167-.00177-.2305.0361-.3228.10738-.5926.21454-.9699 1.23702-1.51 2.07097-.0744.08683-.1559.16736-.2436.24077-.3161.37422-.5622.80212-.7264 1.26325-.3438.6654-.6061 1.36958-.7814 2.09744 0 .0809-.2437.1618-.4322.4838-.1603.3766-.1888.9415-.3776 1.3988-.3248.4879-.5453 1.0374-.6475 1.6141 0 .2146-.0791.269-.0791.5102 0 .0547.0265.0547.0528.0547.1623 0 .485-.4035.5662-.4837.0813-.1074.5926-.6459.6742-.7268.2279-.2231.4357-.4656.6212-.7248.1274-.2861.3-.5499.5113-.7815.055-.0789.3227-.1883.3775-.2672.0301-.1345.0852-.2622.1625-.3764.1921-.2883.3987-.5667.619-.83416.2436-.26902.5394-.53803.7549-.80705.1484-.22129.2576-.46637.3227-.72454.1536-.21264.2721-.44838.3511-.69832 0-.16208.2151-.43132.3513-.88887.0797-.29947.1331-.60528.1597-.91398zm11.275 6.96392c-.005.109-.023.2171-.053.3219-.108.3217-.485.5381-.593.8604-.031.0767-.05.1581-.055.2408 0 .2168.135.2977.352.4313.296.1881 1.4.5647 1.643.753.215.2145.34.5026.349.8057 0 .0547-.026.1072-.026.1619-.167.6366-.411 1.2505-.726 1.8282-.136.4668-.235.9432-.299 1.4251-.054.1924-.08.3914-.079.5911 0 .4313.053.7006.296.8604.123.073.263.1101.405.1072.259.0023.509-.0931.7-.267l.351-.2168c.257-.168.492-.3665.7-.5912.425-.4987.885-.9662 1.377-1.3988.296-.2146.674-.9676 1.158-.9676.053.0285.189.0547.215.1072.043.0551.071.1198.082.1883-.008.041-.027.079-.055.1094-.189.2672-.566.7248-.755.9678-.081.0809-.189.0809-.27.1333-.089.0948-.162.2035-.215.322-.196.202-.413.3824-.647.538-.216.1345-.297.4313-.485.5912-.598.45-1.228.8547-1.886 1.2105-.365.1598-.76.2419-1.159.241-.366.0197-.732-.0538-1.062-.2135-.33-.1597-.614-.4004-.826-.6996-.068-.1423-.096-.3005-.081-.4575 0-.2145.027-.4576.027-.6983.009-.1544-.009-.3092-.055-.4571.013-.2996.058-.5968.135-.8867.135-.5122.189-.9151.351-1.3988.082-.2957.378-.6459.378-.9678.004-.0638-.005-.1279-.026-.1881-.137-.2957-.055-.4576-.459-.5102-.029-.0288-.067-.0479-.108-.0547-.028 0-.055.0262-.081.0547-.289.2389-.5594.4995-.8089.7794-.2668.3734-.5641.7242-.8889 1.0487-.2375.1407-.4552.3122-.6475.5101-.1887.269-.2962.4313-.5375.4313-.0761-.0037-.1489-.0319-.2076-.0804-.0586-.0485-.0998-.1147-.1174-.1886.0047-.0626.0339-.1209.0813-.1621.1657-.1676.319-.3469.4587-.5365.0933-.0955.1922-.1853.2963-.269.2436-.243.5393-.5647.8362-.9151.1603-.1621.3225-.2955.4587-.4575.0789-.1072.2151-.4291.2414-.4554.0811-.1358.1888-.1358.3232-.243.052-.1559.08-.3192.081-.4837-.024-.1154-.033-.2332-.028-.3509v-.3766c-.014-.2842.029-.5684.126-.8359.098-.2676.247-.5132.44-.7228.098-.1045.218-.1866.351-.2408.087-.0269.177-.0452.268-.0547.193.0231.373.1085.513.243.138.1262.224.2983.243.4838z"/><path d="M115.127 19.3308c-.081.055-.244.0812-.299.1345-.107.1094-.135.2691-.241.3504-.167.0795-.329.1694-.485.2691-.215.1345-.729.8341-.97.9937-.163.1074-.352.1074-.485.2168-.189.1074-.729.6436-.918.6436-.539.0285-1.078.4314-1.699.4314-.052 0-.134-.0263-.188-.0263-.189 0-.405.1599-.646.1599-.054 0-.081-.0263-.134-.0263-.054 0-.727-.0811-.782-.0811-.7-.1883-1.079-.4291-1.266-1.0485-.08-.145-.143-.2985-.189-.4575-.178-.5599-.178-1.161 0-1.7208.034-.3182.097-.6327.189-.9394.166-.522.402-1.0196.7-1.4795.026-.0547.27-.2146.296-.2691.081-.1345.081-.2409.218-.4575.112-.1785.248-.3412.404-.484.372-.435.788-.8311 1.24-1.1821.636-.3856 1.359-.6075 2.103-.6459.206-.0044.41.034.6.1127.19.0788.362.1963.504.3449.228.2501.353.5769.351.9151-.001.3529-.104.6982-.297.994-.086.0648-.168.1366-.243.2145-.163.1883-.135.4576-.27.6459-.107.1619-.377.2955-.456.4575-.096.0858-.178.1854-.244.2955-.325.34-.721.6059-1.159.7795-.026.0262-.27.0262-.377.0809-.176.0842-.34.1925-.485.3217-.297.2168-.433.0285-.729.269-.103.2412-.175.4941-.215.753-.024.1151-.033.2328-.026.3502-.006.1705.003.3412.026.5102.136.7268.539.8604.889.8604.172-.0054.344-.0237.513-.0547.907-.1883 1.751-.6043 2.452-1.2085.473-.3286.923-.6876 1.348-1.0749.218-.1621.406-.5381.675-.6197.268-.0816.647-1.1011 1.187-1.1011.107 0 .241.0789.241.186.009.1193-.009.2389-.052.3504-.055.1621-.459.3766-.593.51-.166.1614-.409.6452-.488.7261zm-3.047-4.5972c-.135 0-.244.0809-.404.2145-.189.1619-.244.2955-.459.4576-.325.269-.433.2145-.648.3502-.081.0811-.054.2145-.107.2956-.108.1072-.27.1881-.378.2955-.243.2146-.188.4576-.351.753-.188.3767-.377.3482-.377.9131.099.0556.211.0836.325.0809.288-.0779.568-.1858.834-.3219.24-.0949.467-.2215.674-.3764.081-.0547.136-.1883.217-.269.563-.5179.909-1.2284.97-1.9898.005-.0688-.004-.1378-.028-.2027-.023-.0648-.06-.1241-.108-.1739-.025-.0267-.079-.0267-.16-.0267z"/><path d="M119.551 16.1858c-.035.3649-.107.7254-.215 1.076-.023.1601-.033.322-.028.4838.005.153-.004.3062-.027.4576-.052.2956-.081.8341-.107 1.237-.027.1883-.081.1883-.081.3766 0 .1345.107.1619.107.2955 0 .0809-.026.2954-.026.3766 0 .1071-.163.269-.163.3764 0 .0549.189.269.189.3219.021.5694.131 1.1322.325 1.6681.077.2963.247.5602.485.7533.33.1131.674.1766 1.023.1883.027.0001.054.006.078.0172.025.0111.047.0274.065.0477.017.0203.031.0441.039.0699.008.0258.01.0529.007.0797-.002.0377-.012.0746-.031.1074-.019.0328-.045.0605-.077.0807-.064.0409-.139.0601-.215.0549h-.189c-.798-.0097-1.572-.2736-2.21-.7532-.118-.1325-.245-.2582-.377-.3764-.055-.0812-.027-.1621-.082-.243-.081-.0812-.215-.0527-.269-.1883-.139-.3203-.247-.6532-.323-.9941 0-.0262-.026-.0546-.026-.0809.021-.0317.03-.0696.026-.1074 0-.1071-.107-.1883-.162-.2954-.081-.9416-.134-1.561-.134-2.2046.012-.7199.066-1.4386.162-2.1521-.055 0-.109.1883-.243.3241-.259.3307-.538.6443-.836.9391-.095.0694-.194.1323-.297.1883-.107.0547-.241.2168-.349.2168-.015.0021-.03.0005-.044-.0044-.014-.005-.027-.0132-.037-.0241-.094-.0624-.161-.1577-.189-.2672.027-.1147.072-.2241.135-.3239.055-.0525.136-.0525.189-.1072.044-.0864.099-.1673.162-.241l.297-.243c.192-.2155.364-.4494.511-.6983.292-.3961.545-.8199.755-1.2653.162-.4293.296-1.5589.485-2.0164.325-.9938.592-2.2046.999-3.1459.134-.29551.456-.48383.566-.77929v-.4858c.268-.48378.215-.77924.511-1.28948.135-.21655.43-.48377.485-.75301.3-.72692.689-1.41378 1.159-2.04474.378-.51001.485-.40352.593-.56269.081-.1094 0-.3764.162-.51225.117-.15083.243-.29414.378-.42908.297-.24143.649-.40742 1.025-.48377.287-.12622.601-.1818.915-.16209.119.00222.237.02063.351.0547.321.1376.59.37277.769.67197.179.2992.258.64713.227.99413-.008.42742-.071.85201-.188 1.26325-.082.42266-.227.8307-.43 1.21057-.189.16208-.218.61739-.459 1.15586-.478 1.05597-1.055 2.06402-1.725 3.01032-.244.3766-.675.9415-.944 1.3179-.189.269-.54.3239-.674.5912-.027.0284-.027.243-.135.3501l-.459.4838c-.244.2146-.378.5102-.566.6986-.248.2125-.442.4802-.567.7814-.214.4553-.296.4553-.296.9136zm4.205-11.58762c-.099.16692-.172.3485-.215.53803-.054.13451-.324.21454-.405.34815.027.07875.045.16025.054.24301 0 .02623-.026.05246-.026.08093-.383.59048-.699 1.22115-.944 1.88064-.059.20123-.131.39865-.215.59116-.029.08093-.162.0547-.189.29771 0 .05246-.243.15984-.269.21454 0 .05246.052.18831.052.29547-.095.35911-.239.70325-.43 1.02248l-.377.9938c-.081.2145-.297.4291-.378.6725-.026.0812-.026.3504-.055.4313l-.079.2146c-.146.3809-.246.7778-.298 1.1823.167-.0856.314-.2049.432-.3504.14-.1815.293-.352.459-.51.461-.4292.852-.9278 1.159-1.4778.107-.1621.458-.243.566-.4051.27-.4035.108-.4035.377-.8055.108-.16204.593-.91528.675-1.07601.241-.53803.645-1.3991.862-1.96381.265-.69699.41-1.43334.43-2.17835.001-.14468-.017-.28888-.052-.42908-.081-.21454-.189-.37662-.459-.37662-.459.0816-.405.27036-.675.56605z"/><path d="M125.025 13.6041c.158.0106.313.0468.459.1072.27.1883.135.4313.296.5911.069.0954.132.1948.189.2977.022.0694.031.1421.026.2146 0 .5649-.43 1.0487-.674 1.6661-.052.1345-.189.2954-.241.4311-.189.4293-.378.8604-.54 1.2894-.081.2431-.055.4314-.134.6726-.137.3241-.163.7795-.352 1.1561-.026.0809-.107.0547-.188.269-.022.0693-.031.142-.027.2145v.1621c-.05.1752-.077.356-.081.538 0 .081.026.1345.026.1883 0 .1072.082.1334.163.1334.081.0044.163-.0044.241-.0262.194-.0467.384-.1097.567-.1883l.107-.1881c.217-.1345.432-.2145.648-.3504.239-.2374.464-.4888.674-.753.055-.0789.189-.0789.243-.1598.189-.1535.352-.335.485-.5381.082-.1071.349-.2407.459-.3501.323-.2146.916-1.1012 1.185-1.1012.05-.0044.1.0013.148.0167.047.0153.091.0401.129.0728.038.0326.069.0726.091.1174.022.0447.034.0935.037.1433.001.0375-.008.0746-.027.1073-.198.3216-.443.6116-.728.8604l-.189.0525c-.147.2006-.309.3895-.485.5649-.485.4576-1.051.7793-1.51 1.2631l-.215.269c-.081.0547-.189.0262-.296.0809-.135.0809-.215.2955-.349.4035-.319.1602-.654.2864-.999.3764-.336.1375-.69.228-1.051.269-.053 0-.081-.0264-.134-.0264-.455-.0659-.874-.2844-1.188-.6194-.091-.24-.128-.4973-.107-.7533 0-.2253.018-.4502.055-.6725.225-.9891.55-1.9529.97-2.8767-.001-.0139-.007-.027-.017-.0367-.011-.0097-.024-.0153-.038-.0157-.053 0-.053.0809-.189.1883-.149.108-.293.2242-.43.3481-.081.081-.107.1881-.189.269-.087.0649-.168.1367-.243.2146-.126.1596-.294.2809-.485.3502-.215 0-.323-.2431-.323-.3502 0-.1345.378-.5102.459-.6436.052-.1097.189-.0812.27-.1621.078-.1072.107-.2955.215-.4035.053-.0878.117-.1693.188-.243.082-.081.189-.1346.242-.1884.213-.2474.411-.5076.592-.7792.158-.2515.33-.4941.514-.7268.189-.1883.405-.5364.7-.8319.11-.1233.228-.2403.351-.3504.215-.3217.082-.3502.405-.51.093-.0416.194-.0599.295-.0536zm4.368-8.03905c.108.0547.135.21454.135.40352-.01.33769-.065.67257-.163.99603-.215.75324-1.022 2.36441-1.832 2.36441-.189 0-.242-.15984-.242-.34792-.004-.09047.005-.18107.027-.26902.103-.31461.175-.63872.215-.96755.004-.11734-.005-.23479-.027-.35017-.027-.11448-.045-.23087-.054-.34815.004-.12939.031-.25699.081-.37662.162-.35017.513-.48378.755-.72679.162-.18831.188-.56493.592-.56493.186.00757.366.07302.513.18719z"/><path d="M136.216 19.3308c-.081.055-.243.0812-.298.1345-.108.1094-.135.2691-.242.3504-.167.0796-.329.1694-.485.269-.215.1346-.728.8342-.97.9938-.162.1074-.351.1074-.485.2168-.188.1074-.729.6436-.917.6436-.539.0285-1.079.4314-1.699.4314-.053 0-.135-.0263-.189-.0263-.189 0-.404.1599-.645.1599-.055 0-.081-.0263-.135-.0263-.054 0-.726-.0811-.781-.0811-.7-.1883-1.079-.4291-1.267-1.0485-.08-.145-.143-.2985-.188-.4576-.182-.5593-.182-1.1614 0-1.7207.034-.3183.097-.6327.188-.9394.167-.522.402-1.0196.7-1.4795.027-.0547.27-.2146.297-.2691.081-.1345.081-.2409.217-.4575.113-.1785.249-.3412.405-.484.372-.4351.787-.8312 1.24-1.1821.636-.3856 1.359-.6075 2.102-.6459.206-.0044.411.034.601.1128s.361.1962.503.3448c.229.2501.354.5769.351.9151 0 .3529-.103.6981-.296.994-.087.0648-.168.1365-.244.2145-.16.1883-.134.4576-.269.6459-.108.1619-.378.2955-.457.4575-.095.0859-.178.1855-.244.2955-.325.34-.72.6059-1.158.7795-.027.0262-.27.0262-.378.0809-.176.0843-.339.1925-.485.3217-.296.2168-.432.0285-.728.269-.103.2412-.175.4941-.216.753-.024.1151-.032.2328-.026.3502-.005.1705.004.3411.026.5102.137.7268.54.8604.889.8604.173-.0055.344-.0237.514-.0547.907-.1883 1.751-.6042 2.451-1.2085.473-.3285.923-.6876 1.349-1.0749.217-.1621.406-.5381.674-.6197s.647-1.1011 1.187-1.1011c.108 0 .242.0789.242.186.008.1193-.01.2389-.053.3504-.055.1621-.459.3766-.593.51-.165.1614-.409.6452-.488.7261zm-3.046-4.5972c-.136 0-.244.0809-.405.2145-.188.1619-.243.2955-.458.4576-.325.269-.433.2145-.648.3502-.081.0811-.055.2145-.107.2956-.108.1072-.27.1881-.378.2955-.243.2146-.189.4576-.351.753-.189.3767-.377.3482-.377.9131.099.0556.211.0836.324.0809.289-.0779.568-.1858.834-.3219.241-.0949.468-.2215.675-.3764.081-.0547.136-.1883.217-.269.563-.5179.909-1.2284.97-1.9898.005-.0687-.004-.1377-.028-.2025-.023-.0649-.059-.1242-.107-.1741-.027-.0267-.08-.0267-.161-.0267z"/><path d="M136.462 23.9285c-.007-.1352.003-.2707.029-.4036.16-.7268.079-1.5872.296-2.2855.038-.0754.083-.1472.135-.2145.066-.221.12-.4456.162-.6726.16-.538.27-1.0487.459-1.5871.164-.3589.307-.7265.43-1.1012-.035-.0128-.071-.0224-.107-.0285-.295.4563-.659.8645-1.078 1.2106-.097.0228-.197.0316-.297.0262-.07-.0201-.131-.0624-.175-.1204-.044-.058-.068-.1286-.068-.2013 0-.0262.026-.0809.026-.1074.055-.2434.177-.4669.351-.6456.269-.1954.521-.4114.756-.6459.284-.392.599-.7603.943-1.1011.242-.2957.134-.8071.323-1.0487.047-.0605.102-.1149.162-.1621l.053-.2955c.163-.4838.378-.9151.539-1.3989.653-2.0219 1.52-3.96836 2.588-5.80619.108-.08093.162-.24301.244-.32394.186-.26902.322-.67254.43-.77947.43-.42908 1.536-2.44535 2.642-2.90289.416-.24655.891-.37667 1.374-.37663.177-.0092.353.02782.512.10739.246.14142.451.34527.593.59091.142.24565.216.52437.216.80796 0 .21454-.029.48378-.055.72477-.113.57478-.266 1.14095-.459 1.69435-.052.18831-.241.48378-.267.61739-.027.13361-.189.40509-.378.8604-.187.45683-.442.88328-.755 1.26526-.214.33455-.458.64899-.729.93929-.081.1094-.188.0547-.377.269-.189.2144-.189.5123-.538.9676-.349.4553-.566.8604-.917 1.2917-.134.1599-.836.8604-.997 1.0487-.24.2635-.502.5059-.783.7246-.027.0284-.053.0284-.564.538-.568.5459-.938 1.2643-1.052 2.0425-.188.538-.458 1.1559-.647 1.7208-.026.1995-.062.3974-.108.5932-.325.9677-.269 1.504-.539 2.2308-.08.3996-.134.804-.163 1.2105-.16.5912-.241 1.3157-.456 1.9089-.023.05-.033.105-.029.1599 0 .243.108.5911.108.7532 0 .243-.16.4576-.16.6983.024.0607.042.1239.052.1883-.056.1737-.084.3555-.081.5381 0 .1073.029.2145.029.3219 0 .2954-.244.5932-.244.9151-.004.0552.005.1107.026.1618.024.0781.034.1596.029.241 0 .269-.081.591-.081.834.002.092.02.1829.052.269.049.0812.076.1728.082.267 0 .1621-.082.2977-.082.4313.029.7793.137 1.99.81 2.1784.069.02.142.0288.215.0262.324 0 .592-.2146.755-.7795.026-.1356.107-.4035.107-.4838.049-.2428.131-.4778.244-.6983.096-.2621.167-.5321.215-.807.162-.3764.27-.8867.404-1.2633.108-.3764.082-.9151.163-1.2105.041-.2224.068-.447.081-.6726 0-.1345.16-.2145.189-.3766-.053-.1186-.08-.2467-.081-.3764-.007-.1167.002-.2337.026-.3481.082-.3159.118-.6418.108-.9678 0-.5647-.053-1.1844-.082-1.5345 0-.4291.082-.8582.082-1.2895.004-.1351-.005-.2702-.027-.4035-.081-.4576-.081-.8867-.134-1.3451-.036-.3903-.137-.772-.298-1.1296-.16-.2431-.593-.2691-.593-.565 0-.0262.029-.0809.029-.1071.063-.243.172-.4714.322-.6726.114-.0375.232-.056.352-.0547h.134c.701.0547.648.5647 1.322.7531.309.0706.626.1065.944.1071.321.0165.643-.038.941-.1596.253-.0751.491-.1937.702-.3504l.538-.4313c.081-.0787.135-.1072.189-.1072.032-.0006.064.0053.094.0173s.057.0299.08.0525c.022.0227.04.0498.052.0795.012.0298.018.0617.018.0937 0 .1883-.352.51-.512.7246-.256.1983-.527.3781-.809.538-.33.179-.703.2631-1.079.243-.243 0-.458-.0282-.621-.0282-.285.0243-.571-.0219-.834-.1345-.065.133-.094.2813-.081.429.009.1837.045.365.107.5381 0 .0262.027.0547.027.0811.025.1959.035.3935.028.591v.7532c0 .1619.027.3764.027.6983-.066.7154-.084 1.4343-.055 2.1521 0 .1599-.081.322-.081.484.011.2688.002.5381-.027.8055-.107.7795-.215 1.2633-.269 1.9091.026.0962.036.1961.028.2955-.043.3838-.153.7572-.325 1.1034-.107.2957-.026.4291-.107.6725-.215.7533-.405 1.8018-.593 2.2311-.377.8601-.674 2.0972-1.536 2.3402-.314.1151-.639.1958-.97.2407-.064.0044-.129-.0045-.189-.0262-.368-.0838-.706-.2696-.973-.5361s-.453-.6027-.537-.9702c-.307-.9755-.479-1.9882-.511-3.01 0-.243.107-.4578.107-.6725 0-.3764-.081-.7531-.081-1.1297.021-.1293.057-.2556.107-.3764-.022-.1241-.031-.2505-.026-.3766.006-.4243.051-.8472.135-1.2632.033-.2137.042-.4303.026-.6459.053-.4513.242-1.1763.268-1.7954zm10.351-18.01305c.054-.37662.217-.56493.217-.75324-.006-.23627-.071-.4673-.189-.67254-.051-.06416-.117-.11486-.193-.14768-.075-.03282-.157-.04677-.239-.04063-.117-.00177-.231.0361-.323.10738-.592.21454-.97 1.23702-1.51 2.07097-.074.08677-.156.1673-.243.24076-.317.37417-.563.80208-.727 1.26325-.344.66536-.606 1.36956-.781 2.09738 0 .081-.244.1619-.433.4838-.16.3766-.188.9416-.377 1.3989-.325.4879-.545 1.0374-.647 1.6141 0 .2145-.08.269-.08.5102 0 .0547.027.0547.053.0547.162 0 .485-.4035.566-.4838.081-.1073.593-.6458.675-.7268.227-.223.435-.4656.621-.7247.127-.2862.3-.55.511-.7815.055-.0789.323-.1883.378-.2672.03-.1345.085-.2622.162-.3764.192-.2882.399-.5667.619-.8342.243-.26901.539-.53803.755-.80704.148-.22123.258-.46633.323-.72455.153-.21258.272-.44833.351-.69832 0-.16208.215-.43132.351-.88887.08-.29942.133-.60524.16-.91397zM127.182 45.3969v.3636c0 .1818-.182.1818-.364.3637-.545.1818-.545.1818-1.272.1818h-23.091c-1.819.1818-3.8186.1818-5.6368.1818-.7273 0-1.4545 0-1.6364-.1818-.1818 0-.3636-.3637-.3636-.5455 0-.3636.7273-.7273 1.2727-.7273h6.5451c.364 0 .728 0 2.728.1819h1.454c1.455 0 2.546.1818 2.909.1818h.182c.546-.1818.364-.1818.909-.1818h15.091c.546-.3637 1.091 0 1.273.1818zm-44.3638.3636c0-.3636 0-.5454-.1818-.9091 0-.1818-.1818-.1818-.1818-.3636 0 0 0-.1818-.1819-.1818l-.1818-.1818s-.1818-.1819-.3636-.1819c0 0-.1818-.1818-.3636-.1818h-.5455c-.1818 0-.3636.1818-.3636.1818-.1819.1819-.1818.1819-.1818.1819 0 .1818 0 .1818-.1819.3636.1819-.1818.1818-.3636.5455-.5455.1818-.1818.5454-.1818.7273 0 .1818 0 .3636.1819.3636.1819v.1818c.1818.1818.1818.1818.1818.3636v.5455-.1819c0 .1819.1818.3637 0 .5455-.1818 0-.1818-.3636-.3636-.5455h-.1818s0-.1818-.1819-.1818c-.1818-.1818-.3636-.5454-.5454-.1818l-.5455.1818v.1818-.1818s-.1818-.1818-.3636-.1818-.3636.1818-.5455.1818c-.1818.1818-.1818 0-.1818 0 0 .1818-.1818.1818-.1818.3637 0 0-.1818.3636 0 .7272L79 46.306l.1818.1818c.1819 0 .1819.1818.3637.3636l.1818.1818.1818.1819c.3637.1818.5455.1818.7273.3636.7273.1818 1.6363-.3636 1.8182-.9091v-.3636c.5454-.5455.3636-.3637.3636-.5455zm4-1.8182c-.1818-.1818 0-.1818 0 0h-1.4545c-.1819 0-.1819 0-.3637.1819 0 0-.1818 0-.1818.1818 0 0-.1818 0-.1818.1818 0 0-.1818.1818-.1818.3636 0 0-.1819.1818-.1819.3637v.5454c0 .1818.1819.3637.1819.3637 0 .1818.1818.1818.1818.1818l.1818.1818c-.1818-.1818-.3636-.1818-.5455-.5455-.1818-.1818 0-.5454 0-.7272.1819-.1819.1819-.3637.1819-.3637h.1818c.1818-.1818.1818-.1818.3636-.1818v-.1818h.5455-.1818.5454c0 .1818-.3636.1818-.5454.1818v.1818s-.1819 0-.1819.1818c-.1818.1819-.5454.3637-.1818.3637l.1818.5454h.1819-.1819S85 46.1241 85 46.306c0 .1818 0 .3636.1818.5454 0 .1818 0 .1818-.1818.1818.1818 0 .1818.1819.3637.1819 0 0 .3636.1818.7272.1818h.3637s.1818 0 .1818-.1818c.1818-.1819.1818-.1819.3636-.3637 0 0 .1818-.1818.1818 0l.1819-.1818c.1818-.1818.3636-.5454.3636-.7273.1818-.7272-.1818-1.8181-.9091-2zm5.0909 1.6364c0-.1818-.1818-.1818-.1818-.1818 0 .1818.1818.1818.1818.7273 0 .1818-.1818.5454-.3636.7272-.1818.1818-.3637.1818-.3637.1818h-.5454v.1819h-.1818s-.1818-.1819-.3637-.1819h.1819c-.1819 0-.3637-.1818-.5455-.1818 0-.1818.3636 0 .5455 0v-.1818h.1818c.1818 0 .7273 0 .3636-.3636v-.7273H91s.1818 0 .1818-.1818c.1819-.1818.1819-.3637 0-.5455 0-.1818.1819-.1818.1819-.1818-.1819-.1818-.1819-.1818-.1819-.3636 0 0-.3636-.3637-.5454-.3637H89.9091c-.1818 0-.3636 0-.3636.1819h-.1818s-.1819.1818-.1819 0c-.3636.1818-.5454.3636-.5454.5454-.5455.3637-.5455 1.4546-.1818 2 0 0 .1818.1818.1818 0 0 0 0 .1818.1818.1818.1818.1818.1818 0 .1818.1818.1819.1819.5455.3637.7273.3637h1.0909s.1818 0 .3636-.1818c0 0 .1819-.1819.3637-.1819.1818-.1818.1818-.3636.1818-.5454v-.3636c.3636-.5455.1818-.5455.1818-.5455zm-44.3636-.7273h-5.6364c-.1818 0-.5455 0-2.3636.1818h-1.2728c-1.2727 0-2.1818.1819-2.5454.1819h-.1818c-.5455-.1819-.3637-.1819-.9091-.1819H21.9091c-.1818 0-.7273.1819-.9091.3637v.3636c0 .1818.1818.1818.3636.3637.3637.1818.5455.1818 1.0909.1818h19.6364c1.6364.1818 3.2727.1818 4.7273.1818.5454 0 1.2727 0 1.4545-.1818.1819 0 .3637-.3637.3637-.5455 0-.5454-.7273-.9091-1.0909-.9091zm15.6363 0s-.1818.1818-.1818 0-.3636-.1818-.5454-.1818c-.1819 0-.3637 0-.3637.1818l-.5454-.1818c-.1819-.3636-.3637 0-.5455.1818l-.1818.1818h-.1818c-.1818.1819-.1818.5455-.3637.5455v-.9091s.1819-.1818.1819-.3636v-.1818s.1818-.1819.3636-.1819h.7273c.3636.1819.3636.3637.5454.5455 0-.1818 0-.1818-.1818-.3636 0 0 0-.1819-.1818-.1819 0 0-.1818-.1818-.3637-.1818h-.5454c-.1818 0-.3636 0-.3636.1818-.1819 0-.1819.1819-.3637.1819l-.1818.1818s0 .1818-.1818.1818c0 .1818-.1818.1818-.1818.3636s-.1819.5455-.1819.9091v.3637s-.1818-.0001 0 .1818c.1819.7272 1.091 1.2727 1.8182.9091.1819 0 .5455-.1819.7273-.3637 0 0 .1818 0 .1818-.1818l.1818-.1818c.1819 0 .1819-.1818.3637-.3636 0 0 0-.1819.1818-.1819 0-.1818.1818-.3636.1818-.3636v-.7273c.3637.1818.1818 0 .1818 0zm-4.3636-.1818c-.1818-.1818-.1818-.1818-.1818-.3636l-.1818-.1818s-.1819 0-.1819-.1819c-.1818 0-.1818-.1818-.3636-.1818h-1.0909s-.1818 0-.1818.1818c0 0 0-.1818-.1818 0-.7273.3637-1.091 1.2728-.7273 2 0 .1819.1818.3637.3636.7273l.1818.1818h.1819c.1818.1818.1818.1818.3636.3637 0 0 .1818 0 .1818.1818h.3637c.1818 0 .7272 0 .7272-.1818.1818 0 .1818-.1819.3637-.1819l-.1819-.1818c.1819-.1818.1819-.3636.1819-.5454 0-.1819-.1819-.3637-.1819-.3637h-.1818.1818l.1819-.5454c.3636-.1818-.1819-.3637-.1819-.3637s-.1818 0-.1818-.1818v-.1818c-.1818-.1818-.5454 0-.5454-.1818h.5454-.1818.5455v.1818s.1818 0 .3636.1818H59s.1818.1818.1818.3637c.1819.1818.1819.5454 0 .7272-.1818.3637-.3636.5455-.5454.5455.1818 0 .1818 0 .1818-.1818 0 0 .1818 0 .1818-.1818 0 0 .1818-.1819.1818-.3637v-.5454c-.3636-.3637-.3636-.5455-.3636-.5455zm-5.4546-.7273l-.1818-.1818H53c-.1818 0-.3636 0-.3636-.1818h-.7273c-.1818 0-.5455.3636-.5455.3636-.1818 0-.1818.1819-.1818.3637 0 0 .1818 0 .1818.1818v.5454c0 .1819.1819.1819.1819.1819h.1818v.7272c-.1818.3637.1818.1818.3636.3637h.1818v.1818c.1819 0 .5455-.1818.5455 0-.1818.1818-.3636.1818-.5455.1818h.1819c-.1819 0-.1819.1818-.3637.1818h-.1818v-.1818h-.5455c-.1818 0-.1818 0-.3636-.1818s-.3636-.3636-.3636-.7273c0-.5454.1818-.5454.1818-.7273l-.1818.1819v.5454c0 .1818.1818.3636.1818.5455 0 .1818.1818.1818.3636.1818.1818.1818.1818.1818.3637.1818h1.0909c.1818 0 .5454-.1818.7272-.3636.1819-.1819.1819 0 .1819-.1818l.1818-.1819c0 .1819.1818 0 .1818 0 .3636-.5454.3636-1.6363-.1818-2 0 .1819-.1818.1819-.3637 0zm24.3637 1.8182c0 .3637-.1818.9091-.5455.9091-.3636 0-.9091.5455-1.2727.7273-.3636.3636-.1818.3636-.7273.5454-.5454.3637-.5454.3637-.9091.7273l-.7272.9091c0 .1818-.1818.7273-.3637.9091-.1818.1818-.1818.5455-.3636.7273-.1818.1818 0 1.0909-.7273 1.2727h-.3636c-.3636 0-.5455-.1818-.9091-.9091-.3636-.9091-.5454-1.2727-.7273-1.4545-.3636-.1819-.9091-.5455-.9091-.5455v-.3636s0-.1819-.1818-.3637c0-.1818 0-.7272-.5454-.9091-.5455-.1818-1.091-.7272-1.4546-1.0909-.3636-.1818-1.2727-.9091-1.4545-.9091-.1818 0-.3637 0-.3637-.3636 0-.5454.3637-.9091.5455-1.0909.5454 0 .9091 0 1.2727-.3636.3636-.1819.5455-.5455.7273-.5455.3636-.1818.7273-.5454.9091-.7273 0-.1818.5454-.1818.7273-.7272l1.0909-1.4546c.1818-.3636.7272-2.1818 1.2727-2.1818s1.0909.9091 1.0909 1.2727c0 .5455 0 1.2727.1818 1.4546.1818.1818 0 .3636.5455.7272.5454.1819.5454.7273.7272.9091.3637.3637.5455.7273.9091.9091.1819 0 .7273.7273 1.091.9091.5454.5455 1.4545.5455 1.4545 1.0909zm-2.1818.3637c0-.1819-.5455-.7273-.5455-.7273l-1.0909-1.0909c-.1818-.1818-.9091-.5455-.9091-.7273-.1818-.1818-.3636-.9091-.5454-1.0909-.1819-.3636-.9091-.9091-.9091-.9091-.3637 0-.3637.5455-.7273.9091-.3636.1818-.7273.5454-.7273.7273-.1818.1818-.9091.7272-1.0909 1.0909-.1818.3636-.7273.3636-1.0909.7272-.3636.1819-.5454.9091-.5454.9091.1818.1819.1818.5455.7272.7273.7273.3637.9091.7273 1.2728 1.0909.5454.3637.909.5455 1.0909.9091.3636.3636.5454 1.0909.7272 1.2727.1819.1819.9091-.5454.9091-.5454L73 48.306c.3637-.3637.5455-.5455 1.0909-1.2728 1.0909-.7272 1.2728-.909 1.4546-.909z"/></g><path d="M130 134.902v.391c0 .195-.195.195-.39.39-.586.195-.586.195-1.366.195h-24.781c-1.951.195-4.0972.195-6.0484.195-.7805 0-1.561 0-1.7561-.195-.1951 0-.3902-.39-.3902-.585 0-.391.7804-.781 1.3658-.781h7.0249c.39 0 .78 0 2.926.195h1.561c1.561 0 2.732.195 3.122.195h.195c.586-.195.391-.195.976-.195h16.195c.585-.39 1.171 0 1.366.195zm-47.6098.391c0-.391 0-.586-.1951-.976 0-.195-.1951-.195-.1951-.39 0 0 0-.195-.1952-.195l-.1951-.195s-.1951-.196-.3902-.196c0 0-.1951-.195-.3903-.195h-.5853c-.1951 0-.3903.195-.3903.195l-.1951.196c0 .195 0 .195-.1951.39.1951-.195.1951-.39.5853-.586.1952-.195.5854-.195.7805 0 .1952 0 .3903.196.3903.196v.195c.1951.195.1951.195.1951.39v.585-.195c0 .195.1951.39 0 .586-.1951 0-.1951-.391-.3902-.586h-.1952s0-.195-.1951-.195c-.1951-.195-.3902-.585-.5854-.195l-.5853.195v.195-.195s-.1951-.195-.3903-.195c-.1951 0-.3902.195-.5853.195-.1951.195-.1951 0-.1951 0 0 .195-.1952.195-.1952.39 0 0-.1951.391 0 .781l.1952.39.1951.195c.1951 0 .1951.195.3902.39l.1951.196.1952.195c.3902.195.5853.195.7804.39.7805.195 1.7561-.39 1.9513-.976v-.39c.5853-.585.3902-.39.3902-.585zm4.2927-1.952c-.1951-.195 0-.195 0 0h-1.561c-.1951 0-.1951 0-.3902.196 0 0-.1951 0-.1951.195 0 0-.1952 0-.1952.195 0 0-.1951.195-.1951.39 0 0-.1951.195-.1951.39v.586c0 .195.1951.39.1951.39 0 .195.1951.195.1951.195l.1952.195c-.1952-.195-.3903-.195-.5854-.585-.1951-.195 0-.586 0-.781.1951-.195.1951-.39.1951-.39h.1951c.1952-.195.1952-.195.3903-.195v-.195h.5853-.1951.5854c0 .195-.3903.195-.5854.195v.195s-.1951 0-.1951.195c-.1951.195-.5854.39-.1951.39l.1951.586h.1951-.1951s-.1951.195-.1951.39 0 .39.1951.585c0 .196 0 .196-.1951.196.1951 0 .1951.195.3902.195 0 0 .3903.195.7805.195h.3903s.1951 0 .1951-.195c.1951-.195.1951-.195.3902-.391 0 0 .1951-.195.1951 0l.1952-.195c.1951-.195.3902-.585.3902-.78.1951-.781-.1951-1.951-.9756-2.147zm5.4634 1.757c0-.196-.1951-.196-.1951-.196 0 .196.1951.196.1951.781 0 .195-.1951.585-.3902.78-.1952.196-.3903.196-.3903.196h-.5854v.195h-.1951s-.1951-.195-.3902-.195h.1951c-.1951 0-.3902-.196-.5854-.196 0-.195.3903 0 .5854 0v-.195h.1951c.1952 0 .7805 0 .3903-.39v-.78h.1951s.1951 0 .1951-.196c.1951-.195.1951-.39 0-.585 0-.195.1951-.195.1951-.195-.1951-.195-.1951-.195-.1951-.39 0 0-.3902-.391-.5854-.391H90c-.1951 0-.3903 0-.3903.196h-.1951s-.1951.195-.1951 0c-.3903.195-.5854.39-.5854.585-.5854.39-.5853 1.561-.1951 2.146 0 0 .1951.195.1951 0 0 0 0 .195.1951.195.1952.196.1952 0 .1952.196.1951.195.5853.39.7804.39h1.1708s.1951 0 .3902-.195c0 0 .1951-.195.3903-.195.1951-.196.1951-.391.1951-.586v-.39c.3902-.585.1951-.585.1951-.585zm-47.6097-.781h-6.0488c-.1951 0-.5854 0-2.5366.195h-1.3659c-1.3658 0-2.3414.195-2.7317.195h-.1951c-.5854-.195-.3902-.195-.9756-.195H17.0244c-.1952 0-.7805.195-.9756.39v.391c0 .195.1951.195.3902.39.3902.195.5854.195 1.1707.195h21.0732c1.7561.195 3.5122.195 5.0732.195.5853 0 1.3658 0 1.5609-.195.1952 0 .3903-.39.3903-.585 0-.586-.7805-.976-1.1707-.976zm16.7804 0s-.1951.195-.1951 0-.3902-.195-.5854-.195c-.1951 0-.3902 0-.3902.195l-.5854-.195c-.1951-.39-.3902 0-.5853.195l-.1951.195h-.1952c-.1951.195-.1951.586-.3902.586v-.976s.1951-.195.1951-.39v-.195s.1951-.196.3903-.196h.7804c.3903.196.3903.391.5854.586 0-.195 0-.195-.1951-.39 0 0 0-.196-.1951-.196 0 0-.1952-.195-.3903-.195h-.5853c-.1952 0-.3903 0-.3903.195-.1951 0-.1951.196-.3902.196-.1952.195-.1951.195-.1951.195s-.0001.195-.1952.195c0 .195-.1951.195-.1951.39s-.1951.585-.1951.976v.39s-.1951 0 0 .195c.1951.781 1.1707 1.366 1.9512.976.1951 0 .5854-.195.7805-.391 0 0 .1951 0 .1951-.195l.1951-.195c.1952 0 .1952-.195.3903-.39 0 0 0-.195.1951-.195 0-.195.1951-.39.1951-.39v-.781c.3903.195.1951 0 .1951 0zm-4.6829-.195c-.1951-.195-.1951-.195-.1951-.39l-.1951-.195s-.1951 0-.1951-.196c-.1952 0-.1952-.195-.3903-.195h-1.1707s-.1951 0-.1951.195c0 0 0-.195-.1952 0-.7805.391-1.1707 1.366-.7805 2.147 0 .195.1952.39.3903.78l.1951.195h.1951c.1952.196.1951.196.3903.391 0 0 .1951 0 .1951.195h.3902c.1952 0 .7805 0 .7805-.195.1952 0 .1951-.195.3903-.195l-.1951-.196c.1951-.195.1951-.39.1951-.585 0-.195-.1951-.39-.1951-.39h-.1952.1952l.1951-.586c.3902-.195-.1951-.39-.1951-.39s-.1952 0-.1952-.195v-.195c-.1951-.195-.5853 0-.5853-.195h.5853-.1951.5854v.195s.1951 0 .3902.195h.1951s.1952.195.1952.39c.1951.195.1951.586 0 .781-.1952.39-.3903.585-.5854.585.1951 0 .1951 0 .1951-.195 0 0 .1951 0 .1951-.195 0 0 .1952-.195.1952-.39v-.586c-.3903-.39-.3903-.585-.3903-.585zm-5.8537-.781l-.1951-.195h-.1951c-.1951 0-.3902 0-.3902-.195h-.7805c-.1951 0-.5854.39-.5854.39-.1951 0-.1951.196-.1951.391 0 0 .1951 0 .1951.195v.585c0 .195.1951.195.1951.195h.1952v.781c-.1952.39.1951.195.3902.39h.1951v.195c.1951 0 .5854-.195.5854 0-.1951.195-.3903.195-.5854.195h.1951c-.1951 0-.1951.195-.3902.195h-.1951v-.195h-.5854c-.1951 0-.1951 0-.3902-.195s-.3903-.39-.3903-.78c0-.586.1952-.586.1952-.781l-.1952.195v.586c0 .195.1952.39.1952.585 0 .195.1951.195.3902.195.1951.195.1951.195.3902.195H50c.1951 0 .5853-.195.7804-.39.1952-.195.1952 0 .1952-.195l.1951-.195c0 .195.1951 0 .1951 0 .3903-.586.3903-1.756-.1951-2.147 0 .196-.1951.196-.3903 0zm41.9513-22.829h.3902c.1951 0 .3903-.195.5854-.195.1951 0 .3902 0 .5853-.195.3903-.195.5854-.39.7805-.585.1952-.196.3903-.196.5854-.196.1951 0 .3903-.39.3903-.585 0-.195 0-.39-.1952-.585 0-.195-.1951-.391-.3902-.391h-.1951c-.1952 0-.3903 0-.3903.391-.1951.195-.1951.585-.5854.78-.1951.195-.1951.195-.5853.586 0 0-.1951.195-.1951.39 0 0-.1952 0-.3903.195-.1951.195-.5853.39-.7805.585v.391c.1952-.781.1951-.586.3903-.586zm37.8533 6.049v.195c0 .781-.195 1.366-.585 1.756-.195 0-.195.195-.39.195l-.195.391c-.781.78-1.756 1.17-2.927 1.17h-.39c-.976 0-1.757-.39-2.147-.975-.195-.391-.39-.976-.39-1.366 0-.586.195-.976.39-1.366.39-.39.781-.585.976-.585h.195c.39 0 .78.195.78.585 0 .195-.195.585-.585.585-.39 0-.585-.195-.585-.585-.195 0-.586.195-.781.39-.195.195-.195.39-.195.781v.975c0 .195.39.391.39.391.195.39.976.585 1.561.585h.195c.781 0 1.561-.39 2.147-.781l.585-.585c0-.195.195-.585.195-.78.195-.391.195-.781.195-1.171v-.39l-.195-.391c0-.195-.195-.585-.39-.78 0-.195-.195-.39-.195-.39-.195-.196-.39-.196-.585-.391-.196-.195-.391-.39-.781-.585-.39 0-.78-.195-1.171-.195h-.585c-1.171 0-2.146.39-3.122.975h-.39l-.195.196-.586.39c-.39.195-.585.585-1.17.78-.196 0-.391 0-.586.195-.195 0-.195.391-.39.391-.39.195-.781.585-1.171.78-.39.195-.585.586-.975.586-.391.195-.586.39-.976.585-.585.39-1.171.78-1.756.976 0 0-.195.195-.39.195-.781.39-1.171.585-2.147.78-.195.976-.585 1.366-1.561 1.756-.39.195-.975.39-1.561.39-.585 0-1.17 0-1.561-.195-.39-.195-.975-.585-1.17-.975-.586-.586-.781-1.171-.976-1.561-.39.39-.78.585-1.171.975l-.195.391h-.39c-.195 0-.195.39-.39.39-.195.195-.781.39-.976.585-.195 0-.78.195-1.171.195h-.1948c-.5854 0-.9756-.39-1.1707-.78-.1952-.39-.3903-.585-.5854-1.561C98 119.098 98 118.512 98 118.317v-.195c0-.976 0-1.951.1951-2.927-.3903 0-.3903.585-.5854.585-.3902.391-.5853.781-.9756 1.171 0 0-.1951.195-.3902.195v.195c0 .196-.5854.781-.7805.976h-.1951c-.1952.195-.3903.39-.5854.585-.5854.586-1.1707.976-1.7561 1.366l-.1951.391h-.3903c-.1951 0-.1951.39-.3902.39-.1951.195-.7805.39-1.1708.585-.1951 0-.7804.39-1.1707.39h-.1951c-.5854 0-.9756-.39-1.1707-.78 0-.195-.1951-.585-.1951-.781v-.78c.3902-1.171.5853-2.342 1.1707-3.512-.1951 0-.1951.195-.3903.39-.1951.195-.3902.195-.5853.39 0 0-.1951.195-.1951.39 0 .196-.5854.781-.7805.976h-.1952l-.5853.585c-.5854.781-1.1708 1.171-1.561 1.561 0 0-.1951 0-.3902.196 0 0 0 .195-.1952.195l-.5853.39c-.1952.195-.7805.39-.9756.585-.3903.195-.7805.39-1.1708.39h-.1951c-.5854 0-.9756-.39-1.1707-.78 0-.195-.1952-.39-.1952-.78v-.781c.1952-.78.3903-1.366.5854-2.146h-.1951c-.1951.195-.5854.585-.7805.78-.1951.195-.1951.195-.1951.39-.1951.196-.3903.196-.5854.391-.1951.195-.1951.39-.3902.39-.1951.195-.5854.585-.7805.78-.7805.391-1.1707.976-1.9512 1.366-.1952.195-.5854.39-.7805.39h-.7805c-.1951-.195-.7805-.39-.7805-.585-.1951-.39-.1951-.78-.1951-1.171 0-.585.1951-1.365.3902-1.756-.1951.195-.1951.391-.3902.586-.5854.585-1.1707.975-1.7561 1.366l-.1951.39h-.3903c-.1951 0-.1951.39-.3902.585-.1951.195-.9756.39-1.1708.585-.1951 0-.9756.196-1.756.196-.5854 0-1.3659-.391-1.561-.781-.1952-.39-.3903-1.366-.3903-1.756v-.585l-.1951.195c-.3902.39-.5854.78-.9756.975l-.3903.391-.5853.195c-.1951.195 0 .195-.3903.39-.1951.195-.9756.585-1.1707.78-.3902.196-.9756.391-1.3659.391-.3902 0-.7804 0-1.1707-.195-.3902-.195-.5853-.196-.9756-.586l-.1951-.39s-.1951-.195-.3902-.195c-.3903-.585-.3903-.585-.5854-1.366v-.195c0-.195-.1951-.195-.3903-.39-.1951-.195-.1951-.195-.1951-.586 0-.39.3903-.975.5854-.975.1951 0 .3902.195.5854.195.9756 0 1.756-.586 2.5365-1.366.1952-.195.1952-.39.5854-.585.1951 0 .1951-.196.3902-.196 0 0 0-.195.1952-.39.1951-.39.3902-.78.3902-1.171v-.195s-.1951-.195-.3902-.195h-.1952c-.5853.195-1.1707.586-1.7561.976l-.3902.39c-.1951.195-.3903.195-.5854.39-.1951.195-.1951.391-.5853.781-.1952.195-.3903.39-.3903.39l-.3902.39s-.1951 0-.1951.195c-.1952.196-.3903.781-.5854 1.171l-.1951.39c-.1952.196-.1951.586-.1951.976-.1952.781-.1952 2.341-.5854 2.732 0 .195-.1951.195-.3903.195-.1951 0-.3902 0-.5853-.195-.1952-.195-.5854-.195-.5854-.391v-.975c0-.39 0-.976.1951-1.366.1952-.78.1951-1.171.3903-1.366-.3903.39-.9756.586-1.1708.976-.1951.195-.5853.585-.9756.78-.7805.586-1.5609.976-2.3414 1.561 0 0-.3903.195-.5854.195-.1951.195-.3902.391-.7805.586-.3902.195-.7805.195-1.1707.39-.1951 0-.3903.195-.5854.195-.3902 0-.5854 0-.9756.195h-.3902c-.7805 0-1.9513-.585-2.3415-.975-.3902-.586-.5854-1.171-.5854-1.952v-.39c0-.195.1952-.585.1952-.78 0-.195-.0001-.391.1951-.781-.1952.195-.3903.195-.3903.195-.1951 0-.1951.195-.3902.195H42l-.1952.196c-.5853.195-.9756.195-1.3658.195-.5854 0-.7805-.195-1.1707-.391-.1952.391-.3903.391-.5854.781-.3902.39-.5854.78-.9756 1.171-.1951 0-.1951 0-.3903.195l-.1951.39h-.1951c-.3902.39-.5854.585-.9756.585-.3903.195-.9756.195-1.3659.195-.9756 0-1.7561-.39-2.1463-1.17-.1951-.586-.3903-1.171-.3903-1.951v-.391c-.1951.195-.7804.976-.9756.976-.5853.585-1.1707.976-1.3658 1.171 0 0-.1951.195-.3903.195l-.3902.39c-.1951.195-.5854 0-.5854.195-.1951 0-.1951.195-.1951.39-.1951.195-.1951 0-.3902.195-.5854.391-.9756.586-1.3659.586h-.5854l-.5853.195h-1.1708c-1.5609 0-3.1219-.39-4.0975-.976-.1951-.195-.3903-.195-.5854-.39-.3902-.195-.5853-.585-.7805-.975-.1951-.196-.3902-.586-.5853-.781-.1952-.195-.1952-.39-.1952-.585 0-.195-.3902-.391-.3902-.391-.5854-1.17-.7805-2.731-.7805-4.683 0-2.341.5854-4.878 1.1707-6.634-.1951 0-.1951-.195-.3902-.39 0 0-.1951-.585-.3902-.585-.1952-.195-.3903-.195-.5854-.391-.3903-.585-.7805-1.17-.7805-1.756 0-.39-.1951-.975-.1951-1.365v-.586c0-.78.3902-1.561.7805-2.146.3902-.5855.9756-.9758 1.3658-1.1709.3903-.1951.9756-.3902 1.3659-.3902h.3902c.3903 0 .7805 0 .9756.1951.1951.1951.3903.3902.3903.5853v.3903c-.5854.3904-.5854.3904-.7805.3904h-.7805c-.3902-.195-.3902-.5855-.3902-.5855h-.3903c-.1951 0-.5854 0-.9756.3905-.1951.195-.5854.585-.5854.78 0 .39-.1951.586-.3902.781-.1951.39 0 .585-.1951.78 0 .195-.1951.195-.1951.39 0 .196.1951.391.1951.391v1.17c.1951.586.1951.976.5853 1.366 0 .195.3903.39.5854.586 0 .195.1951.39.3902.39.1952-.585.5854-.976.7805-1.366.1952-.195.1952-.585.3903-.78 0 0 .1951 0 .1951-.196v-.39c.1951-.39.5854-.585.7805-.78.3902-.586.9756-1.366 1.3658-1.756.3903-.391.9756-.586 1.3659-1.171.1951-.195.3902-.3904.5854-.5855.1951-.1952.5853-.1951.7804-.3903.5854-.3902 1.1708-.9756 1.7561-1.1707.1952 0 .5854 0 .7805-.1951.7805-.5854 1.561-.7805 2.3415-.9756.3902-.1952 1.1707-.1952 1.561-.1952h1.5609c.5854 0 1.3659 0 1.561.1952.1951 0 .1951.1951.3903.1951.3902 0 .3902.1951.5853.1951.5854.1951.9756.3903 1.1708.5854.1951.1951 0 .1951.1951.5853 0 0 .1951 0 .3902.1952.3903.3902.5854.9756.7805 1.1707.1951.3904.1951.7804.1951 1.1704 0 .391.1952.391.1952.781v1.366c0 .195 0 .39-.1952.78l-.1951.195v.391c0 .39-.1951.585-.3902.78-.1951.195-.1951.39-.3903.585-.1951.195-.3902.586-.5853.781h-.3903s0 .195-.1951.39c-.3903.39-.9756.585-1.561.976-.7805.195-.7805.195-1.1707.39 0 0-.1951.195-.3903.195h-1.9512l-.1951.195c-.3902.195-.3902.39-.7805.586-.5854.39-.5854.195-.9756.39-.1951 0-.3902.195-.3902.39-.3903.195-.9756.195-1.3659.195h-.1951c-1.1707.195-1.561.195-1.7561.195h-.5854c-.5853 0-1.5609 0-1.9512-.39h-.3902c-.5854-.195-1.1708-.195-1.561-.39l-.3903-.195c-.1951.585-.5853.975-.5853 1.561v.39c0 .585-.3903 1.171-.3903 1.756v1.951c0 1.366.1952 1.561.1952 1.756v1.171c0 .39.1951.585.3902.976 0 .195 0 .39.1951.585 0 .195.5854.39.5854.585 0 .196.3902.781.3902.976 0 0 .1952 0 .1952.195l.3902.39.1951.195c.1951.196.3903.196.5854.391.1951.195.5853.39.9756.39h.9756c.7805 0 1.7561-.195 1.9512-.195.3903 0 .5854-.195.7805-.195 0 0 .5854-.195.5854-.391h.3902s0-.195.1951-.195c.3903-.195.7805-.39 1.1708-.585.3902-.195 1.1707-.976 1.5609-1.171.1952-.195.7805-.78.7805-.78.1952-.195.3903-.39.5854-.586v-.195c.1951-.39 0-.78.3902-.975l.1952-.195c.1951-.391.1951-.781.3902-.976.3903-.585.7805-.976 1.1707-1.561 0-.195.1952-.195.3903-.195 0-.195.1951-.39.3902-.39.5854-.586 1.1708-.781 1.7561-1.171h.3903c.3902 0 .7805-.195 1.1707-.39h.5854c.5853 0 .9756.195 1.5609.585.1952.195.5854.78.5854 1.561v1.171c0 .39-.1951.585-.3902.975 0 .781-.3903 1.756-.7805 2.342.1951.195.5854.195.9756.195h.7805c.1951 0 .3902-.195.5853-.195l.3903-.195c.1951-.195.3902-.391.5854-.586l.1951-.195c.1951-.39 1.1707-2.146 1.561-2.536.3902-.586.7804-.976 1.3658-1.171.1951-.195.5854 0 .7805-.195 0 0 .1951-.195.3902-.391.5854-.39 1.3659-.585 2.1464-.585.3902 0 .9756 0 1.1707.195.3903.195.3903.39.5854.586 0 0 .1951 0 .1951.195.3902-.39.7805-1.756 1.1707-1.756.3903 0 .5854.585.5854.78 0 .195 0 .585-.1951.781-.1952.39-.3903.195-.3903.195 0 .195 0 .195-.1951.39-.1951.39-.5854.585-.7805.78-.1951.391-.5853.781-.9756.781l-.1951-.195c0-.195.3902-.195.3902-.39.1952-.196.1951-.391.1951-.781V115c-.1951-.195-.5853-.585-1.1707-.585-.1951 0-.7805.195-1.1707.39-.1951 0-.5854.195-.7805.39 0 0-.3902 0-.3902.195-.3903.195-.1952.39-.5854.781-.3903.39-.3903.585-.7805.78 0 0-.3902.195-.3902.39v.391c-.1952.39-.3903.585-.5854.975 0 0-.1951.195-.1951.391v.39c0 .585-.3903 1.171-.3903 2.146v.39c0 .586.1952.976.7805.976h.5854c.7805 0 1.561-.195 1.7561-.39.1951 0 .5853-.195.9756-.391.5854-.195.7805-.585 1.1707-.585 0 0 0-.195.1951-.195h.3903c.1951-.195.1951-.39.3902-.39.1952-.195.5854-.39.7805-.586 0 0 .1951 0 .3903-.195.1951-.195.1951-.585.3902-.585.1951-.195.5854-.39.7805-.585l.3902-.196c.1952-.195.3903-.39.5854-.585.1951-.78.3902-2.732.5854-3.122.1951-.39.1951-.78.3902-1.171.1951-.195.1951-.585.3903-.78 0-.195.1951-.39.1951-.585 0-.391.3902-.976.5854-1.757l.3902-.78c.3902-1.171.7805-2.732 1.3659-3.903v-.195c.1951-.585.3902-1.365.5853-1.951v-.195c.1951-.585.3903-1.171.5854-1.561l.5853-.39c.1952-.195.0001-.39.1952-.781.3902-.78.7805-.975.9756-1.5607.1951-.3902 0-.3902.5853-.9756 0 0 .1952-.1951.3903-.1951 0-.1951.1951-.3902.1951-.5854.1951-.3902.5854-.9756 1.1707-1.5609l.1952-.1951c.5853-.3903.7805-.5854 1.3658-.9756.5854-.3903.7805-.5854 1.561-.7805.9756-.3903 2.9268-.5854 3.7073-.5854 1.7561 0 3.122.3902 4.0976.9756.5853.3902.9756.7805 1.1707 1.1707.3902.5854.7805 1.1708.7805 1.7561.1951.5854.1951.9756.1951 1.1708v1.3661c0 .78-.3902 1.366-.5854 1.756-.3902.78-1.1707.975-1.3658 1.171-.3903.195-.7805.585-2.5366.78-1.3658 0-2.5366-.976-2.7317-2.146v-.195c0-.976.3902-1.366.9756-1.366s.7805.39.7805.78c0 .586-.3903.781-.5854 1.171 0 0 .5854 1.366 1.7561 1.366.9756 0 1.561-.39 2.1464-.781.7805-.585 1.1707-1.366 1.1707-2.146v-.7805c0-.7805-.1951-1.561-.3902-1.7561-.3903-.5854-.1952-.9756-.9757-1.3659-.3902-.1951-.7804-.7805-1.3658-.9756-.5854-.1951-.9756-.3902-3.122-.3902-.9756 0-2.1463.5853-2.9268.9756-.3902.1951-.7805.1951-1.1707.3902-.3903.1951-.7805.7805-1.3659 1.3659-.5853.5853-1.1707 1.561-1.561 2.3416-.1951.195-.3902.39-.3902.585-.1951.195-.3902.781-.3902.976-.1952.39-.1952.195-.3903.585-.1951.39-.3902.781-.3902.976 0 0 0 .195-.1952.195-.1951.39-.1951.78-.3902.976-.3902.585-.5854 1.56-.7805 2.341-.1951.585-.3902.976-.5853 1.561l-.3903 1.561c-.1951.78-.3902 1.171-.3902 1.171s-.5854 1.951-.5854 2.146c-.1951.39-.9756 2.146-.9756 2.341 0 .196 0 .586-.1951.781 0 .39-.3903.78-.3903 1.366.3903-.39.3903-.39.7805-.781 0-.195.3903-.195.5854-.39.1951-.195.5853-.585.7805-.78.3902-.391.7805-.586 1.1707-.976.5854-.39 1.1707-.976 1.9512-1.171h1.1707c.3903.195.7805.39.7805.976v.39c0 .585-.1951.781-.1951.976v.39c-.1951.585-.7805 1.171-1.561 1.756-.3902.39-.7804.585-.9756.781-.1951 0-.5853 0-.7805.195-.1951 0-.5853.195-.5853.195-.1951 0-.5854 0-.5854.195s.1951.39.1951.585c0 .195.1952.391.3903.391.3902.585.1951.78.7805 1.365.1951.195.5853.391.5853.586.1952.195.5854.195.7805.195.3903 0 .5854 0 1.1707-.195.1952-.195.7805-.586 1.1708-.586.1951-.195.5853-.585.7805-.78.1951-.195.3902-.195.5853-.39.1952-.195 0-.195.1952-.391l.1951-.195c0-.195.3902-.39.5853-.585.1952-.976.5854-1.951.9757-2.927 0-.195 0-.585.1951-.585.1951-.195.5854-.586.5854-.976 0-.195-.0001-.585.1951-.78 0-.196.1951-.391.3902-.391v-.195c.1951-.585.5854-.975.5854-1.756 0-.195-.3903-.195-.5854-.195h-.3902c-.1952 0-.3903-.39-.5854-.585l.3903-.195h.7804l1.1708-.196c0-.39.1951-.585.3902-.78 0-.195.1951-.39.1951-.585 0-.196.1952-.391.3903-.586v-.195c.1951-.39.3902-.585.5853-.976.3903-.39.3903-1.17 1.1708-1.365.1951 0 .3902 0 .3902-.196h.1951l.1952.196c-.1952.585-.3903 1.17-.5854 1.951 0 .195 0 .195-.1951.39v.195c0 .195-.1952.39-.1952.39v-1.17c0 .195-.1951.39-.1951.78l.1951.195h.5854c.3903 0 .9756-.195 1.3659-.195h.1951c.3902 0 .5854 0 .5854.195-.1952 0-.3903.586-.5854.586h-1.1707c-.3903 0-1.1708 0-1.3659.195-.1951.39-.3902.78-.5854 1.171 0 .195-.1951.78-.3902.975l-.3903.781c0 .195 0 .39-.1951.78s-.3902.976-.5853 1.366c-.1952.78-.3903 1.366-.5854 2.146-.3902.976-.3902 1.952-.3902 2.927v.39c0 .391.1951.781.5853.976.1951.195.3903.195.5854.195.3902 0 .9756-.195 1.1707-.39l.1951-.195c.1952-.195.5854-.195.7805-.39.3903-.196.5854-.586.7805-.781 0 0 .1951 0 .1951-.195.1952-.195.3903-.39.5854-.585 0-.196.3902-.196.5854-.391.3902-.195.7804-.975 1.1707-1.17h.1951v-.196c0-.195.1951-.39.1951-.585 0-.195.5854-.585.5854-.585h.1951v-.391c0-.39.5854-.39.9756-.585V115c.1952-.195.5854-.39.7805-.585.3903-.391.7805-.391 1.1708-.781.1951-.195.5853 0 .9756-.195.1951 0 .1951 0 .5853-.195.1952 0 .3903-.195.7805-.195H82c.3902 0 .9756 0 1.3658.195 1.3659.195 2.3415 1.171 2.3415 2.341v.391c0 .195-.1951.39-.5854.39-.1951 0-.3902-.195-.3902-.39 0-.586.1951-.586.1951-.781 0-.195-.1951-.585-.3902-.585-.3903-.195-.9756-.391-1.3659-.391-.5854 0-1.3658.196-1.9512.391h-.3903c-.1951 0-.3902.195-.5853.39l-.1952.195c-.1951.195-.3902 0-.5853.195-.1951.195 0 .39-.3903.39-.1951 0-.3902.391-.3902.586 0 .195-.3902.39-.3902.39-.1952.195-.1952.39-.3903.585 0 .196-.3902.391-.3902.586-.1952.39-.5854.78-.7805 1.171-.3903.585-.5854 1.17-.5854 1.756v.39c0 .195 0 .585.3903.585.1951 0 .5853 0 .5853-.195.1951-.195.5854-.195.7805-.585.1951-.195.1951-.39.3903-.39.1951-.196.5853-.391.7804-.586.5854-.39.9757-.975 1.561-1.366l.7805-.975.1951-.586c.1951-.39.3903-.585.7805-.78.1951 0 .5854-.39.7805-.39h.1951c.3903 0 .7805.585.7805.78v1.171c0 .39-.3902.78-.3902 1.171-.1952.39-.1951.975-.3903 1.365 0 0-.1951.196-.1951.391v1.17c0 .195.1951.195.3902.195h.3903c.1951 0 .5854-.39 1.561-.975.3902-.195.5853-.39.7805-.585l.3902-.196c.1951-.195.3902-.39.5854-.585 0-.195.3902-.195.5853-.39.3903-.195.7805-.781 1.1708-1.171l.1951-.195c0-.195.1951 0 .3902-.195 0-.195.1951-.39.1951-.39l.1952-.196.1951-.195c.1951-.195.3902-.585.5853-.975.3903-.391.3903-.586.5854-.781.1951-.195.3903-.585.7805-.975 0-.196.1951-.391.3903-.391.1951-.39.1951-.585.5853-.585h.1951c.1952 0 .1952 0 .3903.195.3902.195.1951.585.3902.585 0 0 .1951.196.1951.391v.195c0 .585-.5853 1.171-.9756 1.951 0 .195-.1951.39-.1951.585-.1951.586-.3902.976-.5853 1.561 0 .196 0 .586-.1952.781-.1951.39-.1951.976-.3902 1.366 0 0-.1951.195-.1951.39v1.171c0 .195.1951.195.3902.195h.3903c.1951-.195.3902-.195.7804-.39l.1952-.196c.1951-.195.5853-.195.7804-.39.3903-.195.5854-.585.7805-.78 0 0 .1952 0 .1952-.195.1951-.195.3902-.391.5853-.586 0-.195.3903-.195.5854-.39.1951-.195.7805-.78.9756-1.171 0 0 .1951 0 .1951-.195 0 0 0-.195.1952-.195l.3902-.195c.1951-.195.3902-.585.5854-.781.3902-.585.7805-.975 1.1707-1.561.1948-.585.3898-1.756.5858-2.341.39-1.171.585-2.537 1.17-3.512.195-.39.586-.586.586-.976v-.585c.39-.586.195-.976.585-1.561.195-.195.585-.586.585-.781.391-.78.781-1.756 1.366-2.341.39-.585.586-.39.586-.585 0-.196 0-.391.195-.586 0 0 .39-.39.39-.585.195-.195.585-.586.976-.586.195 0 .585-.195.975-.195h.39c.781.195.976.976.976 1.952 0 .585 0 .975-.195 1.365-.195.391-.195.976-.585 1.366-.196.195-.196.781-.586 1.366-.39 1.171-1.366 2.537-1.951 3.512-.195.391-.781 1.171-1.171 1.561-.195.391-.585.391-.78.586 0 0 0 .195-.195.39l-.586.585c-.195.195-.39.586-.585.781-.585.585-.585.78-.781.975-.195.586-.39.586-.39.976 0 .585-.195.78-.195 1.171v1.17s0 1.366-.195 1.561v.196c0 .195.39.39.39.39 0 .195 0 .585.195 1.17 0 .196.391.586.781.586h.195c.195-.195.39-.195.78-.39l.196-.196c.195-.195.585-.195.78-.39.39-.195.585-.585.78-.78 0 0 .196 0 .196-.195.195-.195.195-.195.39-.391-.195-.39-.195-.585-.195-.975 0-.195 0-.39.195-.586.195-.195.195-.39.39-.39h.781c.585 0 1.365-.585 1.756-.975.78-.781 1.561-1.561 2.341-2.342h.195s0-.195.195-.39c.196-.195.196-.195.391-.39l1.561-1.561c.195-.195.585-.586.975-.781.195 0 .195.195.195.195 0 .195.195.391.195.586 0 .39 0 .78-.195.975-.195.39-.39.586-.585.976-.195.39 0 .78-.195 1.171-.195.585-.195 1.561-.39 2.146 0 .195-.196.39-.196.585v.391c0 .585-.195 1.561-.195 1.951.195 0 .391 0 .586-.195l1.17-.586c.781-.195 1.561-.78 2.342-1.17.195 0 .39 0 .585-.196.195-.195.195-.195.391-.39l1.17-.585 1.171-.781c.195-.195.585-.39.78-.585l.976-.585c.195-.196.585-.391.781-.586.585-.39 1.17-.585 1.951-.78.78-.195 1.561-.586 2.341-.586h.586c.585 0 .975 0 1.561.195.585.196 1.17.391 1.561.781l.585.585c.195.195.195.586.39.781.195.195.195.585.195.975 0 .196-.195.391-.195.391-1.561-1.366-1.366-1.366-1.366-1.171zm-30.048-3.902c.195 0 .39-.391.975-.781.195-.195.195-.39.39-.585.586-.586.781-.976 1.366-1.756.195-.196.586-.196.586-.391.39-.39.195-.39.39-.975.195-.195.585-.976.78-1.171.195-.585.781-1.561.976-2.341.39-.976.585-1.952.585-2.537v-.585c0-.391-.39-.586-.78-.586-.586 0-.586.39-.976.781-.195.195-.195.39-.195.585 0 .195-.39.195-.39.39v.195c-.585.781-.976 1.952-1.171 2.147l-.195.585s-.195 0-.195.39l-.195.195v.391c0 .585-.39.78-.586 1.17l-.39 1.171c0 .195-.39.586-.39.781v.78c-.39.976-.39 1.366-.585 2.147zm-69.0736-7.025v-.585c0-.586-.1951-.976-.3903-1.366-.1951-.39-.5853-.781-.9756-.781h-.1951c-.3902 0-.7805.196-.9756.391-.1951.195-.5854.585-.5854.975v1.366c0 .195.1952.195.3903.39 0 .391.3902.781.7805.976.3902.39.7805.585 1.3658.585.1951-.78.5854-1.366.5854-1.951zm-11.3171 2.732c.1951.195.3903.195.7805.39.7805.39 1.7561.585 2.5366.781h1.1707c.1951 0 .3903.195.3903.195.1951 0 .1951-.195.3902-.195.7805 0 1.7561-.196 2.3415-.391.7805-.195 1.3658-.585 1.7561-.975-.3903 0-.7805-.195-1.1708-.586-.9756-.585-.7805-.78-1.1707-1.366l-.1951-.195c-.1951-.39-.1951-.78-.1951-1.17 0-.781.1951-1.171.3902-1.756.1951-.586.5854-.976 1.1707-1.171.3903-.195.7805-.39 1.3659-.39h.3902c.7805 0 1.561.585 1.7561 1.365 0 .196 0 .586.1951.781 0 .195.1952.39.1952.585v.586c0 .195-.1952.195-.1952.39v.39c-.1951.585-.1951.781-.5853 1.171l-.1951.195h.5853c.5854 0 1.1708-.39 1.561-.781.1951-.195.1951-.39.5854-.39.1951 0 .1951-.195.3902-.195 0 0 .1951-.195.1951-.39.1952-.39.7805-.585.9756-1.171 0-.195.1952-.39.3903-.78 0-.195.1951-.391.1951-.586 0-.195.5854-.585.5854-.585v-.39c0-.391.1951-.781.1951-1.171v-.39c0-.7808-.1951-1.171-.3902-1.5613-.3903-.5853-.5854-.5853-.7805-.7805 0 0 0-.1951-.1952-.1951h-.5853c-.5854-.1951-1.561-.1951-2.1464-.1951-.7805 0-1.5609.3903-2.3414.5854-.3903.1951-.5854 0-.9756.1951-.1952.1951-.3903.5854-.7805.5854h-.1951c-.3903 0-.7805.3902-1.1708.5853-.1951 0-.5853 0-.5853.1951-.1952 0-.1952.5857-.3903.5857-.1951 0-.1951 0-.3902.195-.1952.195-.1952.39-.3903.585-.3902.195-.5853.195-.7805.586-.1951.195-.1951.39-.3902.585 0 .195-.3902.195-.5854.195-.1951.195-.1951.39-.1951.585-.1951.391-.5854.586-.9756.976v.195c0 .195-.3903.195-.3903.39 0 .196.0001.391-.1951.586 0 .195-.3902.39-.3902.585v.39c0 .195-.7805.391-.7805.586v.585c0 .195-.1951.39-.3902.585-.1952.196-.3903.391-.3903.586zM39.0731 115c.1952 0 .3903 0 .3903.195 0 0 .1951 0 .1951.195v-.78c0-.39 0-.586-.1951-.781-.1951-.195-.5854-.39-.7805-.39h-.1951c-.7805.195-1.1708.39-1.7561.78-.3903.196-.5854.586-.7805.976-.1951.195-.5854.585-.7805.781-.1951.195 0 .39-.3902.585-.1952 0-.3903.195-.5854.39v.39c0 .391-.3903 1.171-.5854 1.561 0 .196-.1951.586-.3902.781v.585c0 .586.1951 1.171.5853 1.366.1952.195.3903.195.7805.195.3903 0 .9756-.195 1.3659-.39.3902-.39.7805-.585.9756-.976.3902-.39.7805-.975 1.1707-1.756-.1951-.195-.5853-.78-.5853-1.17v-1.561c0-.391.3902-.586.5853-.976h.9756zm70.2439 5.463h-1.171s-.39-.195-.585-.195h-.195c-.39 0-.781-.39-1.171-.39H106v.781c.195.585.78.78 1.366.975.195 0 .39.195.585.195.39 0 .781-.195.976-.39.195-.39.39-.585.39-.976zm1.366-6.634c-.195.195-.195.39-.39.586-.586.39-1.366.975-1.756 1.561-.586.585-1.171 1.17-1.757 1.561-.195.195-.39.39-.585.78v.781c.195.195.585.39.781.585.195.195.975.39 1.756.39h.78c0-.39.195-.975.195-1.171v-.195l.195-.39v-.195c.196-.585.391-.976.391-1.561 0-.195.195-.585.195-.976 0-.975.195-1.756.195-1.756zm-33.7562 21.464c0 .39-.1951.975-.5854.975-.3902 0-.9756.586-1.3658.781-.3903.39-.1952.39-.7805.585-.5854.39-.5854.39-.9756.781l-.7805.975c0 .195-.1951.781-.3903.976-.1951.195-.1951.585-.3902.78-.1951.195 0 1.171-.7805 1.366h-.3902c-.3903 0-.5854-.195-.9756-.975-.3903-.976-.5854-1.366-.7805-1.561-.3903-.196-.9756-.586-.9756-.586V139s0-.195-.1951-.39c0-.195-.0001-.781-.5854-.976-.5854-.195-1.1708-.78-1.561-1.171-.3902-.195-1.3658-.975-1.561-.975-.1951 0-.3902 0-.3902-.39 0-.586.3902-.976.5853-1.171.5854 0 .9757 0 1.3659-.39.3902-.196.5854-.586.7805-.586.3902-.195.7805-.585.9756-.78 0-.195.5854-.195.7805-.781l1.1707-1.561c.1951-.39.7805-2.341 1.3659-2.341.5853 0 1.1707.975 1.1707 1.366 0 .585 0 1.365.1951 1.561.1951.195 0 .39.5854.78.5854.195.5854.781.7805.976.3902.39.5853.78.9756.975.1951 0 .7805.781 1.1707.976.5854.585 1.561.585 1.561 1.171zm-2.3415.39c0-.195-.5853-.781-.5853-.781l-1.1708-1.17c-.1951-.195-.9756-.586-.9756-.781-.1951-.195-.3902-.975-.5853-1.171-.1952-.39-.9757-.975-.9757-.975-.3902 0-.3902.585-.7804.975-.3903.196-.7805.586-.7805.781-.1951.195-.9756.78-1.1707 1.171-.1952.39-.7806.39-1.1708.78-.3902.195-.5854.976-.5854.976.1952.195.1952.585.7805.78.7805.391.9756.781 1.3659 1.171.5854.39.9756.585 1.1707.976.3903.39.5854 1.17.7805 1.365.1951.196.9756-.585.9756-.585l.9756-1.171c.3903-.39.5854-.585 1.1708-1.365 1.1707-.781 1.3658-.976 1.5609-.976z"/><defs><clipPath id="clip0"><path d="M0 0h148v53H0z"/></clipPath></defs></svg>