<svg viewBox="0 0 265.001 31.9982" fill="currentColor"><g data-name="Layer 2"><path d="M11.3535 31.8648q-.57-.1039-1.0471-.2061t-.8634-.2052q-.5917-.1855-1.0494-.36a8.3044 8.3044 0 01-.7821-.34q-.4889-.2457-.906-.5032a8.7227 8.7227 0 01-.7629-.5246q-.4077-.287-.7744-.5947t-.6913-.6382q-.2245-.2254-.5392-.606t-.723-.9151q-.1833-.2471-.4371-.6574t-.58-.9869q-.2647-.4517-.4775-.8939t-.3776-.8746q-.1218-.3086-.2838-.7708t-.3649-1.08q-.1238-.4514-.2156-.9344t-.1549-.9976q-.0811-.4516-.1409-.9349t-.1007-.9973Q.039 17.1866.02 16.6923T0 15.87q0-.3493.02-.8325t.062-1.1q0-.0816.06-.5633t.1815-1.3671q.1029-.5947.2048-1.0691t.2017-.8234q.1239-.4926.2766-.9552t.3337-.8952q.1644-.431.3775-.8732t.4776-.8953q.1837-.3492.4385-.7511t.5789-.8532q.2649-.3494.591-.72t.7128-.7614q.3457-.3493.7124-.6572t.7544-.576q.4458-.3079.8627-.5544t.8032-.4316Q8.1784.9642 8.627.8t.8152-.2678q.3054-.0822.7826-.1641t1.1281-.1637q.6106-.0824 1.0894-.1236t.8247-.0419q.3245 0 .7722.0207t1.0176.0626q.57.083.9971.155t.7126.1341c.1477.041.3019.0887.4611.1435s.324.1158.4925.1843l.4338.1756.2788.1133q.3672.1637.7537.38t.7944.4824q.4889.3286.8544.5861t.6113.4417q.222.1856.5475.4938t.7529.74a1.3026 1.3026 0 01.1217.2269.5083.5083 0 01.04.1844.6125.6125 0 01-.04.2265.5465.5465 0 01-.1217.1848l-.5691.6165-.5691.617q-.1645.1857-.3112.3345c-.0982.1-.1912.1878-.2789.2614s-.1807.1631-.2789.2627-.2015.2112-.31.3349l-.5706.6164-.5706.6171a.5782.5782 0 01-.1722.1227.4634.4634 0 01-.1936.041.4467.4467 0 01-.2034-.051.79.79 0 01-.2033-.1547 8.8967 8.8967 0 00-.7846-.709 4.86 4.86 0 00-.7224-.4825 8.5348 8.5348 0 00-.9042-.453 5.7672 5.7672 0 00-.8445-.2877 8.856 8.856 0 00-.9463-.154 9.04 9.04 0 00-.9677-.0516 7.5367 7.5367 0 00-.9752.0627 6.1144 6.1144 0 00-.8939.1844 7.7478 7.7478 0 00-1.7107.7 4.7927 4.7927 0 00-.7318.575 5.82 5.82 0 00-.6506.74 5.547 5.547 0 00-.4687.6687q-.2445.4009-.5071.9345-.1841.4116-.3364.8641t-.2741.946q-.0619.2676-.1435.73t-.184 1.12q-.0405.6987-.06 1.1713t-.0195.72q0 .4938.031.9769t.0914.9553a7.25 7.25 0 00.1013.9059q.0818.4733.2231.9861.0215.0824.0671.2724l.1173.4891a5.6346 5.6346 0 00.1678.57 4.5222 4.5222 0 00.22.5192 6.3986 6.3986 0 00.4056.802 7.1882 7.1882 0 001.9537 2.1591 3.9536 3.9536 0 00.7527.4423 6.3148 6.3148 0 00.9578.34 8.1157 8.1157 0 00.9748.1844 7.825 7.825 0 00.9771.0625 8.15 8.15 0 001.1083-.0713 5.6768 5.6768 0 00.9677-.2163 5.394 5.394 0 00.9567-.3393 6.2052 6.2052 0 00.9158-.5246 5.2621 5.2621 0 00.7413-.6162 8.9222 8.9222 0 00.7627-.8634.3837.3837 0 01.163-.1236.6442.6442 0 01.2441-.0416.596.596 0 01.1932.0313.6051.6051 0 01.1723.0938q.1836.1647.3407.2931c.1053.0857.2022.159.2911.221s.1837.1359.2887.2216.2186.1831.3409.2923q.4487.4122.7537.6885t.4673.4207c.0143.0144.119.1141.3154.2994s.4841.4555.8638.8136a.5478.5478 0 01.1861.195.5362.5362 0 01.06.2564.4062.4062 0 01-.0407.1544 1.5565 1.5565 0 01-.1217.2168q-.2027.2673-.5286.6261t-.7745.8138q-.4674.4721-.8336.8112t-.6288.5444q-.2649.1857-.6816.4429t-.9871.5849q-.4272.2063-.8847.3913t-.9466.3494q-.4266.1253-.9058.2159t-1.008.1564q-.4674.0627-.9561.0917t-.9962.0314q-.4887 0-.9676-.0314t-.9492-.102zM36.1362 31.866q-.365-.0423-.8433-.1446t-1.0673-.2667q-.61-.2057-1.0684-.3806t-.7631-.32q-.4887-.2457-.8961-.4927a8.3307 8.3307 0 01-.7315-.4934q-.4077-.3087-.7845-.6261t-.7226-.6482q-.224-.2253-.5394-.606t-.7226-.9152q-.3243-.4516-.5886-.8634t-.47-.7825q-.224-.4106-.4271-.8528t-.3867-.9156q-.1216-.3087-.2641-.7709t-.3048-1.0795l-.1022-.3586-.1428-.5038q-.0808-.288-.1314-.5556-.0487-.255-.0722-.5142-.0809-.4516-.1409-.9348t-.1007-.9972q-.0428-.6573-.0619-1.1516t-.02-.8226q0-.6574.01-1.1409t.031-.7915l.1416-.9659.1413-.9663q.1239-.6573.2251-1.131t.1819-.7611q.1026-.37.2651-.8323t.3866-1.0181q.2247-.5553.4271-.9966t.3871-.7719a5.17 5.17 0 01.3862-.6671q.2646-.4009.6722-.9359.3456-.4508.6608-.8208t.6015-.6592q.1216-.1024.2887-.25t.3819-.3442q.2146-.1954.4129-.3544t.3819-.2835q.3647-.2664.7818-.5128t.8841-.4732q.3458-.1437.8035-.3083t1.0278-.35q.47-.123.9374-.2157t.9351-.154q.6106-.0816 1.0892-.1226T38.0507 0q.2648 0 .5441.02t.5752.0629c.1955.0272.3635.0514.5026.072s.2493.0378.3305.0516q.61.0818 1.0782.1637t.7943.1641a7.25 7.25 0 01.8544.2782q.4476.1754.9355.422.5511.2676.9782.5036t.7323.4407q.2649.186.6409.4843t.8629.7092q.1239.123.439.4927t.8231.9869q.3671.5346.6318.9462t.4269.6983q.224.4122.4271.8541t.3867.9143q.1833.4326.3363.8952t.2742.9552q.162.617.2741 1.09t.1742.8022q.0594.3082.1111.7917t.0931 1.1405q.0405.3086.06.7916t.0191 1.1409q0 .6573-.0093 1.1522t-.0287.8219q-.0214.37-.0719.853t-.1318 1.0792q-.0213.1446-.1433.6275t-.346 1.3046q-.0815.3087-.1624.5758t-.162.4941c-.0558.1512-.1065.2917-.1549.4216s-.091.25-.1325.359q-.1833.4733-.3866.9154t-.4271.853q-.2649.4733-.5294.8953t-.5294.7912a7.9733 7.9733 0 01-.6.8013 7.0407 7.0407 0 01-.6619.6782q-.3244.33-.7007.6482t-.8034.626a7.7469 7.7469 0 01-.7033.4423q-.4173.2365-.9656.5039-.4079.2056-.8544.3907t-.9355.35q-.5916.1641-1.0689.2667t-.8452.1446q-.4674.0627-.9555.0917t-.9968.0305q-.4889 0-.9673-.0314t-.9465-.0926zm3.8248-6.5789a4.5975 4.5975 0 00.8754-.299 5.1909 5.1909 0 00.8347-.4833 5.3088 5.3088 0 00.6816-.5859 7.3961 7.3961 0 00.66-.7714 6.6853 6.6853 0 00.52-.7808 7.2533 7.2533 0 00.4174-.8639q.1835-.4317.3362-.8832t.2745-.9256c.0929-.3565.1685-.692.2227-1.0072a7.1639 7.1639 0 00.1016-.8849q.0405-.3276.062-.749t.021-.9358q0-.6573-.021-1.1922t-.062-.9457q-.1026-.6573-.1836-1.12t-.1407-.73a7.6345 7.6345 0 00-.224-.8845q-.15-.4713-.3451-.9256a6.0468 6.0468 0 00-.3885-.7292q-.2448-.4-.591-.874a9.2871 9.2871 0 00-.7319-.7409 4.4964 4.4964 0 00-.6506-.4927 5.2353 5.2353 0 00-.8346-.4831 4.5982 4.5982 0 00-.8725-.299 5.2929 5.2929 0 00-.8364-.154 9.6164 9.6164 0 00-1.0376-.0516 8.1651 8.1651 0 00-.9062.0516 9.1027 9.1027 0 00-.925.154 4.58 4.58 0 00-.8753.299 5.2183 5.2183 0 00-.8365.4831 4.3884 4.3884 0 00-.7007.5451 5.6326 5.6326 0 00-.6409.729q-.3458.4733-.59.8744a5.8838 5.8838 0 00-.3857.73 6.6785 6.6785 0 00-.3064.7917q-.1425.4422-.2657.9768-.1216.4929-.2129.9552t-.1529.8952q-.0407.431-.06.9659t-.0194 1.172q0 .1845.0194.6056t.06 1.0792q.0815.6385.1626 1.1111t.165.7825q.1.3494.2621.7917t.3862.9768a8.2079 8.2079 0 00.4394.9044 5.5644 5.5644 0 00.4986.74 5.4017 5.4017 0 00.61.7708 4.2785 4.2785 0 00.6906.5863 5.6978 5.6978 0 00.8563.5137 4.3258 4.3258 0 00.854.3089 5.2941 5.2941 0 00.8365.154 9.5846 9.5846 0 001.0374.0516 10.294 10.294 0 001.0879-.0516 4.7178 4.7178 0 00.8235-.1555zM81.2687 31.4117l-.8553.021-.8552.0207H77.851a.57.57 0 01-.2288-.0466.6542.6542 0 01-.2-.14.6282.6282 0 01-.1358-.2.5849.5849 0 01-.0455-.2306v-1.8914l.0208-.9462.0208-.9459V23.23l-.0208-.9458-.0208-.9462q0-.288.0049-.5294t.0142-.4386q.0093-.1953.0156-.4363c.0041-.1609.0067-.3371.0067-.529v-3.7825l-.0112-.0363-.0311-.0259a.0618.0618 0 00-.0412-.0046.0991.0991 0 00-.0416.0252l-.3258.9044-.3255.9046-.3056.9048-.3051.9051q-.1.2877-.1923.5244t-.1732.4217q-.0815.1847-.1622.39t-.162.4321q-.1026.2676-.1791.4931t-.1261.4113q-.0523.1847-.1289.41t-.1766.4937q-.0808.2266-.1573.4316t-.1477.391c-.0477.124-.1.2673-.1577.4316s-.1206.3491-.189.5544l-.3258.9051-.326.9052-.3259.8843-.3258.8842a.8169.8169 0 01-.293.4.8268.8268 0 01-.48.1326q-.3051 0-.56.0057t-.4576.0153q-.2025.0109-.4674.016t-.5914.005h-2.0339a.9789.9789 0 01-.2685-.0363.8864.8864 0 01-.24-.1083.737.737 0 01-.1883-.1687.7214.7214 0 01-.1172-.2216l-.305-.9042-.3051-.9044q-.0816-.2269-.1575-.4321t-.1477-.39q-.0715-.1857-.1573-.4324t-.1859-.5555l-.1635-.452-.1639-.4524-.1416-.4518-.1413-.4524q-.1025-.3083-.1951-.5345a3.2758 3.2758 0 00-.1737-.37l-.1621-.432-.1624-.4323-.3257-.9042-.326-.9044-.3051-.9051-.3052-.9048q-.1026-.2869-.1936-.5238t-.1722-.4209q-.0808-.1852-.1619-.3907t-.162-.4315l-.0112-.0314-.031-.0107-.031.0107-.01.0314v1.89l.02.9459.0206.9462v1.9334l-.0206.9462-.02.9459v1.89q0 .2877.0045.53t.0144.4381q.012.1953.017.4382t.0051.5287l-.0206.946-.02.946v1.8923a.6122.6122 0 01-.0407.226.5614.5614 0 01-.1215.1851.5558.5558 0 01-.1835.1233.5991.5991 0 01-.2237.0408h-1.71l-.8538.0211-.8537.0206h-1.71a.5333.5333 0 01-.2236-.0466.5454.5454 0 01-.1834-.14.6317.6317 0 01-.1621-.43v-.9883a3.11 3.11 0 01-.0308-.37q-.01-.2467-.01-.6165l.0208-.9869.0203-.987v-3.9477l-.0208-.9863-.0208-.9862V16.98l.0208-.9862.0208-.9863-.0208-.9869-.0208-.9871.0208-.987.0208-.9865V5.1388l-.0208-.9869-.0208-.9873V1.1909A.5883.5883 0 0156.084.96a.6894.6894 0 01.336-.34.5706.5706 0 01.2286-.046q.2841 0 .5286.0051t.4476.0159c.135.0072.2877.0125.4571.0156s.3567.0054.56.0054c.1908 0 .367-.0019.53-.0054s.3113-.0084.4464-.0156.2893-.0124.4585-.0159.3553-.0051.5575-.0051h1.9966a.7152.7152 0 01.2384.041.8764.8764 0 01.229.1231.702.702 0 01.1771.1857.6084.6084 0 01.0868.2252l.1573.3962.1478.3653q.0717.1746.1579.4167t.1887.55l.3052.8833.3051.8836.3258.8843.3259.8842.3241.8634.3244.8633q.1029.3086.1889.55t.1577.4167q.0716.1749.1478.3755t.1573.4261l.3052.8631.3053.8637.326.8841.3257.8843q.1023.2673.1834.4935t.1411.4107l.1335.4012.1524.4629.3053.8633.3052.8633.3259.8842.3258.8843a.1278.1278 0 00.045.0313.1486.1486 0 00.0567.0105.1423.1423 0 00.0558-.0105.1555.1555 0 00.0461-.0313q.1-.2877.2528-.73t.3575-1.0385q.162-.4309.3146-.8732t.2959-.8952l.3447-.8633.3452-.8632.2861-.8843.286-.8841.3451-.8637.3446-.8631.326-.8844.3259-.8841.3054-.8633.3051-.8633q.1432-.4524.2956-.8939t.3149-.8746l.326-.8635.3258-.8633.1522-.4625.1306-.4q.062-.1853.1435-.4119t.184-.494a.7913.7913 0 01.1168-.2252.9232.9232 0 01.4173-.3088.7177.7177 0 01.2384-.041q.3051 0 .56.0051c.1695.0035.3223.0087.4574.0159s.2845.0125.4475.0156.3392.0054.5284.0054q.3671 0 .62-.0107t.3965-.0313h.9757q.3055 0 .56.0051t.4575.0159c.1366.0072.2859.0125.4488.0156s.3408.0054.53.0054a.59.59 0 01.2223.0407.5626.5626 0 01.1844.123.5416.5416 0 01.1217.1849.6167.6167 0 01.0407.2264v6.906a3.6591 3.6591 0 01.031.37q.0105.2465.0109.6167l-.0206.9869-.02.9871V22.94l.02.9867.0206.9869v3.9483l-.0206.4931-.02.4932v.9877a.653.653 0 01-.0406.2308.6364.6364 0 01-.1218.2.5676.5676 0 01-.1843.14.5267.5267 0 01-.2224.0466l-.8553-.0206zM114.922 31.4117l-.856.021-.855.0207h-1.707a.5686.5686 0 01-.229-.0466.6442.6442 0 01-.2-.14.6239.6239 0 01-.136-.2.5706.5706 0 01-.045-.2306v-1.8914l.02-.9462.021-.9459V23.23l-.021-.9458-.02-.9462c0-.192.001-.3685.004-.5294s.008-.3068.014-.4381.013-.2754.016-.4363.007-.3371.007-.529v-3.783l-.011-.0363-.031-.0264a.0629.0629 0 00-.042-.0046.0973.0973 0 00-.041.0252l-.326.9044-.326.9046-.305.9048-.305.9051q-.1005.2877-.193.5244c-.062.1565-.119.298-.173.4217s-.108.2532-.162.39-.108.2816-.162.4321c-.069.1784-.128.3428-.179.4931s-.093.2873-.126.4113q-.0525.1847-.129.41t-.177.4937c-.054.1511-.106.2949-.157.4316s-.1.2671-.148.391-.1.2673-.157.4316-.121.3491-.19.5544l-.325.9051-.326.9052-.326.8843-.326.8842a.8142.8142 0 01-.293.4.8274.8274 0 01-.479.1326c-.204 0-.391.0019-.56.0057s-.323.0088-.458.0153-.29.0127-.467.016-.373.005-.591.005h-2.035a.984.984 0 01-.269-.0363.8941.8941 0 01-.24-.1083.7391.7391 0 01-.188-.1687.7166.7166 0 01-.117-.2216l-.305-.9042-.3054-.9044q-.0808-.2269-.1573-.4321t-.1479-.39q-.0716-.1857-.1573-.4324t-.1858-.5555l-.1636-.452-.1639-.4524-.1412-.4518-.1416-.4524q-.1029-.3083-.1951-.5345a3.294 3.294 0 00-.1738-.37l-.162-.432-.1624-.4323-.3258-.9042-.326-.9044-.3051-.9051-.305-.9048q-.1028-.2869-.1936-.5238t-.172-.4209q-.0811-.1852-.1623-.3907t-.162-.4315l-.0111-.0314-.031-.0107-.0311.0107-.01.0314v1.89l.0208.9459.02.9462v1.9339l-.02.9462-.0208.9459v1.89q0 .2877.0046.53t.0143.4381q.0122.1953.0172.4382t.0051.5287l-.02.946-.0208.946v1.8923a.6141.6141 0 01-.0406.226.5617.5617 0 01-.1216.1851.5548.5548 0 01-.1832.1229.5984.5984 0 01-.2237.0408h-1.71l-.8538.0211-.8533.0206h-1.7113a.5341.5341 0 01-.2237-.0466.5454.5454 0 01-.1834-.14.6383.6383 0 01-.1214-.2.65.65 0 01-.04-.2306v-.9883a3.0284 3.0284 0 01-.031-.37q-.01-.2467-.01-.6165l.0207-.9869.0207-.9873v-3.9464l-.0207-.9863-.0218-.986v-3.99l.0207-.9862.0207-.9863-.0207-.9869-.0207-.9871.0207-.987.0207-.9869V5.1388l-.0207-.9869-.0207-.9873V1.1909A.5864.5864 0 0189.7362.96a.6386.6386 0 01.1388-.201.6222.6222 0 01.1974-.139.57.57 0 01.2285-.046q.2838 0 .5285.0051c.1629.0035.3126.0087.4477.0159s.2878.0125.4575.0156.3562.0054.56.0054q.2862 0 .53-.0054T93.27.5949q.2047-.011.4585-.0159t.5576-.0051h1.9967a.7161.7161 0 01.2382.041.8721.8721 0 01.229.1231.7015.7015 0 01.1774.1857.6039.6039 0 01.0866.2252l.1574.3962.1477.3653q.0716.1746.1581.4167t.1887.55l.3049.8833.3056.8836.3257.8843.326.8842.3242.8633.3241.8633q.1025.3086.189.55t.1577.4167q.0716.1749.1477.3755c.051.1338.103.2758.157.4261l.306.8631.305.8637.326.8841.326.8843q.102.2673.183.4935t.141.4107l.133.4012.153.4629.305.8633.306.8633.325.8842.326.8843a.1315.1315 0 00.045.0313.148.148 0 00.057.0105.1446.1446 0 00.056-.0105.1624.1624 0 00.046-.0313q.099-.2877.252-.73t.358-1.0385q.162-.4309.315-.8732c.101-.2949.2-.5933.295-.8952l.346-.8633.344-.8632.287-.8843.285-.8841.346-.8637.345-.8631.326-.8844.325-.8841.306-.8633.305-.8633c.095-.3016.194-.5995.295-.8939s.207-.586.315-.8746l.326-.8635.326-.8633.152-.4625.131-.4c.041-.1235.089-.2608.143-.4119s.116-.3158.184-.494a.7971.7971 0 01.117-.2252.9294.9294 0 01.418-.3088.7132.7132 0 01.238-.041c.203 0 .39.0018.56.0051s.322.0086.457.0159.285.0125.448.0156.34.0054.528.0054q.3675 0 .62-.0107t.396-.0313h.976c.204 0 .39.0018.56.0051s.323.0086.458.0159c.137.0072.286.0125.449.0156s.341.0054.53.0054a.581.581 0 01.222.0407.557.557 0 01.186.123.5487.5487 0 01.122.1849.6244.6244 0 01.04.2264v6.906a3.52 3.52 0 01.031.37q.012.2465.012.6167l-.021.9869-.021.9871V22.94l.021.9867.021.9869v3.9483l-.021.4931-.021.4932v.9877a.648.648 0 01-.04.2308.629.629 0 01-.122.2.57.57 0 01-.186.14.5253.5253 0 01-.222.0466l-.855-.0206zM132.42 31.9052q-.549-.0816-1.016-.1843c-.312-.0685-.596-.144-.854-.2266q-.53-.1437-.967-.308a6.5733 6.5733 0 01-.784-.349 6.2262 6.2262 0 01-.823-.4327 6.6312 6.6312 0 01-.764-.5552q-.4485-.3492-.794-.6782a6.0852 6.0852 0 01-.588-.6373 7.4176 7.4176 0 01-.602-.73 7.6088 7.6088 0 01-.499-.7913q-.243-.4733-.447-.9048t-.366-.8217q-.1035-.2878-.235-.7408t-.293-1.07c-.015-.0955-.037-.2152-.067-.3589s-.07-.3117-.117-.5034-.087-.3734-.117-.5449-.052-.3321-.065-.4833c-.056-.3564-.1-.6921-.134-1.0072s-.056-.61-.069-.8849c-.014-.1917-.025-.4452-.031-.76s-.01-.6923-.01-1.1318V12.25c0-.1776-.002-.3417-.005-.4923s-.01-.288-.018-.4119c-.006-.1227-.011-.263-.014-.4207s-.004-.333-.005-.5254c0-.1775.002-.3416.005-.4924s.008-.2884.014-.4121q.012-.184.018-.42c.003-.1576.005-.3328.005-.5256V2.0941a2.73 2.73 0 01-.031-.35c-.006-.15-.01-.3352-.01-.5547a.5747.5747 0 01.046-.2314.6343.6343 0 01.139-.201.621.621 0 01.197-.1387.57.57 0 01.228-.046h1.749c.164 0 .316.0016.459.005s.274.0088.396.016.258.0125.408.0157.312.0053.489.0053c.162 0 .315-.0019.457-.0053s.276-.0085.398-.0157.256-.0126.405-.016.312-.005.488-.005a.49.49 0 01.204.046.8057.8057 0 01.203.1387.6316.6316 0 01.153.201.5434.5434 0 01.051.2314l-.021.4518-.02.4524-.02.452-.019.4522c0 .1928.002.368.005.5255s.008.2976.014.42.012.2614.015.4121.004.3147.005.4925c0 .1924-.002.3676-.005.5253s-.009.298-.015.4207-.011.261-.014.4119-.005.3149-.005.4923c0 .1928.002.368.005.5256s.008.2977.014.4206.012.2607.015.4115.004.3152.005.4927V15.95c0 .1926-.002.3678-.005.5254s-.009.2977-.015.4206-.011.2611-.014.4119-.005.315-.005.4923q0 .3713.02.8232t.06.9873a5.2227 5.2227 0 00.062.5852q.0615.4423.183 1.1833a10.1089 10.1089 0 00.224 1.0483 3.047 3.047 0 00.265.6781 3.91 3.91 0 00.406.8223 3.2338 3.2338 0 00.571.6574 3.6778 3.6778 0 00.743.4844 3.8291 3.8291 0 00.844.2981 7.2266 7.2266 0 00.835.1226q.447.0411.956.0411a8.5753 8.5753 0 00.987-.0512 4.1154 4.1154 0 00.764-.1546 4.6279 4.6279 0 00.945-.3083 2.231 2.231 0 00.642-.4321 2.3623 2.3623 0 00.508-.5745 5.5667 5.5667 0 00.468-.9048 7.6473 7.6473 0 00.284-.8224c.083-.2977.152-.5994.205-.9042q.06-.2883.11-.73t.093-1.0383q.0405-.5759.061-1.0281t.019-.7826V12.25c0-.1776.002-.3417.005-.4923s.009-.288.017-.4119.011-.263.014-.4207.005-.333.005-.5254v-1.85c0-.1775-.001-.3418-.005-.4927s-.007-.2879-.014-.4115-.013-.2631-.017-.4206-.005-.3328-.005-.5256c0-.1774-.002-.3414-.005-.4923s-.008-.2881-.014-.4119c-.008-.1227-.014-.2629-.017-.4207s-.006-.3329-.006-.5253V1.19a.5672.5672 0 01.047-.2264.5672.5672 0 01.138-.185.6139.6139 0 01.426-.1637c.164 0 .316-.0019.458-.0053s.275-.0085.397-.0157.259-.0126.408-.016.312-.005.489-.005h3.5a.5322.5322 0 01.223.046.5608.5608 0 01.185.1387.6365.6365 0 01.162.4324v9.21c0 .1924.002.3676.005.5254s.008.298.015.4207.011.261.015.4119.007.3148.007.4923c0 .1928-.003.3678-.007.5255s-.009.2977-.015.4207-.011.2609-.015.4115-.005.3152-.005.4927v1.85c0 .1926.002.3678.005.5254s.008.2977.015.4206.011.2611.015.4119.007.3149.007.4923q0 .33-.021.803t-.062 1.0891q-.0225.4122-.072.8849t-.132 1.0072q-.0615.4723-.153.9453t-.212.9452a7.6248 7.6248 0 01-.194.803q-.132.4522-.337 1.0075-.162.39-.365.8217t-.449.9048q-.324.5352-.589.9256t-.466.6373a5.67 5.67 0 01-.592.6258 9.2594 9.2594 0 01-.795.6475q-.3645.267-.762.5142t-.824.4734a8.2213 8.2213 0 01-.855.3695 9.2057 9.2057 0 01-.935.2875c-.285.0835-.579.1556-.885.2161s-.62.1126-.946.1565c-.299.0417-.605.0723-.916.0917s-.631.03-.957.0313q-.63 0-1.098-.02-.4695-.0204-.778-.0638zM154.515 31.4332q-.183-.0106-.396-.0158c-.142-.0036-.295-.0054-.458-.0052-.177 0-.339 0-.488.0052s-.283.0086-.406.0158-.255.0117-.398.0151-.295.0055-.457.0055a.5343.5343 0 01-.224-.0466.55.55 0 01-.183-.1394.6312.6312 0 01-.162-.43v-4.935a3.07 3.07 0 01-.031-.3709q-.0105-.2469-.01-.6168t.01-.6167a3.0452 3.0452 0 01.031-.3693v-4.9768l-.021-.9871-.021-.9869v-1.972c0-.2472.004-.453.01-.6172a3.2817 3.2817 0 01.031-.3706v-1.9741l-.02-.493-.021-.4929V9.0843l.021-.9871.02-.9869v-.9849l-.02-.4928-.021-.4933.021-.9869.02-.9873V1.1494a.4849.4849 0 01.041-.1951.5658.5658 0 01.121-.1743.5385.5385 0 01.184-.123.5915.5915 0 01.223-.0407h3.501c.162 0 .314-.0019.457-.0054s.275-.0084.398-.0156.253-.0124.395-.0159.295-.0051.457-.0051a.9771.9771 0 01.51.1337 1.1369 1.1369 0 01.386.4012l.468.8633.467.8633c.096.1784.182.3413.26.4889l.211.3947q.09.1755.207.3966c.078.1473.164.31.26.4883q.243.4312.477.8736t.458.8948l.508.8635.509.8634.469.8633.469.8631q.1215.2469.229.4579c.071.1406.137.2693.197.3857s.133.2521.219.4069.181.3278.289.5189l.489.8843.488.8842.469.8635.469.8633q.1215.2264.238.4266t.229.3756q.1125.1746.239.4166t.27.55q.162.288.288.5193.1275.2313.22.4069c.061.1164.126.2449.198.3853s.147.2926.228.4564h.083a.141.141 0 00.06-.01.0356.0356 0 00.015-.0126.03.03 0 00.004-.0187v-.9879c-.012-.0954-.022-.239-.028-.431s-.01-.4319-.01-.72c0-.1508.002-.295.005-.4323s.008-.2672.014-.39.011-.2642.015-.422.005-.3325.004-.5242V11.8a3.5262 3.5262 0 01-.028-.37c-.006-.1646-.01-.37-.01-.6175 0-.1909 0-.3675.005-.5284s.008-.3067.014-.4382.012-.2758.015-.4382.004-.3379.004-.53V4.0666a3.5147 3.5147 0 01-.028-.37c-.006-.1646-.01-.37-.01-.6167 0-.1917.002-.3682.005-.53s.008-.3076.014-.4383.011-.2754.015-.4363.005-.3377.004-.53a.4926.4926 0 01.042-.2.6829.6829 0 01.123-.19.5244.5244 0 01.183-.1391.5141.5141 0 01.224-.0462h5.249a.451.451 0 01.197.0461.67.67 0 01.188.1387.6812.6812 0 01.139.19.4605.4605 0 01.045.2V25.9a3.266 3.266 0 00-.031.37q-.009.2471-.009.6167l.02.9871.021.987-.021.9869-.02.9873a.6024.6024 0 01-.041.226.5641.5641 0 01-.121.1853.581.581 0 01-.174.1226.4664.4664 0 01-.192.0409h-2.645a2.3308 2.3308 0 01-.317.0313c-.143.0073-.322.011-.538.0107-.163 0-.315-.0019-.458-.0057s-.275-.0086-.398-.0149-.258-.0126-.407-.016-.311-.005-.486-.005a1.03 1.03 0 01-.52-.123.8422.8422 0 01-.335-.37l-.488-.8843-.488-.8842-.469-.8637-.469-.8631c-.081-.1373-.2-.3535-.355-.6484s-.349-.6681-.58-1.12l-.488-.8844-.488-.8841-.489-.8633-.49-.8633-.468-.8636-.467-.8633-.245-.4522-.244-.452a3.144 3.144 0 00-.172-.3809q-.111-.216-.274-.4833l-.469-.8842-.468-.8843-.488-.8631-.488-.8633c-.082-.1513-.161-.2935-.239-.4266s-.154-.2584-.229-.3756-.155-.2554-.24-.4167-.175-.3446-.268-.55l-.042-.02-.041-.0205a.0781.0781 0 00-.032.0042.0754.0754 0 00-.028.0164.084.084 0 00-.016.0295.0927.0927 0 00-.003.0332c0 .1918.001.3681.004.529s.008.3063.015.4363.011.277.014.4383.004.3376.005.529v9.6632c0 .192-.002.3685-.005.53s-.008.3072-.014.4382-.012.2755-.015.4364-.005.3372-.004.529.001.3684.004.53.008.3074.015.4383.011.2763.014.4382.005.3375.005.5284V30.84a.5332.5332 0 01-.046.226.5277.5277 0 01-.135.1853.7252.7252 0 01-.19.1226.5034.5034 0 01-.198.0411q-.2655 0-.489.005t-.405.016c-.124.0063-.255.0115-.398.0149s-.295.0057-.457.0057q-.2655 0-.489-.0057c-.149-.0061-.285-.0109-.408-.0177zM183.611 31.4117h-2.602a.6024.6024 0 01-.224-.0409.5446.5446 0 01-.183-.1226.5506.5506 0 01-.121-.1853.6028.6028 0 01-.041-.226v-.9864a3.0484 3.0484 0 01-.031-.37q-.0105-.2466-.01-.6164l.021-.987.021-.9873V23.93a3.0665 3.0665 0 01-.031-.3707q-.0105-.2466-.01-.6172l.021-.9864.02-.9861v-1.974c0-.2058-.001-.3942-.005-.5653s-.009-.3252-.017-.4625c-.006-.1373-.011-.2882-.014-.4524s-.005-.3427-.005-.5355l.021-.9862.02-.9863V9.0853l-.02-.9871-.021-.9869.021-.9863.02-.9862V3.1646l-.02-.9867-.021-.987a.5745.5745 0 01.046-.2309.6838.6838 0 01.336-.34.5684.5684 0 01.228-.046h5.249a.4255.4255 0 01.194.046.5874.5874 0 01.172.1387.6635.6635 0 01.124.201.6514.6514 0 01.042.2313l.019.987.02.9867v3.9466l-.02.9869-.019.9871v9.91q0 .37.01.6166a3.2668 3.2668 0 00.029.37v1.974a3.2687 3.2687 0 00-.029.37q-.01.2463-.01.6167v1.9738l.019.4939.02.494v4.9344a.5889.5889 0 01-.046.2306.6239.6239 0 01-.136.2.7155.7155 0 01-.189.14.4538.4538 0 01-.199.0468h-1.748c-.218 0-.402-.0036-.551-.0107a3.0459 3.0459 0 01-.35-.0337zM199.155 31.4547a.564.564 0 01-.228-.0466.6177.6177 0 01-.198-.1394.6461.6461 0 01-.137-.2.5544.5544 0 01-.047-.23l.02-.9873.021-.987-.021-.9869-.02-.9871.02-.4929.021-.4934V23.93l-.021-.494-.02-.4939.02-.9863.021-.9862-.021-.9873-.02-.9869.02-.9869.021-.9871V15.047l-.021-.9869-.02-.987.02-.9863.021-.9862v-1.974l.02-.9869.021-.9873a.2449.2449 0 00-.025-.1129.3063.3063 0 00-.076-.094.3713.3713 0 00-.107-.0626.3372.3372 0 00-.116-.02h-.855a2.4133 2.4133 0 01-.317.0313c-.143.0067-.322.01-.539.01l-.855-.02-.855-.02h-2.521a3.08 3.08 0 01-.336.0313q-.2145.01-.519.01a.5181.5181 0 01-.407-.1847.6285.6285 0 01-.162-.4319c0-.1641 0-.3183-.006-.462s-.009-.2781-.017-.4008-.011-.2606-.014-.4111-.004-.315-.004-.4931l.02-.8226.021-.8222q0-.2677-.006-.4832c-.003-.1438-.009-.2707-.017-.3809-.006-.1094-.011-.2326-.014-.37s-.005-.2879-.004-.4526a.5736.5736 0 01.045-.2313.6343.6343 0 01.139-.201.6194.6194 0 01.197-.1387.57.57 0 01.229-.046l.936.021.936.021h1.873l.935-.021.934-.021h14.936a.57.57 0 01.229.046.6163.6163 0 01.197.1387.6343.6343 0 01.139.201.592.592 0 01.046.2313v3.411c0 .1647-.002.3155-.005.4524s-.008.26-.014.37c-.008.11-.014.2368-.017.38s-.006.3044-.006.482a.6056.6056 0 01-.04.2268.5473.5473 0 01-.122.1843.53.53 0 01-.183.1252.59.59 0 01-.224.0412l-.855.02-.855.02-.407-.02-.407-.02h-4.273a.285.285 0 00-.113.0144.2926.2926 0 00-.099.0577.2945.2945 0 00-.071.2153l.021.9873.021.9869-.021.9871-.021.9869.021.9863.021.9862-.021.494-.021.4939v4.9342l.021.9869.021.9871-.021.4931-.021.4932v2.96l-.02.9873-.021.9868.021.4934.02.4929.021.4939.021.494v1.974a.535.535 0 01-.185.4113.62.62 0 01-.426.1637c-.217 0-.401.0033-.551.01a2.888 2.888 0 00-.346.0313h-4.355zM219.95 31.4117h-2.604a.5936.5936 0 01-.223-.0409.56.56 0 01-.184-.1228.5663.5663 0 01-.121-.1851.6028.6028 0 01-.041-.226v-.9864a3.2658 3.2658 0 01-.031-.37q-.0105-.2466-.01-.6164l.021-.987.02-.9873V23.93a3.2821 3.2821 0 01-.03-.3707c-.007-.1644-.011-.37-.01-.6172l.02-.9864.021-.9861v-1.974c0-.2058-.002-.3942-.005-.5653s-.009-.3252-.018-.4625c-.006-.1373-.01-.2882-.014-.4524s-.004-.3427-.004-.5355l.02-.9862.021-.9863V9.0853l-.021-.9871-.02-.9869.02-.9863.021-.9862V3.1646l-.021-.9867-.02-.987a.5914.5914 0 01.045-.2309.6343.6343 0 01.139-.201.6163.6163 0 01.197-.139.5732.5732 0 01.229-.046h5.249a.4214.4214 0 01.193.046.5717.5717 0 01.172.1387.6647.6647 0 01.124.201.63.63 0 01.042.2313l.02.987.019.9867v3.9466l-.019.9869-.02.9871v9.91c0 .2466.004.4522.01.6166a3.2668 3.2668 0 00.029.37v1.974a3.2668 3.2668 0 00-.029.37c-.006.1642-.01.37-.01.6167v1.9738l.02.4939.019.494v4.9344a.5889.5889 0 01-.046.2306.6239.6239 0 01-.136.2.7017.7017 0 01-.189.14.4538.4538 0 01-.199.0468h-1.748c-.218 0-.401-.0036-.551-.0107a3.039 3.039 0 01-.347-.0337zM232.689 31.4331q-.183-.0107-.396-.0158t-.459-.0052c-.176 0-.339.0018-.487.0052s-.285.0085-.407.0158-.254.0117-.397.0151-.295.0056-.458.0056a.5174.5174 0 01-.406-.1878.6283.6283 0 01-.122-.2.6478.6478 0 01-.041-.2306v-4.9343a3.2852 3.2852 0 01-.031-.3708q-.0105-.2469-.01-.617t.01-.6165a3.2623 3.2623 0 01.031-.37v-4.9761l-.02-.9873-.021-.9869v-1.9718q0-.3708.01-.6172a3.0631 3.0631 0 01.031-.3706v-1.9743l-.021-.4929-.02-.493v-1.974l.02-.9871.021-.987v-.9833l-.021-.4928-.02-.4933.02-.9869.021-.9873V1.1493a.5014.5014 0 01.04-.1951.584.584 0 01.122-.1742.5457.5457 0 01.183-.123.5985.5985 0 01.224-.0407h3.5c.163 0 .315-.0018.458-.0054s.275-.0087.398-.0156c.12-.0072.252-.0124.395-.0159s.294-.0051.457-.0051a.9771.9771 0 01.51.1337 1.1464 1.1464 0 01.386.4012l.468.8633.467.8633q.1425.2676.26.4889l.21.3947q.0915.1755.208.3966c.078.1473.164.31.26.4883q.243.4312.477.8736t.458.8948l.508.8635.509.8634.469.8633.469.8631q.1215.2469.228.4579c.071.1405.138.2693.198.3857s.133.25.218.4069.182.327.291.5189l.487.8843.488.8842.47.8635.468.8633q.1215.2264.239.4266t.229.3756c.074.1164.154.2553.238.4166s.175.3447.27.55c.108.192.205.3651.289.5193s.158.29.22.4069q.09.1746.198.3853.1065.2107.228.4564h.083a.14.14 0 00.06-.01.0274.0274 0 00.014-.0124.026.026 0 00.005-.0189v-.9879c-.013-.0954-.022-.239-.028-.431s-.01-.4319-.01-.72c0-.1509.002-.2951.005-.4324s.008-.2672.014-.39.011-.2642.014-.422.005-.3324.005-.5242v-2.88a3.5262 3.5262 0 01-.028-.37c-.007-.1646-.01-.37-.01-.6174 0-.191.002-.3676.005-.5285s.008-.3067.014-.4382.011-.2758.014-.4382.005-.3379.005-.53V4.0665a3.5147 3.5147 0 01-.028-.37q-.0105-.2469-.01-.6167c0-.1917.002-.3682.005-.53s.008-.3076.014-.4383.011-.2754.014-.4363.005-.3377.005-.53a.5087.5087 0 01.041-.2.7094.7094 0 01.124-.19.5332.5332 0 01.182-.1387.54.54 0 01.225-.0465h5.249a.4562.4562 0 01.197.0461.6836.6836 0 01.186.1387.6827.6827 0 01.139.19.4605.4605 0 01.045.2V25.9a3.2658 3.2658 0 00-.031.37q-.01.2469-.01.6166l.021.9871.021.987-.021.9869-.021.9873a.6219.6219 0 01-.04.226.5514.5514 0 01-.122.1853.561.561 0 01-.173.1226.4678.4678 0 01-.193.0409h-2.645a2.3009 2.3009 0 01-.316.0314c-.143.0073-.323.0109-.539.0107-.162 0-.315-.002-.457-.0058s-.276-.0086-.398-.0149-.258-.0126-.407-.016-.312-.005-.486-.005a1.0294 1.0294 0 01-.52-.123.8488.8488 0 01-.336-.37l-.488-.8843-.488-.8841-.469-.8637-.468-.8632c-.082-.1373-.2-.3535-.356-.6484s-.349-.6681-.579-1.12l-.488-.8844-.488-.8841-.49-.8633-.489-.8633-.468-.8635-.467-.8634-.245-.4522-.245-.452a3.3 3.3 0 00-.171-.3809c-.074-.144-.166-.3051-.274-.4833l-.469-.8842-.469-.8843-.488-.8631-.486-.86q-.1215-.2269-.238-.4266t-.229-.3756q-.1125-.1746-.24-.4166t-.269-.55l-.041-.02-.042-.02a.0806.0806 0 00-.032.004.0816.0816 0 00-.028.0166.1022.1022 0 00-.016.0292.0935.0935 0 00-.003.0333c0 .1917.002.3681.005.529s.008.3063.014.4363.011.277.014.4383.005.3376.005.5289v9.6633c0 .192-.002.3685-.005.53s-.007.3072-.014.4382-.011.2755-.014.4363-.005.3373-.005.529.002.3687.005.53.008.3074.014.4382.011.2762.014.4381.005.3375.005.5284v1.9341a.532.532 0 01-.045.226.54.54 0 01-.136.1851.7025.7025 0 01-.189.1229.5081.5081 0 01-.199.0409c-.176 0-.339.0018-.488.0051s-.285.0086-.405.0159c-.124.0062-.255.0116-.398.0151s-.295.0055-.458.0055c-.176 0-.339-.0018-.488-.0055-.149-.01-.286-.0154-.408-.0217zM261.785 31.4117h-2.604a.5936.5936 0 01-.223-.0409.56.56 0 01-.184-.1228.5663.5663 0 01-.121-.1851.6028.6028 0 01-.041-.226v-.9864a3.05 3.05 0 01-.031-.37c-.006-.1644-.01-.37-.01-.6164l.021-.987.021-.9873V23.93a3.0665 3.0665 0 01-.031-.3707c-.007-.1644-.011-.37-.01-.6172l.02-.9864.021-.9861v-1.974c0-.2058-.002-.3942-.005-.5653s-.009-.3252-.017-.4625-.011-.2882-.015-.4524-.004-.3427-.004-.5355l.02-.9862.021-.9863V9.0853l-.021-.9871-.02-.9869.02-.9863.021-.9862V3.1646l-.021-.9867-.02-.987a.5914.5914 0 01.045-.2309.6343.6343 0 01.139-.201.61.61 0 01.198-.139.565.565 0 01.228-.046h5.249a.4214.4214 0 01.193.046.5717.5717 0 01.172.1387.6647.6647 0 01.124.201.631.631 0 01.043.2313l.019.987.019.9867v3.9466l-.019.9869-.019.9871v9.91q0 .37.009.6166a3.2668 3.2668 0 00.029.37v1.974a3.2668 3.2668 0 00-.029.37q-.009.2463-.009.6167v1.9738l.019.4939.019.494v4.9344a.5889.5889 0 01-.046.2306.625.625 0 01-.136.2.7017.7017 0 01-.189.14.4538.4538 0 01-.199.0468h-1.748c-.218 0-.402-.0036-.551-.0107a3.039 3.039 0 01-.347-.0337z"/></g></svg>