<svg viewBox="0 0 24 24" fill="currentColor"><path d="M23 0H3c-.552 0-1 .447-1 1v2H1c-.552 0-1 .447-1 1s.448 1 1 1h1v2H1c-.552 0-1 .447-1 1s.448 1 1 1h1v2H1c-.552 0-1 .447-1 1s.448 1 1 1h1v2H1c-.552 0-1 .447-1 1s.448 1 1 1h1v2H1c-.552 0-1 .447-1 1s.448 1 1 1h1v2c0 .553.448 1 1 1h20c.552 0 1-.447 1-1V1c0-.553-.448-1-1-1zm-5 22H4v-1c.552 0 1-.447 1-1s-.448-1-1-1v-2c.552 0 1-.447 1-1s-.448-1-1-1v-2c.552 0 1-.447 1-1s-.448-1-1-1V9c.552 0 1-.447 1-1s-.448-1-1-1V5c.552 0 1-.447 1-1s-.448-1-1-1V2h14v20zm4 0h-2v-8h2v8zm0-10h-2v-2h2v2zm0-4h-2V6h2v2zm0-4h-2V2h2v2z"/></svg>