<svg viewBox="0 0 24 24" fill="currentColor"><path d="M23 8c.553 0 1-.447 1-1s-.447-1-1-1h-3V4h3c.553 0 1-.447 1-1s-.447-1-1-1h-3V1c0-.553-.447-1-1-1s-1 .447-1 1v1H1c-.553 0-1 .447-1 1s.447 1 1 1h17v2H1c-.553 0-1 .447-1 1s.447 1 1 1h17v2H1c-.553 0-1 .447-1 1s.447 1 1 1h17v2H1c-.553 0-1 .447-1 1s.447 1 1 1h17v2H1c-.553 0-1 .447-1 1s.447 1 1 1h17v1c-.553 0-1 .447-1 1v1c0 .553.447 1 1 1h2c.553 0 1-.447 1-1v-1c0-.553-.447-1-1-1v-1h3c.553 0 1-.447 1-1s-.447-1-1-1h-3v-2h3c.553 0 1-.447 1-1s-.447-1-1-1h-3v-2h3c.553 0 1-.447 1-1s-.447-1-1-1h-3V8h3z"/></svg>