<svg viewBox="0 0 24 24" fill="currentColor"><path d="M18 21c.553 0 1-.447 1-1v-6c0-.553-.447-1-1-1s-1 .447-1 1v6c0 .553.447 1 1 1zm-4.213-7.232l-1.743 5.935c-.161.546.194 1.107.794 1.254.599.146 1.214-.178 1.375-.724l1.743-5.935c.161-.547-.194-1.108-.794-1.254-.599-.147-1.215.178-1.375.724zM21 21c.553 0 1-.447 1-1v-6c0-.553-.447-1-1-1s-1 .447-1 1v6c0 .553.447 1 1 1zM9.787 7.232c.16.546.776.87 1.375.724.6-.146.955-.707.794-1.254L10.213.767c-.161-.546-.776-.87-1.375-.724-.6.146-.955.707-.794 1.254l1.743 5.935zM14 10c0-.553-.447-1-1-1H1c-.553 0-1 .447-1 1s.447 1 1 1h12c.553 0 1-.447 1-1zM6 8c.553 0 1-.447 1-1V1c0-.553-.447-1-1-1S5 .447 5 1v6c0 .553.447 1 1 1zm17 14H11c-.553 0-1 .447-1 1s.447 1 1 1h12c.553 0 1-.447 1-1s-.447-1-1-1zM3 8c.553 0 1-.447 1-1V1c0-.553-.447-1-1-1S2 .447 2 1v6c0 .553.447 1 1 1z"/></svg>