<svg viewBox="0 0 24 24" fill="currentColor"><path d="M11 12c0 .553.447 1 1 1s1-.447 1-1-.447-1-1-1-1 .447-1 1zm1-12C5.373 0 0 5.373 0 12s5.373 12 12 12 12-5.373 12-12S18.627 0 12 0zm9.949 11h-5.05c-.124-.611-.367-1.177-.692-1.686l3.915-3.132c.994 1.385 1.649 3.03 1.827 4.818zm-6.146-8.245c1.115.46 2.13 1.113 3 1.922l-4.002 3.202c-.188-.128-.387-.242-.591-.346l1.593-4.778zM15 12c0 1.657-1.343 3-3 3s-3-1.343-3-3 1.343-3 3-3 3 1.343 3 3zm-3 10C6.478 22 2 17.522 2 12S6.478 2 12 2c.646 0 1.275.063 1.886.18l-1.613 4.842C12.181 7.017 12.093 7 12 7c-2.762 0-5 2.238-5 5s2.238 5 5 5c2.419 0 4.436-1.718 4.899-4h5.05c-.502 5.053-4.763 9-9.949 9z"/></svg>