<svg viewBox="0 0 24 24" fill="currentColor"><path fill-rule="evenodd" d="M4.514 17.925C5.196 19.156 6.492 20 8 20c2.209 0 4-1.791 4-4v-2c0-.553-.447-1-1-1H5c-.553 0-1 .447-1 1-1.104 0-2 .896-2 2s.896 2 2 2c.179 0 .349-.031.514-.075zM6 15h4v1c0 1.104-.896 2-2 2s-2-.896-2-2v-1zM23 0H3c-.553 0-1 .447-1 1v6c0 .553.447 1 1 1h3v1c0 .553.447 1 1 1h2c.553 0 1-.447 1-1V8h3c.553 0 1 .447 1 1v13H1c-.553 0-1 .447-1 1s.447 1 1 1h22c.553 0 1-.447 1-1V1c0-.553-.447-1-1-1zm-1 8h-2c-.553 0-1 .447-1 1s.447 1 1 1h2v2h-2c-.553 0-1 .447-1 1s.447 1 1 1h2v8h-6V9c0-1.459-1.541-3-3-3H4V2h18m-3 4c.553 0 1-.447 1-1s-.447-1-1-1-1 .447-1 1 .447 1 1 1z" clip-rule="evenodd"/></svg>