<svg viewBox="0 0 24 24" fill="currentColor"><path fill-rule="evenodd" d="M19 8h-2V7c0-.553-.447-1-1-1H3c-.553 0-1 .447-1 1v16c0 .553.447 1 1 1h13c.553 0 1-.447 1-1v-4h2c1.657 0 3-1.343 3-3v-5c0-1.657-1.343-3-3-3zM7 8h2v6c0 .553-.447 1-1 1s-1-.447-1-1V8zm8 14H4V8h1v6c0 1.657 1.343 3 3 3s3-1.343 3-3V8h1v4c0 .553.447 1 1 1s1-.447 1-1V8h1v14zm5-6c0 .553-.447 1-1 1h-2v-7h2c.553 0 1 .447 1 1v5zm0-16c-1.657 0-3 1.343-3 3s1.343 3 3 3 3-1.343 3-3-1.343-3-3-3zm0 4c-.553 0-1-.447-1-1s.447-1 1-1 1 .447 1 1-.447 1-1 1zM3 3c0-.553-.447-1-1-1s-1 .447-1 1 .447 1 1 1 1-.447 1-1z" clip-rule="evenodd"/></svg>