<svg viewBox="0 0 24 24" fill="currentColor"><path d="M23 9c-.553 0-1 .447-1 1v1h-1V6c0-.553-.447-1-1-1h-1V4h1c.553 0 1-.447 1-1s-.447-1-1-1H8c-.553 0-1 .447-1 1s.447 1 1 1h1v1H8C6.343 5 5 3.97 5 3c0-.553-.447-1-1-1s-1 .447-1 1v8.586l-1.293-1.293C1.526 10.112 1.276 10 1 10c-.553 0-1 .447-1 1 0 .276.112.526.293.707L3 14.414v2.172l-1.293-1.293C1.526 15.112 1.276 15 1 15c-.553 0-1 .447-1 1 0 .276.112.526.293.707L3 19.414V20c0 .553.447 1 1 1h1v1c0 .553.447 1 1 1s1-.447 1-1v-1h10v1c0 .553.447 1 1 1s1-.447 1-1v-1h1c.553 0 1-.447 1-1v-1h2c.553 0 1-.447 1-1v-8c0-.553-.447-1-1-1zM7 19H5V6.133c.584.368 1.256.649 2 .779V19zm4-15h6v1h-6V4zm8 15H9v-2h10v2zm0-4H9v-2h10v2zm0-4H9V7h10v4zm3 6h-1v-4h1v4z"/></svg>