<svg viewBox="0 0 24 24" fill="currentColor"><path d="M11 16h4c.553 0 1-.447 1-1V9c0-.553-.447-1-1-1h-4c-.553 0-1 .447-1 1v6c0 .553.447 1 1 1zm1-6h2v4h-2v-4zm-7 2h2c.553 0 1-.447 1-1s-.447-1-1-1H5c-.553 0-1 .447-1 1s.447 1 1 1zm16-9h-1V1c0-.553-.447-1-1-1H1C.447 0 0 .447 0 1v20c0 1.657 1.343 3 3 3h18c1.657 0 3-1.343 3-3V6c0-1.657-1.343-3-3-3zm-3 19H3c-.553 0-1-.447-1-1V6h16v16zm0-18H2V2h16v2zm4 17c0 .553-.447 1-1 1s-1-.447-1-1V5h1c.553 0 1 .447 1 1v15zM5 16h2c.553 0 1-.447 1-1s-.447-1-1-1H5c-.553 0-1 .447-1 1s.447 1 1 1zm0 4h10c.553 0 1-.447 1-1s-.447-1-1-1H5c-.553 0-1 .447-1 1s.447 1 1 1z"/></svg>