<svg viewBox="0 0 24 24" fill="currentColor"><path d="M23 5V2c0-.553-.447-1-1-1h-3c0-.553-.447-1-1-1H2c-.553 0-1 .447-1 1v22c0 .553.447 1 1 1h16c.276 0 .526-.112.707-.293l4-4c.181-.181.293-.431.293-.707v-3c0-.553-.447-1-1-1h-1.586l2.293-2.293c.181-.181.293-.431.293-.707V9c0-.553-.447-1-1-1h-1.586l2.293-2.293C22.888 5.526 23 5.276 23 5zm-6 17H3V2h14v20zm4-5v1.586l-2 2V17h2zm0-7v1.586l-2 2V10h2zm0-5.414l-2 2V3h2v1.586zM6 10h8c.553 0 1-.447 1-1V5c0-.553-.447-1-1-1H6c-.553 0-1 .447-1 1v4c0 .553.447 1 1 1zm1-4h6v2H7V6z"/></svg>