<svg viewBox="0 0 24 24" fill="currentColor"><path d="M22.597 4.476C22.846 4.038 23 3.539 23 3c0-1.657-1.343-3-3-3-.829 0-1.579.336-2.122.879l.002.002-.702 1.246L16.98.804l-.02.004C16.869.351 16.484 0 16 0c-.046 0-.085.021-.13.026l-.002-.018-15 2 .002.018C.382 2.093 0 2.494 0 3c0 .068.026.128.039.192l-.019.004 3 20 .019-.004c.092.457.477.808.961.808.046 0 .085-.021.13-.026l.002.018 15-2-.002-.018c.488-.067.87-.468.87-.974 0-.068-.026-.128-.039-.192l.02-.004-1.492-9.947c.129-.08.243-.185.329-.312l2.729-4.361c.266.179.453.469.453.816 0 .276-.112.526-.293.707l-2.564 4.778S19 12.624 19 13c0 .553.448 1 1 1 .364 0 .668-.204.843-.494l.015.009 2.563-4.757C23.781 8.263 24 7.659 24 7c0-1.067-.563-1.994-1.403-2.524zM4.842 21.879L2.139 3.857l13.02-1.736.425 2.837-1.438 2.554C14.061 7.658 14 7.819 14 8c0 .738.73 1.021.73 1.021l-3.536 5.732s-.194.203-.194.746c0 .189.043.368.108.535l-.94 1.41.015.01c-.106.16-.183.341-.183.546 0 .552.448 1 1 1 .347 0 .637-.188.817-.455l.015.01 1.094-1.641c.491-.148.869-.531 1.008-1.021l2.661-4.194 1.267 8.443-13.02 1.737zM20.707 3.707l-2.646 4.296-.406-2.709 1.683-3.017C19.337 2.277 19.48 2 20 2c.552 0 1 .447 1 1 0 .276-.112.526-.293.707z"/></svg>