<svg viewBox="0 0 24 24" fill="currentColor"><path d="M23 4h-3.811l.721-1.586-.004-.002C19.964 2.285 20 2.147 20 2c0-.553-.447-1-1-1-.404 0-.749.243-.906.588l-.004-.002L16.992 4H1c-.553 0-1 .447-1 1v16c0 .553.447 1 1 1h22c.553 0 1-.447 1-1V5c0-.553-.447-1-1-1zM6 20H2V6h4v14zm16 0H8V6h8.083l-2.993 6.586.004.002c-.058.127-.094.265-.094.412 0 .553.447 1 1 1 .404 0 .749-.243.906-.588l.004.002L18.28 6H22v14zM4 14c.553 0 1-.447 1-1s-.447-1-1-1-1 .447-1 1 .447 1 1 1zm0-3c.553 0 1-.447 1-1V8c0-.553-.447-1-1-1s-1 .447-1 1v2c0 .553.447 1 1 1zm0 8c.553 0 1-.447 1-1v-2c0-.553-.447-1-1-1s-1 .447-1 1v2c0 .553.447 1 1 1z"/></svg>