<svg viewBox="0 0 24 24" fill="currentColor"><path d="M23 1c0-.553-.447-1-1-1-.084 0-.16.028-.238.048L21.758.03 15 1.719V1c0-.553-.447-1-1-1h-4c-.553 0-1 .447-1 1v.719L2.242.03l-.004.018C2.16.028 2.084 0 2 0c-.553 0-1 .447-1 1 0 .468.328.843.762.952l-.004.018L9 3.781v1.147l-1.99 13.93.019.003c-.008.047-.029.09-.029.139 0 .276.112.526.293.707l4 4c.181.181.431.293.707.293s.526-.112.707-.293l4-4c.181-.181.293-.431.293-.707 0-.049-.021-.092-.028-.139l.019-.003L15 4.929V3.781l7.242-1.812-.004-.018C22.672 1.843 23 1.468 23 1zM11 2h2v2h-2V2zm1 19.586l-2.939-2.939L10.867 6h2.266l1.807 12.646-2.94 2.94z"/></svg>