<svg viewBox="0 0 114.78 53.11" fill="currentColor"><defs><style>.cls-1{fill:#a47449}</style></defs><g id="Layer_2" data-name="Layer 2"><g id="Layer_1-2" data-name="Layer 1"><g id="Text_top" data-name="Text top"><path d="M56 26a.6.6 0 00.6-.59.6.6 0 10-.6.59zM54 32.05a.5.5 0 00.5-.5 6.32 6.32 0 01.9-3.4l.32-.66a.49.49 0 00-.23-.66.5.5 0 00-.67.23l-.32.65a7.31 7.31 0 00-1 3.84.5.5 0 00.5.5z" class="cls-1"/><path d="M80.53 49.61h-3.59a1.47 1.47 0 00.11-.47L77.79 38c0-.61-.62-1-1.88-1.34a15.53 15.53 0 00-3.71-.35 16.26 16.26 0 00-3.7.42c-1.25.32-1.86.77-1.86 1.38l.69 11.1a1.75 1.75 0 00.09.41h-3.25a2.09 2.09 0 00.35-1.16l-.12-17a9.14 9.14 0 00-1.46-4.7 15.12 15.12 0 01-2.14-7.86h.05a.86.86 0 000-1.72h-6.07a.87.87 0 100 1.73h.08a15.16 15.16 0 01-2 7.9 9.07 9.07 0 00-1.38 4.71l.11 17a2.18 2.18 0 00.31 1.06h-3.49a1.26 1.26 0 00.12-.47L49.26 38c0-.61-.62-1-1.88-1.34a15.44 15.44 0 00-3.7-.35c-.55 0-5.2.1-5.53 1.62v.18l.7 11.1a1.36 1.36 0 00.09.41h-5a.5.5 0 000 1h46.59a.5.5 0 000-1zm-33-.53a.51.51 0 01-.5.47l-6.7.06a.5.5 0 01-.5-.47l-.63-10a5.66 5.66 0 00.81.24 15.58 15.58 0 003.51.35h.2a16.26 16.26 0 003.7-.42 5.52 5.52 0 00.78-.25zM43.7 38.77a9.4 9.4 0 01-4.52-.7c.38-.3 1.92-.76 4.51-.79s4.13.42 4.51.7c-.38.29-1.91.76-4.5.79zm10-11.47a16.35 16.35 0 002.13-8.36h3.95a16.28 16.28 0 002.26 8.32 8.09 8.09 0 011.34 4.23v2.37l-11 .09v-2.4a8 8 0 011.34-4.25zm5.79 15.29a.76.76 0 01.15.54.54.54 0 01-.54.51h-2.17a.54.54 0 01-.54-.51.76.76 0 01.16-.54c.15-.18.06-.36 0-.53L55.88 40a3.18 3.18 0 01-.18-.54 2.86 2.86 0 01-1 .19c-.6 0-.91-.65-1-.74s-.12-.35.21-.35h1.67a1.34 1.34 0 01.37-.69 2.62 2.62 0 01-.21-.45 3.19 3.19 0 01-.09-1.67 2.84 2.84 0 00.67 1.34 1.58 1.58 0 00.49.38 11.18 11.18 0 012.24 0 1.71 1.71 0 00.49-.37 3 3 0 00.66-1.35 3.19 3.19 0 01-.09 1.67 2.11 2.11 0 01-.21.46 1.22 1.22 0 01.37.68H62c.33 0 .26.26.21.35s-.35.74-1 .74a2.91 2.91 0 01-.95-.19 3.18 3.18 0 01-.18.54l-.68 2.08c.05.15-.05.33.11.51zm-6.61 6.71a1.07 1.07 0 01-.32-.76v-2.77l11-.09v2.77a1.1 1.1 0 01-1.07 1.09l-8.8.07a1 1 0 01-.81-.31zm23.18-.22a.52.52 0 01-.5.47l-6.71.06a.51.51 0 01-.5-.47l-.62-10a5.91 5.91 0 00.8.24 15.58 15.58 0 003.51.35h.2a16.19 16.19 0 003.7-.42 5.13 5.13 0 00.78-.25zm-3.84-10.31a9.47 9.47 0 01-4.52-.7c.38-.3 1.92-.76 4.51-.79s4.13.42 4.52.7c-.38.29-1.92.76-4.51.79zM70.53 52.11H43.86a.5.5 0 000 1h26.67a.5.5 0 000-1z" class="cls-1"/><path d="M73.46 42.06l-.64-1a1 1 0 00-1.38-.32l-1.91 1.21a1 1 0 00-.45.62 1 1 0 00.13.76l.26.41a3.11 3.11 0 01-.93-.09l.39 4.49a.47.47 0 00.46.43h5.47a.46.46 0 00.46-.41L76 42a3.65 3.65 0 00-2.54.06zm-1.54 1.83l-.21.53-.45.28-1.2-1.92 1.94-1.2 1.11 1.77a.9.9 0 00-1.19.54zm1.92 2.7L72.19 46l.63-1.64 1.65.63zM46.57 41.55a1 1 0 00-.31-.7 1.09 1.09 0 00-.72-.28l-2.26.06a1 1 0 00-1 1v1.68l-.58.29a3.45 3.45 0 01-1.76 0l.39 4.49a.47.47 0 00.45.43h5.47a.44.44 0 00.46-.41l.72-6.11a3.28 3.28 0 00-.85-.15zm-3.74 4.64L42 44.63l1.56-.8.81 1.56zm1.9-2.33l-.28-.56a.94.94 0 00-.54-.46.89.89 0 00-.56 0v-1.23l2.26-.05.06 2.25zM57.89 13.42a.51.51 0 00.5-.5V.5a.5.5 0 00-.5-.5.5.5 0 00-.5.5v12.42a.5.5 0 00.5.5zM55.68 13.27a.49.49 0 00.48.37h.13a.5.5 0 00.35-.61l-2.52-9.57a.5.5 0 00-1 .25zM54.12 14.06a.5.5 0 00.43.25.45.45 0 00.25-.07.51.51 0 00.19-.68L48.78 2.81a.51.51 0 00-.69-.19.51.51 0 00-.18.69zM52.82 15.22a.49.49 0 00.35.15.51.51 0 00.36-.15.5.5 0 000-.7l-7.21-7.21a.5.5 0 00-.7 0 .5.5 0 000 .71zM59.37 13.63h.13a.5.5 0 00.49-.37l2.52-9.56a.5.5 0 10-1-.25L59 13a.5.5 0 00.37.63zM60.86 14.24a.45.45 0 00.25.07.5.5 0 00.43-.25l6.21-10.75a.51.51 0 00-.18-.69.49.49 0 00-.68.19l-6.21 10.75a.49.49 0 00.18.68zM62.14 15.22a.48.48 0 00.7 0L70.05 8a.5.5 0 00-.71-.71l-7.2 7.21a.48.48 0 000 .72zM104.3 38.25c.74-.79 1.43-1.53 1.33-2.53a2.74 2.74 0 00-3 1.74 2.9 2.9 0 00.21 3.1 4.46 4.46 0 011.46-2.31zM103.77 41.13a2.73 2.73 0 003-1.74 2.89 2.89 0 00-.24-3.13 4.81 4.81 0 01-1.55 2.6c-.75.77-1.37 1.43-1.21 2.27z" class="cls-1"/><path d="M110.15 42.4c-2.61 0-5.5 1.31-8.85 2.83l-1.06.47a3.08 3.08 0 00.52-1.62 2.69 2.69 0 00-2.85-2.79 2.16 2.16 0 00-2.23 2.19 1.71 1.71 0 001.61 1.74.5.5 0 00.5-.5.5.5 0 00-.5-.5.71.71 0 01-.61-.74 1.16 1.16 0 011.23-1.19 1.73 1.73 0 011.85 1.79c0 1.14-1.35 2.36-2.35 2.84l-.19.08a25.43 25.43 0 01-9.3 2.24c-4.77 0-6-3.42-6-5.44a5.08 5.08 0 015.38-5.31c2.16 0 4.46 1.41 4.46 4a2.47 2.47 0 01-2.55 2.66c-1.89 0-2.09-1.27-2.09-1.82 0 0 0-.84.72-.84a.5.5 0 000-1 1.75 1.75 0 00-1.72 1.84 2.77 2.77 0 003.09 2.82 3.42 3.42 0 003.55-3.66c0-3.26-2.82-5-5.46-5a6.08 6.08 0 00-6.38 6.31c0 2.39 1.48 6.44 7 6.44a26.13 26.13 0 009.67-2.31h.2c1.34-.54 2.64-1.13 3.9-1.69 3.24-1.47 6-2.74 8.43-2.74a3.48 3.48 0 013.63 3.36 2.73 2.73 0 01-2.8 2.68c-1 0-2.12-.6-2.12-1.45s.43-1.4 1-1.4a.51.51 0 00.5-.5.5.5 0 00-.5-.5 2.18 2.18 0 00-2 2.4c0 1.51 1.62 2.45 3.12 2.45a3.69 3.69 0 003.8-3.68 4.47 4.47 0 00-4.6-4.46zM83.65 31.45a2.27 2.27 0 002.27-2.27 5.12 5.12 0 00-1.37-2.68c-.18-.24-.35-.47-.48-.66a.48.48 0 00-.41-.22.44.44 0 00-.41.2c-.1.14-.22.29-.35.45a5.57 5.57 0 00-1.52 2.91 2.27 2.27 0 002.27 2.27zm0-4.5l.12.16a4.8 4.8 0 011.16 2.07 1.27 1.27 0 01-2.54 0A5.15 5.15 0 0183.64 27z" class="cls-1"/><path d="M69.41 30.38a6 6 0 004.24 3.69 18.45 18.45 0 007.51 0l1.74-.21c1.41-.15 2.77-.36 4.09-.56 3.21-.5 6-.92 8.08-.33a3.15 3.15 0 012.35 3.8c-.59 2.09-2.86 1.69-3.11 1.64a1.82 1.82 0 01-1.48-1.15 1.33 1.33 0 01.24-1.26 1 1 0 011-.26.5.5 0 00.23-1 2 2 0 00-2 .55 2.33 2.33 0 00-.46 2.28 2.8 2.8 0 002.22 1.82 4.78 4.78 0 00.89.09 3.28 3.28 0 003.39-2.44 4.13 4.13 0 00-3-5c-2.3-.65-5.18-.21-8.5.3-1.31.2-2.66.4-4 .55-.58.06-1.17.14-1.77.22-2.37.31-4.83.64-7.11 0A5.09 5.09 0 0170.34 30a6.07 6.07 0 01-.22-3.69 5.19 5.19 0 012.38-3.07 4.51 4.51 0 013.61-.24 3.79 3.79 0 012.51 4.68 2.13 2.13 0 01-2.71 1.69c-1.19-.31-1.47-1.11-1.33-1.74a1 1 0 011.09-.94.48.48 0 00.56-.42.51.51 0 00-.42-.57 2 2 0 00-2.21 1.72 2.48 2.48 0 002.05 2.92A3.13 3.13 0 0079.58 28a4.77 4.77 0 00-3.18-5.92 5.49 5.49 0 00-4.38.33 6.17 6.17 0 00-2.86 3.68 7.06 7.06 0 00.25 4.29zM11.9 40.56a2.9 2.9 0 00.21-3.1 2.74 2.74 0 00-3-1.74c-.1 1 .59 1.74 1.33 2.53a4.46 4.46 0 011.46 2.31zM11 41.13c.16-.84-.46-1.5-1.18-2.27a4.81 4.81 0 01-1.55-2.6A2.87 2.87 0 008 39.39a2.72 2.72 0 003 1.74z" class="cls-1"/><path d="M27.52 37.49c-2.65 0-5.46 1.76-5.46 5a3.42 3.42 0 003.55 3.66 2.77 2.77 0 003.09-2.82 1.75 1.75 0 00-1.7-1.82.5.5 0 100 1c.72 0 .72.83.72.84 0 .55-.2 1.82-2.09 1.82a2.46 2.46 0 01-2.55-2.66c0-2.61 2.3-4 4.46-4a5.08 5.08 0 015.36 5.29c0 2-1.27 5.44-6 5.44A25.43 25.43 0 0117.56 47l-.19-.08c-1-.48-2.35-1.7-2.35-2.84a1.72 1.72 0 011.84-1.79 1.15 1.15 0 011.24 1.19.71.71 0 01-.62.74.51.51 0 00-.5.5.5.5 0 00.5.5 1.71 1.71 0 001.62-1.74 2.14 2.14 0 00-2.24-2.19A2.69 2.69 0 0014 44.08a3.08 3.08 0 00.52 1.62l-1.07-.48c-3.34-1.51-6.23-2.82-8.84-2.82A4.47 4.47 0 000 46.76a3.69 3.69 0 003.79 3.68c1.51 0 3.13-.94 3.13-2.45a2.18 2.18 0 00-2-2.4.5.5 0 00-.5.5.51.51 0 00.5.5c.58 0 1 .6 1 1.4s-1.12 1.45-2.13 1.45A2.73 2.73 0 011 46.76a3.48 3.48 0 013.63-3.36c2.39 0 5.19 1.27 8.43 2.74 1.25.56 2.55 1.14 3.89 1.69h.2a26.13 26.13 0 009.67 2.31c5.55 0 7-4.05 7-6.44a6.08 6.08 0 00-6.3-6.21zM31.13 31.45a2.27 2.27 0 002.27-2.27 5.57 5.57 0 00-1.52-2.91c-.13-.16-.25-.31-.35-.45a.46.46 0 00-.41-.2.48.48 0 00-.41.22c-.13.19-.3.42-.48.66a5 5 0 00-1.37 2.68 2.27 2.27 0 002.27 2.27zM31 27.11l.12-.16a5.15 5.15 0 011.26 2.23 1.27 1.27 0 01-2.54 0A4.8 4.8 0 0131 27.11z" class="cls-1"/><path d="M19.8 39.51a4.78 4.78 0 00.89-.09 2.78 2.78 0 002.22-1.82 2.35 2.35 0 00-.45-2.28 2 2 0 00-2-.55.5.5 0 00-.37.6.5.5 0 00.6.37 1 1 0 011 .26 1.33 1.33 0 01.31 1.29 1.82 1.82 0 01-1.47 1.15c-.26.05-2.52.45-3.11-1.64a3.14 3.14 0 012.3-3.8c2.1-.59 4.87-.17 8.09.33 1.31.2 2.68.41 4.08.56l1.74.21a18.5 18.5 0 007.52 0 6.39 6.39 0 004.49-8 6.22 6.22 0 00-2.87-3.68 5.49 5.49 0 00-4.38-.33A4.78 4.78 0 0035.21 28a3.13 3.13 0 003.93 2.38 2.49 2.49 0 002.06-2.92 2 2 0 00-2.2-1.75.51.51 0 00-.42.57.49.49 0 00.57.42 1.06 1.06 0 011.09.94c.13.63-.15 1.43-1.33 1.74a2.13 2.13 0 01-2.71-1.69A3.78 3.78 0 0138.69 23a4.49 4.49 0 013.6.25 5.15 5.15 0 012.38 3.07c.39 1.38.52 5.57-3.79 6.78-2.29.64-4.74.31-7.12 0-.59-.1-1.18-.1-1.76-.21-1.39-.15-2.74-.35-4-.55-3.33-.51-6.2-1-8.51-.3a4.11 4.11 0 00-3 5 3.26 3.26 0 003.31 2.47z" class="cls-1"/></g></g></g></svg>