<svg viewBox="0 0 23 17.1" fill="currentColor"><defs><style>.cls-1{fill:#a47449}</style></defs><g id="Layer_2" data-name="Layer 2"><g id="Layer_1-2" data-name="Layer 1"><g id="Drinks_01" data-name="Drinks 01"><path d="M18.75 10l-.28-1.47a.93.93 0 00-.41-.53.9.9 0 00-.71-.15l-2 .39a1 1 0 00-.75 1.13v.22a3.21 3.21 0 00-.69.29s1.43 3.86 1.86 5.49c.15.59 5.7-.7 5.6-1.29-.21-1.29-.52-4.15-.52-4.15a3.31 3.31 0 01-1.41.33zm-1.95.41l-.14.55-.72.16-.43-2 2-.43.2 1a.84.84 0 00-.47.11.88.88 0 00-.44.65zm2 2.21l-1.48-.35.39-1.5 1.47.38zM11.3 4a.49.49 0 00.5-.49v-3a.5.5 0 00-.5-.5c-.26 0-.5.22-.5.49v3a.5.5 0 00.5.5zM12.51 4.06a.49.49 0 00.4-.21L14 2.33a.5.5 0 00-.1-.7.51.51 0 00-.7.11l-1.09 1.52a.5.5 0 00.1.7.47.47 0 00.3.1zM9.78 3.85a.51.51 0 00.4.2.55.55 0 00.3-.09.51.51 0 00.11-.7L9.47 1.73a.5.5 0 10-.81.59z" class="cls-1"/><path d="M23 14.47l-1.5-9.89a.61.61 0 000-.12c-.58-1.29-4.48-.55-5.28-.37a14.63 14.63 0 00-3.25 1c-.33.16-1.2.59-1.39 1.22-.19-.63-1.06-1.06-1.39-1.22A14.63 14.63 0 006.86 4c-.8-.18-4.69-.92-5.28.37a.61.61 0 00-.05.12L0 14.47c-.29 1.33 3.3 2.17 4 2.32a13.6 13.6 0 002.66.31h.23c.38 0 1.57-.05 1.73-.82l2.88-9.47 2.84 9.47c.16.77 1.35.81 1.74.82h.22a13.6 13.6 0 002.7-.31c.68-.15 4.27-.99 4-2.32zM7.71 16a7.54 7.54 0 01-3.46-.17A7.45 7.45 0 011 14.55l1.33-8.72c.24.15.48.27.61.34a15.75 15.75 0 003.25 1 17.36 17.36 0 003.14.37 6.52 6.52 0 00.91-.06zm11-.17a7.54 7.54 0 01-3.46.17l-2.49-8.48a6.52 6.52 0 00.91.06 17.63 17.63 0 003.15-.37 15.85 15.85 0 003.24-1c.14-.07.37-.19.61-.34L22 14.55a7.45 7.45 0 01-3.25 1.26z" class="cls-1"/><path d="M8.43 9.33a1 1 0 00-.75-1.13l-2-.39a.91.91 0 00-.74.19.93.93 0 00-.41.61L4.25 10l-.7.18a3.23 3.23 0 01-1.4-.33s-.32 2.9-.53 4.15c-.1.59 5.45 1.88 5.6 1.29.43-1.63 1.86-5.49 1.86-5.49a3.21 3.21 0 00-.69-.29zm-4.25 3.33l-.39-1.47 1.47-.38.39 1.5zm2.88-1.5L6.34 11l-.14-.55a.87.87 0 00-.41-.54.89.89 0 00-.48-.11l.2-1 2 .43z" class="cls-1"/></g></g></g></svg>