<svg viewBox="0 0 113.07 15.26" fill="currentColor"><defs><style>.cls-1{fill:#a47449}.cls-2{fill:#53575a}</style></defs><g id="Layer_2" data-name="Layer 2"><g id="Layer_1-2" data-name="Layer 1"><g id="Title_mid" data-name="Title mid"><path d="M3.35 10a2.47 2.47 0 00-3.06.51 3.1 3.1 0 002.38 1 4 4 0 012.33.74A2.64 2.64 0 003.35 10zM2.58 12.27a4.41 4.41 0 01-2.58-.9 2.62 2.62 0 001.65 2.31 2.48 2.48 0 003.05-.51c-.37-.68-1.18-.79-2.12-.9zM13.25 9.73a3.26 3.26 0 00-3.46-.54 3.07 3.07 0 00-2.26 3.14c1.11.21 2-.49 3-1.24a5.06 5.06 0 012.72-1.36zM11.12 11.88a5.45 5.45 0 01-3.07 1.48 3.24 3.24 0 003.49.58 3.07 3.07 0 002.25-3.15c-.92-.27-1.73.36-2.67 1.09zM112.78 10.5a2.45 2.45 0 00-3-.51 2.64 2.64 0 00-1.65 2.26 4 4 0 012.32-.77 3.1 3.1 0 002.33-.98zM110.5 12.27c-1 .11-1.76.22-2.13.9a2.49 2.49 0 003.06.51 2.61 2.61 0 001.64-2.31 4.4 4.4 0 01-2.57.9zM103.29 9.19a3.26 3.26 0 00-3.46.54 5 5 0 012.74 1.36c1 .75 1.86 1.45 3 1.24a3.08 3.08 0 00-2.28-3.14zM99.28 10.79a3.09 3.09 0 002.25 3.15 3.26 3.26 0 003.5-.58 5.45 5.45 0 01-3.03-1.48c-1-.73-1.79-1.36-2.72-1.09z" class="cls-1"/><path d="M33.32.48a1.44 1.44 0 01.45.52 2.23 2.23 0 01.27.79 3.12 3.12 0 010 1A5.48 5.48 0 0133.77 4l-1.58 4.38L29 .29h-.87L24.5 8.54 22.9 4a4.31 4.31 0 01-.27-1.16 4.29 4.29 0 010-1 3 3 0 01.31-.84 1.82 1.82 0 01.42-.53V.29h-6.9V.5l.33.41c.09.14.19.3.29.48s.2.38.31.61l.4.79c.08.15.21.43.38.84s.37.89.6 1.46.48 1.2.76 1.87.55 1.37.82 2.06l.8 2c.27.66.5 1.26.71 1.79a2.25 2.25 0 01.16 1.2 1.1 1.1 0 01-.33.58v.21h4.52v-.21a.93.93 0 01-.33-.58 2.4 2.4 0 01.26-1.26l2.17-5.1 1.93 5.51a1.49 1.49 0 01.08 1 1 1 0 01-.31.46v.21h4.59v-.21a1.09 1.09 0 01-.31-.57 2.18 2.18 0 01.13-1.15l.72-1.79c.28-.66.56-1.35.85-2.06s.56-1.4.85-2.09l.78-1.89c.23-.57.44-1.06.61-1.47s.29-.69.35-.82c.13-.32.26-.6.37-.83s.22-.42.32-.6.21-.33.31-.47a4.24 4.24 0 01.33-.38V.29h-6.59zM50 .5a1.91 1.91 0 011.11.85 3.28 3.28 0 01.32 1.71v2.76h-5.6V3.06a3 3 0 01.43-1.76 2 2 0 011-.8V.29h-7.04V.5a2.3 2.3 0 011 .81 2.91 2.91 0 01.43 1.75v9a3 3 0 01-.39 1.6 2.44 2.44 0 01-1.06.93v.21h7.07v-.21a2.33 2.33 0 01-1.06-.93 2.9 2.9 0 01-.4-1.6V9.15h5.63v2.95a3.18 3.18 0 01-.35 1.61 2.14 2.14 0 01-1.08.92v.21h7v-.21a2 2 0 01-1.12-.9 3.49 3.49 0 01-.32-1.63v-9A3.29 3.29 0 0156 1.37 2 2 0 0157.06.5V.29H50zM58.32.5a2.27 2.27 0 011.09.89A3.27 3.27 0 0159.76 3v9.1a3.22 3.22 0 01-.35 1.64 2.22 2.22 0 01-1.09.89v.21h7v-.21a2.24 2.24 0 01-1.08-.89 3.12 3.12 0 01-.35-1.64V3a3.16 3.16 0 01.35-1.65A2.29 2.29 0 0165.35.5V.29h-7zM77.49.17l-.68.08a8.28 8.28 0 01-.9 0h-6.57a7.93 7.93 0 01-.9 0l-.68-.08-.58-.17-.79 4.22.17.08a3.33 3.33 0 01.58-.3 2.54 2.54 0 01.64-.22 6 6 0 01.8-.1H70.55v8.42a3.12 3.12 0 01-.36 1.64 2.15 2.15 0 01-1.08.89v.21h7v-.21a2.19 2.19 0 01-1.08-.89 3.12 3.12 0 01-.35-1.64V3.62h1.96a5.62 5.62 0 01.8.1 2.62 2.62 0 01.65.22 4.29 4.29 0 01.58.37l.16-.08L78.07 0zM93.46 10.42a5.65 5.65 0 01-1.09.75 3.64 3.64 0 01-1.72.35H85.5a3.52 3.52 0 01.21-1.25 3.15 3.15 0 01.59-1 2.42 2.42 0 01.84-.62 2.37 2.37 0 011-.22 1.56 1.56 0 011.14.36 1.12 1.12 0 01.35.8 2.54 2.54 0 00.78-.12 2.19 2.19 0 00.68-.35 2 2 0 00.48-.59 1.78 1.78 0 00.18-.83 2.22 2.22 0 00-.89-1.83 3.69 3.69 0 00-2.35-.7 3.88 3.88 0 00-1.89.44 2.64 2.64 0 00-1.12 1.21v-3.2h4.94a4.51 4.51 0 011.73.25 3.56 3.56 0 01.89.5l.19-.07-.89-4.3a2.34 2.34 0 01-.5.15c-.2 0-.45.07-.77.1s-.74 0-1.27 0H79.9V.5c1 .32 1.44 1.17 1.44 2.56v9a3.26 3.26 0 01-.34 1.7 1.86 1.86 0 01-1.06.87v.21H90a9.9 9.9 0 011.32.07 7.25 7.25 0 01.84.14 2.23 2.23 0 01.58.21l.85-4.76z" class="cls-2"/></g></g></g></svg>