<svg viewBox="0 0 224.07 53.96" fill="currentColor"><defs><style>.cls-1{fill:#a47449}</style></defs><g id="Layer_2" data-name="Layer 2"><g id="Layer_1-2" data-name="Layer 1"><g id="Title_top" data-name="Title top"><path d="M111.66 13.42a.5.5 0 00.5-.5V.5a.5.5 0 00-1 0v12.42a.5.5 0 00.5.5zM109.45 13.27a.49.49 0 00.49.37h.12a.5.5 0 00.36-.61l-2.53-9.56a.5.5 0 10-1 .25zM102.55 2.81a.5.5 0 00-.68-.19.51.51 0 00-.18.69l6.2 10.75a.52.52 0 00.44.25.47.47 0 00.25-.07.49.49 0 00.18-.68zM100.1 7.31a.5.5 0 00-.71.71l7.2 7.2a.51.51 0 00.36.15.5.5 0 00.35-.15.48.48 0 000-.7zM113.15 13.63h.13a.49.49 0 00.48-.37l2.52-9.56a.49.49 0 00-.35-.61.5.5 0 00-.61.36L112.79 13a.5.5 0 00.36.63zM121.34 2.62a.5.5 0 00-.68.19l-6.21 10.75a.5.5 0 00.18.68.47.47 0 00.25.07.51.51 0 00.44-.25l6.21-10.75a.52.52 0 00-.19-.69zM123.82 7.31a.51.51 0 00-.71 0l-7.2 7.21a.5.5 0 000 .7.51.51 0 00.36.15.5.5 0 00.35-.15l7.2-7.2a.5.5 0 000-.71zM110.71 16.59a3.28 3.28 0 00-1.71 3.06 3.08 3.08 0 002.17 3.2c.58-1 .24-2.06-.13-3.22a5 5 0 01-.33-3.04zM111.89 16.44c-.57.78-.26 1.76.1 2.89a5.47 5.47 0 01.33 3.39 3.25 3.25 0 001.75-3.07 3.09 3.09 0 00-2.18-3.21zM170.68 3.08c-9 0-12.3 6.58-12.3 11 0 4.65 3 9.65 9.61 9.65 3.83 0 6.61-2.43 6.61-5.79a5.47 5.47 0 00-5.22-5.44c-2.64 0-4.06 1.68-4.06 3.27a2.65 2.65 0 002.37 2.76.51.51 0 00.5-.5.5.5 0 00-.5-.5 1.66 1.66 0 01-1.37-1.76c0-1.1 1.07-2.27 3.06-2.27a4.44 4.44 0 014.22 4.44c0 2.78-2.36 4.79-5.61 4.79-6 0-8.61-4.34-8.61-8.65 0-4 3-10 11.3-10a12.28 12.28 0 0112.73 12.08c0 9.92-8.6 13.51-14.38 13.51-6.05 0-12.28-3.67-17.21-6.87a10 10 0 002.79-6.33c0-.4-.14-9.58-12.07-9.58-10.3 0-19.14 6.51-23.89 10l-1.38 1v.05a.27.27 0 00-.07.08.2.2 0 000 .08.36.36 0 000 .09v.09a.34.34 0 000 .1.32.32 0 000 .09.64.64 0 000 .07v.05c0 .05 0 .05.08.06l.08.05h.44c4.15-2.34 6-2.83 7.51-2.83 1.36 0 5.79.37 5.79 5 0 4.4-4.68 4.45-4.88 4.45-2.48 0-3.36-1.47-3.36-2.84a2.59 2.59 0 012.47-2.68c1.47 0 1.86 1 1.86 1.51a1.15 1.15 0 01-1.1 1.15.5.5 0 00-.5.5.5.5 0 00.5.5 2.13 2.13 0 002.1-2.15 2.6 2.6 0 00-2.86-2.51 3.58 3.58 0 00-3.47 3.68c0 1.91 1.35 3.84 4.36 3.84 2 0 5.88-1.14 5.88-5.45s-3.51-6-6.79-6a8.83 8.83 0 00-3 .55c4.93-3.41 12.13-7.58 20.19-7.58 10.76 0 11.07 7.7 11.07 8.58a8.79 8.79 0 01-2.57 5.81l-.94-.61c-1.32-.88-2.47-1.64-3.46-2.22a3.48 3.48 0 001.23-2.7c0-2.56-2.63-4.15-5.06-4.15s-6.17 1.62-6.17 5.94c0 4.07 3.31 6.8 8.25 6.8a10.15 10.15 0 006.15-1.81c5.07 3.31 11.57 7.19 18 7.19 11.28 0 15.38-8.67 15.38-14.51a13.27 13.27 0 00-13.7-13.08zM144.8 24.29c-3.61 0-7.25-1.79-7.25-5.8a4.93 4.93 0 015.17-4.94c1.95 0 4.06 1.2 4.06 3.15a2.59 2.59 0 01-1.19 2.18 4.55 4.55 0 00-1.89-.59c-.92 0-1.33.51-1.33 1a1.35 1.35 0 001.5 1.18 4.18 4.18 0 001.75-.46c1.06.59 2.4 1.47 3.84 2.42l.65.43a9.35 9.35 0 01-5.31 1.43zm-.44-4.86a1.57 1.57 0 01-1-.07 1.46 1.46 0 011 .07z" class="cls-1"/><path d="M155.54 9.14c.29-1.09-.34-2.05-1-3.06a5.08 5.08 0 01-1.15-2.84 3.28 3.28 0 00-.8 3.41 3.08 3.08 0 002.95 2.49zM156.61 8.7a3.26 3.26 0 00.85-3.43 3.09 3.09 0 00-3-2.49c-.34.9.23 1.76.88 2.75a5.47 5.47 0 011.27 3.17zM189.07 16.36a5.06 5.06 0 01.78-3c.54-1.09 1.05-2.12.62-3.16a3.08 3.08 0 00-2.63 2.84 3.3 3.3 0 001.23 3.32zM190.22 16.68a3.09 3.09 0 002.64-2.84 3.28 3.28 0 00-1.28-3.31 5.47 5.47 0 01-.83 3.31c-.53 1.06-.98 1.99-.53 2.84zM202.56 27.34a5 5 0 012.77-1.3c1.18-.29 2.29-.56 2.81-1.56a3.08 3.08 0 00-3.86-.19 3.28 3.28 0 00-1.72 3.05zM203.05 28.43a3.08 3.08 0 003.87.19 3.25 3.25 0 001.71-3.1 5.43 5.43 0 01-3.07 1.48c-1.15.29-2.15.53-2.51 1.43zM105.89 18.3a.28.28 0 000-.09v-.09a.56.56 0 000-.08.27.27 0 00-.07-.08v-.05l-1.38-1c-4.75-3.5-13.59-10-23.89-10-11.93 0-12.07 9.18-12.07 9.58a10.06 10.06 0 002.79 6.33C66.21 26 60 29.67 53.92 29.67c-11.37 0-14.37-8.84-14.37-13.51A12.28 12.28 0 0152.27 4.08c8.29 0 11.3 6 11.3 10 0 4.31-2.66 8.65-8.61 8.65-3.25 0-5.61-2-5.61-4.79a4.45 4.45 0 014.23-4.44c2 0 3.05 1.17 3.05 2.27a1.65 1.65 0 01-1.36 1.76.5.5 0 00-.5.5.5.5 0 00.5.5 2.64 2.64 0 002.36-2.76c0-1.59-1.42-3.27-4.05-3.27a5.47 5.47 0 00-5.23 5.44c0 3.36 2.78 5.79 6.61 5.79 6.61 0 9.61-5 9.61-9.65 0-4.42-3.27-11-12.3-11a13.26 13.26 0 00-13.72 13.08 14.85 14.85 0 003.52 9.56c1.94 2.26 5.58 5 11.85 5 6.44 0 12.94-3.88 18-7.19a10.15 10.15 0 006.23 1.81c4.93 0 8.25-2.73 8.25-6.8 0-4.32-3.79-5.94-6.17-5.94s-5.07 1.59-5.07 4.15a3.48 3.48 0 001.23 2.7c-1 .58-2.14 1.34-3.46 2.22l-.93.61a8.77 8.77 0 01-2.67-5.76c0-.88.32-8.58 11.07-8.58 8.06 0 15.27 4.17 20.19 7.58a8.78 8.78 0 00-2.95-.55c-3.29 0-6.79 1.58-6.79 6s3.84 5.45 5.88 5.45c3 0 4.36-1.93 4.36-3.84a3.59 3.59 0 00-3.47-3.68 2.61 2.61 0 00-2.87 2.51 2.14 2.14 0 002.11 2.15.51.51 0 00.5-.5.5.5 0 00-.5-.5 1.15 1.15 0 01-1.11-1.15c0-.52.39-1.51 1.87-1.51a2.6 2.6 0 012.47 2.68c0 1.37-.89 2.84-3.36 2.84-.2 0-4.88-.05-4.88-4.45 0-4.64 4.43-5 5.79-5s3.35.49 7.5 2.83H105.58l.09-.05.07-.06v-.05a.64.64 0 000-.07.16.16 0 000-.09.34.34 0 00.15-.18zm-32.4 4.15c1.44-.95 2.78-1.83 3.84-2.42a4.18 4.18 0 001.75.46 1.35 1.35 0 001.5-1.18.93.93 0 00-.41-.77c-.55-.39-1.48-.32-2.81.34a2.59 2.59 0 01-1.19-2.18c0-1.95 2.11-3.15 4.07-3.15a4.94 4.94 0 015.17 4.94c0 4-3.65 5.8-7.25 5.8a9.37 9.37 0 01-5.32-1.41zm5.1-3a2.11 2.11 0 01.66-.14h.33c.02 0-.37.26-.99.12z" class="cls-1"/><path d="M67.42 9.14a3.1 3.1 0 003-2.49 3.29 3.29 0 00-.81-3.41 5 5 0 01-1.15 2.84c-.71 1.01-1.34 1.97-1.04 3.06zM66.35 8.7a5.46 5.46 0 011.24-3.17c.66-1 1.22-1.85.88-2.75a3.07 3.07 0 00-3 2.49 3.22 3.22 0 00.88 3.43zM33.55 16.36a3.3 3.3 0 001.23-3.28 3.08 3.08 0 00-2.63-2.84c-.43 1 .08 2.07.62 3.16a5.06 5.06 0 01.78 2.96zM32.4 16.68c.45-.85 0-1.78-.53-2.84a5.47 5.47 0 01-.87-3.31 3.28 3.28 0 00-1.28 3.31 3.09 3.09 0 002.68 2.84zM220.39 41.74c-1.49 0-3.15.84-3.2 2.36a2.65 2.65 0 00.51 1.71 1.87 1.87 0 001.42.75.51.51 0 00.52-.48.5.5 0 00-.49-.52.87.87 0 01-.66-.37 1.63 1.63 0 01-.3-1.06c0-.86 1.17-1.45 2.17-1.39a2.73 2.73 0 012.71 2.77 3.15 3.15 0 01-1.18 2.4 3.79 3.79 0 01-2.56.84c-2.39-.07-5.14-1.43-8.34-3-1.3-.64-2.65-1.31-4.07-1.92a26.19 26.19 0 00-9.59-2.62c-5.16-.12-7.15 3.64-7.24 6.23a6.16 6.16 0 006.18 6.5h.18A5.9 5.9 0 00200 52.8a4.65 4.65 0 001.9-3.7 3.91 3.91 0 00-.71-2.46 3.34 3.34 0 00-2.72-1.3 3 3 0 00-2.56 1 2.89 2.89 0 00-.62 1.72 2 2 0 00.34 1.18 1.63 1.63 0 001.33.72.52.52 0 00.52-.49.5.5 0 00-.48-.47.63.63 0 01-.53-.28 1.09 1.09 0 01-.17-.58 2 2 0 01.39-1.13 2 2 0 011.76-.62 2.35 2.35 0 011.94.9 2.85 2.85 0 01.52 1.83 3.7 3.7 0 01-1.5 2.94 5 5 0 01-3.08.94 5.15 5.15 0 01-5.21-5.47c.06-1.89 1.44-5.41 6.21-5.26a25.33 25.33 0 019.22 2.53c1.4.61 2.74 1.27 4 1.9 3.3 1.62 6.15 3 8.75 3.1a5 5 0 003.23-1.07 4.19 4.19 0 001.54-3.14 3.69 3.69 0 00-3.68-3.85zM195 36.11a13.61 13.61 0 002.2-6.14 14.27 14.27 0 012.59-6.83A21.22 21.22 0 01203 19.7a3.84 3.84 0 001.28-3.06 3.56 3.56 0 00-4.52-3.17 3.84 3.84 0 00-2.43 2.26c-2.33 5.93-5.05 7.47-7.67 9a13.59 13.59 0 00-5 4.16 25.43 25.43 0 00-3.66 8.45.47.47 0 00.06.35 10.44 10.44 0 002.94 2.78 13.91 13.91 0 003.82 1.94h.14a.48.48 0 00.26-.07 25.67 25.67 0 006.78-6.23zm3.26-20a2.86 2.86 0 011.74-1.68 2.55 2.55 0 013.23 2.27 2.82 2.82 0 01-.95 2.25 23.08 23.08 0 00-3 3.19l-3-2.09a22.81 22.81 0 001.93-3.96zm-2.52 4.79l3 2.07a15.17 15.17 0 00-1.15 2l-3.31-2.32a13.51 13.51 0 001.41-1.77zm-7.82 20.5a14 14 0 01-3.32-1.72 10.92 10.92 0 01-2.5-2.33 24.65 24.65 0 013.36-7.9 12.56 12.56 0 014.69-3.87 20.33 20.33 0 003.34-2.22l3.67 2.57a20.68 20.68 0 00-1 3.89 12.57 12.57 0 01-2 5.74 24.53 24.53 0 01-6.29 5.82zM18.74 26a5 5 0 012.77 1.3 3.28 3.28 0 00-1.72-3.05 3.08 3.08 0 00-3.86.19c.52 1.04 1.63 1.31 2.81 1.56zM17.15 28.62a3.08 3.08 0 003.85-.19c-.36-.9-1.36-1.14-2.51-1.42a5.43 5.43 0 01-3.07-1.49 3.25 3.25 0 001.73 3.1zM26.74 41.22a26.19 26.19 0 00-9.59 2.62c-1.42.61-2.77 1.28-4.07 1.92-3.2 1.56-5.95 2.92-8.34 3a3.8 3.8 0 01-2.56-.84A3.15 3.15 0 011 45.51a2.73 2.73 0 012.71-2.77c1 0 2.14.53 2.17 1.39a1.63 1.63 0 01-.3 1.06.87.87 0 01-.66.37.5.5 0 100 1 1.89 1.89 0 001.42-.75 2.65 2.65 0 00.51-1.71c0-1.52-1.69-2.41-3.2-2.36A3.69 3.69 0 000 45.54a4.19 4.19 0 001.54 3.14 5 5 0 003.23 1.07c2.6-.08 5.45-1.48 8.75-3.1 1.29-.63 2.63-1.29 4-1.9a25.33 25.33 0 019.22-2.53c4.77-.15 6.15 3.37 6.21 5.26A5.15 5.15 0 0127.77 53a4.94 4.94 0 01-3.08-1 3.7 3.7 0 01-1.5-2.94 2.45 2.45 0 012.46-2.73c1.88-.09 2.13 1.2 2.15 1.75a1.09 1.09 0 01-.17.58.63.63 0 01-.53.28.5.5 0 00-.49.51.51.51 0 00.52.49 1.63 1.63 0 001.33-.72 2 2 0 00.34-1.18 2.77 2.77 0 00-3.18-2.71 3.41 3.41 0 00-3.43 3.76 4.65 4.65 0 001.9 3.7A5.9 5.9 0 0027.62 54h.18a6.17 6.17 0 006.2-6.55c-.1-2.59-2.11-6.37-7.26-6.23zM39.48 28.85a13.59 13.59 0 00-5-4.16c-2.63-1.49-5.34-3-7.67-9a3.84 3.84 0 00-2.43-2.26 3.55 3.55 0 00-4.52 3.17 3.81 3.81 0 001.28 3.06 21.22 21.22 0 013.17 3.39A14.27 14.27 0 0126.92 30a13.61 13.61 0 002.2 6.14 25.67 25.67 0 006.75 6.25.48.48 0 00.26.07h.13a13.74 13.74 0 003.83-1.94A10.44 10.44 0 0043 37.69a.47.47 0 00.06-.35 25.43 25.43 0 00-3.58-8.49zm-9.6-6.21L26.57 25a15.17 15.17 0 00-1.15-2l3-2.07a13.51 13.51 0 001.46 1.71zM21.79 19a2.82 2.82 0 01-.95-2.25 2.42 2.42 0 011.08-1.9 2.4 2.4 0 012.15-.37 2.86 2.86 0 011.79 1.66 22.81 22.81 0 002 4l-3 2.09A23.08 23.08 0 0021.79 19zm17.73 20.66a13.6 13.6 0 01-3.32 1.72 24.53 24.53 0 01-6.26-5.84 12.57 12.57 0 01-2-5.74 20.68 20.68 0 00-.94-3.89l3.67-2.57A20.33 20.33 0 0034 25.56a12.64 12.64 0 014.69 3.87 24.8 24.8 0 013.31 7.9 10.92 10.92 0 01-2.48 2.33z" class="cls-1"/></g></g></g></svg>