<svg fill="currentColor" viewBox="0 0 171 72">
  <path d="M19.0026 62.2226c0 2.5-.95 4.62-2.85 6.38-1.9 1.76-4.19 2.63-6.85996 2.63-1.57 0-3.44001-.48-5.62001-1.44-.58-.26-1.01999-.39-1.30999-.39-.35 0-.57.4-.65 1.21-.03.42-.22.62-.57.62-.290005 0-.440003-.17-.440003-.52 0-.23.009997-.41.039997-.52.23-1.77.350006-3.41.350006-4.92 0-.29-.03-1.1-.09-2.44-.030004-.17-.040005-.41-.040005-.7 0-.44.170005-.65.520005-.65.29 0 .49.35.61 1.05.75 5.22 3.21 7.83 7.36 7.83 1.76996 0 3.13996-.5 4.10996-1.5.97-1 1.46-2.42 1.46-4.24 0-1.62-.47-3.01-1.42-4.16-.94-1.15-2.56-2.29-4.84996-3.42-2.76-1.36-4.67-2.68-5.75-3.96-1.07-1.28-1.61-2.86-1.61-4.74 0-2.41.78-4.4 2.33-5.96 1.55-1.57 3.51999-2.35 5.89999-2.35.98997 0 2.34997.33 4.08997 1 .61.23 1.06.35 1.35.35.32 0 .53-.06.63-.17.1-.12.2-.42.28-.91.06-.29.22-.44.48-.44.29 0 .43.17.43.52 0 .23-.01.41-.04.52-.09.7-.13 1.54-.13 2.52 0 1.39.07 2.5.22 3.31l.04.7c.03.32-.1.48-.39.48-.32 0-.54-.33-.65-1-.32-1.71-1.07-3.14-2.26-4.29-1.19-1.15-2.52-1.72-3.99997-1.72-1.45 0-2.59999.46-3.45999 1.39-.86001.93-1.28 2.19-1.28 3.79 0 1.86.62 3.35 1.87 4.48.7.64 2.20999 1.54 4.52996 2.7 2.73 1.36 4.69 2.75 5.88 4.16 1.19 1.4 1.79 3 1.79 4.8zM48.4227 70.4326c0 .25-.22.37-.65.37-.29 0-.55-.01-.78-.04l-5.53-.17-5.53.17c-.2.03-.42.04-.65.04-.58 0-.87-.15-.87-.46 0-.33.39-.5 1.18-.5 2.55-.03 3.83-.28 3.83-.77 0-.03-.03-.14-.09-.34l-.36-1.15-.22-.61c-.26-.9-.9-2.89-1.91-5.97h-9.3c-1.74 4.64-2.61 7.31-2.61 8.01 0 .41.17.65.52.74.09.03.81.09 2.18.17.84.03 1.26.17 1.26.44 0 .29-.38.44-1.13.44-1.34 0-2.89-.06-4.66-.17-.43-.03-.89-.04-1.35-.04-.46 0-.92.05-1.35.14-.23.05-.42.07-.57.07-.41 0-.61-.13-.61-.39s.46-.41 1.37-.44c.91-.03 1.57-.17 1.98-.42.41-.25.73-.72.96-1.42 3.73-10.71 6.77-19.32 9.12-25.81.07-.34.2-.73.41-1.16l.19-.79c.09-.32.2-.48.35-.48.09 0 .16.09.22.26.38 1.13 1.23 3.5 2.57 7.1 1.04 2.81 3.64 9.88 7.79 21.2.23.66.53 1.07.89 1.25.36.18 1.11.28 2.24.31.73.03 1.11.17 1.11.42zm-11.79-10.43c-.47-1.31-1.26-3.47-2.35-6.49l-2.09-6.03c-1.22 3.21-2.69 7.38-4.41 12.52h8.85z"/>
  <path d="M74.4528 40.8926c0 .29-.36.42-1.09.39h-1.74c-.46 0-.74.08-.83.24-.09.16-.13.64-.13 1.46v25.04c0 1.54-.01 2.43-.04 2.69-.03.26-.12.39-.26.39-.17 0-.38-.16-.61-.48l-5.56-8.15c-3.23-4.75-7.15-10.68-11.77-17.8v24.37c.03.38.25.62.66.72.41.1 1.39.17 2.95.2.38 0 .57.12.57.35 0 .29-.38.43-1.13.43-.26 0-1.09-.04-2.48-.13-.46-.03-.91-.04-1.35-.04.03 0-.22.03-.76.09s-1.36.09-2.46.09h-.44c-.67 0-1-.13-1-.39s.29-.39.87-.39c1.71-.03 2.71-.14 2.98-.33.28-.19.41-.81.41-1.85v-21.49c0-2.41-.49-3.92-1.48-4.53-.46-.29-1.29-.44-2.48-.44-.75 0-1.13-.15-1.13-.46 0-.27.22-.41.65-.41.58 0 1.32.03 2.22.09.9.06 1.38.09 1.44.09.09 0 .49-.01 1.22-.04.96 0 1.89-.04 2.79-.13l15.02 22.42v-19.37c0-.9-.01-1.44-.04-1.63-.03-.19-.15-.33-.35-.44-.2-.11-.9-.15-2.09-.15-1.04 0-1.57-.13-1.57-.39 0-.29.35-.44 1.04-.44h7.01c.64-.01.96.13.96.42zM103.742 61.5726c0 .23-.13.35-.39.35h-1c-1.33-.06-2.09.17-2.26.69-.1196.35-.1696 1.6-.1696 3.77v1.39c-1.48 1.27-2.91 2.17-4.29 2.69s-3.03.78-4.94.78c-4.59 0-8.23-1.37-10.93-4.11-2.7-2.74-4.05-6.46-4.05-11.17 0-4.76 1.32-8.6 3.96-11.54 2.64-2.93 6.12-4.4 10.45-4.4 1.89 0 3.95.52 6.18 1.57.67.32 1.22.48 1.65.48.55 0 .91-.35 1.09-1.04.14-.41.32-.61.52-.61.23 0 .35.12.35.35 0 .09-.03.39-.08.91-.15 1.65-.23 2.84-.23 3.57v2.83c.03 1.02.04 1.47.04 1.35-.06.7-.25 1.04-.57 1.04-.26 0-.41-.2-.44-.61-.15-2.83-.96-5.05-2.44-6.67s-3.42-2.43-5.83-2.43c-3.02 0-5.41 1.35-7.16 4.06-1.76 2.71-2.63 6.39-2.63 11.04 0 4.48.89 8.04 2.68 10.67 1.79 2.63 4.2 3.95 7.25 3.95 2.32 0 3.92-.66 4.79-1.99.44-.66.65-1.86.65-3.6 0-1.44-.14-2.3-.41-2.56-.28-.26-1.23-.38-2.85-.35-.41 0-.67-.02-.78-.06-.12-.04-.17-.14-.17-.28 0-.32.32-.48.96-.48h.78c.43.03 1.97.03 4.61 0h4.7896c.58.02.87.15.87.41zM128.642 69.4126c0 1.22-1.02 1.83-3.05 1.83-2.26 0-4.03-.94-5.31-2.83-.55-.81-.91-1.6-1.07-2.35-.16-.75-.4-2.67-.72-5.75-.17-1.86-.77-3.17-1.78-3.94-1.02-.77-2.67-1.18-4.96-1.24v13.71c0 .58.46.94 1.39 1.09.26.03.93.06 2 .09.38 0 .57.12.57.35 0 .26-.25.39-.74.39h-10.23c-.64 0-.96-.13-.96-.39 0-.2.42-.32 1.26-.35 1.36-.03 2.1-.2 2.22-.52.12-.15.17-.71.17-1.7v-24.03c0-1.16-.12-1.86-.37-2.09-.25-.23-.99-.36-2.24-.39-.73 0-1.09-.13-1.09-.39 0-.29.23-.44.7-.44.09 0 .22.01.39.04l5.79.13c.58 0 1.39-.02 2.44-.06 1.16-.08 1.97-.12 2.44-.12 2.7 0 4.84.6 6.42 1.81 1.58 1.2 2.37 2.84 2.37 4.9 0 2.03-.81 3.71-2.44 5.03-1.63 1.32-3.83 2.1-6.62 2.33-.26.03-.41.07-.44.13 0 .12.15.17.44.17 3.05.52 5.14 1.59 6.29 3.21 1.15 1.62 1.91 4.53 2.29 8.75.23 2.39 1.04 3.58 2.44 3.58.44 0 .65-.09.65-.26 0-.03-.02-.06-.04-.09-.15-.32-.22-.58-.22-.78 0-.61.32-.91.96-.91.7 0 1.05.36 1.05 1.09zm-9.01-21.81c0-4.15-1.8-6.22-5.4-6.22-.96 0-1.61.13-1.96.39-.35.26-.52.73-.52 1.39v11.06c2.79.03 4.79-.48 6.03-1.52 1.24-1.05 1.85-2.75 1.85-5.1zM140.923 70.3426c0 .25-.171.37-.521.37h-.429c-.17-.09-2.15-.13-5.92-.13-.73 0-1.451.03-2.181.09-.38.03-.959.04-1.739.04-.38 0-.571-.13-.571-.39 0-.23.381-.36 1.131-.39 1.16-.03 1.84-.17 2.05-.41.2-.25.299-1.08.299-2.51v-22.97c0-1.43-.07-2.23-.22-2.4-.18-.29-.99-.46-2.42-.52-.56-.03-.84-.13-.84-.31 0-.23.18-.35.53-.35h5.92c.44 0 1.291.01 2.541.04l1.67-.04c.47 0 .7.12.7.37 0 .22-.651.36-1.941.41-.74.03-1.179.16-1.339.39-.16.23-.241.84-.241 1.83v23.24c0 1.65.07 2.55.22 2.7.32.32 1.26.51 2.83.57.31 0 .471.13.471.37zM170.213 70.4326c0 .25-.22.37-.65.37-.29 0-.55-.01-.78-.04l-5.53-.17-5.53.17c-.2.03-.42.04-.65.04-.58 0-.87-.15-.87-.46 0-.33.39-.5 1.18-.5 2.55-.03 3.83-.28 3.83-.77 0-.03-.03-.14-.09-.34l-.36-1.15-.22-.61c-.26-.9-.9-2.89-1.91-5.97h-9.3c-1.74 4.64-2.61 7.31-2.61 8.01 0 .41.17.65.52.74.09.03.81.09 2.18.17.84.03 1.26.17 1.26.44 0 .29-.38.44-1.13.44-1.34 0-2.89-.06-4.66-.17-.43-.03-.89-.04-1.35-.04-.46 0-.92.05-1.35.14-.23.05-.42.07-.57.07-.41 0-.61-.13-.61-.39s.46-.41 1.37-.44c.91-.03 1.57-.17 1.98-.42.41-.25.73-.72.96-1.42 3.73-10.71 6.77-19.32 9.12-25.81.07-.34.2-.73.41-1.16l.19-.79c.09-.32.2-.48.35-.48.09 0 .16.09.22.26.38 1.13 1.23 3.5 2.57 7.1 1.04 2.81 3.64 9.88 7.79 21.2.23.66.53 1.07.89 1.25.36.18 1.11.28 2.24.31.74.03 1.11.17 1.11.42zm-11.79-10.43c-.47-1.31-1.26-3.47-2.35-6.49l-2.09-6.03c-1.22 3.21-2.69 7.38-4.41 12.52h8.85zM39.5528 8.46262c0 2.81998-1.21 5.00998-3.61 6.56998-1.51.99-3.42 1.48-5.75 1.48-.99 0-2.1-.1-3.35-.31v12.36c0 .67.03 1.09.09 1.26.15.41.46.65.96.74.84.12 1.65.17 2.44.17.32 0 .48.1.48.3 0 .29-.2.44-.61.44h-10.01c-.87 0-1.31-.15-1.31-.44 0-.2.3-.3.91-.3 1.36 0 2.15-.13 2.35-.39.23-.12.36-.41.39-.87V3.76263c0-.9-.25-1.45001-.74-1.66001-.29-.12-.8-.17-1.52-.17h-.74c-.44 0-.65-.11999-.65-.34999 0-.26.41-.39 1.22-.39h9.58c3.31 0 5.73.57999 7.27 1.73999 1.73 1.31 2.6 3.15 2.6 5.53zm-4.57.04c0-4.38-1.83-6.57-5.48-6.57-1.22 0-2.02.21001-2.39.61001-.17.18-.26.63-.26 1.36V15.5526c.23.03.49.04.78.04 1.92 0 3.54-.42 4.88-1.27 1.64-1.04 2.47-2.98 2.47-5.81998zM64.2829 24.4426c0 .12-.03.83-.09 2.13-.06 1.31-.09 2.55-.09 3.74v1.44c-2.84-.17-8.47-.26-16.89-.26h-5.44c-.55 0-.83-.12-.83-.35 0-.16.09-.25.26-.27.09 0 .64-.04 1.65-.12.75-.06 1.21-.22 1.37-.48.16-.26.24-.95.24-2.05V3.68262c0-.84-.12-1.35-.37-1.51-.25-.16-1.04-.24-2.37-.24-.46 0-.7-.12001-.7-.37001s.32-.36999.96-.36999h18.45c.87 0 1.67-.06001 2.39-.17001.06 1.25.19 2.98.39 5.18l.17 1.87001c.03.15.04.33.04.57 0 .29-.13.44-.39.44-.32 0-.55-.36001-.7-1.09001-.55-2.63-1.45-4.28999-2.7-4.98999-.93-.53-3.37-.79-7.31-.79h-3.57V15.0126h1.04c3.25 0 5.23-.25 5.94-.74s1.2-1.93 1.46-4.30998c.06-.61.22-.91.48-.91.32 0 .48.26.48.78 0 .51998-.03 1.28998-.09 2.30998s-.09 1.78-.09 2.31c0 3.11.05 5.24.14 6.4.02.29.03.54.03.74 0 .38-.16.57-.48.57-.2 0-.34-.12-.41-.37-.07-.25-.19-1.05-.37-2.42-.23-1.71-.94-2.77-2.12-3.18-.52-.17-1.88-.26-4.07-.26h-1.95v14.56c6.38 0 10.13-.13 11.23-.39 1.92-.43 3-2.26 3.26-5.5.06-.72.25-1.07.57-1.07.33-.01.48.3.48.91zM95.4927 31.1626c0 .25-.22.37-.65.37-.29 0-.55-.01-.78-.04l-5.53-.17-5.53.17c-.2.03-.42.04-.65.04-.58 0-.87-.15-.87-.46 0-.33.39-.5 1.18-.5 2.55-.03 3.83-.28 3.83-.77 0-.03-.03-.14-.09-.34l-.36-1.15-.22-.61c-.26-.9-.9-2.89-1.91-5.97h-9.31c-1.74 4.64-2.61 7.31-2.61 8.01 0 .41.17.65.52.74.09.03.81.09 2.18.17.84.03 1.26.17 1.26.44 0 .29-.38.43-1.13.43-1.34 0-2.89-.06-4.66-.17-.43-.03-.89-.04-1.35-.04-.46 0-.92.05-1.35.14-.23.05-.42.07-.57.07-.41 0-.61-.13-.61-.39s.46-.41 1.37-.44c.91-.03 1.57-.17 1.98-.42.41-.25.73-.72.96-1.42 3.73-10.71 6.77-19.31999 9.12-25.80999.07-.34.2-.73.41-1.16l.19-.79c.09-.320004.2-.48.35-.48.09 0 .16.089998.22.259998.38 1.130002 1.23 3.500002 2.57 7.100002 1.04 2.80999 3.64 9.87999 7.79 21.19999.23.66.53 1.08.89 1.25.36.18 1.11.28 2.24.31.74.05 1.12.18 1.12.43zm-11.8-10.42c-.47-1.31-1.26-3.47-2.35-6.49l-2.09-6.02999c-1.22 3.20999-2.69 7.37999-4.41 12.51999h8.85zM118.513 21.7426c0-.06-.03.33-.09 1.18-.12 1.68-.17 3.31-.17 4.88 0 .17.03.53.09 1.07s.09 1.18.09 1.94v.39c0 .38-.12.57-.35.57-.23 0-.44-.22-.61-.65-.41-.96-.81-1.58-1.22-1.87-2.09 1.83-4.6 2.74-7.53 2.74-4.27 0-7.8-1.49-10.6002-4.46-2.8-2.97-4.1999-6.72-4.1999-11.25 0-4.56 1.28-8.28001 3.85-11.17001 2.5701-2.89 5.8801-4.329997 9.9501-4.329997 1.48 0 2.66.120003 3.55.370007.88.25 1.98.75 3.29 1.5.64.38 1.12.57 1.44.57.26 0 .51-.23001.74-.70001.38-.81.68-1.21999.91-1.21999.23 0 .35.12.35.35 0 .12-.03.3-.09.57-.32 1.39-.48 3.99999-.48 7.84 0 .55-.04.87-.13.96-.09.09-.2.13-.35.13-.29 0-.48-.28-.57-.83-.38-2.32001-.91-4.05001-1.61-5.18001-1.42-2.32-3.66-3.48-6.7-3.48-2.35 0-4.21.78001-5.57 2.35001-2.47 2.81-3.7001 6.94-3.7001 12.36 0 4.85 1.02 8.6 3.0501 11.27 1.77 2.32 4.12 3.48 7.05 3.48 1.51 0 2.89-.37 4.13-1.11 1.25-.74 2.21-1.75 2.87-3.03.75-1.48 1.29-3.09 1.61-4.83.12-.7.3-1.04.57-1.04.29-.02.43.19.43.63zM150.163 31.0526c0 .26-.27.39-.82.39h-9.46c-.58 0-.86-.12-.86-.35 0-.23.67-.39 2.02-.48.72-.06 1.13-.18 1.25-.37.11-.19.17-.86.17-2.02v-12.66h-13.1v12.32c0 1.31.1 2.08.3 2.31.2.23.88.39 2.05.48.75.06 1.13.19 1.13.39 0 .26-.29.39-.87.39H122.523c-.58 0-.87-.12-.87-.35 0-.23.29-.38.87-.43.38-.03.77-.06 1.17-.09.64-.06 1.04-.2 1.22-.43.09-.14.13-.96.13-2.43V4.76263c0-1.3-.07-2.07001-.2-2.30001-.13-.23-.59-.36-1.37-.39-.9-.06-1.43-.11-1.59-.14-.16-.03-.24-.15-.24-.37 0-.24.19-.36999.57-.36999.12 0 .36.00999.74.03999.73.06 2.44.09 5.14.09 1.48 0 2.51-.02 3.09-.07.2-.04.46-.05999.78-.05999.52 0 .78.14999.78.43999 0 .26-.47.39-1.41.39s-1.51.11-1.7.33c-.19.22-.28.91-.28 2.07V14.4626h13.1V5.07262c0-1.54-.12-2.45-.35-2.73-.23-.28-1.04-.39999-2.44-.36999-.44 0-.65-.13-.65-.39s.25-.39.74-.39H149.243c.61 0 .91.13.91.39s-.64.40999-1.92.43999c-.38 0-.65.03001-.83.09001-.29.09-.47.24999-.54.47999-.07.23-.11.91-.11 2.05V27.7926c0 1.39.07 2.21.21 2.44.29.32 1.12.48 2.49.48.48-.06.71.05.71.34z"/>
</svg>