<svg version="1.0" xmlns="http://www.w3.org/2000/svg"
 width="1500.000000pt" height="724.000000pt" viewBox="0 0 1500.000000 724.000000"
 preserveAspectRatio="xMidYMid meet">
<g transform="translate(0.000000,724.000000) scale(0.100000,-0.100000)"
fill="currentColor" stroke="none">
<path d="M7827 6903 c-4 -3 -7 -300 -7 -660 l0 -653 29 0 c17 0 31 6 35 16 11
29 7 1264 -4 1285 -10 19 -40 26 -53 12z"/>
<path d="M6862 6638 c-6 -6 -12 -17 -12 -22 0 -6 144 -258 318 -561 306 -529
320 -550 348 -550 22 0 30 5 31 20 2 11 -136 260 -315 570 -322 555 -336 577
-370 543z"/>
<path d="M8727 6558 c-283 -483 -588 -1022 -585 -1036 2 -11 13 -17 33 -17 28
0 41 21 349 554 332 575 334 581 278 589 -16 3 -31 -15 -75 -90z"/>
<path d="M7403 6593 c-7 -2 -13 -15 -13 -28 0 -39 251 -979 265 -994 18 -19
55 -5 55 21 0 25 -246 966 -259 988 -9 16 -29 22 -48 13z"/>
<path d="M8243 6588 c-12 -16 -263 -968 -263 -996 0 -26 37 -39 55 -21 15 15
265 954 265 993 0 32 -38 48 -57 24z"/>
<path d="M6616 6164 c-3 -8 -2 -23 3 -32 6 -9 174 -181 374 -380 303 -303 368
-363 388 -360 16 2 25 11 27 27 3 20 -57 85 -365 393 -299 299 -373 368 -394
368 -15 0 -30 -7 -33 -16z"/>
<path d="M8647 5812 c-306 -306 -368 -373 -365 -393 2 -16 11 -25 27 -27 20
-3 86 58 398 370 389 388 406 409 338 416 -27 2 -62 -29 -398 -366z"/>
<path d="M7734 5396 c-46 -20 -103 -74 -126 -120 -14 -26 -23 -67 -26 -114
l-5 -72 -59 -32 c-137 -73 -203 -168 -218 -316 -6 -48 -10 -88 -10 -89 0 -2
-7 -3 -15 -3 -29 0 -36 -38 -33 -182 3 -137 4 -143 26 -153 21 -9 22 -16 22
-111 0 -91 -2 -102 -22 -121 -13 -12 -34 -23 -48 -25 -16 -2 -32 -16 -47 -43
l-22 -40 6 335 c7 387 14 354 -102 431 -36 23 -65 49 -65 56 0 7 -9 18 -20 25
-19 12 -20 24 -20 163 0 161 -10 219 -40 235 -26 14 -273 13 -304 -1 -43 -20
-49 -54 -42 -229 7 -151 7 -159 -12 -169 -11 -6 -23 -21 -26 -33 -4 -13 -33
-40 -69 -64 -105 -69 -100 -13 -67 -724 26 -546 27 -617 14 -637 -19 -30 -36
-29 -73 6 -27 26 -31 35 -29 82 0 44 -3 56 -23 72 -13 11 -33 17 -46 14 -22
-4 -23 -1 -23 58 0 63 -19 125 -48 158 -17 19 -82 23 -113 7 -11 -7 -19 -7
-19 -1 0 5 -15 19 -34 30 -47 30 -116 28 -144 -2 -12 -13 -22 -27 -22 -31 0
-4 -8 -16 -19 -27 -25 -27 -32 -68 -20 -113 8 -29 23 -44 77 -79 77 -51 116
-90 132 -132 10 -27 8 -26 -35 18 -30 30 -61 51 -87 58 -47 12 -66 7 -76 -22
-5 -12 -23 -27 -43 -33 -48 -15 -71 -64 -66 -137 5 -81 23 -103 106 -130 67
-21 69 -24 75 -59 3 -21 13 -43 21 -50 14 -12 14 -15 0 -30 -26 -29 -29 -74
-7 -123 25 -56 48 -64 134 -48 33 7 77 10 98 6 51 -9 77 7 91 55 7 22 18 45
26 51 10 9 13 5 13 -19 0 -18 10 -42 24 -59 20 -23 32 -28 69 -28 29 0 52 6
64 18 11 9 29 17 40 17 26 0 51 29 59 68 6 28 10 32 40 32 19 0 34 -4 34 -9 0
-5 18 -32 40 -60 85 -107 198 -122 245 -31 17 34 20 93 5 121 -9 16 -7 19 12
19 13 0 48 7 78 16 30 8 71 19 90 24 32 8 73 43 82 70 2 8 31 -5 75 -34 73
-47 126 -59 151 -34 8 8 12 45 12 101 0 77 2 88 16 85 12 -2 24 -29 40 -87 13
-46 29 -90 37 -98 10 -11 88 -16 346 -24 312 -10 333 -10 352 6 10 10 19 23
19 30 0 8 26 11 83 11 71 -1 88 3 129 25 l47 27 22 -24 c58 -62 193 -69 282
-14 l49 31 43 -40 c82 -75 226 -131 341 -131 119 0 262 49 347 121 46 38 117
125 117 144 0 12 -857 563 -883 568 -6 1 -25 -24 -43 -57 -29 -53 -37 -81 -62
-201 -6 -31 -13 -41 -30 -43 -19 -3 -22 1 -22 35 0 81 23 219 51 306 l29 90
-21 20 -21 20 -70 -69 c-87 -87 -161 -185 -215 -288 -47 -90 -50 -89 -28 16
26 121 52 314 66 478 11 140 15 157 36 177 21 21 23 30 25 145 2 152 1 158
-17 178 -10 11 -15 38 -15 82 0 144 -59 251 -184 333 l-76 49 0 71 c0 120 -69
224 -169 253 -53 16 -218 15 -257 -2z m242 -122 c46 -34 67 -70 72 -123 l5
-51 -79 0 c-44 0 -123 3 -178 7 l-98 6 4 53 c5 57 21 83 73 116 42 27 162 22
201 -8z m-1096 -280 l0 -154 -79 0 c-43 0 -99 -3 -125 -6 l-47 -7 3 164 3 164
110 5 c61 3 116 1 123 -4 9 -6 12 -51 12 -162z m1277 -60 c111 -71 154 -151
145 -268 l-3 -39 -277 7 c-152 3 -352 9 -444 13 l-168 6 0 42 c0 109 57 199
165 260 l60 34 223 -3 222 -3 77 -49z m-1128 -262 l56 -39 3 -99 3 -99 -133 3
c-73 1 -219 -1 -325 -5 l-191 -8 -7 82 c-4 45 -4 91 0 101 3 11 31 37 62 59
l55 38 152 6 c240 10 260 7 325 -39z m894 -152 c180 -6 348 -10 372 -10 l45 0
0 -54 c0 -30 -4 -57 -9 -60 -4 -3 -217 1 -472 9 -255 8 -474 15 -486 15 -20 0
-23 5 -23 38 0 84 -2 82 129 77 64 -3 264 -10 444 -15z m150 -237 l218 -6 -6
-56 c-31 -324 -47 -438 -82 -603 -13 -63 -19 -78 -34 -78 -29 0 -90 -60 -112
-110 -27 -60 -26 -141 1 -204 12 -27 22 -52 22 -57 0 -10 -207 -10 -405 0
l-129 6 -16 64 -16 64 54 51 c47 44 53 54 48 81 -3 16 1 48 9 70 15 43 20 107
8 119 -5 4 -8 38 -8 76 0 57 -4 72 -22 92 -13 14 -23 36 -23 50 0 38 -20 91
-42 110 -11 10 -30 37 -42 60 -16 33 -28 44 -51 48 -22 4 -31 11 -33 28 -2 12
-8 22 -13 22 -5 0 -9 43 -9 97 l0 96 233 -7 c127 -3 330 -9 450 -13z m-1063
-90 c0 -5 -8 -37 -18 -73 l-19 -64 -99 -39 -99 -39 -95 32 c-52 18 -100 38
-107 44 -10 10 -43 107 -43 127 0 9 93 14 323 17 86 1 157 -1 157 -5z m75
-185 c-6 -157 -10 -196 -24 -212 -12 -13 -16 -38 -16 -92 0 -89 -8 -93 -87
-39 -40 28 -60 35 -92 34 -23 -1 -61 8 -87 19 -39 19 -57 20 -133 15 -66 -5
-92 -11 -105 -24 -9 -9 -28 -20 -42 -24 l-26 -6 -7 158 c-3 87 -9 201 -12 253
l-5 95 33 -95 33 -95 115 -42 c63 -23 126 -42 139 -43 30 0 229 76 252 97 10
8 27 54 40 104 13 49 25 89 27 89 2 0 1 -87 -3 -192z m321 -17 c22 -6 31 -16
40 -47 6 -23 18 -40 28 -42 22 -5 36 -42 36 -99 0 -36 4 -46 19 -50 23 -6 34
-41 26 -80 -4 -16 -8 -38 -11 -50 -2 -12 3 -29 13 -38 15 -15 14 -20 -7 -71
-12 -30 -20 -63 -17 -74 8 -33 -99 -110 -152 -110 -17 0 -21 6 -21 36 0 31 10
46 70 108 43 45 70 81 70 94 0 36 -39 27 -87 -20 l-43 -42 0 65 c0 64 1 66 45
109 51 50 61 90 22 90 -13 0 -32 -10 -43 -21 -19 -21 -19 -21 -24 61 -4 63 -9
85 -22 93 -12 8 -21 7 -32 -2 -12 -10 -16 -33 -16 -94 l0 -80 -24 22 c-28 26
-69 25 -74 -1 -2 -11 18 -40 47 -71 49 -52 51 -56 51 -112 l0 -58 -50 47 c-43
40 -53 45 -70 36 -33 -18 -24 -38 50 -114 61 -63 70 -77 70 -109 0 -40 -7 -44
-57 -26 -28 9 -31 15 -38 66 -9 77 -21 103 -44 103 -27 0 -67 56 -52 74 8 9 9
38 5 84 -7 70 -6 71 20 83 23 11 26 18 26 58 0 63 8 85 33 96 12 6 25 24 29
42 6 24 18 37 41 47 18 8 41 21 52 29 18 14 22 14 41 -4 12 -11 34 -23 50 -28z
m1168 -216 c-8 -33 -17 -111 -21 -173 -6 -111 -6 -112 -32 -117 -14 -3 -37 -9
-51 -14 -14 -4 -35 -4 -45 0 -11 4 -32 8 -47 8 l-28 1 26 58 c34 78 104 186
160 250 25 29 48 52 49 50 2 -2 -3 -30 -11 -63z m-2594 -85 c44 -45 83 -53
100 -20 6 11 15 20 19 20 16 0 31 -62 31 -130 0 -56 3 -70 23 -87 12 -12 31
-23 42 -25 15 -2 21 -14 25 -44 12 -86 96 -147 220 -160 39 -4 76 -15 93 -27
16 -11 41 -20 55 -22 36 -3 112 -42 112 -58 0 -7 9 -18 20 -25 21 -13 80 -133
80 -162 0 -34 -25 -43 -65 -25 -45 22 -50 30 -50 85 0 58 -21 68 -132 62 -90
-4 -123 -23 -123 -66 0 -19 -10 -29 -43 -45 -24 -12 -47 -21 -51 -21 -4 0 4
20 19 45 48 83 23 109 -83 85 -40 -9 -64 -22 -93 -51 -21 -21 -39 -45 -39 -52
0 -8 -31 -18 -86 -28 -75 -14 -86 -14 -93 -1 -10 17 36 62 62 62 21 0 39 25
35 50 -2 16 -16 26 -53 38 -43 15 -50 21 -58 52 -12 50 -32 68 -96 87 -64 19
-81 35 -81 75 0 35 9 35 46 3 54 -47 134 -52 134 -9 0 12 9 8 34 -14 19 -17
45 -34 58 -38 12 -4 35 -16 49 -26 36 -27 137 -50 161 -37 21 11 24 42 6 57
-7 5 -31 13 -53 16 -39 7 -41 9 -95 118 -60 121 -114 187 -192 232 -54 32 -64
50 -40 74 10 10 21 26 25 35 10 27 35 20 77 -23z m3043 -116 l99 -63 -39 -10
c-21 -5 -83 -19 -138 -31 -55 -12 -109 -24 -119 -27 -18 -5 -19 0 -14 73 3 44
14 98 23 122 l17 42 37 -22 c20 -12 80 -50 134 -84z m-2223 51 c19 -17 46 -20
55 -5 11 18 32 10 78 -30 28 -25 55 -40 71 -40 20 0 35 -12 62 -50 20 -27 42
-50 49 -50 7 0 16 -7 19 -16 11 -30 6 -140 -7 -159 -13 -17 -15 -17 -46 1 -17
10 -34 28 -36 39 -3 11 -12 54 -20 95 -17 82 -24 94 -51 88 -15 -3 -19 -12
-19 -43 0 -22 4 -55 7 -73 l8 -33 -28 17 c-64 37 -73 49 -90 120 -15 62 -19
69 -42 69 -23 0 -25 -4 -24 -42 0 -28 -3 -40 -10 -36 -6 4 -34 22 -63 40 -53
33 -87 41 -98 23 -13 -21 8 -46 71 -85 l65 -40 -38 -11 c-26 -7 -39 -17 -41
-31 -5 -36 17 -43 90 -27 l67 14 52 -32 c29 -19 45 -34 38 -37 -7 -2 -36 -9
-64 -15 -43 -10 -50 -15 -53 -37 -2 -16 3 -29 11 -32 8 -3 55 4 105 15 l92 20
35 -22 c35 -22 36 -23 18 -43 -22 -24 -110 -67 -139 -67 -12 0 -24 7 -28 15
-3 8 -16 15 -29 15 -52 0 -88 13 -100 36 -7 13 -37 36 -67 51 -48 24 -55 32
-58 61 -2 22 -12 38 -30 49 -53 33 -72 55 -66 78 4 14 -3 32 -19 51 -21 26
-23 36 -19 91 4 60 5 61 38 68 18 3 38 13 43 23 8 14 15 15 50 6 32 -9 45 -8
58 2 15 10 24 10 53 -2 19 -8 42 -21 50 -29z m1472 -146 c16 -9 19 -17 13 -45
-5 -31 -4 -34 20 -34 16 0 25 6 25 15 0 34 98 6 120 -34 27 -52 -1 -145 -60
-194 -27 -23 -86 -47 -115 -47 -32 0 -90 25 -122 53 -43 38 -63 81 -63 137 0
112 99 193 182 149z m467 -35 c30 -21 61 -89 61 -134 0 -19 -9 -53 -19 -75
-51 -112 -194 -146 -282 -67 l-30 27 18 35 c17 33 23 122 12 175 -3 16 2 21
29 23 23 2 32 -1 32 -12 0 -8 -6 -17 -12 -20 -17 -6 28 -46 52 -46 10 0 28 9
41 19 l24 19 -27 7 c-58 15 -19 62 52 64 14 1 36 -6 49 -15z m309 -111 c-45
-71 -83 -130 -85 -132 -7 -9 -89 86 -106 121 -33 70 -31 71 116 105 72 17 137
31 144 32 7 0 -24 -56 -69 -126z m431 -49 c3 -3 -15 -25 -40 -50 -44 -45 -138
-99 -150 -86 -5 6 -69 280 -69 297 0 3 247 -150 259 -161z m-274 1 c15 -71 30
-136 32 -142 12 -30 -203 -3 -222 27 -8 12 147 261 156 251 3 -3 18 -64 34
-136z m-255 -135 c176 -113 414 -84 546 67 27 31 34 34 53 24 28 -15 18 -34
-49 -94 -103 -93 -247 -137 -379 -118 -95 14 -202 65 -259 124 -39 39 -42 46
-32 71 l10 27 30 -35 c17 -19 53 -49 80 -66z"/>
<path d="M2283 5316 c-196 -38 -356 -125 -483 -263 -220 -240 -278 -570 -156
-893 124 -331 399 -537 777 -581 323 -37 656 65 1112 340 l167 102 73 -35
c106 -53 183 -70 317 -70 132 -1 196 12 296 60 86 41 162 113 201 191 26 54
28 66 28 178 0 111 -2 124 -28 176 -104 213 -422 276 -600 119 -44 -38 -63
-70 -76 -131 -13 -57 2 -133 36 -181 14 -21 24 -40 22 -41 -2 -2 -62 -41 -133
-87 l-129 -84 -38 44 c-80 93 -137 257 -124 358 30 241 203 417 470 478 97 22
340 25 455 5 303 -52 617 -182 930 -386 l85 -55 -45 7 c-25 5 -85 7 -135 7
-259 -5 -420 -170 -402 -412 13 -171 124 -282 310 -312 220 -35 380 105 338
294 -26 115 -106 180 -221 180 -105 0 -167 -49 -178 -140 -9 -83 45 -154 119
-154 64 0 67 55 3 72 -57 15 -70 67 -29 116 89 106 274 -23 236 -165 -29 -107
-135 -157 -274 -128 -82 17 -118 36 -168 87 -72 75 -88 202 -39 316 39 92 123
149 252 172 122 23 227 -4 445 -113 75 -38 139 -64 148 -61 8 3 15 17 15 30 0
19 -25 42 -117 111 -235 173 -430 297 -618 391 -584 291 -1165 308 -1468 43
-55 -49 -122 -157 -153 -246 -38 -110 -38 -237 -2 -342 29 -83 66 -148 110
-199 18 -20 27 -39 22 -44 -27 -26 -299 -182 -428 -246 -270 -133 -438 -178
-661 -177 -129 0 -164 4 -249 27 -181 47 -295 114 -418 245 -88 93 -152 208
-194 347 -23 76 -27 108 -28 219 -1 110 3 141 22 205 84 268 273 457 537 536
79 24 108 27 235 28 170 1 240 -14 370 -77 263 -128 405 -443 324 -719 -58
-197 -205 -328 -407 -365 -196 -35 -370 34 -437 174 -85 177 52 393 250 393
55 0 125 -33 154 -73 44 -60 16 -149 -55 -172 -38 -13 -50 -44 -24 -65 23 -19
83 2 121 42 93 98 60 241 -71 311 -59 32 -212 32 -273 -1 -98 -52 -162 -132
-188 -235 -42 -164 34 -325 189 -402 119 -59 258 -69 410 -29 192 49 349 209
402 409 43 164 26 325 -52 485 -38 79 -60 109 -132 181 -97 97 -196 154 -331
190 -99 26 -317 34 -417 15z m2015 -666 c108 -25 188 -87 230 -178 21 -47 24
-64 20 -140 -3 -72 -9 -96 -33 -141 -51 -93 -148 -161 -275 -192 -76 -18 -231
-16 -309 5 -84 22 -154 53 -149 67 2 6 60 47 128 91 100 63 130 78 150 73 14
-3 50 -9 80 -12 46 -4 59 -2 83 17 32 25 37 73 10 102 -20 23 -98 24 -150 3
-33 -14 -38 -14 -56 2 -49 45 -62 131 -29 192 24 44 89 90 149 107 59 16 95
16 151 4z"/>
<path d="M12415 5320 c-270 -36 -474 -174 -580 -395 -81 -167 -95 -340 -41
-511 66 -208 217 -345 429 -388 254 -53 459 28 545 212 22 48 27 71 27 142 0
101 -27 170 -94 242 -143 156 -421 135 -487 -37 -43 -113 41 -255 144 -243 22
2 27 8 27 32 0 24 -6 30 -35 40 -20 6 -44 25 -58 46 -55 81 15 179 141 196
167 23 326 -159 288 -330 -23 -103 -94 -179 -206 -222 -69 -26 -237 -26 -315
0 -181 62 -290 175 -346 362 -28 93 -24 238 10 341 54 165 171 298 331 375
111 53 203 72 355 71 153 -1 244 -22 380 -89 80 -40 108 -61 185 -138 93 -94
140 -162 182 -266 135 -335 -9 -770 -323 -973 -138 -89 -287 -134 -475 -144
-304 -15 -631 104 -1097 401 l-44 27 26 32 c73 89 122 201 138 317 9 61 8 89
-5 154 -74 360 -395 545 -876 506 -435 -35 -825 -208 -1368 -605 -109 -78
-133 -101 -133 -121 0 -14 7 -27 16 -31 8 -3 76 25 157 65 209 104 294 127
420 111 127 -16 218 -73 261 -162 71 -145 30 -304 -96 -376 -156 -89 -344 -47
-377 85 -29 116 69 228 178 203 95 -21 108 -125 20 -154 -38 -13 -49 -44 -24
-65 22 -19 83 1 120 40 58 61 40 180 -35 224 -106 62 -245 25 -303 -82 -50
-92 -44 -191 15 -273 95 -131 363 -128 507 6 74 69 96 127 96 250 0 88 -4 107
-28 161 -47 103 -143 177 -262 204 -58 13 -194 17 -245 6 l-35 -7 25 20 c103
83 466 271 645 334 288 101 606 128 828 71 226 -57 377 -210 424 -426 15 -72
15 -83 0 -153 -20 -94 -65 -189 -115 -245 l-39 -44 -124 79 c-68 43 -128 82
-132 86 -5 4 3 24 17 46 14 21 30 60 35 86 43 234 -240 390 -497 272 -81 -37
-134 -85 -173 -157 -33 -62 -34 -65 -34 -183 0 -110 2 -124 27 -175 55 -112
136 -178 274 -227 71 -24 93 -27 214 -27 165 -1 271 25 371 90 26 17 27 16
164 -70 262 -164 513 -278 733 -333 96 -25 125 -27 282 -27 190 0 278 15 412
69 324 132 537 441 555 805 11 213 -57 411 -198 581 -182 218 -492 329 -804
289z m-1525 -692 c83 -35 130 -96 130 -168 0 -45 -17 -85 -47 -113 -18 -16
-23 -16 -63 -2 -111 39 -188 -3 -154 -83 16 -38 44 -47 122 -38 31 4 66 8 77
9 11 1 78 -36 149 -82 l128 -84 -33 -18 c-63 -34 -163 -60 -254 -65 -218 -14
-401 75 -470 227 -25 56 -27 70 -23 148 5 101 25 148 89 205 98 89 234 114
349 64z"/>
<path d="M3840 3655 c-88 -20 -165 -74 -208 -145 -44 -74 -55 -121 -50 -210 4
-61 11 -87 38 -139 59 -110 152 -162 290 -163 99 -1 164 27 224 93 104 116 79
300 -47 348 -42 16 -124 13 -164 -6 -94 -44 -99 -204 -7 -227 51 -13 73 34 27
56 -15 7 -29 21 -31 31 -12 61 40 103 117 94 114 -13 146 -154 58 -254 -45
-51 -98 -73 -177 -72 -114 0 -185 40 -234 129 -72 132 -27 301 100 372 71 39
140 50 239 38 164 -20 297 -67 609 -217 272 -130 374 -165 476 -166 151 -1
250 84 251 217 2 96 -27 146 -105 182 -85 40 -174 26 -228 -34 -28 -32 -30
-40 -26 -90 4 -47 10 -60 37 -84 40 -36 84 -36 89 -1 3 17 -3 26 -22 33 -56
21 -59 82 -7 117 41 28 73 29 128 4 49 -23 73 -62 73 -121 0 -74 -47 -132
-124 -155 -94 -28 -198 4 -531 163 -115 55 -254 116 -308 136 -193 72 -368 97
-487 71z"/>
<path d="M10982 3659 c-160 -20 -304 -73 -628 -227 -336 -161 -439 -186 -537
-129 -49 29 -87 91 -87 141 0 87 99 154 184 126 74 -24 85 -99 19 -126 -26
-12 -34 -20 -31 -37 4 -30 44 -33 85 -8 36 22 59 85 48 130 -21 87 -120 130
-227 101 -167 -47 -185 -283 -29 -377 69 -41 126 -48 225 -28 98 20 173 50
396 158 446 216 682 268 839 187 86 -44 144 -140 145 -240 1 -158 -109 -270
-264 -270 -67 0 -135 23 -173 58 -52 47 -73 152 -42 212 40 77 176 81 205 5
13 -33 1 -64 -26 -71 -17 -4 -24 -13 -24 -30 0 -31 22 -40 61 -24 40 17 63 62
56 112 -11 83 -68 128 -162 128 -118 0 -185 -69 -185 -190 0 -161 114 -263
292 -262 103 1 162 25 229 91 90 91 119 212 80 339 -38 125 -137 210 -272 232
-71 11 -87 11 -177 -1z"/>
<path d="M1715 2988 c-3 -13 -4 -97 -3 -187 3 -143 5 -165 21 -175 12 -8 22
-8 35 0 15 10 17 31 17 195 l0 184 -32 3 c-27 3 -33 -1 -38 -20z"/>
<path d="M13427 3004 c-4 -4 -7 -89 -7 -190 0 -159 2 -183 16 -188 9 -4 25 -4
36 0 17 5 18 17 16 192 l-3 187 -25 3 c-14 2 -29 0 -33 -4z"/>
<path d="M1477 2823 c-18 -18 -1 -55 59 -131 57 -71 71 -83 93 -80 48 6 39 40
-35 133 -47 60 -74 85 -89 85 -12 0 -25 -3 -28 -7z"/>
<path d="M1896 2746 c-74 -94 -83 -128 -35 -134 22 -3 36 9 93 80 73 92 84
130 35 136 -21 2 -36 -11 -93 -82z"/>
<path d="M13180 2815 c-17 -21 -9 -37 68 -130 54 -65 67 -76 90 -73 48 5 39
38 -35 129 -70 85 -99 103 -123 74z"/>
<path d="M13600 2744 c-77 -94 -87 -126 -38 -132 22 -3 36 9 88 70 76 89 88
112 70 133 -25 30 -48 15 -120 -71z"/>
<path d="M2205 2712 c-67 -31 -101 -83 -117 -176 -2 -15 -18 -22 -67 -32 -190
-39 -310 -108 -298 -171 18 -88 249 -849 262 -862 12 -12 36 -16 103 -15 177
2 382 82 382 148 0 12 -31 184 -68 383 l-68 362 39 17 c102 46 135 188 66 284
-35 49 -76 70 -143 76 -37 4 -62 0 -91 -14z m160 -25 c123 -69 123 -236 1
-302 -19 -11 -37 -17 -40 -14 -3 2 -8 29 -11 59 l-7 55 19 -34 c24 -45 37 -48
68 -15 42 45 30 64 -47 78 -31 6 -38 4 -38 -9 0 -13 -4 -14 -22 -4 -13 7 -26
16 -29 21 -10 15 -129 23 -129 9 0 -6 -4 -11 -10 -11 -31 0 6 105 52 147 51
48 129 56 193 20z m-241 -259 c20 -28 17 -30 -94 -56 -104 -26 -220 -38 -220
-25 0 16 108 60 196 82 101 25 100 25 118 -1z m150 -87 c6 -10 136 -700 136
-723 0 -39 -207 -108 -327 -108 -34 0 -63 2 -63 4 0 3 -202 703 -216 749 -5
15 3 17 65 17 79 0 181 19 279 53 61 21 116 24 126 8z"/>
<path d="M2000 2261 c-83 -21 -90 -26 -90 -62 0 -16 -3 -29 -7 -29 -5 0 -14
-4 -22 -9 -12 -8 1 -61 74 -311 56 -190 95 -304 104 -308 39 -15 307 56 318
85 5 12 -83 522 -91 530 -1 2 -17 -2 -34 -8 -17 -6 -43 -9 -59 -7 -24 3 -30 9
-40 52 -14 56 -38 86 -67 85 -12 0 -50 -8 -86 -18z"/>
<path d="M2900 2628 c-33 -17 -51 -35 -68 -68 -22 -44 -23 -49 -20 -352 3
-292 4 -308 24 -334 44 -59 68 -69 169 -69 109 0 136 13 173 85 17 35 22 61
22 122 l0 78 -49 0 -48 0 -6 -65 c-8 -79 -17 -99 -57 -115 -27 -11 -37 -11
-65 3 -52 25 -57 56 -53 338 3 222 5 249 21 267 37 41 107 36 135 -9 8 -12 16
-52 19 -90 l6 -69 49 0 50 0 -4 99 c-3 110 -15 135 -78 179 -27 18 -47 22
-104 22 -55 0 -83 -5 -116 -22z"/>
<path d="M4055 2638 c-7 -21 -155 -798 -155 -814 0 -10 14 -14 53 -14 l53 0
18 108 c10 59 21 113 23 120 4 8 30 12 83 12 89 0 77 16 105 -142 l17 -98 59
0 c50 0 59 3 58 18 0 9 -37 197 -83 417 l-82 400 -72 3 c-52 2 -73 -1 -77 -10z
m105 -322 c17 -92 29 -170 27 -173 -3 -2 -31 -3 -64 -1 l-59 3 30 172 c16 95
30 172 32 170 1 -1 16 -78 34 -171z"/>
<path d="M4615 2631 c-73 -45 -95 -90 -95 -198 0 -108 27 -155 140 -237 98
-72 121 -102 128 -162 9 -81 -22 -134 -78 -134 -45 0 -78 37 -86 99 l-7 51
-55 0 -55 0 7 -61 c16 -138 68 -189 191 -189 78 0 122 16 158 59 68 82 63 253
-10 337 -10 11 -57 51 -103 89 -101 80 -120 106 -120 163 0 35 6 49 29 73 56
56 123 24 136 -65 l7 -46 50 0 50 0 -4 70 c-4 77 -21 109 -78 148 -44 29 -159
32 -205 3z"/>
<path d="M5175 2631 c-73 -45 -95 -90 -95 -198 0 -108 27 -155 140 -237 98
-72 121 -102 128 -162 9 -81 -22 -134 -78 -134 -45 0 -78 37 -86 99 l-7 51
-55 0 -55 0 7 -61 c16 -138 68 -189 191 -189 78 0 122 16 158 59 68 82 63 253
-10 337 -10 11 -57 51 -103 89 -101 80 -120 106 -120 163 0 35 6 49 29 73 56
56 123 24 136 -65 l7 -46 50 0 50 0 -4 70 c-4 77 -21 109 -78 148 -44 29 -159
32 -205 3z"/>
<path d="M6100 2628 c-33 -17 -51 -35 -68 -68 -22 -44 -23 -49 -20 -352 3
-292 4 -308 24 -334 44 -59 68 -69 169 -69 109 0 136 13 173 85 17 35 22 61
22 122 l0 78 -49 0 -48 0 -6 -65 c-8 -79 -17 -99 -57 -115 -27 -11 -37 -11
-65 3 -52 25 -57 56 -53 338 3 222 5 249 21 267 37 41 107 36 135 -9 8 -12 16
-52 19 -90 l6 -69 49 0 50 0 -4 99 c-3 110 -15 135 -78 179 -27 18 -47 22
-104 22 -55 0 -83 -5 -116 -22z"/>
<path d="M7000 2628 c-33 -17 -51 -35 -68 -68 -22 -44 -23 -49 -20 -352 3
-292 4 -308 24 -334 44 -59 68 -69 169 -69 109 0 136 13 173 85 17 35 22 61
22 122 l0 78 -49 0 -48 0 -6 -65 c-8 -79 -17 -99 -57 -115 -27 -11 -37 -11
-65 3 -52 25 -57 56 -53 338 3 222 5 249 21 267 37 41 107 36 135 -9 8 -12 16
-52 19 -90 l6 -69 49 0 50 0 -4 99 c-3 110 -15 135 -78 179 -27 18 -47 22
-104 22 -55 0 -83 -5 -116 -22z"/>
<path d="M7585 2627 c-26 -14 -48 -37 -63 -67 -22 -44 -23 -49 -20 -352 3
-292 4 -308 24 -334 38 -51 70 -68 139 -72 88 -6 129 4 170 39 63 55 67 80 63
404 -3 282 -4 291 -26 327 -33 52 -91 78 -178 78 -53 0 -78 -6 -109 -23z m155
-92 c17 -9 33 -27 37 -43 5 -15 8 -135 8 -267 0 -132 -3 -252 -8 -267 -15 -57
-102 -72 -143 -26 -17 18 -19 43 -22 282 -2 281 0 299 48 323 33 17 45 16 80
-2z"/>
<path d="M9790 2628 c-33 -17 -51 -35 -68 -68 -22 -44 -23 -49 -20 -352 3
-292 4 -308 24 -334 44 -59 68 -69 169 -69 109 0 136 13 173 85 17 35 22 61
22 122 l0 78 -49 0 -48 0 -6 -65 c-8 -79 -17 -99 -57 -115 -27 -11 -37 -11
-65 3 -52 25 -57 56 -53 338 3 222 5 249 21 267 37 41 107 36 135 -9 8 -12 16
-52 19 -90 l6 -69 49 0 50 0 -4 99 c-3 110 -15 135 -78 179 -27 18 -47 22
-104 22 -55 0 -83 -5 -116 -22z"/>
<path d="M11245 2627 c-26 -14 -48 -37 -63 -67 -22 -44 -23 -49 -20 -352 3
-292 4 -308 24 -334 38 -51 70 -68 139 -72 88 -6 129 4 170 39 63 55 67 80 63
404 -3 282 -4 291 -26 327 -33 52 -91 78 -178 78 -53 0 -78 -6 -109 -23z m155
-92 c17 -9 33 -27 37 -43 5 -15 8 -135 8 -267 0 -132 -3 -252 -8 -267 -15 -57
-102 -72 -143 -26 -17 18 -19 43 -22 282 -2 281 0 299 48 323 33 17 45 16 80
-2z"/>
<path d="M3410 2225 l0 -415 170 0 170 0 0 50 0 50 -115 0 -115 0 0 365 0 365
-55 0 -55 0 0 -415z"/>
<path d="M5670 2225 l0 -415 55 0 55 0 0 415 0 415 -55 0 -55 0 0 -415z"/>
<path d="M8120 2225 l0 -415 170 0 170 0 0 50 0 50 -115 0 -115 0 0 365 0 365
-55 0 -55 0 0 -415z"/>
<path d="M8650 2225 l0 -415 170 0 170 0 0 50 0 50 -115 0 -115 0 0 365 0 365
-55 0 -55 0 0 -415z"/>
<path d="M9170 2225 l0 -415 170 0 170 0 0 50 0 50 -115 0 -115 0 0 140 0 140
95 0 95 0 0 50 0 50 -95 0 -95 0 0 125 0 125 115 0 115 0 0 50 0 50 -170 0
-170 0 0 -415z"/>
<path d="M10250 2590 l0 -50 70 0 70 0 0 -365 0 -365 55 0 55 0 0 365 0 365
70 0 70 0 0 50 0 50 -195 0 -195 0 0 -50z"/>
<path d="M10830 2225 l0 -415 55 0 55 0 0 415 0 415 -55 0 -55 0 0 -415z"/>
<path d="M11790 2225 l0 -415 45 0 45 0 2 302 3 303 95 -303 94 -302 53 0 53
0 0 415 0 415 -45 0 -45 0 -2 -277 -3 -278 -84 278 -85 277 -63 0 -63 0 0
-415z"/>
<path d="M14034 2610 c-39 -11 -131 -44 -205 -73 -214 -86 -353 -161 -364
-197 -4 -12 25 -69 81 -161 47 -79 122 -207 166 -284 99 -173 110 -185 161
-185 49 0 163 39 294 100 118 56 153 85 153 131 0 17 -29 135 -64 263 -36 127
-74 269 -86 316 -22 87 -34 110 -54 109 -6 0 -43 -9 -82 -19z m79 -121 c4 -19
40 -148 78 -288 39 -139 68 -259 65 -266 -9 -25 -332 -165 -381 -165 -8 0 -33
33 -56 73 -23 39 -93 159 -156 265 -63 107 -113 194 -111 195 2 1 47 17 100
34 114 38 331 131 391 167 23 14 46 24 52 22 5 -1 13 -18 18 -37z"/>
<path d="M13918 2396 c-128 -53 -135 -64 -98 -151 l21 -49 -28 -23 c-15 -12
-45 -28 -65 -34 -21 -7 -38 -16 -38 -21 0 -10 117 -219 130 -232 32 -33 349
101 350 147 0 7 -21 88 -46 180 l-47 169 -39 -4 c-29 -3 -39 0 -43 13 -9 27
-39 28 -97 5z m92 -76 c37 -74 37 -86 0 -105 -29 -15 -32 -15 -57 5 -29 23
-53 26 -71 8 -9 -9 -16 0 -33 36 -11 26 -18 50 -16 53 10 9 122 61 134 62 7 1
26 -26 43 -59z m-36 -157 c20 -18 36 -36 36 -40 0 -4 -19 -29 -41 -56 l-41
-47 -49 41 c-27 22 -49 44 -49 49 0 4 18 28 41 54 44 50 45 50 103 -1z"/>
<path d="M988 2542 c-48 -6 -44 -33 28 -185 133 -281 128 -267 128 -397 0 -85
-7 -147 -27 -240 -28 -135 -34 -144 -102 -160 -95 -24 -115 -32 -125 -50 -16
-30 -2 -48 53 -69 70 -26 232 -60 320 -67 60 -5 75 -4 86 10 24 29 4 61 -70
115 l-72 53 7 46 c3 26 22 114 42 195 29 120 43 158 74 205 32 48 157 169 323
312 26 23 37 40 37 60 0 24 -7 31 -52 50 -134 58 -545 135 -650 122z m212
-147 c58 -14 165 -35 237 -47 l133 -22 -58 -50 c-125 -108 -238 -231 -264
-284 l-25 -54 -6 64 c-7 77 -28 136 -101 296 -31 68 -56 125 -56 128 0 3 8 3
18 0 9 -3 64 -17 122 -31z"/>
<path d="M1116 2371 c-10 -16 100 -238 124 -251 37 -20 77 -2 148 68 l67 66
-30 3 c-59 6 -111 26 -156 59 -72 53 -140 77 -153 55z"/>
<path d="M13083 2495 c-33 -15 -53 -30 -53 -41 0 -13 -6 -15 -27 -10 -16 4
-75 9 -133 13 -102 5 -106 5 -135 -19 -17 -14 -45 -28 -64 -31 -28 -6 -39 -2
-68 23 -18 17 -40 30 -48 30 -18 0 -80 -74 -106 -126 -39 -82 -51 -271 -19
-309 7 -9 30 -15 55 -15 67 0 102 -23 110 -73 10 -61 42 -131 75 -162 44 -42
151 -77 256 -82 86 -5 95 -4 143 22 100 55 181 165 211 286 10 40 15 45 34 42
17 -4 33 7 67 45 51 56 69 105 69 183 -1 185 -196 304 -367 224z m181 -27 c53
-16 121 -84 135 -134 24 -85 3 -172 -52 -222 l-25 -23 -121 175 c-67 97 -119
180 -116 186 17 27 115 37 179 18z m-267 -184 c53 -13 108 -24 124 -24 23 0
36 -11 74 -64 l46 -64 -16 -74 c-36 -177 -152 -308 -272 -308 -45 0 -141 23
-194 46 -77 34 -116 139 -106 284 8 108 28 173 73 243 l37 55 69 -35 c38 -19
112 -45 165 -59z m-422 46 c10 -11 29 -20 43 -20 19 0 23 -4 17 -17 -17 -41
-33 -101 -39 -148 l-7 -50 -55 -1 -54 -2 0 37 c0 64 49 221 69 221 4 0 16 -9
26 -20z"/>
<path d="M12772 2278 c-34 -42 -83 -291 -69 -349 7 -26 43 -49 77 -49 17 0 20
7 20 53 0 70 23 157 62 229 35 66 32 75 -33 109 -45 23 -44 22 -57 7z"/>
</g>
</svg>
