<svg viewBox="0 0 91.94 10.47" fill="currentColor"><defs><style>.cls-1{fill:#c2d500}</style></defs><g id="Layer_2" data-name="Layer 2"><g id="Layer_1-2" data-name="Layer 1"><g id="Title_bottom" data-name="Title bottom"><path d="M91.45 3.27L75.76 3a.47.47 0 00-.51.49.5.5 0 00.49.51l15.69.3a.5.5 0 00.5-.49.52.52 0 00-.48-.54zM16.2 3.27L.51 3a.51.51 0 00-.5.49.5.5 0 00.48.51l15.69.3a.5.5 0 00.5-.49.52.52 0 00-.48-.54zM71 .88a.52.52 0 00-.51.49 5.05 5.05 0 01-4.71 4.72h-.18a5.06 5.06 0 01-4.86-4.33.34.34 0 010-.1.5.5 0 00-.55-.44.5.5 0 00-.45.54v.1A4 4 0 0158.57 5a4.05 4.05 0 01-3.12 1.33 4 4 0 01-2.94-1.73 4.54 4.54 0 01-.78-1.69 5.24 5.24 0 000-1.81.5.5 0 00-.48-.42.49.49 0 00-.5.39 4.74 4.74 0 000 1.84 5.23 5.23 0 01-1.16 2.3 4.88 4.88 0 01-3.69 1.84 4.94 4.94 0 01-3.7-1.83 5 5 0 01-1.23-3.79v-.18a.5.5 0 00-.42-.56.49.49 0 00-.55.41v.18a5.25 5.25 0 01-5 4.23 5.3 5.3 0 01-4.83-3.59 3.75 3.75 0 00-.2-.88.5.5 0 00-1 .23 5.08 5.08 0 00.19.86 4 4 0 01-.73 2.61 3.83 3.83 0 01-2.93 1.75A3.8 3.8 0 0122.45 5a3.8 3.8 0 01-.81-3.31.5.5 0 10-1-.26 4.84 4.84 0 001 4.2 4.93 4.93 0 003.87 1.91 4.84 4.84 0 003.75-2.24A5.28 5.28 0 0030 3.8a6.19 6.19 0 005 2.71 6.2 6.2 0 005.15-3 6.23 6.23 0 001.25 2.35 5.88 5.88 0 004.46 2.19 5.92 5.92 0 004.46-2.19 6.76 6.76 0 00.92-1.42 4.94 4.94 0 00.47.75 5 5 0 003.68 2.1 5 5 0 003.91-1.65 5.51 5.51 0 001.11-1.72 6.2 6.2 0 005.35 3.17 6.1 6.1 0 005.68-5.69.5.5 0 00-.44-.52z" class="cls-1"/><path d="M35 3.86a3.55 3.55 0 00.46 0A4.14 4.14 0 0039 .72a.5.5 0 00-.37-.6.51.51 0 00-.6.37 3.2 3.2 0 01-2.65 2.35 3.18 3.18 0 01-3.12-1.66.5.5 0 10-.89.46A4.18 4.18 0 0035 3.86zM45.84 5h.27a4.54 4.54 0 004-3.2.5.5 0 10-1-.27A3.51 3.51 0 0146 4a3.49 3.49 0 01-3.35-2 .49.49 0 00-.65-.3.48.48 0 00-.26.65A4.54 4.54 0 0045.84 5zM55.65 4.69a3.14 3.14 0 00.61-.05 3.8 3.8 0 003-4.22.5.5 0 00-1 .16 2.81 2.81 0 01-2.16 3.08A2.81 2.81 0 0153 1.55a.5.5 0 00-1 .19 3.82 3.82 0 003.65 2.95zM22.8 2.57a4.41 4.41 0 001.58 2 2.67 2.67 0 001.34.36 2.56 2.56 0 001.18-.28 2.68 2.68 0 001.44-2.07.5.5 0 00-1-.11 1.62 1.62 0 01-2.45 1.23 3 3 0 01-1.07-1.33.57.57 0 000-.29.56.56 0 00-.54-.32.64.64 0 00-.49.45.48.48 0 00.05.35zM65.39 4.49h.24a4 4 0 003.48-2.71.5.5 0 00-1-.31 3 3 0 01-2.58 2 3 3 0 01-2.84-1.66.5.5 0 00-.9.44 4 4 0 003.6 2.24zM60.82 5.79a.5.5 0 00-.69.16 4.78 4.78 0 01-4 2.64 5.5 5.5 0 01-4.33-2.16.57.57 0 00-.43-.22.5.5 0 00-.41.26 3.1 3.1 0 00-.17.32c-.48.94-1.28 2.52-5.17 2.67A5.43 5.43 0 0140.41 6a.5.5 0 00-1 .23.83.83 0 01-.25.55 6 6 0 01-3.86 1.68c-2.41 0-4.3-1.46-4.37-2.27a.5.5 0 00-.53-.48.51.51 0 00-.47.53c.07 1.45 2.58 3.22 5.37 3.22A7 7 0 0040 7.38a6.64 6.64 0 005.53 3.09h.22c4-.15 5.22-1.75 5.82-2.85a6.54 6.54 0 004.68 2A5.72 5.72 0 0061 6.48a.5.5 0 00-.18-.69z" class="cls-1"/></g></g></g></svg>