<svg viewBox="0 0 126.98 51.87" fill="currentColor"><g data-name="Layer 2"><g data-name="Text Top"><g data-name="Layer 1-2"><path d="M127 39.17a1.61 1.61 0 00-.32-1.27 2.16 2.16 0 00-1.35-.75 1.78 1.78 0 00.55-2.18 1.27 1.27 0 00-.75-.86 2 2 0 00-1.44-.07 1.88 1.88 0 000-2.31 2 2 0 00-2.47-.25v-.15a1.73 1.73 0 00-.93-1.67 1.46 1.46 0 00-1.36-.12 2.13 2.13 0 00-.47.29c-.13-1-.58-1.59-1.31-1.73a2.09 2.09 0 00-2.21 1.36 1.55 1.55 0 00-1.58-.9 2 2 0 00-1.6 1.53 1.15 1.15 0 00-.23-.21.14.14 0 000-.09 1 1 0 00-.22-.89 1.37 1.37 0 00-.85-.51 1.25 1.25 0 00.32-1.46 1 1 0 00-.53-.61 1.29 1.29 0 00-.91-.07 1.26 1.26 0 00-.08-1.53 1.35 1.35 0 00-1.65-.21 1.22 1.22 0 00-.65-1.17 1 1 0 00-1-.08.88.88 0 00-.28.16 1.19 1.19 0 00-.91-1.14 1.4 1.4 0 00-1.5.88 1.1 1.1 0 00-1.07-.57 1.38 1.38 0 00-1.1 1 1.13 1.13 0 00-1.36-.37 1.19 1.19 0 00-.88 1.22 1.25 1.25 0 00-1.34-.24 1 1 0 00-.36.35c-.57-.14-1.93 0-5.68.48-1.22.16-2.36.31-3.12.38A17.55 17.55 0 0085 26a15.72 15.72 0 012.16-2.37 30.44 30.44 0 005.58-7.25.62.62 0 00-.19-.63c-.43-.32-.85-.07-3.28 1.5-1.16.74-2.6 1.67-4 2.47-3 1.67-7.72 6.09-9.68 8.12a26.79 26.79 0 002-5.83l.28-1.38c.89-4.4 2.23-11 3.58-12.27.29-.26.49-.45.41-.78a.46.46 0 00-.38-.36c-.77-.15-6 4.63-8.17 7-.21-.92-.65-2.5-1.5-5.31v-.04a15.64 15.64 0 005.11-2.35l.79-.5c1.73-1 4-2.17 6.18-1.65a9.58 9.58 0 013.51 2.06l.45.35c.68.53 1.38 1 2.09 1.5a.55.55 0 00.32.22c2.19 1.5 4.74 2.9 7.02 4.21a36.38 36.38 0 007.39 2.77 39.3 39.3 0 016.33 2.23l.87.42a13.87 13.87 0 005.38 1.79 17 17 0 001.75-.06c1.39-.1 2.7-.19 3.59.59a.51.51 0 00.33.13.54.54 0 00.37-.17.5.5 0 000-.71c-1.21-1.05-2.79-1-4.32-.84-.54 0-1.09.06-1.64.06a13.11 13.11 0 01-5-1.68l-.12-.06c.45-2-1.77-3.28-3.27-4.18-.31-.19-.64-.37-1-.55-1.35-.75-2.63-1.46-3.18-2.7a7.37 7.37 0 01-.45-2.16 4.88 4.88 0 00-1.25-3.4c-1.7-1.55-4.45-.42-5.35 0l-1.18.48c-2.18.89-4.09 1.67-6.23 2.79-.68-.46-1.3-.92-2-1.46l-.44-.35A10.44 10.44 0 0084 3.4c-2.58-.61-5 .6-7 1.77l-.81.5a14.53 14.53 0 01-4.85 2.23 43.86 43.86 0 00-2.29-6.49c-.6-1-1-1.46-1.44-1.4s-.61.5-.61.93l-.09.28c-.15.47-1.87 7.54-2.43 10.6-2.32-4.12-3.92-6.23-5.27-6.93-.44-.23-.85-.5-1.21-.73-.7-.45-1-.68-1.43-.54a.75.75 0 00-.36.4l-.1.34a.55.55 0 000 .36 9.8 9.8 0 01.78 3.43c.1 1.54.91 5.67 1.57 8.94C56.78 14.56 54.13 11 51 9.38a4.13 4.13 0 01-1.59-2 2.19 2.19 0 00-1-1.22.66.66 0 00-.65.15c-.36.41-.23.84 2.21 5.32l.56 1-.78-.63c-2.17-1.85-4.41-3.76-7.57-4.52a12.69 12.69 0 00-8.53 1.19.47.47 0 00-.4 0c-3.29 1.72-7.7.78-11.58 0-.88-.19-1.72-.37-2.51-.51-1.41-.25-3-.44-4.18.5a5 5 0 00-1.45 2.75 7.36 7.36 0 01-.53 1.68 6.76 6.76 0 01-2.88 2.24c-.38.2-.77.4-1.13.62-1.65 1-3.06 2.84-2.46 4.63-.76.17-1.52.33-2.27.52-2.54.67-4 1.8-4.21 3.37a.5.5 0 00.32.53h.08a.51.51 0 00.5-.38c.19-1.14 1.36-2 3.48-2.56s4.15-.92 6.2-1.3c2.22-.42 4.52-.85 6.74-1.45 3.31-.91 6.51-3.16 9.58-5.31 4.72-3.32 9.6-6.76 15-5.48 2.92.7 5.07 2.54 7.15 4.31.79.68 1.6 1.36 2.45 2 1.24 2.64 3.28 7.27 4.88 10.87 2.1 4.74 2.49 5.61 2.61 5.76 1.11 1.54 2.42 3.3 3.09 4.2a4.56 4.56 0 00-1.18-.5l-1-.24c-.11-.16-.22-.3-.34-.46a.45.45 0 000-.36c-1-3.22-6.36-11.5-8.82-14.76-2.2-2.92-10.35-6.92-12.36-7.58a1 1 0 00-.39-.08.53.53 0 00-.38.4.43.43 0 00.16.46l.24.28A39.18 39.18 0 0044 18.67 18.84 18.84 0 0149.17 26c-3.76-1.83-7.93-3.23-8.81-2.49a.61.61 0 00-.23.54c.06.47.53.7 1.79 1.33a20.67 20.67 0 015.92 4c1.2 1.25 2.73 2.76 4.23 4.14a18.9 18.9 0 00-5.18-.79 83.46 83.46 0 00-10.59.61c-1.11.11-2.1.21-2.93.27a1.22 1.22 0 00-.37-1.18 1.4 1.4 0 001-1.11 1.18 1.18 0 00-.63-1.2 1.41 1.41 0 00.87-1.5 1.15 1.15 0 00-1.24-.86 1.4 1.4 0 000-1.4 1 1 0 00-.86-.49 1.12 1.12 0 00-1.7-1.46 1.27 1.27 0 00-1.3-1.28 1.3 1.3 0 00-.95.43 1.32 1.32 0 00-1.09-1 1.11 1.11 0 00-1.07.57 1.42 1.42 0 00-1.5-.88 1.21 1.21 0 00-.91 1.14.78.78 0 00-.28-.16 1 1 0 00-.95.08 1.24 1.24 0 00-.65 1.17 1.36 1.36 0 00-1.65.21 1.29 1.29 0 00-.09 1.56 1.3 1.3 0 00-.91.07.93.93 0 00-.53.61 1.28 1.28 0 00.32 1.46 1.43 1.43 0 00-.85.51 1.13 1.13 0 00-.23.89v.09a2.19 2.19 0 00-.23.21 2 2 0 00-1.6-1.53 1.6 1.6 0 00-1.59.89 2.07 2.07 0 00-2.2-1.35c-.73.14-1.18.74-1.31 1.72a2 2 0 00-.47-.28 1.46 1.46 0 00-1.4.12 1.78 1.78 0 00-.94 1.67v.15a2 2 0 00-2.47.25 1.91 1.91 0 000 2.31 2 2 0 00-1.44.07 1.36 1.36 0 00-.76.86 1.82 1.82 0 00.56 2.18 2.21 2.21 0 00-1.35.75 1.65 1.65 0 00-.32 1.27c.1.64.64 1.14 1.57 1.46a2.29 2.29 0 00-1.19 2.48 1.67 1.67 0 001.85 1.4h.08a1.6 1.6 0 00.35 1 1.72 1.72 0 001.7.5l-.17.15a2.22 2.22 0 00-.62 1.55 1.44 1.44 0 00.48 1 1.69 1.69 0 002.39.15l.15-.15a2.41 2.41 0 001.22 2.06 1.68 1.68 0 002.24-.54 1.66 1.66 0 001.49 1.63 1.78 1.78 0 002-1.55 1.16 1.16 0 000-.32 2.06 2.06 0 002.22.79c.75-.26 1.11-1 1-2.1a2.2 2.2 0 003 .11 2 2 0 00.44-2.64 2.18 2.18 0 002.7-1 1.73 1.73 0 00-.59-2.06 2 2 0 001.5-1.26 1.72 1.72 0 00.83.6 1.6 1.6 0 00-.78 1.68 1.17 1.17 0 001.3 1 1 1 0 00.25.71 1.09 1.09 0 001 .29 1.52 1.52 0 00-.43 1.08 1.05 1.05 0 00.33.72 1.19 1.19 0 001.68.09 1.72 1.72 0 00.84 1.33 1.17 1.17 0 001.51-.3 1.15 1.15 0 001 1A1.24 1.24 0 0035 48.94v-.13a1.42 1.42 0 001.48.47 1.23 1.23 0 00.73-1.35 1.54 1.54 0 002 0 1.25 1.25 0 00.51-1.27 108.1 108.1 0 0011.53-1.16 25.85 25.85 0 017.08.5h.33c-.23 1.39 0 1.56.18 1.69a.69.69 0 00.31.09.55.55 0 00.29-.09c.12-.08.13-.09.51-.74l.32-.55a14.41 14.41 0 001.61.83c1.76.8 5.37-.3 6.52-.88a2.29 2.29 0 00.79-.62v.14a.5.5 0 00.41.39 14.62 14.62 0 004.28 0 14.34 14.34 0 014.53 0c1.53.29 3.38.75 5 1.15a25.36 25.36 0 003.85.82h.21a.59.59 0 00.43-.65 9.18 9.18 0 00-2.56-3.73l1.1-.35.79-.25a1.51 1.51 0 001 .81 1.2 1.2 0 00-.35 1.39 1.51 1.51 0 001.78.73 1.36 1.36 0 00.34 1.75 1.57 1.57 0 002 0 1.24 1.24 0 00.73 1.35 1.39 1.39 0 001.48-.47A1.23 1.23 0 0095.39 50h.15a1.13 1.13 0 001-1 1.17 1.17 0 001.5.3 1.66 1.66 0 00.96-1.36 1.21 1.21 0 001.69 0 1 1 0 00.33-.72 1.49 1.49 0 00-.43-1.08 1.05 1.05 0 001-.3 1 1 0 00.26-.7 1.17 1.17 0 001.3-1 1.59 1.59 0 00-.78-1.68 1.63 1.63 0 00.83-.6 2 2 0 001.5 1.25 1.76 1.76 0 00-.59 2.07 2.18 2.18 0 002.69 1 2 2 0 00.45 2.64 2.2 2.2 0 003-.11c-.07 1.1.29 1.84 1 2.1a2.05 2.05 0 002.22-.79 1.79 1.79 0 001.68 1.88h.32a1.66 1.66 0 001.53-1.69 1.7 1.7 0 002.24.54 2.37 2.37 0 001.22-2.06 1.69 1.69 0 002.39.15l.15-.15a1.32 1.32 0 00.47-1 2.17 2.17 0 00-.61-1.55l-.17-.15a1.67 1.67 0 001.68-.39 1.39 1.39 0 00.36-1h.18a1.63 1.63 0 001.75-1.4 2.26 2.26 0 00-1.25-2.48c.85-.41 1.4-.91 1.59-1.55zM97 5.55l1.18-.49c2.06-.84 3.47-.88 4.3-.13a4 4 0 01.92 2.76 8.8 8.8 0 00.53 2.47c.7 1.55 2.18 2.37 3.61 3.17.32.17.63.35.93.53 1.57.94 2.87 1.82 2.84 2.86a42.22 42.22 0 00-6.29-2.2 34.91 34.91 0 01-7.18-2.69C95.6 10.64 93.39 9.41 91.28 8 93.18 7.08 95 6.36 97 5.55zm-70.6 7.61c-3.16 2.23-6.15 4.33-9.3 5.19-2.19.6-4.46 1-6.67 1.43-1 .19-2 .38-3 .59-.55-1.39.88-2.89 2-3.56.36-.21.72-.41 1.09-.6a7.55 7.55 0 003.27-2.61 8 8 0 00.72-1.93 4.25 4.25 0 011.11-2.24c.85-.68 2.14-.52 3.38-.3.79.14 1.62.32 2.48.5a30.17 30.17 0 008.72 1c-1.2.77-2.55 1.66-3.8 2.53zm97.73 21.42a1.23 1.23 0 011 .35 1.06 1.06 0 01.3.88 1.33 1.33 0 01-.67 1 2.12 2.12 0 01-.37.18v-.1a1.52 1.52 0 00-.12-.52 1.85 1.85 0 00-1.14-1.25 2.25 2.25 0 011-.54zM105.84 39a.06.06 0 010 .06h-.06a1.74 1.74 0 00-.45.06 1.48 1.48 0 01-.42 0 2.88 2.88 0 01-.85-.26 1.64 1.64 0 01-.81-1.35c0-.31.25-.52.64-.64a2.44 2.44 0 01.8-.13h.18a.41.41 0 01.29.16l.4.31.32.2v.18a1.65 1.65 0 00-.11.5 3.11 3.11 0 00.07.91zM89 41.34a1.71 1.71 0 00-.32 0h-.26a1.9 1.9 0 01-.57-.18 1 1 0 01-.52-.87c0-.19.15-.32.4-.4a2 2 0 01.53-.08h.12a.27.27 0 01.17.1l.27.22.22.12a.11.11 0 010 .08 1 1 0 00-.08.35 2.44 2.44 0 00.04.66zm12.74-12.93a.08.08 0 010 .07 3.19 3.19 0 00.18.8 2.33 2.33 0 00-.64-.23 1.4 1.4 0 00-.29 0 1.18 1.18 0 00-.48.1.14.14 0 01-.15 0 2.74 2.74 0 01-.51-.57 1.28 1.28 0 010-1.23c.12-.15.33-.18.63-.08a2.28 2.28 0 011.23.95.31.31 0 01.04.19zm3.2 3.23a.63.63 0 01-.12.7c-.14.1-.31 0-.43-.08a3.12 3.12 0 01-.43-.46 5.45 5.45 0 01-.49-1c.53.13 1.23.3 1.53.84zM106 29a1 1 0 00-.25-.4c.7-.27 1.59-.41 2 .42a1 1 0 010 1 1.87 1.87 0 01-1.5.67 10.9 10.9 0 01-1.4 0 3.84 3.84 0 00.6-.2A1.22 1.22 0 00106 29zm6 9.17a2.61 2.61 0 00-1.1.15.3.3 0 01-.29 0 4.2 4.2 0 01-.76-.87 2 2 0 01-.06-1.89c.21-.24.54-.29 1-.13a3.35 3.35 0 011.85 1.43.66.66 0 01.11.39v.1a3.84 3.84 0 00.34 1.32 3.05 3.05 0 00-1.09-.52zm1.66 1.66a.06.06 0 010 .06h-.06c-.31.09-.62.19-.94.26h-.11a2.44 2.44 0 01-1.2 0 .89.89 0 01-.52-1 .61.61 0 01.39-.42.76.76 0 01.33-.05 2.55 2.55 0 011.23.39 3.27 3.27 0 01.88.74zm-4.31-4.76a1.91 1.91 0 00-.43 1.61c-.71-.63-1.59-1.71-.89-2.79a1.22 1.22 0 011-.67 2.59 2.59 0 011.8 1.42 1.44 1.44 0 00-1.48.41zm-4.16-1.45a2.46 2.46 0 01-1-.89 1 1 0 00.79.11.8.8 0 00.51-.52.28.28 0 000-.18l.11.11a2.72 2.72 0 00.27 1.18 1.52 1.52 0 00-.68.17zm.57-1.94a1.15 1.15 0 00-.23-.21 1 1 0 01-.19-.22 4 4 0 00.69 0 1.46 1.46 0 00-.27.41zm.7-.06a.71.71 0 01.57-.24 1 1 0 01.35.06 2.77 2.77 0 011.4 1.12 1.52 1.52 0 00-1 .58 2.47 2.47 0 00-.34.54c0 .06-.09.1-.13.09a1.94 1.94 0 00-.42-.17 1.07 1.07 0 01-.28-.19 2.82 2.82 0 01-.31-.53 1.38 1.38 0 01.16-1.33zm2-.25a2.93 2.93 0 00-.83-.46l-.07-.05a1.73 1.73 0 00.72-.84c0-.06.07-.1.12-.1a1.33 1.33 0 01.49.09 1.48 1.48 0 00-.46 1.34zm.4-2.39a1.77 1.77 0 01-.52.24v-.05a1.85 1.85 0 00-1-1.12 3 3 0 011-.54.63.63 0 01.55.08.87.87 0 01.35.59.89.89 0 01-.41.82zm-3.34.48c-.17.61-1.07.75-1.84.75h-.08v-.07a6 6 0 01.59-.81 1.4 1.4 0 01.6-.42.57.57 0 01.6.12.39.39 0 01.1.41zm-1.88 3.41a3 3 0 00.69.82l.2.14a.45.45 0 01.16.2v.05l-.06.08a2 2 0 00-.13 1.74.62.62 0 01-.2.15c-.19.06-.39 0-.59-.27a2.07 2.07 0 01-.43-.73.26.26 0 010-.21 3.13 3.13 0 00.33-2zm-.64-2.93a3.06 3.06 0 01-.53-.81 1.79 1.79 0 010-1.25.47.47 0 01.36-.22h.14a.43.43 0 01.36.14c.03.2.17.67-.33 2.14zm-3.58 7.34l-.24-.2a1.75 1.75 0 01.55-.47 1.24 1.24 0 01.53-.12.75.75 0 01.52.16.55.55 0 01.11.65 2.06 2.06 0 01-1.26 1.36 1.23 1.23 0 00-.22-1.38zm-8.82.57a.78.78 0 01.65-.43 1.63 1.63 0 011.15.89 1 1 0 00-1 .29 1.37 1.37 0 00-.32 1c-.49-.46-.9-1.1-.49-1.75zm-.21-.52a2 2 0 00-.24.37l-.29-.12a.66.66 0 01-.17-.12 1.68 1.68 0 01-.2-.34.89.89 0 01.08-.85.44.44 0 01.35-.15.81.81 0 01.22 0 1.73 1.73 0 01.92.72 1.08 1.08 0 00-.68.44zm2.16 1l-.07.08h.06zm0-.73a.5.5 0 00-.14-.15 1.52 1.52 0 00-.61-.42l-.17-.14a3.64 3.64 0 01-.33-.76.85.85 0 01.08-.59.75.75 0 01.56-.35H92a1 1 0 01.71.47 1.94 1.94 0 01.28.7.17.17 0 01-.07.15 1.51 1.51 0 00-.39 1.1zm-.75 1.32c.12-.15.34-.18.63-.08a2.2 2.2 0 011.23.95.4.4 0 01.07.24v.07a3.19 3.19 0 00.18.8 2 2 0 00-.64-.23 1.4 1.4 0 00-.29 0 1.18 1.18 0 00-.48.1.19.19 0 01-.15 0 2.25 2.25 0 01-.5-.57 1.28 1.28 0 01-.07-1.27zm.71 2.51a.41.41 0 01.24-.26.34.34 0 01.2 0 1.69 1.69 0 01.82.26 2 2 0 01.58.46c-.21.07-.43.13-.65.18h-.07a1.51 1.51 0 01-.79 0 .59.59 0 01-.35-.63zm1.43-2.16a2.09 2.09 0 00-.42-.42.57.57 0 01-.16-.22 4.41 4.41 0 01-.24-1 .85.85 0 01.41-.84.37.37 0 01.21 0 .51.51 0 01.4.19 2.32 2.32 0 01.62 1 .42.42 0 010 .27 3 3 0 00-.11.45c0 .06-.09.1-.14.12a1.16 1.16 0 00-.59.46zm-.26-3h-.08s-.08 0-.09-.06v-.07a1.75 1.75 0 010-.56 1.18 1.18 0 01.69-.89.61.61 0 01.55.31 2.44 2.44 0 01.2 2.27c-.42-.68-.85-1-1.29-1zm.45-2a1.34 1.34 0 00-1.09 1 1.14 1.14 0 00-.87-.44 27.32 27.32 0 013.83-1 1 1 0 01.08.11 1.64 1.64 0 00-.89.83 1.07 1.07 0 00-1.08-.58zm1.64-2.93a.6.6 0 01.28-.59 1.92 1.92 0 011.25-.43c.06 0 .11.06.15.11a2 2 0 00.52.43 1.5 1.5 0 00-.9 1.07L97 32a1.41 1.41 0 01-.41 0 1.22 1.22 0 01-.85-.77zm.78-3a.27.27 0 01.17.1l.27.22.22.13a.08.08 0 010 .07 1.36 1.36 0 00-.07.35 3 3 0 000 .6h-.31a1.22 1.22 0 01-.27 0 1.93 1.93 0 01-.56-.18 1.09 1.09 0 01-.53-.87c0-.19.16-.32.41-.4a2 2 0 01.53-.08zm2 3.65a1 1 0 00.62.73 3 3 0 01-.67.26.91.91 0 01-.58-.11 1 1 0 01-.33-.62.91.91 0 01.49-.84 1.44 1.44 0 01.48-.2 2.21 2.21 0 000 .68zm.92 4.2a1.22 1.22 0 00-.7-1.19 1.13 1.13 0 00-.57-.15 2 2 0 01.56-.67 1.26 1.26 0 00.32.53 1.19 1.19 0 001.31.37 2.51 2.51 0 01-1 1zM96.48 33a2.29 2.29 0 01.44-.44.49.49 0 01.19-.07 1.39 1.39 0 00.67.8 1.45 1.45 0 00.92 0 3 3 0 01-.38.3 2.48 2.48 0 01-1 .42h-.4a1.13 1.13 0 00-.36-.14 1 1 0 01-.25-.24.57.57 0 01.17-.63zm1.11 2a1.24 1.24 0 00-.11-.43 1.4 1.4 0 00.29 0 2.77 2.77 0 00-.18.43zm-1.1-.66c.21 0 .35.17.44.46a1.72 1.72 0 01.1.64.68.68 0 010 .23v.07a.62.62 0 00-.27-.21 1 1 0 00-1.19.22v-.05a1.5 1.5 0 010-.3 2.15 2.15 0 01.14-.45 1.16 1.16 0 01.83-.62zm.77 3.1a3.3 3.3 0 000-.77.81.81 0 010-.31 1.84 1.84 0 01.43-.83.83.83 0 01.55-.23h.08a.62.62 0 01.45.32 1 1 0 010 .74 1.44 1.44 0 01-.3.52.26.26 0 01-.19.08 2.13 2.13 0 00-1.1.5zm-1.56-1.13a.65.65 0 01.65-.35c.18 0 .3.15.36.37a2 2 0 010 1.24.84.84 0 00-.34-.17 1.61 1.61 0 00-.54-.09.86.86 0 00-.38.06 2.63 2.63 0 01.25-1.08zM97.21 42a1.2 1.2 0 00.59-1.41.94.94 0 00-.25-.4c.7-.27 1.59-.41 2 .42a1 1 0 010 1 1.94 1.94 0 01-1.5.67 10.9 10.9 0 01-1.4 0 2.67 2.67 0 00.56-.28zm-1.79-.2v-.07a5.53 5.53 0 01.59-.82 1.44 1.44 0 01.6-.41.59.59 0 01.6.11.4.4 0 01.09.44c-.14.65-1.1.79-1.88.77zm3.06-2.45a.41.41 0 01-.24.11h-.15a6.21 6.21 0 00-1.07.38l-.17.06a2.74 2.74 0 00.23-.53 2.19 2.19 0 00.15-.87.36.36 0 01.06-.25 2 2 0 01.62-.63 1.31 1.31 0 01.69-.19.66.66 0 01.45.13.58.58 0 01.13.68 2.21 2.21 0 01-.7 1.13zm1.39-4.82a.88.88 0 01-.51-.4.93.93 0 01.09-1.09 2.31 2.31 0 01.18-.23.29.29 0 01.24-.1 1.86 1.86 0 00.41-.08 6 6 0 00.77-.35 2.37 2.37 0 00.09.36.2.2 0 010 .21 6.45 6.45 0 00-.29.91.53.53 0 01-.1.25 1.74 1.74 0 01-.3.31.82.82 0 01-.58.23zm1.26-2.94l-.31.21a2.34 2.34 0 01-1 .38 1 1 0 01-.74-.34.62.62 0 010-.53 1.24 1.24 0 011.11-.78.17.17 0 01.14.09 1 1 0 00.51.35 2.42 2.42 0 00.93 0 1.49 1.49 0 00-.36.39 1 1 0 01-.28.25zm1.61-.71a3 3 0 01-.09 1.12 1.12 1.12 0 01-.36.58.75.75 0 01-.49.07.25.25 0 01-.17-.11c-.33-.7.47-1.27 1.11-1.64zm-.35-.66v.12zm0 0c-.21.07-.43.13-.65.18h-.07a1.51 1.51 0 01-.79 0 .59.59 0 01-.33-.64.41.41 0 01.24-.26.34.34 0 01.2 0 1.69 1.69 0 01.82.26 2 2 0 01.57.47zm-2.55-.89l.21.19a.09.09 0 010 .12 2 2 0 000 .35v.07a2.16 2.16 0 00-1 .38.27.27 0 01-.18.05c-.79-.15-1.2-.52-1.22-1.1a.82.82 0 01.3-.74 1.65 1.65 0 011.44 0 .41.41 0 01.18.19 3.76 3.76 0 00.31.5zm-2.22-1.13a.17.17 0 01-.17 0 2.35 2.35 0 01-.58-.46 1.26 1.26 0 01-.21-1.15.48.48 0 01.46-.23h.11a1.55 1.55 0 01.73.21.1.1 0 01.06.13 1.74 1.74 0 00.44 1.22 1.76 1.76 0 00-.85.29zm-.49-2.35H97l.13-.1a.49.49 0 000 .11zm-.86.49a1.43 1.43 0 000 1.39 1.13 1.13 0 00-1.23.87 1.43 1.43 0 00.87 1.5 1.19 1.19 0 00-.63 1.11l-2.84-.06a24.48 24.48 0 00-10 4.21c-.49.39-1 .75-1.43 1.1a36.49 36.49 0 014.14-3.42c.14-.09 3.44-2.24 4.21-2.83a3.17 3.17 0 00.62-.65 2.54 2.54 0 011.38-.94s3.17-1.29 5-2.32c-.07 0-.09 0-.1.05zm-19 13.84a.71.71 0 00.22-.06 58.16 58.16 0 005.57-4 23.43 23.43 0 019.48-4 26.59 26.59 0 013.34 0 2 2 0 00.46.22 2.09 2.09 0 00-.25.32A30.34 30.34 0 0080 40.85l-.54.47a.48.48 0 00-.14.2 6.28 6.28 0 00-3.46.21c.39-.46.88-1 1.41-1.53zm12.6-4.65l1.34-.49a1.1 1.1 0 00-.44 1 1.22 1.22 0 00-1.34-.24 1.27 1.27 0 00-.36 1.7 1 1 0 00-.86.49 1.41 1.41 0 000 1.35 11.91 11.91 0 00-2.07-.06c-1.27.06-2.23.13-2.94.19a27.89 27.89 0 016.62-3.93zm-1.06 3.84a1.26 1.26 0 01-.21-1.15.48.48 0 01.46-.23h.11a1.55 1.55 0 01.73.21.11.11 0 01.07.13 1.67 1.67 0 00.43 1.22 1.72 1.72 0 00-.88.22.17.17 0 01-.17 0 2.52 2.52 0 01-.59-.39zm1 .91a1.65 1.65 0 011.44 0 .34.34 0 01.18.19 4.14 4.14 0 00.37.46l.21.19a.09.09 0 010 .12 1 1 0 000 .35v.07a2.15 2.15 0 00-1 .38.27.27 0 01-.18.05c-.79-.15-1.2-.52-1.22-1.1a.86.86 0 01.13-.7zm.68 2.44a2 2 0 000 .77 1 1 0 00.63.74 3.09 3.09 0 01-.68.26.91.91 0 01-.58-.11 1.08 1.08 0 01-.33-.62.91.91 0 01.49-.84 1.33 1.33 0 01.4-.19zm.53.76A.59.59 0 0191 43a1.24 1.24 0 011.11-.78.17.17 0 01.14.09 1 1 0 00.51.35 2.09 2.09 0 00.93 0 2.33 2.33 0 00-.36.4.86.86 0 01-.21.22l-.31.21a2.34 2.34 0 01-1 .38 1.06 1.06 0 01-.81-.37zm3.69-1a3.3 3.3 0 01-.09 1.08 1.12 1.12 0 01-.36.58.75.75 0 01-.49.07.39.39 0 01-.17-.11c-.39-.64.4-1.2 1-1.57zm-.36-.67v.12zm0-1.11a1.79 1.79 0 010-1.25.47.47 0 01.36-.22h.14a.43.43 0 01.36.14c.13.17.27.68-.29 2.15a3 3 0 01-.61-.77zm.85-1.92s-.09-.07-.08-.11a1.57 1.57 0 01.6-1h.14a.79.79 0 01.46.19c.76.54.3 1.55-.22 2.3a2.61 2.61 0 01-.23.25l-.13.12a2.41 2.41 0 000-1 1.07 1.07 0 00-.58-.7zm1.64 4.43a.63.63 0 01-.12.71c-.14.1-.31 0-.43-.08a3.12 3.12 0 01-.43-.46 5.45 5.45 0 01-.49-1c.58.17 1.23.34 1.43.87zm0 1.2a.81.81 0 00.5-.52.28.28 0 000-.18 1.73 1.73 0 01.55.62.86.86 0 010 .9.44.44 0 01-.5.12 2.33 2.33 0 01-1.36-1 1 1 0 00.81.1zm.54-1.37a2 2 0 01-.19-.22 5.85 5.85 0 001.26-.07.61.61 0 01.27 0 1.27 1.27 0 01.65.28 1 1 0 01.36.73.56.56 0 01-.27.44 1 1 0 01-.89.1.4.4 0 01-.14-.15 2 2 0 00-.3-.46 4.88 4.88 0 00-.75-.61zm2-.61a1.64 1.64 0 00.72-.84c0-.06.07-.1.12-.1a1.33 1.33 0 01.49.09 1.13 1.13 0 01.75.86.56.56 0 01-.4.52 2.18 2.18 0 01-.84.22.15.15 0 01-.13-.11 1.6 1.6 0 00-.71-.6zm1.3-1.88a1.53 1.53 0 01-.52.23 1.85 1.85 0 00-1-1.12 3.26 3.26 0 011-.55.67.67 0 01.55.09.84.84 0 010 1.39zm.1-2a1.26 1.26 0 01.65-.28.78.78 0 01.62.22.67.67 0 01.19.57.85.85 0 01-.43.6l-.22.11a1.11 1.11 0 00-.08-.37 1.34 1.34 0 00-.73-.78zm.29-2.28a1 1 0 00-.46-.3 2.42 2.42 0 01.45-1.08 1 1 0 00.83.46h.47v.3a2.64 2.64 0 01-.37 1 1.36 1.36 0 01-.63.45 1 1 0 00-.29-.76zm1-1.47a.69.69 0 01-.57-.25c-.16-.26-.11-.75.16-1.43h.11a1.14 1.14 0 00.52 0 1.38 1.38 0 00.67-.59.08.08 0 000-.07 2.86 2.86 0 01-.28 2.14.77.77 0 01-.63.27zm.75 2.35a.14.14 0 000-.09 3.16 3.16 0 01.2-1.4 1.78 1.78 0 00.68.68 1.45 1.45 0 00-.9.88zm2.55-1a1.86 1.86 0 01-.31-1.77.74.74 0 01.72-.37h.22a2.8 2.8 0 011.1.32.24.24 0 01.13.26 2.44 2.44 0 00.63 1.76l.12.14a2.37 2.37 0 00-1.42.31.39.39 0 01-.3 0 2.81 2.81 0 01-.86-.59zm1.46 1.27a2.48 2.48 0 012.19 0 .59.59 0 01.3.3 4.22 4.22 0 00.53.67l.31.27a.2.2 0 010 .25 1.34 1.34 0 000 .49c0 .07 0 .16-.1.17a2.84 2.84 0 00-1.52.55.53.53 0 01-.33.08c-1.19-.22-1.81-.79-1.85-1.68a1.28 1.28 0 01.45-1zm1.1 3.65a2.69 2.69 0 000 1.13 1.42 1.42 0 001 1.09l-.08.06a3.78 3.78 0 01-1 .39 1.24 1.24 0 01-.9-.17 1.46 1.46 0 01-.51-1 1.39 1.39 0 01.74-1.31A2.8 2.8 0 01108 41a.1.1 0 010 .13zm.67 1.16a.93.93 0 01-.07-.84 1.88 1.88 0 011.68-1.19.35.35 0 01.26.16 1.39 1.39 0 00.71.48 3.29 3.29 0 001.59 0 3.56 3.56 0 00-.71.74 1.46 1.46 0 01-.32.34l-.46.3a3.48 3.48 0 01-1.54.58 1.56 1.56 0 01-1.16-.51zm5.51-1.52a5 5 0 01-.13 1.63 1.69 1.69 0 01-.56.88 1.14 1.14 0 01-.77.13.5.5 0 01-.29-.2c-.47-1 .76-1.83 1.73-2.38zm-.54-2.55a2.7 2.7 0 010-1.9.73.73 0 01.58-.35h.2a.62.62 0 01.58.24c.25.32.38 1.15-.44 3.29h-.07a4.76 4.76 0 01-.87-1.22zm.9-5zm.62 7.45c.93.17 2 .42 2.28 1.26a1 1 0 01-.2 1.1.6.6 0 01-.72-.12 3.55 3.55 0 01-.65-.69 10.89 10.89 0 01-.76-1.53zm3.62-2.61a1.47 1.47 0 00-.38-.59c1.07-.43 2.47-.68 3.08.62a1.54 1.54 0 010 1.5 2.85 2.85 0 01-2.27 1 14.32 14.32 0 01-2.07-.06 2.05 2.05 0 01-.34-.07 4.14 4.14 0 001.15-.35 1.69 1.69 0 00.83-2.05zm-.57.67c-.27 1-1.74 1.17-2.94 1.15l.09-.15a8.32 8.32 0 01.88-1.23 2.11 2.11 0 01.91-.63 1 1 0 011 .19.66.66 0 01.06.69zm-2.08 4.69a1.53 1.53 0 001.26.24 1.16 1.16 0 00.71-.74.84.84 0 00.08-.3 3.31 3.31 0 01.9 1A1.34 1.34 0 01119 45a.71.71 0 01-.8.2 3.59 3.59 0 01-2.2-1.82zm2.06-1.68a1.37 1.37 0 01-.33-.39 8.37 8.37 0 002-.09.79.79 0 01.43 0 2.24 2.24 0 011 .43 1.46 1.46 0 01.55 1.13.86.86 0 01-.43.69 1.59 1.59 0 01-1.36.17.47.47 0 01-.24-.26 2.75 2.75 0 00-.45-.66 6.32 6.32 0 00-1.17-.95zm2.85-1a2.5 2.5 0 001.15-1.27.25.25 0 01.23-.18 2 2 0 01.74.13 1.8 1.8 0 011.16 1.33.93.93 0 01-.64.83 3.21 3.21 0 01-1.26.32c-.11 0-.21-.12-.25-.19a2.44 2.44 0 00-1.15-.9zm2.09-2.68a2.7 2.7 0 01-.79.36.14.14 0 01-.13-.12 2.63 2.63 0 00-1.4-1.64 4.94 4.94 0 011.63-.87 1.06 1.06 0 01.85.12 1.37 1.37 0 01.55.93 1.34 1.34 0 01-.71 1.22zm-2.38-5.29a2.92 2.92 0 01.82-.71 1.79 1.79 0 01.81-.17 1.24 1.24 0 01.82.24.89.89 0 01.18 1 3.17 3.17 0 01-2 2.11 1.78 1.78 0 00-.25-2.11 1.46 1.46 0 00-.34-.26.36.36 0 010-.09zm-2.78.56a5.34 5.34 0 000-1.13 1.29 1.29 0 010-.48 2.67 2.67 0 01.65-1.26 1.33 1.33 0 01.86-.36h.12a1 1 0 01.71.5 1.5 1.5 0 010 1.14 2.12 2.12 0 01-.45.78.51.51 0 01-.32.15 2.94 2.94 0 00-1.72.85zm0 1.26a3.4 3.4 0 01.94-.95 2.09 2.09 0 011-.28 1.08 1.08 0 01.72.2c.27.21.34.57.2 1.07a3.47 3.47 0 01-1 1.63.8.8 0 01-.4.17h-.22a8.17 8.17 0 00-1.57.56 1.6 1.6 0 01-.39.11 6.39 6.39 0 00.4-.89 3 3 0 00.21-1.26.6.6 0 01.16-.35zm-2.61-4.29a2.58 2.58 0 01.22-.68 1.75 1.75 0 011.32-.93h.17c.32 0 .56.28.7.72a3.37 3.37 0 01.15 1 .8.8 0 01-.09.36l-.09.2a1.16 1.16 0 00-.44-.38 1.42 1.42 0 00-1.77.4v-.21a1.31 1.31 0 01-.12-.47zm.31 1.31a1.07 1.07 0 011-.55.69.69 0 01.58.6 3.27 3.27 0 010 1.91h-.08a1.49 1.49 0 00-.49-.24 2.36 2.36 0 00-.8-.14 1.42 1.42 0 00-.6.11 4.18 4.18 0 01.39-1.68zm0 2.16a.45.45 0 01.23 0 1.17 1.17 0 01.72.28c1.15.84.46 2.36-.32 3.49a2.15 2.15 0 01-.33.35c-.12.12-.23.23-.35.37a3.52 3.52 0 00.13-1.64 1.55 1.55 0 00-.84-1.14c-.08 0-.17-.13-.15-.22.26-.83.54-1.34.92-1.48zm-3.39-3.23a1.78 1.78 0 011.08-1.37c.32-.07.61.1.87.49a3.8 3.8 0 01.27 3.54c-.57-1-1.22-1.57-1.87-1.57h-.11a.21.21 0 01-.19-.12v-.14a2.83 2.83 0 010-.82zm0 1.82a.66.66 0 01.33-.07.83.83 0 01.64.3 3.63 3.63 0 01.93 1.58.79.79 0 010 .43 4.54 4.54 0 00-.16.66c0 .11-.14.18-.24.22a1.73 1.73 0 00-.74.63 3.78 3.78 0 00-.6-.6l-.07-.05a.79.79 0 01-.3-.4 5.61 5.61 0 01-.35-1.44 1.27 1.27 0 01.66-1.25zm-.56-.63a.33.33 0 01-.13.28 2.37 2.37 0 00-.57 1.75c-.1-.12-.2-.24-.3-.34a2.68 2.68 0 00-.88-.61.7.7 0 01-.28-.23 4.41 4.41 0 01-.49-1.14 1.28 1.28 0 01.11-.92 1.22 1.22 0 01.87-.54h.19a1.44 1.44 0 011.11.73 3.11 3.11 0 01.42 1zm-1.33-2.76a.71.71 0 01.59.56v.06a1.59 1.59 0 00-1.35-.07 2.68 2.68 0 00-.33.18 1.08 1.08 0 00-.35-.19 1.78 1.78 0 00.5-.44.25.25 0 01.16-.11 2.88 2.88 0 01.83 0zm-.84-2.21a.78.78 0 01.62.22.64.64 0 01.18.57.84.84 0 01-.42.6l-.22.11a1.05 1.05 0 00-.08-.36 1.3 1.3 0 00-.73-.84 1.44 1.44 0 01.7-.29zm-1.71-1.7a1.24 1.24 0 01.53-.12.75.75 0 01.52.16.56.56 0 01.11.65 2.09 2.09 0 01-1.27 1.31 1.2 1.2 0 00-.21-1.38l-.23-.2a1.83 1.83 0 01.55-.42zm-2.42.82a3.22 3.22 0 000-.76.86.86 0 010-.32 1.84 1.84 0 01.43-.83.83.83 0 01.55-.23h.08a.65.65 0 01.59.32 1 1 0 010 .74 1.44 1.44 0 01-.3.52c0 .06-.13.07-.19.08a2.13 2.13 0 00-1.1.5zm0 .88a2.15 2.15 0 01.6-.7 1.27 1.27 0 01.68-.19.67.67 0 01.46.13c.17.13.21.36.12.68a2.23 2.23 0 01-.65 1.09.47.47 0 01-.24.1h-.15a5.43 5.43 0 00-1.07.37l-.17.06c.08-.17.16-.35.23-.53a2.19 2.19 0 00.15-.87.47.47 0 010-.17zm-1.61-3.37a1.18 1.18 0 01.86-.61c.2 0 .35.17.44.46a1.72 1.72 0 01.1.64.46.46 0 01-.06.22v.07a.62.62 0 00-.27-.21 1 1 0 00-1.19.22v-.06a1.5 1.5 0 010-.3 2.21 2.21 0 01.11-.46zm.06 1.35a.7.7 0 01.66-.35.41.41 0 01.35.37 2.18 2.18 0 010 1.24.84.84 0 00-.34-.17 1.67 1.67 0 00-.55-.09.8.8 0 00-.37.06 2.88 2.88 0 01.24-1.09zm0 1.48a.33.33 0 01.14 0 .79.79 0 01.46.19c.76.54.3 1.55-.22 2.3a2.77 2.77 0 01-.24.25l-.12.12a2.11 2.11 0 000-1 1.1 1.1 0 00-.58-.79s-.09-.07-.08-.11c.17-.57.37-.9.62-1zM102.21 23a.63.63 0 01.55.31 2.44 2.44 0 01.2 2.27c-.38-.65-.81-1-1.25-1h-.08a.12.12 0 01-.09-.05v-.09a1.75 1.75 0 010-.56 1.19 1.19 0 01.67-.88zm-.69 2.15a.52.52 0 01.61.15 2.49 2.49 0 01.62 1.05.42.42 0 010 .27 3 3 0 00-.12.45c0 .06-.09.1-.13.12a1.11 1.11 0 00-.51.43 2.65 2.65 0 00-.41-.41l-.08.1v-.13a.87.87 0 01-.16-.23 4.41 4.41 0 01-.24-1 .81.81 0 01.42-.78zm-2.11-1.28a.86.86 0 01.56-.33h.12a1 1 0 01.71.47 1.94 1.94 0 01.28.7.17.17 0 01-.07.15 1.58 1.58 0 00-.43 1.1l-.14-.15a1.71 1.71 0 00-.61-.42.55.55 0 01-.17-.14 3.64 3.64 0 01-.33-.76.83.83 0 01.08-.6zm-.11 1.89a1.63 1.63 0 011.15.89 1 1 0 00-1 .29 1.33 1.33 0 00-.32 1c-.51-.48-.93-1.12-.51-1.77a.8.8 0 01.65-.43zM98 24.55a.81.81 0 01.22 0 1.73 1.73 0 01.91.73 1 1 0 00-.64.39 3.32 3.32 0 00-.23.37v.05l-.39-.09a.66.66 0 01-.17-.12 1.68 1.68 0 01-.2-.34v-.06a.64.64 0 00.07-.65l.05-.1a.47.47 0 01.38-.18zM84 27.4a16.79 16.79 0 014.41-1c.78-.07 1.93-.22 3.16-.39s3-.39 4.15-.49A47.85 47.85 0 0191 27.71 3.45 3.45 0 0089.13 29a2.33 2.33 0 01-.43.46c-.74.57-4.11 2.76-4.15 2.79C80.1 35.26 73.35 43 73.28 43s0 .08-.07.13l-1.91 1.15c.38-.82.84-2 1.42-3.56l.12-.07c.69-.58 2.87-3 4.79-5.19 1.16-1.3 2.47-2.77 2.67-2.94 0 0 .06-.05.07-.08a9.93 9.93 0 003-2.3.54.54 0 000-.66c-.26-.34-.6-.17-.93 0h-.08c.41-.57 1-1.3 1.52-2.07zm-10.42 11c.29-.76.56-1.41.77-1.85A5.94 5.94 0 0178.41 33c-.42.45-.92 1-1.52 1.7-1.1 1.27-2.35 2.65-3.31 3.69zm12.1-17.81c1.44-.81 2.9-1.75 4.07-2.5l1.25-.81a30.07 30.07 0 01-4.52 5.55c-1.33 1-3.94 4.62-5.19 6.35l-.57.78a.47.47 0 00-.13.24 8.63 8.63 0 01-3.67.5 16 16 0 00-2.3-.11l.87-1.25c.64-.87 6.78-6.81 10.17-8.72zM79.43 9.73a77.15 77.15 0 00-2.66 10.73l-.28 1.39a28.28 28.28 0 01-3.66 8.88 7.68 7.68 0 00-1.93.53c1-4.16 3.09-12 4.09-14a.25.25 0 00-.11-.34.25.25 0 00-.34.11c-1 2.11-3.26 10.47-4.22 14.53a4.74 4.74 0 00-.62.41 29.21 29.21 0 00-.27-3c-.12-1.06-.21-1.95-.26-2.8a9.9 9.9 0 01.12-1.89 19.12 19.12 0 014.26-8.9 50.62 50.62 0 015.88-5.65zM67.78 1.52v-.17c.1.14.22.33.37.58 1 1.62 4 12.16 4.18 13.25a20.05 20.05 0 00-4 8.24 57.83 57.83 0 00-3.24-10.14.37.37 0 000-.21c.1-.76 2.32-10.38 2.69-11.55zM57.21 4.89l.17.11c.36.23.81.52 1.29.77 1.2.63 2.86 2.91 5.22 7.18 1.77 3.2 3.24 9.35 3.87 12a7.44 7.44 0 00.44 1.51 24.4 24.4 0 00.24 2.6 17.52 17.52 0 01.19 4.4 18 18 0 00-.84 2.64 10.29 10.29 0 00-1.36 0c-.35-4.24-1.39-12.44-3-16.65a.24.24 0 00-.32-.15.27.27 0 00-.15.33c1.55 4 2.62 12.2 3 16.51a3.3 3.3 0 00-1.64.49c-.15.12-.27.23-.38.33-.44-2.1-1.24-5.48-2.4-10.34-.7-2.93-1.31-5.46-1.43-6.15s-.31-1.63-.57-2.92c-.62-3.13-1.57-7.86-1.67-9.44a11.75 11.75 0 00-.66-3.22zm.13 20.36c-2.18-4.93-4.9-11.06-5.77-12.68l-.75-1.4-.55-1 .2.11C54.6 12.4 57.84 18 59 19.85v.06c.06.28.1.52.13.7.13.72.71 3.15 1.45 6.21.53 2.21 1.18 4.94 1.72 7.3-.69-.93-1.6-2.16-2.4-3.26-.18-.24-1.33-2.86-2.56-5.61zm5.78 12.85a.53.53 0 00.4.35.51.51 0 00.49-.22 6.68 6.68 0 01.91-.86 5.78 5.78 0 012.73-.31v.16A23.41 23.41 0 0065 38.9l-.76.52c-1.13.77-2.59 2.64-4.44 5.73a2.07 2.07 0 01.09-.38c.41-1.67-1.4-5.65-3.23-9.33v-.11a37.42 37.42 0 014.07.77 3.23 3.23 0 012.39 2zM44.56 17.89A37.44 37.44 0 0140 13.51c3 1.39 8.31 4.16 10 6.49a101.5 101.5 0 017.73 12.33 24.85 24.85 0 00-6-5c-.48-.27-1-.53-1.43-.77a.2.2 0 000-.11 18.88 18.88 0 00-5.74-8.56zm4 10.75a21.55 21.55 0 00-6.19-4.19h-.09a33 33 0 017.48 3l1.52.82a26.48 26.48 0 017.18 6.45c-1-.16-1.79-.27-2.22-.33h-.3a.5.5 0 00-.52.17.4.4 0 00-.1.42l-.53-.28C53 33 50.6 30.77 48.56 28.64zM36.4 34.28a83.43 83.43 0 0110.47-.6 16.38 16.38 0 017.37 1.75c.84.72 1.6 1.32 2.17 1.72.34.69.73 1.51 1.1 2.37a26.17 26.17 0 00-9.68-4 .24.24 0 00-.31.17.26.26 0 00.18.31c3.89.59 7.37 2.57 10.11 4.28.23.55.44 1.1.62 1.62a24.88 24.88 0 00-3.45-.6c-.16-.06-.66-.32-1.19-.6-2.28-1.19-6.52-3.41-9.36-3.94-1.25-.24-2.8-.5-4.35-.74a.75.75 0 00-.27-.26 1 1 0 00-1 .06h-.32a1.15 1.15 0 00-.86-1 1.17 1.17 0 00-1.37.37 1.41 1.41 0 00-.64-.83zm-13 3.41v-.18l.32-.2a2 2 0 00.39-.31.52.52 0 01.3-.16h.18a2.68 2.68 0 01.8.13c.39.12.6.33.64.63a1.61 1.61 0 01-.81 1.4 2.53 2.53 0 01-.86.26 1.41 1.41 0 01-.41 0 1.63 1.63 0 00-.45-.06h-.07v-.1a2.67 2.67 0 00.08-.84 1.59 1.59 0 00-.14-.57zM11.38 40a4.36 4.36 0 001.15.35 1.86 1.86 0 01-.34.07 14.28 14.28 0 01-2.07.06 2.87 2.87 0 01-2.27-1A1.75 1.75 0 019.41 37a4.11 4.11 0 011.51.35 1.47 1.47 0 00-.38.59 1.72 1.72 0 00.84 2.06zm-.14-2a1 1 0 011-.19 2 2 0 01.92.63 7.48 7.48 0 01.84 1.23l.09.15c-1.19 0-2.67-.16-2.94-1.15a.68.68 0 01.09-.67zm-2.72-1.44a2.69 2.69 0 00-1.4 1.64v.09a.1.1 0 01-.12.09 2.76 2.76 0 01-.82-.38 1.39 1.39 0 01-.65-1.31 1.53 1.53 0 01.56-.93.92.92 0 01.55-.15h.3a4.77 4.77 0 011.62.86s-.02.09-.04.09zm-1.63 2.75H7a.23.23 0 01.22.18 2.5 2.5 0 001.15 1.27 2.49 2.49 0 00-1.13 1c0 .07-.14.19-.25.19a3.31 3.31 0 01-1.27-.32c-.43-.21-.64-.49-.63-.83a1.84 1.84 0 011.11-1.36 2.1 2.1 0 01.69-.13zm1.22 2.3a2.35 2.35 0 011-.43.79.79 0 01.43 0 9.81 9.81 0 002 .1 1.31 1.31 0 01-.33.38 6.78 6.78 0 00-1.08 1 2.75 2.75 0 00-.45.66.5.5 0 01-.24.26A1.54 1.54 0 018 43.43a.88.88 0 01-.43-.69 1.49 1.49 0 01.54-1.13zm2.11 1.93a3.68 3.68 0 01.88-1c0 .1 0 .2.07.3a1.23 1.23 0 00.72.74 1.52 1.52 0 001.26-.24h.06A3.5 3.5 0 0111 45.12a.71.71 0 01-.8-.2 1.39 1.39 0 01.02-1.38zm2.58-.66a.58.58 0 01-.71.12 1 1 0 01-.2-1.1c.32-.84 1.34-1.09 2.28-1.26a9.08 9.08 0 01-.76 1.53 3.15 3.15 0 01-.61.71zm1.58-6.68A.67.67 0 0115 36h.21a.7.7 0 01.58.35 2.6 2.6 0 010 1.9 4.15 4.15 0 01-.81 1.24h-.06c-.92-2.14-.8-2.97-.54-3.29zM24 30.41a4.69 4.69 0 00.6.2 10.9 10.9 0 01-1.4 0 1.89 1.89 0 01-1.5-.67 1 1 0 010-1 1 1 0 011-.63 2.79 2.79 0 011 .21 1.18 1.18 0 00-.25.4 1.22 1.22 0 00.55 1.49zm15.26 5.8a.5.5 0 01.57.11.84.84 0 01.08.85 1.08 1.08 0 01-.2.34.43.43 0 01-.17.12l-.28.12a1.31 1.31 0 00-.24-.37 1 1 0 00-.64-.4 1.82 1.82 0 01.86-.72zm.91 1.8a.47.47 0 01.56.22 1.2 1.2 0 01-.2 1.15 2.18 2.18 0 01-.58.46.17.17 0 01-.17 0 1.57 1.57 0 00-.85-.22 1.64 1.64 0 00.43-1.22.14.14 0 01.07-.13 1.69 1.69 0 01.69-.27zm.64 5.56h-.41a.27.27 0 01-.06-.1 1.49 1.49 0 00-.9-1.08A1.59 1.59 0 0040 42s.1-.11.16-.11a1.88 1.88 0 011.29.43c.24.19.34.39.28.59a1.13 1.13 0 01-.92.66zm-2.18-1.44a.34.34 0 01-.19-.05 1.89 1.89 0 00-1-.38v-.07a1 1 0 000-.35.13.13 0 010-.12l.22-.19a2.6 2.6 0 00.36-.46.44.44 0 01.19-.19 2.18 2.18 0 01.86-.18.91.91 0 01.58.15.78.78 0 01.3.74 1.4 1.4 0 01-1.32 1.11zm2.23-.74h-.26l-.33-.06a1.42 1.42 0 000-.58.82.82 0 00-.08-.35v-.07l.22-.13.27-.22a.33.33 0 01.17-.1H41a1.89 1.89 0 01.53.08c.24.08.38.21.4.4a1 1 0 01-.53.87 1.62 1.62 0 01-.54.17zm-2.16-3.55c.41.64 0 1.28-.52 1.76a1.21 1.21 0 00-.31-1 1 1 0 00-.73-.32h-.26a1.69 1.69 0 011.12-.89.79.79 0 01.66.46zm-.7-1.71a2.52 2.52 0 01-.32.76.61.61 0 01-.17.14 1.59 1.59 0 00-.61.42 1 1 0 00-.14.15 1.5 1.5 0 00-.43-1.1s-.09-.1-.07-.15a2.12 2.12 0 01.27-.7c.12-.17.43-.56.84-.46a.82.82 0 01.55.33.71.71 0 01.08.62zm-1.12 2.71c.29-.1.5-.07.63.08a1.26 1.26 0 010 1.23 2.44 2.44 0 01-.5.57.19.19 0 01-.15 0 1.2 1.2 0 00-.77-.07 2.3 2.3 0 00-.65.23 2.39 2.39 0 00.19-.82.38.38 0 01.07-.24 2.27 2.27 0 011.23-1zm-1.92 3a2.22 2.22 0 01.59-.47 1.42 1.42 0 011-.23.39.39 0 01.24.26.57.57 0 01-.33.64 1.51 1.51 0 01-.79 0h-.07c-.22 0-.43-.1-.65-.17zm1-3.26a.46.46 0 01-.17.22 1.61 1.61 0 00-.4.42 1.23 1.23 0 00-.52-.44s-.13-.06-.14-.12a2.12 2.12 0 00-.11-.45.61.61 0 010-.27 2.52 2.52 0 01.62-1 .53.53 0 01.4-.19.37.37 0 01.21 0 .81.81 0 01.41.84 3.88 3.88 0 01-.36 1zm-.17-2.51v.1h-.11c-.46 0-.91.32-1.31 1a2.55 2.55 0 01.21-2.17c.17-.25.35-.35.54-.31a1.13 1.13 0 01.7.89 1.46 1.46 0 010 .51zm-1.71-1.34l-.08-.21h.37l-.21.24zm-4.44 3.9a2.15 2.15 0 01-1.14-1.06 1.17 1.17 0 00.63-1.09.92.92 0 01.41.1 1.62 1.62 0 01.55.49l-.24.18a1.26 1.26 0 00-.23 1.41zm-1.15-2a.34.34 0 01.12-.06v.09a.59.59 0 01-.25.45.5.5 0 01.11-.46zm-.45-3.77a.37.37 0 010-.21 1 1 0 00.1-.36 7.59 7.59 0 00.77.35 2 2 0 00.41.08.28.28 0 01.24.1 1 1 0 01.18.23 1 1 0 01.09 1.09.67.67 0 01-.89.34.7.7 0 01-.23-.15c-.1-.1-.2-.2-.29-.31a.87.87 0 01-.1-.25 4.44 4.44 0 00-.3-.89zm-.46-.35a.23.23 0 01-.17.11.76.76 0 01-.49-.07 1.27 1.27 0 01-.36-.58 4.48 4.48 0 01-.11-1.09c.62.39 1.45 1 1.11 1.65zm0-1.5a2.09 2.09 0 00.93 0 1 1 0 00.51-.35s.08-.1.15-.09a1.21 1.21 0 011.11.78.53.53 0 01-.05.53 1 1 0 01-.74.34 2.44 2.44 0 01-1-.38l-.32-.21a2.09 2.09 0 01-.2-.22 1.68 1.68 0 00-.44-.4zm2.89 4.6a.64.64 0 01.45-.32.49.49 0 01.24 0 .89.89 0 01-.51.71 1.33 1.33 0 01-.32.12 1 1 0 01.07-.51zm.73.69a1.19 1.19 0 00.46-.62 2.07 2.07 0 01.32.67.81.81 0 010 .31 5 5 0 000 .77 2.09 2.09 0 00-1.11-.5.46.46 0 01-.19-.08l-.18-.27a1.81 1.81 0 00.65-.28zm1.11-1.5a.72.72 0 01.14-.26 1.64 1.64 0 00.4-.19 1.14 1.14 0 01.79.59 1.2 1.2 0 01.15.45.76.76 0 010 .3v.06a1 1 0 00-.75-.33.81.81 0 00-.45.11.66.66 0 00-.26.21.08.08 0 000-.07.68.68 0 01-.05-.23 2.3 2.3 0 010-.64zm-1.8.14a1.25 1.25 0 00-.65 1.16 2.73 2.73 0 01-1-1.08 1.2 1.2 0 001.31-.37l.05-.07.37.31zm-.24 2.68a.68.68 0 01.45-.13 1.26 1.26 0 01.69.19 1.87 1.87 0 01.62.63.36.36 0 01.06.25 2.6 2.6 0 00.14.87c.07.18.15.35.24.53a.58.58 0 01-.17-.06 5 5 0 00-1.07-.38h-.16a.47.47 0 01-.25-.11 2.45 2.45 0 01-.65-1.08c-.17-.32-.13-.58.05-.71zm.5 2.39a2.42 2.42 0 011 .21 1.18 1.18 0 00-.25.4A1.22 1.22 0 0032 42a3.29 3.29 0 00.6.21 10.74 10.74 0 01-1.39 0 2 2 0 01-1.5-.67 1 1 0 010-1 1 1 0 011-.54zM32 41.08a.42.42 0 01.09-.43.58.58 0 01.6-.12 1.32 1.32 0 01.6.41 5.33 5.33 0 01.59.82v.07h-.08c-.8 0-1.73-.14-1.8-.75zm.63-4.77c.06-.22.18-.35.36-.37a.66.66 0 01.58.36 2.59 2.59 0 01.3 1.06 1.38 1.38 0 00-.94 0 .93.93 0 00-.35.19 2.48 2.48 0 010-1.24zm-2.42-3.69a1 1 0 00.63-.73 1.71 1.71 0 000-.78 1.36 1.36 0 01.48.2.87.87 0 01.48.84.84.84 0 01-.33.62.86.86 0 01-.57.11 3 3 0 01-.74-.26zm.37-2.11a.34.34 0 01-.19-.05 2.09 2.09 0 00-1.05-.38V30a1 1 0 000-.35.13.13 0 010-.12l.21-.19a2.6 2.6 0 00.36-.46.5.5 0 01.19-.19 2.18 2.18 0 01.86-.18.91.91 0 01.58.15.78.78 0 01.3.74c-.11.6-.52.95-1.31 1.1zm-1.12-2a2.25 2.25 0 01-.5.57.14.14 0 01-.15 0A1.25 1.25 0 0028 29a2.59 2.59 0 00-.64.23 2.37 2.37 0 00.18-.82.48.48 0 01.07-.24 2.32 2.32 0 011.23-1c.29-.1.5-.07.63.08a1.23 1.23 0 01-.06 1.23zm-1.92 1.25a1.42 1.42 0 011-.23.39.39 0 01.24.26.57.57 0 01-.33.64 1.51 1.51 0 01-.79 0h-.07a2.79 2.79 0 01-.66-.17 2.55 2.55 0 01.56-.48zm-.61-.65a2.64 2.64 0 01-.53.81c-.56-1.47-.42-2-.29-2.15a.46.46 0 01.36-.14h.13a.43.43 0 01.37.22 1.68 1.68 0 01-.09 1.28zm-.83 5.7a.26.26 0 010 .21 1.93 1.93 0 01-.43.73c-.2.24-.4.33-.59.27a1 1 0 01-.2-.15 2 2 0 00-.13-1.74l-.06-.08a.64.64 0 01.16-.2l.2-.14a2.81 2.81 0 00.68-.82 3.35 3.35 0 00.32 2zm-2.74-3.59h.7a.85.85 0 01-.2.23 2.19 2.19 0 00-.23.21 1.21 1.21 0 00-.32-.42zm.11 2.2a2.34 2.34 0 00.26-1.18l.11-.1a1.54 1.54 0 00.05.17.86.86 0 00.5.52 1 1 0 00.79-.11 2.35 2.35 0 01-1 .9 1.64 1.64 0 00-.76-.18zm1.95-1.64a2.33 2.33 0 01-.43.46.4.4 0 01-.44.08.64.64 0 01-.11-.7c.2-.54.86-.71 1.47-.82a5.1 5.1 0 01-.54 1zm-1.52-2.35a.42.42 0 01.09-.43.58.58 0 01.6-.12 1.38 1.38 0 01.6.41 4.45 4.45 0 01.59.83v.06c-.78 0-1.78-.1-1.93-.73zm-2.77-.34v.06a2 2 0 01-.52-.24.89.89 0 01-.42-.85.92.92 0 01.36-.6.64.64 0 01.35-.1h.1a2.92 2.92 0 011 .64 1.93 1.93 0 00-.92 1.1zm-.6.89a1.28 1.28 0 01.47-.07.11.11 0 01.11.1 1.81 1.81 0 00.73.84h-.07a3.5 3.5 0 00-.82.46 1.47 1.47 0 00-.47-1.3zM22 31.43a.81.81 0 01.92.18 1.31 1.31 0 01.08 1.31 1.65 1.65 0 01-.3.53.82.82 0 01-.28.19 2.47 2.47 0 00-.42.17.14.14 0 01-.13-.09 2.15 2.15 0 00-.34-.54 1.48 1.48 0 00-1-.58v-.05A2.78 2.78 0 0122 31.43zm-.65 2.44c.65 1.13-.22 2.13-.94 2.81a1.87 1.87 0 00-.41-1.62 1.43 1.43 0 00-1.54-.39 2.64 2.64 0 011.81-1.43 1.21 1.21 0 011 .63zm-2.76 1.46c.46-.15.79-.11 1 .13a2 2 0 01-.07 1.89 3.27 3.27 0 01-.75.87.3.3 0 01-.29 0 1.66 1.66 0 00-1.1-.1 3.36 3.36 0 00-1.09.41 3.63 3.63 0 00.34-1.32v-.1a.74.74 0 01.11-.39 3.42 3.42 0 011.81-1.39zm-2 3.79a2 2 0 011.55-.34.64.64 0 01.4.42.89.89 0 01-.52 1 2.44 2.44 0 01-1.2 0h-.11c-.32-.07-.63-.17-.94-.26h-.08v-.06a3.69 3.69 0 01.87-.76zm-1.42 1.71c1 .55 2.2 1.42 1.69 2.49a.44.44 0 01-.29.2 1.16 1.16 0 01-.77-.13 1.83 1.83 0 01-.56-.88 5.6 5.6 0 01-.1-1.68zm1.37 0a3.29 3.29 0 001.59 0 1.31 1.31 0 00.71-.48.36.36 0 01.29-.16 1.85 1.85 0 011.68 1.19.87.87 0 01-.08.84 1.51 1.51 0 01-1.14.53 3.58 3.58 0 01-1.59-.5l-.46-.3a1.72 1.72 0 01-.32-.34 3.11 3.11 0 00-.71-.74zm4.89 1.4a2.4 2.4 0 000-1.13V41a2.21 2.21 0 01.83.32 1.39 1.39 0 01.74 1.33 1.48 1.48 0 01-.51 1 1.23 1.23 0 01-.9.17 4.07 4.07 0 01-1-.39l-.09-.06a1.39 1.39 0 00.9-1.1zm-.3-2a.53.53 0 01-.32-.08 2.79 2.79 0 00-1.52-.55c-.07 0-.1-.1-.1-.17a1.4 1.4 0 000-.5.21.21 0 010-.24l.3-.27a3.45 3.45 0 00.54-.67.62.62 0 01.3-.3 3.31 3.31 0 011.3-.28 1.46 1.46 0 01.89.24 1.19 1.19 0 01.46 1.14c-.07 1-.69 1.54-1.88 1.76zm1.66-3.39a2.39 2.39 0 00-1.26-.32h-.16l.12-.13a2.37 2.37 0 00.62-1.75.3.3 0 01.13-.26 3.31 3.31 0 011.1-.32.82.82 0 01.9.36 1.81 1.81 0 01-.31 1.77 2.73 2.73 0 01-.88.7.33.33 0 01-.29.08zm2.88-.5a1.71 1.71 0 00.68-.68 2.78 2.78 0 01.19 1.4.14.14 0 010 .09 1.4 1.4 0 00-.9-.73zm.95-1.78a2.86 2.86 0 01-.28-2.14v.07a1.43 1.43 0 00.67.59 1.14 1.14 0 00.52 0h.11c.27.68.32 1.17.15 1.43a.66.66 0 01-.56.25.81.81 0 01-.64-.12zm.79.8a1 1 0 00.83-.45 2.31 2.31 0 01.44 1.1 1.15 1.15 0 00-.46.3 1.11 1.11 0 00-.27.82 1.56 1.56 0 01-.63-.45 2.82 2.82 0 01-.37-1 1.6 1.6 0 010-.31 2.14 2.14 0 00.43.07zm1.13 3.19a1.38 1.38 0 00-.72.83 1.43 1.43 0 00-.08.37l-.22-.11A.91.91 0 0127 39a.74.74 0 01.19-.57.81.81 0 01.62-.22 1.16 1.16 0 01.61.38zm0 .53a.57.57 0 01.36-.07h.1a3 3 0 011 .55 1.92 1.92 0 00-.95 1.12v.06a2 2 0 01-.52-.23.89.89 0 01-.42-.85.94.94 0 01.34-.5zm0 2.47a1.41 1.41 0 01.49-.09.11.11 0 01.11.1 1.81 1.81 0 00.73.84 1.69 1.69 0 00-.71.64.21.21 0 01-.13.11 2.06 2.06 0 01-.84-.22c-.28-.13-.41-.3-.41-.52a1.21 1.21 0 01.76-.78zM29.87 43a1.35 1.35 0 01.65-.28.62.62 0 01.27 0 4.52 4.52 0 001.27.06.9.9 0 01-.21.23 5.73 5.73 0 00-.74.66 2 2 0 00-.3.46.29.29 0 01-.14.15 1 1 0 01-.89-.1.61.61 0 01-.27-.44 1 1 0 01.36-.66zm1.43 1.3a2 2 0 01.55-.61 1.54 1.54 0 000 .17.86.86 0 00.5.52 1 1 0 00.79-.11 2.34 2.34 0 01-1.36 1 .45.45 0 01-.5-.12.94.94 0 010-.77zm1.7-.41a.4.4 0 01-.44.08.69.69 0 01-.12-.71c.21-.53.87-.7 1.48-.81a5.78 5.78 0 01-.49 1 2.23 2.23 0 01-.43.44zm.5-4.26a2.6 2.6 0 000 1l-.14-.14-.22-.23c-.52-.75-1-1.76-.23-2.3a.84.84 0 01.46-.19h.15c.24.09.45.42.6 1a.11.11 0 01-.08.11 1.12 1.12 0 00-.55.75zm.62-.21a.43.43 0 01.36-.14h.13a.4.4 0 01.36.22 1.6 1.6 0 010 1.25 2.6 2.6 0 01-.52.81c-.56-1.46-.45-2-.29-2.14zm1.6 4.74a.34.34 0 01-.17.11.76.76 0 01-.55-.07 1.27 1.27 0 01-.36-.58 4.48 4.48 0 01-.11-1.09c.68.37 1.5.94 1.17 1.63zm-.07-1.52a2.09 2.09 0 00.93 0 .9.9 0 00.5-.35s.09-.1.16-.09a1.2 1.2 0 011.1.78.51.51 0 010 .53 1 1 0 01-.74.34 3.46 3.46 0 01-1.33-.59A2.09 2.09 0 0136 43a1.8 1.8 0 00-.38-.4zm3.19.87a2 2 0 000-.77 1.68 1.68 0 01.48.2.84.84 0 01.48.84.91.91 0 01-.33.62.87.87 0 01-.57.11 3.52 3.52 0 01-.68-.26 1 1 0 00.66-.74zm.71 1.43a1.32 1.32 0 00.66-.79.36.36 0 01.18.07 1.71 1.71 0 01.45.44.54.54 0 01.11.64 1.18 1.18 0 01-1 .42 2.49 2.49 0 01-.95-.42c-.13-.09-.26-.2-.38-.3a1.33 1.33 0 001-.06zm1.93-3.19a1.41 1.41 0 00.87-1.5 1.14 1.14 0 00-1.24-.86 1.4 1.4 0 000-1.4 1 1 0 00-.86-.49 2 2 0 00.13-.39c1.41.22 2.8.45 4 .67 2.35.44 6 2.22 8.2 3.39a20 20 0 00-4.69.37A45.47 45.47 0 0042 43.25a1.09 1.09 0 00-.56-1.5zm-10.2-8.18a1.91 1.91 0 00-.54 0c-.07-.06-.15-.11-.22-.18a1.45 1.45 0 00.92 0 1.34 1.34 0 00.66-.8.4.4 0 01.19.07 1.84 1.84 0 01.44.44.56.56 0 01.12.59 9.17 9.17 0 01-1.57-.12zm2.26-2.31a1.16 1.16 0 01-.88.69 1.41 1.41 0 01-.41 0 .21.21 0 01-.06-.1 1.46 1.46 0 00-.9-1.07 1.81 1.81 0 00.52-.43.21.21 0 01.15-.11 1.94 1.94 0 011.29.43c.24.19.34.39.29.59zm-.67-3a1.89 1.89 0 01.53.08c.25.08.38.21.4.4a1 1 0 01-.52.87 1.81 1.81 0 01-.57.18 1.13 1.13 0 01-.26 0l-.33-.06a1.42 1.42 0 000-.58.82.82 0 00-.12-.35v-.07l.22-.13.27-.22a.33.33 0 01.17-.1zm-.28-1.63a1.23 1.23 0 01-.21 1.15 2.18 2.18 0 01-.58.46.17.17 0 01-.17 0 1.57 1.57 0 00-.85-.22 1.59 1.59 0 00.43-1.22.14.14 0 01.07-.13 1.61 1.61 0 01.73-.21.51.51 0 01.58.15zm-1.5-2a.5.5 0 01.57.11.84.84 0 01.08.85 1.08 1.08 0 01-.2.34.43.43 0 01-.17.12l-.28.12v-.05a1.31 1.31 0 00-.24-.37 1 1 0 00-.64-.39 1.81 1.81 0 01.88-.78zm-.49 1.64c.41.64 0 1.28-.51 1.77a1.29 1.29 0 00-.32-1 1 1 0 00-1-.29 1.68 1.68 0 011.18-1 .78.78 0 01.65.43zM28.44 24c.11-.17.42-.55.83-.46a.76.76 0 01.56.35.71.71 0 01.07.59 2.52 2.52 0 01-.32.76.61.61 0 01-.17.14 1.59 1.59 0 00-.61.42 1 1 0 00-.14.15 1.46 1.46 0 00-.43-1.1s-.09-.1-.07-.15a2.39 2.39 0 01.28-.7zm-.31 2a3.56 3.56 0 01-.24 1 .48.48 0 01-.17.23 2.28 2.28 0 00-.4.42 1.23 1.23 0 00-.52-.44s-.13-.06-.14-.12a2.12 2.12 0 00-.11-.45.61.61 0 010-.27 2.49 2.49 0 01.62-1.05.53.53 0 01.4-.19.37.37 0 01.21 0 .81.81 0 01.35.87zm-1.65-2.68c.17-.24.35-.35.55-.31a1.14 1.14 0 01.69.89 1.69 1.69 0 010 .55v.1s0 .05-.11 0c-.46 0-.91.33-1.31 1a2.52 2.52 0 01.18-2.22zm-.42 3.76a.11.11 0 01-.08.11 1.13 1.13 0 00-.59.8 2.41 2.41 0 000 1l-.14-.14-.25-.22c-.52-.75-1-1.76-.22-2.3a.81.81 0 01.46-.19.33.33 0 01.14 0 1.16 1.16 0 01.65 1zm-1.25-1.35a.8.8 0 00-.35.19 2.45 2.45 0 010-1.26c.06-.22.18-.35.36-.37h.07a.66.66 0 01.58.36 2.59 2.59 0 01.3 1.06 1.44 1.44 0 00-1 0zm-.64-2.58c.09-.29.23-.44.44-.46a1.1 1.1 0 01.89.6 1.2 1.2 0 01.15.45.76.76 0 010 .3v.06a1 1 0 00-.75-.33.81.81 0 00-.45.11.66.66 0 00-.26.21V24a1 1 0 01-.06-.23 2.6 2.6 0 010-.63zm-1.84.85a.66.66 0 01.45-.32h.07a.79.79 0 01.56.23 1.65 1.65 0 01.43.84.81.81 0 010 .31 5 5 0 000 .77 2.09 2.09 0 00-1.11-.5.33.33 0 01-.18-.08 1.68 1.68 0 01-.3-.52 1.08 1.08 0 01.08-.73zm-.2 2a.68.68 0 01.45-.13 1.26 1.26 0 01.69.19 2.07 2.07 0 01.62.63.28.28 0 01.11.31 2.6 2.6 0 00.14.87c.07.18.15.35.24.53a.58.58 0 01-.17-.06 5 5 0 00-1.07-.37h-.16a.44.44 0 01-.24-.11 2.42 2.42 0 01-.74-1.13.6.6 0 01.13-.73zm-1.71-1a1 1 0 011 0 1.62 1.62 0 01.55.49l-.24.18a1.26 1.26 0 00-.16 1.33 2.11 2.11 0 01-1.26-1.36.56.56 0 01.11-.64zm-1.33 1.92a.78.78 0 01.57-.22h.05a1.19 1.19 0 01.65.28 1.38 1.38 0 00-.72.83 2 2 0 00-.08.37l-.22-.11a.91.91 0 01-.43-.6.74.74 0 01.18-.54zm-.81 2.55a.74.74 0 01.59-.56 2.49 2.49 0 01.77 0 .25.25 0 01.17.11 2.11 2.11 0 00.5.44 1.41 1.41 0 00-.37.18 2 2 0 00-.32-.17 1.58 1.58 0 00-1.34.07.11.11 0 010-.06zM18 30.64c.18-.26.66-.85 1.3-.71a1.12 1.12 0 011.05 1.2.8.8 0 01-.05.26 3.82 3.82 0 01-.49 1.14.58.58 0 01-.28.23 2.79 2.79 0 00-.88.61l-.31.34a2.26 2.26 0 00-.62-1.7.39.39 0 01-.13-.28 3.19 3.19 0 01.41-1.09zm-.35 3a5.61 5.61 0 01-.39 1.36.68.68 0 01-.27.36l-.06.05a3.78 3.78 0 00-.6.6 1.68 1.68 0 00-.74-.63.29.29 0 01-.24-.22 3.53 3.53 0 00-.16-.66.79.79 0 010-.43 3.83 3.83 0 01.93-1.58.86.86 0 01.64-.3.62.62 0 01.33.07 1.24 1.24 0 01.57 1.34zm-2.54-4c.26-.39.55-.56.87-.49A1.73 1.73 0 0117 30.52a2.31 2.31 0 010 .83v.11a.19.19 0 01-.2.12v.12-.13c-.87 0-1.55.85-1.94 1.59a3.85 3.85 0 01.21-3.54zm-.52 5.58a.25.25 0 01-.15.22 1.63 1.63 0 00-.83 1.14 3.81 3.81 0 00.12 1.64 2 2 0 00-.34-.37c-.11-.11-.22-.23-.32-.35-.78-1.13-1.48-2.65-.32-3.49a1.22 1.22 0 01.72-.28.41.41 0 01.22 0c.37.14.69.64.91 1.47zm-.49-2a2.07 2.07 0 00-1.39 0 1.59 1.59 0 00-.49.24.09.09 0 01-.1 0 3.57 3.57 0 010-1.89.71.71 0 01.58-.6h.12a1.13 1.13 0 01.91.55 4 4 0 01.44 1.64v.07c0 .07 0 0-.07 0zm-2.42-3.87c.14-.44.38-.69.7-.72a1.69 1.69 0 011.39.93 2.26 2.26 0 01.22.68 1.19 1.19 0 010 .46v.21a1.52 1.52 0 00-1.14-.56 1.22 1.22 0 00-.64.16 1.3 1.3 0 00-.43.38l-.09-.2a1.19 1.19 0 01-.09-.36 3.82 3.82 0 01.09-1zM9 30.57a1 1 0 01.71-.49h.12a1.31 1.31 0 01.86.36 2.59 2.59 0 01.65 1.26 1.29 1.29 0 010 .48 7.1 7.1 0 000 1.13v.19a2.9 2.9 0 00-1.72-.84.56.56 0 01-.32-.15 2.44 2.44 0 01-.45-.78A1.56 1.56 0 019 30.57zm-.29 3a1.12 1.12 0 01.72-.2 1.93 1.93 0 011 .28 3.13 3.13 0 011 .95.59.59 0 01.1.41 3.41 3.41 0 00.21 1.26c.12.3.25.6.4.89a1.9 1.9 0 01-.44-.16 7.93 7.93 0 00-1.57-.56h-.32a.81.81 0 01-.39-.17 3.64 3.64 0 01-1-1.63c-.12-.55-.05-.91.22-1.12zm-2.6-1.48A1.66 1.66 0 017.74 32a2.67 2.67 0 01.82.71.07.07 0 010 .09 2.11 2.11 0 00-.35.26A1.8 1.8 0 008 35.23a3.25 3.25 0 01-2-2.12.91.91 0 01.11-1.02zm-2.26 3.72a1.12 1.12 0 01.3-.88 1.25 1.25 0 011-.35 2.14 2.14 0 011.1.5 1.84 1.84 0 00-1.14 1.24 2.19 2.19 0 00-.12.52.17.17 0 010 .1 3.39 3.39 0 01-.39-.18 1.41 1.41 0 01-.75-.95zm-.55 3.85a.87.87 0 01-.3-.93 1.16 1.16 0 01.92-.87 3.82 3.82 0 011.17 0 .4.4 0 01.28.19 2.43 2.43 0 00.84.69A2.46 2.46 0 004.56 40a.15.15 0 01-.15.11 3.27 3.27 0 01-1.11-.45zm1.57 4a.35.35 0 01-.24.18 1.28 1.28 0 01-.95-.17 1.27 1.27 0 01-.5-1 1.48 1.48 0 01.3-1 2 2 0 01.91-.6.22.22 0 01.09.12 2.34 2.34 0 001.82 1.32 4.23 4.23 0 00-.74.42 2.51 2.51 0 00-.69.76zM6 45.34a.75.75 0 01-.7-.33 1.17 1.17 0 01.25-1.27 4.09 4.09 0 011.3-.74s.1 0 .1.07a.17.17 0 010 .1 2.2 2.2 0 001.2 1.12v.07a2.88 2.88 0 01-2.18 1zm2.59 2.76a1.7 1.7 0 01-.44.35 1.3 1.3 0 01-1 .1 1 1 0 01-.59-.55 1.37 1.37 0 01.08-1.07 2.53 2.53 0 011-1 2 2 0 00.54 1.83 1.78 1.78 0 00.36.25s.06.1.05.11zm0-.73a1.9 1.9 0 01-.11-1.82 3.25 3.25 0 01.84-1 1.49 1.49 0 00.68 1.12 1.61 1.61 0 001.48.06 3.35 3.35 0 01-1.9 1.77.92.92 0 01-1-.1zm2.57 2.94a1.25 1.25 0 01-1.11-.31 1.58 1.58 0 01-.54-1.75.25.25 0 01.2-.17 4.12 4.12 0 001.41-.85l.22-.22a2.42 2.42 0 00.79 1.66c.07.06.14.15.11.24a2 2 0 01-1.07 1.4zm.84-3.45a3.61 3.61 0 01.31-1.46.7.7 0 01.26-.32l.29-.22A4.34 4.34 0 0014 43.43a5 5 0 00.44 3.15.4.4 0 01.06.37 3.33 3.33 0 01-.65 1.1c-.31.37-.63.51-.93.4a1.85 1.85 0 01-.9-1.56zM15.14 50a1.49 1.49 0 01-.74 1.11 1 1 0 01-.83 0 1.34 1.34 0 01-.61-.89 2.11 2.11 0 01.07-1 .2.2 0 01.19-.14 2.09 2.09 0 001.58-1.29 4.62 4.62 0 01.35 2.24zm0-3.67c-.5-.55-.63-1.7-.4-3.42 0 .1.09.2.14.3a2 2 0 001 .83 1.58 1.58 0 00.75 0c.08 0 .19 0 .22.09.42 1 .49 1.75.23 2.16a1 1 0 01-.88.4 1.25 1.25 0 01-1-.33zm3.21 3c-.06.47-.26.75-.57.83a1.78 1.78 0 01-1.56-.74 4.24 4.24 0 01-.54-1.42 1.19 1.19 0 00-.06-.45v-.07h.05a3.75 3.75 0 00.67 0 1.49 1.49 0 001.18-.65.12.12 0 01.1-.06 3.33 3.33 0 01.75 2.61zm.11-3.33a4.78 4.78 0 01-.44-.46 1.32 1.32 0 01-.17-.41 6.58 6.58 0 00-.43-1.32.47.47 0 010-.37 1.25 1.25 0 00.13-.53.06.06 0 01.05-.06 6.56 6.56 0 001.17.55 2.36 2.36 0 00.59.11.5.5 0 01.4.16A2.33 2.33 0 0120 44a1.46 1.46 0 01.14 1.69 1.25 1.25 0 01-.8.6 1.22 1.22 0 01-.88-.29zm2.9 2.53a1.39 1.39 0 01-1.11.17 3.48 3.48 0 01-1.72-1.82v-.06a1.64 1.64 0 002-.47 1.75 1.75 0 00.46-.77v-.06H21a2.42 2.42 0 011.11 1.88 1.39 1.39 0 01-.79 1.1zm3.26-3.6a1.74 1.74 0 01-1.57.65 3.76 3.76 0 01-1.42-.58c-.2-.15-.4-.3-.59-.47l-.11-.15a2 2 0 001.5 0 2 2 0 00.95-1.14.09.09 0 01.1-.08.46.46 0 01.3.11 2.63 2.63 0 01.67.66.87.87 0 01.17 1zm1-3.53a1.76 1.76 0 01-1.35 1.06 2.15 2.15 0 01-.62 0c-.07 0-.12-.11-.14-.2a2.14 2.14 0 00-1.42-1.59A2.38 2.38 0 0023 40a.36.36 0 01.27-.18 2.87 2.87 0 012 .64.87.87 0 01.44.91zm.51-.85a.13.13 0 01-.05.1 2.09 2.09 0 00-.88-1 2.2 2.2 0 001.35-1.61 1.31 1.31 0 00.42-.88 1.58 1.58 0 001.03.54l.06.17a1.3 1.3 0 00-.91.07 1 1 0 00-.53.6A1.29 1.29 0 0027 40a1.45 1.45 0 00-.83.52zm.49 1.17a.55.55 0 01-.23-.58.74.74 0 01.59-.56 2.49 2.49 0 01.77 0 .25.25 0 01.17.11 1.74 1.74 0 00.5.44 1.63 1.63 0 00-1 .87s0 .06-.05 0a2.3 2.3 0 01-.76-.31zm1 2.74a.21.21 0 01-.13.11.87.87 0 01-.61-.11.81.81 0 01-.32-.64 1 1 0 01.19-.62 1.36 1.36 0 01.59-.39.06.06 0 010 .06 1.49 1.49 0 001.13.83 1.92 1.92 0 00-.86.73zm.82 1.12a.48.48 0 01-.42-.21.76.76 0 01.16-.81A2.38 2.38 0 0129 44v.13a1.36 1.36 0 00.79.75 1.88 1.88 0 01-1.39.64zm1.42 2.11a.91.91 0 01-.61.06.7.7 0 01-.41-.36 1 1 0 01.05-.69 1.54 1.54 0 01.61-.58 1.39 1.39 0 00.39 1.19l.24.16a2 2 0 01-.28.19zm.35-.73a1.24 1.24 0 01-.06-1.18 2 2 0 01.49-.64 1 1 0 00.45.71 1 1 0 00.94.08 2.18 2.18 0 01-1.2 1.07.56.56 0 01-.63-.07zm1.7 2a.86.86 0 01-.72-.19 1 1 0 01-.34-1.13s.06-.09.1-.09A3.12 3.12 0 0032 47l.09-.09a1.61 1.61 0 00.49 1.09.11.11 0 01.06.12 1.28 1.28 0 01-.69.85zm.62-2.3a2.79 2.79 0 01.21-1 .64.64 0 01.16-.2l.2-.14a2.81 2.81 0 00.68-.82 3.24 3.24 0 00.33 2 .26.26 0 010 .21 2.27 2.27 0 01-.43.73c-.2.24-.4.33-.59.26a1.23 1.23 0 01-.57-1.09zm1.56 2.87a.59.59 0 01-.52 0 .93.93 0 01-.4-.57 1.61 1.61 0 010-.69.1.1 0 01.1-.06 1.44 1.44 0 001.06-.8 2.78 2.78 0 01.19 1.4 1 1 0 01-.44.67zm.56-3.22a2.86 2.86 0 01-.28-2.14v.07a1.54 1.54 0 00.67.59 1.19 1.19 0 00.53 0h.1c.28.68.33 1.17.16 1.43a.66.66 0 01-.56.25.84.84 0 01-.63-.25zm2.1 2a.5.5 0 01-.36.53 1.2 1.2 0 01-1-.49 3 3 0 01-.37-1A2.41 2.41 0 0135 47a1.77 1.77 0 00.46 0 1 1 0 00.83-.46 2.19 2.19 0 01.5 1.76zm.11-2.31c-.1-.1-.2-.2-.29-.31a.87.87 0 01-.1-.25 4.62 4.62 0 00-.3-.91.37.37 0 010-.21 1.19 1.19 0 00.09-.36 4.54 4.54 0 00.78.35 2 2 0 00.41.08.31.31 0 01.24.1 1 1 0 01.18.23 1 1 0 01.13 1.07.78.78 0 01-.51.39.83.83 0 01-.63-.18zm1.92 1.71a1 1 0 01-.72.11c-.52-.15-.9-.76-1.11-1.15a1.19 1.19 0 001.31-.38 1.29 1.29 0 00.32-.52 1.59 1.59 0 01.71 1.23.89.89 0 01-.51.68zM58.49 45a26.8 26.8 0 00-7.37-.5c-4 .55-7.49.94-9.83 1.09 0-.05.08-.09.11-.15a1 1 0 000-.9 44.34 44.34 0 016.63-2 25.45 25.45 0 0110.81.56 3.46 3.46 0 01.15 1.5 2 2 0 01-.12.49zm10-2.68a10.27 10.27 0 01.33 1.74 1.78 1.78 0 01-.82 1.45c-1.06.53-4.14 1.36-5.51.9A2.68 2.68 0 0062 46c-.16-.18-.64-.75-.5-1s.3-.68.47-1.09a13.34 13.34 0 012.94-3.53l.76-.52c1.58-1.09 2.83-2 3.52-2h.14c-.09.12-.2.24-.3.35a6.71 6.71 0 00-.65.84c-.38.63-.18 1.68.2 3.33zm1 3a3.08 3.08 0 00.36-1.28 12.85 12.85 0 00-.35-1.95 7.19 7.19 0 01-.33-2.6 7.33 7.33 0 01.54-.68 3 3 0 00.78-1.17 1 1 0 00-.23-.94.27.27 0 00-.08-.07 6.11 6.11 0 012.27-3.08l.09-.08a.24.24 0 000-.35.24.24 0 00-.34 0l-.09.08a6.75 6.75 0 00-2.39 3.22 3.73 3.73 0 00-1-.23 18 18 0 01.79-2.42c.91-2.24 4.44-2.34 7.25-2a9.05 9.05 0 003.28-.3 5.82 5.82 0 01-1.59.58 7 7 0 00-5.07 4.13c-.39.81-.92 2.24-1.49 3.75A31.46 31.46 0 0170 44.74a.47.47 0 00-.14.44zm17.19 1.83c-.72-.14-1.93-.44-3-.71-1.65-.4-3.51-.86-5.07-1.16a11.09 11.09 0 00-2.23-.21 20.67 20.67 0 00-2.6.19q-1.25.15-2.52.18c.63-.39 1.42-.86 2.2-1.32h.11l1.24-.07c1.93-.11 4.58-.28 6.14.33H81a.26.26 0 00.25-.26.25.25 0 00-.16-.22c-1.66-.64-4.37-.48-6.35-.36h-.44c.53-.3 1-.59 1.45-.81 1.27-.68 2.44-.49 4-.22.6.1 1.29.21 2 .28 2 .28 4.2 3.13 4.94 4.37zm-.55-4.62c-.68.22-1.26.41-1.46.45a.59.59 0 00-.2.09A5 5 0 0082 41.9a7.81 7.81 0 01-1.23-.15c.34-.16.7-.33 1.1-.49v-.61a37 37 0 014.33-.37h.8a1.42 1.42 0 00.87 1.46 1.52 1.52 0 00-.43.41zm1.46.34c0-.2 0-.4.29-.59a1.87 1.87 0 011.29-.43.19.19 0 01.15.11 1.63 1.63 0 00.52.42 1.54 1.54 0 00-.9 1.08.14.14 0 01-.06.1h-.41a1.21 1.21 0 01-.87-.68zm1.69 2.8a1.16 1.16 0 01-1-.42.56.56 0 01.11-.64 2.29 2.29 0 01.44-.44.34.34 0 01.18-.07 1.2 1.2 0 001.45.86h.13a3 3 0 01-.38.3 2.57 2.57 0 01-.92.46zm1.89 2.11a1 1 0 01-.72-.11A1 1 0 0190 47a1.64 1.64 0 01.72-1.23 1.29 1.29 0 00.32.52 1.19 1.19 0 001.31.38c-.22.33-.6 1-1.12 1.12zm.59-1.62a.81.81 0 01-.51-.39 1 1 0 01.09-1.09 2.31 2.31 0 01.18-.23.29.29 0 01.24-.1 2.7 2.7 0 00.41-.08 4.64 4.64 0 00.78-.36 1.23 1.23 0 00.08.37.2.2 0 010 .21 6.47 6.47 0 00-.3.91.66.66 0 01-.1.25 1.74 1.74 0 01-.3.31.75.75 0 01-.56.21zm2.47 1.17a2.64 2.64 0 01-.37 1 1.15 1.15 0 01-1 .49c-.2 0-.32-.23-.36-.53a2.29 2.29 0 01.5-1.69 1 1 0 00.83.46h.47a.72.72 0 010 .29zm-.23-.82a.67.67 0 01-.56-.25c-.17-.26-.12-.75.15-1.43h.11a1.14 1.14 0 00.52 0 1.34 1.34 0 00.67-.59.08.08 0 000-.07 2.86 2.86 0 01-.28 2.14.78.78 0 01-.61.2zm2.13 2.41a.92.92 0 01-.4.57.62.62 0 01-.53 0 1 1 0 01-.48-.72 3.16 3.16 0 01.2-1.4 1.45 1.45 0 001.06.8.08.08 0 01.1.07 1.42 1.42 0 010 .68zm0-1.26c-.19.07-.39 0-.59-.26a2.07 2.07 0 01-.43-.73.26.26 0 010-.21 3.17 3.17 0 00.33-2 3.17 3.17 0 00.68.82l.2.14a.45.45 0 01.16.2 2.42 2.42 0 01.21 1 1.23 1.23 0 01-.56 1.04zm1.93 1.07a.79.79 0 01-.72.19 1.34 1.34 0 01-.71-.9.15.15 0 01.07-.12 1.61 1.61 0 00.54-1.06l.09.09a3 3 0 001 .58.11.11 0 01.1.09 1 1 0 01-.37 1.13zm.35-1.73a2.23 2.23 0 01-1.19-1.09 1 1 0 00.94-.08.94.94 0 00.44-.73 1.93 1.93 0 01.5.66A1.19 1.19 0 0199 47a.54.54 0 01-.59 0zm2 .37a.64.64 0 01-.41.36.92.92 0 01-.61-.06l-.28-.21a1.56 1.56 0 00.25-.17 1.26 1.26 0 00.37-1.2 1.63 1.63 0 01.63.59.85.85 0 010 .68zm.84-2a.47.47 0 01-.44.21 1.9 1.9 0 01-1.42-.65 1.45 1.45 0 00.77-.77.08.08 0 000-.07V44a2.26 2.26 0 01.86.53.72.72 0 01.23.78zm1.25-2.17a1 1 0 01.19.62.79.79 0 01-.32.64.87.87 0 01-.61.11.28.28 0 01-.13-.11 1.59 1.59 0 00-.48-.52 1.69 1.69 0 00-.41-.24 1.46 1.46 0 001.13-.83v-.06a1.29 1.29 0 01.63.36zm.13-1.48a2.13 2.13 0 01-.74.32 1.58 1.58 0 00-1-.87 1.78 1.78 0 00.5-.44.25.25 0 01.16-.11 2.55 2.55 0 01.78 0 .71.71 0 01.59.56.53.53 0 01-.29.51zm.54-1.07v-.1a1.37 1.37 0 00-.85-.51 1.26 1.26 0 00.32-1.47.93.93 0 00-.53-.6 1.29 1.29 0 00-.91-.07.21.21 0 01.07-.19 1.51 1.51 0 001.06-.51 1.27 1.27 0 00.42.87 2.26 2.26 0 001.34 1.63 2 2 0 00-.92.92zm.46.75a.89.89 0 01.44-.94 2.88 2.88 0 011.88-.64h.05a.33.33 0 01.27.18 2.37 2.37 0 00.87.67 2.21 2.21 0 00-1.43 1.59c0 .09-.06.19-.13.2a2.15 2.15 0 01-.62 0 1.77 1.77 0 01-1.35-1.09zm2.56 4.18a1.78 1.78 0 01-1.58-.65.9.9 0 01.18-1 3 3 0 01.67-.66.51.51 0 01.31-.11s.07 0 .09.09a2 2 0 001 1.14 2 2 0 001.5 0 .53.53 0 01-.12.15 3.84 3.84 0 01-.58.47 3.63 3.63 0 01-1.47.54zm4.52 1.3a3.49 3.49 0 01-1.71 1.8 1.4 1.4 0 01-1.11-.17 1.44 1.44 0 01-.79-1.1 2.5 2.5 0 011.08-1.87v.06a2.11 2.11 0 00.47.77 1.64 1.64 0 002 .47zm-.87-.57a1.25 1.25 0 01-.8-.6 1.49 1.49 0 01.14-1.69 1.91 1.91 0 01.27-.35.51.51 0 01.4-.16 3.84 3.84 0 00.59-.11 6.79 6.79 0 001.19-.55 1.71 1.71 0 00.13.54.47.47 0 010 .37 8.18 8.18 0 00-.44 1.32 1 1 0 01-.16.41 3.17 3.17 0 01-.44.46 1.22 1.22 0 01-.88.33zm3.72 1.69a4 4 0 01-.56 1.51 1.76 1.76 0 01-1.56.74c-.31-.08-.51-.36-.57-.83a3.4 3.4 0 01.72-2.61.08.08 0 01.08.06 1.55 1.55 0 001.19.65 3.75 3.75 0 00.67 0 .08.08 0 010 .07c.07.09.05.23.03.41zm-.49-1.19a1 1 0 01-.88-.4c-.27-.41-.19-1.14.23-2.16 0-.09.14-.1.22-.09a1.58 1.58 0 00.75 0 2 2 0 001-.83 1.35 1.35 0 00.14-.3c.23 1.72.09 2.87-.4 3.42a1.2 1.2 0 01-1.06.32zm3.2 3.51a1.33 1.33 0 01-.61.89 1 1 0 01-.83 0 1.55 1.55 0 01-.75-1.11 4.94 4.94 0 01.34-2.22 2.14 2.14 0 001.58 1.27.19.19 0 01.2.14 1.88 1.88 0 01.07 1zm0-1.81c-.3.11-.62 0-.94-.4a3.91 3.91 0 01-.64-1.1.47.47 0 010-.37 4.94 4.94 0 00.45-3.16 4.28 4.28 0 001.13 1.44l.29.22a.59.59 0 01.26.32 3.45 3.45 0 01.31 1.46 1.83 1.83 0 01-.82 1.55zm2.91 1.49a1.24 1.24 0 01-1.11.29A2.08 2.08 0 01117 49a.23.23 0 01.12-.24 2.38 2.38 0 00.79-1.66l.22.22a4.32 4.32 0 001.41.85.21.21 0 01.19.17 1.51 1.51 0 01-.55 1.66zm.46-2.55a3.33 3.33 0 01-1.84-1.77 1.59 1.59 0 001.47-.06 1.38 1.38 0 00.62-1.15 3.27 3.27 0 01.86 1.06 1.83 1.83 0 01-.12 1.82.88.88 0 01-1 .14zm3 .52a1 1 0 01-.63.56 1.25 1.25 0 01-1-.1 2.27 2.27 0 01-.45-.37 1.36 1.36 0 00.36-.25 2 2 0 00.55-1.82 2.35 2.35 0 011 1 1.28 1.28 0 01.2 1.06zM124 45a.74.74 0 01-.7.34 2.91 2.91 0 01-2.18-1l-.09.08.09-.1v-.06a2.09 2.09 0 001.13-1.13v-.08c0-.08.1-.14.14-.12a3.79 3.79 0 011.28.8A1.13 1.13 0 01124 45zm1.84-3.27a1.34 1.34 0 01.29 1 1.21 1.21 0 01-.49 1 1.29 1.29 0 01-1 .17.4.4 0 01-.24-.18 2.16 2.16 0 00-.69-.75 3.66 3.66 0 00-.74-.43 2.31 2.31 0 001.79-1.23.23.23 0 01.09-.12 1.92 1.92 0 011 .56zm.18-2.1a3 3 0 01-1.11.47.16.16 0 01-.15-.11 2.4 2.4 0 00-1.58-1.3A2.4 2.4 0 00124 38a.45.45 0 01.28-.19 3.82 3.82 0 011.17 0 1.13 1.13 0 01.92.87.86.86 0 01-.37 1z" data-name="Text top"/></g></g></g></svg>