<svg fill="currentColor" viewBox="0 0 181 80"><path d="M136.143 71.9063l-15.69-.27c-.067-.0058-.134.0028-.197.0251s-.121.0578-.169.1042c-.049.0464-.086.1026-.111.1648-.025.0622-.036.129-.033.1959-.001.0656.01.1309.034.1921.024.0612.06.117.105.1644.046.0473.1.0853.16.1116.06.0263.125.0406.191.0419l15.69.3c.131 0 .256-.0513.35-.1429.093-.0916.147-.2163.15-.3471.005-.1347-.041-.2663-.131-.367-.09-.1007-.215-.1628-.349-.173zm-75.2503-.0001l-15.69-.27c-.1301.0025-.2544.0546-.3473.1457-.093.0911-.1476.2143-.1527.3443-.0027.131.0461.2577.1358.3531.0898.0954.2134.1517.3442.1569l15.69.3c.1309.0001.2566-.0512.3501-.1429.0935-.0916.1473-.2162.1499-.3471.0056-.1346-.0413-.2662-.1309-.3669-.0895-.1008-.2147-.1628-.3491-.1731zm54.8003-2.3899c-.131.0023-.257.054-.351.1449-.095.0909-.152.2141-.159.3451-.078 1.2246-.599 2.3792-1.465 3.2478-.867.8687-2.021 1.392-3.245 1.4722h-.18c-1.19-.0347-2.33-.4879-3.219-1.2799-.889-.7919-1.47-1.872-1.641-3.0501-.005-.0332-.005-.0669 0-.1-.015-.1311-.081-.2509-.184-.3333-.103-.0824-.235-.1208-.366-.1067-.131.0126-.252.0764-.336.1775-.084.1011-.125.2313-.114.3625v.1c.044.5768-.038 1.1563-.24 1.6984-.202.5421-.52 1.0339-.93 1.4416-.393.434-.876.7777-1.414 1.0073-.539.2296-1.121.3397-1.706.3227-.5874-.0538-1.1555-.2368-1.6638-.5359-.5082-.2991-.9441-.7069-1.2763-1.1941-.3739-.5035-.6395-1.0789-.78-1.69.105-.5988.105-1.2113 0-1.81-.0186-.115-.0767-.2198-.1643-.2965-.0877-.0767-.1993-.1204-.3157-.1235-.116-.0048-.23.0317-.3216.1032-.0916.0714-.1548.173-.1784.2868-.1202.6074-.1202 1.2325 0 1.84-.1889.8513-.5876 1.642-1.16 2.3-.4435.5574-1.0036 1.011-1.6411 1.3288-.6375.3179-1.3368.4924-2.0489.5112-.7122-.0202-1.4116-.1942-2.0503-.5101-.6387-.3158-1.2014-.7661-1.6497-1.3199-.4539-.5137-.7973-1.1152-1.0088-1.7672-.2116-.652-.2869-1.3405-.2212-2.0228v-.18c.0172-.1298-.0171-.2611-.0957-.3658-.0785-.1047-.1949-.1744-.3243-.1942-.1271-.0173-.2559.016-.3587.0927-.1028.0766-.1715.1905-.1913.3173v.18c-.2307 1.1673-.8511 2.2217-1.7595 2.9902-.9085.7685-2.0511 1.2057-3.2405 1.2398-1.0741-.0381-2.1113-.4019-2.974-1.043-.8626-.6412-1.5099-1.5295-1.856-2.547-.031-.3004-.0981-.5958-.2-.88-.0305-.1327-.1124-.2477-.2278-.3199-.1153-.0722-.2546-.0956-.3872-.0651s-.2477.1124-.3199.2277c-.0722.1154-.0956.2546-.0651.3873.0383.2916.1019.5793.19.86.0678.9284-.1904 1.8514-.73 2.61-.3199.4983-.7509.9157-1.2593 1.2193-.5084.3037-1.0803.4853-1.6707.5307-.5891.005-1.1713-.127-1.7006-.3856-.5293-.2585-.9913-.6367-1.3494-1.1044-.3833-.4506-.6562-.9845-.7968-1.5592-.1406-.5746-.1452-1.1741-.0132-1.7508.0171-.0657.021-.1341.0117-.2013-.0094-.0672-.0319-.1319-.0662-.1904-.0344-.0585-.0799-.1096-.134-.1505-.0542-.0409-.1158-.0708-.1815-.0878-.0657-.0171-.134-.0211-.2012-.0117-.0672.0093-.1319.0318-.1904.0662-.0585.0343-.1097.0799-.1506.134-.0409.0541-.0707.1158-.0878.1815-.1697.7297-.1678 1.4888.0057 2.2176.1736.7289.5139 1.4074.9943 1.9824.458.5909 1.0444 1.07 1.7149 1.4009.6705.3309 1.4074.505 2.1551.5091.7569-.0533 1.4907-.2838 2.1421-.6729.6514-.3892 1.2022-.926 1.6079-1.5671.3248-.4576.5746-.9639.74-1.5.5561.8184 1.3004 1.4917 2.1704 1.9632.8699.4715 1.8403.7276 2.8296.7468 1.0413-.0272 2.059-.3163 2.9591-.8406.9001-.5244 1.6536-1.267 2.1909-2.1594.2425.8642.6689 1.6658 1.25 2.35.5385.6684 1.2168 1.2109 1.9873 1.5892.7705.3783 1.6145.5834 2.4727.6008.8577-.0201 1.7008-.2263 2.4709-.6045.7701-.3781 1.4488-.9191 1.9891-1.5855.3649-.433.674-.9101.92-1.42.1339.2635.2912.5145.47.75.4222.5981.9707 1.0962 1.6066 1.459.6359.3629 1.3437.5817 2.0735.641.733.0285 1.463-.1045 2.139-.3896.675-.2852 1.28-.7155 1.771-1.2604.474-.499.851-1.0824 1.11-1.72.534.9527 1.309 1.7476 2.249 2.3042.939.5567 2.009.8553 3.101.8658 1.476-.0987 2.865-.7302 3.91-1.7769s1.674-2.4373 1.77-3.9131c.006-.1263-.036-.2501-.118-.3466-.081-.0964-.197-.1584-.322-.1734z"/><path d="M79.6928 72.4962c.1531.01.3068.01.46 0 .8402-.0989 1.6299-.453 2.2628-1.0144.6329-.5613 1.0786-1.3032 1.2772-2.1256.03-.1286.008-.2638-.0613-.3762-.0693-.1125-.1803-.1929-.3087-.2238-.1284-.0274-.2625-.0042-.3743.0647-.1117.0689-.1926.1783-.2257.3053-.1613.6091-.4988 1.1571-.9703 1.5751-.4714.4181-1.0557.6876-1.6797.7749-.626.063-1.2565-.0611-1.8119-.3566-.5554-.2955-1.0106-.7491-1.3081-1.3034-.061-.118-.1664-.2069-.293-.2473-.1266-.0403-.264-.0287-.382.0323-.1181.061-.207.1664-.2473.293-.0404.1266-.0287.264.0323.382.3508.6612.8728 1.216 1.5113 1.6065.6386.3905 1.3703.6024 2.1187.6135zm10.8399 1.14h.27c.9114-.0688 1.7808-.411 2.4945-.9819.7136-.571 1.2384-1.344 1.5055-2.2181.0178-.0656.0224-.1341.0136-.2016-.0087-.0674-.0306-.1325-.0645-.1915-.0339-.0589-.0791-.1106-.133-.1521-.0539-.0416-.1154-.072-.1811-.0898-.0656-.0177-.1341-.0223-.2016-.0136-.0674.0088-.1325.0307-.1915.0646-.0589.0339-.1106.0791-.1521.133-.0415.0538-.072.1154-.0898.181-.2083.6776-.6169 1.2763-1.172 1.7172-.5552.4409-1.2308.7033-1.938.7528-.694.0382-1.3837-.1318-1.9805-.4881-.5969-.3563-1.0737-.8828-1.3695-1.5119-.021-.0637-.055-.1224-.0997-.1725-.0447-.0501-.0992-.0904-.1601-.1185-.061-.0282-.1271-.0435-.1942-.045-.0671-.0016-.1338.0107-.196.036-.061.0239-.1166.0601-.1632.1063-.0465.0463-.0831.1015-.1075.1624-.0243.061-.036.1262-.0341.1918.0018.0656.0171.1301.0448.1895.3601.7864.9372 1.4535 1.6635 1.923.7264.4695 1.5717.7217 2.4365.727zm9.8103-.31c.204.0033.408-.0135.61-.05.94-.1939 1.773-.737 2.329-1.5199.557-.783.796-1.7477.671-2.7001-.022-.1326-.095-.2513-.203-.3301-.109-.0787-.245-.1111-.377-.0899-.133.0213-.252.0943-.331.2031-.078.1087-.111.2443-.089.3769.084.6896-.09 1.386-.489 1.9548-.399.5688-.994.9697-1.671 1.1252-.686.0917-1.3819-.0729-1.9539-.4622-.572-.3894-.9803-.9761-1.1466-1.6478-.0252-.1326-.102-.2497-.2136-.3257-.1116-.0759-.2488-.1045-.3814-.0793-.1326.0252-.2497.1021-.3257.2137-.0759.1116-.1045.2487-.0793.3813.1935.8278.6575 1.5673 1.3186 2.1017.6611.5343 1.4815.8328 2.3319.8483zm-32.8501-2.1199c.3184.8076.868 1.5033 1.58 2 .4072.236.8695.3602 1.34.36.4101.0025.8148-.0935 1.18-.28.3915-.2004.7276-.4941.9787-.8551s.4096-.7782.4613-1.2149c.0146-.1326-.0241-.2656-.1075-.3697-.0835-.1041-.2048-.1707-.3374-.1853-.1327-.0146-.2656.0241-.3697.1075-.1041.0835-.1708.2049-.1854.3375-.0264.2725-.1215.5338-.2764.7596-.1549.2258-.3644.4087-.6091.5315-.2447.1228-.5165.1817-.7901.171-.2736-.0107-.54-.0906-.7744-.2321-.4779-.3304-.8496-.7924-1.07-1.33.0251-.0951.0251-.195 0-.29-.0477-.1012-.1247-.1858-.2209-.2428-.0962-.057-.2074-.0839-.319-.0772-.1151.0229-.2217.0769-.3081.1563-.0864.0794-.1494.181-.1819.2937-.0285.1187-.0106.2439.05.35l-.0401.01zm42.5901 1.92h.24c.781-.0609 1.528-.3502 2.147-.832.619-.4819 1.082-1.1349 1.333-1.878.041-.1326.027-.2761-.037-.399-.065-.1228-.176-.2149-.308-.256-.133-.0411-.277-.0279-.399.0368-.123.0647-.215.1756-.256.3082-.192.5468-.537 1.0267-.995 1.3816-.457.3549-1.008.5697-1.585.6184-.584.03-1.164-.1112-1.668-.4061-.505-.2949-.912-.7307-1.172-1.2539-.059-.1194-.162-.2107-.288-.2538-.125-.0431-.263-.0346-.382.0238-.12.0583-.211.1617-.254.2873-.043.1257-.035.2633.024.3827.329.6732.842 1.2401 1.478 1.6362.637.3961 1.372.6053 2.122.6038zm-4.57 1.2999c-.056-.0349-.118-.0585-.183-.0693-.065-.0109-.132-.0088-.196.0061-.064.0148-.124.0422-.178.0805-.053.0383-.099.0868-.133.1427-.376.7532-.943 1.394-1.646 1.8576-.702.4635-1.514.7334-2.354.7824-.8391-.0061-1.6653-.2038-2.4158-.5782-.7505-.3744-1.4054-.9154-1.9147-1.5818-.0512-.0659-.1162-.1198-.1905-.1578-.0743-.038-.1561-.0592-.2395-.0622-.0848.005-.1669.0314-.2386.0769-.0718.0455-.1307.1085-.1714.1831-.0628.1033-.1196.2101-.17.32-.48.94-1.28 2.52-5.17 2.67-1.1192.0308-2.2205-.2852-3.1531-.9046-.9327-.6194-1.6511-1.5119-2.0569-2.5554-.0151-.0656-.043-.1277-.082-.1826-.0391-.0549-.0886-.1015-.1457-.1373-.0571-.0357-.1207-.0599-.1872-.071-.0664-.0112-.1344-.0092-.2001.0059-.0656.0151-.1277.043-.1826.0821-.0548.0391-.1015.0886-.1372.1457-.0358.0571-.0599.1207-.0711.1871-.0112.0665-.0092.1345.0059.2001-.0113.2082-.1005.4046-.25.55-1.0415 1.0078-2.4126 1.6046-3.86 1.68-2.41 0-4.3-1.46-4.37-2.27-.0025-.0665-.0183-.1319-.0465-.1923-.0282-.0604-.0681-.1145-.1175-.1592-.0493-.0447-.1072-.0791-.17-.1012-.0629-.0221-.1295-.0313-.196-.0273-.1317.0103-.2543.0712-.342.1701s-.1336.2279-.128.3599c.07 1.45 2.58 3.22 5.37 3.22 1.7738-.0723 3.4538-.8158 4.7-2.08.5914.935 1.407 1.7074 2.3728 2.247.9657.5396 2.051.8294 3.1572.843h.22c4-.15 5.22-1.75 5.82-2.85.6069.6292 1.3337 1.1304 2.1375 1.4739.8038.3436 1.668.5224 2.543.5261.997-.063 1.96-.386 2.793-.9369.833-.5509 1.508-1.3105 1.957-2.2031.034-.057.056-.1201.065-.1859.01-.0657.006-.1326-.011-.1968-.017-.0642-.046-.1245-.086-.1772-.041-.0528-.091-.097-.148-.1301zM77.3123 15.0499l-8.7-1.36 6.81 5.24 1.89-3.88zm5.1903-4.6901l-7.32-4.89996 3.98 7.61996 3.34-2.72zm6.6899-2.07991l-4.59-7.520002.41 8.580002 4.18-1.06zM96.2523.629883l-4.12 7.529997 4.12 1.28V.629883zm9.6897 4.589967l-6.9098 5.09995 3.1998 2.89 3.71-7.98995zm-.32 13.99005l6.81-5.58-8.44 1.59 1.63 3.99z"/><path d="M177.432 43.7099c3.41-3.69 3.21-8.87 2.62-11.1-.18-.68-.3-1.31-.42-1.89-.54-2.65-.93-4.57-4.87-5.41-.28-.06-.56-.11-.85-.15-.829-.0272-1.626-.3258-2.27-.85-.198-.2361-.379-.4868-.54-.75-.183-.3937-.463-.7352-.812-.9937-.349-.2584-.757-.4256-1.188-.4863-.76-.1-1.52-.16-2.29-.21h-.46c-.775-.4095-1.577-.767-2.4-1.07-1.697-.4289-3.488-.2776-5.09.43 1.12-1.13 2.36-2.4 2.79-3 .346-.465.764-.8703 1.24-1.2.11-.0605.192-.1607.23-.28v-.18c.024-.082.03-.1681.018-.2526-.012-.0845-.042-.1654-.088-.2374-.2-.26-.51-.27-1-.27-.236.014-.473.014-.71 0-.75-.08-1.92.29-3.8 1.23.68-1.71 1.67-4.5 1.73-4.7v-.14c.073-.1356.101-.2903.081-.4426-.02-.1523-.086-.2947-.191-.4074-.33-.29-.77-.09-1.28.15-1.759 1.2888-3.451 2.6673-5.07 4.13-.32-1.66-1.11-4.93-1.62-5.12-.087-.0315-.182-.0388-.273-.0212-.092.0176-.177.0595-.247.1212-.083.092-.138.2061-.157.3286-.02.1225-.003.2481.047.3614-.051 1.0822-.309 2.1447-.76 3.13-.78-.8136-1.656-1.5289-2.61-2.13-.599-.2532-1.24-.3923-1.89-.41h-.6c-.38-.76-.59-1-.95-1-.109.0119-.212.055-.297.1242-.085.0692-.149.1615-.183.2658-.024.2093-.024.4207 0 .63-1.15.157-2.322-.0383-3.36-.56-2.19-1.34-4.65-.78-7 .17.256-1.1736.184-2.39507-.21-3.53002-.097-.18763-.242-.34631-.42-.46.142-.14263.253-.31319.325-.50084.072-.18765.105-.38828.095-.58916.049-.16209.058-.33341.026-.49965-.031-.16623-.102-.32255-.206-.4559-.104-.13335-.238-.23985-.392-.3106-.154-.07076-.322-.10371-.491-.0961-.169.0076-.334.05554-.48.13981-.147.08427-.271.20242-.363.34457-.092.14216-.148.3042-.164.47258-.017.16838.008.3382.07.49529-.012.2018.019.40391.089.59335.071.18943.18.36201.321.50665-.168.10881-.307.25645-.407.43049-.099.17403-.155.36935-.163.56951-.08.66-.3 3.52002-.69 4.13002-.058.0838-.121.1639-.19.24l-1 .43h-.09s-.26-7.63002-.33-9.35002c-.07-1.72-3.06-1.74-3.09-.12-.03 1.62.17 6.56002.17 6.56002s-1.12 0-1.44-1.61002c-.32-1.61-.28-2.98-.59-3.28l-.13-.1c.169-.3554.248-.74689.23-1.14 0-1-.63-1.77-1.31-1.74-.68.03-1.21.85-1.17 1.84.011.44031.15.86798.4 1.23-.044.09447-.071.19605-.08.3-.089 1.55062.128 3.10369.64 4.57002.193.5241.508.9951.918 1.374.41.379.905.6552 1.442.806l1.07.16.08 1.53c-1.58.51-3.11 1.11-4.71 1.73-4.68 1.82-9.53 3.7-16.42 3.71-.992-2.7909-2.831-5.202-5.2603-6.8963-2.4294-1.6944-5.3275-2.5872-8.2893-2.5537-2.9492.0071-5.8268.9096-8.2517 2.5882-2.425 1.6785-4.2831 4.0539-5.3283 6.8118-6.9 0-12-1.88-16.65-3.7-1.6-.62-3.13-1.22-4.71-1.73l.08-1.53 1.07-.16c.5385-.1493 1.0336-.425 1.4441-.8042.4105-.3791.7245-.8508.9159-1.3758.5123-1.46633.7298-3.0194.64-4.57002-.0086-.10395-.0357-.20553-.08-.3.2509-.36202.39-.78969.4-1.23 0-1-.48-1.82-1.17-1.84-.69-.02-1.36.75-1.36 1.74-.0148.39394.0676.78548.24 1.14-.0486.02579-.0926.0596-.13.1-.32.34-.27 1.66-.59 3.26-.32 1.60002-1.43 1.61002-1.43 1.61002s.2-4.94002.16-6.56002c-.04-1.62-3-1.59-3.09.12-.09 1.71-.33 9.35002-.33 9.35002h-.09l-1-.43c-.0715-.0758-.1383-.156-.2-.24-.39-.61-.61-3.47002-.69-4.13002-.0079-.20016-.0638-.39548-.163-.56951-.0992-.17404-.2388-.32168-.407-.43049.1533-.12849.2786-.2871.368-.466.0895-.1789.1412-.37428.152-.574.0511-.15685.0651-.32338.0412-.48658-.024-.16319-.0854-.31863-.1794-.45418-.094-.13554-.218-.24752-.3625-.32719-.1444-.07967-.3053-.12487-.4701-.13207-.1648-.0072-.329.02379-.4798.09056s-.2842.16751-.3896.29434c-.1055.12683-.1802.27633-.2183.43681-.0381.16048-.0386.3276-.0015.48831-.0146.19802.0115.39695.0769.58444.0653.1875.1685.35957.3031.50556-.178.11369-.3229.27237-.42.46-.3763 1.1428-.4351 2.36642-.17 3.54002-2.35-1-4.81-1.51-7-.17-1.0576.5266-2.2496.7218-3.42.56.0004-.1817-.0198-.3628-.06-.54-.034-.1043-.0973-.1966-.1825-.2658-.0851-.0692-.1884-.1123-.2975-.1242-.34 0-.5.15-.84.87h-.63c-.6534.0167-1.2978.1558-1.9.41-.9282.5795-1.7813 1.2714-2.54 2.06-.4414-.9623-.6895-2.002-.73-3.06.0505-.114.0661-.2404.0447-.3632-.0213-.1229-.0786-.2366-.1647-.3268-.0677-.0618-.151-.1039-.241-.1215-.0899-.0176-.183-.0102-.269.0215-.52.15-1.3 3.54-1.64 5.15-1.6728-1.4969-3.4254-2.9023-5.25-4.21-.51-.24-.95-.44-1.28-.15-.1017.1142-.1666.2563-.1862.408-.0196.1516.0069.3057.0762.442v.14c.06.2 1.05 3 1.73 4.7-1.88-.94-3-1.31-3.8-1.23-.2364.014-.4735.014-.71 0-.46 0-.77 0-1 .27-.0494.0703-.0823.151-.0961.2358-.0139.0849-.0084.1718.0161.2542l.05.18c.0381.1193.1204.2195.23.28.4785.3266.8979.7324 1.24 1.2.43.57 1.67 1.84 2.79 3-1.6011-.7076-3.3929-.8589-5.09-.43-.8278.3026-1.6332.6635-2.41 1.08h-.44c-.77.05-1.54.11-2.3.21-.4302.0607-.8384.2279-1.1877.4863-.3492.2585-.6284.6-.81227.9937-.15725.2632-.33443.5139-.53.75-.64813.5223-1.4481.8206-2.28.85-.29 0-.57.09-.85.15-3.94.84-4.33 2.76-4.87 5.41-.05.65-.18 1.28-.36 1.98-.590002 2.21-.790002 7.39 2.66 11.08.03839.0366.08225.0669.13.09-.28503 1.2792-.39603 2.5911-.33 3.9.00765.1273.06369.2469.15664.3343.09295.0874.21579.1359.34336.1357.06573-.0051.12982-.0231.18858-.053.05875-.0299.11101-.0711.15376-.1213.04276-.0502.07516-.1084.09535-.1711.02019-.0628.02778-.1289.02231-.1946-.10196-1.7294.14984-3.4613.74-5.09.06111.134.14578.2559.25.36.22051.2162.50429.3563.81.4.21545.4459.56515.813 1 1.05 1.37459.7813 2.92887 1.1914 4.50997 1.19.73.04 1.4606-.0678 2.148-.3169.6873-.2492 1.3172-.6346 1.852-1.1331.538-.5405.9614-1.184 1.2449-1.8919.2835-.7079.4213-1.4657.4051-2.2281-.1182-2.0388-1.0213-3.9527-2.52-5.34-.0426-.2668-.1747-.5112-.3746-.6929-.1999-.1818-.4557-.2901-.7254-.3071-.0919-.2486-.2554-.4644-.47-.62-.3505-.2316-.7748-.3243-1.19-.26 1.56-2.12 3.56-4.5 5.56-5.61 1.3163-.5954 2.7158-.9866 4.15-1.16l3 1.63c-.6635-.0793-1.3328-.0994-2-.06l-.92.08c-.05 0-5 .53-5.32 1.67-.0236.0902-.0268.1846-.0096.2762.0173.0917.0548.1783.1096.2538.24.29.59.24 1.36.15 1.1942-.2099 2.4158-.2099 3.61 0 .63.14 1.37.29 2.14.43-.5775.2334-1.133.5178-1.66.85-1.2081.7731-2.3639 1.6249-3.46 2.55-.4106.3923-.8712.7285-1.37 1-.69.31-.56.75-.5.88.15.34.66.45 1.2.45.5153-.0005 1.0277-.078 1.52-.23.26-.11.53-.21.88-.33.55-.2 1.26-.45 2.32-.89 1.1255-.3897 2.294-.6415 3.48-.75-.414.3002-.8021.6347-1.16 1-.74.75-3.56 4-3.32 4.94.0329.0933.0857.1783.1548.2492.069.0708.1527.1256.2452.1608.0498.0066.1002.0066.15 0 .37 0 1.34-.47 5.72-4.3.9631-.7247 2.0192-1.3167 3.14-1.76l.13-.06c.42 1.16.68 1.39 1 1.4.1021-.0025.2014-.0339.2863-.0906.085-.0566.1522-.1362.1937-.2294.194-.6074.3542-1.225.48-1.85.21 0 .47 0 .77-.09 1.07-.18 2.36-1.72 2.71-2.34.0397-.0644.0668-.1356.08-.21.4109-.2608.802-.5516 1.17-.87.573-.5238 1.2285-.9495 1.94-1.26.74-.3 1.67-.63 2.49-.92 1.55-.56 1.9-.69 2.07-.88.0771-.1023.1188-.2269.1188-.355s-.0417-.2527-.1188-.355c-.6048-.4624-1.3109-.7743-2.06-.91.11-.24.24-.59.44-1.12.3994-1.0921.8533-2.1635 1.36-3.21 2.5677-.3904 5.1632-.5676 7.76-.53 4.4139.0067 8.7846.8693 12.87 2.54-1.46.3-3 .63-4.48 1-2.61.61-5.23 1.35-7.77 2.19-.1259.0424-.2299.1332-.289.2522-.0591.1191-.0684.2568-.026.3828.0425.126.1332.2299.2523.289.1191.0591.2568.0684.3827.026 2.51-.84 5.1-1.56 7.68-2.16 11.41-2.65 20.94-3.89 30-3.89 10.5476-.0473 21.0516 1.3695 31.2096 4.21 2.29.65 4.39 1.27 6.24 1.85h.15c.119.004.236-.0354.328-.1108.092-.0755.153-.1818.172-.2992.021-.063.028-.1294.022-.1953-.006-.0659-.024-.13-.055-.1886-.031-.0586-.073-.1105-.124-.1528-.051-.0422-.109-.074-.173-.0933-1.85-.57-4-1.2-6.26-1.85-1.88-.54-3.79-1-5.72-1.44 4.81-2.08 8.49-2.22 12.58-2.38 2.65-.0221 5.298.1584 7.92.54.5 1 1 2.35 1.33 3.16.2.53.33.88.44 1.12-.749.1357-1.455.4476-2.06.91-.077.1023-.118.2269-.118.355s.041.2527.118.355c.17.19.52.32 2.08.88.81.29 1.74.62 2.48.92.698.3143 1.34.7398 1.9 1.26.371.3153.762.6059 1.17.87.023.0716.049.1417.08.21.35.62 1.64 2.16 2.71 2.34.3 0 .56.08.77.09.12.6275.283 1.2457.49 1.85.041.094.108.1742.193.231.085.0568.185.0877.287.089.33 0 .58-.24 1-1.4.046.0139.09.0341.13.06 1.121.4433 2.177 1.0353 3.14 1.76 4.38 3.83 5.35 4.3 5.72 4.3.05.0066.101.0066.15 0 .094-.0333.179-.0875.248-.1586s.121-.1571.152-.2514c.24-.93-2.58-4.19-3.32-4.94-.354-.3653-.739-.6998-1.15-1 1.183.1084 2.348.3602 3.47.75 1.07.44 1.78.69 2.32.89.35.12.63.22.88.33.493.152 1.005.2295 1.52.23.54 0 1.06-.11 1.21-.45 0-.13.18-.57-.51-.88-.498-.2715-.959-.6077-1.37-1-1.107-.9143-2.273-1.7561-3.49-2.52-.524-.33-1.076-.6144-1.65-.85.75-.14 1.5-.29 2.12-.43 1.195-.2099 2.416-.2099 3.61 0 .77.09 1.12.14 1.36-.15.057-.0746.096-.1609.115-.2526.019-.0917.018-.1865-.005-.2774-.35-1.14-5.28-1.67-5.33-1.67l-.92-.08c-.667-.0402-1.336-.0201-2 .06l3-1.63c1.435.172 2.835.5633 4.15 1.16 2 1.11 4 3.49 5.62 5.52-.415-.0643-.839.0284-1.19.26-.214.1556-.378.3714-.47.62-.281.0202-.547.1399-.748.3378-.202.1978-.326.4609-.352.7422-1.486 1.3857-2.382 3.2911-2.5 5.32-.016.7633.122 1.5221.408 2.2303.285.7082.711 1.3511 1.252 1.8897.534.5004 1.164.8871 1.851 1.1364.688.2492 1.419.3559 2.149.3136 1.582.0028 3.136-.4074 4.51-1.19.438-.2336.788-.6018 1-1.05.306-.0437.59-.1838.81-.4.108-.1074.196-.2325.26-.37.586 1.6331.834 3.3681.73 5.1-.002.1319.046.2598.136.3568.089.0969.213.1554.344.1632.128.0002.251-.0483.344-.1357.093-.0874.149-.207.156-.3343.066-1.3089-.045-2.6208-.33-3.9.047.0054.095.002.14-.01zm-13.73-22c.925.366 1.829.7799 2.71 1.24-1.588.0759-3.165.3036-4.71.68-.51.2-1.55.72-2.71 1.33-.074.0007-.148.0193-.214.054-.066.0348-.123.0848-.166.146-1.19.63-2.47 1.32-3.43 1.85l-1.3.7-1.75.65-.52-.22c1-.94 2.17-2.05 3-2.89.83-.84 1.51-1.4 2-1.83h.07l.53-.29c1.25-.72 3.8-2.17 6.49-1.42zm-2.35-5h.27c-.267.2534-.515.5276-.74.82-.48.64-2.22 2.41-3.38 3.57l-1.09 1.11c-.24.26-1.22 1.18-2.36 2.25-1.54 1.44-2.66 2.49-3.44 3.25-.412-.0804-.837-.0599-1.24.06v-.12c-.28-.5137-.704-.9343-1.22-1.21.46-.49 1-1.08 1.49-1.55.81-.82 1.56-1.59 1.95-2.09.214-.1492.415-.3165.6-.5 1.522-1.5054 3.198-2.8461 5-4 2.11-1.09 3.51-1.62 4.11-1.55l.05-.04zm-3.08-4.29c-.46 1.34-1.78 4.85-2 5.2v.09c-1.266.8315-2.46 1.7681-3.57 2.8.342-1.229.461-2.5092.35-3.78 1.65-1.5106 3.375-2.9358 5.17-4.27l.05-.04zm-7 .76c.301 1.0535.532 2.1259.69 3.21.206 1.6745-.028 3.3737-.68 4.93-.123.2857-.278.5573-.46.81-.32.43-1.15 1.28-1.95 2.1l-1.06 1.09c.34-2.33.33-2.36.32-2.37v-.32c.246-1.4352.635-2.8422 1.16-4.2l.28-.68c.71-1.78 1.32-3.33 1.68-4.53l.02-.04zm-4.42 0c.933.6518 1.8 1.3918 2.59 2.21-.28.72-.56 1.43-.8 2l-.28.68c-.252.608-.472 1.2289-.66 1.86-.369-1.7171-.912-3.3924-1.62-5-.35-.69-.68-1.43-1-2h.14c.549-.0169 1.095.0714 1.61.26l.02-.01zm-2.93 11c-.249-1.2749-.607-2.5262-1.07-3.74-.23-.53-.86-2-1-2.36-.014-.0894-.014-.1806 0-.27-.024-.434-.189-.8482-.47-1.18-.23-.33-.49-.73-.73-1.11.21.18.42.35.59.51.49.42.95.82 1.27 1.07.606.5617 1.09 1.2426 1.42 2-.02 1.58-.02 3.53-.03 5.11l.02-.03zm-106.6996-.13v-5c.3299-.7297.8025-1.3859 1.39-1.93.32-.25.78-.65 1.27-1.07.17-.16.38-.33.59-.51-.24.38-.5.78-.73 1.11-.2807.3318-.4457.746-.47 1.18.0146.0894.0146.1806 0 .27-.13.37-.76 1.83-1 2.37-.4545 1.1601-.8059 2.3581-1.05 3.58zm-3-10.86c.4874-.2108 1.0095-.3294 1.54-.35h.19c-.28.62-.61 1.37-1 2.07-.6973 1.5915-1.2301 3.2501-1.59 4.95-.165-.6001-.3619-1.1909-.59-1.77l-.27-.67c-.25-.61-.54-1.35-.83-2.09.7893-.7985 1.657-1.5155 2.59-2.14h-.04zm-5 3.24c.1539-1.085.3845-2.1577.69-3.21.35 1.2 1 2.76 1.7 4.58l.27.67c.496 1.2574.8677 2.5602 1.11 3.89-.0123.1898-.0123.3802 0 .57.0401.7898.1404 1.5754.3 2.35-.28-.3-.6-.63-1-1-.8-.82-1.63-1.67-1.95-2.1-.182-.2527-.3362-.5243-.46-.81-.646-1.5612-.8635-3.2666-.63-4.94h-.03zm-1.07.4c-.0932 1.2836.0422 2.5737.4 3.81-1.1501-1.0815-2.3914-2.0618-3.71-2.93v-.07c-.23-.36-1.54-3.87-2-5.21 1.861 1.3655 3.6438 2.8345 5.34 4.4h-.03zm-8.66-.05h.27c.64-.07 2 .46 4.16 1.59 1.8003 1.1571 3.4759 2.4976 5 4 .2082.2421.4634.4394.75.58.41.5 1.12 1.23 1.89 2 .44.45 1 1 1.45 1.51-.5364.2824-.9807.7127-1.28 1.24v.12c-.4024-.1199-.8279-.1404-1.24-.06-.78-.76-1.89-1.81-3.45-3.26-1.13-1.06-2.11-2-2.35-2.24-.24-.24-.6-.62-1.09-1.1-1.11-1.15-2.9-2.92-3.34-3.53-.2205-.3051-.4682-.5896-.74-.85h-.03zm-2.08 4.93c2.65-.75 5.19.7 6.42 1.4l.53.29h.07l1.94 1.83c.89.83 2.09 1.95 3.06 2.89l-.52.22-1.72-.64-1.32-.71c-2-1.11-5.46-3-6.53-3.38-1.5225-.3653-3.076-.5863-4.64-.66.8901-.4629 1.8048-.8769 2.74-1.24h-.03zm-12.06997 13.65c-.02793-.1637.00785-.3319.1-.47.01265-.02.03051-.0361.05166-.0467.02114-.0106.04477-.0152.06834-.0133.11959.0023.2362-.0375.32942-.1124.09323-.075.15715-.1803.18058-.2976.00773-.1117.03942-.2204.09292-.3188.05349-.0983.12752-.184.21708-.2512.04234-.0131.08765-.0131.13 0 .05374.0383.11455.0657.17891.0804.06437.0148.13101.0166.19609.0055.06509-.0112.12731-.0351.18309-.0705.05579-.0353.10401-.0813.14191-.1354l.07-.1c-.06.1-.12.2-.17.3l-.14.27c-.17156.3934-.40821.7552-.7 1.07-.27325.2293-.57593.421-.9.57-.20667.1066-.41667.2266-.63.36.02009-.0523.05094-.0998.09056-.1395.03962-.0396.08713-.0704.13944-.0905.12918-.0331.24025-.1155.30941-.2296.06916-.114.09091-.2506.06059-.3804zm10.12997 1.64c-.4778.277-.8346.723-1 1.25-.0704.1865-.1305.3768-.18.57-.0717.3063-.1826.602-.33.88l-.1.14c.0628-.2969.1062-.5975.13-.9v-.21c.0067-.479.0981-.9529.27-1.4.17-.35.55-.68.9-.61h.11l.2.28zm.91 2.7c-.1292.0175-.2465.0848-.3269.1875-.0803.1028-.1173.2328-.1031.3625 0 .06-.07.19-.22.31-.0726.059-.1494.1124-.23.16l-.08.06v-.28c-.0157-.1061-.0157-.2139 0-.32 0-.21.31-.4.59-.6l.32-.25c.03.12.04.3.05.37zm-8.60997 3.81v-.18c-.07264-.5628.00153-1.1349.2153-1.6605.21377-.5257.55988-.9871 1.0047-1.3395.28036-.1885.57453-.3557.88-.5l.28997-.2c-.138.4223-.24824.8532-.32997 1.29-.0502.3034-.11697.6039-.2.9-.22.79-.75 1.6-1.46 1.63-.10704.0078-.20872.0499-.29.12l-.11-.06zm-1.77-2.33c-.076-.0491-.16454-.0752-.255-.0752-.09047 0-.17901.0261-.255.0752-.14234-.0402-.26396-.1332-.34-.26.09272-.0588.16353-.1465.20148-.2495.03795-.103.04095-.2156.00852-.3205-.03491-.2002-.01207-.4063.06586-.594.07792-.1877.20769-.3494.37414-.466.37229-.2708.78368-.4832 1.22-.63l.28-.12c.16-.06.32-.14.49-.22l-.18.53-.18.56c-.16.49-.62 1.54-1.43 1.77zm-1.3-3.62c.27455-.3771.65345-.6657 1.09-.83l.36-.2c-.06.13-.11.26-.16.39l-.18.46c-.11.24-.48 1-1 1.11-.20468-.1637-.34609-.3935-.4-.65-.00384-.0165-.00384-.0336 0-.05.12302-.0358.22712-.1184.29-.23zm7.14997-3c-.3309.4263-.7742.7518-1.28.94l-.23.1c-.3.14-.59997.28-.88997.45.05-.19.1-.38.17-.57.17701-.4307.46597-.8061.83697-1.0875.3711-.2813.8106-.4583 1.273-.5125.1006.0708.1722.1756.2016.2951.0294.1194.0146.2455-.0416.3549l-.04.03zm-3.68997 2.23c-.32627.3954-.76062.6873-1.25.84l-.11.05c.06-.14.11-.27.16-.41.1425-.4878.39575-.9362.74-1.31.23588-.1884.49459-.3464.77-.47.05649-.024.11016-.0542.16-.09 0 .15-.09.29-.12.43-.06433.3367-.18251.6609-.35.96zm6.25997 3.94v.07c-.0881.3717-.3131.6966-.63.91l-.14.13c.0757-.205.1765-.3998.3-.58.1088-.1369.2257-.2671.35-.39l.12-.14zm-2 1.76l-.11.43c-.12.38-.88.83-1.47 1.13-.1024-.2432-.1361-.5098-.0973-.7708s.1486-.5064.3173-.7092c.2921-.277.6306-.5004 1-.66.2307-.1096.4544-.2332.67-.37-.16.31-.24.63-.33.95h.02zm-2.71997 1.21c.01485.2107.05515.4189.12.62l-.66-.17c.2019-.1216.38401-.2734.54-.45zm2.68997.55c.021.0895.0512.1766.09.26-.1732.0102-.3468.0102-.52 0 .1582-.0778.3118-.1646.46-.26h-.03zm1.06-.08c-.17-.15-.13-.52 0-.76.1974-.2848.4407-.5349.72-.74l.23-.19-.06.38c0 .37-.13.82-.4 1-.1087.0826-.1805.2048-.2.34-.0647.0341-.1315.0642-.2.09-.0153-.0422-.0354-.0825-.06-.12h-.03zm2.54-6c0 .21-.29.4-.58.61l-.09.07c.0207-.0852.0474-.1687.08-.25.0831-.283.2593-.5296.5-.7l.09.27zm-3 .53v.2c.0032.5124-.139 1.0151-.41 1.45-.2843.3016-.6238.5459-1 .72-.2897.1401-.5673.304-.83.49 0-.13.06-.26.09-.39.0766-.6072.2594-1.1962.54-1.74.4538-.6203 1.033-1.1382 1.7-1.52-.02.21-.04.48-.06.72l-.03.07zm-2.29-.63c-.3611.3549-.7849.6398-1.24997.84-.31709.1542-.62434.3279-.92.52l.09-.25c.16057-.7399.50442-1.4276 1-2 .37837-.3115.80367-.5613 1.25997-.74l.24-.11.37-.18-.09.32c-.1126.5784-.3516 1.1247-.7 1.6zm-1.99997-3.81c-.19428.1288-.39822.2425-.61.34l-.2.1.13-.26c.1946-.4213.51635-.771.92-1 .06882-.0299.12986-.0752.17841-.1324.04854-.0572.0833-.1249.10159-.1976.08931-.0157.18068-.0157.27 0-.13192.475-.43462.8845-.85 1.15h.06zm-2.26 8.07c-.1156-.0095-.22307-.0632-.3-.15.25117-.0565.49114-.1545.71-.29 0 .12-.05.24-.07.36-.11912-.0125-.23896.0157-.34.08zm8.92997.66v-.09c.0059-.3808.1204-.752.33-1.07.1077-.1082.2286-.2023.36-.28l.12-.08c-.1753.5517-.4498 1.0668-.81 1.52zm-1.15-7.57c-.4326.6722-1.0231 1.2284-1.72 1.62l-.37.26.15-.52c.05-.18.1-.36.16-.54.12-.39.48-1.31 1.18-1.43.0866-.0171.1665-.0588.23-.12.0522.1034.0861.215.1.33.0199.1015.0685.1953.14.27l.13.13zm3-9.16c-2.22 1.22-4.33 3.75-6 5.87-.3151-.0343-.6339.0068-.93.12-.0706-.0606-.1576-.0989-.25-.11-.28637-.1235-.59983-.171-.90995-.1377-.31011.0333-.60636.1462-.86002.3277-.28173-.0608-.57439-.0476-.84951.0383-.27511.0859-.52332.2415-.72049.4517-.20763-.0202-.41704.0107-.61.09-.20993.092-.39685.2294-.54729.4023-.15044.1729-.26065.377-.32271.5977-.20272.0704-.38013.1991-.51.37-.20074.2623-.31595.58-.33.91-.27455.1884-.4786.4628-.58.78-.11279.3238-.11279.6762 0 1-.21179.2341-.33553.5346-.35.85.00823.4206.17213.8232.46 1.13-.11577.2396-.17073.5041-.16.77.01203.269.11417.5261.29.73-.02297.2272.00557.4567.08347.6713.07791.2147.20319.4091.36653.5687-.13.32-.26.64-.37 1-1.04567-1.3802-1.77419-2.974-2.13371-4.6679-.35951-1.6939-.34117-3.4462.05371-5.1321.18-.7.31-1.35.43-2 .52-2.54.8-3.93 4.1-4.63.26-.06.53-.1.8-.15 1.04572-.0462 2.04425-.4485 2.82997-1.14.2354-.2708.4462-.5619.63-.87.38-.59.61-.95 1.3-1h.42c-.0521.0837-.0766.1816-.07.28.05.45.12.45 1.93.62 1.5519.084 3.094.2981 4.61.64.3.11.83.37 1.47.69-1.1239.1447-2.2196.4582-3.25.93h-.02zm4.73 2.77c-.4901-.1069-.9887-.1705-1.49-.19.49-.08 1-.16 1.61-.22l.89-.07c1.5183-.0603 3.0352.1497 4.48.62-.0238.0344-.0439.0713-.06.11 0 .18-.05.26.15.49-.36 0-.76 0-1.2.05-1.18-.19-2.82-.43-4.36-.79h-.02zm5.65 3.72c-1.7805.1217-3.5398.4574-5.24 1-1 .44-1.73.69-2.26.88l-1 .35c-.1314.0521-.2693.0857-.41.1l.59-.47c1.0805-.8907 2.2161-1.7124 3.4-2.46 1.0751-.7003 2.2964-1.145 3.57-1.3.6404.1105 1.2921.1407 1.94.09.1198-.0115.2403-.0115.36 0l1.15 1.1c-.495.1858-.9791.3994-1.45.64l-.65.07zm-.24 2.47c-1.55 1.35-3 2.54-3.95 3.27.7148-1.0189 1.5143-1.9757 2.39-2.86 1.3358-1.2308 2.9172-2.1646 4.64-2.74l.35.43c-1.2176.4757-2.3647 1.1149-3.41 1.9h-.02zm5.41-6.73l-.17.43c-.3496 1.3267-.448 2.7071-.29 4.07-.0148.2402-.055.4782-.12.71-.29-.82-1.88-2.48-3.34-4l-.15-.15c.46-.21 1.12-.51 1.74-.72.2165-.0898.4514-.1257.6848-.1048.2334.0209.4582.098.6552.2248.0721.0601.1597.0987.2526.1114.093.0126.1877-.0011.2733-.0397.0855-.0386.1585-.1005.2105-.1786.052-.0781.081-.1693.0836-.2631.0262-.188.0731-.3724.14-.55.0999-.157.233-.2902.39-.39l-.36.85zm3.12 2c-.32.56-1.42 1.75-2 1.85l-.59.08c-.1051-1.0322-.0272-2.0749.23-3.08l.18-.44c.16-.4.33-.8.48-1.12 0 .44.45.86 1.1 1.49.2094.1836.4064.3806.59.59.0498.0895.0784.1892.0836.2915.0052.1023-.0131.2044-.0536.2985l-.02.04zm-.69-2.86c-.0148-.1329-.0148-.2671 0-.4.0599-.2734.0599-.5566 0-.83-.0385-.1232-.1087-.2342-.2034-.3219-.0947-.0877-.2108-.1491-.3366-.1781-.086-.0152-.174-.0152-.26 0-.2-1.33-.41-2.77-.42-2.89-.01-.12 0-.5 0-1.08.3726-2.2581 1.0034-4.4659 1.88-6.58.32-.61.61-1.26.87-1.84-.0154.8062-.1227 1.6081-.32 2.39-.26.72-.27 5-.22 11.12v1.46c-.0199.0821-.0199.1678 0 .25l-.28-.28c-.2643-.2481-.5023-.5229-.71-.82zm6.87-.91c-.83.3-1.77.63-2.53.95-.7908.3513-1.5201.8273-2.16 1.41l-.24.2c.27-.55.56-1.13.77-1.52.378-.5458.9324-.9449 1.57-1.13.3-.13.63-.28 1-.47.2256-.1029.4723-.1509.72-.14.6295.0292 1.2505.1575 1.84.38l-.97.32zm-.12-3c-.21.55-.45 1.17-.54 1.32-.4861-.0443-.9754.0384-1.42.24-.33.18-.63.31-.92.44-.4608.1907-.8973.4357-1.3.73 0-.28.1-.57.16-.87.0506-.0406.0916-.0918.12-.15.8113-1.4439 1.8212-2.7667 3-3.93.6954-.489 1.4607-.87 2.27-1.13-.5212 1.0891-.9786 2.2077-1.37 3.35zm3.19-4c.0671-.0709.1114-.1601.1275-.2563.016-.0962.003-.195-.0375-.2837-.0526-.115-.1469-.2057-.2638-.254-.1169-.0482-.2477-.0504-.3662-.006l-1 .34c-1.1146.3032-2.1696.7935-3.12 1.45-.77.6284-1.4438 1.3663-2 2.19.1708-.6807.388-1.349.65-2 0-.08.85-2 1-2.44.0512-.169.0814-.3437.09-.52.0162-.2532.1185-.4931.29-.68.7319-.9977 1.3366-2.0827 1.8-3.23.0103-.1074-.0106-.2156-.0603-.3114-.0496-.0958-.1259-.1752-.2197-.2286-.42-.22-.68-.05-2.85 1.84-.48.41-.93.8-1.24 1.05-.2684.2148-.5042.4674-.7.75.0016-.2823.0317-.5638.09-.84.2705-1.0928.4081-2.2143.41-3.34 1.3539.1684 2.727-.0756 3.94-.7 2-1.25 4.45-.5 6.85.55.1809.4388.4233.8495.72 1.22.3269.5161.8084.9157 1.3759 1.142.5674.2263 1.1918.2676 1.7841.118 0 .25-.07 2.49-.09 4.1h-.35c-2.2812-.0456-4.563.0613-6.83.32v.02zm10.33-.16l.23-4.1c1.46.48 2.9 1 4.4 1.62 4.7 1.83 9.77 3.69 16.69 3.76-3.24.41-6.62 1-10.16 1.67-3.5037-1.6732-7.288-2.6803-11.16-2.97v.02zm22.36 1.17c.8976-2.7033 2.6243-5.0549 4.9347-6.7208 2.3104-1.6659 5.087-2.5614 7.9353-2.5592 2.8261-.0383 5.5894.8335 7.8818 2.4866 2.2928 1.6531 3.9918 3.9998 4.8478 6.6934-4.2544-.4549-8.5305-.6819-12.8096-.68-4.2749.0105-8.5455.2709-12.79.78zm27.4196.1c6.54-.18 11.25-2 15.78-3.75 1.5-.58 2.94-1.14 4.4-1.62l.19 4.07c-3.77.2202-7.458 1.189-10.85 2.85-3.07-.65-6.29-1.16-9.52-1.55zm31.24-1.93c-.111-.0356-.232-.0307-.34.0137-.109.0443-.198.1254-.253.229-.055.1037-.072.2232-.047.3379.024.1146.088.2171.18.2894-2.356-.31-4.733-.4437-7.11-.4h-.22c0-1.61-.13-3.87-.09-4.12.593.1511 1.218.1106 1.785-.1158.568-.2264 1.05-.627 1.375-1.1442.297-.3705.54-.7812.72-1.22 2.41-1.05 4.81-1.8 6.85-.55 1.203.6244 2.566.8685 3.91.7.03 1.1144.188 2.2217.47 3.3.058.2968.091.5978.1.9-.212-.2875-.461-.5463-.74-.77-.31-.25-.76-.64-1.23-1.05-2.18-1.89-2.44-2.06-2.86-1.84-.092.0552-.167.135-.216.2303-.049.0954-.071.2026-.064.3097.468 1.1453 1.072 2.2299 1.8 3.23.172.1869.274.4268.29.68.009.1772.042.3524.1.52.16.48 1 2.36 1 2.43.262.6512.479 1.3194.65 2-.556-.8237-1.23-1.5616-2-2.19-.95-.6565-2.005-1.1468-3.12-1.45l-.94-.32zm2.65 4.82c-.409-1.1456-.89-2.2644-1.44-3.35.81.26 1.575.641 2.27 1.13 1.179 1.1633 2.189 2.4861 3 3.93.026.0571.068.1057.12.14.06.31.11.6.16.88-.402-.2943-.839-.5393-1.3-.73-.29-.13-.59-.26-.92-.44-.444-.2025-.933-.2852-1.42-.24-.02-.13-.25-.76-.47-1.32zm4.56 5.38c-.638-.5849-1.367-1.0612-2.16-1.41-.76-.32-1.7-.65-2.53-.95l-1-.34c.807-.3618 1.711-.4462 2.57-.24.35.19.68.34 1 .47.644.1833 1.201.5913 1.57 1.15.22.39.5 1 .77 1.51l-.22-.19zm1.1-.32c.05-.0917.071-.1963.06-.3v-1.46c.06-6.16 0-10.4-.22-11.12-.192-.7829-.299-1.5842-.32-2.39.26.57.56 1.23.87 1.84.877 2.1141 1.508 4.3219 1.88 6.58v.66c0 .19-.08.54-.09.56-.02.0786-.02.1613 0 .24-.08.56-.23 1.58-.37 2.54-.092-.02-.187-.02-.28 0-.127.0283-.244.0894-.341.177-.096.0877-.168.199-.209.323-.059.2734-.059.5566 0 .83.008.1199.008.2401 0 .36-.224.3323-.493.6319-.8.89l-.18.27zm3 3.6l-.6-.08c-.59-.1-1.68-1.29-2-1.85-.043-.0923-.066-.193-.066-.295 0-.102.023-.2028.066-.295.191-.2252.398-.4358.62-.63.65-.63 1.06-1.05 1.1-1.49.15.32.32.72.48 1.13l.18.43c.254 1.0059.325 2.049.21 3.08h.01zm1.1 1.25c-.065-.2318-.105-.4698-.12-.71.164-1.3628.065-2.7442-.29-4.07l-.17-.43c-.13-.31-.24-.6-.35-.85.154.0966.284.2264.38.38.061.176.108.3566.14.54-.003.0956.022.1901.072.2719.049.0817.122.1471.208.1881.086.0399.18.0554.274.0448.093-.0106.182-.0469.256-.1048.198-.1301.424-.2099.659-.2326.236-.0226.473.0126.691.1026.62.21 1.28.51 1.74.72l-.13.14c-1.48 1.56-3.07 3.22-3.36 4.01zm8.8 4.86c-1-.73-2.4-1.92-4-3.27-1.037-.794-2.177-1.4433-3.39-1.93.1-.13.23-.28.36-.43 1.719.5863 3.294 1.5304 4.62 2.77.883.8835 1.689 1.8403 2.41 2.86zm.68-6.36c1.158.7633 2.267 1.5983 3.32 2.5l.59.47c-.14-.0143-.278-.0479-.41-.1l-.94-.35c-.54-.19-1.23-.44-2.27-.88-1.7-.5426-3.459-.8783-5.24-1l-.64-.07c-.471-.2388-.955-.4524-1.45-.64.37-.41.76-.81 1.09-1.16.124-.0109.247-.0109.37 0 .645.0507 1.293.0205 1.93-.09 1.29.155 2.525.6069 3.61 1.32h.04zm-.83-3.6h.61l.88.07c.59.06 1.13.14 1.61.22-.498.0195-.993.0831-1.48.19-1.54.35-3.17.63-4.36.79-.408-.0401-.819-.0568-1.23-.05.2-.23.19-.31.15-.49-.014-.0397-.034-.0768-.06-.11 1.245-.3875 2.538-.5962 3.84-.62h.04zm6.34-2.27c-1-.4814-2.064-.8181-3.16-1 .6-.3 1.1-.54 1.38-.65 1.509-.3543 3.044-.5818 4.59-.68 1.81-.17 1.88-.17 1.93-.62.007-.0984-.017-.1963-.07-.28h.42c.69.08.92.44 1.3 1 .188.3057.398.5965.63.87.79.7088 1.801 1.1222 2.86 1.17.27 0 .54.09.8.15 3.3.7 3.59 2.09 4.1 4.63.12.6.25 1.25.43 2 .392 1.6842.407 3.4342.044 5.1248-.363 1.6907-1.095 3.2803-2.144 4.6552-.106-.3394-.229-.6732-.37-1 .166-.1583.292-.3525.37-.5675.078-.215.106-.4452.08-.6725.181-.2013.283-.46.29-.73.011-.2659-.044-.5304-.16-.77.288-.3068.452-.7094.46-1.13-.01-.3145-.13-.6154-.34-.85.109-.3246.109-.6755 0-1-.097-.319-.302-.5945-.58-.78-.009-.3309-.125-.65-.33-.91-.129-.1709-.307-.2996-.51-.37-.061-.2194-.17-.4226-.319-.5954-.148-.1727-.333-.3109-.541-.4046-.192-.0826-.402-.1137-.61-.09-.205-.2256-.468-.3905-.761-.4769-.293-.0863-.604-.0909-.899-.0131-.253-.1815-.549-.2944-.86-.3277-.31-.0333-.623.0142-.91.1377-.092.0111-.179.0494-.25.11-.292-.1138-.608-.155-.92-.12-1.66-2.06-3.77-4.59-5.99-5.81h.04zm9.81 13.17l-.18-.56-.18-.53c.163.0816.33.1551.5.22l.27.12c.439.1425.851.3552 1.22.63.167.1166.297.2783.375.466.077.1877.1.3938.065.594-.032.1074-.028.2224.012.3273.04.1048.113.1936.208.2527-.082.1101-.193.1964-.32.25-.078-.0467-.168-.0713-.26-.0713-.091 0-.181.0246-.26.0713-.86-.23-1.32-1.3-1.45-1.77zm-.49 4.2c-.08-.0714-.182-.1136-.29-.12-.7 0-1.24-.84-1.46-1.63-.08-.29-.14-.59-.2-.89-.081-.44-.192-.8743-.33-1.3l.31.16c.307.1421.601.3093.88.5.445.3524.791.8138 1.005 1.3395.214.5256.288 1.0977.215 1.6605v.18l-.13.1zm-8.46-4.25l.32.25c.28.2.54.39.59.6.016.1061.016.2139 0 .32-.005.0932-.005.1867 0 .28l-.09-.06c-.08-.0476-.157-.101-.23-.16-.15-.12-.23-.25-.22-.31.009-.0644.004-.1299-.013-.1926-.017-.0626-.046-.1212-.086-.1724-.04-.0512-.09-.0939-.147-.1257-.057-.0317-.119-.0519-.184-.0593.01-.12.01-.3.06-.42v.05zm.42-1.44c.242.172.421.4176.51.7.03.0815.053.1651.07.25l-.09-.07c-.29-.21-.54-.4-.58-.61l.09-.27zm.64-1.17h.1c.35-.07.73.26.9.61.172.4505.264.9278.27 1.41v.2c.024.3025.068.6031.13.9l-.1-.14c-.147-.278-.258-.5737-.33-.88-.05-.19-.11-.39-.17-.57-.169-.5247-.525-.9693-1-1.25.059-.1146.126-.2248.2-.33v.05zm10-1c.07.1136.181.1959.31.23.053.0201.1.0509.14.0905.039.0397.07.0872.09.1395l-.63-.36c-.324-.149-.626-.3407-.9-.57-.291-.3148-.528-.6766-.7-1.07l-.14-.27c-.05-.1-.11-.2-.17-.3l.06.06c.037.0545.083.1012.138.1374.054.0362.116.0611.18.0732.064.0121.13.0112.194-.0026.064-.0139.125-.0404.178-.078h.15c.09.0672.164.1529.218.2512.053.0984.085.2071.092.3188.027.1155.092.2188.185.2931.092.0743.207.1155.325.1169.024.0007.046.0064.067.0168.021.0104.039.0251.053.0432.094.1375.133.3051.11.47-.019.0632-.025.1299-.016.1954.009.0656.031.1286.066.1846v.03zm-3.22.09c0-.14-.09-.28-.13-.43l.16.09c.276.1236.535.2816.77.47.346.3767.599.8286.74 1.32 0 .14.11.27.16.41l-.11-.05c-.486-.1582-.917-.4534-1.24-.85-.174-.3069-.292-.642-.35-.99v.03zm-3.39-1.3c-.068-.1078-.094-.2375-.072-.3634.022-.126.091-.239.192-.3166.464.0511.905.2269 1.276.5086.372.2818.66.6589.834 1.0914.07.19.12.38.17.57-.29-.17-.59-.31-.89-.45l-.23-.1c-.509-.1964-.953-.5326-1.28-.97v.03zm7.15 3c.07.1136.181.1959.31.23.004.0164.004.0335 0 .05 0 .23-.26.53-.4.65-.55-.13-.92-.87-1-1.11-.08-.24-.13-.3-.19-.46l-.15-.39.35.2c.433.166.809.4544 1.08.83zm-4.45-4.54c.019.0727.053.1404.102.1976.049.0572.11.1025.178.1324.406.2268.728.5771.92 1l.13.26-.2-.1c-.209-.1014-.413-.2149-.61-.34-.427-.3104-.72-.7715-.82-1.29.11.0234.212.0713.3.14zm-1.85 3.35l.24.11c.457.1787.882.4285 1.26.74.496.5724.84 1.2601 1 2l.09.25c-.294-.1942-.601-.368-.92-.52-.465-.2002-.888-.4851-1.25-.84-.328-.4669-.553-.9989-.66-1.56 0-.11-.07-.21-.1-.32l.34.14zm-3.25 4.49c.11.13.23.26.34.4.122.1779.223.3691.3.57l-.14-.11c-.316-.2186-.54-.5462-.63-.92v-.07l.13.13zm1.9 1.63c-.076-.3389-.173-.6728-.29-1 .217.1347.441.2582.67.37.37.1596.708.383 1 .66.171.2038.282.4509.321.7139.039.263.004.5316-.101.7761-.56-.29-1.35-.75-1.46-1.14l-.14-.38zm1-3.1c.28.5451.466 1.1333.55 1.74 0 .13.06.26.08.39-.262-.186-.54-.3499-.83-.49-.374-.1765-.713-.4206-1-.72-.271-.4349-.413-.9376-.41-1.45v-.23c0-.27 0-.54-.09-.82.673.3992 1.253.938 1.7 1.58zm-2.62 4.47c-.267-.2995-.414-.6883-.41-1.09v-.29l.22.19c.28.2051.523.4552.72.74.079.1112.121.2439.121.38 0 .136-.042.2687-.121.38-.038.0328-.069.0738-.09.12-.071-.0258-.141-.0558-.21-.09-.005-.0682-.026-.1342-.06-.1931-.035-.0589-.083-.1092-.14-.1469h-.03zm1.56.39c.14.1.28.2.43.29-.173.0099-.346.0099-.52 0 .062-.0902.112-.1876.15-.29h-.06zm2.69-.55c.159.1744.34.3258.54.45l-.66.17c.08-.1983.131-.4072.15-.62h-.03zm-4.22-8.68c.017-.1132.047-.224.09-.33.069.0592.152.1004.24.12.7.12 1.06 1 1.19 1.43l.15.54.15.52-.37-.26c-.699-.3924-1.29-.9526-1.72-1.63l.13-.12c.083-.0708.142-.165.17-.27h-.03zm-2.22 6.45l.11.08c.132.0777.253.1718.36.28.211.3471.325.7441.33 1.15-.35-.45-.611-.9625-.77-1.51h-.03zm9.76.88c-.051-.038-.109-.0648-.171-.0786-.062-.0138-.126-.0143-.189-.0014 0-.13-.05-.26-.08-.38.224.134.467.2319.72.29-.062.0735-.141.1317-.23.17h-.05z"/></svg>