<svg fill="currentColor" viewBox="0 0 212 137"><path d="M37.3026 107.69c0-.18-.79-1.7-1-2.35l-8-20.9501c-.31-1.27.83-3.9101 1.21-5.4201l-.3.0901s-1.6.62-2.25.8l-1 .23-.3.27-2.91.6099-5.42.5101c.752.8005 1.3669 1.7195 1.82 2.72.18 1 .14 12.57.14 12.57.0652 1.0523.0652 2.1076 0 3.16h-.18c-.16-.6-6.82-12.3-7.45-14.04l-.11-.26c-.1545-.7162-.2283-1.4474-.22-2.18v-.83c-1.0571.814-2.15881 1.5685-3.29996 2.26l-.8.32c-.13 0-.46.36-.77.44l-2.6.72c-1.02383.3078-2.09177.4429-3.160003.3999 1.070003 1.5201 2.940003 2.8801 3.500003 4.4001l3.86 21.5301c.13805 2.054-.07156 4.116-.62 6.1 1.38634-.806 2.83416-1.502 4.32996-2.08.31-.08.44-.26.62-.3.5937-.164 1.1987-.285 1.81-.36l2.58-.15c-1.1886-1.462-2.1186-3.115-2.75-4.89l-3.1-14.3801c-.0437-.0797-.0667-.1691-.0667-.26 0-.091.023-.1804.0667-.26l.17.09c1.72 3.73 4.93 7.4201 6.88 11.2701l1 2.49c.0335.898.0001 1.797-.1 2.69.6185-.484 1.2894-.896 2-1.23l1.25-.35c.66-.18 3.36-.55 3.83-.68-.6245-.519-1.1467-1.15-1.54-1.86-.0866-.162-.1634-.329-.23-.5 0-.13-.05-.36-.08-.63-.51-5 .15-10.1701.2-15.0801l5.11 13.1601.45 1.65c.372 1.725.2507 3.52-.35 5.18l3-1.38 1-.26.87-.05 2.61-.72c.69 0 1.7-.09 2.6 0v-.17c-.8357-.598-1.6066-1.282-2.3-2.04zm13.36-28.7802l-.15-.84c-.11-.67.25-3.52.18-3.87h-.17c-.45.07-2.47 1.3-3.8 1.77l-1.06.22c-1.6778.1101-3.3626-.0281-5-.41.78 1.56 1.16 1.4 1.4 2.77.14.75-.1 1.71 0 2.2.18 1-.57 23.0002-.54 23.1402.21 1.15-1.42 5.6-1.63 6.23 1.32-.51 1.7-1.22 2.72-1.4l2.17-.39c.67-.11 3.85.55 4.07.51l.4-.07c-1.2809-.754-2.2119-1.983-2.59-3.42l-.12-.71c-.25-1.38-.37-2.09.91-2.31l4.74-.85c.33.08.8 1.69.88 2.13-.0173.306-.0173.613 0 .92.0973.927.0973 1.862 0 2.79 0-.2.89-.62 3.11-1l1-.19c.8291-.148 1.6681-.235 2.51-.26.9621-.096 1.9337-.022 2.87.22-1.807-1.983-3.1707-4.329-4-6.8802l-7.9-20.3zm-3.82 19.6c-.029.0058-.0588.0057-.0876-.0003-.0289-.006-.0563-.0178-.0806-.0346-.0242-.0168-.0449-.0383-.0606-.0632-.0158-.0249-.0264-.0528-.0312-.0819-.05-.31-.06-10.09.18-11.55.8 1.14 4 10.17 4.09 10.61l.07.4-4.08.72zm35.46-3.8099c-.44-4.39-4.34-6.21-4.37-6.52 1.3098-1.0945 2.3385-2.4866 3-4.0601.356-.8196.5593-1.6973.6-2.5899-.0438-.666-.0438-1.3341 0-2-.33-2.9-3.29-8.39-7.87-7.9l-.8.08c-.1791-.0505-.364-.0774-.55-.08 0 0 0 .14-.79.22-1 .1-4.78 1.52-5.27 1.57l-1.87.21-3.72-.4801v.3101c.6851.6588 1.2803 1.4053 1.77 2.22.06.58.5 1.35.56 2-.0024.1087.0253.216.08.31l1.51 15c.07.68 0 .91.42 5 .2123 2.7771-.3851 5.5561-1.72 8.0001 1.48-.51 2.81-.78 4.12-1.28l1.34-.13c.14 0 .15.16.33.14l1-.1c.9608-.01 1.9209.06 2.87.21l.54-.06c-.9744-1.18-1.5827-2.619-1.75-4.14l-.77-7.6602c-.1252-.4406-.2254-.888-.3-1.3399 0-.4.06-.7301.42-.7601h1.54c.7383-.045 1.4672.1843 2.0467.6439.5796.4595.9689 1.117 1.0933 1.8462.2411 1.1922.4114 2.3976.51 3.6099.0773.734.104 1.4724.08 2.2101v.63c.1326 1.4501.522 2.8661 1.15 4.1801.13 0 .33.1.51.09.5995-.146 1.2073-.257 1.82-.33.3919.048.7881.048 1.18 0 1.4988.012 2.9939.15 4.47.41-.63-1.3-2.6-3.81-2.76-5.3302l-.42-4.1299zm-9.48-8.35l-2.51.28-.93-9.14c.6776-.4528 1.4659-.7121 2.28-.75 1.84-.19 3 1.4099 3.23 3.2399.1752.612.299 1.2375.37 1.8701.13 1.34-.25 4.27-2.44 4.5zm30.8404 8.57c.001-.3364-.036-.6719-.11-1 0 0 .09-.09.08-.23-.01-.2131-.044-.4243-.1-.63-.023-.9614.014-1.9232.11-2.88.011-1.793.35-3.5689 1-5.24-1.327.5993-2.756.9387-4.21 1l-1.3502-.15c-1.442.0888-2.8892-.0461-4.29-.4 1.22 2 2.15 3.51 2.2 5.35 0 .5.16 1.17.17 1.53-.0159.3916-.0526.7822-.11 1.17 0 1-.58 4-2.74 4-1.53 0-2.27-2.83-2.29-3.5l-.28-12.31s.1601-1.22.1501-1.36c0-2.2.8899-4.61 3.5799-4.67l.68.16c4.4202.26 4.6302 3.45 5.8802 5 .518.9265 1.096 1.8184 1.73 2.67h.18l-.22-1.52c-.113-1.8024-.093-3.6106.06-5.41l1-7c-1.83.71-3 1.42-4.8802 1.46-.0382-.0495-.0865-.0902-.1416-.1195-.0552-.0293-.116-.0465-.1784-.0505h-1.35c-1.4962-.3885-3.0268-.6296-4.57-.72-.4536.0225-.9049.0793-1.35.17-4.4.28-7.43 7.29-7.36 10.66l.31 13.36c.11 4.55 3.92 9.6801 9 9.5601 1.17 0 3.88-1.48 4.87-1.51l2.6902-.24c1.11.431 2.246.795 3.4 1.09l.14-.18c-.833-1.982-1.44-4.052-1.81-6.1701.05-.9.11-1.49.11-1.89zm19.87-20.11v-.85c0-.68 1-3.39 1-3.75h-.18c-.45 0-2.68.75-4.08.93h-1.08c-1.631-.2765-3.214-.785-4.7-1.51.43 1.68.84 1.61.79 3 0 .76-.47 1.65-.49 2.14 0 1-5.42 22.31-5.43 22.49 0 1.17-2.58 5.1801-2.91 5.7501 1.4-.22 1.92-.83 2.95-.79l2.21.08c1.309.386 2.597.84 3.86 1.36h.41c-1.088-1.009-1.732-2.408-1.79-3.8901v-.72c0-1.39.08-2.11 1.38-2.06l4.82.18c.31.14.42 1.81.41 2.26-.09.2923-.164.5891-.22.8901-.102.928-.3 1.843-.59 2.73.09-.18 1-.41 3.25-.33h1c.842.029 1.681.12 2.51.27.96.112 1.894.389 2.76.82-1.34-2.317-2.166-4.8956-2.42-7.5601l-3.46-21.44zm-3.75 18.5l-4.12-.15c-.03 0-.06-.006-.087-.0177-.027-.0116-.052-.0288-.073-.0503-.02-.0215-.036-.0469-.047-.0747-.01-.0279-.015-.0576-.013-.0873 0-.32 2.08-9.88 2.63-11.25.53 1.28 1.76 10.78 1.74 11.23l-.03.4zm27.82-20.76l-.8-.09c-.165-.0872-.34-.1543-.52-.2 0 0 0 .14-.82.05-1-.12-5 .47-5.49.42l-1.87-.21-3.58-1.22v.31c.53.7874.954 1.6414 1.26 2.54-.07.58.2 1.43.13 2-.032.1044-.032.2156 0 .32l-1.69 14.94c-.08.67-.19.88-.66 5-.377 2.7626-1.552 5.3551-3.38 7.4601 1.56-.19 2.92-.17 4.3-.38l1.34.15c.14 0 .12.2.3.22l1 .11c.941.202 1.867.473 2.77.81l.53.07c-.701-1.34-1-2.854-.86-4.36l.86-7.6501c-.03-.4662-.03-.9338 0-1.4 0-.4.21-.7.57-.66l1.5.35c.733.1105 1.399.4883 1.869 1.0607.471.5724.714 1.2989.681 2.0393-.028 1.2142-.121 2.426-.28 3.63-.074.735-.201 1.4636-.38 2.1801l-.11.62c-.181 1.445-.104 2.912.23 4.33.14 0 .3.17.48.19.617-.01 1.235.013 1.85.07.368.133.751.223 1.14.27 1.465.324 2.9.773 4.29 1.34-.34-1.4-1.74-4.27-1.56-5.79l.47-4.1601c.49-4.38-2.93-7-2.89-7.3 1.503-.7953 2.795-1.9367 3.77-3.33.519-.7298.905-1.5457 1.14-2.41.095-.6736.229-1.3414.4-2 .3-2.81-1.43-8.8-5.99-9.32zm-.62 10.34c-.16 1.35-1.15 4.13-3.34 3.88l-2.51-.28 1-9.12c.756-.2954 1.58-.375 2.38-.23 1.83.21 2.67 2 2.46 3.86.056.6286.059 1.2609.01 1.89zm19.74-1.9601c.49-1.79 2-3.59 2.94-5.16-1.375.3383-2.785.5095-4.2.51 0-.09 0-.14-.24-.18-.24-.04-.58 0-1.27-.07-1.12-.38-4.07-2.07-4.25-2.1l-.66-.11c.35.88 1.6 4.51 1.39 5.71l-3.77 22.1002c-.628 1.792-1.607 3.441-2.88 4.85l.35.06c.49.08 2.93-.05 3.62-.07l2.11.5c1.43.446 2.833.977 4.2 1.59-.76-1.69-1.43-3.67-1.17-5.18l3.83-22.4502zm18.41 5.6201c2 .45 2.81 1.4699 2.83 2.1699.133 1.21.511 2.3802 1.11 3.4401.126-.5199.17-1.0565.13-1.59l1.62-5.26c.572-1.3649 1.213-2.6999 1.92-4v-.18c-1.184.4342-2.467.5243-3.7.26-1.263-.3779-2.478-.9014-3.62-1.5601-1.167-.5378-2.392-.9404-3.65-1.1999-.715-.194-1.45-.3014-2.19-.32-2-.1-2.43.1399-3.75-.1601-1.153-.4879-2.231-1.1378-3.2-1.93.147 1.6707.06 3.3537-.26 5-.13.9529-.314 1.8977-.55 2.8301-.26 1.14-.57 2.5-.89 4.09 1.085-.7737 2.011-1.7479 2.73-2.87.364-.4827.871-.8389 1.449-1.0183.578-.1794 1.197-.173 1.771.0183.57.13.4 1.29.28 2l-4.87 19.1101c-.49 2-3.54 2.79-5.18 4.49 2.362-.162 4.733-.128 7.09.1.18 0 1.46.47 2.56.9 1.578.798 3.078 1.742 4.48 2.82l.2.14c-.62-1.71-2.72-5.47-2.35-7.09l.83-3.64c.52-2.28 1.51-5.0001 2.52-9.4401l.09-.39c.075-.3757.119-.7571.13-1.14l.65-2.86c.19-.83.86-2.94 1.82-2.72zm24.429-.9201c-.43-.13-3.85-.47-5.25-.65l-1-.3-5.3-2.73c.14 1.45 1.09 1.72.84 3.39l-.09.3c-.19.65-.58 1.33-.69 1.72-.28.95-10.67 20.6902-10.77 20.8502-.984 1.533-2.367 2.771-4 3.58l-.3.24 1 .15h1.11c.304.01.604.067.89.17l2.66.69c.62.27 2.76 2.73 3 2.79l.43.13c-.38-.95-.86-1.56-.8-2.39.07-.55-.11-1.39 0-1.88l.37-1.58c.33-.8.64-2.2 1.81-1.86l4.66 1.37c.27.21-.3 4.88-.43 5.31-.159.261-.302.532-.43.81-.327.873-.743 1.711-1.24 2.5.09-.16 1-.17 3.23.48l1 .29c.812.231 1.604.526 2.37.88.906.347 1.745.848 2.48 1.48-.93-2.76-.67-7.65-.44-10.17l1.87-21.7302.46-1.22c.23-.64 2.68-2.26 2.78-2.61l-.22-.01zm-11.12 20.9402l-.12.39-4.27-1.33c-.029-.007-.057-.02-.081-.038s-.043-.041-.058-.068c-.014-.026-.022-.056-.024-.086-.002-.03.003-.06.013-.088l5.59-10.6002c.17 1.4-.93 11.3402-1.05 11.7702v.05zM57.0527 121.11c-2 0-3.36-1.47-3.36-4.15 0-2.68 1.39-4.14 3.36-4.14.6508-.031 1.2907.175 1.8016.58.5109.404.8584.979.9784 1.62l.91-.27c-.1996-.82-.6754-1.546-1.3475-2.056-.6721-.51-1.4994-.773-2.3425-.744-2.2 0-4.33 1.61-4.33 5 0 3.39 2.11 5 4.33 5 .844.027 1.6718-.236 2.3451-.746.6734-.509 1.1516-1.235 1.3549-2.054l-.92-.27c-.1115.647-.4557 1.231-.9678 1.641-.512.411-1.1566.62-1.8122.589zm13.74-9.16c-2.29 0-4.3 1.9-4.3 5s2 5 4.31 5c2.31 0 4.3-1.9 4.3-5s-2.01-5.01-4.31-5zm0 9.16c-1.84 0-3.34-1.4-3.34-4.15 0-2.75 1.5-4.15 3.33-4.15s3.34 1.4 3.34 4.15c0 2.75-1.46 4.15-3.32 4.15h-.01zm14.4099-.01c-2 0-3.36-1.47-3.36-4.14s1.4-4.15 3.36-4.15c.652-.031 1.2932.175 1.8058.579.5126.404.862.98.9842 1.621l.91-.27c-.1999-.822-.6772-1.549-1.3514-2.059-.6741-.51-1.5038-.772-2.3486-.741-2.2 0-4.33 1.61-4.33 5 0 3.39 2.12 5 4.33 5 .8448.031 1.6745-.231 2.3486-.741.6742-.51 1.1515-1.238 1.3514-2.059l-.91-.27c-.1137.648-.4599 1.231-.9736 1.642-.5137.411-1.1596.62-1.8164.588zm15.9004-9.05h-1.1704l-3.83 4.19v-4.19h-.92v9.81h.93l-.01-5.2 4.2204 5.19h1.14l-4.3704-5.4 4.0104-4.4zm5.32.87h2.93v8.93h.92v-8.93l2.93-.01v-.86h-6.78v.87zm14.03-.87l-3.54 9.8h1l1-2.79h4l1 2.79h1l-3.55-9.8h-.91zm-1.31 6.15l1.72-4.89 1.72 4.88-3.44.01zm12.2-6.16h-.92v9.81h.92v-9.81zm7.77 0h-.92v9.81h5.52v-.87h-4.59l-.01-8.94zm13.55 4.21c-1.08-.49-2.06-1-2.06-2.11-.002-.184.034-.366.106-.535.072-.169.177-.322.31-.449.134-.126.291-.224.464-.287.173-.063.356-.09.54-.079.354-.009.701.094.992.296.292.201.511.49.628.824l.76-.47c-.182-.474-.511-.877-.94-1.149-.429-.272-.934-.399-1.44-.361-.306-.014-.611.035-.898.144-.286.109-.547.276-.766.489-.219.214-.392.47-.509.754-.116.283-.173.587-.167.893 0 1.37 1 2.11 2.15 2.66 1.15.55 2.13 1 2.13 2.31.029.245.004.493-.072.728s-.202.45-.369.632c-.167.181-.372.324-.599.419-.228.095-.474.14-.72.131-1.36 0-2-1-2.27-2.26l-.8.48c.11.736.48 1.408 1.043 1.894.564.486 1.283.755 2.027.756.368.007.734-.061 1.074-.202.341-.14.649-.349.905-.613.256-.265.455-.58.584-.925.129-.344.186-.712.167-1.08-.05-1.51-1.04-2.31-2.27-2.89z"/><path d="M92.3128 15.0499l-8.7-1.36 6.81 5.24 1.89-3.88zm5.1898-4.6901l-7.32-4.89996 3.98 7.61996 3.34-2.72zm6.6904-2.07991L99.6025.759888l.4105 8.580002 4.18-1.06zm7.06-7.650007l-4.12 7.529997 4.12 1.28V.629883zm9.69 4.589967l-6.91 5.09995 3.2 2.89 3.71-7.98995zm-.32 13.99005l6.81-5.58-8.44 1.59 1.63 3.99z"/><path d="M192.432 43.7099c3.41-3.69 3.21-8.87 2.62-11.1-.18-.68-.3-1.31-.42-1.89-.54-2.65-.93-4.57-4.87-5.41-.28-.06-.56-.11-.85-.15-.829-.0272-1.626-.3258-2.27-.85-.198-.2361-.379-.4868-.54-.75-.183-.3937-.463-.7352-.812-.9937-.349-.2584-.757-.4256-1.188-.4863-.76-.1-1.52-.16-2.29-.21h-.46c-.775-.4095-1.577-.767-2.4-1.07-1.697-.4289-3.488-.2776-5.09.43 1.12-1.13 2.36-2.4 2.79-3 .346-.465.764-.8703 1.24-1.2.11-.0605.192-.1607.23-.28l.05-.18c.024-.082.03-.1681.018-.2526-.012-.0845-.042-.1654-.088-.2374-.2-.26-.51-.27-1-.27-.236.014-.473.014-.71 0-.75-.08-1.92.29-3.8 1.23.68-1.71 1.67-4.5 1.73-4.7v-.14c.076-.1348.106-.2901.086-.4432-.02-.153-.089-.2956-.196-.4068-.33-.29-.77-.09-1.28.15-1.776 1.2874-3.485 2.666-5.12 4.13-.32-1.66-1.11-4.93-1.62-5.12-.086-.0317-.179-.0391-.269-.0215-.09.0176-.173.0597-.241.1215-.086.0902-.143.2039-.164.3268-.022.1228-.006.2492.044.3632-.051 1.0822-.309 2.1447-.76 3.13-.78-.8136-1.656-1.5289-2.61-2.13-.599-.2532-1.24-.3923-1.89-.41h-.6c-.38-.76-.59-1-.95-1-.109.0119-.212.055-.297.1242-.085.0692-.149.1615-.183.2658-.04.2074-.057.4188-.05.63-1.15.157-2.322-.0383-3.36-.56-2.19-1.34-4.65-.78-7 .17.26-1.1727.19-2.39414-.2-3.53002-.097-.18763-.241-.34631-.42-.46.142-.14263.253-.31319.325-.50084.072-.18765.105-.38828.095-.58916.034-.15833.031-.3223-.008-.47932-.04-.15701-.114-.30291-.219-.4265-.105-.12358-.236-.22157-.384-.28645-.149-.06488-.31-.09492-.472-.08782-.161.0071-.319.05115-.461.12878-.143.07763-.265.18677-.358.31904-.094.13228-.155.28417-.181.44404-.026.15987-.014.32346.033.47823 0 .20852.044.41473.13.60456.087.18983.213.35882.37.49544-.168.10881-.307.25645-.407.43049-.099.17403-.155.36935-.163.56951-.08.66-.3 3.52002-.69 4.13002-.058.0838-.121.1639-.19.24l-1 .43h-.09s-.26-7.63002-.33-9.35002c-.07-1.72-3.06-1.74-3.09-.12-.03 1.62.17 6.56002.17 6.56002s-1.12 0-1.44-1.61002c-.32-1.61-.27-2.92-.58-3.26l-.13-.1c.169-.3554.248-.74689.23-1.14 0-1-.63-1.77-1.31-1.74-.68.03-1.21.85-1.17 1.84.011.44031.15.86798.4 1.23-.044.09447-.071.19605-.08.3-.089 1.55062.128 3.10369.64 4.57002.194.5257.509.9977.922 1.3769.412.3791.908.6545 1.448.8031l1.06.16.08 1.53c-1.58.51-3.11 1.11-4.71 1.73-4.68 1.82-9.53 3.7-16.42 3.71-.991-2.8028-2.836-5.224-5.276-6.9229-2.44-1.6988-5.351-2.5897-8.324-2.5471-2.949.0071-5.8263.9096-8.2513 2.5882-2.425 1.6785-4.2831 4.0539-5.3283 6.8118-6.9 0-12-1.88-16.65-3.7-1.6-.62-3.13-1.22-4.71-1.73l.08-1.53 1.07-.16c.5385-.1493 1.0336-.425 1.4441-.8042.4105-.3791.7245-.8508.9159-1.3758.5123-1.46633.7298-3.0194.64-4.57002-.0086-.10395-.0357-.20553-.08-.3.2509-.36202.39-.78969.4-1.23 0-1-.48-1.82-1.17-1.84-.6899-.02-1.27.75-1.36 1.74-.0148.39394.0676.78548.24 1.14-.0486.02579-.0925.0596-.13.1-.32.34-.27 1.66-.59 3.26-.32 1.60002-1.43 1.61002-1.43 1.61002s.2-4.94002.16-6.56002c-.04-1.62-2.9999-1.59-3.0899.12-.09 1.71-.33 9.35002-.33 9.35002h-.0901l-1-.43c-.0715-.0758-.1383-.156-.2-.24-.3899-.61-.61-3.47002-.69-4.13002-.0079-.20016-.0638-.39548-.163-.56951-.0992-.17404-.2388-.32168-.407-.43049.1595-.13408.2883-.30071.378-.48872.0897-.188.1381-.39302.1421-.60128.051-.15685.0651-.32338.0411-.48658-.024-.16319-.0854-.31863-.1794-.45418-.094-.13554-.218-.24752-.3624-.32719-.1445-.07967-.3054-.12487-.4702-.13207-.1647-.0072-.329.02379-.4798.09056s-.2842.16751-.3896.29434c-.1055.12683-.1802.27633-.2183.43681-.0381.16048-.0386.3276-.0014.48831-.0147.19802.0114.39695.0768.58444.0654.1875.1686.35957.3031.50556-.178.11369-.3229.27237-.42.46-.3763 1.1428-.4351 2.36642-.17 3.54002-2.35-1-4.81-1.51002-7-.17-1.0576.5266-2.2496.7218-3.42.56.0004-.1817-.0197-.3628-.06-.54-.0339-.1043-.0973-.1966-.1825-.2658-.0851-.0692-.1884-.1123-.2975-.1242-.34 0-.5.15-.84.87h-.63c-.6533.0167-1.2978.1558-1.9.41-.9281.5795-1.7813 1.2714-2.54 2.06-.4135-.9579-.6377-1.9869-.66-3.03.0506-.114.0661-.2404.0448-.3632-.0214-.1229-.0787-.2366-.1648-.3268-.0676-.0618-.151-.1039-.2409-.1215-.09-.0176-.183-.0102-.2691.0215-.55.17-1.37 3.56-1.67 5.17-1.6728-1.4969-3.4254-2.9023-5.25-4.21-.51-.24-1-.44-1.28-.15-.1017.1142-.1666.2563-.1862.408-.0196.1516.0069.3057.0762.442v.14c.06.2 1 3 1.73 4.7-1.88-.94-3-1.31-3.8-1.23-.2364.014-.4735.014-.71 0-.46 0-.77 0-1 .27-.0494.0703-.0823.151-.0961.2358-.0139.0849-.0083.1718.0161.2542v.18c.0381.1193.1204.2195.23.28.4785.3266.8979.7324 1.24 1.2.43.57 1.67 1.84 2.79 3-1.601-.7076-3.3929-.8589-5.09-.43-.8278.3026-1.6331.6635-2.41 1.08h-.44c-.77.05-1.54.11-2.3.21-.4302.0607-.8384.2279-1.1877.4863-.3492.2585-.6284.6-.8123.9937-.1572.2632-.3344.5139-.53.75-.6481.5223-1.448.8206-2.28.85-.29 0-.57.09-.85.15-3.94.84-4.33 2.76-4.87 5.41-.11.58-.24 1.21-.42 1.89-.59 2.23-.79 7.41 2.62 11.1.0402.039.0878.0696.14.09-.2936 1.2779-.408 2.5905-.34 3.9.0077.1273.0637.2469.1567.3343.0929.0874.2158.1359.3433.1357.0718.0162.1462.0164.218.0006.0718-.0159.1393-.0473.1975-.0922.0583-.0449.1059-.1021.1395-.1675.0337-.0654.0524-.1374.055-.2109-.1019-1.7294.1499-3.4613.74-5.09.0612.134.1458.2559.25.36.2206.2162.5043.3563.81.4.2155.4459.5652.813 1 1.05 1.3746.7813 2.9289 1.1914 4.51 1.19.7301.04 1.4606-.0678 2.148-.3169.6873-.2492 1.3173-.6346 1.852-1.1331.538-.5405.9614-1.184 1.2449-1.8919.2835-.7079.4213-1.4657.4051-2.2281-.1182-2.0388-1.0213-3.9527-2.52-5.34-.0426-.2668-.1747-.5112-.3746-.6929-.1999-.1818-.4557-.2901-.7254-.3071-.0919-.2486-.2554-.4644-.47-.62-.3505-.2316-.7748-.3243-1.19-.26 1.6-2 3.6-4.41 5.62-5.52 1.3193-.597 2.7223-.9882 4.16-1.16l3 1.63c-.6635-.0793-1.3328-.0994-2-.06l-.92.08s-5 .53-5.32 1.67c-.0236.0902-.0268.1846-.0095.2762.0173.0917.0547.1783.1095.2538.24.29.59.24 1.36.15 1.1942-.2099 2.4159-.2099 3.61 0 .63.14 1.38.29 2.14.43-.5775.2334-1.133.5178-1.66.85-1.2209.7619-2.3901 1.6038-3.5 2.52-.4105.3923-.8712.7285-1.37 1-.69.31-.56.75-.5.88.15.34.66.45 1.2.45.5153-.0005 1.0277-.078 1.52-.23.26-.11.53-.21.88-.33.55-.2 1.26-.45 2.32-.89 1.1255-.3897 2.294-.6415 3.48-.75-.414.3002-.802.6347-1.16 1-.74.75-3.56 4-3.32 4.94.0329.0933.0857.1783.1548.2492.0691.0708.1528.1257.2452.1608.0498.0066.1003.0066.15 0 .37 0 1.34-.47 5.72-4.3.9631-.7247 2.0192-1.3167 3.14-1.76l.13-.06c.42 1.16.68 1.39 1 1.4.1021-.0025.2014-.0339.2864-.0906.0849-.0566.1521-.1362.1936-.2294.194-.6074.3542-1.225.48-1.85.21 0 .47 0 .77-.09 1.07-.18 2.36-1.72 2.72-2.34.0323-.0667.0559-.1373.07-.21.4109-.2608.802-.5516 1.17-.87.5595-.5424 1.2049-.9884 1.91-1.32.74-.3 1.67-.63 2.49-.92 1.55-.56 1.9001-.69 2.07-.88.0771-.1023.1188-.2269.1188-.355s-.0417-.2527-.1188-.355c-.6018-.461-1.3043-.7728-2.05-.91.1-.24.23-.59.43-1.12.3994-1.0921.8533-2.1635 1.3601-3.21 2.5676-.3904 5.1631-.5676 7.7599-.53 4.4139.0067 8.7846.8693 12.87 2.54-1.46.3-2.95.63-4.48 1-2.61.61-5.2299 1.35-7.7699 2.19-.126.0424-.23.1332-.2891.2522-.059.1191-.0684.2568-.026.3828.0425.126.1332.2299.2523.289.1191.0591.2568.0684.3828.026 2.5099-.84 5.1-1.56 7.68-2.16 11.41-2.65 20.9399-3.89 29.9995-3.89 10.548-.0473 21.052 1.3695 31.21 4.21 2.29.65 4.39 1.27 6.24 1.85h.15c.112-.0054.219-.049.303-.1237.084-.0746.139-.1757.157-.2863.041-.126.031-.2631-.029-.3812-.06-.1182-.165-.2076-.291-.2488-1.86-.57-4-1.2-6.27-1.85-1.88-.54-3.79-1-5.72-1.44 4.81-2.08 8.49-2.22 12.58-2.38 2.65-.0221 5.298.1584 7.92.54.5 1 1 2.35 1.33 3.16.2.53.33.88.44 1.12-.749.1357-1.455.4476-2.06.91-.072.1041-.111.228-.111.355 0 .127.039.2509.111.355.17.19.52.32 2.08.88.81.29 1.74.62 2.48.92.698.3143 1.34.7398 1.9 1.26.371.3153.762.6059 1.17.87.023.0716.049.1417.08.21.35.62 1.64 2.16 2.71 2.34.3 0 .56.08.77.09.12.6275.283 1.2457.49 1.85.041.094.108.1742.193.231.085.0568.185.0877.287.089.33 0 .58-.24 1-1.4.046.0139.09.0341.13.06 1.123.4454 2.183 1.0372 3.15 1.76 4.37 3.83 5.34 4.3 5.71 4.3.05.0066.101.0066.15 0 .094-.0333.179-.0875.248-.1586s.122-.1571.152-.2514c.24-.93-2.58-4.19-3.32-4.94-.354-.3653-.739-.6998-1.15-1 1.183.1084 2.348.3602 3.47.75 1.07.44 1.78.69 2.32.89.35.12.63.22.88.33.493.152 1.005.2295 1.52.23.54 0 1.06-.11 1.21-.45 0-.13.18-.57-.51-.88-.497-.274-.957-.61-1.37-1-1.107-.9143-2.273-1.7561-3.49-2.52-.524-.33-1.076-.6144-1.65-.85.76-.14 1.5-.29 2.12-.43 1.195-.2099 2.416-.2099 3.61 0 .77.09 1.12.14 1.36-.15.057-.0746.096-.1609.115-.2526.019-.0917.018-.1865-.005-.2774-.35-1.14-5.28-1.67-5.33-1.67l-.92-.08c-.667-.0402-1.336-.0201-2 .06l3-1.63c1.435.172 2.835.5633 4.15 1.16 2 1.11 4 3.49 5.62 5.52-.415-.0643-.839.0284-1.19.26-.214.1556-.378.3714-.47.62-.281.0202-.547.1399-.748.3378-.202.1978-.326.4609-.352.7422-1.486 1.3857-2.382 3.2911-2.5 5.32-.016.7633.122 1.5221.408 2.2303.285.7082.711 1.3511 1.252 1.8897.534.5004 1.164.8871 1.851 1.1364.688.2492 1.419.3559 2.149.3136 1.582.0028 3.136-.4074 4.51-1.19.438-.2336.788-.6018 1-1.05.306-.0437.59-.1838.81-.4.108-.1074.196-.2325.26-.37.615 1.6477.883 3.404.79 5.16-.002.1319.046.2598.136.3568.089.0969.213.1554.344.1632.128.0002.251-.0483.344-.1357.093-.0874.149-.207.156-.3343.066-1.3089-.045-2.6208-.33-3.9.045-.0136.086-.0376.12-.07zm-13.77-22c.926.3641 1.83.778 2.71 1.24-1.564.0803-3.118.308-4.64.68-.51.2-1.54.72-2.71 1.33-.074.0015-.147.0204-.213.0551s-.123.0843-.167.1449c-1.19.63-2.47 1.32-3.43 1.85l-1.3.7-1.75.65-.52-.22c1-.94 2.17-2.05 3.05-2.89.88-.84 1.51-1.4 1.95-1.83h.07l.53-.29c1.22-.72 3.77-2.17 6.42-1.42zm-2.35-5h.27c-.267.2534-.515.5276-.74.82-.48.64-2.22 2.41-3.38 3.57l-1.09 1.11c-.24.26-1.22 1.18-2.36 2.25-1.54 1.44-2.66 2.49-3.44 3.25-.412-.0804-.837-.0599-1.24.06v-.12c-.28-.5137-.704-.9343-1.22-1.21.46-.49 1-1.08 1.49-1.55.81-.82 1.56-1.59 1.95-2.09.214-.1492.415-.3165.6-.5 1.522-1.5054 3.198-2.8461 5-4 2.15-1.09 3.51-1.62 4.15-1.55l.01-.04zm-3.08-4.29c-.46 1.34-1.78 4.85-2 5.2v.09c-1.266.8315-2.46 1.7681-3.57 2.8.342-1.229.461-2.5092.35-3.78 1.663-1.5116 3.402-2.9369 5.21-4.27l.01-.04zm-7 .76c.301 1.0535.532 2.1259.69 3.21.206 1.6745-.028 3.3737-.68 4.93-.123.2857-.278.5573-.46.81-.32.43-1.15 1.28-1.95 2.1l-1.06 1.09c.34-2.33.33-2.36.32-2.37v-.32c.246-1.4352.635-2.8422 1.16-4.2l.28-.68c.75-1.78 1.36-3.33 1.72-4.53l-.02-.04zm-4.42 0c.933.6518 1.8 1.3918 2.59 2.21-.28.72-.56 1.43-.8 2l-.27.68c-.245.5972-.455 1.2082-.63 1.83-.369-1.7171-.912-3.3924-1.62-5-.35-.69-.68-1.43-.95-2h.14c.534-.001 1.063.0974 1.56.29l-.02-.01zm-2.93 11c-.249-1.2749-.607-2.5262-1.07-3.74-.23-.53-.86-2-1-2.36-.009-.0898-.009-.1803 0-.27-.024-.434-.189-.8482-.47-1.18-.23-.33-.49-.73-.73-1.11.21.18.42.35.59.51.49.42.95.82 1.27 1.07.606.5617 1.09 1.2426 1.42 2 .02 1.58.02 3.53.01 5.11l-.02-.03zm-106.6595-.13v-5c.3457-.7305.8355-1.3835 1.4399-1.92.32-.25.78-.65 1.27-1.07.17-.16.3801-.33.59-.51-.24.38-.5.78-.73 1.11-.2807.3318-.4457.746-.47 1.18.0146.0894.0146.1806 0 .27-.13.37-.7599 1.83-1 2.37-.4664 1.1569-.8343 2.3512-1.0999 3.57zm-3-10.86c.4873-.2108 1.0094-.3294 1.5399-.35h.19c-.2799.62-.61 1.37-1 2.07-.6973 1.5915-1.23 3.2501-1.59 4.95-.165-.6001-.3619-1.1909-.59-1.77l-.27-.67c-.25-.61-.54-1.35-.83-2.09.7916-.796 1.6591-1.5127 2.59-2.14h-.0399zm-5.0001 3.24c.154-1.085.3845-2.1577.69-3.21.35 1.2 1 2.76 1.7 4.58l.27.67c.496 1.2574.8678 2.5602 1.1101 3.89-.0124.1898-.0124.3802 0 .57.04.7898.1403 1.5754.2999 2.35-.2799-.3-.6-.63-1-1-.8-.82-1.63-1.67-2-2.1-.182-.2527-.3362-.5243-.46-.81-.6291-1.5658-.8293-3.2711-.58-4.94h-.03zm-1.07.4c-.0608 1.287.112 2.5745.51 3.8-1.1481-1.0839-2.3895-2.0643-3.71-2.93v-.07c-.23-.36-1.54-3.87-2-5.21 1.8237 1.372 3.5697 2.8443 5.23 4.41h-.03zm-8.66-.05h.27c.64-.07 2 .46 4.16 1.59 1.8003 1.1571 3.4759 2.4976 5 4 .2082.2421.4634.4394.75.58.41.5 1.12 1.23 1.89 2 .44.45 1 1 1.45 1.51-.5364.2824-.9806.7127-1.28 1.24v.12c-.4024-.1199-.8278-.1404-1.24-.06-.78-.76-1.89-1.81-3.45-3.26-1.13-1.06-2.11-2-2.35-2.24-.24-.24-.6-.62-1.09-1.1-1.15-1.17-2.9-2.94-3.38-3.58-.2101-.2861-.4443-.5537-.7-.8h-.03zm-2.08 4.93c2.65-.75 5.19.7 6.42 1.4l.53.29h.07l1.94 1.83c.89.83 2.09 1.95 3.06 2.89l-.52.22-1.72-.64-1.32-.71c-2-1.11-5.46-3-6.53-3.38-1.5185-.3714-3.0687-.5991-4.63-.68.8873-.4558 1.7986-.863 2.73-1.22h-.03zm-12.07 13.65c-.0279-.1637.0079-.3319.1-.47.0127-.02.0306-.0361.0517-.0467.0212-.0106.0448-.0152.0683-.0133.1196.0023.2362-.0375.3295-.1124.0932-.075.1571-.1803.1805-.2976.0078-.1117.0395-.2204.093-.3188.0535-.0983.1275-.184.217-.2512.0424-.0131.0877-.0131.13 0 .0538.0383.1146.0657.179.0804.0643.0148.131.0166.1961.0055.065-.0112.1273-.0351.183-.0705.0558-.0353.1041-.0813.1419-.1354l.06-.06c-.06.1-.12.2-.17.3l-.14.27c-.1715.3934-.4082.7552-.7 1.07-.2732.2293-.5759.421-.9.57-.2133.1066-.4233.2266-.63.36.0201-.0523.051-.0998.0906-.1395.0396-.0396.0871-.0704.1394-.0905.1292-.0331.2403-.1155.3095-.2296.0691-.114.0909-.2506.0605-.3804l.01-.04zm10.13 1.64c-.4778.277-.8345.723-1 1.25-.0704.1865-.1305.3768-.18.57-.0717.3063-.1826.602-.33.88l-.1.14c.0628-.2969.1063-.5975.13-.9v-.21c.0068-.479.0982-.9529.27-1.4.17-.35.55-.68.9-.61h.11l.2.28zm.91 2.7c-.1292.0175-.2465.0848-.3268.1875-.0804.1028-.1174.2328-.1032.3625 0 .06-.07.19-.22.31-.0725.059-.1494.1124-.23.16l-.08.06v-.28c-.0157-.1061-.0157-.2139 0-.32.05-.21.31-.4.59-.6l.32-.25c.03.12.04.3.05.37zm-8.61 3.81v-.18c-.0726-.5628.0016-1.1349.2153-1.6605.2138-.5257.5599-.9871 1.0047-1.3395.2817-.1864.5757-.3535.88-.5l.29-.2c-.138.4223-.2482.8532-.33 1.29-.0454.3043-.1122.6051-.2.9-.22.79-.75 1.6-1.46 1.63-.107.0078-.2087.0499-.29.12l-.11-.06zm-1.77-2.33c-.0759-.0491-.1645-.0752-.255-.0752-.0904 0-.179.0261-.255.0752-.1423-.0402-.2639-.1332-.34-.26.0928-.0588.1636-.1465.2015-.2495.038-.103.041-.2156.0085-.3205-.0325-.2001-.0085-.4054.0692-.5926.0778-.1873.2062-.3491.3708-.4674.3723-.2708.7837-.4832 1.22-.63l.28-.12c.16-.06.32-.14.49-.22l-.18.53-.18.56c-.16.49-.62 1.54-1.43 1.77zm-1.26-3.62c.2746-.3771.6535-.6657 1.09-.83l.36-.2c-.06.13-.11.26-.16.39l-.18.46c-.11.24-.48 1-1 1.11-.2046-.1637-.346-.3935-.4-.65-.0038-.0165-.0038-.0336 0-.05.1231-.0358.2272-.1184.29-.23zm7.15-3c-.3292.4237-.7685.7489-1.27.94l-.24.1c-.3.14-.6.28-.89.45.05-.19.1-.38.17-.57.1771-.4307.4661-.8061.8371-1.0875.371-.2813.8105-.4583 1.2729-.5125.094.0764.1576.1838.1796.3029.022.1191.0009.2421-.0596.3471v.03zm-3.73 2.23c-.3249.3991-.7593.6945-1.25.85l-.11.05c.06-.14.11-.27.16-.41.1294-.4878.3689-.9393.7-1.32.2359-.1884.4946-.3464.77-.47.0565-.024.1102-.0542.16-.09 0 .15-.09.29-.12.43-.0517.3344-.1564.6584-.31.96zm6.26 3.94v.07c-.0881.3717-.3131.6966-.63.91l-.14.13c.0758-.205.1765-.3998.3-.58.1089-.1369.2257-.2671.35-.39l.12-.14zm-2 1.76l-.11.43c-.12.38-.88.83-1.47 1.13-.1024-.2432-.1361-.5098-.0973-.7708s.1486-.5064.3173-.7092c.2921-.277.6306-.5004 1-.66.2307-.1096.4544-.2332.67-.37-.16.31-.24.63-.33.95h.02zm-2.67 1.21c.0149.2107.0552.4189.12.62l-.66-.17c.1949-.1232.3701-.2749.52-.45h.02zm2.69.55c.021.0895.0512.1766.09.26-.1731.0102-.3468.0102-.52 0 .1412-.0794.278-.1662.41-.26h.02zm1.06-.08c-.17-.15-.13-.52 0-.76.1974-.2848.4407-.5349.72-.74l.23-.19-.06.38c0 .37-.13.82-.4 1-.1087.0826-.1805.2048-.2.34-.0647.0341-.1315.0642-.2.09-.0308-.045-.0678-.0854-.11-.12h.02zm2.54-6c0 .21-.29.4-.58.61l-.09.07c.0207-.0852.0474-.1687.08-.25.0832-.283.2593-.5296.5-.7l.09.27zm-3 .53v.2c.0032.5124-.139 1.0151-.41 1.45-.2843.3016-.6238.5459-1 .72-.2897.1401-.5673.304-.83.49 0-.13.06-.26.09-.39.0767-.6072.2594-1.1962.54-1.74.4552-.6228 1.0382-1.1411 1.71-1.52-.08.21-.1.48-.12.72l.02.07zm-2.38-.63c-.3597.3566-.7839.6416-1.25.84-.317.1542-.6243.3279-.92.52l.09-.25c.1606-.7399.5045-1.4276 1-2 .3784-.3115.8037-.5613 1.26-.74l.24-.11.37-.18-.09.32c-.1126.5784-.3516 1.1247-.7 1.6zm-2-3.81c-.1942.1288-.3982.2425-.61.34l-.2.1.13-.26c.1947-.4213.5164-.771.92-1 .0689-.0299.1299-.0752.1785-.1324.0485-.0572.0833-.1249.1015-.1976.0894-.0157.1807-.0157.27 0-.1167.4657-.3971.8739-.79 1.15zm-2.2 8.07c-.1155-.0095-.223-.0632-.3-.15.2512-.0565.4912-.1545.71-.29 0 .12-.05.24-.07.36h-.05c-.1091-.006-.2173.022-.31.08h.02zm8.93.66v-.09c-.0121-.375.0815-.7457.27-1.07.1077-.1082.2287-.2023.36-.28l.12-.08c-.1631.5488-.424 1.0637-.77 1.52h.02zm-1.15-7.57c-.4326.6722-1.0231 1.2284-1.72 1.62l-.37.26.15-.52c.05-.18.1-.36.16-.54.12-.39.48-1.31 1.18-1.43.0866-.0171.1665-.0588.23-.12.0522.1034.0861.215.1.33.0199.1015.0685.1953.14.27l.13.13zm3-9.16c-2.22 1.22-4.33 3.75-6 5.87-.3151-.0343-.6338.0068-.93.12-.0706-.0606-.1576-.0989-.25-.11-.2864-.1235-.5998-.171-.9099-.1377-.3101.0333-.6064.1462-.8601.3277-.2936-.0758-.6023-.0703-.8929.016-.2907.0864-.5524.2502-.7571.474-.2076-.0194-.4168.0115-.61.09-.2099.092-.3968.2294-.5472.4023-.1505.1729-.2607.377-.3228.5977-.2027.0704-.3801.1991-.51.37-.2007.2623-.3159.58-.33.91-.2745.1884-.4786.4628-.58.78-.1127.3238-.1127.6762 0 1-.2117.2341-.3355.5346-.35.85.0083.4206.1722.8232.46 1.13-.1157.2396-.1707.5041-.16.77.0121.269.1142.5261.29.73-.0229.2272.0056.4567.0835.6713.0779.2147.2032.4091.3665.5687-.13.32-.26.64-.37 1-1.0456-1.3802-1.7741-2.974-2.1337-4.6679-.3595-1.6939-.3411-3.4462.0537-5.1321.18-.7.31-1.35.44-2 .51-2.54.79-3.93 4.09-4.63.26-.06.53-.1.8-.15 1.06-.0478 2.0706-.4612 2.86-1.17.2354-.2708.4462-.5619.63-.87.38-.59.61-.95 1.3-1h.42c-.0538.0827-.0752.1824-.06.28 0 .45.11.45 1.92.62 1.5519.084 3.094.2981 4.61.64.3.11.83.37 1.47.69-1.1153.1571-2.2007.4807-3.22.96zm4.73 2.77c-.4901-.1069-.9887-.1705-1.49-.19.49-.08 1-.16 1.61-.22l.89-.07c1.5183-.0603 3.0352.1497 4.48.62-.0237.0344-.0438.0713-.06.11 0 .18-.05.26.15.49-.36 0-.76 0-1.2.05-1.2-.19-2.84-.43-4.38-.79zm5.69 3.72c-1.7804.1217-3.5398.4574-5.24 1-1 .44-1.73.69-2.26.88l-1 .35c-.1313.0521-.2693.0857-.41.1l.59-.47c1.0805-.8907 2.2161-1.7124 3.4-2.46 1.0751-.7003 2.2964-1.145 3.57-1.3.6405.1105 1.2922.1407 1.94.09.1198-.0115.2403-.0115.36 0l1.1 1.16c-.495.1858-.9791.3994-1.45.64l-.6.01zm-.24 2.47c-1.55 1.35-3 2.54-3.95 3.27.6957-1.0166 1.4751-1.9733 2.33-2.86 1.3359-1.2308 2.9172-2.1646 4.64-2.74l.35.43c-1.2175.4757-2.3647 1.1149-3.41 1.9h.04zm5.41-6.73l-.17.43c-.3496 1.3267-.448 2.7071-.29 4.07-.0148.2402-.055.4782-.12.71-.29-.82-1.88-2.48-3.34-4l-.13-.14c.46-.21 1.12-.51 1.74-.72.2165-.0898.4514-.1257.6848-.1048.2334.0209.4582.098.6552.2248.0696.0534.1519.0875.2388.099.0869.0115.1753 0 .2564-.0334.081-.0334.1518-.0876.2053-.157.0536-.0695.0879-.1517.0995-.2386.0329-.1866.0797-.3704.14-.55.0999-.157.233-.2902.39-.39l-.36.8zm3.12 2c-.3199.56-1.4199 1.75-2 1.85l-.59.08c-.105-1.0322-.0272-2.0749.23-3.08l.18-.44c.16-.4.33-.8.48-1.12.05.44.45.86 1.1 1.49.2094.1836.4065.3806.59.59.0405.0941.0588.1962.0536.2985-.0052.1022-.0338.202-.0836.2915l.04.04zm-.75-2.86c-.0148-.1329-.0148-.2671 0-.4.0599-.2734.0599-.5566 0-.83-.0385-.1232-.1087-.2342-.2034-.3219-.0947-.0877-.2107-.1491-.3366-.1781-.086-.0152-.1739-.0152-.2599 0-.2001-1.33-.4101-2.77-.4201-2.89-.0099-.12 0-.5 0-1.08.3775-2.257 1.0081-4.4643 1.88-6.58.32-.61.6101-1.26.87-1.84-.0154.8062-.1227 1.6081-.32 2.39-.2599.72-.27 5-.22 11.12v1.46c-.0199.0821-.0199.1678 0 .25l-.28-.28c-.2643-.2481-.5022-.5229-.71-.82zm6.87-.91c-.83.3-1.77.63-2.53.95-.7908.3513-1.5201.8273-2.1599 1.41l-.2401.2c.27-.55.56-1.13.77-1.52.378-.5458.9325-.9449 1.57-1.13.3-.13.63-.28 1-.47.2256-.1029.4724-.1509.72-.14.6295.0292 1.2505.1575 1.84.38l-.97.32zm-.12-3c-.2099.55-.45 1.17-.54 1.32-.4861-.0443-.9754.0384-1.4199.24-.3301.18-.6301.31-.9201.44-.4608.1907-.8972.4357-1.3.73 0-.28.1-.57.16-.87.0509-.043.0948-.0936.1301-.15.8062-1.4472 1.8165-2.7708 3-3.93.6953-.489 1.4606-.87 2.2699-1.13-.5246 1.0889-.9854 2.2075-1.38 3.35zm3.19-4c.0671-.0709.1115-.1601.1275-.2563.016-.0962.003-.195-.0375-.2837-.0526-.115-.1469-.2057-.2638-.254-.1169-.0482-.2477-.0504-.3662-.006l-1 .34c-1.1146.3032-2.1696.7935-3.12 1.45-.7648.6339-1.4379 1.3709-2 2.19.1708-.6807.388-1.349.6501-2 0-.08.8499-2 1-2.44.0511-.169.0813-.3437.09-.52.0161-.2532.1184-.4931.2899-.68.732-.9994 1.3398-2.084 1.81-3.23.007-.1081-.0165-.216-.0678-.3115-.0512-.0954-.1282-.1746-.2222-.2285-.42-.22-.68-.05-2.85 1.84-.48.41-.93.8-1.24 1.05-.2684.2148-.5042.4674-.6999.75.0015-.2823.0317-.5638.0899-.84.2705-1.0928.4082-2.2143.4101-3.34 1.3538.1684 2.727-.0756 3.9399-.7 2-1.25 4.45-.5 6.85.55.1851.4367.4272.8469.72 1.22.3286.5169.8119.9169 1.3811 1.1432.5691.2262 1.1952.2671 1.789.1168 0 .25-.08 2.49-.1 4.1h-.3501c-2.2812-.0456-4.563.0613-6.83.32v.02zm10.33-.16l.19-4.1c1.4701.48 2.9001 1 4.4001 1.62 4.7 1.83 9.7699 3.69 16.6899 3.76-3.24.41-6.62 1-10.16 1.67-3.4913-1.6685-7.2616-2.6755-11.12-2.97v.02zm22.36 1.17c.8968-2.696 2.6177-5.0421 4.9198-6.7072 2.3018-1.6652 5.0688-2.5651 7.9098-2.5728 2.833-.047 5.606.8208 7.906 2.4745 2.301 1.6538 4.006 4.0053 4.864 6.7055-4.241-.4568-8.504-.6872-12.77-.69-4.288.0123-8.572.276-12.8296.79zm27.4196.1c6.54-.18 11.25-2 15.78-3.75 1.5-.58 2.94-1.14 4.4-1.62l.23 4.07c-3.77.2202-7.458 1.189-10.85 2.85-3.15-.65-6.33-1.16-9.56-1.55zm31.24-1.93c-.111-.0356-.232-.0307-.34.0137-.109.0443-.198.1254-.253.229-.055.1037-.072.2232-.047.3379.024.1146.088.2171.18.2894-2.356-.31-4.733-.4437-7.11-.4h-.26c0-1.61-.13-3.87-.09-4.12.593.1511 1.218.1106 1.785-.1158.568-.2264 1.05-.627 1.375-1.1442.297-.3705.54-.7812.72-1.22 2.41-1.05 4.81-1.8 6.85-.55 1.203.6244 2.566.8685 3.91.7.035 1.114.192 2.2207.47 3.3.058.2968.091.5978.1.9-.212-.2875-.461-.5463-.74-.77-.31-.25-.76-.64-1.23-1.05-2.18-1.89-2.44-2.06-2.86-1.84-.092.0552-.167.135-.216.2303-.049.0954-.071.2026-.064.3097.468 1.1453 1.072 2.2299 1.8 3.23.172.1869.274.4268.29.68.009.1772.042.3524.1.52.16.48 1 2.36 1 2.43.262.6512.479 1.3194.65 2-.556-.8237-1.23-1.5616-2-2.19-.95-.6565-2.005-1.1468-3.12-1.45l-.9-.32zm2.65 4.82c-.4-1.1448-.871-2.2637-1.41-3.35.81.26 1.575.641 2.27 1.13 1.179 1.1633 2.189 2.4861 3 3.93.026.0571.068.1057.12.14.06.31.12.6.16.88-.402-.2943-.839-.5393-1.3-.73-.28-.13-.59-.26-.92-.44-.444-.2025-.933-.2852-1.42-.24-.05-.13-.28-.76-.5-1.32zm4.57 5.38c-.638-.5849-1.367-1.0612-2.16-1.41-.76-.32-1.7-.65-2.53-.95l-1-.34c.807-.3618 1.711-.4462 2.57-.24.35.19.68.34 1 .47.644.1833 1.201.5913 1.57 1.15.22.39.5 1 .77 1.51l-.22-.19zm1.1-.32c.05-.0917.071-.1963.06-.3v-1.46c.06-6.16 0-10.4-.22-11.12-.192-.7829-.299-1.5842-.32-2.39.26.57.56 1.23.87 1.84.877 2.1141 1.508 4.3219 1.88 6.58v.66c0 .19-.08.54-.09.56-.02.0786-.02.1613 0 .24-.08.56-.23 1.58-.37 2.54-.092-.02-.187-.02-.28 0-.127.0283-.244.0894-.341.177-.096.0877-.168.199-.209.323-.059.2734-.059.5566 0 .83.008.1199.008.2401 0 .36-.224.3323-.493.6319-.8.89l-.18.27zm3 3.6l-.6-.08c-.59-.1-1.68-1.29-2-1.85-.043-.0923-.066-.193-.066-.295 0-.102.023-.2028.066-.295.191-.2252.398-.4358.62-.63.65-.63 1.06-1.05 1.1-1.49.15.32.32.72.48 1.13l.18.43c.25 1.0065.318 2.0496.2 3.08h.02zm1.09 1.25c-.06-.2329-.1-.4704-.12-.71.164-1.3628.065-2.7442-.29-4.07l-.17-.43c-.13-.31-.24-.6-.35-.85.154.0966.284.2264.38.38.061.176.108.3566.14.54-.003.0956.022.1901.072.2719.049.0817.122.1471.208.1881.086.0399.18.0554.274.0448.093-.0106.182-.0469.256-.1048.205-.1206.436-.1891.673-.1995.237-.0105.473.0374.687.1395.62.21 1.28.51 1.74.72l-.13.14c-1.49 1.49-3.08 3.15-3.37 3.94zm8.76 4.86c-1-.73-2.4-1.92-3.95-3.27-1.035-.7918-2.172-1.441-3.38-1.93l.36-.43c1.712.5888 3.279 1.5328 4.6 2.77.869.8851 1.662 1.8419 2.37 2.86zm.68-6.36c1.184.7476 2.32 1.5693 3.4 2.46l.59.47c-.14-.0143-.278-.0479-.41-.1l-.94-.35c-.53-.19-1.23-.44-2.27-.88-1.7-.5434-3.459-.8792-5.24-1l-.64-.07c-.471-.2388-.955-.4524-1.45-.64.37-.41.76-.81 1.09-1.16.124-.0115.247-.0115.37 0 .645.0507 1.293.0205 1.93-.09 1.279.1731 2.501.6385 3.57 1.36zm-.83-3.6h.61l.88.07c.59.06 1.13.14 1.61.22-.498.0195-.993.0831-1.48.19-1.54.35-3.17.63-4.36.79-.408-.0401-.819-.0568-1.23-.05.2-.23.2-.31.15-.49-.014-.0397-.034-.0768-.06-.11 1.257-.3912 2.564-.6 3.88-.62zm6.34-2.27c-1-.4814-2.064-.8181-3.16-1 .6-.3 1.1-.54 1.39-.65 1.513-.3427 3.052-.5568 4.6-.64 1.81-.17 1.88-.17 1.93-.62.007-.0984-.017-.1963-.07-.28h.42c.69.08.92.44 1.3 1 .188.3057.398.5965.63.87.793.7109 1.807 1.1245 2.87 1.17.26 0 .53.09.79.15 3.3.7 3.59 2.09 4.1 4.63.12.6.25 1.25.43 2 .398 1.6858.418 3.4387.058 5.133-.359 1.6943-1.089 3.2881-2.138 4.667-.106-.3394-.229-.6732-.37-1 .168-.1569.295-.3509.373-.5663.079-.2154.105-.4462.077-.6737.181-.2013.283-.46.29-.73.011-.2659-.044-.5304-.16-.77.288-.3068.452-.7094.46-1.13-.004-.3156-.125-.6183-.34-.85.109-.3246.109-.6755 0-1-.097-.319-.302-.5945-.58-.78-.009-.3309-.125-.65-.33-.91-.129-.1709-.307-.2996-.51-.37-.061-.2194-.17-.4226-.319-.5954-.148-.1727-.333-.3109-.541-.4046-.192-.0826-.402-.1137-.61-.09-.205-.2256-.468-.3905-.761-.4769-.293-.0863-.604-.0909-.899-.0131-.253-.1815-.549-.2944-.86-.3277-.31-.0333-.623.0142-.91.1377-.092.0111-.179.0494-.25.11-.292-.1138-.608-.155-.92-.12-1.66-2.12-3.77-4.65-5.99-5.87zm9.81 13.17l-.18-.56-.18-.53c.17.08.34.16.5.22l.27.12c.439.1425.851.3552 1.22.63.167.1166.297.2783.375.466.078.1877.1.3938.065.594-.032.1074-.028.2224.012.3273.04.1048.113.1936.208.2527-.082.1101-.193.1964-.32.25-.078-.0467-.168-.0713-.26-.0713-.091 0-.181.0246-.26.0713-.82-.23-1.28-1.3-1.45-1.77zm-.45 4.2c-.077-.07-.175-.1122-.28-.12-.71 0-1.25-.84-1.47-1.63-.08-.29-.14-.59-.2-.89-.081-.44-.191-.8743-.33-1.3l.31.16c.307.1421.601.3093.88.5.445.3524.791.8138 1.005 1.3395.214.5256.288 1.0977.215 1.6605v.18l-.13.1zm-8.46-4.25l.32.25c.28.2.54.39.59.6.016.1061.016.2139 0 .32-.005.0932-.005.1867 0 .28l-.09-.06c-.08-.0476-.157-.101-.23-.16-.109-.0726-.187-.183-.22-.31.009-.0644.004-.1299-.013-.1926-.017-.0626-.046-.1212-.086-.1724-.04-.0512-.09-.0939-.147-.1257-.057-.0317-.119-.0519-.184-.0593.03-.12.04-.3.06-.42v.05zm.42-1.44c.242.172.421.4176.51.7.03.0815.053.1651.07.25l-.09-.07c-.29-.21-.54-.4-.58-.61l.09-.27zm.64-1.17h.1c.35-.07.73.26.9.61.172.4505.264.9278.27 1.41v.2c.024.3025.068.6031.13.9l-.1-.14c-.147-.278-.258-.5737-.33-.88 0-.19-.11-.39-.17-.57-.169-.5247-.525-.9693-1-1.25.059-.1146.126-.2248.2-.33v.05zm10-1c.07.1136.181.1959.31.23.053.0201.1.0509.14.0905.04.0397.07.0872.09.1395-.206-.1334-.416-.2534-.63-.36-.324-.149-.626-.3407-.9-.57-.291-.3148-.528-.6766-.7-1.07l-.14-.27c0-.1-.11-.2-.17-.3l.06.06c.037.0545.083.1012.138.1374.054.0362.116.0611.18.0732.064.0121.13.0112.194-.0026.064-.0139.125-.0404.178-.078h.15c.09.0672.164.1529.218.2512.053.0984.085.2071.092.3188.027.1155.092.2188.185.2931.092.0743.207.1155.325.1169.024.0007.046.0064.067.0168.021.0104.039.0251.053.0432.094.1375.133.3051.11.47-.019.0632-.025.1299-.016.1954.009.0656.031.1286.066.1846v.03zm-3.22.09c0-.14-.09-.28-.13-.43l.16.09c.276.1236.535.2816.77.47.346.3767.599.8286.74 1.32.05.14.11.27.16.41l-.11-.05c-.486-.1582-.917-.4534-1.24-.85-.174-.3069-.292-.642-.35-.99v.03zm-3.39-1.3c-.068-.1078-.094-.2375-.072-.3634.022-.126.091-.239.192-.3166.464.0511.905.2269 1.276.5086.372.2818.66.6589.834 1.0914.07.19.12.38.17.57-.29-.17-.59-.31-.89-.45l-.23-.1c-.509-.1964-.953-.5326-1.28-.97v.03zm7.15 3c.073.1116.183.1933.31.23.004.0164.004.0335 0 .05 0 .23-.26.53-.4.65-.55-.13-.92-.87-1-1.11-.08-.24-.13-.3-.19-.46l-.15-.39.35.2c.433.166.809.4544 1.08.83zm-4.45-4.54c.019.0727.053.1404.102.1976.049.0572.11.1025.178.1324.406.2268.728.5771.92 1l.13.26-.2-.1c-.209-.1014-.413-.2149-.61-.34-.424-.3131-.716-.773-.82-1.29.11.0234.212.0713.3.14zm-1.85 3.35l.24.11c.457.1787.882.4285 1.26.74.492.5752.835 1.2618 1 2 .023.0847.049.1682.08.25-.294-.1942-.601-.368-.92-.52-.465-.2002-.888-.4851-1.25-.84-.328-.4669-.553-.9989-.66-1.56 0-.11-.07-.21-.1-.32l.35.14zm-3.25 4.49c.11.13.23.26.34.4.122.1779.223.3691.3.57l-.14-.11c-.316-.2186-.54-.5462-.63-.92v-.07l.13.13zm1.86 1.63c-.076-.3389-.173-.6728-.29-1 .217.1347.441.2582.67.37.37.1596.708.383 1 .66.171.2038.282.4509.321.7139.039.263.004.5316-.101.7761-.56-.29-1.35-.75-1.46-1.14l-.14-.38zm1-3.1c.28.5451.466 1.1333.55 1.74 0 .13.06.26.08.39-.262-.186-.54-.3499-.83-.49-.374-.1765-.713-.4206-1-.72-.271-.4349-.413-.9376-.41-1.45v-.23c0-.27 0-.54-.09-.82.699.3911 1.303.9304 1.77 1.58h-.07zm-2.62 4.47c-.267-.2995-.414-.6883-.41-1.09v-.29l.22.19c.28.2051.523.4552.72.74.079.1112.121.2439.121.38 0 .136-.042.2687-.121.38-.038.0328-.069.0738-.09.12-.071-.0258-.141-.0558-.21-.09 0-.0649-.015-.1288-.042-.1875-.028-.0587-.068-.1107-.118-.1525h-.07zm1.56.39c.14.1.28.2.43.29-.173.0099-.346.0099-.52 0 .062-.0902.112-.1876.15-.29h-.06zm2.69-.55c.159.1744.34.3258.54.45l-.66.17c.094-.1962.158-.4051.19-.62h-.07zm-4.22-8.68c.022-.1122.052-.2225.09-.33.069.0592.152.1004.24.12.7.12 1.06 1 1.19 1.43l.15.54.15.52-.37-.26c-.699-.3924-1.29-.9526-1.72-1.63l.13-.12c.098-.0649.172-.1596.21-.27h-.07zm-2.22 6.45l.11.08c.132.0777.253.1718.36.28.211.3471.325.7441.33 1.15-.335-.4532-.583-.9654-.73-1.51h-.07zm9.76.88c-.051-.038-.109-.0648-.171-.0786-.062-.0138-.126-.0143-.189-.0014 0-.13 0-.26-.08-.38.224.134.467.2319.72.29-.062.0735-.141.1317-.23.17h-.05zm-161.0694 14.35c0-.8461-.3361-1.6574-.9343-2.2557-.5983-.5982-1.4097-.9343-2.2557-.9343-.846 0-1.6574.3361-2.2557.9343-.5982.5983-.9343 1.4096-.9343 2.2557.0024.2433.036.4853.1.72-.62.14-1.28.32-2 .51-1.3.37-2.53.77-3.44 1.12-.91.35-1.39.64-1.5.86-.0297.0841-.0297.1759 0 .26v.06c.48 1 2.4 5.44 3.37 7.79l.47 1.14c.0703.1944.1904.3669.3484.5003.1579.1334.3482.2229.5516.2597h.22c1.0795-.1122 2.145-.3333 3.18-.66 1.1094-.2474 2.1841-.6302 3.2-1.14h.05c.1623-.1368.2843-.3151.353-.516.0687-.2008.0815-.4165.037-.624 0-.09-.08-.53-.19-1.21-.25-1.57-.6-4-.86-5.94.7106-.1579 1.3455-.5549 1.7987-1.1245.4532-.5697.6972-1.2776.6913-2.0055zm-2.26 9.13c.11.67.18 1.11.19 1.21.0281.1022.0261.2104-.0058.3116-.0319.1011-.0924.1908-.1742.2584-.9571.467-1.9633.8259-3 1.07-1.0054.3276-2.0459.5357-3.1.62-.1045-.015-.2026-.0597-.2823-.1288-.0798-.0692-.138-.1599-.1677-.2612 0-.09-.21-.5-.46-1.13-.83-2-2.43-5.69-3.16-7.3h.17c.0618.0701.1094.1517.14.24.0883.0134.1785-.0017.2576-.043.0791-.0414.143-.1069.1824-.187l.21.21h.43l1-.46.53-.24 1.15-.37.55-.15.24-.07c.4819-.0275.9623.0762 1.39.3.0731-.3323.2437-.6352.49-.87l.39-.13c.1229-.0145.2466.019.3453.0936.0988.0745.1649.1843.1847.3064.0662-.2023.1825-.3844.3381-.5296.1557-.1451.3455-.2485.5519-.3004.1785-.0271.3554-.0638.53-.11.24 1.89.76 5.65 1.08 7.66zm-.27-6.29c-.14-1-.25-1.83-.29-2.21v-.07c-.021-.0894-.0744-.1678-.15-.22-.2159-.0985-.4573-.1265-.69-.08 0-.09 0-.15-.16-.17l-1.6-.16c-.0389-.0077-.0791-.0064-.1174.0038-.0384.0103-.0739.0291-.1038.0552-.0299.0261-.0535.0586-.0689.0952-.0154.0366-.0222.0762-.0199.1158-.011.1431-.011.2869 0 .43l-.35.08c-.0552-.2192-.0853-.444-.09-.67-.0047-.5542.1473-1.0984.4386-1.57.2912-.4715.7098-.8511 1.2075-1.095.4977-.2439 1.0541-.3421 1.6052-.2834.5511.0587 1.0744.272 1.5095.6152.4351.3433.7644.8026.9497 1.3248.1854.5223.2194 1.0864.0981 1.6272-.1214.5407-.3931 1.0362-.7839 1.4292-.3907.393-.8846.6676-1.4247.792l.04-.04z"/><path d="M26.5227 54.5699c-.2259-.1334-.4727-.2281-.73-.28-.2583-.0416-.5216-.0416-.78 0-.0384.0077-.0747.0236-.1064.0467-.0316.023-.0579.0527-.0769.087-.019.0343-.0304.0722-.0333.1113-.0028.0391.0028.0783.0166.115l.52 1.51c0 .16.19.19.29 0l1-1.26c.0245-.058.0278-.1228.0096-.183-.0183-.0603-.057-.1123-.1096-.147zm-2.5202.13c-.2264.1324-.4319.2975-.61.49-.1555.2133-.277.4494-.36.7-.0139.0367-.0193.0761-.0158.1152.0035.0392.0158.077.036.1107.0202.0337.0478.0623.0806.0838.0329.0215.0702.0353.1092.0403l1.56.31c.17 0 .26-.07.19-.23l-.6-1.48c-.0136-.0371-.0352-.0708-.0632-.0986-.0281-.0279-.0619-.0492-.0991-.0626-.0372-.0133-.0768-.0184-.1162-.0147-.0393.0037-.0774.0159-.1115.0359zm3.7804 1.2199c-.1015-.2422-.2435-.4654-.42-.66-.0253-.0313-.0573-.0565-.0937-.0739-.0363-.0173-.0761-.0264-.1163-.0264-.0403 0-.0801.0091-.1164.0264-.0363.0174-.0683.0426-.0936.0739l-1 1.21c-.11.13-.07.25.1.28l1.58.21c.0394.0075.0799.006.1187-.0042s.0748-.0289.1054-.0547c.0307-.0259.0552-.0582.0717-.0947.0166-.0365.0249-.0763.0242-.1164-.0107-.2637-.0647-.5238-.16-.77zm-.3102 1.3601l-1.57-.29c-.17 0-.25.07-.19.23l.61 1.47c.0147.0374.0374.0712.0664.099.0289.0279.0636.0492.1015.0625.038.0133.0784.0182.1184.0145.04-.0037.0788-.016.1137-.036.2261-.1325.4289-.3015.6-.5.1483-.2147.263-.4507.34-.7.0122-.0354.0169-.073.0138-.1103-.0031-.0374-.0139-.0736-.0318-.1066-.0179-.0329-.0424-.0617-.072-.0846-.0296-.023-.0637-.0395-.1-.0485zm-2.9801 5.19l-.26-1c-.0206-.0834-.0578-.1618-.1093-.2305-.0515-.0688-.1164-.1264-.1907-.1695-.1477-.0871-.3238-.1122-.49-.07l-1.73.45c-.112.0293-.214.0886-.295.1714-.081.0827-.138.1859-.165.2986-.5864-.2971-1.2256-.4756-1.8811-.5254-.6555-.0498-1.3143.0302-1.9389.2354.69 1.64 2.14 5.17 2.63 6.35.23.56 5.74-1 5.65-1.6-.21-1.27-.42-2.31-.69-4.07-.1722.067-.3494.1205-.53.16zm-2.63.7c-.1532.0701-.2737.1962-.3369.3524-.0632.1562-.0643.3306-.0031.4876l.26.58-.06.28c-.0081.0364-.0295.0685-.06.09-.0157.0072-.0327.0109-.05.0109-.0172 0-.0343-.0037-.05-.0109l-1.71-.33c-.0293.0092-.0607.0092-.09 0-.0072-.0157-.0109-.0328-.0109-.05 0-.0173.0037-.0343.0109-.05l.34-1.71c.0081-.0365.0295-.0685.06-.09.0157-.0072.0328-.011.05-.011.0173 0 .0343.0038.05.011l1.71.34c.0364.0081.0685.0295.09.06l-.2.04zm.19-.66l-.24-.05-.08-.34c-.0061-.0184-.0083-.0378-.0064-.0571.0018-.0193.0076-.0379.017-.0549.0094-.0169.0222-.0317.0376-.0434.0154-.0117.033-.0201.0518-.0246l1.74-.45h.07c.0178.0087.0333.0213.0454.0369.0121.0156.0206.0337.0246.0531l.23.9c-.0777-.0322-.1609-.0488-.245-.0488-.0841 0-.1673.0166-.245.0488l-1 .41c-.0062-.0436-.0234-.0849-.05-.12-.0813-.1262-.2057-.2186-.35-.26zm2.4 2.29l-1.6.69c-.0346.0106-.0719.0083-.105-.0064-.033-.0147-.0597-.0408-.075-.0736l-.37-.87.21-1.11 1.15-.49h.1c.0355.016.064.0444.08.08l.68 1.6c.0137.0332.0141.0705.001.104-.013.0335-.0384.0607-.071.076zm-10.41-4.9c-.11-.22-.5-.46-1.5-.86-1-.4-2.14-.75-3.44998-1.12-.68-.19-1.34-.37-2-.51.05575-.2361.08593-.4774.09-.72.00504-.6029-.16087-1.1948-.4785-1.7073-.31763-.5124-.77398-.9243-1.31616-1.188-.54217-.2637-1.14797-.3684-1.74719-.3019-.59921.0666-1.16731.3015-1.63845.6777-.47115.3762-.82604.8782-1.023548 1.4478-.19751.5696-.229554 1.1836-.092416 1.7707.137134.5871.437844 1.1233.867264 1.5465.42941.4232.96997.716 1.559.8445-.26 1.89-.61 4.37-.87 5.94-.1.68-.17 1.12-.19 1.21-.04415.2109-.02924.4298.04311.6327.07234.203.1993.382.36689.5173 1.00622.5151 2.07045.9079 3.17 1.17 1.03503.3267 2.10046.5478 3.18.66h.21c.20488-.0361.39672-.1252.55639-.2586.15967-.1333.28159-.3062.35359-.5014 0-.09.2-.51.46-1.14 1-2.35 2.9-6.78 3.38-7.79v-.06c.0345-.0832.0345-.1767 0-.26h.07zm-12.94998-3.2c-.02335-.3998.03525-.8002.17219-1.1766.13695-.3764.34935-.7208.62418-1.0122.27483-.2913.6063-.5234.97406-.6821.36776-.1586.76405-.2405 1.16457-.2405.40052 0 .79682.0819 1.16458.2405.36776.1587.69922.3908.97405.6821.27484.2914.48724.6358.62418 1.0122.13695.3764.19554.7768.17219 1.1766.00023.2264-.03004.4517-.09.67l-.34-.08c.01099-.1431.01099-.2869 0-.43-.00753-.0654-.03958-.1255-.08969-.1682-.05011-.0426-.11455-.0647-.18031-.0618l-1.6.16c-.12 0-.17.08-.16.17-.23269-.0464-.4741-.0184-.69.08-.07523.0546-.13124.1316-.16.22v.07h.01c0 .38-.14 1.2-.28 2.21-.64744-.143-1.22691-.5022-1.64311-1.0183-.4162-.5162-.64434-1.1586-.64689-1.8217zm8.99998 11.09c-.25998.63-.42998 1-.45998 1.13-.03253.1015-.09288.1919-.17419.2608-.08132.069-.18033.1137-.28581.1292-1.05076-.0847-2.0879-.2928-3.09-.62-1.03725-.242-2.04369-.601-3-1.07-.08176-.0675-.14225-.1573-.17419-.2584-.03194-.1011-.03395-.2093-.00581-.3116 0-.1.08-.54.19-1.21.32-2 .84-5.77 1.08-7.63.17431.0472.3513.084.53.11.20637.052.39622.1553.55185.3005.15563.1451.27196.3273.33815.5295.01977-.1221.08593-.2319.18468-.3064.09875-.0745.22246-.1081.34532-.0936l.39.13c.24625.2348.41686.5377.49.87.42735-.2247.90799-.3285 1.39-.3l.24.07.55.15 1.10998.29.54.24 1 .46h.43l.21-.21c.0376.0793.0997.1445.1771.1859.0774.0414.1661.0569.2529.0441.0343-.0888.0852-.1702.15-.24h.16c-.71 1.66-2.31 5.34-3.14 7.35h.02z"/><path d="M3.75255 56.2399c.11.14.24.11.3 0l.52-1.51c.01381-.0367.01948-.0759.01661-.115-.00288-.0391-.01422-.077-.03325-.1113-.01903-.0343-.04529-.064-.07696-.087-.03166-.0231-.06797-.039-.1064-.0467-.26166-.042-.52834-.042-.79 0-.25661.0542-.503.1487-.73.28-.03443.0198-.06405.047-.08677.0796-.02271.0326-.03796.0698-.04464.1089-.00669.0392-.00465.0794.00596.1176.01062.0383.02955.0738.05545.1039l.97 1.18zm.82005.3099l1.57-.31c.03813-.0066.07438-.0214.10629-.0434.03191-.0219.05873-.0504.07865-.0836.01992-.0332.03246-.0703.03679-.1087.00432-.0385.00032-.0775-.01173-.1143-.0839-.2521-.20892-.4886-.37-.7-.17321-.1936-.37566-.3589-.6-.49-.03486-.02-.07363-.0323-.11367-.036-.04004-.0037-.08041.0012-.11836.0145-.03796.0133-.0726.0346-.10159.0625-.02898.0279-.05162.0616-.06638.099l-.6 1.48c-.06.16.02.31.19.23zm-1.19994.2001c.17 0 .22-.15.11-.28l-1-1.21c-.02432-.0312-.05542-.0564-.09094-.0738-.03552-.0173-.07453-.0263-.11406-.0263-.03953 0-.07854.009-.11407.0263-.03552.0174-.06662.0426-.09093.0738-.17651.1945-.31855.4177-.42.66-.08169.2484-.12222.5085-.12.77-.00228.0396.00453.0792.01993.1158.01539.0365.03895.0691.06887.0952.02993.026.06542.0449.10376.0551s.07851.0116.11744.0039l1.53-.21zm.10989.24l-1.57.29c-.04163.0013-.08242.0121-.11918.0317-.03675.0196-.06848.0474-.09269.0813-.02421.0339-.04025.0729-.04686.114-.00662.0412-.00363.0833.00873.123.0792.2491.201.4826.36.69.1711.1986.37383.3676.6.5.0341.02.07216.0323.11151.0359.03935.0037.07902-.0013.11622-.0147.03719-.0133.071-.0347.09904-.0625.02804-.0279.04962-.0616.06323-.0987l.65-1.46c.07-.16 0-.27-.18-.23zm4.65016 4.94c-.02976-.1129-.08894-.2159-.17151-.2985-.08257-.0826-.18557-.1418-.29849-.1715l-1.74-.45c-.16617-.0422-.34229-.0171-.49.07-.14717.0904-.25443.2334-.3.4l-.25 1c-.18027-.0363-.35747-.0864-.53-.15-.27 1.76-.49 2.8-.69 4.07-.09.59 5.42 2.16 5.65 1.6.48-1.18 1.93999-4.71 2.61999-6.35-.6204-.2073-1.2758-.2892-1.9281-.2411-.65229.048-1.28857.2251-1.87189.5211zm-1.42 3.48c-.01716.0336-.04563.06-.0804.0746-.03476.0147-.07358.0166-.1096.0054l-1.6-.69c-.03022-.0152-.05395-.0407-.06681-.0719-.01287-.0313-.014-.0661-.00319-.0981l.69-1.6c.00941-.0249.02568-.0465.04693-.0625.02125-.0159.04659-.0255.07307-.0275h.11l1.14.49.22 1.11-.42.87zm.21-2.63v.12l-1-.41c-.07767-.0322-.16092-.0488-.245-.0488-.08407 0-.16733.0166-.245.0488l.23-.86c-.00964-.0186-.01467-.0391-.01467-.06 0-.0209.00503-.0415.01467-.06h.07l1.73.45c.03834.0095.07139.0337.09199.0674.02059.0337.02706.0741.01801.1126l-.09.34-.23.05c-.13466.0444-.25073.1324-.33.25zm2.74 1.85c-.01957.028-.04761.049-.08.06l-1.71.34c-.01738.0074-.03609.0112-.055.0112-.0189 0-.03761-.0038-.055-.0112-.00634-.0142-.00962-.0295-.00962-.045s.00328-.0309.00962-.045l-.16-.31.25-.58c.06713-.1552.0701-.3307.00827-.4881-.06184-.1574-.18345-.2839-.33827-.3519l-.19-.08c.01957-.0281.04761-.0491.08-.06l1.73-.44c.01569-.0072.03274-.0109.05-.0109.01726 0 .03431.0037.05.0109.0305.0215.05189.0536.06.09l.36 1.76c.01018.0237.01543.0492.01543.075 0 .0258-.00525.0513-.01543.075zm5.39989-12c-.0972.004-.1897.0424-.2611.1084-.0715.0659-.1171.1551-.1289.2516l-.19 4.14c-.0029.1001.0329.1976.0999.272.0671.0745.1602.1203.2601.128.0964 0 .189-.0376.2581-.1048.0691-.0673.1093-.1588.1119-.2552l.19-4.14c.0057-.0976-.0265-.1937-.0898-.2682-.0634-.0745-.153-.1217-.2502-.1318zm1.4901 5.13c.0562.0025.1121-.009.1627-.0335.0506-.0244.0943-.061.1273-.1065l1.67-2.07c.0485-.079.0665-.1731.0504-.2645-.016-.0913-.0649-.1736-.1375-.2314-.0725-.0578-.1637-.0871-.2563-.0823-.0927.0048-.1804.0433-.2466.1082l-1.66 2.07c-.0627.0773-.0926.1761-.0833.2752.0094.0992.0572.1906.1333.2548.0681.0541.1531.0824.24.08zm-3.5801-.3101c.0334.052.0792.0948.1334.1245.0541.0297.1149.0453.1766.0455.0743.0005.1472-.0204.21-.06.0412-.0271.0765-.0623.1039-.1033.0274-.041.0463-.0871.0557-.1356.0093-.0484.0088-.0983-.0014-.1465-.0102-.0483-.03-.094-.0582-.1346l-1.47-2.22c-.0594-.0742-.1445-.1236-.2384-.1382-.094-.0146-.1901.0066-.2692.0593-.0791.0528-.1356.1333-.1583.2257-.0226.0923-.0098.1899.0359.2732l1.48 2.21zm198.7794-.7499c0-.8461-.336-1.6574-.934-2.2557-.598-.5982-1.41-.9343-2.256-.9343-.846 0-1.657.3361-2.255.9343-.598.5983-.935 1.4096-.935 2.2557.003.2433.036.4853.1.72-.62.14-1.28.32-2 .51-1.31.37-2.53.77-3.45 1.12-.92.35-1.38.64-1.5.86-.034.0832-.034.1767 0 .26v.06c.47 1 2.4 5.44 3.37 7.79l.47 1.14c.069.1955.189.3691.347.5027.158.1337.349.2225.553.2573h.21c1.083-.1109 2.152-.3321 3.19-.66 1.097-.26 2.159-.6529 3.16-1.17h.05c.163-.1368.285-.3151.353-.516.069-.2008.082-.4165.037-.624 0-.09-.08-.53-.19-1.21-.25-1.57-.61-4-.86-5.94.715-.1469 1.358-.5351 1.82-1.0995.463-.5645.717-1.2708.72-2.0005zm-2.26 9.13c.1.67.17 1.11.19 1.21.029.1022.027.2104-.005.3116-.032.1011-.093.1908-.175.2584-.939.4669-1.929.8259-2.95 1.07-1.005.3267-2.046.5348-3.1.62-.104-.015-.202-.0597-.282-.1288-.08-.0692-.138-.1599-.168-.2612l-.47-1.13c-.82-2-2.42-5.69-3.15-7.3h.17c.062.0701.11.1517.14.24.089.0118.178-.0039.257-.0451.079-.0412.143-.1058.183-.1849l.2.21h.44l1-.46.53-.24 1.11-.29.56-.15.24-.07c.482-.0275.963.0762 1.39.3.074-.3323.244-.6352.49-.87l.38-.13c.27 0 .53.14.54.4.064-.2037.18-.3873.336-.5328.156-.1455.347-.2479.554-.2972.179-.0271.356-.0638.53-.11.23 1.81.74 5.57 1.06 7.58zm-.28-6.29c-.13-1-.24-1.83-.28-2.21v-.07c-.024-.0877-.077-.1649-.15-.22-.216-.0965-.457-.1245-.69-.08 0-.09 0-.15-.16-.17l-1.58-.2c-.039-.0057-.079-.003-.117.0079-.038.0109-.073.0297-.103.0552s-.055.0571-.072.0928c-.017.0357-.027.0745-.028.1141-.011.1431-.011.2869 0 .43l-.34.08c-.055-.2192-.085-.444-.09-.67-.005-.5547.147-1.0996.439-1.5716.291-.4721.71-.852 1.208-1.096.498-.244 1.056-.3421 1.607-.2828.552.0592 1.075.2732 1.51.6174.435.3442.764.8044.949 1.3276.184.5231.217 1.0878.094 1.6288-.122.541-.396 1.0362-.788 1.4285-.392.3922-.888.6654-1.429.7881h.02z"/><path d="M209.733 54.5699c-.226-.1334-.473-.2281-.73-.28-.259-.0416-.522-.0416-.78 0-.039.0077-.075.0236-.107.0467-.031.023-.058.0527-.077.087-.019.0343-.03.0722-.033.1113-.003.0391.003.0783.017.115l.52 1.51c.05.16.18.19.29 0l1-1.26c.022-.0583.025-.1224.007-.1822-.019-.0598-.056-.1118-.107-.1478zm-2.52.13c-.229.1296-.435.295-.61.49-.157.2141-.282.4499-.37.7-.012.0375-.016.0772-.011.1163.005.039.018.0766.039.1099.021.0334.049.0617.082.0831.033.0214.071.0353.11.0407l1.56.31c.17 0 .26-.07.19-.23l-.6-1.48c-.014-.0371-.036-.0708-.064-.0986-.028-.0279-.061-.0492-.099-.0626-.037-.0133-.076-.0184-.116-.0147-.039.0037-.077.0159-.111.0359zm3.77 1.2199c-.1-.2408-.238-.4638-.41-.66-.025-.0313-.057-.0565-.094-.0739-.036-.0173-.076-.0264-.116-.0264-.04 0-.08.0091-.117.0264-.036.0174-.068.0426-.093.0739l-1 1.21c-.12.13-.07.25.1.28l1.58.21c.039.0075.08.006.119-.0042.038-.0102.074-.0289.105-.0547.031-.0259.055-.0582.072-.0947.016-.0365.025-.0763.024-.1164-.017-.2639-.074-.5236-.17-.77zm-.32 1.3601l-1.56-.29c-.17 0-.26.07-.19.23l.61 1.47c.013.0371.035.0707.063.0986.028.0278.062.0492.099.0625.037.0134.077.0184.116.0148.039-.0037.077-.016.112-.0359.23-.1311.436-.3002.61-.5.154-.2103.275-.443.36-.69.012-.0382.015-.0784.01-.1181-.004-.0397-.018-.0778-.039-.1119-.02-.0341-.048-.0634-.081-.0858-.034-.0224-.071-.0375-.11-.0442zm-3 5.19l-.26-1c-.021-.0834-.058-.1618-.11-.2305-.051-.0688-.116-.1264-.19-.1695-.148-.0871-.324-.1122-.49-.07l-1.73.45c-.112.0293-.214.0886-.295.1714-.081.0827-.138.1859-.165.2986-1.168-.5838-2.517-.6878-3.76-.29.69 1.64 2.14 5.17 2.63 6.35.23.56 5.74-1 5.64-1.6-.2-1.27-.41-2.31-.68-4.07-.192.0701-.39.1236-.59.16zm-2.63.7c-.078.0327-.148.0804-.207.1404s-.106.131-.138.209c-.031.0781-.047.1615-.046.2457 0 .0842.018.1674.051.2449l.25.58v.28c-.009.0364-.03.0685-.06.09-.016.0072-.033.0109-.05.0109-.018 0-.035-.0037-.05-.0109l-1.72-.33c-.037-.0081-.069-.0295-.09-.06-.008-.0157-.011-.0328-.011-.05 0-.0173.003-.0344.011-.05l.34-1.71c.008-.0365.029-.0685.06-.09.015-.0072.032-.011.05-.011.017 0 .034.0038.05.011l1.71.34c.036.0081.068.0295.09.06l-.24.1zm.19-.66l-.24-.05-.09-.34c-.009-.0385-.003-.0789.018-.1126.02-.0337.053-.058.092-.0674l1.74-.45h.08c.033.0203.058.0524.07.09l.23.9c-.076-.0319-.158-.0484-.24-.0484-.083 0-.164.0165-.24.0484l-1 .41s0-.09-.05-.12c-.077-.1225-.193-.2144-.33-.26h-.04zm2.4 2.29l-1.6.69c-.035.0106-.072.0083-.105-.0064-.033-.0147-.06-.0408-.075-.0736l-.38-.87.22-1.11 1.15-.49h.1c.033.0184.061.0462.08.08l.68 1.6c.017.0286.023.0625.018.0955-.006.033-.023.063-.048.0845h-.04zm-10.37-4.9c-.11-.22-.5-.46-1.5-.86-1-.4-2.14-.75-3.45-1.12-.68-.19-1.35-.37-2-.51.055-.2361.086-.4774.09-.72.005-.6029-.161-1.1948-.479-1.7073-.318-.5124-.774-.9243-1.316-1.188-.542-.2637-1.148-.3684-1.747-.3019-.599.0666-1.168.3015-1.639.6777-.471.3762-.826.8782-1.023 1.4478-.198.5696-.23 1.1836-.093 1.7707s.438 1.1233.868 1.5465c.429.4232.97.716 1.559.8445-.26 1.89-.62 4.37-.87 5.94-.1.68-.17 1.12-.19 1.21-.045.2076-.032.4233.037.6241.068.2008.19.3792.353.5159h.05c1.001.5171 2.063.91 3.16 1.17 1.038.328 2.107.5491 3.19.66h.21c.204-.0348.395-.1236.553-.2572.159-.1337.278-.3073.347-.5028l.47-1.14c1-2.35 2.9-6.78 3.38-7.79v-.06c.034-.0832.034-.1767 0-.26l.04.01zm-13-3.2c-.024-.3998.035-.8002.172-1.1766.137-.3764.349-.7208.624-1.0122.275-.2913.606-.5234.974-.6821.368-.1586.764-.2405 1.165-.2405.4 0 .796.0819 1.164.2405.368.1587.699.3908.974.6821.275.2914.487.6358.624 1.0122.137.3764.196.7768.173 1.1766-.005.226-.035.4508-.09.67l-.34-.08c.011-.1431.011-.2869 0-.43 0-.0401-.008-.0798-.025-.1163-.016-.0365-.041-.0689-.071-.0947-.031-.0259-.067-.0446-.106-.0548-.038-.0102-.079-.0116-.118-.0042l-1.58.2c-.11 0-.17.08-.16.17-.23-.0456-.468-.0176-.68.08-.079.0511-.136.1295-.16.22v.07c0 .38-.14 1.2-.28 2.21-.633-.1586-1.194-.5244-1.595-1.0391-.4-.5147-.617-1.1487-.615-1.8009h-.05zm9 11.09l-.47 1.13c-.03.1014-.088.192-.168.2612-.08.0692-.178.1139-.282.1288-1.054-.0852-2.095-.2932-3.1-.62-1.01-.243-1.99-.5986-2.92-1.06-.082-.0679-.143-.1572-.177-.2579-.033-.1007-.038-.2088-.013-.3121 0-.1.09-.54.19-1.21.32-2 .85-5.77 1.09-7.63.174.0482.351.085.53.11.205.0508.394.1539.549.2994.154.1454.268.3282.331.5306 0-.26.28-.4.54-.4l.38.13c.253.2294.425.5347.49.87.431-.2246.914-.3283 1.4-.3l.24.07.55.15 1.11.29.54.24 1 .46h.44l.21-.21c.037.0793.099.1445.177.1859.077.0414.166.0569.253.0441.03-.0906.081-.1728.15-.24h.16c-.74 1.65-2.34 5.33-3.17 7.34h-.03z"/><path d="M186.963 56.2399c.11.14.24.11.3 0l.52-1.51c.012-.0375.016-.077.012-.1161-.005-.0391-.017-.0768-.037-.1108-.02-.0339-.046-.0634-.078-.0863-.032-.0229-.069-.0389-.107-.0468-.259-.0417-.522-.0417-.78 0-.257.0541-.503.1486-.73.28-.034.0201-.063.0472-.086.0794-.023.0323-.038.0689-.046.1076-.008.0388-.007.0786.002.117.009.0385.026.0745.05.106l.98 1.18zm.82.31l1.57-.31c.038-.0067.074-.0215.106-.0434.032-.0219.059-.0505.079-.0836.02-.0332.032-.0703.036-.1088.005-.0385.001-.0774-.011-.1142-.084-.2521-.209-.4887-.37-.7-.176-.195-.382-.3604-.61-.49-.034-.02-.072-.0322-.112-.0359-.039-.0037-.079.0014-.116.0147-.037.0134-.071.0347-.099.0626-.028.0278-.05.0615-.063.0986l-.6 1.48c-.06.16.07.31.19.23zm-1.2.2c.17 0 .22-.15.11-.28l-1.03-1.21c-.024-.0312-.056-.0564-.091-.0738-.036-.0173-.075-.0263-.114-.0263-.04 0-.079.009-.114.0263-.036.0174-.067.0426-.091.0738-.177.1945-.319.4177-.42.66-.082.2484-.122.5085-.12.77-.002.0396.004.0792.02.1158.015.0365.039.0691.069.0952.03.026.065.0449.103.0551.039.0102.079.0116.118.0039l1.56-.21zm.08.24l-1.56.29c-.04.0068-.077.0218-.11.0443-.034.0224-.061.0516-.082.0857-.021.0341-.034.0723-.039.112-.005.0397-.001.0799.011.118.078.2551.207.4918.379.6962.172.2043.383.3723.621.4938.034.02.072.0323.111.0359.039.0037.079-.0013.116-.0147.037-.0133.071-.0347.099-.0625.028-.0279.05-.0616.064-.0987l.61-1.47c.06-.16-.03-.27-.22-.23zm4.51 4.6424c.079.0828.135.1857.16.2976.585-.2987 1.224-.479 1.88-.5305.655-.0515 1.315.0269 1.94.2305l-2.63 6.37c-.23.56-5.74-1.01-5.64-1.6.2-1.27.42-2.31.69-4.07.169.0628.343.113.52.15l.26-1c.02-.0834.057-.1618.109-.2305.052-.0688.116-.1264.191-.1695.147-.0871.324-.1122.49-.07l1.74.45c.11.0299.211.0896.29.1724zm7.1-9.0024c-.099.0037-.192.0417-.266.1075-.073.0658-.12.1551-.134.2525l-.21 4.16c-.003.0499.004.0999.021.147.016.0471.042.0905.076.1277.033.0371.074.0673.119.0888.045.0215.094.0339.144.0365.096 0 .189-.0376.258-.1048.069-.0673.109-.1588.112-.2552l.18-4.14c.012-.0949-.012-.1909-.068-.2688-.056-.0778-.139-.1318-.232-.1512zm1.49 5.13c.056.0016.111-.0103.162-.0347.05-.0243.094-.0604.128-.1053l1.66-2.07c.031-.0381.054-.0819.068-.1289.014-.0469.018-.0962.013-.145-.005-.0487-.02-.096-.043-.1391-.023-.0431-.055-.0811-.093-.112-.038-.0308-.082-.0539-.129-.0678-.047-.014-.096-.0185-.145-.0134-.049.0051-.096.0197-.139.0431-.043.0234-.081.055-.112.0931l-1.67 2.07c-.062.0785-.09.1781-.079.2773.011.0992.061.1899.139.2527.067.0557.153.0842.24.08zm-3.58-.3101c.033.052.079.0948.133.1245.054.0297.115.0453.177.0455.074-.0011.146-.0218.21-.06.041-.0271.076-.0623.103-.1033.028-.041.047-.0871.056-.1356.009-.0484.009-.0983-.001-.1465-.01-.0483-.03-.094-.058-.1346l-1.47-2.22c-.06-.0742-.145-.1236-.239-.1382-.094-.0146-.19.0066-.269.0593-.079.0528-.136.1333-.158.2257-.023.0923-.01.1899.036.2732l1.48 2.21zM151.422 128.85l-15.68-.31c-.066-.006-.133.003-.197.025-.063.022-.12.058-.169.104-.048.047-.086.103-.111.165-.024.062-.036.129-.033.196-.002.066.008.132.032.193.023.062.059.119.105.166.045.048.1.086.161.112.061.026.126.039.192.039l15.68.31c.133 0 .26-.053.354-.147.094-.093.146-.221.146-.353 0-.133-.052-.26-.146-.354-.094-.093-.221-.146-.354-.146h.02zm-75.2493 0l-15.68-.31c-.1326 0-.2598.053-.3536.146-.0937.094-.1464.221-.1464.354 0 .133.0527.26.1464.353.0938.094.221.147.3536.147l15.68.31c.1326 0 .2598-.053.3535-.147.0938-.093.1465-.22.1465-.353 0-.133-.0527-.26-.1465-.354-.0937-.093-.2209-.146-.3535-.146zm54.7603-2.39c-.132-.001-.258.049-.355.138-.096.089-.155.211-.165.342-.088 1.225-.618 2.376-1.492 3.239s-2.032 1.379-3.258 1.451h-.13c-1.189-.041-2.325-.496-3.213-1.287-.888-.791-1.471-1.867-1.647-3.043.004-.037.004-.074 0-.11-.018-.128-.083-.245-.184-.327-.1-.081-.227-.122-.356-.113-.066.005-.13.023-.188.053-.058.03-.11.071-.152.122-.042.05-.073.108-.092.171-.019.063-.025.129-.018.194v.1c.033.57-.053 1.14-.255 1.675-.201.534-.513 1.019-.915 1.425-.382.448-.862.802-1.404 1.033-.541.231-1.129.333-1.716.298-.588-.035-1.159-.206-1.67-.499-.51-.294-.945-.702-1.27-1.192-.382-.499-.648-1.076-.78-1.69.099-.599.099-1.211 0-1.81-.021-.114-.079-.218-.167-.294-.087-.077-.198-.121-.313-.126-.117-.007-.232.029-.324.101-.092.071-.155.174-.176.289-.125.607-.125 1.233 0 1.84-.196.852-.593 1.644-1.16 2.31-.447.556-1.009 1.009-1.648 1.327-.639.318-1.339.493-2.052.513-.695-.041-1.375-.219-2-.525-.625-.306-1.183-.734-1.641-1.258-.458-.524-.807-1.134-1.027-1.795-.22-.66-.305-1.358-.252-2.052.004-.06.004-.12 0-.18.018-.133-.017-.267-.097-.374-.081-.107-.201-.178-.333-.196-.133-.019-.268.016-.375.097-.106.08-.1769.2-.1955.333v.17c-.2337 1.167-.8547 2.22-1.7622 2.99-.9076.769-2.0485 1.21-3.2378 1.25-1.074-.04-2.1105-.405-2.9715-1.048-.8611-.643-1.5058-1.534-1.8485-2.552-.0368-.299-.1038-.594-.2-.88-.0429-.116-.1264-.212-.2349-.271-.1085-.059-.2346-.076-.3551-.049-.1212.026-.2278.098-.2983.2-.0705.102-.0997.227-.0817.35.0374.295.1009.586.19.87.0581.924-.1993 1.841-.73 2.6-.3208.499-.7534.918-1.2637 1.221-.5102.304-1.0841.485-1.6763.529-.5844-.005-1.1596-.146-1.6803-.412-.5206-.265-.9724-.648-1.3197-1.118-.3801-.455-.6508-.99-.7913-1.566-.1404-.576-.1468-1.176-.0187-1.754.0196-.063.026-.13.0188-.195-.0073-.066-.028-.129-.0608-.186-.0329-.058-.0772-.108-.1302-.147-.0529-.039-.1135-.067-.1778-.082-.1272-.034-.2627-.016-.3769.049-.1142.066-.198.174-.2331.301-.3328 1.102-.255 2.287.2191 3.336.4742 1.049 1.3124 1.891 2.3596 2.37 1.0471.478 2.2322.561 3.3356.232 1.1034-.328 2.0505-1.045 2.6657-2.018.3133-.458.556-.96.72-1.49.5579.817 1.3026 1.488 2.1722 1.96.8695.471 1.839.728 2.8278.75 1.0419-.031 2.0595-.322 2.9606-.846.9011-.523 1.6571-1.264 2.1999-2.154.257.851.686 1.641 1.26 2.32.54.666 1.219 1.207 1.989 1.585.77.379 1.613.585 2.471.605.859-.018 1.703-.224 2.474-.605.771-.38 1.448-.924 1.986-1.595.369-.426.678-.901.92-1.41.143.26.303.511.48.75.412.607.958 1.111 1.596 1.474.638.362 1.35.574 2.083.617.732.044 1.465-.082 2.141-.366.677-.285 1.278-.721 1.76-1.275.477-.502.857-1.089 1.12-1.73.529.954 1.303 1.751 2.241 2.31.938.559 2.007.859 3.099.87 1.476-.101 2.866-.735 3.91-1.783 1.045-1.048 1.674-2.44 1.77-3.917-.013-.123-.072-.237-.164-.318-.093-.082-.213-.125-.336-.122z"/><path d="M94.9727 129.44h.46c.8267-.111 1.6014-.467 2.225-1.021.6235-.554 1.0675-1.281 1.275-2.089.0304-.13.0086-.267-.0605-.381-.0692-.114-.1803-.196-.3095-.229-.1286-.03-.2638-.008-.3763.061-.1124.07-.1928.181-.2237.309-.1463.618-.4789 1.176-.9526 1.598-.4738.423-1.0659.69-1.6964.765-.6304.076-1.2688-.044-1.8288-.344-.5599-.299-1.0145-.763-1.3022-1.329-.061-.118-.1663-.207-.2929-.247-.1266-.041-.264-.029-.3821.032-.118.061-.2069.166-.2473.293-.0403.126-.0287.264.0323.382.3576.665.8886 1.22 1.5365 1.608.6479.387 1.3887.592 2.1435.592zm10.8503 1.19h.26c.911-.069 1.781-.411 2.494-.982.714-.571 1.239-1.344 1.506-2.218.034-.129.016-.265-.049-.381-.065-.116-.174-.202-.301-.239-.127-.034-.263-.016-.377.05-.114.065-.198.173-.233.3-.195.676-.594 1.275-1.142 1.716-.548.441-1.219.702-1.921.748-.702.046-1.401-.126-2.001-.492-.601-.365-1.075-.907-1.356-1.552-.053-.122-.153-.218-.276-.267-.124-.049-.262-.046-.384.007s-.218.152-.267.276c-.049.124-.046.262.007.384.357.776.926 1.435 1.64 1.904.714.468 1.546.727 2.4.746zm9.84-.36c.201 0 .402-.02.6-.06.943-.19 1.778-.732 2.336-1.516.557-.784.795-1.751.664-2.704-.015-.064-.043-.123-.082-.176-.038-.052-.087-.097-.143-.13-.055-.034-.117-.056-.182-.065-.064-.009-.13-.006-.193.011-.13.022-.245.094-.322.201-.077.106-.108.239-.088.369.132.7-.019 1.424-.42 2.013-.401.589-1.02.994-1.72 1.127-.7.132-1.425-.019-2.013-.42-.589-.401-.995-1.02-1.127-1.72-.013-.066-.039-.128-.077-.184-.037-.056-.085-.103-.14-.14-.056-.038-.119-.063-.184-.076-.066-.013-.134-.013-.199 0-.066.013-.128.039-.184.076-.056.037-.103.085-.14.141-.038.056-.063.118-.076.184-.013.066-.013.133 0 .199.209.82.685 1.548 1.353 2.067.668.52 1.49.802 2.337.803zm-32.8803-2.13c.3119.811.8629 1.509 1.58 2 .4066.237.8692.362 1.34.36.41.001.8144-.095 1.18-.28.3923-.198.7288-.491.9786-.853.2498-.362.405-.78.4514-1.217.0066-.066.0001-.132-.0189-.195-.0191-.063-.0504-.122-.0922-.173-.0418-.051-.0932-.094-.1514-.125-.0581-.031-.1218-.051-.1875-.057-.0657-.007-.132 0-.1951.019-.0632.019-.122.05-.1731.092-.0511.042-.0934.093-.1246.151-.0312.059-.0506.122-.0572.188-.029.271-.1256.531-.281.755-.1554.224-.3646.406-.6084.528-.2438.123-.5145.182-.7871.173-.2727-.01-.5386-.087-.7735-.226-.4831-.332-.8586-.798-1.08-1.34.0293-.095.0293-.196 0-.29-.0481-.1-.1255-.184-.2219-.239-.0964-.055-.2073-.08-.3181-.071-.1161.019-.2245.071-.3129.148-.0884.078-.1532.179-.1871.292-.02.12.0011.243.06.35l-.02.01zm42.5803 1.92h.3c.78-.063 1.524-.353 2.141-.835.617-.481 1.079-1.133 1.329-1.875.023-.063.033-.13.03-.197-.004-.068-.02-.133-.05-.194-.029-.06-.07-.114-.121-.159-.051-.044-.11-.077-.174-.098-.063-.021-.131-.029-.198-.023-.067.006-.132.025-.191.057-.06.031-.112.074-.154.127-.043.052-.074.112-.092.177-.18.558-.523 1.049-.985 1.41-.461.361-1.02.575-1.605.615-.585.039-1.168-.097-1.674-.392-.507-.295-.913-.735-1.166-1.263-.027-.06-.066-.113-.114-.158s-.104-.079-.166-.101c-.061-.023-.127-.033-.192-.029-.065.003-.13.019-.188.048-.06.028-.114.067-.159.116s-.079.106-.101.169c-.023.062-.033.128-.029.194.003.066.02.131.049.191.325.656.825 1.21 1.444 1.601.619.392 1.333.606 2.066.619zm-4.57 1.3c-.115-.067-.251-.087-.38-.055-.129.032-.24.112-.31.225-.376.752-.944 1.391-1.646 1.853-.703.462-1.515.73-2.354.777-.838-.004-1.663-.201-2.413-.575-.749-.375-1.402-.917-1.907-1.585-.052-.067-.119-.121-.195-.158-.077-.036-.161-.054-.245-.052-.084.005-.165.03-.237.074-.071.043-.131.104-.173.176l-.17.32c-.48 1-1.28 2.53-5.16 2.68-1.131.031-2.244-.29-3.184-.919-.941-.629-1.663-1.534-2.066-2.591-.029-.133-.11-.248-.224-.321-.115-.074-.2537-.098-.3863-.069-.1326.029-.2482.11-.3213.224-.0731.115-.0978.253-.0687.386-.0024.104-.0258.206-.0688.3-.0429.095-.1046.18-.1812.25-1.0375 1.034-2.4176 1.653-3.88 1.74-2.41 0-4.33-1.52-4.38-2.28-.0011-.066-.0157-.131-.0429-.19-.0272-.06-.0664-.114-.1151-.158-.0488-.044-.1061-.078-.1683-.099-.0623-.021-.1282-.029-.1937-.023-.0661.002-.1311.018-.1909.047-.0599.028-.1134.068-.1573.117-.044.05-.0774.108-.0983.171-.0209.063-.0289.129-.0235.195.08 1.45 2.58 3.22 5.37 3.22 1.7555-.084 3.4138-.831 4.64-2.09.5933.933 1.4093 1.704 2.3743 2.243.966.54 2.05.831 3.156.847h.27c4-.16 5.22-1.76 5.82-2.85.606.627 1.332 1.126 2.134 1.47.801.343 1.664.523 2.536.53 1.001-.052 1.971-.367 2.811-.913.841-.546 1.524-1.304 1.979-2.197.04-.056.068-.12.082-.188.015-.067.015-.137.001-.205-.015-.068-.042-.132-.083-.188-.04-.056-.091-.104-.15-.139zm31.87-73.6301v-.47h-5.79c.049-.6675.022-1.3385-.08-2l-.05-.15c-.029-.0565-.049-.1173-.06-.18 0 0 0-1.45-.76-1.82-.919-.4427-1.885-.7782-2.88-1-1.171-.2713-2.392-.2391-3.547.0934-1.155.3325-2.206.9543-3.053 1.8066-2.4 2.15-1.83 5.61-1.56 6.35.017.1362.017.2739 0 .41-.065.2177-.076.4478-.032.6707.044.2228.14.4319.282.6093.436.3009.962.4422 1.49.4.236.226.498.424.78.59.781.4135 1.656.6201 2.54.6.721-.0056 1.437-.1271 2.12-.36 1.053.8338 2.347 1.307 3.69 1.35h.12c1.85.0166 3.637-.6696 5-1.92.615-.6686 1.091-1.4537 1.398-2.309.308-.8553.441-1.7635.392-2.671zm-14.82 4.43c-.268-.1601-.514-.3551-.73-.58l-.16-.16h-.29c-.316.0289-.634.0019-.94-.08-.018-.1461-.018-.2939 0-.44.075-.2953.075-.6047 0-.9-.18-.48-.69-3.5 1.28-5.26.728-.7427 1.634-1.287 2.631-1.581.998-.294 2.054-.3281 3.069-.099.929.2369 1.831.5721 2.69 1 .121.2777.186.5769.19.88.002.21.046.4173.13.61.067.5714.067 1.1486 0 1.72h-6.05l-.1.38c-.28 1 .44 3.39 1.21 4.49.1.13.21.27.33.4-1.103.2808-2.271.1455-3.28-.38h.02zm12.33-.22c-1.173 1.0747-2.71 1.6644-4.3 1.65-.823.0152-1.638-.1676-2.376-.5331-.738-.3654-1.377-.9028-1.864-1.5669-.613-.9942-.986-2.117-1.09-3.28 2 0 9.14 0 11.12.05-.034 1.3705-.572 2.6805-1.51 3.68h.02z"/><path d="M143.373 61.7299c.51-.2 1.89-2.3 2.07-2.51.034-.0344.057-.0789.065-.1271.007-.0482-.001-.0976-.023-.141-.022-.0434-.058-.0786-.101-.1005-.044-.0219-.093-.0294-.141-.0214-.74 0-3.06.08-3.31.56-.34.65.73 2.63 1.44 2.34zm1.22.82c.39.62 2.62.73 2.75-.07.09-.54-1-2.79-1.12-3.05-.015-.0472-.044-.0884-.083-.1178-.04-.0293-.088-.0451-.137-.0451-.05 0-.098.0158-.137.0451-.04.0294-.069.0706-.083.1178-.34.62-1.48 2.65-1.19 3.12zm4.07-.73c.73 0 2-1.85 1.38-2.38-.41-.36-2.91-.58-3.18-.64-.048-.0133-.099-.0114-.145.0053-.047.0167-.087.0474-.116.088-.028.0405-.044.0889-.043.1384 0 .0495.015.0978.044.1383.33.63 1.46 2.65 2.06 2.65zm-87.5702.8099c1.3361 1.2712 3.1059 1.9863 4.95 2h.12c1.3673-.015 2.6919-.4788 3.77-1.32.683.2322 1.3987.3537 2.12.36.8869.0178 1.764-.1885 2.55-.6.2784-.1711.5396-.3687.78-.59.5278.0414 1.0538-.0998 1.49-.4.1407-.1779.2361-.3874.2779-.6104.0418-.2229.0288-.4527-.0379-.6696-.0179-.1361-.0179-.2739 0-.41.27-.74.84-4.2-1.56-6.35-.85-.8515-1.9028-1.4727-3.0592-1.8051-1.1564-.3324-2.3783-.3651-3.5508-.0949-.9952.2218-1.9615.5573-2.88 1-.76.37-.76 1.8-.76 1.82-.0107.0627-.0309.1235-.06.18v.15c-.0976.662-.1211 1.3328-.07 2h-5.79v.47c-.0933 1.7852.5212 3.5351 1.71 4.87zm9.71-.2c.1157-.1258.2226-.2595.32-.4.77-1.06 1.54-3.4 1.21-4.4l-.1-.38h-6.14c-.067-.5714-.067-1.1486 0-1.72.088-.1912.1324-.3995.13-.61.0089-.3025.0733-.6008.19-.88.8594-.426 1.761-.7612 2.69-1 1.0145-.2291 2.0708-.195 3.0684.099.9976.294 1.9035.8383 2.6316 1.581 2 1.76 1.46 4.78 1.29 5.26-.0749.2953-.0749.6047 0 .9.0178.1461.0178.2939 0 .44-.3028.0819-.6177.109-.93.08h-.23l-.17.16c-.2144.2232-.4563.4181-.72.58-1.0052.4961-2.1555.6133-3.24.33v-.04zm-10.52-4.17c2 0 9.15 0 11.12-.05-.1082 1.1637-.4847 2.2864-1.1 3.28-.4804.6713-1.1159 1.2164-1.8524 1.5891-.7365.3726-1.5522.5616-2.3776.5509-1.5913.0185-3.1295-.5718-4.3-1.65-.9443-1.0101-1.4759-2.3373-1.49-3.72z"/><path d="M68.5424 61.7299c-.51-.2-1.89-2.3-2.06-2.51-.0346-.0344-.0574-.0789-.065-.1271-.0077-.0482.0002-.0976.0225-.141.0223-.0434.0578-.0786.1014-.1005.0436-.0219.093-.0294.1411-.0214.73 0 3 .08 3.31.56.34.65-.69 2.63-1.45 2.34zm-1.2197.82c-.39.62-2.62.73-2.75-.07-.09-.54 1-2.79 1.12-3.05.0143-.0472.0435-.0884.0831-.1178.0396-.0293.0876-.0451.1369-.0451.0492 0 .0972.0158.1368.0451.0396.0294.0688.0706.0832.1178.34.62 1.53 2.65 1.19 3.12zm-4.0199-.73c-.73 0-2-1.85-1.38-2.38.42-.36 2.92-.58 3.19-.64.047-.0104.0961-.0065.1408.0113.0448.0178.0831.0487.1101.0886.027.0399.0413.087.0411.1352-.0001.0482-.0148.0952-.042.1349-.37.63-1.51 2.65-2.06 2.65z"/><path d="M86.1225 51.0499c-1.2876-.0531-2.5503.3666-3.55 1.18-1.2845 1.0415-2.1421 2.5182-2.41 4.15-.2255.6953-.2851 1.4336-.174 2.156.1111.7224.3899 1.4088.814 2.004.3817.4231.8576.7503 1.3892.9553.5316.205 1.104.282 1.6708.2247 1.2869.0476 2.5477-.3714 3.55-1.18 1.2741-1.0546 2.1289-2.5301 2.41-4.16.39-1.84.18-3.23-.64-4.15-.3801-.4249-.8558-.7535-1.3878-.9587-.532-.2051-1.1051-.281-1.6722-.2213zm1.59 5.33c-.1635.984-.612 1.8984-1.29 2.63-.282.2932-.6207.5259-.9954.684-.3748.1582-.7778.2385-1.1846.236-.3557.0281-.7123-.043-1.03-.2054-.3178-.1625-.5843-.4098-.77-.7146-.3888-.8223-.4566-1.7602-.19-2.63.1654-.9845.6216-1.897 1.31-2.62.2832-.2943.6235-.5278 1.0001-.6859.3766-.1582.7815-.2379 1.1899-.2341.3533-.0301.7079.0404 1.0228.2031.315.1628.5775.4114.7572.7169.3793.8217.4434 1.7542.18 2.62zm8.4101-2.5601h-.26c-.5411-.0118-1.0725.1455-1.52.45-.369.2957-.7044.631-1 1l.27-1.3h-1.86l-1.57 7.46h2l.75-3.57c.0797-.4697.2532-.9186.51-1.32.2033-.2627.4688-.4707.7726-.6051.3038-.1345.6363-.1911.9674-.1649h.55l.39-1.95zm3.6803-2.5199h-1.97l-.39 1.8h1.98l.38-1.8zm-2.5501 2.68l-1.5799 7.45h1.9799l1.58-7.45h-1.98zm8.4802 1.08c-.069-.236-.188-.4546-.348-.6409-.161-.1863-.359-.336-.582-.4391-.294-.125-.612-.183-.93-.17-.488-.0077-.971.0892-1.418.2841-.447.1949-.847.4834-1.172.8459-.728.7771-1.22 1.7445-1.4205 2.79-.2708.9113-.1701 1.8927.2805 2.73.224.3359.535.6056.899.7814.363.1758.768.2513 1.171.2186.568.0131 1.127-.1398 1.61-.44.289-.1986.546-.4415.76-.72l-.1.48c-.085.5355-.275 1.0489-.56 1.51-.18.2401-.417.431-.689.5551-.273.1241-.573.1774-.871.1549-.356.0422-.714-.0545-1-.27-.058-.0671-.102-.1449-.129-.229-.028-.0841-.038-.1728-.031-.261h-2.1205c-.0651.3104-.0394.633.0741.9292.1135.2962.31.5534.5659.7408.6595.4146 1.4325.6106 2.2105.56.634.0552 1.273-.0281 1.872-.2439.599-.2158 1.144-.5591 1.598-1.0061.492-.6354.816-1.3855.94-2.18l1.51-7.07h-1.9l-.22 1.09zm-.58 2.62c-.091.6205-.378 1.1956-.82 1.64-.341.3249-.79.5104-1.26.52-.147.0166-.295.0037-.436-.0379-.141-.0417-.272-.1111-.386-.2044-.113-.0932-.207-.2083-.276-.3384-.068-.1302-.11-.2728-.122-.4193-.085-.3787-.085-.7713 0-1.15.088-.447.25-.8762.48-1.27.152-.2993.384-.5509.669-.7272.286-.1764.615-.2708.951-.2728.213-.0168.426.0257.617.1227.191.0971.351.245.463.4273.26.5327.303 1.1461.12 1.71zm5.12-6.38l-.39 1.8h1.98l.38-1.8h-1.97zm-2.16 10.13h1.98l1.58-7.45h-1.98l-1.58 7.45zm9.61-7.62c-.572-.0075-1.134.1487-1.62.45-.329.2328-.625.5086-.88.82l.23-1.08h-1.88l-1.58 7.44h1.94l.86-4c.065-.4019.211-.7864.43-1.13.157-.2638.381-.4808.65-.6285.269-.1477.573-.2207.88-.2115.54 0 .87.19 1 .57.079.2948.079.6052 0 .9l-1 4.54h2l1.07-5c.117-.3336.15-.6914.094-1.0407-.056-.3493-.198-.6791-.414-.9593-.235-.2276-.515-.4044-.821-.5197-.306-.1152-.633-.1664-.959-.1503zm9.429.48c-.636-.3382-1.349-.5037-2.07-.48-.519-.0354-1.04.035-1.532.2069s-.943.4417-1.328.7931c-.428.4522-.735 1.0064-.89 1.61h1.88c.087-.2564.226-.4916.41-.69.299-.2406.677-.3618 1.06-.34.308-.0233.616.039.89.18.19.11.25.32.19.63-.036.1298-.105.2482-.199.3444-.094.0961-.212.1669-.341.2056-.261.092-.533.1491-.81.17l-.68.09c-.625.0518-1.238.2108-1.81.47-.385.1949-.72.4772-.977.8245s-.429.7498-.503 1.1755c-.089.2776-.107.573-.053.8594.054.2864.179.5547.363.7806.202.2017.445.3578.713.4579.267.1.553.1417.837.1221.522.0022 1.037-.1213 1.5-.36.391-.208.757-.4596 1.09-.75-.008.1499-.008.3001 0 .45-.018.1427-.018.2873 0 .43h2.12l.06-.29c-.104-.0463-.189-.1277-.24-.23-.042-.1707-.042-.3492 0-.52.06-.33.11-.62.16-.86l.73-3.42c.18-.92 0-1.52-.57-1.86zm-1.9 4.25c-.041.2688-.137.5262-.281.7566-.145.2304-.335.4289-.559.5834-.37.237-.8.3652-1.24.37-.112.007-.225-.0089-.332-.0467-.107-.0378-.204-.0968-.288-.1733-.083-.0979-.138-.2166-.159-.3434-.021-.1268-.008-.2569.039-.3766.032-.1772.104-.3446.212-.4887.107-.1442.247-.2611.408-.3413.3-.1308.616-.2184.94-.26l.45-.09c.187-.0282.371-.0717.55-.13.143-.0508.28-.1144.41-.19l-.15.73zm5.241-7.18l-2.14 10.07h1.95l2.14-10.07h-1.95z"/><path d="M40.9326 57.3499l-1.28 1 .82 1c.71.87.79 1.64 0 2.28-.79.64-1.63.32-2.33-.55l-4.42-5.45c-.68-.83-.72-1.65 0-2.28.72-.63 1.54-.36 2.23.48l.84 1 1.28-1-.86-1.06c-1.33-1.64-2.87-2-4.4-.73-1.53 1.27-1.88 2.9-.39 4.74l4.51 5.57c1.4 1.73 2.92 1.78 4.51.5 1.59-1.28 1.45-3.07.2-4.61l-.71-.89zm5.9001-.65l-6.62-9.79-1.41.95 7.49 11.08 4.38-2.97-.86-1.28-2.98 2.01zm1.6199-15.0701l4.23 13 1.39-.77-1.26-3.71 2.45-1.36 2.51 3 1.57-.87-8.92-10.35-1.97 1.06zm3.89 7.19l-2-5.83h.08l3.93 4.77-2.01 1.06zm13.1699-4.42c-.2894-.6855-.7507-1.285-1.3392-1.7404-.5885-.4554-1.2845-.7514-2.0208-.8596l-1.39-.35c-.4438-.0454-.8689-.2021-1.236-.4555-.3671-.2535-.6643-.5955-.864-.9945-.36-.82-.37-1.78.59-2.2.96-.42 1.6.17 2 1l.23.53 1.44-.64-.26-.57c-.86-1.89-2.31-2.49-4-1.77-1.84.81-2.3 2.54-1.47 4.43.2596.6564.6907 1.2311 1.2484 1.6638.5576.4328 1.2213.7078 1.9216.7962l1.39.31c.4652.0796.905.2677 1.2838.5492.3788.2815.6859.6484.8962 1.0708.49 1.1.51 2-.39 2.41-1.19.53-1.87-.49-2.24-1.31l-.1-.24-1.44.63.22.49c.92 2.08 2.45 2.61 4.11 1.88 2-.89 2.27-2.62 1.38-4.62l.04-.01zm8.6003-3.0699c-.2318-.7087-.6411-1.3464-1.189-1.8522-.5479-.5059-1.2161-.8632-1.941-1.0378l-1.32-.47c-.4436-.0778-.86-.2674-1.2099-.5509-.3499-.2834-.6219-.6514-.7901-1.0691-.28-.85-.21-1.81.79-2.15 1-.34 1.57.31 1.87 1.18l.19.54 1.48-.51-.21-.59c-.66-1.95-2-2.69-3.76-2.11-1.9.65-2.52 2.34-1.85 4.29.2113.6812.6008 1.2935 1.1283 1.7735.5274.48 1.1737.8102 1.8717.9565l1.36.42c.4515.1246.8676.3532 1.2149.6675.3473.3143.6162.7056.7851 1.1425.39 1.14.34 2-.6 2.37-1.23.42-1.82-.65-2.11-1.5l-.1-.2-1.48.5.17.51c.74 2.15 2.22 2.81 3.94 2.23 2.07-.71 2.48-2.41 1.77-4.49l-.01-.05zm2.3546-10.9002l-1.6432.4357 3.4266 12.9234 1.6432-.4357-3.4266-12.9234zm12.0151 6.5802l-1.61.31.24 1.31c.21 1.11-.08 1.83-1.08 2-1 .17-1.59-.49-1.79-1.58l-1.31-6.91c-.2-1.05.14-1.79 1.12-2 .98-.21 1.53.41 1.74 1.48l.25 1.31 1.62-.3-.25-1.33c-.4-2.09-1.6-3.1-3.53-2.74-1.93.36-3 1.67-2.59 4l1.37 7.07c.42 2.2 1.73 3 3.74 2.58 2.01-.42 2.73-2 2.36-4l-.28-1.2zm12.2595-1.18l.07 1.29c.06 1.13-.32 1.8-1.3295 1.86-1.01.06-1.51-.7-1.57-1.81l-.4-7c-.06-1.07.38-1.76 1.37-1.82.99-.06 1.4695.61 1.5295 1.69l.08 1.34 1.64-.1-.08-1.35c-.12-2.11-1.18-3.28-3.1395-3.17-1.96.11-3.25 1.24-3.09 3.61l.4 7.15c.13 2.23 1.33 3.15 3.37 3 2.0395-.15 2.9995-1.64 2.8495-3.62l-.06-1.2-1.64.13zm8.46-9.2c-2.12-.08-3.21 1.25-3.28 3.27l-.26 7.27c-.063.4217-.031.8522.093 1.2601.124.408.338.7831.625 1.0982.287.3151.641.5622 1.036.7234.395.1611.821.2323 1.246.2083 2.1.07 3.22-1.38 3.29-3.35l.23-7c.13-2.01-.86-3.4-2.98-3.48zm1.11 10.53c0 1-.41 1.74-1.54 1.71-1.13-.03-1.42-.87-1.39-1.81l.24-7.18c0-1 .44-1.71 1.51-1.67 1.07.04 1.45.81 1.41 1.77l-.23 7.18zm8.221-9.6l-1.69-.2-1.6 13.27 5.25.63.19-1.53-3.57-.43 1.42-11.74zm9.17 1.44l-1.66-.34-2.67 13.1 5.18 1.05.31-1.51-3.52-.72 2.36-11.58zm8.65 3.6199l3.44 1 .43-1.44-5.09-1.48-3.73 12.84 5.08 1.48.42-1.45-3.45-1.01 1.31-4.49 2.84.83.43-1.47-2.84-.83 1.16-3.98zm10.5 1.6901c-1.83-.7-3.45-.18-4.3 2l-2.57 6.69c-.8 2.08-.09 3.42 1.82 4.16 1.91.74 3.38-.28 4.09-2.13l.43-1.13-1.53-.59-.47 1.21c-.4 1.06-1 1.51-2 1.15-1-.36-1.09-1.26-.7-2.29l2.53-6.56c.38-1 1.07-1.45 2-1.1.93.35 1.08 1.16.69 2.18l-.48 1.24 1.54.59.48-1.26c.8-1.95.28-3.45-1.53-4.16zm10.61 6.68l.67-1.39-5.6-2.71-.68 1.39 2.03.98-5.14 10.65 1.53.74 5.14-10.65 2.05.99zm3.9.3977l-6.614 11.6194 1.477.8409 6.614-11.6193-1.477-.841zm8.01 4.6423c-1.76-1.18-3.39-.64-4.51 1l-4 6c-.282.3271-.485.7135-.597 1.1303-.111.4168-.127.8533-.046 1.277.081.4238.256.8239.513 1.1706.256.3467.588.6311.97.8321 1.75 1.17 3.47.52 4.56-1.11l3.84-5.7c1.14-1.72 1.04-3.42-.73-4.6zm-.63 3.6l-4 6c-.55.82-1.26 1.2699-2.2.6399-.94-.63-.75-1.49-.23-2.27l4-6c.53-.79 1.28-1.2099 2.16-.6199.183.1158.339.2711.455.4546.116.1835.189.3906.215.6061.026.2155.003.4341-.066.6398-.069.2058-.183.3935-.334.5495zm10.59 4.15l-5.95 7.3-.05-.04 3.69-9.14-1.49-1.22-8.46 10.36 1.13.92 6.42-7.88.05.04-3.94 9.93 1.26 1.03 8.46-10.38-1.12-.92z"/></svg>