<svg viewBox="0 0 93.38 13.54" fill="currentColor"><defs><style>.cls-1{fill:#c2d500}.cls-2{fill:#53575a}</style></defs><g id="Layer_2" data-name="Layer 2"><g id="Layer_1-2" data-name="Layer 1"><g id="Title_mid" data-name="Title mid"><path d="M93.38 6.68v-.47h-5.79a8.4 8.4 0 00-.08-2v-.14a.45.45 0 01-.07-.19s0-1.44-.75-1.81a12.7 12.7 0 00-2.89-1A7.07 7.07 0 0077.13 3c-2.4 2.1-1.83 5.56-1.56 6.3a1.57 1.57 0 010 .41 1.36 1.36 0 00.21 1.29 2.25 2.25 0 001.49.41 5.08 5.08 0 00.78.59 5.36 5.36 0 002.55.6 6.67 6.67 0 002.11-.36 6.27 6.27 0 003.77 1.32h.12a7.26 7.26 0 005-1.92 6.84 6.84 0 001.78-4.96zm-14.83 4.43a4.87 4.87 0 01-.73-.58l-.16-.17h-.23a2.63 2.63 0 01-.93-.08 1.42 1.42 0 010-.44 1.83 1.83 0 000-.9c-.17-.48-.68-3.5 1.29-5.26A6.06 6.06 0 0183.49 2a13.74 13.74 0 012.69 1 2.32 2.32 0 01.19.89 1.41 1.41 0 00.14.61 7.38 7.38 0 010 1.72h-6.15l-.1.38c-.28 1 .45 3.38 1.22 4.48a3 3 0 00.32.41 4.7 4.7 0 01-3.25-.38zm12.33-.22a6.24 6.24 0 01-4.3 1.65 5.12 5.12 0 01-4.23-2.1 7.47 7.47 0 01-1.1-3.28h11.12a5.53 5.53 0 01-1.49 3.73z" class="cls-1"/><path d="M84.1 10.68c.52-.2 1.89-2.3 2.07-2.51a.23.23 0 00-.2-.39c-.73 0-3.06.07-3.31.56-.34.66.69 2.66 1.44 2.34zM85.33 11.49c.39.63 2.62.74 2.75-.06.09-.54-1-2.79-1.12-3a.23.23 0 00-.44 0C86.18 9 85 11 85.33 11.49zM89.34 10.77c.74 0 2-1.85 1.39-2.38-.42-.36-2.92-.58-3.19-.64a.23.23 0 00-.25.36c.37.63 1.51 2.66 2.05 2.66zM1.82 11.62a7.28 7.28 0 005 1.92h.08a6.27 6.27 0 003.77-1.32 6.67 6.67 0 002.11.36 5.32 5.32 0 002.55-.6 4.63 4.63 0 00.78-.59A2.25 2.25 0 0017.6 11a1.36 1.36 0 00.24-1.27 1.57 1.57 0 010-.41c.27-.74.84-4.2-1.56-6.35a7.06 7.06 0 00-6.6-1.9 12.7 12.7 0 00-2.89 1C6 2.46 6 3.89 6 3.9a.58.58 0 010 .19v.14a8.4 8.4 0 00-.08 2L.5 6.21H0v.47a6.88 6.88 0 001.82 4.94zm9.71-.2a4.23 4.23 0 00.33-.41c.77-1.1 1.49-3.43 1.21-4.48L13 6.15H6.85a8 8 0 010-1.72A1.41 1.41 0 007 3.86 2.32 2.32 0 017.2 3a13.74 13.74 0 012.69-1 6.06 6.06 0 015.69 1.7c2 1.76 1.47 4.78 1.29 5.26a1.83 1.83 0 000 .9 1.42 1.42 0 010 .44 2.63 2.63 0 01-.93.08h-.23l-.16.17a4.35 4.35 0 01-.73.58 4.69 4.69 0 01-3.29.29zM1 7.21h11.12A7.58 7.58 0 0111 10.44a5.14 5.14 0 01-4.24 2.1 6.26 6.26 0 01-4.3-1.65A5.58 5.58 0 011 7.21z" class="cls-1"/><path d="M9.28 10.68c-.52-.2-1.89-2.3-2.07-2.51a.23.23 0 01.2-.39c.73 0 3.06.07 3.31.56.34.66-.72 2.66-1.44 2.34zM8.05 11.49c-.39.63-2.62.74-2.75-.06-.09-.54 1-2.79 1.13-3a.23.23 0 01.43 0C7.21 9 8.34 11 8.05 11.49zM4 10.77c-.74 0-2-1.85-1.39-2.38.42-.36 2.92-.58 3.19-.64a.23.23 0 01.25.36c-.33.63-1.47 2.66-2.05 2.66z" class="cls-1"/><path d="M26.86 0a5.27 5.27 0 00-3.55 1.18 6.71 6.71 0 00-2.41 4.15c-.39 1.81-.18 3.2.64 4.16a3.6 3.6 0 003.05 1.17 5.31 5.31 0 003.55-1.17 6.88 6.88 0 002.41-4.16c.4-1.84.18-3.23-.64-4.15A3.58 3.58 0 0026.86 0zm1.59 5.33A5 5 0 0127.15 8a3 3 0 01-2.15.88A2 2 0 0123.17 8 3.71 3.71 0 0123 5.33a5 5 0 011.3-2.62 3 3 0 012.19-.93 1.91 1.91 0 011.79.93 3.69 3.69 0 01.17 2.62zM36.85 2.77h-.25a2.63 2.63 0 00-1.53.46 6 6 0 00-1 1l.28-1.3h-1.86l-1.58 7.45h2l.75-3.56a3.55 3.55 0 01.51-1.32 2 2 0 011.74-.77h.56zM40.53.25h-1.97l-.38 1.79h1.97l.38-1.79zM37.98 2.93l-1.57 7.45h1.97l1.58-7.45h-1.98zM46.46 4a1.71 1.71 0 00-.92-1.08 2.16 2.16 0 00-.94-.18A3.4 3.4 0 0042 3.89a5.55 5.55 0 00-1.4 2.79 3.56 3.56 0 00.27 2.73 2.29 2.29 0 002.08 1 2.81 2.81 0 001.6-.45 3.1 3.1 0 00.76-.71l-.1.47a4.09 4.09 0 01-.55 1.52 1.8 1.8 0 01-1.56.76 1.42 1.42 0 01-1-.27.71.71 0 01-.16-.49h-2.13a1.63 1.63 0 00.65 1.67 3.7 3.7 0 002.21.56 4.36 4.36 0 003.46-1.26 4.66 4.66 0 00.95-2.21l1.5-7.07h-1.89zm-.57 2.61a3 3 0 01-.82 1.65 1.89 1.89 0 01-1.27.51 1.09 1.09 0 01-1.21-.94 2.64 2.64 0 010-1.15 4 4 0 01.47-1.27 1.83 1.83 0 011.62-1 1.14 1.14 0 011.1.59 2.25 2.25 0 01.11 1.62zM51 .25l-.38 1.79h1.97l.39-1.79H51zM48.85 10.38h1.97l1.58-7.45h-1.97l-1.58 7.45zM58.46 2.75a2.9 2.9 0 00-1.62.46A4.22 4.22 0 0056 4l.18-1H54.3l-1.58 7.43h1.94l.86-4A3.18 3.18 0 0156 5.22a1.73 1.73 0 011.54-.84c.54 0 .86.19 1 .57a1.89 1.89 0 010 .9l-1 4.53h2l1.07-5a2.12 2.12 0 00-.31-2 2.39 2.39 0 00-1.84-.63zM67.89 3.24a4.18 4.18 0 00-2.08-.49 3.87 3.87 0 00-2.86 1 3.61 3.61 0 00-.89 1.61h1.88a1.93 1.93 0 01.42-.69 1.46 1.46 0 011-.34 1.86 1.86 0 01.9.17.57.57 0 01.18.64.77.77 0 01-.53.55 3.16 3.16 0 01-.82.17l-.67.08a5.64 5.64 0 00-1.81.48 2.79 2.79 0 00-1.49 2 1.77 1.77 0 00.36 1.58 2 2 0 001.55.58 3.21 3.21 0 001.51-.37 5.3 5.3 0 001.08-.74v.45a2.12 2.12 0 000 .42h2.11l.06-.28a.59.59 0 01-.24-.23 1.08 1.08 0 010-.52c.06-.34.11-.62.16-.86l.74-3.42c.19-.86 0-1.47-.56-1.79zM66 7.49a2 2 0 01-.84 1.34 2.29 2.29 0 01-1.23.37.85.85 0 01-.65-.2.75.75 0 01-.12-.72 1.18 1.18 0 01.62-.83 3.87 3.87 0 011-.27l.45-.08a3.46 3.46 0 00.5-.1 3 3 0 00.41-.19zM71.23.31l-2.14 10.07h1.95L73.18.31h-1.95z" class="cls-2"/></g></g></g></svg>