<svg viewBox="0 0 179.69 47.54" fill="currentColor"><defs><style>.cls-1{fill:#c2d500}</style></defs><g id="Layer_2" data-name="Layer 2"><g id="Layer_1-2" data-name="Layer 1"><g id="Title_top" data-name="Title top"><path d="M76.61 14.42l-8.7-1.36 6.81 5.24 1.89-3.88zM81.8 9.73l-7.32-4.9 3.98 7.62 3.34-2.72zM88.49 7.65L83.9.13l.41 8.58 4.18-1.06zM95.55 0l-4.12 7.53 4.12 1.28V0zM105.24 4.59l-6.91 5.1 3.2 2.89 3.71-7.99zM104.92 18.58l6.81-5.58-8.44 1.59 1.63 3.99z" class="cls-1"/><path d="M176.73 43.08c3.41-3.69 3.21-8.87 2.62-11.1-.18-.68-.3-1.31-.42-1.89-.54-2.65-.93-4.57-4.87-5.41-.28-.06-.56-.11-.85-.15a3.79 3.79 0 01-2.27-.85 6.14 6.14 0 01-.54-.75 2.61 2.61 0 00-2-1.48c-.76-.1-1.52-.16-2.29-.21h-.46a19.76 19.76 0 00-2.4-1.07 7.84 7.84 0 00-5.09.43c1.12-1.13 2.36-2.4 2.79-3a5.31 5.31 0 011.24-1.2.49.49 0 00.23-.28v-.18a.6.6 0 00-.07-.49c-.2-.26-.51-.27-1-.27a6 6 0 01-.71 0c-.75-.08-1.92.29-3.8 1.23.68-1.71 1.67-4.5 1.73-4.7v-.14a.74.74 0 00-.11-.85c-.33-.29-.77-.09-1.28.15a63.63 63.63 0 00-5.07 4.13c-.32-1.66-1.11-4.93-1.62-5.12a.52.52 0 00-.52.1.64.64 0 00-.11.69 8.49 8.49 0 01-.76 3.13 13.85 13.85 0 00-2.61-2.13 5.22 5.22 0 00-1.89-.41h-.6c-.38-.76-.59-1-.95-1a.57.57 0 00-.48.39 2.76 2.76 0 000 .63 5.75 5.75 0 01-3.36-.56c-2.19-1.34-4.65-.78-7 .17a6.53 6.53 0 00-.21-3.53 1.2 1.2 0 00-.42-.46 1.45 1.45 0 00.42-1.09 1.06 1.06 0 10-2 .09 1.45 1.45 0 00.41 1.1 1.25 1.25 0 00-.57 1c-.08.66-.3 3.52-.69 4.13a2.51 2.51 0 01-.19.24l-1 .43h-.09s-.26-7.63-.33-9.35-3.06-1.74-3.09-.12.17 6.56.17 6.56-1.12 0-1.44-1.61-.28-2.98-.59-3.28l-.13-.1a2.4 2.4 0 00.23-1.14c0-1-.63-1.77-1.31-1.74s-1.21.85-1.17 1.84a2.25 2.25 0 00.4 1.23.88.88 0 00-.08.3 11.79 11.79 0 00.64 4.57 3.53 3.53 0 002.36 2.18l1.07.16.08 1.53c-1.58.51-3.11 1.11-4.71 1.73-4.68 1.82-9.53 3.7-16.42 3.71A14.21 14.21 0 0090 9.82a14.56 14.56 0 00-13.58 9.4c-6.9 0-12-1.88-16.65-3.7-1.6-.62-3.13-1.22-4.71-1.73l.08-1.53 1.07-.16a3.51 3.51 0 002.36-2.18 11.79 11.79 0 00.64-4.57.88.88 0 00-.08-.3 2.25 2.25 0 00.4-1.23c0-1-.48-1.82-1.17-1.84S57 2.73 57 3.72a2.4 2.4 0 00.24 1.14.49.49 0 00-.13.1c-.32.34-.27 1.66-.59 3.26s-1.43 1.61-1.43 1.61.2-4.94.16-6.56-3-1.59-3.09.12-.33 9.35-.33 9.35h-.09l-1-.43a2.54 2.54 0 01-.2-.24c-.39-.61-.61-3.47-.69-4.13a1.25 1.25 0 00-.57-1 1.46 1.46 0 00.52-1.04 1.07 1.07 0 10-2.06-.09 1.45 1.45 0 00.38 1.09 1.2 1.2 0 00-.42.46 6.64 6.64 0 00-.17 3.54c-2.35-1-4.81-1.51-7-.17a5.87 5.87 0 01-3.42.56 2.42 2.42 0 00-.06-.54.57.57 0 00-.48-.39c-.34 0-.5.15-.84.87h-.63a5.23 5.23 0 00-1.9.41 13.3 13.3 0 00-2.54 2.06 8.08 8.08 0 01-.73-3.06.63.63 0 00-.12-.69.5.5 0 00-.51-.1c-.52.15-1.3 3.54-1.64 5.15a62.3 62.3 0 00-5.25-4.21c-.51-.24-.95-.44-1.28-.15a.76.76 0 00-.11.85v.14c.06.2 1.05 3 1.73 4.7-1.88-.94-3-1.31-3.8-1.23a6 6 0 01-.71 0c-.46 0-.77 0-1 .27a.57.57 0 00-.08.49l.05.18a.49.49 0 00.23.28 5.1 5.1 0 011.24 1.2c.43.57 1.67 1.84 2.79 3a7.84 7.84 0 00-5.09-.43 18.66 18.66 0 00-2.41 1.08h-.44c-.77.05-1.54.11-2.3.21a2.61 2.61 0 00-2 1.48 6 6 0 01-.53.75 3.85 3.85 0 01-2.28.85c-.29 0-.57.09-.85.15-3.94.84-4.33 2.76-4.87 5.41C.65 30.67.52 31.3.34 32-.25 34.21-.45 39.39 3 43.08a.51.51 0 00.13.09 14.56 14.56 0 00-.33 3.9.5.5 0 00.5.47.5.5 0 00.46-.54 12.74 12.74 0 01.74-5.09 1.23 1.23 0 00.25.36 1.45 1.45 0 00.81.4 2.37 2.37 0 001 1.05 9.11 9.11 0 004.51 1.19 5.43 5.43 0 004-1.45 5.67 5.67 0 001.65-4.12A7.9 7.9 0 0014.2 34a1.19 1.19 0 00-1.1-1 1.34 1.34 0 00-.47-.62 1.69 1.69 0 00-1.19-.26C13 30 15 27.62 17 26.51a14.21 14.21 0 014.15-1.16l3 1.63a11.26 11.26 0 00-2-.06l-.92.08c-.05 0-5 .53-5.32 1.67a.63.63 0 00.1.53c.24.29.59.24 1.36.15a10.43 10.43 0 013.61 0c.63.14 1.37.29 2.14.43a10.47 10.47 0 00-1.66.85A32.65 32.65 0 0018 33.18a6.44 6.44 0 01-1.37 1c-.69.31-.56.75-.5.88.15.34.66.45 1.2.45a5.17 5.17 0 001.52-.23c.26-.11.53-.21.88-.33.55-.2 1.26-.45 2.32-.89a14.74 14.74 0 013.48-.75 9.11 9.11 0 00-1.16 1c-.74.75-3.56 4-3.32 4.94a.68.68 0 00.4.41.57.57 0 00.15 0c.37 0 1.34-.47 5.72-4.3a13.45 13.45 0 013.14-1.76l.13-.06c.42 1.16.68 1.39 1 1.4a.54.54 0 00.48-.32 17.31 17.31 0 00.48-1.85c.21 0 .47 0 .77-.09 1.07-.18 2.36-1.72 2.71-2.34a.6.6 0 00.08-.21 9.88 9.88 0 001.17-.87A7.06 7.06 0 0139.22 28c.74-.3 1.67-.63 2.49-.92 1.55-.56 1.9-.69 2.07-.88a.59.59 0 000-.71 4.8 4.8 0 00-2.06-.91c.11-.24.24-.59.44-1.12a34.74 34.74 0 011.36-3.21 47.09 47.09 0 017.76-.53 34.14 34.14 0 0112.87 2.54c-1.46.3-3 .63-4.48 1-2.61.61-5.23 1.35-7.77 2.19a.5.5 0 00.32.95c2.51-.84 5.1-1.56 7.68-2.16 11.41-2.65 20.94-3.89 30-3.89a114 114 0 0131.21 4.21c2.29.65 4.39 1.27 6.24 1.85h.15a.49.49 0 00.5-.41.5.5 0 00-.33-.63c-1.85-.57-4-1.2-6.26-1.85-1.88-.54-3.79-1-5.72-1.44 4.81-2.08 8.49-2.22 12.58-2.38a52 52 0 017.92.54c.5 1 1 2.35 1.33 3.16.2.53.33.88.44 1.12a4.8 4.8 0 00-2.06.91.59.59 0 000 .71c.17.19.52.32 2.08.88.81.29 1.74.62 2.48.92a7.06 7.06 0 011.9 1.26 11.11 11.11 0 001.17.87 1.8 1.8 0 00.08.21c.35.62 1.64 2.16 2.71 2.34.3 0 .56.08.77.09a13.46 13.46 0 00.49 1.85.53.53 0 00.48.32c.33 0 .58-.24 1-1.4a.52.52 0 01.13.06 13.45 13.45 0 013.14 1.76c4.38 3.83 5.35 4.3 5.72 4.3a.57.57 0 00.15 0 .65.65 0 00.4-.41c.24-.93-2.58-4.19-3.32-4.94a9 9 0 00-1.15-1 14.65 14.65 0 013.47.75c1.07.44 1.78.69 2.32.89.35.12.63.22.88.33a5.17 5.17 0 001.52.23c.54 0 1.06-.11 1.21-.45 0-.13.18-.57-.51-.88a6.44 6.44 0 01-1.37-1 33.35 33.35 0 00-3.49-2.52 10.84 10.84 0 00-1.65-.85c.75-.14 1.5-.29 2.12-.43a10.43 10.43 0 013.61 0c.77.09 1.12.14 1.36-.15a.63.63 0 00.11-.53c-.35-1.14-5.28-1.67-5.33-1.67l-.92-.08a11.12 11.12 0 00-2 .06l3-1.63a14.12 14.12 0 014.15 1.16c2 1.11 4 3.49 5.62 5.52a1.69 1.69 0 00-1.19.26 1.34 1.34 0 00-.47.62 1.19 1.19 0 00-1.1 1.08 7.9 7.9 0 00-2.5 5.32 5.64 5.64 0 001.66 4.12 5.39 5.39 0 004 1.45 9.08 9.08 0 004.51-1.19 2.31 2.31 0 001-1.05 1.45 1.45 0 00.81-.4 1.31 1.31 0 00.26-.37 12.83 12.83 0 01.73 5.1.51.51 0 00.48.52.5.5 0 00.5-.47 14.56 14.56 0 00-.33-3.9.38.38 0 00.14-.01zm-13.73-22a28.63 28.63 0 012.71 1.24A24.92 24.92 0 00161 23c-.51.2-1.55.72-2.71 1.33a.47.47 0 00-.38.2c-1.19.63-2.47 1.32-3.43 1.85l-1.3.7-1.75.65-.52-.22c1-.94 2.17-2.05 3-2.89s1.51-1.4 2-1.83h.07l.53-.29c1.25-.72 3.8-2.17 6.49-1.42zm-2.35-5h.27a7 7 0 00-.74.82c-.48.64-2.22 2.41-3.38 3.57l-1.09 1.11c-.24.26-1.22 1.18-2.36 2.25-1.54 1.44-2.66 2.49-3.44 3.25a2.6 2.6 0 00-1.24.06v-.12a3 3 0 00-1.22-1.21c.46-.49 1-1.08 1.49-1.55.81-.82 1.56-1.59 1.95-2.09a4.56 4.56 0 00.6-.5 30.45 30.45 0 015-4c2.11-1.09 3.51-1.62 4.11-1.55zm-3.08-4.29c-.46 1.34-1.78 4.85-2 5.2v.09a27 27 0 00-3.57 2.8 10.67 10.67 0 00.35-3.78 65.6 65.6 0 015.17-4.27zm-7 .76a24.76 24.76 0 01.69 3.21 9.7 9.7 0 01-.68 4.93 4.33 4.33 0 01-.46.81c-.32.43-1.15 1.28-1.95 2.1l-1.06 1.09c.34-2.33.33-2.36.32-2.37V22a21.85 21.85 0 011.16-4.2l.28-.68c.71-1.78 1.32-3.33 1.68-4.53zm-4.42 0a17.71 17.71 0 012.59 2.21c-.28.72-.56 1.43-.8 2l-.28.68a18.82 18.82 0 00-.66 1.86 26 26 0 00-1.62-5c-.35-.69-.68-1.43-1-2h.14a4.3 4.3 0 011.61.26zm-2.93 11a22.76 22.76 0 00-1.07-3.74c-.23-.53-.86-2-1-2.36a.84.84 0 010-.27 2 2 0 00-.47-1.18c-.23-.33-.49-.73-.73-1.11.21.18.42.35.59.51.49.42.95.82 1.27 1.07a6 6 0 011.42 2c-.02 1.58-.02 3.53-.03 5.11zm-106.7-.13v-5a6 6 0 011.39-1.93c.32-.25.78-.65 1.27-1.07.17-.16.38-.33.59-.51-.24.38-.5.78-.73 1.11a2 2 0 00-.47 1.18.84.84 0 010 .27c-.13.37-.76 1.83-1 2.37a21.2 21.2 0 00-1.05 3.58zm-3-10.86a4.3 4.3 0 011.54-.35h.19c-.28.62-.61 1.37-1 2.07a25.49 25.49 0 00-1.59 4.95 17.48 17.48 0 00-.59-1.77l-.27-.67c-.25-.61-.54-1.35-.83-2.09a16.72 16.72 0 012.59-2.14zm-5 3.24a23.2 23.2 0 01.69-3.21c.35 1.2 1 2.76 1.7 4.58l.27.67a20.73 20.73 0 011.11 3.89 4.4 4.4 0 000 .57 15.55 15.55 0 00.3 2.35c-.28-.3-.6-.63-1-1-.8-.82-1.63-1.67-1.95-2.1a4.33 4.33 0 01-.46-.81 9.49 9.49 0 01-.63-4.94zm-1.07.4a10.87 10.87 0 00.4 3.81 27.46 27.46 0 00-3.71-2.93v-.07c-.23-.36-1.54-3.87-2-5.21a61.65 61.65 0 015.34 4.4zm-8.66-.05h.27c.64-.07 2 .46 4.16 1.59a31 31 0 015 4 2.36 2.36 0 00.75.58c.41.5 1.12 1.23 1.89 2 .44.45 1 1 1.45 1.51a3.17 3.17 0 00-1.28 1.24v.12a2.6 2.6 0 00-1.24-.06c-.78-.76-1.89-1.81-3.45-3.26-1.13-1.06-2.11-2-2.35-2.24s-.6-.62-1.09-1.1c-1.11-1.15-2.9-2.92-3.34-3.53a6.25 6.25 0 00-.74-.85zm-2.08 4.93c2.65-.75 5.19.7 6.42 1.4l.53.29h.07l1.94 1.83c.89.83 2.09 1.95 3.06 2.89l-.52.22-1.72-.64-1.32-.71c-2-1.11-5.46-3-6.53-3.38a24.92 24.92 0 00-4.64-.66 27.57 27.57 0 012.74-1.24zM4.64 34.73a.65.65 0 01.1-.47.13.13 0 01.12-.06.51.51 0 00.51-.41.78.78 0 01.31-.57.22.22 0 01.13 0 .5.5 0 00.7-.12l.07-.1c-.06.1-.12.2-.17.3l-.14.27a3.82 3.82 0 01-.7 1.07 4 4 0 01-.9.57q-.31.16-.63.36a.4.4 0 01.23-.23.51.51 0 00.37-.61zm10.13 1.64a2.21 2.21 0 00-1 1.25 5.4 5.4 0 00-.18.57 3.66 3.66 0 01-.33.88l-.1.14a7 7 0 00.13-.9v-.21a4.06 4.06 0 01.27-1.4c.17-.35.55-.68.9-.61h.11zm.91 2.7a.5.5 0 00-.43.55c0 .06-.07.19-.22.31a1.88 1.88 0 01-.23.16l-.08.06v-.28a1.09 1.09 0 010-.32c0-.21.31-.4.59-.6l.32-.25c.03.12.04.3.05.37zm-8.61 3.81v-.18a3.29 3.29 0 011.22-3 6.73 6.73 0 01.88-.5l.29-.2a10.18 10.18 0 00-.33 1.29 8.43 8.43 0 01-.2.9c-.22.79-.75 1.6-1.46 1.63a.5.5 0 00-.29.12zM5.3 40.55a.47.47 0 00-.51 0 .58.58 0 01-.34-.26.5.5 0 00.21-.57 1.07 1.07 0 01.44-1.06 4.53 4.53 0 011.22-.63l.28-.12c.16-.06.32-.14.49-.22l-.18.53-.18.56c-.16.49-.62 1.54-1.43 1.77zM4 36.93a2.39 2.39 0 011.09-.83l.36-.2c-.06.13-.11.26-.16.39l-.18.46c-.11.24-.48 1-1 1.11a1.13 1.13 0 01-.4-.65.11.11 0 010-.05.49.49 0 00.29-.23zm7.15-3a2.9 2.9 0 01-1.28.94l-.23.1c-.3.14-.6.28-.89.45.05-.19.1-.38.17-.57a2.61 2.61 0 012.11-1.6.51.51 0 01.16.65zm-3.69 2.23a2.64 2.64 0 01-1.25.84l-.11.05c.06-.14.11-.27.16-.41A3.3 3.3 0 017 35.33a3.59 3.59 0 01.77-.47.83.83 0 00.16-.09c0 .15-.09.29-.12.43a3.19 3.19 0 01-.35.96zm6.26 3.94v.07a1.52 1.52 0 01-.63.91l-.14.13a2.65 2.65 0 01.3-.58 4.4 4.4 0 01.35-.39zm-2 1.76l-.11.43c-.12.38-.88.83-1.47 1.13a1.44 1.44 0 01.22-1.48 3.43 3.43 0 011-.66 6.29 6.29 0 00.67-.37c-.16.31-.24.63-.33.95zM9 43.07a2.62 2.62 0 00.12.62l-.66-.17a2.31 2.31 0 00.54-.45zm2.69.55a1.34 1.34 0 00.09.26 4.41 4.41 0 01-.52 0 4.61 4.61 0 00.46-.26zm1.06-.08c-.17-.15-.13-.52 0-.76a3.13 3.13 0 01.72-.74l.23-.19-.06.38c0 .37-.13.82-.4 1a.52.52 0 00-.2.34 1.76 1.76 0 01-.2.09.58.58 0 00-.06-.12zm2.54-6c0 .21-.29.4-.58.61l-.09.07a1.83 1.83 0 01.08-.25 1.31 1.31 0 01.5-.7zm-3 .53v.2a2.71 2.71 0 01-.41 1.45 3.25 3.25 0 01-1 .72 5.83 5.83 0 00-.83.49c0-.13.06-.26.09-.39a5.22 5.22 0 01.54-1.74 5.48 5.48 0 011.7-1.52c-.02.21-.04.48-.06.72zM10 37.44a4.09 4.09 0 01-1.25.84 8.56 8.56 0 00-.92.52l.09-.25a4.52 4.52 0 011-2 4.65 4.65 0 011.26-.74l.24-.11.37-.18-.09.32a4 4 0 01-.7 1.6zm-2-3.81a4.53 4.53 0 01-.61.34l-.2.1.13-.26a2.22 2.22 0 01.92-1 .49.49 0 00.28-.33.78.78 0 01.27 0 2 2 0 01-.85 1.15zM5.74 41.7a.45.45 0 01-.3-.15 2.31 2.31 0 00.71-.29c0 .12-.05.24-.07.36a.53.53 0 00-.34.08zm8.93.66v-.09A2 2 0 0115 41.2a1.8 1.8 0 01.36-.28l.12-.08a4.76 4.76 0 01-.81 1.52zm-1.15-7.57a4.9 4.9 0 01-1.72 1.62l-.37.26.15-.52c.05-.18.1-.36.16-.54.12-.39.48-1.31 1.18-1.43a.46.46 0 00.23-.12 1 1 0 01.1.33.54.54 0 00.14.27zm3-9.16c-2.22 1.22-4.33 3.75-6 5.87a2 2 0 00-.93.12.47.47 0 00-.25-.11 1.81 1.81 0 00-1.77.19 1.67 1.67 0 00-1.57.49 1.28 1.28 0 00-.61.09 1.55 1.55 0 00-.87 1 1.09 1.09 0 00-.51.37 1.61 1.61 0 00-.33.91 1.5 1.5 0 00-.58.78 1.52 1.52 0 000 1 1.36 1.36 0 00-.35.85 1.7 1.7 0 00.46 1.13 1.62 1.62 0 00-.16.77 1.2 1.2 0 00.29.73 1.52 1.52 0 00.45 1.24c-.13.32-.26.64-.37 1a11.78 11.78 0 01-2.08-9.8c.18-.7.31-1.35.43-2 .52-2.54.8-3.93 4.1-4.63.26-.06.53-.1.8-.15a4.59 4.59 0 002.83-1.14 6.06 6.06 0 00.63-.87c.38-.59.61-.95 1.3-1h.42a.47.47 0 00-.07.28c.05.45.12.45 1.93.62a27.78 27.78 0 014.61.64c.3.11.83.37 1.47.69a11.26 11.26 0 00-3.25.93zm4.73 2.77a8.56 8.56 0 00-1.49-.19c.49-.08 1-.16 1.61-.22l.89-.07a12.83 12.83 0 014.48.62.6.6 0 00-.06.11c0 .18-.05.26.15.49-.36 0-.76 0-1.2.05-1.18-.19-2.82-.43-4.36-.79zm5.65 3.72a22.22 22.22 0 00-5.24 1c-1 .44-1.73.69-2.26.88l-1 .35a1.53 1.53 0 01-.41.1l.59-.47a33.28 33.28 0 013.4-2.46 8.4 8.4 0 013.57-1.3 7.82 7.82 0 001.94.09 1.88 1.88 0 01.36 0l1.15 1.1a14 14 0 00-1.45.64zm-.24 2.47c-1.55 1.35-3 2.54-3.95 3.27A22.11 22.11 0 0125.1 35a12.86 12.86 0 014.64-2.74l.35.43a14.41 14.41 0 00-3.41 1.9zm5.41-6.73l-.17.43a11 11 0 00-.29 4.07 3.41 3.41 0 01-.12.71c-.29-.82-1.88-2.48-3.34-4l-.15-.15c.46-.21 1.12-.51 1.74-.72a1.45 1.45 0 011.34.12.5.5 0 00.82-.37 2.56 2.56 0 01.14-.55 1.27 1.27 0 01.39-.39zm3.12 2c-.32.56-1.42 1.75-2 1.85l-.59.08a8.82 8.82 0 01.23-3.08l.18-.44c.16-.4.33-.8.48-1.12 0 .44.45.86 1.1 1.49a6.38 6.38 0 01.59.59.67.67 0 01.03.59zM34.5 27a1.8 1.8 0 010-.4 1.94 1.94 0 000-.83.74.74 0 00-.54-.5.75.75 0 00-.26 0c-.2-1.33-.41-2.77-.42-2.89s0-.5 0-1.08a29.88 29.88 0 011.88-6.58c.32-.61.61-1.26.87-1.84a10.6 10.6 0 01-.32 2.39c-.26.72-.27 5-.22 11.12v1.46a.53.53 0 000 .25l-.28-.28a5.25 5.25 0 01-.71-.82zm6.87-.91c-.83.3-1.77.63-2.53.95a8.08 8.08 0 00-2.16 1.41l-.24.2c.27-.55.56-1.13.77-1.52A2.89 2.89 0 0138.78 26c.3-.13.63-.28 1-.47a1.57 1.57 0 01.72-.14 6 6 0 011.84.38zm-.12-3c-.21.55-.45 1.17-.54 1.32a2.82 2.82 0 00-1.42.24c-.33.18-.63.31-.92.44a6.26 6.26 0 00-1.3.73c0-.28.1-.57.16-.87a.44.44 0 00.12-.15 17.71 17.71 0 013-3.93 8.43 8.43 0 012.27-1.13 31.14 31.14 0 00-1.37 3.35zm3.19-4a.49.49 0 00.09-.54.5.5 0 00-.63-.26l-1 .34a10.2 10.2 0 00-3.12 1.45 10.18 10.18 0 00-2 2.19 15.37 15.37 0 01.65-2c0-.08.85-2 1-2.44a2.16 2.16 0 00.09-.52 1.11 1.11 0 01.29-.68 14.89 14.89 0 001.8-3.23.56.56 0 00-.28-.54c-.42-.22-.68-.05-2.85 1.84-.48.41-.93.8-1.24 1.05a3.55 3.55 0 00-.7.75 4.18 4.18 0 01.09-.84 14 14 0 00.41-3.34 6.78 6.78 0 003.94-.7c2-1.25 4.45-.5 6.85.55a5 5 0 00.72 1.22 2.9 2.9 0 003.16 1.26c0 .25-.07 2.49-.09 4.1h-.35a51.21 51.21 0 00-6.83.32zm10.33-.16l.23-4.1c1.46.48 2.9 1 4.4 1.62 4.7 1.83 9.77 3.69 16.69 3.76-3.24.41-6.62 1-10.16 1.67a31.32 31.32 0 00-11.16-2.97zm22.36 1.17A13.55 13.55 0 0190 10.82 13.17 13.17 0 01102.73 20a120 120 0 00-12.81-.68 109.68 109.68 0 00-12.79.78zm27.42.1c6.54-.18 11.25-2 15.78-3.75 1.5-.58 2.94-1.14 4.4-1.62l.19 4.07a28.44 28.44 0 00-10.85 2.85c-3.07-.65-6.29-1.16-9.52-1.55zm31.24-1.93a.5.5 0 00-.46.87 47.8 47.8 0 00-7.11-.4H128c0-1.61-.13-3.87-.09-4.12a2.89 2.89 0 003.16-1.26 5 5 0 00.72-1.22c2.41-1.05 4.81-1.8 6.85-.55a6.68 6.68 0 003.91.7 14.51 14.51 0 00.47 3.3 5.63 5.63 0 01.1.9 4.15 4.15 0 00-.74-.77c-.31-.25-.76-.64-1.23-1.05-2.18-1.89-2.44-2.06-2.86-1.84a.58.58 0 00-.28.54 15.33 15.33 0 001.8 3.23 1.11 1.11 0 01.29.68 1.84 1.84 0 00.1.52c.16.48 1 2.36 1 2.43a15.55 15.55 0 01.65 2 10.18 10.18 0 00-2-2.19 10.2 10.2 0 00-3.12-1.45zm2.65 4.82a29.24 29.24 0 00-1.44-3.35 8.43 8.43 0 012.27 1.13 17.71 17.71 0 013 3.93.33.33 0 00.12.14c.06.31.11.6.16.88a6.26 6.26 0 00-1.3-.73c-.29-.13-.59-.26-.92-.44a2.8 2.8 0 00-1.42-.24c-.02-.13-.25-.76-.47-1.32zm4.56 5.38a7.92 7.92 0 00-2.16-1.41c-.76-.32-1.7-.65-2.53-.95l-1-.34a4 4 0 012.57-.24c.35.19.68.34 1 .47a2.8 2.8 0 011.57 1.15c.22.39.5 1 .77 1.51zm1.1-.32a.52.52 0 00.06-.3v-1.46c.06-6.16 0-10.4-.22-11.12a11.21 11.21 0 01-.32-2.39c.26.57.56 1.23.87 1.84a29.88 29.88 0 011.88 6.58v.66c0 .19-.08.54-.09.56a.47.47 0 000 .24c-.08.56-.23 1.58-.37 2.54a.66.66 0 00-.28 0 .75.75 0 00-.55.5 1.94 1.94 0 000 .83 2.81 2.81 0 010 .36 4.32 4.32 0 01-.8.89zm3 3.6l-.6-.08c-.59-.1-1.68-1.29-2-1.85a.69.69 0 010-.59 5.9 5.9 0 01.62-.63c.65-.63 1.06-1.05 1.1-1.49.15.32.32.72.48 1.13l.18.43a8.69 8.69 0 01.21 3.08zm1.1 1.25a3.41 3.41 0 01-.12-.71 10.78 10.78 0 00-.29-4.07l-.17-.43c-.13-.31-.24-.6-.35-.85a1.21 1.21 0 01.38.38 3.57 3.57 0 01.14.54.49.49 0 00.28.46.51.51 0 00.53-.06 1.45 1.45 0 011.35-.13c.62.21 1.28.51 1.74.72l-.13.14c-1.48 1.56-3.07 3.22-3.36 4.01zm8.8 4.86c-1-.73-2.4-1.92-4-3.27a14.41 14.41 0 00-3.39-1.93c.1-.13.23-.28.36-.43a12.84 12.84 0 014.62 2.77 22.11 22.11 0 012.41 2.86zm.68-6.36A33.28 33.28 0 01161 34l.59.47a1.53 1.53 0 01-.41-.1l-.94-.35c-.54-.19-1.23-.44-2.27-.88a22.22 22.22 0 00-5.24-1l-.64-.07a15 15 0 00-1.45-.64c.37-.41.76-.81 1.09-1.16a2.1 2.1 0 01.37 0 7.74 7.74 0 001.93-.09 8.4 8.4 0 013.61 1.32zm-.83-3.6h.61l.88.07c.59.06 1.13.14 1.61.22a8.45 8.45 0 00-1.48.19c-1.54.35-3.17.63-4.36.79a10.8 10.8 0 00-1.23-.05c.2-.23.19-.31.15-.49a.39.39 0 00-.06-.11 13.76 13.76 0 013.84-.62zm6.34-2.27a11.72 11.72 0 00-3.16-1c.6-.3 1.1-.54 1.38-.65a27.78 27.78 0 014.59-.68c1.81-.17 1.88-.17 1.93-.62a.47.47 0 00-.07-.28h.42c.69.08.92.44 1.3 1a7 7 0 00.63.87 4.59 4.59 0 002.86 1.17c.27 0 .54.09.8.15 3.3.7 3.59 2.09 4.1 4.63.12.6.25 1.25.43 2a11.74 11.74 0 01-2.1 9.78 10.42 10.42 0 00-.37-1 1.49 1.49 0 00.45-1.24 1.14 1.14 0 00.29-.73 1.62 1.62 0 00-.16-.77 1.7 1.7 0 00.46-1.13 1.34 1.34 0 00-.34-.85 1.58 1.58 0 000-1 1.45 1.45 0 00-.58-.78 1.54 1.54 0 00-.33-.91 1.09 1.09 0 00-.51-.37 1.56 1.56 0 00-.86-1 1.2 1.2 0 00-.61-.09 1.67 1.67 0 00-1.66-.49 1.81 1.81 0 00-1.77-.19.47.47 0 00-.25.11 1.94 1.94 0 00-.92-.12c-1.66-2.06-3.77-4.59-5.99-5.81zM173 38.8l-.18-.56-.18-.53a5.44 5.44 0 00.5.22l.27.12a4.25 4.25 0 011.22.63 1.07 1.07 0 01.44 1.06.51.51 0 00.22.58.78.78 0 01-.32.25.51.51 0 00-.52 0c-.86-.23-1.32-1.3-1.45-1.77zm-.49 4.2a.48.48 0 00-.29-.12c-.7 0-1.24-.84-1.46-1.63-.08-.29-.14-.59-.2-.89a10.32 10.32 0 00-.33-1.3l.31.16a6.13 6.13 0 01.88.5 3.29 3.29 0 011.22 3v.18zm-8.46-4.25l.32.25c.28.2.54.39.59.6a1.09 1.09 0 010 .32 2.53 2.53 0 000 .28l-.09-.06a1.88 1.88 0 01-.23-.16c-.15-.12-.23-.25-.22-.31a.49.49 0 00-.43-.55c.01-.12.01-.3.06-.42zm.42-1.44a1.37 1.37 0 01.51.7 1.82 1.82 0 01.07.25l-.09-.07c-.29-.21-.54-.4-.58-.61zm.64-1.17h.1c.35-.07.73.26.9.61a4.11 4.11 0 01.27 1.41v.2a7 7 0 00.13.9l-.1-.14a3.66 3.66 0 01-.33-.88c-.05-.19-.11-.39-.17-.57a2.26 2.26 0 00-1-1.25 2.75 2.75 0 01.2-.33zm10-1a.52.52 0 00.31.23.4.4 0 01.23.23l-.63-.36a4 4 0 01-.9-.57 3.82 3.82 0 01-.7-1.07l-.14-.27c-.05-.1-.11-.2-.17-.3l.06.06a.49.49 0 00.69.13h.15a.78.78 0 01.31.57.53.53 0 00.51.41.16.16 0 01.12.06.67.67 0 01.11.47.46.46 0 00.05.38zm-3.22.09c0-.14-.09-.28-.13-.43l.16.09a3.59 3.59 0 01.77.47 3.3 3.3 0 01.74 1.32c0 .14.11.27.16.41l-.11-.05a2.66 2.66 0 01-1.24-.85 3 3 0 01-.35-.99zm-3.39-1.3a.51.51 0 01.12-.68 2.58 2.58 0 012.11 1.6c.07.19.12.38.17.57-.29-.17-.59-.31-.89-.45l-.23-.1a2.9 2.9 0 01-1.28-.97zm7.15 3a.52.52 0 00.31.23.11.11 0 010 .05c0 .23-.26.53-.4.65-.55-.13-.92-.87-1-1.11s-.13-.3-.19-.46l-.15-.39.35.2a2.39 2.39 0 011.08.83zm-4.45-4.54a.49.49 0 00.28.33 2.18 2.18 0 01.92 1l.13.26-.2-.1a6 6 0 01-.61-.34 2.08 2.08 0 01-.82-1.29.74.74 0 01.3.14zm-1.85 3.35l.24.11a4.65 4.65 0 011.26.74 4.52 4.52 0 011 2l.09.25a7.69 7.69 0 00-.92-.52 4.09 4.09 0 01-1.25-.84 4 4 0 01-.66-1.56c0-.11-.07-.21-.1-.32zm-3.25 4.49c.11.13.23.26.34.4a2.81 2.81 0 01.3.57l-.14-.11a1.56 1.56 0 01-.63-.92v-.07zm1.9 1.63a8.6 8.6 0 00-.29-1 7.44 7.44 0 00.67.37 3.43 3.43 0 011 .66 1.44 1.44 0 01.22 1.49c-.56-.29-1.35-.75-1.46-1.14zm1-3.1a5.47 5.47 0 01.55 1.74c0 .13.06.26.08.39a5.83 5.83 0 00-.83-.49 3.37 3.37 0 01-1-.72 2.71 2.71 0 01-.41-1.45V38c0-.27 0-.54-.09-.82a5.48 5.48 0 011.7 1.58zm-2.62 4.47a1.61 1.61 0 01-.41-1.09v-.29l.22.19a3.13 3.13 0 01.72.74.66.66 0 010 .76.34.34 0 00-.09.12 1.89 1.89 0 01-.21-.09.45.45 0 00-.2-.34zm1.56.39c.14.1.28.2.43.29a4.53 4.53 0 01-.52 0 1.34 1.34 0 00.15-.29zm2.69-.55a2.53 2.53 0 00.54.45l-.66.17a2.2 2.2 0 00.15-.62zm-4.22-8.68a1.42 1.42 0 01.09-.33.55.55 0 00.24.12c.7.12 1.06 1 1.19 1.43l.15.54.15.52-.37-.26a4.84 4.84 0 01-1.72-1.63l.13-.12a.54.54 0 00.17-.27zm-2.22 6.45l.11.08a1.8 1.8 0 01.36.28 2.28 2.28 0 01.33 1.15 4.5 4.5 0 01-.77-1.51zm9.76.88a.45.45 0 00-.36-.08c0-.13-.05-.26-.08-.38a2.47 2.47 0 00.72.29.63.63 0 01-.23.17z" class="cls-1"/></g></g></g></svg>