<svg viewBox="0 0 35.28 42.62" fill="currentColor"><g data-name="Layer 2"><g data-name="Layer 1"><g data-name="Dark Title Top"><path fill-rule="evenodd" stroke-width="1.57" d="M17.64 2.77c-1.79 0-4.29-1.64-4.29-1.64H5.1L2 6.92a20.6 20.6 0 013.27 10.67c0 5-1.28 7.75-4 11.9 4.83 9.14 9.28 7.44 16.34 11.8 7.09-4.36 11.54-2.66 16.39-11.8-2.69-4.15-4-6.94-4-11.9a20.51 20.51 0 013.25-10.67l-3.07-5.79h-8.25s-2.5 1.61-4.29 1.64z"/><path fill-rule="evenodd" stroke-width="2.25" d="M17.64 2.77c-1.79 0-4.29-1.64-4.29-1.64H5.1L2 6.92a20.6 20.6 0 013.27 10.67c0 5-1.28 7.75-4 11.9 4.83 9.14 9.28 7.44 16.34 11.8 7.09-4.36 11.54-2.66 16.39-11.8-2.69-4.15-4-6.94-4-11.9a20.51 20.51 0 013.25-10.67l-3.07-5.79h-8.25s-2.5 1.61-4.29 1.64z"/><path fill-rule="evenodd" d="M17.64 2.77c-1.79 0-4.29-1.64-4.29-1.64H5.1L2 6.92a20.6 20.6 0 013.27 10.67c0 5-1.28 7.75-4 11.9 4.83 9.14 9.28 7.44 16.34 11.8 7.09-4.36 11.54-2.66 16.39-11.8-2.69-4.15-4-6.94-4-11.9a20.51 20.51 0 013.25-10.67l-3.07-5.79h-8.25s-2.5 1.61-4.29 1.64z"/><path d="M17.64 39.47C23.78 36 28 36.8 32.16 29.55c-4.76-7.55-5-14.85-.7-22.65l-2.22-4.21h-7.31s-2.5 1.63-4.29 1.64-4.29-1.64-4.29-1.64h-7.3L3.82 6.9c4.3 7.8 4.06 15.1-.7 22.65C7.26 36.8 11.5 36 17.64 39.47z"/><path d="M18.82 27.5a.91.91 0 00-.2-1.31.81.81 0 00.81-.44.86.86 0 00-.28-1.11l8.46-15-2.22-1.22-.68 1.2L23.54 9l-1.21 2.14-.89-.5.63-1.1L19.44 8l-.63 1.1-.81-.45 1.21-2.14-1.8-1-5.24 9.28 1.79 1 1.22-2.14.83.47-.62 1.1L18 16.7l.62-1.1.88.5-1.21 2.14 1.17.66-2.54 4.48a.86.86 0 00-1.09.33.83.83 0 000 .93.9.9 0 00-1.23.5c-2.14-.71-4.73-.62-6.36 2.26-1.28 2.28-.15 5.93 3.36 7.91s7.22 1.09 8.51-1.19c1.67-2.88.42-5.12-1.29-6.62zM19 13.68l-.46-.26-.92 1.63-.71-.4.97-1.65-.46-.26 1-1.72.46.26.92-1.63.71.4-.92 1.63.41.32zM18 32.3c-.74 1.3-2.58 2.47-5.2 1s-2.57-3.67-1.83-5a1.68 1.68 0 012.28-.94.82.82 0 01.37 1.17.91.91 0 01-1.28.37 1.42 1.42 0 00.75 1.51 1.56 1.56 0 001.2.23 1.45 1.45 0 00.8.9 1.42 1.42 0 001.68-.13.92.92 0 01-.33-1.29.8.8 0 011.18-.28A1.67 1.67 0 0118 32.3z"/><path d="M13.78 14.92l-.29-.16 4.59-8.12.3.17zm5.71 3.24l.29.16 4.6-8.11-.3-.17zm-1.89 5.58l1.09.62L26.9 9.84l-.42-.23-7.4 13.09c-.7 1.23-1.29 1.05-1.48 1.04zm-1 1.12l.69.38.69.39a.65.65 0 00.85-.14 5.79 5.79 0 01-1.33-.62 6.23 6.23 0 01-1.22-.82.67.67 0 00.37.81zm-1.45.64a8.66 8.66 0 011.57.75 8.26 8.26 0 011.45 1 .68.68 0 00-.32-.81l-.85-.56-.93-.53a.67.67 0 00-.87.15zm.25 3.88a1.12 1.12 0 000 1.18 1.48 1.48 0 01.21-.87 1.17 1.17 0 011.45-.52 1.17 1.17 0 00-1.61.21zm-5.13-1.45a2.28 2.28 0 012.74-1.22 2.23 2.23 0 00-3.07.88 2.79 2.79 0 00-.15 2.29 3.25 3.25 0 01.53-1.95zM19.39 33A5.54 5.54 0 0114 35.51a4.85 4.85 0 005.68-2.06 3.53 3.53 0 00.15-3.53 4.52 4.52 0 01-.44 3.08z"/></g></g></g></svg>