<svg viewBox="0 0 26.2 32.9" fill="currentColor"><defs><style>.cls-1{fill:#231f20}</style></defs><g id="Layer_2" data-name="Layer 2"><g id="Layer_1-2" data-name="Layer 1"><g id="Dark_Title_Bottom" data-name="Dark Title Bottom"><path d="M14.2 28.71a10.16 10.16 0 01-7-3.15.79.79 0 010-1.09c.06-.08 6.4-7.19 14.52-.49a.81.81 0 01.29.54.86.86 0 01-.19.58 11.12 11.12 0 01-7.14 3.6zM8.9 25a8 8 0 005.65 2.16 9.09 9.09 0 005.45-2.5c-5.42-3.92-9.63-1.02-11.1.34z" class="cls-1"/><path d="M8 25.84a.5.5 0 01-.17 0 11 11 0 01-6.56-4.55 10 10 0 01-.79-8 .79.79 0 01.94-.57c.09 0 9.36 2.2 7.36 12.53a.77.77 0 01-.35.51.73.73 0 01-.43.08zm-6.19-11.4a8.12 8.12 0 00.79 6A9.18 9.18 0 007.36 24c.87-6.58-3.69-8.89-5.55-9.56z" class="cls-1"/><path d="M13.85 22.63a.76.76 0 01-.53-.2.8.8 0 01-.07-1.11c2.07-2.34 1.14-6.11.65-7.61-2.91.86-4.75 2.47-5.6 4.91a.79.79 0 01-1.5-.52c1.1-3.1 3.59-5.18 7.41-6.1a.8.8 0 01.92.46c.1.25 2.58 6.22-.69 9.92a.78.78 0 01-.59.25z" class="cls-1"/><path d="M15.56 17.86a.79.79 0 01-.44-1.45c3.59-2.46 2.61-6.93 2.13-8.49a7 7 0 00-5.94 6.45.79.79 0 01-.79.76.8.8 0 01-.76-.82 8.57 8.57 0 018-8 .76.76 0 01.78.49c0 .07 2.91 7.23-2.51 11a.8.8 0 01-.47.06z" class="cls-1"/><path d="M19.45 24.15a.78.78 0 01-.77-.61.79.79 0 01.59-.95c2.42-.57 4.23-3.29 5-4.63-3.9-1.34-7-.44-8.3 1.06a.79.79 0 01-1.12.08.8.8 0 01-.09-1.1c2.17-2.5 6.56-3 10.92-1.18a.84.84 0 01.44.45.83.83 0 010 .62c-.1.21-2.48 5.33-6.47 6.26a.55.55 0 01-.2 0z" class="cls-1"/><path d="M20.75 17.29a.79.79 0 01-.15-1.57c1.1-.22 3.64-1.27 4-6.27a7.07 7.07 0 00-3.6.07.79.79 0 01-1.07-.34.81.81 0 01.35-1.07c1.8-.91 4.96-.11 5.31-.11a.79.79 0 01.61.79c-.2 6.71-3.77 8.14-5.29 8.45z" class="cls-1"/><path d="M18.65 11.64a.82.82 0 01-.65-.33.8.8 0 01.19-1.11c3.43-2.43 2.81-6.74 2.38-8.43-4.64 1.46-5.14 3.88-5.63 6.23l-.09.41a.78.78 0 01-.94.6.79.79 0 01-.61-.94l.09-.4C13.94 5 14.63 1.71 20.9 0a.8.8 0 011 .49c0 .08 2.54 7.22-2.74 11a.79.79 0 01-.51.15zM4.26 32.9a.77.77 0 01-.77-.63c-1-4.94 3.65-7.84 3.85-8a.78.78 0 011.08.26.79.79 0 01-.26 1.09C8 25.76 4.23 28.11 5 32a.8.8 0 01-.62.94zM19.45 24.15a.78.78 0 01-.77-.61.79.79 0 01.59-.95c2.42-.57 4.23-3.29 5-4.63-3.9-1.34-7-.44-8.3 1.06a.79.79 0 01-1.12.08.8.8 0 01-.09-1.1c2.17-2.5 6.56-3 10.92-1.18a.84.84 0 01.44.45.83.83 0 010 .62c-.1.21-2.48 5.33-6.47 6.26a.55.55 0 01-.2 0z" class="cls-1"/><path d="M19.45 24.15a.78.78 0 01-.77-.61.79.79 0 01.59-.95c2.42-.57 4.23-3.29 5-4.63-3.9-1.34-7-.44-8.3 1.06a.79.79 0 01-1.12.08.8.8 0 01-.09-1.1c2.17-2.5 6.56-3 10.92-1.18a.84.84 0 01.44.45.83.83 0 010 .62c-.1.21-2.48 5.33-6.47 6.26a.55.55 0 01-.2 0zM9.66 15.88a.93.93 0 01-.24 0 .8.8 0 01-.52-1c.6-1.89-.25-5-3.43-7.64-.75 1.35-2.13 4.32-1.34 6.68a.8.8 0 01-1.51.5C1.33 10.5 4.46 5.8 4.59 5.6a.79.79 0 011.12-.2c3.82 2.78 5.7 6.77 4.7 9.93a.79.79 0 01-.75.55z" class="cls-1"/><path d="M8.48 10.24a.79.79 0 01-.74-.52c-.66-1.79-1-5.31 4.36-8.79a.81.81 0 011 .12c.23.24 2.27 2.42 2.42 4.4a.79.79 0 11-1.52.12 6.75 6.75 0 00-1.6-2.93c-3.64 2.59-3.76 5-3.18 6.53a.79.79 0 01-.47 1 .86.86 0 01-.27.07z" class="cls-1"/></g></g></g></svg>