<svg viewBox="0 0 101.8 24.09" fill="currentColor"><defs><style>.cls-1{fill:#141515}</style></defs><g id="Layer_2" data-name="Layer 2"><g id="Layer_1-2" data-name="Layer 1"><g id="Dark_Text_Bottom" data-name="Dark Text Bottom"><path d="M42.91 10.1c-2.4-1.19-6.09-.83-9.95.92-.92-.45-1.91-1-3-1.64-4.79-3-10.34-3.81-14.14-2.16a7.68 7.68 0 00-4.79 7.85 5.47 5.47 0 004.54 5 10.84 10.84 0 001.94.19 5.72 5.72 0 004.74-2 5.24 5.24 0 00.68-5.26 3.58 3.58 0 00-3-2.27 3.68 3.68 0 00-3.57 1.53 2.89 2.89 0 00-.07 3 2.49 2.49 0 002.4 1.22l-.05-1a1.57 1.57 0 01-1.49-.73 1.9 1.9 0 01.06-1.94 2.72 2.72 0 012.65-1.05 2.62 2.62 0 012.14 1.6 4.23 4.23 0 01-.51 4.23c-1.11 1.41-3.14 1.93-5.72 1.46A4.47 4.47 0 0112.06 15a6.69 6.69 0 014.2-6.81c3.45-1.5 8.76-.66 13.21 2.09.83.51 1.63 1 2.38 1.35-1.65.93-3.86 2.64-4 4.53a3.08 3.08 0 001 2.63 3 3 0 002.63.62A2.9 2.9 0 0033.89 17a2.08 2.08 0 00-.89-2.11 1.38 1.38 0 00-1.61.26l.66.76c.28-.25.42-.17.47-.14a1.14 1.14 0 01.37 1.11 1.9 1.9 0 01-1.67 1.5 2 2 0 01-1.74-.38 2.09 2.09 0 01-.64-1.8c.1-1.39 2.18-3.12 4.07-4h.05a17.73 17.73 0 007.75 2c2.1 0 3.5-.7 3.74-1.78.19-.9-.39-1.75-1.54-2.32zm-2.22 3.06a15.77 15.77 0 01-6.52-1.57c3.29-1.34 6.32-1.57 8.3-.59.69.34 1.08.79 1 1.16s-1.01.97-2.78 1z" class="cls-1"/><path d="M13.9 6.55l-2.22.26a9.46 9.46 0 00-2.08.65c-1.81.71-4.06 1.59-6.15.54A3.91 3.91 0 011 4.59a3.81 3.81 0 012-3.3 3.8 3.8 0 014.16.88c.58.71.48 1.53-.27 2.44-.5.6-1.26 1.24-2.07.87a1.65 1.65 0 01-.92-1.55 1.27 1.27 0 01.69-1c.26-.07.53.19.7.42l.8-.61a1.64 1.64 0 00-1.75-.78 2.16 2.16 0 00-1.42 1.81A2.62 2.62 0 004.4 6.39c.51.23 1.83.57 3.26-1.14a2.77 2.77 0 00.28-3.71A4.8 4.8 0 002.54.4 4.8 4.8 0 000 4.6c0 1 .4 3 3 4.27 2.36 1.21 4.81.36 6.66-.36a10.37 10.37 0 00-1.92 6.29h1C8.81 11.42 9.91 9 12 7.73zM85.93 7.22c-3.79-1.65-9.34-.8-14.13 2.16-1.06.65-2 1.19-3 1.64-3.86-1.76-7.55-2.1-10-.92-1.15.57-1.72 1.42-1.53 2.28.24 1.08 1.64 1.75 3.74 1.78a17.79 17.79 0 007.75-2c1.9.92 4 2.65 4.08 4a2.12 2.12 0 01-.64 1.8 2 2 0 01-1.76.39 1.9 1.9 0 01-1.66-1.5 1.14 1.14 0 01.36-1.11s.2-.11.48.14l.66-.76a1.38 1.38 0 00-1.61-.26 2.07 2.07 0 00-.76 2.14 2.89 2.89 0 002.44 2.34 3 3 0 002.65-.6 3.06 3.06 0 001-2.63c-.15-1.89-2.36-3.6-4-4.53q1.13-.59 2.37-1.35c4.45-2.75 9.76-3.59 13.22-2.09A6.67 6.67 0 0189.73 15 4.45 4.45 0 0186 19.05c-2.58.47-4.61-.05-5.72-1.46a4.23 4.23 0 01-.51-4.23A2.61 2.61 0 0182 11.68a2.7 2.7 0 012.65 1.05 1.91 1.91 0 01.07 1.94 1.59 1.59 0 01-1.5.73v1a2.52 2.52 0 002.4-1.22 2.89 2.89 0 00-.08-3 3.67 3.67 0 00-3.57-1.53 3.59 3.59 0 00-3 2.27 5.29 5.29 0 00.64 5.26 5.72 5.72 0 004.74 2 11 11 0 002-.19 5.49 5.49 0 004.54-5 7.68 7.68 0 00-4.96-7.77zm-24.82 5.94c-1.78 0-2.68-.52-2.78-1s.31-.82 1-1.16a6.59 6.59 0 012.92-.6 14.52 14.52 0 015.37 1.19 15.87 15.87 0 01-6.51 1.57z" class="cls-1"/><path d="M99.26.4a4.82 4.82 0 00-5.41 1.14 2.77 2.77 0 00.29 3.71c1.43 1.75 2.75 1.37 3.25 1.14a2.63 2.63 0 001.49-2.62 2.15 2.15 0 00-1.43-1.83 1.63 1.63 0 00-1.74.78l.79.61c.18-.23.44-.49.71-.42a1.24 1.24 0 01.68 1A1.63 1.63 0 0197 5.48c-.81.36-1.57-.27-2.07-.87-.76-.91-.85-1.73-.28-2.44a3.84 3.84 0 014.17-.88 3.85 3.85 0 012 3.3A3.9 3.9 0 0198.34 8c-2.09 1.07-4.34.19-6.14-.52a9.69 9.69 0 00-2.09-.65l-2.22-.26 1.9 1.18c2.1 1.3 3.2 3.69 3.27 7.09h1a10.37 10.37 0 00-1.93-6.29c1.86.72 4.31 1.57 6.67.36a4.79 4.79 0 003-4.27A4.82 4.82 0 0099.26.4zM49.1 20.43c-.12 2.22.74 3.6 2.2 3.65s2.14-2 2.13-3.38a11.92 11.92 0 00-2.12-5.82s-2.07 3.03-2.21 5.55zM53.06 14.45a10 10 0 001.73 4c1.08 1.21 2.23 1.48 3 .75s.07-2.13-.65-2.84a8.71 8.71 0 00-4.08-1.91zM45.61 16.36c-.72.71-1.43 2.12-.65 2.84s1.94.46 3-.75a10 10 0 001.73-4 8.71 8.71 0 00-4.08 1.91z" class="cls-1"/></g></g></g></svg>