<svg xmlns="http://www.w3.org/2000/svg" xmlns:xlink="http://www.w3.org/1999/xlink" viewBox="0 0 127.54 137.28" fill="currentColor"><defs><linearGradient id="New_Gradient_Swatch_4" x1="7.9" x2="119.64" y1="70.32" y2="70.32" gradientUnits="userSpaceOnUse"><stop offset="0" stop-color="#989898"/><stop offset=".2" stop-color="#d6d6d6"/><stop offset=".33" stop-color="#fff"/><stop offset=".42" stop-color="#989898"/><stop offset=".57" stop-color="#d6d6d6"/><stop offset=".69" stop-color="#fff"/><stop offset=".88" stop-color="#989898"/><stop offset=".97" stop-color="#fff"/></linearGradient><linearGradient id="New_Gradient_Swatch_4-2" x1="0" x2="127.54" y1="69.3" y2="69.3" xlink:href="#New_Gradient_Swatch_4"/><clipPath id="clip-path"><path d="M117.15 50A57.17 57.17 0 0074.48 4.68a49.15 49.15 0 00-21.41 0A57.14 57.14 0 0010.4 50v40.78a57.14 57.14 0 0042.67 45.33 49.56 49.56 0 0021.41 0 57.17 57.17 0 0042.67-45.33z"/></clipPath><filter id="luminosity-noclip" width="79.87" height="105.11" x="23.84" y="16.97" color-interpolation-filters="sRGB" filterUnits="userSpaceOnUse"><feFlood flood-color="#fff" result="bg"/><feBlend in="SourceGraphic" in2="bg"/></filter><style>.cls-4{fill:#d0cfcd}.cls-5,.cls-8{fill:#fff}.cls-6{fill:#ce0e2d}.cls-8{fill-rule:evenodd}.cls-10{fill:#221e1f}</style><mask id="mask" width="79.87" height="105.11" x="23.84" y="16.97" maskUnits="userSpaceOnUse"><g filter="url(#luminosity-noclip)"><path d="M83.84 26.83l1.93-3.58-2.51-1.39-1.93 3.58 2.51 1.39zM43.7 26.83l-1.93-3.58 2.51-1.39 1.93 3.58-2.51 1.39z"/></g></mask></defs><g id="Layer_2" data-name="Layer 2"><g id="Layer_1-2" data-name="Layer 1"><g id="Label"><g clip-path="url(#clip-path)"><g mask="url(#mask)"><path d="M63.77 122.08c-9.93 0-19.51-5-27-14-8.36-10.13-13-23.82-13-38.53s4.6-28.39 13-38.53c7.46-9 17-14 27-14s19.51 5 27 14c8.36 10.14 13 23.82 13 38.53s-4.6 28.4-13 38.53c-7.49 9.02-17.07 14-27 14z" class="cls-4"/></g><path d="M63.77 7.28c-28.68 0-52 28.28-52 63s23.32 63.05 52 63.05 52-28.28 52-63.05-23.33-63-52-63zm26.3 99.16c-7.24 8.64-16.58 13.4-26.3 13.4s-19.06-4.76-26.3-13.4c-8-9.52-12.37-22.35-12.37-36.12s4.4-26.59 12.37-36.11c7.24-8.64 16.57-13.4 26.3-13.4s19.06 4.76 26.3 13.4c8 9.52 12.37 22.35 12.37 36.11s-4.39 26.6-12.37 36.12z" class="cls-5"/><path d="M63.77 3.36c-30.46 0-55.23 30-55.23 67s24.77 67 55.23 67 55.23-30 55.23-67-24.78-67-55.23-67zm26.3 103.08c-7.24 8.64-16.58 13.4-26.3 13.4s-19.06-4.76-26.3-13.4c-8-9.52-12.37-22.35-12.37-36.12s4.4-26.59 12.37-36.11c7.24-8.64 16.57-13.4 26.3-13.4s19.06 4.76 26.3 13.4c8 9.52 12.37 22.35 12.37 36.11s-4.39 26.6-12.37 36.12z" class="cls-6"/><path d="M82.08 29.43c-2.55-3.93-3.61-6.28-3.59-10.61a18.26 18.26 0 012.92-9.51l.65-1.12L77.72 0H67.37l-.58.37a8.81 8.81 0 01-3 1.27 8.62 8.62 0 01-3-1.27L60.17 0H49.82l-4.34 8.19.65 1.12a18.17 18.17 0 012.92 9.51c0 4.33-1 6.68-3.59 10.61l-.75 1.16.65 1.22c3.69 7 7.47 8.45 11.48 10a32.6 32.6 0 015.7 2.69l1.23.76 1.23-.75a32.6 32.6 0 015.7-2.69c4-1.56 7.79-3 11.48-10l.65-1.22z" class="cls-4"/><path d="M63.77 3.62C33 3.62 7.9 33.54 7.9 70.32S33 137 63.77 137s55.87-29.93 55.87-66.71S94.57 3.62 63.77 3.62zm0 131.56c-29.66 0-53.77-29.1-53.77-64.86S34.11 5.47 63.77 5.47s53.79 29.09 53.79 64.85-24.13 64.86-53.79 64.86z"/><path d="M39.63 91.91v-3.69h3.16c.55 0 .83.24.83.71v.45c0 .37-.21.57-.64.63a.65.65 0 01.67.7v.48c0 .48-.37.72-1.09.72zm2.8-3.09h-2v.88h2c.26 0 .4-.09.4-.27v-.35c0-.17-.14-.26-.4-.26zm0 1.49h-2v.93h2a.58.58 0 00.3 0c.08 0 .12-.14.12-.28v-.27c0-.14 0-.24-.12-.28a.58.58 0 00-.3-.1zM45.65 91.91v-3.69h.85v3.69zM48.63 91.91v-3.69h3.78v.63h-2.92v.82h1.7v.63h-1.7v.91h2.95v.7zM54.41 91.91v-3.69h3.16c.55 0 .82.24.82.71v.87c0 .48-.27.71-.82.71h-.49l1.7 1.4h-1.23l-1.49-1.4h-.81v1.4zm2.77-3.06h-1.93v1h1.93a.63.63 0 00.28 0 .27.27 0 00.11-.25v-.45a.27.27 0 00-.11-.25.63.63 0 00-.28-.05zM62.37 89.89a.54.54 0 01.17-.42.58.58 0 01.43-.18.58.58 0 01.42.18.54.54 0 01.18.42.58.58 0 01-.18.43.58.58 0 01-.42.18.58.58 0 01-.43-.18.57.57 0 01-.17-.43zM67.56 91.91v-3.69h3.16c.56 0 .83.24.83.71v.45c0 .37-.21.57-.63.63a.65.65 0 01.66.7v.48c0 .48-.36.72-1.09.72zm2.81-3.09h-2v.88h2q.39 0 .39-.27v-.35c0-.17-.13-.26-.39-.26zm0 1.49h-2v.93h2a.58.58 0 00.3 0 .31.31 0 00.11-.28v-.27a.31.31 0 00-.11-.28.58.58 0 00-.3-.1zM73.58 91.91v-3.69h3.78v.63h-2.92v.82h1.7v.63h-1.7v.91h3v.7zM79.35 91.91v-3.69h3.78v.63h-2.92v.82h1.7v.63h-1.7v.91h3v.7zM85.12 91.91v-3.69h3.16c.56 0 .83.24.83.71v.87c0 .48-.27.71-.83.71h-.48l1.7 1.4h-1.23l-1.49-1.4H86v1.4zm2.78-3.06H86v1h1.9a.66.66 0 00.28 0 .27.27 0 00.1-.25v-.45a.27.27 0 00-.1-.25.66.66 0 00-.28-.05zM41 49.33l-.42-.6h-.78v.6h-.41v-1.69h1.39a.56.56 0 01.63.55.48.48 0 01-.38.51l.43.63zm0-1.15c0-.13-.11-.22-.28-.22h-.93v.44h.93c.17 0 .28-.08.28-.22zM42.07 49.33v-1.69h1.83V48h-1.42v.35h1v.32h-1V49H44v.33zM46.43 49.1a1.4 1.4 0 01-.88.28 1.38 1.38 0 01-.86-.28.8.8 0 01-.29-.62.78.78 0 01.29-.61 1.35 1.35 0 01.86-.28 1.18 1.18 0 011 .4l-.42.15a.75.75 0 00-.56-.23c-.44 0-.75.25-.75.57a.49.49 0 00.25.43 1 1 0 00.5.14.81.81 0 00.73-.36h-.82v-.33h1.28v.1a.81.81 0 01-.33.64zM47.38 49.33v-1.69h.42v1.69zM49.48 47.92c-.35 0-.53.07-.53.18s0 .1.15.12a4.75 4.75 0 00.64.05c.53 0 .78.18.78.51s-.35.59-1 .59a1.84 1.84 0 01-1.09-.32l.22-.28a1.64 1.64 0 00.89.26c.34 0 .53-.09.53-.23s-.22-.15-.58-.17c-.65 0-1-.16-1-.49s.33-.55.95-.55a1.81 1.81 0 011 .25l-.23.27a1.52 1.52 0 00-.73-.19zM52.07 48v1.37h-.41V48h-.81v-.32h2V48zM53.41 49.33v-1.69h1.84V48h-1.42v.35h1v.32h-1V49h1.48v.33zM57.55 49.33l-.41-.6h-.78v.6H56v-1.69h1.38a.56.56 0 01.64.55.48.48 0 01-.38.51l.43.63zm0-1.15c0-.13-.11-.22-.28-.22h-.93v.44h.93c.19 0 .3-.08.3-.22zM58.64 49.33v-1.69h1.84V48h-1.42v.35h1v.32h-1V49h1.48v.33zM63.34 48.5a.74.74 0 01-.3.61 1.06 1.06 0 01-.67.22h-1.19v-1.69h1.13c.63 0 1.03.36 1.03.86zm-.54.29a.48.48 0 00.11-.3.54.54 0 00-.57-.53h-.75v1h.75a.59.59 0 00.46-.17zM66 48v1.37h-.41V48h-.8v-.32h2V48zM68.93 49.33l-.41-.6h-.78v.6h-.41v-1.69h1.38a.56.56 0 01.64.55.48.48 0 01-.38.51l.43.63zm0-1.15c0-.13-.11-.22-.28-.22h-.93v.44h.93c.2 0 .35-.08.35-.22zM71.6 49.33l-.19-.33h-1.08l-.2.37h-.41l.9-1.69h.5l.9 1.69zm-.73-1.39l-.38.7h.75zM74.67 48.5a.74.74 0 01-.3.61 1.06 1.06 0 01-.67.22h-1.19v-1.69h1.13c.63 0 1.03.36 1.03.86zm-.54.29a.48.48 0 00.11-.3.54.54 0 00-.57-.53h-.75v1h.75a.59.59 0 00.46-.17zM75.36 49.33v-1.69h1.83V48h-1.42v.35h1v.32h-1V49h1.49v.33zM79.93 49.33v-1.2l-.81 1-.81-1v1.2h-.41v-1.69h.48l.74.89.74-.89h.48v1.69zM82.72 49.33l-.19-.33h-1.09l-.19.37h-.42l.9-1.69h.51l.9 1.69zM82 47.94l-.37.7h.74zM85.23 49.33l-.42-.6H84v.6h-.41v-1.69H85a.56.56 0 01.64.55.48.48 0 01-.39.51l.43.63zm0-1.15c0-.13-.1-.22-.28-.22H84v.44h1c.14 0 .24-.08.24-.22zM88 49.33l-.8-.81-.43.3v.51h-.41v-1.69h.41v.78l1.12-.78h.56l-.94.66 1 1zM24.88 43.77c.58.23.72.79.38 1.63l-1.07 2.7-3.38-1.35L21.9 44c.27-.7.8-1 1.36-.73a.81.81 0 01.54.72.88.88 0 011.08-.22zm-1.8.08a.49.49 0 00-.66.34l-.88 2.2.91.36.87-2.18a.54.54 0 00-.24-.72zm1.5.46c-.34-.13-.57 0-.74.42L23 47l.95.38.85-2.14c.2-.52.1-.8-.22-.93zM27.82 40l-1.68.25-.83 1.65 1.24.62-.28.54L23 41.39l1.29-2.56a1.1 1.1 0 011.58-.57 1 1 0 01.53 1.33l1.71-.23zm-2.2-1.17c-.36-.18-.64-.05-.87.4l-1 1.89 1 .53 1-2c.25-.37.19-.65-.13-.84zM30.46 35.57l-.92-.07-1.29 2.08.47.79-.35.56-2.07-3.56.4-.64 4.11.28zm-3.52-.25l1 1.72 1-1.58zM32.54 32.89c-.77 1-1.69 1.31-2.27.87l-2-1.5.36-.48 1.85 1.41c.44.34 1 .13 1.58-.63s.63-1.35.18-1.69l-1.84-1.41.37-.48 2 1.5c.59.45.55 1.4-.23 2.41zM34.51 30.24l-2.66-2.48 2.51-2.69.4.38-2.1 2.24.68.64 1.46-1.56.4.37-1.46 1.56.78.73 2.19-2.35.4.38zM40.38 24.57l-1.66-.4-1.39 1.2.91 1.05-.45.4-2.39-2.75 2.17-1.89a1.1 1.1 0 011.68.07 1 1 0 010 1.43l1.67.43zm-1.6-1.92c-.26-.3-.58-.29-1 0l-1.6 1.39.82.96 1.65-1.43c.35-.34.35-.65.13-.92zM41.62 23.58l-2.06-3 3-2.08.31.45-2.51 1.75.53.76 1.75-1.21.32.45-1.76 1.21.61.88L44.45 21l.31.45zM45.74 20.89l-1.8-3.16.52-.3 1.81 3.16zM86.09 22.49c-.35.52-.92.54-1.68 0L82 20.94l2-3.05 2.46 1.62a1 1 0 01.43 1.49.83.83 0 01-.82.39.89.89 0 01.02 1.1zm-.47-.41c.19-.31.11-.56-.27-.81l-2-1.31-.56.85 1.93 1.27c.42.28.7.29.9 0zm.76-1.38a.5.5 0 00-.21-.72l-2-1.3-.53.82 2 1.29a.55.55 0 00.74-.09zM86.07 23.7l2.32-2.8 2.83 2.34-.35.42-2.37-2-.59.72 1.65 1.36-.35.42-1.65-1.36-.68.82 2.48 2.05-.35.42zM93.72 27.12a2 2 0 00-.72-1.51 1.5 1.5 0 00-2.17-.24c-.58.58-.51 1.45.25 2.21a1.93 1.93 0 001.5.65l.16.57a2.48 2.48 0 01-2.07-.86 2.67 2.67 0 01-.8-1.47 1.79 1.79 0 012-2 2.68 2.68 0 011.47.79 2.51 2.51 0 01.82 2.15zM94.92 32.57l.37-2.57-1.29-.32-.85.7-.38-.47 2.8-2.3.39.46-1.46 1.2 3.07.77.55.67-2.24-.56-.43 3zM98.33 36.92a2.56 2.56 0 01-1.12-1c-.48-.76-.38-1.5.13-1.83s1-.12 1.61.48a1.08 1.08 0 01.41-.48.88.88 0 01.57-.13 1.08 1.08 0 01.83.52.9.9 0 01-.24 1.32 1.11 1.11 0 01-1.35-.26 5 5 0 00-.24 1 1.93 1.93 0 001 0l.33.52a2.88 2.88 0 01-1.37 0 2 2 0 00.3.82l-.47.3a3.18 3.18 0 01-.39-1.26zm.41-1.79c-.45-.51-.81-.67-1.09-.5s-.28.59 0 1.08a2.45 2.45 0 00.72.66 7.58 7.58 0 01.37-1.24zm1.48.18a.39.39 0 00.1-.56.44.44 0 00-.64-.14 1 1 0 00-.32.42c.3.36.64.46.86.28zM104 42.68a2 2 0 00-.14-1.65 1.51 1.51 0 00-2-.94c-.74.36-1 1.2-.48 2.17a1.87 1.87 0 001.19 1.1v.6a2.5 2.5 0 01-1.68-1.5 2.69 2.69 0 01-.26-1.65 1.76 1.76 0 011-1.29 1.72 1.72 0 011.62 0 2.6 2.6 0 011.13 1.22 2.53 2.53 0 01.06 2.3zM103.78 48.24a2.9 2.9 0 01-1.14-3 1.78 1.78 0 012.7-1 2.85 2.85 0 011.14 3 1.79 1.79 0 01-2.7 1zM106 47a2 2 0 00-.1-1.21 1.51 1.51 0 00-1.9-1.11 1.48 1.48 0 00-.67 2.09c.37 1 1.13 1.4 1.9 1.1A1.23 1.23 0 00106 47zM21.54 94.79a2.88 2.88 0 01-1.06-3 1.71 1.71 0 011.11-1.18 1.76 1.76 0 011.61.22 2.77 2.77 0 011 1.35 2.67 2.67 0 01.06 1.67A1.75 1.75 0 0123.15 95a1.78 1.78 0 01-1.61-.21zm2.2-1.25a2 2 0 00-.06-1.21 1.52 1.52 0 00-1.88-1.15c-.77.27-1.07 1.09-.72 2.07s1.1 1.42 1.86 1.15a1.22 1.22 0 00.8-.86zM23.24 99.7l.86-1.47-.75-1.68-1.27.57-.25-.55 3.33-1.49 1.17 2.62a1.1 1.1 0 01-.54 1.59 1 1 0 01-1.37-.42l-.9 1.47zm2.29-1q.55-.24.24-.93l-.87-1.94-1 .48.89 2c.13.42.42.56.74.41zM24 101.23l3.23-1.68.28.54-3.24 1.68zM25.89 104.82a2.66 2.66 0 01-.4-1.62 1.78 1.78 0 012.51-1.48 2.66 2.66 0 011.28 1.16 2.46 2.46 0 01.22 2.12l-.54-.34a1.87 1.87 0 00-.22-1.56 2.05 2.05 0 00-.9-.82 1.24 1.24 0 00-1.17.06 1.5 1.5 0 00-.3 2.18 1.54 1.54 0 001.62.86l-.88-1.38.47-.29 1.27 2.11h-.05a2.06 2.06 0 01-2.91-1zM27.82 107.64l3-2.06.34.49-3 2.07zM30.94 111.81l.62-4-2.35 1.85-.37-.48 2.86-2.25.46.59-.62 4 2.35-1.85.37.48-2.86 2.25zM34.57 115.77l.3-.86-1.7-1.77-.88.26-.45-.48 4-1.13.52.55-1.36 3.91zm1.12-3.34l-1.92.54 1.29 1.34zM38.55 115.23l-2.06 2.3-.45-.4 2.06-2.31-1.3-1.16.37-.41 3 2.73-.37.41zM38.26 119.07l2.18-2.92 3 2.19-.33.44L40.6 117l-.56.75 1.71 1.25-.32.44-1.72-1.27-.64.85 2.58 1.92-.32.44zM46.7 122.47a1.68 1.68 0 01-1.17.83 2 2 0 01-1.41-.27L42 121.81l1.83-3.14 2 1.16a1.84 1.84 0 01.87 2.64zm-.56-.34a1.25 1.25 0 00-.52-1.8l-1.51-.89-1.29 2.2 1.62.94a1.19 1.19 0 001.7-.45zM48.21 125.09l1.43-3.34.56.23-1.44 3.35zM53.05 126.86l-1.72-3.7-.93 2.84-.57-.19 1.17-3.45.71.23 1.71 3.7.93-2.84.57.19-1.12 3.45zM60.76 127.36c-.09.62-.6.88-1.5.76l-2.87-.41.51-3.6 2.91.41c.74.11 1.12.56 1 1.15a.82.82 0 01-.57.7.88.88 0 01.52.99zm-.6-.17c.05-.35-.14-.55-.58-.61l-2.37-.34-.15 1 2.28.33c.51.08.77-.03.82-.38zm.1-1.57c0-.28-.15-.5-.49-.55l-2.35-.33-.14 1 2.33.33a.54.54 0 00.65-.45zM65 128.41L64 127h-1.84v1.39h-.61l.08-3.64 2.87.06a1.11 1.11 0 011.21 1.17 1 1 0 01-1 1.06l.95 1.44zm.1-2.5c0-.4-.23-.6-.74-.61h-2.13v1.16h2.18c.47 0 .72-.19.73-.55zM66.47 128.32l-.42-3.61 3.64-.43.06.55-3 .35.11.92 2.11-.24.07.54-2.12.25.12 1.06 3.19-.37.06.54zM75.29 126.65l-.75-2.88-1.23 2.77-2.41-1.83.75 2.88-.58.15-.92-3.52.73-.19 2.24 1.69 1.15-2.57.73-.15.92 3.52zM76.87 126.11l-1.38-3.37 3.4-1.39.21.5-2.84 1.15.35.86 2-.81.21.51-2 .81.4 1 3-1.21.21.5zM84.09 122.66l-3.88-1.25 1.45 2.59-.53.29-1.77-3.18.66-.37L83.9 122l-1.45-2.61.53-.29 1.76 3.18zM85.93 122.3l-.09.07-.17-.25c.21-.14.28-.27.2-.38l-.1-.15-.34.22-.3-.45.65-.43.38.57c.2.3.12.58-.23.8zM90.08 118.51a2.73 2.73 0 01-1.55.66 1.75 1.75 0 01-1.48-.65 1.72 1.72 0 01-.35-1.52 2.66 2.66 0 01.94-1.43 2.42 2.42 0 012.08-.59l-.25.58A1.87 1.87 0 0088 116a2 2 0 00-.67 1 1.22 1.22 0 00.24 1.14 1.48 1.48 0 002.19 0 1.54 1.54 0 00.61-1.73L89 117.45l-.36-.42 1.88-1.57a2 2 0 01-.44 3.05zM92.51 116.24l-2.61-2.55 2.56-2.62.39.38-2.14 2.19.67.65 1.49-1.52.39.38-1.49 1.53.76.74 2.24-2.3.4.39zM97.92 110.17l-1.7-.11-1.16 1.43 1.08.87-.38.47-2.83-2.3 1.81-2.23a1.11 1.11 0 011.67-.23 1 1 0 01.24 1.42l1.72.13zM96 108.55c-.32-.25-.62-.18-.94.21l-1.34 1.65.9.73 1.38-1.69c.3-.35.29-.67 0-.9zM101.31 105.23l-2.48-1.63.94 2.88-3 .26 2.49 1.63-.33.5-3-2 .41-.62 2.8-.25-.87-2.68.41-.62 3 2zM103.82 100.69h-.92l-1.15 2.16.52.76-.31.58-2.31-3.41.36-.67h4.12zm-3.54 0l1.12 1.65.87-1.64zM105.76 96.39l-3.85 1.37 2.74 1.24-.24.55-3.33-1.45.29-.68 3.85-1.42-2.74-1.19.24-.55 3.34 1.44zM105.77 92.25l1.36.47-.2.57-1.36-.47-2.74 1.18.25-.71 2.11-.91-1.1-2 .24-.71zM39.07 99.17l.44.63a.6.6 0 01-.07.91.51.51 0 01-.66-.07.53.53 0 01-.13.71.66.66 0 01-1-.27l-.44-.64zm-1.29 1.44l.12.17c.11.17.3.34.51.19s.14-.38 0-.56l-.12-.17zm.8-.56l.1.14c.11.16.27.32.46.19s.1-.34 0-.51l-.1-.14zM40.34 101l.3.37c.29.37.65.81.16 1.19a.51.51 0 01-.69 0c.07.1 0 .23 0 .32l-.47.82-.3-.39.39-.64a.28.28 0 000-.38l-.09-.11-.73.57-.27-.35zm-.48.93l.14.07c.13.18.31.35.53.18s.08-.37 0-.54l-.09-.12zM41.74 102.72l.85 1-.27.23-.56-.65-.42.36.51.59-.26.23-.52-.59-.47.41.56.65-.26.23-.86-1zM43.06 104.26l.49.5-.83 1.56 1.57-.81.5.5-1.59 1.57-.3-.3 1.31-1.3-1.73.87-.29-.3.89-1.71-1.3 1.28-.3-.3zM45.37 106.53l1 .85-.23.27-.65-.57-.36.42.59.51-.23.27-.59-.52-.41.47.65.57-.23.27-1-.86zM46.87 107.82l.43.33L47 110l1-1.33.34.25L47 110.7l-.42-.33.34-1.84-1 1.33-.33-.26zM50.47 110.33l.33.2-1.15 1.92-.38-.23.89-1.48-.47.07v-.37zM51.42 112.09a.57.57 0 01-.09-.63.6.6 0 01.89-.2c.34.17.58.48.41.81a.59.59 0 01-.57.31.62.62 0 01.11.72c-.2.4-.58.43-1 .23s-.6-.52-.4-.92a.6.6 0 01.61-.31zm-.07 1a.3.3 0 00.42-.12.46.46 0 00-.15-.52.41.41 0 00-.42.2.34.34 0 00.15.35zm.5-.92a.38.38 0 00.37-.17.28.28 0 00-.11-.38.29.29 0 00-.41.1c-.09.12.04.28.15.4zM53.37 111.87l1.31.55-.14.34-1.45 1.41-.45-.19 1.49-1.41-.9-.38zM54.67 113.92l1.23-1.07.52.18-.42 1.36.27.09-.11.31-.26-.09-.15.45-.4-.14.14-.44-.9-.3zm.89.33l.31-.92-.83.75zM58.05 114.83a.24.24 0 01.29-.19.24.24 0 01.18.3.24.24 0 01-.29.19.24.24 0 01-.18-.3zM60.66 114l.55.06c.48 0 .9.23.85.77s-.45.67-.92.62h-.18l-.09.84h-.44zm.34 1h.16c.22 0 .42 0 .45-.29s-.16-.36-.39-.39h-.15zM62.65 114.15h.44v.9H64v-.9h.44v2.24H64v-1h-.88v1h-.44zM65.12 114.12h.44l.15 2.23h-.44zM66.31 114l.43-.06.25 1.87.85-.11v.35l-1.29.17zM68.72 113.65l.49-.11 1.32 2-.48.1-.29-.46-.87.19-.08.54-.45.1zm.33.38l-.12 1 .63-.13zM70.52 113.21l.57-.19c.65-.21 1.29-.17 1.56.67s-.22 1.25-.86 1.46l-.58.19zm1 1.66l.23-.08a.77.77 0 00-.48-1.46l-.23.08zM72.89 112.41l1.2-.51.14.33-.79.33.21.51.72-.31.14.33-.73.3.22.61.8-.34.2.34-1.21.5zM74.74 111.59l.4-.2.85 1.68.76-.38.16.31-1.16.58zM76.34 110.75l.48-.28c.41-.24.86-.34 1.13.12s0 .8-.36 1l-.16.09.43.74-.38.22zm.91.67l.13-.08c.19-.11.32-.27.19-.5s-.34-.2-.54-.09l-.13.08zM78.07 109.71l.36-.25.52.74.73-.5-.52-.74.36-.25 1.28 1.83-.36.25-.56-.8-.73.5.56.8-.36.25zM80.12 108.24l.34-.28 1.39 1.76-.35.27zM81.54 107.06l.37-.33 2.09 1.11-.36.33-.48-.27-.67.6.19.51-.34.3zm.48.18l.38.91.48-.43zM84.26 104.46l.27-.29 1.63 1.53-.31.33-1.25-1.19v.48h-.36zM86.18 103.92a.58.58 0 01-.63-.06.6.6 0 010-.92c.26-.29.61-.45.89-.21a.55.55 0 01.17.62.62.62 0 01.72 0 .65.65 0 010 1c-.28.33-.65.47-1 .18a.61.61 0 01-.16-.67zm.13-.42a.39.39 0 00-.08-.4.26.26 0 00-.39 0 .29.29 0 000 .42c.16.15.33.06.47-.02zm.78.7a.3.3 0 000-.44c-.16-.14-.36-.07-.53 0a.42.42 0 00.1.46.33.33 0 00.43-.02zM86.46 101.91l.86-1.12.3.22 1 1.76-.29.38-1-1.8-.59.78zM88.76 99.45a1 1 0 00-.29.26c-.22.32 0 .63.27.83a.46.46 0 01.06-.48.6.6 0 01.92-.14A.69.69 0 0190 101c-.34.5-.84.32-1.27 0s-.94-.88-.53-1.47a1.52 1.52 0 01.33-.34zm.44 1.37c.17.12.38.15.5 0s0-.35-.16-.47-.39-.16-.52 0-.02.34.18.47zM68.85 93.51A9.15 9.15 0 0063.77 95a9.13 9.13 0 00-5.08-1.52 8.59 8.59 0 100 17.16 9.13 9.13 0 005.08-1.52 9.15 9.15 0 005.08 1.52 8.59 8.59 0 100-17.16zm0 16.84a8.82 8.82 0 01-5.07-1.59 8.83 8.83 0 01-5.08 1.59 8.27 8.27 0 110-16.52 8.83 8.83 0 015.08 1.59 8.82 8.82 0 015.07-1.59 8.27 8.27 0 110 16.52z" class="cls-5"/><path d="M68.85 94.22a8.35 8.35 0 00-5.06 1.7 8.5 8.5 0 00-5.1-1.71 7.89 7.89 0 100 15.76 8.52 8.52 0 005.1-1.71 8.4 8.4 0 005.06 1.74 7.88 7.88 0 100-15.75zM58.69 109.3a7.22 7.22 0 110-14.42 7.78 7.78 0 014.58 1.48 7.61 7.61 0 000 11.46 7.78 7.78 0 01-4.58 1.48zm10.16 0a7.22 7.22 0 117.58-7.21 7.41 7.41 0 01-7.58 7.21z" class="cls-5"/><path d="M57.55 105.87a3.11 3.11 0 01-.06.66 3.56 3.56 0 01-.23.85h.91a4.76 4.76 0 013-1.43 6.55 6.55 0 01-1-3.57 2.08 2.08 0 01-.33 0l-.12.12a2.14 2.14 0 01-.63.43c-.14.06-.09.21-.12.34a4 4 0 000 .49c0 .34-.46.43-.39.7a1.16 1.16 0 01-.68 1.25 2.63 2.63 0 00-.35.16zm-.21-5.67a4 4 0 00.66.16 3.4 3.4 0 00.9 0s-.12-.36.32-.27c0-.08-.25-.24-.46-.36a4.81 4.81 0 001.14.32c0-.31-.5-.31-.75-.42-.42-.19.86-.29.9 0 .1-.25-.56-.41-.92-.66-.56-.39-.56-.73-.3-1.16a.84.84 0 00.44 1 4.57 4.57 0 011 .49c0-.22-.25-.47-.52-.66s-.39-.5-.32-.91c.13.34 0 .55.47.8s.38.4.68.59c.1-.22-.25-.44-.34-.74a1.39 1.39 0 01-.1-.73c.08.23 0 .43.17.65a1 1 0 00.47.41 1.33 1.33 0 01-.3-.56 1.1 1.1 0 010-.57 1.15 1.15 0 00.15.44 1.34 1.34 0 00.32.43 1.06 1.06 0 01-.19-.48.91.91 0 010-.49.92.92 0 00.08.46c.07.17.12.36.27.39a.91.91 0 01-.17-.42 1 1 0 010-.34c.14.11.24.16.39.26s.2-.18.2-.18c-.42-.29-.39-.39-1-.53s-.88-.52-1.46-.55a12 12 0 00-1.84.07.88.88 0 00-.68.58c-.08.17 0 .29-.08.46s-.27.3-.33.56a6.59 6.59 0 00-.28 1.22 3.51 3.51 0 01.72.21c.42.33.58.46.76.53zm4.58 6.32a4.35 4.35 0 00-2 .09 11.83 11.83 0 00-1.78.93H57a3.44 3.44 0 00.3-.94 3 3 0 00.09-.63 6.32 6.32 0 01-.54.36 1.56 1.56 0 01-1.19 0c-.23 0-.41 0-.57-.17s-.1-.29-.17-.48a2.19 2.19 0 01-.17-.49c-.06-.4.24-.65.22-1A9.93 9.93 0 0155 103c0-.24-.22-.37-.15-.6s0-.3.24-.33a.39.39 0 00-.1.31c0 .09 0 .18.05.21s.1-.17.2-.16 0 .2.14.24.06 0 .1 0c.33.07.37.45.71.51s.47-.2.71-.13.27.49.56.7a1.65 1.65 0 00.32.18.62.62 0 01-.27 0c-.36 0-.34-.48-.68-.6s-.47 0-.76 0-.34-.2-.56-.14a.46.46 0 00-.37.27c-.12.27 0 .49 0 .8s-.24.66-.24.94.11.22.17.37 0 .35.17.49a.72.72 0 00.64.1.25.25 0 000-.25c.34 0 .54-.21.71-.49a.74.74 0 00.1-.91.34.34 0 01.24.06c.15.11-.12.49.07.48s.2-.17.22-.31-.19-.3-.24-.41.2-.22.37-.23.34.59.44.56.14-.44.31-.54.26.06.36 0c.32-.35 0-.21 0-.33s.26-.22.16-.33-.13 0-.18-.07.2-.16.17-.29-.09-.07-.11-.13.17-.23.16-.28-.29-.16-.27-.32a.32.32 0 01.42-.25.45.45 0 00.3.49c.29.1.44-.24.63-.47s.31-.31.32-.61c0-.13.14-.6.05-.61s-.19 0-.23 0 .09.47 0 .74-.44.62-.61.55a1 1 0 00.22-.27 1.3 1.3 0 00.1-.25c-.1 0-.4.16-.35 0s.06-.42.15-.5.32 0 .35-.08-.11-.24-.25-.25-.41-.05-.51 0 .27.31.15.44-.18 0-.23.1.13.22.07.33a.27.27 0 01-.17.13c-.17-.08-.29-.15-.29-.31s0-.13.24-.31c-.16-.08-.29-.2-.06-.29-.1-.15.12-.35.12-.35-.15-.16-.48-.09-.78-.19a3.28 3.28 0 01-.62-.19.79.79 0 01-.54.22.71.71 0 01-.38-.12.24.24 0 01-.22.32c-.23 0-.17-.18-.18-.32s-.06-.06-.09-.11 0-.29-.11-.39a2.84 2.84 0 00-.63.83c-.2.43-.71.6-.54.83s.18.08.3.12a2.64 2.64 0 00.56.11v-.18c0-.11 0-.17-.07-.28.14.14.34.18.35.38s.13.49.39.51a6.58 6.58 0 011.17.31v.11c-.61-.18-.94-.16-1.45-.28s-.14-.5-1-.44a.37.37 0 01-.4-.47c.11-.33.34-.43.54-.72a4.76 4.76 0 00.52-.8s-.14-.22-.07-.33a4.26 4.26 0 00.4-1.16c.16-.45.45-.7.43-1.17 0-.31.63-.72.83-.75s1-.06 1.87-.08c.67 0 1 .49 1.79.59a3 3 0 011.08.65 7.61 7.61 0 00-1.39 4.39 8.38 8.38 0 001.35 4.53zm-4.62-3.26c-.08-.26-.1-.64-.79-.53s-.61-.15-.79-.3c0 .28.1.61.76.46s.52.23.82.37zM55.3 107.25l-.41.58-.28-.18v-.07l.22.14.13-.18-.21-.13.05-.07.2.13.19-.26zm.1.49v-.15a.11.11 0 01.15-.06.1.1 0 010 .15.11.11 0 01-.15.06zm.75-.18l.17.07a.18.18 0 01.11.26.19.19 0 01-.27.1h-.1l-.13.29h-.07zm.06.36s.09 0 .14-.07a.1.1 0 00-.05-.14h-.11l-.1.2zm.45.15h.12a.1.1 0 00.14-.07.1.1 0 00-.07-.14h-.12zm0 .08l-.1.3h-.07l.22-.67.19.06c.1 0 .18.09.13.23s-.09.13-.15.12 0 .08 0 .16a1.52 1.52 0 000 .21h-.08a.59.59 0 010-.13.53.53 0 000-.16l-.07-.06zm.88-.2c.18 0 .23.21.19.41s-.16.35-.33.32-.23-.21-.19-.41.13-.35.3-.27zm-.13.64c.15 0 .21-.1.23-.24s0-.29-.11-.31-.2.09-.24.24-.05.29.09.31zm.66.16h.08l.05-.62h.19v-.09h-.46v.09h.19zm.86 0v-.09h-.29v-.23h.27v-.09h-.27v-.22h.28v-.08h-.36v.71zm.66-.58a.19.19 0 00-.22-.17c-.19 0-.23.21-.21.39s.1.35.27.34a.22.22 0 00.2-.22h-.09a.11.11 0 01-.11.12c-.12 0-.18-.12-.19-.26s0-.29.14-.3a.12.12 0 01.13.1zm.43.46h.08L60 108h.19v-.09l-.45.09v.08h.19zm.52-.87c.17-.05.3.08.36.28s0 .38-.14.43-.3-.08-.36-.28-.06-.35.11-.4zm.2.63c.13 0 .12-.19.08-.32s-.12-.27-.25-.23-.14.18-.09.33.09.29.23.25zm.44-.51h.12c.08 0 .08-.09 0-.14a.1.1 0 00-.14-.06h-.12zm0 .08l.13.29h-.07l-.29-.65.19-.08c.09 0 .2 0 .25.09a.15.15 0 010 .2c.07 0 .1 0 .14.1a1.13 1.13 0 00.12.18h-.08l-.07-.12s0-.11-.09-.13a.09.09 0 00-.09 0zm.9-.46a.11.11 0 00-.14-.06.12.12 0 000 .16.11.11 0 00.15.05s.03-.06-.01-.12zm-7.56-.32l-.1-.08h-.15c-.03 0-.06.09 0 .15l.09.08zm.06-.07l.21-.24h.06l-.47.54-.16-.13a.16.16 0 010-.25.19.19 0 01.2-.07v-.16a1.18 1.18 0 00.11-.19h.07a.75.75 0 00-.07.12s-.08.09-.08.14v.08zm-.26-.64l-.5.52h.06l.5-.51zm-.41-.4l-.07.06.2.2-.17.16-.19-.19-.06.06.19.19-.17.15-.19-.19-.06.06.25.24.52-.48zm-.26-.19l-.07-.08a.16.16 0 00-.16-.06.37.37 0 00-.18.08.47.47 0 00-.13.15.15.15 0 000 .16l.07.09zm-.46.45l-.12-.15a.22.22 0 01-.06-.14.39.39 0 01.18-.29.39.39 0 01.33-.09.28.28 0 01.13.09l.11.14zm-.23-.83l-.07-.11a.1.1 0 00-.15 0 .09.09 0 000 .14l.06.12zm.07 0l.29-.16v.07l-.63.35-.11-.17a.17.17 0 01.07-.25.18.18 0 01.2 0c0-.06 0-.1.09-.14l.17-.14v.07l-.1.08a.37.37 0 00-.13.11.1.1 0 000 .09zm0-.69l-.65.32v.07l.65-.32zm-.77-.39a.18.18 0 00-.11.25c.06.18.28.16.44.09s.33-.2.27-.35a.22.22 0 00-.27-.12v.08a.11.11 0 01.15.07c.05.11-.07.19-.21.25s-.28.08-.33-.05a.12.12 0 01.06-.15zm.41-.45l-.32.09-.08-.25.32-.09v-.08l-.69.21v.07l.3-.09.08.26-.3.08v.08l.7-.21zm-.23-.91V103l-.64-.06.6-.21v-.08l-.75-.06v.07h.61l-.58.21v.09h.61l-.58.21v.07zm-.08-.84h-.73v.08h.73zm0-.57h-.09v.26h-.65v.07h.73zm0-.27l-.32-.05v-.26h.33V101l-.72-.11v.07h.31v.26h-.31v.08l.72.11zm.18-.89h-.08l-.07.26h-.24l.07-.25h-.09l-.06.25-.22-.06.07-.26h-.09l-.08.34.7.17zm.18-.54h-.08l-.09.24L52 100v.07l.69.23zm.28-.65v-.06l-.66-.31-.05.11.46.4-.61-.11-.06.12.66.31v-.07l-.59-.28.67.12v-.06l-.37-.47zm.34-.56l-.31-.22h.47l.06-.09h-.49l-.07-.37-.06.08.13.37-.26-.18v.07l.6.4zm0-.75l.08-.1c.06-.07 0-.11 0-.15a.11.11 0 00-.16 0l-.08.1zm.07.05l.25.21v.06l-.56-.46.13-.15a.18.18 0 01.27 0 .17.17 0 01.06.19h.17L54 98l-.05.06-.16-.06a.29.29 0 00-.14-.08h-.08zm.27-.87c.12-.12.3-.06.45.08s.2.33.07.45-.3 0-.45-.09-.11-.32.02-.44zm.46.47c.11-.1 0-.22-.07-.33s-.23-.18-.33-.08 0 .21.07.32.32.18.42.09zm.27-1.06l.37.46-.59-.29-.08.06.45.56h.05l-.38-.47.61.31.16-.11-.45-.56zm.32-.21l.16-.1a.18.18 0 01.28.06.19.19 0 01-.06.28h-.09l.17.26h-.06zm.35.16a.1.1 0 000-.15c-.07-.1-.14 0-.15 0l-.11.06.13.19zm.43-.24l.12-.06a.1.1 0 000-.15s-.06-.08-.15 0l-.11.06zm0 .07l.15.28h-.07l-.33-.63.18-.09a.18.18 0 01.26.07.16.16 0 010 .2c.07 0 .1 0 .15.09a1.18 1.18 0 00.13.18h-.08a.44.44 0 00-.08-.11.28.28 0 00-.1-.13h-.09zm.73 0l-.26-.65h-.08l.26.66zm.38-.87l.18.56-.44-.48h-.11l.21.67h.07l-.18-.57.46.49h.09l-.21-.68zm.36-.09v.08l.33-.06-.24.59v.09l.43-.08v-.09l-.2.07.24-.6v-.08zm1.09.47h.11a.17.17 0 00.15-.08.31.31 0 000-.19.34.34 0 00-.05-.19.16.16 0 00-.15-.07h-.11zm-.1-.62h.19a.26.26 0 01.15 0 .48.48 0 010 .62.25.25 0 01-.16 0h-.19zm.77.69v-.12h-.09V96zm.6 0h.11a.16.16 0 00.16-.06.45.45 0 00.07-.18.41.41 0 000-.19.17.17 0 00-.13-.11h-.12zm0-.63h.19a.21.21 0 01.14.07.37.37 0 01.07.32.39.39 0 01-.17.29.29.29 0 01-.16 0h-.19zm.89.89v-.09l-.1-.11v-.23l.26.06v-.08l-.26-.06.06-.21.27.06v-.08l-.35-.09-.11.73zm.91-.45h-.07l-.16.42q-.08.17-.21.12a.15.15 0 01-.07-.22l.15-.43h-.07l-.15.4c-.07.17 0 .3.11.35s.26 0 .32-.2zm.1.81h.07l.29-.56.17.08L62 96l-.42-.2v.07l.17.09zm.49 0a.19.19 0 00.06.29.21.21 0 00.31-.07c.1-.15 0-.22-.09-.31s-.07-.07 0-.14a.13.13 0 01.17 0 .1.1 0 010 .15h.07a.17.17 0 00-.06-.26.21.21 0 00-.3.07c-.08.14 0 .24.1.31a.11.11 0 010 .14.13.13 0 01-.19 0c-.07 0-.09-.09 0-.18zM62.82 105.84l.08.1.34-.25.11.14c.1.13.25.22.41.11a.25.25 0 000-.41l-.18-.24zm.52-.21l.25-.18.12.16a.14.14 0 010 .22.15.15 0 01-.22 0zm0 .94l.7-.66.08.09-.3.28.31.31.3-.28.09.09-.7.65-.09-.09.32-.29-.31-.31-.31.3zm.72.69l.64-.71.1.08-.64.71zm.37.29l.56-.77.1.07-.49.68.36.24-.07.09zm.74.48l.2-.17.39.19v.26l.12.06.11-1-.12-.06-.79.66zm.66-.58l-.06.48-.31-.15zm.68.28l.18.06a.25.25 0 01.18.18.39.39 0 010 .26.41.41 0 01-.16.21.25.25 0 01-.25 0l-.18-.06zm-.4.75l.29.09a.46.46 0 00.26 0 .46.46 0 00.32-.33.47.47 0 000-.45.52.52 0 00-.22-.14l-.29-.09zm1 .31l.17-.93.57.1v.11l-.44-.08-.06.29.43.07v.11l-.43-.07v.31l.45.07v.12zm.91.13l.07-.94h.13l-.06.83h.43v.19zm.86 0h.13v-.42h.17c.17 0 .33-.09.31-.29s-.17-.26-.34-.24h-.31zm.09-.53v-.3h.2s.17 0 .18.14a.15.15 0 01-.16.17zm.81.46l-.17-.93h.13l.07.39.43-.07-.07-.4h.13l.17.93h-.13l-.08-.42-.43.07.07.42zm1.06-.24l-.31-.89h.12l.32.89zm.47-.15v-.26l.4-.17.19.19.13-.06-.74-.71-.12.05v1zm0-.86l.34.35-.31.13zm1.66 0l-.1.07-.45-.63a1.12 1.12 0 01-.1.22l-.08-.1a1.23 1.23 0 00.09-.23l.11-.07zm.25-.74a.18.18 0 01.24.27.2.2 0 01-.27 0 .18.18 0 01.06-.22zm0-.3a.15.15 0 010 .22.14.14 0 01-.22 0 .15.15 0 010-.22.17.17 0 01.21.05zm-.08.34a.22.22 0 000 .3.3.3 0 00.41 0 .27.27 0 000-.4.22.22 0 00-.3 0 .21.21 0 000-.28.27.27 0 00-.38 0 .24.24 0 00-.06.35.2.2 0 00.28 0zm.11-.67l.39-.43.49.83-.09.09-.42-.73-.28.31zm1.08-.29a.17.17 0 11.21-.26.16.16 0 01.06.24.19.19 0 01-.28.08zm.36.05a.3.3 0 00-.08-.42.29.29 0 00-.41 0 .18.18 0 000 .22c-.1-.07-.27-.2-.16-.34a.12.12 0 01.18 0l.08-.1a.24.24 0 00-.35.06c-.16.21 0 .42.22.56s.36.27.51.03zM66 100.15v-.18l.26-.14.15.12h.09l-.56-.46h-.08l.08.71zm-.08-.6l.26.23-.21.11zm.3-.26h.09l.32.46-.05-.56h.1l.33.47L67 99v.69h-.09l-.34-.48v.58h-.09zm1.14.33v-.18l.29-.07.11.15h.1l-.41-.58h-.1l-.11.7zm.09-.6l.19.28h-.24zm.56-.1h.14c.1 0 .13 0 .14.09s0 .1-.11.12H68zm.15.27a.11.11 0 01.1 0s0 .09.06.15v.12h.1a.66.66 0 01-.06-.2c0-.07 0-.11-.12-.12a.15.15 0 00.11-.17c0-.13-.13-.16-.24-.15h-.23l.07.65h.09v-.29zm.54-.32h.13A.17.17 0 0169 99a.31.31 0 010 .18.27.27 0 01-.06.17.16.16 0 01-.16.07h-.14zm-.11.57h.22a.32.32 0 00.17 0 .32.32 0 00.15-.29.31.31 0 00-.12-.29.41.41 0 00-.18 0h-.22zm.65 0l.07-.66h.4v.08h-.31v.2h.3v.08h-.3v.22h.32v.08zM70 99h.13a.17.17 0 01.14.1.37.37 0 010 .18.32.32 0 01-.09.17.17.17 0 01-.17 0h-.13zm-.22.55H70a.37.37 0 00.18 0 .35.35 0 00.19-.26.31.31 0 00-.07-.29.29.29 0 00-.16-.07h-.21zm1.2-.29h.1c.08 0 .13.06.1.14s-.09.07-.17 0h-.11zm-.09.59H71a.18.18 0 00.17-.11.16.16 0 00-.06-.21.15.15 0 00.16-.09c0-.12 0-.2-.13-.24l-.22-.08-.24.62zm0-.33l.14.05a.1.1 0 01.08.15c0 .07-.09.08-.16.06l-.14-.06zm.73.27l.33-.2h.09l-.44.26-.11.21h-.08l.12-.21v-.49h.09zM66.2 103.9c0-.05 0-.12-.06-.15s-.25 0-.31.13-.1.24 0 .32a.15.15 0 00.18 0h.08a.23.23 0 01-.31 0c-.17-.1-.15-.27 0-.43s.25-.26.43-.15a.2.2 0 01.1.27zm.55 0c.19.07.22.25.14.43a.3.3 0 11-.55-.22.31.31 0 01.41-.17zm-.23.56c.15.06.23 0 .28-.17s.07-.26-.08-.32-.23 0-.29.18-.07.3.09.35zm1.08.37h.09l.15-.64h-.15l-.3.49-.06-.57h-.16l-.15.64h.09l.13-.58.06.63h.08l.34-.53zm1 .11h.09v-.66h-.14l-.24.53-.14-.56h-.16l-.06.66h.09l.06-.59.15.61h.09l.26-.57zm.44 0v-.65h-.09v.66zm.16-.19c0 .15.11.2.25.19s.26-.08.25-.22-.18-.16-.3-.19-.11 0-.12-.08.08-.11.14-.12.13 0 .14.09h.09a.19.19 0 00-.23-.16c-.12 0-.25.08-.23.22s.19.16.3.17.11 0 .11.09-.08.12-.15.13-.14 0-.15-.11zm.66 0c0 .14.13.18.26.16s.25-.1.22-.24-.19-.14-.31-.16-.11 0-.12-.08.06-.11.13-.12.13 0 .14.07h.09a.18.18 0 00-.24-.14c-.12 0-.24.09-.21.24s.2.13.31.14.11 0 .12.08-.06.13-.14.14a.12.12 0 01-.16-.1zm.8 0l-.17-.64h-.08l.16.64zm.25-.79c.19-.07.33 0 .41.22a.3.3 0 01-.15.43.31.31 0 01-.41-.22.3.3 0 01.11-.39zm.23.57c.15-.06.14-.19.09-.32s-.14-.23-.29-.17-.14.18-.09.32.09.24.25.18zm.59-.92l.27.48-.54-.34h-.11l.32.59h.07l-.27-.49.56.35h.1l-.32-.58zM65.86 101.27c0 .17-.08.28-.26.28a.25.25 0 01-.26-.28v-.4h.09v.43a.17.17 0 10.34 0v-.43h.09zm.63-.4v.55l-.32-.55h-.12v.66h.08V101l.33.56h.11v-.66zm.35.66v-.66h-.09v.66zm.31 0h.09V101h.22v-.08h-.52v.08h.21zm.82 0v-.07h-.33v-.22H68v-.08h-.31V101H68v-.08h-.41v.66zm.24-.07h.14a.19.19 0 00.16-.08.29.29 0 000-.18.26.26 0 000-.17.19.19 0 00-.16-.08h-.14zm-.09-.59h.22a.34.34 0 01.17 0 .3.3 0 01.14.28.31.31 0 01-.14.29.25.25 0 01-.17 0h-.22zm.89.47c0 .15.09.21.23.21s.26-.06.26-.2-.16-.17-.28-.21-.11 0-.11-.1.09-.1.15-.1.13 0 .13.1h.1c0-.13-.11-.18-.22-.18s-.25 0-.25.2.18.17.28.19.11 0 .11.1-.09.12-.16.12a.13.13 0 01-.15-.13zm.79.19h.09V101h.21v-.08h-.52v.08h.22zm.26 0l.28-.66h.1l.26.66h-.1l-.07-.17h-.3l-.07.17zm.2-.25h.24l-.12-.31zm.62.25H71V101h.22v-.08h-.53v.08h.22zm.81 0v-.07h-.32v-.22h.3v-.08h-.3V101h.31v-.08h-.4v.66zm.13-.19c0 .15.09.21.23.21s.26-.06.26-.2-.16-.17-.28-.21-.11 0-.11-.1.08-.1.15-.1.13 0 .13.1h.1c0-.13-.12-.18-.22-.18s-.26 0-.26.2.18.17.29.19.1 0 .1.1-.09.12-.16.12-.14 0-.14-.13zM66 102.27a.16.16 0 00-.16-.13c-.19 0-.23.18-.23.31s0 .31.22.31a.15.15 0 00.16-.12h.12a.27.27 0 01-.29.22c-.23 0-.32-.19-.32-.41s.09-.4.34-.4.26.08.27.22zm.73.57v-.09h-.38v-.26h.35v-.09h-.35v-.24h.37v-.09h-.48v.77zm.71-.77v.64l-.37-.64h-.17v.77h.1v-.65l.38.65h.14v-.77zm.48.77H68v-.68h.25v-.09h-.61v.09h.25zm1 0v-.09h-.39v-.26h.36v-.09h-.36v-.24h.37v-.09h-.47v.77zm.71-.77v.64l-.37-.64h-.15v.77h.1v-.65l.38.65h.13v-.77zm.83 0v.64l-.37-.64h-.14v.77H70v-.65l.39.65h.13v-.77zm.41.77v-.77h-.1v.77zm.12 0l.32-.77h.12l.3.77h-.11l-.09-.2h-.35l-.08.2zm.23-.29h.28l-.14-.38zm1.09.29v-.09h-.41v-.68h-.11v.77z" class="cls-8"/><path d="M68.83 106.94l-.25.07a1.1 1.1 0 01-.14.21 1.29 1.29 0 01-.61.29 1.75 1.75 0 01.24-.51h-.1a1.46 1.46 0 01-.72.15 2.89 2.89 0 01.31-.33h-.14a2 2 0 01-.94 0 3.36 3.36 0 01.45-.3h-.11a1.31 1.31 0 01-.65-.09l.19-.12-.13-.06a.7.7 0 01-.19.06 1.39 1.39 0 01-.66-.15 3.43 3.43 0 01.33-.15h-.22a1.25 1.25 0 01-.63-.24 1.92 1.92 0 01.5-.13l-.07-.19-.14-.16a.86.86 0 01-.18 0 .18.18 0 01-.17-.17l-.22-.08a.71.71 0 01-.25 0 1.31 1.31 0 01-.6-.31 3.27 3.27 0 01.36-.06 2.16 2.16 0 01-.61-.48l-.18-.08a2.06 2.06 0 01-.65.17 1.24 1.24 0 01.29-.37.23.23 0 00-.23 0 2.18 2.18 0 01-.66.1 1.41 1.41 0 01.5-.45 1.16 1.16 0 01.28-.05 3.56 3.56 0 01-.52 0 1.89 1.89 0 01-.56-.34 1.45 1.45 0 01.67 0l.15.07a2 2 0 01-.27-.38 1.26 1.26 0 01.64.21.92.92 0 01.17.21h.11a1.2 1.2 0 01-.09-.57 2.69 2.69 0 01.37.33v-.52a1.28 1.28 0 01-.21-.68l.2.13.13-.16a1.22 1.22 0 010-.67 3.27 3.27 0 01.24.32l.07-.59a.17.17 0 01-.07-.14.16.16 0 01.11-.15l.11-.23a.87.87 0 01-.17-.27 1.25 1.25 0 010-.65 2 2 0 01.34.5 1.26 1.26 0 01-.07-.41 1.18 1.18 0 01.28-.6 2 2 0 01.09.4 1.91 1.91 0 010-.24 1.16 1.16 0 01.33-.58 2.2 2.2 0 010 .26 3.42 3.42 0 00.06-.46 1.15 1.15 0 01.36-.55 1.88 1.88 0 010 .64 1.38 1.38 0 01.16-.23 1.32 1.32 0 01.58-.31.88.88 0 01.18-.33 1.29 1.29 0 01.6-.31 2.81 2.81 0 01-.13.28 1.43 1.43 0 01.46-.36 1.33 1.33 0 01.68 0 1.75 1.75 0 01-.55.35 1.38 1.38 0 01-.59 0 1.34 1.34 0 01-.16.23 1.44 1.44 0 01.4-.18 1.42 1.42 0 01.67.13 1.82 1.82 0 01-.62.24 1.43 1.43 0 01-.58-.08 1 1 0 01-.41.21 3.68 3.68 0 01-.25.35 1.45 1.45 0 01-.45.27h.2a1.3 1.3 0 01.68 0 1.81 1.81 0 01-.52.39 1.22 1.22 0 01-.41.07l-.13.16a1.62 1.62 0 01-.23.59l.32-.11a1.73 1.73 0 01-.27.59 1.45 1.45 0 01-.35.26v.26a.18.18 0 01.1.15.15.15 0 01-.11.16l-.1.33c.1-.06.18-.1.2-.09a1.64 1.64 0 01-.23.6.63.63 0 01-.11.12v.17a1.3 1.3 0 01.41-.19 1.82 1.82 0 01-.28.58.84.84 0 01-.23.18l-.14.3.25.46a.8.8 0 01.06-.18 1 1 0 01.34.8 3.32 3.32 0 01.2-.5 1.76 1.76 0 01.26.59 1.5 1.5 0 010 .42.15.15 0 01.14.15l.22.12a.9.9 0 010-.28 1.86 1.86 0 01.46.46l.14.14a1.08 1.08 0 010-.44 1.68 1.68 0 01.4.51.71.71 0 01.06.22l.32.23a1.68 1.68 0 01-.09-.29 2 2 0 01.57.33 1.55 1.55 0 01.2.32h.13a.76.76 0 01-.09-.18 1.62 1.62 0 010-.65 1.58 1.58 0 01.4.5.69.69 0 010 .28 1.16 1.16 0 01.4.13l.32.12.31-.12a1.21 1.21 0 01.41-.13.9.9 0 010-.28 1.56 1.56 0 01.41-.5 1.84 1.84 0 010 .65.76.76 0 01-.09.18h.13a1.55 1.55 0 01.2-.32 2 2 0 01.57-.33 1.68 1.68 0 01-.09.29l.32-.23a.71.71 0 01.06-.22 1.68 1.68 0 01.4-.51 1.32 1.32 0 010 .44l.14-.14a1.88 1.88 0 01.45-.46.76.76 0 010 .28l.21-.12a.16.16 0 01.15-.15 1.5 1.5 0 010-.42 1.76 1.76 0 01.26-.59 3.32 3.32 0 01.2.5 1 1 0 01.34-.8.38.38 0 010 .18l.26-.46-.14-.3a1.08 1.08 0 01-.24-.18 2.09 2.09 0 01-.28-.58 1.22 1.22 0 01.42.19v-.17a.46.46 0 01-.12-.12 1.76 1.76 0 01-.22-.6.52.52 0 01.2.09L73 101a.15.15 0 01-.11-.16.18.18 0 01.1-.15v-.26a1.4 1.4 0 01-.34-.26 1.83 1.83 0 01-.28-.59l.33.11a1.62 1.62 0 01-.23-.59l-.13-.16a1.22 1.22 0 01-.41-.07 1.81 1.81 0 01-.52-.39 1.3 1.3 0 01.68 0c.06 0 .13.08.19 0a1.69 1.69 0 01-.44-.27 3.68 3.68 0 01-.25-.35 1 1 0 01-.41-.21 1.45 1.45 0 01-.59.08 1.83 1.83 0 01-.61-.24 1.38 1.38 0 01.67-.13 1.44 1.44 0 01.4.18 1.34 1.34 0 01-.16-.23 1.38 1.38 0 01-.59 0 1.75 1.75 0 01-.55-.35 1.29 1.29 0 01.67 0 1.38 1.38 0 01.47.36 2.81 2.81 0 01-.13-.28 1.29 1.29 0 01.6.31.88.88 0 01.18.33 1 1 0 01.74.54 1.88 1.88 0 010-.64 1.15 1.15 0 01.36.55 2.32 2.32 0 00.06.46 2.2 2.2 0 01.05-.26 1.24 1.24 0 01.33.58 1 1 0 010 .24 2.07 2.07 0 01.11-.4 1.28 1.28 0 01.27.6 1.6 1.6 0 01-.07.41 1.78 1.78 0 01.34-.5 1.25 1.25 0 010 .65.87.87 0 01-.17.27l.11.23a.16.16 0 01.11.15.17.17 0 01-.07.14l.07.59a2.1 2.1 0 01.24-.32 1.16 1.16 0 010 .67l.14.16.19-.13a1.15 1.15 0 01-.2.68v.52a2.69 2.69 0 01.37-.33 1.35 1.35 0 01-.09.57h.11a.92.92 0 01.17-.21 1.26 1.26 0 01.64-.21 2.65 2.65 0 01-.27.38l.15-.07a1.45 1.45 0 01.67 0 1.89 1.89 0 01-.56.34 3.56 3.56 0 01-.52 0 1.16 1.16 0 01.28.05 1.27 1.27 0 01.49.45 2.1 2.1 0 01-.65-.1.23.23 0 00-.23 0 1.24 1.24 0 01.29.37 2.06 2.06 0 01-.65-.17l-.18.08a2.16 2.16 0 01-.61.48 3.27 3.27 0 01.36.06 1.31 1.31 0 01-.6.31.78.78 0 01-.26 0l-.21.08a.18.18 0 01-.17.17.86.86 0 01-.18 0l-.14.16-.07.19a1.92 1.92 0 01.5.13 1.29 1.29 0 01-.63.24h-.11L72 106a3.43 3.43 0 01.33.15 1.41 1.41 0 01-.67.15l-.19-.06-.13.06a1.44 1.44 0 01.2.12 1.33 1.33 0 01-.65.09h-.11a3.36 3.36 0 01.45.3 2 2 0 01-.94 0h-.15a2.12 2.12 0 01.31.33 1.44 1.44 0 01-.71-.15h-.1a1.75 1.75 0 01.24.51 1.29 1.29 0 01-.61-.29 1.1 1.1 0 01-.14-.21z" class="cls-5"/><path d="M62.77 101.52l-1-.12v-.12l1 .11zm-.77-1.15l.78.16-.88.27v.17l1 .19v-.11l-.81-.16.91-.28v-.14l-1-.2zm1.13-.33l.05-.12-.79-.31.11-.28h-.11l-.28.67.11.05.12-.28zm.49-1h-.11l-.21.4-.3-.2.2-.37-.1-.05-.2.37-.27-.13.21-.39h-.11l-.26.5.87.43zm-.25-.57l.12-.17c.08-.11 0-.18 0-.22s-.13-.06-.22.05l-.13.17zm.09.06l.36.25-.08.1-.79-.55.2-.26c.09-.12.23-.22.38-.11a.22.22 0 01.09.27c.09-.07.15 0 .25 0a1.69 1.69 0 00.27.12l-.09.11-.16-.08c-.07 0-.14-.09-.2-.08s-.09 0-.12.08zm.54-1.42l.58.54-.9-.23-.12.13.7.65.08-.08-.59-.56.92.23.11-.11-.7-.65zm.89.48l-.24-1 .11-.08.86.57-.11.07-.23-.15-.35.24.06.25zm0-.45l.28-.19-.4-.28zm.94-.17l.11-.06-.43-.72.27-.15-.06-.1-.65.37.06.09.27-.15zm.63-.3l-.4-.86h-.11l.39.86zm.3-1.12c.28-.08.47.09.55.36a.41.41 0 01-.27.58c-.28.08-.47-.09-.55-.36a.42.42 0 01.28-.58zm.25.83c.22-.06.22-.25.17-.44s-.16-.35-.39-.29-.22.25-.17.45.17.35.38.28zm1.14-1.07l.1.77-.54-.72h-.18l.12.94h.12l-.1-.79.56.74h.16l-.12-.94zm.37.9l.41-.93h.14l.35 1h-.12l-.1-.28h-.43l-.1.24zm.28-.35h.35l-.15-.45zm1.31.49v-.11l-.43-.07.15-.82h-.12l-.17.93zm1 .31v-.11l-.44-.14.1-.3.41.14v-.11l-.29-.14.1-.28.43.14v-.1l-.55-.19-.32.89zm.69-.12l.06.48.15.07-.01-.59.5-.26-.14-.06-.39.21v-.44l-.15-.07.08.54-.56.28.14.07zm.42.71l.25-.35.37.25-.26.35.11.07.56-.77-.11-.08-.24.34-.36-.25.24-.33-.11-.07-.56.77zm.72.56l.68-.67-.1-.09-.67.68zm.69-.11l.1.12c.08.09.15.14.25.06s.06-.16 0-.25l-.11-.11zm-.51.26l.73-.61.22.24c.1.12.15.26 0 .38a.24.24 0 01-.27 0 .23.23 0 01-.07.3.24.24 0 01-.28 0 .29.29 0 01-.12-.1zm.17 0l.14.15a.16.16 0 00.25 0c.09-.08.07-.16 0-.24l-.14-.15zm.45.71l.79-.56-.08-.1-.78.56zm.24.36l.07.1.74-.41.21.28.1-.06-.38-.63-.1.06.16.26zm.33.59l.89-.38-.06-.11-.88.38zm1.17.24c.09.27-.08.46-.34.55s-.53 0-.62-.23.07-.45.34-.54.56-.01.66.25zm-.85.29c.08.21.27.2.46.14s.35-.17.28-.39-.27-.21-.47-.14-.31.24-.23.42zm1.15 1l-.79.13.71-.56v-.17l-1 .16v.11l.81-.14-.73.59v.15l1-.16z" class="cls-8"/></g><path d="M0 51.66h127.54v35.29H0z"/><path d="M0 53.37h127.54v31.86H0z" class="cls-10"/><path d="M11.72 81.46a6.33 6.33 0 00-3.58.83c.17-.28 1-1.5 3.58-1.5h104.1c2.54 0 3.41 1.22 3.58 1.5a6.36 6.36 0 00-3.58-.83H11.72zm0-24.43a6.37 6.37 0 01-3.58-.82c.17.28 1 1.5 3.58 1.5h85.62a3.36 3.36 0 00-.54-.71H11.72zm92.61.68h11.49c2.54 0 3.41-1.22 3.58-1.5a6.4 6.4 0 01-3.58.82h-11z" class="cls-4"/><path d="M24.3 64.08h-4.06v3.49h4.06a1.75 1.75 0 000-3.49zm.05 6.21h-4.11v3.84h4.11a1.84 1.84 0 001.9-1.92 1.82 1.82 0 00-1.9-1.92zm3.88-9.5c3.22 0 4.68 2.09 4.68 4.18a4.27 4.27 0 01-2.19 3.73 4.58 4.58 0 012.72 4.3c0 2.47-2.07 4.58-5.21 4.58H12.6a2.79 2.79 0 001.09-2.11V62.89a2.81 2.81 0 00-1.09-2.1zm6.89 0a2.83 2.83 0 011.08 2.1v12.59a2.79 2.79 0 01-1.09 2.11h18v-5.16a2.64 2.64 0 01-2.2 1.18h-7.82v-3.16h6.81v-2.94h-6.81v-3h7.84a2.52 2.52 0 012.18 1.18v-4.9zm36.57 4.95v-4.95h-9.93c-3.88 0-6.45 1.59-6.45 5.48v5.36c0 3.87 2.15 6 6.45 6h9.93v-5.2a2.63 2.63 0 01-2.18 1.18H65c-1.72 0-2.65-1-2.65-2.78v-3.49A2.44 2.44 0 0165 64.56h4.52a2.54 2.54 0 012.17 1.18zm43.53 0v-4.95h-10.9a4.68 4.68 0 100 9.35h2.31c.93 0 2.05.31 2.05 1.51s-1.21 1.53-2.05 1.53h-4.5A2.57 2.57 0 01100 72v5.59h9.94c4 0 6.23-2.47 6.23-5.27S114.3 67 110.5 67h-2.25c-1 0-1.51-.57-1.51-1.24s.5-1.25 1.51-1.25H113a2.57 2.57 0 012.22 1.22zM97.77 57a1.94 1.94 0 01-.19 2.81l-2.27 2.5h4.38L103.9 57zm-24.43 3.79a2.76 2.76 0 011.09 2.11v12.58a2.76 2.76 0 01-1.09 2.11h8.89a2.79 2.79 0 01-1.09-2.11V69.6l4.76 5.7a1.51 1.51 0 01-.52 2.29h11.19l-7.9-9.16 7-7.64H86a1.55 1.55 0 01.21 2.33l-5.06 5.59V62.9a2.79 2.79 0 011.09-2.11z" class="cls-5"/><path d="M14.87 75.38V62.94a2.2 2.2 0 00-.23-1.12h13.59c2.42 0 3.09 1.35 3.26 1.78a4.36 4.36 0 00-3.26-1.14H15.56a1.69 1.69 0 010 .43v12.49a1.54 1.54 0 01-1 1.19 2.72 2.72 0 00.31-1.19zm11.66-11.3a2.4 2.4 0 01.67 1.67 2.71 2.71 0 01-2.9 2.85h-5.24l.64.64h4.6c2.34 0 3.45-1.5 3.45-3.1a2.41 2.41 0 00-1.22-2.06zm.23 6.21a2.81 2.81 0 01.67 1.94 2.86 2.86 0 01-3.08 2.92h-5.29l.64.65h4.65A3.35 3.35 0 0028 72.58a2.8 2.8 0 00-1.24-2.29zm15.79-1.1h6.16v-.65H41.9zm9.37-6.72v-.65H37.15a2.07 2.07 0 01.23 1.07v12.49a2.68 2.68 0 01-.23 1.19 1.54 1.54 0 001-1.19V62.89a3.73 3.73 0 000-.43zm-9.37 12.81h8.11a1.41 1.41 0 001.26-.84 2.09 2.09 0 01-1 .19h-9zm16.07.64c-1.08-1-1.39-2.49-1.39-4.29v-5.36c0-2.43 1.26-3.81 4.53-3.81h8.74v-.65h-8.74c-3.48 0-5.26 1.48-5.26 4.45v5.36c0 2.04.65 3.51 2.12 4.3zm3.1-2.8c.28 1.24 1.37 2.16 3.25 2.16h4.27a1.41 1.41 0 001.26-.84 2.16 2.16 0 01-1 .19H65a3.59 3.59 0 01-3.28-1.51zm41-4.34a3.78 3.78 0 01-1.31-3.09 3.05 3.05 0 013-3.23h9.71v-.64h-9.71a3.63 3.63 0 00-3.65 3.65 3.7 3.7 0 001.94 3.31zm6.67 1.36a2.06 2.06 0 01.52 1.51c0 2.34-2.41 2.55-3.24 2.55h-4.5a3.32 3.32 0 01-1-.15v2.57h.76v-1.79h4.73c.86 0 3.8-.22 3.8-2.91a2.05 2.05 0 00-1.09-1.78zm-10.6-8.77a4.9 4.9 0 001.42-2.66h.85l.51-.65h-2.15a2.85 2.85 0 01-1 2.58l-.66.73zm-23.41 15.2a1.53 1.53 0 001-1.19V62.9a2.22 2.22 0 000-.44H80a2.68 2.68 0 01.12-.64h-4.74a2 2 0 01.23 1.08v12.48a2.62 2.62 0 01-.23 1.19zm12.24-12.19a3.23 3.23 0 00.89-1.92h4l.59-.64h-5.32a2.63 2.63 0 01-.71 2.1l-4.74 5.25 4.48 5.37a2.61 2.61 0 01.59 2.08h.73a3.17 3.17 0 00-.76-2.53l-4.08-4.9z" class="cls-10"/><path stroke-width=".07" d="M116.32 76.11a1.51 1.51 0 111.51 1.51 1.51 1.51 0 01-1.51-1.51zm2.73 0a1.23 1.23 0 00-2.45 0 1.23 1.23 0 102.45 0zm-.47.83h-.38l-.36-.69h-.31v.69h-.32v-1.63h.79a.83.83 0 01.44.08.45.45 0 01.19.42c0 .3-.15.42-.44.44zM118 76c.18 0 .31 0 .31-.25s-.23-.21-.39-.21h-.39V76z"/><path fill-rule="evenodd" stroke-width="1.57" d="M63.77 4C62 4 59.48 2.35 59.48 2.35h-8.25l-3.06 5.79a20.6 20.6 0 013.23 10.67c0 5-1.28 7.75-4 11.9 4.83 9.14 9.28 7.44 16.34 11.8 7.06-4.36 11.51-2.66 16.34-11.8-2.69-4.15-4-6.93-4-11.9a20.51 20.51 0 013.3-10.67l-3.07-5.79h-8.25S65.56 4 63.77 4z"/><path fill-rule="evenodd" stroke-width="2.25" d="M63.77 4C62 4 59.48 2.35 59.48 2.35h-8.25l-3.06 5.79a20.6 20.6 0 013.23 10.67c0 5-1.28 7.75-4 11.9 4.83 9.14 9.28 7.44 16.34 11.8 7.06-4.36 11.51-2.66 16.34-11.8-2.69-4.15-4-6.93-4-11.9a20.51 20.51 0 013.3-10.67l-3.07-5.79h-8.25S65.56 4 63.77 4z"/><path d="M63.77 4C62 4 59.48 2.35 59.48 2.35h-8.25l-3.06 5.79a20.6 20.6 0 013.23 10.67c0 5-1.28 7.75-4 11.9 4.83 9.14 9.28 7.44 16.34 11.8 7.06-4.36 11.51-2.66 16.34-11.8-2.69-4.15-4-6.93-4-11.9a20.51 20.51 0 013.3-10.67l-3.07-5.79h-8.25S65.56 4 63.77 4z" class="cls-8"/><path d="M63.77 40.69c6.14-3.47 10.38-2.67 14.52-9.92-4.76-7.55-5-14.85-.7-22.65l-2.23-4.21h-7.3s-2.5 1.63-4.29 1.64-4.29-1.64-4.29-1.64h-7.3L50 8.12c4.3 7.8 4.06 15.1-.7 22.65 4.09 7.23 8.33 6.45 14.47 9.92z" class="cls-6"/><path d="M65 28.72a.92.92 0 00-.2-1.31.82.82 0 00.81-.44.86.86 0 00-.28-1.11l8.46-15-2.27-1.22-.68 1.2-1.17-.65-1.21 2.14-.89-.5.63-1.1-2.64-1.49-.62 1.1-.83-.47 1.21-2.14-1.8-1L58.28 16l1.79 1 1.22-2.14.83.47-.63 1.1 2.64 1.49.62-1.1.88.5-1.21 2.14 1.17.66-2.54 4.48a.87.87 0 00-1.1.34.83.83 0 000 .92.92.92 0 00-1.24.5c-2.14-.71-4.72-.62-6.35 2.27-1.29 2.27-.15 5.92 3.36 7.91s7.22 1.08 8.51-1.2c1.68-2.88.43-5.14-1.23-6.62zm.22-13.82l-.46-.26-.92 1.63-.71-.4.87-1.63-.45-.24 1-1.72.46.26.92-1.63.71.4-.92 1.63.45.26zm-1 18.62c-.74 1.3-2.58 2.47-5.21 1s-2.56-3.66-1.82-5a1.68 1.68 0 012.28-.94.81.81 0 01.36 1.17.9.9 0 01-1.27.37 1.42 1.42 0 00.75 1.51 1.51 1.51 0 001.2.23 1.45 1.45 0 00.8.9 1.42 1.42 0 001.68-.13.92.92 0 01-.33-1.29.8.8 0 011.18-.28 1.68 1.68 0 01.28 2.46z" class="cls-5"/><path d="M59.91 16.15l-.29-.15 4.59-8.12.29.12zm5.71 3.23l.29.16 4.6-8.11-.3-.17zM63.72 25l1.1.62L73 11.06l-.42-.23-7.4 13.09c-.67 1.23-1.26 1.08-1.46 1.08zm-.94 1.12l.69.38.69.4a.66.66 0 00.85-.15 5.93 5.93 0 01-1.33-.61 6.68 6.68 0 01-1.22-.83.67.67 0 00.32.77zm-1.45.64a8.66 8.66 0 011.57.75 8.26 8.26 0 011.45 1 .68.68 0 00-.32-.81l-.92-.52-.93-.53a.68.68 0 00-.85.07zm.25 3.88a1.12 1.12 0 000 1.18 1.48 1.48 0 01.21-.87 1.16 1.16 0 011.45-.52c-.46-.34-1.24-.52-1.66.17zm-5.13-1.45a2.28 2.28 0 012.74-1.22 2.23 2.23 0 00-3.07.88A2.79 2.79 0 0056 31.1a3.25 3.25 0 01.45-1.95zm9.07 5.09a5.54 5.54 0 01-5.42 2.49 4.85 4.85 0 005.68-2.06 3.53 3.53 0 00.15-3.53 4.52 4.52 0 01-.41 3.06z" class="cls-10"/></g></g></g></svg>
