<svg xmlns:xlink="http://www.w3.org/1999/xlink" viewBox="0 0 162.08 169.31" fill="currentColor"><defs><linearGradient id="New_Gradient_Swatch_4" x1="23.15" x2="134.89" y1="102.35" y2="102.35" gradientUnits="userSpaceOnUse"><stop offset="0" stop-color="#989898"/><stop offset=".2" stop-color="#d6d6d6"/><stop offset=".33" stop-color="#fff"/><stop offset=".42" stop-color="#989898"/><stop offset=".57" stop-color="#d6d6d6"/><stop offset=".69" stop-color="#fff"/><stop offset=".88" stop-color="#989898"/><stop offset=".97" stop-color="#fff"/></linearGradient><linearGradient id="New_Gradient_Swatch_4-2" x1="15.25" x2="142.79" y1="101.32" y2="101.32" xlink:href="#New_Gradient_Swatch_4"/><clipPath id="clip-path"><path d="M132.4 82a57.17 57.17 0 00-42.67-45.3 49.56 49.56 0 00-21.41 0A57.14 57.14 0 0025.65 82v40.78a57.14 57.14 0 0042.67 45.32 49.15 49.15 0 0021.41 0 57.17 57.17 0 0042.67-45.32z"/></clipPath><filter id="luminosity-noclip" width="79.87" height="105.11" x="39.09" y="48.99" color-interpolation-filters="sRGB" filterUnits="userSpaceOnUse"><feFlood flood-color="#fff" result="bg"/><feBlend in="SourceGraphic" in2="bg"/></filter><style>.cls-2{fill:#231f20;opacity:0}.cls-5{fill:#d0cfcd}.cls-6,.cls-9{fill:#fff}.cls-7{fill:#ce0e2d}.cls-9{fill-rule:evenodd}.cls-11{fill:#221e1f}</style><mask id="mask" width="79.87" height="105.11" x="39.09" y="48.99" maskUnits="userSpaceOnUse"><g filter="url(#luminosity-noclip)"><path d="M99.09 58.85l1.93-3.58-2.51-1.39-1.92 3.58 2.5 1.39zM58.95 58.85l-1.93-3.58 2.51-1.39 1.93 3.58-2.51 1.39z"/></g></mask></defs><g id="Layer_2" data-name="Layer 2"><g id="Layer_1-2" data-name="Layer 1"><g id="Label"><path d="M162.08 124.86l-3.5-12.14V89.36l3.5 11.71v23.79zM3.5 124.86L0 112.72V89.36l3.5 11.71v23.79zM84.08 35.5l-3.5-12.14V0l3.5 11.71V35.5z" class="cls-2"/><g clip-path="url(#clip-path)"><g mask="url(#mask)"><path d="M79 154.1c-9.93 0-19.51-5-27-14-8.36-10.14-13-23.82-13-38.54s4.6-28.39 13-38.53c7.46-9 17-14 27-14s19.51 5 27 14c8.36 10.14 13 23.82 13 38.53s-4.6 28.4-13 38.54c-7.47 9.02-17 14-27 14z" class="cls-5"/></g><path d="M79 39.3c-28.67 0-52 28.28-52 63.05s23.33 63 52 63 52-28.28 52-63S107.69 39.3 79 39.3zm26.3 99.16c-7.24 8.64-16.58 13.4-26.3 13.4s-19-4.76-26.28-13.4c-8-9.52-12.37-22.35-12.37-36.11s4.4-26.6 12.37-36.12C60 57.59 69.3 52.83 79 52.83s19.06 4.76 26.3 13.4c8 9.53 12.37 22.35 12.37 36.12s-4.37 26.59-12.35 36.11z" class="cls-6"/><path d="M79 35.39c-30.46 0-55.23 30-55.23 67s24.77 67 55.23 67 55.23-30 55.23-67-24.76-67-55.23-67zm26.3 103.07c-7.24 8.64-16.58 13.4-26.3 13.4s-19-4.76-26.28-13.4c-8-9.52-12.37-22.35-12.37-36.11s4.4-26.6 12.37-36.12C60 57.59 69.3 52.83 79 52.83s19.06 4.76 26.3 13.4c8 9.53 12.37 22.35 12.37 36.12s-4.37 26.59-12.35 36.11z" class="cls-7"/><path d="M97.33 61.46c-2.55-3.94-3.61-6.28-3.59-10.62a18.2 18.2 0 012.92-9.5l.65-1.13L93 32H82.62l-.62.4a8.59 8.59 0 01-3 1.26 8.59 8.59 0 01-3-1.26l-.57-.4H65.07l-4.34 8.19.65 1.13a18.11 18.11 0 012.92 9.5c0 4.34-1 6.68-3.59 10.62L60 62.61l.64 1.22c3.69 7 7.47 8.46 11.48 10a33.35 33.35 0 015.7 2.69l1.23.76 1.23-.76A33.35 33.35 0 0186 73.84c4-1.55 7.79-3 11.48-10l.65-1.22z" class="cls-5"/><path d="M79 35.64c-30.81 0-55.87 29.93-55.87 66.71s25.06 66.7 55.87 66.7 55.87-29.92 55.87-66.7S109.82 35.64 79 35.64zm0 131.56c-29.66 0-53.78-29.09-53.78-64.85S49.36 37.49 79 37.49s53.79 29.1 53.79 64.86S108.68 167.2 79 167.2z"/><path d="M54.88 123.93v-3.69H58c.55 0 .83.24.83.72v.45c0 .36-.21.57-.64.62a.66.66 0 01.67.71v.47c0 .48-.36.72-1.09.72zm2.8-3.09h-2v.88h2c.26 0 .4-.09.4-.26v-.35c0-.18-.14-.27-.4-.27zm0 1.49h-2v.94h2a.67.67 0 00.3 0 .3.3 0 00.12-.28v-.28a.3.3 0 00-.12-.28.67.67 0 00-.3-.1zM60.9 123.93v-3.69h.86v3.69zM63.88 123.93v-3.69h3.78v.63h-2.92v.82h1.7v.63h-1.7v.92h3v.69zM69.66 123.93v-3.69h3.16c.55 0 .82.24.82.72v.86c0 .48-.27.72-.82.72h-.49l1.7 1.39H72.8l-1.49-1.39h-.81v1.39zm2.77-3.06H70.5v1h1.93a.6.6 0 00.28 0 .26.26 0 00.11-.25v-.44a.29.29 0 00-.11-.26.83.83 0 00-.28-.05zM77.62 121.91a.61.61 0 01.17-.42.58.58 0 01.43-.18.62.62 0 01.6.6.58.58 0 01-.18.43.58.58 0 01-.42.18.58.58 0 01-.43-.18.57.57 0 01-.17-.43zM82.81 123.93v-3.69H86c.56 0 .83.24.83.72v.45c0 .36-.21.57-.63.62a.66.66 0 01.66.71v.47c0 .48-.36.72-1.09.72zm2.81-3.09h-2v.88h2c.26 0 .39-.09.39-.26v-.35q-.01-.27-.39-.27zm0 1.49h-2v.94h2a.71.71 0 00.3 0 .32.32 0 00.11-.28v-.28a.32.32 0 00-.11-.28.71.71 0 00-.3-.1zM88.83 123.93v-3.69h3.78v.63h-2.92v.82h1.7v.63h-1.7v.92h3v.69zM94.6 123.93v-3.69h3.78v.63h-2.92v.82h1.7v.63h-1.7v.92h3v.69zM100.37 123.93v-3.69h3.16c.56 0 .83.24.83.72v.86c0 .48-.27.72-.83.72h-.48l1.7 1.39h-1.23l-1.52-1.39h-.81v1.39zm2.78-3.06h-1.93v1h1.93a.63.63 0 00.28 0c.07 0 .1-.12.1-.25v-.44a.29.29 0 00-.1-.26.88.88 0 00-.28-.05zM56.23 81.35l-.42-.6H55v.6h-.41v-1.69H56a.56.56 0 01.63.55.48.48 0 01-.38.51l.43.63zm0-1.15c0-.13-.1-.22-.28-.22H55v.45h1c.14 0 .24-.09.24-.23zM57.32 81.35v-1.69h1.83V80h-1.42v.35h1v.32h-1V81h1.49v.32zM61.68 81.12a1.4 1.4 0 01-.88.28 1.33 1.33 0 01-.86-.28.8.8 0 010-1.23 1.37 1.37 0 01.86-.28 1.18 1.18 0 011 .4l-.42.15a.75.75 0 00-.56-.22c-.44 0-.75.24-.75.56a.51.51 0 00.25.43.87.87 0 00.5.14.82.82 0 00.73-.35h-.82v-.33H62v.1a.79.79 0 01-.32.63zM62.64 81.35v-1.69h.41v1.69zM64.73 80c-.35 0-.53.06-.53.17s0 .1.15.13.38 0 .64 0c.53 0 .78.17.78.51s-.34.58-1 .58a1.77 1.77 0 01-1.09-.32l.22-.27a1.73 1.73 0 00.89.26c.34 0 .53-.1.53-.24s-.22-.15-.57-.16c-.66 0-1-.16-1-.5s.33-.54.95-.54a1.73 1.73 0 011 .25l-.23.27a1.52 1.52 0 00-.74-.14zM67.32 80v1.37h-.41V80h-.81v-.32h2V80zM68.67 81.35v-1.69h1.83V80h-1.42v.35h1v.32h-1V81h1.48v.32zM72.8 81.35l-.41-.6h-.78v.6h-.41v-1.69h1.38a.56.56 0 01.64.55.48.48 0 01-.38.51l.43.63zm0-1.15c0-.13-.11-.22-.28-.22h-.93v.45h.93c.2 0 .3-.09.3-.23zM73.89 81.35v-1.69h1.84V80h-1.42v.35h1v.32h-1V81h1.48v.32zM78.59 80.52a.76.76 0 01-.3.62 1.11 1.11 0 01-.67.21h-1.19v-1.69h1.13c.63 0 1.03.34 1.03.86zm-.54.29a.48.48 0 00.11-.29.54.54 0 00-.57-.54h-.75v1h.75a.6.6 0 00.46-.17zM81.23 80v1.37h-.41V80H80v-.32h2V80zM84.19 81.35l-.42-.6H83v.6h-.41v-1.69H84a.56.56 0 01.63.55.48.48 0 01-.38.51l.43.63zm0-1.15c0-.13-.11-.22-.28-.22H83v.45h.93c.17 0 .27-.09.27-.23zM86.85 81.35l-.19-.35h-1.08l-.2.36H85l.9-1.69h.5l.9 1.69zM86.12 80l-.37.69h.74zM89.92 80.52a.76.76 0 01-.3.62 1.11 1.11 0 01-.67.21h-1.19v-1.69h1.13c.63 0 1.03.34 1.03.86zm-.54.29a.48.48 0 00.11-.29.54.54 0 00-.57-.54h-.75v1h.75a.6.6 0 00.46-.17zM90.61 81.35v-1.69h1.83V80H91v.35h1v.32h-1V81h1.49v.32zM95.18 81.35v-1.2l-.81 1-.81-1v1.2h-.41v-1.69h.48l.74.9.74-.9h.48v1.69zM98 81.35l-.22-.35h-1.09l-.19.36h-.42l.9-1.69h.51l.9 1.69zM97.23 80l-.37.69h.74zM100.48 81.35l-.42-.6h-.77v.6h-.41v-1.69h1.38a.56.56 0 01.64.55.48.48 0 01-.39.51l.43.63zm0-1.15c0-.13-.1-.22-.28-.22h-.92v.45h.93c.18 0 .28-.09.28-.23zM103.21 81.35l-.8-.81-.43.3v.51h-.41v-1.69h.43v.79l1.12-.79h.56l-.93.66 1 1zM40.14 75.79c.57.24.71.79.37 1.64l-1.07 2.69-3.38-1.35L37.15 76a1 1 0 011.36-.73.82.82 0 01.54.72.89.89 0 011.09-.2zm-1.81.08a.49.49 0 00-.66.34l-.88 2.21.91.36.87-2.18a.54.54 0 00-.24-.73zm1.5.47c-.34-.14-.57 0-.74.41L38.21 79l.94.38.85-2.16c.2-.48.15-.75-.17-.88zM43.07 72l-1.68.26-.83 1.64 1.24.63-.28.53-3.24-1.64 1.29-2.56a1.1 1.1 0 011.58-.58 1 1 0 01.53 1.33l1.71-.23zm-2.2-1.17c-.36-.18-.64 0-.87.4l-1 1.9 1 .52 1-1.94c.26-.41.19-.71-.13-.88zM45.71 67.59l-.91-.07-1.3 2.08.47.79-.35.56-2.07-3.56.4-.64 4.11.29zm-3.52-.25l1 1.72 1-1.57zM47.79 64.92c-.77 1-1.69 1.31-2.27.86l-2-1.5.36-.48 1.85 1.41c.44.34 1 .13 1.58-.63s.63-1.35.19-1.69l-1.85-1.41.37-.47 2 1.49c.59.5.55 1.41-.23 2.42zM49.76 62.27l-2.66-2.49 2.51-2.68.4.37-2.1 2.24.68.64 1.46-1.56.4.37L49 60.72l.78.73L52 59.11l.4.37zM55.63 56.59l-1.63-.4-1.42 1.21.91 1-.45.4-2.39-2.75 2.17-1.88a1.1 1.1 0 011.68.06 1 1 0 010 1.43l1.67.43zM54 54.67c-.26-.3-.58-.29-1 0l-1.6 1.39.75.87 1.65-1.43c.41-.24.47-.56.2-.83zM56.87 55.61l-2.06-3 3-2.08.31.45-2.53 1.74.53.76 1.75-1.21.32.46-1.76 1.21.61.87L59.7 53l.31.45zM61 52.91l-1.8-3.16.53-.29 1.8 3.16zM101.34 54.51c-.35.53-.92.55-1.68.05L97.23 53l2-3.05 2.46 1.62a1 1 0 01.45 1.48.83.83 0 01-.82.39.89.89 0 01.02 1.07zm-.47-.41c.19-.3.11-.56-.27-.8l-2-1.3-.57.85L100 54.1c.39.28.68.29.87 0zm.76-1.38a.49.49 0 00-.21-.71l-2-1.31-.53.82 2 1.29a.54.54 0 00.74-.09zM101.32 55.73l2.32-2.81 2.83 2.34-.35.42-2.36-2-.6.71 1.65 1.36-.35.42-1.65-1.35-.68.82 2.48 2-.35.42zM109 59.14a1.94 1.94 0 00-.68-1.51 1.49 1.49 0 00-2.17-.23c-.58.58-.51 1.44.25 2.2a1.93 1.93 0 001.5.65l.16.57A2.47 2.47 0 01106 60a2.69 2.69 0 01-.8-1.48 1.75 1.75 0 01.51-1.54 1.72 1.72 0 011.54-.49 2.66 2.66 0 011.47.78 2.52 2.52 0 01.82 2.15zM110.18 64.6l.36-2.57-1.32-.33-.85.7-.38-.46 2.8-2.31.39.46-1.46 1.2 3.07.77.56.67-2.25-.56-.43 3zM113.58 69a2.59 2.59 0 01-1.12-1c-.48-.75-.38-1.5.13-1.83s1-.12 1.61.48a1.14 1.14 0 01.41-.48.94.94 0 01.57-.13 1.11 1.11 0 01.84.52.91.91 0 01-.25 1.32 1.1 1.1 0 01-1.35-.26 5.38 5.38 0 00-.24 1 1.83 1.83 0 001 0l.33.52a2.88 2.88 0 01-1.37 0 2 2 0 00.3.82l-.47.3a3.27 3.27 0 01-.39-1.26zm.41-1.8c-.45-.51-.81-.67-1.09-.49s-.28.58 0 1.07a2.33 2.33 0 00.72.66 7.87 7.87 0 01.38-1.29zm1.48.19a.4.4 0 00.1-.56.44.44 0 00-.64-.15 1 1 0 00-.32.43c.3.31.59.4.86.23zM119.21 74.7a2 2 0 00-.14-1.65 1.51 1.51 0 00-2-.94c-.74.36-1 1.2-.48 2.17a1.9 1.9 0 001.2 1.11v.59a2.51 2.51 0 01-1.68-1.49 2.72 2.72 0 01-.26-1.66 1.79 1.79 0 012.61-1.24 2.65 2.65 0 011.13 1.22 2.53 2.53 0 01.06 2.3zM119 80.27a2.74 2.74 0 01-1-1.27 2.68 2.68 0 01-.12-1.68 1.75 1.75 0 011.12-1.26 1.79 1.79 0 011.61.18 2.85 2.85 0 011.14 3 1.78 1.78 0 01-2.7 1zm2.2-1.27a2 2 0 00-.1-1.21 1.51 1.51 0 00-1.9-1.11 1.49 1.49 0 00-.67 2.1c.37 1 1.14 1.39 1.9 1.1a1.25 1.25 0 00.77-.88zM36.79 126.81a2.72 2.72 0 01-1-1.35 2.64 2.64 0 01-.07-1.68 1.7 1.7 0 011.11-1.17 1.73 1.73 0 011.61.22 2.69 2.69 0 011 1.34 2.76 2.76 0 01.07 1.67A1.74 1.74 0 0138.4 127a1.73 1.73 0 01-1.61-.19zm2.2-1.24a2 2 0 00-.06-1.21 1.52 1.52 0 00-1.88-1.16c-.77.27-1.07 1.09-.72 2.08s1.1 1.42 1.86 1.15a1.24 1.24 0 00.81-.86zM38.49 131.72l.86-1.47-.75-1.68-1.27.57-.25-.55 3.33-1.49 1.17 2.62a1.1 1.1 0 01-.54 1.59 1 1 0 01-1.37-.42l-.9 1.47zm2.3-1c.36-.17.44-.47.23-.94l-.87-1.94-1 .48.89 2c.13.43.42.57.75.43zM39.27 133.25l3.23-1.68.28.54-3.24 1.68zM41.14 136.85a2.69 2.69 0 01-.4-1.63 1.71 1.71 0 01.86-1.37 1.74 1.74 0 011.62-.11 2.69 2.69 0 011.27 1.16 2.48 2.48 0 01.26 2.15l-.53-.34a1.94 1.94 0 00-.23-1.57 2.05 2.05 0 00-.9-.82 1.24 1.24 0 00-1.17.07 1.49 1.49 0 00-.3 2.17 1.55 1.55 0 001.62.87l-.88-1.43.47-.28 1.27 2.1h-.05a2.06 2.06 0 01-2.91-.97zM43.07 139.67l3-2.07.34.5-3 2.06zM46.19 143.84l.62-4-2.35 1.85-.37-.48 2.91-2.29.47.59-.63 4 2.35-1.85.37.48-2.86 2.25zM49.82 147.8l.3-.87-1.7-1.77-.88.26-.45-.48 4-1.12.52.54-1.29 3.91zm1.12-3.35L49 145l1.29 1.34zM53.8 147.25l-2.06 2.31-.45-.41 2.06-2.3-1.3-1.17.37-.4 3 2.72-.37.41zM53.51 151.1l2.18-2.93 3 2.19-.33.44-2.51-1.8-.56.75L57 151l-.32.44-1.68-1.28-.64.86 2.58 1.91-.32.45zM62 154.5a1.66 1.66 0 01-1.16.82 2.06 2.06 0 01-1.42-.26l-2.09-1.22 1.83-3.15 2 1.16a1.84 1.84 0 01.84 2.65zm-.56-.35a1.25 1.25 0 00-.52-1.8l-1.51-.88-1.29 2.2 1.62.94a1.2 1.2 0 001.65-.46zM63.46 157.12l1.43-3.35.56.24-1.45 3.34zM68.3 158.89l-1.72-3.7-.93 2.81-.57-.18 1.13-3.46.71.23 1.72 3.7.92-2.84.57.19-1.13 3.48zM76 159.39c-.09.61-.6.88-1.5.75l-2.87-.4.51-3.61 2.91.41c.74.11 1.12.56 1 1.15a.81.81 0 01-.57.7.89.89 0 01.52 1zm-.6-.17c0-.36-.14-.56-.58-.62l-2.37-.33-.15 1 2.28.32c.52.08.78-.03.83-.37zm.1-1.57c0-.29-.15-.51-.49-.56l-2.35-.33-.14 1 2.33.33a.54.54 0 00.66-.44zM80.29 160.43l-1-1.41h-1.84v1.39h-.61l.08-3.65 2.88.06A1.11 1.11 0 0181 158a1 1 0 01-1 1l.95 1.44zm.1-2.5c0-.4-.23-.6-.74-.61h-2.13v1.16h2.18c.43.01.68-.19.69-.55zM81.72 160.34l-.42-3.61 3.64-.42.07.54-3.01.35.11.93 2.11-.25.07.54-2.12.25.13 1.06 3.18-.37.06.54zM90.54 158.68l-.75-2.89-1.23 2.77-2.41-1.82.75 2.88-.58.15-.92-3.52.73-.19 2.24 1.69 1.15-2.57.72-.19.92 3.52zM92.12 158.13l-1.38-3.37 3.4-1.39.21.51-2.84 1.12.35.86 2-.81.2.51-2 .81.41 1 3-1.22.21.51zM99.34 154.69l-3.88-1.26 1.45 2.57-.53.29-1.77-3.18.66-.36 3.88 1.26-1.45-2.61.53-.3 1.76 3.19zM101.18 154.33l-.09.06-.17-.25c.21-.14.28-.27.2-.38l-.1-.15-.34.23-.3-.46.62-.38.38.57c.23.26.15.53-.2.76zM105.33 150.54a2.71 2.71 0 01-1.54.65A1.78 1.78 0 01102 149a2.66 2.66 0 01.94-1.43A2.49 2.49 0 01105 147l-.25.58a1.88 1.88 0 00-1.51.47 2 2 0 00-.67 1 1.21 1.21 0 00.24 1.14 1.49 1.49 0 002.2 0 1.54 1.54 0 00.6-1.73l-1.3 1.09-.35-.42 1.88-1.57a2.06 2.06 0 01-.51 2.98zM107.76 148.26l-2.61-2.54 2.56-2.63.39.38-2.14 2.2.67.65 1.49-1.53.39.38-1.51 1.53.77.74 2.23-2.29.4.38zM113.17 142.19l-1.7-.11-1.16 1.43 1.08.88-.38.46-2.83-2.29 1.81-2.23a1.1 1.1 0 011.67-.23 1 1 0 01.24 1.41l1.72.14zm-1.9-1.61c-.31-.26-.62-.19-.94.2l-1.33 1.65.9.73 1.37-1.69c.28-.35.28-.67 0-.89zM116.56 137.26l-2.48-1.64.94 2.88-3 .27 2.48 1.63-.33.51-3-2 .41-.63 2.8-.25-.87-2.67.41-.63 3 2zM119.07 132.71h-.92l-1.15 2.16.52.75-.31.58-2.31-3.41.36-.67h4.12zm-3.53 0l1.11 1.65.87-1.64zM121 128.42l-3.84 1.36 2.74 1.22-.24.55-3.33-1.44.29-.69 3.85-1.36-2.74-1.19.24-.55 3.34 1.45zM121 124.27l1.36.47-.2.57-1.36-.47-2.72 1.16.25-.7 2.11-.91-1.1-2 .24-.71zM54.32 131.19l.44.63c.16.24.34.63-.07.91a.48.48 0 01-.66-.07.51.51 0 01-.13.71.66.66 0 01-1-.27l-.44-.63zM53 132.63l.12.17c.11.17.3.34.51.2s.14-.39 0-.57l-.12-.17zm.8-.56l.1.15c.11.15.28.32.46.18s.1-.34 0-.51l-.1-.14zM55.6 133l.29.37c.29.38.65.81.16 1.2a.52.52 0 01-.69 0c.07.1 0 .23 0 .33l-.47.81-.3-.39.39-.63a.29.29 0 000-.39l-.09-.11-.73.57-.27-.35zm-.49.93l.09.12c.13.17.31.35.53.18s.08-.38 0-.55l-.09-.12zM57 134.75l.85 1-.27.23-.56-.65-.42.36.51.6-.26.23-.52-.6-.47.41.56.66-.26.23-.86-1zM58.31 136.28l.49.5-.8 1.56 1.57-.82.5.5-1.59 1.57-.3-.3 1.28-1.29-1.73.87-.29-.3.89-1.71-1.33 1.29-.3-.3zM60.62 138.55l1 .85-.23.27-.65-.57-.36.42.62.48-.23.26-.59-.52-.41.48.65.57-.23.26-1-.86zM62.12 139.84l.43.33-.35 1.83 1-1.33.34.26-1.36 1.78-.42-.33.34-1.85-1 1.33-.33-.26zM65.72 142.35l.33.2-1.15 1.92-.38-.23.89-1.48-.47.07v-.36zM66.67 144.12a.57.57 0 01-.09-.63c.18-.36.53-.39.89-.21s.58.48.41.81a.58.58 0 01-.57.31.61.61 0 01.11.71.65.65 0 01-1 .24c-.38-.2-.6-.52-.39-.93a.6.6 0 01.61-.31zm-.07.94a.3.3 0 00.42-.12.44.44 0 00-.15-.51.4.4 0 00-.42.2.33.33 0 00.15.43zm.5-.91a.41.41 0 00.37-.18.25.25 0 00-.11-.37.28.28 0 00-.41.09c-.09.17.05.31.15.46zM68.62 143.89l1.31.56-.14.34-1.45 1.4-.45-.18 1.5-1.41-.91-.39zM69.92 146l1.23-1.08.52.18-.46 1.36.27.09-.11.32-.26-.09-.15.44-.4-.14.15-.44-.9-.3zm.89.33l.31-.92-.83.74zM73.3 146.86a.24.24 0 01.29-.19.23.23 0 01.18.29.24.24 0 01-.29.19.23.23 0 01-.18-.29zM75.91 146h.55c.48.05.9.24.85.77s-.45.67-.92.62h-.18l-.09.85h-.44zm.33 1.07h.16c.22 0 .42 0 .45-.29s-.16-.37-.38-.39h-.16zM77.9 146.17h.44v.91h.89v-.9h.44v2.23h-.44v-1h-.89v1h-.44zM80.37 146.15h.44l.15 2.22h-.44zM81.56 146.05L82 146l.24 1.86.85-.1v.35l-1.28.16zM84 145.67l.49-.11 1.32 2-.48.11-.29-.46-.87.19-.08.54-.45.1zm.33.39l-.12 1 .63-.14zM85.77 145.23l.58-.18c.64-.21 1.28-.18 1.55.67s-.22 1.25-.86 1.46l-.58.18zm1 1.66l.23-.08a.72.72 0 00.45-.95.72.72 0 00-.92-.5l-.24.07zM88.14 144.43l1.2-.5.14.32-.79.33.21.51.72-.3.14.32-.73.3.25.58.8-.33.13.32-1.2.51zM90 143.61l.4-.19.85 1.67.76-.38.16.31-1.16.59zM91.59 142.78l.48-.29c.41-.24.86-.34 1.14.12s0 .8-.37 1l-.16.1.43.73-.38.22zm.91.66l.13-.07c.19-.12.32-.28.19-.5s-.34-.21-.54-.09l-.13.08zM93.32 141.74l.37-.26.51.74.73-.5-.52-.74.36-.25 1.28 1.83-.36.25-.56-.8-.73.5.56.81-.36.25zM95.37 140.26l.34-.27 1.39 1.75-.35.28zM96.79 139.08l.37-.33 2.13 1.11-.36.33-.48-.26-.67.59.22.48-.34.31zm.48.18l.37.9.48-.43zM99.51 136.48l.27-.29 1.63 1.54-.31.32-1.25-1.19v.49h-.36zM101.43 135.94a.56.56 0 01-.63-.06.59.59 0 010-.91c.26-.3.61-.46.89-.22a.57.57 0 01.17.63.62.62 0 01.72.06c.34.29.28.66 0 1s-.65.47-1 .17a.61.61 0 01-.16-.67zm.13-.42a.39.39 0 00-.08-.4.26.26 0 00-.39 0 .29.29 0 000 .42c.14.15.33.06.47-.02zm.78.7a.29.29 0 000-.43c-.16-.15-.36-.07-.53 0a.4.4 0 00.1.45.32.32 0 00.43-.02zM101.71 133.93l.86-1.12.3.23 1 1.75-.29.38-1-1.79-.59.77zM104 131.47a1 1 0 00-.3.27c-.22.31 0 .62.27.82a.47.47 0 01.06-.48.61.61 0 01.92-.14.7.7 0 01.25 1.06c-.35.51-.85.32-1.28 0s-.94-.88-.53-1.47a1.29 1.29 0 01.33-.33zm.43 1.37c.18.12.38.15.5 0s0-.35-.16-.46-.39-.17-.52 0 .02.33.2.46zM84.1 125.53a9.23 9.23 0 00-5.1 1.52 9.21 9.21 0 00-5.08-1.52 8.59 8.59 0 100 17.16 9.2 9.2 0 005.08-1.51 9.23 9.23 0 005.08 1.51 8.59 8.59 0 100-17.16zm0 16.85a8.84 8.84 0 01-5.08-1.6 8.83 8.83 0 01-5.08 1.59 8.27 8.27 0 110-16.52 8.9 8.9 0 015.06 1.59 8.9 8.9 0 015.08-1.59 8.27 8.27 0 110 16.53z" class="cls-6"/><path d="M84.1 126.24a8.35 8.35 0 00-5.06 1.7 8.43 8.43 0 00-5.1-1.7 7.88 7.88 0 100 15.75 8.52 8.52 0 005.1-1.71A8.28 8.28 0 0084.1 142a7.88 7.88 0 100-15.75zm-10.16 15.08a7.21 7.21 0 110-14.41 7.77 7.77 0 014.58 1.47 7.63 7.63 0 000 11.47 7.77 7.77 0 01-4.58 1.47zm10.16 0a7.21 7.21 0 117.58-7.21 7.41 7.41 0 01-7.58 7.21z" class="cls-6"/><path d="M72.8 137.89a3.06 3.06 0 01-.06.66 3.56 3.56 0 01-.23.85h.91a4.75 4.75 0 013-1.42 6.58 6.58 0 01-1-3.57 2.91 2.91 0 01-.33 0l-.12.13a2.29 2.29 0 01-.63.42c-.14.07-.09.21-.12.35a3.91 3.91 0 000 .49c0 .34-.46.42-.39.7a1.15 1.15 0 01-.68 1.24zm-.21-5.67a4 4 0 00.66.16 3 3 0 00.9 0s-.12-.35.32-.27c0-.07-.25-.24-.46-.36a4.83 4.83 0 001.14.33c0-.32-.49-.32-.75-.43-.42-.19.86-.29.9 0 .1-.24-.56-.4-.92-.65-.55-.39-.55-.74-.3-1.16a.83.83 0 00.44 1 4.57 4.57 0 011 .49c0-.21-.25-.46-.52-.65a.75.75 0 01-.32-.92c.13.34 0 .56.47.8s.38.4.68.59c.1-.21-.25-.43-.34-.73a1.42 1.42 0 01-.1-.74c.08.23 0 .43.17.66a1 1 0 00.47.4 1.35 1.35 0 01-.3-.55 1.11 1.11 0 010-.57 1.21 1.21 0 00.15.44 1.46 1.46 0 00.32.42 1.06 1.06 0 01-.19-.47 1 1 0 010-.49.86.86 0 00.08.45c.07.17.12.37.27.4a1 1 0 01-.17-.43 1 1 0 010-.34c.15.11.24.16.4.26s.19-.18.19-.18a2 2 0 00-1-.52c-.59-.14-.88-.52-1.46-.56a12 12 0 00-1.84.07c-.36 0-.54.31-.68.59s0 .28-.08.45-.27.3-.33.56a6.59 6.59 0 00-.28 1.22 3.51 3.51 0 01.72.21c.4.3.58.46.76.52zm4.58 6.33a4.21 4.21 0 00-2 .09 10.19 10.19 0 00-1.78.93h-1.14a4.06 4.06 0 00.31-.95 3.62 3.62 0 00.08-.63c-.18.12-.32.24-.54.37a1.64 1.64 0 01-1.18 0c-.24 0-.42 0-.58-.18s-.1-.29-.17-.48a2.19 2.19 0 01-.17-.49c-.06-.39.24-.65.22-1a8.19 8.19 0 010-1.21c0-.24-.23-.37-.16-.6s0-.29.24-.33a.46.46 0 00-.1.31v.22c0 .04.1-.18.2-.17s0 .2.14.25h.1c.34.08.37.45.71.51s.47-.2.71-.13.27.5.56.7a1.65 1.65 0 00.38.24.82.82 0 01-.27 0c-.36 0-.34-.49-.68-.61s-.47 0-.76 0-.34-.19-.56-.14a.47.47 0 00-.37.28c-.12.26 0 .49 0 .79s-.24.66-.24.94.11.22.17.37 0 .36.17.49a.72.72 0 00.64.1.23.23 0 00.05-.24.8.8 0 00.71-.49.75.75 0 00.1-.92.3.3 0 01.24.07c.15.11-.12.48.07.47s.2-.16.22-.31-.19-.29-.24-.41.2-.22.37-.23.34.59.44.56.14-.44.31-.54.26.07.36 0c.32-.35 0-.21 0-.33s.26-.22.16-.32-.13 0-.18-.07.21-.17.17-.29-.09-.07-.11-.13.17-.23.16-.28-.29-.17-.27-.33a.31.31 0 01.42-.24.45.45 0 00.3.49c.3.1.44-.24.63-.48s.31-.31.32-.6c0-.13.14-.61 0-.62s-.19 0-.23.05.09.47 0 .73-.44.62-.61.56a1.18 1.18 0 00.22-.28 1.09 1.09 0 00.1-.25c-.1 0-.4.16-.35 0s.07-.43.15-.51.32.05.35-.08-.11-.23-.25-.25-.41 0-.51 0 .27.3.15.44-.17 0-.23.1.13.21.07.32a.25.25 0 01-.17.13c-.17-.08-.29-.15-.29-.31s0-.13.24-.31c-.16-.08-.29-.19-.06-.29-.1-.15.12-.34.12-.34-.15-.17-.48-.1-.77-.2s-.5-.08-.63-.18a.83.83 0 01-.54.21.58.58 0 01-.37-.11.24.24 0 01-.23.31c-.23 0-.17-.18-.18-.31s-.06-.07-.09-.12 0-.29-.11-.39a2.89 2.89 0 00-.63.84c-.2.42-.71.6-.54.83s.18.07.3.11a2.8 2.8 0 00.56.12v-.18c0-.11 0-.17-.07-.28.14.14.34.18.35.37s.14.5.39.51a7.28 7.28 0 011.17.31v.11c-.6-.18-.93-.15-1.45-.27-.36-.08-.14-.51-1-.44a.38.38 0 01-.4-.48c.11-.33.34-.43.54-.71a4.55 4.55 0 00.52-.81s-.14-.21-.06-.32a4.78 4.78 0 00.39-1.16c.16-.46.45-.7.44-1.18 0-.31.62-.72.82-.75s1-.06 1.87-.08c.67 0 1 .49 1.79.59a3 3 0 011.08.65 7.64 7.64 0 00-1.39 4.39 8.41 8.41 0 001.38 4.48zm-4.61-3.26c-.09-.26-.11-.65-.8-.54s-.61-.15-.79-.29c0 .27.1.6.76.45.51-.11.51.23.83.38zM70.55 139.27l-.41.59-.28-.19v-.06l.22.14.13-.19-.21-.13v-.07l.2.13.19-.26zm.11.49s-.06-.09 0-.15a.11.11 0 01.15-.06.1.1 0 010 .15c-.04.06-.11.09-.15.06zm.74-.18l.17.07a.18.18 0 01.11.26.2.2 0 01-.27.11h-.1l-.12.28h-.08zm.06.36s.09.05.14-.06a.1.1 0 000-.15h-.11l-.1.21zm.45.15h.12a.1.1 0 00.14-.07.1.1 0 00-.07-.14h-.12zm0 .08l-.1.31h-.07l.22-.67.19.06c.1 0 .18.1.13.23s-.08.13-.15.13c.05 0 .05.08 0 .16a1.66 1.66 0 000 .22h-.08a.59.59 0 010-.13.5.5 0 000-.16h-.07zm.88-.19c.18 0 .23.2.19.41s-.16.34-.33.31-.22-.21-.19-.41.13-.35.3-.29zm-.12.63c.14 0 .2-.1.22-.24s0-.28-.11-.31-.2.1-.23.24-.06.29.09.31zm.65.17h.08v-.62h.19v-.08h-.46v.08h.2zm.86 0v-.08h-.29v-.24h.27v-.08h-.27v-.22h.28v-.08h-.36v.7zm.66-.58a.19.19 0 00-.22-.17c-.19 0-.23.22-.21.39s.1.36.27.34a.22.22 0 00.2-.22h-.09a.12.12 0 01-.11.13c-.12 0-.17-.12-.19-.27s0-.28.14-.3a.14.14 0 01.13.1zm.43.46h.08l-.12-.61h.19v-.08l-.45.08v.08h.19zm.52-.86c.17 0 .3.08.36.28s0 .37-.14.42-.3-.08-.36-.28-.06-.35.11-.4zm.2.62c.13 0 .12-.18.08-.32s-.12-.26-.25-.22-.13.18-.09.32.09.28.27.24zm.44-.51l.12-.05c.08 0 .08-.09 0-.14a.1.1 0 00-.14-.06h-.12zm0 .08l.13.29h-.07l-.29-.65.19-.07c.09 0 .2-.05.25.08a.15.15 0 010 .2c.07 0 .1 0 .14.1a2 2 0 00.12.19h-.08l-.07-.11a.38.38 0 00-.09-.14.09.09 0 00-.09 0zm.9-.46c0-.05-.1-.08-.14-.05s-.06.09 0 .15a.13.13 0 00.15.06.11.11 0 00-.01-.14zm-7.56-.32l-.1-.08a.1.1 0 00-.15 0s-.06.09 0 .15l.1.08zm.06-.06l.21-.25.06.05-.47.54-.16-.12a.17.17 0 010-.26.17.17 0 01.2-.06v-.17a1.74 1.74 0 00.11-.18l.07.05a.67.67 0 00-.07.11.29.29 0 00-.08.14v.08zm-.26-.64l-.5.52h.06l.5-.52zm-.41-.41l-.06.06.19.2-.17.16-.18-.18-.07.06.19.18-.17.15-.19-.19-.06.06.25.25.52-.49zm-.26-.18l-.07-.09a.16.16 0 00-.16-.06.37.37 0 00-.18.08.47.47 0 00-.13.15.17.17 0 000 .16l.07.09zm-.46.44l-.12-.14a.25.25 0 01-.06-.15.37.37 0 01.18-.28.43.43 0 01.33-.1.28.28 0 01.13.09l.1.22zm-.23-.82l-.07-.11a.11.11 0 10-.19.11l.06.11zm.07-.05l.29-.16v.07l-.63.35-.1-.17a.16.16 0 01.06-.25.16.16 0 01.2 0c0-.06 0-.09.09-.14l.17-.13v.06l-.1.09a.28.28 0 00-.13.1.1.1 0 000 .09zm0-.69l-.65.33v.06l.65-.32zm-.77-.39a.19.19 0 00-.11.26c.06.17.28.15.44.08s.33-.19.27-.34a.21.21 0 00-.27-.12v.07a.12.12 0 01.15.07c0 .11-.07.19-.21.25s-.28.08-.33 0a.11.11 0 01.06-.14zm.41-.45l-.32.09-.08-.25.32-.09v-.07l-.69.2v.08l.3-.09.08.25-.3.09v.07l.7-.21zm-.23-.91V135l-.64-.05.6-.21v-.09l-.75-.06v.08h.61l-.58.2v.1h.61l-.58.2v.07zm-.07-.84h-.73v.08h.73zm0-.57h-.09v.25h-.64v.11h.73zm0-.26l-.32-.05v-.26h.33v-.08L67 133v.08h.32v.26l-.31-.05v.08l.72.11zm.18-.9h-.08l-.07.27-.24-.06.07-.25h-.09l-.06.25h-.22l.07-.27h-.09l-.08.34.7.17zm.2-.48h-.08l-.09.24-.61-.2v.07l.69.23zm.29-.64v-.07l-.66-.31v.12l.47.39-.61-.11-.06.12.66.31v-.06l-.59-.28.67.11v-.06l-.51-.44zm.34-.57l-.31-.21h.47l.06-.09h-.49l-.12-.39-.07.09.13.36-.26-.17-.05.06.6.4zm.05-.75l.08-.09a.09.09 0 000-.15s-.1-.06-.16 0l-.08.09zm.07.06l.25.2v.06l-.56-.45.13-.16a.17.17 0 01.27 0 .16.16 0 01.06.19h.17a1.3 1.3 0 00.19.11v.07L69 130a.29.29 0 00-.14-.08.1.1 0 00-.08 0zm.27-.88c.12-.12.3-.06.45.09s.2.32.07.44-.3.06-.45-.09-.2-.35-.09-.47zm.46.47c.11-.1 0-.22-.07-.33s-.23-.18-.33-.08 0 .22.07.32.23.15.33.06zm.27-1.06l.38.46-.59-.3-.08.07.45.55-.38-.47.61.3.08-.06-.45-.56zm.32-.2l.16-.1a.18.18 0 01.28.06.18.18 0 01-.06.27l-.09.06.17.26h-.06zm.35.15a.1.1 0 000-.15c-.07-.1-.14-.05-.15 0l-.1.06.12.2zm.43-.24l.12-.06a.11.11 0 00-.1-.19l-.12.05zm0 .08l.15.28h-.07l-.33-.63.18-.09a.18.18 0 01.26.08.15.15 0 010 .19c.07 0 .1 0 .15.09a1.09 1.09 0 00.13.17h-.08l-.07-.11a.44.44 0 00-.11-.12.1.1 0 00-.09 0zm.73 0l-.26-.66h-.08l.27.66zm.38-.88l.18.56-.44-.48h-.11l.21.68h.07l-.18-.57.46.48h.09l-.21-.68zm.36-.09v.09l.32-.06-.24.59v.08l.43-.08v-.08l-.34.06.24-.59v-.09zm1.09.47h.11a.15.15 0 00.15-.09.45.45 0 000-.37.16.16 0 00-.15-.08h-.11zm-.1-.62h.19a.2.2 0 01.15 0 .38.38 0 01.14.3.38.38 0 01-.11.31.24.24 0 01-.16 0h-.19zm.77.69v-.12H74v.13zm.6 0h.11a.16.16 0 00.16-.06.36.36 0 00.07-.18.41.41 0 000-.19.16.16 0 00-.13-.1h-.12zm0-.62h.19a.27.27 0 01.14.07.46.46 0 01-.1.61.22.22 0 01-.16 0h-.18zm.89.88v-.08l-.27-.07.05-.23.26.07v-.08l-.25-.07.05-.21.27.06v-.08l-.35-.08-.17.68zm.91-.45h-.07l-.16.42c0 .11-.12.16-.21.12s-.12-.1-.07-.22l.15-.42h-.07l-.05.3c-.07.17 0 .3.11.35s.26 0 .32-.2zm.1.82h.07l.29-.56.17.08v-.07l-.42-.2v.08l.17.08zm.49 0a.19.19 0 00.06.29.21.21 0 00.31-.07c.1-.15 0-.22-.09-.31s-.07-.07 0-.14a.12.12 0 01.17 0 .08.08 0 010 .14l.08.05a.18.18 0 00-.07-.26.2.2 0 00-.3.07c-.08.13 0 .23.11.3a.12.12 0 010 .14.12.12 0 01-.19 0c-.07 0-.09-.09 0-.18zM78.07 137.86l.08.1.35-.24.1.14a.29.29 0 00.41.1.25.25 0 000-.41l-.18-.24zm.52-.21l.25-.18.12.16a.15.15 0 11-.25.18zm0 .94l.7-.65.08.08-.3.28.31.31.3-.28.09.09-.7.66L79 139l.32-.29-.31-.31-.31.3zm.72.69l.64-.71.1.08-.64.71zm.37.3l.56-.78.1.07-.49.68.36.24-.07.1zm.74.48l.2-.18.39.19v.26l.13.07.1-1-.12-.06-.79.67zm.66-.59l-.06.48-.31-.15zm.68.29l.18.06a.24.24 0 01.18.17.39.39 0 010 .26.48.48 0 01-.16.22.25.25 0 01-.25 0l-.18-.06zm-.4.74l.29.1a.58.58 0 00.26 0 .46.46 0 00.32-.33.45.45 0 000-.45.5.5 0 00-.22-.13l-.29-.1zm1 .31l.17-.93.57.1v.11l-.44-.07-.06.28.43.08v.11l-.43-.08v.31l.45.08v.11zm.91.13l.07-.93h.13l-.06.82h.43v.17zm.86.05h.13v-.42h.17c.17 0 .33-.09.31-.28s-.16-.26-.34-.24h-.3zm.09-.54v-.3h.2a.15.15 0 01.18.14c0 .15-.14.16-.16.16zm.81.46l-.17-.93h.13l.07.4.43-.08-.07-.39h.13l.17.93h-.13l-.08-.42-.43.08.07.42zm1.06-.24l-.31-.89h.12l.32.89zm.47-.14v-.27l.4-.16.19.18.13-.05-.74-.72-.12.06v1zm0-.87l.34.35-.31.14zm1.66 0l-.1.07-.45-.62a2.14 2.14 0 01-.1.22l-.08-.11a1 1 0 00.09-.23l.11-.07zm.25-.73a.17.17 0 01.25 0 .18.18 0 010 .26.2.2 0 01-.27 0 .17.17 0 01.05-.25zm0-.3a.14.14 0 010 .21.15.15 0 11-.2-.22.17.17 0 01.19.02zm-.08.33a.22.22 0 000 .3.29.29 0 00.41 0 .27.27 0 000-.4.24.24 0 00-.3-.05.2.2 0 000-.27.27.27 0 00-.38 0 .25.25 0 00-.06.36.22.22 0 00.28 0zm.11-.67l.39-.43.49.83-.09.1-.42-.73-.28.31zm1.08-.29a.18.18 0 01-.06-.25.19.19 0 01.27 0 .16.16 0 01.06.24.19.19 0 01-.28.01zm.36.05a.29.29 0 00-.08-.42.28.28 0 00-.41 0 .2.2 0 000 .22c-.1-.07-.26-.2-.16-.34a.12.12 0 01.18 0l.08-.11a.25.25 0 00-.35.06c-.15.21 0 .43.23.56s.35.24.5.04zM81.23 132.18v-.19l.26-.13.15.12h.09l-.55-.46-.09.05.08.7zm-.08-.61l.26.23-.21.11zm.3-.26h.09l.32.46-.05-.56h.1l.33.46v-.56h.08v.68h-.09l-.34-.48v.59h-.09zm1.14.33v-.18l.29-.07.11.16h.1l-.41-.59h-.1l-.11.7zm.09-.6l.19.28-.24.06zm.56-.1h.15c.09 0 .12 0 .13.08s0 .1-.11.12h-.15zm.15.27h.11c.03 0 0 .08 0 .14v.12h.1a.7.7 0 01-.06-.19c0-.08 0-.12-.12-.13a.15.15 0 00.11-.17c0-.13-.13-.15-.24-.14h-.23l.07.66h.09v-.3zm.54-.32h.13a.19.19 0 01.16.07.31.31 0 010 .18.32.32 0 01-.06.18.2.2 0 01-.16.07h-.14zm-.11.58H84a.32.32 0 00.17 0 .31.31 0 00.15-.28.32.32 0 00-.12-.3.37.37 0 00-.18-.05h-.21zm.65 0l.07-.66.4.05v.07h-.31v.21h.3v.07h-.3v.22h.32v.08zm.78-.49h.13a.2.2 0 01.14.1.31.31 0 010 .19.35.35 0 01-.08.16.2.2 0 01-.18 0h-.13zm-.21.55l.21.05a.56.56 0 00.18 0 .31.31 0 00.19-.25.3.3 0 00-.07-.31.3.3 0 00-.16-.08h-.21zm1.19-.29h.1c.08 0 .13.06.1.14s-.09.08-.17 0h-.11zm-.09.59h.11a.18.18 0 00.17-.11.16.16 0 00-.06-.21.15.15 0 00.16-.09c0-.12 0-.19-.13-.24l-.22-.07-.24.61zm0-.33l.14.05c.07 0 .11.07.08.15s-.09.08-.16.06l-.14-.05zm.73.27l.33-.19h.09l-.43.27-.12.2h-.08l.12-.21v-.49h.09zM81.45 135.93a.13.13 0 00-.06-.16c-.14-.08-.25 0-.31.13s-.1.25 0 .32a.14.14 0 00.18 0l.08.05a.23.23 0 01-.31 0c-.17-.09-.15-.27 0-.43s.25-.26.43-.15a.2.2 0 01.1.27zm.55 0a.29.29 0 01.14.43c-.07.18-.22.29-.4.21a.3.3 0 01-.15-.43.32.32 0 01.41-.14zm-.23.57c.15.06.23-.05.29-.17s.06-.26-.09-.32-.23 0-.29.17-.07.29.09.35zm1.08.36h.09l.15-.63h-.15l-.3.49-.06-.57h-.15l-.16.64h.09l.14-.58.06.62h.08l.34-.54zm1 .11h.09v-.65h-.14l-.24.53-.14-.56h-.16l-.06.66h.09l.06-.59.15.61h.09l.26-.58zm.44 0v-.66h-.09v.66zm.16-.19c0 .15.12.19.25.18s.26-.07.25-.22-.18-.15-.3-.18-.11 0-.12-.09.08-.11.14-.11.13 0 .14.08h.09c0-.13-.12-.17-.23-.16s-.25.07-.23.21.19.16.3.17.11 0 .11.1-.08.12-.15.12-.14 0-.15-.11zm.66-.06a.19.19 0 00.26.16c.13 0 .25-.09.22-.24s-.19-.14-.31-.15-.11 0-.12-.08.06-.12.13-.13.13 0 .14.08h.1a.2.2 0 00-.25-.14c-.12 0-.24.1-.21.24s.2.14.31.14.11 0 .12.08-.06.13-.13.14a.12.12 0 01-.17-.1zm.8 0l-.17-.64h-.08l.16.63zm.25-.79a.31.31 0 01.41.21.3.3 0 01-.15.43c-.19.07-.33 0-.41-.22s-.08-.28.11-.35zm.23.56c.15-.05.14-.18.09-.31s-.13-.24-.29-.18-.14.19-.09.32.09.3.25.24zm.59-.91l.27.48-.54-.34-.11.06.32.58h.07l-.27-.49.56.34.1-.05-.32-.58zM81.11 133.3a.24.24 0 01-.26.27.24.24 0 01-.26-.27v-.4h.09v.42a.17.17 0 10.34 0v-.42h.09zm.63-.4v.54l-.32-.54h-.12v.66h.08V133l.33.56h.11v-.66zm.35.66v-.66H82v.66zm.32 0h.09V133h.21v-.08h-.52v.08h.22zm.81 0v-.08h-.33v-.22h.31v-.08h-.31V133h.32v-.08h-.41v.66zm.24-.08h.14a.19.19 0 00.16-.08.26.26 0 000-.17.31.31 0 000-.18.19.19 0 00-.16-.07h-.14zm-.09-.58h.22a.3.3 0 01.18 0 .32.32 0 01.13.29.34.34 0 01-.13.29.39.39 0 01-.18 0h-.22zm.89.47c0 .14.1.2.23.2s.26 0 .26-.2-.16-.17-.28-.21-.11 0-.11-.09.09-.11.15-.11.13 0 .13.1h.1c0-.13-.11-.17-.22-.17s-.25.05-.25.19.18.17.28.2.11 0 .11.1-.09.11-.16.11-.14 0-.15-.12zm.79.19h.09V133h.22v-.08h-.53v.08h.22zm.26 0l.28-.66h.1l.26.66h-.1l-.07-.17h-.3l-.07.17zm.2-.25h.24l-.12-.32zm.62.25h.09V133h.22v-.08h-.53v.08h.22zm.81 0v-.08h-.32v-.22h.3v-.08h-.3V133h.31v-.08h-.4v.66zm.13-.19c0 .14.09.2.23.2s.26 0 .26-.2-.16-.17-.28-.21-.11 0-.11-.09.09-.11.15-.11.13 0 .13.1h.1c0-.13-.11-.17-.22-.17s-.26.05-.26.19.18.17.29.2.11 0 .11.1-.09.11-.17.11-.14 0-.14-.12zM81.23 134.29a.16.16 0 00-.16-.12c-.19 0-.23.17-.23.31s0 .31.22.31a.16.16 0 00.17-.13h.11a.27.27 0 01-.29.22c-.23 0-.32-.19-.32-.4s.09-.41.34-.4.26.07.27.21zm.73.57v-.09h-.38v-.25h.35v-.1h-.35v-.24H82v-.09h-.48v.77zm.71-.77v.64l-.37-.64h-.15v.77h.1v-.65l.39.65h.13v-.77zm.48.77h.11v-.68h.25v-.09h-.61v.09h.25zm1 0v-.09h-.39v-.25h.36v-.1h-.36v-.24h.38v-.09h-.48v.77zm.71-.77v.64l-.37-.64h-.19v.77h.1v-.65l.38.65h.13v-.77zm.83 0v.64l-.37-.64h-.14v.77h.09v-.65l.39.65h.13v-.77zm.42.77v-.77H86v.77zm.11 0l.32-.77h.12l.3.77h-.11l-.08-.2h-.36l-.08.2zm.23-.29h.28l-.14-.37zm1.09.29v-.09h-.35v-.68H87v.77z" class="cls-9"/><path d="M84.08 139l-.25.07a.85.85 0 01-.14.21 1.29 1.29 0 01-.61.29 1.75 1.75 0 01.24-.51h-.1a1.35 1.35 0 01-.72.15 2.89 2.89 0 01.31-.33h-.14a1.87 1.87 0 01-.94 0 2.83 2.83 0 01.45-.29l-.11-.05a1.37 1.37 0 01-.65-.08l.19-.13-.13-.06a.7.7 0 01-.19.06 1.3 1.3 0 01-.66-.14A2.44 2.44 0 0181 138l-.12-.05h-.1a1.25 1.25 0 01-.63-.24 2.5 2.5 0 01.5-.13l-.07-.18a1.15 1.15 0 01-.14-.17.86.86 0 01-.18 0 .17.17 0 01-.17-.16l-.22-.09a.71.71 0 01-.25 0 1.32 1.32 0 01-.6-.3 2.29 2.29 0 01.36-.07 2.16 2.16 0 01-.61-.48l-.18-.08a1.91 1.91 0 01-.65.18 1.22 1.22 0 01.29-.38.23.23 0 00-.23 0 1.87 1.87 0 01-.66.1 1.33 1.33 0 01.5-.44.82.82 0 01.28 0 2.65 2.65 0 01-.52-.05 1.74 1.74 0 01-.56-.33 1.29 1.29 0 01.67 0l.15.08a2.47 2.47 0 01-.27-.39 1.3 1.3 0 01.64.22.85.85 0 01.17.2h.11a1.18 1.18 0 01-.09-.56 2.32 2.32 0 01.37.32v-.51a1.32 1.32 0 01-.21-.68l.2.13.14-.16a1.19 1.19 0 010-.68 3.27 3.27 0 01.24.32l.07-.59a.17.17 0 01-.07-.13.17.17 0 01.11-.16l.11-.22a1.05 1.05 0 01-.17-.28 1.26 1.26 0 010-.65 2 2 0 01.34.51 1.75 1.75 0 01-.07-.42 1.27 1.27 0 01.28-.6 2.53 2.53 0 01.1.4 1 1 0 010-.24 1.21 1.21 0 01.33-.58v.26a2.15 2.15 0 00.06-.45 1.2 1.2 0 01.36-.56 1.88 1.88 0 010 .64 2 2 0 01.16-.23 1.32 1.32 0 01.58-.31 1.06 1.06 0 01.18-.33 1.29 1.29 0 01.6-.31 2 2 0 01-.13.28 1.59 1.59 0 01.46-.36 1.33 1.33 0 01.68 0 1.75 1.75 0 01-.55.35 1.38 1.38 0 01-.59 0 2 2 0 01-.16.24 1.2 1.2 0 01.4-.18 1.33 1.33 0 01.67.12 1.82 1.82 0 01-.62.24 1.46 1.46 0 01-.58-.07 1.38 1.38 0 01-.41.21 3.86 3.86 0 01-.25.34 1.28 1.28 0 01-.45.27c.06 0 .14 0 .2-.05a1.42 1.42 0 01.68 0 1.81 1.81 0 01-.52.39 1.56 1.56 0 01-.41.08l-.13.15a1.71 1.71 0 01-.23.6 1.76 1.76 0 01.33-.11 1.82 1.82 0 01-.28.58 1.4 1.4 0 01-.34.26v.27a.15.15 0 01.1.15.15.15 0 01-.11.15l-.1.34a.55.55 0 01.2-.1 1.76 1.76 0 01-.22.6.49.49 0 01-.12.13v.17a1.85 1.85 0 01.41-.2 1.72 1.72 0 01-.28.58 1.11 1.11 0 01-.23.19l-.14.29.25.46a1.1 1.1 0 01.06-.18 1.93 1.93 0 01.32.56 1.79 1.79 0 010 .24 3.85 3.85 0 01.2-.5 1.85 1.85 0 01.26.6 1.43 1.43 0 010 .41.15.15 0 01.14.15l.22.12a.91.91 0 010-.28 1.78 1.78 0 01.46.47l.14.14a1.12 1.12 0 010-.45 1.68 1.68 0 01.4.51.9.9 0 01.06.22l.32.23a1.27 1.27 0 01-.09-.29 1.8 1.8 0 01.57.34 1.27 1.27 0 01.2.31l.13.05a.76.76 0 01-.09-.18 1.84 1.84 0 010-.65 1.66 1.66 0 01.41.51.82.82 0 010 .28 1 1 0 01.41.12l.31.13.31-.13a1 1 0 01.41-.12.82.82 0 010-.28 1.52 1.52 0 01.41-.51 1.62 1.62 0 010 .65.76.76 0 01-.09.18l.13-.05a1.27 1.27 0 01.2-.31 1.92 1.92 0 01.57-.34 1.27 1.27 0 01-.09.29l.32-.23a.9.9 0 01.06-.22 1.68 1.68 0 01.4-.51 1.12 1.12 0 010 .45l.14-.14a1.78 1.78 0 01.46-.47 1.5 1.5 0 010 .28l.22-.12a.15.15 0 01.14-.15 1.43 1.43 0 010-.41 1.85 1.85 0 01.26-.6 3.85 3.85 0 01.2.5 1.79 1.79 0 010-.24 1.93 1.93 0 01.32-.56.43.43 0 010 .18l.26-.46-.14-.29a1.11 1.11 0 01-.23-.19 1.83 1.83 0 01-.29-.58 1.65 1.65 0 01.42.2v-.17a.49.49 0 01-.12-.13 1.76 1.76 0 01-.22-.6.65.65 0 01.2.1l-.1-.34a.15.15 0 01-.11-.15.15.15 0 01.1-.15v-.27a1.28 1.28 0 01-.35-.26 1.82 1.82 0 01-.28-.58 1.76 1.76 0 01.33.11 1.71 1.71 0 01-.23-.6l-.13-.15a1.56 1.56 0 01-.41-.08 1.81 1.81 0 01-.52-.39 1.42 1.42 0 01.68 0c.06 0 .13.09.2.05a1.37 1.37 0 01-.45-.27 3.86 3.86 0 01-.25-.34 1.38 1.38 0 01-.41-.21 1.46 1.46 0 01-.58.07 1.82 1.82 0 01-.62-.24 1.33 1.33 0 01.67-.12 1.2 1.2 0 01.4.18 2 2 0 01-.16-.24 1.38 1.38 0 01-.59 0A1.75 1.75 0 0185 129a1.29 1.29 0 01.67 0 1.52 1.52 0 01.47.36 2 2 0 01-.13-.28 1.29 1.29 0 01.6.31 1.06 1.06 0 01.18.33 1.32 1.32 0 01.58.31 2 2 0 01.16.23 1.88 1.88 0 010-.64 1.2 1.2 0 01.36.56 2.15 2.15 0 00.06.45c0-.14.05-.26.05-.26a1.29 1.29 0 01.33.58 1 1 0 010 .24 2.07 2.07 0 01.11-.4 1.28 1.28 0 01.27.6 1.75 1.75 0 01-.07.42 1.73 1.73 0 01.34-.51 1.16 1.16 0 010 .65 1.05 1.05 0 01-.17.28l.11.22a.17.17 0 01.11.16.17.17 0 01-.07.13l.07.59a3.27 3.27 0 01.24-.32 1.19 1.19 0 010 .68l.14.16.19-.13a1.18 1.18 0 01-.2.68v.51a2.32 2.32 0 01.37-.32 1.33 1.33 0 01-.09.56h.11A.85.85 0 0190 135a1.3 1.3 0 01.64-.22 2.47 2.47 0 01-.27.39l.15-.08a1.34 1.34 0 01.68 0 1.83 1.83 0 01-.57.33 2.65 2.65 0 01-.52.05.82.82 0 01.28 0 1.19 1.19 0 01.49.44 1.82 1.82 0 01-.65-.1.23.23 0 00-.23 0 1.22 1.22 0 01.29.38 1.91 1.91 0 01-.65-.18l-.18.08a2.16 2.16 0 01-.61.48 2.29 2.29 0 01.36.07 1.32 1.32 0 01-.6.3.78.78 0 01-.26 0l-.21.09a.17.17 0 01-.17.16.86.86 0 01-.18 0 1.15 1.15 0 01-.14.17l-.07.18a2.5 2.5 0 01.5.13 1.29 1.29 0 01-.63.24h-.11l-.11.05a2.44 2.44 0 01.33.16 1.3 1.3 0 01-.66.14l-.2-.06-.12.06.19.13a1.37 1.37 0 01-.65.08l-.11.05a2.83 2.83 0 01.45.29 1.87 1.87 0 01-.94 0h-.15a2.12 2.12 0 01.31.33 1.33 1.33 0 01-.71-.15h-.1a1.75 1.75 0 01.24.51 1.29 1.29 0 01-.61-.29.85.85 0 01-.14-.21z" class="cls-6"/><path d="M78 133.54l-1-.11v-.13l1 .12zm-.78-1.15l.78.16-.88.26v.17l1 .19v-.11l-.81-.16.91-.28v-.15l-.95-.2zm1.13-.33v-.11l-.79-.31.11-.28-.1-.05-.29.68h.11l.12-.28zm.49-1l-.11-.05-.21.4-.29-.14.2-.38h-.1l-.2.38-.27-.14.21-.39-.11-.05-.26.5.87.43zm-.25-.58l.12-.16c.08-.12 0-.18 0-.23s-.13-.05-.22 0l-.13.17zm.09.07l.36.24-.08.11-.78-.56.19-.26c.09-.12.23-.22.38-.1a.21.21 0 01.09.27c.09-.08.15-.05.25 0a1.69 1.69 0 00.27.12l-.08.11-.17-.08c-.07 0-.14-.09-.2-.08s-.09.05-.12.08zm.55-1.42l.58.54-.89-.22-.13.12.7.65.08-.08-.59-.55.92.23.11-.11-.7-.66zm.89.48l-.24-1 .11-.07.86.56-.11.08-.23-.15-.35.24.06.26zm0-.44l.28-.2-.4-.28zm.94-.18l.11-.06-.43-.72.27-.15L81 128l-.64.36v.1l.27-.15zm.63-.29l-.4-.86h-.11l.39.86zm.3-1.13c.28-.08.47.09.55.36a.41.41 0 01-.27.58c-.28.08-.47-.09-.54-.36a.42.42 0 01.27-.58zm.25.84c.23-.07.23-.26.17-.44s-.16-.36-.39-.29-.22.25-.17.44.15.35.42.29zm1.14-1.08l.1.77-.54-.72h-.17l.11.93H83l-.1-.8.56.74h.16l-.11-.93zm.37.91l.41-.94h.14l.36 1h-.14l-.1-.25H84l-.1.25zm.29-.36h.34l-.16-.46zm1.3.49v-.11l-.43-.07.15-.82h-.12l-.17.93zm1 .31v-.1l-.44-.15.1-.29.41.13v-.11l-.41-.13.1-.28.43.15v-.11l-.55-.18-.32.89zm.69-.12l.06.48.15.07-.08-.59.5-.25-.14-.07-.39.21v-.43l-.15-.07.08.54-.55.28.13.07zm.43.71l.24-.34.37.24-.25.35.1.07.56-.77-.11-.07-.24.33-.36-.25.24-.33-.1-.07-.56.77zm.71.57l.68-.68-.1-.09-.67.68zm.69-.11l.1.11c.08.09.15.14.25.06s.06-.16 0-.24l-.11-.12zm-.51.26l.73-.62.22.24c.11.12.15.26 0 .38a.23.23 0 01-.27 0 .21.21 0 01-.07.29.26.26 0 01-.28 0 .43.43 0 01-.12-.11zm.17 0l.14.16a.17.17 0 00.25 0 .14.14 0 000-.23l-.14-.16zm.45.71l.79-.55-.08-.1-.78.55zm.25.36l.06.11.74-.42.16.26.1-.05-.38-.63-.1.05.16.26zm.32.6l.89-.39-.06-.11-.88.38zm1.17.24c.09.26-.08.46-.34.54s-.53 0-.62-.22.07-.46.34-.55.58-.02.68.25zm-.85.28c.08.21.27.21.46.14s.35-.17.28-.39-.27-.2-.47-.14-.29.21-.21.41zm1.15 1.05l-.79.14.71-.57v-.17l-1 .17v.1l.81-.14-.73.58v.16l1-.17z" class="cls-9"/></g><path d="M15.25 83.68h127.54v35.29H15.25z"/><path d="M15.25 85.39h127.54v31.86H15.25z" class="cls-11"/><path d="M27 113.48a6.28 6.28 0 00-3.57.83c.16-.28 1-1.5 3.57-1.5h104.1c2.55 0 3.41 1.22 3.58 1.5a6.36 6.36 0 00-3.58-.83H27zm0-24.42a6.28 6.28 0 01-3.57-.83c.16.28 1 1.5 3.57 1.5h85.62a3.61 3.61 0 00-.54-.67H27zm92.61.67h11.49c2.55 0 3.41-1.22 3.58-1.5a6.36 6.36 0 01-3.58.83h-11z" class="cls-5"/><path d="M39.55 96.1h-4.06v3.5h4.06a1.7 1.7 0 001.74-1.75 1.68 1.68 0 00-1.74-1.75zm.05 6.21h-4.11v3.84h4.11a1.92 1.92 0 000-3.84zm3.88-9.5c3.22 0 4.68 2.1 4.68 4.18a4.24 4.24 0 01-2.16 3.73 4.59 4.59 0 012.69 4.28c0 2.48-2.07 4.59-5.21 4.59H27.85a2.81 2.81 0 001.09-2.11V94.91a2.81 2.81 0 00-1.09-2.1zm6.89 0a2.83 2.83 0 011.08 2.1v12.6a2.83 2.83 0 01-1.09 2.11h18v-5.17a2.61 2.61 0 01-2.2 1.18h-7.82v-3.16h6.81v-2.93h-6.81v-3h7.84a2.54 2.54 0 012.18 1.18v-5zm36.57 5v-5H77c-3.88 0-6.45 1.59-6.45 5.48v5.36c0 3.87 2.15 6 6.45 6h9.93v-5.17a2.6 2.6 0 01-2.18 1.18h-4.53c-1.72 0-2.64-.95-2.64-2.78v-3.52c0-1.83 1-2.78 2.66-2.78h4.52a2.55 2.55 0 012.18 1.18zm43.53 0v-5h-10.9a4.68 4.68 0 100 9.36h2.31c.93 0 2.05.3 2.05 1.5s-1.21 1.53-2.05 1.53h-4.5a2.57 2.57 0 01-2.18-1.2v5.6h9.94c4 0 6.23-2.48 6.23-5.28s-1.82-5.27-5.62-5.27h-2.25c-1 0-1.51-.58-1.51-1.25s.51-1.25 1.51-1.25h4.79a2.54 2.54 0 012.18 1.21zM113 89.06a1.94 1.94 0 01-.19 2.81l-2.27 2.49h4.38l4.21-5.3zm-24.4 3.75a2.8 2.8 0 011.08 2.11v12.59a2.82 2.82 0 01-1.08 2.11h8.88a2.83 2.83 0 01-1.09-2.11v-5.89l4.76 5.7a1.51 1.51 0 01-.52 2.3h11.19l-7.9-9.16 7-7.65h-9.65a1.55 1.55 0 01.21 2.33l-5.06 5.59v-5.81a2.81 2.81 0 011.09-2.11z" class="cls-6"/><path d="M30.12 107.4V95a2.22 2.22 0 00-.23-1.12h13.59c2.42 0 3.09 1.35 3.26 1.78a4.36 4.36 0 00-3.26-1.14H30.81a1.74 1.74 0 010 .43v12.45a1.52 1.52 0 01-1 1.19 2.69 2.69 0 00.31-1.19zm11.66-11.3a2.4 2.4 0 01.67 1.67 2.71 2.71 0 01-2.9 2.85h-5.24l.64.65h4.6c2.34 0 3.45-1.5 3.45-3.11a2.43 2.43 0 00-1.22-2.06zm.23 6.21a2.82 2.82 0 01.67 1.94 2.86 2.86 0 01-3.08 2.92h-5.29l.64.65h4.65a3.35 3.35 0 003.65-3.21 2.81 2.81 0 00-1.25-2.3zm15.79-1.1H64v-.65h-6.85zm9.37-6.72v-.65H52.4a2.1 2.1 0 01.23 1.07v12.49a2.65 2.65 0 01-.23 1.19 1.51 1.51 0 001-1.19V94.91a2.31 2.31 0 000-.43zm-9.37 12.82h8.11a1.43 1.43 0 001.26-.84 2.23 2.23 0 01-1 .19h-9zm16.07.63c-1.08-1-1.39-2.48-1.39-4.29v-5.36c0-2.42 1.26-3.81 4.53-3.81h8.74v-.65H77c-3.48 0-5.26 1.48-5.26 4.45v5.36c.01 2.05.66 3.52 2.13 4.3zm3.1-2.8c.28 1.25 1.37 2.17 3.25 2.17h4.27a1.42 1.42 0 001.26-.84 2.3 2.3 0 01-1 .19h-4.53a3.6 3.6 0 01-3.22-1.52zm41-4.33a3.79 3.79 0 01-1.31-3.1 3.05 3.05 0 013-3.23h9.71v-.64h-9.71a3.63 3.63 0 00-3.65 3.65 3.72 3.72 0 001.99 3.32zm6.67 1.35a2.06 2.06 0 01.52 1.51c0 2.34-2.41 2.56-3.24 2.56h-4.49a3.29 3.29 0 01-1-.16v2.58h.76v-1.8a1.32 1.32 0 00.29 0h4.44c.86 0 3.8-.21 3.8-2.9a2.08 2.08 0 00-1.1-1.79zM114 93.39a4.8 4.8 0 001.42-2.66h.85l.51-.65h-2.15a2.86 2.86 0 01-1 2.59l-.66.72zm-23.41 15.2a1.53 1.53 0 001-1.19V94.92a2.22 2.22 0 000-.44h3.66a2.68 2.68 0 01.12-.64h-4.74a2 2 0 01.24 1.08v12.48a2.6 2.6 0 01-.24 1.19zm12.24-12.18a3.28 3.28 0 00.89-1.93h4l.59-.64H103a2.63 2.63 0 01-.71 2.1l-4.74 5.25 4.48 5.37a2.63 2.63 0 01.59 2.09h.73a3.16 3.16 0 00-.76-2.54l-4.08-4.9z" class="cls-11"/><path stroke-width=".07" d="M131.57 108.14a1.51 1.51 0 111.51 1.51 1.5 1.5 0 01-1.51-1.51zm2.73 0a1.23 1.23 0 10-1.22 1.22 1.22 1.22 0 001.22-1.22zm-.47.82h-.38l-.36-.69h-.31v.73h-.32v-1.63h.78a.93.93 0 01.44.08.48.48 0 01.2.42c0 .3-.16.42-.45.44zm-.58-.93c.18 0 .31 0 .31-.25s-.23-.21-.39-.21h-.39v.43z"/><path fill-rule="evenodd" stroke-width="1.57" d="M79 36c-1.79 0-4.29-1.64-4.29-1.64h-8.23l-3.06 5.8a20.59 20.59 0 013.23 10.66c0 5-1.28 7.76-4 11.9C67.51 71.87 72 70.18 79 74.54c7.06-4.36 11.51-2.67 16.34-11.81-2.69-4.14-4-6.93-4-11.9a20.5 20.5 0 013.24-10.66l-3.07-5.8h-8.2S80.81 36 79 36z"/><path fill-rule="evenodd" stroke-width="2.25" d="M79 36c-1.79 0-4.29-1.64-4.29-1.64h-8.23l-3.06 5.8a20.59 20.59 0 013.23 10.66c0 5-1.28 7.76-4 11.9C67.51 71.87 72 70.18 79 74.54c7.06-4.36 11.51-2.67 16.34-11.81-2.69-4.14-4-6.93-4-11.9a20.5 20.5 0 013.24-10.66l-3.07-5.8h-8.2S80.81 36 79 36z"/><path d="M79 36c-1.79 0-4.29-1.64-4.29-1.64h-8.23l-3.06 5.8a20.59 20.59 0 013.23 10.66c0 5-1.28 7.76-4 11.9C67.51 71.87 72 70.18 79 74.54c7.06-4.36 11.51-2.67 16.34-11.81-2.69-4.14-4-6.93-4-11.9a20.5 20.5 0 013.24-10.66l-3.07-5.8h-8.2S80.81 36 79 36z" class="cls-9"/><path d="M79 72.72c6.14-3.47 10.38-2.67 14.52-9.92-4.76-7.56-5-14.86-.7-22.66l-2.22-4.2h-7.29s-2.5 1.63-4.29 1.64-4.29-1.64-4.29-1.64h-7.3l-2.23 4.2c4.3 7.8 4.06 15.1-.7 22.66 4.14 7.25 8.38 6.45 14.5 9.92z" class="cls-7"/><path d="M80.2 60.75a.93.93 0 00-.2-1.32.83.83 0 00.81-.43.87.87 0 00-.28-1.12l8.46-15-2.22-1.25-.68 1.2-1.17-.66-1.21 2.15-.89-.5.63-1.11-2.63-1.48-.63 1.1-.83-.47 1.21-2.15-1.8-1L73.53 48l1.79 1 1.22-2.15.83.47-.62 1.11 2.63 1.48.62-1.1.88.5-1.21 2.15 1.17.66-2.54 4.5a.85.85 0 00-1.09.34.81.81 0 000 .92.91.91 0 00-1.23.5c-2.14-.71-4.73-.61-6.36 2.27-1.29 2.28-.15 5.92 3.36 7.91s7.22 1.08 8.51-1.2c1.67-2.88.42-5.14-1.29-6.61zm.22-13.82l-.42-.27-1 1.63-.71-.39.93-1.63-.42-.27 1-1.72.46.25.92-1.62.71.4-.92 1.62.45.27zm-1 18.61c-.74 1.31-2.58 2.48-5.2 1s-2.57-3.66-1.83-5a1.68 1.68 0 012.28-.94.82.82 0 01.33 1.19.92.92 0 01-1.28.38 1.43 1.43 0 00.75 1.51 1.49 1.49 0 001.2.22 1.46 1.46 0 00.8.91 1.44 1.44 0 001.68-.13.92.92 0 01-.33-1.29.81.81 0 011.18-.29 1.67 1.67 0 01.37 2.44z" class="cls-6"/><path d="M75.16 48.17l-.29-.17 4.59-8.12.29.16zm5.71 3.23l.29.17 4.6-8.12-.3-.17zM79 57l1.1.62 8.21-14.51-.42-.24-7.4 13.09C79.76 57.17 79.17 57 79 57zm-1 1.1l.69.39.69.39a.65.65 0 00.85-.15 5.51 5.51 0 01-1.33-.61 5.8 5.8 0 01-1.22-.83.67.67 0 00.32.81zm-1.45.65a7.92 7.92 0 011.57.74 8.86 8.86 0 011.45 1 .67.67 0 00-.32-.8l-.92-.53-.93-.52a.66.66 0 00-.82.11zm.25 3.87a1.14 1.14 0 000 1.19 1.5 1.5 0 01.21-.88 1.16 1.16 0 011.45-.51 1.16 1.16 0 00-1.63.2zm-5.1-1.45A2.28 2.28 0 0174.44 60a2.23 2.23 0 00-3.07.88 2.81 2.81 0 00-.15 2.3 3.28 3.28 0 01.48-2.01zm9.07 5.09a5.55 5.55 0 01-5.42 2.5A4.86 4.86 0 0081 66.7a3.55 3.55 0 00.15-3.54 4.52 4.52 0 01-.38 3.1z" class="cls-11"/></g></g></g></svg>