<svg xmlns="http://www.w3.org/2000/svg" viewBox="0 0 153 120" fill="currentColor"><path d="M149.2 84.7c0-2.4-.7-3.3-2.8-3.7-.5-.1-.8-.2-1.3-.3v16.1c.5.1.8.2 1.3.3 2.1.4 2.8-.2 2.8-2.6v-9.8zm3.8 1.2v8.9c0 4.6-2.1 6.3-6.1 5.5-2.3-.4-3.4-.7-5.7-1.1V76.9c2.3.4 3.5.6 5.7 1.1 4 .7 6.1 3.4 6.1 7.9zm-18.8 3.9c-.6-3.9-.9-5.9-1.5-9.8h-.1c-.6 3.7-.9 5.6-1.5 9.4 1.2.1 1.8.2 3.1.4zm5 9.1c-1.5-.3-2.3-.4-3.8-.6-.3-2-.4-3-.7-5.1-1.7-.3-2.6-.4-4.3-.7-.3 1.9-.4 2.9-.7 4.9-1.5-.2-2.3-.3-3.8-.5 1.4-7.3 2.8-14.5 4.2-21.8 1.9.3 2.9.4 4.9.8 1.4 7.6 2.8 15.3 4.2 23zM120 79.2c0-1.7-.5-2.5-2.1-2.7-1.6-.2-2.1.6-2.1 2.2V90c0 1.7.5 2.5 2.1 2.7 1.6.2 2.1-.6 2.1-2.2V79.2zm4 .4v11.5c0 3.2-1.9 5.5-6.1 5-4.2-.5-6.1-3.2-6.1-6.4V78.3c0-3.2 1.9-5.6 6.1-5.1 4.2.4 6.1 3.3 6.1 6.4zm-19.6-.8c0-2.7-.8-3.5-3-3.7-.6 0-.9-.1-1.4-.1v6.9c.6 0 .9.1 1.4.1 2.2.2 3-.5 3-3.2zM109 95c-1.6-.1-2.4-.2-4.1-.3-1.1-3.8-1.7-5.7-2.8-9.5H100v9.2c-1.6-.1-2.4-.1-4-.2V71.7c2.3.1 3.4.2 5.6.3 4.5.3 6.8 2.4 6.8 7.1 0 3.6-1.4 4.9-2.8 5.4 1.4 4.2 2.1 6.3 3.4 10.5zm-32.3-1.5v-14h.1c2.1 5.6 3.1 8.4 5.2 14 1.4 0 2.1 0 3.5.1V71.3c-1.5 0-2.2 0-3.7-.1V84h-.1c-2-5.1-3-7.7-5-12.8h-3.8v22.4c1.6-.1 2.3-.1 3.8-.1zm-6.6.1v-3.3c-2.9.1-4.4.1-7.3.2v-6.6c2.1-.1 3.1-.1 5.2-.2v-3.3c-2.1 0-3.1.1-5.2.2v-5.8c2.7-.1 4.1-.1 6.8-.2v-3.3c-4.4.1-6.5.2-10.9.4v22.4c4.6-.4 6.9-.4 11.4-.5zM51.2 78.3c0-2.4-.7-3.1-2.9-2.9-.6 0-.8.1-1.4.1v16c.6 0 .8-.1 1.4-.1 2.1-.2 2.9-1 2.9-3.3v-9.8zm4 .2v8.9c0 4.6-2.2 6.9-6.4 7.2-2.4.2-3.6.3-5.9.5V72.7c2.4-.2 3.6-.3 5.9-.5 4.2-.3 6.4 1.7 6.4 6.3zM40.8 95.2v-3.3c-2.5.2-3.8.4-6.2.7v-19l-4 .5v22.4c4.1-.6 6.1-.9 10.2-1.3zM23.4 80.5c0-1.7-.5-2.4-2.1-2.2-1.6.2-2.1 1.1-2.1 2.8v11.3c0 1.7.5 2.4 2.1 2.2 1.6-.2 2.1-1.1 2.1-2.8V80.5zm3.9-.6v11.5c0 3.2-1.9 6-6 6.6-4.1.6-6-1.6-6-4.8V81.7c0-3.2 1.9-6.1 6-6.7s6 1.7 6 4.9zm-22 12.3l2.5-.5v2.2c0 2.2-.6 3.2-2.1 3.5-1.3.3-1.8-.6-1.8-2V83.9c0-1.9.8-2.6 1.7-2.8 1.5-.3 2.2.4 2.2 3.8 1.5-.3 2.2-.4 3.7-.7v-1.4c0-3.3-1.9-5.8-5.8-5-3.8.7-5.7 3.7-5.7 6.8v11.5c0 3.6 2.1 5.3 5.2 4.7 1.8-.4 2.7-1.2 3.9-2.7.3.6.4.9.7 1.5.7-.1 1.1-.2 1.9-.3V87.9c-2.5.5-3.8.7-6.3 1.2v3.1zm115 12.6c-3.4-.4-6.8-.8-10.2-1.1l-.1 1.1c3.4.3 6.8.7 10.2 1.1l.1-1.1zm-77.3 0l-.1-1.1c-3.4.3-6.8.7-10.2 1.1l.1 1.1c3.4-.4 6.8-.8 10.2-1.1zm61.6 1.8v-3.1c-1.3-.1-1.9-.1-3.2-.2v1.4c.7 0 1 .1 1.6.1v1c-.4.3-.9.4-1.5.3-1.3-.1-2.2-1.1-2.2-2.4 0-1.2.9-2.2 2.1-2.1.9.1 1.4.4 1.9.9.4-.4.6-.7 1-1.1-.8-.7-1.6-1.1-2.9-1.2-2.2-.2-3.9 1.4-3.9 3.5s1.6 3.8 3.9 3.9c1.4 0 2.4-.4 3.2-1zm-8.9.4v-7.2c-.6 0-1 0-1.6-.1v4.4c-1.4-1.8-2.1-2.7-3.5-4.6-.6 0-.9 0-1.5-.1v7.2c.6 0 1 0 1.6.1v-4.6c1.4 1.9 2.2 2.8 3.6 4.7.5.2.8.2 1.4.2zm-9.1-.3v-7.2H85v7.2c.6-.1 1-.1 1.6 0zm-3.4-7.3h-1.7c-.6 1.9-.9 2.9-1.5 4.8-.7-2-1-2.9-1.7-4.9h-1.4c-.7 2-1 2.9-1.7 4.9-.6-1.9-.9-2.9-1.5-4.8h-1.8c1 2.9 1.5 4.3 2.5 7.2h1.4c.7-1.9 1-2.8 1.7-4.7.7 1.9 1 2.8 1.7 4.7h1.4c1.1-2.9 1.6-4.3 2.6-7.2zm-12.9 7.2v-1.4c-1.6 0-2.4 0-4 .1v-1.5c1.4 0 2.1-.1 3.5-.1v-1.4c-1.4 0-2.1 0-3.5.1v-1.5c1.6 0 2.4-.1 4-.1v-1.4c-2.2 0-3.4.1-5.6.1v7.2c2.2-.1 3.4-.1 5.6-.1zm-9.2-4.5c0-.7-.5-1-1.3-1-.6 0-1 0-1.6.1v2.1c.7 0 1 0 1.6-.1.8 0 1.3-.4 1.3-1.1zm1.8 4.7c-.8 0-1.1 0-1.9.1-.6-.9-1-1.3-1.6-2.2-.5 0-.8 0-1.3.1v2.3c-.7 0-1 0-1.6.1V100c1.4-.1 2-.1 3.4-.2 1.7-.1 2.8.8 2.8 2.3 0 1.2-.6 1.9-1.6 2.3.7.9 1.1 1.4 1.8 2.4zm-9.8-1.7c0-.5-.4-.8-1.2-.7-.7 0-1.1.1-1.9.1v1.6c.8-.1 1.2-.1 1.9-.1.7-.1 1.2-.4 1.2-.9zm-3.1-1.9c.6 0 .9-.1 1.5-.1.7 0 1.2-.3 1.2-.8s-.4-.7-1.1-.7c-.6 0-1 .1-1.6.1v1.5zm4.7 2c0 1.3-1.1 2.1-2.8 2.2-1.4.1-2.1.1-3.5.3v-7.2c1.4-.1 2-.2 3.4-.2 1.5-.1 2.4.6 2.4 1.7 0 .8-.4 1.3-1 1.6.9.2 1.5.6 1.5 1.6zm60.4-40.5c.1.1 0 .2 0 0-.1.3.1 0 0 .2-.1 0-.2-.1-.4-.1.1 0 .3 0 .4-.1zm-.6-.7c-.4-.1.1-.1.2 0-.1.2-.1.1-.2 0zm.4.2c0 .1-.1 0-.1.2h-.1c.1 0 .1-.2 0-.2.1 0 .2-.1.2 0zm-95.2 4.2v-.1s.1 0 0 .1c.1 0 .1 0 0 0zm4.7-.3c0 .1 0 .1 0 0l-.1.1.1-.1zm11.8-1.9c.1 0 .1 0 0 0 .1.1 0 .1 0 0zm-12.9 2.1c-.1.1-.2 0-.2-.1-.1 0-.1.1-.2.1.1 0 .2.1.2.2h-.2c0-.2-.2-.4.1-.5 0 .1-.1.1-.1.3 0-.2.3-.2.4 0zM37.8 66c0-.1.3-.3.2-.3 0-.2.2.1.3 0-.1.1-.1.2 0 .3h-.1l-.1-.1c0 .1-.1.1-.1.2-.1-.1-.2-.1-.2-.1zm73.7-.7c.1.1-.1.2-.2.1s.1 0 .2-.1zm-74.8.5c-.1-.3-.1-.1-.4-.1.2-.5.5.2.7-.1 0 .1-.1.1 0 .2 0-.3.4 0 .4-.4.1 0 .1.1.2.1-.1.3-.7.3-.8.6h-.2c-.1-.1-.1-.1-.3-.1 0-.2.2-.2.4-.2zm1.1.2h-.3v-.1c.1 0 .2 0 .3.1zm77-1c-.1.1-.1 0-.1-.1-.1 0-.1 0-.2.1 0-.1.1-.2-.1-.2.1-.1.4.1.4.2zm-3.6.4c-.1.1.2.3-.1.3 0-.2 0-.3-.1-.4 0-.1.1.1.2.1zM96.6 41.5c0 .3 0 .5.2.2 0 .1.2.3 0 .4 0-.3-.6-.2-.4-.2.2 0-.1-.3.2-.4zm-.2-1.6c0 .1.1.1.1.2-.2.1-.3-.2-.1-.2zm0-1.9c0 .1 0 .2-.1.2 0 0 0-.1-.1-.1.1 0 .1-.1.2-.1zM24.7 68.2l-.3-.6c-.1.1 0 .2-.2.1 0-.1.1-.1.1-.2.1.2.5.2.4.5 0 0 .1-.1.2-.1.1-.2-.2.1-.2.3zm71.7-29.7c-.1 0-.3-.2-.1-.3.3.3.4.8.7 1.1-.1-.5-.2-.6-.3-1.1.4.3.4 1 .7 1.4 0 .1 0 .5-.1.2 0-.1 0-.2-.1-.2-.2.4-.2.2-.5.5 0-.2-.1-.5 0-.6-.2.1-.2 0-.3.2-.1-.5-.3-1-.3-1.3.1.2.3.2.3.1zm-.2 3.5c.4.1.6.5.9.8-.6.1-.6-.4-1.1-.4 0-.3.3-.2.2-.4zm.3 4.8c-.1-.2.2-.3.2-.2-.1.1-.1.2-.2.2zm-.2-3.9c.2 0 .2.1.3.2-.2.1-.3-.1-.3-.2zm.6 4.2c0-.1-.2-.3.1-.3-.1.1 0 .3-.1.3zm0-.7h-.2c-.1-.2.1-.2.2-.3v.3zm-.5-9c.3.4-.2.2 0 0zm-61.3 29v-.3c0-.2.2.1.3 0 0 .1-.1.1-.1.2-.1.1-.1.1-.2.1zm62.4-23.8c0-.1-.1-.2 0-.2 0 .1.1.2 0 .2zM110.8 65v-.2c0 .1.1.2.2 0 0 0-.1.2-.2.2zm3.5-.9c.2.2.2 0 .3.1-.1.1-.4.1-.5.3 0-.2.3-.2.2-.4zm-3.6 1c.1 0 .1.1.2.1-.1.1-.2.1-.3 0 0-.1.1-.1.1-.1zm0-.1c0 .1-.2 0-.2.1 0-.2.1-.2.2-.1zm-13-27.2c.1.2.1-.3.1-.4-.1-.2-.1.3-.1.4zm-1.1-4c.1-.3-.3-.2-.3-.4.2-.1.4.3.4.2-.2-.2-.6-.2-.7-.5.3-.1.4.3.5.1-.1-.1-.7-.2-.5-.4.2.2.6.2.8.5-.1 0-.2 0-.2.1.1 0 .2.1.3.1 0-.1 0-.2.1-.2-.3 0-.2-.4-.5-.5 0 .1.3.3.1.3-.2-.2-.5-.2-.6-.4.1 0 .2 0 .2-.1-.1-.1-.6-.1-.3-.3.2.2.4.2.5-.1-.1.3.3.5.4.7-.1-.3-.2-.5-.3-.7.1 0 .2.1.2 0 0-.3-.4-.2-.4-.5.5.2.8.9 1.1 1.6.2-.5-.5-.9-.3-1.4 0 .2.3-.1.6.1.2 1 0 2.2.1 3.3-.2 0-.1-.3-.3-.1.5.4.3 1.4.4 2.2 0 .3.3.7-.1 1-.2.1.1-.4-.1-.3 0 .8 0 1.1.1 1.6-.3 0-.2.2-.3.4-.2.1 0-.7-.2-.7.1 0-.1.3-.1.2-.1-.2 0-.3 0-.5-.2-.7-.8-1.2-.7-2 .1.2.5.1.6.3-.1-.4-.7-.3-.8-.7.2-.1.2.3.3.1-.2-.2-.4-.2-.4-.5.2 0 .3.1.4.1-.2-.1 0-.3-.1-.4-.2.4-.5-.3-.7-.4 0-.9-.3-1.6-.4-2.3-.1 0-.3.2-.2-.1.3-.2.4.4.8.2-.2.2.4.3.6.4zm1.2 6c0 .2.1.5-.1.6 0-.1-.2-.6.1-.6zm.2 1c0-.4-.2-.9.1-1.1-.1.4.1.9-.1 1.1zm.8-4.2c.1-.3.2-.9.5-.7-.2.3 0 2.1-.8 1.9 0 0 .2.3 0 .3-.3-.8-.1-1.8-.1-2.6 0-.1-.1-.2-.1-.3-.1-.7 0-1.6-.1-2.2 0-.3-.3-.8.1-1 .1 0 0 .3.1.3-.1-.2.2-.1.3-.2 0 .3-.1 0-.2.1.1.2.1.6-.2.7.2.2.6.9.3 1.2.1 0 .3.2.2.2 0-.1-.2-.3-.2-.1.1 0 .2.3.2.4.1.4 0 1-.2 1.3.1-.2.2-.3.4-.1 0 0-.1 0-.1.1 0 0 0 .1-.1.1 0-.1 0-.1-.1-.2 0 .1-.1.2-.1.3.1-.1 0 .5.2.5zm-2.6-3.3c0 .3-.2 0-.3-.1.1 0 .2.1.3.1zm15.3 31.5c0 .1.1.1.2.2-.1 0-.3-.1-.2-.2zm-79.6 1.9c.1.3.3-.1.3.2h-.1c-.2 0-.4 0-.5.1h-.1c0-.2.4-.2.5-.4.2-.1.1.1-.1.1zm-6.1 1.2h-.1l-.3-.3c.1 0 .1.1.1 0 .2 0 .2.3.3.3zm-1.8.2c-.1.1-.1.2 0 .2h-.2c-.2 0-.1-.1-.4.1.1-.3-.3-.3-.3-.6h.2c0 .1-.1.1-.1.1.4.2.3.1.8.2zm88.9-3.8c0 .1 0 .2-.1.2.2-.2-.2 0-.1-.3.1 0 .2 0 .3-.1.1-.1-.3.1-.1.2zm2.7.3c.1 0 .1.1.1.1.1 0 0-.2.1-.2.1.1 0 .3.2.2-.1.1-.2.1-.4-.1 0 .1 0 .1 0 0zm-.2 0c0 .1.1.1.1.2h-.2c.1 0 .1-.2-.1-.1 0-.1.1-.1.2-.1zm.7-.2c-.1 0-.3-.3-.3 0 0 0 0-.1-.1-.1 0 0 .1-.1.1-.2.1.2.4-.1.3.2-.1-.2-.1.1 0 .1zm-3.6.6c-.1 0-.1.1 0 0-.2-.1.1 0 .2.1-.1.1-.3.1-.2-.1zm0-.3c0 .1-.1.1-.2.2 0 0 .1-.1 0-.1 0-.1 0 0 0 0 .1 0 .2-.1.2-.1zm1 .1c0-.1.1-.1 0 0 .1-.1 0-.2 0-.2.1-.2.1.1.2.1 0 0-.1.2-.2.1zm-.5.1c0-.1 0-.1 0 0 .1-.2.1 0 .2-.1-.1.2-.1 0-.2.1zm-84.5 2.6c.2-.2.3-.2.7-.3v.2h-.1c-.3 0-.5 0-.6.1zm85.2-2.5v.3c0-.2-.2.1-.2.2-.1-.1-.1.1-.2 0 0-.1.1-.2.1-.2s-.1 0-.1-.2v.1c.2.1.2-.1.4-.2zm.2.4c.1-.1.1.1.1.1-.1 0-.1.1-.2.1 0-.1.2-.1.1-.2zm2.1-.2c.1.1-.1.1-.2.2 0 0 0-.1-.1-.1s0 .3-.2.2h.1c0-.1-.1 0-.2-.1.1-.1 0-.1-.2-.2 0-.1.2 0 .2-.1 0 .1.5 0 .6.1zm.5-.1zm-.4-.2c.1 0 0 .3-.1.2 0 0 0-.1.1-.2h-.1c0-.1.1.1.1 0zm.4.2c.1 0 .2 0 .2.1s-.1.2-.2.1c.1-.1.1-.1 0-.2zm-3.6-.4c.2-.1.3-.1.6-.1v.2c-.1 0-.1 0-.1-.1-.2.1-.3 0-.5 0zm-1-.1c-.1-.1 0-.1.1 0 0-.1 0-.1-.1-.1.1-.1.1-.2.2-.1-.2.1.3.1.2.3-.2-.3-.3.1-.5.1.1 0 .2-.2.1-.2zM96 46.7c0-.1 0-.3.2-.3 0 .2 0 .4-.2.3zM29.5 67.3c0-.2-.1-.2-.3-.2 0-.4.2.1.4 0 0 0 0 .1-.1.2.1 0 .1 0 0 0zm82.6-2.3c.2 0-.2 0-.2.1-.1 0-.2 0-.1-.1h.3zM26 67.9h-.1c.1 0 0-.2 0-.1 0-.1 0 0 .1.1zm85.7-2.9s.1.1.1.2c-.2 0-.1-.1-.1-.2zm3.7-.5c.1-.1.1.1.1.2-.1-.1 0-.2-.1-.2zm-88.4 3c-.2.3.2.1.4.2-.2 0-.4.1-.7.1.1-.2.1-.4.3-.3zm89.5-2.4c-.1-.1-.1-.1-.1-.2 0 .1.1.1.1.2zm-82 1.4c.1 0 .1 0 0 0 .1 0 .1 0 0 0zm0 0c-.1-.1-.3-.1-.3-.3.1 0 .4.1.3.3zm.1 0zm80.6-2.1c0-.1-.1-.1 0-.2.1.1 0 .2.1.3-.1-.1-.2-.2-.4-.3.1 0 .3.1.3.2zm-82.4 2.3zM31 67c.1-.1.2-.1.4-.1-.1.1-.2.1-.4.1zm2.8-.7c.1 0 .1.2.1.3h-.1v-.2c0-.1-.1 0-.1-.1-.2-.2.1.2.1 0zm.2 0c.2 0 0 .1 0 .2h-.1s.1 0 .1-.2zm.3.1s0 .1 0 0c0 .1-.1.1-.1.1l.1-.1zm68.8-26.3c0 .1 0 .2.1.3-.2.1-.2-.3-.1-.3zm-8.7 4.1h-.2c0-.1 0-.3.1-.2 0 .1.1.1.1.2zm-1.2-1.1c.6.1.8.2 1.2.4-.1 0-.2 0-.2.1-.1-.3-.4 0-.7-.1 0-.3-.2-.3-.3-.4zm.5 2.2c-.1.2.2.3 0 .4 0 0-.2-.4 0-.4zm.5-1.6c-.1.1-.4.2-.5 0 .1-.2.4-.2.5 0zm.1-1.2c-.2 0-.2-.2-.2-.3.2 0 .2.1.2.3zm-1.1 3.8c.1.3.1-.4.2-.1 0 .1-.1.3-.2.3 0-.1 0-.1-.1-.1 0 0 0-.1.1-.1zm.6-1.3c.1 0 .1-.1.2-.2 0 .2-.2.4-.2.2zm-.1-2.1c.2-.1.4-.2.7-.1 0 .4 0 .3.2.6-.2-.1-.6 0-.7-.2 0-.1.3 0 .3-.1-.3-.1-.3.2-.4.2 0-.3.1-.3-.1-.4zm.8 2c.2 0 .2.1.2.3-.3.1-.2-.1-.2-.3zm.7-3.5c.1.2.3.3.4.5-.1 0-.1 0-.2.1 0 0 .1.1 0 .1-.1-.2 0-.3-.2-.1 0-.1-.3-.1-.1-.2.3.2-.2-.3.1-.4zm1.1-11.6c.1-.1.4-.1.2.1 0-.2-.2.2-.2-.1zm-.8-.4c-.4.1-.3-.3-.5 0 0-.4 0 .1-.2 0 0-.3.6-.3.7 0zm-2 3.4c0-.1 0-.5.1-.3 0 .1 0 .6-.1.3zm1.1 9.5c-.2-.5.3-.3 0 0zm-1.1-1.5c0 .1 0 .3-.1.2 0-.1.1-.3.1-.2zm1.1 4.9c0-.1-.1-.4.2-.3-.1.2-.1.3-.2.3zm-.6-3.2c-.2.1-.6 0-.7.1.2 0 .5-.1.6.1-.4 0-.5.1-.8.2-.1-.2.1-.2.1-.3-.3 0-.7-.2-.6-.4 0 .2.3-.5 0-.3-.1-.2.5-.4.4-.1.6 0 1 .2 1 .7zm.3 2.7c0-.1 0-.7-.1-.9h.4c-.1.2 0 .2-.1.3-.1-.1 0 .9-.2.6zm-2-14.5h-.5c0-.2.2-.2.3-.4.1.2.2.2.2.4zm1.1 3c0 .1 0 .1 0 0l.1.2c-.2.2-.2-.2-.1-.2zm1.3 5c0 .1 0 .3-.1.2 0-.1.1-.3.1-.2zm-1-5.9c0 .1.1 0 .1 0 0 .2 0 .5.1.5 0-.1 0-.1.1-.1.2.2.6.7.5.9-.1-.1 0 .4.2.6-.1-.1-.3.2-.3 0 .1 0 .2-.2.1-.2 0 .1-.1.2-.2.2-.1-.4-.4-.6-.7-.9 0 .1 0 .3-.1.2.1-.3-.1-.3.1-.5 0 .1.1.1.2.1v.3c.1-.2.2.2.3 0-.1-.3-.4-.4-.5-.7.1-.2 0-.3.1-.4zm-1.6-3.7c-.2.1.2.3.1.6-.1 0-.2.1-.3.1-.1-.3-.4-.4-.5-.6.3-.1.6-.2.7-.1zm.6-.1c.3-.1.2.3.3.4-.3.1-.2-.3-.3-.4zm1.1-.1c0-.1-.1-.2 0-.2 0 .1.1.2 0 .2zm-1.4 1.9v.4c-.4 0-.7-.1-1-.2.2-.3.5-.1 1-.2zm4.5-1c-.5-.1 0 0 0 0 .2 0 .1 0 0 0zm-3.4-1.4c-.1.2.3.2.1.4 0-.1-.2-.1-.2 0-.1-.2 0-.3.1-.4zm1.7 14.8c0 .1 0 .2-.1.3-.1 0-.2-.1-.3-.1 0-.2.2-.2.4-.2zm-3.7-13.7c.1-.1.2.1.2.1.1.2-.3 0-.2-.1zm3.4 12.7c.3.1.1.3.3 0 0 .1.1.1.1.1 0 .1 0 .2-.1.2 0-.4 0 .1-.1.1 0-.1-.1-.1-.2-.1v-.3zm0 2.7c.2.3-.3.3 0 0zm-.2-2.2c0 .1.1.2.1.3-.2.1-.2-.3-.1-.3zm-.1-13.8s0 .1 0 0c-.2.1-.1-.3 0 0 0 0-.1 0 0 0zm.8 14.3c.1.1-.1.4-.1.2-.1.1.1-.2.1-.2zm-1-14.6c0-.1 0-.2-.1-.2.2 0 .3.1.3.3-.2 0-.4.1-.4.1.2 0-.2-.4 0-.4.1 0 0 .2.2.2zm.5.1s-.2-.3 0-.3c0 .1.1.3 0 .3zm1.8 14.2c-.4-.1-.6-.3-.8-.5.4.1.6.3.8.5zm6.4 3.3c0 .3 0 .5-.2.7 0-.3.1-.6.2-.7zm-.1 1.4c0-.3-.3-.4 0-.6.1.1.3.5 0 .6zm-.1-2.7h-.1c0-.1-.1-.1-.1-.2h.2v.2zm-.9-.3c.1.3-.1.3-.3.3v-.3h.3zm.7 2.2c0-.2 0-.5.2-.5 0 .2 0 .5-.2.5zm.3 1.7c.1.2.1-.2.1-.3-.1-.2-.1.2-.1.3zm-.8-3c.1.1.1 0 .3 0 0 .3-.3.7-.1.9.1-.2.1-.6.3-.7.1.5 0 .7-.1 1.1-.3-.2-.7-.7-1-.6.4.2.7.5 1 .7 0 .4-.1.7 0 1 0-.2 0-.4.1-.5.5-.1.1.7.3.9.1-.4-.1-.9.1-.8.1.3.3.8.3 1.3.1-.1.1-.4.2-.6.4 0 .2.6.4.8 0-.4.1-.2.3-.2-.3-.2-.5-1-.1-1.3 0 .2 0 .4.1.5 0-.1 0-.3.1-.3 0 .3.2.5.3.2.1.2.1.4.2.5.1-.2-.1-.7 0-.5.1.2.2.6.4.7.1-.2-.2-.4 0-.5 0 .1.1 0 .1-.1.3.7-.1 1.1.1 2-.5-.2-.8-.6-1.1-.9-.1.3-.3 0-.5-.1 0 .2 0 .4-.1.5-.2-.2-.7-.5-.5-.8-.4.2-.4-.4-.5-.7 0 .1-.1.2-.1.2-.5-.6-.9-1.2-1.5-1.6 0-.1-.1-.4.1-.4.1.2.1-.2.1-.3.2-.1.3.2.3 0-.3 0-.2-.4-.2-.7.2-.1.4.2.5 0-.2 0-.3-.1-.5-.1.1-.3.5-.2.8-.2 0 .5-.2.7-.1 1 .2-.4.2-.8.4-1-.3.4-.3.6-.4.6zm.7-5.6c0 .1.1.2.1.3-.1-.1-.2.2-.3 0 0 0 .1 0 .1-.1-.1 0-.1 0-.2-.1.1.1.2 0 .3-.1zm-.3 4.9c0 .1 0 .3-.1.1 0-.1.1-.2.1-.1zm.7-.8c-.1-.2.2-.3.2-.1-.1-.1-.1.1-.2.1zm-.3-.4c.1.1.2.3.2.5-.1 0-.3-.4-.2-.5zM22.3 67.4c0-.1.1-.1.1-.1 0-.1 0-.1-.1-.1 0-.1.3 0 .2-.3.3 0 0 .4-.2.5zm82.2-25.3c-.1.2.1.3.1.4-.4.1-.5-.1-.7-.2.1-.4.3-.2.6-.2zm-.2-1.1h.2v-.1h-.2v.1zm.8 1.5h.1v-.1h-.1v.1zm-1.2.4c0 .1 0 .1 0 0l.1.2c-.2.2-.2-.2-.1-.2zm.2-1.8c.3-.2.4.3 0 0zm-.5 6.7c0-.8.3.5-.1.4 0-.2.1-.2.1-.4zm-1.8-3.7c-.1.2.1.3.1.4-.4.1-.2-.4-.1-.4zm-4.2-12.6c.4 0 .1.3 0 0zm.4.1c.4.1-.3.2 0 0zm0 .2c.3-.1.5 0 .6.2-.3 0-.5-.1-.6-.2zm.7.1c0-.2-.4-.1-.4-.3.1.1.7.1.4.3zm-.3-.5c-.3.1-.8 0-.5-.3.1.2.5.1.5.3zm-.8-1c.1.3-.5.2-.5.1.2 0 .3-.2.5-.1zm0 .9c.1-.2-.5-.1-.3-.2.3-.1.6 0 .3.2zm-.1-.6c.1 0 .1-.1.2-.1.1.2-.3.2-.2.1zm-.6.2c.3 0 1-.3 1.1.1-.1-.2-.7.1-1.1-.1zm2 1c-.1-.2-.1-.3.1-.2 0 .1 0 .2-.1.2zm2.1 2.4c0 .6-.3.4 0 0zm.2 2.1c.2.3-.2.1 0 0zm.4 6.7s-.3 0-.2.1c-.2-.2.2-.2.2-.1zm.1.3v.2c-.2.1-.2-.3 0-.2zm-.1.3c.1.1.2.4-.1.4.1-.3 0-.4.1-.4zm-1.1-7.4c-.3.4.2.5 0 0zm-.7.5c0-.1 0-.5.1-.3 0 .3-.2.6 0 .8.1-.5 0-1.1.2-1.4 0 .1.2.4.2.2-.3-.1 0-.4-.2-.5.3-.1.5.3.5.4.1 0 .4.3.4.7.1 0 .3 0 .3.1-.2.4.2.1 0 .7-.4-.1-.2.4-.5.4 0-.3.3-.4.4-.7-.1 0-.2 0-.2-.1 0 .4-.2.6-.4.9-.1-.2.2-.4 0-.5-.1.1 0 .4-.1.4-.1-.2 0-.5-.2-.6 0 .5 0 .5-.2.2 0 .5.2.7-.1.9 0-.3-.4-.3-.4-.3.2 0-.2-.2-.2-.2.1-.6.1-1.3.4-1.7 0 .1-.2.5 0 .6zm-.4-.4c.1.5 0 1.1-.3 1.4 0-.7.1-1 .3-1.4zm2.6 4.7c0-.1-.4-.1-.1-.2-.1 0 .4 0 .1.2zm-1.4-6.1c.1 0 .1 0 .2-.1-.1 0-.1 0-.2-.1.1 0 .2 0 .2-.1 0 .2.1.2.1.4-.1-.1-.2.2-.3 0 .1 0 .1 0 0-.1zm.2.5c-.1 0-.1-.1 0 0 0 0 .1 0 .2.1-.2.1 0 .3 0 .4-.2-.1-.3-.4-.5-.5.1-.1.2.2.3 0zm-6.7-6.8c-.2.4-.2-.2 0 0zm-5 9.1c0 .1 0 .2.1.3-.2.2-.2-.3-.1-.3zm.1-.1c-.1-.1-.2-.5 0-.5 0 .1.2.4 0 .5zm-.3-1.9c.2 0 .4.3.1.4.1-.3-.1-.2-.1-.4zm.2-.9c.2 0 .2.1.2.2-.4.1-.5-.5-.2-.6 0 .1.4.3.2.4-.1-.1-.2-.1-.2 0zm1.5-1c.1.3.3.7.2.8 0-.1-.1 0-.2 0-.1-.1-.2-.7 0-.8zm-.3-.4c-.2-.2-.2-.3.1-.4 0 .1.1.4-.1.4zm0 7.9c0-.1 0-.3.1-.1 0 0 0 .2-.1.1zm-1.1-6.8c-.2-.3-.1-.5-.2-.7 0 .1 0 .3-.2.2.1-.4.1-.3 0-.7.6.3 1.6 1 1.4 1.5-.3-.3-.6-.3-1-.3zm-2.5-9.8c.1.2.2.8-.1.9.2-.2-.2-.6.1-.9zm.7 17.7c0 .1.2.4 0 .4-.4-.2-.1-1.6-.4-1.7.1-.5.2-.9.3-1.2.5-.1.1.3.4.4-.1.2-.4-.1-.4.1.1.2.1 0 .4.1 0 0 .2.4 0 .4-.1-.1 0-.3-.2-.2.5.4.4 1.2-.1 1.7zM87 28.4c0-.4.2-.5.3-.8 0 .3-.2.5-.3.8zm4.3 18.9c-.1 0-.1.2-.3.2-.1-.3.3-.4.3-.2zm-4.8-18.6c.1-.6-.1-1.1.6-1.2 0 .4-.4.9-.4 1.1 0-.1.1-.1.1.1h-.3zM87.9 42c0-.5-.1-1.1.1-1.4h.3c0 .5-.2 1-.4 1.4zm.9-6.3c-.1.2.2.4 0 .5 0-.2-.4-.5 0-.5zm-.9 4.2c.1-.5-.2-1 0-1.4 0 .7.5.9.7 1.4-.4.1-.4-.2-.7 0zm-.1-3.3c.2.7 1.2 1.3.6 2 .3.1-.1.2.1.4.1 0 .1-.2.2-.1s.1.4.1.7c-.4.1-.4-.2-.5-.4-.7-.3-.1-1.3-.2-1.7-.1.1-.1.5-.3.7-.1-.4-.2-1.3 0-1.6zm1.1-1.4c0 .1.2.1.1.2s-.3-.1-.1-.2zm7 1.9c0-.1.1-.3.1-.1 0 0-.1.2-.1.1zm-.5 10.3c-.1-.3.1-.4.3-.5 0 .3-.2.4-.3.5zm-4.2-12.5c-.1-.2-.5-.6-.3-.8.1.1.2.1.3.1-.2.2.3.4 0 .7zm4.3 3.6c.2 0 .2.2.3.3-.2 0-.2-.2-.3-.3zm-.2 8.3c0-.2.1-.2.2-.3 0 .2-.1.3-.2.3zm-.4.7c-.3-.2-.3-.6-.3-.7 0 0-.1-.3-.1-.4.1-.2.2.2.3 0-.2-.1-.1-.5.1-.6-.1.4.2.8-.1.8.7.2-.1.6.1.9zM96 40c.1 0 .2.1.2.2-.1 0-.2-.1-.2-.2zm-9.2-15.8c0 .2.1.6-.1.7 0-.2-.2-.7.1-.7zM96 39c-.1.2.2.5 0 .6 0-.2-.4-.6 0-.6zm0 3.9c-.1 0-.2 0-.2-.1.2 0 .4.3.3.3 0-.2 0-.2-.1-.2 0 .2-.1.2-.2.1.1-.1.2-.1.2-.1zm-.8 3.4c.2.3-.2-.3.1-.3 0 .1.2.4 0 .5-.1-.1-.4-.1-.1-.2zm-1.7 3.5c.1-.3-.1-1.4.1-1 0-.3-.2-.6 0-.8 0 .5.1-.3.2.1 0-.3.2.1.2-.1-.3-.3-.5-1.1-.4-1.5 0 .1.1.1.2.1-.1-.2-.1-.1 0-.4.2-.1.3.2.3 0 0-.1 0-.2.1-.2.1.5.2 1.1.5 1.4 0-.3-.4-.7-.1-.8.6 1.1-.2 1.7-.6 2.5-.3.4-.2.6-.5.7zM92 48.7c0 .1-.1.2-.2.2 0-.1.1-.2.2-.2zm0-15.6c0 .1 0 .2.1.3 0-.1-.1-.2-.1-.3zm.4.9c0-.3-.1-1.2.1-1.2 0 .3 0 .6.1.7 0-.4-.1-.6.2-.7.2-.6 0 .9.2 1 .1-.2 0-.6.1-.7 0 .3.2.4.2.7-.2-.1-.1.2-.3.2 0-.1 0-.2-.1-.2-.1.6-.4.3-.4.7-.8-.5-2.1-.8-2-1.9 0 .1.2-.3 0-.4.3-.1.3.4.4.2-.1-.2-.5-.4-.2-.6 0 .1.1.2.2.1-.6-.5.3-.5-.1-1 .1 0 .4.1.4-.1-.5 0-.6-.5-.8-.8.3-.1.6-.1 1-.1 0 .2 0 .4-.1.4.1 0 .2.1.3.1 0-.3.1-.3.2-.4 0 .1.1.2.1.2.1-.2-.1-.3.2-.3 0 .1.1.1.2.2-.1.3-.2.2-.3.6-.2 0-.6-.1-.7.1.3-.1.5.1.2.2.4 0 .6.2 1.1.2-.1.6-.3 1.1-.2 1.7 0 0 0-.1.1-.1.2.3 0-.7.2-.4-.4.6-.5 1.2-.3 1.6zm-.3 4.7c-.2.1-.3-.3-.1-.4.1.4.4.4.4.9-.4.1-.5-.3-.3-.5zm-.2-3.5c-.1-.3-.2-.5-.4-.8.3 0 .3.2.4.3.1-.2.6.2.4.4-.3.1-.1-.4-.4-.3 0 .1.3.6.1.4 0-.2.1-.2-.1 0zm.2-6.3c0-.3-.7-.3-.3-.5-.3.1-.4-.1-.5.1.1.1.4.1.5.2.1.3-.2.3-.4.4-.1-.2-.2-.3-.4-.5.1 0 .2.1.2 0s-.2-.1-.3-.1c0 .1 0 .1-.1.1 0-.1-.1-.1-.2-.1.3 0 .5-.1.5-.3.6 0 1.1.4 1 .7zm.6 21c0-.1-.3-.2-.2-.6-.3.1-.4-.1-.5-.3.1 0 .2.1.2 0 0-.7.3-.7.5-1 0 .5.2.7.1 1.1.4-.2.1.3.3.4 0-.4-.2-1.1.1-1.3.4.8.5 2.4-.5 2.5-.2-.3-.2-.9 0-.8zm-.9 1.4c0-.4 0-.7.2-.9 0 .1.1.2.1.2 0-.1-.1-.5 0-.3s.1.2 0 .4c.2-.1.1 0 .2.1 0-.1 0-.2-.1-.3.2 0 .2.1.2.3-.4 0-.3.1-.5.4 0-.1-.1.1-.1.1zm-.3.6h.1v-.2h-.1v.2zm1.8 1.6c.1-.1 0-.4.2-.5 0 .1.1 0 .1.1-.1 0-.2.5-.3.4zm-3.5-24.2c0-.1 0-.2.1-.3.3 0 .4.2.5.4-.3.3-.7.1-1.1.2.2 0 .4 0 .4.2-.3.1-.7-.1-.8-.3.4 0 .3 0 .1-.2.3-.1.6-.1.7-.4.1.1-.1.4.1.4zm-1.6 7.5c-.1.2-.4-.1-.1-.2 0 .1.1.1.1.2zm2.7-8.7c0 .3-.2.3-.5.3 0-.3.3-.3.5-.3zm-3.6-2c0 .3.1.6-.1.8 0-.3-.1-.7.1-.8zm1 8.4h.2c-.2.2.1.4-.1.5 0-.1 0-.3-.1-.5zm.3-.8c.1.1.1.5-.1.5 0-.2 0-.3.1-.5zm.8-4.8c-.3.1-.6.4-.8.3.3-.2.6-.7.8-.3zm-.8 4.2s.2.3 0 .3c0 0-.2-.2 0-.3zm1.3-4.4c-.1-.3.4-.4.4-.1-.2-.1-.3 0-.4.1zm-.4 3c0-.1-.4-.3-.2-.4.1.1.4.3.2.4zm.9 2.7c-.4-.4-1.2-.6-1.1-1.3.3.2.7.4 1.1.6v.7zm-1.3-1.3c0 .1.1.2 0 .2 0-.1-.1-.2 0-.2zm.4-.9c.1.3.2.6.5.6 0-.1-.3-.2-.1-.3.2.3.2.4.2.7-.5-.1-.8-.3-1.1-.5.6.4 0-.5.5-.5zm1.2-2.5c0 .4.5-.3.5.1 0 .2-.1-.1-.2-.1 0 .3-.7 0-1 .2.1-.3.4 0 .7-.2zm-.2-.8c.1 0 .3 0 .4-.1-.2-.1-.3.2-.4 0 .1 0 0-.1 0-.2.2.2.6.2.6.6-.2-.1-.2.1-.5.1 0-.2-.1-.2-.1-.4zm-.2 1.7c0 .1.1.2 0 .2 0-.1-.2-.2 0-.2zm.6-1.1c.1-.1.2-.1.4-.1v.1c0 .2-.3 0-.4 0zm-.7.9c0-.2-.3-.1-.4-.2.3-.1.6.1.4.2zm-1.4 4.2c0-.1-.1-.4.1-.4 0 .1.1.3-.1.4zm1.3-14.2c0-.2.1-.4.3-.4 0 .3-.2.3-.3.4zm0 .2c.2-.1.2-.4.4-.4 0 .2-.2.6-.4.4zm.3-2.6c0 .2-.1.6-.1.4 0 0 0-.3.1-.4zm-.2.3c-.2.6.1-.5 0 0zm-1.7 2.5s0-.1 0 0c-.1-.2-.1-.3.1-.2 0 .1 0 .2-.1.2zm1.9-2.2c0-.2 0-.5.2-.4.2.1.1.4-.2.4zm-2.5 6.8c0 .2-.3.4-.1.5.1-.3.2-.8.5-1-.2.7-.3 1.4-.6 1.9 0-.4 0-.6-.3-.8 0-.3.3-.4.5-.6zm.5.8c.1-.1.2-.3.3-.5.1-.2-.5.7-.3.5zm.6-.9c0-.2-.4.7 0 0zm-.4-.8c.1-.4 0-1.1.3-1.3-.2-.3.2-.6.4-.8.1.3.4.4.6.4-.1 0-.2-.1-.1-.2 0 .1.3.1.2.3-.1.1-.4.1-.5 0-.3.4 0 .9.2 1.3-.3.1-.2.2-.4.6.2 0 0 .4.2.6-.6.8-1.2 1.7-1.9 2.5-.1-.5.5-1 .7-1.5-.3 0-.3.7-.5.5.2-.3.4-1.3.5-1.9.1-.4.3-.9.3-.5zm-.3-2.8c.1 0 .5.2.3.2 0-.1-.2 0-.3-.2zm-.4 14.6s-.2-.3 0-.3c0 .1.3.2 0 .3zm-.2 2.7c0 .2.1.5-.1.6-.1-.1-.1-.6.1-.6zm-.1-1.1c.1.1.2.7-.1.7 0-.2-.1-.6.1-.7zm-.1-2.1c0 .2.1.6-.1.7 0-.4-.2-.5.1-.7zm3.1-14.4c-.4.1 0-.2-.2-.2s-.1.2-.3.2v-.1s-.1-.1 0-.1c0 .1.2-.5.5-.5.3.3-.1.4 0 .7zm-3 13.1c0 .3.3.4.3.7 0 0-.1 0-.1.1.2.4-.4-.6-.2-.8zm2.8-12.9h.1v-.1h-.1v.1zm-3 6.5c0-.1 0-.3.2-.3 0 .2-.1.3-.2.3zm.1-.9s-.2-.3 0-.3c-.1.1.2.2 0 .3zm-.5 2.4c0-.3.1-.4.1-.7.3.1.4.8-.1.7zm34.3 36.1c.1.2.1.1.3.1.1.1-.1.3.1.2 0 .1-.1 0-.1.2-.1-.1-.1-.3-.3-.1-.1 0 0-.2.1-.1v-.1c-.1.1-.1-.1-.3 0-.1-.1.1-.1.2-.2zm-31-1.9c.1.1.1.2.3.1 0 0 0 .1-.1.1h-.2v-.2zm-.3.2c-.1-.1-.1-.2-.2-.1.1-.3-.1-.3 0-.5.1.2 0 .5.4.4v.2H90zm-7.4-.8c.1 0 .1 0 0 0zm21.5.3s0 .1 0 0c-.1.1 0 .2 0 .2h-.1.1c0 .1-.2.1 0 .1 0 .1-.1.1-.2 0 0 0 0-.2.2-.3zm-18-1.1c.1-.2.3.1.2.3-.2-.1-.1-.3-.2-.3zm1.1.9c0-.1.1-.1.1-.2s-.1-.1-.1-.1c0-.3.2.2.2-.1.1.1-.1.5-.2.4zm-1.4-.4c0-.3.2-.3.4-.3 0 .2.2.2.3.3-.2 0-.3.1-.4.1 0 0 0-.4-.3-.1zm1.1-.6c.2.1 0 .5.3.3-.1.2-.4.1-.6 0-.1.1-.1.1-.1-.1.2-.1.1.2.3.2.1 0 0-.3.1-.4zm1.7 1.5c0-.1 0-.1-.1-.1.1-.3.2-.4.2-.6.1-.2.2.1.3.1-.1.1-.2.2-.1.4-.1.2 0-.2-.2 0-.1.1 0 .1-.1.2h.1c.1 0 .1.1 0 .1h-.4c.1-.1.2-.2.3-.1zm-2.6-.4c0-.2.3-.1.3-.2 0 .5.8.1.9.3.2.1-.2.2-.3.3-.1-.1-.1-.1-.1-.2-.1 0-.1.3-.1.4h-.1.1c0-.2-.2 0-.3-.1.1-.5-.1-.5-.4-.5zm-3-.3c0-.2-.1-.3-.3-.3.1-.3.2.1.4.1 0 .1-.1.5-.3.3 0-.1.1-.1.2-.1zm21.4.7c-.1-.1.1-.1.1-.2 0 0 0 .1.1.1-.1.2-.2-.1-.2.1zm-.1.5c0 .1-.1.2-.3.1.1-.1.2-.1.3-.1zm-16.2-.7c0 .1-.1.2-.1.3-.2-.2-.1-.1-.3 0 0-.3.2-.2.2-.4.1-.1-.1.3.2.1zm16.4.8c0 .1 0 .1-.1.1 0 .1.1.1.1.2-.1.1-.1-.1-.2 0 .1.1 0 .2.1.2 0 .1-.1.1-.2.1v-.1h-.1c.1-.1 0-.2 0-.4.3 0 .3 0 .4-.1zM91.7 64c.1 0 .1 0 .2.1-.1-.1-.2-.1-.2-.1-.1 0 0 0 0 0zm12.1-1.2c-.1-.1-.1 0-.2 0 0 0 0-.1-.1-.1 0-.1.1 0 .1 0 0-.3.1.2.2-.1 0 .1-.1.1 0 .2zm-3 1.9s-.1 0 0 0c-.1 0-.1 0 0 0 0-.1 0 0 0 0zm-.9-.1h-.1.1zm-1-.1c-.1 0-.1 0 0 0-.2-.1-.2 0-.3 0h-.1c.1-.4.2-.2.4 0zm3.4-1.2c.1.1.1 0 .2 0v.1l-.2-.1c0 .2 0 0 0 0zm-7.1 1c.1-.1.2-.1.4-.1 0 .1.1.1.2.2-.2-.1-.4-.1-.6-.1zm6.9.2c0-.1.1-.1.3-.1 0 0-.1.1-.3.1zM87.9 47.4c.1.2.1-.2.1-.3-.1-.2-.1.2-.1.3zm1.2-1.1c0 .1.1 0 .1-.2 0-.1-.1.1-.1.2zm.2-.7c0-.1.1-.4-.1-.4.1.1-.1.4.1.4zm1.6 2.3c0 .2.1-.1.2-.1 0-.3-.1.1-.2.1zm-.3 6.1c0 .2.3 0 .2-.2 0 .1 0 .2-.2.2zm2.4 7.8c.1.1.1 0 .2.2-.1.1-.2.2-.3.1.1.3.1.2 0 .5.1-.1.4-.4.4-.6-.1-.2-.2-.2-.3-.2 0-.1 0-.1 0 0zm3.1-12.3c.1.2.1-.3.1-.4-.1-.3-.1.3-.1.4zm-9.9 1.1c0-.4.1-.7.2-1 0-1-.2-2 .1-3.1.2.6.1.4.2-.2 0 .4.5.1.4.7.2-.2.1.2.2.4s0-.5.1-.7c.1.1.2.6.1.7.1 0 .2.1.2.5.3-.6 0-.7.2-1.4.2 0-.1.5.2.4 0-.6.3-.8.1-1.5.3.1.1.7.2.9.1-.3.6-.6.5.1.1.2.1-.4.1-.6.3.4.1-.6.4-.7 0 .3.3 1.2.2 1.3-.1.3.2.2.4.4 0-.2.3-.2.2-.4.2.3 0 .5.1 1 .1 0 0-.2.2-.2.1.2.2.4.1.7.3-.2.4-.2.8-.3.2.1-.3.3.2.3 0 .3-.5.5-.3.7-.2.2-.4.3-.6.4 0 .1.1.1.2.1-.5.5-1.1 1-1.8 1.3.1.2.2-.1.3 0 0 .3-.4.3-.5.5-.1.1-.1.2-.1.2-.3.3-.5.8-.5.7-.1.5-.2 1.1-.6 1.4.1.2.2-.2.3-.1.3.2-.2.4-.2.7.3-.3.5-.7.8-1.1.2.3-.3.5-.2.9.2-.1.2-.4.4-.5.2 0-.3.4.1.2-.2.2-.1.5-.1.7.1-.2.2-.3.4-.3.1-.7.7-1 .8-1.6.2.2-.1.4-.1.7.3-.2.3-.7.5-1 .1.4-.3.9-.4 1.3.2-.3.1.3.2.4.1-.1.2-.2.2 0 .1-.3.3-.4.2-.8.2.3.1.4.1.7.3-.3.2-1 .4-1.4.2.1.2.2.2-.2.2-.1.1.2.2.3 0 .2-.1.3-.4.3 0 .1.1.2.1.3.1 0 .2-.1.2 0 .2-.2.2-.2.5-.4-.1.7-.5 1.1-.9 1.6 0 .1.2.1.1.3.2 0 .1-.1.2-.2.2.3-.3.6-.4.8.1 0 .5.2.2.4.1 0 .1.1.4.1-.1.2 0 .2 0 .4.2-.1.2-.4.3-.6.2.1-.1.4.1.5.1-.1.1-.3.2-.5.2.4 0 1 0 1.3.2-.1.2-.3.2-.5.1.4.2-.1.3-.3.2.1 0 .2.1.5.3-.1.1-.5.1-.8 0-.4.1-.8.2-1.1.2.1 0 .6.1.8.1 0 .1-.1.1-.2.3.7 0 1.2.2 1.9l.1-.2c.2.2.2 1 .3 1.3.2 0 .3-.1.5-.1-.3-1.3.3-2.4.1-3.3.2 0 0 .3.1.5.1.1.2-.5.2-.7.2 0 .1.2.2.3.1-.3.1-1 .1-1.3.2 0-.2.2.2.1-.2-.5-.1-1.1-.6-1.3.2-.3.1-.8.3-1.2.2 0 .3 0 .4-.1-.1-.3-.3-.7-.1-1-.1-.2 0 .4-.4.2 0-.1.1-.1.1-.1-.4-.1-.7-.3-1.1-.3.2-.6.5-1 .8-1.5.3.1 0 .3 0 .5.1-.1.1-.1.1-.2.2.1.1.6.4.6-.3-.4-.5-1.3 0-1.6.2.3-.1.3.3.4.1.2-.1.2-.1.4.3-.2.3-.8.6-1.2.2.1.1.3.1.5-.1 0-.1 0-.1-.1-.1.4-.3.6-.5 1s-.3.7-.3 1.1c.3-.6.5-1.2.8-1.8.2.3-.3.9-.2 1.2.1-.2.3-.3.2.1.2 0-.1-.7.2-.9.2.6 0 1.1.2 1.9.2-.6 0-1.8 0-2.7.1-.1.1-.3.2-.3.2 0 0 .3.2.4 0 .1-.1.2-.2.2.3.3.1.8.4 1.2-.4.6.1 1.3-.4 1.6 0 .2 0 .3.2.2 0 .5-.3.6-.2 1.1-.6.3-.5 1.5-.4 2l.1-.1c.2.6.2 1.2.2 1.8-.1.1-.2.2-.3.2l.2.2c-.2.2.4 1.1.3 1.7-.1.4-.2.5-.6.9.6-.5.6.6.4 1-.2-.2-.1-.6-.2-.9-.2 0-.2.3-.5.3.1.5.3.9.6 1.2.1 0 .1-.1.1-.2.2.5.1 1.4 0 2.2h-.1l.1.1v.3c-.1 0-.1-.1-.2 0-.1.2-.1.3-.1.5-.1 0-.2 0-.2.1-.2-.2 0-.3 0-.6-.3 0 0 .7-.4.7.1-.2.1-.6.2-.7 0-.1-.1-.1-.1-.2 0 .1-.2.3-.2.6-.1.1-.2 0-.2.2-.1 0-.2-.1-.3-.1-.3 0 .1.3-.2.2 0 .2.3.4 0 .5 0 .1.2.1.3.1-.1-.3 0-.1.2-.2 0-.3-.4.1-.3-.3.1.1.1 0 .3 0 0 .1.1.1.1.2.2 0 .2-.3.4-.3-.2.3.3.1.3-.2 0 .2.4.1.3.4-.3-.2-.3.2-.7 0 0 .1.1.3.2.2-.1.1-.3.4 0 .5-.1.1-.3-.2-.5.1 0-.2-.2.1-.4 0 0-.2.1-.2.1-.3-.2.2-.5.3-.7 0 .1.2-.2.4 0 .4-.1.2-.3-.1-.3-.2-.1 0-.2.1-.3.2h-.6v-.2c-.1 0-.1.1-.1.1-.1-.4.4 0 .4-.4-.3 0-.3.1-.6.2-.1-.1-.1-.3-.2-.4 0-.1.1-.1.2-.1 0-.1-.1-.1-.1-.2-.1.1-.2.2-.2.4-.2 0-.3-.2-.3.1 0 .2.1-.1.3 0 .1.1 0 .2-.1.4v-.1c0-.2-.2 0-.3 0v.1h-.4c0-.1-.1-.2 0-.3.1 0 .1.2.2.2s.1-.1.1-.1c0-.1-.1-.2-.2-.2 0-.1.3-.2.1-.2.2-.2.2 0 .5 0 0-.1-.2-.1-.2 0-.2-.4.4 0 .3-.4.1 0 .3.3.3 0 .2 0 .2.3.5.2 0-.2-.5-.1-.2-.5-.2 0-.3.2-.5.2-.1-.1 0-.3-.1-.4-.2.5-.1.4-.2.8-.1-.1-.4 0-.2.1 0 .2-.1-.1-.2-.1 0-.3.1-.3.2-.5-.1.1-.2 0-.2.2-.2-.1-.5-.6-.2-.2.1 0 .2-.2.1-.2.1-.1.2-.2.3-.1 0 .1.1.2 0 .3.2 0 .1-.4.3-.3 0-.1-.1-.1-.1-.2.1 0 .2.1.3-.1-.3-.1 0-.3-.2-.5.1-.2.2.3.3-.1.1 0-.1.4.3.3.1-.2-.2-.3-.1-.4-.2-.1-.3-.2-.6-.3-.1 0-.1-.1-.2-.1h-.3c.1 0 .1 0 .2.1v.3c-.1-.2-.6-.2-.7 0 0 .2.2.3.3.3 0-.2-.2-.2-.3-.2.1-.1.1 0 .3-.1.2.5.5.4.7 0 0 .2-.2.3-.2.4-.3.1-.4-.1-.5.1.1.2-.5-.7-.5-.3-.1-.1.1-.4.2-.4-.1-.3-.2.2-.4.1-.1.2.3.3 0 .3.1.2.2.1.4.1 0 .3-.3 0-.3.4-.1-.2-.3-.3-.5-.3 0-.1.1 0 .1 0 .1-.1.1-.4.3-.1-.1-.1-.1-.2 0-.3 0 0-.1 0-.1.1-.1.1-.2.1-.4.2.1.1.3.4 0 .5.1.1.4.3.5.1.2 0 0 .3 0 .3.1-.1.2-.1.3-.2.1.2.3.3.4.5-.2.3-.4-.5-.5 0-.4-.5-1.2-.2-1.2-.5-.1.1-.3 0-.3-.2-.1.3-.3.4-.5.2-.2 0 0 .5-.3.4 0-.1.1 0 .1-.1s-.1-.1-.2-.1c0-.3.2-.3.4-.4 0 .1-.1.1-.1.2h.3l-.3-.3c-.1.1-.5.5-.4.1-.1.2-.5.4-.7.3-.2.1.1.2-.1.3-.1-.1-.3-.4 0-.5-.2-.1-.4.1-.5.2-.1 0 0-.2-.1-.2.1-.1.2-.1.3-.2-.2 0-.4-.1-.5-.3-.1 0-.1 0-.1.2-.1 0-.1-.1-.2-.2 0-.1.1-.1.2-.2-.1-.1-.3-.3-.4-.5-.1-.2-.3-.3-.5-.4.1-1.3.2-2.7.2-4 0-.6-.1-1.3.2-1.9-.2-.2-.1-.5-.1-.7-.2-1.1-.2-2.4-.1-3.6zM88 63.3c.1 0 .1 0 0 0 .1 0 0 0 0 0zm-.5-.3c.2.1-.1.2 0 .3.1 0 .2 0 .3-.1.2 0-.1.2-.1.3-.2.1-.2-.1-.3-.1-.1-.3.1-.1.1-.4zm.5.3c-.1-.1-.3-.2-.3-.4.2.1.5.2.3.4zm.1 0c.1 0 .3 0 .3.1-.1.1-.1.3-.3.2.2-.2.1-.2 0-.3zm35 4.2c.2-.1.3-.5.5-.7.1.1 0 .2-.1.1v.2c0 .1-.1 0-.1.1s.1.1.1.1c0 .1-.3.1-.1.2 0 .1-.2.2-.3 0zm-34-4.3c.3-.1.2 0 .5-.1-.1.2-.3.2-.5.1-.1-.1-.1-.2 0-.4.1 0 .3 0 .3.2-.1 0-.1-.2-.2-.2-.3.1 0 .2-.1.4zm1.2.4c-.2 0-.2-.3-.5-.3 0-.3.2-.3.4-.2 0-.3-.1-.1-.3-.2.3-.4.4.3.7 0 0 .1-.1.1-.1.2.1-.3.4.1.4-.3.1 0 .1.1.2.2 0 .4-.9.2-.8.6zm-9.8-.8c-.1 0-.1 0 0 0-.1 0 0 0 0 0zm28.1 1.7c.1 0 0-.1 0-.2.1.1.1.3.1.4 0-.1-.2-.1-.2-.2h.1zm.4-.3s0 .1-.1.1h.1s-.1.1-.2 0v-.1h.2zm0 .1c.1 0 0 0 0 0zm-26.7-1.5c-.1 0-.1 0-.2.1-.1 0 0-.1 0-.1.1 0 .1-.1.2 0 .1-.1 0-.1 0 0zm.9.9zm21.9 1.2c0-.1-.1-.1-.1-.2.1 0 .2-.1.2 0-.2 0-.1.3-.3.2 0-.1 0-.1-.1-.1 0 0 .2 0 .3.1zm-35.9-1.7c0-.1.2-.1.2-.2h.1c0 .2-.2.2-.3.2zm-.4-.3v-.1c.1 0 0 0 0 .1.2 0 .4-.3.4-.1-.3 0-.2.2-.4.1zm.2.3c-.1 0-.2 0-.2-.1h.2v.1zm.2-.5c-.1 0-.1-.2 0-.3-.1-.1-.2.1-.3 0 0-.1.2-.1.3-.1 0 .1.1.1.1.1-.1.1-.1.2-.1.3zm.3.7c-.1 0-.1 0 0 0 0 .1-.2 0 0 0 0 0 .2-.1.2.1l-.2-.1zm7.7-1.4h-.1s0 .1.1.1c-.1 0-.2 0-.2.1.1-.2 0-.2-.1-.3-.1-.1.1.2.3.1-.1 0-.1 0 0 0zm-7.7.8s.1 0 0 0c0-.2.3 0 .2.1-.1 0-.1-.1-.2-.1zm38.8 1.7c0-.1.1-.1.2-.1-.1.3-.1.2-.2.1zm-31.6-2.6zm5.4.9c0-.1-.1-.1-.1-.2l.1.1v.1zm-.1.2s.1 0 0 0zm-.5-.5c-.1 0-.2-.1-.2-.3.2.1 0 .3.2.3zm.2-.1zm.1.8zm.2.1c.1 0 .1 0 .1.1v.1h.2c-.1.2-.1.1-.2.1-.1-.2-.1-.2-.1-.3zm-.1.2c0-.1 0-.1 0 0zm-1.2-.5zm-2.5.5s.1 0 0 0c.1 0 0 0 0 0zm.4-2c-.2 0-.3 0-.3-.1.1-.3.3 0 .4-.1-.1-.1-.1-.2-.2-.2.1-.2.3.5.5.2.1.2-.5-.1-.4.2zm.3.3c.1 0 .1-.1.2-.1h-.4c0-.1.1 0 .1 0 .1 0 .1-.1.1-.2.1.2.3.2.4 0-.1.1-.3.2-.4.3zm2.1 1.5c.1 0 .1 0 0 0 .1.1.1.1 0 0 .1.1.1.1 0 0 0 .1 0 .1 0 0zm-3.2-2.1c-.2.2-.2-.3-.1-.4.3 0-.1.3.1.4zm23.1 2.1v.2c.1.3-.3-.3-.2.1-.2-.1 0-.3.2-.3zm-20.6-.5c.1.1.2.2.2.3h-.1c0-.1 0-.2-.2-.1 0 0 0-.1.1-.2-.1 0-.1 0 0 0zm35.8 3.7h-.2v-.1c.1 0 .1.1.2.1zm16.1.8c0-.1.1 0 0 0 .1 0 .1-.1.2-.2.1.2.3.3.4.1.1.2-.5.3-.6.1zm1.6 1.4h-.2c.1.1.1.3.2.4 0 .1-.1 0-.2.1 0-.1.1-.4-.2-.3.2-.2-.1-.5.3-.6 0 .1-.1.1-.2.2.1-.1.4 0 .4.2s-.1.1-.1 0zm-2.2-2.1c-.3.2-.2-.3 0-.4.2.1-.2.4 0 .4zm.8.3c0-.1-.1-.2-.1-.3.2-.2.2.5.4.3.2.3-.4-.1-.4.2-.2 0-.2-.1-.3-.1.1-.4.2 0 .4-.1zm-.6 2.1v-.2c.1-.1.2-.1.4-.1 0 .1-.1.1-.1.2h.2c-.2.2-.4.2-.5.1zm.3-.1c.2 0 .1.1 0 0 .1.1.1 0 0 0zm-12.5-2.2c.2.2.4.2.7.3v.1c-.2 0-.4-.1-.5-.1 0 0 .1 0 .1-.1-.1-.1-.2-.1-.3-.1l.1.1c0 .1-.1 0-.1 0-.1-.2 0-.1 0-.2zm14.2 1.3c0-.2.3-.1.3-.2.1 0 0 .1 0 .2.1 0 .1 0 .1-.1.1-.2.1.1 0 .2-.2-.3-.2-.1-.4-.1zm-11-2.3c.1.1.1.2.2.3 0 .1-.1 0-.1.1 0-.2-.3 0-.3-.3.2.1.3.2.2-.1zm-.3.4c.1-.1.2-.1.3-.1 0 .1 0 .1.1.1 0 .1-.1.2-.1.3-.1 0-.1-.2 0-.3-.1-.1-.3.1-.3 0zm-.2.4c.1 0 .1 0 0 0 .1.1.4-.1.4.2-.2-.2-.2.1-.4 0v-.2zm.3-.1c-.1.1-.1 0 0 0-.1-.1-.1 0-.2 0 0-.2.1-.1.2 0zm.3.2l.1.1c-.1.1-.2-.1-.1-.2.1 0 .1.2 0 .1zm.4-.2c0 .1-.1 0 0 0-.1-.1-.1-.1-.2 0 0-.1.1-.1.2-.1 0 0-.1.1 0 .1zm-.2.2c0-.2.3 0 .1.1-.1 0 0-.1-.1-.1zm-3.7.4h-.1.1zm-.5-.5c.2 0 .2.4.4.3 0 .2-.2-.1-.3-.1-.1.2.1.1.1.3h-.3c0-.2.2 0 .1-.2 0-.1-.1 0-.1 0-.1-.2.1-.2.1-.3zm.3.5h-.2c.1-.1.2-.1.2 0zm-.2-.1zm5.4.3c.1 0 0 .2.1.2-.1.2-.3-.2-.4.1-.2-.2.2-.2.3-.3zm-1.7-.3c.1-.1.2 0 .2-.1l.1.1c0 .1-.2.1-.3 0zm2.7-1.2c-.2-.2-.3-.1-.3.3-.1-.3-.3-.2-.3-.4.1-.1.2.2.5.1v-.3s.2 0 .1.3zm-.6.4c-.1.2.4 0 .3.3-.1-.1-.3-.1-.4-.2.1-.1.2-.2.3-.4.1.1-.2.3-.2.3zm-1.2.5c.1 0 .1.1.1.2 0 0-.2-.1-.1-.2zm.4-.4c.1-.1.1-.1 0-.2.1-.1.3 0 .4-.1 0 .1-.1.1-.1.3h-.3zm6.8 1.4c-.2-.1-.3-.1-.4.1-.1-.1 0-.2-.2-.2.1-.1.1-.2 0-.3.2 0 .2.2.1-.2.3.3.1 0 .3 0 0 .2.2.3.2.6zm-7-1.7v.1c.1.2-.1-.2-.1 0-.2 0 0-.2.1-.1zm5.6 1.9c-.1.2-.2.2-.4.2v-.3c.2.3.2.2.4.1zm-.5-.6c-.1-.1-.3-.2-.3-.4h.3c-.2.1.1.2 0 .4zm-6.1 0c.1.1-.1-.1 0-.1 0 .1.2 0 .2.2 0-.1-.1-.1-.2-.1.1-.1.1 0 0 0zm6.3-.3c.1-.2.1.2.3.1 0 .2-.2.2-.3.2.2-.2.2-.2 0-.3zm-6.5-.2v.2c-.1 0-.2 0-.2-.2h.2zm4.5-.6c0-.2.1-.3-.2-.4.1-.1.2.1.3-.2.1.1 0 .1 0 .2.2 0 .3 0 .4-.2 0 .1 0 .3.3.4-.1.3-.7-.2-.8.2zm-5.7.1c0 .2.3.1.1.3 0-.1 0-.2-.2-.2 0-.1 0-.1.1-.1 0-.1 0 0 0 0zm.7-.4s-.1 0 0 0c0 .2-.1-.1-.2-.1.1-.2.2.2.2.1zm-14.8-.5s0-.1 0 0zm-.1 0c-.1 0-.1-.1-.2 0-.2-.2.2-.1.2-.2 0 0 .1.1.1 0 .2.1-.1 0-.1.2zm-.3 0s.1 0 0 0c.1 0 0 0 0 0zm1.1 0c0 .2-.1.1 0 0 .1.1 0 .1 0 .1-.1 0-.3 0-.4-.1v-.1c.2.3.2.1.4.1zm.9.2c.1 0 .1 0 0 0 .1 0 .1 0 0 0zm0 0zm-10.1-2.6c.1 0 .2-.1.3-.3.1.1-.2.3-.3.3 0 .1-.2-.2 0-.2.2-.1 0 0 0 .2zm7.6 2.1c-.1.2.3.1.3.2-.1 0-.3 0-.4-.1 0 0 0-.1.1-.1zm-.4.2zm-.5-.1c-.1 0-.1-.1-.1-.2.1 0 .2.1.2.2h-.1zm-3.9-.3h-.2.2zm-2.4-.8c-.1-.1-.4.2-.5 0 .1-.1.3-.1.5-.2 0 .1.1.2.2.2 0 .2-.1.4-.1.5-.3-.1-.2-.5-.1-.5zm-.4-1.6c0 .3-.2 0-.3.1 0 .2.3 0 .2.2-.2.1-.2-.4-.4-.2-.2-.2.3-.2.4-.3-.1.2 0 .2.1.2zm10.4 3.2h-.1s0-.1.1-.1v.1zm-10-2.3c.1.1.2.3.4.4 0 .2-.1.1-.2.2-.1 0 0-.1 0-.1-.1-.3-.5 0-.5-.4.3.1.4.3.3-.1zm21.8 3.2c0-.1.1-.1.1-.2.1 0 .1.1 0 .2 0 .1-.1.1-.1 0zm.1-.5c0 .2.1.1.1.4-.1-.1 0-.3-.2-.2 0-.2.1-.1.1-.2zm.8.6c0 .2.1.2.3.2-.2.1 0 .1 0 .4 0 0-.1-.1-.1 0 0 0 0-.1 0 0 0-.1 0-.1-.1-.2-.1.1-.3.2-.3.1.1 0 .1-.1.2-.1 0-.1-.1 0-.1-.1 0 .1-.1.1-.2.2 0 0 0-.1-.1-.1 0-.1.1-.1.1-.1 0-.1-.1 0-.2 0s.2-.2 0-.1c.1-.3.3-.2.5-.2zm-16.4-25.2c-.1.1.2.3 0 .3 0-.1-.2-.3 0-.3zm15.8 23.7c.1 0 .2.3.1.4-.1-.1.1-.3-.1-.3-.1 0 .1 0 0-.1zm.9.6c-.1-.1 0-.2-.2-.2.1-.3.3.1.2.2zM100 64.5c-.1-.2 0-.1-.3-.1 0-.2.2-.2.3-.2 0 .1 0 .2.1.2 0 .1-.1-.1-.1.1zm14.1 1.7V66c.2 0 .2.2.2.3h-.1c0-.2 0-.1-.1-.1.1 0 0 0 0 0zm8.3.7c.1 0-.1.2-.2.1.1-.1.1-.1-.1-.1.2-.1.3.1.3 0zm-53.6-3.5c.1-.1 0-.1-.1-.1 0-.2.2.1.2-.1.1.1 0 .3-.1.2zm46.1 2.9c-.1 0 0 0 0 0zm0-.1h.1c0 .2.1 0 .2.2h-.3v-.2zm.3.2v-.2c0-.1.2.1.2 0 .1 0-.1 0-.2.2h.3-.3zm2.6.2c0 .1-.1.1-.1.1l.1.1c0-.1-.1-.2 0-.2s.1.1.1.2h-.3c0-.1.1-.2.2-.2zm-.9 0v-.2c.1.1.1.1 0 .2zm.4 0c0 .1-.1.1 0 0-.1 0 0 0 0 0zm-60.2-3.4c.1 0 .1-.1.1-.1.1.1 0 .2-.1.1 0-.1 0-.1 0 0 0-.1.1-.1 0 0 .1 0 0 0 0 0zm50 .7c-.1.1 0 .1 0 .2-.1 0-.2.1-.2.2 0-.1 0-.1-.1-.1 0-.1.1 0 .1-.1-.1.1-.3 0-.4.1-.1 0-.2-.1-.1-.2.4-.2.4-.1.7-.1zm.1-.5c.1-.1.1-.1 0-.2.1-.1.1.1.2.1 0 .1-.1.1-.2.1zm-1 1.2c0-.1-.1-.1 0-.2l.1.1c-.1.1-.2 0-.2.2 0-.1-.2-.1-.3-.2.2-.1.4.1.4.1zm.7-.2s-.2.1-.3 0c0 0 .1 0 .1-.1.1 0 .1.1.2.1zm.3-.6c.1.1.1.1.2 0 0 .1-.1.1-.2.2v-.2zm-.2-.6c-.1.1 0 .1 0 .2 0-.1-.2-.1-.2-.2h.2zm.1 1.1c0-.1.2-.2.2-.3.1.1-.1.2-.2.3.1 0 .2-.1.3-.1.1 0 .1-.1 0-.2.1-.1.1.1.1.2-.1 0-.2 0-.2.2 0-.1-.1-.1-.2-.1zm-.6.2c0 .1.1.2 0 0 .1.1 0 .3-.1.3 0-.1 0-.2-.1-.2.1-.2.2-.1.2-.1zm-44-1.3c-.2.1.2.4 0 .5 0 0 .1 0 .1.1 0-.1 0 0-.1 0h-.1c0-.1-.1-.2-.2-.3 0 .1.1.2.1.1.1 0 0 0 0 .1 0-.1-.1-.1-.1-.2-.1 0-.2.1-.1.1-.1.2 0-.2-.2-.1-.1.1 0-.3.1-.1 0-.1-.1-.3-.2-.4 0 0 0-.1-.1-.1-.3.1-.3.1 0 0 .1 0 .1.1.2.1s0-.1 0-.1c.1 0 .1.1.1.1.1 0 .1-.2.2-.1h-.1c-.1.1.3.1.2 0 .1 0 0 .1 0 .2.1.2 0 .1.2.1zm-.7.1c0 .2 0 .1-.1.1v.1h.2v.1c-.2-.3-.3.1-.6-.1 0 0 .1-.1 0-.1.1 0 .1 0 .3-.1 0 .1-.1.1-.1.1.1.2.1-.1.3-.1zm45 1.7c0-.1.1 0 .1-.2-.1.1-.2.2-.4.1.1-.2.3-.2.4-.2 0-.1-.2.1-.2-.1.1-.1.2 0 .3.1-.1.1-.1.3 0 .3.1.1-.1 0-.2 0zm-43.6-1.3h.1v.1h-.1c.1 0 0 0 0-.1zm44 1.3c0-.2-.2-.1-.2-.2.1 0 .3.2.4 0 .1 0 .1.1.1.1.2.3-.2 0-.3.1zm.6-2.3c.1.1.2.2.1.3-.1-.1-.2-.2-.1-.3zm-36.9.4c.1 0 0 .2.1.2 0 .2-.3-.2-.3.2-.2-.2.2-.3.2-.4zm-10.2.8h-.1.1zm9.7-1.8c.1-.1.3-.1.4-.2 0 .1-.1.2-.1.3h-.3v-.1zm-.2.7c-.1.1-.3 0-.2-.1.1 0 .1.1.2.1zm-13.1.1h.1c.1-.1-.2.1-.1.2 0-.1-.1-.3-.1-.4-.1 0 0 .1-.1.1l.1-.1s.2 0 .1.2zm11.6.6c0-.1-.1-.1-.1-.2-.1.1-.2.2-.3.1.1 0 .1-.1.2-.1 0-.1-.1 0-.2-.1 0 .1-.1.1-.1.3 0 0 0-.1-.1-.1 0-.1.1-.1.1-.1-.1-.1-.1 0-.2 0s.1-.2 0-.1c0-.2.2-.2.4-.2 0 .2.1.2.3.2-.2.1.1.1 0 .3-.1 0 0 0 0 0zm-46 4.1c0-.2.2-.2.2-.4.1 0 .1.1.1.1.1 0 .1 0 .1-.1 0-.2.1.1 0 .2-.3-.1-.2.1-.4.2zm47.4-5.5c.1.2-.2-.2-.1 0-.1 0 0-.2.1-.2v.2zm38.1.9c.1-.1.1-.2 0-.3.1 0 .2.4 0 .3zm-36.8-1.6c-.1-.1-.1-.2-.1-.3.1.1.3.1.3.4-.2-.1-.3 0-.3.3-.1-.3-.3-.2-.4-.4.1-.1.3.2.5 0zm36.6 2.9c0-.1.1 0 .2 0v.2c-.2 0-.1-.2-.2-.2zm.1-1.1c0 .2.1.2.1.4-.1-.1-.2-.1-.2.1 0 0 0-.1-.1-.1.1-.1 0-.1 0-.2.1 0 .1.1.1-.1 0 .1 0-.1.1-.1zm-42.8.6c0-.1.2-.1.1-.3.2 0 .3.2.3.2h-.1c-.1 0-.1-.1-.2-.1v.1h-.1c.1-.1.1.1 0 .1zm.5 0zm5.3-1.8c0 .2.4-.1.3.2-.1-.1-.3-.1-.5-.1.1-.2.2-.2.2-.5.2.1.1.4 0 .4zm-5 1.6c.1.1.2.1.4.1h-.4s.1 0 0-.1zm44.7 1c0-.1 0-.1-.1-.1h.1c.1 0 0 0 0 .1.1-.1.1-.1.2-.1-.1.1-.1.2-.2.1zm-79.6.3c-.1-.4-.4.2-.1.2 0 .1 0 .1-.1.1h-.1c0-.2 0-.4-.2-.2-.3-.2.4-.5.5-.1zm-.8.9c.5.2.3-.1.6 0-.2.3-.6.3-.7.7-.2-.2.4-.4.1-.7zm1 0c0 .3-.2.1 0 .4h-.2c.1-.1 0-.3-.1-.3.1-.1.2-.2.3-.1zm.7.1c0-.2-.3-.1-.1-.3.3.1.2.2.4.5-.2-.1-.4-.2-.8-.3 0-.1.3 0 .5.1zm-1.1-.3c-.1.2-.2.1-.3.1-.7.1.2-.3.3-.1zm2.2.2c.2.1.1.5.4.2-.1.2-.4.2-.6.1-.1.1-.1.1-.1-.1.2-.1.2.1.3.1.1 0 0-.2 0-.3zm-.6.4c0 .2.2.2.3.3-.2 0-.3.1-.4.1.1 0 0-.3-.3 0 0-.3.2-.4.4-.4zm-7.4 1c-.3 0-.2 0-.2.3-.2-.1-.2.1-.4 0 0-.3.5 0 .2-.5.1 0 .2 0 .3-.1-.1.2 0 .1.1.3zm-1.2.5c0 .2-.2.1-.3.1.1-.2 0-.1-.1-.3.4 0 .2.3.4.2zm-.5-.2c0 .1.1.1.2.1 0 .1-.2.1-.2.1 0-.3 0-.2-.2-.3 0-.2.3.1.3-.1.1 0 0 .2-.1.2zm9-1.5c.1-.2.3 0 .2.3-.2-.1-.1-.3-.2-.3zm3.1.2c.2-.1.2-.1.5-.2-.1.2-.3.2-.5.2-.1-.1-.2-.2-.1-.4.1 0 .3 0 .3.2-.1.1-.1-.1-.2-.1-.3 0 0 .1 0 .3zm-9.9.8c.3 0-.1.3.2.4-.1.3-.3-.3-.3.1-.3-.2.2-.3.1-.5zm3-.1c.1 0 .2.1.3 0 0 .2-.3.2-.3.4-.1 0-.1-.1 0-.1-.1-.1-.2-.1-.2-.2.1 0 .1.1.2 0v-.1zm-.5 0c.1.2 0 .3-.1.3.3-.4-.3 0-.4-.5.3 0 .4-.1.4-.3.2 0-.3.5.1.5zm79.5-2.5s.1 0 0 0c-.1.1.2.3-.1.3 0 .1.1.2.2.2 0 .1-.1.2-.2.2 0-.3-.3-.3-.5-.3.1-.1.2-.1.4-.2-.1.1 0 .1.1.1.1-.2 0-.3.1-.3 0-.1 0-.1 0 0zm.5.4c.1 0 0 .1 0 .1.2 0 .1-.3.3-.3.1.1 0 .1 0 .3-.2.1-.4-.1-.4.3-.1 0-.1 0-.1-.1 0-.2.1-.1.2-.3zm.5.3s.3-.1.3 0c-.2-.1-.1.2-.3 0zm-.4.2c0-.1-.1 0-.1-.1.1-.1.1-.2.2-.1-.1 0-.1.2-.1.3 0 0-.1-.1 0-.1zM57.7 64v.1h-.1c0-.1-.1-.1-.1-.1 0-.1.1 0 .2 0zm0 0c0-.2.2-.1.2-.2.1.1-.1.2-.2.2zm51.2 1.4c0-.1.2-.1.1-.1 0-.1.1 0 .2 0-.1.1-.2.1-.3.1zm-.8-.8c.1.1 0 .2 0 .3-.1 0-.1-.1-.2 0 .1 0 .1.1 0 .2h-.1c.1-.4.3-.3.3-.5zm5-.1l-.1-.1c.1 0 .1 0 .1.1.1-.1.1-.1.1-.2.1 0 .1.1.1.1 0 .1-.1 0-.2.1zm-1.7-.3c.1 0 0 .2.1.2v-.1c.1-.1.1.2.1.3-.1-.1-.3-.2-.2-.4-.1 0 0 0 0 0zm-.5 0h.1c.1-.1-.2.1-.2.2V64c-.1 0 0 .1-.1 0 0 0 .1 0 .1-.1 0 .1.2.1.1.3zM57 63.8s.1 0 0 0c.1 0 .1-.1.1-.1h.2c-.1.2-.1.2-.3.1zm52.8.4c.1-.1-.1-.3.2-.3 0 .1-.1.1-.1.1.1-.1.2 0 .2.1-.1 0-.1 0-.1-.1h-.1c.1.1.1.2.2.2 0 0-.1 0-.1.1-.1 0-.1-.1-.2-.1zm-.4.7c.1 0 .2-.1.2.1-.1 0-.1 0-.2-.1v-.2c.2.1 0 .1 0 .2zM67.9 9.1c0 .1 0 .1 0 0-.1 0 0-.1 0 0zm30.6 22.4zm2.1 24.4zm8.2-13.2zm.8 3.5c-.5-.2.6.3 0 0zm0-.2c.2 0-.1-.2-.2-.1 0 0 .1.1.2.1zm-3.6 8.2c0-.1-.1 0-.1.1.1.2.2 0 .1-.1zm-4.1 3.5c-.1-.2-.1.3-.1.4.1.2.1-.3.1-.4zm7.9-14.1c-.2-.3-.3.2 0 0zm-8.6-10.3c-.1.1.2.4.2.6.1-.2-.2-.5-.2-.6zm-5.8-4.8c-.1 0-.1-.1-.1-.1-.1.1-.3 0-.2-.2-.4.3.3.3.2.7 0-.1.1-.3.1-.4zm3.6-2.2c.4.3.7-.1 0 0zm-5-4.2c-.2.1 0 .3 0 .4.3 0-.1-.2 0-.4zm-1 1.8c0-.1-.2-.1-.3-.1 0 .2.2.1.3.1zm-.9 4.1c.2.2.5-.1 0 0zm-4.3.2c-.1 0-.2.1-.1.2 0 0 .1-.1.1-.2zm6.6-7.8c-.1.1.1 0 .2-.2s-.2.1-.2.2zm-6.2-.7c-.2 0 .1.1 0 .3.2 0 0-.3 0-.3zm-.1 1.3c0-.2-.1-.1-.1-.2-.2 0-.1.3.1.2zm-.3-.9c-.1-.1-.3-.5-.5-.4.1.1.8.9.5.4zm.1-.3c.3-.1-.2-.2-.1-.4.1 0 .1.1.2.1.1-.2-.4-.4-.5-.6-.2.3.3.5.4.9zm-2.4-2.6c.2 0 .1-.5.3-.3.2-.3-.5.1-.3.3zm.2-.4c0-.2-.2-.1-.2-.3-.2 0 0 .3.2.3zm-.5-.8c0 .1.2.1.2.3.1 0 0-.4-.2-.3zm0-4.2c.2-.3-.2-.8-.5-1.1 0 .2.3.8.5 1.1zm.6 1.9c.1-.1-.2-.3-.2-.4-.2.1.1.3.2.4zm-.9 4c.2-.4-.3-.6 0 0zm-1-3.6c.1.1.3.1.2.4.1-.3.4 0 .5.2.1-.2-.3-.5-.7-.6zm-2.6-5.3c-.3-.4 0 .9.1 1.3.2-.4-.2-.8-.1-1.3zm-.2.8c-.2.2-.2-.4-.4-.4-.3.1.2.4.2.7.1.4 0 .8.1 1.1.3-.4 0-.9.1-1.4zm-.4 1.1c0-.1-.1 0-.1.2 0 .1.1-.1.1-.2zm.3-1.3c.2 0 0-.3 0-.3-.2.1.1.2 0 .3zm-1.4-2.3c0-.2-.3 0-.4-.1 0 .2.3.1.4.1zm-2.6.5c.1.3.5 0 0 0zm-2.6-2.3c-.1-.2-.1.1 0 0-.1.1 0 .2 0 0zM48.8 21.8c.1.1.1.2.1.4.2-.1.2-.4.3-.5.6-.1-.4-.1-.4.1zm-1.2.7c.2-.1.2-.2.2-.4.2-.1-.2.2-.2.4zm.1.5c-.2.1-.2.5-.1.8.1-.1.1-.4.1-.8zm-.1 3.3c-.1-.2-.1.2-.1.2 0 .2.1.1.1-.2zm-.1-.9c0-.1 0-.2-.1-.3-.1-.4.1.7.1.3zm.1 3.5c0 .1.1 0 .1-.1s-.1 0-.1.1zm2 4.2c.1-.3-.1-.9-.2-1.2 0 .5.1.8.2 1.2zm-10.2 31c-.1-.1-.2-.1-.3-.2v.1c.1.1.1 0 .3.1-.1.2-.2.2-.4.2.2.2.1.1.1.5.1-.1.3-.5.3-.7zm86.9.9c-.5-.2-1.1-.4-1.6-.1-.4.2-.7.6-1.1.8-.5.2-1 0-1.4-.4l-.2-.2c0 .1 0 .2.1.2-.2.1 0 .3-.1.3 0-.2-.2.2-.3.2.1-.1 0-.1.1-.2.1 0 .1.1.1.1.1-.1 0-.3.2-.2 0-.1 0-.2-.1-.3l.1-.1c-.2-.2-.3-.4-.5-.5 0 .1.1.1.2.2 0 .1-.1.1-.1.1-.1-.1 0-.1 0-.2-.1 0 0 .3-.1.3 0 .1 0 .1.1.2 0-.1-.1-.1-.1-.2.1.1.2.2.4.2.1.1-.2 0-.1.1-.1.1-.1-.1-.3-.1-.1.1-.1.2-.1.3h-.1c-.1-.1 0-.2 0-.3-.2 0 0 .4-.3.4.1-.1.1-.3.2-.4v-.1c0 .1-.1.1-.1.3 0 0-.1 0-.1.1-.1 0-.1 0-.1-.1-.2 0 0 .2-.1.1 0 .1.1.3 0 .3 0 .1.1.1.1.1 0-.2 0-.1.1-.1 0-.2-.2 0-.2-.2.1.1 0 0 .2 0v.1c.1 0 .1-.1.3-.1-.1.2.2.1.2-.1 0 .1.2.1.1.2-.1-.1-.2.1-.4 0 0 .1 0 .1.1.2 0 .1-.2.2 0 .3-.1 0-.2-.1-.3 0 0-.1-.1 0-.2 0 0-.1 0-.1.1-.2-.1.1-.3.1-.4-.1 0 .1-.1.2 0 .2-.1.1-.1-.1-.2-.1s-.4.3-.5.2c.1-.1.1 0 .2-.1 0-.2-.3 0-.2-.3 0 0-.1 0-.1.1 0-.2.2 0 .2-.2-.1 0-.2 0-.4.1 0-.1 0-.2-.1-.2h.1s0-.1-.1-.1-.1.1-.1.2c-.1 0-.1-.1-.2 0 0 .1.1 0 .2 0 .1.1 0 .1-.1.2 0-.1-.1 0-.1 0v.3c-.1 0-.1-.1-.1-.2-.1 0-.1.1-.2 0 0 .1.1.1.1.3-.1 0-.3-.1-.3.1l-.1-.1c-.1 0-.1.1-.1.2h-.1c0-.1.1-.1.2-.1 0 0 0-.1-.1-.1 0-.1.1.1.1-.1.1 0 0 .1 0 .2.1 0 .1-.1.2-.1v-.1c0-.1-.1-.1-.1-.1 0-.1.1-.1.1-.2.1 0 .1.1.1.1.1 0 0-.2.1-.3.1 0 0 .1.1.1h.1c0-.1 0-.1-.1-.1 0-.1.2-.1.1-.1.1-.1.1 0 .3 0 0-.1-.1-.1-.1 0-.1-.2.2 0 .2-.2 0 0 .1.2.2 0 .1 0 .1.2.2.1 0-.1-.3-.1-.1-.3-.1 0-.2.1-.3.1v-.2c-.1.3-.1.2-.2.4-.1-.1-.2 0-.1.1 0 .1 0-.1-.1-.1 0-.2.1-.2.1-.2s-.1 0-.1.1c-.1 0-.3-.4-.1-.1l.1-.1c0-.1.1-.1.2-.1v.2c.1 0 .1-.2.2-.2V65s.1.1.2-.1c-.1 0-.1-.1-.1-.2h-.1c0 .1-.1.1-.1.1-.2 0-.2-.1-.3 0 0 .1-.1-.2-.2-.3h-.2c0 .1.1.1.2.1 0 .2-.1 0-.2.2 0-.1-.2-.2-.3-.2.1 0 .1-.2.2-.1v-.1c-.1 0-.1 0-.2-.1h-.1c0 .1.2.2 0 .3 0 .1.2.2.3.1.1 0 0 .2 0 .2.1 0 .1-.1.2-.1 0 .1.1.2.2.3-.1.2-.2-.3-.3 0-.2-.3-.7-.2-.7-.4-.1.1-.2 0-.2-.1-.1.1-.2.2-.3.1-.1 0 0 .3-.2.2 0 0 .1 0 .1-.1s-.1 0-.1-.1.1-.2.3-.2l-.1.1h.2c0-.1-.1-.1-.1-.2-.1 0-.3.3-.2.1-.1.1-.3.2-.4.1-.1 0 0 .1-.1.2-.1-.1-.1-.3 0-.3-.1-.1-.2 0-.3.1 0 0 0-.1-.1-.1.2-.1.3-.2.6-.2v-.1c0-.1.1 0 .1 0 0 .1-.1.2-.1.4.1 0 .1-.2.2-.1 0 0 0-.1-.1-.1h.4c-.1-.2-.2-.1-.3 0 .1 0 0-.1 0-.1-.3-.1-.6-.1-.9-.2l-1.2-.3h-.3c-.3 0-.6-.1-.8 0l-.1.1c-.1 0-.1-.1-.1-.1-.2 0-.4.1-.6.1-.5.1-1 0-1.5 0h-.1v.1c-.2-.1-.1 0-.2.1-.1-.1-.1 0-.2-.1.1-.1.2.1.2-.2-.2 0-.4 0-.6.1 0 .1 0 .1.1.1 0 .1-.1 0-.2 0 .1-.1 0-.1 0-.1h-.4c.2.2.1.1.4.3-.1.1-.1.1 0 .2.1 0 .1-.1.2-.1 0 .1-.1.1-.2.2 0 .1.2.1.2 0 .1 0 0 .1.1.1 0 .1 0 0-.1 0 0 .1 0 .1.1.1-.2 0-.4-.3-.5-.2-.1-.1.1-.1.1-.2-.2 0-.1-.1-.3 0 .1-.1-.1-.2 0-.4-.2 0-.4 0-.6-.1-.3-.1-.4-.3-.6-.6-.1-.1-.1-.2-.2-.3 0 .1-.1.1 0 .1-.1.1-.1-.1 0-.2v-.1c-.3-.4-.9-.6-1.3-.4v.1l-.1-.1c-.4.2-.7.6-1.1.8-.5.3-1.1.1-1.5-.1h-.2s.1-.1 0-.1c-.1-.1-.3-.2-.4-.3-.3-.2-.6-.2-.9-.2-.5 0-1 .2-1.5.2-.6.1-1.2-.1-1.7-.3-.3-.2-.7-.3-1.1-.3 0 .1-.1.1-.2.1V62h-.6c0-1.5.1-3 .4-4.4.3.1.2-.3.3-.4-.1 0-.1.1-.2 0-.1-.5.2-.8.4-1 .1.2 0 .4.2.4.1 0 0-.7.2-.4 0 .5 0 1.1.2 1.4.1-.4-.2-.7.1-.8 0 .3 0 .6.2.8 0-.1-.1-.4.1-.4 0 .3.1.4.2.7 0-.3.1-.2.2-.1 0-.1.1-.4-.1-.5 0 .1 0 .3-.1.2-.1-.2-.1-.4.1-.5 0 .1.1 0 .1-.1 0 .1-.1.4.1.4 0-.2-.1-.6.1-.7.1.2.1.5.2.6.1-.2-.2-.4 0-.4 0 .4.1-.2.2.1 0-.2-.1-.6-.1-.9 0 0 0 .1.1.1 0-.3.1-.3 0-.5.5.4.1.9.2 1.3l.1-.1s-.1.6.2.7c0-.2-.1-.5.2-.5 0 .3-.1.7.1.8.1-.2 0-.6.1-.8 0 .1 0 .3.1.2.3-.1 0-1.2.3-1.4.1.3.2.6.4.8-.1-1-.3-1.4-.2-2.3-.2 0-.2-.4 0-.5.1.4.1 1.1.2 1.6 0 .1.3.5.3.4.1.4-.3.3-.2.7.2-.1.3 0 .4-.1-.1-.3 0-1.3.2-.9-.1-.3-.1-.7 0-.9.6.5.4 1.5.7 1.8 0 0 .2-.2.2.1 0 .1-.1.2-.2.2.2.1.1.4.2.4 0-.1.1 0 .1 0 0-.2-.1-.5.1-.6 0 .1 0 .2.1.2 0-.3 0-.5.2-.2-.1-.2-.1-.7 0-1 0 .1 0 .2.1.2.4-.2-.2-.7.1-.9 0 .2 0 .3.1.3-.1-.2-.2-.4-.2-.7.3-.5-.4-.8-.1-1.1 0 .1 0 .1.1.1 0-.1 0-.2.1-.2.1.5.2.9.5 1.3 0-.2-.2-.5 0-.6.1.1.1.2.2.3-.1-.3-.2-.5 0-.5-.1-.2-.4-.6-.2-.7.2.2.2.6.4.7-.1-.3 0-.4 0-.7.3.1.2.6.4.8 0-.2-.2-.6-.1-.6.1.4.3.7.3 1.2.4.2.1.9.5 1 0-.1-.1-.4.1-.4 0 .1.1.2.2.2 0-.2 0-.4-.1-.4.2-.1.2.3.3.1 0-.4-.3-.8-.2-1 .2.2.2.6.5.7.1-.4-.4-.6-.2-.7 0 .1.1.2.2.2-.2-.2-.1-.8-.4-1 .1 0 .2.1.2 0-.1-.3-.6-.6-.5-.9.2.2.6.6.8.6-.3-.2-.5-.5-.8-.7.3.1.5.3.8.4-.1-.2-.2-.3 0-.4-.2-.1-.2-.1-.3.1-.1-.5-.4-.8-1-1.1 0-.2-.1-.5.1-.6.1.4.3.1.5-.1 0 .4.3.5.4.8.1-.4-.4-.6-.1-.9.2.3.3.6.4 1 0-.1 0-.3.1-.3.3.6.6 1.7 1.1 1.9-.1-.3-.5-.7-.4-1 .2.2.2.6.5.7 0-.2-.4-.5-.2-.7.2.3.2.3.2.1.1.2.3.4.5.5 0-.1.1-.1.1-.2-.1-.3-.5-.5-.5-.9.3-.1.3.5.5.3-.3-.5-.9-1.1-1.1-1.5.2.3.7.4.8.7 0-.1.1-.2.1-.1-.1-.3-.7-.5-.6-.8 0 .1.3.3.3.1-.7-.3-1.1-.9-1.8-1.2 0-.3-.1-.5-.2-.2.3-.4-.3-1.1.2-.9-.1-.2-.3-.2-.3-.4.4.1.5.4.7.3-.1 0-.1-.1-.1-.2-.1 0-.1.1-.2.1 0-.5-.1 0-.3-.3.1 0 .3 0 .3-.2-.1.1-.7-.2-.5-.4 0 .1.3 0 .4.1-.1-.2.1-.2.2-.3-.4 0-.7-.5-.7-.7.3.5.2 0 .6.2 0 .1.5.5 1 .8-.3-.5-.5-.7-.8-1.2.4.1.6.4.9.6 0-.1-.3-.2-.1-.3.2.1.2.3.3.4.1-.3.8.2.9.4 0-.1.1-.1.2-.1-.3-.3-.4-.3-.7-.5 0 0 .2 0 .1-.1 0-.1-.4-.1-.4-.2.4-.1.7.4.9.2-.3-.1-.6-.3-.8-.4.3-.1.7.3.5 0 .4 0 .9.4 1.3.2-.3-.3-1.1-.6-1.2-.9.2.1.7.4.8.4-.3-.3-.4-.8-.7-1.1 0 .2.2.2.2.4-.4 0-.3-.5-.5-.7.3 0 .4.1.5.2 0-.3-.2-.3-.2-.5.2.1.2-.3.3-.1-.1.3.3-.1.4-.1-.3-.2-.1-.5-.4-.2 0 0 0-.1-.1-.1-.2-.3 0 0 .1-.1-.2-.2-.5-.4-.5-.3 0-.1.1-.2.1-.2-.2.3-.4 0-.6.2-.3-.4.8 0 .4-.4-.1.2-.5.1-.7-.1.2 0 .4 0 .5-.2-.2-.1-.3.2-.3 0 .1-.2-.6-.3-.9-.4 0-.1.1-.2 0-.2-.2 0-.3.2-.5.2 0-.1 0-.3-.1-.3-.1.2.2.4-.1.4 0-.7-.5-.7-.6-.9v-.3c.1.1.2.1.1.3.3.1.5.2.6.5 0-.2.1-.2.2-.2-.3.1-.3-.6-.2-.7.1.5.1-.2.4.1-.3 0 .1.4.1.5-.1-.4 0-.4.1-.7.3.2.1 0 .2-.1.2-.1.6.1 1 .1.6 0 1.2 0 1.7-.1-.2 0-1 0-.6-.1.3-.1.7.1.9-.1-.3 0-.7 0-.8-.1.1 0 .2-.1.2-.1-.4 0-.1-.1-.2-.2.1 0 .4.1.5-.1-.5 0-1 0-1.3-.1.3-.1.4 0 .7-.2-.5 0-.7.2-1.1 0 .2 0 .3 0 .3-.2-.5 0-1.1.4-1.5.3.2-.2.6-.2.8-.3-.6.1-.6.2-1.1 0-.8.3-1.1 1.1-2.1 1.2-.1.4-.8.3-1 .4.1 0 .2.1.2.2-.1 0-.4-.4-.7-.1 0-.4-.2-.7-.5-.9.2.1-.3.3-.3.2.3-.2.1-.2-.1-.2.2-.3.3-.1.5-.2 0-.2.1-.2 0-.4.4 0 .1.6.4.7 0-.6-.1-.3 0-1 0 0 0 .1.1.1 0 0 0-.1.1-.1 0 .2 0 .3.2.4 0-.1-.1-.2-.1-.3.2-.1.3.4.5.2-.2-.1-.7-.5-.3-.7 0 .2 0 .5.2.4 0-.2-.3-.7 0-.7 0 .1-.1.4.1.4 0-.1-.1-.4.1-.4 0 .6.3-.3.1-.4 0 .1 0 .3-.1.3-.1-.4-.1-.8-.1-.9 0 .2-.2.1-.2.2.3.2 0 .4 0 .5-.1-.2-.2-.4-.2-.6.2 0 .4-.3.6-.5-.1 0-.2.1-.2 0 .2-.1.4-.1.4.1.1-.5-.2-.1-.4-.3.2.1.2-.1.5-.1 0 .4.1.5.2.8.3-.5-.3-1-.2-1.1.2 0 .7-.6 1.1-.4 0-.1-.1-.1-.1-.2.3 0 .7-.1.8-.2-.2-.2 0-.4-.2-.3-.1-.2.2-.2.2-.3-.3 0-.5.3-.6 0 .1.1.4-.2.5-.3-.2.1-.4.2-.7.3.1-.3.5-.3.6-.5-.8.1-1.4.9-1.7 1 .1-.2.5-.5.4-.6-.3.2-.4.4-.7.6.1-.4.4-.5.5-.9-.5.4-.9.8-1.6.8.1.2-.3.4-.1.2-.1-.3 0-.5.2-.5-.4.1-.2-.1-.5 0-.2.4-.2.9-.4 1.3-.5-.3-.6.8-.9.7.2-.1-.5-1.2-.2-1.5 0 .1-.1.4.2.3-.1-.7-.4-.9-.3-1.6-.2-.1-.2-.3-.4-.4 0-.1.3-.4.1-.4-.2.2.1-.3-.1-.1.1-.5.1-.5.3-1 .3-.1.5.4.7.3-.4 0-.4-.7-.7-.5 0-.4.1-.4-.2-.3.1-.3.3-.9.2-1.1-.3.2-.2.8-.5 1-.1-.4.2-.8.1-1-.1.3-.3.4-.4.7-.1-.2.2-.4 0-.4 0 .2-.1-.1-.2-.1-.1.1 0 .4-.2.3 0-.1 0-.3-.1-.3-.1.1 0 .8-.2.6 0-.1.1-.4-.1-.3 0 .1 0 .6-.1.4 0-.2 0-.3-.1-.3 0 .6 0 .6-.1.1 0 .1.1.4-.1.4 0-.1-.1-.2-.2-.2 0 0-.4 0-.5.1v-.2c-.1-.1-.3 0-.4-.1-.1-.4-.3-.6-.4-1 0 .1-.1.2-.2.1.1-.3-.8.2-.8-.1 0-.1.3 0 .4-.1 0-.1.1-.1.1-.1-.2-.3-.7-.1-1-.2.1-.1.4 0 .3-.2-.2 0-.4.3-.6 0 .2.1.2-.1.3-.2-.5.1-.8.1-1.3-.2.2-.1.4.2.4 0s-.5.1-.5-.1c.1 0 .2-.1.2-.1-.1-.2-.4-.3-.5-.5.3 0 0-.1.1-.2.3-.1 0 .3.2.3-.8-.7-.9-.7-.9-.9.1-.1.3.2.3 0-.1-.1-.3-.1-.4-.2.2 0 .5.1.5-.1-.1-.1-.4 0-.5-.1.2-.1.8-.2.8.1 0-.2 0-.3.1-.3 0 .2.1-.1.2.1.1.3-.1-.1-.1.1.2.1.1.6.2.8 0-.5.1-.8 0-1 .9.1 2-.1 2.5-.1-.1 0-.1 0-.1.1.5 0 .8.1.3-.1.2 0 .5.1.5-.1-.1 0-.7 0-.5-.1.1 0 .4.1.4-.1h-.7c-.1-.2 0-.2-.1-.3-.8-.2-.8-1-1.5-.7 0-.1.1-.2 0-.2-.3.1-.5.3-.8.4-.2-.1-.1-.1-.2-.2-.8.5-1.6 1.4-2.5 1.6 0-.1.1-.2 0-.2-.1.1-.1.1-.1.3-.2.1-.4.1-.5.2h.3c-.1.3-.2 1.1-.3.7 0 0 .1.1.1 0-.1-.1-.5-.3-.6-.2.4 0 .4.3.6.5-.8.3-1.2-.3-1.7-.6.4-.1.7-.2 1-.4-.3.1-.5.1-.8.2 0-.1 0-.2-.1-.2-.3.4-1.4.2-1.7.4 0-.2-.2-.2-.4-.3-.2.8-.9 1-1.5 1.4 0-.3-.2-.5-.4-.6-.1.4.3.2.2.5-.2 0-.3.1-.4.3.1 0 .2 0 .1.1h-.3c0-.4-.3-.8.1-1-.1 0 0-.3 0-.3.6-.8 1.3-1.9 2.1-2.6 0 .1-.1.4.1.4 0-.1 0-.3.1-.3.1.2 0 .6.2.7 0-.2-.1-.5.1-.5.1.3.1.3.2.1.1.3.2.5.4.7-.1-.4-.4-.8 0-.9-.2-.3-.4-1-.2-1.3.1.2.1.5-.1.2v.3c.1 0 .2 0 .2-.1 0 .1-.1.2-.1.3.1 0 .1-.1.2 0 0 .3 0 .5.2.7 0-.2 0-.4.1-.5h.3c0 .1-.1.4.1.4 0-.1-.1-.4.1-.4.1.1 0 .4.2.4 0-.5-.3-1.1-.2-1.5.1.5.2 1 .5 1.3-.1-.6-.3-1-.4-1.4.1.2.2.4.4.2.1.2.1.4.2.4.2-.1-.2-.5.1-.7-.1.1.4.1.3 0-.1 0-.2 0-.3-.2.2-.1.4.2.5 0-.1 0-.3 0-.3-.2.1 0 .1-.1.1-.1.7.2.4 0 .3-.1.7 0 0-.1.5-.2-.1 0-.7 0-.5-.1.3 0 .4-.1.7-.1.1.2.1.5.2.7 0-.3-.1-.5-.1-.8.1 0 .4.1.4-.1h-.5c0-.3.2 0 .3-.2-.2-.1-.2.1-.2-.3-.2.2-.3-.1-.3-.3.3-.1.5-.2.7-.5-.3 0-.5.5-.8.2.5-.3 1-.6 1.4-1-.1 0-.2 0-.2-.1.5 0 .2.5.6.7-.1-.2-.3-.4 0-.4-.2-.1-.4-.3-.6-.4-.3.2-.4.3-.4 0-.1 0-.3.4-.5.2.2-.2.4-.2.5-.5-.2.1-.3.4-.6.5 0-.3.4-.3.5-.6-.1 0-.1.1-.2.1-.1-.2.4-.3.1-.4-.1.2-.3.4-.3.1-.3.2-.4.6-.7.7-.1-.4.1-.5.3-.6-.4 0-.4.4-.7.4 0-.3.4-.6.3-.7-.2.2-.3.6-.5.8.1-.5.3-.6.4-1-.3.2-.5.5-.7.7 0-.1 0-.1-.1-.1 0 .2-.1.3-.2.4-.2-.1.1-.2-.1-.2-.2.1-.1.4-.3.4-.2-.1.2-.3 0-.4 0 .1-.3 0-.3.1-.2-.6-.5-.1-.7-.1.1-.1.2-.3.4-.4 0-.4-.1-.5-.3-.5.1 0 .1 0 .1-.1.1-.6.4-.9.5-1.3.1-.1.3.2.3 0-.3 0-.2-.2-.1-.4-.1 0-.1.1-.2.1.2-.5.4-1 .6-1.4-.3.4-.5.8-.7 1.3-.3.1-.2-.2-.4-.2-.3.1-.5.2-.7.4.1-.3-.1-.3-.2-.4 0 .3 0 .3-.1.2 0 .3 0 .7-.1 1-.1.6 0-.8-.3-.8.1.3.2 1.1 0 1.3 0-.4 0-.9-.2-1.1 0 .4.3.8.1 1.1-.1-.3-.1-.7-.2-1-.4.5.1 1 .1 1.6-.3 0 0 .2-.1.3H88c.1-.3.3-.5.1-.9-.2.4-.1.9-.2 1.3-.1.3-.6.5-.2.7 0-.2 0-.4.2-.4 0 .4-.1.8.1 1.1 0-.2-.1-.5.2-.5 0 .3-.2.7.1.7-.1.1-.3.1-.3.2.2-.1-.1.4.1.3 0-.1 0-.5.1-.3s-.2.8.2.7c-.1 1.6-.4 2.6-1.4 3-.1-.6-.2-1.1 0-1.7.1.3.4.4.5.8-.1-1.3 0-2.2-.1-3.1 0 0-.2.1-.1 0 0 0 .1-.1.1-.2 0-.4-.1-.8.1-1.2h.1c-.1-.1-.3-.3-.1-.5-.1 0-.1.1-.1 0 0-.2-.2-.7-.1-1-.4.1-.2-.3-.3-.4l-.2-.2c-.1-.5.3-1.4-.1-1.9.1.3 0 .8-.1 1.1-.1-.3 0 .3-.1.2 0-.3-.2-.2-.4-.4 0 .1.1.4-.1.4-.2-.1 0-.5-.2-.6 0 .5.1.8-.1 1-.2-.2-.1-.3-.6-.5-.1 0-.1.1-.2.2-.2-.3-.4-.7-.4-1.1.2-.1.3.4.4.2-.1-.1-.2-.3-.4-.3-.1 0 0 .3-.1.3-.1-.4.2-.3.4-.4.4.2.5.7.8 1 0-.2-.1-.2 0-.4-.2.1-.6-.6-.4-.8-.1 0-.1.1-.2.1-.1-.4.3-.9 0-1.5.1.5-.1.8-.1 1-.5-.2-.6-.9-1.1-1.3.1.2.2.2.2.4-.4-.1-.1 0-.1.2-.3 0-.2-.3-.4-.4.1-.2.3.1.3-.1-.2 0-.2-.5-.4-.2-.1-.2.3-.3.1-.4-.1.1-.3.1-.3.2-.1-.3 0-.2.2-.4-.2-.1-.2.1-.3.1 0-.5.8-.2.9-.3-.3.1.1-.1-.1-.1-.3-.1-.4.2-.7.1 0-.2-.2-.2-.2-.4 0 .1 0 .2-.1.2.2 0 .2.2.3.2h-.3c-.1-.2 0-.5-.2-.5 0 .1 0 .1-.1.2 0-.3.3-.2.3-.5-.2.1-.3.3-.4 0 .5-.1-.1-.2.4-.4.1.2.1.5.2.7-.1-.5.3 0 .2-.5.3 0 .1.4.3.4 0-.2-.2-.4.1-.4 0 .2 0 .4.2.4V13c.3-.1.1.3.3.4 0-.1-.1-.4.2-.3.3-.1.1.3.3.3-.1-.5.3.1.3-.1-.1-.2-.4-.1-.5-.4.3-.1.6.2.8.1-.5-.1-.9-.3-.9-.8.3-.1.2.2.3.2 0-.2 0-.4-.2-.4-.2.3-.7.4-.9.1-.1.4-.4.2-.7.4 0-.2-.3-.4-.1-.5 0 .1.1.2.2.2-.1-.5.5-.4.5-.4-.1 0-.1-.1-.1-.1.3 0 .3-.2.5-.2.1.1.1.3.2.4.1-.2-.3-.5 0-.4.2.1.2.4.3.5 0-.3-.2-.4-.2-.6.2-.1.4-.2.5-.1-.1.2.1.6.2.8 0-.1-.2-.5 0-.3.1.1.1.4.2.4-.2-.9-.4-1.1-.8-1.6-.1.1-.4.3-.4.2 0-.1.4-.2.2-.3-.2.2 0-.1-.2-.1-.4 0-.5.1-.7-.1-.1.3-.1 0-.2 0-.3.1-.6.4-.6.1-.1.2-.3.3-.6.3 0 .5-.6.5-.7.8-.1.4-.4.6-.7.8-.2-.8 0-1.9-.3-2.5-.1.2 0 .2-.1.3-.3-.2 0-.4.3-.4 0 .5 0 1 .2 1.4 0-.7.1-1.1-.1-1.6l1-1c-.1.3 0 .5.2.7.1-.3-.3-.5 0-.6.2.4.2.8.4 1.2 0-.2-.1-.5.1-.6.1.1.2.4.3.5-.2-.8.1-.6-.4-1.2 0 .1.2.5 0 .3-.2-.1 0-.3 0-.4-.6-.5-1.5.1-2.2 0-.1-.5-.5-.6-.7-1 .2 0 .4.2.5.1-.3 0-.3-.2-.5-.3-.3.1-.5.4-.8.7-.1-.1.2-.3 0-.3-.1.1 0 .4-.2.3-.1-.1.2-.3 0-.3 0 .5-.4-.2-.6.2.1 0 .3 0 .2.2-.2 0-.3.1-.5.3 0-.1 0-.2-.1-.2 0 .1 0 .2-.1.3-.4-.2-1-.6-.9-1 0 .1.1.2.2.2-.2-.2-.1-.5-.3-.7-.2-.1 0 .5-.1.2 0-.4-.2-.4-.3-.7.3 0 .2.4.4.4.2-.2-.2-.2.1-.4-.3-.4-.6-.4-.9-.6 0 .1.1.2 0 .2-.2-.3-.2-.6-.7-.7-.1.1 0 .4-.1.4 0-.4 0-.1-.2 0 0-.1.1-.4-.1-.4 0 .1 0 .6-.1.4.1-.3-.1-.3-.2-.4 0 .1.1.2 0 .2-.1-.3-.3.1-.3-.2.1 0 .2-.2.4-.1-.1-.2-.2-.4-.6-.4.2.1-.1.6-.2.4.1-.1.1-.2.2-.4-.1 0-.1.1-.2.1-.1-.2.1-.5 0-.5-.1.1 0 .3-.2.2-.1-.3-.3-.3-.5-.4 0 0-.2-.3-.2-.5 0 .1 0 .1-.1.2-.3-.2.2-.4 0-.4 0 .1-.1 0-.2-.1-.3.7.1.6-.1 1.1-.2 0-.2-.3-.4-.1-.1-.2 0-.4-.2-.4.2.4.3.9.5 1.3-.3 0-.3.1-.5.4 0 0 .4-.2.4 0-.3 0-1.1.3-1.1-.2-.3 0-.5-.4-.8-.2-.2-.4-.6-.7-.8-.7.1.1 0 .4.2.2-.1.2-.1.1-.1.4-.6 0-.7.9-.5 1.4.2-.5.1-.9.2-1.3h.3c0 .4.5.6.2 1 0-.1 0-.2.1-.2-.3.1-.4.8-.3 1 0-.2.1-.7.2-.6 0 .1-.2.4 0 .4 0-.3.1-.5.2-.7.1.4-.2.7 0 1 0-.6 0-.1.1.1 0-.2-.1-.6.2-.6.3.5.5 1.4.2 1.9-.1.2 0-.2-.2-.2-.1 0-.1.1-.1.2-.2-.1 0-.5-.1-.5-.2.3-.2 0-.2-.1-.1 0-.2.2-.3.4-.1-.2-.2-.2-.4-.1-.1-.4-.6-.5-.9-.7.2.2.1.2-.1.3.3.3.2.6 0 .8-.1-.2-.1-.4-.2-.4 0 .1-.1 0-.1-.1.1.2-.3.3-.1.4 0-.1.1-.2.2-.2 0 .1-.1.2-.1.3.2-.2.3.2.4.2 0 .1-.2.4 0 .4-.4.3-.7 1.2-.5 1.9.2-.1-.1-.7.2-.7.1.4.1-.5.4-.4.3 0-.1.3.1.4v-.2c.2 0 .4 0 .3.3.2-.2.3.1.5.2 0 .6 0 1.1.1 1.7.1 0 .1.1.2.1-.1.4.3.9-.1 1 0-.2-.8-.5-.5-.7-.2 0-.4.2-.2-.2-.2 0-.1.2-.3.1v-.4c.3-.1.3.5.5.3-.1-.1-.3-.6-.5-.4 0 0 .1 0 .1.1-.3-.2-.5-.5-.8-.7-.1.3-.4-.4-.8-.1.3-.1.4.8.3.4-.2-.1-.3-.6-.5-.4.1.1.4.5.3.6-.2-.2-.3-.4-.5-.6-.1.2.3.2.1.3-.1-.3-.5-.4-.7-.2.1-.1.3.1.2.2-.3-.2-.6 0-.8.3.1-.1.2-.1.3-.2.2.1.4.2.5.4-.6-.2-.8.1-1.3-.1.1-.3.4-.3.6-.5-.5.2-.9.4-1.2.7.1.1.7.1.4.3-.2-.1-.4-.3-.8-.2 0 .1-.3.4-.1.4 0-.2 0-.3.1-.4.1.1 0 .4.1.5v-.3c.2 0 .3.1.5.2.1.2-.3.3-.1.4-.1-.2.1-.2.2-.3.3 0 .4.2.7.2-.1.3.1.8-.1 1 .1 0 .2.1.2.1-.3-.2-.7-.5-1-.5.2.3.9.5.8.8-.4-.2-.9-.8-1.3-.6.6 0 .8.4 1.2.7-.5 0-.9-.6-1.3-.5.2.1.4.1.4.3-.1.1-.2-.2-.3 0 .3.1.6.1.7.4-.4-.1-.8-.5-1.2-.3.2.1.4 0 .5.2-.4-.3-.3.6-.1.7V15c.3 0 .1.5.1.7-.1 0-.2-.1-.2 0 .2.4.8 0 .9.4-.2 0-.5-.1-.6.1.2 0 .5-.1.6.1-.1 0-.2.1-.2.2-.2 0-.3-.1-.6-.1-.2.1 0 .5-.2.6 0-.2-.4.1-.1.2-.2 0-.4-.2-.4.1 0 0 .3-.2.3 0-.2.2-.2 0-.4.2 0-.2-.4-.2-.5-.1.1 0 .2.1.2.1-.2 0-.3-.1-.5-.1.2-.2.2-.2.2-.6.3 0 .3-.2.4-.4-.2.2-.4.3-.6.1 0 .1.1.1.1.2-.4 0-.4 0-1 .2 0 .2.2.4-.1.4 0-.1.1-.4-.1-.3.2.2-.3 0-.4-.1-.1.4-.5.4-.5.7-.2-.1.1-.3-.1-.4 0 .1-.1.2-.2.2-.1-.5-.5-.3-.9-.4 0 0 .2.3 0 .3 0-.1-.1 0-.1.1-.1-.2.2-.3 0-.4-.1.3-.1.6-.3.8 0-.4.3-.6 0-.8 0 .1 0 .2-.1.1-.1-.4.1-.7.1-1.1.1 0 .2-.1.2-.2-.2-.2 0-.9-.2-1.3-.1.3-.1.5-.1.8-.1-.1.3-.3.1-.3-.1.2-.2.4-.1.7-.3 0-.2.3-.4.5 0-.1-.1-.2-.2-.2-.1.3-.1.5-.3.6-.1-.2.2-.4 0-.4 0 .3-.2.3-.4.2 0-.2-.2-.5 0-.7.1 0 .2.4.2.2-.1-.2-.2-.4-.4-.4-.2.1-.2.1-.4.4 0-.2 0-.4-.2-.4-.2.3-.2-.1-.5-.1 0 .1 0 .3-.1.3 0-.2 0-.3-.1-.4.1.3-.3 0-.2.2 0 .1.1.4 0 .2-.1-.1-.1-.4-.2-.5-.1.2.2.4 0 .4-.2-.2-.3.2-.4.3 0-.1-.1-.2-.2-.2 0 .2-.2.1-.2.3.1 0 .3.2.1.2-.1-.4-.2.1-.3.2.1.1.3 0 .2.2-.3-.2-.6.1-.5.5-.4.1-.4-.3-.7-.1 0-.1.1-.4-.1-.4 0 .1.1.4-.1.4 0 0-.1-.1-.1 0 .1 0 .3.3.1.4-.1-.2-.1-.4-.3-.5 0 .1 0 .2-.1.2-.2-.1-.2-.4-.4-.5.2.2 0 .1-.1.2.1 0 .3.3.1.3-.1-.1-.1-.3-.3-.4 0 .1.3.3.1.4-.1-.3-.3-.5-.5-.7 0 .3 0 .5-.2.2.6 1 1.7 1.4 2 2.7 0-.1 0-.3.1-.3 0 .1.1.2.1.1.1.1 0 .4.2.4 0-.1 0-.1.1-.1 0 .2.2.2.2.3-.3.1-.1.3-.3 0 0 .2-.1.5.1.6 0-.2.1-.7.3-.4-.2.1-.3.9-.1.4.1.3 0 .5 0 .9.1-.2.2.2.1.2-.1-.3-.5-.4-.5-.8 0 .3.1.8-.1.9 0-.3-.3-.3 0-.4-.2-.2-.2.2-.4 0 .1-.3-.1-.4-.1-.6-.3.1-.3-.2-.4-.2 0-.4-.2-.6-.2-1-.2-.1-.4-.2-.4-.4-.2.2.1.3.1.5-.4-.1-.6-.4-.6-.8-.1.3-.1.1-.1.4-.3 0-.4-.5-.6-.4.3.2.6.6.6.8l-.3-.3c-.1.5-.7.1-1 .1-.1 0-.1.4-.3.1-.3.4-.3.6-.5.7-.2-.2-.5.1-.6.1.3 0 .1.2.3.3.7-.1 1.6.3 2.1.6 0-.1 0-.2.2-.2 0 .1.1.1.1.1 0 .4-.2.5 0 .9-.3.5-1.2-.3-1.1.3 0-.1-.1-.2-.2-.2 0 .1 0 .2-.1.3.2-.1.4-.1.4.1-.2-.1-.2.1-.4.1 0-.2-.3-.2-.4-.1.1 0 .5.2.3.2-.2-.3-.7.1-.8-.2-.2.2-.3.7-.4.2-.2.6-.1.7-.4 1.3.1 0 .1 0 .1.1-.1 0-.2-.1-.2 0 0 .2.5-.1.4.2-.3 0-.3.3-.5.4-.1-.2.2-.3 0-.4-.5.3.1.1-.1.5.1 0 .1-.1.1-.1 0 .1-.1.2-.1.3.2-.2.1 0 .2.1 0-.2.2-.2.3-.1-.5.3.2.9-.4 1 0-.3.1-.5-.1-.7 0 .6 0 .9-.1 1.3.1 0 .1-.1.2 0-.1-.3-.1-.7.2-.4-.3 0 0 .1-.2.2.1 0 .3-.4.4-.1-.4.5-.9.9-1.3 1.4.2-.1.3-.3.5-.4.1.2-.1.4-.2.7 0 .2-.2.6.1.7 0-.6.1-1.1.3-1.6-.1.5-.1 1.3.1 1.7 0-.8-.3-1.8.5-2.2 0 .4-.3.3 0 .4-.3 0-.3.7-.5.3.2.3-.1 1.1.2 1.2 0-.1.1-.2.1-.2.1-.2-.1-.6.2-.5.2.1 0 .6.1.8.1-.1.2-.1.3 0 .2-.1 0-.4.2-.4 0 .3-.1.8.1 1 .2-.5.2-.3.1-.9.2 0 .2-.1.3-.2.1.3-.3.5-.1.6.1 0 .1-.1.1-.1 0 .3 0 .6-.1.7.4-.1.2-.8.5-.9.1.3-.1.6 0 .7-.4-.1-.3.3-.4.5.2.2.3-.2.5 0 0 .4-.2 0-.3.2.3.1-.1.4.1.6.2-.2.2-.5.5-.6-.3.5-.7 1-.4 1.3-.7.1-.3.9 0 1.3.1-.2.4-.5.4-.2.1-.2.4-.6.6-.4-.3.2-.5.6-.8.6.1 0 .2.2.1.2-.1-.2.1.1-.1.1.4-.2.6-.8.9-.8-.2.3-.5.5-.6.8.3-.1.5-.8.7-.7-.3.3-.4.7-.6 1.1.2-.1.1-.3.3-.1.1-.1.2-.6.4-.4-.2.2-.5.7-.4 1 .2-.3.3-.6.5-.9 0 .4-.3.8-.2 1.1.1-.2.1-.4.2-.5.1.2-.2.3 0 .4 0-.1.1-.5.2-.3 0 .2-.1.4-.2.6.2-.2.2.1.3.2 0-.2 0-.3.2-.3 0 .3.1.6-.2.7.1 0 0 .3.2.3 0-.3 0-.5.2-.6-.2.3 0 .5 0 .9.2-.1.2.2.2.4.3-.2.1.4.3.4 0-.2.1-.4.1-.7.2-.1.2-.3.3-.4.1-.4-.1-1.3.2-1.5 0 .2-.1.6.2.6 0-.2-.1-.5.1-.6.1.7 0-.4.2-.1.1.9-.4 1.9-.2 2.8 0-.3 0-.5.2-.7.1.5-.3.8.1 1.1.2-.3.2-.5.4-.7 0 .1-.1.4.1.4 0-.3.1-.4.2-.5.2.4-.4.8.1.6 0 .2-.1 1 .1.4 0 .2-.1.5.1.6.1-.3.1-.6.2-.1 0-.1-.1-.4.1-.4 0 .4 0 .1.1 0 0 .3 0 .7.2 1.1-.3-.1-.2.3-.3.4h.3c.1.4-.3.7-.2.9.3.1 0-.4.3-.4-.1.6.1 1-.1 1.6.4.2.3.2.1.4.4.2.2.7.2 1.1 0 .7.1 1.6 0 2.3 0 .3-.1.6-.2 1 0 .9.2 1.9 0 2.8 0 .1-.1.2-.2.3-.1 1.2.2 3-.2 3.8l.2.2c.2.7.2 1.6.1 2.3 0 .3-.2.6-.2.9 0 .7.2 1.4.2 2.1 0 .1-.3 0-.3.1.5.1.1.9 0 1.2.2-.2.1 1 .1 1.4v2.3l-.1-.1c-.1-.1-.2-.2-.3-.2 0 .1-.1.1 0 .1-.1.1-.1-.1-.1-.2h-.1c-.4-.3-1-.4-1.4-.1v.1h-.1c-.4.3-.5.7-.9 1-.4.4-1 .4-1.5.2H50v-.1c-.2-.1-.3-.1-.5-.2-.3-.1-.6-.1-1 0-.5.1-.9.4-1.4.5-.6.2-1.1.2-1.7 0-.4-.1-.7-.1-1.1-.1 0 .1-.1.1-.2.1v-.1c-.2 0-.3 0-.5.1-.5.1-1 .1-1.5.2.2.1.3.2.6.2.2.2-.4.2-.1.2-.1.3-.3-.2-.5 0-.1.2-.1.4 0 .5-.1 0-.1.1-.1.1s-.1 0-.1.1c-.2-.2-.1-.3-.1-.6-.3.1.1.7-.3.7 0-.2 0-.6.1-.7 0-.1-.1-.1-.1-.2 0 .1-.1.3-.1.6-.1.1-.2.1-.2.3-.1.1-.2 0-.3 0-.3.1.1.3-.2.3.1.2.4.4.1.5 0 .1.2 0 .3 0-.1-.3 0-.1.2-.3-.1-.3-.3.2-.4-.3.1.1.1 0 .3 0 0 .1.1.1.1.2.2 0 .2-.3.4-.4-.1.3.3 0 .2-.2.1.2.4 0 .4.3-.3-.2-.3.2-.7.2.1.1.1.2.3.2 0 .1-.1.2-.1.3-1.1.1-2.1.2-3.2.4v-.1c0-.1.1-.1.2-.1 0-.1-.1-.1-.2-.1-.1.1-.1.2-.1.3-.2 0-.3 0-.5.1V66c.1-.2.2 0 .5-.1 0-.1-.2-.1-.2 0-.3-.3.4 0 .2-.4.1 0 .3.3.3 0 .2 0 .2.2.5.1-.1-.2-.5 0-.3-.4-.2 0-.3.2-.5.3-.1-.1-.1-.3-.2-.4-.1.5 0 .4-.1.8-.2-.1-.4.1-.2.2v.1s-.1-.2-.2-.1c-.1-.3 0-.3.1-.5 0 .1-.2.1-.2.3-.2 0-.7-.5-.2-.2.1 0 .2-.2 0-.2 0-.1.1-.2.3-.2.1.1.1.2.1.3.2 0 0-.4.2-.3 0-.1-.1-.1-.1-.2 0 0 .2.1.3-.2-.3 0-.1-.3-.3-.4 0-.2.3.2.3-.1.1 0 0 .4.3.3 0-.2-.2-.3-.1-.4-.2-.1-.4-.2-.6-.2-.1 0-.2 0-.2-.1-.1 0-.2 0-.3.1h.2v.3c-.1-.2-.6-.1-.7.2 0 .2.2.2.4.2 0-.2-.2-.1-.3-.2 0-.1.1 0 .3-.1.3.4.6.3.7-.1 0 .2-.1.3-.1.5-.2.1-.4-.1-.4.2.1.2-.6-.6-.6-.2-.2 0 0-.4.1-.4-.2-.3-.1.2-.4.1 0 .2.4.2 0 .3.1.2.2.1.4 0 0 .4-.2.1-.2.4-.1-.2-.4-.2-.6-.2 0-.1.1-.1.1 0 .1-.1 0-.4.2-.2-.1-.1-.1-.2-.1-.3l-.1.1c-.1.1-.2.2-.3.2.1.1.4.3.1.4.1.1.4.2.5 0 .2 0 .1.3 0 .3.1-.1.2-.2.2-.3.1.2.3.2.5.4-.1.4-.5-.5-.5.1-.4-.4-1.2 0-1.3-.3-.1.1-.3 0-.4-.1 0 .3-.2.4-.4.3.3-.1.6.3.3.2 0-.1.1-.1.1-.2s-.1 0-.2 0c0-.3.1-.4.3-.4 0 .1-.1.1 0 .2h.3l-.3-.3c-.1.1-.4.6-.4.2-.1.2-.4.5-.6.4-.2.1.1.2 0 .3-.2-.1-.4-.4-.2-.6-.2-.1-.3.2-.4.3-.1 0-.1-.1-.2-.1.1-.1.2-.1.2-.2-.2 0-.4-.1-.6-.2-.1 0-.1.1-.1.2-.1 0-.1-.1-.2-.1 0-.1.1-.1.1-.2-.2-.1-.3-.2-.5-.4-.5-.4-.9-.4-1.5-.2-.5.2-.8.5-1.3.7-.2.1-.4.1-.7.2 0 0 .1.1.1 0 0 .1-.1.1-.1.3-.1 0-.2-.1-.3 0v-.2c-.3 0-.6.1-.8.1-.6.1-1.2.1-1.7.5-.2.1-.3.2-.5.3h.1v.3c-.3 0-.5.1-.6.2-.2-.1 0-.2.1-.3-.2.1-.3.1-.5.1-.5 0-.9-.3-1.3-.6-.2-.2-.5-.2-.7-.3 0 .2-.3.4-.4.1.1 0 .2.1.3 0l-.1-.1c-.1 0-.2.1-.3.1 0 0 0 .1.1 0-.1.1-.2.1-.3.1-.4.3-.5.7-.8 1l-.1.1c.1.1.3.1.4-.1.2.1-.3.5-.5.3 0-.1.1-.1.1 0 .1 0 0-.1 0-.2-.4.3-.9.4-1.4.2h-.1c-.5-3.1-.8-6.3-.8-9.5C18.8 26 44.9 0 77.1 0s58.3 26 58.3 58.1c0 3.3-.3 6.5-.8 9.7-.3 0-.6-.1-.8-.2-.1.1-.2.1-.3.1 0-.1.1 0 .1 0v-.1c-.4-.2-.6-.7-1-1-.4-.3-1-.4-1.5-.3.1.1 0 .5-.2.5.1-.1.2-.3.1-.4-.2 0-.3.1-.5.1 0 .1 0 .1-.1.2 0 0-.1-.1-.1-.2-.3 0-.7 0-1-.1-.4-.1-.8-.5-1.2-.6h-.1c-.3-.1-.7-.1-1-.2-.3-.4-.5-.5-.7-.6zm-17.5-22.3zm-41-33.5zm43.8 54.7c.2.1-.1.2 0 .2-.1.1-.1-.2-.2 0-.1-.1.2-.1.2-.2zm-54.5-.2c0 .1-.2.1-.2.1 0-.2.1-.2.2-.1zm6-.1c.1-.1.2-.1.3-.1 0 .1-.1.1-.1.1-.1.1-.1 0-.2 0zm-.1-.3h.1c.1 0 0 .2.1.3-.1 0-.2-.2-.1 0-.2-.1-.1-.2-.1-.3zm2.2.1c-.1-.1-.2 0-.2.1-.1 0 0-.1 0-.2.1.1.2-.1.2-.1 0-.1-.1.1 0 .2zm-2.5.1c-.1-.1 0-.2.1-.3.1.2-.1.1-.1.3zm2.2.2c-.1-.1-.2-.1-.2-.3.1 0 .1 0 .1.1 0-.1.1.1.1.2zm-1.2-.5c.2.1.3 0 .4.2.1 0 .1-.1.2-.1 0 .2.1-.1 0 .2 0 0 .1 0 .1-.1.1.1-.1.3-.2.2 0 .1-.2.2-.3.2 0-.1.1-.1.1-.1h-.2v-.1c.1 0 .1.1.2.1 0-.1.1 0 .1-.1-.2.1-.2-.2-.5-.1h.1v-.3zm.9.5h-.3c0-.1.3 0 .3-.2.1 0-.1.1 0 .2zm-1.9-.2c-.2 0-.1-.2-.1-.3.1 0 0 .1.1.3zm1.1-.9c.1.1 0 .3.2.2v.1c-.1.1-.1-.1-.2-.1 0-.1-.1-.1 0-.2zm-.4-.2c-.1 0 .1.1 0 .2.1-.1.1 0 .3-.1-.1.1-.2.1-.3.1-.1-.1-.1-.2 0-.2 0 0 .1 0 .1.1-.1 0-.1-.1-.1-.1zm-.6.3h.2c0 .1 0 .2-.1.1 0 0 0-.1-.1-.1zm-.3 0c.1 0 .1 0 .1-.1.1 0 0 .1 0 .2-.1.1-.1 0-.1-.1-.1-.1 0 0 0-.2.1.1-.1.2 0 .2zm.1.3c0-.2.1-.1.1-.3.1 0 0 .2.2.1 0 .1-.1.1-.1.2-.2-.1-.1-.1-.2 0zm.2-.3zm0 0c-.1 0-.2-.1-.2-.2.1 0 .2.1.2.2zm.2.2c0-.2.1-.2.1-.4 0-.1.1 0 .2 0 0 .1-.1.1 0 .2-.1.2-.1-.1-.3.2.1 0 .1 0 .1.1.1 0 0 .1-.1.1.1-.2.1-.2 0-.2zm4.4-.1c0-.1.1-.1.1-.2.1.2.2.1.1.3 0-.1-.1-.2-.2-.1zm.1-1.1c.1 0 .2.2.2.4-.1-.1 0-.3-.2-.3-.1 0 .1 0 0-.1zm.8.2c.1-.2.3.1.2.2-.1-.1-.1-.2-.2-.2zm.1.3c.1 0 0 0 0 0 0 .2-.1 0-.2 0 .1-.3.2.1.2 0zm-.7.7c0-.1 0-.2.1-.2 0 .2.4.1.2.3-.1-.1-.1-.2-.3-.1zm-2.1.3c-.1 0 0-.1.1-.1 0 .1.2 0 .3.2v.3c-.1 0-.1-.1-.1-.3-.1 0-.2.2-.2 0-.2.1.2.2.1.3v-.1c-.1.2-.3-.2-.3 0v-.1c-.1-.2 0-.1.1-.2zm2.1-.5c-.1 0-.1-.2 0-.1v-.1c-.1.2-.1-.1-.3.1 0-.2.2-.1.2-.3.1.2.1.1.3 0 .1 0 0 .3.2.2 0 .1-.1.1-.1.2-.2 0-.2-.2-.3 0zm-.1.5h-.2c0-.1.1-.1.1-.2.1 0 .1.1.1.2zm-.7.3c.1.1.1.1 0 0 0 .2-.1 0-.1 0 .1 0 .2-.1.1 0 .1 0 .1 0 0 0zm-.7.1c-.1 0 0-.1 0-.1.1 0 .1.1.1.2-.1 0 0-.4-.1-.1zm1-.2c-.2 0 0 0 0 0 0 .1 0 0 0 0h.2c0 .1-.1.1-.1.1-.1 0-.1 0-.1-.1zm2.3-.8c0-.1.1-.1.1-.1s0 .1.1.1c0 .1-.1 0-.1 0h-.1zm-.5-.5c.1.1.2.1.1-.1.1.1.2.1.2.2s-.1.1-.1.1c0-.1-.2.1-.2-.2zm.4.8l.1.1c-.1.1-.2-.1-.2-.2.1-.1.2.1.1.1zm-.6-.1c0-.2.1-.2.2 0-.2-.1-.1 0-.2 0zm-9.7.6c0 .1-.2.1-.2 0 0 0-.1 0-.1.1-.1-.2.2-.2.3-.1zm-1.4-1c.2 0-.1.2.1.2 0 .2-.1-.2-.1.1-.2-.1.1-.2 0-.3zm-.1.3c.1 0 .1.2.2.2v-.1c.1-.1.1.2.2.3-.2-.1-.4-.1-.4-.4 0 .1 0 .1 0 0zm2.3.1c0-.1-.1-.2-.2-.2.1-.2.1.1.2 0 0 .2.1.4 0 .2-.1.1 0 .1 0 0zm-.5-.1s-.1 0-.1-.1c0 0 .1 0 .1.1.1-.1.1-.1.1-.2h.2c-.1.2-.3.1-.3.2-.1 0 0 0 0 0zm-1.3.8s.1.1.1.2c-.1 0-.1-.2-.1-.2zm0-.1c.1.1.2-.1.3 0 .2 0-.2 0-.2.1s-.1.1-.1-.1zm-.2-.1l.2.2c-.1 0-.3-.1-.2-.2zm3.7-1c0-.1.2 0 .1.2-.1-.1 0-.2-.1-.2zm.3 0c.1 0 .1.1.2.1s0-.2 0-.2c.1.1 0 .3.2.2-.1.1-.3.1-.4-.1-.1.1-.1.1 0 0zm.4-.2c-.1 0-.3-.2-.3 0-.1 0-.1-.1-.1-.1 0-.1.1-.1.1-.2.1.2.4-.2.3.1-.2-.1-.1.1 0 .2zm-4.1 1.1zm0 0c.1 0 .1-.2 0-.1-.1-.1 0-.1.1 0 0-.1 0-.1-.1-.1 0-.1.1-.2.2-.1-.2.2.3 0 .2.2-.2-.3-.2 0-.4.1zm3.2-1c0-.1-.1-.1 0-.2.1.1.1.1.2.3-.1-.1-.2-.1-.4-.2 0-.1.2 0 .2.1zm-.2.7c-.1.1-.1 0-.2-.1l-.1.1c-.1-.1 0-.2-.2-.1.1-.2.4 0 .5.1zm-.1-.8c0 .1-.1.1 0 .2H61c0-.1 0-.2-.1-.2 0 0 .1-.1.2 0zm-.5-.1c-.4 0 .1-.1.2 0 0 .1-.1 0-.2 0zm4.1.4c0-.1.1.1.2 0-.1.1-.1.2 0 .2 0 .1-.1 0-.2-.2 0 .2-.2.3-.4.4v-.1c.1 0 .1 0 .1.1.1 0-.1-.1 0-.2.1 0 .1 0 .2.1 0-.1.2-.2.1-.3zm-3 0c0 .1.1.1.2.2-.1 0-.2.1-.2.1.1 0 0-.2-.2 0 0-.3.1-.3.2-.3zm-.6.4c0-.1.2-.1.3-.2.1 0 0 .1-.1.1 0 .2.2-.1.2.1-.2-.1-.3-.1-.4 0zm1.2 0c.1.1-.1.1-.1.2l-.1-.1c-.1 0 0 .3-.1.2h.1c0-.1-.1 0-.2 0 .1-.2-.1-.1-.2-.2 0-.1.2-.1.2-.1-.1.1.3-.1.4 0zm0-.3c.1 0 0 .2-.1.2.1 0 .1 0 .1-.2 0 0-.1.1-.1 0s.2.2.1 0zm1.7-.1c0-.2-.1-.1-.2-.1.1-.3.2.1.4 0v.1c0-.2.2.1.2-.2.1 0 .1.1.1.1-.1.2-.6.1-.5.4-.1 0-.1-.2-.3-.2.1-.1.2-.1.3-.1zm.2.6c0-.1-.1-.1 0-.2.1.1.1.1.2 0-.1.2-.1.1-.1.3-.1 0-.2 0-.2-.1-.1 0 0 .2.1 0zm-2.8.7c.1.2-.2 0-.4.1-.1 0 .1 0 .1-.1l-.1-.1c-.1 0 0 .2-.1.1.1-.1 0-.1-.1-.2-.2.1-.1-.2.1-.2-.2.1.1 0 0 .2.1 0 .1 0 .1-.1s-.1 0-.1 0c-.1-.1.1 0 .1-.1.1.1 0 .3.2.2 0 .1 0 .1-.1.1 0 0 .1 0 .1.1h.4c0 .1-.1 0-.2 0zm-2.2-.8c.2-.2.2-.2.5-.2v.2c-.1 0-.1 0-.1-.1 0 .2-.2.1-.4.1zm0-.4c0 .1 0 .2-.1.2.2-.2-.2 0-.2-.3.1 0 .2 0 .3-.1.1 0-.3.2 0 .2zm.3.5c0 .2-.1 0-.2.1V63c.1-.1.1.1.2 0zm-2.3.6c-.1-.1-.1-.2 0-.2 0 .1.1.2.2 0 0 0-.1.3-.2.2zm3.3-1.5c.3.2.2-.1.3 0-.1.2-.4.2-.4.4-.1-.2.2-.3.1-.4zm-1.8 1c.1 0 .1-.1.1-.1 0 .1-.1.2-.2.2.1 0 .1-.1.1-.1zm1.7.4c0-.1.1 0 .1 0-.1 0 0 .1-.1.1-.1-.1.1-.1 0-.1zm-.7-.1c.2.1.2-.2.3-.2 0 .2 0 .2.1.3-.1-.2-.2.1-.1.2-.1-.1-.1.1-.2.1 0-.1 0-.2.1-.2-.1-.1-.2 0-.2-.2zm32.1-.2c-.1.1-.2.2 0 .4 0 .2-.2-.1-.2-.2-.2.3-.5.4-.8.4 0-.1.1-.1.1-.2.1 0 .1.1.1.2.2-.1-.1-.2 0-.4.2 0 .2 0 .3.2 0-.1.3-.2.2-.3 0-.3.2 0 .3-.1zM58.5 21.5c.1.3.4.7.3 1-.1-.2-.5.1-.5-.1.1.1.2.1.2 0-.1-.3-.2-.5-.4-.5.3.1.2-.3.4-.4zm1 8.6c.1.2.1.6.2.8 0-.1 0-.2.1-.2 0 .1.2.3 0 .4l-.3-.3c0 .1 0 .2-.1.3-.3-.2-.2.5-.4.2.1-.1-.2 0-.4-.1.1-.6-.2-1.2 0-1.6.2.2 0 .7.3.7.2-.2-.1-.1-.1-.4.1 0 .1-.1.2-.1 0 .4.1.2.2.3 0 .2 0 .4.2.4.1-.1-.1-.4.1-.4zm-1.7 1.2c.2-.2-.1-.7.1-.7.2.2.2.7-.1.7zm.3-5c0-.1 0-.3.1-.1 0 0-.1.2-.1.1zm.5 10.3c0 .1.1.4-.1.4.1-.2-.2-.4.1-.4zm0-7.1c-.1-.1 0-.2.1-.3 0 .1 0 .3-.1.3zm-.2.7c0-.1 0-.7.1-.5-.1.1 0 .7-.1.5zm0-2.9s0 .2-.1.2c-.1-.1 0-.5.1-.2zm-.6-5.5c.1-.1.2-.4.3-.1-.1 0-.2.5-.4.3 0 0 .1 0 .1-.1-.3 0 0 0 0-.1zm-3.2 1.8c0 .1.1.2.1.3-.1 0-.2-.4-.1-.3zm1.7-.5c0 .1.2.4 0 .4 0-.1-.2-.3 0-.4zm1.1 1.1c.1 0 .1-.1.2-.2 0 .2-.2.4-.2.2zm.9-7.1c0 .1 0 .2-.1.3 0-.2-.1-.4.1-.3zm1 5c-.2 0-.1.3-.4.2.1-.5-.1-.2 0-.6 0 0-.1-.1 0-.1.1.3.3.3.4.5zm.1 1.2c.1.2-.1.5-.2.2.2.1.1-.1.2-.2zm-.7-.2c.3 0 .4.1.4.4-.3.1 0-.3-.2-.3 0 .1.1.4-.1.3-.1 0-.1-.2-.1-.4zm.2-.1c.2.1.1-.2.3-.2 0 .1 0 .2.1.3-.2 0-.4 0-.4-.1zm6.8-11.2c-.1 0-.2-.1-.2-.1.1-.1.1 0 .2.1zm.1 8.5c0 .2 0 .4-.2.4 0-.2 0-.4.2-.4zm-6.2 3.2c.1-.1-.1-.8.1-.3-.1.3.2.2.2.4-.2 0-.3.1-.5.2 0-.8.3-.3.2-.3zm-3.9.6c.4.3.4.6.6 1-.4-.1-.7-1-.6-1zm10-1.2c-.2 0-.4-.4-.2-.4 0 .1.3.1.2.4zm-.3-9.5c.3.1.1.4 0 0zm0 9.6c.1 0 .1-.1.2-.1.2.2-.2.3-.2.1zm.5-2.4c.2.4-.3.3 0 0zm-.3.1c.2.6.3 1.3.1 1.9-.1-.3-.5-.3-.3-.8.1.1 0 .4.2.4.1-.5-.2-1.1 0-1.5zm.1 3.7h-.2c0-.1 0-.3.1-.3-.1.1.1.1.1.3zM67 12c0-.2-.3-.4-.1-.5 0 .1.2.4.1.5zm.2-.1c0-.1-.1-.4.1-.5.1.2.3.5-.1.5zm.9 11.1c-.2-.4-.5-1-.2-1.5 0 .6.3 1.1.2 1.5zm-.6-11h.2v-.2h-.2v.2zm-1.6 11.6c.2 0 .4.3.2.4-.1-.2-.2-.3-.2-.4zm.4.3c.2-.1.1.2.2.2-.2 0-.2-.2-.2-.2zm-.5-10.6c0 .1.4.3.2.4 0-.1-.4-.3-.2-.4zm.5.3c.3.2-.2.2 0 0zm-.3 9.1c0 .2.4.5.2.7 0-.2-.4-.4-.2-.7zM53.1 26c0 .1.1.2.2.2 0-.2-.3-.4-.3-.3 0 0-.1.1-.1 0 .1-.1.3-.5.4-.3-.1 0-.2.1-.2.2.3 0 .1.2.3 0 0 .2.1.5-.1.5 0 0-.5-.2-.2-.3zm0-.6h-.3c0-.3.4-.3.3 0zm-.3-.5c.1 0 .2 0 .3.2-.1-.1-.4 0-.3-.2zm.8-6.9c.1-.4-.1-.4-.2-.6.2 0 0-.4.2-.4.1.2.4.2.4.5-.2.1.1.3-.1.1.2.2 0 .3.2.4-.3-.2-.2.2-.3.1 0-.1.1-.2.1-.3-.2-.1-.1.1-.3.2zm-1.1 6.2c.1-.2-.1-.2-.1-.3.2 0 .3.3.1.3zm-.3-.9c.1 0 .1-.1.1-.2.3-.1.2.2.4.2-.3.1-.4.1-.5 0zm0 9.1c0 .2 0 .4-.1.4 0-.2 0-.3.1-.4zm.5-7.9c.1 0 .2 0 .3-.1v.2c-.1.1-.2.1-.3-.1zm.1-1c0 .1.1.4-.1.4 0-.3-.1-.1-.2 0-.2-.1.1-.2-.1-.2 0 0 0 .1-.1.1.1-.4.4-.1.5-.3zm1.4-7.5c.3.4-.4-.1 0 0 0-.1 0 0 0 0zm.6 4c-.1.2-.2.6.1.3 0 .3.1.7-.1.8 0-.1-.1 0-.2-.1.1 0-.1-1.1-.2-.7 0-.2.3-.4.1-.6.1.8-.3-.3 0-.3 0 .4 0 .1.2.1.1.2 0 .5.1.5zm0 0zm.1-.2s0 .1-.1.1c.1 0 0-.1.1-.1zm-.5-.5s-.3.2-.3 0c.1-.4 0-.4.3 0-.1 0 0-.1 0 0zm-.2 8c-.1-.3.2-.2.1-.4-.4-.1.2.1.2-.1 0 .2-.2.3-.3.5zm.2-3c-.3 0-.6-.1-.2-.2 0 0 0-.1.1-.1 0 .1.2.1.1.3zm-.2 1.7v-.2h.2c0 .2-.1.2-.2.2zm.3.4c-.2-.1-.2.1-.4.2 0-.4.4-.4.4-.2zm-.2 1c-.1.2-.1.4-.2.5 0-.3 0-.4.2-.5zm-1-3c0-.2.1-.2.2-.2.1.1 0 .2-.2.2zm2.1 4.3v.3c-.3.1-.3-.5 0-.3zm-.4 1.2c.1-.3-.2-.5 0-.7 0 .3.2.6 0 .7zm-.1 6.2c.1.5-.3.1 0 0zm-.1-5.9c0-.1 0-.5.1-.3 0 .1 0 .6-.1.3zm.6-9.8c0-.1 0-.5.1-.3 0 .1 0 .5-.1.3zM52.6 26c0-.2 0-.4.2-.4 0 .1 0 .1.1.1 0-.1.1-.2.1-.1-.2.1-.2.3-.4.4zm3.1-5.5c-.1 0-.1.1 0 0-.1.1-.1.1 0 0-.1 0-.1 0 0 0zm0 2.8c.1 0 .2 0 .2-.1 0 .3.3.7.1.9.1-.3-.4-.3-.3-.8zm-.1-2.7c.2.1.1.5.3.7 0-.2-.1-.8.1-.6.1.7.3 1.1.4 1.8-.1.1-.3.1-.5.1.1-.4-.5-1.6-.3-2zm-2 8.7c-.3-.4.2-.2 0 0zm.5-3.1c-.2 0-.3.2-.5.2 0-.1-.1-.7.1-.5 0 .1-.1.4.1.4 0-.3-.1-.6.2-.6.1.1 0 .2.1.5zm1.3-5.4c0 .7.3 1.2.2 1.6-.2-.3-.3-1.3-.2-1.6zm10-7s-.1-.1 0 0c0 0 .1 0 .2.1-.1 0-.1.1-.2.1-.1-.2-.1-.1 0-.2zM53.8 27.5c.1-.2 0-.5.2-.5-.1.1.1.6-.2.5zm.7 3.8c.1 0 .1.1 0 .2 0 .1-.1.3-.2.3 0 0-.2-.4 0-.4-.1-.1 0-.6-.2-.2.1-.3-.3-1.1 0-1.1-.2-.2-.2-.8 0-.7 0-.2-.3-.1-.2-.4.2-.1 0-.3.2-.1-.2-.4.1-1.2.5-1.1-.1 0-.1.2-.1.3-.4-.1-.2.5-.1.1-.2.3 0 1.1-.2.7 0 .3.1.4.2.6 0-.2-.1-.5.1-.5.1.1 0 .5.3.5-.2.7 0 1.7-.3 1.8zm18.1-11.4c.1.1.2.4 0 .4 0 0-.1-.4 0-.4zM54.1 32.2c-.1 0-.1.8-.2.8-.1-.2 0-.7.1-1-.1.1.3 0 .1.2zm-.2-3.8c0-.1-.1-.4.1-.4.1.2.1.3-.1.4zm3-6.6c0 .1 0 .7-.1.5.1-.1 0-.7.1-.5zm9.5 3.5c-.1-.2-.3-.3-.2-.7h.4c-.1.4-.2.5-.2.7zm.1-.2c0-.1.1-.2.1-.2.1.1.1.3-.1.2zm-2.3-4c0 .1 0 .7-.1.4 0-.1-.1-.6.1-.4zm2.6 4v-.3c.2-.1.4.2.4 0 0 0 0-.1.1-.1-.1.2-.3.3-.5.4zm1.4 6c0 .1-.1.2-.2.2 0-.1.1-.1.2-.2zM66 25.2c.1-.3-.2-.2-.2-.4.3-.1.4.4.2.4zm.1-3.3c.2-.1.4-.1.4.2 0-.3 0-.6.1-.8 0-.4.1-.1.1.2 0 .2-.1.5.2.5.1-.4 0 .2.1.2.1-.5-.2-.9 0-1.2.2.3-.1 1.1.2 1.4 0-.4-.1-.9.1-1-.1.4 0 1.1.2 1.5 0-.2-.1-.6.1-.7 0 .3-.1 1 .2.5 0 .2.2.3.1.6.2-.1.3.2.4.4-.3 0-.2.2-.1.3-.3.1-.4.4-1.1.3.1-.4 0 0-.1-.1-.2-.2-.2-.6-.2-.8-.1-.3-.4-.6-.5-.9-.2-.2-.2-.4-.2-.6zm.6 2.1c0 .2.3.5.2.6-.3-.1-.3-.4-.2-.6zm1.4 7.6c.1-.2.3-.6.4-.5-.2.2-.2.4-.4.5zm-3.5-11.2zm-.4 1.4c.2.2-.3.2 0 0zm1.1 3.3c.1-.2.5.2.5 0 0-.1-.6-.1-.4-.2.1 0 .3 0 .3-.1-.1 0-.1-.1.1-.1 0 .2.1.3.1.5-.1.1-.6.1-.6-.1zm-.7-2.8c.2 0 .3-.1.5-.2-.3-.1-.6.4-.8.2.2-.1.4-.2.5-.4-.3.1-.3.1-.7.3 0-.3.3-.3.4-.4-.6.1-.3-.9-.2-1 0 .3 0 .7.1.9 0-.5 0-.9.1-1.2 0 0 .2-.5.3-.4.1.7-.1 1.5.3 2.1 0 .1-.4.2-.5.1zm.7.6c-.1 0-.4.2-.5 0 .2 0 .4-.2.5 0zm.4 2.8c-.2.1-.2.2-.4.2-.2-.2.2-.1.4-.2-.3-.1-.4-.1-.4-.2.1 0 .3 0 .3-.1-.2 0-.3 0-.3-.2.3 0 .5 0 .6.2-.2.3-.4 0-.2.3zm-.8-1.3c.1-.4.4.1 0 0zm.2-1.2h.2V23h-.2v.2zm1.1 1.3c0-.1-.2-.4 0-.5 0 .2.2.5 0 .5zm2.3 5.9c0-.2 0-.3.1-.3 0 .2 0 .3-.1.3zm4.7-18.3c0 .1.1.1.1.1-.1 0-.3 0-.2-.1h.1zm-.1 8.9c.1.1.1.3.1.4-.2 0-.2.1-.4.1 0-.3.1-.5.3-.5zm-.3-10.1c0 .1 0 .6-.1.4 0-.2 0-.7.1-.4zm0 .6c-.1 0-.1.1-.2.1 0-.1 0-.2.1-.2-.1 0 .1 0 .1.1zM65.3 13c0 .1-.2.4-.2.2.1.1-.1-.3.2-.2zm7.6 8c-.2.1-.1-.1-.3.1 0-.3.3-.4.3-.1zm.2-.9c0 .1 0 .3-.1.3 0-.1-.2-.4.1-.3zm0-1.4c0 .1 0 .1 0 0l.1.2c-.2.1-.3-.2-.1-.2zm-.2 14.6s0 .1 0 0l.1.2c-.2.1-.2-.2-.1-.2zm0-.2c-.2-1.2.3-.1 0 0zm-2.5-4.9c0-.4.2-.7.3-1-.1.4 0 .9-.3 1zm3-2.5c-.4.1.1.5-.4.7 0-.4-.1-.9.2-1.1 0 .2.1.2.2.4zm-.3 1.6s0 .1 0 0l.1.2c-.2.1-.3-.2-.1-.2zm-.4-6.8h.4v.2c-.1-.1-.5.1-.4-.2zm-.1-8.7h.2v-.1h-.2v.1zm.6 7.7c0-.1 0-.1-.1-.1 0 0 0 .1-.1.1 0-.1 0-.2.1-.2 0 .1.1.1.2.1-.1-.1-.1 0-.1.1zm-.6-.9c0-.1 0-.2.2-.2 0 .2 0 .3-.2.2.1.1.1 0 0 0zm.1-8.5c0-.1 0-.3.1-.1 0 .1-.1.3-.1.1zm-9.2 11.3c-.2-.2-.2-1 .1-.9-.4.2.2.6-.1.9zm-.3-3.4c.1 0 .2 0 .3.1.1.2-.2.1-.3.1V18zm-.1.3c.3 0 .1.2.2.3-.1 0-.3 0-.3-.1.1 0 .1-.1.1-.2zm.2-1c0 .3-.1.4-.2.5 0-.3 0-.5.2-.5zm-.7 1.8c.1.2-.2.1-.2.2v-.2s0-.1.1-.1c-.1.2 0 .1.1.1zm.2.3c-.5.5 0-.2 0 0zm.2-1.7c0 .2 0 .5-.1.5 0-.1-.2-.5.1-.5zm0 2.4c0-.1 0-.1.1-.2 0 .1 0 .2.1.2-.2-.1-.1.2-.4.2-.1-.2.3 0 .2-.2zm.4-1.3c-.2 0-.5.1-.5-.1.2-.1.4 0 .5.1zm1.4-1.6c.2 0 .4 0 .4.2-.3 0-.4 0-.4-.2zm.3-3.6s0-.1 0 0c.1 0 .1 0 .2-.1 0 0 0-.1.1-.1v.3h-.2v-.1zm-3.7 3.2c-.2-.2.2-.3.3-.1 0 0 .1-.1.1 0-.2.3-.3-.1-.4.1zm3.2-1.7c0 .2 0 .3.2.4 0-.2-.1-.2-.2-.4.3.1.5.2.5.5-.2 0-.3 0-.2.1-.3-.2-.6.2-.7-.2.1 0 .4.2.5 0-.2.1-.3-.1-.5-.1.1-.2.1-.3.4-.3zm-.2 2.7c.4.3-.6-.2 0 0 0-.1 0 0 0 0zM63.2 20c.4-.3.2.2 0 0zm.6-5.3c.1.1.3.1.4.2v.7H64c-.1-.4 0-.2-.3-.1-.1-.2-.1-.8.1-.8zm-.1-.3c.4.2-.3.2 0 0zm.4 3c.1 0 .3 0 .3.1-.2.1-.4.2-.3-.1zm-3.6 6.1c.1 0 .3-.1.5-.2.8 0-.5.4-.5.2zm2.8-1.4c.1 0 .2-.3.3-.1-.1.1-.2.4-.3.1zm.4-3.5c-.3.1-.3-.3-.1-.3 0 .1.1.2.1.3zm-.1 2.3c-.1-.1.1-.4.1-.2 0-.1-.1.2-.1.2zm0-3.7c0 .1.1 0 .1 0 0 .1-.2.4-.3.3.2.1-.1-.3.2-.3zm.3.7c.3 0 .8.2.7.3-.1-.2-.6-.1-.7-.3zm-.1 3.9c0-.1.1-.2.2-.2 0 0-.1.4-.2.2zm0-1c0 .1 0 .3-.1.2.1-.2.1-.3.1-.2zm.1-4.6c-.1.3-.3.2-.5.1v-.2c.3-.1.3.1.5.1zm-3.8 6.9c0 .1 0 .2.1.3-.2.1-.2-.3-.1-.3zm.1-2.5c.1 0 .1-.1.2-.2v.2h-.2c0 .1 0 .1 0 0zm1.2.9c-.1 0-.8.2-.6.1.4-.2.3-.4.6-.7.2.2-.2.3 0 .6zm-.1-4.9v.1h-.2c0-.1 0-.1.2-.1zm1 1.7c.2-.1.1-.4.2-.4-.2-.2-.2.2-.2.4zm-1.6.4c.3-.5 1-2 1.9-1.3.1.2-.2.3 0 .3.1 0 .2-.3.2-.1-.1.2 0 .9-.1 1.1-.4.1-.3-.3-.5-.4.1.4-.6.8-.7.9.2-.1.1-.3.2-.5-.2 0-.4.4-.5.3 0 0 .2-.3 0-.3-.1.3-.2 0-.4.2 0-.1.1 0-.1-.2zm.2 3.1c-.2.3.3.5 0 0zm-.8.3c.2-.1.2.2.3.2 0-.1-.1-.4.1-.5.1.2 0 .6.2.7 0-.3 0-.6-.1-.8.3 0 .4-.2.7-.2 0 .2-.1.6.1.7 0-.2-.1-.9.1-.7 0 .5.2-.1.2-.1 0 .1.1.2.1.2.1-.3-.1-.4-.1-.7 0 .1 0 .5-.1.3-.1-.3.1-.3.1-.6.3 0 .6-.4.8-.2-.2.2-.5.9-.4 1.2 0-.5.4-1.4.5-1.3 0 0-.2.4 0 .4 0-.1 0-.3.1-.2 0 .2 0 .4.1.2 0 .1-.2.4 0 .4.1-.3 0-.7.4-.7-.2.4.1.6.1 1-.3-.1-.2.2-.4.1-.2 0 0-.3-.2-.3 0 .2.2.3 0 .5-.2-.2-.1-.6-.3-.7 0 .4.2.9-.1 1.1 0-.1.1-.4-.1-.5 0 .2-.1.3-.1.4.1 0 0-.2-.1-.2s-.1.7-.2.2c0 .1.2.3 0 .4-.1-.2-.1-.5-.3-.7 0 .3.1.5.2.7-.2-.1-.1.2-.1.2-.3.3-.8.4-1.3.5 0-.3.1-.5.1-.7-.4.4-.2-.2-.3-.3zm2.2 5.4c.3.3-.2.2 0 0zm2.1-7.2c.1.4-.3 0 0 0zM61 28.1c-.1.1 0 .1 0 .2.1-.1 0-.2 0-.2zm.1-.3c0 .4.3.9 0 1.1-.3-.3-.4-.9-.5-1.3 0 .2.2.3.4.4-.1-.1-.1-.3.1-.2zm-1 2c0 .1.4.3.2.5-.1-.1-.4-.3-.2-.5zm-5.3-1.2c0 .2 0 .3-.1.4-.1-.2-.1-.4.1-.4zM42.9 65c.2.3.2.1.5 0 .1.1.1.3.2.4-.1 0-.3 0-.4.1 0-.1-.1-.1-.1-.1-.1.3-.2-.1-.4.2-.2-.4.2-.4.2-.6zm11.4-2.7c.1-.1.1-.2 0-.3 0-.1.1.3 0 .3zm61.1 3.2c0 .2 0 0-.1.1v.1h.1c0 .1 0 .1-.1.1-.2-.3-.4 0-.6-.3 0 0 .1-.1 0-.1h.3c0 .1-.1 0-.1.1.2.3.3 0 .5 0zm-71.7-.2zm-.1 0zm2-.2v-.2c-.1-.1-.3.2-.5.1.1-.2.3-.2.4-.3 0 .1.1.1.2.1v.2c0 .1-.1.1-.1.1zm-2.6.3s.1 0 0 0c.1 0 .1 0 0 0zm71.9.5c.1.2-.2-.1-.4 0-.1-.1.1 0 .1-.1l-.1-.1c-.1 0-.1.2-.2.1.1-.1 0-.1-.1-.2-.2.1-.1-.2.1-.2-.2.1.1.1 0 .2.1 0 .1 0 .2-.1 0-.1-.1 0-.1-.1-.1-.1.1.1.1-.1.1.1-.1.3.2.2 0 .1-.1.1-.1.1s.1 0 .1.1c.1.2.2.2.2.2h.2c-.1.1-.1-.1-.2 0zm.9.4c.1-.1 0-.3-.1-.3-.1.1.1.2.1.1v.2l-.1-.1c0-.1-.1-.1-.1-.2-.1 0-.2.1-.1.1-.1.2 0-.2-.2-.1s.1-.3.1 0c.1-.1 0-.3-.1-.5 0 0 0-.1-.1-.1-.3.1-.3 0 0 0 .1 0 .1.1.2.2.1 0 0-.1 0-.1.1 0 .1.1.1.1.1 0 .1-.1.2 0s-.1 0-.1 0c-.1.1.2.2.2 0v.2c.1 0 .1-.2.2-.1-.2.1.1.4-.2.5 0 0 .2 0 .1.2v-.1c.1-.2 0 .1-.1 0zm.7-1c0 .1-.1.1-.1.2-.1-.2 0-.1-.2 0 0-.2.1-.1.1-.2.1-.1 0 .1.2 0zm.3 1c0 .1-.1.1 0 .2 0 .1-.2-.1-.1-.2h.1zm-.7-1.2c.1 0 .1 0 .2-.1.1.1-.1.2-.2.1 0 .2.1.1 0 0s0 0 0-.2c.2.1 0 .1 0 .2zm.9 0c0 .1-.1.1-.1.2-.1.1 0-.1-.1 0v.2c.1 0 0 .1-.1.1 0-.1 0-.1-.1-.1.1-.1.2-.2.1-.3.2-.3.2-.1.3-.1zm-.1 1c0 .1-.1.1-.1.1-.1 0-.1-.1-.2-.1h.3zm-.2-.4c.1 0 0 .2 0 .3-.1-.1-.1-.3-.1 0-.2 0-.1-.1 0-.2 0 0 .1 0 .1-.1zm-.5-.1c.1.1 0 .1 0 .3-.2 0-.1-.2 0-.3zM46.5 65c-.1 0 0 0 0 0zm70 .7c0 .2-.2.1-.2.2-.1-.1.1-.2.2-.2zm-66.2-2.1s0 .1 0 0c.1.1 0 .1 0 .1h.1c0 .1-.1.1 0 .1 0 .1-.1.1-.2.1 0-.1 0-.3.1-.3.1-.1.1 0 0 0zm-5.3.3c.1-.1.2-.2.2-.3.2.1 0 .3-.2.3 0 .1-.2-.2-.1-.2.3 0 .1.1.1.2zm2.1.4c-.3 0-.1-.3.1-.3 0 .1 0 .2.1.2.2.3-.3-.3-.2.1zm3.8.2c0 .1.1.1.1.2h-.2s-.1-.1-.1-.2c.1 0 .2 0 .3-.2 0 .1 0 .1-.1.2zm-2.3-.7c0 .1-.1-.1 0 0 .1 0 .1-.1.2-.1v.1c-.1 0-.2-.1-.2 0zm1.1-.9c0-.3.1.2.1-.1.1 0 0 .1.1.2-.1-.1-.1.1-.2.1 0 0 0-.1-.1-.1 0-.1 0-.1.1-.1zm1.2.8c0 .1-.2-.1-.2.1-.2-.1.1-.2.2-.1-.1-.1-.1 0 0 0zm16.2-1c0 .1.1.1.2.1-.1.1 0 .2-.1.3.1 0 .1 0 .3-.1v.2s-.1-.1-.2-.1c0 0-.1.1-.1.2-.1 0-.1-.1-.2 0 .1.1-.1.2-.3.2l.1.1c-.1-.1-.1-.1-.2-.1.1-.1-.1-.2-.3-.2 0-.2-.1-.2 0-.3.1 0 0 0 0 .1h.1c0-.1-.1-.1 0-.2 0 .1.2.1.3 0 0 0 0 .3.1.1.1 0-.1.1-.1.1.1.1 0 .1-.1.1 0 .1.1.1.2.1 0 0 0-.2.2-.1l-.1.1c.1 0 .1-.1.2-.2-.1 0-.1-.2-.1-.3-.1 0 0 .1-.1.1v-.1c0-.1.1.1.1-.1-.1.3-.2.1.1 0zm-16.4 1.6c0 .1-.1.2-.2.2 0-.2.1-.2.2-.2zm-5.2 0c.2.1.3.2.4.3.1.2-.1.1-.1.2-.1 0 0-.1 0-.1-.1-.2-.5.1-.6-.3.3.1.5.2.3-.1zm8.5-.1c.1.3-.2.1-.3.2h-.1c0-.1-.2-.1-.2-.2.1 0 .3.1.4-.1.1.1.2.1.2.1 0 .1 0 0 0 0zm-2.4.4h-.1v-.1c.1 0 .1-.1.1.1.1-.1 0-.1 0 0zm-6.7-1.1c0 .3-.2 0-.3.2 0 .2.3-.1.2.2-.2.1-.3-.3-.4-.1-.2-.1.3-.2.4-.4 0 .1.1.1.1.1zm8.5.8c-.1.1-.1.2-.3.2.1-.2.2-.3.4-.3-.1-.1-.2.1-.2 0 .1-.1.2-.1.3 0-.1.1-.1.2 0 .3h-.2c-.1-.1 0-.1 0-.2zm1.2-.6c0-.1.1-.1.2-.1 0 .2 0 .1-.2.1zm-10.2.8c-.1-.1-.2-.4-.4-.3.1-.5.6 0 .4.3zm-.1.1c.1 0 0 .1.1.1-.1.1-.3-.2-.5-.2.1-.2.4.3.4.1zm-1.7-.6c.1-.1.4.4.4.6-.2-.1-.1-.6-.4-.4 0 0 .2-.2 0-.2zm1.2.5c.1-.3-.2-.5.1-.5 0-.2-.1-.4-.3-.4 0-.2.2-.1.2-.3.1 0 .1.2 0 .2 0 .2.1.3.2.4-.3.2.2.5-.1.5-.1-.3-.2.4-.4.4.1-.2-.1-.2 0-.4.1 0 .2.1.3.1zm11.1-.9zm79.5 4.8c.1-.2.1-.2-.1-.3.1-.1.1 0 .2 0 0 .1 0 .2-.1.3zm-.4.6c.3-.2-.1-.4 0-.7h.2c0 .1-.1 0-.1.1.1.2.2.3.3.3v.3h-.4zm-2.5 0c.1.1.1.2.1.3h-.1V69zm-12.9-2.7c-.1-.1-.2 0-.2.1-.1 0 0-.1 0-.2.1.1.2 0 .2-.1.2-.1 0 .1 0 .2zm12.7 2.8l.1.1c-.1 0-.1 0-.1-.1 0 .1 0 .1 0 0zm-10.9-2.3s0 .1.1.1c-.1.1-.1-.1-.2-.1 0-.1.1-.1.1 0 .1 0 0 0 0 0zm-1.3-.6c-.1-.1 0-.1.1-.1 0 .1.2.1.3.2v.3c-.1-.1-.1-.1-.1-.3-.1-.1-.2.1-.2-.1-.2.1.2.2 0 .3v-.1c-.1.1-.3-.2-.3 0v-.1c.1-.1.1 0 .2-.1zm.6.5c-.1-.1.1-.1.1-.1.1 0 .1.1.1.2-.3 0-.1-.3-.2-.1zm1.3.5h-.1c.1 0 .1.1.1 0zm-.4-.4c-.1-.1.1-.1 0 0zm.4.4c.1 0 .1 0 0 0 .1 0 0 0 0 0zm-2.7-.8c.1-.2.1.1.1.2-.1-.1-.2-.1-.1-.2 0-.1 0-.1 0 0zm2.4.5s0-.1-.1-.1l.1-.1.1.1c0 .1-.1 0-.1.1zm9.8 2.1c0-.1 0-.2-.1-.2 0-.1.2 0 .3 0v.2c-.1.1-.2.1-.2 0zm-.6-.1c-.1 0-.1-.1 0 0 0-.1 0-.1 0 0zm-1.3-.3c0-.1-.1-.2-.2-.2 0-.1.2 0 .2-.2-.1.1-.5-.1-.7.2-.1-.1-.2-.2-.2-.4.5-.2.7.1 1.1.1-.2.1-.1.1 0 .3-.1 0-.2.1-.2.2zm.6.2c-.1-.1-.2-.1-.3-.1.1-.2.3-.3.4-.5.2.2-.1.4-.2.4 0 .1.2 0 .4.1.1 0 .2-.2.1-.3.1-.2.2.1.1.3-.1 0-.2 0-.3.1h-.2zm-7.6-1.5c0 .1-.1.1-.1.1v-.1c0-.1.1 0 .1 0zm-3.9-1.5v-.2c.1.1.1.1.2.1-.1.2-.1.1-.2.3-.1 0-.1-.1-.2-.1.1-.2.2 0 .2-.1zm.1-.6c0-.2-.1-.1-.2-.1.2-.2.2.2.4.1 0 0 0 .1-.1.1.1-.2.2.1.3-.1 0 0 0 .1.1.1-.1.2-.6 0-.5.3-.1 0-.1-.2-.2-.2-.1-.3.1-.3.2-.2zm-31.9-2.8c-.1 0-.1-.1-.2-.1V62c.2.1.1.2.2.4zm-12.5-1.2c.1 0 .3-.1.3-.2v.3c-.1 0-.3 0-.3.1 0-.2 0-.3-.3-.3 0-.1.2 0 .3-.2.1.1 0 .2 0 .3zm45 4.1c0-.1.1.1.2 0-.1.1-.1.1 0 .2 0 .1-.1 0-.2-.2 0 .3-.2.3-.4.3 0 0 0-.1.1-.1s.1 0 .1.1c.1 0 0-.1 0-.2.1 0 .1 0 .1.1 0-.1.2-.2.1-.2zm-48.6-1.6c.1-.2.2-.5.3-.7.1 0 0 .2-.1.2 0 .1 0 .1.1.1 0 .1-.1.1-.1.1 0 .1.1.1.1.1 0 .1-.3.2-.1.2h-.2zm14.6-2c-.3 0-.2-.1 0 0zm-.3.2c.1.1.2.1.2.1v.2c-.2.1-.4.2-.4.4-.2-.3.4-.5.2-.7zm12.3.5c.1 0 .1.1.2.2v.4c0-.2 0-.4-.3-.4 0 0 .3-.1.1-.2zm1.6 1.2l-.1-.2c.2 0 0 .1.1.2zm20 2.9h-.3c0-.1.3 0 .3-.1.1-.1 0 0 0 .1zm-19.9-3.2c-.1-.1-.1-.2-.2-.3v-.2c.2-.1.4.3.2.5zm-1.6.1c0 .1 0 .1 0 0 0 .2 0 .3-.1.4-.1 0-.2-.1-.3 0 0-.2.3-.1.4-.4zm20.7 2.4c.2.1.3 0 .3.3.1 0 .1-.1.2-.1 0 .2.1 0 0 .2 0 0 .1 0 .1-.1.1.1-.2.3-.3.1 0 .1-.2.2-.4.2 0-.1.1-.1.1-.1h-.2s0-.1.1-.1.1.1.2.1c0-.1.1 0 .2-.1-.2 0-.1-.2-.4-.2h.1c.1-.1 0-.1 0-.2zm3.5.3c0 .1.1.1.1.1l-.2.2c.1.1.1 0 .3 0v.2s-.1-.1-.2-.1l-.2.2c-.1 0-.1-.1-.2-.1.1.1-.2.2-.3.1l.1.1c-.1-.1 0-.1-.2-.1.1-.1-.1-.2-.2-.3 0-.2 0-.2.1-.3.1 0 0 0 0 .1h.1c0-.1-.1-.1 0-.2 0 .1.1.2.3.1 0 0-.1.3.1.1.1.1-.1.1-.2.1.1.1 0 .1-.1.1 0 .1 0 .1.1.2 0 0 0-.1.2-.1 0 0-.1 0-.1.1.1 0 .1-.1.2-.1-.1-.1 0-.2 0-.3-.1 0-.1.1-.2.1v-.1c0-.1.1.1.1-.1.1.1.1-.1.4 0zm-24.1-2.2v.2c-.1.1-.1-.2 0-.2zm-.3.1c.1.2.2.2.2.4h-.1c0-.1-.1-.2-.3-.1 0-.3.2-.2.2-.3zm20.8 1c-.1 0 0 .1 0 .2h.3c-.1.1-.2.1-.4 0 0-.1 0-.2.1-.2 0 0 .1 0 .1.1-.1 0 0-.1-.1-.1zm.3.5c.1-.1 0-.2 0-.3.1.1 0 .3.2.2v.1c-.1.2-.1 0-.2 0zm-13.1-29.1c-.5.3 0-.3 0 0zM64.1 12.1c.2 0 .3.1.4.2-.2 0-.4-.1-.4-.2zm.4 0c-.1 0-.2-.1-.2-.2.1.1.4.2.2.2zm4.5-1.2c0 .1 0 .1.1.1 0 1.1-.3-.2-.1-.1zm-19.5 8.8c-.3-.3.3-.2 0 0zm-1.1 3.6c.2 0 .4 0 .5.1-.2 0-.6.1-.5-.1zm2.2-3.7c-.3-.3.2-.2 0 0zM68.5 9c-.3.1-.3-.2-.4-.5.3 0 .3.3.4.5zm-20 14c.1 0 .3 0 .4.1-.1.1-.4.2-.4-.1zm-.1.6c.5-.1.2.2 0 0zm44.5-.7c.1-.1.3-.2.5-.2.2.3-.2.3.2.4-.1 0-.5.2-.6.1 0-.1.3 0 .3-.1-.2-.1-.3 0-.4-.2.2.1.3 0 .4-.1-.2 0-.6.2-.4.1zm0-.2c.2-.1.2-.2.5-.2 0 .1-.5.2-.5.2zm-1.7 2.4c-.1 0-.1.1-.2.1 0-.1 0-.2.1-.2-.1 0-.1.1.1.1-.1 0 0 0 0 0zm-7.5-12.4c.1-.1.1-.4-.1-.5.1 0 .2-.1.3-.1.2.1.1.5.4.6-.3 0-.6 0-.7.1-.1-.2.2-.4 0-.4-.2.2-.1.3-.3.4.1-.2.1-.5.4-.4.1.2-.2.3 0 .3zm9.9 8c.1 0 .2-.3.3-.1-.1 0-.3.4-.3.1zm-10.4-8c.1.5-.3.1 0 0zM68.1 8.2c0 .1 0 .2-.1.2 0 0 0-.1-.1-.1 0 0 0-.1.2-.1zM84.2 13c-.1 0-.2 0-.3-.1.1 0 .4-.1.3.1zm-1.4.2c.1-.2-.1-.2-.1-.4.3-.1.4.4.1.4zm-32.4 8.9c0 .1-.4-.2 0 0 .1 0 .1 0 0 0zm-.1 9.2c-.1 0-.1.1-.2.2 0-.4 0 .1-.1.1 0-.1-.1-.5 0-.4.1.2.3-.2.3.1zm0-1.1c0 .1-.1.2-.1.2-.1-.1 0-.1.1-.2zM54 62.5c.2.1.1 0 .2-.1 0 .2.1.2.1.3-.1 0-.2 0-.2.1l-.1-.1c0-.1 0-.1-.1-.2.2.1.2.2.1 0zm-2.8-40.3c0-.4.5-.2.5 0-.2.2-.4.1-.5 0zM50 31.9c-.1-.4.4-.6.5-.6 0 0-.1 0-.1.1s.1 0 .2.1c-.2.1-.3.3-.6.4zm.9-9.7c0-.1-.2-.3.1-.3 0 .1 0 .3-.1.3zm.3-.5c.1.2.3-.2.4.1-.2 0-.2.2-.4.2 0-.1-.2-.7.1-.5-.2 0 0 .1-.1.2zm-1.5 5.8c0 .2-.1.3-.2.4-.1-.3 0-.3.2-.4zm-1.1-2.4h-.2c0-.1.1-.2.2-.2v.2zm-.3.2s.3-.2.3 0c-.1-.1-.2.2-.3 0zm2 4c.2.1-.2.1-.1-.2.1 0 .2-.1.2 0-.1.1-.1.2-.1.2zm-2-4.2c-.1 0-.1-.2-.1-.3.1.1.1.2.1.3zm.6-.5c-.1.1-.4.2-.5 0 .3.1.4-.2.5 0zm-.6-.1h-.2c-.1-.1.3-.2.2 0zm.6 3.9c-.1-.2-.1-.4 0-.5.1 0 .2.4 0 .5zm.5-2.3c0 .2-.1.2-.2.3-.1-.2.1-.2.2-.3zm-.6.5c0-.1.1-.3.1-.3.1.1.1.2-.1.3zm1.3 4.1c0-.2.1-.4.3-.4 0 .2-.2.3-.3.4zm4.5 33.4c-.1 0-.1-.1-.2 0 .1 0 .1.1 0 .2h-.1c0-.2.2-.2.2-.4.1-.1 0 0 .1.2zm-.1-.6v.2c-.1.1 0-.2-.2-.1 0-.1.1-.1.2-.1zm.1.5c.1 0 0 .1 0 .1.2-.1.1-.3.2-.4v.3c-.1.1-.3 0-.2.2h-.2c.1 0 .2 0 .2-.2zm15-41.5c0-.1-.2-.5 0-.4 0 .1 0 .1.1.1.1-.3.1-.3.2-.5.4.2-.2.7-.3.8zM54.9 64.3h-.1.1zm-.7-.1c-.1-.3-.4-.2-.6-.2.1-.1.2-.2.4-.3-.1.1 0 .1.1.1.1-.1 0-.2 0-.3h.1c-.2.1.1.3-.1.3 0 .1.1.2.2.2 0 .2-.1.2-.1.2zm60.5 1.9c-.1.1-.2 0-.3 0 .1-.1.1 0 .3 0zm-58.4-3v-.2c.1.1.1.1.4.1-.1.1 0 .1 0 .2.1 0 .1-.2.2-.1 0 .1-.1.2-.1.2 0 .1.3.1.2-.1.1 0 0 .1.1.1 0 .1-.1 0-.1 0 0 .1.1.1.2.1-.2.1-.4-.2-.5-.1-.1-.1.1-.1 0-.2-.3-.1-.2-.2-.4 0zm-2.7 0c0 .1-.1.2-.2.2 0-.1-.1-.1-.1-.2.2.2.2.1.3 0zm-.4-.4c-.1.1.1.1.1.2-.1-.1-.2-.1-.2-.2h.1zm.3 0c0 .1-.1.1-.1.1.1-.1.1-.1-.1-.2.1-.1.1.1.2.1zm-.8 1.5c0-.1-.1 0-.1-.2.1 0 .1.1.2.1 0 .1-.1.1-.1.2-.1-.1-.2-.1-.3-.1 0-.1.2-.1.3 0zm1.1-.6c.1 0 .1-.2 0-.2 0-.1.2 0 .1.2-.1 0-.1.1-.1.2 0-.1-.1-.1-.3-.1 0-.1.1-.2.1-.4.1.1 0 .2-.1.3 0 .1.1-.1.3 0zm.2-1.4c-.1 0-.2-.2-.1-.3 0 .1.1.2.1.3zm6.2-31.6c-.1.1.3.3.2.6.2-.2-.1-.5-.2-.6zm4.1 1c.2.2 0-.1-.1-.1-.1-.2-.1.2.1.1zm.9-1.2c-.4-.1.2.1 0 0zm0 .3c0-.1-.1 0-.1.1.1.2.1 0 .1-.1zm4-5.1c0 .1.1-.1.1-.1-.1-.2-.1 0-.1.1zm.3 2c0 .1.1-.1.1-.2-.1-.1-.1.1-.1.2zm.5-2.2c.1-.2-.4-.5-.4-.8-.1.3.2.6.4.8zm.1.9c0-.1 0-.1 0 0zm-.1.2zm0 .2c-.1.1-.1.1 0 0zm0-.2s0-.1 0 0c0-.1 0 0 0 0zm-.1.6c0-.1-.1.1-.1.2.1.1.2-.1.1-.2zm.3-1.6c.2-.5-.2.6 0 0zm.3-.8c.2-.5-.2.6 0 0zm.6-2.5c.2-.1-.1-.3 0-.4-.2-.2 0 .3 0 .4zM56.4 55.8c.1-1-.1-2.4.1-3.5.1-1-.2-2-.1-2.6l.2-.1c0-.1-.1 0-.2-.1 0-.3.1-.7.1-1v-.9c-.1-2.4.2-4.8.2-7.2.2-.1.4-.1.5-.3 0-.1-.2-.1-.3-.3-.1.1-.1.2-.1.4-.1-.6.5-1.1.7-1.6.2-.1.5-.1.4-.5-.2 0-.3.1-.5.1-.2-.2.1-.5.2-.5 0-.1-.1 0-.2 0 0-.2.4-.2.2-.4 0-.2.3 0 .4-.1-.2-.1-.2-.4 0-.5.3 0 .2.5.3.7.1.2.1-.3.2-.3l.1.2c.2-.2.4-.6.2-.9.1-.2.5-.7.4-.1.2-.2.2-.5.2-.9.1.1.2.2.1.4.2-.4.1-1 0-1.5.2.2.2.6.2.8.2-.1.2-.4.2-.7.4.3.5 1 .7 1.3.3-.3.4-.6.3-1.1.1.2.2.3.3.5.2-.5-.3-.8-.2-1.3.2.5.4 0 .5.4.1-.1-.1-.6-.2-.7.2-.2.3.4.5.4.1.2-.1-.4-.2-.4.2-.2.2.5.5.5-.1-.3-.3-.5-.5-.7 0-.1.1-.1.1-.1-.2-.4-.7-1-.9-1.1l-.3-.3c.3 0-.1-.8-.4-.9 0-.5.2-.5.1-.8.2.1.2.2.3.2.2-.2.1-.4 0-.6.1-.1.4.1.3.4.1-.1.2-.1.4-.1-.1.2-.2.2 0 .5.3-.3-.2-.6.2-.7 0 .1 0 .1.1.1-.2 0-.1.1.1.3.2-.2.3-.6.4-.9.2.3.1.2.2.7.1.2.1-.6.1 0 .2-.1 0-.5.1-.7.1 0 .1.1.1.2.2-.1-.1-.3 0-.5.2.1.2.3.2.5.1-.1.2-.1.2.1.1 0 .1-.1.1-.2.3.6.5 1.2 1 1.6.1-.1-.1-.4-.2-.5.3.2.4.5.6.7 0-.2.2-.2.3.1.1-.1-.2-.4-.2-.6 0-.2.2.1.2.2.1-.2-.3-.5-.4-.7.3 0 .3.3.5.4.1-.1-.3-.4-.4-.6.2-.2.6.5.8.4.1-.3-.5-.5-.8-.7.2-.1.3 0 .5.1.2-.1-.2-.2-.2-.3.1-.2.2.1.3 0-.1-.1-.3-.1-.3-.3.3-.1.5.4.5.7.1-.2 0-.7-.1-1-.1 0 0 .2-.2.2-.1-.1-.2-.2-.2-.4.2-.3.7.1.8 0-.2-.2-.2-.2-.5-.3 0-.1.1-.1 0-.1 0-.2.2 0 .2.1.2 0-.1-.2-.2-.2 0-.2.2-.2.2-.4.5.1.3.6.5.9.1 0 0-.1.1-.1 0 .3-.3.2-.3 0-.2-.1.3.4.3.5.3-.1.1-.6.4-.7.2 0 .2.2.2.4.1-.5.3-.9.3-1.6.2-.2.4-.1.2-.4.2 0 .2.2.1.4.2-.1 0-.6-.1-.7.3-.2.4-.7.6-1 .1.1.1.2.2.4.2 0 0-.3.1-.4.1.2 0 .7.3.7-.1.1-.2.3-.1.4 0 .7.2-.7.1-.8-.1-.2.1-.1.2-.3.2.1 0 .5.1.7.1-.1.1-.3.1-.5.2 0 0 .3.1.5s.1-.5.1-.7c.2 0 0 .3.1.4.1-.3.1-1.3 0-1.8 0 .1-.3-.1-.1-.4.3.3.4 1 .5 1.2.2-.3-.2-.6-.2-.9.2.1.3.2.5.4-.3-.4-.6-1.1-.5-1.9.1-.2.3-.2.4-.3.2 0 .1.3.3.3-.3.5-.1 0 .1.1 0-.2.2-.4.4-.6v1.7c.3 0 0-1 .3-.7.2-.4-.2-1 .1-1.3.1 0 .1.1.2.1.1-.4.2-.4.4-.7.2.1.5.1.7.2 0 .3 0 .6.1.8.3 0 .1-.4.2-.7.2 0 .2 0 .3.1.2.9-.3 1.4-.9 1.4-.1.4-.6.9-.8 1.3.4-.4.8-1.3 1.6-1.6-.8 1.7-1.5 3.4-2 5.3-.4.3-.4.1-.5.2v-.5c-.1.3-.8.8-.6 1.3-.2-.1-.1.5-.2.7-.8.2-.7 1.3-1.3 1.8-.2.2.1-.1.2-.1.1.4-.1.6-.1.8 0 .1.3-.7.6-.8 0 .2-.2.3-.3.4.1.1.2.1.3 0 0 .5.1 1.1 0 1.7.3-.4 0 .1.1.3.3.1.1-.2.2-.4.2 0 0 .4.1.5.1 0 .2-.6.2.1.3-.3.1 0 .2.4.2-.2.1-.6.2-.8.2.1 0 .6.1.8.3-.3.2-.6.2-1 .2.1 0 .6.2.7.2-.1.2-.2.2-.4.2.2.3.6.3 1 0 0 .2-.4.3.1.2 0 0-.3.2-.4.1.3-.2.6.1.9.2-.1-.1-.3 0-.5.2.3.3-.1.3.8.1-.2.3-.3.3-.7.1 0 .1.5 0 .4.3.1.1-.7.3-.9.2.1 0 .5.1.7.1.1.1-.5.2-.7.2.5 0 .8.1 1.3 0 .1.1-.2.1-.1.2 0 0 .5.1.4.2 0 .1-.3.1-.4.1 0 .1.1.1 0 .1.3.4.8.2 1.1.2.1.3.2.5.1-.2.2-.1.4 0 .7-.1.1-.2.1-.4.2 0 .3-.1.3 0 .5-.2-.1 0-.2-.2-.4-.2.3.1.6.3.7-.1.2-.2.3-.4.4.1.2.5 0 .5-.2.3.1.4.4.8.4 0 .3.1.7.1 1l-.2.1c0 .1.1 0 .2.1.1.2-.1.7-.1 1.2s.1 1.7 0 2.2v.1c.2.3-.1.5-.1.8 0 .5.1 1 .1 1.4 0 .2-.4 0-.3.3.2 0 .2-.1.3-.1 0 .9.1 1.7 0 2.5 0 .1-.1.1-.1.1.2.2.1.8.1 1.4 0 .3.1 1.1 0 1.5 0 .1 0 .4-.2.4.1.1 0 .3.2.2-.3.2.3.8-.1 1.1.3.3.1 1.1.1 1.6 0 .2-.3 0-.4.1.1.1.6.7.1.8 0 .1.1.1.2.1-.1.2-.1.6-.2.8h.2c.2.8-.1 1.9-.2 2.7v1.1h-.6c-.2 0-.5-.1-.7-.1-.5-.1-1.2-.2-1.6.2-.3.3-.6.8-1 1-.5.3-1 .2-1.4-.2l-.2-.2c0 .1 0 .2.1.2-.2.1.1.3-.1.3 0-.2-.1.2-.3.2.1-.1 0-.1 0-.2h.1c.1-.2-.1-.3.1-.3 0-.1-.1-.2-.2-.3 0 0 0-.1.1-.1-.2-.2-.4-.3-.6-.4.1 0 .1.1.2.1 0 .1-.1.1-.1.1-.1-.1 0-.1-.1-.2-.1 0 0 .3-.1.3 0 .1.1.1.2.1 0-.1-.1 0-.1-.2.2.1.2.2.4.2.1.1-.2.1-.1.1-.1.1-.2-.1-.3 0-.1.1-.1.2 0 .3l-.1.1c-.1-.1 0-.2-.1-.3-.2 0 0 .4-.2.4 0-.1 0-.3.1-.4v-.1c0 .1-.1.2-.1.3 0 0-.1 0-.1.1h-.2c-.1 0 0 .1-.1.1 0 .1.2.2 0 .3 0 .1.1 0 .2 0-.1-.2 0-.1.1-.1 0-.2-.2.1-.2-.2.1.1 0 0 .2 0v.1c.1 0 .1-.2.2-.2-.1.2.2 0 .1-.1 0 .1.2 0 .2.2-.2-.1-.2.1-.4.1 0 .1.1.1.2.1 0 .1-.1.2 0 .3-.1 0-.2-.1-.3.1 0-.1-.1.1-.2 0V62c-.1.1-.3.2-.4 0 .1.1-.1.2 0 .2 0 .1-.1-.1-.2-.1s-.3.4-.5.3c.1-.1.1 0 .2-.1-.1-.2-.3.1-.2-.2 0 0-.1 0-.1.1-.1-.2.3 0 .2-.2-.1 0-.2.1-.3.1-.1-.1-.1-.2-.1-.2 0-.1.1 0 .1-.1 0 0 0-.1-.1-.1s-.1.1-.1.2c-.1 0-.2-.1-.2.1 0 .1.1 0 .2 0 .1.1 0 .1 0 .2 0-.1-.1 0-.2 0 0 .1.1.1.1.3-.1 0-.1-.1-.1-.2-.1 0-.1.1-.2.1 0 .2.1.1.1.3-.1 0-.3 0-.3.1l-.1-.1c-.1 0-.1.1-.1.2h-.1c0-.1.1-.1.1-.1s0-.1-.1-.1c0-.1.1 0 .1-.1.1 0 0 .1.1.2.1 0 .1-.1.2-.1v-.1c0-.1-.1 0-.1 0 0-.1.1-.1 0-.2.1 0 .1 0 .1.1.1 0-.1-.2 0-.3.1 0 .1.1.1.1h.1c0-.1-.1-.1-.1-.1 0-.1.1-.1 0-.1.1-.1.1 0 .3-.1 0-.1-.1 0-.1 0-.2-.2.2 0 .1-.2 0 0 .2.2.2 0 .1 0 .1.1.3.1 0-.1-.3 0-.2-.3-.1 0-.2.1-.3.1 0-.1 0-.2-.1-.2-.1.3 0 .2-.1.4-.1-.1-.2 0-.1.1 0 .1-.1-.1-.1 0 0-.2 0-.2.1-.3 0 0-.1 0-.1.1-.1 0-.3-.3-.1-.1 0 0 .1-.1 0-.1 0-.1.1-.1.2-.1v.2c.1 0 0-.2.1-.2v-.1s.1.1.2-.1c-.1 0-.1-.1-.1-.2H65c0 .1-.1.1-.1.2-.1.1-.2-.1-.3.1 0 .1-.1-.2-.2-.2h-.2c.1.1.1.1.2 0 0 .2-.1 0-.1.2-.1-.1-.2-.1-.3-.2.1-.1 0-.2.1-.1H63.8c0 .1.2.2.1.3 0 0 .2.1.3 0 .1 0 0 .1 0 .2 0-.1.1-.1.1-.1.1.1.2.2.2.3-.1.2-.3-.3-.3 0-.2-.3-.7-.1-.7-.2-.1.1-.2 0-.2-.1 0 .2-.1.2-.3.1-.1 0 .1.3-.1.2 0 0 .1 0 .1-.1h-.1c0-.2.1-.2.2-.2v.1h.2c0-.1-.1-.1-.2-.2 0 .1-.3.3-.2.1-.1.1-.2.3-.4.2-.1.1.1.1 0 .2-.1-.1-.2-.2 0-.3-.1-.1-.2.1-.3.1 0 0 0-.1-.1-.1.2-.1.2-.3.6-.3v-.1c0-.1.1 0 .1 0 .1.1 0 .2-.1.4.1 0 0-.2.2-.1 0 0 0-.1-.1-.1.1-.1.2 0 .4-.1-.1-.1-.2-.1-.3 0 .1-.1 0-.1 0-.2h-2.5c-.3 0-.6.1-.8.1l-.1.1h-.2c-.2.1-.4.1-.6.2-.5.2-1 .2-1.5.3h-.1v.1c-.2 0-.1 0-.1.1-.1-.1-.1 0-.2 0 0-.2.2 0 .2-.2-.2.1-.4.1-.5.2 0 .1 0 .1.1.1 0 .1-.1 0-.2 0V62H56.1c.2-1.6.2-3.8.3-6.2zM52.9 64c0 .1.1.2 0 0 .2.1.1.3-.1.3 0-.1 0-.2-.1-.2.1-.1.2-.1.2-.1zm.1-.1l.1-.1c.1 0 .1.1.2.1-.1 0-.2.1-.3 0zm44.7-38c-.3.2-.5-.1-.7.2 0-.5.5-.3.7-.2zM52.8 63.5c.3-.2.4-.1.6-.1-.1.1 0 .1.1.2-.1.1-.1.1-.1.2l-.1-.1c0-.1.1 0 .1-.1 0 .1-.3 0-.4.2-.2-.1-.2-.2-.2-.3zM54.7 24s.1 0 0 0l.2-.1c-.1.2.2.3 0 .4 0-.1-.2-.1-.2-.3zm49.1 14.1h.2V38h-.2v.1zm3.2 3.6c.2 0 .4 0 .5.1-.3 0-.5.2-.5-.1zm-3.4-3.7c.1-.2-.3-.1-.1-.4.1 0 .2.4.1.4zm-5.7-11.7c-.2 0-.5.2-.6-.1.3-.1.5-.3.6.1zM82.2 38.4c.1.2.1-.3.2-.4-.2.1-.2.3-.2.4zm-1.8 0c.1.1.2.1.1-.1.2 0 0 .3.1.4.1-.1.3-.4.3 0 .2-.3.2-.5.2-1 .1.1.1.3.2.5.2-.1.2-.4.1-.8.2.1.1.4.3.4.2 0 .1-.1.1-.2.1 0 .1.1.2 0 .1 0-.1.3 0 .5.3 0-.1-.7.3-.7-.2-.5-.2-1.2-.4-1.6.4.5.7 1.4.4 2.2.1-.1.1-.2.2-.4.2.5 0-.4.4-.2-.1-.4-.1-1.1.2-1.5-.4 0-.4-1-.6-1.5.3-.5.8-.8 1.2-1.2.2 0 .4 0 .4.2-.1.1-.3.1-.4.2.1.6-.4 1.3-.5 1.9 0 .2.2-.1.2-.2.3 1.5-.6 3.1-.7 4.8-.9 0-.8.5-1.6.8.3.1-.1.4.2.4 0 .1-.1.1-.2.1 0 .5-.5.7-.6 1 0 .2.1-.1.3 0-.4.3-.5.9-.8 1.3.2-.1.2.5.1.5.4 0 .3.5.2 1 .2.2 0-.5.3-.5.1 0 .1.5 0 .5 0 .3.3-.2.2.1.1-.2.3-.2.1-.4.1-.1.3-.1.4-.2 0 .5-.2.9 0 1.3.1-.5.3-1.4.3-1.9.1 0 .3-.1.3-.4.8.8.1 2.3.8 3.3.2.1-.1-.4.1-.5.2.4.2.5.4.7-.1-.1.4-.2.3.2.1-.3.2-.5.2-.8.2.1 0 .5.2.5.2-.1 0-.4.1-.6.1 1 .2.5.2-.2.2.1 0 .6.3.6-.1-.2-.2-.3-.2-.7.3.2.2.4.3.7.6-.5.2 2 .1 2.7-.1 2.2-.1 5.4-.1 7.9 0 .5 0 1.2-.1 1.6-.1.3-.1 1-.1 1.7l-.9.3h-.7l.1.1c0 .1-.1.1-.1.2-.1 0-.1-.1-.3-.1 0-.1.1-.1.1-.2h-.8c-.6 0-1.2-.1-1.8.1-.1 0-.2.1-.3.1-.3-.2-.5-.5-.8-.6-.5-.2-1-.2-1.5 0v.1c-.2-.2-.4-.3-.6-.4-.1.2-.4.3-.4 0 .1 0 .1.1.3.1 0-.1-.1-.1-.1-.1h-.3s0 .1.1 0c-.1.1-.2.1-.4 0-.2.1-.3.2-.5.3V38.8c.2.4.3.8.3 1.4.3 0 0-.6.5-.5.3-1.2.9-1.5 1.2-2.5.2.2-.2.5-.2.7.3 0 .1.5.2.7.1 0 .1-.8.4-1 .1.2 0 .7.2 1 .2-.2-.2-.7.1-1 .2 0 .1.3.2.4.1-.1 0-.3 0-.6.2 0 0 .3.1.4.1-.2.4-.2.3-.5.2.2 0 .5 0 .7.1 0 .1-.1.1-.2.2.2.3.2.4 0 .1.3-.4.7-.6.9.1.2.2-.2.4-.1 0 .3-.2.4-.4.6.1.2.2-.3.4-.2.2.1-.1.3-.1.4.2 0 .1-.3.3-.2.2.1-.1.3-.1.5.1 0 .1-.1.2-.1 0 .2-.1.3-.2.4.1.3.5-.5.5 0 .5 0 .5-.9.7-1.6zm17.8-11.9c-.2 0-.5.2-.7 0 .2-.1.6-.3.7 0zm-.3.1c.2 0 .5-.2.5.2-.2-.1-.4.1-.5-.2zm10.5 17.2c-.3 0-.5.1-.5-.2.2-.1.3 0 .5.2zm.6.8c.1.1.5.3.3.5 0-.2-.5-.4-.3-.5zm.4-1.3c-.2-.1-.4-.1-.5-.4.3.1.4.3.5.4zm-13.9 4.4c-.1-.1-.1-.4.2-.4 0 .2 0 .4-.2.4zm13.2 4.2s0 .1 0 0l.1.2c-.2.1-.2-.2-.1-.2zm-.3-7c-.2 0-.6-.1-.2-.1.2-.1.5.1.2.1zm.7.3c.4.2-.2.2 0 0zm-.6-.8c-.1 0-.2-.1-.2-.2.1.1.2.1.2.2zm.2 1c.4 0 .8 0 1 .2-.4 0-.7-.1-1-.2zm0-2.3h.1V43h-.1v.1zM82.1 13.9c0 .1-.1.1-.1 0 .2.1.1-.2.4-.1.1.1.3.2.4.4-.3 0-.2-.2-.4-.3.1.3-.2.2.1.4-.2 0-.2.2-.4.2v-.3c.1 0 .2.1.2 0 0-.2-.3-.1-.3-.2.1.2.3 0 .1-.1zm-.7 13c.1 0 .3 0 .2.2-.1-.1-.2-.1-.2-.2zm1.3-1.5c-.2-.1.5.3 0 0zm-.2-6.1c0 .1.1.2.1.3-.3-.1 0 .3-.2.2-.1-.2-.1-.4.1-.5zm-.4-5.6c0-.2-.1-.5.2-.4-.1.1 0 .4-.2.4zm.4.7c.2-.2.2.3 0 0zm-.7 3.5c0 .2.1.2.1.4-.1 0-.2.1-.3.1-.1-.3.1-.3.2-.5zm.1-3.5c0 .1 0 .2-.1.2 0 0 0-.1-.1-.1.1 0 .1-.1.2-.1zm23.9 26.9c0-.1 0-.3.1-.3.1.2.8.7.3.9-.1 0 0-.2-.1-.2 0 .1 0 .2.1.3-.4-.1-.6-.8-.5-1.1.1 0-.1.4.1.4zm-23.1-22c0 .2.1.2.1.4-.3.1-.2-.4-.1-.4zm.4-2.5c-.1-.1-.1-.3.1-.3 0 .2 0 .3-.1.3zm.3.8c-.1-.1-.2-.3 0-.4.1.1.2.4 0 .4zm.4 7.4c.1 0 .2.4 0 .4.1-.2-.2-.3 0-.4zm-.8.9s0 .1 0 0zm.1-.1c0-.1-.2-.1-.2-.3.4-.1.4.9.2.8.1.1.1.2.2.2-.1-.2 0-.5.1-.7.1 0 0 .4.2.4 0-.3-.1-.7.1-.7.1.2.2.4.4.5-.1-.4-.1-1.2-.1-1.3.3.5.2.9.5 1.6-.2-.1-.6-.1-.3.2 0-.1 0-.2.2-.2 0 .1 0 .2.2.2-.4.3-.3.8-.3 1.2-.3-.7-1.3-1-1.3-1.7 0 .1.2.2.2.1s-.4-.3-.2-.4l.1.1zm.9-1.1zm-3.9-5.3c0 .2.1.3.1.5-.2.1-.2-.5-.1-.5zm3 5.7c0 .1.3.2.1.3 0-.1-.4-.2-.1-.3zm-.3 1.1c.7.8 1.9 1.5 1.9 2.8-.7-.7-1.5-1.4-2.4-1.9 0-.4-.2-.9-.2-1.2.2.3.4.7.6 1-.1-.6-.4-.7-.4-.9.2-.1.3.4.4.6.2-.2-.2-.4.1-.4zm-.2-.7c0 .1.3.3.1.4 0-.1-.3-.3-.1-.4zm-.1 10.2c-.1.3.2.5 0 .6-.1-.2-.2-.5 0-.6zm.8-.7c0-.1 0-.3.1-.3.1.2 0 .3-.1.3zm.4 5.2c0 .2 0 .3-.2.3 0-.8 0-1.6.2-2.3.3.5-.1 1.3.1 1.9 0-.4 0-.7.2-1 .1.5 0 1.1-.2 1.4-.1-.1 0-.4-.1-.3zm-.3-3.6c-.1 1-.3 1.8-.7 2.6.1-.9.3-1.8.7-2.6zm1.7-4.9c-.2-.2-.5-.4-.6-.7.5 0 .9.5.6.7zm.4-5.4c-.3 0-.3-.6-.1-.7 0 .2.1.4.1.7zm-2.3 11.8c0 .4.1 1-.2 1.3-.1-.5 0-.9.2-1.3zm.8-4.9c0-.1-.2-.1-.2-.2.3-.2.7-.6 1.1-.4-.1.4-.6.4-.9.6zm-2.3-2.5c.1 0 .2 0 .2.1-.2.3.1.5-.2.7-.1-.2-.3-.6 0-.8zm3.7 0c0 .1 0 .1 0 0l.1.2c-.2.2-.3-.2-.1-.2zm-1.5-15.1c.1 0 .3.1.3.1-.1.1-.4.2-.3-.1zm-1.1 24.1s0-.4.1-.2c0 .3-.1.4-.1.2zm-.6-5.1c0 .1.1.2.2.3-.1 0-.2.1-.2 0 .2 0-.2-.3 0-.3zm.3-1.2c-.1-.2-.1.2-.1.3.2.2.2-.2.1-.3zm-.3 0c0-.1-.1 0-.1.2.1.1.2-.1.1-.2zm0 .9c0-.1.1-.1.2-.2-.3 0-.4-.3-.4-.7.4-.2 1-.7 1.6-.4-.5.5-1.1 1.1-1.4 1.3zm-.3-1.2c.1 0 .1-.1.2-.1.1.2-.3.2-.2.1zm4-6.6c0-.4-.3-.8-.1-1.1.3.3.3.8.1 1.1zm-3.2 13.2c0 .2.2.4-.1.5-.1 0 0-.7.1-.5zm.7-6.9c.3.1.5-.3.7-.1-.2.1-.6.4-.7.1zm.4 5.6c0-.2-.3-.6-.1-.8.2 0 .3.6.1.8zm-1.1 8.1c0-.1.1-.2.1-.2 0 .1 0 .2-.1.2zm-.8-20.2c0-.1 0-.1.1-.1-.2.3.1.6.1.9-.3-.1-.5-.6-.4-.8 0 .4 0-.1.1-.1s.1.1.1.1zm.5 6.3c.1.2-.2.1-.3.2-.1-.2.1-.2.3-.2zm0-.1c-.4.2-.4-.5-.3-.5 0 .2.3.2.3.5zm-.5.3c0-.1 0-.2.2-.2-.1.2-.1.3-.2.2 0 .1 0 0 0 0zm.1-16c.1 0 .1-.1.1-.1.2.1-.1.3-.1.1zm0 1.1c0-.1 0-.3.1-.3.1.1.1.3-.1.3zm-.1 8.1c0-.2-.1-.4-.1-.5.1 0 .2.5.1.5zm1.3 5.4h-.5c0-.2-.1-.1 0-.3.2.1.4.2.2-.1.3 0 .2.3.3.4zm-2.1-17s0 .2-.1.2c0 0 0-.4.1-.2zm1.1 13.1c0-.2-.2-.1-.2-.2.1-.2.4.1.2.2zM81 24.9s.2.4 0 .4c0-.1-.3-.3 0-.4zm-.9-9.5c0-.1 0-.3.1-.1 0 .1 0 .3-.1.1zm1 3.2h.2v-.2h-.2v.2zm4.1 6.9c0 .1 0 .3-.1.1 0 0 0-.2.1-.1zm-1.1-9.9c-.1-.2-.1-.3-.2-.3.1-.2.4.3.2.3zm1 15.4c-.4-.3-1-.4-1.1-1 .4.3.9.5 1.1 1zm-2.3 1.6c.1-.2-.2-.5 0-.5.1.2.3.5 0 .5zm-.1 3.4c0-.1 0-.2.1-.1 0 0 .1.1-.1.1.1 0 .1 0 0 0zm-1.4-9c.1-.2-.2-.3 0-.3 0 .1.1.3 0 .3zm3.4.2c-.1.2.4.6.1.8-.3-.3-.1-.5-.1-.8zm.2-1.2c-.1-.2-.2-.6-.1-.7 0 .2.2.7.1.7zm0 4.7c-.3-.5-1.2-.9-1.1-1.6.5.3 1.3.8 1.1 1.6zm-.2-2.4c0-.1-.3-.4-.1-.4.1 0 .3.3.1.4zM84.3 16c-.2 0-.4 0-.4-.1.3 0 .4 0 .4.1zm.1 8.7c.2.4.4 1 .2 1.5-.1-.2 0-.5-.1-.7 0-.3-.4-.7-.1-.8zm-.5-7.3c0-.2 0-.4.2-.4 0 .2.3.5.1.6-.1-.2-.2 0-.3-.2.2 0 .1-.2 0 0zm.4-1.2c-.5-.1.3-.2 0 0zm-1.6 14.9c0-.2-.1-.2-.1-.4.3 0 .2.2.1.3.2.1.3-.2.4 0-.2 0-.3.1-.4.1zm.7-2.2h.2v-.1h-.2v.1zm-.6 1.6c0-.1-.3-.6-.1-.4 0 .1.3.3.1.4zm.5-2.3c-.3-.3-.8-.3-.9-.8.5.2.9.6 1.3 1 .4.3 1 .7 1 1.2-.6-.4-.9-1-1.4-1.4zm-.9 1.9c0 .2.2.2.2.4-.2 0-.4-.4-.2-.4zm.1 2c0 .1.3.5 0 .5-.1-.1-.1-.5 0-.5zm1.5-1c-.1.2.4.2.2.4-.1-.1-.5-.2-.2-.4zm.4.5c0 .2.2.2.2.4-.6 0-.9.3-1.4.4-.1-.4-.1-.4-.1-.9.3 0 .2.4.4.5 0-.1-.1-.4.1-.4.1.3.2-.1.8 0zm.1-.1c0-.1-.4-.3-.2-.4 0 .1.4.3.2.4zm-2.3.4c0 .1.3.2.1.3 0-.1-.3-.3-.1-.3zm.5-12.1c-.1.2.2.5 0 .5 0-.2-.2-.5 0-.5zm16.8 22.4c0 .2 0 .3-.1.4-.2-.2-.1-.4.1-.4zm.2 9.8c-.1-.2-.2-.7-.1-.8 0 .2.5.7.1.8zm1.2-7.1c0 .5-.4.1 0 0zm-.9 4.2c.1.5-.3.1 0 0zm.3 1.5c-.2 0-.3-.1-.3-.3.2 0 .3.1.3.3zm0 1c.1-.2-.3-.3-.1-.4-.1.1.3.3.1.4zM86.1 25.3c-.1 0-.1.1-.1.2-.3-.1-.4-.5-.4-.9.4 0 .2.6.5.7 0-.1 0-.1 0 0zM100 52c0-.4-.3-.7-.1-1 .2.3.2.6.5.8 0-.1 0-.2.1-.2-.2.3-.3.4-.5.4zm.3-.8c0-.1-.3-.3-.2-.4 0 .1.4.2.2.4zm.5-10.5c.3.4-.4-.1 0 0 0-.1 0 0 0 0zm-.2-.8c0 .1.3.3.1.4 0-.2-.3-.4-.1-.4zm.3 1.8c0-.1.1-.3.2-.3-.1.1-.1.2-.2.3zm-.8 2.4c0 .2.1.5-.2.4 0 .1 0-.4.2-.4zm-.6 3c.2 0 .2.2.2.3-.2 0-.2-.1-.2-.3zm.8-1.6c-.1 0-.3-.1-.3-.2.1 0 .2-.1.3.2zm-.4 1.1h.1v-.1h-.1v.1zm.4-.8c-.1 0-.3 0-.3-.2h.3v.2zm-.6-1.6h.2v-.1h-.2v.1zm4.9 9.9c-.1 0-.1.1-.1.1.1-.2-.2-.3 0-.3 0 .1.1.1.1.1v.1zm-.1.5c-.1-.2-.3-.5-.2-.7 0 .2.3.6.2.7zm1.2-4.3c0-.2 0-.4.2-.5 0 .3 0 .5.1.7-.3.1-.5-.3-.3-.5-.1.2-.1.3 0 .3zm.6-3.9c.1 0 .4-.1.3.1-.1.1-.2 0-.3-.1zm-.1 1c0 .1.2.1.2.2-.2.1-.4-.2-.2-.2zm.1-5.9c.1-.2-.4-.3-.2-.4 0 .1.2 0 .2.2-.1-.1.3.2 0 .2zm-.1 4.4c0 .1.1.1.2.2h-.2c-.1 0-.1-.2 0-.2zm-2 7.4c0-.1-.2-.4 0-.4.1 0 .2.4 0 .4zm-1.3-3.3c-.2-.3-.2-.8-.1-1.2.2.3.5.6.7 1-.3.1-.3.3-.6.2zm-1.6 6.4c0 .1 0 .3-.1.2 0-.2.1-.4.1-.2zm-.5-5.2v.2c-.2.1-.2-.4 0-.2zm-.2-1.8c-.6 0-.9-1.1-.7-1.8.2.5.4 1 .5 1.6 0-.1 0-.2.1-.2 0 .2.1.3.1.4zm-.3 7c0-.1-.2-.4 0-.4 0 .1.2.3 0 .4zm2.3-2c0 .1 0 .3-.1.1 0-.1.1-.3.1-.1zm-1.6-7.1c0 .2.5.3.2.4 0-.1-.4-.2-.2-.4zm1.8 3.3c-.1 0-.2.4-.3.1.2.1.2-.3.3-.1zm-.9.3c-.2-.6.1.4 0 0zm-.5-1.6c-.2-.2 0 .2.1.3.1.2-.1-.3-.1-.3zm1.5.8c-.4 0-.3.9-.6.7 0 .3-.4.6-.1 1-.4.1-.3.8-.6 1-.2-.4-.6-.7-.8-1.2 0-.1 0-.2.1-.1 0 .1 0 .2.1.2 0-.7-.3-1.2 0-1.7.1.5.1 1 .4 1.3-.3-1.5-.8-2.8-1.3-4 .2-.2-.1-.5.1-.7.1.3.1.6.3.8.1-.3-.2-.3-.2-.6.3-.1.3.2.4.2-.1.5-.1.8.1 1.2 0-.4 0-.6-.1-1 .4 0 .2.6.4.8-.1 0-.2-.1-.2 0 .3.2.1.9.3 1.2 0-.7 0-1-.1-1.6.7.3.9 1.2 1.5 1.7-.3-.6-.7-.9-.9-1.6-.3-.2-.6-.4-.6-.9.7.4 1 1.2 1.6 1.7-.2.8-.2 1.2.2 1.6zm-.5 1.3c.2.1.1.5-.1.4-.2-.5.3-.7.6-1-.2.3-.4.6-.5.6zM99.6 42c0-.1-.1-.2-.1-.3.3 0 .3.3.1.3zm-.9-.9c0-.5.3-.7.2-1.2.4-.1-.1.3.2.3 0 0 .1-.1.1 0-.3.3-.3.7-.5.9zm.5-.4c-.2.1-.2.8-.5.7.2-.2.3-.9.5-.7zm-.3-1.3c-.2.1 0 .6-.2.6 0-.2 0-.8.2-.6zm-.1 3.2c0-.2 0-.3.2-.4-.1.2-.1.4-.2.4zm1.4-1.6c-.1-.3.3-.1.3-.2-.2 0 .2-.3.1-.1 0 0-.1.1 0 .1 0 .2-.1.3-.2.4 0-.2-.1-.2-.2-.2zm-.9 1v.2c-.2.1-.2-.4 0-.2zm.3 7c-.2 0-.2.1-.4.1.2-.6-.1-.8.1-1.3 0 .1 0 .2.1.2.1-.2-.1-.5 0-.5.2.4.7 1.1.4 1.4-.1-.2-.2-.3-.3-.4 0 .2.1.3.1.5zm-.2 7.5c0 .1 0 .3-.1.2 0-.2 0-.4.1-.2zm-4.9-5c.2.2 0 .8-.4.8-.1-.5-.1-.5-.1-1 .2 0 .1.4.4.4.1 0 0-.3.1-.2zm.1-.9c0-.1 0-.2-.1-.3.4-.1.4.2.1.3zm0 0c.2.1.1.6 0 .8 0-.2-.3-.6 0-.8zm3.9-10.9c0 .2 0 .4-.2.5.1-.2 0-.5.2-.5zm-8.2 13.1c0-.1 0-.3.1-.4.1.2.1.4-.1.4zm1.3 1.9c-.2 0-.1.4-.2.4 0-.2.1-.5.2-.4zm9.2-8.2c0-.1 0-.2-.1-.2l.1-.1c0 .1.1.3 0 .3zm-4.3 6.6c0 .1 0 .1-.1.1.1-.3-.3-.6 0-.7-.3.3.4.5.1.7.1 0 .1-.1 0-.1zm0 .5c0 .1 0 .3-.1.2 0-.1.1-.3.1-.2zm3.2-12.1c.1-.3.3-.4.5-.5 0 .1.2.2.2.4-.3 0-.5.1-.7.1.3.2.5-.1.6.1-.3.3-.5 0-.8-.1 0-.2 0-.4.2-.4-.1.1-.2.4 0 .4zm-2.9 17.6c-.1.2.1.6-.2.6 0-.3.1-.5.2-.6zm3.8-12.2c0-.1-.3-.4-.1-.4.1 0 .5.3.1.4zm-.2-.2s0 .1 0 0c.1.2.1.3-.1.2 0-.1 0-.2.1-.2zm.3-4.3v.4c-.2.1-.2-.5 0-.4zm-.8-1.9c-.1.3.1.4.1.6-.2 0-.1.2-.3.2 0-.4-.1-.7.2-.8zm.8 5.8zm-.1.1c0-.1.1-.1 0 0 .1 0 .1.1 0 0zm.1-2.7c.1.3.2.7-.1.9-.2-.2 0-.8.1-.9zm-.1-2c-.1-.3.2-.5.3-.3-.2 0-.2.3-.3.3zm-.2 3.8c0-.1 0-.3.1-.2 0 .1-.1.3-.1.2zm.9-1.5c0-.2 0-.3.2-.3 0 .4.1.5 0 .8-.3.1 0-.4-.3-.3 0-.3.1-.8.2-.7 0 .2-.3.4-.1.5zm-.7 2.9c0 .1.2.1.2.3-.2.1-.4-.3-.2-.3zm-.4-6.1h-.2c.2-.2 0-.8.2-.9.1.2.1.7 0 .9zm1.1 4c0-.1.1-.2.2-.2 0 .1-.2.4-.2.2zm-.8-4.5c.1-.2-.2-.4 0-.4.1.2.2.3.2.6-.2-.1-.5-.2-.3-.5 0 .2 0 .3.1.3zm.4 2c-.5 0-.2-.6 0-.4-.1.1.3-.2.4-.1v.2c-.4-.3-.3 0-.4.3zm.2 3.5c0-.1-.3-.6 0-.5-.1.2.2.4 0 .5zm-.1-.9c.2.3-.3.3 0 0zm.3-4.2c-.2.1-.1-.1-.3.1-.1-.2.3-.2.3-.1zM77.7 12.4c.2.7-.3.1 0 0zm-6.9 15c0-1 .3-1.6.6-2.2-.2.7-.3 1.5-.6 2.2zm1.3-3.1c0-.1-.1 0-.1.2.1.1.1-.1.1-.2zm-.1.7c0-.1-.1 0-.1.1.1.2.2 0 .1-.1zm.7-2c-.5 1.8-.4 4.1-.8 6-1.5-.5-.8-1.8-.4-3.3.4-1.2.4-2.3 1.2-2.7zm-.9-2c.1-.1.6-.3.6 0-.2.1-.5 0-.6 0zM74 38.2c0 .1 0 .3-.2.3 0-.2.1-.3.2-.3zM72.3 28c.1-1.7.3-3.1.9-4.3 0 1-.4 2.3-.3 3.8-.3.1-.4.3-.6.5zm.9 7.8c.5 0 .4.5.5.7-.3.2-.4-.2-.8-.1-.1-.6-.3-1.4-.1-1.9.2.2.2.3.2.6.3.2.6.4.6.9-.2 0-.3-.4-.4-.2zm-.4-2.2c.1.1.2.2.1.4-.2.1-.3-.3-.1-.4zm.1 2.8c.1.3 0 .4-.1.2 0-.1 0-.5.1-.2zm-1.1-15.3c.4.2-.3.2 0 0zm-1.4-2.8v-.1s0-.1.1-.1c0 .1.2.1.2.2-.2 0-.2-.2-.3 0zm0-2.1H70c-.1 0-.4-.1-.3-.1-.1-.1 0-.3-.1-.4.1 0 .1 0 .1-.1 0 0-.1-.1 0-.1.2.2.6.3.7.7zm.1 2.8c0-.3.2-.1.1-.4.3 0 0 .7-.1.4zm-.6-2.8c.1 0 .1 0 0 0zm1.8 3.7c-.1 0-.1-.1-.1-.2.2-.1.2.1.5.1 0 .4.1.2.3.1 0 .2-.2.5 0 .6-.5 0-.8.7-1.4.2.1-.4.1-.5.1-1 .3-.1.2.3.4.3 0-.2-.2-.2.1-.2-.1-.1-.1.4.1.1zm-.3 1.1c.1 0 .2.1.2.1-.1.1-.1 0-.2-.1zm-.7-.6c0-.2 0-.4.2-.4-.1.2 0 .4-.2.4zm0-3c.3-.1.3.4 0 .3v-.3zm.2 3.5c.1 0 .2.1.3.2-.2-.1-.3-.1-.3-.2zm7.6-7.8c-.1 0-.2.1-.2 0 .2-.1.1-.5.4-.6.1.3.1-.1.2.2.1-.3-.2-.5 0-.6 0 .4 0-.1.1-.1 0 .1.1 0 .2-.1-.1.3-.1.6.1.2 0 .3 0 .5-.2.5 0-.1 0-.3-.1-.3.1.6-.3.5-.5.8.3-.1.4-.4.8-.3-.1.4-.3.6-.5.8 0-.2.1-.3-.1-.4-.1.1-.5.2-.5.1.1-.1.3 0 .3-.2zm.4 1.2c0 .1 0 .5-.1.3.1-.1 0-.5.1-.3zm.3.6c.2.1.2-.3.3-.1-.1 0 0 .1.1.1v-.3c.2 0 .1.2.2.2-.1 0-.2.1-.1.2-.3-.2-.1.2-.5.2v-.3zm.1-.2c-.2-.1.3-.4.3-.3-.2 0-.2.2-.3.3zm-.4 5.1c0-.1-.1-.2 0-.2 0 .1.1.2 0 .2zm-1.3 2c.1-.3-.3-.7.1-.7.1.1.2.5-.1.7zm.4-7.5c0-.3.2-.4.2-.7.2 0 .3-.1.6-.1.1.6-.5.4-.6.8.4 0 .6-.6.8-.4-.1.3-.3.6-.7.7-.2-.1-.1-.4-.3-.3zm.9 6.4h.1v-.1h-.1v.1zM74.4 6c0-.2.1-.3.1-.5.3 0 .3.5.1.6 0-.2-.1-.2-.2-.1zm.6.7c.1-.4-.2-.5 0-.7 0 .1.3.6 0 .7zm-.9 11.7c-.1.2.2.4 0 .4 0-.1-.3-.3 0-.4zm1-1s-.1-.2 0 0zm4.5-9.2c.1-.2-.3-.2-.1-.3 0 .1.3.3.1.3zm-.7-.6c0-.1-.1-.2 0-.2 0 .1.2.2 0 .2zm.3 0c0 .2.3.4.1.4 0-.1-.1-.2-.1-.2.1.7 0 .4-.2 0 .2 0 .2-.1.2-.2zm-.6.9c0-.1 0-.4.1-.2s0 .3-.1.2zm-.3 3.9c.1-.5 0-.9.1-1.2 0 .4.4 1.1-.1 1.2zm.6-4.5c.1.2.1.4 0 .6 0-.3-.4-.6 0-.6zm-8.7 13.9c0 .1 0 .3-.1.1 0-.1 0-.3.1-.1zm.8-6.5h.2c0 .2-.2.3-.3.4 0-.2 0-.3.1-.4zm.4 3.5c-.1 0-.1.1-.2.1 0-.1 0-.3.2-.2v.1zm-.1-3.6c-.1 0-.2-.1-.2-.1.1 0 .2-.1.2.1zm.3 1.8c0 .1.2.1.2.2s0 .2-.2.3c0-.1-.2-.4 0-.5zm-.5-2.5c-.1-.3.2.1.2-.2-.4 0-.2-.9-.2-1.2.2.7.4 1.1.2 1.8-.2 0-.4 0-.5-.1.1-.1.1-.6.3-.3zm.1 1.2c0 .1.1.4-.1.5-.1-.1-.1-.5.1-.5zm.2 2c.2.4-.3.3 0 0zm-.6-3.2h.2v-.2h-.2v.2zm.6 4.4c0 .2 0 .4-.2.4 0-.2.1-.4.2-.4zm.6-2.3c0 .1 0 .2.1.2 0 0 0-.1.1-.1 0 .1-.1.2-.2.2-.1-.1-.1-.3 0-.3zm0-8.4c0 .5-.1-.1 0 0zm-1.8 13c.2.5-.1-.2 0 0zm2.1-8.4c0 .2-.1.2-.2.2-.1-.2.1-.1.2-.2zm-.3 4.5c-.1.2.1.3.1.4-.3.1-.3-.4-.1-.4zm-.3-11.1c-.1.2.2.3 0 .3 0-.1-.1-.1-.1-.1v-.1s0-.1.1-.1zm.1 12.4h-.2c0-.1-.1-.1-.1-.2.1 0 .1-.1.2-.1v.3zm-.1.7c-.1-.1 0-.4.1-.5.1.2.1.4-.1.5zm0-2.6c.1-.3-.2-.5 0-.7.1.2.2.6 0 .7zm-.2-.5c0-.5.1.4.1.2 0 .5-.1-.1-.1-.2zm-2.3-.5c0 .1 0 .1 0 0 .2-.1.2.1.2.3-.2.1-.2-.1-.3-.1 0 0-.1.1-.1 0 .1 0 .1-.2.2-.2zm.1-2.2c.1.2.2.7 0 .9.1-.3-.2-.7 0-.9zm.3-.7c0 .1.1 0 .2-.1.1.3-.1 1 .1.4.1.3-.2.6 0 .7 0-.1.1-.1.2-.1-.2-.3.1-.8.1-1.1.3 0-.1.5.3.1 0 .4 0 .9.2 1.1 0-.3-.1-.7.1-.9-.1.8.1 1.8 0 2.4 0 .1-.1.1-.2.2.1 0 .2 0 .2.1-.4-.4-.9-.7-1.1-1.2 0 .1-.1.2-.1.2-.2-.6.1-1.2 0-1.8zm0-.9c.1.1.1.2-.1.2 0-.1 0-.2-.1-.2h.2zm.6 6.9c-.1 0-.1.1-.1.1 0-.1 0-.3.1-.2v.1zM77.1 34c.2 0 .1-.2.2-.2-.1.1-.1 1.1-.1.5 0-.2-.2-.2-.1-.3zm-7.2-13c0 .2.3.8-.2.7 0-.2 0-.6.2-.7zm-.1-2.9c.2.1-.1-.4.1-.3.1.1.4.3.2.4.1-.2-.3.2-.3-.1zm-.6 3.7c.1.3 0 .4-.1.2 0 0 0-.4.1-.2zm-.2-8c0-.1-.1-.1-.2-.2 0-.1.4-.2.2-.1s.2.3 0 .3zm.9-.8c0-.1-.1-.5.2-.4 0 .2-.1.3-.2.4zm-1.5 10.7c0 .1 0 .3-.1.1 0 0 .1-.2.1-.1zm.8-9.6c0 .1.2.4 0 .4 0-.1-.2-.4 0-.4zm-.8 7.1c.3-.1.1.4.3.4.2-.3-.1-.7.1-1 .4.7-.1.9-.2 1.5-.6-.2.1-.4-.2-.9zm2.4-4.2s0 .1 0 0c.4.5-.3-.1 0 0zm-2.4 6.5c.4 0 .1-.6.3-.7.1.3 0-.2.1-.2 0 .4-.1.6-.1 1-.2-.2-.2.1-.3-.1zm.6-1.7c-.1.4-.4.2 0 0zm-.5.6s0 .2-.1.2c0-.1 0-.5.1-.2zm10.4-4.5c-.1 0-.2.1-.2.2.1 0 .2 0 .1.1-.1 0-.1-.1-.2-.1 0-.2 0-.4.1-.4 0 .1.1.1.2.2zm-3.1 21.9c0-.1 0-.3.1-.2 0 .1-.1.3-.1.2zm-.3-24.4c0 .1.1.2.1.2-.1-.5-.1-.4.1-.4 0-.2-.2-.5-.1-.6.1.2.1.6.2.7 0-.5-.2-1.2.1-1.6.1 0 .2.1.2.1.1-.1.1-.5.1-.7.3.1.2-.4.4-.4-.1-.2.2-.5.4-.7.1.1 0 .4.1.5 0-.5.1.2.2-.1 0 .3 0 .6.2.7-.1-1 .3.8 0 .2-.4 1.3-1.3 2.1-2 3.1.1-.3-.1.1-.2-.1.6-.1 0-.6.2-.9zm.5 23c.2-.1.2 0 .3-.1-.1.3-.1.6-.4.7 0-.2.2-.3.1-.6zm0 .8c.1.1 0 .3-.1.4.1-.1-.1-.4.1-.4zm.4-1.9c-.2 0-.1.3-.4.2-.1-.2.3-.3.4-.2zm1-3.1c.1.3.1 0 0-.1.3-.1.1.4.2.5-.3 0-.4-.4-.2-.4zm-.6 1.1c0-.1.1-.4-.1-.4 0 .4 0 .7-.2.9-.2-.1-.2 0-.3-.1.1-.1.3-.4.2-.4-.1 0-.1.1-.2.1-.1-.4.3-.6.1-1 .2-.1.2-.4.4-.5 0 .3.1.6.2.8-.2 0 .1.7-.1.6zm.2 0c0-.2.2-.2.4-.2 0 .2-.2.2-.4.2zM75.9 6.7c0 .1 0 .3-.1.1 0 0 0-.2.1-.1zm1 5.1c0-.1-.1-.7.1-.5 0 .1 0 .2.1.2.2-.3-.1-.4-.2-.7.5.4.3 1.2-.1 1.4 0-.2-.1-.9.1-.7-.1.2-.1.3 0 .3zm.5.2c0 .1 0 .6-.1.4 0-.2 0-.7.1-.4zm-.1-.4c0-.1 0-.4.1-.2 0 .3-.1.4-.1.2zm-1.4 2.1c0-.2 0-.4.1-.4 0 .2 0 .3-.1.4zm-3.8-4.5c0-.1 0-.3.1-.2 0 .2-.1.4-.1.2zm5.3 25.7c.3-.3.2.2 0 0zM76 10.6c0 .2.1.8-.1.6.1-.1 0-.8.1-.6zm-.5 27.6c-.1.3.3.4-.1.4.1-.1-.1-.4.1-.4zm.9-26c0 .2.1.6-.1.8-.1-.2 0-.9.1-.8zm3.2 8.4c0 .1 0 .3-.1.3-.1-.2 0-.3.1-.3zm-.4.9s.1-.4.1-.3c.1.3-.1.4.1.7 0-.3 0-.6.2-.7 0 .3-.1.5-.1.8-.5-.1-.7-.4-.6-1 .3-.3.2.5.3.5zm.5.2c0 .2 0 .4-.2.4 0-.2.3-.6.2-.4zM79.6 40c0-.2.1-.3.3-.4-.1.2 0 .5-.3.4zm-.7-29.1c.6-.1.5-.8.9-1.1-.2.2.3.8.1.8 0-.2-.1-.4-.2-.4.3.3.2 1.1.3 1.6v.7c-.2-.1 0-.5-.1-.7-.2-.4 0-1-.3-1.3-.2.1-.1.7 0 1.3-.1-.5.1-1 .1-.2 0 .3.3.8 0 1 0-.1.1-.4-.1-.4 0 .1.1.4-.1.3v-1.3c-.1 0-.3.4-.4.2.2-.3-.2 0-.1-.3 0 0 0-.1-.1-.2zm.7 25.2c.1.2-.2.5-.2.4.1-.1 0-.4.2-.4zm-.4-19.8c0-.1-.1-.1-.1-.3.1 0 .5.1.4-.1-.3.1.1-.1-.1-.4.2-.1.3-.3.5-.4v.7c-.1 0-.4-.1-.5.1.1 0 .1.1.3.1-.2.2-.5.7-.8.6.2-.2.3-.2.3-.3zm-.6 5.8c0-.1-.1-.4.1-.3 0 .2.2.3.4.3 0 .1 0 .3-.1.3 0-.3-.2-.1-.4-.3zm0 5.8c.2.3-.3.4 0 0zm-.6-.4c0-.1 0-.3.1-.1 0 .1 0 .3-.1.1zm.8 3.4c0-.1 0-.4.1-.2 0 .3-.1.3-.1.2zm-1-3.3c-.3 0-.4-.1-.6-.2.1-.6-.3-1.2-.1-1.6.3.1.6.3.8.1.1.2 0 .2.2.3-.2.4-.3.8-.3 1.4zm.2 1c.1-.2.2-.4.1-.7.4.1-.1.7.1 1 .1 0 .1-.1.1-.1.1.5-.2-.1-.3-.2zm-.7-.7v-.3c.2-.1.2.1.5.1-.1.2.2.4 0 .4-.1-.2-.2-.1-.5-.2zm1.6 5.7c.1 0-.5.1 0 0zm-.6-4.9c.1-.6.4-.2 0 0zm1.8-18.3c0 .1 0 .3-.1.2 0-.1.1-.3.1-.2zm-2.5 24.1c0-.1 0-.7.1-.4 0 .1 0 .6-.1.4zm.1-13.6c0-.1 0-.2.1-.3.1.1.2.4-.1.3zm-.9.6c.2.3-.3.3 0 0zm-.1-.3c.1 0 .2-.4.3-.1-.1 0-.3.3-.3.1zm1.7-6c0 .3 0 .4-.1.6-.2 0-.6.2-.7 0 .4-.1.5-.5.8-.6zm-1.8 5.2h.2c0 .1.1.1.1.1-.1 0-.1.1-.2.1v-.2zm.7-3.5c-.3.2-.3.6-.8.6.1-.3.4-.8.8-.6zm-.2 2.5c0 .1.1.4-.1.4 0-.2-.2.1-.2-.2.2 0 .2-.1.3-.2zm-.5.7c.1-.1.3-.1.5-.1 0 .1 0 .2-.1.3-.2.1-.3 0-.4-.2zm1.7-4.1c-.2.2-.6.2-.8.4 0-.3.5-.5.8-.4zm-1.8 10.5c0 .3.2.6.1.7-.1-.1 0-.5-.2-.2 0-.1 0-.7.1-.5zm.6 1c-.3 0-.4-1.5-.2-1v-.2c-.3-.3-.4-.9-.5-1.4 0-.1.1-.5-.2-.5 0-.2.2-.3.2-.6.4.4.6 1.7.4 2 .3.3.3 1 .3 1.7zm1-12.8c-.3.2-.4.5-.7.7.2-.3.3-1 .7-.7zm-1.6 5.8c0 .1.1.2.1.3-.2 0-.1.2-.3.2 0-.2.2-.3.2-.5zm.4 7h.2v.4c-.2 0-.2-.2-.2-.4zm-.6-10.8c.2-.7.6-1.2 1.1-1.6-.2-.1.2-.6.3-.4-.2.1-.4.3-.2.4-.5.4-.4 1.4-1.2 1.6zm1.6-.3c-.3 0-.2.4-.5.4-.3-.2.3-.6.5-.4zm-.3 1c.3-.1.3.3.1.3-.1-.1-.1-.2-.1-.3zm.4 2.7c0 .1.1.4-.1.3-.1-.1-.1-.3.1-.3zm-.2-4.8c0-.2.2-.2.2-.4-.1 0-.4.4-.3.2.1-.2.3-.3.4-.4.2 0 .2.2.2.3-.4.3-.8 1-1.3 1 .2-.2.4-.5.6-.7-.1 0-.2.3-.3.1.3 0 .2-.2.5-.1zm-.1 1.6c.1-.3.3-.5.7-.5.1.1 0 .3 0 .4-.3-.2-.4.4-.7.1zm.6-.7c.2 0 .3-.2.4.1-.2 0-.4.2-.4-.1zm.1 5c-.1 0-.2-.1-.3-.1-.1-.2.1-.5.1-.3-.1.1.3.2.2.4zm-.1.5c0-.1-.1-.2-.1-.3.1-.1.2.3.1.3zm-.5.1c0-.2 0-.4.2-.4 0 .2.2.3.2.5-.1 0-.2-.1-.4-.1zm.2-9.1s.2.4 0 .4c.1-.2-.3-.3 0-.4zm.6 2.6c0-.1-.1-.4.1-.3.1.1 0 .2-.1.3zm0 .5c0 .2-.2.4-.3.2.2 0 .2-.1.3-.2zm.2-1.4c-.2 0 0 .5-.2.4 0-.1-.2-.1-.2-.4.2.2.3-.2.4 0zm-2.4 4.2c.2.3-.3.2 0 0zm-.2.3s-.1.2-.2.2c-.1-.1.1-.5.2-.2zm.3-2.1c0 .2-.2.2-.3.4-.2-.2 0-.5.3-.4zm-.2 3.7c0 .2-.1.5-.2.3.1 0 0-.3.2-.3zm.6 13.6c0 .3.2.4.2.6-.1-.1-.4-.4-.2-.6zm-.4-12.3c-.1-.1-.1-.3.1-.3 0 .1 0 .2-.1.3zm.9-.1c-.1-.2-.3-.2-.5-.3.1-.2.2-.5.4-.7.1.2.2.7.1 1zm0-1.1h.2v-.2h-.2v.2zm-.5 4.4c0-.5-.3-1.1-.2-1.4 0 .1.4-.1.5.1 0 .3.2.9-.1.9.2.1.3.2.2.5-.2 0-.2-.2-.4-.1zm-.9-2.7c.4-.2.3.3 0 0zm1.2 90.1c13.7 0 25.2 1.3 25.2 1.3-7.2 4-15.8 6.3-25.2 6.3-9.3 0-17.9-2.3-25.1-6.2 0 0 11.3-1.4 25.1-1.4z" class="st2"/></svg>
