<svg fill="currentColor" viewBox="0 0 189 45">
  <path d="M6.48297 22.2456c3.05085-.6356 4.70343-.8898 7.75423-1.5254v13.9831c-.8898.1271-1.3983.2542-2.2881.3813-.3814-.7627-.5085-1.144-.8899-1.9068-1.39826 1.9068-2.54233 2.9238-4.83047 3.4322-3.81355.7628-6.355927-1.3983-6.355927-5.7203V16.6524c0-3.9407 2.288137-7.6271 6.991527-8.51693C11.5677 7.24564 13.983 10.1694 13.983 14.3643v1.7796c-1.7797.3814-2.6695.5085-4.5763.8899 0-4.1949-.88983-5.0848-2.66949-4.7034-1.14407.2542-2.16102 1.1441-2.16102 3.4322v14.2373c0 1.7796.6356 2.7966 2.16102 2.4152 1.90678-.3813 2.66949-1.5254 2.66949-4.322v-2.6695c-1.27118.2542-1.77966.3814-3.05085.6356v-3.8136h.12712zm12.33053-9.1525c0-3.94068 2.2881-7.5 7.3729-8.26271 5.0847-.76272 7.3728 2.16101 7.3728 5.97461v14.2372c0 3.9407-2.4152 7.3729-7.3728 8.1356-5.0848.7628-7.3729-2.0339-7.3729-5.8474V13.0931zm4.8305 13.2203c0 2.0339.6356 2.9238 2.5424 2.6695 1.9067-.2542 2.5423-1.3983 2.5423-3.4322v-13.983c0-2.03392-.6356-2.92376-2.5423-2.66952-1.9068.25424-2.5424 1.39832-2.5424 3.43222v13.983zm13.983 4.8305V3.5592c1.9068-.25424 2.9238-.38136 4.8306-.63559V26.4406c3.0508-.3814 4.5762-.5085 7.7542-.7628v4.195c-5.0848.3813-7.5.6356-12.5848 1.2711zM52.8813 1.90666c2.9237-.25424 4.322-.38136 7.2457-.6356 5.0848-.381352 7.7543 2.16102 7.7543 7.88136V20.0846c0 5.7204-2.6695 8.517-7.7543 8.8983-2.9237.2543-4.4491.3814-7.2457.6356V1.90666zm4.8305 23.26274c.6356 0 1.0169-.1272 1.6525-.1272 2.6695-.2542 3.5593-1.2711 3.5593-4.0677V8.89818c0-2.92373-.8898-3.81356-3.5593-3.55932-.6356 0-1.0169.12712-1.6525.12712V25.1694zm14.6186 3.0508V.508352c5.339-.254237 8.0085-.381355 13.3475-.50847407V4.19479c-3.3051 0-5.0848.12712-8.3898.25424v7.11867c2.5423-.1271 3.8135-.1271 6.483-.2543v4.195c-2.5424 0-3.8135.1271-6.483.2542v8.1356c3.5593-.1271 5.3389-.1271 8.8983-.2543v4.195c-5.4661 0-8.2627.1271-13.856.3813zm17.5424-.5085V-.00012207h4.7034C96.9914 6.35581 98.2626 9.53378 100.678 15.8897h.127V-.00012207c1.78 0 2.67 0 4.576.12711907V27.7117c-1.779 0-2.669 0-4.322-.1271-2.5421-6.9915-3.8133-10.4237-6.3557-17.2881h-.1271v17.2881c-2.0339 0-2.9237.1271-4.7034.1271zm33.3052.8899c-2.034-.1271-2.924-.1271-4.958-.2543V.635471c2.797.127119 4.195.254237 6.992.381359 5.593.38135 8.39 2.92373 8.39 8.77118 0 4.44919-1.78 6.10169-3.433 6.73729 1.653 5.0847 2.543 7.7542 4.195 12.839-2.034-.1271-3.051-.2543-4.957-.3814-1.399-4.7034-2.161-6.9915-3.56-11.6949h-2.542v11.3136h-.127zm0-15.2543c.763 0 1.017.1272 1.78.1272 2.669.1271 3.686-.6356 3.686-3.94072 0-3.30509-1.017-4.32204-3.686-4.57628-.763 0-1.017-.12711-1.78-.12711v8.51691zm14.491-4.57624c0-3.94067 2.416-6.8644 7.5-6.35593 5.085.6356 7.5 4.0678 7.5 8.00847v14.2373c0 3.9407-2.288 6.7373-7.5 6.2288-5.084-.6356-7.5-3.9407-7.5-7.8813V8.77106zm4.958 14.61864c0 2.0339.636 3.178 2.542 3.3051 1.907.2542 2.543-.6356 2.543-2.7966V9.91513c0-2.0339-.636-3.17796-2.543-3.30508-1.906-.25424-2.542.76271-2.542 2.79661V23.3897zm17.161 9.0254c-1.907-.2542-2.797-.3813-4.703-.6356 1.779-9.0254 3.432-17.9237 5.212-26.94911 2.415.38135 3.559.50847 5.974.88983 1.78 9.53388 3.432 19.06778 5.085 28.47458-1.907-.3814-2.797-.5085-4.704-.7627-.381-2.5424-.508-3.8136-.889-6.2288-2.161-.3814-3.178-.5085-5.339-.7627-.127 2.4152-.382 3.5593-.636 5.9745zm1.525-10.0423c1.526.2542 2.289.3813 3.941.6356-.763-4.8306-1.144-7.2458-1.907-12.2034h-.127c-.762 4.7034-1.144 6.9915-1.907 11.5678zm12.458-15.25428c2.797.50848 4.195.76271 7.119 1.27119 4.957 1.01695 7.5 4.19489 7.5 9.91529v10.9322c0 5.7203-2.543 7.7542-7.5 6.8644-2.797-.5085-4.195-.7627-7.119-1.2712V7.11852zm4.831 24.53388c.635.1271 1.017.1271 1.652.3814 2.543.5084 3.432-.2543 3.432-3.178V16.7795c0-2.9237-.889-4.0678-3.432-4.5762-.635-.1272-1.017-.2543-1.652-.3814v19.8305zM63.9406 44.7456c-1.7797.1272-2.5424.1272-4.322.2543v-8.8983c1.6525-.1271 2.5423-.1271 4.1949-.2543 1.9068-.1271 3.0508.7627 3.0508 2.1611 0 1.0169-.5084 1.6525-1.144 2.0338 1.0169.3814 1.6525.8899 1.6525 2.0339-.1271 1.6526-1.3983 2.5424-3.4322 2.6695zm.8898-6.3559c0-.6356-.5084-.8898-1.2712-.7627-.7627 0-1.144.1271-1.9067.1271v1.9068c.7627 0 1.144-.1271 1.7796-.1271.7627-.1271 1.3983-.3814 1.3983-1.1441zm.5085 3.5593c0-.6356-.5085-.8898-1.5254-.8898-.8899 0-1.3983.1271-2.2882.1271v2.0339c.8899-.1271 1.3983-.1271 2.4153-.1271.8898-.1271 1.3983-.5085 1.3983-1.1441zm9.7881 2.161c-.7627-1.144-1.144-1.6525-1.9067-2.7966-.6356 0-.8899 0-1.5255.1272v2.7966c-.7627 0-1.144 0-2.0339.1271V35.466c1.6526-.1271 2.5424-.1271 4.195-.2543 2.161-.1271 3.4322 1.017 3.4322 2.7967 0 1.3983-.7628 2.4152-1.9068 2.7966.8898 1.2711 1.3983 1.9067 2.2881 3.0508-1.1441.2542-1.6525.2542-2.5424.2542zm0-5.8474c0-.8898-.6356-1.2712-1.5254-1.1441-.7627 0-1.144 0-2.0339.1271v2.5424c.7627 0 1.2712 0 2.0339-.1271 1.017-.1271 1.5254-.6356 1.5254-1.3983zm4.4492 5.7203v-8.8983c2.7966-.1271 4.1949-.1271 6.8644-.1271v1.7797c-1.9068 0-2.9237 0-4.9576.1271v1.7796c1.7796 0 2.5423-.1271 4.322-.1271v1.7797c-1.7797 0-2.5424 0-4.322.1271v1.9068c2.0339 0 2.9237-.1271 4.9576-.1271v1.7796c-2.6695-.1271-4.0678-.1271-6.8644 0zm19.7034-.1271h-1.7797c-.8898-2.2881-1.2712-3.4322-2.0339-5.8474-.8898 2.2881-1.2712 3.4322-2.0339 5.8474h-1.7796c-1.2712-3.5593-1.9068-5.339-3.178-8.8983h2.161c.7627 2.4153 1.1441 3.5593 1.9068 5.9746.7627-2.4153 1.2712-3.5593 2.0339-5.9746h1.7797c.7627 2.4153 1.2711 3.6864 2.0339 6.1017.7627-2.4153 1.144-3.5593 1.9072-5.9746h2.161c-1.272 3.4322-1.907 5.2119-3.1784 8.7712zm5.3394 0v-8.8983h2.033v8.8983h-2.033zm11.44.3814c-1.779-2.2882-2.669-3.5594-4.449-5.8475v5.5932c-.763 0-1.144 0-2.034-.1271v-8.8983c.763 0 1.144 0 1.907.1271 1.653 2.2882 2.542 3.4322 4.322 5.5932v-5.4661c.763 0 1.144 0 2.034.1272v8.8983c-.763.1271-1.144 0-1.78 0zm8.771.6356c-2.796-.2543-4.83-2.2882-4.83-4.8306 0-2.5423 2.034-4.4491 4.703-4.322 1.653.1271 2.67.6356 3.56 1.5254-.509.5085-.763.8899-1.272 1.3983-.635-.6355-1.271-1.0169-2.415-1.0169-1.398-.1271-2.542 1.1441-2.542 2.5424 0 1.6525 1.144 2.9237 2.796 3.0508.763 0 1.399-.1271 1.907-.3813v-1.2712c-.763 0-1.144-.1271-2.034-.1271V39.788c1.526.1271 2.416.1271 3.941.2542v3.8136c-.89.6356-2.161 1.1441-3.814 1.017zM40.4236 42.966l-.1271-1.2712c4.1949-.5085 8.3899-.8898 12.5848-1.2712l.1271 1.2712c-4.1949.2542-8.3898.7627-12.5848 1.2712zm107.5424 0c-4.068-.5085-8.39-.8899-12.585-1.2712l.127-1.2712c4.195.3814 8.39.8898 12.585 1.2712l-.127 1.2712z"/>
</svg>