<svg viewBox="0 0 98.39 13.33" fill="currentColor"><defs><style>.cls-1{fill:#d79a2b}</style></defs><g id="Layer_2" data-name="Layer 2"><g id="Layer_1-2" data-name="Layer 1"><g id="Title_Bottom" data-name="Title Bottom"><path d="M98.23 9.28a.19.19 0 01.16.2q0 .31-.3.24a37.91 37.91 0 00-11.23-1.49 33.37 33.37 0 00-5.56.46c-1.45.28-2.9.56-4.36.86a26.06 26.06 0 01-4.65.45 8.67 8.67 0 01-5.73-2.14.19.19 0 01-.08-.15c0-.16.08-.23.25-.23a.2.2 0 01.14 0 8.06 8.06 0 005 2 18.8 18.8 0 004-.66q4.6-1.04 5.13-1.13A28.4 28.4 0 0186.52 7a40.78 40.78 0 0111.71 2.28zM11.87 7a28.41 28.41 0 015.58.65q.47.09 5.07 1.2a18.64 18.64 0 003.95.66 8.11 8.11 0 005.06-2 .18.18 0 01.13 0c.17 0 .25.07.25.23a.17.17 0 01-.08.15A8.63 8.63 0 0126.1 10a26 26 0 01-4.64-.45c-1.46-.3-2.92-.55-4.37-.86a33.34 33.34 0 00-5.55-.46A38 38 0 00.3 9.72q-.3.07-.3-.24a.2.2 0 01.17-.2A40.73 40.73 0 0111.87 7zM45.27 12.71a3.41 3.41 0 01-2.37-1 .44.44 0 01.61-.63 2.53 2.53 0 004-3 1.75 1.75 0 00-1.12-1 1.86 1.86 0 00-1.46.6.42.42 0 01-.3.12 2.05 2.05 0 00-1.51.5.44.44 0 11-.63-.6 2.77 2.77 0 012-.78 2.5 2.5 0 012.09-.7 2.52 2.52 0 011.72 1.53 3.39 3.39 0 01-3 5z" class="cls-1"/><path d="M45.1 8a16.22 16.22 0 01-.51-7.47.44.44 0 00-.34-.53.42.42 0 00-.51.34 16.57 16.57 0 00.52 7.86l-.26.19a.88.88 0 00.93.44.93.93 0 00.77-.66 1.69 1.69 0 00-.6-.17zM40.56 13.33h-.42a3.41 3.41 0 01-3-3.8 2.8 2.8 0 011.55-2.33 2.55 2.55 0 012.52.35 2.51 2.51 0 012.12.58 2.55 2.55 0 01.6 2.21 3.39 3.39 0 01-3.37 3zM38 9.62a2.54 2.54 0 002.2 2.82 2.5 2.5 0 001.87-.52 2.54 2.54 0 001-1.68 1.81 1.81 0 00-.35-1.48 1.87 1.87 0 00-1.56-.33.42.42 0 01-.31-.07 1.84 1.84 0 00-1.8-.36 2 2 0 00-1 1.62z" class="cls-1"/><path d="M40.77 9.33a.42.42 0 01-.42-.44A15.87 15.87 0 0143.83.16a.44.44 0 01.67.56s-3.17 3.81-3.3 8.18a.43.43 0 01-.43.43zM59.68 7.56a.42.42 0 00-.24-.23l-1.35-.53-3.67-1.45-8.11-3.19a.44.44 0 00-.56.25 7.46 7.46 0 00-.32 4.46 2 2 0 01.86-.18 6.51 6.51 0 01.12-3.55l.55.22a6 6 0 000 3.52 2.42 2.42 0 011 1.07 2.94 2.94 0 01.32 1.2 5.92 5.92 0 004.48 2 6 6 0 002.37-.5 6 6 0 003-2.93l.57.28a6.61 6.61 0 01-10.54 2 3 3 0 01-.34.86 7.49 7.49 0 004.9 1.84 7.52 7.52 0 007-4.75.45.45 0 00-.04-.39zm-11.82-.73a5.05 5.05 0 01-.09-3.15l3.85 1.51zm2.57 2.93a5.08 5.08 0 01-2.22-2.13L51.9 6zm.82.32l1.47-3.74L54.33 10a5.13 5.13 0 01-3.08.08zm3.88-.39l-1.64-3.76 3.86 1.52a5.17 5.17 0 01-2.22 2.24z" class="cls-1"/></g></g></g></svg>