<svg viewBox="0 0 53.56 15.3" fill="currentColor"><defs><clipPath id="clip-path"><ellipse cx="35.41" cy="7.8" fill="none" rx="1.29" ry="5.15"/></clipPath><style>.cls-2{fill:#d79a2b}</style></defs><g id="Layer_2" data-name="Layer 2"><g id="Layer_1-2" data-name="Layer 1"><g id="Text_Top" data-name="Text Top"><path d="M35.28 1.68c-.93 0-1.68 2.68-1.68 6s.75 6 1.68 6S37 11 37 7.66s-.79-5.98-1.72-5.98zM35.41 13c-.72 0-1.29-2.3-1.29-5.15s.57-5.15 1.29-5.15 1.28 2.3 1.28 5.1-.57 5.2-1.28 5.2z" class="cls-2"/><path d="M34.55 14.07a.57.57 0 01-.4-.19c-.56-.49-1.58-2.55-1.45-6.76.14-4.62 1-5.34 1.36-5.61a.26.26 0 01.37 0 .24.24 0 010 .34c-.73.59-1.12 2.35-1.21 5.27-.14 4.4 1 6.33 1.36 6.42a.25.25 0 01.27.22.25.25 0 01-.23.28zM19.15 14.07A.27.27 0 0119 14c-.08-.06-1.84-1.44-1.76-6.4s1.32-6 1.46-6.12a.26.26 0 01.33.39S17.82 3 17.74 7.63c-.06 3.9 1.11 5.64 1.56 6a.26.26 0 01.05.36.26.26 0 01-.2.08z" class="cls-2"/><path d="M26.46 15.3a20.72 20.72 0 01-7.91-1.44l-.22-.09c-1-.37-2-2.8-2-5.84 0-2.36.48-5.25 1.75-6.28h.08l.42-.15A22 22 0 0126.49 0h.1a31.36 31.36 0 018.9 1.67.26.26 0 01.15.33.24.24 0 01-.32.15A30.44 30.44 0 0026.59.51h-.1a21.56 21.56 0 00-7.74 1.43l-.38.13c-1.11 1-1.52 3.74-1.54 5.86 0 3.15 1.07 5.14 1.68 5.37l.23.09a20.24 20.24 0 007.72 1.4h.2a23 23 0 007.58-1.27c.38-.12.71-.23 1-.3a.26.26 0 01.31.19.26.26 0 01-.18.31c-.27.06-.59.17-1 .28a23.61 23.61 0 01-7.73 1.3z" class="cls-2"/><path d="M33.46 14.22c.13.18-.53.41-.79.06s-1.59-2.11-1.55-6.59.88-5.88 1.39-6.49c.28-.26 1.07 0 .81.22-.63.74-1.53 2.67-1.48 6.44s.79 5.14 1.62 6.36zM21.19 14.22c.14.18-.6.41-.9.06s-1.8-2.11-1.76-6.59 1-6.08 1.78-6.68c.32-.27 1.14-.25.84 0-.72.73-1.86 3.1-1.8 6.87s.89 5.12 1.84 6.34z" class="cls-2"/><path d="M24 14.84c.15.19-.53.44-.86.06S21 12.59 21 7.7s1.32-6.65 2.15-7.31c.35-.28 1.12-.18.84.25a11.57 11.57 0 00-2 7.24c.01 4.12.92 5.65 2.01 6.96zM30.46 14.68c.14.19-.63.43-.93.05s-1.66-2.1-1.61-7S29 1.11 29.71.44c.32-.28 1.22 0 .93.25-.73.8-2 3.12-1.89 7.23s.75 5.45 1.71 6.76z" class="cls-2"/><path d="M25.5 9.26c-3 0-6.08-.08-7.87-.24a.26.26 0 11.05-.51 119.21 119.21 0 0015.24 0 .23.23 0 01.27.22A.25.25 0 0133 9c-1.54.18-4.49.26-7.5.26zM25.63 12.72a41.53 41.53 0 01-7.56-.6.25.25 0 11.1-.5 48.89 48.89 0 0015.19 0 .25.25 0 01.3.2.26.26 0 01-.2.3 45.34 45.34 0 01-7.83.6zM17.65 6.14a.25.25 0 01-.06-.5 39.83 39.83 0 017-.57h.5a56.33 56.33 0 017.91.27.26.26 0 01-.07.51 53.38 53.38 0 00-7.85-.29h-.49a40.28 40.28 0 00-6.85.55zM18.33 3.71a.26.26 0 01-.11-.49c1.29-.58 6.12-.81 7.57-.87 2.87-.12 6.55.24 7.71.75a.26.26 0 01.13.34.26.26 0 01-.34.13 24.42 24.42 0 00-7.48-.72c-3.75.16-6.58.48-7.38.84z" class="cls-2"/><g clip-path="url(#clip-path)"><path d="M34.89 13.41h-.06a.26.26 0 01-.19-.3L36.71 4a.26.26 0 01.5.11l-2.07 9.09a.26.26 0 01-.25.21zM33.87 12.31a.25.25 0 01-.19-.3L36 2.28a.26.26 0 01.31-.19.25.25 0 01.18.31l-2.32 9.71a.26.26 0 01-.3.2z" class="cls-2"/></g><path d="M53.56 7.71a3.83 3.83 0 01-1.7 3.13 7 7 0 01-4.36 1.33A8.34 8.34 0 0141.64 10a.13.13 0 010-.11.16.16 0 01.18-.18.14.14 0 01.1 0 7.68 7.68 0 002.42 1.51 8.85 8.85 0 003.21.52 6.26 6.26 0 004-1.2 3.6 3.6 0 000-5.8 5.53 5.53 0 00-3.61-1.17 5.26 5.26 0 00-3.42 1.08 3 3 0 00-1.26 2.44 2.32 2.32 0 00.53 1.57 1.7 1.7 0 001.36.62A2.7 2.7 0 0046.36 9l1.24-.67A4 4 0 0149.26 8a2.58 2.58 0 011.38.36 1.1 1.1 0 01.58.95.94.94 0 01-.32.73 1.08 1.08 0 01-.74.29c-.11 0-.17-.06-.17-.18a.15.15 0 01.17-.17.74.74 0 00.51-.18.62.62 0 00.2-.45c0-.48-.29-.72-.86-.72a2.16 2.16 0 00-.93.25l-1 .5a4.91 4.91 0 01-2.19.54 3.48 3.48 0 01-2.42-.83 2.44 2.44 0 01-.85-1.9 3.31 3.31 0 011.49-2.65 6 6 0 013.78-1.24 6.28 6.28 0 014 1.3 3.85 3.85 0 011.67 3.11zM1.67 4.6a6.27 6.27 0 014-1.3 6 6 0 013.8 1.21A3.3 3.3 0 0111 7.16a2.47 2.47 0 01-.85 1.9 3.48 3.48 0 01-2.42.83 4.91 4.91 0 01-2.19-.54l-1-.5a2.16 2.16 0 00-.93-.25c-.57 0-.86.24-.86.72a.62.62 0 00.2.45.72.72 0 00.45.23.15.15 0 01.17.17c0 .12-.06.18-.17.18a1.08 1.08 0 01-.74-.35.94.94 0 01-.32-.73 1.1 1.1 0 01.58-.95A2.58 2.58 0 014.3 8a4 4 0 011.7.33L7.2 9a2.7 2.7 0 001.26.36 1.72 1.72 0 001.36-.62 2.37 2.37 0 00.53-1.57 3 3 0 00-1.26-2.44 5.31 5.31 0 00-3.43-1.08 5.52 5.52 0 00-3.6 1.17 3.6 3.6 0 000 5.8 6.26 6.26 0 004 1.2 8.85 8.85 0 003.21-.52 7.68 7.68 0 002.42-1.51.14.14 0 01.1 0 .17.17 0 01.13.29 8.35 8.35 0 01-5.86 2.13 7 7 0 01-4.36-1.37A3.83 3.83 0 010 7.71 3.85 3.85 0 011.67 4.6z" class="cls-2"/></g></g></g></svg>