<svg fill="currentColor" viewBox="0 0 196 75"><path d="M146.933 70.9209c.046.0074.089.032.118.069.03.037.045.0837.042.131 0 .2066-.1.2866-.3.24-3.648-1.0563-7.434-1.5586-11.23-1.49-1.863-.0022-3.723.1517-5.56.46-1.45.28-2.9.56-4.36.86-1.534.2889-3.09.4395-4.65.45-2.107.0064-4.144-.7543-5.73-2.14-.024-.0171-.044-.0395-.058-.0656-.014-.026-.022-.0549-.022-.0844 0-.16.08-.23.25-.23.045-.0169.094-.0169.14 0 1.388 1.2202 3.153 1.9263 5 2 1.353-.0752 2.694-.2965 4-.66 3.066-.6934 4.776-1.07 5.13-1.13 1.813-.4101 3.661-.6412 5.52-.69 3.994.1818 7.939.95 11.71 2.28zm-86.3604-2.28c1.877.0318 3.7461.2495 5.5801.65.3133.06 2.0033.46 5.07 1.2 1.2891.3612 2.6134.5825 3.9499.66 1.8667-.0641 3.654-.7706 5.0601-2 .0418-.0162.0881-.0162.1299 0 .17 0 .25.07.25.23.0011.0298-.0058.0594-.0199.0857-.014.0263-.0347.0485-.0601.0643-1.589 1.3781-3.6266 2.1284-5.7299 2.11-1.5571-.0108-3.11-.1614-4.6401-.45-1.46-.3-2.9199-.55-4.3699-.86-1.834-.3079-3.6905-.4617-5.5501-.46-3.8-.0683-7.5889.434-11.24 1.49-.2.0466-.3-.0334-.3-.24-.0005-.0483.0164-.0951.0476-.1318.0313-.0368.0748-.061.1224-.0682 3.7671-1.3297 7.7093-2.0979 11.7-2.28zm33.4 5.7099c-.8903-.0111-1.7408-.37-2.37-1-.0726-.0831-.1113-.1904-.1085-.3007.0029-.1103.047-.2155.1238-.2948.0767-.0793.1805-.1268.2906-.1332.1102-.0064.2187.0288.3041.0987.432.4216 1.0006.6748 1.603.7139.6024.0391 1.199-.1385 1.6819-.5007.483-.3622.8205-.8851.9516-1.4744.1311-.5892.0472-1.206-.2365-1.7388-.1008-.2393-.2536-.4532-.4473-.6262-.1937-.173-.4235-.3007-.6727-.3738-.2725-.0132-.5445.0338-.7968.1375-.2523.1036-.4787.2616-.6632.4625-.0396.0388-.0865.0694-.138.09-.0515.0206-.1066.0308-.162.03-.2723-.0215-.5462.0117-.8055.0976s-.4988.2227-.7045.4024c-.0363.052-.0834.0954-.1381.1275-.0547.032-.1156.0519-.1787.0582-.063.0063-.1267-.001-.1867-.0216-.0599-.0206-.1147-.0539-.1606-.0976-.0459-.0437-.0818-.0968-.1052-.1556-.0235-.0589-.034-.1222-.0308-.1854.0033-.0633.0201-.1252.0495-.1814.0293-.0561.0705-.1053.1206-.1441.2647-.2565.5779-.4577.9214-.5916.3434-.1339.7101-.198 1.0786-.1884.2717-.2686.6014-.4714.9637-.5927.3623-.1214.7476-.1581 1.1263-.1073.3876.1001.7458.2911 1.0449.5571.2991.2661.5305.5996.6751.9729.2794.5177.4192 1.0991.4058 1.6872-.0133.5881-.1795 1.1626-.4822 1.667-.3026.5044-.7313.9214-1.2439 1.2099-.5126.2886-1.0915.4388-1.6797.4359l-.03-.04z"/><path d="M93.8029 69.6409c-.7503-2.4161-.9249-4.9743-.51-7.47.0132-.0571.0148-.1164.0048-.1742-.01-.0578-.0315-.113-.0632-.1624-.0317-.0494-.0729-.0919-.1213-.1251-.0483-.0332-.1029-.0564-.1603-.0683-.056-.0131-.114-.0145-.1705-.0043-.0566.0102-.1104.032-.1582.0638-.0478.0319-.0886.0732-.1197.1215-.0312.0482-.0522.1024-.0616.159-.461 2.6237-.2827 5.3199.52 7.86l-.26.19c.0892.1617.2271.2911.394.3701.1669.079.3544.1034.536.0699.1784-.0237.3462-.0986.4829-.2158.1366-.1171.2364-.2714.2871-.4442-.1877-.0934-.3912-.151-.6-.17zm-4.5401 5.3301h-.42c-.4472-.0508-.8799-.1897-1.2732-.4085-.3932-.2189-.7393-.5134-1.0182-.8667-.2789-.3533-.4851-.7582-.6067-1.1916-.1216-.4333-.1562-.8864-.1019-1.3332.0313-.4902.191-.9636.4631-1.3725.272-.409.6469-.7392 1.0869-.9575.4139-.1674.8646-.2231 1.3068-.1617.4422.0614.8606.2379 1.2132.5117.3742-.0705.7596-.0549 1.1269.0456.3673.1005.7069.2832.9931.5344.2654.2961.4579.6501.5621 1.0339.1041.3837.1171.7865.0379 1.1761-.0957.8265-.492 1.5889-1.1134 2.1421-.6214.5532-1.4246.8585-2.2566.8579v-.01zm-2.56-3.71c-.0792.6652.1075 1.3347.5195 1.8629.4121.5281 1.0161.8721 1.6805.9571.3307.0424.6664.0182.9876-.0711.3211-.0893.6211-.2419.8824-.4489.2694-.2001.4965-.4516.6681-.7399.1717-.2884.2845-.6079.3319-.9401.0526-.2573.0485-.523-.012-.7785-.0604-.2556-.1758-.495-.338-.7015-.2196-.1666-.4733-.2826-.743-.3396-.2697-.0571-.5487-.0538-.817.0096-.1085.0182-.2198-.007-.31-.07-.2422-.2123-.536-.3573-.8519-.4205-.3159-.0632-.6428-.0423-.9481.0605-.2881.1657-.5305.4005-.7051.6834-.1746.2828-.2759.6047-.2949.9366h-.05z"/><path d="M89.4727 70.971c-.0569.0001-.1132-.0114-.1655-.0338-.0523-.0223-.0995-.055-.1388-.0962-.0392-.0411-.0697-.0898-.0896-.1431s-.0288-.1101-.0261-.1669c.252-3.1946 1.4652-6.2381 3.48-8.73.0785-.0731.1809-.1151.2881-.118.1073-.0029.2118.0335.2941.1023.0823.0687.1366.1652.1528.2712.0162.1061-.0069.2143-.065.3045 0 0-3.17 3.81-3.3 8.18 0 .1141-.0453.2234-.1259.3041-.0807.0806-.19.1259-.3041.1259zm18.9103-1.77c-.022-.0526-.055-.1002-.096-.1397-.042-.0396-.091-.0703-.144-.0903l-1.35-.53-3.67-1.45-8.1102-3.19c-.1075-.0394-.2262-.0353-.3307.0114-.1046.0467-.1868.1323-.2293.2386-.5602 1.419-.6719 2.9756-.32 4.46.2698-.123.5635-.1845.86-.18-.2899-1.1716-.2483-2.4006.12-3.55l.55.22c-.3519 1.147-.3519 2.3731 0 3.52.4358.2448.7852.6186 1 1.07.1909.3727.3.7818.32 1.2.5604.6343 1.2502 1.141 2.0231 1.486.7728.345 1.6101.5203 2.4571.514.816-.0038 1.622-.1739 2.37-.5 1.32-.584 2.385-1.6243 3-2.93l.57.28c-.443.9496-1.106 1.7803-1.933 2.4235-.827.6432-1.796 1.0805-2.825 1.2758-1.03.1954-2.091.1432-3.096-.1523-1.0054-.2954-1.9261-.8257-2.6862-1.547-.0682.3025-.1829.5927-.34.86 1.3589 1.1827 3.0985 1.8359 4.9002 1.84 1.508.0018 2.983-.4503 4.231-1.2974 1.248-.847 2.213-2.05 2.769-3.4526.023-.0638.031-.132.024-.1996-.006-.0675-.029-.1326-.064-.1904zm-11.8202-.73c-.3652-1.0135-.3968-2.1173-.09-3.15l3.8502 1.51-3.7602 1.64zm2.57 2.93c-.9424-.4634-1.718-1.2076-2.22-2.13l3.6902-1.63-1.4702 3.76zm.82.32l1.4702-3.74 1.61 3.66c-.994.3416-2.07.3696-3.0802.08zm3.8802-.39l-1.64-3.76 3.86 1.52c-.489.9597-1.265 1.7428-2.22 2.24zm53.771-23.8611c-.067.0002-.133-.014-.193-.0417-.06-.0276-.114-.068-.157-.1183-.062-.0434-.113-.101-.148-.168-.035-.067-.053-.1415-.053-.217 0-.0756.018-.15.053-.217.035-.0671.086-.1247.148-.168.087-.0735.196-.1158.31-.12 2.3 0 4.433.0533 6.4.16l4.25.4c1.49.18 3 .36 4.49.56 1.772.2094 3.556.2996 5.34.27-.212-1.0028-.658-1.9416-1.3-2.74-3.667.0529-7.323-.4117-10.86-1.38-.113-.0173-.216-.074-.29-.16-.078-.0851-.126-.1926-.138-.3071-.012-.1144.012-.2297.071-.329.058-.0994.146-.1776.251-.2233.106-.0456.223-.0564.336-.0306 3.134.882 6.374 1.3328 9.63 1.34-2.697-2.5738-6.273-4.0223-10-4.05-1.984-.0844-3.964.2258-5.826.9124-1.863.6866-3.571 1.7361-5.024 3.0876-.044.058-.101.105-.166.1374s-.137.0493-.209.0493c-.073 0-.145-.0169-.21-.0493s-.122-.0794-.165-.1374c-.06-.0447-.109-.1028-.143-.1696-.033-.0669-.051-.1406-.051-.2154s.018-.1486.051-.2154c.034-.0669.083-.1249.143-.1696 1.605-1.4865 3.498-2.628 5.562-3.3538s4.255-1.0207 6.438-.8662c2.059.0593 4.085.5325 5.958 1.3915 1.873.859 3.553 2.0862 4.942 3.6085 2.667-.3215 5.163-1.4804 7.13-3.31 1.281-1.1019 2.14-2.6148 2.43-4.28.179-.8855.145-1.8011-.1-2.6707-.245-.8696-.695-1.6681-1.31-2.3293-.615-.7428-1.429-1.2953-2.346-1.5927-.918-.2975-1.901-.3278-2.834-.0873-.087.0275-.179.0289-.267.004-.087-.0249-.165-.075-.223-.144-.062-.0466-.113-.107-.148-.1764-.034-.0694-.052-.146-.052-.2236s.018-.1542.052-.2236c.035-.0695.086-.1298.148-.1764.067-.0672.155-.1095.25-.12 1.272-.3095 2.604-.2663 3.853.1249 1.249.3911 2.368 1.1155 3.237 2.0951.659.7105 1.156 1.5565 1.455 2.4788.298.9224.392 1.8988.275 2.8612-.217 2.0951-1.239 4.0241-2.85 5.38-2.17 1.9224-4.887 3.1181-7.77 3.42.59.8261 1.002 1.766 1.21 2.76 3.649-.3273 7.081-1.8777 9.74-4.4 2.565-2.1433 4.238-5.1676 4.69-8.48.231-1.4832.126-2.9994-.309-4.4362-.434-1.4369-1.187-2.7574-2.201-3.8638-.944-1.1079-2.102-2.0138-3.405-2.6633-1.302-.6496-2.723-1.0294-4.175-1.1167-1.53-.1079-3.066.103-4.51.6194-1.444.5165-2.766 1.3271-3.88 2.3806-1.852 1.5495-3.112 3.6896-3.57 6.06-.227.987-.216 2.0135.031 2.9956.246.9821.722 1.8917 1.389 2.6544.663.7446 1.533 1.2739 2.5 1.52.938.2589 1.932.2381 2.86-.06.086-.0409.184-.0523.278-.0324.094.0199.179.0699.242.1424.06.0457.108.1047.142.1723.034.0677.051.1422.051.2177 0 .0755-.017.15-.051.2176-.034.0677-.082.1267-.142.1724-.061.0493-.128.0897-.2.12-1.129.3571-2.336.38-3.477.0659s-2.167-.9517-2.953-1.8359c-.759-.8588-1.309-1.8819-1.606-2.9889-.296-1.1071-.332-2.2679-.104-3.3911.478-2.6771 1.897-5.0955 4-6.82 2.547-2.3794 5.925-3.6648 9.41-3.58 1.636-.0144 3.257.3237 4.751.9915 1.495.6678 2.828 1.6496 3.909 2.8785 1.106 1.2454 1.907 2.732 2.337 4.3414.431 1.6093.479 3.297.143 4.9286-.631 3.791-2.592 7.2333-5.53 9.71-2.785 2.6533-6.28 4.4422-10.06 5.15.075 1.1299-.108 2.2622-.536 3.3107-.428 1.0484-1.089 1.9853-1.934 2.7393-1.041 1.0173-2.417 1.6215-3.87 1.7-.642.043-1.285-.0638-1.879-.3119-.593-.2482-1.121-.631-1.541-1.1181-.599-.6436-.932-1.4907-.93-2.37-.02-.3879.045-.7754.192-1.135.147-.3595.372-.6822.658-.945.343-.34.807-.5306 1.29-.53.22.0074.436.0611.634.1576.198.0964.374.2336.516.4024.15.16.266.3485.342.5544.076.2058.11.4247.099.6438-.01.2191-.064.434-.159.6318-.095.1978-.228.3747-.392.52-.12.1056-.217.2339-.286.3774-.07.1436-.11.2995-.118.4587-.008.1592.015.3185.069.4685.054.1501.137.2879.245.4054.214.2494.487.442.794.5606.307.1186.639.1596.966.1194 1.009-.1643 1.94-.6439 2.66-1.37.693-.6358 1.235-1.418 1.588-2.2898.353-.8718.507-1.8113.452-2.7502-1.543.0383-3.085-.0587-4.61-.29-1.36-.26-2.72-.51-4.1-.75-3.967-.7467-7.994-1.1216-12.03-1.12zm4.93-14.9c-.385 1.0637-1.003 2.0275-1.809 2.8202-.807.7927-1.781 1.3941-2.851 1.7598-2.494.9874-5.23 1.1864-7.84.57l-.67-.22c-.1 0-2.36-.8-2.44-.83l-.65-.3c-1.66-.7781-3.189-1.8106-4.53-3.06-1.195-1.0598-2.149-2.3621-2.8-3.82-.035-.0833-.035-.1768 0-.26.01-.0496.031-.0962.062-.1362.031-.04.071-.0723.116-.0946.045-.0222.095-.0337.146-.0336.05.0002.1.0119.146.0344.048.018.091.0461.127.0823.036.0362.065.0798.083.1277.643 1.3786 1.558 2.6132 2.69 3.63 1.26 1.172 2.698 2.1372 4.26 2.86l.65.3c.09 0 2.26.78 2.45.82l.7.16c2.303.5376 4.718.3346 6.9-.58.962-.3618 1.832-.9311 2.55-1.6674.717-.7362 1.263-1.6214 1.6-2.5926.342-1.0987.416-2.2635.214-3.3965-.202-1.133-.673-2.2008-1.374-3.1135-1.575-2.2767-3.872-3.9542-6.52-4.76-3.247-1.1078-6.739-1.2845-10.08-.51-2.788.7671-5.489 1.8194-8.06 3.14-2.453 1.2454-5.001 2.2921-7.62 3.13-2.439.7624-5.052.7624-7.49 0-1.364-.4195-2.611-1.1524-3.64-2.14-.824-.8912-1.533-1.8822-2.11-2.95-.035-.0833-.035-.1768 0-.26.01-.0496.031-.0962.062-.1362.031-.04.071-.0723.116-.0946.045-.0222.095-.0337.146-.0336.05.0002.1.0119.146.0344.072.0282.134.0768.18.14.547.9734 1.198 1.8853 1.94 2.72.971.9254 2.146 1.6103 3.43 2 1.504.5017 3.113.6051 4.67.3 1.581-.3422 3.115-.8726 4.57-1.58 1.62-.83 3.23-1.64 4.86-2.45 2.762-1.4294 5.72-2.4405 8.78-3 3.462-.4765 6.989-.1094 10.28 1.07 2.93.9001 5.482 2.742 7.26 5.24 1.706 2.3933 2.156 4.7533 1.35 7.08zm-25.4-2.72c-.182.6103-.585 1.1308-1.13 1.46-.221.1491-.472.2464-.735.2845-.263.0381-.532.0161-.785-.0645-.78-.26-1.06-.73-.83-1.41.23-.68.65-.79 1.38-.73.209.0168.419-.0263.605-.1243.186-.098.341-.2468.446-.4291.104-.1823.155-.3906.146-.6007-.009-.2101-.077-.4133-.197-.5859-.238-.3553-.591-.6169-1-.74-1.125-.2151-2.287-.1041-3.35.32-2.38.72-3.91 1.13-4.62 1.25-2.388.4758-4.858.3416-7.18-.39-1.232-.3999-2.391-.9977-3.43-1.77-.063-.0428-.109-.1065-.129-.1798-.02-.0733-.014-.1513.019-.2202.1-.32.28-.38.53-.18.979.733 2.074 1.2974 3.24 1.67 2.216.692 4.571.8192 6.85.37.606-.1067 2.203-.5234 4.79-1.25 1.136-.427 2.371-.5206 3.56-.27.714.2198 1.314.7119 1.67 1.37.183.3372.292.7103.318 1.0935.026.3833-.032.7676-.168 1.1265zm9.53-12.38c-2.301-.1124-4.605.151-6.82.78-2.15.6495-4.24 1.4791-6.25 2.48l-4.78 2.4c-1.256.6689-2.58 1.1987-3.95 1.58-1.172.3041-2.406.2729-3.56-.09-.912-.2523-1.708-.8146-2.25-1.59-.216-.3306-.352-.707-.398-1.0993-.045-.3923.002-.7897.138-1.1607.198-.6213.613-1.1503 1.17-1.49.218-.14.465-.2305.722-.265.258-.0346.52-.0124.768.065.78.27 1.05.74.82 1.42-.23.68-.66.82-1.41.75-.232-.0396-.471.0039-.674.1228-.203.1189-.357.3056-.436.5272-.051.1691-.06.3477-.029.5214.031.1736.103.3375.209.4786.419.488.977.8368 1.6 1 1.097.32 2.262.32 3.36 0 1.322-.3897 2.61-.8881 3.85-1.49 1.52-.79 3-1.56 4.56-2.33 2.067-1.0374 4.222-1.8907 6.44-2.55 2.251-.639 4.592-.9025 6.93-.78.32 0 .42.18.31.5-.021.0676-.063.1263-.122.1663-.058.04-.128.0589-.198.0537zm13.67 14.16c-.237.7542-.652 1.4402-1.21 2-.042.0523-.1.09-.164.108-.065.0179-.133.0151-.196-.008-.045-.0072-.087-.0243-.125-.0502-.037-.0259-.067-.0598-.089-.0992-.023-.0395-.035-.0834-.038-.1285-.003-.0451.004-.0903.022-.1321.022-.0488.049-.0956.08-.14.461-.5152.803-1.1266 1-1.79.51-1.53.12-3.17-1.19-4.94-1.315-1.7921-3.158-3.1278-5.27-3.82-2.397-.8703-4.984-1.081-7.49-.61-2.367.48-3.79 1.4266-4.27 2.84-.101.2555-.146.5294-.132.8036.014.2742.086.5423.212.7864.256.4167.659.7213 1.13.853.471.1316.975.0806 1.41-.143.045-.0221.094-.0336.145-.0336.05 0 .099.0115.145.0336.053.0098.103.0319.147.0644.043.0326.078.0748.102.1233.024.0484.037.1019.037.1561 0 .0542-.012.1077-.036.1562-.017.0486-.045.0927-.081.1291-.037.0364-.081.064-.129.0809-.65.3053-1.392.3447-2.07.11-.33-.1071-.633-.2814-.891-.5118-.259-.2305-.467-.5121-.61-.8271-.144-.3149-.221-.6563-.226-1.0025-.005-.3462.062-.6897.197-1.0086.53-1.57 2-2.64 4.45-3.23 2.732-.6065 5.582-.4156 8.21.55 2.34.7289 4.377 2.204 5.8 4.2.631.7463 1.065 1.6389 1.262 2.5961.198.9573.152 1.9488-.132 2.8839zm-134.0704 17c-1.38.24-2.74.49-4.1.75-1.5252.2313-3.0678.3283-4.61.29-.0357.949.1427 1.8938.5218 2.7646.3791.8707.9492 1.6449 1.6682 2.2654.7197.7261 1.6509 1.2057 2.66 1.37.3267.0402.6582-.0008.9652-.1194.307-.1186.58-.3112.7948-.5606.1077-.1175.1909-.2553.2448-.4054.0539-.15.0773-.3093.0689-.4685-.0084-.1592-.0484-.3151-.1177-.4587-.0693-.1435-.1665-.2719-.286-.3774-.1631-.1461-.2955-.3232-.3895-.521-.094-.1977-.1476-.4122-.1579-.631-.0102-.2187.0232-.4373.0983-.643s.1903-.3943.3391-.555c.1416-.1688.3172-.306.5154-.4024.1981-.0965.4143-.1502.6346-.1576.4831-.0006.9468.19 1.29.53.286.2628.5104.5855.6573.945.147.3596.2127.7471.1927 1.135.0066.8802-.3265 1.7291-.93 2.37-.4202.4871-.9479.8699-1.5415 1.1181-.5935.2481-1.2366.3549-1.8785.3119-1.4535-.0785-2.8289-.6827-3.87-1.7-.8432-.7554-1.5038-1.6925-1.9317-2.7406-.4279-1.0481-.6119-2.1797-.5383-3.3094-3.7985-.6987-7.31149-2.4882-10.11-5.15-2.93865-2.4767-4.89912-5.919-5.529999-9.71-.336819-1.6316-.288007-3.3193.142549-4.9286.43055-1.6094 1.23095-3.096 2.33745-4.3414 1.08105-1.229 2.41406-2.2107 3.90839-2.8785 1.49432-.6678 3.11491-1.0059 4.75161-.9915 3.4871-.0831 6.8683 1.2018 9.42 3.58 2.0778 1.7364 3.4737 4.1526 3.94 6.82.2318 1.1209.2007 2.2803-.0908 3.3873-.2915 1.1069-.8354 2.1312-1.5892 2.9927-.7842.8844-1.8081 1.5224-2.9477 1.8365-1.1395.3142-2.3457.2911-3.4723-.0665-.0743-.0255-.1425-.0664-.2-.12-.0632-.0417-.1159-.0976-.1539-.1631-.038-.0655-.0603-.1389-.0651-.2145-.0049-.0756.0079-.1512.0372-.2211.0293-.0698.0744-.1319.1318-.1813.0628-.0725.1476-.1225.2415-.1424.0939-.0199.1917-.0085.2785.0324.9271.2981 1.9212.3189 2.86.06.9662-.2461 1.8369-.7754 2.5-1.52.6661-.7627 1.1421-1.6723 1.389-2.6544.2468-.9821.2574-2.0086.031-2.9956-.4699-2.3801-1.7532-4.5226-3.63-6.06-1.1143-1.054-2.4355-1.865-3.8798-2.3814-1.4443-.5165-2.9802-.7271-4.5102-.6186-1.4529.0873-2.87313.4671-4.17564 1.1167-1.30252.6495-2.46044 1.5554-3.40436 2.6633-1.0145 1.1064-1.76692 2.4269-2.20143 3.8638-.43451 1.4368-.53998 2.953-.30857 4.4362.46654 3.306 2.1496 6.3191 4.72 8.45 2.66337 2.5263 6.1033 4.0771 9.76 4.4.2075-.994.6196-1.9339 1.21-2.76-2.8833-.3019-5.6-1.4976-7.77-3.42-1.62071-1.3483-2.65351-3.274-2.88-5.37-.11771-.9624-.02388-1.9388.27493-2.8612.29882-.9223.7954-1.7683 1.45507-2.4788.86764-.9744 1.9837-1.6947 3.229-2.0839 1.2453-.3893 2.5729-.4329 3.841-.1261.0945.0105.1827.0528.25.12.0621.0466.1125.1069.1472.1764.0347.0694.0528.146.0528.2236s-.0181.1542-.0528.2236c-.0347.0694-.0851.1298-.1472.1764-.0588.069-.1367.1191-.2238.144-.0872.0249-.1798.0235-.2662-.004-.9242-.2295-1.8942-.1946-2.7995.1007s-1.7094.839-2.3205 1.5693c-.6158.6612-1.0649 1.4597-1.31012 2.3293-.24523.8696-.27947 1.7852-.09988 2.6707.28622 1.6589 1.1377 3.1676 2.41 4.27 1.9653 1.7965 4.4455 2.9299 7.09 3.24 1.3883-1.5223 3.0689-2.7495 4.9415-3.6085 1.8727-.859 3.8991-1.3322 5.9585-1.3915 2.1825-.1545 4.3734.1404 6.4374.8662s3.9572 1.8673 5.5626 3.3538c.06.0447.1087.1027.1423.1696.0336.0668.051.1406.051.2154s-.0174.1485-.051.2154c-.0336.0668-.0823.1249-.1423.1696-.0438.058-.1005.105-.1656.1374-.065.0324-.1367.0493-.2094.0493-.0727 0-.1444-.0169-.2094-.0493-.0651-.0324-.1218-.0794-.1656-.1374-1.4539-1.3515-3.1616-2.401-5.024-3.0876-1.8625-.6866-3.8428-.9968-5.826-.9124-3.7274.0277-7.3038 1.4762-10 4.05 3.2465.0105 6.4794-.4201 9.61-1.28.0766-.0238.1578-.028.2365-.0123.0786.0157.152.0509.2135.1023.0683.0394.126.0946.1684.1611.0424.0664.0681.1421.075.2207.0068.0785-.0053.1575-.0355.2303-.0302.0728-.0775.1373-.1379.1879-.0746.086-.1774.1427-.29.16-3.5371.9683-7.1931 1.4329-10.86 1.38-.6529.7972-1.1117 1.7352-1.34 2.74 1.784.0296 3.5681-.0606 5.34-.27 1.5-.2 3-.38 4.49-.56l4.25-.4c2-.13 4.11-.18 6.4-.16.1142.0026.2238.0451.31.12.06.0447.1087.1027.1423.1696.0336.0668.051.1406.051.2154s-.0174.1485-.051.2154c-.0336.0668-.0823.1249-.1423.1696-.046.0496-.1017.0894-.1636.1169-.0619.0275-.1287.0422-.1964.0431-4.0076.0204-8.0047.4121-11.94 1.17zm8.48-23.2c1.7774-2.498 4.3293-4.3399 7.26-5.24 3.2905-1.1794 6.8172-1.5465 10.28-1.07 3.0591.5595 6.0181 1.5706 8.78 3 1.63.81 3.24 1.62 4.86 2.45 1.4647.7311 3.0127 1.2818 4.61 1.64 1.5564.3051 3.1654.2017 4.67-.3 1.2838-.3897 2.4585-1.0746 3.43-2 .7601-.8341 1.4304-1.7458 2-2.72.039-.0648.099-.1142.17-.14.0453-.0225.0952-.0342.1457-.0344.0506-.0001.1005.0114.1459.0336.0455.0223.0852.0546.1161.0946.0309.04.0522.0866.0623.1362.0344.0832.0344.1767 0 .26-.5774 1.067-1.29 2.0551-2.12 2.94-1.0585 1.0084-2.345 1.746-3.75 2.15-2.4385.7624-5.0515.7624-7.49 0-2.6004-.8457-5.1285-1.899-7.56-3.15-2.5758-1.3194-5.2799-2.3716-8.07-3.14-3.3417-.7745-6.8335-.5978-10.08.51-2.6693.801-4.9864 2.4868-6.57 4.78-.6907.922-1.1493 1.9966-1.3373 3.1331-.188 1.1366-.0997 2.3016.2573 3.3969.3433.9716.8968 1.8553 1.6211 2.5883.7243.7329 1.6015 1.2969 2.5689 1.6517 2.1817.9146 4.5963 1.1176 6.9.58l.7-.16c.19 0 2.36-.79 2.45-.82l.65-.3c1.5619-.7228 2.9997-1.688 4.26-2.86 1.1346-1.0141 2.05-2.2494 2.69-3.63.0181-.0479.0461-.0915.0823-.1277.0362-.0362.0798-.0643.1277-.0823.0453-.0225.0952-.0342.1457-.0344.0506-.0001.1005.0114.1459.0336.0455.0223.0852.0546.1161.0946.0309.04.0522.0866.0623.1362.0344.0832.0344.1767 0 .26-.6476 1.4599-1.6027 2.7629-2.8 3.82-1.3568 1.2538-2.9024 2.2864-4.58 3.06l-.64.3c-.09 0-2.35.81-2.45.83l-.67.22c-2.6102.6157-5.3463.4168-7.84-.57-1.0702-.3657-2.0445-.9671-2.8511-1.7598-.8066-.7927-1.4248-1.7565-1.8089-2.8202-.8267-2.3267-.39-4.7067 1.31-7.14zm24.18 2.2c.1685-.334.4022-.6309.6873-.873.2851-.2422.6158-.4248.9727-.537 1.1882-.2506 2.4232-.157 3.56.27 2.58.72 4.1767 1.1366 4.79 1.25 2.2623.4554 4.6023.342 6.81-.33 1.1654-.3726 2.2604-.937 3.24-1.67.25-.2.43-.14.53.18.0322.0689.0388.1469.0186.2202-.0202.0733-.0657.137-.1286.1798-1.0397.7723-2.1982 1.3701-3.43 1.77-2.3224.732-4.792.8662-7.18.39-.7-.12-2.24-.53-4.62-1.25-1.0633-.4241-2.2257-.5351-3.35-.32-.4091.1231-.7627.3847-1 .74-.12.1726-.1885.3758-.1975.5859-.0091.2101.0418.4184.1466.6007.1047.1823.2591.3311.4452.4291.186.098.3961.1411.6057.1243.74-.06 1.2.18 1.38.73.18.55 0 1.15-.83 1.41-.2535.0806-.522.1026-.7853.0645-.2632-.0381-.5144-.1354-.7347-.2845-.5376-.3329-.933-.853-1.11-1.46-.1342-.3607-.1877-.7464-.1566-1.13.0311-.3836.146-.7557.3366-1.09zm-10-10.42c-.11-.32 0-.48.31-.5 2.3372-.1225 4.6785.141 6.93.78 2.2174.6593 4.3724 1.5126 6.44 2.55 1.52.77 3 1.54 4.56 2.33 1.2435.6286 2.5382 1.1505 3.87 1.56 1.0935.322 2.2565.322 3.35 0 .6225-.1632 1.1805-.512 1.6-1 .1082-.1399.181-.3039.2124-.478.0313-.1741.0202-.3531-.0324-.522-.079-.2216-.2336-.4083-.4366-.5272-.203-.1189-.4415-.1624-.6734-.1228-.7467.0733-1.2167-.1767-1.41-.75-.23-.68 0-1.15.82-1.42.2479-.0774.5098-.0996.7672-.065.2573.0345.5041.125.7228.265.5565.3397.972.8687 1.17 1.49.1353.371.1823.7684.1372 1.1607-.0452.3923-.1812.7687-.3972 1.0993-.5507.7717-1.3536 1.327-2.27 1.57-1.1548.3629-2.3883.3941-3.56.09-1.3874-.3778-2.7289-.9077-4-1.58l-4.78-2.4c-2.0099-1.0009-4.1006-1.8305-6.25-2.48-2.2158-.629-4.5194-.8924-6.82-.78-.0649-.0041-.1269-.0286-.1771-.0698-.0503-.0413-.0863-.0974-.1029-.1602l.02-.04zm-12.18 8.95c1.4227-1.996 3.4598-3.4711 5.8-4.2 2.6245-.9636 5.4703-1.1545 8.2-.55 2.44.59 3.92 1.66 4.45 3.23.1292.3172.1912.6578.1822 1.0002-.009.3424-.0888.6792-.2344.9893-.1456.31-.3539.5865-.6117.8121-.2578.2255-.5595.3952-.8861.4984-.6779.2347-1.4208.1953-2.07-.11-.0506-.0145-.0975-.0399-.1372-.0745-.0397-.0345-.0714-.0774-.0928-.1255-.0241-.0485-.0366-.102-.0366-.1562.0001-.0542.0127-.1077.037-.1561.0242-.0485.0594-.0907.1027-.1233.0433-.0325.0936-.0546.1469-.0644.0451-.0221.0947-.0336.145-.0336.0503 0 .0999.0115.145.0336.4349.2236.9382.2746 1.4092.143.471-.1317.8748-.4363 1.1308-.853.1257-.2441.1978-.5122.2116-.7864.0138-.2742-.0311-.5481-.1316-.8036-.48-1.4067-1.9033-2.3533-4.27-2.84-2.5089-.4614-5.0957-.2404-7.49.64-2.1252.6722-3.9859 1.9943-5.32 3.78-1.31 1.77-1.7 3.41-1.19 4.94.1966.6634.5382 1.2748 1 1.79.0304.0444.0571.0912.08.14.0171.0418.0246.087.0219.1321-.0028.0451-.0157.089-.0378.1285-.0222.0394-.0529.0733-.09.0992-.037.0259-.0795.043-.1241.0502-.0565.0235-.1185.0304-.1788.0198-.0602-.0107-.1162-.0384-.1612-.0798-.5581-.5598-.9732-1.2458-1.21-2-.55-1.76-.16-3.57 1.21-5.47zm-12.51-2.99c.2486-.1511.48-.3288.69-.53 1.2004.5524 2.5229.7866 3.84.68.84 0 3.17-.23 3.17-.23s1-2.13 1.26-2.91c.5431-1.2063.7636-2.5329.64-3.85.2573-.1324.4989-.2934.72-.48-.4537-1.1712-1.298-2.1497-2.39-2.77.2773 1.1107.3619 2.2607.25 3.4.2496.0209.5004.0209.75 0-.1232 1.1228-.5067 2.2014-1.12 3.15-.83.87-1 .93-1.82-.16-.48-.6-2.13-2.84-3.48-4.67l1.3-.91c.1232.073.2675.1019.4093.0819.1418-.02.2725-.0877.3707-.1919.0967-.0665.178-.1529.2385-.2535.0604-.1006.0986-.213.1118-.3296.0133-.1166.0014-.2347-.0349-.3463s-.0961-.2141-.1754-.3006c-.0564-.1038-.1329-.1954-.225-.2693-.0922-.074-.1981-.1288-.3116-.1614-.1136-.0326-.2325-.0422-.3498-.0284-.1174.0139-.2308.051-.3336.1091-.129.079-.229.1977-.2849.3384-.0559.1406-.0647.2955-.0251.4416-.48.27-.93.56-1.37.86l-.56-.74c.2962-.2965.4816-.6857.5253-1.1025.0437-.4169-.057-.836-.2853-1.1875-.3173-.3901-.7756-.6392-1.2754-.6935-.4999-.0543-1.001.0907-1.3946.4035-.4246.2697-.7265.6953-.8405 1.1853-.1141.49-.0313 1.0051.2305 1.4347.2575.3299.6197.5622 1.0269.6585.4072.0964.8351.051 1.2131-.1285l.52.77c-.43.32-.86.65-1.27 1-.1212-.0909-.2685-.14-.42-.14-.1515 0-.2988.0491-.42.14-.0944.0776-.1717.1739-.2273.2827-.0555.1088-.088.2279-.0955.3499-.0075.1219.0101.2441.0519.359.0418.1148.1068.2198.1909.3084.055.1028.1314.1927.2239.2637.0925.071.1992.1214.3127.1479.1136.0265.2315.0284.3459.0058.1144-.0227.2226-.0696.3175-.1374.24-.18.44-.35.36-.71l1.29-.92 3.26 4.86c.76 1.12.66 1.27-.44 1.76-1.1044.2642-2.2556.2642-3.36 0 .1021-.2252.1824-.4596.24-.7-1.1093-.274-2.1642-.7338-3.12-1.36.2003 1.2456.8257 2.3834 1.77 3.22zm.77-10.66l-.17-.24c-.3572-.1405-.6936-.3288-1-.56.1135.3531.1807.7195.2 1.09l.17.25c-.2148.0848-.4511.0985-.6743.0391s-.4215-.1888-.5657-.3691c-.1494-.2715-.1871-.5906-.1049-.8894.0822-.2988.2777-.5537.5449-.7106.2351-.2046.5417-.3079.8527-.2873.311.0206.6012.1634.8073.3973.1279.1918.1911.4195.1803.6498-.0108.2304-.095.4512-.2403.6302z"/><path d="M28.1936 23.4399c-1.1206.0435-2.2352-.1829-3.25-.66-.2051.1914-.4335.356-.68.49-.0157.0072-.0327.0109-.05.0109-.0173 0-.0343-.0037-.05-.0109-.9745-.8337-1.6315-1.9781-1.86-3.24-.0004-.0195.0039-.0388.0126-.0562.0088-.0174.0216-.0325.0374-.0438.0179-.0116.0387-.0178.06-.0178s.0421.0062.06.0178c.94.6196 1.978 1.076 3.07 1.35.0259-.0092.0541-.0092.08 0 .0072.0157.0109.0327.0109.05 0 .0172-.0037.0343-.0109.05 0 .14-.12.41-.19.59 1.0345.2554 2.1155.2554 3.15 0 .54-.24.81-.39.86-.58.05-.19-.12-.53-.46-1l-3.17-4.76-1.15.81c.0112.1524-.0227.3047-.0974.4381-.0746.1333-.1868.2418-.3226.3119-.1063.0769-.2277.1302-.3563.1563-.1286.0261-.2612.0245-.3891-.0049-.1278-.0293-.2479-.0857-.3522-.1653s-.1903-.1805-.2524-.2961c-.0922-.1001-.163-.2179-.2081-.3462-.0452-.1284-.0636-.2646-.0542-.4004.0093-.1357.0463-.2681.1086-.389.0623-.121.1486-.228.2537-.3144.1242-.0992.2747-.1596.433-.1738.1582-.0143.3172.0184.457.0938.3667-.3067.7467-.6067 1.14-.9l-.41-.61c-.3941.1685-.8331.201-1.2478.0923-.4146-.1086-.7813-.3522-1.0422-.6923-.1461-.2083-.2451-.4459-.29-.6963-.0449-.2505-.0347-.5077.03-.7537.1318-.533.4507-1.0009.8985-1.3184.4479-.3176.995-.4636 1.5415-.4116.2534.0219.4991.0986.7201.2246.2209.126.412.2984.5599.5054.2366.358.3465.785.3121 1.2128-.0345.4277-.2112.8316-.5021 1.1472l.44.58 1.22-.77c-.0217-.1562.0016-.3154.0672-.4588.0655-.1435.1705-.2653.3028-.3512.1163-.0722.2462-.1197.3817-.1396.1354-.02.2735-.0118.4057.0238.1322.0356.2557.098.3628.1833.1071.0853.1955.1916.2598.3125.1718.2216.2507.5013.22.78-.0183.1195-.0616.2338-.1271.3355-.0655.1017-.1516.1884-.2529.2545-.1062.1103-.2441.1849-.3946.2136-.1504.0287-.306.0099-.4454-.0536l-1.15.81 3.43 4.59c.36.48.61.76.82.77.21.01.42-.19.83-.62.593-.8993.9601-1.9285 1.07-3-.2065.0108-.4135.0108-.62 0-.0179-.0004-.0355-.0051-.0512-.0138-.0157-.0088-.029-.0212-.0388-.0362-.0079-.0137-.0121-.0292-.0121-.045 0-.0158.0042-.0313.0121-.045.0998-1.1195.0154-2.2478-.25-3.34-.0122-.0158-.0188-.0351-.0188-.055s.0066-.0393.0188-.055c.0158-.0122.0351-.0188.055-.0188s.0392.0066.055.0188c1.1242.6229 1.9894 1.6263 2.44 2.83.0099.0148.0152.0322.0152.05 0 .0178-.0053.0352-.0152.05-.2094.185-.4412.3429-.69.47.1098 1.312-.1174 2.6304-.66 3.83-.29.77-1.25 2.89-1.26 2.92-.0086.0169-.0213.0313-.0371.0418-.0158.0105-.034.0168-.0529.0182 0 0-2.35.2-3.17.23l-.56-.02zm-3.27-.91h.06c1.1821.5418 2.4842.7692 3.78.66.74 0 2.72-.19 3.1-.22.15-.35 1-2.16 1.23-2.85.5354-1.1804.7592-2.4784.65-3.77-.0116-.0179-.0178-.0387-.0178-.06s.0062-.0422.0178-.06c.2235-.1164.4374-.2502.64-.4-.4211-1.0405-1.1549-1.9245-2.1-2.53.2388 1.0081.3164 2.0476.23 3.08.1894.0216.3806.0216.57 0 .0174-.0074.0361-.0113.055-.0113s.0376.0039.055.0113c.0094.0326.0094.0673 0 .1-.1184 1.1534-.5129 2.2613-1.15 3.23-.42.44-.71.71-1 .68-.29-.03-.56-.3-1-.86l-3.5-4.68c-.007-.0122-.0107-.026-.0107-.04 0-.0141.0037-.0279.0107-.04-.0091-.0259-.0091-.0541 0-.08l1.25-.88c.0165-.0148.0379-.0229.06-.0229.0221 0 .0435.0081.06.0229.23.14.4.07.66-.11.0774-.0514.1437-.1176.1952-.1949.0515-.0772.0871-.164.1048-.2551.0189-.2234-.0491-.4456-.19-.62-.0483-.0961-.1156-.1813-.198-.2504-.0823-.0691-.1779-.1207-.2809-.1516-.103-.0309-.2112-.0405-.318-.0281-.1068.0124-.2099.0465-.3031.1001-.1117.0672-.1984.1689-.2471.2898-.0487.1209-.0568.2543-.0229.3802.0108.0163.0165.0354.0165.055 0 .0195-.0057.0387-.0165.055-.46.27-.92.56-1.36.86-.0094.0106-.0209.0191-.0339.025-.0129.0058-.0269.0088-.0411.0088-.0142 0-.0282-.003-.0411-.0088-.013-.0059-.0245-.0144-.0339-.025l-.56-.74c-.0163-.0197-.0251-.0445-.0251-.07 0-.0256.0088-.0503.0251-.07.2802-.277.456-.6423.498-1.034.0419-.3918-.0528-.786-.268-1.116-.1298-.1839-.2982-.3373-.4933-.4496-.1952-.1122-.4124-.1806-.6367-.2004-.4928-.0392-.9837.0968-1.3861.384-.4025.2872-.6907.7072-.8139 1.186-.0567.2173-.0654.4443-.0257.6653.0397.221.1269.4307.2557.6147.2445.3082.5863.5244.9695.6134.3832.089.7852.0455 1.1405-.1234.002-.0171.0073-.0336.0156-.0486.0084-.015.0196-.0283.0331-.0389.0134-.0107.0289-.0186.0454-.0234.0165-.0047.0338-.0061.0509-.0041.0171.002.0336.0073.0486.0156.015.0084.0283.0196.0389.0331.0107.0134.0186.0289.0233.0454.0048.0165.0062.0338.0042.0509l.52.77c.0183.0187.0286.0438.0286.07 0 .0262-.0103.0513-.0286.07-.43.32-.85.66-1.26 1-.0194.0125-.0419.0191-.065.0191-.0231 0-.0456-.0066-.065-.0191-.1039-.0779-.2302-.12-.36-.12s-.2561.0421-.36.12c-.0805.0712-.1457.1578-.192.2548-.0462.097-.0725.2022-.0771.3096-.0047.1073.0123.2145.05.3151.0376.1006.0951.1926.1691.2705.0463.0851.1098.1597.1864.219.0766.0593.1647.102.2587.1255.094.0235.1919.0273.2874.011.0955-.0163.1866-.0522.2675-.1055.27-.19.38-.33.33-.59-.0122-.0158-.0188-.0351-.0188-.055s.0066-.0393.0188-.055l1.31-.86h.05c.0259-.0092.0541-.0092.08 0 .0259-.0092.0541-.0092.08 0l3.25 4.86c.39.57.58.91.49 1.2-.09.29-.42.47-1 .72-1.1233.2758-2.2967.2758-3.42 0-.0182-.004-.035-.0125-.049-.0247-.014-.0123-.0247-.0278-.031-.0453-.0122-.0158-.0188-.0351-.0188-.055s.0066-.0393.0188-.055c.0734-.1718.1336-.349.18-.53-1.0035-.2644-1.9587-.6863-2.83-1.25.2589 1.0946.8491 2.0829 1.69 2.83.2139-.1419.4147-.3025.6-.48.0127-.0097.0273-.0164.0428-.0199.0155-.0035.0316-.0035.0472-.0001zm-1.1-9.31c-.1759.0056-.3506-.0315-.5091-.1082-.1585-.0766-.296-.1904-.4009-.3318-.1674-.2949-.212-.6439-.124-.9714s.3014-.6073.594-.7786c.1278-.1101.2762-.1939.4365-.2465.1603-.0525.3294-.0729.4976-.0599.1682.013.3322.0591.4825.1357.1503.0767.284.1822.3934.3107.1354.2133.1988.4644.1808.7165-.018.252-.1164.4916-.2808.6835-.009.0145-.0215.0264-.0364.0347-.0148.0083-.0316.0126-.0486.0126-.017 0-.0338-.0043-.0486-.0126-.0149-.0083-.0274-.0202-.0364-.0347l-.18-.21c-.2385-.1029-.4692-.2232-.69-.36.052.2542.0887.5114.11.77l.15.22c.0079.0155.012.0326.012.05 0 .0174-.0041.0345-.012.05-.0066.0145-.0163.0273-.0284.0377-.0121.0103-.0263.0179-.0416.0223-.1356.0444-.2773.068-.42.07zm.46-2.27c-.2781.0007-.5484.092-.77.26-.2378.1386-.4136.3628-.4917.6267-.078.2639-.0524.5476.0717.7933.1151.1478.2721.2575.4505.3146.1785.0571.37.059.5495.0054l-.08-.12c-.0053-.0163-.0053-.0338 0-.05-.0178-.3608-.0851-.7175-.2-1.06-.0138-.0189-.0213-.0416-.0213-.065 0-.0234.0075-.0462.0213-.065.0204-.0147.0449-.0225.07-.0225.0251 0 .0496.0078.07.0225.2861.2184.5985.3998.93.54l.09.12c.0964-.149.1477-.3226.1477-.5s-.0513-.3511-.1477-.5c-.0852-.0985-.1915-.1765-.3109-.2285-.1194-.0519-.249-.0763-.3791-.0715zm76.0804-6.25002c-.5604-1.54.68-4.069997.68-4.069997.703.274055 1.342.692347 1.874 1.227967.532.53563.946 1.17672 1.216 1.88203.45 1.42-.77 3.52-.77 3.52s-2.35-.78-3-2.56z"/><path d="M110.484 18.6299h-3.9c.671-1.3231 1.049-2.7754 1.108-4.2579.058-1.4825-.204-2.9602-.768-4.3321.392-.46696.595-1.06451.567-1.67397-.027-.60946-.283-1.18622-.717-1.61572-.433-.4295-1.012-.68031-1.621-.7026-.61-.02229-1.206.18556-1.669.58227-1.991-.86426-4.2157-1.02646-6.3104-.46-2.5663.68865-4.9077 2.03669-6.7918 3.91022-1.8841 1.8736-3.2452 4.2074-3.9482 6.7698-.5769 2.097-.4145 4.3286.46 6.32-.4588.4588-.7166 1.0811-.7166 1.73s.2578 1.2712.7166 1.73c.4588.4588 1.0811.7166 1.73.7166s1.2712-.2578 1.73-.7166c2.0798.8992 4.4106 1.0338 6.58.38 1.3978.8438 2.9945 1.3017 4.6274 1.327 1.632.0253 3.242-.3829 4.666-1.183 1.423-.8001 2.608-1.9634 3.435-3.3713.827-1.4079 1.266-3.01 1.272-4.6427.004-.0631-.005-.1263-.025-.1861-.021-.0598-.053-.115-.094-.1624-.042-.0474-.093-.086-.15-.1137-.057-.0278-.118-.044-.181-.0478zm-12.8504 5.26l3.6204-3.62v5.12c-1.337-.0976-2.6065-.6237-3.6204-1.5zm-.69-.69c-.863-1.0027-1.3879-2.2519-1.5-3.57h5.1204l-3.6204 3.57zm5.2804-2.93l3.62 3.62c-1.014.8763-2.284 1.4024-3.62 1.5v-5.12zm4.31 2.93l-3.62-3.57h5.12c-.108 1.3191-.634 2.5695-1.5 3.57zm-16.0704 2.36c-.1021-.0585-.2225-.0766-.3373-.0507-.1148.0259-.2157.094-.2827.1907-.1178.1658-.2689.3052-.4437.4092-.1747.104-.3693.1704-.5712.1948-.2019.0244-.4067.0064-.6013-.0529-.1945-.0593-.3745-.1586-.5284-.2916-.1539-.1329-.2784-.2965-.3654-.4804-.087-.1838-.1346-.3838-.1399-.5871-.0052-.2033.0322-.4055.1096-.5935.0775-.1881.1934-.3579.3403-.4985.0301-.0585.0635-.1153.1-.17.0933-.07.1579-.1714.1818-.2855.0239-.1141.0055-.233-.0518-.3345-1.85-3.45-.54-8.62 3.14-12.29 3.68-3.67002 8.86-5.00002 12.3204-3.14002.102.05853.222.07662.337.0507.115-.02592.216-.09397.283-.1907l.14-.16c.274-.26994.644-.42119 1.03-.42119.385 0 .755.15125 1.03.42119.136.13482.244.29525.317.47204.074.17679.112.36643.112.55796 0 .19154-.038.38118-.112.55797-.073.17678-.181.33722-.317.47203l-.16.14c-.097.06705-.165.16795-.191.28275-.026.1148-.008.23515.051.33727 1.25 2.32 1.1 5.47-.38 8.48H93.0036c-.13 0-.2546.0516-.3465.1435-.0919.0919-.1435.2165-.1435.3465-.0031 1.3617.2968 2.707.878 3.9385.5811 1.2314 1.4289 2.3182 2.482 3.1815-1.8222.4174-3.7325.195-5.41-.63zm11.2804 1.79c-1.586.0034-3.1379-.4515-4.4704-1.31-1.0887-.6971-1.9982-1.6405-2.6548-2.754-.6567-1.1135-1.0421-2.366-1.1252-3.656h1c.1362 1.835.9613 3.5505 2.3096 4.8025 1.3484 1.2521 3.1204 1.9479 4.9608 1.9479 1.84 0 3.612-.6958 4.96-1.9479 1.348-1.252 2.173-2.9675 2.31-4.8025h1c-.14 2.1001-1.076 4.0678-2.616 5.5022-1.54 1.4344-3.57 2.2275-5.674 2.2178zm72.83-7.35c-.956.6262-2.011 1.086-3.12 1.36.057.2404.138.4748.24.7-1.105.2642-2.256.2642-3.36 0-1.1-.49-1.2-.64-.44-1.76l3.26-4.86 1.29.92c-.08.36.12.53.37.71.094.0677.201.1144.315.137.113.0227.231.0206.343-.0059.113-.0265.219-.077.311-.1479.091-.0709.167-.1607.221-.2632.084-.0886.149-.1936.19-.3084.042-.1149.06-.2371.052-.359-.007-.122-.04-.2411-.095-.3499-.056-.1089-.133-.2051-.227-.2827-.122-.0909-.269-.14-.42-.14-.152 0-.299.0491-.42.14-.41-.35-.83-.68-1.27-1l.52-.77c.378.1795.805.2249 1.213.1285.407-.0963.769-.3286 1.027-.6585.264-.4289.348-.9449.234-1.4356-.114-.4908-.418-.9165-.844-1.1844-.394-.3128-.895-.4578-1.395-.4035-.5.0543-.958.3034-1.275.6935-.229.3515-.329.7706-.286 1.1875.044.4168.229.806.526 1.1025l-.55.74c-.45-.3-.9-.59-1.37-.86.035-.1472.023-.3017-.034-.4418-.058-.14-.158-.2583-.286-.3382-.105-.0616-.221-.1014-.341-.117-.12-.0157-.242-.007-.359.0257-.117.0327-.226.0886-.32.1645-.095.0758-.173.17-.23.2768-.08.0865-.14.189-.176.3006-.036.1116-.048.2297-.035.3463.014.1166.052.229.112.3296.061.1006.142.187.239.2535.098.1042.229.1719.37.1919.142.02.286-.0089.41-.0819l1.3.91-3.52 4.64c-.81 1.09-1 1-1.82.16-.615-.9515-.999-2.0337-1.12-3.16.249.0209.5.0209.75 0-.108-1.1394-.023-2.2886.25-3.4-1.092.6203-1.937 1.5988-2.39 2.77.221.1866.462.3476.72.48-.124 1.3171.097 2.6437.64 3.85.3.78 1.26 2.91 1.26 2.91s2.34.2 3.17.23c1.317.1075 2.639-.1267 3.84-.68.21.2012.441.3789.69.53.962-.8156 1.612-1.9393 1.84-3.18zm-2.69-8.77c.206-.2339.496-.3767.807-.3973.311-.0206.617.0827.853.2873.269.1551.466.41.548.7096.083.2995.044.6195-.108.8904-.145.1803-.343.3097-.566.3691-.223.0594-.46.0457-.674-.0391l.17-.25c.019-.3713.089-.7382.21-1.09-.308.2291-.644.4173-1 .56l-.17.24c-.146-.1786-.231-.3987-.243-.6286-.013-.23.048-.458.173-.6514z"/><path d="M168.794 23.4399h-.57c-.83 0-3.15-.23-3.18-.23-.019-.0014-.038-.0077-.053-.0182-.016-.0105-.029-.0249-.037-.0418 0 0-1-2.15-1.26-2.92-.543-1.1996-.77-2.518-.66-3.83-.249-.1271-.481-.285-.69-.47-.008-.0157-.011-.0328-.011-.05 0-.0173.003-.0343.011-.05.442-1.1988 1.291-2.204 2.4-2.84.015-.0122.035-.0188.055-.0188.019 0 .039.0066.055.0188.012.0157.018.0351.018.055s-.006.0392-.018.055c-.266 1.0922-.35 2.2205-.25 3.34.008.0137.012.0292.012.045 0 .0158-.004.0313-.012.045-.009.0143-.02.0263-.034.035-.014.0087-.03.0139-.046.015-.21.0108-.421.0108-.63 0 .11 1.0715.477 2.1007 1.07 3 .4.42.63.62.82.62.22 0 .46-.29.82-.77l3.43-4.59-.21-.15-.94-.66c-.14.0621-.295.08-.445.0514-.151-.0286-.288-.1023-.395-.2114-.099-.0668-.183-.1524-.248-.252-.066-.0995-.111-.211-.132-.328-.017-.1397-.007-.2814.031-.4169.038-.1356.102-.2624.189-.3731.161-.2431.401-.4232.68-.51.123-.0321.253-.0371.379-.0147.126.0225.245.0718.351.1447.134.0841.24.2056.306.3496.066.1439.088.304.064.4604l1.22.77.44-.58c-.291-.3156-.468-.7195-.502-1.1472-.035-.4278.075-.8548.312-1.2128.163-.207.366-.3795.597-.5077.23-.1281.484-.2094.746-.2392.262-.02973.528-.0073.781.0659.253.0733.49.196.696.361.225.1389.42.321.574.5358.154.2148.264.4581.323.7157.06.2576.068.5244.024.785-.045.2607-.14.51-.281.7335-.261.3401-.628.5837-1.043.6923-.414.1087-.853.0762-1.247-.0923l-.41.61c.393.2933.773.5933 1.14.9.14-.073.299-.1042.456-.09.158.0142.308.0731.434.17.105.0864.191.1934.253.3144.063.1209.1.2533.109.389.009.1358-.009.272-.054.4004-.045.1283-.116.2461-.208.3462-.072.12-.167.2239-.281.3048-.113.081-.243.1372-.379.1652-.12.0226-.243.02-.362-.0075-.119-.0276-.231-.0795-.328-.1525-.136-.0701-.248-.1786-.323-.3119-.075-.1334-.109-.2857-.097-.4381l-1-.69-.18-.12-3.19 4.76c-.34.49-.52.82-.46 1 .06.18.32.34.86.58 1.034.2554 2.115.2554 3.15 0-.07-.18-.15-.45-.19-.59-.008-.0157-.011-.0328-.011-.05 0-.0173.003-.0343.011-.05.025-.0092.054-.0092.08 0 1.092-.274 2.13-.7304 3.07-1.35.017-.0116.038-.0178.06-.0178.021 0 .042.0062.06.0178.017.0098.031.0245.04.0423.009.0179.012.0379.01.0577-.229 1.2619-.886 2.4063-1.86 3.24-.016.0072-.033.0109-.05.0109-.018 0-.035-.0037-.05-.0109-.245-.1364-.474-.3008-.68-.49-.976.469-2.048.7052-3.13.69zm-3.67-.45c.39 0 2.36.2 3.1.22 1.295.1101 2.598-.1173 3.78-.66.018-.0155.041-.024.065-.024.023 0 .046.0085.065.024.185.1775.386.3381.6.48.841-.7471 1.431-1.7354 1.69-2.83-.872.5637-1.827.9856-2.83 1.25.043.1832.107.361.19.53.009.0167.014.0357.014.055 0 .0193-.005.0383-.014.055-.007.0175-.017.033-.031.0453-.014.0122-.031.0207-.049.0247-1.124.2758-2.297.2758-3.42 0-.56-.25-.9-.42-1-.72-.1-.3.1-.63.49-1.2l3.26-4.86c.011-.0053.022-.0081.035-.0081.012 0 .024.0028.035.0081.025-.0101.054-.0101.08 0l.27.19 1 .74c.012.0157.018.0351.018.055s-.006.0392-.018.055c-.05.26.06.4.33.59.149.1096.336.1563.52.13.215-.0564.401-.1922.52-.38.077-.0746.138-.164.18-.2627.042-.0988.063-.205.063-.3123 0-.1073-.021-.2135-.063-.3123-.042-.0988-.103-.1881-.18-.2627-.104-.0779-.231-.12-.36-.12-.13 0-.257.0421-.36.12-.02.0125-.042.0191-.065.0191s-.046-.0066-.065-.0191c-.4-.34-.83-.68-1.26-1-.019-.0187-.029-.0438-.029-.07 0-.0262.01-.0513.029-.07l.52-.77c.018-.0155.041-.024.065-.024.023 0 .046.0085.065.024.355.1689.757.2124 1.14.1234.383-.089.725-.3052.97-.6134.246-.4056.323-.8917.215-1.3537-.109-.4619-.394-.8628-.795-1.1163-.371-.2964-.844-.4343-1.316-.3837-.472.0506-.905.2855-1.204.6537-.216.33-.31.7242-.268 1.116.042.3917.217.757.498 1.034.016.0197.025.0444.025.07 0 .0255-.009.0503-.025.07l-.56.74c-.01.0106-.021.0191-.034.025-.013.0058-.027.0088-.041.0088-.015 0-.029-.003-.042-.0088-.012-.0059-.024-.0144-.033-.025-.44-.3-.9-.58-1.36-.86-.02-.0104-.035-.0268-.044-.0466-.009-.0199-.011-.0421-.006-.0634.033-.1259.025-.2593-.023-.3802-.049-.1209-.136-.2226-.247-.2898-.078-.054-.167-.0901-.26-.1057-.094-.0155-.189-.0102-.28.0157-.232.0679-.43.2171-.56.42-.072.0873-.124.1882-.155.2965-.031.1083-.04.2218-.025.3335.035.1788.139.3367.29.44.26.18.43.25.66.11.017-.0116.038-.0178.06-.0178.021 0 .042.0062.06.0178l1.3.91c.004.0264.004.0535 0 .08.004.0265.004.0535 0 .08-1.37 1.82-3.05 4.06-3.5 4.68-.45.62-.68.84-1 .86-.3 0-.57-.26-1-.68-.85-.89-1.13-3.14-1.15-3.23-.001-.0187.003-.0372.011-.0541.007-.0169.019-.0318.034-.0434.014-.0117.031-.0198.049-.0237.019-.0039.038-.0035.056.0012.189.0213.38.0213.57 0-.087-1.0324-.009-2.0719.23-3.08-.945.6055-1.679 1.4895-2.1 2.53.204.1519.422.2857.65.4.02.0121.035.0302.044.0518.009.0216.011.0455.006.0682-.119 1.2965.098 2.6017.63 3.79.33.58 1.14 2.38 1.29 2.74zm8-9.77c-.153.0012-.305-.0225-.45-.07-.016-.0044-.03-.012-.042-.0223-.012-.0104-.022-.0232-.028-.0377-.008-.0155-.012-.0326-.012-.05 0-.0174.004-.0345.012-.05l.15-.22c.021-.2586.058-.5158.11-.77-.219.1341-.446.2543-.68.36l-.16.21c-.024.0261-.056.0437-.09.05-.018-.0004-.036-.0051-.052-.0138-.015-.0088-.029-.0212-.038-.0362-.165-.1919-.263-.4315-.281-.6835-.018-.2521.045-.5032.181-.7165.109-.1285.243-.234.393-.3107.15-.0766.314-.1227.482-.1357.169-.013.338.0074.498.0599.16.0526.309.1364.437.2465.292.1713.506.4511.594.7786.088.3275.043.6765-.124.9714-.1.135-.229.2451-.378.3215-.15.0764-.315.1169-.482.1185h-.04zm-.24-.24c.179.0536.371.0517.549-.0054.179-.0571.336-.1668.451-.3146.131-.248.162-.5372.086-.8073-.077-.2701-.255-.5003-.496-.6427-.214-.1857-.491-.2804-.774-.2635-.282.0168-.547.1437-.736.3535-.094.1498-.144.3231-.144.5s.05.3502.144.5l.09-.12c.331-.1402.644-.3216.93-.54.02-.0147.044-.0225.07-.0225.025 0 .049.0078.07.0225.013.0188.021.0416.021.065 0 .0234-.008.0461-.021.065-.115.3425-.183.6992-.2 1.06.005.0162.005.0337 0 .05l-.04.1z"/></svg>