<svg viewBox="0 0 194.41 56.56" fill="currentColor"><defs><style>.cls-1{fill:#db9c41}.cls-2{fill:#d79a2b}</style></defs><g id="Layer_2" data-name="Layer 2"><g id="Layer_1-2" data-name="Layer 1"><g id="Title_Top" data-name="Title Top"><path d="M156.86 46.84a.46.46 0 01-.35-.16.47.47 0 010-.77.51.51 0 01.31-.12q3.45 0 6.4.16l4.25.4c1.49.18 3 .36 4.49.56a39.86 39.86 0 005.34.27 6.52 6.52 0 00-1.3-2.74 39 39 0 01-10.86-1.38.48.48 0 01-.29-.16.54.54 0 01.52-.89 35.84 35.84 0 009.63 1.34 14.64 14.64 0 00-10-4.05 15 15 0 00-10.85 4 .47.47 0 01-.75 0 .48.48 0 010-.77 16 16 0 0112-4.22 15.35 15.35 0 0110.9 5 12.7 12.7 0 007.13-3.31 7.29 7.29 0 002.43-4.28 5.68 5.68 0 00-1.41-5 5.08 5.08 0 00-5.18-1.68.46.46 0 01-.49-.14.5.5 0 010-.8.42.42 0 01.25-.12 7.2 7.2 0 017.09 2.22 6.66 6.66 0 011.73 5.34 8.12 8.12 0 01-2.85 5.38 13.9 13.9 0 01-7.77 3.42 7.32 7.32 0 011.21 2.76 16.26 16.26 0 009.74-4.4 13.41 13.41 0 004.69-8.48 10 10 0 00-2.51-8.3 10.81 10.81 0 00-7.58-3.78 11.08 11.08 0 00-8.39 3 10.5 10.5 0 00-3.57 6.06 6.41 6.41 0 001.42 5.65 5 5 0 002.5 1.52 5 5 0 002.86-.06.44.44 0 01.52.11.49.49 0 010 .78.82.82 0 01-.2.12 6.13 6.13 0 01-6.43-1.77 7.41 7.41 0 01-1.71-6.38 11.42 11.42 0 014-6.82 13.31 13.31 0 019.41-3.58 11.4 11.4 0 018.66 3.87 10.7 10.7 0 012.48 9.27 16.17 16.17 0 01-5.53 9.71 19.89 19.89 0 01-10.06 5.15 7.44 7.44 0 01-2.47 6.05 6 6 0 01-3.87 1.7 4.15 4.15 0 01-3.42-1.43 3.47 3.47 0 01-.93-2.37 2.64 2.64 0 01.85-2.08 1.83 1.83 0 011.29-.53 1.57 1.57 0 011.15.56 1.64 1.64 0 01-.11 2.35 1.2 1.2 0 00-.09 1.71 2 2 0 001.76.68 4.84 4.84 0 002.66-1.37A6.33 6.33 0 00177.6 49a26.37 26.37 0 01-4.61-.29c-1.36-.26-2.72-.51-4.1-.75a64.89 64.89 0 00-12.03-1.12zM161.79 31.94a7.55 7.55 0 01-4.66 4.58 13.11 13.11 0 01-7.84.57l-.67-.22c-.1 0-2.36-.8-2.44-.83l-.65-.3a17.62 17.62 0 01-4.53-3.06 11.23 11.23 0 01-2.8-3.82.34.34 0 010-.26.33.33 0 01.47-.23.36.36 0 01.21.21 11.31 11.31 0 002.69 3.63 16.32 16.32 0 004.26 2.86l.65.3c.09 0 2.26.78 2.45.82l.7.16a11.24 11.24 0 006.9-.58 7 7 0 004.15-4.26 7.18 7.18 0 00-1.16-6.51 12.27 12.27 0 00-6.52-4.76 18.37 18.37 0 00-10.08-.51 42.1 42.1 0 00-8.06 3.14 51.43 51.43 0 01-7.62 3.13 12.55 12.55 0 01-7.49 0 9.14 9.14 0 01-3.64-2.14 14.5 14.5 0 01-2.11-2.95.34.34 0 010-.26.33.33 0 01.47-.23.4.4 0 01.18.14 15.62 15.62 0 001.94 2.72 8.59 8.59 0 003.43 2 9.18 9.18 0 004.67.3 20.24 20.24 0 004.57-1.58c1.62-.83 3.23-1.64 4.86-2.45a31.39 31.39 0 018.78-3 21.7 21.7 0 0110.28 1.07 13.93 13.93 0 017.26 5.24q2.56 3.59 1.35 7.08zm-25.4-2.72a2.56 2.56 0 01-1.13 1.46 1.76 1.76 0 01-1.52.22c-.78-.26-1.06-.73-.83-1.41s.65-.79 1.38-.73a1.11 1.11 0 001-1.74 1.84 1.84 0 00-1-.74 6 6 0 00-3.35.32c-2.38.72-3.91 1.13-4.62 1.25a14.48 14.48 0 01-7.18-.39 11.93 11.93 0 01-3.43-1.77.32.32 0 01-.11-.4c.1-.32.28-.38.53-.18a11 11 0 003.24 1.67 13.94 13.94 0 006.85.37q.91-.16 4.79-1.25a6.38 6.38 0 013.56-.27 2.85 2.85 0 011.67 1.37 2.66 2.66 0 01.15 2.22zm9.53-12.38a21.19 21.19 0 00-6.82.78 39.93 39.93 0 00-6.25 2.48l-4.78 2.4a19.53 19.53 0 01-3.95 1.58 6.46 6.46 0 01-3.56-.09 4.07 4.07 0 01-2.25-1.59 2.54 2.54 0 01-.26-2.26 2.71 2.71 0 011.17-1.49 1.78 1.78 0 011.49-.2c.78.27 1.05.74.82 1.42s-.66.82-1.41.75a1 1 0 00-1.11.65 1.13 1.13 0 00.18 1 3.17 3.17 0 001.6 1 6 6 0 003.36 0 25 25 0 003.85-1.49c1.52-.79 3-1.56 4.56-2.33A39.4 39.4 0 01139 16.9a21.3 21.3 0 016.93-.78c.32 0 .42.18.31.5a.31.31 0 01-.32.22zM159.59 31a4.92 4.92 0 01-1.21 2 .32.32 0 01-.36.1.3.3 0 01-.23-.41 1 1 0 01.08-.14 4.67 4.67 0 001-1.79c.51-1.53.12-3.17-1.19-4.94a10.65 10.65 0 00-5.27-3.82 14.24 14.24 0 00-7.49-.61q-3.55.72-4.27 2.84a1.93 1.93 0 00.08 1.59 1.94 1.94 0 002.54.71.33.33 0 01.29 0 .35.35 0 01.25.5.34.34 0 01-.21.21 2.75 2.75 0 01-2.07.11A2.5 2.5 0 01140 24c.53-1.57 2-2.64 4.45-3.23a14.62 14.62 0 018.21.55 11.22 11.22 0 015.8 4.2 5.85 5.85 0 011.13 5.48z" class="cls-1"/><path d="M25.52 48c-1.38.24-2.74.49-4.1.75a26.37 26.37 0 01-4.61.29A6.33 6.33 0 0019 54.07a4.84 4.84 0 002.66 1.37 2 2 0 001.76-.68 1.2 1.2 0 00-.09-1.71 1.65 1.65 0 01-.11-2.35 1.57 1.57 0 011.15-.56 1.83 1.83 0 011.29.53 2.64 2.64 0 01.85 2.08 3.42 3.42 0 01-.93 2.37 4.15 4.15 0 01-3.42 1.43 6 6 0 01-3.87-1.7 7.47 7.47 0 01-2.47-6.05 19.89 19.89 0 01-10.11-5.15 16.17 16.17 0 01-5.53-9.71 10.7 10.7 0 012.48-9.27 11.4 11.4 0 018.66-3.87 13.35 13.35 0 019.42 3.58 11.46 11.46 0 013.94 6.82A7.41 7.41 0 0123 37.58a6.11 6.11 0 01-6.42 1.77.56.56 0 01-.2-.12.49.49 0 01-.05-.78.44.44 0 01.52-.11 5 5 0 002.86.06 5 5 0 002.5-1.52 6.41 6.41 0 001.42-5.65A10.45 10.45 0 0020 25.17a11.07 11.07 0 00-8.39-3 10.81 10.81 0 00-7.58 3.78 10 10 0 00-2.51 8.3 13.41 13.41 0 004.72 8.45A16.26 16.26 0 0016 47.1a7.32 7.32 0 011.21-2.76 13.9 13.9 0 01-7.77-3.42 8.12 8.12 0 01-2.88-5.37 6.66 6.66 0 011.73-5.34A7.2 7.2 0 0115.36 28a.42.42 0 01.25.12.5.5 0 010 .8.46.46 0 01-.49.14A5.08 5.08 0 0010 30.73a5.68 5.68 0 00-1.41 5A7.29 7.29 0 0011 40a12.7 12.7 0 007.09 3.24 15.35 15.35 0 0110.9-5 16 16 0 0112 4.22.48.48 0 010 .77.47.47 0 01-.75 0 15 15 0 00-10.85-4 14.64 14.64 0 00-10 4.05A35.84 35.84 0 0029 42a.48.48 0 01.45.09.49.49 0 01.07.8.48.48 0 01-.29.16 39 39 0 01-10.86 1.38 6.65 6.65 0 00-1.34 2.74 39.86 39.86 0 005.34-.27c1.5-.2 3-.38 4.49-.56l4.25-.4c2-.13 4.11-.18 6.4-.16a.49.49 0 01.31.12.48.48 0 010 .77.5.5 0 01-.36.16A64.89 64.89 0 0025.52 48zM34 24.8a13.93 13.93 0 017.26-5.24 21.7 21.7 0 0110.28-1.07 31.39 31.39 0 018.78 3c1.63.81 3.24 1.62 4.86 2.45a20.24 20.24 0 004.61 1.64 9.18 9.18 0 004.67-.3 8.59 8.59 0 003.43-2 16.11 16.11 0 002-2.72.33.33 0 01.17-.14.33.33 0 01.47.23.34.34 0 010 .26 14.12 14.12 0 01-2.12 2.94A9.07 9.07 0 0174.66 26a12.55 12.55 0 01-7.49 0 51 51 0 01-7.56-3.15 42.39 42.39 0 00-8.07-3.14 18.37 18.37 0 00-10.08.51A12.27 12.27 0 0034.89 25a7.18 7.18 0 00-1.08 6.53A7 7 0 0038 35.77a11.24 11.24 0 006.9.58l.7-.16c.19 0 2.36-.79 2.45-.82l.65-.3a16.32 16.32 0 004.26-2.86 11.17 11.17 0 002.69-3.63.36.36 0 01.21-.21.33.33 0 01.47.23.34.34 0 010 .26 11.1 11.1 0 01-2.8 3.82 17.62 17.62 0 01-4.58 3.06l-.64.3c-.09 0-2.35.81-2.45.83l-.67.22a13.12 13.12 0 01-7.84-.57 7.55 7.55 0 01-4.66-4.58Q31.45 28.45 34 24.8zM58.18 27a2.8 2.8 0 011.66-1.41 6.38 6.38 0 013.56.27q3.87 1.08 4.79 1.25a13.94 13.94 0 006.81-.33 11 11 0 003.24-1.67c.25-.2.43-.14.53.18a.32.32 0 01-.11.4 11.93 11.93 0 01-3.43 1.77 14.47 14.47 0 01-7.18.39c-.7-.12-2.24-.53-4.62-1.25a6 6 0 00-3.35-.32 1.84 1.84 0 00-1 .74 1.11 1.11 0 001 1.74c.74-.06 1.2.18 1.38.73s0 1.15-.83 1.41a1.76 1.76 0 01-1.52-.22A2.56 2.56 0 0158 29.22a2.63 2.63 0 01.18-2.22zm-10-10.42c-.11-.32 0-.48.31-.5a21.3 21.3 0 016.93.78 39.4 39.4 0 016.44 2.55c1.52.77 3 1.54 4.56 2.33a24.6 24.6 0 003.87 1.56 5.93 5.93 0 003.35 0 3.17 3.17 0 001.6-1 1.1 1.1 0 00.18-1 1 1 0 00-1.11-.65q-1.12.11-1.41-.75c-.23-.68 0-1.15.82-1.42a1.78 1.78 0 011.49.2 2.71 2.71 0 011.17 1.49 2.54 2.54 0 01-.26 2.26A4.07 4.07 0 0173.85 24a6.46 6.46 0 01-3.56.09 19.53 19.53 0 01-4-1.58l-4.78-2.4a39.93 39.93 0 00-6.25-2.48 21.19 21.19 0 00-6.82-.78.31.31 0 01-.28-.23zM36 25.53a11.22 11.22 0 015.8-4.2 14.62 14.62 0 018.2-.55c2.44.59 3.92 1.66 4.45 3.23a2.48 2.48 0 01-1.55 3.3 2.75 2.75 0 01-2.07-.11.36.36 0 01-.23-.2.35.35 0 01.25-.5.33.33 0 01.29 0 1.94 1.94 0 002.54-.71 1.93 1.93 0 00.08-1.59q-.72-2.11-4.27-2.84A14.24 14.24 0 0042 22a10.65 10.65 0 00-5.32 3.78c-1.31 1.77-1.7 3.41-1.19 4.94a4.67 4.67 0 001 1.79 1 1 0 01.08.14.3.3 0 01-.23.41A.32.32 0 0136 33a4.92 4.92 0 01-1.21-2c-.55-1.76-.16-3.57 1.21-5.47zM23.49 22.54a4 4 0 00.69-.53 7.7 7.7 0 003.84.68c.84 0 3.17-.23 3.17-.23s1-2.13 1.26-2.91a7.64 7.64 0 00.64-3.85 3.84 3.84 0 00.72-.48 5.45 5.45 0 00-2.39-2.77 10 10 0 01.25 3.4 4.48 4.48 0 00.75 0A7.26 7.26 0 0131.3 19c-.83.87-1 .93-1.82-.16-.48-.6-2.13-2.84-3.48-4.67l1.3-.91a.63.63 0 00.78-.11.82.82 0 00.14-1.23.89.89 0 00-1.22-.35.7.7 0 00-.31.78c-.48.27-.93.56-1.37.86l-.56-.74a1.83 1.83 0 00.24-2.29 1.91 1.91 0 00-2.67-.29 1.92 1.92 0 00-.61 2.62 1.84 1.84 0 002.24.53l.52.77c-.43.32-.86.65-1.27 1a.7.7 0 00-.84 0 .89.89 0 00-.08 1.3.82.82 0 001.2.28c.24-.18.44-.35.36-.71l1.29-.92 3.26 4.86c.76 1.12.66 1.27-.44 1.76a7.22 7.22 0 01-3.36 0 3.89 3.89 0 00.24-.7 10.12 10.12 0 01-3.12-1.36 5.46 5.46 0 001.77 3.22zm.77-10.66l-.17-.24a4.23 4.23 0 01-1-.56 4.29 4.29 0 01.2 1.09l.17.25a1.08 1.08 0 01-1.24-.33 1.19 1.19 0 01.44-1.6 1.18 1.18 0 011.66.11 1.08 1.08 0 01-.06 1.28z" class="cls-2"/><path d="M27.45 22.81a7 7 0 01-3.25-.66 3.32 3.32 0 01-.68.49.12.12 0 01-.1 0 5.57 5.57 0 01-1.86-3.24.12.12 0 01.05-.1.11.11 0 01.12 0 10 10 0 003.07 1.35.12.12 0 01.08 0 .12.12 0 010 .1c0 .14-.12.41-.19.59a6.57 6.57 0 003.15 0c.54-.24.81-.39.86-.58s-.12-.53-.46-1L25.07 15l-1.15.81a.78.78 0 01-.42.75.92.92 0 01-1.35-.31 1 1 0 01.1-1.45.81.81 0 01.89-.08q.55-.46 1.14-.9l-.41-.61a1.93 1.93 0 01-2.29-.6 1.75 1.75 0 01-.26-1.45 2.29 2.29 0 012.44-1.73 1.76 1.76 0 011.28.73 1.92 1.92 0 01-.19 2.36l.44.58 1.22-.77a.83.83 0 01.37-.81 1 1 0 011.41.38 1.08 1.08 0 01.22.78.86.86 0 01-.38.59.74.74 0 01-.84.16l-1.15.81 3.43 4.59c.36.48.61.76.82.77s.42-.19.83-.62a6.69 6.69 0 001.07-3 5.92 5.92 0 01-.62 0 .11.11 0 01-.09-.05.09.09 0 010-.09 10.28 10.28 0 00-.25-3.34.09.09 0 010-.11.09.09 0 01.11 0 5.4 5.4 0 012.44 2.83.09.09 0 010 .1 3.33 3.33 0 01-.69.47 7.73 7.73 0 01-.66 3.83c-.29.77-1.25 2.89-1.26 2.92a.11.11 0 01-.09.06s-2.35.2-3.17.23zm-3.27-.91h.06a7.55 7.55 0 003.78.66c.74 0 2.72-.19 3.1-.22.15-.35 1-2.16 1.23-2.85a7.58 7.58 0 00.65-3.77.11.11 0 010-.12 4.82 4.82 0 00.64-.4 5.42 5.42 0 00-2.1-2.53 9.81 9.81 0 01.23 3.08 2.51 2.51 0 00.57 0 .14.14 0 01.11 0 .18.18 0 010 .1 7.22 7.22 0 01-1.15 3.23c-.42.44-.71.71-1 .68s-.56-.3-1-.86l-3.5-4.68a.08.08 0 010-.08.12.12 0 010-.08l1.25-.88a.09.09 0 01.12 0c.23.14.4.07.66-.11a.7.7 0 00.3-.45.87.87 0 00-.19-.62.79.79 0 00-1.1-.33.6.6 0 00-.27.67.1.1 0 010 .11c-.46.27-.92.56-1.36.86a.1.1 0 01-.15 0l-.56-.74a.11.11 0 010-.14 1.71 1.71 0 00.23-2.15 1.55 1.55 0 00-1.13-.65 2.1 2.1 0 00-2.2 1.57 1.55 1.55 0 00.23 1.28 1.74 1.74 0 002.11.49.1.1 0 01.26.03l.52.77a.1.1 0 010 .14c-.43.32-.85.66-1.26 1a.12.12 0 01-.13 0 .6.6 0 00-.72 0 .8.8 0 00-.05 1.15.7.7 0 001 .25c.27-.19.38-.33.33-.59a.09.09 0 010-.11l1.31-.86h.05a.12.12 0 01.08 0 .12.12 0 01.08 0l3.25 4.86c.39.57.58.91.49 1.2s-.42.47-1 .72a7.17 7.17 0 01-3.42 0 .11.11 0 01-.08-.07.09.09 0 010-.11 3.67 3.67 0 00.18-.53 9.81 9.81 0 01-2.83-1.25 5.47 5.47 0 001.69 2.83 4.32 4.32 0 00.6-.48.11.11 0 01.09-.02zm-1.1-9.31a1.09 1.09 0 01-.91-.44 1.29 1.29 0 01.47-1.75 1.28 1.28 0 011.81.14 1.18 1.18 0 01-.1 1.4.1.1 0 01-.17 0l-.18-.21a5.29 5.29 0 01-.69-.36 6.5 6.5 0 01.11.77l.15.22a.11.11 0 010 .1.11.11 0 01-.07.06 1.41 1.41 0 01-.42.07zm.46-2.27a1.28 1.28 0 00-.77.26 1.08 1.08 0 00-.42 1.42.93.93 0 001 .32l-.08-.12a.08.08 0 010-.05 3.94 3.94 0 00-.2-1.06.11.11 0 010-.13.12.12 0 01.14 0 4.28 4.28 0 00.93.54l.09.12a.92.92 0 000-1 .87.87 0 00-.69-.3zM99.62 4.07c-.56-1.54.68-4.07.68-4.07a5.41 5.41 0 013.09 3.11c.45 1.42-.77 3.52-.77 3.52s-2.35-.78-3-2.56zM102.54 6l-2.24-6" class="cls-2"/><path d="M109.74 18h-3.9a10.31 10.31 0 00.34-8.59A2.43 2.43 0 00102.74 6a9.57 9.57 0 00-6.31-.46 15.23 15.23 0 00-10.74 10.68 9.47 9.47 0 00.46 6.32A2.43 2.43 0 0089.61 26a9.6 9.6 0 006.58.38 9.23 9.23 0 0014-7.87.48.48 0 00-.45-.51zm-12.85 5.26l3.62-3.62v5.12a6.23 6.23 0 01-3.62-1.5zm-.69-.69A6.29 6.29 0 0194.7 19h5.12zm5.28-2.93l3.62 3.62a6.23 6.23 0 01-3.62 1.5zm4.31 2.93L102.17 19h5.12a6.23 6.23 0 01-1.5 3.57zm-16.07 2.36a.47.47 0 00-.62.14 1.46 1.46 0 11-2.2-1.9A1.74 1.74 0 0187 23a.48.48 0 00.13-.62c-1.85-3.45-.54-8.62 3.14-12.29s8.86-5 12.32-3.14a.47.47 0 00.62-.14l.14-.16a1.47 1.47 0 012.06 0 1.45 1.45 0 010 2.06l-.16.14a.47.47 0 00-.14.62c1.25 2.32 1.1 5.47-.38 8.48H92.26a.49.49 0 00-.49.49 9.18 9.18 0 003.36 7.12 8.14 8.14 0 01-5.41-.63zM101 26.72a8.22 8.22 0 01-4.47-1.31A8.24 8.24 0 0192.75 19h1a7.29 7.29 0 0014.54 0h1a8.27 8.27 0 01-8.29 7.72zM173.83 19.37a10.12 10.12 0 01-3.12 1.36 3.89 3.89 0 00.24.7 7.22 7.22 0 01-3.36 0c-1.1-.49-1.2-.64-.44-1.76l3.26-4.86 1.29.92c-.08.36.12.53.37.71a.81.81 0 001.19-.28.89.89 0 00-.08-1.3.7.7 0 00-.84 0c-.41-.35-.83-.68-1.27-1l.52-.77a1.84 1.84 0 002.24-.53 1.91 1.91 0 00-.61-2.62 1.91 1.91 0 00-2.67.29 1.83 1.83 0 00.24 2.29l-.55.74c-.45-.3-.9-.59-1.37-.86a.72.72 0 00-.32-.78.9.9 0 00-1.25.35.82.82 0 00.14 1.23.63.63 0 00.78.11l1.3.91-3.52 4.64c-.81 1.09-1 1-1.82.16a7.26 7.26 0 01-1.12-3.16 4.48 4.48 0 00.75 0 10.23 10.23 0 01.25-3.4 5.45 5.45 0 00-2.39 2.77 3.84 3.84 0 00.72.48 7.64 7.64 0 00.64 3.85c.3.78 1.26 2.91 1.26 2.91s2.34.2 3.17.23a7.68 7.68 0 003.84-.68 4 4 0 00.69.53 5.46 5.46 0 001.84-3.18zm-2.69-8.77a1.18 1.18 0 011.66-.11 1.18 1.18 0 01.44 1.6 1.08 1.08 0 01-1.24.33l.17-.25a4 4 0 01.21-1.09 4.44 4.44 0 01-1 .56l-.17.24a1.09 1.09 0 01-.07-1.28z" class="cls-2"/><path d="M168.05 22.81h-.57c-.83 0-3.15-.23-3.18-.23a.11.11 0 01-.09-.06s-1-2.15-1.26-2.92a7.73 7.73 0 01-.66-3.83 3.33 3.33 0 01-.69-.47.12.12 0 010-.1 5.45 5.45 0 012.4-2.84.09.09 0 01.11 0 .09.09 0 010 .11 10.28 10.28 0 00-.25 3.34.09.09 0 010 .09.1.1 0 01-.08.05 6.12 6.12 0 01-.63 0 6.69 6.69 0 001.07 3c.4.42.63.62.82.62.22 0 .46-.29.82-.77l3.43-4.59-.21-.15-.94-.66a.75.75 0 01-.84-.16.9.9 0 01-.38-.58 1.07 1.07 0 01.22-.79 1.27 1.27 0 01.68-.51.89.89 0 01.73.13.81.81 0 01.37.81l1.22.77.44-.58a1.92 1.92 0 01-.19-2.36 2 2 0 012.82-.32 2 2 0 01.64 2.77 1.93 1.93 0 01-2.29.6l-.41.61q.59.44 1.14.9a.83.83 0 01.89.08 1 1 0 01.1 1.45 1 1 0 01-.66.47.88.88 0 01-.69-.16.78.78 0 01-.42-.75l-1-.69-.18-.12-3.19 4.76c-.34.49-.52.82-.46 1s.32.34.86.58a6.57 6.57 0 003.15 0c-.07-.18-.15-.45-.19-.59a.12.12 0 010-.1.12.12 0 01.08 0 10 10 0 003.07-1.35.11.11 0 01.12 0 .1.1 0 01.05.1 5.57 5.57 0 01-1.86 3.24.12.12 0 01-.1 0 3.61 3.61 0 01-.68-.49 7 7 0 01-3.13.69zm-3.67-.45c.39 0 2.36.2 3.1.22a7.53 7.53 0 003.78-.66.1.1 0 01.13 0 4.32 4.32 0 00.6.48 5.47 5.47 0 001.69-2.83 9.81 9.81 0 01-2.83 1.25 2.51 2.51 0 00.19.53.11.11 0 010 .11.11.11 0 01-.08.07 7.17 7.17 0 01-3.42 0c-.56-.25-.9-.42-1-.72s.1-.63.49-1.2l3.26-4.86a.08.08 0 01.07 0 .11.11 0 01.08 0l.27.19 1 .74a.09.09 0 010 .11c-.05.26.06.4.33.59a.71.71 0 00.52.13.88.88 0 00.52-.38.8.8 0 000-1.15.6.6 0 00-.72 0 .12.12 0 01-.13 0c-.4-.34-.83-.68-1.26-1a.1.1 0 010-.14l.52-.77a.1.1 0 01.13 0 1.74 1.74 0 002.11-.49 1.81 1.81 0 00-.58-2.47 1.8 1.8 0 00-2.52.27 1.71 1.71 0 00.23 2.15.11.11 0 010 .14l-.56.74a.1.1 0 01-.15 0c-.44-.3-.9-.58-1.36-.86a.1.1 0 01-.05-.11.6.6 0 00-.27-.67.64.64 0 00-.54-.09 1 1 0 00-.56.42.83.83 0 00-.18.63.7.7 0 00.29.44c.26.18.43.25.66.11a.11.11 0 01.12 0l1 .7.3.21a.22.22 0 010 .08.24.24 0 010 .08c-1.37 1.82-3.05 4.06-3.5 4.68s-.68.84-1 .86c-.3 0-.57-.26-1-.68-.85-.89-1.13-3.14-1.15-3.23a.12.12 0 01.15-.12 2.55 2.55 0 00.57 0 9.81 9.81 0 01.23-3.08 5.42 5.42 0 00-2.1 2.53 4.4 4.4 0 00.65.4.11.11 0 01.05.12 7.58 7.58 0 00.63 3.79c.33.58 1.14 2.38 1.29 2.74zm8-9.77a1.41 1.41 0 01-.45-.07.11.11 0 01-.07-.06.11.11 0 010-.1l.15-.22a6.5 6.5 0 01.11-.77 6.14 6.14 0 01-.68.36l-.16.21a.16.16 0 01-.09.05.11.11 0 01-.09-.05 1.18 1.18 0 01-.1-1.4 1.28 1.28 0 011.81-.14 1.29 1.29 0 01.47 1.75 1.08 1.08 0 01-.86.44zm-.24-.24a.93.93 0 001-.32 1.09 1.09 0 00-.41-1.45 1.08 1.08 0 00-1.51.09.94.94 0 000 1l.09-.12a4.28 4.28 0 00.93-.54.12.12 0 01.14 0 .11.11 0 010 .13 3.94 3.94 0 00-.2 1.06.08.08 0 010 .05z" class="cls-2"/></g></g></g></svg>