<svg viewBox="0 0 24 24" fill="currentColor"><path d="M16 15c0-.553-.447-1-1-1s-1 .447-1 1 .447 1 1 1 1-.447 1-1zm-1-4c0-.553-.447-1-1-1h-3c-.553 0-1 .447-1 1s.447 1 1 1h3c.553 0 1-.447 1-1zm1 6c-.553 0-1 .447-1 1s.447 1 1 1 1-.447 1-1-.447-1-1-1zm3-5.91V7c0-.553-.447-1-1-1h-6c.553 0 1-.447 1-1V1c0-.553-.447-1-1-1H6c-.553 0-1 .447-1 1v4c0 .553.447 1 1 1H1c-.553 0-1 .447-1 1v16c0 .553.447 1 1 1h22c.553 0 1-.447 1-1v-6c0-2.973-2.163-5.433-5-5.91zM7 2h4v2H7V2zm4 20H2V8h4v6c0 .553.447 1 1 1 2.209 0 4 1.791 4 4v3zm11 0h-9v-3c0-2.973-2.163-5.433-5-5.91V8h9v4c0 .553.447 1 1 1 2.209 0 4 1.791 4 4v5zm-2-5c-.553 0-1 .447-1 1s.447 1 1 1 1-.447 1-1-.447-1-1-1zm0-2c0-.553-.447-1-1-1s-1 .447-1 1 .447 1 1 1 1-.447 1-1z"/></svg>