<svg viewBox="0 0 24 24" fill="currentColor"><path d="M22.336 16.327S15.017 11.699 13 10.442v-.584c1.723-.446 3-1.997 3-3.858 0-2.209-1.791-4-4-4S8 3.791 8 6c0 .553.447 1 1 1s1-.447 1-1c0-1.104.896-2 2-2s2 .896 2 2-.896 2-2 2c-.553 0-1 .447-1 1v1.442c-2.017 1.257-9.336 5.885-9.336 5.885C.885 16.854 0 17.826 0 19c0 1.657 1.343 3 3 3h18c1.657 0 3-1.343 3-3 0-1.174-.885-2.146-1.664-2.673zM21 20H3c-.553 0-1-.447-1-1 0-.392.227-.727.555-.891 0 0 7.416-4.675 9.445-5.936 2.029 1.261 9.445 5.936 9.445 5.936.328.164.555.499.555.891 0 .553-.447 1-1 1z"/></svg>