<svg viewBox="0 0 24 24" fill="currentColor"><path d="M15 11c.553 0 1-.447 1-1s-.447-1-1-1-1 .447-1 1 .447 1 1 1zm8-6H1c-.553 0-1 .447-1 1v12c0 .553.447 1 1 1h22c.553 0 1-.447 1-1V6c0-.553-.447-1-1-1zm-1 12H2V7h20v10zm-7-2c.276 0 .526-.112.707-.293l4-4c.181-.181.293-.431.293-.707 0-.553-.447-1-1-1-.276 0-.526.112-.707.293l-4 4c-.181.181-.293.431-.293.707 0 .553.447 1 1 1zm4-2c-.553 0-1 .447-1 1s.447 1 1 1 1-.447 1-1-.447-1-1-1zM7 10c.553 0 1-.447 1-1s-.447-1-1-1-1 .447-1 1 .447 1 1 1zm0 6c.553 0 1-.447 1-1s-.447-1-1-1-1 .447-1 1 .447 1 1 1zm0-3c.553 0 1-.447 1-1s-.447-1-1-1-1 .447-1 1 .447 1 1 1z"/></svg>