<svg viewBox="0 0 24 24" fill="currentColor"><path d="M20 15c-.552 0-1 .447-1 1s.448 1 1 1 1-.447 1-1-.448-1-1-1zm-4-2c.552 0 1-.447 1-1s-.448-1-1-1-1 .447-1 1 .448 1 1 1zm0 4c.276 0 .526-.112.707-.293l4-4c.181-.181.293-.431.293-.707 0-.553-.448-1-1-1-.276 0-.526.112-.707.293l-4 4c-.181.181-.293.431-.293.707 0 .553.448 1 1 1zM4 13c.552 0 1-.447 1-1s-.448-1-1-1-1 .447-1 1 .448 1 1 1zm4 0c.552 0 1-.447 1-1s-.448-1-1-1-1 .447-1 1 .448 1 1 1zm15-9H1c-.552 0-1 .447-1 1v14c0 .553.448 1 1 1h22c.552 0 1-.447 1-1V5c0-.553-.448-1-1-1zm-1 14H2v-8h20v8zm0-10H2V6h20v2zM4 17h8c.552 0 1-.447 1-1s-.448-1-1-1H4c-.552 0-1 .447-1 1s.448 1 1 1z"/></svg>