<svg viewBox="0 0 24 24" fill="currentColor"><path d="M18 7c-.537 0-1.034.152-1.471.4C15.998 6.561 15.067 6 14 6c-.771 0-1.469.3-2 .778C11.469 6.3 10.771 6 10 6c-.353 0-.686.072-1 .184V3c0-1.657-1.343-3-3-3S3 1.343 3 3v15c0 3.313 2.687 6 6 6h6c3.313 0 6-2.687 6-6v-8c0-1.657-1.343-3-3-3zm1 11c0 2.209-1.791 4-4 4H9c-2.209 0-4-1.791-4-4V3c0-.553.447-1 1-1s1 .447 1 1v8c0 .553.447 1 1 1s1-.447 1-1V9c0-.553.447-1 1-1s1 .447 1 1v2c0 .553.447 1 1 1s1-.447 1-1V9c0-.553.447-1 1-1s1 .447 1 1v2c0 .553.447 1 1 1s1-.447 1-1v-1c0-.553.447-1 1-1s1 .447 1 1v8z"/></svg>