<svg viewBox="0 0 24 24" fill="currentColor"><path d="M13.293 11.707c.181.181.431.293.707.293s.526-.112.707-.293l4-4C18.888 7.526 19 7.276 19 7c0-.553-.447-1-1-1-.276 0-.526.112-.707.293L15 8.586V1c0-.553-.447-1-1-1s-1 .447-1 1v7.586l-2.293-2.293C10.526 6.112 10.276 6 10 6c-.553 0-1 .447-1 1 0 .276.112.526.293.707l4 4zM7 22c-.553 0-1 .447-1 1s.447 1 1 1 1-.447 1-1-.447-1-1-1zm13.942-6.717l.016.004 3-10-.015-.004C23.971 5.191 24 5.101 24 5c0-.553-.447-1-1-1h-2c-.553 0-1 .447-1 1s.447 1 1 1h.656l-2.4 8H6.633l-1-8H7c.553 0 1-.447 1-1s-.447-1-1-1H5.383L4.992.876l-.016.002C4.913.386 4.509 0 4 0H1C.447 0 0 .447 0 1c0 .552.447 1 1 1h2.117l1.891 15.124.005-.001C5.078 18.722 6.386 20 8 20h12c.552 0 1-.447 1-1s-.448-1-1-1H8c-.553 0-1-.447-1-1l-.008-.124L6.883 16H20c.452 0 .819-.306.942-.717zM19 22c-.553 0-1 .447-1 1s.447 1 1 1 1-.447 1-1-.447-1-1-1z"/></svg>