<svg viewBox="0 0 24 24" fill="currentColor"><path d="M23.707 11.293L21 8.586V4c0-.553-.447-1-1-1h-4.586L12.707.293C12.526.112 12.276 0 12 0s-.526.112-.707.293L8.586 3H4c-.553 0-1 .447-1 1v4.586L.293 11.293C.112 11.474 0 11.724 0 12s.112.526.293.707L3 15.414V20c0 .553.447 1 1 1h4.586l2.707 2.707c.181.181.431.293.707.293s.526-.112.707-.293L15.414 21H20c.553 0 1-.447 1-1v-4.586l2.707-2.707c.181-.181.293-.431.293-.707s-.112-.526-.293-.707zM19.5 14.086l.04.04c-.316.168-.54.49-.54.874v4h-4c-.384 0-.706.224-.874.54l-.04-.04L12 21.586 9.914 19.5l-.04.04C9.706 19.224 9.384 19 9 19H5v-4c0-.384-.224-.706-.54-.874l.04-.04L2.414 12 4.5 9.914l-.04-.04C4.776 9.706 5 9.384 5 9V5h4c.384 0 .706-.224.874-.54l.04.04L12 2.414 14.086 4.5l.04-.04c.168.316.49.54.874.54h4v4c0 .384.224.706.54.874l-.04.04L21.586 12 19.5 14.086z"/></svg>