<svg viewBox="0 0 24 24" fill="currentColor"><path d="M14.006 14h1.999v1c0 .553.448 1 1 1s1-.447 1-1v-1c.552 0 1-.447 1-1s-.448-1-1-1c0-.553-.447-1-1-1-.552 0-1 .447-1 1h-.522l1.443-3.61v-.001l.007-.018-.004-.001c.046-.115.075-.239.075-.37 0-.553-.447-1-1-1-.42 0-.777.262-.925.63l-.003-.001-1.991 4.981v.001l-.007.018.003.001c-.046.115-.075.239-.075.37 0 .553.448 1 1 1zm-7.703.293c-.092.092-.165.202-.216.325-.05.122-.077.252-.077.382s.026.26.077.382c.051.123.124.233.216.325.091.092.202.165.324.216.123.051.252.077.383.077h3.998c.552 0 1-.447 1-1s-.447-1-1-1h-1.66c.881-.929 1.78-1.879 1.78-1.879.542-.543.878-1.293.878-2.121 0-1.657-1.342-3-2.999-3C7.353 7 6.01 8.343 6.01 10h1.999c0-.553.447-1 .999-1s1 .447 1 1c0 .276-.112.526-.292.707-.001 0-3.023 3.195-3.413 3.586zM12.007 0c-.552 0-1 .447-1 1s.448 1 1 1c5.52 0 9.994 4.478 9.994 10s-4.474 10-9.994 10c-.816 0-1.606-.304-2.364-.709l.088-.098c.373-.409.373-1.072 0-1.481l-2.025-.74c-.373-.128-.978-.409-1.35 0l-.549.602c-.501-.389-1.014-.835-1.477-1.343s-.869-1.069-1.224-1.62l.549-.603c.373-.409.123-1.041 0-1.481l-.675-2.222c-.373-.409-.977-.409-1.35 0L.279 13.786C.1 13.983.006 14.24 0 14.5c-.006.276.087.556.279.768 0 0 1.02 2.601 2.701 4.444 1.694 1.859 4.05 2.963 4.05 2.963.34.373.865.389 1.239.081 1.176.677 2.43 1.244 3.738 1.244C18.63 24 24 18.627 24 12S18.63 0 12.007 0z"/></svg>