<svg viewBox="0 0 24 24" fill="currentColor"><path d="M15 9c0-.441-.291-.805-.688-.937l.004-.012-3-1-.004.012C11.213 7.029 11.11 7 11 7c-.553 0-1 .447-1 1v3c0 .553.447 1 1 1s1-.447 1-1l1.2 1.6.014-.01c.182.242.459.41.786.41.553 0 1-.447 1-1 0-.226-.088-.423-.214-.59l.014-.01-1.095-1.46c.095.032.191.06.295.06.553 0 1-.447 1-1zm8.786 9.41l.014-.01-2.8-3.733V5c0-.553-.447-1-1-1H4c-.553 0-1 .447-1 1v9.667L.2 18.4l.014.01C.088 18.577 0 18.774 0 19c0 .553.447 1 1 1h22c.553 0 1-.447 1-1 0-.226-.088-.423-.214-.59zM5 6h14v8H5V6zM3 18l1.5-2h15l1.5 2H3z"/></svg>