<svg viewBox="0 0 24 24" fill="currentColor"><path d="M22 12c-.552 0-1 .447-1 1 0 4.971-4.029 9-9 9-3.484 0-6.499-1.983-7.994-4.879l1.547.773.004-.009c.135.068.282.115.443.115.552 0 1-.447 1-1 0-.391-.23-.721-.557-.886l.004-.009-4-2-.008.015C2.307 14.051 2.163 14 2 14c-.468 0-.843.328-.952.762l-.018-.004-1 4 .018.004C.028 18.84 0 18.916 0 19c0 .553.448 1 1 1 .468 0 .843-.328.952-.762l.018.004.291-1.163C4.094 21.595 7.76 24 12 24c6.075 0 11-4.925 11-11 0-.553-.448-1-1-1zM6.293 14.293c-.092.092-.165.202-.216.325C6.026 14.74 6 14.87 6 15s.026.26.077.382c.051.123.124.233.216.325s.203.165.325.216c.122.051.252.077.382.077h4c.552 0 1-.447 1-1s-.448-1-1-1H9.34c.882-.929 1.781-1.879 1.781-1.879.543-.543.879-1.293.879-2.121 0-1.657-1.343-3-3-3s-3 1.343-3 3h2c0-.553.448-1 1-1s1 .447 1 1c0 .276-.112.526-.293.707 0 0-3.023 3.195-3.414 3.586zM24 5c0-.553-.448-1-1-1-.468 0-.843.328-.952.762l-.018-.004-.291 1.163C19.906 2.405 16.24 0 12 0 5.925 0 1 4.925 1 11c0 .553.448 1 1 1s1-.447 1-1c0-4.971 4.029-9 9-9 3.484 0 6.499 1.983 7.994 4.879l-1.547-.773-.004.009C18.308 6.047 18.161 6 18 6c-.552 0-1 .447-1 1 0 .391.23.721.557.886l-.004.009 4 2 .007-.015c.133.069.277.12.44.12.468 0 .843-.328.952-.762l.018.004 1-4-.018-.004c.02-.079.048-.154.048-.238zm-10 9h2v1c0 .553.448 1 1 1s1-.447 1-1v-1c.552 0 1-.447 1-1s-.448-1-1-1c0-.553-.448-1-1-1s-1 .447-1 1h-.523l1.444-3.61v-.001l.007-.018-.003-.001c.046-.115.075-.239.075-.37 0-.553-.448-1-1-1-.421 0-.778.262-.925.63l-.003-.001-1.993 4.981v.001l-.007.018.003.001c-.046.115-.075.239-.075.37 0 .553.448 1 1 1z"/></svg>