<svg viewBox="0 0 24 24" fill="currentColor"><path d="M17 10c.553 0 1-.447 1-1s-.447-1-1-1-1 .447-1 1 .447 1 1 1zm0-4c.553 0 1-.447 1-1s-.447-1-1-1-1 .447-1 1 .447 1 1 1zm-3 10c-.553 0-1 .447-1 1s.447 1 1 1 1-.447 1-1-.447-1-1-1zm3 0c-.553 0-1 .447-1 1s.447 1 1 1 1-.447 1-1-.447-1-1-1zm-7 0c-.553 0-1 .447-1 1s.447 1 1 1 1-.447 1-1-.447-1-1-1zM7 6h6c.553 0 1-.447 1-1s-.447-1-1-1H7c-.553 0-1 .447-1 1s.447 1 1 1zm13-6H4c-.553 0-1 .447-1 1v22c0 .553.447 1 1 1 .276 0 .526-.112.707-.293L6 22.414l1.293 1.293c.181.181.431.293.707.293s.526-.112.707-.293L10 22.414l1.293 1.293c.181.181.431.293.707.293s.526-.112.707-.293L14 22.414l1.293 1.293c.181.181.431.293.707.293s.526-.112.707-.293L18 22.414l1.293 1.293c.181.181.431.293.707.293.553 0 1-.447 1-1V1c0-.553-.447-1-1-1zm-1 20.586l-.293-.293C18.526 20.112 18.276 20 18 20s-.526.112-.707.293L16 21.586l-1.293-1.293C14.526 20.112 14.276 20 14 20s-.526.112-.707.293L12 21.586l-1.293-1.293C10.526 20.112 10.276 20 10 20s-.526.112-.707.293L8 21.586l-1.293-1.293C6.526 20.112 6.276 20 6 20s-.526.112-.707.293L5 20.586V2h14v18.586zM7 18c.553 0 1-.447 1-1s-.447-1-1-1-1 .447-1 1 .447 1 1 1zm0-8h4c.553 0 1-.447 1-1s-.447-1-1-1H7c-.553 0-1 .447-1 1s.447 1 1 1zm0 4h10c.553 0 1-.447 1-1s-.447-1-1-1H7c-.553 0-1 .447-1 1s.447 1 1 1z"/></svg>