<svg viewBox="0 0 24 24" fill="currentColor"><path d="M12 20c.553 0 1-.447 1-1v-4c0-.553-.447-1-1-1s-1 .447-1 1v4c0 .553.447 1 1 1zm4 0c.553 0 1-.447 1-1v-4c0-.553-.447-1-1-1s-1 .447-1 1v4c0 .553.447 1 1 1zm-8 0c.553 0 1-.447 1-1v-4c0-.553-.447-1-1-1s-1 .447-1 1v4c0 .553.447 1 1 1zm15-10h-3.256L15.958.713l-.015.004C15.819.306 15.452 0 15 0c-.553 0-1 .447-1 1 0 .101.029.191.057.283l-.015.004L17.656 10H6.344l3.614-8.713-.015-.004C9.971 1.191 10 1.101 10 1c0-.553-.447-1-1-1-.452 0-.819.306-.943.717L8.042.713 4.256 10H1c-.553 0-1 .447-1 1s.447 1 1 1h.153L3.01 23.142l.019-.003c.07.483.468.861.971.861h16c.503 0 .901-.378.972-.861l.019.003L22.847 12H23c.553 0 1-.447 1-1s-.447-1-1-1zm-3.847 12H4.847L3.18 12h17.64l-1.667 10z"/></svg>