<svg viewBox="0 0 24 24" fill="currentColor"><path d="M7 22c-.553 0-1 .447-1 1s.447 1 1 1 1-.447 1-1-.447-1-1-1zm13.943-6.717l.015.004 3-10-.015-.004C23.971 5.191 24 5.101 24 5c0-.553-.447-1-1-1H5.383L4.992.876l-.016.002C4.913.386 4.509 0 4 0H1C.447 0 0 .447 0 1s.447 1 1 1h2.117l1.891 15.124.005-.001C5.078 18.722 6.386 20 8 20h12c.553 0 1-.447 1-1s-.447-1-1-1H8c-.553 0-1-.447-1-1l-.008-.124L6.883 16H20c.452 0 .819-.306.943-.717zM6.633 14l-1-8h16.023l-2.4 8H6.633zM19 22c-.553 0-1 .447-1 1s.447 1 1 1 1-.447 1-1-.447-1-1-1z"/></svg>