<svg viewBox="0 0 24 24" fill="currentColor"><path d="M22.925 7.63l.003-.001-.007-.018V7.61L21 2.808V1c0-.553-.448-1-1-1H4c-.552 0-1 .447-1 1v1.808L1.079 7.61v.001l-.008.018.004.001C1.029 7.745 1 7.869 1 8v1c0 1.305.837 2.403 2 2.816V23c0 .553.448 1 1 1h16c.552 0 1-.447 1-1V11.816c1.163-.413 2-1.512 2-2.816V8c0-.131-.029-.255-.075-.37zM20.523 7h-1.742l-.5-2h1.442l.8 2zM5 2h14v1H5V2zm12 7c0 .553-.448 1-1 1s-1-.447-1-1h2zm-2-2V5h1.219l.5 2H15zm-4 0V5h2v2h-2zm2 2c0 .553-.448 1-1 1s-1-.447-1-1h2zM7.281 7l.5-2H9v2H7.281zM9 9c0 .553-.448 1-1 1s-1-.447-1-1h2zM4.277 5h1.442l-.5 2H3.477l.8-2zM4 10c-.552 0-1-.447-1-1h2c0 .553-.448 1-1 1zm15 12h-1v-7h-4v7H5V11.816c.372-.135.711-.335 1-.595.532.479 1.228.779 2 .779s1.468-.3 2-.778c.532.478 1.228.778 2 .778s1.468-.3 2-.778c.532.478 1.228.778 2 .778s1.468-.3 2-.778c.289.26.628.46 1 .595V22zm1-12c-.552 0-1-.447-1-1h2c0 .553-.448 1-1 1zM6 20h6v-4H6v4z"/></svg>