<svg viewBox="0 0 24 24" fill="currentColor"><path d="M9 16c-.276 0-.526.112-.707.293L7 17.586l-.293-.293C6.526 17.112 6.276 17 6 17c-.553 0-1 .447-1 1 0 .276.112.526.293.707l1 1c.181.181.431.293.707.293s.526-.112.707-.293l2-2c.181-.181.293-.431.293-.707 0-.553-.447-1-1-1zM21 2h-2V1c0-.553-.447-1-1-1s-1 .447-1 1v1h-2V1c0-.553-.447-1-1-1s-1 .447-1 1v1h-2V1c0-.553-.447-1-1-1S9 .447 9 1v1H7V1c0-.553-.447-1-1-1S5 .447 5 1v1H3c-.553 0-1 .447-1 1v20c0 .553.447 1 1 1h18c.553 0 1-.447 1-1V3c0-.553-.447-1-1-1zm-1 20H4V4h1v1c0 .553.447 1 1 1s1-.447 1-1V4h2v1c0 .553.447 1 1 1s1-.447 1-1V4h2v1c0 .553.447 1 1 1s1-.447 1-1V4h2v1c0 .553.447 1 1 1s1-.447 1-1V4h1v18zM9 10c-.276 0-.526.112-.707.293L7 11.586l-.293-.293C6.526 11.112 6.276 11 6 11c-.553 0-1 .447-1 1 0 .276.112.526.293.707l1 1c.181.181.431.293.707.293s.526-.112.707-.293l2-2c.181-.181.293-.431.293-.707 0-.553-.447-1-1-1zm9 1h-6c-.553 0-1 .447-1 1s.447 1 1 1h6c.553 0 1-.447 1-1s-.447-1-1-1zm0 6h-6c-.553 0-1 .447-1 1s.447 1 1 1h6c.553 0 1-.447 1-1s-.447-1-1-1z"/></svg>