<svg viewBox="0 0 24 24" fill="currentColor"><path d="M10 0c-.552 0-1 .447-1 1v22c0 .553.448 1 1 1s1-.447 1-1V1c0-.553-.448-1-1-1zM2 6c-.552 0-1 .447-1 1v16c0 .553.448 1 1 1s1-.447 1-1V7c0-.553-.448-1-1-1zm4 6c-.552 0-1 .447-1 1v10c0 .553.448 1 1 1s1-.447 1-1V13c0-.553-.448-1-1-1zm16-2c-.552 0-1 .447-1 1v12c0 .553.448 1 1 1s1-.447 1-1V11c0-.553-.448-1-1-1zm-4-4c-.552 0-1 .447-1 1v16c0 .553.448 1 1 1s1-.447 1-1V7c0-.553-.448-1-1-1zm-4 4c-.552 0-1 .447-1 1v12c0 .553.448 1 1 1s1-.447 1-1V11c0-.553-.448-1-1-1z"/></svg>