<svg viewBox="0 0 24 24" fill="currentColor"><path d="M22 10.184V10c0-5.522-4.477-10-10-10S2 4.478 2 10v.184C.837 10.597 0 11.695 0 13v2c0 1.657 1.343 3 3 3s3-1.343 3-3v-2c0-1.305-.837-2.403-2-2.816V10c0-4.418 3.582-8 8-8s8 3.582 8 8v.184c-1.163.413-2 1.512-2 2.816v2c0 1.305.837 2.403 2 2.816V19c0 .553-.448 1-1 1h-1.184c-.414-1.162-1.512-2-2.816-2h-2c-1.657 0-3 1.343-3 3s1.343 3 3 3h2c1.304 0 2.403-.838 2.816-2H19c1.657 0 3-1.343 3-3v-1.184c1.163-.413 2-1.512 2-2.816v-2c0-1.305-.837-2.403-2-2.816zM4 15c0 .552-.448 1-1 1s-1-.448-1-1v-2c0-.553.448-1 1-1s1 .447 1 1v2zm11 7h-2c-.552 0-1-.447-1-1s.448-1 1-1h2c.552 0 1 .447 1 1s-.448 1-1 1zm7-7c0 .552-.448 1-1 1s-1-.448-1-1v-2c0-.553.448-1 1-1s1 .447 1 1v2z"/></svg>