<svg viewBox="0 0 24 24" fill="currentColor"><path d="M6.104 0L.812 1.018l.003.02C.354 1.127 0 1.514 0 2v21c0 .553.447 1 1 1s1-.447 1-1V2.826L16.695 0H6.104zM22.84 4.629S20.325 3.727 19 3.275V2c0-.553-.447-1-1-1s-1 .447-1 1v2c0 .023.012.044.014.067.005.07.021.134.04.2.018.061.032.119.061.174.028.058.066.106.105.157s.076.101.124.143c.047.041.099.071.152.104.06.035.117.067.184.091.022.008.038.024.062.03.533.143 3.685 1.077 3.685 1.077.492.243.573.556.573.957 0 .553-.447 1-1 1h-2c0-1.172-.492-2.078-1.16-2.371 0 0-2.515-.902-3.84-1.354V3c0-.553-.447-1-1-1s-1 .447-1 1v2c0 .023.012.044.014.067.005.07.021.134.04.2.018.061.032.119.061.174.028.058.066.106.105.157s.076.101.124.143c.047.041.099.071.152.104.06.035.117.067.184.091.022.008.038.024.062.03.533.143 3.685 1.077 3.685 1.077.492.243.573.556.573.957 0 .553-.447 1-1 1h-2c0-1.172-.492-2.078-1.16-2.371 0 0-2.515-.902-3.84-1.354V4c0-.553-.447-1-1-1s-1 .447-1 1v2c0 .023.012.044.014.067.005.07.021.134.04.2.018.061.032.119.061.174.028.058.066.107.105.158s.076.101.124.143c.047.041.099.071.152.104.06.034.117.066.184.09.022.008.038.024.062.03.533.143 3.685 1.077 3.685 1.077.492.243.573.556.573.957 0 .553-.447 1-1 1H5c-.553 0-1 .447-1 1v10c0 .553.447 1 1 1h6c.553 0 1-.447 1-1h4c.553 0 1-.447 1-1h4c.553 0 1-.447 1-1V9.816c1.162-.413 2-1.511 2-2.816 0-1.172-.492-2.078-1.16-2.371zM10 20H6v-8h4v8zm5-1h-3v-7.184c.465-.165.854-.463 1.183-.816H15v8zm5-1h-3v-7.184c.465-.165.854-.463 1.183-.816H20v8z"/></svg>