<svg viewBox="0 0 24 24" fill="currentColor"><path d="M23.707 3.293l-3-3C20.526.112 20.276 0 20 0s-.526.112-.707.293L8 11.586V10c0-.553-.447-1-1-1H3c-.553 0-1 .447-1 1v2c0 1.528 1.146 2.775 2.624 2.962l-2.331 2.331.009.009c-.095.095-.177.201-.228.328l-.003-.001-2 5 .008.003C.033 22.747 0 22.868 0 23c0 .553.447 1 1 1 .131 0 .255-.028.37-.075l.001.004.018-.007.001-.001 4.981-1.992-.001-.004c.126-.05.233-.133.328-.227l.009.009 17-17C23.888 4.526 24 4.276 24 4s-.112-.526-.293-.707zM4 12v-1h2v1c0 .553-.447 1-1 1s-1-.447-1-1zm-1.205 9.205l.856-2.14 1.283 1.283-2.139.857zM6.5 19.086L4.914 17.5 20 2.414 21.586 4 6.5 19.086zM3 8h4c.553 0 1-.447 1-1s-.447-1-1-1H3c-.553 0-1 .447-1 1s.447 1 1 1z"/></svg>