<svg viewBox="0 0 24 24" fill="currentColor"><path d="M16 0s-1.977 1.268-4 2.155V1c0-.553-.447-1-1-1H8c-.553 0-1 .447-1 1v2c0 .005.003.01.003.015-1.19.02-1.374.056-1.374.056l.001.003C5.262 3.223 5 3.579 5 4v4c0 .421.262.777.63.925l-.001.004s.298.033 1.374.055c0 .005-.003.01-.003.016v14c0 .552.447 1 1 1h3c.553 0 1-.448 1-1V9.804c2.054.888 4 2.196 4 2.196.94 0 3-2.134 3-6s-1.997-6-3-6zM9 2h1v.863C9.639 2.949 9.3 3 9 3V2zm1 20H9V9c.309 0 .646.046 1 .123V22zm6-12s-4.01-3-6-3H7V5h3c1.958 0 6-3 6-3 .696.696 1 2.293 1 4 0 1.78-.211 3.211-1 4z"/></svg>