<svg viewBox="0 0 24 24" fill="currentColor"><path d="M23 15.994h-7.126l6.611-3.817c.487-.281.654-.905.373-1.393L19.8 5.486c-.281-.488-.905-.655-1.392-.374L15.63 6.717l1.238-2.151c.282-.488.115-1.113-.372-1.396L11.203.106c-.171-.099-.36-.111-.545-.104-.339.012-.665.162-.846.478L1.499 14.92c-.129.127-.239.397-.339.497L.04 19.595c-.051.193-.04.436-.04.402 0 .275.112.526.293.707l3 3.002c.182.181.431.294.708.294H23c.552 0 1-.446 1-1.001v-6.004c0-.554-.448-1.001-1-1.001zm-4.456-8.606l2.039 3.531-1.765 1.021-2.039-3.532 1.765-1.02zm-7.478-5.002l3.529 2.043-1.02 1.769-3.528-2.042 1.019-1.77zM9.028 5.925l3.529 2.043-.451.783-1.137.656-2.96-1.713 1.019-1.769zM6.991 9.463l1.938 1.123-2.04 1.178-.917-.531 1.019-1.77zm-2.99 6.324l3.95-2.281 1.436 2.488H4.001v-.207zM10 21.999H4.415l-2-2.001 2-2.002H10v4.003zm1.742-6.005l-2.025-3.508 1.766-1.019 2.039 3.532-1.725.995h-.055zM14 21.999h-2v-4.003h2v4.003zm-.752-11.552l1.766-1.02 2.039 3.532-1.766 1.02-2.039-3.532zM18 21.999h-2v-4.003h2v4.003zm4 0h-2v-4.003h2v4.003z"/></svg>