<svg viewBox="0 0 24 24" fill="currentColor"><path d="M21.904 22.574L14.447 6.727C14.793 6.237 15 5.645 15 5V3c0-.553-.447-1-1-1h-1V1c0-.553-.447-1-1-1s-1 .447-1 1v1h-1c-.553 0-1 .447-1 1v2c0 .645.207 1.237.553 1.727L2.095 22.574l.007.003C2.04 22.706 2 22.848 2 23c0 .553.447 1 1 1 .399 0 .738-.238.898-.577l.006.003 7.314-15.542c.251.068.51.116.782.116s.53-.048.781-.116l7.313 15.542.007-.003c.161.339.5.577.899.577.553 0 1-.447 1-1 0-.152-.04-.294-.102-.423l.006-.003zM13 5c0 .552-.447 1-1 1s-1-.448-1-1V4h2v1zm1 10h-4c-.553 0-1 .447-1 1s.447 1 1 1h4c.553 0 1-.447 1-1s-.447-1-1-1zM4 16c0-.553-.448-1-1-1H1c-.553 0-1 .447-1 1s.447 1 1 1h2c.552 0 1-.447 1-1zm19-1h-2c-.553 0-1 .447-1 1s.447 1 1 1h2c.553 0 1-.447 1-1s-.447-1-1-1z"/></svg>