<svg viewBox="0 0 24 24" fill="currentColor"><path d="M19 0H5C3.343 0 2 1.343 2 3s1.343 3 3 3h6v4.184c-1.162.413-2 1.511-2 2.816 0 .771.3 1.469.778 2C9.3 15.531 9 16.229 9 17s.3 1.469.778 2C9.3 19.531 9 20.229 9 21c0 1.657 1.343 3 3 3 .553 0 1-.447 1-1s-.447-1-1-1-1-.447-1-1 .447-1 1-1 1-.447 1-1-.447-1-1-1-1-.447-1-1 .447-1 1-1 1-.447 1-1-.447-1-1-1-1-.447-1-1 .447-1 1-1 1-.447 1-1V6h6c1.657 0 3-1.343 3-3s-1.343-3-3-3zm0 4H5c-.553 0-1-.447-1-1s.447-1 1-1h14c.553 0 1 .447 1 1s-.447 1-1 1z"/></svg>