<svg viewBox="0 0 24 24" fill="currentColor"><path d="M23 22h-4.586l-5-5 4.293-4.293c.181-.181.293-.431.293-.707s-.112-.526-.293-.707L13.414 7 15.5 4.914l2.793 2.793c.181.181.431.293.707.293h4c.553 0 1-.447 1-1s-.447-1-1-1h-3.586l-2.5-2.5 1.5-1.5H20c.553 0 1-.447 1-1s-.447-1-1-1H4c-.553 0-1 .447-1 1s.447 1 1 1h1.586l5 5-4.293 4.293C6.112 11.474 6 11.724 6 12s.112.526.293.707L10.586 17l-5 5H1c-.553 0-1 .447-1 1s.447 1 1 1h22c.553 0 1-.447 1-1s-.447-1-1-1zM8.414 2h4.172l1.5 1.5L12 5.586 8.414 2zm0 10L12 8.414 15.586 12 12 15.586 8.414 12zm0 10L12 18.414 15.586 22H8.414z"/></svg>