<svg viewBox="0 0 24 24" fill="currentColor"><path d="M17 8h-1c0-.391-.23-.721-.558-.886l.005-.009-2-1-.005.009C13.308 6.047 13.161 6 13 6c0-.553-.447-1-1-1H1c-.553 0-1 .447-1 1v6c0 .553.447 1 1 1h1v5c0 .553.447 1 1 1s1-.447 1-1v-2h2c.347 0 .638-.188.816-.455l.016.01L8.535 13H12c.553 0 1-.447 1-1 .161 0 .308-.047.442-.114l.005.009 2-1-.005-.009c.328-.165.558-.495.558-.886h1c.553 0 1-.447 1-1s-.447-1-1-1zM5.465 14H4v-1h2.132l-.667 1zM11 11H2V7h9v4zm3-1.618l-1 .5V8.118l1 .5v.764zM23 8c-.553 0-1 .447-1 1s.447 1 1 1 1-.447 1-1-.447-1-1-1zm-3 0c-.553 0-1 .447-1 1s.447 1 1 1 1-.447 1-1-.447-1-1-1z"/></svg>