<svg viewBox="0 0 24 24" fill="currentColor"><path d="M24 4c0-1.057-.393-2.053-1.186-2.846C22.045.386 21.008.007 20 0c-1.025-.007-2.021.373-2.803 1.154l-3.314 3.314-1.176-1.176C12.526 3.112 12.276 3 12 3c-.553 0-1 .447-1 1 0 .276.112.526.293.707l1.176 1.176-9.314 9.314c-1.311 1.311-1.5 3.305-.595 4.829L.293 22.293C.112 22.474 0 22.724 0 23c0 .553.447 1 1 1 .276 0 .526-.112.707-.293l2.276-2.276c1.519.879 3.489.683 4.788-.616l9.314-9.314 1.207 1.207c.182.18.432.292.708.292.553 0 1-.447 1-1 0-.276-.112-.526-.293-.707L19.5 10.086l3.314-3.314C23.572 6.014 24 4.994 24 4zM7.367 19.41c-.775.775-2.032.775-2.809 0-.775-.775-.775-2.033 0-2.809l3.314-3.314 2.809 2.809-3.314 3.314zm4.729-4.728l-2.809-2.809 4.586-4.586 2.809 2.809-4.586 4.586zm9.314-9.315l-3.314 3.314-2.809-2.809 3.314-3.314c.775-.775 2.033-.775 2.809 0 .776.777.776 2.034 0 2.809z"/></svg>