<svg viewBox="0 0 24 24" fill="currentColor"><path d="M23.996 5.981c-.006-.447-.281-.856-.724-.978 0 0-3.792-1.345-8.272-1.83V2c0-.553-.447-1-1-1h-1c0-.553-.447-1-1-1s-1 .447-1 1h-1c-.553 0-1 .447-1 1v1.17C4.528 3.649.727 4.986.727 4.986c-.454.124-.732.548-.725 1.006C.002 5.995 0 5.997 0 6c0 .006.003.01.003.016C.003 6.526.545 7 1 7c.457.006 4.752-1.252 8-1.817V6c0 .553.447 1 1 1h1v16c0 .552.447 1 1 1s1-.448 1-1V7h1c.553 0 1-.447 1-1v-.812c4.21.493 7.755 1.794 7.755 1.794.076.021.152.013.229.016.005-.001.01.002.016.002.003 0 .006-.002.009-.002.561 0 .984-.47.984-.963 0-.012.007-.022.007-.035 0-.007-.004-.013-.004-.019zM13 5h-2V3h2v2z"/></svg>