<svg viewBox="0 0 24 24" fill="currentColor"><path d="M13.919 7.607c-.115-.271-.352-.465-.636-.551-.075-.027-.15-.054-.229-.063l1.874-5.622-.003-.001c.047-.115.075-.239.075-.37 0-.553-.447-1-1-1-.421 0-.778.262-.926.63l-.003-.001L12 3.843 10.929.629l-.004.001C10.777.262 10.421 0 10 0c-.553 0-1 .447-1 1 0 .131.028.255.074.37l-.003.001 1.874 5.622c-.078.01-.153.036-.229.063-.284.086-.521.28-.636.551C7.32 10.721 6 14.455 6 22.998 6 23.552 6.447 24 7 24s1-.448 1-1.002C8 15.537 9.398 11.429 11.491 9h1.018C14.602 11.429 16 15.537 16 22.998c0 .554.447 1.002 1 1.002s1-.448 1-1.002c0-8.543-1.32-12.277-4.081-15.391z"/></svg>