<svg viewBox="0 0 24 24" fill="currentColor"><path d="M22.861 5.504c-.276-.482-.889-.647-1.368-.369L13 10.07V1c0-.553-.448-1-1-1s-1 .447-1 1v10.232l-2.996 1.741c.002-.688-.154-1.387-.521-2.025C6.734 9.642 5.399 8.984 4 9c-.666.007-1.371.113-1.988.473C.717 10.225-.011 11.596 0 13c.005.674.188 1.354.546 1.979 1.106 1.929 3.556 2.589 5.472 1.476L11 13.56V20c0 2.209 1.791 4 4 4s4-1.791 4-4-1.791-4-4-4c-.732 0-1.41.211-2 .555v-4.157l9.494-5.517c.314-.183.498-.541.506-.881.004-.179-.043-.33-.139-.496zM5.016 14.71c-.958.557-2.183.226-2.736-.738-.553-.964-.225-2.197.733-2.754.958-.557 2.183-.226 2.736.738.553.964.225 2.197-.733 2.754zM15 18c1.104 0 2 .896 2 2s-.896 2-2 2-2-.896-2-2 .896-2 2-2z"/></svg>