<svg viewBox="0 0 24 24" fill="currentColor"><path d="M24 2c0-.276-.112-.526-.293-.707l-1-1C22.526.112 22.276 0 22 0c-.205 0-.386.077-.545.184l-.01-.016-3 2 .01.016C18.188 2.362 18 2.653 18 3c0 .276.112.526.293.707l.293.293-6.086 6.086-.793-.793C11.526 9.112 11.276 9 11 9s-.526.112-.707.293l-10 10C.112 19.474 0 19.724 0 20s.112.526.293.707l3 3c.181.181.431.293.707.293s.526-.112.707-.293l10-10c.181-.181.293-.431.293-.707s-.112-.526-.293-.707l-.793-.793L20 5.414l.293.293c.181.181.431.293.707.293.347 0 .638-.188.816-.455l.016.01 2-3-.016-.01c.107-.159.184-.34.184-.545zM4 21.586L2.414 20 11 11.414 12.586 13 4 21.586z"/></svg>