<svg viewBox="0 0 24.003 24" fill="currentColor"><path d="M23.717 3.095L20.908.286C20.655.033 20.403 0 20.003 0c-.178 0-.364.15-.499.286L13.29 6.499c-.388.388-.388 1.017 0 1.405l.739.738-1.75 1.666c-1.806-1.346-4.502-2.045-6.504-.043C3.748 12.293.13 20.328.003 23c-.018.368.044.704.17.83.124.124.501.172.83.17 2.613-.013 10.686-3.724 12.734-5.772 2.005-2.005 1.319-4.688-.043-6.505l1.666-1.749.738.739c.389.388 1.017.388 1.405 0l6.213-6.214c.137-.135.287-.321.287-.499 0-.324-.033-.652-.286-.905zM11.649 17.531c-1.154 1.153-8.924 4.432-9.267 4.089-.368-.368 2.936-8.112 4.089-9.267 1.307-1.307 2.962-1.503 4.383-.619l-1.559 1.559c-.18.181-.292.431-.292.707 0 .553.447 1 1 1 .276 0 .526-.112.707-.293l1.563-1.563c.905 1.428.707 3.056-.624 4.387zm5.153-8.925l-1.405-1.405 4.81-4.809 1.404 1.404-4.809 4.81z"/></svg>