<svg viewBox="0 0 24 24" fill="currentColor"><path d="M16.98 22.804l-.9-4.5C17.219 16.683 18 14.421 18 12c0-3.774-5-9.011-5-11 0-.553-.447-1-1-1s-1 .447-1 1c0 2.037-5 7.134-5 11 0 2.476.778 4.705 1.914 6.332l-.894 4.472.02.004c-.015.064-.04.124-.04.192 0 .553.447 1 1 1 .484 0 .869-.351.961-.808l.02.004L9.819 19h4.36l.84 4.196.02-.004c.092.457.477.808.961.808.553 0 1-.447 1-1 0-.068-.025-.128-.039-.192l.019-.004zM14.506 17H9.5C8.579 15.741 8 13.99 8 12c0-.957.484-2.149 1.111-3.33.27 2.223 1.084 3.915 2.38 5.224 0 0 .892.362 1.392-.484.387-.655-.4-1.425-.4-1.425C11.516 10.72 11 9.047 11 7c0-.908.437-2.015 1.018-3.148C12.202 4.746 16 9.369 16 12c0 1.938-.577 3.765-1.494 5z"/></svg>