<svg viewBox="0 0 24 24" fill="currentColor"><path d="M16.832 9.445L15 6.697V5c0-.553-.448-1-1-1h-4c-.552 0-1 .447-1 1v1.697L7.168 9.445l.015.01C7.077 9.614 7 9.795 7 10v13c0 .553.448 1 1 1h8c.552 0 1-.447 1-1V10c0-.205-.077-.386-.183-.545l.015-.01zm-6-1.89l-.015-.01c.106-.159.183-.34.183-.545V6h2v1c0 .205.077.386.183.545l-.015.01L14.131 9H9.869l.963-1.445zM15 18h-2v-3h2v3zm0-5h-3c-.552 0-1 .447-1 1v5c0 .553.448 1 1 1h3v2H9V11h6v2zm3-10c.276 0 .526-.112.707-.293l1-1C19.888 1.526 20 1.276 20 1c0-.553-.448-1-1-1-.276 0-.526.112-.707.293l-1 1C17.112 1.474 17 1.724 17 2c0 .553.448 1 1 1zm3 1h-2c-.552 0-1 .447-1 1s.448 1 1 1h2c.552 0 1-.447 1-1s-.448-1-1-1zm-2.293 3.293C18.526 7.112 18.276 7 18 7c-.552 0-1 .447-1 1 0 .276.112.526.293.707l1 1c.181.181.431.293.707.293.552 0 1-.447 1-1 0-.276-.112-.526-.293-.707l-1-1z"/></svg>