<svg viewBox="0 0 24 24" fill="currentColor"><path d="M23 0c-.276 0-.526.112-.707.293l-2.854 2.854-14.81 5.924.004.011c-.224.093-.409.259-.519.476l-.009-.005-4 8 .009.005C.047 17.692 0 17.839 0 18c0 .553.447 1 1 1 .391 0 .721-.23.886-.558l.009.005 3.83-7.66 12.48-4.992-4.992 12.48-7.66 3.83.005.009C5.23 22.279 5 22.609 5 23c0 .553.447 1 1 1 .161 0 .308-.047.442-.114l.005.009 8-4-.005-.009c.217-.109.383-.295.476-.519l.011.004 5.924-14.81 2.854-2.854C23.888 1.526 24 1.276 24 1c0-.553-.447-1-1-1z"/></svg>