<svg viewBox="0 0 24 24" fill="currentColor"><path d="M24 11V1c0-.553-.447-1-1-1H13c-.553 0-1 .447-1 1H3c-.276 0-.526.112-.707.293l-2 2C.112 3.474 0 3.724 0 4s.112.526.293.707l2 2C2.474 6.888 2.724 7 3 7h9c0 .553.447 1 1 1 1.657 0 3 1.343 3 3 0 .553.447 1 1 1v2c-.553 0-1 .447-1 1s.447 1 1 1v2c-.553 0-1 .447-1 1s.447 1 1 1v3c0 .553.447 1 1 1s1-.447 1-1v-3c.553 0 1-.447 1-1s-.447-1-1-1v-2c.553 0 1-.447 1-1s-.447-1-1-1v-2h2v11c0 .553.447 1 1 1s1-.447 1-1v-3c.553 0 1-.447 1-1s-.447-1-1-1v-2c.553 0 1-.447 1-1s-.447-1-1-1v-2c.553 0 1-.447 1-1zM4 5h-.586l-1-1 1-1H4v2zm4 0H6V3h2v2zm4 0h-2V3h2v2zm10 5h-4.109C17.492 8.043 15.958 6.498 14 6.101V2h8v8z"/></svg>