<svg viewBox="0 0 24 24" fill="currentColor"><path d="M23 0H1C.447 0 0 .447 0 1v22c0 .553.447 1 1 1h22c.553 0 1-.447 1-1V1c0-.553-.447-1-1-1zm-1 11h-4.277c-.347-.596-.984-1-1.723-1-1.104 0-2 .896-2 2s.896 2 2 2c.738 0 1.376-.404 1.723-1H22v9H2v-7h6v1.277c-.596.347-1 .985-1 1.723 0 1.104.896 2 2 2s2-.896 2-2c0-.738-.404-1.376-1-1.723V14c0-.553-.447-1-1-1H2V6h3.586l1.488 1.488C7.03 7.652 7 7.822 7 8c0 1.104.896 2 2 2s2-.896 2-2-.896-2-2-2c-.178 0-.348.03-.512.074L6.707 4.293C6.526 4.112 6.276 4 6 4H2V2h20v9z"/></svg>