<svg viewBox="0 0 24 24" fill="currentColor"><path d="M7 10c0-.553-.448-1-1-1s-1 .447-1 1c-.552 0-1 .447-1 1s.448 1 1 1c0 .553.448 1 1 1s1-.447 1-1c.552 0 1-.447 1-1s-.448-1-1-1zm10 1c-.552 0-1 .447-1 1s.448 1 1 1 1-.447 1-1-.448-1-1-1zm2-4.975V6H5v.025c-2.803.253-5 2.606-5 5.475C0 14.537 2.462 17 5.5 17c1.708 0 3.234-.778 4.243-2h4.515c1.009 1.222 2.535 2 4.243 2 3.038 0 5.5-2.463 5.5-5.5C24 8.631 21.803 6.278 19 6.025zM18.5 15c-1.394 0-2.587-.821-3.15-2h-6.7c-.563 1.179-1.757 2-3.15 2C3.567 15 2 13.433 2 11.5S3.567 8 5.5 8h13c1.933 0 3.5 1.567 3.5 3.5S20.433 15 18.5 15zm.5-6c-.552 0-1 .447-1 1s.448 1 1 1 1-.447 1-1-.448-1-1-1z"/></svg>