<svg viewBox="0 0 24 24" fill="currentColor"><path d="M6 8c0-.553-.447-1-1-1s-1 .447-1 1c-.553 0-1 .447-1 1s.447 1 1 1c0 .553.447 1 1 1s1-.447 1-1c.553 0 1-.447 1-1s-.447-1-1-1zm13-4c-1.631 0-3.064.792-3.978 2H8.978C8.064 4.792 6.631 4 5 4 2.238 4 0 6.238 0 9v4.5C0 17.09 2.067 20 4 20c2.435 0 5.391-2.375 6-6 0 0 .521-1 2-1 1.396 0 2 1 2 1 .5 3.516 3.565 6 6 6 1.933 0 4-2.91 4-6.5V9c0-2.762-2.238-5-5-5zm3 8.5c0 3.037-1.114 5.5-2 5.5-1.511 0-4-1.963-4-5 0-.553-.734-.859-1-1 0 0-1.563-1-3-1s-3 1-3 1c-.328.172-1 .447-1 1 0 3.037-2.489 5-4 5-1.026 0-2-2.463-2-5.5V9c0-1.657 1.343-3 3-3 1.305 0 2.403.838 2.816 2h8.367c.414-1.162 1.512-2 2.817-2 1.657 0 3 1.343 3 3v3.5zM19 8c-.553 0-1 .447-1 1s.447 1 1 1 1-.447 1-1-.447-1-1-1z"/></svg>