<svg viewBox="0 0 24 24" fill="currentColor"><path d="M13 14c.553 0 1-.447 1-1s-.447-1-1-1-1 .447-1 1 .447 1 1 1zm4 0c.553 0 1-.447 1-1s-.447-1-1-1-1 .447-1 1 .447 1 1 1zm-2 3c.553 0 1-.447 1-1s-.447-1-1-1-1 .447-1 1 .447 1 1 1zm4 0c.553 0 1-.447 1-1s-.447-1-1-1-1 .447-1 1 .447 1 1 1zm-2.5 1h-9c-.276 0-.5.224-.5.5s.224.5.5.5h9c.276 0 .5-.224.5-.5s-.224-.5-.5-.5zM5 14c.553 0 1-.447 1-1s-.447-1-1-1-1 .447-1 1 .447 1 1 1zm18-6H6V6c0-.553.447-1 1-1h9c.553 0 1-.447 1-1V3c0-.553-.447-1-1-1s-1 .447-1 1H7C5.343 3 4 4.343 4 6v2H1c-.553 0-1 .447-1 1v12c0 .553.447 1 1 1h22c.553 0 1-.447 1-1V9c0-.553-.447-1-1-1zm-1 12H2V10h20v10zm-11-3c.553 0 1-.447 1-1s-.447-1-1-1-1 .447-1 1 .447 1 1 1zm-2-3c.553 0 1-.447 1-1s-.447-1-1-1-1 .447-1 1 .447 1 1 1zm-2 3c.553 0 1-.447 1-1s-.447-1-1-1-1 .447-1 1 .447 1 1 1z"/></svg>