<svg viewBox="0 0 24 24" fill="currentColor"><path d="M23 18h-1v-6c0-.553-.447-1-1-1h-8V6h1c.553 0 1-.447 1-1V1c0-.553-.447-1-1-1h-4c-.553 0-1 .447-1 1v4c0 .553.447 1 1 1h1v5H3c-.553 0-1 .447-1 1v6H1c-.553 0-1 .447-1 1v4c0 .553.447 1 1 1h4c.553 0 1-.447 1-1v-4c0-.553-.447-1-1-1H4v-5h7v5h-1c-.553 0-1 .447-1 1v4c0 .553.447 1 1 1h4c.553 0 1-.447 1-1v-4c0-.553-.447-1-1-1h-1v-5h7v5h-1c-.553 0-1 .447-1 1v4c0 .553.447 1 1 1h4c.553 0 1-.447 1-1v-4c0-.553-.447-1-1-1zM4 22H2v-2h2v2zm9 0h-2v-2h2v2zM11 4V2h2v2h-2zm11 18h-2v-2h2v2z"/></svg>