<svg viewBox="0 0 24 24" fill="currentColor"><path d="M12 19c-1.104 0-2 .896-2 2s1.989 3 2 3c.073 0 2-1.896 2-3s-.896-2-2-2zm7.707-3.707L15 10.586V3c0-.276-.112-.526-.293-.707l-2-2C12.526.112 12.276 0 12 0s-.526.112-.707.293l-2 2C9.112 2.474 9 2.724 9 3v7.586l-4.707 4.707C4.112 15.474 4 15.724 4 16c0 .553.447 1 1 1 .276 0 .526-.112.707-.293l1.563-1.563 1.73.577V16c0 .553.447 1 1 1 0 .553.447 1 1 1h2c.553 0 1-.447 1-1 .553 0 1-.447 1-1v-.279l1.729-.576 1.563 1.563c.182.18.432.292.708.292.553 0 1-.447 1-1 0-.276-.112-.526-.293-.707zM13 15h-2V3.414l1-1 1 1V15z"/></svg>