<svg viewBox="0 0 24.001 24" fill="currentColor"><path d="M22.068 2.966c.554 0 1.003-.448 1.003-1.002S22.622.963 22.068.963c-.555 0-1.004.447-1.004 1.001s.45 1.002 1.004 1.002zm1.689 4.677L16.348.245c-.212-.211-.492-.251-.769-.243-.259.007-.515.046-.713.243-2.455 2.451-2.455 6.426 0 8.877 2.455 2.452 6.435 2.452 8.891 0 .196-.197.235-.453.243-.71.008-.277-.032-.558-.243-.769zm-7.409 0c-1.38-1.378-1.581-3.47-.636-5.074l5.718 5.709c-1.608.943-3.703.742-5.082-.635zm1.414 7.636c-.182-.182-.432-.294-.71-.294-.276 0-.527.112-.708.294l-1.297 1.295-1.591-1.589 1.297-1.295c.181-.181.294-.432.294-.708 0-.277-.113-.527-.294-.709l-3.01-3.005c-.181-.181-.432-.293-.709-.293s-.527.112-.709.293l-1.297 1.296-1.59-1.588 1.298-1.295c.18-.182.293-.432.293-.708 0-.277-.113-.527-.293-.709L5.725 3.259c-.181-.181-.432-.293-.709-.293s-.528.112-.709.293L.294 7.266c-.181.18-.294.431-.294.708 0 .277.113.527.294.708l3.01 3.006c.181.181.432.293.71.293.276 0 .528-.112.708-.293l1.297-1.296 1.591 1.589-3.303 3.299c-.182.181-.293.431-.293.708 0 .276.111.527.293.708L7.315 19.7c.182.181.433.293.71.293.276 0 .527-.112.71-.293l3.302-3.299 1.591 1.589-1.297 1.295c-.182.182-.294.432-.294.708 0 .277.112.527.294.709l3.009 3.005c.181.181.432.293.71.293s.527-.112.709-.293l4.012-4.007c.182-.181.294-.432.294-.708 0-.277-.112-.527-.294-.708l-3.009-3.005zM4.014 9.563L2.422 7.974l2.594-2.59 1.591 1.589-2.593 2.59zm4.011 8.012l-1.591-1.588 4.6-4.594 1.591 1.589-4.6 4.593zm8.025 4.007l-1.591-1.589 2.593-2.59 1.592 1.589-2.594 2.59z"/></svg>