<svg viewBox="0 0 24 24" fill="currentColor"><path d="M23 2H5c-.456 0-.825.312-.945.729L.038 16.726S0 16.804 0 17c0 .553.447 1 1 1h11v2H9c-.553 0-1 .447-1 1s.447 1 1 1h8c.553 0 1-.447 1-1s-.447-1-1-1h-3v-2h5c.456 0 .825-.312.945-.729l4-14C23.971 3.183 24 3.096 24 3c0-.553-.447-1-1-1zM6.246 16h-3.92l1.428-5h3.919l-1.427 5zm-1.92-7l1.428-5h3.92L8.246 9h-3.92zm7.92 7h-3.92l1.428-5h3.92l-1.428 5zm-1.92-7l1.428-5h3.92l-1.428 5h-3.92zm7.92 7h-3.92l1.428-5h3.92l-1.428 5zm2-7h-3.919l1.428-5h3.92l-1.429 5z"/></svg>