<svg viewBox="0 0 24 24" fill="currentColor"><path d="M23 6h-1V5c0-.553-.447-1-1-1s-1 .447-1 1v1h-1V1c0-.553-.447-1-1-1H6c-.553 0-1 .447-1 1v5H4V5c0-.553-.447-1-1-1s-1 .447-1 1v1H1c-.553 0-1 .447-1 1v12c0 .553.447 1 1 1h4c.553 0 1-.447 1-1v-1.586l3 3V23c0 .553.447 1 1 1s1-.447 1-1v-2h2v2c0 .553.447 1 1 1s1-.447 1-1v-2.586l3-3V19c0 .553.447 1 1 1h4c.553 0 1-.447 1-1V7c0-.553-.447-1-1-1zM4 18H2v-2h2v2zm0-4H2V8h2v6zM7 2h10v4h-2V5c0-.553-.447-1-1-1s-1 .447-1 1v1h-2V5c0-.553-.447-1-1-1s-1 .447-1 1v1H7V2zm11 12.586L13.586 19h-3.172L6 14.586V8h12v6.586zM22 18h-2v-2h2v2zm0-4h-2V8h2v6z"/></svg>