<svg viewBox="0 0 24 24" fill="currentColor"><path d="M12 0C5.373 0 0 5.373 0 12s5.373 12 12 12 12-5.373 12-12S18.627 0 12 0zm9.233 8.161l-6.928 1.731 4.009-5.613c1.263 1.034 2.284 2.353 2.919 3.882zM12 22C6.478 22 2 17.522 2 12S6.478 2 12 2c1.684 0 3.26.433 4.651 1.168l-4.2 5.879C12.303 9.024 12.155 9 12 9c-1.657 0-3 1.343-3 3s1.343 3 3 3 3-1.343 3-3c0-.073-.017-.142-.021-.214l6.832-1.708C21.933 10.7 22 11.342 22 12c0 5.522-4.478 10-10 10zm1-10c0 .553-.447 1-1 1s-1-.447-1-1 .447-1 1-1 1 .447 1 1z"/></svg>