<svg viewBox="0 0 24 24" fill="currentColor"><path d="M20 12c0-.391-.23-.721-.558-.886l.005-.009-6-3-.005.009C13.308 8.047 13.161 8 13 8c-.553 0-1 .447-1 1v1.882L6.447 8.105l-.005.009C6.308 8.047 6.161 8 6 8c-.553 0-1 .447-1 1v6c0 .553.447 1 1 1 .161 0 .308-.047.442-.114l.005.009L12 13.118V15c0 .553.447 1 1 1 .161 0 .308-.047.442-.114l.005.009 6-3-.005-.009c.328-.165.558-.495.558-.886zM7 13.382v-2.764L9.764 12 7 13.382zm7 0v-2.764L16.764 12 14 13.382zM12 0C5.373 0 0 5.373 0 12s5.373 12 12 12 12-5.373 12-12S18.627 0 12 0zm0 22C6.478 22 2 17.522 2 12S6.478 2 12 2s10 4.478 10 10-4.478 10-10 10z"/></svg>