<svg viewBox="0 0 24 24" fill="currentColor"><path d="M22 0H2c-.553 0-1 .447-1 1v22c0 .553.447 1 1 1h20c.553 0 1-.447 1-1V1c0-.553-.447-1-1-1zM3 21c-.553 0-1-.447-1-1s.447-1 1-1 1 .447 1 1-.447 1-1 1zm0-4c-.553 0-1-.447-1-1s.447-1 1-1 1 .447 1 1-.447 1-1 1zm0-4c-.553 0-1-.447-1-1s.447-1 1-1 1 .447 1 1-.447 1-1 1zm0-4c-.553 0-1-.447-1-1s.447-1 1-1 1 .447 1 1-.447 1-1 1zm0-4c-.553 0-1-.447-1-1s.447-1 1-1 1 .447 1 1-.447 1-1 1zm16 16c0 .553-.447 1-1 1H6c-.553 0-1-.447-1-1v-7c0-.553.447-1 1-1h2.534l6.696 6.696c.188.188.448.304.734.304.572 0 1.036-.464 1.036-1.036 0-.286-.116-.546-.304-.733L11.466 13H18c.553 0 1 .447 1 1v7zm0-11c0 .553-.447 1-1 1H6c-.553 0-1-.447-1-1V3c0-.417.255-.772.617-.923l6.621 6.62c.187.188.445.303.73.303C13.538 9 14 8.538 14 7.968c0-.285-.115-.543-.303-.729L8.46 2H18c.553 0 1 .447 1 1v7zm2 11c-.553 0-1-.447-1-1s.447-1 1-1 1 .447 1 1-.447 1-1 1zm0-4c-.553 0-1-.447-1-1s.447-1 1-1 1 .447 1 1-.447 1-1 1zm0-4c-.553 0-1-.447-1-1s.447-1 1-1 1 .447 1 1-.447 1-1 1zm0-4c-.553 0-1-.447-1-1s.447-1 1-1 1 .447 1 1-.447 1-1 1zm0-4c-.553 0-1-.447-1-1s.447-1 1-1 1 .447 1 1-.447 1-1 1z"/></svg>