<svg viewBox="0 0 24 24" fill="currentColor"><path d="M5 5c-.553 0-1 .447-1 1s.447 1 1 1 1-.447 1-1-.447-1-1-1zm18-3c-.161 0-.308.047-.442.114l-.005-.009L18 4.382V4c0-1.657-1.343-3-3-3H3C1.343 1 0 2.343 0 4v6c0 1.657 1.343 3 3 3h3.586L.293 19.293C.112 19.474 0 19.724 0 20c0 .553.447 1 1 1 .276 0 .526-.112.707-.293L8 14.414V22c0 .553.447 1 1 1s1-.447 1-1v-7.586l6.293 6.293c.181.181.431.293.707.293.553 0 1-.447 1-1 0-.276-.112-.526-.293-.707L11.414 13H15c1.657 0 3-1.343 3-3v-.382l4.553 2.276.005-.009c.134.068.281.115.442.115.553 0 1-.447 1-1V3c0-.553-.447-1-1-1zm-7 8c0 .553-.447 1-1 1H3c-.553 0-1-.447-1-1V4c0-.553.447-1 1-1h12c.553 0 1 .447 1 1v6zm6-.618l-4-2v-.764l4-2v4.764z"/></svg>