<svg viewBox="0 0 24 24" fill="currentColor"><path d="M20 7c-.553 0-1 .447-1 1v1c0 3.866-3.134 7-7 7s-7-3.134-7-7V8c0-.553-.447-1-1-1s-1 .447-1 1v1c0 4.632 3.501 8.443 8 8.941V22H8c-.553 0-1 .447-1 1s.447 1 1 1h8c.553 0 1-.447 1-1s-.447-1-1-1h-3v-4.059c4.499-.498 8-4.31 8-8.941V8c0-.553-.447-1-1-1zm-8 7c2.762 0 5-2.238 5-5V5c0-2.762-2.238-5-5-5S7 2.238 7 5v4c0 2.762 2.238 5 5 5zM9 6h1c.553 0 1-.447 1-1s-.447-1-1-1h-.816C9.597 2.838 10.695 2 12 2s2.403.838 2.816 2H14c-.553 0-1 .447-1 1s.447 1 1 1h1v2h-1c-.553 0-1 .447-1 1s.447 1 1 1h.816c-.413 1.162-1.512 2-2.816 2s-2.403-.838-2.816-2H10c.553 0 1-.447 1-1s-.447-1-1-1H9V6z"/></svg>