<svg viewBox="0 0 24 24" fill="currentColor"><path d="M7 10c-.553 0-1 .447-1 1s.447 1 1 1 1-.447 1-1-.447-1-1-1zm14-4h-2.586L12.707.293C12.526.112 12.276 0 12 0s-.526.112-.707.293L5.586 6H3C1.343 6 0 7.343 0 9v12c0 1.657 1.343 3 3 3h18c1.657 0 3-1.343 3-3V9c0-1.657-1.343-3-3-3zm-9-3.586L15.586 6H8.414L12 2.414zM21 22H7.414l3-3h9.172l2.345 2.345c-.142.381-.501.655-.931.655zm-8.586-5L15 14.414 17.586 17h-5.172zM22 18.586l-6.293-6.293C15.526 12.112 15.276 12 15 12s-.526.112-.707.293L4.586 22H3c-.553 0-1-.447-1-1V9c0-.553.447-1 1-1h18c.553 0 1 .447 1 1v9.586z"/></svg>