<svg xmlns="http://www.w3.org/2000/svg" xmlns:xlink="http://www.w3.org/1999/xlink" viewBox="0 0 24 24" fill="currentColor"><path d="M20 12c0-.378-.218-.695-.528-.865l.007-.013-11-6-.007.013C8.329 5.057 8.174 5 8 5c-.553 0-1 .447-1 1v12c0 .553.447 1 1 1 .174 0 .329-.057.472-.135l.007.013 11-6-.007-.013c.31-.17.528-.487.528-.865zM9 16.315v-8.63L16.912 12 9 16.315zM12 0C5.373 0 0 5.373 0 12s5.373 12 12 12 12-5.373 12-12S18.627 0 12 0zm0 22C6.478 22 2 17.522 2 12S6.478 2 12 2s10 4.478 10 10-4.478 10-10 10z"/></svg>
