<svg xmlns="http://www.w3.org/2000/svg" xmlns:xlink="http://www.w3.org/1999/xlink" fill="currentColor" viewBox="0 0 121 85">
  <path fill="hsl(var(--fg-h), var(--fg-s), var(--fg-l))" d="M117.866 13.2c-.679-2.5529-2.016-4.8829-3.877-6.75672-1.862-1.87382-4.184-3.22578-6.732-3.92055C97.875 0 60.375 0 60.375 0s-37.5 0-46.8818 2.52273c-2.5485.69477-4.8699 2.04673-6.73176 3.92055C4.89958 8.3171 3.56253 10.6471 2.88409 13.2.375 22.6227.375 42.2727.375 42.2727s0 19.65 2.50909 29.0728c.67844 2.5529 2.01549 4.8829 3.87735 6.7567 1.86186 1.8738 4.18326 3.2257 6.73176 3.9205 9.3818 2.5228 46.8818 2.5228 46.8818 2.5228s37.5 0 46.882-2.5228c2.548-.6948 4.87-2.0467 6.732-3.9205 1.861-1.8738 3.198-4.2038 3.877-6.7567 2.509-9.4228 2.509-29.0728 2.509-29.0728s0-19.65-2.509-29.0727z" />
  <path fill="var(--mode)" d="M48.1025 60.1161V24.4297l31.3637 17.8432-31.3637 17.8432z" />
</svg>
