<svg viewBox="0 0 24 24" fill="currentColor"><path d="M15 18c.552 0 1-.447 1-1s-.448-1-1-1-1 .447-1 1 .448 1 1 1zm4 0c.552 0 1-.447 1-1s-.448-1-1-1-1 .447-1 1 .448 1 1 1zM5 18h6c.552 0 1-.447 1-1s-.448-1-1-1H5c-.552 0-1 .447-1 1s.448 1 1 1zM23 8h-5.196l4.044-6.47-.015-.01C21.93 1.366 22 1.195 22 1c0-.553-.448-1-1-1-.357 0-.656.197-.833.479l-.015-.01L16 7.113 11.848.47l-.015.01C11.656.197 11.357 0 11 0c-.552 0-1 .447-1 1 0 .195.07.366.167.521l-.015.01L14.196 8H1c-.552 0-1 .447-1 1v12c0 .553.448 1 1 1h1v1c0 .553.448 1 1 1s1-.447 1-1v-1h16v1c0 .553.448 1 1 1s1-.447 1-1v-1h1c.552 0 1-.447 1-1V9c0-.553-.448-1-1-1zm-1 12H2V10h20v10zM5 14h6c.552 0 1-.447 1-1s-.448-1-1-1H5c-.552 0-1 .447-1 1s.448 1 1 1z"/></svg>