<svg viewBox="0 0 24 24" fill="currentColor"><path d="M13.342 3.072l1.365-1.365C14.888 1.526 15 1.276 15 1c0-.553-.448-1-1-1-.276 0-.526.112-.707.293l-3 3C10.112 3.474 10 3.724 10 4s.112.526.293.707l3 3c.181.181.431.293.707.293.552 0 1-.447 1-1 0-.276-.112-.526-.293-.707L13.52 5.105C17.765 5.661 21 8.549 21 13c0 4.971-4.029 9-9 9s-9-4.029-9-9c0-2.467 1.056-4.639 2.664-6.264C5.867 6.553 6 6.295 6 6c0-.553-.448-1-1-1-.276 0-.526.112-.707.293l-.009-.009C2.293 7.275 1 9.963 1 13c0 6.075 4.925 11 11 11s11-4.925 11-11c0-5.62-4.217-9.393-9.658-9.928z"/></svg>