<svg viewBox="0 0 24 24" fill="currentColor"><path d="M5 18c-.552 0-1 .447-1 1s.448 1 1 1 1-.447 1-1-.448-1-1-1zm0-7c-.552 0-1 .447-1 1s.448 1 1 1c3.313 0 6 2.687 6 6 0 .553.448 1 1 1s1-.447 1-1c0-4.418-3.582-8-8-8zM21 0H3C1.343 0 0 1.343 0 3v18c0 1.657 1.343 3 3 3h18c1.657 0 3-1.343 3-3V3c0-1.657-1.343-3-3-3zm1 21c0 .553-.448 1-1 1H3c-.552 0-1-.447-1-1V3c0-.553.448-1 1-1h18c.552 0 1 .447 1 1v18zM5 4c-.552 0-1 .447-1 1s.448 1 1 1c7.18 0 13 5.82 13 13 0 .553.448 1 1 1s1-.447 1-1c0-8.284-6.716-15-15-15z"/></svg>