<svg viewBox="0 0 24 24" fill="currentColor"><path d="M20 14c.552 0 1-.447 1-1s-.448-1-1-1-1 .447-1 1 .448 1 1 1zm0 4c.552 0 1-.447 1-1s-.448-1-1-1-1 .447-1 1 .448 1 1 1zm3-12h-8l1.8-2.4-.014-.01c.126-.167.214-.364.214-.59 0-.553-.448-1-1-1-.327 0-.604.167-.786.41L15.2 2.4 12.5 6h-.779L9.949.684l-.012.004C9.804.291 9.441 0 9 0c-.552 0-1 .447-1 1 0 .11.03.213.063.313l-.012.003L9.613 6H1c-.552 0-1 .447-1 1v14c0 .553.448 1 1 1h1v1c0 .553.448 1 1 1s1-.447 1-1v-1h16v1c0 .553.448 1 1 1s1-.447 1-1v-1h1c.552 0 1-.447 1-1V7c0-.553-.448-1-1-1zm-1 14H2V8h20v12zM4 19h13c.552 0 1-.447 1-1v-8c0-.553-.448-1-1-1H4c-.552 0-1 .447-1 1v8c0 .553.448 1 1 1zm1-8h11v6H5v-6z"/></svg>