<svg viewBox="0 0 24 24" fill="currentColor"><path d="M23 5c0-.553-.447-1-1-1 0 0-5.018-1-10-1C6.982 3 2 4 2 4c-.553 0-1 .447-1 1 0 0-1 3.506-1 7 0 3.506 1 7 1 7 0 .553.447 1 1 1 0 0 5.025 1 10 1 5.025 0 10-1 10-1 .553 0 1-.447 1-1 0 0 1-3.522 1-7 0-3.522-1-7-1-7zm-2 13s-4.446 1-9 1c-4.445 0-9-1-9-1s-1-3.009-1-6c0-3.008 1-6 1-6s4.497-1 9-1c4.497 0 9 1 9 1s1 2.992 1 6c0 2.991-1 6-1 6zm-5.455-6.816l.01-.016-6-4-.01.016C9.386 7.077 9.205 7 9 7c-.553 0-1 .447-1 1v8c0 .553.447 1 1 1 .205 0 .386-.077.545-.184l.01.016 6-4-.01-.016c.268-.178.455-.469.455-.816s-.187-.638-.455-.816zM10 14.132V9.868L13.197 12 10 14.132z"/></svg>