<svg viewBox="0 0 75.66 13.69" fill="currentColor"><defs><style>.cls-1{fill:#f37f20}</style></defs><g id="Layer_2" data-name="Layer 2"><g id="Layer_1-2" data-name="Layer 1"><g id="Title_bottom" data-name="Title bottom"><path d="M49.87 7.47l-6.69-2.64-5.31-2.09-1.38-.54a.5.5 0 00-.65.28 7.63 7.63 0 00-.4 4.1 3.19 3.19 0 00-.47.26 16.61 16.61 0 01-.15-6.25V.52a.33.33 0 000-.1.32.32 0 000-.09V.24l-.13-.08H34.14L34 .13a17.11 17.11 0 00-3.39 7.15 2.43 2.43 0 00-1.84 0 2.94 2.94 0 00-1.57 2.39 3.53 3.53 0 003.07 3.93 3.15 3.15 0 00.44 0 3.5 3.5 0 002.16-.75 3.42 3.42 0 00.57-.57 3.48 3.48 0 002.07.69 3.48 3.48 0 002.95-1.62 7.93 7.93 0 001.77 1 7.7 7.7 0 0010-4.35.5.5 0 000-.38.48.48 0 00-.36-.15zm-11.13.81c-.05-.12-.08-.24-.14-.36l-.06-.1 3.53-1.53-1.43 3.63a5.14 5.14 0 01-1.9-1.64zM38 3.86l3.75 1.48-3.67 1.6A5.21 5.21 0 0138 3.86zm5 2.79l1.56 3.59a5.16 5.16 0 01-3 0zm2.48 3.21l-1.59-3.67 3.75 1.47a5.21 5.21 0 01-2.16 2.2zM36.6 3.32l.47.18a6.11 6.11 0 00-.16 2.91h-.13a2.13 2.13 0 00-.37 0 6.65 6.65 0 01.19-3.09zm-3.92 4.49a3.09 3.09 0 00-1.16-.13 15.32 15.32 0 012.09-5.29A17.09 17.09 0 0034 7.18a2.62 2.62 0 00-1.32.63zm-.48 4.35a2.53 2.53 0 01-4.06-2.31 2 2 0 011-1.6 1.31 1.31 0 01.52-.11 1.93 1.93 0 01.77.19 6.47 6.47 0 00-.05.76.5.5 0 00.48.52.51.51 0 00.5-.49v-.43a1.7 1.7 0 011.45.31 1.73 1.73 0 01.34 1.46 2.53 2.53 0 01-.95 1.7zm5.66-1.85a2.49 2.49 0 01-1.25 1.47 2.52 2.52 0 01-2.72-.27 3.52 3.52 0 00.26-.91 2.63 2.63 0 00-.57-2.22 1.81 1.81 0 01.7-.24c0 .1.07.19.1.29l-.2.17a.89.89 0 001 .5.9.9 0 00.77-.72 1.6 1.6 0 00-.58-.25c0-.08 0-.16-.08-.24a1.73 1.73 0 011.35-.53 1.79 1.79 0 011.11 1 2.49 2.49 0 01.11 1.95zm2.69 1.22a7.11 7.11 0 01-1.71-1A3.46 3.46 0 0039 10a6.17 6.17 0 001.77 1.09 6.23 6.23 0 002.28.43A6.15 6.15 0 0048.55 8l.47.19a6.71 6.71 0 01-8.47 3.34zM75.62 8.63a4.28 4.28 0 00-2.52-2.3 11.1 11.1 0 00-7.1-.5 25.37 25.37 0 00-2.78 1 19.58 19.58 0 01-3.11 1A5 5 0 0154.84 6a.5.5 0 00-.78.62 6 6 0 006.28 2.18 19.08 19.08 0 003.28-1.08 24.72 24.72 0 012.66-.93 10.17 10.17 0 016.45.47 3.31 3.31 0 012 1.78.49.49 0 00.45.3.54.54 0 00.21-.05.5.5 0 00.23-.66zM22.57 5.94a5.72 5.72 0 01-5.8 1.85 22.34 22.34 0 01-3.39-1 25.6 25.6 0 00-3-1 12.92 12.92 0 00-7.62.5A4.52 4.52 0 00.05 8.58a.5.5 0 00.23.67.44.44 0 00.22.05A.51.51 0 001 9a3.52 3.52 0 012.16-1.8 11.88 11.88 0 017-.47A26.29 26.29 0 0113 7.7a24.48 24.48 0 003.54 1.08 6.81 6.81 0 006.79-2.18.5.5 0 00-.76-.66z" class="cls-1"/></g></g></g></svg>