<svg viewBox="0 0 154.68 77.42" fill="currentColor"><defs><style>.cls-1{fill:#f37f2a}</style></defs><g id="Layer_2" data-name="Layer 2"><g id="Layer_1-2" data-name="Layer 1"><g id="Text_top" data-name="Text top"><path d="M44.8 56.82c.05.18.1.42.17.72h.15c0-.15-.06-.28-.08-.41s0-.24 0-.35h2.97a2.39 2.39 0 01.82.08c.13.06.19.18.2.38a.57.57 0 010 .12v.07h.13c0-.24 0-.43-.05-.56s0-.25 0-.34V55.65h-.13v.08a.39.39 0 01-.16.39 2.53 2.53 0 01-.82.12l-1.25.06h-2c-.05.14 0 .34.05.52zM44.64 53.39a1.32 1.32 0 00.26.9 1 1 0 00.76.41 1 1 0 00.65-.16 1.62 1.62 0 00.52-.59 2 2 0 00.47.75 1 1 0 00.63.26 1 1 0 00.83-.32 1.41 1.41 0 00.37-.93 1.39 1.39 0 00-.3-1 1.15 1.15 0 00-.83-.41 1 1 0 00-.71.19 1.93 1.93 0 00-.56.71 2 2 0 00-.45-.69 1 1 0 00-.6-.22.81.81 0 00-.68.29 1.23 1.23 0 00-.36.81zm2.78-.39a.89.89 0 01.63-.21 1 1 0 01.64.25.69.69 0 01.21.56.85.85 0 01-.31.61 1 1 0 01-.69.21 1.13 1.13 0 01-.55-.19 1.3 1.3 0 01-.41-.5 1.78 1.78 0 01.48-.73zm-1.74-.28a1 1 0 01.5.17 1.27 1.27 0 01.4.45 1.83 1.83 0 01-.45.63.74.74 0 01-.57.18A.76.76 0 0145 54a.6.6 0 01-.18-.49.7.7 0 01.24-.53.82.82 0 01.62-.22zM45.1 49.65a1.25 1.25 0 00.15.93 1 1 0 00.7.49 1.08 1.08 0 00.67-.07 1.66 1.66 0 00.58-.53 2.13 2.13 0 00.37.8 1 1 0 00.6.34 1 1 0 00.87-.22 1.45 1.45 0 00.47-.87 1.38 1.38 0 00-.17-1 1.15 1.15 0 00-.82-.54 1 1 0 00-.72.1 2 2 0 00-.65.63 2 2 0 00-.36-.73 1 1 0 00-.57-.29.81.81 0 00-.71.21 1.16 1.16 0 00-.41.75zm2.8 0a.86.86 0 01.65-.13 1 1 0 01.6.32.66.66 0 01.14.58.81.81 0 01-.37.57 1 1 0 01-.72.12.94.94 0 01-.52-.25 1.33 1.33 0 01-.35-.54 1.79 1.79 0 01.57-.68zm-1.7-.49a1 1 0 01.49.23 1.42 1.42 0 01.34.49 1.9 1.9 0 01-.53.58.81.81 0 01-.59.11.82.82 0 01-.49-.29.72.72 0 01.19-1 .75.75 0 01.59-.13zM49.7 48.7v.06h.13c0-.24.09-.42.13-.55s.04-.21.04-.29.13-.42.25-.77v-.06h-.13v.08c0 .08-.14.29-.27.32a2.44 2.44 0 01-.82-.15L47.85 47l-1-.28-1-.31v.61c0 .19 0 .43-.07.74h.16c0-.15 0-.29.05-.42a3.09 3.09 0 01.07-.35l.38.1.77.21.91.27.76.23a2.19 2.19 0 01.76.34.39.39 0 01.07.42c.01.07 0 .11-.01.14zM54.59 38.35h-.33a1.19 1.19 0 01-.33 0l-.59-.14-1.27-.32-1.65-.39-1.68-.37-2.57-3.77A1.55 1.55 0 0146 33a1.78 1.78 0 01-.07-.39 2.77 2.77 0 010-.42l-1.39 2.11a.59.59 0 01.41-.07.49.49 0 01.4.28l2.85 4.29-4-2.64a.36.36 0 01-.15-.17 1.49 1.49 0 01-.13-.25 2 2 0 01-.12-.34l-1.21 1.82H43.18a.49.49 0 01.24.08l7.78 5.15a.67.67 0 01.2.21 1.66 1.66 0 01.13.27 2.52 2.52 0 01.14.33l1.2-1.83a2.07 2.07 0 01-.35 0 1.53 1.53 0 01-.3 0 .65.65 0 01-.28-.12l-1.41-.93-1-1.64 3.62.85a.34.34 0 01.22.14 1.28 1.28 0 01.15.25c0 .09.06.17.08.25a.41.41 0 000 .14l1.4-2.1zM53.22 27a1.73 1.73 0 01.32-.14l.29-.07h.32l-1.34-1.19-3.18 2.6.33.08.29.12a.66.66 0 01.23.17l5.79 7a.9.9 0 01.16.29 2.46 2.46 0 01.09.34v.37l3.21-2.66-.93-1.53a1 1 0 01-.05.29c0 .08-.07.17-.12.28a1 1 0 01-.21.29l-1.4 1.16-2.29-2.75 1-.84a.88.88 0 01.3-.16h.27a1.27 1.27 0 01.28 0L55.24 29a1.55 1.55 0 010 .31 2.77 2.77 0 01-.1.26.58.58 0 01-.18.23l-1 .83-2.07-2.5 1.3-1.13zM63.19 20l-2 .86a1.59 1.59 0 01.29.15 1.19 1.19 0 01.23.16.59.59 0 01.16.21l2.32 5.46-4-4.59a.61.61 0 01-.11-.29 1.69 1.69 0 010-.32 2.68 2.68 0 01.1-.35l-2.22.94.3.19a1.24 1.24 0 01.23.17.73.73 0 01.15.17l3.62 8.51a.72.72 0 01.07.33 1.55 1.55 0 010 .31 1 1 0 01-.1.31l2-.85a1.64 1.64 0 01-.3-.14l-.27-.23a1 1 0 01-.2-.29l-2.29-5.39 4.07 4.43a.7.7 0 01.19.37 1.13 1.13 0 010 .36 1.12 1.12 0 01-.12.35l2.1-.89a1.43 1.43 0 01-.3-.16l-.24-.19a1 1 0 01-.19-.27l-3.61-8.51a.55.55 0 010-.26 2.09 2.09 0 010-.28 1.7 1.7 0 01.12-.27zM73.37 19.46a2.24 2.24 0 01.4.22 3.9 3.9 0 01.42.32l-.58-2-4.73.5-.16 2.06a3.4 3.4 0 01.34-.4 2.35 2.35 0 01.33-.3.67.67 0 01.34-.15l.92-.09.91 8.73a.48.48 0 010 .26 1.45 1.45 0 01-.12.25 1.73 1.73 0 01-.19.28l2.25-.24a1.27 1.27 0 01-.25-.21 1.84 1.84 0 01-.17-.22.59.59 0 01-.09-.24L72 19.48l1-.1a.72.72 0 01.37.08zM81 18.88a2 2 0 01.19-.21 1.64 1.64 0 01.26-.2l-2.2-.41a1.73 1.73 0 01.15.27 1.69 1.69 0 01.1.27.67.67 0 010 .28L78 26.74a2 2 0 000 .84 2.18 2.18 0 00.32.75 2.25 2.25 0 00.58.57 2.12 2.12 0 00.79.32l.39.07a2 2 0 00.84 0 2.13 2.13 0 00.74-.32 2.21 2.21 0 00.56-.58 1.93 1.93 0 00.32-.78l1.47-7.78a.94.94 0 01.12-.3 1.59 1.59 0 01.2-.24 1.64 1.64 0 01.25-.21l-2.2-.41a2 2 0 01.16.29 1.21 1.21 0 01.09.27.45.45 0 010 .25l-1.48 7.87a.7.7 0 01-.3.47.68.68 0 01-.54.11l-.4-.07a.72.72 0 01-.46-.3.71.71 0 01-.05-.56l1.49-7.87a.51.51 0 01.11-.25zM92.07 24.53a.71.71 0 01-.22.26 1 1 0 01-.25.16 1 1 0 01-.3.11l2 1a1.65 1.65 0 01-.07-.32 1.71 1.71 0 010-.32.85.85 0 01.11-.34l.19-.38a2 2 0 00.24-.81 2.15 2.15 0 00-.09-.8 2 2 0 00-.37-.71 2.14 2.14 0 00-.66-.53l-.36-.19a2 2 0 00-.81-.24 2.2 2.2 0 00-.81.09 2.07 2.07 0 00-.71.39 1.88 1.88 0 00-.53.65l-3.23 6.16a2 2 0 00-.23.8 2.12 2.12 0 00.09.8 2.25 2.25 0 00.39.71 1.88 1.88 0 00.65.53l.35.19a2.07 2.07 0 00.81.23 2.2 2.2 0 00.81-.09 2.12 2.12 0 00.71-.38 2 2 0 00.53-.65l.27-.51a.88.88 0 01.19-.24A2 2 0 0191 30a1.3 1.3 0 01.3-.13l-2-1a1.91 1.91 0 01.06.33 1.71 1.71 0 010 .32 1.1 1.1 0 01-.1.34l-.24.45a.74.74 0 01-.42.36.73.73 0 01-.56-.05l-.35-.19a.67.67 0 01-.36-.43.64.64 0 010-.54l3.22-6.16a.73.73 0 01.43-.36.71.71 0 01.55.06l.37.19a.7.7 0 01.35.42.69.69 0 010 .56zM96.05 37.44l.25-.55c.15-.33.34-.72.56-1.19s.46-1 .7-1.54l.7-1.58 4.2-1.78a1.21 1.21 0 01.38-.06h.39l.41.06-1.79-1.8a.58.58 0 010 .41.54.54 0 01-.35.34l-4.77 1.95 3.37-3.4a.53.53 0 01.2-.11l.27-.08.35-.05-1.55-1.53v.31a2 2 0 010 .26.57.57 0 01-.12.22L92.58 34a.7.7 0 01-.24.15l-.29.08c-.11 0-.23.05-.35.06l1.56 1.54a2 2 0 010-.35 1.9 1.9 0 01.09-.29.72.72 0 01.16-.25l1.19-1.2 1.86-.74L95 36.4a.33.33 0 01-.18.19 1 1 0 01-.27.1H94.14l1.86 1.8a2.67 2.67 0 010-.4v-.34a1.27 1.27 0 01.05-.31zM102 41.29l3.18-.63 1.19-.23 1.06-.21.8-.14a2.47 2.47 0 01.4-.07.66.66 0 01.28 0l.28.08.29.12-1.1-2.1a2.55 2.55 0 01-.11.33 1.28 1.28 0 01-.15.25.35.35 0 01-.21.13l-4.35.9 3.22-3a.38.38 0 01.25-.13 1.36 1.36 0 01.29 0 1.1 1.1 0 01.33.12l-1.09-2.11a1.35 1.35 0 010 .29.81.81 0 01-.08.25 1.43 1.43 0 01-.16.24l-.29.27-.59.58-.8.75-.87.84-2.34 2.26-2.51 1.3a.67.67 0 01-.27.06h-.74l1 2c.07-.13.13-.24.2-.35a2.47 2.47 0 01.21-.27 1 1 0 01.25-.21l2.43-1.33zM102 48.38l1.2-.33 1-.25 1-.24-.3-.54-.32-.67-.14.06c.06.14.12.27.16.39l.13.33-.38.12-.77.21-.92.24-.77.19a2.31 2.31 0 01-.82.11.41.41 0 01-.28-.33.53.53 0 000-.11v-.07h-.13c.08.23.13.41.17.54l.1.33.18.79v.06h.13a.22.22 0 010-.08.37.37 0 01.08-.41 2.27 2.27 0 01.68-.34zM102.78 52.13a1.06 1.06 0 00.66-.34 2 2 0 00.39-.81 1.83 1.83 0 00.59.57.94.94 0 00.63.09.81.81 0 00.6-.44 1.21 1.21 0 00.14-.85 1.33 1.33 0 00-.46-.83 1 1 0 00-.82-.23 1.13 1.13 0 00-.61.29 1.73 1.73 0 00-.37.69 2.18 2.18 0 00-.62-.63 1 1 0 00-.68-.11 1 1 0 00-.74.49 1.4 1.4 0 00-.15 1 1.34 1.34 0 00.5.9 1.15 1.15 0 00.94.21zm1.42-2.07a.79.79 0 01.51-.3.77.77 0 01.56.11.65.65 0 01.29.45.7.7 0 01-.13.57.78.78 0 01-.52.3 1 1 0 01-.53-.06 1.4 1.4 0 01-.49-.35 2 2 0 01.31-.72zm-2.62 1a.81.81 0 01.16-.66 1 1 0 01.64-.36 1.1 1.1 0 01.57.06 1.43 1.43 0 01.51.4 2 2 0 01-.31.83.88.88 0 01-.58.33 1 1 0 01-.67-.1.65.65 0 01-.32-.56zM104.37 53.09a1.72 1.72 0 00-.45.64 2.07 2.07 0 00-.54-.7 1.06 1.06 0 00-1.45.2 1.46 1.46 0 00-.28 1 1.42 1.42 0 00.39 1 1.2 1.2 0 00.91.35 1.11 1.11 0 00.69-.26 2 2 0 00.49-.76 1.87 1.87 0 00.51.64 1 1 0 00.62.16.84.84 0 00.65-.35 1.25 1.25 0 00.24-.84 1.27 1.27 0 00-.35-.87 1 1 0 00-.79-.34 1.15 1.15 0 00-.64.13zm-1 1.61a.92.92 0 01-.61.26 1 1 0 01-.66-.18.7.7 0 01-.26-.54.81.81 0 01.24-.63.94.94 0 01.68-.28 1.05 1.05 0 01.56.13 1.44 1.44 0 01.46.46 1.88 1.88 0 01-.36.78zm2.28-1.15a.67.67 0 01.23.48.72.72 0 01-.2.55.79.79 0 01-.55.23 1.14 1.14 0 01-.52-.12 1.41 1.41 0 01-.44-.41 1.87 1.87 0 01.39-.68.79.79 0 01.55-.23.74.74 0 01.59.18zM102.79 57.21l1.24.08 1 .06 1 .1c0-.22-.08-.42-.11-.61s-.06-.43-.09-.73h-.16v.77h-1.19l-1-.07-.79-.06a2.44 2.44 0 01-.81-.16.41.41 0 01-.16-.41v-.11V56h-.13v.91c0 .1 0 .44-.08.8a.15.15 0 010 .07h.14v-.09a.4.4 0 01.2-.37 2.35 2.35 0 01.94-.11zM75.63 12.21l.32.23.29-.25c.13-.1 3.09-2.57 3.2-5.06.17-4-3-6.71-3.14-6.83L76 0l-.33.33c-.13.14-3.3 3.37-3.31 6.14-.06 3.31 3.14 5.65 3.27 5.74zm.84-10.28a7.72 7.72 0 012 5.16c-.06 1.31-1.19 2.7-2 3.55zm-1 .09v8.7a6.29 6.29 0 01-2.12-4.25c-.03-1.53 1.23-3.35 2.12-4.47zM82 12.91h.41c.11 0 2.73 0 3.88-1.31a6.06 6.06 0 001.26-4.78l-.09-.44h-.44c-.13 0-3.11.26-4.3 1.7-1.37 1.66-.83 4.29-.8 4.4zm3.54-2a3.33 3.33 0 01-1.77.83l2.83-3.49a4.52 4.52 0 01-1.05 2.67zm-2-2.17a4.52 4.52 0 012.35-1.14l-3 3.75a3.91 3.91 0 01.61-2.6zM68.9 12.9h.46l.09-.37c0-.11.61-2.68-.77-4.35-1.18-1.44-4.19-1.75-4.32-1.76h-.46l-.08.46a6.21 6.21 0 001.3 4.83c1.06 1.13 3.32 1.19 3.78 1.19zm-1-4.09a3.44 3.44 0 01.68 2.07l-3.05-3.25a4.7 4.7 0 012.38 1.18zm.22 3a3.79 3.79 0 01-2.26-.81 4.54 4.54 0 01-1.07-2.7zM48.49 20.63a3.08 3.08 0 001 .16 3 3 0 001.45-.35c1.68-.92 2.19-2.43 2.83-4.34l.16-.48a6.16 6.16 0 013.27-3.86 2.85 2.85 0 012.38.08 2 2 0 011 2 1.18 1.18 0 01-.94 1.05.61.61 0 01-.49-.07 1 1 0 01-.33-.69.49.49 0 01.24-.47.48.48 0 00.28-.64.5.5 0 00-.64-.29 1.48 1.48 0 00-.88 1.48 2 2 0 00.74 1.41 1.5 1.5 0 001.29.25A2.17 2.17 0 0061.59 14a3 3 0 00-1.53-3 3.76 3.76 0 00-3.22-.14A7 7 0 0053 15.3l-.17.49c-.62 1.83-1 3-2.36 3.77a2.2 2.2 0 01-1.66.12 1.38 1.38 0 01-.86-.71 2.16 2.16 0 010-2 1.37 1.37 0 011.05-.7.61.61 0 01.54.31.86.86 0 010 .89.48.48 0 00.17.68.49.49 0 00.68-.17 1.84 1.84 0 000-1.92 1.62 1.62 0 00-1.39-.79 2.4 2.4 0 00-2 1.17 3.14 3.14 0 000 2.95 2.36 2.36 0 001.49 1.24zM90.72 15.91a1.55 1.55 0 001.3-.25 2 2 0 00.73-1.41 1.48 1.48 0 00-.88-1.48.5.5 0 00-.64.29.49.49 0 00.28.64.47.47 0 01.24.47 1 1 0 01-.33.69.58.58 0 01-.48.07 1.17 1.17 0 01-1-1 2 2 0 011-2 2.74 2.74 0 012.38-.09 6.11 6.11 0 013.27 3.85l.17.48c.65 1.9 1.16 3.41 2.84 4.32a3 3 0 001.44.35 3.43 3.43 0 001-.15 2.41 2.41 0 001.46-1.25 3.16 3.16 0 000-2.95 2.38 2.38 0 00-1.93-1.16 1.63 1.63 0 00-1.46.79 1.84 1.84 0 000 1.92.5.5 0 00.69.17.51.51 0 00.17-.69.83.83 0 010-.88.56.56 0 01.53-.31 1.41 1.41 0 011.14.67 2.16 2.16 0 010 2 1.46 1.46 0 01-.86.72 2.28 2.28 0 01-1.67-.13c-1.33-.72-1.74-1.93-2.36-3.76l-.17-.49a7.06 7.06 0 00-3.86-4.46 3.76 3.76 0 00-3.22.15A3 3 0 0089 14a2.17 2.17 0 001.72 1.91zM115.86 56.29h.4c.16 0 3.92-.06 5.55-1.89a8.63 8.63 0 001.77-6.86l-.08-.44h-.45c-.18 0-4.48.39-6.17 2.45-1.95 2.38-1.15 6.14-1.11 6.3zm5.2-2.55c-1 1.07-3 1.4-4.08 1.5l5.71-6.4a7.22 7.22 0 01-1.63 4.9zm-3.4-3.52c.9-1.1 2.84-1.63 4.15-1.89l-5.21 5.85a6 6 0 011.06-3.96zM120.37 60.76a.79.79 0 00.06.86.63.63 0 00.37.17 1.54 1.54 0 00.56-.08 6.73 6.73 0 003-2.22 5.84 5.84 0 00.87-2l.09-.4-.4.07a6.54 6.54 0 00-1.36.42 7 7 0 00-3.19 3.18zM126 56.84a23.67 23.67 0 012.63-2.17 24.19 24.19 0 013-1.71.08.08 0 000-.1.07.07 0 00-.1 0 15.72 15.72 0 00-3.09 1.56 25.51 25.51 0 00-2.8 2.06.27.27 0 10.37.39zM123 61.2a.82.82 0 00.09.86 7 7 0 003.74 2.58 4.21 4.21 0 00.76.14h1.06l-.16-.38a6.09 6.09 0 00-1.21-1.84 6.82 6.82 0 00-3.37-1.56c-.17-.07-.68-.14-.91.2zM132.31 66.62a24 24 0 01-3-1.68.27.27 0 00-.28.47 25.1 25.1 0 003.12 1.54 15.81 15.81 0 003.31 1 .07.07 0 00.08 0v-.1a26.2 26.2 0 01-3.23-1.23zM131 64a7 7 0 001.1 0h.41l-.19-.36a5.85 5.85 0 00-1.32-1.79 6.71 6.71 0 00-3.49-1.39c-.17 0-.69 0-.89.32a.82.82 0 00.16.85 7 7 0 003.93 2.28zM136.3 65.45a23.49 23.49 0 01-3.09-1.45.27.27 0 00-.36.12.26.26 0 00.12.36 25.63 25.63 0 003.23 1.3 16.33 16.33 0 003.38.74s.07 0 .08-.06a.08.08 0 00-.06-.09 26.26 26.26 0 01-3.3-.92zM135.13 63.59a6.86 6.86 0 001.09 0h.41l-.19-.37a6.07 6.07 0 00-1.34-1.73 6.85 6.85 0 00-3.5-1.4c-.17 0-.68 0-.88.33a.79.79 0 00.15.85 7.07 7.07 0 003.93 2.28zM140.43 65.08a22.91 22.91 0 01-3.09-1.45.29.29 0 00-.37.13.28.28 0 00.13.36 23.51 23.51 0 003.22 1.29 16.64 16.64 0 003.38.75.09.09 0 00.09-.06.07.07 0 00-.06-.09 26.26 26.26 0 01-3.3-.93zM140 63.48a6.5 6.5 0 001.28 0h.41l-.2-.36a6.06 6.06 0 00-1.49-1.73 6.85 6.85 0 00-3.56-1.24c-.17 0-.68 0-.87.36a.8.8 0 00.2.84 7 7 0 004 2.11zM145.5 64.75a22.25 22.25 0 01-3.15-1.31.28.28 0 00-.36.15.27.27 0 00.14.35 24.07 24.07 0 003.28 1.15 16.59 16.59 0 003.41.6.08.08 0 000-.16 24.77 24.77 0 01-3.32-.78zM128.16 56.73a7 7 0 00-3.49 2.92.8.8 0 000 .86.65.65 0 00.43.21 1.73 1.73 0 00.5 0 6.82 6.82 0 003.21-2 6.06 6.06 0 001-1.93l.12-.4h-.4a6.72 6.72 0 00-1.37.34zM130.3 55.79a.28.28 0 000 .38.26.26 0 00.38 0 23.28 23.28 0 012.8-1.94 24.91 24.91 0 013.09-1.46.09.09 0 00.05-.1.08.08 0 00-.1-.05 16.18 16.18 0 00-3.2 1.31 24.15 24.15 0 00-3 1.81zM132.68 56.55a7 7 0 00-3.77 2.55.82.82 0 00-.09.86.67.67 0 00.51.27 1.55 1.55 0 00.39 0 6.7 6.7 0 003.39-1.64 5.85 5.85 0 001.22-1.82l.17-.38h-.41a6.17 6.17 0 00-1.41.16zM134.9 55.82a.27.27 0 00.3.46 22.22 22.22 0 013-1.66 27.35 27.35 0 013.22-1.15.07.07 0 000-.08.08.08 0 00-.09-.07 16.86 16.86 0 00-3.32 1 24.29 24.29 0 00-3.12 1.52zM137.34 56.83a7 7 0 00-4 2.14.8.8 0 00-.18.85.72.72 0 00.61.34h.23a6.8 6.8 0 003.54-1.27 6 6 0 001.4-1.69l.21-.36-.41-.05a6.22 6.22 0 00-1.4.04zM139.63 56.34a.27.27 0 00.24.48 22.79 22.79 0 013.13-1.34 26.78 26.78 0 013.32-.81.06.06 0 00.06-.08.08.08 0 00-.08-.07 16.43 16.43 0 00-3.4.63 25 25 0 00-3.27 1.18zM137.67 59.75c.13.35.58.42.78.45h.05a6.71 6.71 0 003.66-.87 5.65 5.65 0 001.58-1.52l.24-.33-.4-.09a6 6 0 00-1.41-.14 7 7 0 00-4.17 1.69.78.78 0 00-.33.81zM144.5 57a.26.26 0 00-.16.34.27.27 0 00.35.16 21.92 21.92 0 013.27-1 24 24 0 013.39-.43.08.08 0 000-.16 16.7 16.7 0 00-3.46.25 24.28 24.28 0 00-3.37.8zM144.84 62a5.91 5.91 0 002-.9l.34-.24-.34-.22a6.73 6.73 0 00-1.29-.6 7 7 0 00-4.54.17c-.36.19-.54.42-.54.68s.48.63.63.7a5.06 5.06 0 001.64.44 9.32 9.32 0 002.1-.03zM154.63 61.89a16.69 16.69 0 00-3.34-.92 23.48 23.48 0 00-3.45-.37.26.26 0 00-.26.27.27.27 0 00.27.27 22.85 22.85 0 013.41.17 25.86 25.86 0 013.34.73.09.09 0 00.09 0 .08.08 0 00-.06-.15zM128.59 69.56a18.16 18.16 0 00-6.91-3 19.24 19.24 0 00-8.51.15 16.91 16.91 0 00-2.06.75 1.88 1.88 0 00-.44.36v.28a26.48 26.48 0 0121.89 5.74l.08-.11a.73.73 0 00-.07-.19 16.84 16.84 0 00-3.98-3.98z" class="cls-1"/><path d="M121.52 63.59a.5.5 0 000-1 18.44 18.44 0 00-5.82.85 24.77 24.77 0 00-5.34 2.37 26.39 26.39 0 00-4.67 3.46 21.61 21.61 0 00-3.69 4.46.25.25 0 00.08.33.24.24 0 00.34-.07 24.65 24.65 0 018.37-7.52 20.65 20.65 0 0110.73-2.88zM38 56.29h.41l.09-.4c0-.16.83-3.92-1.12-6.3-1.68-2.06-6-2.44-6.17-2.45h-.44l-.09.44a8.66 8.66 0 001.78 6.86c1.63 1.79 5.39 1.84 5.54 1.85zm-1.39-6.07a6.06 6.06 0 011.07 4l-5.22-5.85c1.33.21 3.26.75 4.16 1.85zm.67 5c-1.09-.1-3.12-.43-4.08-1.5a7.2 7.2 0 01-1.62-4.9zM30.27 59.49a6.79 6.79 0 003 2.22 1.61 1.61 0 00.57.08.7.7 0 00.37-.17.79.79 0 00.06-.86 7 7 0 00-3.24-3.2 6.53 6.53 0 00-1.35-.42l-.41-.07.1.4a6 6 0 00.9 2.02zM26 54.67a22 22 0 012.63 2.17.27.27 0 00.38 0 .26.26 0 000-.38 24.59 24.59 0 00-2.8-2.06 15.64 15.64 0 00-3.08-1.56.07.07 0 00-.1 0 .08.08 0 000 .1A23.46 23.46 0 0126 54.67zM27.09 64.78a4.21 4.21 0 00.76-.14 7 7 0 003.74-2.58.79.79 0 00.08-.86c-.22-.34-.73-.27-.9-.25a6.85 6.85 0 00-3.38 1.66 6 6 0 00-1.2 1.84l-.16.38h.41s.3-.01.65-.05zM25.61 65.4a.27.27 0 00-.27-.47 23.39 23.39 0 01-3 1.68 25.05 25.05 0 01-3.21 1.17.09.09 0 000 .1.07.07 0 00.09 0 16 16 0 003.31-1 25.68 25.68 0 003.08-1.48zM23.68 64l.32-.05a7.07 7.07 0 003.93-2.28.79.79 0 00.15-.85c-.2-.35-.71-.33-.88-.32a6.73 6.73 0 00-3.5 1.39 5.94 5.94 0 00-1.34 1.74l-.19.36h.41a7 7 0 001.1.01zM21.84 64.12a.28.28 0 00-.37-.12 22.91 22.91 0 01-3.09 1.45 26.26 26.26 0 01-3.29.92.08.08 0 000 .15 16.33 16.33 0 003.38-.74 24.91 24.91 0 003.22-1.3.28.28 0 00.15-.36zM19.55 63.59l.32-.05a7 7 0 003.93-2.28.82.82 0 00.16-.85c-.2-.36-.72-.33-.89-.33a6.78 6.78 0 00-3.49 1.4 6 6 0 00-1.35 1.73l-.19.37h.41a7 7 0 001.1.01zM17.71 63.75a.28.28 0 00-.36-.13 23.49 23.49 0 01-3.09 1.45A26.75 26.75 0 0111 66a.07.07 0 00-.06.09.08.08 0 00.08.06 16.35 16.35 0 003.38-.75 23.51 23.51 0 003.22-1.29.26.26 0 00.09-.36zM14.73 63.48h.13a7 7 0 004-2.11.79.79 0 00.19-.84c-.18-.36-.7-.36-.87-.36a6.79 6.79 0 00-3.55 1.24 5.88 5.88 0 00-1.42 1.67l-.21.36h.41a6.62 6.62 0 001.32.04zM12.69 63.58a.27.27 0 00-.35-.15 22.13 22.13 0 01-3.14 1.31 25.5 25.5 0 01-3.33.77.09.09 0 00-.07.09.09.09 0 00.08.07 16.35 16.35 0 003.41-.6 23.6 23.6 0 003.28-1.15.26.26 0 00.12-.34zM29.09 60.68a1.65 1.65 0 00.5 0 .65.65 0 00.42-.21.78.78 0 000-.86 7 7 0 00-3.48-2.92 7 7 0 00-1.39-.31h-.41l.13.4a5.66 5.66 0 001 1.93 6.73 6.73 0 003.23 1.97zM21.23 54.27A22.52 22.52 0 0124 56.21a.27.27 0 10.34-.42 24.15 24.15 0 00-3-1.81 16.27 16.27 0 00-3.21-1.31.07.07 0 00-.09.05.1.1 0 000 .1 24.91 24.91 0 013.19 1.45zM20.59 56.38h-.41l.16.38a6 6 0 001.22 1.82A6.77 6.77 0 0025 60.22a1.62 1.62 0 00.4 0 .64.64 0 00.5-.27.78.78 0 00-.09-.86A7 7 0 0022 56.55a6.22 6.22 0 00-1.41-.17zM16.5 54.62a22.85 22.85 0 013 1.66.27.27 0 00.37-.08.28.28 0 00-.08-.38 24.41 24.41 0 00-3.13-1.52 16.66 16.66 0 00-3.32-1 .08.08 0 00-.09.07.08.08 0 00.06.08 27.35 27.35 0 013.19 1.17zM15.92 56.8l-.41.05.2.36a6 6 0 001.4 1.69 6.86 6.86 0 003.55 1.27h.25a.75.75 0 00.62-.34.81.81 0 00-.19-.85 7 7 0 00-4-2.14 6.21 6.21 0 00-1.42-.04zM11.67 55.48a22.16 22.16 0 013.13 1.34.27.27 0 00.25-.48 25.38 25.38 0 00-3.26-1.18 16.52 16.52 0 00-3.41-.63.08.08 0 00-.08.07s0 .08.06.08a26.94 26.94 0 013.31.8zM11.09 57.39l-.4.09.24.33a5.89 5.89 0 001.59 1.52 6.71 6.71 0 003.66.87c.2 0 .65-.1.79-.45a.8.8 0 00-.28-.81 7 7 0 00-4.22-1.69 6 6 0 00-1.38.14zM6.72 56.56a21.79 21.79 0 013.26 1 .27.27 0 00.35-.16.26.26 0 00-.16-.34 24.76 24.76 0 00-3.38-.8A16.66 16.66 0 003.33 56a.09.09 0 00-.08.08s0 .08.08.08a24.17 24.17 0 013.39.4zM7.84 60.63l-.35.22.34.24a6 6 0 002 .9 9.41 9.41 0 002.11 0 5.07 5.07 0 001.63-.44c.16-.07.62-.3.63-.7s-.17-.49-.53-.68A7 7 0 009.13 60a6.73 6.73 0 00-1.29.63zM7.12 60.87a.27.27 0 00-.27-.27 23.61 23.61 0 00-3.47.4 16.6 16.6 0 00-3.33.92A.08.08 0 000 62a.08.08 0 00.1 0 25.5 25.5 0 013.34-.73 22.72 22.72 0 013.4-.17.28.28 0 00.28-.23zM41.51 66.73a19.24 19.24 0 00-8.51-.15 18.16 18.16 0 00-6.91 3 16.7 16.7 0 00-4 4 1.46 1.46 0 00-.07.19l.09.11A26.45 26.45 0 0144 68.12v-.28a2.11 2.11 0 00-.44-.36 17.54 17.54 0 00-2.05-.75z" class="cls-1"/><path d="M49 69.27a26.83 26.83 0 00-4.68-3.46 24.55 24.55 0 00-5.34-2.37 18.4 18.4 0 00-5.82-.85.5.5 0 000 1 20.65 20.65 0 0110.74 2.88A24.68 24.68 0 0152.27 74a.24.24 0 00.33.08.26.26 0 00.08-.34A21.56 21.56 0 0049 69.27zM96.36 68.16a4 4 0 00-3.31-.37 28 28 0 014.22-10.27v-.06a.41.41 0 000-.09.28.28 0 000-.09.33.33 0 000-.1.36.36 0 000-.1.64.64 0 010-.07l-.06-.07a.27.27 0 00-.07-.08H96.9a.34.34 0 00-.1 0h-.16A29.09 29.09 0 0089.49 62a1 1 0 00-.21-.48 41.39 41.39 0 00.24-4.62 51 51 0 00-.35-5.73 1.8 1.8 0 00.09-1.52 1 1 0 00-.37-.55c-.24-1.56-.52-2.93-.76-4a1.59 1.59 0 00.11-1.3c-.12-.35-.3-.57-.52-.61h-.07c-.13-.5-.22-.79-.23-.8a.26.26 0 00-.11-.14 1.58 1.58 0 00-.2-1.22.23.23 0 00-.24-.1v-.12c0-2.11-5.77-3.37-11.34-3.37-5.13 0-10.41 1.07-11.21 2.88a.25.25 0 00-.18.13 7.78 7.78 0 00-.49 1.49c-.08.34-.18.7-.29 1.09l-.08.31a.47.47 0 00-.38.22 1.38 1.38 0 00-.05 1.41 39.91 39.91 0 00-.77 4.25.47.47 0 00-.39.21 1.56 1.56 0 00.16 1.89c-.14 1.56-.23 3.36-.24 5.46 0 1.24 0 2.38.11 3.47a8.53 8.53 0 106.88 14.56c.5.15 1 .29 1.59.41a9.24 9.24 0 006.09 2.3 9.25 9.25 0 006.56-2.71 5.5 5.5 0 001.75.3 5.42 5.42 0 001.32-.16 5.33 5.33 0 001.47-.62 5.54 5.54 0 005 3.12h.28a5.57 5.57 0 005.27-5.83 4.09 4.09 0 00-1.57-3.46zm-1-9.52a28.77 28.77 0 00-3.32 9 4.24 4.24 0 00-2.84 0 4.36 4.36 0 00-.81-.63.65.65 0 000-.21.24.24 0 00-.06-.11c.2-.78.38-1.64.54-2.56a28.52 28.52 0 016.51-5.49zm-31.1-1.11v-.82c0-1.36 0-2.66.11-4a19.09 19.09 0 003.1 1c0 .69-.08 1.58-.1 2.51a4.21 4.21 0 00-1.77.44 8.82 8.82 0 00-1.33.84zm3.1 1.28v.52a5.16 5.16 0 01-2-.62 2.52 2.52 0 01-.27-.18l-.27-.18a8.89 8.89 0 011.17-.74 3 3 0 011.29-.32c.09.52.09 1.04.1 1.52zm.5 0V57.3a4.13 4.13 0 011.1.21 2.19 2.19 0 011.36 1.09 3.76 3.76 0 01-.77.43 4.36 4.36 0 01-1.66.34c0-.2 0-.37-.01-.57zm-3.46 1.48a5.11 5.11 0 00-.05-1.11l.25.17a3.18 3.18 0 00.37.24 6.19 6.19 0 002.46.75c0 .45 0 .88.07 1.31a8.56 8.56 0 00-3.1-1.36zM68 62c0-.54-.06-1.1-.08-1.68a5.31 5.31 0 002-.42 4.19 4.19 0 001.35-.87.49.49 0 00.11-.55 3.24 3.24 0 00-2.08-2 4.45 4.45 0 00-1.45-.28c0-.89.05-1.74.09-2.4a30.44 30.44 0 005.17.67s-.06.07-.06.11C73 55.84 73 59 73 60.2s.19 4.71.2 4.9c-1.1-.06-2.08-.16-3-.29A8.58 8.58 0 0068 62zm3 5c.78.11 1.54.19 2.28.23v.32h-2.2a5 5 0 00-.08-.48zm4.14 1.55l-3.76 3.74a6.44 6.44 0 01-1.57-3.75zm.64.77v5.19a6.43 6.43 0 01-3.67-1.52zm-2-1.77v-.3H75.44c1.49 0 2.81-.09 4-.21v.28l-.08.21H73.8zm5.36 2.75l-1.74-1.74h1.69a5.66 5.66 0 00.07 1.81zm-2.38-1l3.66 3.68a6.41 6.41 0 01-3.68 1.5zm3.08-2.85c-1.3.14-2.75.24-4.41.26a32.55 32.55 0 01-4.56-.31 9.93 9.93 0 00-.4-1.2 36.7 36.7 0 004.62.34 25.58 25.58 0 006-.56 5.72 5.72 0 00-1.23 1.57zm-6.33-12h1.83c1.49 0 2.81-.08 4-.18 0 .43.07.85.11 1.25.1 1.14.2 2.21.2 3.46 0 1.76-.1 4.36-.22 5.75a26.64 26.64 0 01-4.35.29l-1.41-.05s-.17-3.72-.2-4.92 0-4.36.07-5.46a.25.25 0 00-.01-.02zm10.75 9A21.2 21.2 0 0180 64.81c.12-1.43.21-3.94.21-5.67 0-1.27-.1-2.36-.21-3.51 0-.39-.07-.81-.1-1.24a28.28 28.28 0 004.33-.71 36.51 36.51 0 01.44 4.59 42.41 42.41 0 01-.29 4.45l-.08.85s-.02.03-.02.05zm4.38-1.79c0 .39-.1.75-.16 1.12q-.57.63-1.11 1.32a10.28 10.28 0 01-1.46.81 3.79 3.79 0 00-1.81-.87 19.5 19.5 0 004.56-2.21zm-1.43.33a19.27 19.27 0 01-2.44 1.24l.06-.63a43.19 43.19 0 00.29-4.51 39.5 39.5 0 00-.45-4.71 12.52 12.52 0 002.77-1.1c.07.83.25 3.2.28 4.51a31 31 0 01-.51 5.17s.02.19.02.2zm-.57 3.13l-.18.27-.12-.13zm1.54-.39c-.12.6-.25 1.17-.38 1.7l-.06.06c-.21-.09-.4-.18-.62-.26a17.61 17.61 0 011.08-1.33zm.82-7.91a38.71 38.71 0 01-.23 4.46 1 1 0 00-.37.14l-.6.38a28.12 28.12 0 00.44-4.8c0-1.5-.27-4.38-.3-4.79a6.8 6.8 0 00.74-.57 47.71 47.71 0 01.32 5.18zM88.61 51c-.76.82-2.22 1.72-5 2.35l-.15-1.21v-.06a15.83 15.83 0 003.89-1.64h.08a.21.21 0 00.17-.16 9.84 9.84 0 00.87-.65c.02.37.08.86.14 1.37zm-8.9-.79a18.13 18.13 0 00-.23-2.25 28.17 28.17 0 004-.61l.52 4.02a25.07 25.07 0 01-4.24.94c-.04-.47-.02-1.56-.05-2.14zm4.25-3a12.34 12.34 0 002.39-.87l.71 3.66a14.72 14.72 0 01-2.62 1.21zm3.71-1.74c.23 1 .46 2.22.68 3.59a.39.39 0 00-.1.08 6.84 6.84 0 01-.74.59l-.68-3.54v-.08a5.71 5.71 0 00.84-.66zm-.38-1.63c.08.31.16.66.26 1.07a8.94 8.94 0 01-4.49 2l-.17-.91s0-.07-.06-.1a13 13 0 004.46-2.08zm-8 2.23v-.95l1.12-.12a.26.26 0 00.23.06l1.87-.32a.24.24 0 00.19-.15h.17l.26.72a22.82 22.82 0 01-3.86.74zm4.09-1.61a10.19 10.19 0 002.37-.92l.12.49a.2.2 0 00.08.13 13.73 13.73 0 01-2.33 1zm3.8-1.12a6.62 6.62 0 01-.83.59l-.15-.67a4.19 4.19 0 00.77-.65zm-.47-2c.08.16.26.57.06.8v.06a7.17 7.17 0 01-4 1.95l-.12-.73c2.01-.55 3.57-1.26 4.04-2.15zm-19-2.51c-1.38.43-2.27 1-2.27 1.72 0 1.71 5 2.64 9.79 2.64s9.77-1 9.77-2.71c0-1.36-3.17-2.22-6.84-2.52h-.08c-.93-.07-1.89-.11-2.84-.11h-1 1.27c6.39 0 10.84 1.51 10.84 2.87s-4.45 2.86-10.84 2.86-10.83-1.51-10.83-2.86c0-.72 1.12-1.42 3.05-1.96zm3.9 3.66a21 21 0 01-3.61-.7l14.24-2.61h.06a5.94 5.94 0 011.75.73zm12.8-2.11a.39.39 0 01.06.2c0 1-3.82 2.14-9.29 2.14h-1.86zm-17 1.09a.21.21 0 00-.16.11 2.41 2.41 0 01-1.2-.8l12.11-2.26a27.54 27.54 0 013.07.42zm-1.32-1.21c.63-.92 4.22-1.85 9.18-1.85H76zm-1.75 1c.86 1.8 6.1 2.85 11.19 2.85a36.22 36.22 0 004.61-.29l.13.73c-1.13.13-2.38.22-3.76.26a30.84 30.84 0 01-7.33-.54c-2.85-.61-4.35-1.53-4.8-2a.63.63 0 01-.17-.28 4.09 4.09 0 01.11-.77zm14.43 4.84a29.6 29.6 0 01-3.62.16h-1.28a9.4 9.4 0 01.19-.95h2.44c.79 0 1.52-.06 2.23-.12zm-5.22-.85a8.85 8.85 0 00-.18.94 27 27 0 01-4.37-.51l.22-.93a27.84 27.84 0 004.33.5zm-4.79-.6l-.22.92a13.74 13.74 0 01-2.7-.9c0-.18.12-.46.23-.83a16.15 16.15 0 002.69.81zm-4.94-1.59c0-.17.09-.32.13-.49a5.44 5.44 0 001.65 1.07c-.1.33-.17.61-.22.81a13 13 0 01-1.66-1c.03-.13.07-.26.1-.39zm-.24.9a13 13 0 001.78 1 .21.21 0 00.13.09h.06c2 .92 4.71 1.59 9.59 1.67a30.51 30.51 0 005.31-.38l.06.94a47.25 47.25 0 01-5.06.28A25 25 0 0165.52 46a.23.23 0 00-.16-.16.32.32 0 00-.13 0 10.6 10.6 0 01-1.83-1.06c.04-.3.11-.57.18-.78zm15.63 8.4a32.18 32.18 0 01-4.18.21h-1.42c0-.7-.07-3.36.06-4.46h1.78c1.3 0 2.47-.06 3.53-.14a17.34 17.34 0 01.23 2.23c.03.58.01 1.8 0 2.16zm-6.1.14a29.59 29.59 0 01-4.85-.6c0-.38.25-2.8.57-4.4a27.91 27.91 0 004.34.55c-.17 1.16-.08 3.69-.06 4.45zm-5.34-.72a14.48 14.48 0 01-3-1.09 30.59 30.59 0 01.72-4.17 17.85 17.85 0 002.89.91c-.38 1.51-.56 3.78-.61 4.35zm-4.52-6.5a10.71 10.71 0 001.74 1 30.66 30.66 0 00-.74 4.17 17.53 17.53 0 01-1.72-1.09 39.17 39.17 0 01.72-4.08zm-.79 4.64c2.33 1.63 5.26 3 12.56 3.15a31.69 31.69 0 006-.46l.1 1.1a47.27 47.27 0 01-5.73.36c-5.68.07-10.27-1.06-13-3.12 0-.33.03-.69.07-1.03zM62 50a3.11 3.11 0 000 .32v-.11a.65.65 0 010-.21zm.13 6.74c0-2 .09-3.65.21-5.13a12.12 12.12 0 001.59.94c-.12 1.4-.12 2.77-.12 4.21v.9a5.81 5.81 0 00-.4-.61.51.51 0 00-.71-.09.51.51 0 00-.09.7 3.88 3.88 0 01.84 2.53 7 7 0 00-.8 0h-.42c-.11-1.19-.15-2.28-.14-3.5zm-7 11.94a7.54 7.54 0 017.53-7.53h.66a6.49 6.49 0 01-.61 1.58 5.44 5.44 0 00-1.12.23.49.49 0 00-.32.63.5.5 0 00.47.35.41.41 0 00.16 0 5 5 0 012.31-.16.5.5 0 10.17-1 4.87 4.87 0 00-.55-.06 7.32 7.32 0 00.51-1.44 7.53 7.53 0 015.8 6.32h-2.66a.51.51 0 00-.5.5 9.28 9.28 0 001.55 5.16 7.51 7.51 0 01-13.44-4.63zm14.38 5.81l-.5-.15.18-.21zm6.81 2A8.3 8.3 0 0168 68.6h.82A7.47 7.47 0 0071 73.42a7.5 7.5 0 005.24 2.17 7.43 7.43 0 004.89-1.84 5.61 5.61 0 00.55.41l.14.07a8.23 8.23 0 01-5.54 2.19zm9.41-2.56a4.55 4.55 0 01-5-6.79 3.62 3.62 0 012.89-1.93 3 3 0 012.31 1.3c-.25.43-.48.86-.7 1.31a.5.5 0 00.23.67.54.54 0 00.22 0 .5.5 0 00.45-.28c.15-.31.32-.61.49-.91h.06A3.29 3.29 0 0189 69a3.16 3.16 0 01-.51 2.76 4.53 4.53 0 01-2.8 2.1zm10.06 1a4.48 4.48 0 01-3.15 1.5 4.58 4.58 0 01-4.38-2.7 5.48 5.48 0 001.13-1.31 4 4 0 00.59-3.64 1.14 1.14 0 00-.1-.19 3.53 3.53 0 012.06.12c0 .29-.07.58-.1.88a3.46 3.46 0 00-.73 0 1.66 1.66 0 001.2 1.1 1.81 1.81 0 001.59-.25 3.39 3.39 0 00-1.07-.63q0-.42.09-.84a3.3 3.3 0 012.91.12 3.13 3.13 0 011.13 2.57 4.51 4.51 0 01-1.21 3.17z" class="cls-1"/></g></g></g></svg>