<svg fill="currentColor" viewBox="0 0 185 79"><path stroke-linecap="round" stroke-miterlimit="10" stroke-width=".9284" d="M166.889 38.5676c-1.2 4.3 1.3 8.3 5.6 9.6 5 1.5 9.1-.8 10.6-4.5 1.9-4.9.2-10.9-3.4-14.7-7-7.3-18.9-8.8-30.1-5.2-6.9 2.2-7.2 7.8-4.8 9.5 2.8 2 8.2.2 8.1-6.9-.1-11.3-8-16-14.1-16.6-8.1-.8-13.5 4.9-18.6 6.8-5 1.9-9.1-3.6-5.6-6.1 1.7-1.2 4.4 1.6 2.1 3.1"/><path stroke-linecap="round" stroke-miterlimit="10" stroke-width=".9284" d="M173.689 42.2677c1.4-4.1-.8-8.8-4.2-11.5-3.5-2.7-7.9-3.7-12.2-4.4 1.1 1.5 2.1 3.2 2.9 4.9.4.9.7 1.8.7 2.8 0 1.5-1.3 4.1-3.8 3.2m-28.1-20.8001c.9-4.6 13.1-5.1 12.8 3.9-.2 6.7-9.5 8.7-12.3 3.8-1.6-2.8.4-4.3 2-4.4 1.3-.1 3.4 2.1 1 3.7m21.2-15.99997c.9-4.6 13.1-5.1 12.8 3.89997-.2 6.7-9.5 8.7-12.3 3.8-1.6-2.8.4-4.3 2-4.4 1.3-.1 3.4 2.1 1 3.7"/><path stroke-miterlimit="10" stroke-width=".9284" d="M170.289 15.6676c1.8-.1 4 2.1 4 2.1s-1.7 2.2-4.3 2.2c-1.6 0-3.4-2-3.4-2s1.6-2.2 3.7-2.3zm-2.999 2.4l7-.3M145.789 6.46753c-.6-1.7.7-4.5.7-4.5s2.6.9 3.4 3.4c.5 1.6-.8 3.9-.8 3.9s-2.6-.8-3.3-2.8zm3.2 2.1001l-2.4-6.5"/><path stroke-linecap="round" stroke-miterlimit="10" stroke-width=".9284" d="M17.6893 38.5674c1.2 4.3-1.3 8.3-5.6 9.6-4.99999 1.5-9.09999-.8-10.59999-4.5-1.900003-4.9-.2-10.9 3.4-14.7 6.99999-7.3 18.89999-8.8 30.09999-5.2 6.9 2.2 7.2 7.8 4.8 9.5-2.8 2-8.2.2-8.1-6.9.1-11.3 8-16 14.1-16.60004 8.1-.8 13.5 4.90004 18.6 6.80004 5 1.9 9.1-3.6 5.6-6.1-1.7-1.20004-4.4 1.6-2.1 3.1"/><path stroke-linecap="round" stroke-miterlimit="10" stroke-width=".9284" d="M10.8894 42.2674c-1.40002-4.1.8-8.8 4.2-11.5 3.5-2.7 7.9-3.7 12.2-4.4-1.1 1.5-2.1 3.2-2.9 4.9-.4.9-.7 1.8-.7 2.8 0 1.5 1.3 4.1 3.8 3.2m28.0997-20.8c-.9-4.6-13.1-5.1-12.8 3.9.2 6.7 9.5 8.7 12.3 3.8 1.6-2.8-.4-4.3-2-4.4-1.3-.1-3.4 2.1-1 3.7M30.8894 7.46739c-.9-4.6-13.1-5.1-12.8 3.90001.2 6.7 9.5 8.7 12.3 3.8 1.6-2.8-.4-4.3-2-4.4-1.3-.1-3.4 2.1-1 3.7"/><path stroke-miterlimit="10" stroke-width=".9284" d="M14.2896 15.6674c-1.8-.1-4 2.1-4 2.1s1.7 2.2 4.3 2.2c1.6 0 3.4-2 3.4-2s-1.6-2.2-3.7-2.3zm3 2.3999l-7-.3M38.7892 6.46753c.6-1.7-.7-4.5-.7-4.5s-2.6.9-3.4 3.4c-.5 1.6.8 3.9.8 3.9s2.6-.8 3.3-2.8zm-3.1998 2.1001l2.4-6.5"/><path stroke-linecap="round" stroke-linejoin="round" stroke-miterlimit="10" stroke-width=".9284" d="M74.3891 17.1675c-.9 1.8-2.6 3.3-4.6 3.9-2 .6-4.2.4-6-.6m46.4999-3.3c.9 1.8 2.6 3.3 4.6 3.9 2 .6 4.2.4 6-.6"/><path d="M104.189 19.4674c1.27 0 2.3-3.6713 2.3-8.2 0-4.52875-1.03-8.20002-2.3-8.20002-1.27 0-2.3 3.67127-2.3 8.20002 0 4.5287 1.03 8.2 2.3 8.2z"/><path d="M104.289 18.1675c.994 0 1.8-3.1787 1.8-7.1 0-3.92119-.806-7.09997-1.8-7.09997s-1.8 3.17878-1.8 7.09997c0 3.9213.806 7.1 1.8 7.1z"/><path stroke-linecap="round" stroke-linejoin="round" stroke-miterlimit="10" stroke-width=".6963" d="M103.19 2.86733c-.6-.1-2.4 2.7-2.2 9.19997.2 6.5 1.5 7.2 1.8 7.5M81.9894 2.76733c-.5.4-2.4 2.6-2.3 8.49997.1 6 1.6 7.9 1.9 8.1"/><path stroke-linecap="round" stroke-linejoin="round" stroke-miterlimit="10" stroke-width=".6963" d="M104.189 3.26738c-1.8-.5-5.2996-2.1-11.7996-2.2-6.4 0-10.2 1.7-11.3 2.1-1.1.4-2.5 3.5-2.5 7.70002 0 3.2.7 7 2.3 8.4 1.7.6 5.6 2.2 11.5 2.2s12.0996-2.3 12.0996-2.3"/><path d="M101.689 2.26747c.2-.2-.7-.6-1.1-.1-.4.5-2.1996 2.9-2.0996 9.00003 0 6.1 1.3 8.1 1.8996 8.9.4.4 1.5 0 1.1-.3-.9-1-2.0996-3.7-1.9996-8.8 0-5.10003.9996-7.10003 2.1996-8.70003zm-16.8995 0c.2-.2-.8-.6-1.2-.1-.4.5-2.5 2.9-2.4 9.00003.1 6.1 1.4 8.4 2.4 9.2.4.4 1.6.3 1.2 0-1-1-2.6-4.3-2.5-9.4.1-5.10003 1.2-7.10003 2.5-8.70003z"/><path d="M88.5893 1.36742c.2-.3-.7-.599996-1.2-.1-.4.5-2.9 3.2-2.8 9.89998.1 6.7 1.8 9.1 2.9 10 .5.4 1.5.2 1.2-.3-.8-1.1-2.9-4.3-2.8-9.9.1-5.59998 1.3-7.79998 2.7-9.59998zm9 .30005c.2-.3-.9-.6-1.3-.1s-2.3 2.9-2.2 9.60003c.1 6.7 1.4 9.1 2.5 10 .4.4 1.7 0 1.3-.3-1-1.1-2.7-4.3-2.6-9.9 0-5.70003.9-7.50003 2.3-9.30003z"/><path stroke-linecap="round" stroke-linejoin="round" stroke-miterlimit="10" stroke-width=".6963" d="M79.9893 9.76753c4.9-.4 16.8-.4 20.9997 0M80.5894 5.46732c6.3-1.2 16.1-1 20.9996 0M79.9893 13.6675c2.5.6 7.3.7 10.2.8 3.3.1 8 0 10.7997-.4m-20.0998 2.9999c1.3.6 6 1 10.3 1.2 4.1.2 8.9998-.4 10.3998-1m2-13.50007l2.9 12.39997m-4.3-10.89997l3.2 13.29997"/><path stroke-linecap="round" stroke-linejoin="round" stroke-miterlimit="10" stroke-width=".9284" d="M104.902 72.7c-1.5 3.8-5.8995 5.7-9.6995 4.2-3.8-1.5-5.7-5.9-4.2-9.7l13.8995 5.5z"/><path stroke-linecap="round" stroke-linejoin="round" stroke-miterlimit="10" stroke-width=".9284" d="M103.503 72.1999c-1.2 3.1-4.7003 4.6-7.7003 3.4-3-1.2-4.6-4.7-3.4-7.7l11.1003 4.3zM95.8027 75.5l2.1-5.5m2.3993 5.4L97.9023 70m-5.3999 2.4l5.4-2.4"/><path stroke-linecap="round" stroke-miterlimit="10" stroke-width=".9284" d="M127.003 72.6999c-.5-1.1-1.3-1.6-2.1-1.9-2.1-.8-4.2-1-6.3-.4-1.8.5-3.6 1.5-5.5 1.9-1.9.4-3.8.1-5.4-1.9m-50.0004 2.3c.6-1.1 1.4-1.6 2.3-1.9 2.2-.8 4.5-1 6.8-.4 2 .5 3.9 1.5 6 1.9 2.1.4 4.2.1 5.8-1.9"/><path d="M87.9028 76.7001c.9.9 2.4 1.2 3.6.5 1.5-.8 2.2-2.7 1.4-4.2-.8-1.5-2.1-1.8-3.5-.6-.9 0-1.6.3-2 .7"/><path stroke-linecap="round" stroke-linejoin="round" stroke-miterlimit="10" stroke-width=".9284" d="M87.9028 76.7001c.9.9 2.4 1.2 3.6.5 1.5-.8 2.2-2.7 1.4-4.2-.8-1.5-2.1-1.8-3.5-.6-.9 0-1.6.3-2 .7M88.9025 65s-.9 4.2.6 8.4"/><path d="M90.6027 73.1999c-.2.5-.5.6-.8.7-.3 0-.8 0-1-.5.4-.3.6-.4.8-.4.3-.1.6 0 1 .2z"/><path stroke-linecap="round" stroke-linejoin="round" stroke-miterlimit="10" stroke-width=".9284" d="M82.0027 74.7c-.2 1.7 1 3.3 2.7 3.5 1.7.2 3.3-1 3.5-2.7.2-1.7-.7-2.7-2.5-2.4-2.1-1.5-3.5-.2-3.7 1.6zm6.9-9.7s-3.5 4.1-3.6 9"/></svg>