<svg viewBox="0 0 206.81 142.45" fill="currentColor"><defs><style>.cls-1{fill:#53575a}.cls-2{fill:#54575a}.cls-3{fill:#f37f20}</style></defs><g id="Layer_2" data-name="Layer 2"><g id="Layer_1-2" data-name="Layer 1"><g id="Label"><path d="M21.73 100.49a1.79 1.79 0 01.08-.73 4 4 0 01.35-.8c.15-.31.34-.63.54-1a4.16 4.16 0 01-1.08-.57 3.62 3.62 0 01-.66-.61 2.48 2.48 0 01-.34-.51 1.47 1.47 0 01-.12-.27l-1.57-5.68a6 6 0 00-1.11-2.18A6.67 6.67 0 0016 86.61a6.23 6.23 0 00-2.24-.78 6 6 0 00-2.44.17l-1.16.32A5.85 5.85 0 008 87.43a6.44 6.44 0 00-1.55 1.82 6.52 6.52 0 00-.77 2.26A5.81 5.81 0 005.85 94l1.56 5.68a1.92 1.92 0 010 .33 2.19 2.19 0 010 .61 4 4 0 01-.25.84 4.41 4.41 0 01-.64 1c.32.18.62.37.92.55a4.46 4.46 0 01.71.52 2.42 2.42 0 01.48.57l1.61 5.83a5.79 5.79 0 001.11 2.2 6.1 6.1 0 001.82 1.54 6.58 6.58 0 002.26.77 5.79 5.79 0 002.44-.14L19 114a5.92 5.92 0 002.18-1.11 6.49 6.49 0 002.32-4.08 6 6 0 00-.17-2.44zm-2.56 8.42a1.85 1.85 0 01-1.25 1.09l-1.13.35a1.82 1.82 0 01-1.66-.35 2.66 2.66 0 01-1-1.41L12.56 103a1.54 1.54 0 01.1-.73 5.38 5.38 0 01.36-.81c.16-.31.33-.63.51-1a4.23 4.23 0 01-1.09-.57 3.89 3.89 0 01-.65-.61 3.13 3.13 0 01-.35-.51l-.12-.29-1.5-5.38a2.53 2.53 0 01.18-1.72 1.84 1.84 0 011.25-1.14l1.18-.32a1.88 1.88 0 011.64.33 2.5 2.5 0 011 1.4l1.51 5.45a2.16 2.16 0 010 .31 2.22 2.22 0 010 .61 3.56 3.56 0 01-.27.87 4.94 4.94 0 01-.66 1 10.19 10.19 0 01.91.52 4.47 4.47 0 01.71.49 2 2 0 01.47.56l1.57 5.67a2.56 2.56 0 01-.14 1.78zM36.41 104.71a5.78 5.78 0 01-.87.76 2.6 2.6 0 01-1 .46l-3.58.81-1.82-8a1.59 1.59 0 01.14-.73 4.6 4.6 0 01.4-.8c.17-.3.35-.61.55-.92a4.3 4.3 0 01-1.06-.62 4.18 4.18 0 01-.63-.64 2 2 0 01-.31-.53 1.25 1.25 0 01-.11-.29L26.06 85a3.11 3.11 0 010-1.28 2.38 2.38 0 01.67-1.27l-6.35 1.44a4 4 0 01.72.51 3.65 3.65 0 01.59.67 2.91 2.91 0 01.42 1l2.05 9.06a2 2 0 010 .27 1.7 1.7 0 010 .61 3.86 3.86 0 01-.3.86 4.28 4.28 0 01-.71 1c.34.19.65.39.94.59a4 4 0 01.68.55 1.57 1.57 0 01.42.6l2 9v.07a2.67 2.67 0 010 1c-.06.34-.13.67-.22 1a10.63 10.63 0 01-.4 1l10.73-2.43.05-6a5.7 5.7 0 01-.39.6 6.42 6.42 0 01-.55.86zM51.26 93a9.36 9.36 0 01.63-.91 4.51 4.51 0 01-1.06-.68 4 4 0 01-.61-.68 1.94 1.94 0 01-.28-.52c0-.14-.06-.24-.07-.29l-1-5.49a6.06 6.06 0 00-.87-2.32 6.4 6.4 0 00-1.63-1.69 6.16 6.16 0 00-2.15-1 6 6 0 00-2.47 0l-7.68 1.38c.28.34.53.67.77 1a6.91 6.91 0 01.59.84 2.45 2.45 0 01.34.78l1.57 8.75v.27a2.1 2.1 0 01-.07.61 3.84 3.84 0 01-.34.85 4.77 4.77 0 01-.75 1 7.92 7.92 0 01.9.63 3.61 3.61 0 01.66.57 1.66 1.66 0 01.39.62l1.6 8.91a2.85 2.85 0 010 1.09 10.1 10.1 0 01-.25 1 9.53 9.53 0 01-.39 1.14l7.72-1.38a5.9 5.9 0 002.27-.91 6.14 6.14 0 001.68-1.57 6.41 6.41 0 001-2.13 5.77 5.77 0 000-2.45l-1.07-6a1.72 1.72 0 01.15-.72 3.84 3.84 0 01.42-.7zm-3.83 9.7a2 2 0 01-1.33.86l-2.65.47L42 96a1.52 1.52 0 01.2-.73 7.36 7.36 0 01.48-.78c.21-.3.44-.61.7-.92a4.37 4.37 0 01-1.76-1.35 4.2 4.2 0 01-.44-.79l-1.36-7.56 2.65-.48a2 2 0 011.54.34 2 2 0 01.86 1.37l1 5.49a1.5 1.5 0 010 .28 2.58 2.58 0 01-.13.61 3.73 3.73 0 01-.39.87 6.52 6.52 0 01-.79 1c.35.2.68.41 1 .62a7.25 7.25 0 01.71.56 1.41 1.41 0 01.45.62l1.07 6a2 2 0 01-.36 1.5zM67.62 79.83a5.14 5.14 0 011 .44c.34.19.68.4 1 .62l-1.69-5.29L56 77a7.06 7.06 0 01.67.67 5.39 5.39 0 01.51.63 1.66 1.66 0 01.27.69l1.11 9.61a2.5 2.5 0 010 .28 2.41 2.41 0 01-.11.6 4.1 4.1 0 01-.4.83 4.22 4.22 0 01-.81 1 10.51 10.51 0 01.87.68 4 4 0 01.62.62 1.71 1.71 0 01.35.64l1.1 9.49a2.07 2.07 0 01-.1.88 7.3 7.3 0 01-.33.86c-.15.31-.31.61-.48.92l6.31-.73a5.21 5.21 0 01-.71-.7 4.66 4.66 0 01-.5-.75 2.57 2.57 0 01-.28-.89L63 92.89l3.76-.43a1.84 1.84 0 01.84.1 5.18 5.18 0 01.75.35 7.11 7.11 0 01.72.5l-.73-6.31a5.51 5.51 0 01-.66.7 3.57 3.57 0 01-.65.49 1.71 1.71 0 01-.72.26l-3.77.45-1-8.68 5-.58a2.73 2.73 0 011.08.09zM86.18 101.34a3.25 3.25 0 01-.33-.72c0-.08-.1-.4-.22-1l-.45-2.18c-.18-.87-.38-1.83-.6-2.87s-.44-2.06-.67-3.06a2 2 0 01.06-1.1 4.39 4.39 0 01.42-.93 7.28 7.28 0 01.67-.91 3.81 3.81 0 01-1-.53 3.14 3.14 0 01-.67-.63 2.75 2.75 0 01-.38-.64 3.7 3.7 0 01-.17-.5l-2-9.19a1.34 1.34 0 010-.81 5.92 5.92 0 01.34-.86 8.15 8.15 0 01.6-1l-9.65.7c.26.29.49.58.69.85a9 9 0 01.49.8 1.52 1.52 0 01.18.87c0 .13-.13 1-.26 2.72s-.27 3.86-.44 6.56a2.31 2.31 0 01-.21.87 3.28 3.28 0 01-.58.87 5.65 5.65 0 01-1.21.94c.28.3.55.59.81.89a8.5 8.5 0 01.57.89 1.81 1.81 0 01.23 1l-.61 9.39a3.13 3.13 0 01-.21.66c-.1.23-.2.45-.32.67a4.09 4.09 0 01-.5.7l6.34-.46a6.85 6.85 0 01-.68-.85 4.48 4.48 0 01-.47-.84 1.89 1.89 0 01-.17-1l.2-3.22 5.17-.37c.08.33.15.66.23 1s.15.61.23 1 .15.74.23 1.1a2.19 2.19 0 010 1 5 5 0 01-.34.93 5.87 5.87 0 01-.6.9l6.38-.46a4.37 4.37 0 01-.6-.7 7.8 7.8 0 01-.5-.48zm-9.94-7.73l1-14.42 3 14.13zM96.13 82.5a3.87 3.87 0 01-.61.72l6.44-.15a2.82 2.82 0 01-.64-.65 4.33 4.33 0 01-.45-.71 2.07 2.07 0 01-.22-.91c-.05-2.52-.64-4.34-1.74-5.46a6.33 6.33 0 00-4.86-1.61 6.28 6.28 0 00-4.79 1.83q-1.56 1.75-1.47 5.54a8.09 8.09 0 001 4.05 14.34 14.34 0 002.29 2.93 4.7 4.7 0 01.47.83 3.5 3.5 0 01.14 1.89c.36 0 .71-.06 1-.07a8.77 8.77 0 01.88 0 1.54 1.54 0 01.73.24 12.07 12.07 0 011.76 2.08 4.69 4.69 0 01.76 2.58 3 3 0 01-.68 2.24 2.42 2.42 0 01-1.74.78 2.31 2.31 0 01-1.77-.7 3.16 3.16 0 01-.63-2.17v-1a1.52 1.52 0 01.18-.74 4.51 4.51 0 01.41-.72 5.27 5.27 0 01.61-.75l-6.48.15a3.5 3.5 0 01.64.69 4.57 4.57 0 01.45.69 1.75 1.75 0 01.21.78v.77a12.53 12.53 0 00.49 3.45 5.24 5.24 0 001.28 2.19 4.48 4.48 0 002.07 1.14 10.2 10.2 0 002.88.28q6.39-.14 6.22-7.36a9.78 9.78 0 00-.32-2.33 8.41 8.41 0 00-.79-1.91 10.78 10.78 0 00-1.11-1.62 17.21 17.21 0 00-1.3-1.39 1.48 1.48 0 01-.29-.68c-.06-.29-.1-.58-.14-.87a7.78 7.78 0 010-1.09 5.46 5.46 0 01-1.34.09 3.62 3.62 0 01-1-.19 2.72 2.72 0 01-.74-.38A8.41 8.41 0 0192.49 83a5.13 5.13 0 01-.58-2.31 3.29 3.29 0 01.63-2.28 2.3 2.3 0 011.72-.78 2.19 2.19 0 011.71.7 3.21 3.21 0 01.74 2.25V81a1.71 1.71 0 01-.18.78 4.4 4.4 0 01-.4.72zM117.83 89.93a4.25 4.25 0 01.58-.68c.24-.25.51-.51.8-.76a5.4 5.4 0 01-.93-.92 3.26 3.26 0 01-.44-.8 1.71 1.71 0 01-.14-.58v-.28l.26-9.39a2.29 2.29 0 01.2-1 3.27 3.27 0 01.43-.71 4.9 4.9 0 01.64-.65l-6.38-.16a5.91 5.91 0 01.57.79 7.13 7.13 0 01.41.78 1.89 1.89 0 01.17.84l-.28 10.25-5.72-.11.28-10.29a2.47 2.47 0 01.2-1 3.27 3.27 0 01.43-.71 4.9 4.9 0 01.64-.65l-6.36-.17a5.91 5.91 0 01.57.79 7.13 7.13 0 01.41.78 1.89 1.89 0 01.17.84l-.25 9.39a1.69 1.69 0 000 .28 2 2 0 01-.19.58 3.87 3.87 0 01-.51.76 4.67 4.67 0 01-.94.84 9.41 9.41 0 01.76.8 4 4 0 01.53.69 1.76 1.76 0 01.25.69l-.26 9.63a2.19 2.19 0 01-.22.93 5.58 5.58 0 01-.45.77 5.9 5.9 0 01-.61.77l6.36.17a3.84 3.84 0 01-.61-.76 4 4 0 01-.38-.83 2.8 2.8 0 01-.15-1l.25-9.39 5.69.15-.25 9.47a2.19 2.19 0 01-.22.93 5.58 5.58 0 01-.45.77 5.9 5.9 0 01-.61.77l6.36.17a3.84 3.84 0 01-.61-.76 3.53 3.53 0 01-.38-.83 2.8 2.8 0 01-.15-1l.26-9.51a1.26 1.26 0 01.27-.69zM123 75.2a7.6 7.6 0 01.37.81 2.07 2.07 0 01.13.87l-.65 9.38a2 2 0 000 .27 2.23 2.23 0 01-.22.57 3.8 3.8 0 01-.54.74 4.54 4.54 0 01-1 .8 11 11 0 01.72.83 4 4 0 01.5.72 1.61 1.61 0 01.22.7l-.67 9.57a2.22 2.22 0 01-.26.92 6.89 6.89 0 01-.48.75 6.55 6.55 0 01-.64.73l6.46.46a3.55 3.55 0 01-.57-.79 3.6 3.6 0 01-.35-.84 2.89 2.89 0 01-.11-1l.67-9.49a1.6 1.6 0 01.32-.66 3.59 3.59 0 01.59-.64 10.05 10.05 0 01.83-.73 4.43 4.43 0 01-.85-.92 3.59 3.59 0 01-.43-.81 1.77 1.77 0 01-.14-.58v-.29l.66-9.45a2.45 2.45 0 01.25-.92 2.64 2.64 0 01.46-.71 2.76 2.76 0 01.66-.62l-6.45-.46a8.26 8.26 0 01.52.79zM145.53 90.05a3.59 3.59 0 01-.38-.81 2.42 2.42 0 01-.13-.6v-.32l.66-5.85a6 6 0 00-.22-2.44 6.59 6.59 0 00-1.1-2.1 6.24 6.24 0 00-1.79-1.56 6 6 0 00-2.33-.75l-1.2-.13a5.8 5.8 0 00-2.43.22 6.51 6.51 0 00-3.67 2.92 6.08 6.08 0 00-.75 2.33l-.65 5.86a2.78 2.78 0 01-.08.32 2 2 0 01-.26.56 3.81 3.81 0 01-.55.68 4.1 4.1 0 01-1 .74c.23.29.45.57.65.86a4.32 4.32 0 01.47.73 2.82 2.82 0 01.23.72l-.67 6a5.94 5.94 0 00.21 2.46 6.21 6.21 0 001.12 2.11 7 7 0 001.81 1.56 5.94 5.94 0 002.33.77l1.17.09a6 6 0 002.43-.22 6.22 6.22 0 002.11-1.12 6.46 6.46 0 001.56-1.81 6 6 0 00.75-2.33l.67-6a1.61 1.61 0 01.35-.65 3.31 3.31 0 01.62-.62 10.79 10.79 0 01.86-.69 4.24 4.24 0 01-.79-.93zm-3.92-7.8l-.61 5.62a1.86 1.86 0 01-.07.31 2.41 2.41 0 01-.26.56 3.65 3.65 0 01-.57.7 4.71 4.71 0 01-1 .73 10.16 10.16 0 01.65.82 4 4 0 01.47.72 2.19 2.19 0 01.24.69l-.66 5.86a2.54 2.54 0 01-.8 1.54 1.85 1.85 0 01-1.59.58l-1.17-.09a1.87 1.87 0 01-1.42-.94 2.57 2.57 0 01-.42-1.7l.64-5.77a1.56 1.56 0 01.37-.65 4.62 4.62 0 01.64-.61c.26-.23.53-.47.82-.7a4.06 4.06 0 01-.8-.93 3.63 3.63 0 01-.38-.81 2.42 2.42 0 01-.13-.6 1.49 1.49 0 010-.31l.63-5.62a2.49 2.49 0 01.78-1.54 1.86 1.86 0 011.59-.59l1.21.13a1.91 1.91 0 011.4.92 2.46 2.46 0 01.44 1.68zM163.91 93a4.63 4.63 0 01-.35-.87 2.1 2.1 0 01-.07-.61v-.27l1.59-9.42a1.69 1.69 0 01.32-.7 4.71 4.71 0 01.54-.62 5 5 0 01.74-.63l-6.31-1.06a6.44 6.44 0 01.49.83 4.94 4.94 0 01.31.77 1.69 1.69 0 01.07.76l-2.38 14.08-3.19-14.62a1.65 1.65 0 01.19-.9 4.12 4.12 0 01.53-.76 4.49 4.49 0 01.79-.7l-6.93-1.17c.17.3.31.6.45.91s.21.52.3.78a1.4 1.4 0 01.08.67l-1.59 9.46s0 .11-.07.27a1.63 1.63 0 01-.26.54 4 4 0 01-1.66 1.39c.24.3.45.6.64.89a3.5 3.5 0 01.42.79 1.83 1.83 0 01.15.73l-1.53 9.46a2.35 2.35 0 01-.36.91 4.69 4.69 0 01-.55.72 3.64 3.64 0 01-.74.63l6.31 1.06a4.13 4.13 0 01-.5-.8 3.71 3.71 0 01-.3-.82 2.44 2.44 0 010-1l2.5-14.85 3.36 15.28a2.18 2.18 0 01-.11 1.23 3.48 3.48 0 01-.53.88 2.91 2.91 0 01-.83.69L162 108a4.59 4.59 0 01-.48-.87 5.19 5.19 0 01-.3-.84 2.2 2.2 0 010-1l1.6-9.5a1.63 1.63 0 01.38-.62 3.6 3.6 0 01.65-.58 10.3 10.3 0 01.9-.64 4.34 4.34 0 01-.84-.95zM176.35 106.83a2.73 2.73 0 01-1.1 0l-5.17-1.17 1.77-7.83 3.73.84a2.15 2.15 0 01.89.4 3.06 3.06 0 01.57.57 3.43 3.43 0 01.4.69l1.41-6.2a4.91 4.91 0 01-.79.46 3.48 3.48 0 01-.77.25 2.16 2.16 0 01-.84 0l-3.73-.84 1.93-8.52 4.95 1.12h.11a3.11 3.11 0 01.92.53 10 10 0 01.76.69 11.34 11.34 0 01.72.88l.14-5.57-11.75-2.59c.14.29.27.6.39.92a6.69 6.69 0 01.25.86 2 2 0 010 .84l-2.07 9.17a2 2 0 01-.11.29 2.12 2.12 0 01-.32.53 3.67 3.67 0 01-.62.64 4.3 4.3 0 01-1.06.62c.22.32.42.63.59.93a3.83 3.83 0 01.38.79 1.67 1.67 0 01.12.72L166 106a2.48 2.48 0 01-.4.88 8.86 8.86 0 01-.62.8c-.25.27-.51.53-.78.79l11.8 2.62 2.27-5.08a6.66 6.66 0 01-.95.5 7.68 7.68 0 01-.97.32zM196.25 99.16l1.5-5.37a6 6 0 00.17-2.44 6.59 6.59 0 00-.74-2.23 6 6 0 00-1.52-1.8 6 6 0 00-2.2-1.12L186 84.11c.09.43.18.84.27 1.21a7.78 7.78 0 01.16 1 2.71 2.71 0 010 .84L184 95.74a1.26 1.26 0 01-.09.26 1.83 1.83 0 01-.32.52 4.26 4.26 0 01-.68.62 4.32 4.32 0 01-1.12.58c.21.33.39.65.55 1a4.09 4.09 0 01.34.81 1.77 1.77 0 01.08.73l-2.43 8.71a2.86 2.86 0 01-.47 1 10.12 10.12 0 01-.68.85c-.27.3-.56.58-.85.85l7.56 2.11a6 6 0 002.44.17 6.41 6.41 0 002.21-.74 6.19 6.19 0 001.77-1.51 5.94 5.94 0 001.12-2.18l1.62-5.83a1.82 1.82 0 01.44-.58 3.55 3.55 0 01.71-.51 10.92 10.92 0 011-.54 4.24 4.24 0 01-.65-1.08 3.68 3.68 0 01-.26-.88 1.73 1.73 0 010-.59zm-2.41-6.46l-1.5 5.38a1.59 1.59 0 01-.13.24 2.63 2.63 0 01-.38.5 3.66 3.66 0 01-.73.61 5.87 5.87 0 01-1.1.57c.23.33.43.66.61 1a6.92 6.92 0 01.4.82 1.47 1.47 0 01.14.75l-1.62 5.82a2.07 2.07 0 01-2.55 1.44l-2.59-.72 2.17-7.82a1.54 1.54 0 01.51-.57 8.11 8.11 0 01.76-.49 11.2 11.2 0 011-.52 4.38 4.38 0 01-1-2 5.28 5.28 0 01-.05-.91l2.06-7.4 2.59.72a2 2 0 011.25 1 2 2 0 01.16 1.58zM53.62 124.78c-2 0-3.36-1.47-3.36-4.15s1.4-4.14 3.36-4.14a2.71 2.71 0 012.79 2.2l.91-.27a3.68 3.68 0 00-3.7-2.8c-2.2 0-4.33 1.61-4.33 5s2.12 5 4.33 5a3.67 3.67 0 003.7-2.8l-.91-.27a2.71 2.71 0 01-2.79 2.23zM67.37 115.62c-2.3 0-4.3 1.9-4.3 5s2 5 4.3 5 4.3-1.91 4.3-5-2.01-5.01-4.3-5zm0 9.16c-1.84 0-3.34-1.4-3.34-4.15s1.5-4.15 3.34-4.15 3.33 1.4 3.33 4.15-1.5 4.15-3.33 4.15zM81.77 124.77c-2 0-3.36-1.47-3.36-4.14s1.4-4.15 3.36-4.15a2.7 2.7 0 012.79 2.2l.91-.27a3.67 3.67 0 00-3.7-2.8c-2.2 0-4.33 1.61-4.33 5s2.12 5 4.33 5a3.67 3.67 0 003.7-2.8l-.91-.27a2.7 2.7 0 01-2.79 2.23zM97.68 115.72H96.5l-3.82 4.19v-4.19h-.93v9.81h.93v-5.2l4.21 5.2h1.14l-4.37-5.41 4.02-4.4zM102.99 116.59h2.93v8.93h.93l-.01-8.93h2.93v-.87h-6.78v.87zM117 115.72l-3.54 9.8h1l1-2.79h4l1 2.79h.95l-3.54-9.8zm-1.31 6.15l1.72-4.89 1.72 4.88zM126.99 115.71h.92v9.81h-.92zM135.69 115.71h-.93v9.81h5.52v-.87h-4.59v-8.94zM149.18 119.92c-1.08-.49-2.06-1-2.06-2.11a1.34 1.34 0 011.42-1.35 1.67 1.67 0 011.62 1.12l.76-.47a2.35 2.35 0 00-2.38-1.51 2.24 2.24 0 00-2.34 2.28c0 1.37 1 2.11 2.16 2.66s2.13 1 2.13 2.31a1.71 1.71 0 01-1.77 1.91c-1.36 0-2-1.05-2.27-2.26l-.8.48a3.11 3.11 0 003.07 2.65 2.67 2.67 0 002.73-2.82c0-1.54-.99-2.31-2.27-2.89z" class="cls-1"/><path d="M37.74 60.79l-1.27 1 .81 1c.71.87.8 1.64 0 2.28s-1.64.31-2.33-.55l-4.43-5.46c-.67-.83-.72-1.65 0-2.28s1.55-.36 2.23.48l.84 1 1.28-1-.85-1.06c-1.34-1.64-2.88-2-4.41-.73s-1.88 2.9-.39 4.74l4.51 5.57c1.41 1.73 2.92 1.78 4.51.5s1.45-3.07.2-4.61zM43.65 60.14l-6.63-9.79-1.41.95 7.49 11.08 4.39-2.97-.87-1.28-2.97 2.01zM45.26 45.1l4.24 13 1.39-.77-1.27-3.71 2.46-1.36 2.5 3 1.57-.87L47.24 44zm3.89 7.19l-2-5.83.08-.05 3.93 4.77zM62.33 47.84a4.35 4.35 0 00-3.33-2.6l-1.38-.35a2.63 2.63 0 01-2.1-1.45c-.37-.82-.37-1.78.59-2.2s1.6.17 2 1l.23.53 1.43-.64-.25-.57c-.84-1.89-2.28-2.5-3.94-1.77-1.83.81-2.3 2.54-1.46 4.43a4 4 0 003.18 2.46l1.38.31a2.93 2.93 0 012.18 1.62c.49 1.1.52 2-.39 2.41-1.19.53-1.87-.49-2.23-1.31l-.11-.24-1.43.63.22.49c.92 2.08 2.45 2.61 4.11 1.88 2-.89 2.26-2.62 1.38-4.63zM70.93 44.77a4.37 4.37 0 00-3.13-2.89l-1.35-.47a2.63 2.63 0 01-2-1.62c-.29-.85-.21-1.81.78-2.15s1.58.31 1.88 1.18l.18.54 1.48-.51-.2-.59c-.67-1.95-2-2.69-3.77-2.11-1.89.65-2.51 2.34-1.84 4.29a4 4 0 003 2.73l1.35.42a3 3 0 012 1.81c.39 1.14.33 2-.61 2.37-1.23.42-1.82-.65-2.11-1.5l-.08-.25-1.48.5.17.51c.73 2.15 2.21 2.81 3.93 2.23 2.08-.71 2.49-2.41 1.78-4.49z" class="cls-2"/><path d="M73.33 33.86h1.7v13.37h-1.7z" class="cls-2" transform="rotate(-14.85 74.19815085 40.53313074)"/><path d="M85.3 40.45l-1.62.3.24 1.25c.21 1.11-.08 1.82-1.07 2s-1.59-.49-1.8-1.58l-1.31-6.91c-.2-1 .15-1.79 1.12-2s1.54.41 1.74 1.48l.25 1.31 1.61-.3-.25-1.34c-.39-2.08-1.6-3.09-3.53-2.73s-3 1.67-2.59 4l1.34 7c.41 2.2 1.72 3 3.73 2.58s2.73-2 2.36-4zM97.55 39.27l.07 1.29c.07 1.13-.31 1.8-1.32 1.86s-1.52-.7-1.58-1.81l-.39-7c-.06-1.07.37-1.76 1.37-1.82s1.46.61 1.53 1.69l.07 1.34 1.64-.1-.08-1.35c-.12-2.12-1.18-3.28-3.14-3.17s-3.22 1.25-3.08 3.62L93 41c.12 2.23 1.32 3.15 3.36 3s3-1.64 2.86-3.62l-.07-1.2zM106 30.07c-2.12-.07-3.22 1.26-3.29 3.28l-.24 7.26a2.88 2.88 0 003.05 3.29c2.1.07 3.22-1.38 3.28-3.35l.24-7c.08-2.01-.9-3.4-3.04-3.48zm1.1 10.54c0 1-.4 1.74-1.53 1.7s-1.42-.87-1.39-1.8l.24-7.18c0-1 .44-1.71 1.51-1.67s1.44.81 1.41 1.77zM115.34 31l-1.68-.2-1.6 13.27 5.25.63.18-1.53-3.56-.43L115.34 31zM124.52 32.44l-1.67-.34-2.67 13.1 5.19 1.05.31-1.51-3.52-.72 2.36-11.58zM133.16 36.06l3.45 1 .42-1.45-5.08-1.48-3.74 12.85 5.08 1.47.42-1.44-3.45-1.01 1.31-4.49 2.85.83.42-1.47-2.84-.83 1.16-3.98zM143.67 37.75c-1.84-.7-3.45-.18-4.3 2l-2.58 6.69c-.8 2.08-.09 3.42 1.82 4.15s3.38-.27 4.1-2.12l.43-1.13-1.54-.59-.46 1.25c-.41 1.06-1 1.51-2 1.15s-1.09-1.26-.69-2.29l2.55-6.57c.39-1 1.07-1.45 2-1.1s1.09 1.16.7 2.17l-.48 1.25 1.53.59.49-1.26c.76-1.94.26-3.48-1.57-4.19zM154.27 44.43l.68-1.39-5.61-2.71-.67 1.39 2.03.98-5.15 10.65 1.53.74 5.15-10.65 2.04.99z" class="cls-2"/><path d="M148.94 50.21h13.37v1.7h-13.37z" class="cls-2" transform="rotate(-60.35 155.61116745 51.0667509)"/><path d="M166.19 49.46c-1.76-1.18-3.39-.63-4.52 1l-4 6a2.88 2.88 0 00.85 4.41c1.74 1.17 3.46.52 4.55-1.11l3.88-5.8c1.1-1.61 1.05-3.32-.76-4.5zm-.63 3.54l-4 6c-.56.82-1.27 1.27-2.2.64s-.75-1.49-.23-2.27l4-6c.53-.79 1.27-1.21 2.16-.62a1.46 1.46 0 01.27 2.25zM176.15 57.22l-5.96 7.3-.04-.04 3.69-9.14-1.5-1.22-8.45 10.36 1.12.92 6.43-7.88.04.04-3.93 9.93 1.26 1.03 8.46-10.38-1.12-.92z" class="cls-2"/><g id="Title_top" data-name="Title top"><path d="M196.61 29.93C190 23 179 20.55 167.41 23.19a16.9 16.9 0 00-15.27-14.08c-6.21-.62-10.92 2.2-15.08 4.68a34.67 34.67 0 01-5.16 2.73 5.09 5.09 0 01-6.39-2.11 2.58 2.58 0 01.87-3.56 1.42 1.42 0 011.42 0 1.71 1.71 0 011 1.32 1.41 1.41 0 01-.75 1.18.5.5 0 00-.14.69.49.49 0 00.69.14 2.33 2.33 0 001.2-2.07 2.71 2.71 0 00-1.56-2.16 2.37 2.37 0 00-2.43.11 3.57 3.57 0 00-1.18 4.84 6.06 6.06 0 007.62 2.58 34 34 0 005.33-2.8c4-2.4 8.59-5.12 14.46-4.54a15.92 15.92 0 0114.39 13.32c-.92.23-1.84.49-2.76.79-5.55 1.77-6.68 5.21-6.91 6.61a4.63 4.63 0 001.55 4.5 5.33 5.33 0 005.55.28c2.57-1.32 4-4.28 4-8.13a26.33 26.33 0 00-.25-3.3c11.28-2.59 21.89-.24 28.3 6.44 4 4.16 5.48 10.46 3.61 15.31-1.31 3.38-5.23 6.25-10.77 4.58-4.44-1.35-6.82-5.42-5.66-9.69a.5.5 0 10-1-.27 8.89 8.89 0 006.33 10.91 11.69 11.69 0 003.43.53 8.86 8.86 0 008.56-5.7c2.01-5.23.45-11.96-3.8-16.39zm-33.21 4.79a4.31 4.31 0 01-4.5-.2 3.62 3.62 0 01-1.15-3.52c.19-1.22 1.2-4.21 6.22-5.82.88-.28 1.75-.53 2.63-.75a24.71 24.71 0 01.23 3.07c.04 3.5-1.21 6.08-3.43 7.22z" class="cls-3"/><path d="M173.37 28.22c4 .69 8.35 1.81 11.72 4.43s5.9 7.48 4.37 11.85a.48.48 0 00.3.63.5.5 0 00.64-.3c1.77-5-1.19-10.25-4.7-13-3.89-3-8.94-4.13-13.36-4.82l-1.22-.19.74 1a28.33 28.33 0 013.07 5.18 7 7 0 01.76 2.83 3.59 3.59 0 01-1.32 2.76 2.21 2.21 0 01-2.12.19.49.49 0 00-.64.3.5.5 0 00.3.64 3.17 3.17 0 003-.32 4.55 4.55 0 001.74-3.58 8.06 8.06 0 00-.85-3.24 30.62 30.62 0 00-2.43-4.36zM148.94 13c-3.33-.37-7.11 1-7.69 3.85a.5.5 0 00.4.58.48.48 0 00.58-.39c.41-2 3.37-3.4 6.6-3s6.36 2.39 6.25 7.1a6.69 6.69 0 01-5.29 6.25c-2.45.62-5.58.11-7-2.42a2.85 2.85 0 01-.35-2.79 2.49 2.49 0 012.03-1.18 1.91 1.91 0 011.68 1.31 1.55 1.55 0 01-.85 1.69.5.5 0 00-.14.69.51.51 0 00.7.14 2.48 2.48 0 001.25-2.83 2.94 2.94 0 00-2.68-2 3.45 3.45 0 00-2.89 1.66c-.41.73-.67 2 .35 3.77a6.64 6.64 0 006 3.17 9.08 9.08 0 002.17-.27 7.62 7.62 0 006.05-7.2c.09-5.4-3.64-7.74-7.17-8.13zM171.93 14.32a.49.49 0 00-.14.69.5.5 0 00.69.14 2.46 2.46 0 001.25-2.87 2.94 2.94 0 00-2.67-2 3.47 3.47 0 00-2.9 1.66c-.4.73-.67 2 .36 3.77a6.63 6.63 0 006 3.17 9.15 9.15 0 002.17-.27 7.6 7.6 0 006-7.2c.13-5.38-3.6-7.72-7.14-8.12-3.33-.37-7.11 1-7.68 3.85a.5.5 0 101 .19c.41-2 3.36-3.4 6.59-3s6.36 2.39 6.25 7.1a6.66 6.66 0 01-5.29 6.25c-2.45.62-5.57.11-7-2.42a2.85 2.85 0 01-.35-2.79 2.48 2.48 0 012.06-1.15 2 2 0 011.68 1.31 1.54 1.54 0 01-.88 1.69zM181.87 18.24l-.24.32.27.3c.09.1 2.1 2.29 4 2.29a6.83 6.83 0 005-2.57l.27-.35-.32-.31c-.11-.1-2.59-2.42-4.71-2.35-2.39.1-4.2 2.56-4.27 2.67zm4.13 1.91a4.16 4.16 0 01-2.28-1l5.62-.28a5.32 5.32 0 01-3.34 1.28zm.28-3.58a5.44 5.44 0 013 1.27l-6 .3a4.83 4.83 0 012.96-1.57zM183 18.44v.11l-.06-.05zM163.26 9.65l.39.13.2-.35c.06-.11 1.55-2.7 1-4.57a6.86 6.86 0 00-4-4l-.42-.15-.2.41c-.06.13-1.54 3.2-.81 5.2.83 2.31 3.72 3.29 3.84 3.33zm-.15-1.14h.11v.08zm.74-3.34a4.14 4.14 0 01-.29 2.49l-2-5.27a5.35 5.35 0 012.29 2.78zm-3.19-2.44l2.09 5.61a4.75 4.75 0 01-2.4-2.34 5.57 5.57 0 01.31-3.27zM79.82 14.87A3.59 3.59 0 0078.63 10a2.37 2.37 0 00-2.43-.11 2.68 2.68 0 00-1.55 2.16 2.3 2.3 0 001.19 2.07.5.5 0 10.55-.83 1.38 1.38 0 01-.74-1.18 1.69 1.69 0 011-1.32 1.42 1.42 0 011.42 0 2.59 2.59 0 01.86 3.56 5.07 5.07 0 01-6.39 2.11 34.67 34.67 0 01-5.16-2.73c-4.16-2.48-8.87-5.3-15.08-4.68A16.91 16.91 0 0037 23.19C25.43 20.55 14.48 23 7.84 29.93 3.59 34.36 2 41.09 4 46.29A8.87 8.87 0 0012.58 52a11.64 11.64 0 003.42-.54 8.89 8.89 0 006.34-10.91.5.5 0 00-1 .27c1.17 4.27-1.21 8.34-5.66 9.69-5.5 1.67-9.42-1.2-10.68-4.58-1.87-4.85-.39-11.15 3.6-15.31 6.41-6.68 17-9 28.31-6.44a24.57 24.57 0 00-.25 3.3c0 3.85 1.39 6.81 4 8.13a5.33 5.33 0 005.55-.28 4.64 4.64 0 001.54-4.5c-.22-1.4-1.36-4.84-6.9-6.61-.93-.3-1.85-.56-2.77-.79A15.93 15.93 0 0152.4 10.11c5.88-.59 10.44 2.14 14.47 4.54a33.44 33.44 0 005.32 2.8 6.06 6.06 0 007.63-2.58zm-39.35 10.3c5 1.61 6 4.61 6.23 5.82a3.63 3.63 0 01-1.16 3.53 4.31 4.31 0 01-4.5.2c-2.22-1.14-3.47-3.77-3.42-7.23a22.93 22.93 0 01.23-3.07c.87.22 1.75.47 2.62.75z" class="cls-3"/><path d="M32.58 27.83l.74-1-1.21.17c-4.43.69-9.48 1.8-13.37 4.82-3.5 2.72-6.47 7.93-4.7 13a.52.52 0 00.47.33.47.47 0 00.17 0 .5.5 0 00.32-.65c-1.54-4.37 1-9.27 4.36-11.85s7.73-3.74 11.73-4.43a29.73 29.73 0 00-2.48 4.35 8.11 8.11 0 00-.85 3.24 4.58 4.58 0 001.74 3.58 3.19 3.19 0 003.05.32.51.51 0 00.3-.64.5.5 0 00-.65-.3 2.21 2.21 0 01-2.12-.19 3.66 3.66 0 01-1.32-2.76 7 7 0 01.75-2.82 28.56 28.56 0 013.07-5.17zM60 20a3 3 0 00-2.67 2 2.47 2.47 0 001.25 2.87.5.5 0 00.55-.83 1.55 1.55 0 01-.85-1.73A1.94 1.94 0 0160 21a2.49 2.49 0 012 1.14 2.85 2.85 0 01-.35 2.79c-1.45 2.53-4.57 3-7 2.42a6.68 6.68 0 01-5.28-6.25c-.11-4.71 3.15-6.76 6.25-7.1s6.18 1 6.59 3a.5.5 0 001-.19c-.6-2.81-4.38-4.18-7.7-3.81-3.54.39-7.27 2.73-7.14 8.12a7.61 7.61 0 006 7.2 9.15 9.15 0 002.17.27 6.63 6.63 0 006-3.17c1-1.8.76-3 .36-3.77A3.49 3.49 0 0060 20zM27.78 18.61a9.17 9.17 0 002.18.27 6.61 6.61 0 006-3.17c1-1.79.76-3 .36-3.77a3.46 3.46 0 00-2.9-1.66 3 3 0 00-2.67 2A2.47 2.47 0 0032 15.15a.51.51 0 00.7-.14.5.5 0 00-.14-.69 1.56 1.56 0 01-.86-1.73 2 2 0 011.65-1.31 2.49 2.49 0 012.06 1.15 2.85 2.85 0 01-.35 2.79c-1.45 2.53-4.58 3-7 2.42a6.66 6.66 0 01-5.29-6.25c-.14-4.71 3.13-6.76 6.23-7.1s6.19 1 6.59 3a.51.51 0 00.59.4.5.5 0 00.39-.59C36 4.26 32.2 2.92 28.88 3.29c-3.53.4-7.26 2.74-7.14 8.12a7.6 7.6 0 006.04 7.2zM18.48 21.15c2 0 4-2.19 4.05-2.29l.27-.3-.23-.32c-.08-.11-1.89-2.57-4.34-2.67-2.13-.07-4.6 2.25-4.71 2.35l-.32.31.27.35a6.85 6.85 0 005.01 2.57zm0-1a5.33 5.33 0 01-3.34-1.31l5.62.28a4.13 4.13 0 01-2.28 1zm3-1.6v-.11l.05.06zm-.27-.41l-6-.3a5.45 5.45 0 013-1.27 4.8 4.8 0 012.96 1.57zM40.8 9.78l.38-.13c.12 0 3-1 3.86-3.32.72-2-.76-5.07-.82-5.2L44 .72l-.4.15a6.89 6.89 0 00-4 4c-.6 1.87.89 4.46 1 4.57zm.42-1.31h.11-.07s-.03.03-.04 0zM44.1 6a4.84 4.84 0 01-2.4 2.34l2.09-5.6A5.65 5.65 0 0144.1 6zm-3.51-.82a5.36 5.36 0 012.26-2.78l-2 5.27a4.22 4.22 0 01-.26-2.5zM83.19 17.25a.51.51 0 00-.68.21 7.81 7.81 0 01-10.7 3.3.5.5 0 00-.68.2.5.5 0 00.2.68 8.81 8.81 0 0012.07-3.72.49.49 0 00-.21-.67zM132.8 20.76a7.82 7.82 0 01-10.71-3.3.49.49 0 00-.67-.21.5.5 0 00-.22.67 8.92 8.92 0 005.26 4.41 8.73 8.73 0 002.59.38 8.86 8.86 0 004.23-1.07.5.5 0 00-.48-.88zM115.37 2.55s.06 0 .07-.07a.25.25 0 00-.13-.33 9.09 9.09 0 00-.92-.33.37.37 0 00-.24-.18l-.86-.23a33.5 33.5 0 00-5.46-1.09 1.09 1.09 0 00-.55-.06c-1.4-.15-3-.24-5-.26a30.84 30.84 0 00-12 2.13l-.33.13c-1.45.54-3 4.15-3 8.64 0 3.49.72 7.76 2.6 9.28a.41.41 0 00.11.07l.62.22 1 .33h.09A31.76 31.76 0 00102 22.63h.15a43.91 43.91 0 0011.65-1.69.38.38 0 00.22-.17h.12a1.49 1.49 0 00.72-.21.26.26 0 00.08-.35.26.26 0 00-.34-.08c-.11.07-.47.23-.69.05a5.28 5.28 0 01-1.43-2.7.34.34 0 000-.31.35.35 0 00-.12-.17l.52-.09a.26.26 0 00.15-.09c.46 2 1.16 3.32 1.94 3.32 1.38 0 2.49-4 2.49-8.85.04-4.45-.88-8.12-2.09-8.74zm.91 14.79l-2.57-10.82a8.88 8.88 0 01.63-2.12l2.49 10.79a11.72 11.72 0 01-.55 2.15zm-3-15.14a4.67 4.67 0 00-.63 1l-.74-.2a10.77 10.77 0 01.6-1l.58.15zm-1.54 14.62v.08a.43.43 0 000 .11l-.67.24-.15-.59-.22-1.25a.33.33 0 00-.06-.1c0-.29-.1-.57-.14-.88h.9c0 .31.06.63.1.92v.08zm.81 3.68a9.86 9.86 0 01-1.19-2.5h.08l.6-.22a6.25 6.25 0 001.29 2.56zm-4.61.92a9.81 9.81 0 01-1.5-2.8l3.56-.42h.07a7.22 7.22 0 001.24 2.63c-.9.17-2.03.4-3.31.59zm-14.13-.62a9 9 0 01-1.24-2.38c.53.1 2 .27 2.11.27a.34.34 0 00.22-.09 8.68 8.68 0 001.45 2.78c-.91-.17-1.77-.38-2.54-.58zM91 19.91A7.51 7.51 0 0190 18a2.6 2.6 0 00.73.09A.36.36 0 0091 18a8.12 8.12 0 001 2.31c-.32-.15-.69-.31-1-.4zm-.09-17.23c.37-.14.84-.32 1.41-.5-.14.22-.31.48-.48.81a.32.32 0 00-.27-.07s-.49.08-1 .22c.14-.14.24-.33.34-.46zm5.6-1.51a11 11 0 00-.74 1.16.34.34 0 00-.28-.07c-.6.09-1.72.32-2.1.4.23-.35.47-.68.71-1 .72-.17 1.52-.34 2.41-.49zm.66 1.63h.06a42.71 42.71 0 014.35-.29h.66c1.14 0 2.21 0 3.3.09a14.2 14.2 0 00-.73 2.16.33.33 0 00-.13 0c-1.07-.08-2.76-.11-4.13-.08-1.68 0-3.32.13-4.52.26a11.66 11.66 0 01.88-2.22.35.35 0 00.26.08zm14.28-1.09a8.38 8.38 0 00-.62 1.07 25.06 25.06 0 00-3.72-.66 12 12 0 01.66-1.06 31.78 31.78 0 013.68.65zm-4.65 1a.34.34 0 00.25.13 25.34 25.34 0 013.47.61 13.88 13.88 0 00-.63 2 .59.59 0 00-.14-.06c-1.41-.28-3.58-.47-3.67-.47H106a11.89 11.89 0 01.8-2.19zm4.52 9.36c0 .56 0 1.09.08 1.6h-.77a.33.33 0 00-.13 0 26.23 26.23 0 01-.12-2.76v-.88h.07a5.67 5.67 0 01.84.16c.01.68.01 1.27.03 1.9zm-21.6 5.09a17.47 17.47 0 01-.52-2.43h1.21c0 .33.08.64.13.94a.15.15 0 000 .07l.12 1.47a.35.35 0 00.07.15 2.51 2.51 0 01-.92-.19zm-.78-5.83v-1l1.18-.15a.35.35 0 00.11 0v1.12c0 1 .06 1.94.13 2.78h-1.2c-.16-.88-.16-1.75-.22-2.73zm4.34-8.51l.12.58s1.27-.26 2-.39a15.17 15.17 0 00-.77 2.11.35.35 0 00-.27-.08l-1.16.16-1 .13a9.63 9.63 0 011.08-2.49zM91.45 11v-.78h.08c.77-.07 2.18-.16 2.38-.17v1.16c0 1.12.07 2.12.16 3a.26.26 0 00-.15 0 11 11 0 01-1.43-.1l-.83-.09h-.1a25 25 0 01-.11-3.02zM92 6.06h.08L93.3 6c.44-.06.89-.12 1.16-.14A21.93 21.93 0 0094 9.69v-.37s-1.6.1-2.44.18A19.59 19.59 0 0192 6.06zm.36 11.69c0-.12-.07-.25-.11-.38a.22.22 0 00.08-.19l-.4-1.43a.27.27 0 00-.1-.17c0-.25-.09-.5-.13-.76l.76.08c.55.06 1 .11 1.39.11H94a.43.43 0 00.18-.06c0 .3.07.59.11.86a.26.26 0 00-.06.21l.37 1.47v.06c0 .06.07.26.11.4-.59-.07-1.75-.21-2.09-.28a.35.35 0 00-.28.08zM95.28 11a24.89 24.89 0 01.57-5.4.28.28 0 00.17.07c1.18-.13 2.82-.23 4.5-.26 1.32 0 3 0 4.05.08a25 25 0 00-.49 3.89.36.36 0 00-.27-.17c-.94-.09-3.44-.08-4.43-.06l-3.94.16v.75l3.92-.16c1 0 3.46 0 4.34.05a.37.37 0 00.32-.14v1.39c0 1.12.06 2.12.13 3h-.07l-1.12.09a27.45 27.45 0 01-2.76.17c-1.43 0-3.56-.08-4.64-.18a.36.36 0 00-.18 0 21.38 21.38 0 01-.1-3.28zm10.57-5.36a.32.32 0 00.17.06s2.22.2 3.58.47h.14a23 23 0 00-.38 3.17h-.09a34.66 34.66 0 00-3.85 0 24.23 24.23 0 01.43-3.73zm-.51 5.3v-1h.07a34.45 34.45 0 013.73 0h.1v1.28c0 1 0 1.83.1 2.62h-.14a11.76 11.76 0 01-1.83.2h-1.85v.69a26.57 26.57 0 01-.18-3.82zM90.15 4a.35.35 0 00.11 0h.14a6.87 6.87 0 011.11-.31 13.94 13.94 0 00-.66 2 6.23 6.23 0 00-.93.1h-.35A11.87 11.87 0 0190.15 4zm-.8 2.57l.65-.08.69-.1a19.53 19.53 0 00-.39 3.08.39.39 0 00-.3-.05l-1 .13a19.52 19.52 0 01.35-2.98zm7.11 11.66a17.14 17.14 0 01-.61-2l-.07-.33c-.06-.29-.12-.58-.18-.89 1.11.1 3.26.18 4.71.18a28 28 0 002.83-.17l1.11-.1h.07c0 .31.06.62.1.9a.23.23 0 00-.1.23l.34 1.52a.21.21 0 00.09.13c0 .12 0 .23.07.35a28.35 28.35 0 01-3.78.36 30.54 30.54 0 01-3.53-.22l-.68-.07a.39.39 0 00-.37.11zm9.31-2.36v-.06c-.06-.32-.11-.65-.16-1h1.9a12.76 12.76 0 002-.21c0 .27.05.52.08.76a.24.24 0 00-.1.23l.21 1.56a.22.22 0 00.21.18v.14l-3.45.41a.37.37 0 00-.18.08c-.05-.17-.11-.35-.16-.53v-.07zm5.57-6.33a6.4 6.4 0 00-.78-.15h-.12a22.54 22.54 0 01.38-3.19.31.31 0 00.1 0l.78.19a23.13 23.13 0 00-.36 3.15zm.51-3.82l-.75-.18h-.1a11.14 11.14 0 01.61-1.85l.77.2a15.43 15.43 0 00-.53 1.83zM106.44.93a7.82 7.82 0 00-.57 1h-.16a33.27 33.27 0 00-3.47-.1h-.66a43 43 0 00-4.3.28c.24-.38.49-.73.75-1.07a34.11 34.11 0 014.22-.21c1.61-.07 2.99 0 4.19.1zM90.11 3A11 11 0 0089 5.9a.4.4 0 00-.17.35.6.6 0 00.06.11 21.14 21.14 0 00-.42 3.43.39.39 0 000 .21v1.36a27.64 27.64 0 00.19 2.79.38.38 0 00-.07.21.37.37 0 00.13.28c0 .35.1.69.16 1h-.64a24.83 24.83 0 01-.49-4.8C87.7 6.39 89.19 3.5 90.11 3zm-1.38 14.54h.57a.37.37 0 00.09.27 10.64 10.64 0 00.81 1.85l-.2-.1a5 5 0 01-1.27-2.02zm13.42 4.34H102a32.49 32.49 0 01-3.71-.22 14.56 14.56 0 01-1.58-2.8l.65.07c1 .1 2.33.23 3.39.23h.25a28.16 28.16 0 003.9-.38.24.24 0 00.09 0 7.37 7.37 0 001.43 2.88 40.48 40.48 0 01-4.27.22zM112.59 15l-.56.1-.09-.85a.35.35 0 000-.18.36.36 0 00-.08-.2c0-.6-.08-1.2-.09-1.77s0-1.37 0-2a.41.41 0 000-.19 22.12 22.12 0 01.38-3.41.4.4 0 00.18-.22.42.42 0 00-.07-.31 14 14 0 01.61-2 .32.32 0 00.16-.2.41.41 0 000-.19 3.63 3.63 0 01.76-1.19h.11a.35.35 0 00.3-.06 4.12 4.12 0 01.53.18c-1.28.38-2.28 4.17-2.28 8.81a30.39 30.39 0 00.23 3.71.23.23 0 00-.09-.03zm2.6 3.73c-1 0-1.9-3.41-1.9-7.62 0-.91 0-1.78.11-2.59l2.34 9.84a.77.77 0 01-.55.34zm1.81-5.82l-2.1-9.34a.53.53 0 01.29-.1c1.06 0 1.91 3.41 1.91 7.61q0 .92-.1 1.83z" class="cls-3"/></g><g id="Drinks_01" data-name="Drinks 01"><path d="M24.83 74.74c0-.09-.08-.54-.19-1.21-.4-2.51-1.06-7.3-1.18-8.4v-.06a.38.38 0 00-.15-.22c-.21-.13-.67-.14-1.73 0s-2.21.46-3.53.83-2.53.77-3.45 1.13-1.38.63-1.5.85a.34.34 0 000 .26v.06c.47 1 2.4 5.43 3.37 7.79l.46 1.23a1.14 1.14 0 00.9.76H18a16.63 16.63 0 003.19-.65 13.86 13.86 0 003.16-1.17h.05a1.17 1.17 0 00.43-1.2zm-6.63-8.41a33.61 33.61 0 013.88-.89c-.59.24-1.47.56-2.65.92h-.14l-.9.26c-.41.12-.79.22-1.16.31l-.26.07-.8.19H16c-.61.13-1.12.23-1.5.28a34.25 34.25 0 013.7-1.14zM24 75.4a13.11 13.11 0 01-3 1.08 13.57 13.57 0 01-3.1.62.55.55 0 01-.45-.39L17 75.59c-.82-2-2.42-5.69-3.15-7.31a4.26 4.26 0 00.47 0 26.56 26.56 0 003.56-.78l.56-.15a33.29 33.29 0 003.45-1.13c.38-.15.72-.3 1-.43.22 1.75.78 5.78 1.12 7.88.1.67.17 1.11.19 1.2a.56.56 0 01-.2.53z" class="cls-3"/><path d="M20.27 70.05l-.38-1.5A.71.71 0 0019 68l-2 .51a.72.72 0 00-.51.87l.06.22a4.13 4.13 0 00-1.13.47l2.09 5.07c.23.56 5.88-1 5.78-1.63-.2-1.26-.37-2.15-.64-3.9a3.91 3.91 0 01-2.38.44zm-1.44.46l-.14.69-.92.23a.16.16 0 01-.15 0 .19.19 0 01-.1-.13l-.51-2a.21.21 0 01.15-.25l2-.52h.05a.2.2 0 01.2.15l.35 1.32h-.18a.62.62 0 00-.48.09.64.64 0 00-.27.42zm2.17 2.2a.15.15 0 01-.16.11l-1.71-.34a.13.13 0 01-.11-.16l.34-1.71a.11.11 0 01.06-.09.12.12 0 01.1 0l1.71.34a.14.14 0 01.11.16zM12.4 67.75c-.09-.22-.46-.5-1.42-1s-2.06-1-3.33-1.44a35.36 35.36 0 00-3.43-1.15c-1-.29-1.49-.33-1.72-.22a.34.34 0 00-.17.2v.06C2.08 65.33 1 70 .35 72.5c-.17.66-.28 1.09-.3 1.18a1.19 1.19 0 00.28 1.18 14.3 14.3 0 003.05 1.46 16.51 16.51 0 003.11.94h.21a1.17 1.17 0 001-.68l.57-1.08c1.18-2.26 3.51-6.49 4.08-7.45v-.06a.33.33 0 000-.26zm-5-1.83a32.83 32.83 0 013.65 1.61c-.38-.1-.87-.24-1.47-.43h-.16l-.78-.26-.26-.1-1.12-.41-.87-.34-.14-.06a27 27 0 01-2.55-1.16 33.06 33.06 0 013.72 1.15zm.3 9.33l-.56 1.07a.55.55 0 01-.49.35 13.78 13.78 0 01-3-.9A13.74 13.74 0 01.8 74.43a.56.56 0 01-.12-.59c0-.09.13-.52.3-1.18.52-2.06 1.45-6 1.83-7.75a8.18 8.18 0 00.93.52 33.09 33.09 0 003.34 1.45l.53.2a25.89 25.89 0 003.48 1.1l.46.09c-.89 1.54-2.82 5.06-3.83 6.98z" class="cls-3"/><path d="M8.81 69.15a.71.71 0 00-.43-.91l-1.94-.69a.7.7 0 00-.9.42L5 69.43a3.87 3.87 0 01-2.36-.62c-.43 1.72-.68 2.59-1 3.83-.15.59 5.33 2.69 5.61 2.15.6-1.13 1.72-3.28 2.55-4.85a4.23 4.23 0 00-1.08-.58zM6 72l-1.73.18a.14.14 0 01-.18-.18l-.18-1.74a.14.14 0 01.09-.13L5.76 70a.15.15 0 01.1 0 .21.21 0 01.06.1l.18 1.73A.15.15 0 016 72zm1.67-1a.17.17 0 01-.11.11.16.16 0 01-.15 0l-.9-.32-.1-.79a.62.62 0 00-.23-.43.65.65 0 00-.47-.13h-.18l.47-1.3a.22.22 0 01.22-.14l1.94.69a.21.21 0 01.13.27zM13.24 65l.18-4.14a.37.37 0 00-.35-.39.39.39 0 00-.4.36L12.49 65a.37.37 0 00.36.39.37.37 0 00.39-.39zM14.56 65.56a.4.4 0 00.29-.14l1.66-2.07a.38.38 0 00-.05-.53.37.37 0 00-.53.06L14.26 65a.38.38 0 00.06.53.41.41 0 00.24.03zM11 65.25a.36.36 0 00.31.16.42.42 0 00.21-.06.37.37 0 00.1-.52l-1.48-2.21a.37.37 0 00-.52-.1.38.38 0 00-.1.52z" class="cls-3"/></g><g id="Drinks_01-2" data-name="Drinks 01"><path d="M182.37 75.88a13.86 13.86 0 003.16 1.17 16.63 16.63 0 003.19.65h.21a1.14 1.14 0 00.9-.76l.47-1.13c1-2.36 2.9-6.79 3.38-7.79v-.06a.34.34 0 000-.26c-.12-.22-.5-.46-1.5-.85s-2.14-.76-3.45-1.13-2.57-.66-3.53-.83-1.52-.18-1.73 0a.36.36 0 00-.16.22v.06c-.12 1.1-.78 5.89-1.18 8.4-.1.67-.18 1.12-.19 1.21a1.17 1.17 0 00.43 1.1zm10-8.29c-.38 0-.89-.15-1.5-.28h-.17l-.79-.19-.27-.07-1.16-.31-.9-.26h-.14c-1.18-.36-2.06-.68-2.65-.92a33.61 33.61 0 013.88.89 34.25 34.25 0 013.72 1.14zm-9.79 7.24c0-.09.09-.53.19-1.2.34-2.1.9-6.13 1.12-7.88.25.13.59.28 1 .43a33.29 33.29 0 003.45 1.13l.56.15a26.56 26.56 0 003.56.78 4.26 4.26 0 00.47 0c-.73 1.62-2.33 5.31-3.15 7.31l-.47 1.13a.55.55 0 01-.45.39 13.57 13.57 0 01-3.1-.62 13.11 13.11 0 01-2.95-1.08.58.58 0 01-.21-.54z" class="cls-3"/><path d="M184.13 69.65c-.27 1.75-.44 2.64-.64 3.9-.1.6 5.55 2.19 5.78 1.63l2.09-5.07a4.13 4.13 0 00-1.13-.47l.06-.22a.72.72 0 00-.51-.87l-2-.51a.71.71 0 00-.86.51l-.38 1.5a3.91 3.91 0 01-2.41-.4zm3.58.45a.62.62 0 00-.48-.09h-.18l.36-1.37a.2.2 0 01.2-.15l2 .52a.2.2 0 01.15.25l-.51 2a.19.19 0 01-.1.13.16.16 0 01-.15 0l-.92-.23-.14-.69a.64.64 0 00-.23-.37zm-2.2.9a.14.14 0 01.11-.16l1.71-.34a.12.12 0 01.1 0 .1.1 0 01.06.09l.34 1.71a.13.13 0 01-.11.16l-1.71.34a.15.15 0 01-.16-.11zM194.42 67.76a.33.33 0 000 .26v.06c.57 1 2.9 5.19 4.08 7.45l.57 1.08a1.17 1.17 0 001 .68h.21a16.51 16.51 0 003.11-.94 14.3 14.3 0 003.05-1.46 1.21 1.21 0 00.29-1.18c0-.09-.14-.52-.31-1.18-.63-2.47-1.73-7.17-1.94-8.26v-.06a.34.34 0 00-.17-.2c-.23-.11-.68-.07-1.72.22a35.36 35.36 0 00-3.43 1.15c-1.27.49-2.46 1-3.33 1.44s-1.33.76-1.42 1zm8.75-3.08a27 27 0 01-2.55 1.16l-.14.06-.87.34-1.12.41-.26.1-.77.26h-.17c-.6.19-1.09.33-1.47.43a32.83 32.83 0 013.65-1.61 33.06 33.06 0 013.7-1.15zm-7.89 3.58l.46-.09a25.89 25.89 0 003.48-1.1l.53-.2a33.09 33.09 0 003.34-1.45 8.18 8.18 0 00.93-.52c.38 1.73 1.31 5.69 1.83 7.75.17.66.28 1.09.3 1.18a.56.56 0 01-.12.59 13.45 13.45 0 01-2.84 1.34 13.78 13.78 0 01-3 .9.53.53 0 01-.48-.35c0-.08-.26-.47-.57-1.07-1.06-1.91-2.99-5.43-3.86-6.98z" class="cls-3"/><path d="M198.08 69.36a4.23 4.23 0 00-1.08.58c.83 1.57 1.95 3.72 2.55 4.85.28.54 5.76-1.56 5.61-2.15-.32-1.24-.57-2.11-1-3.83a3.87 3.87 0 01-2.36.62l-.53-1.43a.7.7 0 00-.9-.42l-1.94.69a.71.71 0 00-.43.91zm2.64 2.45l.18-1.73a.14.14 0 010-.1.15.15 0 01.1 0l1.73.18a.14.14 0 01.12.15l-.13 1.69a.14.14 0 01-.15.12l-1.73-.12a.13.13 0 01-.12-.19zM198.47 69a.22.22 0 01.13-.27l1.94-.69h.05a.22.22 0 01.21.14l.48 1.33h-.18a.62.62 0 00-.7.56l-.07.7-.9.32a.16.16 0 01-.15 0 .2.2 0 01-.11-.11zM193.57 65l-.18-4.14a.37.37 0 01.36-.39.38.38 0 01.39.36l.18 4.14a.37.37 0 01-.36.39.38.38 0 01-.39-.36zM192.26 65.56a.41.41 0 01-.3-.14l-1.66-2.07a.37.37 0 01.06-.53.36.36 0 01.52.06l1.67 2.12a.38.38 0 01-.06.53.4.4 0 01-.23.03zM195.83 65.25a.36.36 0 01-.31.16.42.42 0 01-.21-.06.38.38 0 01-.1-.52l1.48-2.21a.37.37 0 01.62.42z" class="cls-3"/></g><g id="Title_mid" data-name="Title mid"><path d="M103.47 49.88l-.36-.3-.32.33c-.14.14-3.3 3.37-3.31 6.14 0 3.31 3.18 5.65 3.32 5.75l.31.22.3-.24c.13-.11 3.09-2.58 3.2-5.07.17-3.96-3.01-6.71-3.14-6.83zm-3 6.18c0-1.54 1.27-3.36 2.16-4.46v8.7a6.22 6.22 0 01-2.15-4.24zm3.12 4.16v-8.71a7.72 7.72 0 012 5.16c-.04 1.33-1.18 2.71-1.99 3.55zM109.18 58.49h.41c.11 0 2.72 0 3.87-1.31a6 6 0 001.26-4.78l-.08-.44h-.45c-.12 0-3.1.26-4.29 1.7-1.38 1.66-.83 4.29-.8 4.4zm3.54-2a3.33 3.33 0 01-1.77.83l2.83-3.49a4.48 4.48 0 01-1.06 2.67zm-2-2.17a4.45 4.45 0 012.28-1.13l-3 3.75a4 4 0 01.67-2.61zM96.06 58.48h.47l.09-.38c0-.1.6-2.67-.77-4.34-1.19-1.45-4.2-1.76-4.32-1.76l-.47-.05-.06.45a6.23 6.23 0 001.29 4.83c1.06 1.19 3.32 1.25 3.77 1.25zM92 53.88l3.35 3.56a3.74 3.74 0 01-2.35-.88 4.63 4.63 0 01-1-2.68zm3.8 2.58l-3-3.25a4.7 4.7 0 012.38 1.18 3.43 3.43 0 01.57 2.07zM121.35 60.28a1.21 1.21 0 00.43 0 5.23 5.23 0 002.5-1.4 4.45 4.45 0 00.84-1.44l.11-.3h-.31a4.48 4.48 0 00-1.07.19 5.35 5.35 0 00-2.73 2.12.59.59 0 000 .65.4.4 0 00.23.18zM125.76 57a18.37 18.37 0 012.18-1.4 20.19 20.19 0 012.39-1 .06.06 0 000-.11 12.27 12.27 0 00-2.48.9 19.28 19.28 0 00-2.3 1.29.21.21 0 10.25.33zM123.07 60.05a.59.59 0 000 .65 5.44 5.44 0 002.59 2.3 4 4 0 00.56.17 4.56 4.56 0 00.49.09h.31l-.09-.3a4.62 4.62 0 00-.74-1.5 5.14 5.14 0 00-2.4-1.56c-.14.01-.52-.09-.72.15zM129.6 65a15.75 15.75 0 01-2.08-1.54.21.21 0 10-.25.33 19.11 19.11 0 002.21 1.45 12.25 12.25 0 002.4 1.06.07.07 0 00.08 0 .07.07 0 000-.08A20.08 20.08 0 01129.6 65zM128.85 62.86a4.75 4.75 0 00.83.12h.32l-.11-.29a4.62 4.62 0 00-.85-1.43 5.23 5.23 0 00-2.52-1.38c-.12 0-.51-.08-.69.17a.58.58 0 000 .65 5.38 5.38 0 002.75 2.09zM132.72 64.47a16.15 16.15 0 01-2.2-1.37.2.2 0 00-.28.07.19.19 0 00.06.28 18.51 18.51 0 002.31 1.27 12.93 12.93 0 002.49.88.07.07 0 00.07 0 .07.07 0 000-.08 18.68 18.68 0 01-2.45-1.05zM132 63a4.75 4.75 0 00.83.12h.31l-.14-.32a4.62 4.62 0 00-.85-1.43 5.23 5.23 0 00-2.49-1.37c-.12 0-.51-.08-.69.17a.58.58 0 000 .65 5.3 5.3 0 002.75 2.08zM135.87 64.57a16.15 16.15 0 01-2.2-1.37.21.21 0 00-.28.06.2.2 0 00.06.29 19.9 19.9 0 002.31 1.27 12.26 12.26 0 002.49.87.06.06 0 00.07 0 .06.06 0 000-.08 18.68 18.68 0 01-2.45-1.04zM135.55 63.3h.1a4.7 4.7 0 001 .11h.32l-.13-.28a4.44 4.44 0 00-.91-1.4 5.19 5.19 0 00-2.57-1.26c-.13 0-.52-.06-.69.19a.61.61 0 00.07.66 5.34 5.34 0 002.81 1.98zM139.73 64.79a17.23 17.23 0 01-2.26-1.27.21.21 0 00-.28.07.22.22 0 00.07.29 20 20 0 002.36 1.12 12.62 12.62 0 002.52.77.08.08 0 00.07 0 .06.06 0 000-.07 19.23 19.23 0 01-2.48-.91zM127.37 57.14a5.44 5.44 0 00-2.9 1.88.62.62 0 00-.09.65.43.43 0 00.31.2 1.31 1.31 0 00.38 0 5.21 5.21 0 002.6-1.19 4.46 4.46 0 001-1.37l.13-.28h-.31a5.25 5.25 0 00-1.12.11zM129.08 56.63a.2.2 0 00-.07.28.21.21 0 00.29.07 17.23 17.23 0 012.29-1.21 19.18 19.18 0 012.46-.82.06.06 0 000-.12 12.42 12.42 0 00-2.54.7 16.74 16.74 0 00-2.4 1.1zM130.8 57.42a5.43 5.43 0 00-3.08 1.58.64.64 0 00-.15.64.51.51 0 00.36.25 1.24 1.24 0 00.3 0 5.15 5.15 0 002.71-.92 4.47 4.47 0 001.06-1.24l.16-.27h-.31a5 5 0 00-1.05-.04zM132.55 57.08a.2.2 0 00-.1.27.21.21 0 00.28.1 17.26 17.26 0 012.4-1 19.85 19.85 0 012.54-.57.06.06 0 00.05-.06.07.07 0 00-.07-.06 12.76 12.76 0 00-2.59.44 18.4 18.4 0 00-2.5.85zM134.29 58.06a5.3 5.3 0 00-3.22 1.25c-.21.23-.28.44-.21.62a.56.56 0 00.43.32h.19a5.14 5.14 0 002.79-.64 4.55 4.55 0 001.22-1.14l.18-.26-.3-.07a5.23 5.23 0 00-1.08-.08zM136.07 57.9a.21.21 0 00-.12.27.2.2 0 00.26.12 16.49 16.49 0 012.49-.72 18.54 18.54 0 012.58-.31.06.06 0 00.06 0 .07.07 0 00-.06-.07 12.21 12.21 0 00-2.63.17 17.4 17.4 0 00-2.57.59zM134.28 60.3c.06.28.4.37.54.41a5.17 5.17 0 002.84-.31 4.42 4.42 0 001.34-1l.21-.23-.29-.1a4.41 4.41 0 00-1.06-.23 5.29 5.29 0 00-3.34.88c-.2.19-.29.39-.24.58zM139.68 58.87a.21.21 0 00-.15.25.21.21 0 00.25.15 18.26 18.26 0 012.56-.44 18.79 18.79 0 012.6 0 .06.06 0 00.06 0 .08.08 0 00-.05-.07 12.85 12.85 0 00-2.63-.13 19.1 19.1 0 00-2.62.3zM139.49 62.65a4.55 4.55 0 001.59-.5l.28-.15-.24-.19a4.78 4.78 0 00-.92-.58 5.35 5.35 0 00-3.45-.28c-.28.1-.44.26-.46.46s.3.52.41.58a3.77 3.77 0 001.19.49 7.62 7.62 0 001.6.17zM146.88 63.48a12.59 12.59 0 00-2.43-1 18.79 18.79 0 00-2.57-.6.2.2 0 00-.22.18.21.21 0 00.18.23 17.13 17.13 0 012.56.44 19.78 19.78 0 012.45.86.06.06 0 00.07 0 .05.05 0 00-.04-.11zM126.52 66.87a13.92 13.92 0 00-5-2.89 14.52 14.52 0 00-6.44-.66 11.18 11.18 0 00-1.62.37 1.43 1.43 0 00-.37.23v.22a20.13 20.13 0 0116 6.34l.07-.07a.37.37 0 000-.15 12.69 12.69 0 00-2.64-3.39z" class="cls-3"/><path d="M121.71 61.83a.5.5 0 10.14-1 16.53 16.53 0 00-8.77 1.44 19.68 19.68 0 00-3.86 2.21 16.07 16.07 0 00-3.23 3 .25.25 0 000 .34.25.25 0 00.35 0 18.8 18.8 0 017-4.87 15.65 15.65 0 018.37-1.12zM82.84 58.88a5.2 5.2 0 002.49 1.4 1.27 1.27 0 00.44 0 .43.43 0 00.26-.16.59.59 0 000-.65 5.34 5.34 0 00-2.74-2.12 4.44 4.44 0 00-1.06-.19h-.31l.11.3a4.26 4.26 0 00.81 1.42zM79.18 55.63A19.22 19.22 0 0181.36 57a.21.21 0 00.29 0 .2.2 0 00-.05-.29 18.65 18.65 0 00-2.31-1.29 12.18 12.18 0 00-2.47-.9h-.07a.06.06 0 000 .07 20.33 20.33 0 012.43 1.04zM80.92 63.17a5 5 0 00.56-.17 5.37 5.37 0 002.58-2.3.6.6 0 000-.65c-.2-.24-.58-.14-.71-.11A5.11 5.11 0 0081 61.5a4.62 4.62 0 00-.74 1.5l-.09.3h.31s.17-.07.44-.13zM79.9 63.48a.21.21 0 00-.29 0A17.19 17.19 0 0177.52 65a19.43 19.43 0 01-2.32 1.18.07.07 0 000 .08.05.05 0 00.07 0 12.61 12.61 0 002.41-1.06 19.11 19.11 0 002.21-1.45.21.21 0 00.01-.27zM78.27 62.86l.23-.06a5.36 5.36 0 002.76-2.09.6.6 0 000-.65c-.18-.25-.57-.19-.7-.17a5.24 5.24 0 00-2.51 1.38 4.24 4.24 0 00-.85 1.43l-.11.29h.31a4.75 4.75 0 00.87-.13zM76.89 63.16a.2.2 0 00-.28-.07 16.15 16.15 0 01-2.2 1.37 18.68 18.68 0 01-2.4 1 .07.07 0 000 .08.07.07 0 00.07 0 12.61 12.61 0 002.48-.88 18.63 18.63 0 002.32-1.27.2.2 0 00.01-.23zM75.12 63l.23-.07a5.28 5.28 0 002.76-2.08.6.6 0 000-.65c-.18-.25-.57-.19-.7-.17a5.24 5.24 0 00-2.51 1.38 4.42 4.42 0 00-.85 1.43l-.11.29h.31a4.75 4.75 0 00.87-.13zM73.74 63.25a.21.21 0 00-.28-.06 16.15 16.15 0 01-2.2 1.37 18.68 18.68 0 01-2.4 1 .06.06 0 000 .08.06.06 0 00.07 0 12 12 0 002.48-.87 20 20 0 002.32-1.27.21.21 0 00.01-.25zM71.47 63.32h.09a5.36 5.36 0 002.85-2 .61.61 0 00.07-.66c-.17-.25-.56-.21-.69-.19a5.15 5.15 0 00-2.57 1.26 4.74 4.74 0 00-.92 1.4l-.12.28h.31a4.71 4.71 0 00.98-.09zM69.94 63.58a.21.21 0 00-.28-.07 17.9 17.9 0 01-2.26 1.27 19.23 19.23 0 01-2.44.89.06.06 0 000 .07.07.07 0 00.06 0 12.24 12.24 0 002.47-.74 18.56 18.56 0 002.37-1.16.22.22 0 00.08-.26zM79.45 58.7a5.21 5.21 0 002.6 1.19 1.32 1.32 0 00.38 0 .41.41 0 00.3-.2c.11-.17.08-.38-.08-.65a5.44 5.44 0 00-2.9-1.88 5.29 5.29 0 00-1.08-.1h-.31l.13.28a4.46 4.46 0 00.96 1.36zM75.53 55.77A17.23 17.23 0 0177.82 57a.21.21 0 00.29-.07.2.2 0 00-.07-.28 17.25 17.25 0 00-2.4-1.1 12.6 12.6 0 00-2.54-.7s-.07 0-.07.05a.06.06 0 000 .07 19.32 19.32 0 012.5.8zM75.24 57.42h-.31l.16.27A4.38 4.38 0 0076.17 59a5.18 5.18 0 002.71.92 1.32 1.32 0 00.31 0 .49.49 0 00.35-.25c.09-.18 0-.39-.15-.64a5.38 5.38 0 00-3.07-1.58 5 5 0 00-1.08-.03zM72 56.47a17.77 17.77 0 012.4 1 .2.2 0 00.27-.1.2.2 0 00-.09-.27 18.4 18.4 0 00-2.5-.85 12.74 12.74 0 00-2.6-.44.06.06 0 00-.06.06.06.06 0 000 .06 19.85 19.85 0 012.58.54zM71.75 58.17l-.31.07.19.26a4.62 4.62 0 001.21 1.14 5.17 5.17 0 002.8.64h.19a.56.56 0 00.43-.32c.07-.18 0-.39-.21-.62a5.35 5.35 0 00-3.23-1.25 5.09 5.09 0 00-1.07.08zM68.42 57.57a16.84 16.84 0 012.49.72.21.21 0 00.14-.39 17.82 17.82 0 00-2.58-.59 12.15 12.15 0 00-2.62-.17s-.06 0-.06.07a.06.06 0 00.06 0 18.73 18.73 0 012.57.36zM69.22 58.83a4.28 4.28 0 00-1.06.23l-.29.1.21.23a4.34 4.34 0 001.33 1 5.21 5.21 0 002.85.31c.15 0 .48-.13.55-.41s0-.39-.28-.59a5.31 5.31 0 00-3.31-.87zM64.78 58.83a18.51 18.51 0 012.56.44.19.19 0 00.24-.15.21.21 0 00-.15-.25 19.1 19.1 0 00-2.62-.3 12.82 12.82 0 00-2.63.13s-.06 0-.05.07a.06.06 0 00.06 0 18.79 18.79 0 012.59.06zM66 61.81l-.24.19.28.15a4.55 4.55 0 001.59.5 7.62 7.62 0 001.6-.17 3.87 3.87 0 001.19-.48c.11-.06.44-.27.41-.58s-.18-.36-.47-.46a5.31 5.31 0 00-3.44.28 4.78 4.78 0 00-.92.57zM65.48 62.05a.21.21 0 00-.23-.18 18.79 18.79 0 00-2.57.6 12.33 12.33 0 00-2.43 1 .06.06 0 000 .08.08.08 0 00.08 0 19.22 19.22 0 012.45-.86 16.91 16.91 0 012.56-.44.21.21 0 00.14-.2zM93.61 63.69a11.62 11.62 0 00-1.61-.37 14.49 14.49 0 00-6.43.66 13.92 13.92 0 00-5 2.89A12.72 12.72 0 0078 70.26a.66.66 0 000 .15l.07.07a20.12 20.12 0 0116-6.34v-.22a1.56 1.56 0 00-.46-.23z" class="cls-3"/><path d="M97.88 64.49A20 20 0 0094 62.28a16.57 16.57 0 00-8.78-1.44.49.49 0 00-.41.57.51.51 0 00.58.41A15.65 15.65 0 0193.73 63a18.8 18.8 0 017 4.87.25.25 0 00.38-.32 16.35 16.35 0 00-3.23-3.06z" class="cls-3"/></g><g id="Title_bottom" data-name="Title bottom"><path d="M113.52 136.23l-6.69-2.63-5.31-2.09-1.38-.55a.5.5 0 00-.65.29 7.59 7.59 0 00-.4 4.09 3.19 3.19 0 00-.47.26 16.54 16.54 0 01-.15-6.24.16.16 0 000-.07.33.33 0 000-.1.36.36 0 000-.1.3.3 0 000-.08.27.27 0 00-.07-.08.21.21 0 000-.06l-.09-.05a.24.24 0 00-.09 0h-.06a.21.21 0 00-.11 0h-.18l-.09.07a17.19 17.19 0 00-3.39 7.15 2.43 2.43 0 00-1.84 0 2.94 2.94 0 00-1.57 2.4 3.53 3.53 0 003.07 3.93 3.17 3.17 0 00.44 0 3.49 3.49 0 002.16-.74 3.91 3.91 0 00.57-.58 3.48 3.48 0 002.07.69 3.42 3.42 0 001.61-.39 3.38 3.38 0 001.34-1.23 7.93 7.93 0 001.77 1 7.71 7.71 0 0010-4.34.55.55 0 000-.38.47.47 0 00-.49-.17zm-11.13.81a3.65 3.65 0 00-.14-.35l-.06-.1 3.53-1.54-1.43 3.63a5.05 5.05 0 01-1.9-1.68zm-.75-4.41l3.75 1.48-3.67 1.59a5.17 5.17 0 01-.08-3.07zm5 2.79l1.56 3.59a5.16 5.16 0 01-3 0zm2.49 3.2l-1.6-3.67 3.75 1.48a5.11 5.11 0 01-2.14 2.19zm-8.88-6.54l.46.19a6.07 6.07 0 00-.16 2.9h-.13a2.13 2.13 0 00-.37 0 6.52 6.52 0 01.21-3.09zm-3.92 4.49a3.17 3.17 0 00-1.17-.12 15.3 15.3 0 012.09-5.3 17.45 17.45 0 00.41 4.79 2.62 2.62 0 00-1.32.63zm-.49 4.35a2.49 2.49 0 01-1.86.51 2.53 2.53 0 01-2.2-2.81 2 2 0 011-1.61 1.3 1.3 0 01.52-.1 1.78 1.78 0 01.77.19 6.3 6.3 0 000 .75.5.5 0 00.48.52.5.5 0 00.5-.49v-.43a1.69 1.69 0 011.41.33 1.76 1.76 0 01.35 1.46 2.54 2.54 0 01-.96 1.68zm5.67-1.85a2.54 2.54 0 01-4 1.2 3.52 3.52 0 00.26-.91 2.63 2.63 0 00-.57-2.22 2 2 0 01.7-.24c0 .1.07.2.1.29l-.19.17a.88.88 0 001 .51 1 1 0 00.78-.73 1.58 1.58 0 00-.59-.24 1.83 1.83 0 00-.08-.25 1.69 1.69 0 011.35-.52 1.75 1.75 0 011.11 1 2.54 2.54 0 01.14 1.94zm2.68 1.22a6.52 6.52 0 01-1.71-1 3 3 0 00.11-.52 6 6 0 001.77 1.09 6.24 6.24 0 002.28.44 6.34 6.34 0 002.48-.52 6.18 6.18 0 003.07-3l.47.19a6.7 6.7 0 01-8.46 3.32zM139.27 137.39a4.29 4.29 0 00-2.51-2.3 11.13 11.13 0 00-7.08-.5 24.5 24.5 0 00-2.77 1 19 19 0 01-3.12 1 5 5 0 01-5.3-1.84.5.5 0 10-.78.63 6 6 0 006.28 2.19 21 21 0 003.28-1.08 23.38 23.38 0 012.66-.93 10.1 10.1 0 016.45.46 3.33 3.33 0 012 1.79.5.5 0 00.46.29.51.51 0 00.2 0 .51.51 0 00.23-.71zM86.22 134.71a5.76 5.76 0 01-5.8 1.85 23.59 23.59 0 01-3.39-1 25.56 25.56 0 00-3-1 12.84 12.84 0 00-7.62.5 4.52 4.52 0 00-2.71 2.29.5.5 0 00.23.67.59.59 0 00.22 0 .49.49 0 00.45-.28 3.59 3.59 0 012.16-1.8 11.88 11.88 0 017-.46 26.21 26.21 0 012.89.93 23.29 23.29 0 003.54 1.08 6.79 6.79 0 006.81-2.13.5.5 0 10-.76-.65z" class="cls-3"/></g></g></g></g></svg>