<svg viewBox="0 0 86.71 20.9" fill="currentColor"><defs><style>.cls-1{fill:#f37f20}</style></defs><g id="Layer_2" data-name="Layer 2"><g id="Layer_1-2" data-name="Layer 1"><g id="Title_mid" data-name="Title mid"><path d="M43.26.3l-.35-.3-.33.33c-.13.14-3.3 3.37-3.31 6.14 0 3.31 3.19 5.65 3.32 5.75l.32.22.29-.24c.13-.11 3.09-2.58 3.2-5.07.18-3.96-3-6.71-3.14-6.83zm-3 6.17c0-1.53 1.27-3.35 2.16-4.45v8.7a6.29 6.29 0 01-2.15-4.25zm3.12 4.17V1.93a7.72 7.72 0 012 5.16c-.03 1.31-1.17 2.7-1.99 3.55zM49 8.9h.4c.11 0 2.73 0 3.88-1.32a6 6 0 001.26-4.77l-.09-.44h-.44c-.13 0-3.11.25-4.3 1.7-1.37 1.66-.82 4.29-.8 4.4zm3.53-2a3.36 3.36 0 01-1.77.82l2.83-3.48a4.44 4.44 0 01-1.08 2.68zm-2-2.18a4.48 4.48 0 012.34-1.13l-3 3.74a3.92 3.92 0 01.6-2.59zM35.86 8.9h.46l.09-.38c0-.11.61-2.67-.77-4.34-1.18-1.44-4.19-1.75-4.32-1.76l-.46-.05-.08.46a6.21 6.21 0 001.3 4.83c1.06 1.18 3.33 1.24 3.78 1.24zm-4.11-4.6l3.34 3.55A3.78 3.78 0 0132.82 7a4.61 4.61 0 01-1.07-2.7zm3.8 2.58l-3.06-3.25a4.7 4.7 0 012.38 1.18 3.44 3.44 0 01.68 2.07zM61.14 10.7a1.27 1.27 0 00.44 0 5.32 5.32 0 002.5-1.4 4.55 4.55 0 00.84-1.45l.1-.29h-.31a4.44 4.44 0 00-1.06.19 5.36 5.36 0 00-2.74 2.11.61.61 0 000 .66.43.43 0 00.23.18zM65.55 7.45a17.3 17.3 0 012.19-1.4 19.5 19.5 0 012.39-1 .07.07 0 000-.07.06.06 0 00-.08 0 12.18 12.18 0 00-2.47.9 17.83 17.83 0 00-2.3 1.29.22.22 0 000 .29.21.21 0 00.27-.01zM62.86 10.46a.62.62 0 000 .66 5.3 5.3 0 002.58 2.29 3.61 3.61 0 00.56.18c.27.06.48.09.49.09h.31l-.09-.3a4.32 4.32 0 00-.74-1.5 5.11 5.11 0 00-2.39-1.56c-.14 0-.52-.09-.72.14zM69.39 15.41a18.32 18.32 0 01-2.08-1.54.21.21 0 10-.25.33 19.11 19.11 0 002.21 1.45 12.61 12.61 0 002.41 1.06.05.05 0 00.07 0 .06.06 0 000-.08 19.43 19.43 0 01-2.36-1.22zM68.65 13.28a4.57 4.57 0 00.82.12h.32l-.11-.29a4.51 4.51 0 00-.86-1.43 5.24 5.24 0 00-2.51-1.38c-.13 0-.52-.08-.7.17a.62.62 0 000 .65 5.28 5.28 0 002.76 2.08zM72.51 14.89a17.92 17.92 0 01-2.2-1.37.21.21 0 00-.23.35 20 20 0 002.32 1.27 12.17 12.17 0 002.48.87A.06.06 0 0075 16a.05.05 0 000-.07 18.68 18.68 0 01-2.49-1.04zM71.8 13.38a4.57 4.57 0 00.82.12h.32l-.11-.29a4.63 4.63 0 00-.83-1.43 5.21 5.21 0 00-2.51-1.37c-.13 0-.52-.09-.7.16a.63.63 0 000 .66 5.34 5.34 0 002.76 2.08zM75.66 15a17.92 17.92 0 01-2.2-1.37.21.21 0 00-.23.35 20 20 0 002.32 1.27 12.17 12.17 0 002.45.85.06.06 0 000-.11 18.68 18.68 0 01-2.34-.99zM75.35 13.71h.1a4.64 4.64 0 001 .11h.31l-.12-.29a4.42 4.42 0 00-.92-1.39 5.15 5.15 0 00-2.57-1.26c-.13 0-.52-.07-.69.19a.61.61 0 00.07.65 5.29 5.29 0 002.82 1.99zM79.52 15.21a16.7 16.7 0 01-2.25-1.28.21.21 0 00-.27.07.21.21 0 00.08.28 17.38 17.38 0 002.37 1.17 12.21 12.21 0 002.52.76.06.06 0 00.07 0 .07.07 0 000-.07 18.82 18.82 0 01-2.52-.93zM67.17 7.56a5.4 5.4 0 00-2.91 1.88.6.6 0 00-.08.65.44.44 0 00.3.2 1.32 1.32 0 00.38 0 5.28 5.28 0 002.61-1.19 4.56 4.56 0 001-1.37l.13-.28h-.31a4.5 4.5 0 00-1.12.11zM68.87 7.05a.21.21 0 00-.06.28.2.2 0 00.28.07 17.3 17.3 0 012.29-1.21 19.32 19.32 0 012.47-.82.06.06 0 000-.07.06.06 0 00-.06 0 12.4 12.4 0 00-2.54.69A19.38 19.38 0 0068.88 7zM70.59 7.84a5.32 5.32 0 00-3.07 1.58c-.19.25-.24.46-.15.64a.49.49 0 00.36.25 1.24 1.24 0 00.3 0 5.27 5.27 0 002.71-.92 4.65 4.65 0 001.09-1.27l.17-.24h-.31a5 5 0 00-1.1-.04zM72.34 7.5a.2.2 0 00-.09.27.2.2 0 00.27.1 17.38 17.38 0 012.41-1 17.84 17.84 0 012.53-.57.06.06 0 00.05-.06.06.06 0 00-.06-.06 12.09 12.09 0 00-2.6.44 18.88 18.88 0 00-2.5.85zM74.09 8.48a5.3 5.3 0 00-3.22 1.25.61.61 0 00-.22.62.58.58 0 00.43.32h.2a5.16 5.16 0 002.79-.64 4.45 4.45 0 001.21-1.15l.19-.25-.31-.07a5 5 0 00-1.07-.08zM75.86 8.32a.21.21 0 00-.12.26.22.22 0 00.27.13A16.53 16.53 0 0178.5 8a18.36 18.36 0 012.58-.3.06.06 0 000-.12 12.87 12.87 0 00-2.63.16 19.29 19.29 0 00-2.58.6zM74.07 10.72c.07.27.4.37.55.4a5.12 5.12 0 002.85-.32 4.36 4.36 0 001.33-1l.22-.23-.3-.1a4.45 4.45 0 00-1-.24 5.39 5.39 0 00-3.35.89c-.25.21-.37.4-.3.6zM79.48 9.29a.2.2 0 00-.15.25.21.21 0 00.25.15 15.82 15.82 0 012.55-.44 18.79 18.79 0 012.6 0 .06.06 0 00.06-.05s0-.06-.05-.07A12.09 12.09 0 0082.12 9a17.93 17.93 0 00-2.63.29zM79.28 13.06a4.39 4.39 0 001.6-.49l.27-.15-.24-.2a5.13 5.13 0 00-.91-.57 5.42 5.42 0 00-3.45-.29c-.29.11-.45.27-.47.47s.31.51.41.58a3.83 3.83 0 001.2.49 6.89 6.89 0 001.59.16zM86.68 13.89a13 13 0 00-2.44-1 18.79 18.79 0 00-2.57-.6.22.22 0 00-.23.18.21.21 0 00.19.23 17 17 0 012.55.44 19.92 19.92 0 012.46.86.06.06 0 00.05-.11zM66.31 17.29a13.81 13.81 0 00-4.94-2.89 14.69 14.69 0 00-6.44-.67 13.27 13.27 0 00-1.63.38 1.56 1.56 0 00-.36.23v.21a20.15 20.15 0 0116 6.35l.07-.07a.66.66 0 000-.15 12.72 12.72 0 00-2.7-3.39z" class="cls-1"/><path d="M61.51 12.25a.49.49 0 00.56-.42.5.5 0 00-.42-.57 16.39 16.39 0 00-8.78 1.44A20 20 0 0049 14.91a16.06 16.06 0 00-3.23 3 .26.26 0 000 .34.25.25 0 00.35 0 18.91 18.91 0 017-4.87 15.64 15.64 0 018.39-1.13zM22.63 9.3a5.32 5.32 0 002.5 1.4 1.21 1.21 0 00.43 0 .45.45 0 00.27-.16.63.63 0 000-.66 5.33 5.33 0 00-2.73-2.11 4.44 4.44 0 00-1.1-.19h-.32l.11.29a4.55 4.55 0 00.84 1.43zM19 6.05a17.3 17.3 0 012.19 1.4.19.19 0 00.28 0 .21.21 0 000-.29 19.28 19.28 0 00-2.3-1.29 12.27 12.27 0 00-2.48-.9.06.06 0 00-.07 0 .07.07 0 000 .07A20.19 20.19 0 0119 6.05zM20.71 13.59a3 3 0 00.56-.18 5.28 5.28 0 002.59-2.29.62.62 0 000-.66.71.71 0 00-.71-.1 5.19 5.19 0 00-2.4 1.56 4.74 4.74 0 00-.74 1.5l-.08.3h.31s.21-.07.47-.13zM19.69 13.9a.19.19 0 00-.28 0 17.58 17.58 0 01-2.09 1.54A19.3 19.3 0 0115 16.59a.06.06 0 000 .08.05.05 0 00.07 0 12.61 12.61 0 002.41-1.06 19.88 19.88 0 002.2-1.45.2.2 0 00.01-.26zM18.06 13.28l.24-.07a5.32 5.32 0 002.76-2.08.59.59 0 000-.65c-.18-.25-.56-.19-.69-.17a5.2 5.2 0 00-2.51 1.38 4.51 4.51 0 00-.86 1.43l-.11.29h.31a4.75 4.75 0 00.86-.13zM16.69 13.57a.22.22 0 00-.29-.06 17.2 17.2 0 01-2.2 1.37 18.68 18.68 0 01-2.4 1 .05.05 0 000 .07.06.06 0 00.07 0 12.39 12.39 0 002.48-.87 19.9 19.9 0 002.31-1.27.21.21 0 00.03-.24zM14.91 13.38l.24-.07a5.34 5.34 0 002.76-2.08.63.63 0 000-.66c-.19-.25-.57-.18-.7-.16a5.17 5.17 0 00-2.51 1.37 4.63 4.63 0 00-.86 1.44l-.11.29h.31a4.75 4.75 0 00.87-.13zM13.54 13.67a.22.22 0 00-.29-.06A17.2 17.2 0 0111 15a18.11 18.11 0 01-2.4 1 .05.05 0 000 .07.06.06 0 00.07 0 12.39 12.39 0 002.48-.87 19.9 19.9 0 002.32-1.2.21.21 0 00.07-.33zM11.26 13.74h.1a5.29 5.29 0 002.85-2 .61.61 0 00.06-.65c-.17-.26-.56-.21-.68-.19A5.15 5.15 0 0011 12.17a4.42 4.42 0 00-.92 1.39l-.13.29h.32a4.7 4.7 0 00.99-.11zM9.73 14a.2.2 0 00-.28-.07 16.21 16.21 0 01-2.26 1.28 18.17 18.17 0 01-2.44.89.06.06 0 000 .11 12.4 12.4 0 002.52-.76 18 18 0 002.37-1.17.2.2 0 00.09-.28zM19.24 9.12a5.24 5.24 0 002.61 1.19 1.32 1.32 0 00.38 0 .46.46 0 00.3-.2.62.62 0 00-.09-.65 5.34 5.34 0 00-2.9-1.88 4.5 4.5 0 00-1.07-.1h-.32l.13.28a4.46 4.46 0 00.96 1.36zM15.32 6.19a16.81 16.81 0 012.3 1.21.2.2 0 10.21-.35 18.61 18.61 0 00-2.4-1.1 12.4 12.4 0 00-2.54-.69.06.06 0 000 .12 18.67 18.67 0 012.43.81zM15 7.84h-.31l.16.27A4.47 4.47 0 0016 9.42a5.27 5.27 0 002.71.92 1.24 1.24 0 00.3 0 .49.49 0 00.36-.25c.09-.18 0-.39-.15-.64a5.37 5.37 0 00-3.08-1.58A5 5 0 0015 7.84zM11.78 6.89a16.77 16.77 0 012.4 1 .2.2 0 00.28-.1.2.2 0 00-.1-.27 17.94 17.94 0 00-2.5-.85 12 12 0 00-2.6-.47.06.06 0 00-.06.06l.05.06a18.48 18.48 0 012.53.57zM11.55 8.59l-.31.07.19.25a4.29 4.29 0 001.21 1.15 5.14 5.14 0 002.79.64h.2a.58.58 0 00.43-.32.63.63 0 00-.22-.62 5.3 5.3 0 00-3.22-1.25 5 5 0 00-1.07.08zM8.21 8a16.53 16.53 0 012.49.73.22.22 0 00.3-.15.2.2 0 00-.13-.26 18.79 18.79 0 00-2.57-.6 12.87 12.87 0 00-2.63-.16.06.06 0 00-.06.06s0 .06.06.06A18.53 18.53 0 018.21 8zM9 9.24a4.45 4.45 0 00-1 .24l-.3.1.21.23a4.45 4.45 0 001.34 1 5.1 5.1 0 002.84.32c.15 0 .48-.13.55-.4a.61.61 0 00-.29-.59A5.35 5.35 0 009 9.24zM4.58 9.25a15.82 15.82 0 012.55.44.21.21 0 00.25-.15.2.2 0 00-.15-.25A17.93 17.93 0 004.59 9 12.18 12.18 0 002 9.12a.06.06 0 000 .12 18.8 18.8 0 012.58.01zM5.8 12.22l-.25.2.28.15a4.39 4.39 0 001.6.49A6.89 6.89 0 009 12.9a3.77 3.77 0 001.19-.49c.11-.07.44-.28.41-.58s-.17-.36-.46-.47a5.42 5.42 0 00-3.45.29 5.13 5.13 0 00-.89.57zM5.27 12.47a.2.2 0 00-.22-.18H5a18.93 18.93 0 00-2.58.6 13.22 13.22 0 00-2.43 1A.06.06 0 000 14a.05.05 0 00.07 0 19.92 19.92 0 012.46-.86 16.78 16.78 0 012.55-.44.2.2 0 00.19-.23zM33.41 14.11a13.27 13.27 0 00-1.63-.38 14.69 14.69 0 00-6.44.67 13.65 13.65 0 00-4.94 2.89 12.52 12.52 0 00-2.65 3.39.37.37 0 000 .15l.08.07a20.14 20.14 0 0116-6.35v-.21a1.56 1.56 0 00-.42-.23z" class="cls-1"/><path d="M37.68 14.91a20 20 0 00-3.86-2.21A16.39 16.39 0 0025 11.26a.5.5 0 00-.41.58.49.49 0 00.57.41 15.64 15.64 0 018.32 1.15 18.91 18.91 0 017 4.87.25.25 0 00.33 0 .24.24 0 000-.35 16 16 0 00-3.13-3.01z" class="cls-1"/></g></g></g></svg>