<svg xmlns="http://www.w3.org/2000/svg" fill="currentColor" viewBox="0 0 67 15"><path d="M5.87537 14.0026c-.97 0-1.79-.13-2.47001-.39-.68-.26-1.23999-.61-1.66999-1.06-.43-.45-.740006-.97-.940006-1.56-.2-.6-.289993-1.24001-.289993-1.92001 0-.9.149995-1.79001.439995-2.68001.290004-.89.740004-1.69 1.320004-2.4.59-.71 1.33-1.29001 2.22-1.73001.89-.44 1.93-.65999 3.14-.65999.61 0 1.21.05 1.77999.15.57.1 1.12004.23001 1.65004.40001-.04.36-.06.70999-.06 1.04999 0 .25.01.49.03.74.02.25.04.49001.06.74001-.09.06-.2.08999-.33.08999-.23 0-.36-.09-.37-.28-.11-.81-.41003-1.37-.90003-1.69-.49-.32-1.15-.47999-1.97-.47999-.81 0-1.53.16999-2.17.51999-.64.35-1.18.82-1.63 1.43-.45.6-.79 1.3-1.02 2.11-.23.8-.35 1.65001-.35 2.55001 0 .66.08999 1.26001.26999 1.79001s.43.99.75 1.36c.32.37.71001.67 1.17001.87.46.21.98.31 1.55.31.83 0 1.49-.17 1.98-.51.48-.34.9-.9 1.26-1.66.09-.2.23-.29.44-.29.07 0 .15.02.23.05.08003.03.13003.06.16003.08-.18004.39-.35003.81-.49003 1.24-.14.44-.29.92-.43 1.46-.27.05-.56001.09-.87001.14-.31.05-.60999.08-.91999.12-.31.04-.59.06-.86.08-.28.02-.51.03-.71.03zM16.1253 5.65259c.45 0 .85.07999 1.19.22999.34.15.61.37.82.64.21.28.37.6.47.98.1.38.16.78999.16 1.22999 0 .88-.14 1.66003-.42 2.32003-.28.66-.64 1.21-1.08 1.65-.44.44-.92.76-1.46.97-.54.21-1.07.32-1.58.32-.43 0-.79-.07-1.09-.2-.3-.13-.54-.33-.73-.59-.18-.26-.32-.57-.4-.95-.08-.37-.12-.79-.12-1.26 0-.81.1399-1.55002.4099-2.21002.28-.66.6301-1.23 1.0501-1.69.42-.47.88-.83001 1.38-1.08001.49-.24.96-.35998 1.4-.35998zm-1.45 7.63001c.37 0 .71-.11 1.02-.33.31-.22.58-.53.81-.92.23-.39.4-.86.52-1.39.12-.53.18-1.12002.18-1.76002 0-.77-.09-1.38999-.28-1.83999-.18-.45-.51-.68001-.98-.68001-.4 0-.7701.14-1.0801.41-.32.27-.5899.62001-.7999 1.05001-.21.43-.38.90999-.49 1.42999-.11.52-.17 1.05002-.17 1.56002 0 .81.09 1.42.29 1.84.2.42.52.63.98.63zm9.7902-6.93002c-.43 0-.8101.12-1.1301.37-.33.25-.5899.57-.8099.98-.21.41-.38.89-.49 1.44-.11.55-.1701 1.13002-.1701 1.75002 0 .29.03.57.08.84.06.26.15.49.28.69.13.2.3101.35.5301.47.23.12.51.17.84.17.36 0 .7-.07 1.03-.21.33-.14.66-.32.98-.52.02-.02.0499-.05.0899-.06.04-.02.0701-.03.0901-.03.1 0 .1599.05.1899.14.03.09.0501.17.0601.23-.18.16-.3901.32-.6301.49-.23.17-.4899.32-.7599.45-.28.13-.57.25-.87.33-.3.08-.63.13-.96.13-.47 0-.86-.09-1.18-.26-.32-.17-.5801-.4-.7701-.67-.2-.28-.3299-.59-.4099-.94-.08-.35-.1201-.71-.1201-1.08 0-.67.1001-1.34001.3001-1.99001.2-.65.49-1.23001.86-1.74001s.81-.92 1.33-1.22c.52-.31 1.0899-.45999 1.7199-.45999.75 0 1.4801.16999 2.2101.50999-.06.18-.1201.44001-.1701.77001-.05.33-.09.62999-.11.87999l-.28-.01999c-.1799-.01-.29-.10002-.33-.28002-.12-.44-.3099-.74999-.5599-.91999-.24-.16-.53-.24-.84-.24zm5.2197-2.1c.06-.36.11-.71.16-1.06.04-.35.06-.62001.06-.82001 0-.16-.05-.23999-.17-.23999-.12 0-.29.02-.51.06-.21.04-.37.05-.47.05-.16 0-.24-.13-.24-.39.55-.15 1.06-.29999 1.53-.44999.47-.15.93-.32001 1.4-.510012.1.06.16.120002.18.170002.02.05.04.10001.04.15001s-.01.09999-.02.16999c-.01.06-.02.12-.04.17l-1.53 7.75h.07c.2-.26.46-.59.79-1 .33-.41.7-.81 1.11-1.2.41-.39.84-.71999 1.29-1 .45-.28.89-.41999 1.32-.41999.2 0 .38.01999.55.05999-.06.17-.12.37-.17.6-.06.23-.1.48-.14.75l-.22.07c-.06-.09-.15-.16-.26-.21-.11-.06-.23-.08001-.35-.08001-.11 0-.25.02002-.42.06002-.17.04-.37.12999-.6.26999-.23.14-.48.33-.77.57-.29.25-.61.57999-.97.98999.34.75.66 1.43003.96 2.03003.29.61.57 1.13.83 1.55.27.47.5.7.68.7.09 0 .17-.02.27-.05l.27-.12c.09-.04.17-.08.25-.12.08-.04.14-.06.19-.06.07 0 .13.02.17.06.04.04.07.13.09.27-.39.28-.79.52-1.2.71-.4.19-.72.29-.94.29-.12 0-.25-.03-.38-.09s-.25-.21-.38-.44c-.09-.16-.21-.39-.36-.68-.15-.29-.32-.62-.49-.97l-.51-1.05c-.17-.35-.32-.67-.44-.95002-.23.27002-.44.75002-.61 1.44002-.1.37-.18.74-.24 1.1-.06.36-.09.66-.09.88 0 .17.02.34.05.5-.47.05-.95.14-1.45.28-.1-.06-.15-.14-.15-.22 0-.02.01-.08.02-.16s.02-.14.04-.19l1.8-9.22002zm8.4303 1.3c.1-.47.15-.83999.15-1.11999 0-.16-.02-.32-.06-.5.23-.04.48-.07.74-.11.26-.04.51-.09.77-.17.1.07.15.14998.15.21998 0 .02 0 .07001-.01.15001-.01.07-.01.13-.03.18l-.31 1.66h1.89c-.04.11-.07.24999-.11.39999-.04.16-.07.31001-.09.44001-.31-.05-.62-.09-.94-.12-.32-.03-.62-.05-.9-.06l-1.01 5.76002c-.04.18-.06.31-.06.39 0 .3.18.44.53.44.18 0 .35-.02.51-.06.16-.04.29-.1.41-.16.11-.05.21-.09.29-.14.08-.04.14-.06.19-.06.13 0 .21.12.24.35-.38.29-.79.53-1.24.7-.45.17-.87.26-1.26.26-.44 0-.75-.07-.94-.21-.18-.14-.28-.35-.28-.64 0-.13.01-.26.04-.39l1.16-6.29002h-1.34c.02-.2.06-.35001.12-.46001.05-.1.15-.14999.29-.14999h1.05l.05-.31zm9.1 5.17002h-.07c-.31.6-.62 1.11-.94 1.53-.32.42-.63.75-.95 1.01-.31.26-.62.45-.92.56-.3.11-.59.17-.86.17-.18 0-.36-.03-.52-.08-.17-.05-.31-.15-.44-.29-.13-.14-.23-.32-.3-.55-.07-.23-.11-.53-.11-.88 0-1.04.17-1.97.51-2.78002.34-.81.76-1.49 1.26-2.05.5-.56 1.04-.98 1.63-1.28.58-.29 1.13-.44 1.63-.44.39 0 .77.02 1.13.05.36.03.77.1 1.22.2l-1.27 6.38002c-.02.12-.04.23-.04.33 0 .16.07.24.2.24.08 0 .17-.02.27-.06.1-.04.18-.09.28-.15.09-.05.18-.1.26-.15.08-.04.14-.06.19-.06.12 0 .21.12.26.37-.22.16-.45.31-.69.45-.24.14-.47.27-.69.38-.22.11-.43.2-.63.27s-.36.1-.48.1c-.13 0-.26-.03-.37-.08-.11-.05-.17-.17-.17-.36 0-.06.01-.13.02-.21.01-.08.03-.16.05-.25l.54-2.37zm.66-4.17002c-.15-.05-.31-.08999-.49-.11999s-.35-.05001-.51-.05001c-.49 0-.93.13-1.33.39-.39.26-.73.62-1.01 1.08-.28.47-.5 1.01999-.65 1.65999-.15.64003-.23 1.33003-.23 2.08003 0 .44.05.76.17.95.12.19.26.29.46.29.25 0 .51-.11.79-.33.28-.22.55-.51.82-.87.26-.36.52-.76.76-1.21.25-.45002.46-.90002.63-1.37002.17-.47.32-.92.42-1.35.12-.44.17-.82.17-1.15zm5.3197 5.72002c-.01.05-.03.11-.04.19-.01.08-.02.14-.02.17 0 .15.07.22.22.22.09 0 .17-.02.27-.06.09-.04.18-.09.28-.15.09-.05.17-.1.25-.15.07-.04.13-.06.18-.06.12 0 .21.12.26.37-.21.16-.43.31-.67.45-.24.14-.47.27-.69.38-.22.11-.43.2-.63.27s-.36.1-.48.1c-.13 0-.26-.03-.39-.08-.12-.05-.18-.19-.18-.4 0-.04.01-.1.02-.19s.02-.16.04-.19c.27-1.31.48-2.36.64-3.14.16-.78002.28-1.37002.36-1.78002.08-.41.13-.67999.16-.81999.02-.13.04-.21001.04-.24001 0-.15-.05-.22-.17-.22-.05 0-.12.02-.22.06-.1.04-.2.09-.31.13-.11.04-.21.08999-.3.12999-.09.04-.16.06002-.21.06002-.07 0-.13-.04-.17-.11-.04-.07-.07-.16001-.09-.26001.22-.12.48-.25999.77-.40999.29-.15.58-.30001.86-.43001s.52-.25.74-.33c.21-.08.36-.12999.43-.12999.21 0 .31.1.31.31 0 .09-.01.17999-.04.27999l-1.22 6.03002zm.94-8.59001c-.23 0-.42-.07001-.55-.21001-.13-.14-.2-.33-.2-.56 0-.33.11-.63.34-.89.23-.26.5-.40001.82-.40001.25 0 .42.08001.52.24001.1.16.16.36.16.61 0 .31-.1.59-.31.84-.22.24-.47.37001-.78.37001zm4.47-1.31002c0-.06-.01-.11999-.03-.17999-.02-.06-.07-.09-.16-.09-.04 0-.1.01-.19.03-.09.02-.19.04001-.29.05001-.1.02-.2.02998-.29.04998-.09.01-.15.02001-.18.02001-.16 0-.24-.13-.24-.39.55-.15 1.06-.3 1.53-.45.47-.15.93-.31999 1.4-.509992.1.06.16.120002.18.170002.02.05.04.10999.04.16999 0 .1-.01.2-.04.29l-2.1 10.73002c-.01.06-.02.13-.04.21-.01.08-.02.13-.02.16 0 .15.07.22.22.22.09 0 .17-.02.27-.06.1-.04.18-.09.28-.15.09-.05.17-.1.25-.15.07-.04.13-.06.18-.06.12 0 .21.12.26.37-.21.16-.43.31-.67.45-.24.14-.47.27-.69.38-.22.11-.43.2-.63.27s-.36.1-.48.1c-.14 0-.26-.03-.39-.08-.12-.05-.18-.19-.18-.4 0-.04.01-.1.02-.19s.02-.16.04-.19l1.73-8.89002c.07-.36.13-.71.17-1.06.03-.35.05-.62001.05-.82001zm7.7301 5.30001c-.14-.01-.22-.04999-.26-.09999-.04-.05-.06-.12001-.07-.19001-.06-.37-.2-.65-.42-.86-.22-.2-.52-.3-.9-.3-.39 0-.73.08999-1.01.28999s-.42.46001-.42.82001c0 .25.11.49.32.75.21.25.47.51.76.76.22.2.45.4.7.61.25.21.47.42.66.63002.2.21.36.44.49.67.13.23.19.47.19.72 0 .36-.08.69-.24.99-.16.31-.38.57-.65.8-.28.23-.6.41-.98.54-.38.13-.77.2-1.19.2-.43 0-.85-.04-1.25-.11-.41-.07-.79-.19-1.14-.35.1-.37.17-.71.23-1.02.06-.31.09-.67.12-1.06h.18c.29 0 .44.1.44.31-.02.52.09.91.36 1.2.26.28.63.42 1.09.42.48 0 .87-.13 1.18-.38.31-.25.46-.58.46-.98 0-.18-.05-.36-.14-.53-.09-.17-.21-.33-.36-.49-.15-.15-.31-.31-.5-.46-.18-.15-.37-.31-.57-.47-.37-.31002-.7-.63002-1-.97002-.3-.34-.45-.73-.45-1.17 0-.33.08-.64.23-.92.15-.28.36-.51999.63-.72999.26-.2.57-.36001.92-.48001.35-.12.72-.17 1.11-.17.71 0 1.38.17 2 .5-.06.18-.11.42-.16.7-.05.28-.08.56-.1.85l-.26-.02z"/></svg>