<svg xmlns="http://www.w3.org/2000/svg" fill="currentColor" viewBox="0 0 42 40"><path d="M41.2982 35.8287c-.1647-.422-.6382-.6382-1.0603-.4735l-2.0588.7927-2.1926-5.6824c1.0088-.772 1.4308-2.1412.9573-3.3868-.2368-.6073-.6588-1.1117-1.2044-1.4411.4941-.4942.8956-1.0809 1.1838-1.7294.6177-1.4.6588-2.9648.103-4.3956L29.7997.756682c-.0824-.205883-.2368-.370591-.4324-.452944-.1956-.092647-.422-.092645-.6279-.010292L19.5467 3.82433c-.422.1647-.6382.63823-.4735 1.06029l.5044 1.29706-11.19998-3.8397c-.30882-.10294-.65882-.02059-.88529.22646-1.55442 1.75-2.83088 3.98383-3.675 6.47501-1.10147 3.22205-1.38971 6.52645-.81324 9.30585.40147 1.8942 1.17353 3.3971 2.24412 4.4265-.54559.35-.95735.875-1.17353 1.5029-.43235 1.2559.05147 2.6148 1.08088 3.3456L3.17909 33.389l-2.0897-.7205c-.432357-.1442-.895593.0823-1.0397111.5147-.1441177.4323.0823531.8955.5147061 1.0397L6.29821 36.189c.09264.0309.175.0412.26765.0412.3397 0 .65882-.2162.78235-.5559.14412-.4323-.08235-.8956-.51471-1.0397l-2.0897-.7206 1.97647-5.7647c.04117 0 .09265.0103.13382.0103.44265 0 .875-.1029 1.28677-.2985.7-.3397 1.23529-.9368 1.48235-1.6779.21618-.628.21618-1.2971 0-1.9147 1.47209-.1545 3.01619-.875 4.48819-2.1206 2.1618-1.8324 3.9633-4.6118 5.075-7.8339.7309-2.1206 1.1015-4.2926 1.1015-6.33084l6.0427 15.65734c.5558 1.4309 1.6264 2.5632 3.0264 3.1809.6589.2882 1.3486.4529 2.0486.4838-.175.5971-.1647 1.2559.0823 1.8735.453 1.1633 1.5647 1.8736 2.7383 1.8736.0823 0 .1647 0 .247-.0103l2.1927 5.6823-2.0589.7927c-.422.1647-.6382.6382-.4735 1.0603.1235.3294.4324.525.7721.525.1029 0 .1956-.0206.2985-.0515l5.6618-2.1823c.3911-.1442.597-.6177.4323-1.0398zM8.36733 4.08168L18.6203 7.60227c.0206.78235-.0206 1.57501-.1236 2.39853-1.8941.1956-2.8926.875-3.7882 1.4823-.8853.6074-1.6471 1.1221-3.3353 1.2353-1.68823.1133-2.51176-.3088-3.46911-.7926-.78235-.3912-1.64706-.8338-2.95441-.9574.12353-.4632.25735-.9264.42206-1.37936.72059-2.1 1.75-3.98383 2.99559-5.50736zM8.0585 25.6479c-.11323.3294-.3397.5867-.64853.7411-.30882.1545-.65882.175-.98823.0618-.66912-.2265-1.02941-.9676-.80294-1.6368.11323-.3294.3397-.5867.64853-.7411.175-.0824.37058-.1339.56617-.1339.14412 0 .27794.0206.42206.0721.32941.1132.58677.3397.74118.6485.15441.3191.175.6692.06176.9883zm4.9824-4.7456c-1.8221 1.5441-3.68534 2.1-5.23975 1.5647-1.55441-.5353-2.68676-2.1206-3.18088-4.4471-.35-1.6367-.33971-3.5-.0103-5.425 1.11177.0618 1.80147.4118 2.56324.803.91617.4632 1.95588.9882 3.70589.9882.1956 0 .4015-.0103.6176-.0206 2.1309-.1338 3.2118-.875 4.1589-1.5132.7411-.5044 1.3897-.9471 2.5632-1.1427-.1544.7-.35 1.4-.5868 2.0897-1.0294 2.9339-2.6559 5.4559-4.5911 7.103zM28.5541 2.11551l2.1926 5.68235c-.1235-.06176-.2367-.12353-.3705-.19559-.525-.29853-1.1736-.66911-2.3471-.59706-1.1632.07206-1.7706.525-2.2441.8853-.4015.29853-.6897.5147-1.3588.56617-.6795.04118-.9883-.13382-1.4206-.38088-.2986-.16471-.6486-.37059-1.1221-.49412l-.9779-2.52206 7.6485-2.94411zm-.7 20.93819L22.7379 9.79492c.3809.175.8544.31908 1.503.31908.0926 0 .1955 0 .2985-.0103 1.1632-.072 1.7706-.52496 2.2441-.88526.4015-.29853.6897-.5147 1.3588-.56617.6794-.04117.9883.13383 1.4206.38089.453.25735.9985.56617 1.8941.59705l4.0456 10.47939c.3912 1.0191.3706 2.1309-.072 3.1397-.4427 1.0089-1.2456 1.7706-2.275 2.1618-1.0192.3912-2.1309.3706-3.1397-.0721-.9986-.4529-1.7706-1.2661-2.1618-2.2853zm5.1471 5.5486c-.2574-.6588.072-1.4103.7411-1.6677.1544-.0617.3089-.0823.4633-.0823.175 0 .35.0412.525.1132.3191.1441.5558.3912.6794.7103.2573.6588-.0721 1.4103-.7412 1.6676-.6588.2471-1.4103-.0823-1.6676-.7411z"/></svg>