<svg viewBox="0 0 39 52" fill="currentColor" xmlns="http://www.w3.org/2000/svg">
<path d="M25.8569 18.183C26.5152 20.7666 28.8504 22.4808 31.3968 22.4808C31.8688 22.4808 32.3408 22.4187 32.8128 22.3069C33.4712 22.133 34.0674 21.8349 34.5767 21.4374C34.7133 21.4125 34.8375 21.3877 34.9617 21.3504C37.6323 20.6673 39.2471 17.947 38.5639 15.2764C38.4272 14.7299 37.8683 14.3945 37.3093 14.5312C36.7628 14.6678 36.4274 15.2392 36.5641 15.7857C36.738 16.444 36.6634 17.1148 36.4026 17.6986C36.4026 17.3011 36.3529 16.8912 36.2535 16.4813C35.707 14.3324 33.496 13.0282 31.3471 13.5747C30.4652 13.7983 29.7075 14.3573 29.2479 15.1522C28.7759 15.9348 28.6517 16.8664 28.8753 17.7483C28.8877 17.7855 28.9001 17.8352 28.9126 17.8725C29.1858 18.8289 29.7199 19.6611 30.4528 20.2946C29.2107 19.9717 28.1797 18.9904 27.8319 17.6613C27.2108 15.2268 28.5772 12.7301 30.9 11.9103C31.7322 11.6618 32.5892 11.5128 33.4712 11.4383C34.0425 11.3886 34.4649 10.9041 34.4152 10.3328C34.3779 9.76138 33.8811 9.33906 33.3097 9.38874C32.5023 9.45085 31.7073 9.57506 30.9372 9.76138C30.8875 9.76138 30.8378 9.77381 30.7882 9.78623C30.6267 9.82349 30.4652 9.88559 30.3037 9.93528C27.6704 10.7054 25.3104 12.2332 23.4845 14.3573C22.5901 15.4006 21.8448 16.5558 21.2983 17.7855C20.7642 16.3944 19.9816 15.0777 18.9631 13.9225C18.4538 13.3511 17.9073 12.8294 17.3235 12.3574C18.7892 11.2768 19.7953 9.66201 20.081 7.82366C20.4661 5.36424 19.5096 2.86757 17.5719 1.30249C17.2862 1.06648 16.9012 1.0168 16.5534 1.14101C15.8205 1.4267 15.1498 1.82419 14.5535 2.33346C13.0257 0.954696 11.0383 0.18457 8.95156 0.18457H8.92671C8.55407 0.18457 8.2187 0.383312 8.03238 0.706266C7.23741 2.08503 6.85236 3.65011 6.91446 5.22762C4.66621 5.35183 2.54217 6.29585 0.939828 7.92303C0.678981 8.18388 0.57961 8.55652 0.678981 8.91674C1.2752 11.1153 2.64154 12.9909 4.51716 14.2206C3.68493 15.5497 3.22534 17.1024 3.22534 18.6923C3.22534 19.0649 3.42408 19.4003 3.73462 19.5866C5.54812 20.6424 7.65974 20.9654 9.68441 20.5431C9.94526 21.2759 10.3303 21.9715 10.8272 22.5677C11.0259 22.8162 11.324 22.9528 11.6221 22.9528C11.6718 22.9528 11.7215 22.9528 11.7836 22.9404C14.243 22.5553 16.3298 20.8784 17.2241 18.5432C17.5968 17.5868 17.7334 16.5682 17.6713 15.5745C19.3233 17.5992 20.168 20.1207 20.0562 22.7416C20.0313 23.0894 20.0189 23.4496 20.0313 23.7974C18.5532 24.0707 17.2738 24.9278 16.4292 26.1078C15.3982 24.6545 13.7089 23.6981 11.796 23.6981C8.67829 23.6981 6.13192 26.232 6.13192 29.3622C6.13192 32.3184 8.40502 34.7406 11.2868 35.0014C10.9514 35.7219 10.7651 36.5292 10.7651 37.3863C10.7651 40.3426 13.0382 42.7647 15.9199 43.0256C15.5845 43.746 15.3982 44.5534 15.3982 45.4105C15.3982 48.5282 17.9321 51.0746 21.0623 51.0746C24.18 51.0746 26.7264 48.5406 26.7264 45.4105C26.7264 44.5534 26.5401 43.746 26.1923 43.0256C29.074 42.7647 31.3471 40.3426 31.3471 37.3863C31.3471 36.5417 31.1608 35.7343 30.8254 35.0014C33.7072 34.7406 35.9803 32.3184 35.9803 29.3622C35.9803 26.2444 33.4463 23.6981 30.3162 23.6981C28.4033 23.6981 26.714 24.6545 25.683 26.1078C24.8508 24.9154 23.5714 24.0707 22.0808 23.7974C22.0808 23.5738 22.0808 23.3503 22.0933 23.1391C22.0933 23.1267 22.0933 23.1267 22.0933 23.1267C22.0933 23.0522 22.1057 22.9776 22.1057 22.9031C22.2796 20.2574 23.2981 17.7358 25.0495 15.6988C25.2855 15.4255 25.534 15.1522 25.7948 14.9038C25.5836 15.9596 25.5836 17.0775 25.8569 18.183ZM31.0366 16.208C31.2229 15.8975 31.521 15.6739 31.8688 15.5745C32.9246 15.3013 33.9929 15.9472 34.2661 16.9906C34.4897 17.8849 34.2537 18.7917 33.6947 19.4376C33.1855 19.4251 32.6886 19.2885 32.2415 19.0277C31.5707 18.6302 31.0863 17.9843 30.9 17.2266C30.9 17.2017 30.8875 17.1893 30.8875 17.1769C30.8006 16.8539 30.8627 16.5061 31.0366 16.208ZM15.4727 11.1401C13.8952 10.2955 12.1314 9.78623 10.2806 9.66201C9.70925 9.62475 9.22482 10.0595 9.18756 10.6184C9.15029 11.1898 9.58504 11.6743 10.144 11.7115C11.7215 11.8109 13.2369 12.2581 14.5784 12.9909C14.5784 12.9909 14.5784 13.0033 14.5908 13.0033C15.6715 14.3573 15.9447 16.1956 15.3237 17.8228C14.7647 19.2637 13.5598 20.3567 12.0941 20.7791C11.7712 20.2574 11.5476 19.686 11.4358 19.0898C11.3861 18.7917 11.1998 18.5308 10.939 18.3817C10.7775 18.2948 10.6036 18.2451 10.4297 18.2451C10.3179 18.2451 10.1937 18.27 10.0819 18.3072C8.51681 18.8662 6.82751 18.7792 5.33696 18.0961C5.46117 16.8043 5.98287 15.5621 6.82751 14.5684C7.03868 14.32 7.12562 13.997 7.0511 13.6865C6.98899 13.376 6.77783 13.1027 6.49214 12.9661C4.80284 12.1587 3.49861 10.7178 2.86513 8.96642C4.29357 7.76155 6.13192 7.15292 8.00754 7.30197C8.33049 7.32681 8.64102 7.2026 8.85218 6.96659C9.06334 6.73059 9.16271 6.40763 9.10061 6.08468C8.8646 4.79287 9.02608 3.47621 9.5602 2.28377C11.1874 2.43283 12.7028 3.21536 13.7834 4.46991C13.9822 4.6935 14.2679 4.83013 14.566 4.83013C14.8641 4.83013 15.1498 4.6935 15.3485 4.46991C15.746 4.01032 16.2304 3.61285 16.7645 3.32716C17.8203 4.42023 18.3172 5.97289 18.0812 7.50071C17.8328 9.09063 16.8515 10.4321 15.4727 11.1401ZM11.8209 32.9892C9.83346 32.9892 8.2187 31.3744 8.2187 29.387C8.2187 27.3996 9.83346 25.7848 11.8209 25.7848C13.8083 25.7848 15.423 27.3996 15.423 29.387C15.423 31.3744 13.8083 32.9892 11.8209 32.9892ZM16.454 41.0133C14.4666 41.0133 12.8518 39.3986 12.8518 37.4112C12.8518 35.4238 14.4666 33.809 16.454 33.809C18.4414 33.809 20.0562 35.4238 20.0562 37.4112C20.0562 39.3986 18.4414 41.0133 16.454 41.0133ZM21.0871 49.0251C19.0997 49.0251 17.485 47.4103 17.485 45.4229C17.485 43.4355 19.0997 41.8207 21.0871 41.8207C23.0746 41.8207 24.6893 43.4355 24.6893 45.4229C24.6769 47.4103 23.0621 49.0251 21.0871 49.0251ZM30.341 25.7848C32.3284 25.7848 33.9432 27.3996 33.9432 29.387C33.9432 31.3744 32.3284 32.9892 30.341 32.9892C28.3536 32.9892 26.7388 31.3744 26.7388 29.387C26.7388 27.3996 28.3536 25.7848 30.341 25.7848ZM25.7079 33.809C27.6953 33.809 29.31 35.4238 29.31 37.4112C29.31 39.3986 27.6953 41.0133 25.7079 41.0133C23.7205 41.0133 22.1057 39.3986 22.1057 37.4112C22.1181 35.4238 23.7329 33.809 25.7079 33.809ZM24.6769 29.387C24.6769 31.3744 23.0621 32.9892 21.0747 32.9892C19.0873 32.9892 17.4725 31.3744 17.4725 29.387C17.4725 27.3996 19.0873 25.7848 21.0747 25.7848C23.0621 25.7848 24.6769 27.3996 24.6769 29.387Z" fill="#F4E50D"/>
</svg>
