<svg viewBox="0 0 24 24" fill="currentColor"><path d="M7 22c-.553 0-1 .447-1 1s.447 1 1 1c.552 0 1-.447 1-1s-.448-1-1-1zm12 0c-.553 0-1 .447-1 1s.447 1 1 1c.552 0 1-.447 1-1s-.448-1-1-1zm1.942-6.717l.016.004 1.644-5.479C23.462 8.769 24 7.454 24 6c0-3.293-2.663-6-6-6-2.608 0-4.806 1.675-5.633 4H5.383L4.992.876l-.016.002C4.913.386 4.509 0 4 0H1C.447 0 0 .447 0 1s.447 1 1 1h2.117l1.891 15.124.005-.001C5.078 18.722 6.386 20 8 20h12c.552 0 1-.447 1-1s-.448-1-1-1H8c-.553 0-1-.447-1-1l-.008-.124L6.883 16H20c.452 0 .819-.306.942-.717zM18 2c2.209 0 4 1.791 4 4s-1.791 4-4 4-4-1.791-4-4 1.791-4 4-4zm1.256 12H6.633l-1-8H12c0 3.313 2.687 6 6 6 .691 0 1.345-.141 1.963-.355L19.256 14zM16 7h1v1c0 .553.447 1 1 1s1-.447 1-1V7h1c.552 0 1-.447 1-1s-.448-1-1-1h-1V4c0-.553-.447-1-1-1s-1 .447-1 1v1h-1c-.553 0-1 .447-1 1s.447 1 1 1z"/></svg>