<svg viewBox="0 0 24 24" fill="currentColor"><path d="M21 5V1c0-.553-.448-1-1-1-.12 0-.232.029-.339.068L19.658.06 8.824 4H1c-.552 0-1 .447-1 1v6c0 .553.448 1 1 1h1.219L5.03 23.242l.018-.004c.109.434.484.762.952.762h6c.552 0 1-.447 1-1 0-.084-.028-.16-.048-.238l.018-.004-2.544-10.175 9.232 3.356.003-.008c.107.04.219.069.339.069.552 0 1-.447 1-1v-4c1.657 0 3-1.343 3-3s-1.343-3-3-3zM2 10V6h6v4H2zm8.719 12H6.781l-2.5-10h3.938l2.5 10zM19 13.572L10 10.3V5.7l9-3.272v11.144zM21 9V7c.552 0 1 .447 1 1s-.448 1-1 1z"/></svg>