<svg viewBox="0 0 24 24" fill="currentColor"><path d="M17.5 16c.276 0 .5-.224.5-.5v-7c0-.276-.224-.5-.5-.5s-.5.224-.5.5v7c0 .276.224.5.5.5zm-5 0c.276 0 .5-.224.5-.5v-7c0-.276-.224-.5-.5-.5s-.5.224-.5.5v7c0 .276.224.5.5.5zm7 0c.276 0 .5-.224.5-.5v-7c0-.276-.224-.5-.5-.5s-.5.224-.5.5v7c0 .276.224.5.5.5zM15 16c.552 0 1-.447 1-1V9c0-.553-.448-1-1-1s-1 .447-1 1v6c0 .553.448 1 1 1zm8-11H1c-.552 0-1 .447-1 1v12c0 .553.448 1 1 1h22c.552 0 1-.447 1-1V6c0-.553-.448-1-1-1zm-1 12H2V7h20v10zM5 16c.552 0 1-.447 1-1V9c0-.553-.448-1-1-1s-1 .447-1 1v6c0 .553.448 1 1 1zm3 0h2c.552 0 1-.447 1-1V9c0-.553-.448-1-1-1H8c-.552 0-1 .447-1 1v6c0 .553.448 1 1 1z"/></svg>