<svg viewBox="0 0 24 24" fill="currentColor"><path d="M1 6c.553 0 1-.447 1-1V2h3c.553 0 1-.447 1-1s-.447-1-1-1H1C.447 0 0 .447 0 1v4c0 .553.447 1 1 1zm4-2c-.553 0-1 .447-1 1v4c0 .553.447 1 1 1s1-.447 1-1V5c0-.553-.447-1-1-1zm0 10c-.553 0-1 .447-1 1v4c0 .553.447 1 1 1s1-.447 1-1v-4c0-.553-.447-1-1-1zm10-4c.553 0 1-.447 1-1V5c0-.553-.447-1-1-1s-1 .447-1 1v4c0 .553.447 1 1 1zm-6 0h2c.553 0 1-.447 1-1V5c0-.553-.447-1-1-1H9c-.553 0-1 .447-1 1v4c0 .553.447 1 1 1zm10 0c.553 0 1-.447 1-1V5c0-.553-.447-1-1-1s-1 .447-1 1v4c0 .553.447 1 1 1zM5 22H2v-3c0-.553-.447-1-1-1s-1 .447-1 1v4c0 .553.447 1 1 1h4c.553 0 1-.447 1-1s-.447-1-1-1zm18-11H1c-.553 0-1 .447-1 1s.447 1 1 1h22c.553 0 1-.447 1-1s-.447-1-1-1zm0-11h-4c-.553 0-1 .447-1 1s.447 1 1 1h3v3c0 .553.447 1 1 1s1-.447 1-1V1c0-.553-.447-1-1-1zm-4 20c.553 0 1-.447 1-1v-4c0-.553-.447-1-1-1s-1 .447-1 1v4c0 .553.447 1 1 1zm4-2c-.553 0-1 .447-1 1v3h-3c-.553 0-1 .447-1 1s.447 1 1 1h4c.553 0 1-.447 1-1v-4c0-.553-.447-1-1-1zm-12-4H9c-.553 0-1 .447-1 1v4c0 .553.447 1 1 1h2c.553 0 1-.447 1-1v-4c0-.553-.447-1-1-1zm4 0c-.553 0-1 .447-1 1v4c0 .553.447 1 1 1s1-.447 1-1v-4c0-.553-.447-1-1-1z"/></svg>