<svg viewBox="0 0 24 24" fill="currentColor"><path d="M12 4c-1.657 0-3 1.343-3 3s1.343 3 3 3 3-1.343 3-3-1.343-3-3-3zm0 4c-.553 0-1-.447-1-1s.447-1 1-1 1 .447 1 1-.447 1-1 1zm7-1c0-3.866-3.134-7-7-7S5 3.134 5 7c0 1.915.771 3.649 2.018 4.914C7.015 11.943 7 11.97 7 12v11c0 .553.447 1 1 1 .276 0 .526-.112.707-.293L12 20.414l3.293 3.293c.181.181.431.293.707.293.553 0 1-.447 1-1V12c0-.03-.015-.057-.018-.086C18.229 10.649 19 8.915 19 7zm-4 13.586l-2.293-2.293C12.526 18.112 12.276 18 12 18s-.526.112-.707.293L9 20.586v-7.269c.91.433 1.925.683 3 .683s2.09-.25 3-.683v7.269zM12 12c-2.762 0-5-2.238-5-5s2.238-5 5-5 5 2.238 5 5-2.238 5-5 5z"/></svg>