<svg viewBox="0 0 24 24" fill="currentColor"><path d="M21 8h-2v1c0 2.763 2 6.987 2 10v1c0 .553-.447 1-1 1H4c-.553 0-1-.447-1-1v-1c0-3.066 2-7.093 2-10V8H3v.969C3 11.108 1 14.955 1 19v1c0 1.657 1.343 3 3 3h16c1.657 0 3-1.343 3-3v-1c0-3.956-2-7.905-2-10V8zm0-3h-4.184c.112-.314.184-.647.184-1 0-1.657-1.343-3-3-3s-3 1.343-3 3c0 .353.072.686.184 1H10c-.553 0-1-.447-1-1s.447-1 1-1V1C8.343 1 7 2.343 7 4c0 .353.072.686.184 1H3C1.343 5 0 6.343 0 8c0 .553.447 1 1 1s1-.447 1-1 .447-1 1-1h18c.553 0 1 .447 1 1s.447 1 1 1 1-.447 1-1c0-1.657-1.343-3-3-3zm-7 0c-.553 0-1-.447-1-1s.447-1 1-1 1 .447 1 1-.447 1-1 1z"/></svg>