<svg viewBox="0 0 24 24" fill="currentColor"><path d="M2 8c.553 0 1-.447 1-1V1c0-.553-.447-1-1-1S1 .447 1 1v6c0 .553.447 1 1 1zm10-6c.553 0 1-.447 1-1s-.447-1-1-1-1 .447-1 1 .447 1 1 1zm10 10c.553 0 1-.447 1-1V1c0-.553-.447-1-1-1s-1 .447-1 1v10c0 .553.447 1 1 1zM2 16c-.553 0-1 .447-1 1v6c0 .553.447 1 1 1s1-.447 1-1v-6c0-.553-.447-1-1-1zm20-2c-1.104 0-2 .896-2 2s.896 2 2 2 2-.896 2-2-.896-2-2-2zm0 6c-.553 0-1 .447-1 1v2c0 .553.447 1 1 1s1-.447 1-1v-2c0-.553-.447-1-1-1zM2 10c-1.104 0-2 .896-2 2s.896 2 2 2 2-.896 2-2-.896-2-2-2zm10-6c-1.104 0-2 .896-2 2s.896 2 2 2 2-.896 2-2-.896-2-2-2zm0 6c-.553 0-1 .447-1 1v12c0 .553.447 1 1 1s1-.447 1-1V11c0-.553-.447-1-1-1z"/></svg>