<svg viewBox="0 0 24 24" fill="currentColor"><path d="M5.5 4h3c.276 0 .5-.224.5-.5S8.776 3 8.5 3h-3c-.276 0-.5.224-.5.5s.224.5.5.5zM23 5h-9V1c0-.553-.447-1-1-1H1C.447 0 0 .447 0 1v22c0 .553.447 1 1 1h12c.553 0 1-.447 1-1v-2h9c.553 0 1-.447 1-1V6c0-.553-.447-1-1-1zM12 22H2V2h10v20zm10-3h-8v-2h6c.553 0 1-.447 1-1s-.447-1-1-1h-6v-4h8v8zm0-10h-8V7h8v2zM7 19c-.553 0-1 .447-1 1s.447 1 1 1 1-.447 1-1-.447-1-1-1zm13-5c.553 0 1-.447 1-1s-.447-1-1-1-1 .447-1 1 .447 1 1 1zm-4 0c.553 0 1-.447 1-1s-.447-1-1-1-1 .447-1 1 .447 1 1 1z"/></svg>