<svg xmlns="http://www.w3.org/2000/svg" fill="currentColor" viewBox="0 0 18 15" perspectiveAspectRatio="xMinYMin meet">
  <path d="M3.75 7.18408c-2.07075 0-3.75 1.6785-3.75 3.75002 0 2.0715 1.67925 3.75 3.75 3.75 2.07075 0 3.75-1.6785 3.75-3.75 0-2.07152-1.67925-3.75002-3.75-3.75002zm0 6.00002c-1.24275 0-2.25-1.008-2.25-2.25 0-1.24277 1.00725-2.25002 2.25-2.25002S6 9.69133 6 10.9341c0 1.242-1.00725 2.25-2.25 2.25zm5.9055-4.11377l-1.464-2.63625H12c.2933 0 .5408-.1725.6637-.4185l.0076.00375 2.25-4.5-.0076-.00375c.0511-.1005.0863-.21075.0863-.3315 0-.414748-.336-.749998-.75-.749998H12c-.414 0-.75.33525-.75.749998 0 .414.336.75.75.75h1.0365l-1.5 3H7.35825l-.83325-1.5H7.5c.414 0 .75-.33525.75-.75s-.336-.75-.75-.75H3.75c-.414 0-.75.33525-.75.75s.336.75.75.75h1.059l3.5355 6.363.00975-.0045c.12825.22872.3645.39072.64575.39072.414 0 .75-.33522.75-.74997 0-.13275-.04425-.2505-.10425-.35925l.00975-.00375zM14.25 7.18408c-2.0715 0-3.75 1.6785-3.75 3.75002 0 2.0715 1.6785 3.75 3.75 3.75s3.75-1.6785 3.75-3.75c0-2.07152-1.6785-3.75002-3.75-3.75002zm0 6.00002c-1.2428 0-2.25-1.008-2.25-2.25 0-1.24277 1.0072-2.25002 2.25-2.25002s2.25 1.00725 2.25 2.25002c0 1.242-1.0072 2.25-2.25 2.25z"/>
</svg>
