<svg viewBox="0 0 24 24" fill="currentColor"><path d="M23.843 12.494l.015-.009-3-5-.015.009c-.115-.19-.289-.337-.496-.42l.005-.011-.066-.017c-.022-.007-.044-.011-.066-.017l-7.867-1.967-.004.008C12.239 5.029 12.124 5 12 5s-.239.029-.349.07l-.003-.007L3.781 7.03c-.022.006-.045.01-.066.017l-.067.016.005.011c-.207.083-.381.229-.496.42l-.014-.009-3 5 .015.009C.066 12.645 0 12.812 0 13c0 .456.312.825.729.945l-.004.017L3 14.611V18c0 .456.312.825.729.945l-.004.017 7 2 .004-.017c.088.026.175.055.271.055.075 0 .142-.027.213-.043l.004.02 9-2-.004-.02c.446-.1.787-.48.787-.957v-6.39l1.143 1.904.015-.009c.174.291.479.495.842.495.553 0 1-.447 1-1 0-.188-.066-.355-.157-.506zm-21.315-.098l1.935-3.225 5.009 1.432-1.935 3.225-5.009-1.432zM10 18.674l-5-1.428v-2.063l2.726.779.004-.017c.087.026.174.055.27.055.363 0 .668-.204.843-.494l.015.009L10 13.61v5.064zm1.03-9.705l-3.177-.908L12 7.024l3.662.915-4.632 1.03zM19 17.198l-7 1.555v-7.951l7-1.556v7.952z"/></svg>