<svg viewBox="0 0 24 24" fill="currentColor"><path d="M22 19c0-.553-.447-1-1-1-.391 0-.721.23-.886.558l-.009-.005L19.382 20H19v-7c0-.553-.447-1-1-1h-1V9c0-.553-.447-1-1-1h-4c-.553 0-1 .447-1 1v3h-1c-.553 0-1 .447-1 1v7h-.178c-.302-.846-.973-1.515-1.822-1.816V1c0-.553-.447-1-1-1H4c-.553 0-1 .447-1 1s.447 1 1 1h1v16.184c-1.162.413-2 1.511-2 2.816 0 1.657 1.343 3 3 3 1.305 0 2.403-.838 2.816-2H20c.391 0 .721-.23.886-.558l.009.005 1-2-.009-.005c.067-.134.114-.281.114-.442zM6 22c-.553 0-1-.447-1-1s.447-1 1-1 1 .447 1 1-.447 1-1 1zm7-12h2v2h-2v-2zm4 10h-6v-6h6v6z"/></svg>