<svg viewBox="0 0 24 24" fill="currentColor"><path d="M13 5c0-.553-.448-1-1-1s-1 .447-1 1 .448 1 1 1 1-.447 1-1zm7.443 6.114l.004-.009-4.945-2.473C16.34 7.342 17 6.007 17 5c0-2.762-2.239-5-5-5S7 2.238 7 5c0 1.007.657 2.344 1.492 3.636l-4.939 2.47.004.009C3.23 11.279 3 11.609 3 12v8c0 .429.272.787.651.93l-.002.007 8 3 .002-.007c.11.041.225.07.349.07s.239-.029.349-.07l.002.007 8-3-.002-.007c.379-.143.651-.501.651-.93v-8c0-.391-.23-.721-.557-.886zM12 2c1.657 0 3 1.343 3 3s-2.968 5-3 5c-.063 0-3-3.343-3-5s1.343-3 3-3zm-1 19.557l-6-2.25v-5.688l6 3v4.938zm1-6.675L6.236 12l3.426-1.713C10.835 11.818 11.961 13 12 13c.024 0 1.151-1.184 2.329-2.718L17.764 12 12 14.882zm7 4.425l-6 2.25v-4.938l6-3v5.688z"/></svg>