<svg viewBox="0 0 24 24" fill="currentColor"><path d="M9 6h2c.553 0 1-.447 1-1s-.447-1-1-1H9c-.553 0-1 .447-1 1s.447 1 1 1zm0 8h6c.553 0 1-.447 1-1s-.447-1-1-1H9c-.553 0-1 .447-1 1s.447 1 1 1zm6-4c.553 0 1-.447 1-1s-.447-1-1-1-1 .447-1 1 .447 1 1 1zm-6 0h2c.553 0 1-.447 1-1s-.447-1-1-1H9c-.553 0-1 .447-1 1s.447 1 1 1zm8 10.586l-.293-.293C16.526 20.112 16.276 20 16 20s-.526.112-.707.293L14 21.586l-1.293-1.293C12.526 20.112 12.276 20 12 20s-.526.112-.707.293L10 21.586l-1.293-1.293C8.526 20.112 8.276 20 8 20s-.526.112-.707.293L7 20.586V3H5v20c0 .553.447 1 1 1 .276 0 .526-.112.707-.293L8 22.414l1.293 1.293c.181.181.431.293.707.293s.526-.112.707-.293L12 22.414l1.293 1.293c.181.181.431.293.707.293s.526-.112.707-.293L16 22.414l1.293 1.293c.181.181.431.293.707.293.553 0 1-.447 1-1V3h-2v17.586zM11 17c0 .553.447 1 1 1s1-.447 1-1-.447-1-1-1-1 .447-1 1zm4-11c.553 0 1-.447 1-1s-.447-1-1-1-1 .447-1 1 .447 1 1 1zm6-6H3C1.343 0 0 1.343 0 3c0 1.588 1.237 2.874 2.799 2.979.064.014.132.021.201.021.553 0 1-.447 1-1s-.447-1-1-1-1-.447-1-1 .447-1 1-1h18c.553 0 1 .447 1 1s-.447 1-1 1-1 .447-1 1 .447 1 1 1c.069 0 .137-.007.201-.021C22.763 5.874 24 4.588 24 3c0-1.657-1.343-3-3-3zM9 18c.553 0 1-.447 1-1s-.447-1-1-1-1 .447-1 1 .447 1 1 1zm6-2c-.553 0-1 .447-1 1s.447 1 1 1 1-.447 1-1-.447-1-1-1z"/></svg>