<svg viewBox="0 0 24 24" fill="currentColor"><path d="M19 14c-2.762 0-5 2.238-5 5s2.238 5 5 5 5-2.238 5-5-2.238-5-5-5zm0 8c-1.657 0-3-1.343-3-3s1.343-3 3-3 3 1.343 3 3-1.343 3-3 3zM10 5c0-2.762-2.238-5-5-5S0 2.238 0 5s2.238 5 5 5 5-2.238 5-5zM2 5c0-1.657 1.343-3 3-3s3 1.343 3 3-1.343 3-3 3-3-1.343-3-3zm19.763-3.376C21.904 1.452 22 1.24 22 1c0-.553-.447-1-1-1-.313 0-.58.151-.763.376l-.012-.009-18 22 .012.009C2.096 22.548 2 22.76 2 23c0 .553.447 1 1 1 .313 0 .579-.151.763-.376l.011.009 18-22-.011-.009z"/></svg>