<svg viewBox="0 0 24 24" fill="currentColor"><path d="M13 14c-.553 0-1 .447-1 1v8c0 .553.447 1 1 1s1-.447 1-1v-8c0-.553-.447-1-1-1zM1 16c-.553 0-1 .447-1 1v6c0 .553.447 1 1 1s1-.447 1-1v-6c0-.553-.447-1-1-1zm4-3c-.553 0-1 .447-1 1v9c0 .553.447 1 1 1s1-.447 1-1v-9c0-.553-.447-1-1-1zm4-2c-.553 0-1 .447-1 1v11c0 .553.447 1 1 1s1-.447 1-1V12c0-.553-.447-1-1-1zM23 0h-4c-.553 0-1 .447-1 1s.447 1 1 1h1.595l-7.591 7.59-4.297-4.297C8.526 5.112 8.276 5 8 5s-.526.112-.707.293l-7 7C.112 12.474 0 12.724 0 13c0 .553.447 1 1 1 .276 0 .526-.112.707-.293L8 7.414l4.293 4.293c.181.181.431.293.707.293.236 0 .444-.094.615-.231l.01.013.056-.057c.016-.015.029-.028.044-.044L22 3.405V5c0 .553.447 1 1 1s1-.447 1-1V1c0-.553-.447-1-1-1zm-2 7c-.553 0-1 .447-1 1v15c0 .553.447 1 1 1s1-.447 1-1V8c0-.553-.447-1-1-1zm-4 4c-.553 0-1 .447-1 1v11c0 .553.447 1 1 1s1-.447 1-1V12c0-.553-.447-1-1-1z"/></svg>