<svg viewBox="0 0 24 24" fill="currentColor"><path d="M15 13c-1.104 0-2 .896-2 2s.896 2 2 2 2-.896 2-2-.896-2-2-2zm-6-2c1.104 0 2-.896 2-2s-.896-2-2-2-2 .896-2 2 .896 2 2 2zm15 1c0-.226-.088-.423-.214-.59l.014-.01L21 7.667V4c0-.553-.447-1-1-1h-3.667L12.6.2l-.01.014C12.423.088 12.225 0 12 0c-.226 0-.423.088-.59.214L11.4.2 7.667 3H4c-.553 0-1 .447-1 1v3.667L.2 11.4l.014.01C.088 11.577 0 11.774 0 12s.088.423.214.59L.2 12.6 3 16.333V20c0 .553.447 1 1 1h3.667l3.733 2.8.01-.014c.167.126.364.214.59.214.225 0 .423-.088.59-.214l.01.014 3.733-2.8H20c.553 0 1-.447 1-1v-3.667l2.8-3.733-.014-.01c.126-.167.214-.364.214-.59zm-4.8 3.4l.014.01c-.126.167-.214.364-.214.59v3h-3c-.226 0-.423.088-.59.214l-.01-.014-3.4 2.55-3.4-2.55-.01.014C8.423 19.088 8.225 19 8 19H5v-3c0-.226-.088-.423-.214-.59l.014-.01L2.25 12 4.8 8.6l-.014-.01C4.912 8.423 5 8.226 5 8V5h3c.225 0 .423-.088.59-.214l.01.014L12 2.25l3.4 2.55.01-.014c.167.126.364.214.59.214h3v3c0 .226.088.423.214.59l-.014.01 2.55 3.4-2.55 3.4zM16 7c-.276 0-.526.112-.707.293l-8 8C7.112 15.474 7 15.724 7 16c0 .553.447 1 1 1 .276 0 .526-.112.707-.293l8-8C16.888 8.526 17 8.276 17 8c0-.553-.447-1-1-1z"/></svg>