<svg viewBox="0 0 24 24" fill="currentColor"><path d="M16.293 8.293L11 13.586l-2.293-2.293C8.526 11.112 8.276 11 8 11c-.553 0-1 .447-1 1 0 .276.112.526.293.707l3 3c.181.181.431.293.707.293s.526-.112.707-.293l6-6C17.888 9.526 18 9.276 18 9c0-.553-.447-1-1-1-.276 0-.526.112-.707.293zM21 3c-.294 0-.551.132-.734.333l-.018-.013C19.491 3.834 18.342 4 17 4c-2.209 0-4-1.666-4-3 0-.553-.447-1-1-1s-1 .447-1 1c0 1.24-1.791 3-4 3-1.342 0-2.522-.197-3.248-.68l-.018.013C3.551 3.132 3.293 3 3 3c-.553 0-1 .447-1 1 0 9.941 4.933 20 10 20 5.278 0 10-10.059 10-20 0-.553-.447-1-1-1zm-9 19c-3.078 0-7.461-8.149-7.951-16.489C4.938 5.83 5.831 6 7 6c2.088 0 3.926-1.08 5-2.449C13.074 4.92 14.912 6 17 6c1.18 0 2.056-.129 2.949-.451C19.444 13.875 15.038 22 12 22z"/></svg>