<svg viewBox="0 0 24 24" fill="currentColor"><path d="M23 2H11c-.553 0-1 .447-1 1v2H7C5.343 5 4 6.343 4 8v2.25L1 11c-.4.084-1 .447-1 1v5c0 .276.112.526.293.707S.724 18 1 18h3.184c.413 1.162 1.511 2 2.816 2 1.304 0 2.398-.838 2.813-2h6.375c.414 1.162 1.509 2 2.813 2 1.305 0 2.403-.838 2.816-2H23c.553 0 1-.447 1-1V3c0-.553-.447-1-1-1zM7 18c-.553 0-1-.447-1-1s.447-1 1-1 1 .447 1 1-.447 1-1 1zm12 0c-.553 0-1-.447-1-1s.447-1 1-1 1 .447 1 1-.447 1-1 1zm3-2h-.184c-.413-1.162-1.512-2-2.816-2-1.304 0-2.398.838-2.813 2H9.813C9.398 14.838 8.304 14 7 14c-1.305 0-2.403.838-2.816 2H2v-3.25L5 12c.353-.065 1-.447 1-1V8c0-.553.447-1 1-1h3v4c0 .553.447 1 1 1h11v4zm0-6H12V4h10v6z"/></svg>