<svg viewBox="0 0 24.001 24" fill="currentColor"><path d="M10.368 10.063C8.842 11.577.669 20.966.287 21.345c-.141.202-.272.414-.286.655-.015.248.093.523.286.716.205.204.454.284.714.284.165 0 .448-.152.668-.284.399-.244 11.796-6.645 13.322-8.159 1.373-1.363 1.33-3.36.079-4.603-1.19-1.182-3.175-1.406-4.702.109zm3.241 3.123c-.764.757-8.723 5.633-8.723 5.633s6.1-6.627 6.863-7.384c.549-.546 1.511-.533 1.938-.109.459.454.502 1.283-.078 1.86zM20.001 2c-.507 0-1.057.014-1.574.156-2.336.641-3.743 3.037-3.35 5.494.011.162.037.327.08.49.342 1.312 1.629 2.097 2.875 1.755 1.245-.342 1.977-1.682 1.635-2.992-.343-1.312.389-2.651 1.635-2.993 1.089-.299 2.206.066 2.699 1.09-.666-1.813-2.227-3-4-3zm-1.995 5.458c.043.162-.112.461-.414.544-.216.059-.549-.099-.602-.3-.327-1.253.077-3.603 2.27-4.204-1.258.346-1.503 3.007-1.254 3.96z"/></svg>