<svg viewBox="0 0 24 24" fill="currentColor"><path d="M19 0H5C2.239 0 0 2.238 0 5v15c0 2.209 1.791 4 4 4h14c2.209 0 4-1.791 4-4V9h1c.552 0 1-.447 1-1V5c0-2.762-2.239-5-5-5zM5 2c1.657 0 3 1.343 3 3H2c0-1.657 1.343-3 3-3zM4 22c-1.104 0-2-.896-2-2V7h2v15zm16-2c0 1.104-.896 2-2 2H6V7h2v1c0 .553.448 1 1 1h3v1c0 .553.448 1 1 1s1-.447 1-1V9h4v1c0 .553.448 1 1 1s1-.447 1-1v10zm2-13h-2V6c0-.553-.448-1-1-1s-1 .447-1 1v1h-4V6c0-.553-.448-1-1-1s-1 .447-1 1v1h-2V5c0-1.131-.39-2.162-1.022-3H19c1.657 0 3 1.343 3 3v2zm-5 6H9c-.552 0-1 .447-1 1v5c0 .553.448 1 1 1h8c.552 0 1-.447 1-1v-5c0-.553-.448-1-1-1zm-1 5h-6v-3h6v3z"/></svg>