<svg viewBox="0 0 24 24" fill="currentColor"><path d="M12 0C5.373 0 0 5.373 0 12s5.373 12 12 12 12-5.373 12-12S18.627 0 12 0zm-1 21.917c-1.854-.188-3.563-.855-4.979-1.915 1.415-1.062 3.125-1.73 4.979-1.919v3.834zm0-5.873c-2.439.203-4.666 1.141-6.472 2.586-1.36-1.531-2.26-3.479-2.476-5.63H11v3.044zM11 11H2.052c.215-2.151 1.116-4.099 2.476-5.63C6.334 6.815 8.561 7.753 11 7.956V11zm0-5.083c-1.854-.188-3.564-.857-4.979-1.919C7.437 2.938 9.146 2.271 11 2.083v3.834zm2-3.834c1.854.188 3.563.855 4.979 1.915C16.564 5.06 14.854 5.729 13 5.917V2.083zm0 5.873c2.439-.203 4.666-1.141 6.472-2.586 1.36 1.531 2.26 3.479 2.476 5.63H13V7.956zm0 13.961v-3.834c1.854.188 3.564.857 4.979 1.919-1.416 1.06-3.125 1.727-4.979 1.915zm6.472-3.287c-1.806-1.445-4.033-2.383-6.472-2.586V13h8.948c-.216 2.151-1.116 4.099-2.476 5.63z"/></svg>