<svg viewBox="0 0 24 24" fill="currentColor"><path d="M11 8c-1.104 0-2 .896-2 2v2c0 .553.448 1 1 1s1-.447 1-1v-2c.552 0 1-.447 1-1s-.448-1-1-1zm10 13c0-.01-.005-.018-.005-.027C20.934 15.159 18 14.866 18 10.047c0-1.984-1.279-3.948-3-5.077V3c0-1.657-1.343-3-3-3S9 1.343 9 3v1.962C7.279 6.082 6 8.03 6 10c0 4.959-3 5.098-3 11 0 .143.032.277.085.399.001.002.002.003.003.005.156.35.504.596.912.596h7v1c0 .553.448 1 1 1s1-.447 1-1v-1h7c.021 0 .039-.011.06-.012.479.012.94-.23.94-.839 0-.045-.004-.085-.004-.129 0-.007.004-.013.004-.02zM11 3c0-.553.448-1 1-1s1 .447 1 1v1.113c-.331-.07-.665-.113-1-.113s-.669.042-1 .112V3zM5.044 20C5.404 15.677 8 15.426 8 10c0-2.026 1.938-4 4-4v.016c1.956 0 4 1.989 4 4.031 0 5.388 2.536 5.687 2.94 9.953H5.044z"/></svg>