<svg viewBox="0 0 24 24" fill="currentColor"><path d="M12 12c-.553 0-1 .447-1 1s.447 1 1 1 1-.447 1-1-.447-1-1-1zm4 6c-.553 0-1 .447-1 1s.447 1 1 1 1-.447 1-1-.447-1-1-1zm0-3c-.553 0-1 .447-1 1s.447 1 1 1 1-.447 1-1-.447-1-1-1zm-4 0c-.553 0-1 .447-1 1s.447 1 1 1 1-.447 1-1-.447-1-1-1zm0 3c-.553 0-1 .447-1 1s.447 1 1 1 1-.447 1-1-.447-1-1-1zm-4 2c.553 0 1-.447 1-1s-.447-1-1-1-1 .447-1 1 .447 1 1 1zm0-6c.553 0 1-.447 1-1s-.447-1-1-1-1 .447-1 1 .447 1 1 1zm0 3c.553 0 1-.447 1-1s-.447-1-1-1-1 .447-1 1 .447 1 1 1zm9-13H7v6h10V4zm-2 4H9V6h6v2zm5-8H4c-.553 0-1 .447-1 1v22c0 .553.447 1 1 1h16c.553 0 1-.447 1-1V1c0-.553-.447-1-1-1zm-1 22H5V2h14v20zm-3-10c-.553 0-1 .447-1 1s.447 1 1 1 1-.447 1-1-.447-1-1-1z"/></svg>