<svg viewBox="0 0 24 24" fill="currentColor"><path d="M8 16h5c.553 0 1-.447 1-1s-.447-1-1-1H8c-.553 0-1 .447-1 1s.447 1 1 1zm6 2H8c-.553 0-1 .447-1 1s.447 1 1 1h6c.553 0 1-.447 1-1s-.447-1-1-1zm6-14h-3V3c0-.553-.447-1-1-1h-1.184C14.403.838 13.305 0 12 0S9.597.838 9.184 2H8c-.553 0-1 .447-1 1v1H4c-.553 0-1 .447-1 1v18c0 .553.447 1 1 1h16c.553 0 1-.447 1-1V5c0-.553-.447-1-1-1zM9 4h1c.553 0 1-.447 1-1s.447-1 1-1 1 .447 1 1 .447 1 1 1h1v2H9V4zm10 18H5V6h2v1c0 .553.447 1 1 1h8c.553 0 1-.447 1-1V6h2v16zm-3-12H8c-.553 0-1 .447-1 1s.447 1 1 1h8c.553 0 1-.447 1-1s-.447-1-1-1z"/></svg>