<svg viewBox="0 0 24 24" fill="currentColor"><path d="M20 10H4c-.553 0-1 .447-1 1s.447 1 1 1h1v11c0 .553.447 1 1 1s1-.447 1-1V12h2v11c0 .553.447 1 1 1s1-.447 1-1V12h2v11c0 .553.447 1 1 1s1-.447 1-1V12h2v11c0 .553.447 1 1 1s1-.447 1-1V12h1c.553 0 1-.447 1-1s-.447-1-1-1zm-6-4c.553 0 1-.447 1-1s-.447-1-1-1h-4c-.553 0-1 .447-1 1s.447 1 1 1h4zm5-5.988V0H5v.012C2.235.09 0 2.352 0 5c0 2.267 1.946 4.001 4.328 4.001 2.02 0 3.662-1.563 3.662-3.484 0-1.645-1.406-2.983-3.135-2.983-.568 0-1.029.438-1.029.979 0 .541.461.979 1.029.979.594 0 1.077.46 1.077 1.025 0 .843-.72 1.527-1.604 1.527C3.08 7.044 2 6.188 2 5c0-2.862 3-3 3-3l14-.031c1.63.077 3 1.462 3 3.031 0 1.188-1.081 2.044-2.329 2.044-.884 0-1.604-.685-1.604-1.527 0-.565.483-1.025 1.077-1.025.568 0 1.029-.438 1.029-.979 0-.54-.461-.979-1.029-.979-1.729 0-3.135 1.339-3.135 2.983 0 1.922 1.643 3.484 3.661 3.484C22.054 9.001 24 7.267 24 5c0-2.648-2.235-4.91-5-4.988z"/></svg>