<svg viewBox="0 0 24 24" fill="currentColor"><path d="M23.848 22.501l.015-.008L17.102 11H19c.553 0 1-.447 1-1s-.447-1-1-1h-3c-.023 0-.044.012-.067.014l-1.747-2.971C14.688 5.507 15 4.792 15 4c0-1.305-.838-2.403-2-2.816V1c0-.553-.447-1-1-1s-1 .447-1 1v.184C9.838 1.597 9 2.695 9 4c0 .792.313 1.507.814 2.043L8.067 9.014C8.044 9.012 8.023 9 8 9H5c-.553 0-1 .447-1 1s.447 1 1 1h1.898L.138 22.493l.015.008C.064 22.65 0 22.814 0 23c0 .553.447 1 1 1 .367 0 .674-.207.848-.501l.015.008 2.91-4.948C6.783 20.085 9.281 21 12 21s5.217-.915 7.228-2.441l2.91 4.948.015-.008c.173.294.48.501.847.501.553 0 1-.447 1-1 0-.186-.064-.35-.152-.499zM12 3c.553 0 1 .447 1 1 0 .552-.447 1-1 1s-1-.448-1-1c0-.553.447-1 1-1zm0 16c-2.35 0-4.498-.824-6.204-2.182l5.8-9.859c.133.019.265.041.404.041s.271-.022.404-.041l5.799 9.859C16.498 18.176 14.35 19 12 19z"/></svg>