<svg viewBox="0 0 24 24" fill="currentColor"><path d="M22.702 7.005c-1.442-1.442-3.365-2.081-5.253-1.97l-2.742-2.742C14.526 2.112 14.276 2 14 2s-.526.112-.707.293L13 2.586 10.707.293C10.526.112 10.276 0 10 0s-.526.112-.707.293l-3 3C6.112 3.474 6 3.724 6 4s.112.526.293.707L8.586 7l-.293.293C8.112 7.474 8 7.724 8 8c0 .169.053.32.126.46l-2.84 2.84C4.895 11.113 4.462 11 4 11c-1.657 0-3 1.343-3 3s1.343 3 3 3c.386 0 .752-.079 1.091-.212L9 22H7c-.553 0-1 .447-1 1s.447 1 1 1h8c.553 0 1-.447 1-1s-.447-1-1-1h-3.5l-4.898-6.532C6.848 15.032 7 14.536 7 14c0-.462-.113-.895-.3-1.286l2.8-2.8 1.535 1.535c-.111 1.888.527 3.811 1.97 5.253.383.383 1.003.383 1.386 0l8.312-8.312C22.83 8.262 23 8.169 23 8c0-.324-.044-.741-.298-.995zM4 15c-.553 0-1-.447-1-1s.447-1 1-1 1 .447 1 1-.447 1-1 1zM8.414 4L10 2.414 11.586 4 10 5.586 8.414 4zm2 4L14 4.414l1.149 1.149c-.777.334-1.51.807-2.145 1.441s-1.107 1.367-1.441 2.145L10.414 8zm3.354 6.555c-1.26-1.902-1.053-4.489.623-6.164 1.675-1.676 4.262-1.883 6.164-.623l-6.787 6.787z"/></svg>