<svg viewBox="0 0 24 24" fill="currentColor"><path d="M24 10c0-.404-.243-.749-.588-.906l.002-.004-11-5-.002.004C12.285 4.036 12.147 4 12 4c-.148 0-.285.036-.412.094l-.002-.004-11 5 .002.004C.243 9.251 0 9.596 0 10s.243.749.588.906l-.002.004L5 12.917V18c0 1.657 3.134 3 7 3s7-1.343 7-3v-5.083l4.414-2.007-.002-.004c.345-.157.588-.502.588-.906zm-7 8c0 .114-2.238 1-5 1s-5-.822-5-1v-4.174l4.586 2.084.002-.004c.127.058.264.094.412.094.147 0 .285-.036.412-.094l.002.004L17 13.826V18zm-5-4.099L3.417 10 12 6.099l2.594 1.179-3.108 1.865.009.015c-.291.174-.495.479-.495.842 0 .553.447 1 1 1 .188 0 .355-.066.506-.157l.009.015 4.291-2.574L20.583 10 12 13.901z"/></svg>