<svg viewBox="0 0 24 24" fill="currentColor"><path d="M22.879 19.561l.015-.008-4.678-9.355C18.716 9.242 19 8.156 19 7c0-3.866-3.134-7-7-7S5 3.134 5 7c0 1.156.284 2.242.783 3.197l-4.678 9.355.015.008c-.069.133-.12.277-.12.44 0 .553.448 1 1 1 .068 0 .128-.025.192-.039l.004.02 4.251-.851 1.658 3.317.009-.005c.165.328.495.558.886.558.484 0 .869-.351.961-.808l.02.004 1.843-9.214c.059.001.115.018.176.018s.117-.017.177-.018l1.843 9.214.019-.004c.092.457.477.808.961.808.391 0 .721-.23.885-.558l.009.005 1.658-3.317 4.251.851.004-.02c.065.014.125.039.193.039.552 0 1-.447 1-1 0-.163-.051-.307-.121-.439zm-14.288.385l-.696-1.394-.009.005C7.721 18.23 7.391 18 7 18c-.068 0-.128.025-.192.039l-.004-.02-2.995.599 3.316-6.631c.764.737 1.693 1.307 2.73 1.643l-1.264 6.316zM12 12c-2.761 0-5-2.238-5-5s2.239-5 5-5 5 2.238 5 5-2.239 5-5 5zm5.196 6.02l-.004.02c-.064-.015-.124-.04-.192-.04-.391 0-.721.23-.885.558l-.009-.005-.696 1.394-1.264-6.316c1.036-.336 1.966-.905 2.73-1.643l3.315 6.631-2.995-.599zM12 4c-1.657 0-3 1.343-3 3s1.343 3 3 3 3-1.343 3-3-1.343-3-3-3zm0 4c-.552 0-1-.447-1-1s.448-1 1-1 1 .447 1 1-.448 1-1 1z"/></svg>