<svg viewBox="0 0 24 24" fill="currentColor"><path d="M12 16c-.552 0-1 .447-1 1v2c0 .553.448 1 1 1s1-.447 1-1v-2c0-.553-.448-1-1-1zm11.857-9.485l-.015-.009C23.934 6.355 24 6.188 24 6c0-.236-.094-.444-.231-.615l.012-.01-4-5-.012.01C19.586.156 19.316 0 19 0H5c-.316 0-.586.156-.769.385l-.012-.01-4 5 .012.01C.094 5.556 0 5.764 0 6c0 .188.066.355.157.506l-.014.009 6.031 10.063.015-.01C6.075 17.028 6 17.504 6 18c0 3.313 2.686 6 6 6 3.313 0 6-2.687 6-6 0-.496-.075-.972-.189-1.433l.015.01 6.031-10.062zM12 22c-2.209 0-4-1.791-4-4s1.791-4 4-4 4 1.791 4 4-1.791 4-4 4zm-.364-9.963L9.118 7h5.764l-2.518 5.037C12.241 12.029 12.125 12 12 12s-.241.029-.364.037zm5.152 2.373c-.625-.83-1.449-1.502-2.416-1.919l3.522-7.044-.009-.005C17.953 5.308 18 5.161 18 5c0-.553-.448-1-1-1-.391 0-.721.23-.885.558l-.009-.005-.224.447H8.118l-.223-.447-.01.005C7.721 4.23 7.391 4 7 4c-.552 0-1 .447-1 1 0 .161.047.308.115.442l-.01.005 3.522 7.044c-.967.417-1.791 1.089-2.416 1.919L2.215 6.082 5.48 2h13.04l3.265 4.082-4.997 8.328z"/></svg>