<svg viewBox="0 0 24 24" fill="currentColor"><path d="M19.293 12.293c-.391.391-5.805 6.29-7.758 8.242C10.56 21.512 9.279 22 8 22s-2.56-.488-3.535-1.465C3.48 19.552 2.992 18.259 3 16.969c.008-1.269.496-2.536 1.465-3.504 1.952-1.953 9.242-9.415 10.414-10.586 1.171-1.172 3.071-1.172 4.242 0 1.172 1.171 1.172 3.071 0 4.242-1.171 1.172-9.023 9.195-9.414 9.586s-1.023.391-1.414 0-.391-1.023 0-1.414 6.023-6.195 6.414-6.586.391-1.023 0-1.414-1.023-.391-1.414 0-5.243 5.414-6.414 6.586c-1.172 1.171-1.172 3.07 0 4.242 1.171 1.172 3.071 1.172 4.242 0 1.172-1.172 7.462-7.633 9.414-9.586C21.527 7.543 22.016 6.3 22 5c-.016-1.259-.504-2.575-1.465-3.535C19.567.496 18.27.008 17 0c-1.29-.008-2.552.48-3.535 1.465C11.512 3.417 5.784 9.316 3.05 12.05 1.691 13.409 1.008 15.219 1 17c-.008 1.802.676 3.575 2.05 4.95C4.409 23.309 6.219 23.992 8 24c1.802.008 3.575-.676 4.949-2.05 2.734-2.734 7.367-7.853 7.758-8.243s.391-1.023 0-1.414-1.023-.391-1.414 0z"/></svg>