<svg viewBox="0 0 24 24" fill="currentColor"><path d="M21.972 7.558l.868-.868C23.592 5.938 24 4.986 24 4c0-.964-.378-2.087-1.16-2.87C22.057.347 20.964 0 20 0c-.986 0-1.969.377-2.721 1.13L10.108 8.3c-.384.384-.384 1.007 0 1.391l-8.255 8.255c-.908.908-1.089 2.256-.565 3.353l-.995.995c-.181.18-.293.43-.293.706 0 .553.447 1 1 1 .276 0 .526-.112.707-.293l1.005-1.005c1.089.499 2.415.311 3.312-.586l8.256-8.256c.384.384 1.006.384 1.39 0l4.889-4.889L21.586 10l-3.293 3.293c-.181.181-.293.431-.293.707 0 .553.447 1 1 1 .276 0 .526-.112.707-.293l4-4c.181-.181.293-.431.293-.707s-.112-.526-.293-.707l-1.735-1.735zM4.634 20.726c-.384.384-1.007.384-1.391 0s-.384-1.006 0-1.39l8.256-8.256 1.39 1.391-8.255 8.255zM21.449 5.3l-6.476 6.476-2.779-2.78 6.475-6.476c.768-.768 2.013-.768 2.78 0 .768.768.768 2.012 0 2.78z"/></svg>