<svg viewBox="0 0 24 24" fill="currentColor"><path d="M23 17V7c0-2.209-1.791-4-4-4H1c-.553 0-1 .447-1 1v14c0 .553.447 1 1 1h1.184c.413 1.162 1.511 2 2.816 2s2.403-.838 2.816-2h6.367c.413 1.162 1.512 2 2.816 2s2.403-.838 2.816-2H23c.553 0 1-.447 1-1s-.447-1-1-1zM2 5h6v5H2V5zm3 14c-.553 0-1-.447-1-1s.447-1 1-1 1 .447 1 1-.447 1-1 1zm9-2H7.816C7.403 15.838 6.305 15 5 15s-2.403.838-2.816 2H2v-5h12v5zm-4-7V5h6v5h-6zm7 9c-.553 0-1-.447-1-1s.447-1 1-1 1 .447 1 1-.447 1-1 1zm4-2h-1.184c-.413-1.162-1.512-2-2.816-2-.353 0-.688.065-1 .178V12h5v5zm0-7h-3V5h1c1.104 0 2 .896 2 2v3z"/></svg>