<svg viewBox="0 0 24 24" fill="currentColor"><path d="M12 11c-.553 0-1 .447-1 1s.447 1 1 1 1-.447 1-1-.447-1-1-1zm11-3c0-.729-.088-1.464-.428-2.047-.933-1.602-3.221-2.2-6.064-1.854C15.408 1.59 13.799 0 12 0S8.592 1.591 7.492 4.099c-2.845-.346-5.132.254-6.064 1.854C1.078 6.553 1 7.246 1 8c0 1.228.741 2.607 1.782 3.996C1.74 13.386 1 14.767 1 16c0 .752.077 1.446.428 2.047.933 1.602 3.221 2.2 6.064 1.854C8.592 22.409 10.201 24 12 24s3.408-1.591 4.508-4.099c2.845.346 5.132-.254 6.064-1.854.35-.6.428-1.293.428-2.047 0-1.228-.741-2.607-1.782-3.996C22.277 10.59 23 9.245 23 8zM3.189 17.039c-.515-.884-.148-2.166.859-3.563.648.672 1.385 1.332 2.204 1.962.14.931.333 1.814.574 2.635-1.769.188-3.112-.134-3.637-1.034zm2.828-4.366c-.25-.225-.479-.45-.701-.676.224-.225.457-.45.708-.675C6.017 11.549 6 11.77 6 12c0 .228.011.449.017.673zm.245-4.118c-.822.631-1.562 1.29-2.211 1.963-1.004-1.395-1.375-2.675-.862-3.557.524-.9 1.869-1.223 3.642-1.034-.24.817-.429 1.702-.569 2.628zm9.202-1.543c-.139-.082-.271-.168-.412-.249-.171-.098-.343-.179-.515-.271.247-.076.492-.148.731-.211.068.24.136.477.196.731zM12 2c1 0 1.908.936 2.608 2.454-.847.209-1.723.489-2.613.843-.89-.351-1.767-.637-2.613-.845C10.083 2.929 10.997 2 12 2zM8.723 6.278c.233.061.479.144.721.218-.165.089-.33.173-.495.267-.137.078-.265.162-.399.241.056-.243.108-.495.173-.726zm-.187 10.71c.139.082.271.168.412.249.171.098.343.179.515.271-.247.076-.492.148-.731.211-.068-.24-.136-.477-.196-.731zM12 22c-1 0-1.908-.936-2.608-2.454.847-.209 1.723-.489 2.613-.843.89.351 1.767.637 2.613.845C13.916 21.071 13.003 22 12 22zm3.277-4.278c-.233-.061-.479-.144-.721-.218.165-.089.33-.173.495-.267.137-.078.265-.162.398-.242-.055.244-.107.496-.172.727zm.601-3.396c-.579.402-1.193.793-1.843 1.165-.68.389-1.356.731-2.025 1.037-.676-.308-1.357-.645-2.045-1.037-.653-.374-1.271-.768-1.853-1.171C8.042 13.574 8 12.8 8 12c0-.806.05-1.577.122-2.326.579-.402 1.193-.793 1.843-1.165.68-.389 1.356-.731 2.025-1.037.675.308 1.357.645 2.045 1.037.653.374 1.271.767 1.853 1.171.07.746.112 1.52.112 2.32 0 .806-.05 1.577-.122 2.326zm4.933 2.713c-.524.9-1.869 1.223-3.642 1.034.24-.818.429-1.702.569-2.628.821-.631 1.562-1.29 2.211-1.963 1.004 1.394 1.375 2.675.862 3.557zm-2.828-5.712c.25.225.479.45.701.676-.224.225-.458.45-.708.675.007-.227.024-.448.024-.678 0-.228-.011-.449-.017-.673zm1.968-.804c-.648-.672-1.385-1.332-2.204-1.962-.14-.931-.333-1.814-.574-2.635 1.771-.188 3.113.134 3.638 1.034.514.885.148 2.167-.86 3.563z"/></svg>