<svg viewBox="0 0 24 24" fill="currentColor"><path d="M24 18.002c0-1.205-.715-2.237-1.74-2.715l.326-.564c.845-1.462.344-3.332-1.12-4.176L7.336 2.394c-.432-.249-.869-.368-1.336-.392-1.112-.059-2.248.48-2.843 1.511l-1.02 1.765c-.124.215-.137.493-.137.724 0 .231.238.511.511.668l1.289.76-.666 1.008c-.281.487-.114 1.11.374 1.391.487.281 1.111.114 1.392-.373l.666-1.008 13.181 7.592c-.459.526-.747 1.208-.747 1.962 0 .771.3 1.469.778 2H1c-.553 0-1 .447-1 1s.447 1 1 1h20c.553 0 1-.447 1-1 0-.062-.024-.114-.035-.173 1.181-.403 2.035-1.51 2.035-2.827zM4.414 5.414l.51-.883c.281-.487.905-.654 1.393-.372l14.13 8.152c.487.281.655.904.373 1.393l-.51.882L4.414 5.414zM21 19.002c-.553 0-1-.448-1-1 0-.553.447-1 1-1s1 .447 1 1c0 .552-.447 1-1 1z"/></svg>