<svg viewBox="0 0 24 24" fill="currentColor"><path d="M24 5.38c0-1.095-.465-2.143-1.269-2.677-.398-.362-1.043-.362-1.441 0s-.398.95 0 1.313c.495.495.71.962.71 1.364 0 .842-.76 1.4-.791 1.347-.801.614-1.985.6-2.739-.086l-2.162-1.969c-.347-.316-.373-.796-.114-1.156 0 0 .412-1.013 1.118-.37.398.362 1.043.362 1.441 0 .398-.363.398-.95 0-1.313-2.177-1.982-3.867.193-3.867.193s-4.705 6.251-6.885 8.386C5.184 13.17.767 16.011.767 16.011.173 16.577 0 17.377 0 18.105c0 .684.297 1.294.867 1.816l2.162 1.976C3.846 22.645 4.946 23 6 23c.967 0 1.951-.491 2.7-1.225-.027.027.649-1.423 2.165-3.396l4.428 4.334c.181.177.431.287.707.287.552 0 1-.438 1-.979v-2.937h3c.552 0 1-.438 1-.979 0-.271-.112-.515-.293-.692l-4.396-4.304c2.093-1.565 4.472-3.187 6.483-5.157C23.411 7.408 24 6.279 24 5.38zM7.23 20.411l.061.06c-.009-.002-.026-.013-.032-.013-.77.753-1.993.85-2.789.123l-2.162-1.976c-.365-.334-.437-.85-.134-1.215l.001.001s2.224-1.433 4.443-3.168l2.834 2.774c-1.399 1.858-2.222 3.414-2.222 3.414zm3.477-4.955L8.158 12.96c.372-.322.727-.646 1.052-.965.484-.473.984-1.033 1.476-1.623l2.615 2.56c-.5.422-.994.865-1.463 1.324-.4.39-.775.794-1.131 1.2zm6.879 1.67H16c-.552 0-1 .438-1 .979v1.553l-2.871-2.811c.382-.428.792-.865 1.246-1.31.412-.404.877-.803 1.362-1.201l2.849 2.79zm-2.73-5.439L11.92 8.812c1.37-1.813 2.434-3.474 2.434-3.474.137.23.299.451.513.646l2.162 1.968c.552.503 1.226.82 1.934.974 0 .001-1.919 1.105-4.107 2.761z"/></svg>