<svg fill="currentColor" viewBox="0 0 100 10">
  <path d="M.470218 5.01565C3.60501 5.64261 11.7555 1.25392 24.9216 3.76175c3.1347.62695 5.0156 1.2539 6.8965 1.2539 1.2539 0 2.5078.00001 3.7617.62696 0 1.25392 1.2539 1.88087 3.1348 2.50783 2.5078.62696 6.2696-1.2539 6.8965-3.76173 0-.62696-.6269-.62696-1.2539 0 0 .62695-3.1347 3.13478-6.2695 2.50782-.627 0-1.8809-.62696-1.8809-1.88088 3.1348 0 6.2696-1.25391 6.8965-3.76174C43.1033.626956 42.4764 0 41.8494 0c-1.8809 0-5.6426.62696-6.2696 3.76175H33.699c-3.1348-.62696-7.5235-2.50784-10.6583-2.50784C14.2633-.00000121 3.60501 4.3887.470218 3.76175c-.626957.62695-.626957 1.2539 0 1.2539zM36.2068 4.38871c.6269-1.88088 3.1348-3.1348 4.3887-3.1348 0 0 .627.00001.627.62696 0 1.88088-2.5079 2.50784-5.0157 2.50784zM99.5296 4.38968c-3.1348.62696-13.793-4.3887088-22.5705-2.50783-3.1347.62695-7.5234 2.50783-10.6582 2.50783H64.42C63.793 1.25489 60.0313.00097245 58.1504.627931c-1.2539 0-1.2539.626959-1.2539 1.253919.627 2.50783 3.7617 3.13478 6.8965 3.76174 0 .62696-1.2539 1.25393-1.8808 1.88089-3.1348.62695-6.2696-1.88089-6.2696-2.50785s-1.2539-.62696-1.2539 0c.6269 2.50784 4.3887 3.76176 6.8965 3.76176 1.8809-.62696 3.1348-1.25392 3.1348-2.50784 1.2539 0 2.5078 0 3.7617-.62696 1.8809 0 3.1348-1.25391 6.8966-1.25391 13.1661-1.88087 21.3165 1.88087 24.4513 1.25391.6274-.62696.6274-1.25391 0-1.25391zM58.7774 1.88185l.6269-.62696c1.254 0 3.7618 1.25392 4.3887 3.13479-2.5078 0-5.0156-.62696-5.0156-2.50783zM50 0c1.2539 1.25392 1.8809 1.88087 3.1348 3.13479C51.8809 5.01566 51.2539 7.52349 50 9.40437c-.6269-2.50784-1.8809-4.38871-3.1348-6.89654L50 0zm-1.8809 3.76175c.627 1.25391 1.254 2.50783 1.8809 3.76175 0 0 0-.62696.627-.62696.6269-1.25392 1.2539-1.88088 1.2539-3.13479L50 1.88087c-.6269.62696-1.2539.62696-1.8809 1.88088z"/>
</svg>
