<svg xmlns="http://www.w3.org/2000/svg" fill="currentColor" viewBox="0 0 218 154">
  <path fill="var(--fg)" fill-rule="evenodd" d="M95.84.151123L90.0652.59326c-1.3326 0-2.2211 0-2.2211.44214 0 .88427 1.3327 0 1.7769 3.53709l1.3327 38.90801c0 2.2107-1.3327 1.7686-1.3327 2.6528 0 0 .4442.4422.8884.4422l7.996-.4422c7.5516-.4421 13.7706-9.727 12.8826-26.9703C110.499 6.34104 103.392-.291013 95.84.151123zm7.108 12.821977l.888 17.2433c0 3.5371-1.333 12.3798-3.998 12.3798-.8884 0-1.7769 0-1.7769-.8842L96.7285 3.24608c0-.44214.4442-.88427 1.3326-.88427 3.1099.44213 4.4419 6.18991 4.8869 10.61129zm15.547-2.2107c0 .4421.889.8843.889 1.7685 0 .8843-.445 1.7686-.889 3.095l-7.996 24.7597c-1.332 4.4213-2.665 3.9792-2.665 4.4213 0 .4422 0 .4422.444.4422h6.219s.444 0 .444-.4422c0-.8843-2.221 0-1.332-3.0949l1.777-5.3057 6.219.4422.444 5.7477c.444 3.095-.889 2.2107-1.333 3.095 0 .4421 0 .4421.889.4421l7.996.4422c.444 0 .888 0 .888-.4422 0-.4421-.888 0-1.333-3.0949l-2.665-29.6232c0-1.7685 0-2.2107-.444-2.2107l-7.552-.4421c.444 0 0 0 0 0zm1.777 14.1484l.888 9.727-4.886-.4422 3.11-9.2848c.444-2.2107.888-1.7686.888 0zm16.436-11.9377c0 .4421 1.777 1.3264 1.333 3.0949l-6.219 28.2968c-.444 2.2107-.889 1.3264-1.333 2.2107 0 .4421.444.4421.444.4421l3.998.8843c.444 0 .444 0 .444-.4422 0-.4421-1.776 0-.888-4.4213l3.11-14.1484c0-.4421.444-.4421.444 0l3.554 19.8961c0 .4422 0 .4422.444.4422l3.553 1.3264h.445c0-.4421-.445 0 0-.8843l8.44-29.181c.888-3.095 1.777-1.7685 1.777-2.6528 0-.4422 0-.4422-.889-.4422l-3.553-1.3264c-.889-.4421-.889-.4421-1.333 0 0 .4422.888.4422.444 2.6529l-4.442 15.9169c.444.8842 0 0-.444-1.7686l-3.554-17.6854c-.444-1.3264-.444-1.3264-.888-1.7686l-4.443-1.3264c0 .4421-.444.4421-.444.8843zm-60.4135.4421l-5.7749 1.3264c-.4442 0-.4442 0-.4442.4422 0 .4421.8884.4421 1.3327.8842v2.2107l-3.1096 8.8428c0 .4421-.4442.8842-.8884.8842 0 0-.4442 0-.4442-.4421l-2.2211-9.2849c-.4442-1.7685 1.3326-1.7685.8884-2.2107 0 0 0-.4421-.4442 0l-8.8844 2.2107c-.4442 0-.4442 0-.4442.4422 0 .4421 1.3327 0 1.7769 2.2106l6.6633 28.7389c.4442 1.7686-.8885 1.7686-.8885 2.6528 0 .4422.4442.4422.8885 0l8.8843-2.6528v-.4421c0-.4422-1.7768 0-1.7768-.8843l-3.1096-14.1484c0-.4421 0-.8842.4442-1.3264.4443 0 .4443.4422.8885.8843l6.6633 14.5905c.4442.4421.4442.8843 1.3326.4421l7.5517-1.3264c.4442 0 .4442 0 .4442-.4421 0-.8843-1.7768 0-2.6653-1.7685l-6.6632-15.0327c-.4443-.4421-.4443-.4421-.8885-.4421-.8884.4421-4.8864 1.3264-5.3306-.4422 0-.4421.8884-2.6528 1.7769-5.7477l1.7769-4.8635c1.7768-4.8635 3.1095-4.4214 2.6653-5.3057.4442 0 0 0 0 0zm83.5125 5.3057c-.444.8842 1.777.8842.445 4.4213l-8.44 23.8754c-1.333 3.9792-3.11 2.2107-3.11 3.095 0 .4421 0 .4421.444.8842l8.885 2.6529h.888c.444-.8843-1.777-.8843-.444-4.4214l8.44-23.8754c1.333-3.9792 3.109-2.2107 3.109-3.0949 0-.4422 0-.4422-.444-.8843l-8.884-3.095c-.444 0-.889 0-.889.4422zm-108.3888 0c-.4442 0-.4442 1.3264-.8884 1.3264-1.3326.4421-3.998.8842-4.8864 1.3264-6.6633 2.2107-5.7748 11.9377-3.5537 18.1276 3.9979 11.9377 10.6612 16.8012 15.9918 15.0326 3.5538-1.3264 4.8864-5.3056 3.5538-7.9584-.4443-1.7686-1.7769-3.9793-3.998-4.4214-.4442 0-.8884 0-.4442.8843.4442.8842 1.3326 2.2107 1.7769 3.0949.4442.8843.4442 6.1899-1.7769 7.0742-2.6653.8843-4.8864-4.8635-5.7749-7.0742l-5.3306-16.8012c0-2.2106-1.7768-6.1899 1.3327-7.0741 3.1095-.8843 5.3306 3.537 5.7748 3.0949 0 0 .4442 0 0-.4421l-1.7769-6.1899c0 .4421 0 0 0 0zm121.7158 3.9792c-.444.8843 1.777.8843 0 4.4214l-10.661 22.9911c-1.777 3.5371-3.11 2.6528-3.554 3.5371 0 .4421 0 .4421.444.8842l12.883 5.3057 3.109-3.9793v-.8842c-.888.4421-4.442 2.2106-6.219 1.3264-1.333-.8843-1.777-.8843-1.333-2.2107l5.775-11.9377c.444-.8843 1.333-1.3264 2.221-.8843 1.777.8843-.444 5.3057.889 5.7478.444 0 .444 0 .888-.8843l3.998-8.8427c0-.4421.444-.8843 0-1.3264-.888-.4421-2.665 3.9792-4.442 2.6528-.888-.4421-1.333-1.3264-.888-2.2107l3.109-6.632c1.333-2.6528 1.333-3.095 2.665-2.6528 2.666 1.3264 3.11 4.4213 3.11 5.7477 0 1.3264.444 1.7686.888.4422l1.777-5.7478-13.771-6.1899c-.444 1.3264-.444 1.3264-.888 1.3264zM8.32909 26.6793c-2.66531 1.7686-5.33062 3.9792-7.995926 5.7478-.444219 0-.444219.8843 0 .4421 1.332656-.4421 2.221086.4422 3.109526 1.7686L19.4345 60.2817c1.7769 2.6528 4.8864 8.4006.8885 11.0534-3.5538 2.2107-6.6633 0-8.4402-2.6528-1.3326-2.2107-1.7768-6.1899 0-7.0742.8885-.4421.8885-.4421 1.3327-.4421 0-.8843 0-1.3264-.4442-1.7686-1.3327-2.2107-3.55377-2.2107-5.77487-.8842-3.10952 1.7685-3.10952 7.5163-.88843 11.0534 3.10952 5.3056 10.217 6.632 15.5476 3.5371 8.4402-5.3057 5.7749-14.1484 2.6653-19.0119L9.66174 30.6585c-1.33265-1.7685-1.33265-2.2106-.88843-3.537.44421 0 .44421-.8843-.44422-.4422zM207.783 28.0057c-1.777 0-3.11 1.7686-2.665 3.5371 0 .8843.444 1.7686 1.332 2.2107-.444 1.3264-2.221.8843-2.221 1.7685 0 .4422.444.4422.889.4422 1.777 0 6.219-1.7686 5.775-4.8635 0-1.7686-1.333-3.095-3.11-3.095zm-16.436 3.095c-.444.8843 1.777.8843-.444 4.4213L178.02 58.071c-1.777 3.095-3.553 1.7686-3.998 2.6528 0 .4422 0 .4422.445.8843l12.438 7.0742 4.442-3.9792s.444-.4422 0-.8843-4.886 1.7685-7.108.8843c-1.332-.4422-1.332-.8843 0-3.095l12.883-22.1068c2.221-3.5371 3.109-1.7686 3.998-2.6528 0-.4422 0-.4422-.444-.8843l-7.996-4.4214c-.889-.8843-1.333-.8843-1.333-.4421zm11.105 13.7062c-3.998 6.6321-.888 21.6647-2.665 24.3175-1.777 2.6529-3.109 3.095-4.886 2.2107-3.998-2.2107-3.11-5.7478-2.221-7.5163 0-.4421.444-.4421 0-.8843 0 0-.445 0-.445.4422l-3.998 5.3056s-.444.4421-.444.8843c.444 0 1.777-.4422 2.221 0 .889.4421 1.333 2.6528 4.442 4.4213 4.443 2.6529 8.441-.4421 10.217-3.5371 5.331-8.4006.445-19.8961 3.11-24.7596.888-1.3264 2.221-2.2107 3.998-1.3264 1.777 1.3264 2.665 4.8635 2.221 6.632 0 .8843-.888 2.2107-.444 2.6529.444 0 .444-.4422.888-.8843l3.11-4.4214c.444-.4421.444-.8843.444-.8843-.444-.4421-.444.4422-1.333-.4421-1.332-.8843-2.221-3.9792-4.442-5.3056-3.554-1.3264-8.44 1.3264-9.773 3.0949zM21.6556 31.5428c-.8884.4422-1.3326 1.7686 0 1.3264.4442 0 1.3327.4422 1.7769 2.2107L30.54 62.4924c.4442 1.3264 0 2.2107-.8884 3.0949 0 0 0 .8843.4442.4422 1.3326-.4422 5.3306-3.095 5.7748-3.5371.4442 0 0-.4422-.4442-.4422-1.3327.4422-1.7769-.4421-2.2211-1.7685l-1.3327-5.7478 5.3307-2.6528 3.1095 3.9792c.8884.8843.8884 2.6529 0 3.095-.4442.4421 0 .8843.4442.8843 3.1095-1.7686 6.2191-3.5371 9.3286-4.8635.4442-.4422 0-.8843-.4442-.8843-.8885 0-1.3327 0-2.2211-1.3264L27.4305 28.89c-1.3327.4421-3.998 1.7685-5.7749 2.6528zm7.996 11.9377l5.7748 7.0742-4.4422 1.7685-2.2211-8.8427c0-.4421-.4442-.8843 0-1.3264 0 .4421.8885.8843.8885 1.3264z" clip-rule="evenodd"/>
  <path fill="var(--fg)" d="M201.564 77.5244v.8843h.888v-.8843h-.888zm0 2.6528h-.444v-3.0949H202.897s.444 0 .444.4421v.4421c0 .4422 0 .4422-.444.4422l-.445.4421s.445 0 .445.4421l.444.4422.444.4421h-.444l-.444-.4421c0-.4421-.445-.4422-.445-.8843h-.888v1.3264zm.888-3.9792c-.444 0-1.332.4421-1.776.8843-.445.4421-.889.8842-.889 1.7685 0 .4421.444 1.3264.889 1.7686.444.4421.888.8842 1.776.8842.445 0 1.333-.4421 1.777-.8842.444-.4422.889-.8843.889-1.7686 0-.4421-.445-1.3264-.889-1.7685-.888-.4422-1.332-.8843-1.777-.8843zm0-.4421c.445 0 .889 0 1.333.4421.444.4421.888.4421.888.8843.445.4421.445.8842.445 1.3264 0 .4421 0 .8843-.445 1.3264-.444.4421-.444.8843-.888.8843-.444.4421-.888.4421-1.333.4421-.444 0-.888 0-1.332-.4421-.444-.4422-.889-.4422-.889-.8843-.444-.4421-.444-.8843-.444-1.3264 0-.4422 0-.8843.444-1.3264.445-.4422.445-.8843.889-.8843 0-.4421.888-.4421 1.332-.4421zM71.8527 72.2202c2.2211.4421 7.9959-2.6528 17.3245-.8843 2.2211.4422 3.5537.8843 4.8864.8843.8884 0 1.7769 0 2.6653.4421 0 .8843.8884 1.3264 2.2211 1.7686 1.776.4421 4.442-.8843 4.886-2.6528 0-.4422-.444-.4422-.889 0 0 .4421-2.221 2.2106-4.4412 1.7685-.4442 0-1.3327-.4421-1.3327-1.3264 2.2211 0 4.4419-.8843 4.8859-2.6528 0-.4422-.444-.8843-.888-.8843-1.3326 0-3.9979.4421-4.4421 2.6528h-1.3327c-2.221-.4421-5.3306-1.7685-7.5517-1.7685-6.219-.8843-13.7707 2.2107-15.9918 1.7685-.4442.4422-.4442.8843 0 .8843zm25.3204-.4421c.4442-1.3264 2.2211-2.2107 3.1089-2.2107 0 0 .444 0 .444.4421 0 1.3264-1.776 1.7686-3.5529 1.7686zM142.039 71.779c-2.221.4421-9.773-3.095-15.992-1.7686-2.221.4422-5.331 1.7686-7.552 1.7686h-1.332c-.445-2.2107-3.11-3.095-4.443-2.6528-.888 0-.888.4421-.888.8842.444 1.7686 2.665 2.2107 4.886 2.6529 0 .4421-.888.8842-1.332 1.3264-2.221.4421-4.442-1.3264-4.442-1.7686 0-.4421-.889-.4421-.889 0 .444 1.7686 3.11 2.6528 4.887 2.6528 1.332-.4421 2.221-.8842 2.221-1.7685.888 0 1.777 0 2.665-.4421 1.333 0 2.221-.8843 4.886-.8843 9.329-1.3264 15.104 1.3264 17.325.8843.444-.4422.444-.8843 0-.8843zm-28.874-1.7686l.444-.4421c.888 0 2.665.8843 3.109 2.2107-1.776 0-3.553-.4422-3.553-1.7686zM106.945 68.6831c.889.8843 1.333 1.3264 2.221 2.2107-.888 1.3264-1.332 3.0949-2.221 4.4214-.444-1.7686-1.332-3.095-2.221-4.8635l2.221-1.7686zm-1.332 2.6528c.444.8843.888 1.7686 1.332 2.6528 0 0 0-.4421.444-.4421.445-.8843.889-1.3264.889-2.2107l-1.333-1.3264c-.444.4422-.888.4422-1.332 1.3264z"/>
  <path d="M47.4195 117.759c-3.5538 0-6.6633-1.768-10.217-3.979h-.4443c-.8884 1.327-2.6653 3.095-4.8864 3.095-3.1095 0-4.8864-1.768-4.8864-4.421 0-2.653 2.2211-4.422 4.8864-4.422 1.3327 0 2.2211.442 2.6653.442.4443 0 .4443 0 .4443-.442 0-4.421-2.2211-12.3795-2.2211-16.8008 0-5.7478 3.5537-10.1692 10.217-10.1692 4.4422 0 8.4401 2.2107 8.4401 6.6321 0 2.6528-2.2211 4.8635-4.4421 4.8635-.8885 0-1.7769 0-2.2211-.4422-.4443-.4421-.4443-.8842 0-.8842 1.7768-.8843 3.1095-2.2107 3.1095-3.9793 0-2.2107-2.2211-3.5371-3.998-3.5371-3.1095 0-4.4422 3.095-4.4422 7.5164 0 4.4213 1.7769 9.2848 1.7769 13.2638 0 1.769 0 3.537-.8884 5.306v.442c3.5537 1.769 5.7748 3.095 10.217 3.095 2.2211 0 3.1095-1.326 3.5537-2.653 0-.442.4443-.884.4443-1.326 0-.885 1.3326-.442 1.3326 0 0 .884-.4442 2.21-1.3326 3.537-1.7769 2.211-3.9981 4.863-7.1075 4.863zm-15.9919-3.095c1.3327 0 2.2211-1.326 2.2211-2.652.4442-.443-1.3326-1.327-2.6653-1.327-.8884 0-1.7769.884-1.7769 1.769 0 1.326 1.3327 2.21 2.2211 2.21z"/>
  <path d="M65.6324 96.0942c.8885 0 1.3327.4422 1.3327 2.2107v14.1481c0 .442 0 .885.4442.885.8884 0 1.7769-.885 2.6653-2.653.4442-.442.4442-1.327.8884-2.211 0-.884 1.3327-.442 1.3327 0 0 .884-.4442 2.653-1.3327 3.979-.8884 1.327-2.221 3.095-3.5537 3.537-.4442 0-.4442.443-.4442.885v4.421c0 5.306-2.6653 9.285-7.1075 9.285-3.1095 0-4.4422-2.211-4.4422-5.306 0-4.421 2.2211-7.074 5.7749-9.285.8884 0 .8884 0 .8884-.884s0-.884-.4442-.884c-.4443 0-1.3327.884-2.6653 1.326-.4443.442-1.3327.885-2.6653.885-1.7769 0-3.1096-1.327-3.1096-3.98V98.3049c0-1.7685.4442-2.2107 1.3327-2.2107h2.2211c.8884 0 1.3326.4422 1.3326 2.2107v12.3801c0 1.326.4442 1.768 1.3327 1.768 1.3326 0 2.2211-1.326 2.2211-3.095V98.7471c0-1.7686.4442-2.2107 1.3326-2.2107h2.6653v-.4422zm-5.7748 31.8338c1.3327 0 2.2211-2.211 2.2211-5.306v-3.537c0-.442-.4442-.442-.4442-.442-.4443.442-.8885.442-.8885.884-1.3326 1.769-2.2211 3.538-2.2211 5.748 0 1.327.4443 2.653 1.3327 2.653z"/>
  <path d="M83.4011 116.434c-2.2211 0-3.5537-1.326-3.5537-4.421v-10.17c0-1.326-.4443-1.768-1.3327-1.768-1.3327 0-2.2211 1.326-2.2211 3.095v10.611c0 1.769-.4442 2.211-1.3326 2.211h-2.2211c-.8885 0-1.3327-.442-1.3327-2.211V98.3064c0-1.7686 1.3327-2.6528 2.6653-2.6528 2.6653 0 1.7769 1.7685 3.1095 1.7685.4443 0 .8885-.4421 2.2211-1.3264.4443-.4421 1.3327-.8843 2.2211-.8843 1.7769 0 3.1096 1.3264 3.1096 3.9792v11.4954c0 .884.4442 1.769 1.3326 1.769.8884 0 1.3327-.442 1.7769-1.327.4442-.442.4442-1.326.8884-2.21 0-.885 1.3327-.442 1.3327 0 0 .884-.4443 2.652-1.3327 3.979-.8884 1.768-2.6653 3.537-5.3306 3.537z"/>
  <path d="M93.6187 103.611v6.189c0 2.211.8884 4.864 3.1095 4.864 2.2211 0 3.9978-1.326 5.3308-3.537.444-.442.444-1.327.888-2.211 0-.884 1.333-.442 1.333 0 0 .884-.444 2.211-1.333 3.537-1.332 2.653-3.9977 4.422-7.1072 4.422-5.3306 0-7.5517-4.422-7.5517-9.727 0-5.306 2.2211-11.0538 7.5517-11.0538 2.6653 0 5.3302 1.7686 5.3302 4.8638 0 1.768-1.3322 3.537-3.1091 3.537-.8884 0-1.3327-.442-1.3327-1.327 0-1.768 2.2211-1.326 2.2211-3.095 0-1.3259-.8884-1.7681-1.7769-1.7681-2.6653 0-3.5537 1.7681-3.5537 5.3061z"/>
  <path d="M120.272 108.475c0-.884 1.332-.442 1.332 0 0 .885-.444 2.653-1.332 3.98-.889 1.768-3.11 3.979-5.775 3.979-2.221 0-3.554-1.326-3.554-4.421v-10.17c0-1.326-.444-1.768-1.333-1.768-1.332 0-2.221 1.326-2.221 3.095v10.611c0 1.769-.444 2.211-1.332 2.211h-2.221c-.889 0-1.333-.442-1.333-2.211V88.5793c0-1.7685.444-2.2106 1.333-2.2106h2.665c.888 0 1.333.4421 1.333 2.2106v7.9585c0 .8843 0 1.7685 1.332 1.7685.444 0 .889-.4421 2.221-1.3264.445-.4421 1.333-.8842 2.221-.8842 1.777 0 3.11 1.3264 3.11 3.9793v10.611c0 .884.444 1.769 1.333 1.769.888 0 1.332-.442 1.776-1.327 0-.884.445-1.768.445-2.653z"/>
  <path d="M120.716 88.5793c0-1.7685.444-2.2106 1.332-2.2106h2.221c.889 0 1.333.4421 1.333 2.2106v7.0742c0 .8843.444 1.3264.444 1.3264.445 0 .445 0 .889-.4421.444 0 .888-.4421 1.332-.4421 4.443 0 6.664 3.537 6.664 9.7273 0 2.652-.445 4.863-1.333 6.632 0 .442.444.884 1.333.884.888 0 1.777-.884 2.665-2.653.444-.442.444-1.326.888-2.211 0-.884 1.333-.442 1.333 0 0 .885-.444 2.653-1.333 3.98-1.332 2.21-2.665 3.537-4.442 3.537-.888 0-1.777-.442-2.221-1.327-.888.885-2.221 1.327-3.554 1.327-1.776 0-2.665-.884-3.553-.884-.889 0-1.333.884-2.221.884h-.889c-.888 0-1.333-.442-1.333-2.211V88.5793h.445zm4.886 21.6647c0 2.211 1.333 3.537 2.221 3.537 1.333 0 2.221-1.768 2.221-4.863v-4.422c0-3.537-.444-5.7475-2.221-5.7475-1.332 0-2.221 1.3265-2.221 3.5375v7.958z"/>
  <path d="M144.704 115.548c-.445.442-1.333.885-2.666.885-1.777 0-3.109-1.327-3.109-3.98V98.3049c0-1.7685.444-2.2107 1.332-2.2107h2.221c.889 0 1.333.4422 1.333 2.2107v12.3801c0 1.326.444 1.768 1.333 1.768 1.332 0 2.221-1.326 2.221-3.095V98.7471c0-1.7686.444-2.2107 1.333-2.2107h2.221c.888 0 1.332.4421 1.332 2.2107v11.9379c0 .884.444 1.768 1.333 1.768.888 0 1.333-.442 1.777-1.326.444-.442.444-1.327.888-2.211 0-.884 1.333-.442 1.333 0 0 .884-.444 2.653-1.333 3.979-.888 1.769-3.109 3.98-5.33 3.98-.889 0-1.333-.442-2.221-.885-.445-.442-.889-1.326-1.777-1.326-.445-.442-1.333.442-2.221.884z"/>
  <path d="M162.473 103.169c0-1.326-.445-1.768-1.777-1.768-1.777 0-2.221.884-2.221 3.537v2.21c0 1.327-.445 2.211-.445 3.095-.444 1.327-1.776.442-1.332-.884.444-1.326.444-3.095.444-4.863v-7.0746c0-1.7686 1.333-2.6528 2.665-2.6528 2.221 0 1.333 2.2106 2.666 2.2106 1.777 0 1.777-.8842 3.109-.8842 1.777 0 2.221 1.3264 2.221 3.0949v11.4951c0 .885.444 1.769 1.333 1.769.888 0 1.333-.442 1.777-1.326.444-.443.444-1.327.888-2.211 0-.884 1.333-.442 1.333 0 0 .884-.444 2.653-1.333 3.979-.888 1.769-3.109 3.979-5.775 3.979-2.221 0-3.553-1.326-3.553-4.421v-9.285z"/>
  <path d="M186.46 115.99c-.444 0-.444.443-.444.885v4.421c0 5.306-2.665 9.285-7.107 9.285-3.11 0-4.443-2.211-4.443-5.306 0-4.421 2.221-7.074 5.775-9.285.444-.442.444-.442.444-.884s0-.442-.444-.442-1.332.884-2.665.884c-3.998 0-6.663-3.979-6.663-9.727s2.221-9.7268 6.663-9.7268c1.777 0 2.221.8843 3.554.8843.888 0 1.332-.8843 2.221-.8843h.888c.889 0 1.333.4422 1.333 2.2107v14.1481c0 .442 0 .885.444.885.888 0 1.777-.885 2.665-2.653.445-.442.445-1.327.889-2.211 0-.884 1.332-.442 1.332 0 0 .884-.444 2.653-1.332 3.979-.444 1.769-1.777 3.095-3.11 3.537zm-5.775-13.706c0-2.211-.888-3.5369-2.221-3.5369-1.777 0-2.221 2.2109-2.221 5.7479v3.095c0 3.095.889 4.863 2.221 4.863 1.333 0 2.221-1.326 2.221-3.537v-6.632zm-2.221 25.644c1.333 0 2.221-2.211 2.221-5.306v-3.537c0-.442-.444-.442-.444-.442-.444.442-.888.442-.888.884-1.333 1.769-2.221 3.538-2.221 5.748-.445 1.327.444 2.653 1.332 2.653zM38.091 138.098h-.8884c-1.3327 0-1.3327.442-1.3327 1.326v11.053h1.3327c1.7769 0 2.6653 0 3.1095-.884.8885-.884.8885-2.21.8885-3.979h2.6653v7.074H27.874v-2.211h.8884c1.3327 0 1.3327-.442 1.3327-1.326v-9.285c0-1.326 0-1.326-1.3327-1.326h-.8884v-2.211h10.217v1.769zM63.4123 142.077H60.747c-.4442-1.327-.4442-2.211-1.3327-3.095-.8884-.884-1.7768-.884-3.5537-.884h-2.6653v4.421h.4442c1.7769 0 2.2211-.884 2.2211-2.653h2.2211v7.517h-2.2211c0-2.211-.4442-2.653-2.2211-2.653h-.4442v5.747H56.3048c1.7769 0 2.6653 0 3.5537-.884.4443-.884.8885-2.21.8885-3.537h2.6653v7.074H45.6436v-2.653h.8884c1.3327 0 1.3327-.442 1.3327-1.326v-9.285c0-1.326 0-1.326-1.3327-1.326h-.8884v-2.211h17.7687v5.748zM90.5098 138.098h-.8883c-1.3327 0-1.3328.442-1.3328 1.326v9.285c0 1.326.0001 1.326 1.3328 1.326h.8883v2.211h-9.3285v-1.769h.4442c1.3327 0 1.3327-.442 1.3327-1.326v-10.169L78.516 153.13h-3.998l-3.5538-14.59v10.169c0 1.326.0001 1.326 1.3328 1.326h.4441v2.211h-7.5516v-1.769h.8884c1.3327 0 1.3327-.442 1.3327-1.326v-9.285c0-1.326 0-1.326-1.3327-1.326h-.8884v-2.211h9.3285l2.6653 10.169 3.1095-10.169h9.7729v1.769h.4441zM101.615 135.444c6.219 0 9.772 3.537 9.772 8.843 0 5.748-3.553 8.843-9.772 8.843-6.2195 0-9.7732-3.537-9.7732-8.843 0-5.748 3.5537-8.843 9.7732-8.843zm-3.1099 8.843c0 4.421.8884 6.632 3.1099 6.632 2.221 0 3.109-2.211 3.109-6.19 0-4.421-.888-6.632-3.109-6.632-2.2215 0-3.1099 1.769-3.1099 6.19zM127.38 147.383v-7.517c0-1.326 0-1.326-1.333-1.326h-.889v-2.211h7.552v2.211h-.444c-1.333 0-1.333.442-1.333 1.326v13.264h-5.775l-6.663-11.937v8.4c0 1.327 0 1.327 1.333 1.327h.888v2.21h-7.551v-2.653h.888c1.333 0 1.333-.442 1.333-1.326v-9.285c0-1.326 0-1.326-1.333-1.326h-.888v-2.211h8.44l5.775 11.054zM141.595 150.477h.888c.889 0 1.333 0 1.333-.442v-.884l-.444-1.769h-4.443l-.444 1.769c0 .442-.444.442-.444.884s.444.442 1.333.442h.888v2.211h-7.552v-2.211h.445c.888 0 1.332-.442 1.777-1.768l4.442-12.822h6.219l3.998 12.822c.444 1.326.444 1.768 1.777 1.768h.888v2.211h-10.217v-2.211h-.444zm-.889-10.611l-1.332 5.306h2.665l-1.333-5.306z"/>
  <path d="M170.469 144.288c0 5.747-3.11 8.4-10.217 8.4h-9.329v-2.211h.889c1.332 0 1.332-.442 1.332-1.326v-9.285c0-1.326 0-1.326-1.332-1.326h-.889v-2.211h9.329c7.107-.442 10.217 2.211 10.217 7.959zm-10.217 6.189c2.665 0 3.554-1.768 3.554-6.189 0-3.98-.889-6.19-3.554-6.19h-1.333v12.379h1.333zM189.57 142.077h-2.665c-.445-1.327-.445-2.211-1.333-3.095-.888-.884-1.777-.884-3.554-.884h-2.665v4.421h.444c1.777 0 2.221-.884 2.221-2.653h2.221v7.517h-2.221c0-2.211-.444-2.653-2.221-2.653h-.888v5.747h3.553c1.777 0 2.666 0 3.554-.884.444-.884.889-2.21.889-3.537h2.665v7.074h-17.769v-2.653h.889c1.332 0 1.332-.442 1.332-1.326v-9.285c0-1.326 0-1.326-1.332-1.326h-.889v-2.211h17.769v5.748z"/>
</svg>
