<svg fill="currentColor" viewBox="0 0 218 81">
  <path d="M81.2026 76.23c0 .23-.65.68-1 .91-.779.424-1.4234 1.058-1.86 1.83-.1317.2039-.3241.3613-.55.45-2.63 1-5.26 1.82-8.11.8-.441-.2205-.9268-.3369-1.42-.34-3-.35-3.94-1.94-5.59-4.1.0014-.0152-.0004-.0306-.0053-.0452-.0049-.0145-.0128-.0278-.0231-.0391-.0104-.0113-.023-.0203-.037-.0265-.0141-.0061-.0292-.0092-.0446-.0092-.254-.4498-.3689-.9649-.33-1.48 0-.11-.76-.23-.87-.91 0-.23-.11-.46 0-.57.76-1-.11-1.37-.55-1.94 0-.23.22-.57.22-.79-.11-2.85-.55-5.93.11-9 .55-2.51.77-4.79 1.31-7.18l2.3-9.91 1.87-9.12c.1253-.7135.1955-1.4357.21-2.16-.2586-.058-.5126-.1348-.76-.23 0-.11-.11-.23-.11-.34.22-2 1-4.33 1.09-6.38.1101-1.1373.1101-2.2826 0-3.42 0-.34-1.09-1.48-2-1.25-.3371.0589-.671.1356-1 .23-2.145 1.0061-4.1378 2.3089-5.92 3.87-1.2 1.25-2.63 2.51-3.83 3.87-.9558.5944-1.7467 1.4198-2.3 2.4-.55 1.48-2.19 3.07-3.18 4.21-3.4694 4.2019-6.3771 8.8375-8.65 13.79l-.88 2.27c-.286 1.4135-.7253 2.7917-1.31 4.11-.2158 1.0935-.5511 2.1599-1 3.18-.4471 1.2203-.7818 2.4788-1 3.76-.1741 1.6258-.5091 3.2303-1 4.79-1.09.8-.77-.23-1.86-.57-.66-.23-3-.34-3-.91.4104-2.4202.9748-4.8117 1.69-7.16 1.2-4.56 1.75-7.18 3-11.51l3.18-12c2.63-9.79 3.61-14.46 3.5-17.31-.11-3.08-.43-4-2.08-4-1.42.34-1.53.91-2.19 1.37-1.9468 1.5062-3.5521 3.408-4.71 5.58-.4003.5037-.7645 1.035-1.09 1.59-.55.92-1.54 1.6-1.54 3 0 .11-.11.11-.11.22-1.2078 1.5236-2.2004 3.206-2.95 5-.2787.5281-.614 1.0244-1 1.48-.22.68-.22 1.48-.44 2l-6.28 16.58-3.5 9c-1.21 3.19-1.43 6.15-2.09 9.45-.21 1-.43 1.48-1.64 1.14-.5441-.1956-1.0588-.4648-1.53-.8-.37918-.1647-.7467-.3552-1.09996-.57-1.2-.22-1.53-.45-1.31-1.36.22-1.14.77-2.17 1.2-4.33 1.42996-7.07 2.40996-10.48 5.99996-25.63.33-1.49.54-3 .76-4.22.55-2.62.77-5 1.21-7.63.4202-2.4502.6774-4.9257.77-7.41.22-2.39.22-4.67.32-6.95.0477-1.4924-.1173-2.98403-.49-4.42998-.2025-.64653-.499-1.25976-.88-1.82-.1165-.21989-.2818-.41018-.4832-.55629-.2014-.14611-.4337-.24416-.6789-.28663-.2451-.04248-.4968-.02825-.7357.04159-.2388.06984-.4585.19344-.6422.36133-.9251.47881-1.7446 1.13851-2.41 1.94C10.486 8.37302 9.27577 10.1297 8.26264 12c-1.21 1.48-1.86 3.53-3.29 5-.66.69-1.2 1.6-1.75 1.48-.77-.12-2.520003-2.29-2.520003-2.86.864523-1.6962 1.892743-3.3038 3.070003-4.8 1.18581-1.73432 2.46434-3.40341 3.83-4.99998 1.30921-1.65578 2.95126-3.01846 4.81996-4 1.3477-.70292 2.8639-1.017953 4.38-.910001.7123.134481 1.3915.406191 2 .800001 2 1.14 2.41 4 3.07 6.83l.33 3.87998c.24 1.3601.2026 2.7547-.11 4.1-.55 1.25 0 2.5-.11 3.76-.1488.7185-.2424 1.4473-.28 2.18-1.1 3.42-1 7.06-2 10.59-.3598 1.5658-.5608 3.1639-.6 4.77.4326-.882.8002-1.7944 1.1-2.73 1.64-3.31 2.95-6.84 4.6-10.14 1.4175-3.0413 3.179-5.91 5.25-8.55 2-2.5 3.95-4.55 6.79-5.69.833-.3369 1.7387-.454 2.63-.34 1.2094.1238 2.3929.4306 3.51.91.7721.2577 1.4571.7254 1.9782 1.3507.5211.6253.8576 1.3834.9718 2.1893.3368 1.4917.448 3.0254.33 4.55 0 2.85-.76 5.59-1 8.32-.1621 1.5526-.4975 3.0821-1 4.56 0 .23-.33.45-.44.68-.11.23-.43.46-.43.57.54 1.6-1.1 2.73-.55 4.33.7307-1.0218 1.3986-2.0871 2-3.19 1.8656-3.4206 4.1462-6.598 6.79-9.46 2.7025-2.9815 5.982-5.3833 9.64-7.06.8683-.5005 1.8481-.7755 2.85-.8 2.0051.0674 3.9767.5331 5.8 1.37.2374.1292.4294.3282.55.57 1.1716 1.8682 1.6724 4.0794 1.42 6.27-.22 2.39-.11 4.89-.54 7.17-.3008 1.1258-.5181 2.2722-.65 3.43-.22 1.37-.55 2.74-.77 4.1-.22.91-.66 1.82-1.64 1.82 0 .46.87.35.33 1s.22.68.22 1c0 .32-.66.56-.44 1.25.22.34 0 .8 0 1.14-.1162.5158-.3011 1.0136-.55 1.48-.33 0-1 .11-1.42.11.3517.1241.7182.2014 1.09.23.0588.105.0962.2205.11.34-.0011.9232-.1119 1.843-.33 2.74-.33 1.48-.87 3.07-1.31 4.78.189.245.2914.5456.2914.855s-.1024.61-.2914.855c-.3735.8273-.5969 1.7145-.66 2.62-.0509.7362-.1988 1.4625-.44 2.16-.33.8.44 1.37-.43 1.83.32.23.65.45-.11.45.2215.0813.4022.2464.5032.4596.101.2132.1142.4575.0368.6804-.11.23-.43.46-.65.8.11.23.43.46.54.68.11.22.11.8.11 1.26-.056.6956.0973 1.3921.44 2 .22.34 0 .91.11 1.48s.11 1 .44 1.25c.87.57 1 1.82 1.64 2.62.5651.728 1.2998 1.3064 2.1401 1.6847.8402.3782 1.7604.5449 2.6799.4853 2.1324-.101 4.2203-.6459 6.13-1.6 1.2984-.666 2.5452-1.4282 3.73-2.28.21.68-1.22.8-1 1.82zm-70.42-14.81c4.92-15.26 6-24.72 7.22-34.86-.5547 2.2148-.9887 4.4581-1.3 6.72-.8799 6.5207-2.1218 12.9873-3.72 19.37-1 3.42-1.76 5-2.3 8-.0355.1286-.0449.2629-.0277.3951.0171.1323.0606.2597.1277.3749zm20.59-44.31c-.77 1.13-1.75 2.16-2.41 3.3-1.9967 3.1116-3.7199 6.3906-5.15 9.8l-3 7.06c-2.95 7-6.68 18.8-7.66 21.64-.3571 1.0074-.651 2.036-.88 3.08-.44 1-1.32 3.87-.55 3.3l1.43-3.3c.76-1.82.87-3 1.64-4.44 1.9033-6.8196 4.3202-13.4853 7.23-19.94.33-.34.33-.8.44-1.37.54-1 .21-2.5 1.2-3.53.77-.79.66-1.82 1.42-2.84.11-.57.44-.92.55-1.37l1.07-1.68c.1165-.6913.325-1.364.62-2 .1146-.6221.3751-1.2081.76-1.71 1.1-1.59 2.19-3.07 3.18-4.67.095-.0798.1732-.1776.2302-.2878.057-.1102.0916-.2306.1018-.3543.0102-.1236-.0041-.2481-.0422-.3661-.0381-.1181-.0992-.2274-.1798-.3218zm9.09 21.41l2.41-11.39-.33-.45c0 .34-1.64 5.92-1.64 6 0 1.26-.88 2.62-1.21 4-1.42 4-2.41 9.11-3.28 12.53-1.43 5.36-2.09 7.86-3.18 13.33.0332.3117.1072.6176.22.91 0 .12 4.27-15.72 4.38-15.72l1.2-4.44c.3341-1.6293.8126-3.2256 1.43-4.77zm20.92-19.25c-1.75.8-3.18 1.25-4.49 2.62-1.4283.6446-2.6177 1.7221-3.4 3.08-.1998.0841-.3854.1988-.55.34-.76.8-1.31 1.59-2.08 2.28-.77.69-1 1.48-1.64 2.28-1.53 2.16-2.74 4.32-4.05 6.6-1.21 2-1.75 2.4-2.85 4.45l-.55 2.05c.44-.92 1.43-2.62 2.08-3.76.2723-.806.8168-1.492 1.54-1.94l.22-.34c.76-1.71 1.42-1.71 2.3-3.42.11-.11.54-.11.54-.23.22-.68.11-1.14.33-.91l2.74-3.64c.77-1 1.53-2 2.41-3.08 1.1911-1.0882 2.2034-2.3571 3-3.76.55-.23 1.09-.11 1.53-.46.84-.68 1.71-1.25 2.92-2.16zm-1 48.76l.33 2.73c-.8873-1.7172-1.159-3.6867-.77-5.58.3463.9085.4996 1.8791.45 2.85h-.01zm0-6.95c-.44-1.94.33-3.76.88-5.7-.32 1.94-.56 3.88-.87 5.7h-.01zm2.42-11.85c-.44 1.48-.66 3.08-1.31 4.9.0651-1.718.4342-3.4108 1.09-5 .12-.01.12-.01.22.1zm.9 12.88l-1-1.37-.22 5.69 1.21-.79c-.2577-.2166-.4648-.4871-.6065-.7925-.1417-.3054-.2147-.6381-.2138-.9748.001-.3367.0759-.669.2193-.9736.1435-.3046.3521-.5739.611-.7891zm.11-2.62c-.1973-.5967-.3444-1.2088-.44-1.83-.22.12-.55.23-.55.34 0 .8.11 1.37.11 2.17.2714-.2454.5587-.4725.86-.68h.02zm-.66-11.51c-.11 0-.22 0-.22-.11s.11-.46.11-.69c.11 0 .22 0 .22.11s-.13.46-.13.69h.02zm.66-2.85c-.062.284-.1737.5548-.33.8-.11 0-.11 0-.22-.12l.44-.91c0 .23.09.23.09.23h.02zm.31 9.69c.65-.22 1.31-.34 1-.57.44-.22.11-.22-.22-.34.33-3.07.66-4 .33-4.55v-.12c-.68 1.81-1.44 3.64-1.11 5.58zm2.08-21.3c-.1129 1.2698-.3337 2.5277-.66 3.76l-.44-.11.88-3.65h.22zm-.88 15.38c.11-.34.55-.68.33-1l-.33 1zm1.21-10.94c.1273.0839.2777.1259.43.12l.22-.91c-.0606.008-.1222.0013-.1797-.0196-.0574-.0209-.109-.0553-.1503-.1004.0066.329-.1072.649-.32.9v.01zm2.19-5c.0583-.0084.1177-.0028.1734.0163.0556.0191.1059.0513.1466.0937.11-.11.22-.22.22-.34.22-.11.11-.34.11-.79-.1838.3582-.4086.6938-.67 1l.02.02z"/>
  <path d="M74.1927 59.6c-.5403-.4424-1.1271-.8246-1.75-1.14-.4922-.6388-.8281-1.3839-.9809-2.1756-.1528-.7918-.1182-1.6084.1009-2.3844.33-.79.55-1.36.77-2 .11-.11.11-.11.11-.23.11-.68.44-1.25.66-2l.76-1.36c.44-.57.66-1.14.88-1.37 1.2257-1.7775 2.5477-3.4868 3.96-5.12 1.3269-1.6246 3.1938-2.7178 5.26-3.08 2.3.46 4.93.91 5.37 3.53.32 1.6-.55 2.62-1.1 3.76.88-.11 1.64-1 3-.91.3337.1374.6281.3555.8567.6348.2287.2792.3844.6109.4533.9652.0586.7274-.016 1.4594-.22 2.16-.11.11-.11.34-.22.57-.385 1.6294-.27 3.3369.33 4.9.1562.5318.5154.9809 1 1.25.1177.0597.2479.0909.38.0909.132 0 .2622-.0312.38-.0909.4139-.0714.8194-.1854 1.21-.34 1.7713-.9325 3.4462-2.0379 5.0003-3.3 1.42-.92 3.06-1.94 4.6-3.08 2.63-1.71 2.41-1.48 4.93-3.19.855-.7204 1.768-1.3693 2.73-1.94l.33.23-1 1.37c.22.57.22.57.87.11 0-.23 0-.68.55-.45-1.09 1.71-2.85 2.62-4.27 3.64-.526.3662-1.074.7001-1.64 1-.362.4743-.814.872-1.33 1.17-.11.11-.44.11-.76.22-.008-.0845-.048-.163-.11-.22.251-.098.474-.2559.65-.46.196-.0724.36-.2135.462-.3972.101-.1838.132-.3978.088-.6028 0-.12-.22-.23-.33-.23-.775.4659-1.507.9979-2.19 1.59-1.233.5487-2.376 1.2802-3.39 2.17-.357.2085-.7243.3987-1.1003.57v.22c.33-.11.6603-.11.8803-.34.136-.1495.322-.2434.524-.2637.201-.0203.402.0344.566.1537 0-.11-.11-.23-.11-.34.77-.34 1.32-.23 2-.8.652-.3303 1.277-.7115 1.87-1.14-.005.1587-.047.314-.124.4531-.076.1392-.185.258-.316.3469-.88.45-1.75 1.14-2.63 1.59-.275.1704-.502.4078-.66.69-.211.2125-.473.3674-.76.45.242.0903.501.1311.76.12l-.11.11c-.23.1397-.492.2188-.76.23v.45c.54-.34 1.31-.68 1.86-1v.23c-.636.4273-1.223.9236-1.75 1.48-.8803 1-1.8703 1.25-3.0003 2-.66.34-1 .23-1.53.57-.3434.1783-.716.2935-1.1.34-.3271.1019-.6614.1788-1 .23-.615.0966-1.2379.1335-1.86.11-.22-.11-.87-.11-1.09-.34-.22-.23-.55-.57-.88-.68-.66-.92-1.42-1.37-1.86-2.4-.66-.68-.55-.91-.88-1.48-.22-.11-.22-.34-.33-.57-.76.46-.76 1.6-1.53 1.6-.22.23-.33.57-.55.68-1.4756 1.283-3.0927 2.3935-4.82 3.31-.8027.4276-1.6913.6694-2.6.7075-.9087.0381-1.8144-.1285-2.65-.4875-.2897.0159-.58-.0145-.86-.09zm4.93-3.78c1.3702-.562 2.5747-1.4636 3.5-2.62 1.65-1.82 2.41-3.19 4.06-5 .11 0 .54-.57.54-.57h-.1c-2.42-.22-1.54-5.23-1.42-5.35-3.28.57-7.12 5.93-8.32 8.09-1.1024 1.8794-1.9498 3.8971-2.52 6 1.4402.0443 2.8782-.1413 4.26-.55zm28.4803-6.84c-.014-.1449.021-.2901.099-.4131s.194-.2168.331-.2669c.11-.23.55-.34.88-.45.33-.11.66-.12.88-.23v-.69c.22-.11.33-.34.44-.45.11-.11 0-.23-.11-.23-.411.3435-.853.6481-1.32.91-.829.4816-1.6 1.0552-2.3 1.71.319.1467.615.3386.88.57.11.02.22-.32.22-.44v-.02z"/>
  <path d="M127.973 45.47c-.127.0945-.284.1374-.44.12-.19-.0165-.381.0216-.55.11.197.0879.382.2023.55.34-.11.23-.33.23-.55.57 0 .12-.33 0-.55 0 .11.46-.11.8-.54 1.14-.43.34-.55.68-1 .46-.11-.23 0-.57-.11-.8h-.08c0 .11-.11.11-.11.23 0 .45-.11.57-.55.57-.11 0-.32.22-.43.34-.11.12-.11.68 0 .68.43.34.11.46-.11.57l-1.1 1.14c-.06-.06-.137-.0987-.22-.11l.55-.69c.007-.0845.047-.163.11-.22-1.1.57-1.86 1.48-1.53 2.05.11-.12.22-.35.33-.35.32 0 .54-.11.87-.11.055.186.055.384 0 .57-.309-.035-.619.0471-.87.23.1.11.1.23.21.45.31-.2278.645-.4191 1-.57 0-.68.44-1 .77-1.48 1.031-.9413 1.981-1.9683 2.84-3.07.11 0 .22-.12.33-.12l.11.12c-.65.91-1.31 1.82-2.19 2.85-.532.6181-1.117 1.187-1.75 1.7-.22.3601-.479.6953-.77 1-.14.1996-.217.4365-.22.68.338-.3355.707-.64 1.1-.91-.22.68-.88 1-1.53 1.6-.136.1738-.247.3656-.33.57.11 0 .11 0 .22.11.32-.23.65-.57 1.09-.91 0 .23.11.34 0 .45-.429.4311-.829.8887-1.2 1.37-.22.23-.33.57-.55.8l-.55.57c-.901.6563-1.679 1.4652-2.3 2.39-.464.578-1.018 1.0777-1.64 1.48-.514.3982-1.113.672-1.75.8-.66.34-1.43.68-2.19 1.14-.748.1184-1.514-.0005-2.19-.34-1.1-.23-1.54-1.26-2.31-1.83-.21-.11-.21-.45-.32-.68-.117-.339-.304-.6492-.55-.91-.11-.46-.44-.69-.55-1.14-.118-2.0797.143-4.1635.77-6.15.259-1.5036.623-2.9873 1.09-4.44.44-2.06 1-4 1.54-6.16v-.86c-.11-.45 0-.8.43-.8s.66-.34 1 .23c.34.57 1.1.91 1.42 1.48.486.3317.898.7608 1.21 1.26.204.5433.242 1.135.11 1.7-.028.6326-.177 1.254-.44 1.83-.33 1.37-.77 2.73-1.2 4.21-.231.4364-.415.8955-.55 1.37-.11.23-.22.34-.22.57.33 1-.33 2-.44 3.19-.11 1.19-.33 2-.44 3.19 1.137-.2768 2.191-.8259 3.07-1.6 1.75-1.59 3.72-3.19 5.37-4.89 1.65-1.7 3.28-3.42 4.92-5 1.32-1.25 2.74-2.5 4.17-4 .18.2.29.89-.26 1.91zm-16-13c-.327-.3896-.557-.8508-.672-1.346-.114-.4952-.11-1.0105.012-1.504.276-.7393.701-1.4144 1.248-1.9836.546-.5692 1.204-1.0206 1.932-1.3264.11-.11.54-.11.54-.11 1.21-.11 1.87.23 2.08 1 .494 1.151.609 2.4291.33 3.65-.49 1.1168-1.338 2.0386-2.41 2.62-.303.1297-.635.1768-.962.1364-.326-.0404-.637-.1668-.898-.3664-.42-.2122-.818-.4633-1.19-.75l-.01-.02zm8.87 19.82c-1.1 0-1.32 1.36-2.3 1.82v.11l1.86-.68c0-.11-.11-.11-.11-.23 0-.12-.22.12-.44.12l-.11-.12c.394-.3052.765-.6394 1.11-1l-.01-.02zm2.85-.23c.11 0 .11 0 .21.11-.107.3928-.251.7746-.43 1.14-.11-.11-.33-.22-.44-.45l.66-.8zM188.973 17.22c-.061.515-.209 1.0157-.44 1.48-.244.2347-.556.384-.892.4254-.335.0415-.675-.0271-.968-.1954-.44 0-.66-.34-.55-.8-.59-1.3774-1.685-2.4762-3.06-3.07-2.082-1.3849-4.503-2.1734-7-2.28-.44.11-.66.11-.77 0-1.64-1-3.72-.46-5.8-.91-1.429-.3914-2.912-.5467-4.39-.46-.76 0-1.42-.11-2-.11h-1.75c-.55 1.71-1 4.1-1.53 6.38-.88 3.19-1.43 6.26-2.41 9.91-.88 3.19-1.75 6.15-2.63 9.11l-2.63 9.57c-.88 2.62-1.42 5-2.19 7.52l-.22 1.82-1.64 9.68c-.77 1.94-.55 4.22-.66 5.93-.219.6563-.403 1.3239-.55 2 .004.133-.024.2651-.083.3848-.058.1197-.144.2234-.252.3021-.107.0788-.232.1302-.364.1499-.131.0197-.266.0071-.391-.0368-.66-.23-1.43-.34-1.65-1.14-.17-.9049-.277-1.8204-.32-2.74-.55-4.55.11-9.22.87-13.9 1.86-8.88 4.82-17.31 7.23-25.86.709-3.3752 1.586-6.7128 2.63-10 .228-1.5412.562-3.0649 1-4.56.418-1.4223.752-2.8682 1-4.33l-2.74.23c-1.104.0674-2.201.2212-3.28.46-2.35.2021-4.687.536-7 1-2.63.8-4.82 1.37-7.12 2.28-.471.0956-.951.1325-1.43.11-1.31.12-2-.45-2.19-1.93.11-.34.11-.8.22-1.14-.106-.7269.033-1.4683.395-2.1074.363-.63904.927-1.13952 1.605-1.4226 1.28-.46497 2.603-.79999 3.95-1 5.482-1.19388 11.049-1.95622 16.65-2.28001 6.946-.46016 13.923.11615 20.7 1.71001 2.954.77022 5.739 2.08617 8.21 3.88 1.82 1.2519 3.26 2.9821 4.16 5 .182.2795.28.6061.28.94zm-42.06 34.29l-.11-.23c-.727 2.1548-1.275 4.3655-1.64 6.61h.22c.392-2.1533.902-4.2832 1.53-6.38zm31.55-41.12c-.972-.61531-2.051-1.04271-3.18-1.26-7.45-2.28-15.55-2.50001-23.77-1.37001-1.879.22197-3.742.5559-5.58 1 .65.34 1 .68 1.53.68 1.001.01978 2.003-.01695 3-.11 2.19-.11 4.05-.68 6.13-.91 4.032-.50084 8.119-.36586 12.11.4 2.85.46 5.58 1 8.32 1.71001.483-.0059.965-.0527 1.44-.14zm-29.25 33.37c-.43.46-1.2 1.83-.87 2.51.11-.68.87-2.05.87-2.51zm2.41-8.77c-.22 1-1.09 4.33-1.64 6.15h.22c.55-1.71 1.64-5.12 1.42-6.15zm3.18-10.37l-.11-.22-2.19 7.63.22-.11c.55-1.6 1.75-5.93 2.08-7.3zm17-14.58h-.55v.23h.55v-.23z"/>
  <path d="M163.783 59.6c-.542-.4401-1.129-.8221-1.75-1.14-.493-.6388-.829-1.3839-.981-2.1756-.153-.7918-.119-1.6084.101-2.3844.33-.79.55-1.36.77-2 .11-.11.11-.11.11-.23.18-.6778.397-1.3454.65-2l.77-1.36c.44-.57.66-1.14.87-1.37 1.226-1.7362 2.544-3.4053 3.95-5 1.323-1.6288 3.191-2.723 5.26-3.08 2.29.46 4.92.91 5.36 3.53.33 1.6-.55 2.62-1.09 3.76.87-.11 1.64-1 3-.91.336.1353.632.3526.863.6321.231.2794.388.6122.457.9679.058.7274-.016 1.4594-.22 2.16-.11.11-.11.34-.22.57-.385 1.6294-.27 3.3369.33 4.9.156.5318.515.9808 1 1.25.117.0597.247.0909.38.0909.132 0 .262-.0312.38-.0909.413-.0715.819-.1854 1.21-.34 1.773-.9297 3.448-2.0352 5-3.3 1.43-.92 3.07-1.94 4.6-3.08 2.63-1.71 2.41-1.48 4.93-3.19.86-.7181 1.776-1.3668 2.74-1.94l.33.23-1 1.37c.22.57.22.57.88.11 0-.23 0-.68.55-.45-1.1 1.71-2.851 2.62-4.27 3.64-.53.3666-1.081.7005-1.65 1-.373.4318-.824.7882-1.33 1.05-.11.11-.44.11-.77.22-.008-.0845-.048-.163-.111-.22.255-.0973.481-.2552.661-.46.196-.0724.36-.2135.461-.3972.101-.1838.133-.3978.089-.6028 0-.12-.22-.23-.33-.23-.777.4635-1.509.9956-2.19 1.59-1.236.5486-2.382 1.2801-3.4 2.17-.354.2086-.718.3988-1.09.57v.22c.33-.11.66-.11.87-.34.137-.1503.326-.2445.529-.2648.202-.0203.406.0348.571.1548 0-.11-.11-.23-.11-.34.77-.34 1.31-.23 2-.8.65-.3279 1.272-.7092 1.86-1.14-.004.1578-.045.3126-.119.4516-.075.1391-.182.2584-.311.3484-.88.45-1.761 1.14-2.631 1.59-.274.1704-.501.4078-.659.69-.215.2125-.48.3674-.77.45.246.0901.507.1309.77.12l-.11.11c-.233.1413-.498.2205-.77.23v.45c.55-.34 1.32-.68 1.87-1v.23c-.638.4297-1.228.9258-1.76 1.48-.87 1-1.86 1.25-3 2-.66.34-1 .23-1.54.57-.34.1784-.71.2936-1.09.34-.328.1019-.662.1788-1 .23-.616.0964-1.238.1332-1.86.11-.22-.11-.88-.11-1.1-.34-.22-.23-.541-.57-.871-.68-.66-.92-1.43-1.37-1.86-2.4-.66-.68-.549-.91-.879-1.48-.22-.11-.22-.34-.33-.57-.77.46-.77 1.6-1.53 1.6-.22.23-.33.57-.55.68-1.478 1.281-3.094 2.3914-4.821 3.31-.804.4278-1.694.6697-2.604.7077-.911.0381-1.818-.1286-2.655-.4877-.283.0146-.567-.0158-.84-.09zm4.92-3.78c1.37-.562 2.574-1.4636 3.5-2.62 1.64-1.82 2.41-3.19 4.05-5 .11 0 .55-.57.55-.57h-.1c-2.41-.23-1.53-5.24-1.42-5.36-3.29.57-7.12 5.93-8.33 8.09-1.098 1.8816-1.946 3.8987-2.52 6 1.442.0481 2.884-.1342 4.27-.54zm28.47-6.84c-.015-.1464.021-.2934.101-.4169s.199-.2163.339-.2631c.11-.23.549-.34.88-.45.33-.11.66-.12.87-.23v-.69c.22-.11.33-.34.44-.45.11-.11 0-.23-.11-.23-.408.3439-.846.6485-1.311.91-.828.4816-1.6 1.0552-2.299 1.71.316.1469.609.3389.87.57.12.02.23-.32.23-.44l-.01-.02z"/>
  <path d="M217.553 45.47c-.1.12-.32.12-.43.12-.191-.0165-.381.0216-.55.11.197.0879.382.2023.55.34-.11.23-.33.23-.55.57 0 .12-.33 0-.55 0 .11.46-.11.8-.55 1.14-.44.34-.54.68-1 .46-.11-.23 0-.57-.11-.8h-.11c0 .11-.11.11-.11.23 0 .45-.11.57-.55.57-.11 0-.33.22-.44.34-.11.12-.11.68 0 .68.44.34.11.46-.11.57l-1.09 1.14c-.06-.06-.137-.0987-.22-.11l.55-.69c.007-.0845.047-.163.11-.22-1.1.57-1.87 1.48-1.54 2.05.11-.12.22-.35.33-.35.33 0 .55-.11.88-.11.055.186.055.384 0 .57-.312-.0336-.625.0482-.88.23.11.11.11.23.22.45.31-.2278.645-.4191 1-.57 0-.68.43-1 .76-1.48 1.037-.9386 1.991-1.9658 2.85-3.07.11 0 .22-.12.33-.12l.11.12c-.66.91-1.31 1.82-2.19 2.85-.534.6157-1.12 1.1844-1.75 1.7-.22.3601-.479.6953-.77 1-.14.1996-.217.4365-.22.68.338-.3355.707-.64 1.1-.91-.22.68-.88 1-1.54 1.6-.136.1738-.247.3656-.33.57.11 0 .11 0 .22.11.33-.23.66-.57 1.1-.91 0 .23.11.34 0 .45-.432.4311-.836.8887-1.21 1.37-.22.23-.33.57-.54.8l-.55.57c-.903.6536-1.682 1.4629-2.3 2.39-.468.5778-1.025 1.0774-1.65 1.48-.512.4017-1.112.6759-1.75.8-.65.34-1.42.68-2.19 1.14-.748.1164-1.513-.0024-2.19-.34-1.09-.23-1.53-1.26-2.3-1.83-.22-.11-.22-.45-.33-.68-.117-.3365-.301-.646-.54-.91-.11-.46-.44-.69-.55-1.14-.117-2.0789.141-4.1619.76-6.15.262-1.5038.63-2.9875 1.1-4.44.44-2.06 1-4 1.53-6.16v-.86c-.11-.45 0-.8.44-.8s.66-.34 1 .23c.34.57 1.09.91 1.42 1.48.486.3317.898.7608 1.21 1.26.196.5451.231 1.1356.1 1.7-.025.632-.171 1.2533-.43 1.83-.33 1.37-.77 2.73-1.21 4.21-.231.4364-.415.8955-.55 1.37-.1.23-.21.34-.21.57.32 1-.33 2-.44 3.19-.11 1.19-.33 2-.44 3.19 1.137-.2791 2.19-.8279 3.07-1.6 1.75-1.59 3.72-3.19 5.36-4.89 1.64-1.7 3.29-3.42 4.93-5 1.32-1.25 2.74-2.5 4.16-4 .22.2.33.89-.22 1.91zm-16-13c-.324-.3913-.551-.8529-.664-1.3478-.113-.4949-.108-1.0094.014-1.5022.54-1.71 1.75-2.51 3.17-3.31.11-.11.55-.11.55-.11 1.2-.11 1.86.23 2.08 1 .494 1.151.609 2.4291.33 3.65-.49 1.1168-1.338 2.0386-2.41 2.62-.303.1297-.635.1768-.962.1364-.326-.0404-.637-.1668-.898-.3664-.423-.212-.825-.4631-1.2-.75l-.01-.02zm8.88 19.82c-1.1 0-1.32 1.36-2.3 1.82v.11l1.86-.68c0-.11-.11-.11-.11-.23 0-.12-.22.12-.44.12l-.11-.12c.394-.3052.765-.6394 1.11-1l-.01-.02zm2.84-.23c.11 0 .11 0 .22.11-.116.3914-.263.7727-.44 1.14-.173-.1196-.319-.2726-.43-.45l.65-.8z"/>
</svg>