<svg fill="currentColor" viewBox="0 0 117 51">
  <path  d="M116.203 42.8071c.068.1374.096.2904.083.4427 0 .2018-.248.2818-.413.3625-.404.2246-.866.3227-1.326.2818-.994-.081-2.32-.081-2.818-.081-.827 0-1.656.081-2.485.081-.414 0-1.657-.081-2.652-.081-.911 0-1.822-.0394-2.735-.0394-.413 0-.827 0-1.326.0394-.523.0546-1.048.0816-1.574.081-.224.019-.45-.0086-.662-.081-.164-.0366-.3312-.0498-.4981-.0394-.4137 0-1.2429.0394-3.1483.0394-1.1598 0-2.3198.0394-3.3151.0394-2.4036 0-3.1481-.0394-3.8116-.0394-1.9883.121-4.0605.121-6.0484.121-.5828.024-1.1665-.0165-1.7404-.121-.1247-.0657-.229-.1641-.3019-.2846-.0729-.1206-.1116-.2587-.1118-.3996 0-.3617.7464-.7642 1.3259-.7642.4976 0 1.9063.0807 2.8173.0807.9121-.0807 1.9063-.0807 2.8173-.0807h1.5747c.3318 0 .7453.0394 2.9005.1207.4137 0 1.2429-.0808 1.6564-.0808 1.5748.0808 2.7348.2016 3.2325.2016.0827 0 .1656-.0406.2486-.0406.3509-.0985.7127-.1526 1.0771-.161.2488 0-.083-.0394 2.6513-.0394.746 0 1.326-.0394 2.071-.0394.415 0 .83 0 1.326.0394.581.0394.913.0808 1.492.0808.332 0 .746-.0808 1.078-.0808 1.574 0 .414-.0394 1.574-.0394.387-.007.774.0062 1.16.0394.497.0394.995.0394 1.492.0394.304.0088.609-.0044.912-.0394.274-.0352.551-.0484.827-.0394.663 0 1.326.0394 1.575.0394.33-.0005.993.241 1.075.4419zm-47.8805.4256c.027-.3071-.0089-.6165-.1054-.9092-.0483-.1437-.1128-.2815-.1923-.4106-.0394-.0644-.0826-.1264-.1292-.1858l-.0729-.0855-.0311-.0345.002-.0017-.0085-.0132-.0499-.0698c-.0678-.0942-.1443-.182-.2283-.2622-.0972-.0932-.2078-.1712-.3282-.2315-.1186-.0582-.2456-.0973-.3763-.1158-.1877-.0243-.3786-.0017-.5554.0658-.1454.0539-.2778.138-.3883.2468-.0698.0654-.1302.1402-.1795.2223-.0593.0936-.1052.1951-.1365.3014.1208-.2633.3223-.4812.5753-.6224.1279-.0673.2678-.1088.4118-.1221.144-.0132.2892.002.4272.0449.149.0489.2888.1221.4138.2167-.0091.0087-.0162.0191-.0208.0307-.0047.0116-.0069.0241-.0064.0366.0005.0125.0037.0247.0093.0359.0056.0112.0135.0211.0232.029.1507.1708.2167.2646.2561.3174l.0016.0016-.0111.011.0012.0016.0024.0029.0045.0063v.0012c-.0029.0045-.0017.0055-.0333.0345-.0197.0161-.0364.0337-.0555.05l.0918-.0803.0132.0197c.0409.0541.066.1187.0723.1863-.0108.1112.0047.2233.0453.3273-.0236-.0537-.0511-.1056-.0822-.1553l-.0813.0501c.0933.2106.1262.4431.0949.6714h-.0953l-.004.092c-.2133.0558-.1773-.3716-.3294-.5154l-.1111.0619.0282.0563-.0128.0057c-.035-.0816-.0845-.1562-.1462-.22-.1438-.1437-.3743-.6031-.5203-.2156l-.5203.2156c-.0295.036-.0553.075-.0771.1162-.0215-.0773-.0357-.1565-.0423-.2364-.0036-.0629-.1226-.1517-.3192-.1446-.193.0071-.3759.0881-.511.2261-.1053.1068-.1506-.052-.2378-.0902-.0217.1533-.1344.2051-.1291.3682-.0832.229-.0955.4777-.0354.7138 0 0 .0394.0745.1286.2971.0325.0737.0621.0591.0906.0461l-.0577.027c.0881.0447.1125.212.1866.2593l-.0522.0364c.1428.094.2009.2518.3447.3349l-.0413.0483c.0609.0546.1298.1011.1107.1275l-.0374.0516c.051.0812.2364.1119.2051.1671l.0305-.0558c.2528.1402.525.2422.8077.3026.4017.0745.8167.0094 1.1763-.1845.3595-.1939.6419-.505.8002-.8815.0445-.0788.0197-.1834-.0725-.135.0373-.0739.0695-.1503.0963-.2287.0518-.1564-.0648-.1054-.0266-.2575zm4.2719-2.0133c-.0723-.0538-.1797-.0423-.143.0556-.0689-.0461-.1409-.0875-.2154-.124-.1493-.0709-.1129.0511-.2592-.0055-.3016-.0645-.6131-.0669-.9156-.0071-.1485.0304-.2931.0776-.431.1405-.0687.0313-.1356.0664-.2002.1054l-.0938.0619-.038.0266-.0014-.0022-.0144.0069-.0752.0408c-.1019.0559-.1984.121-.2885.1944-.1043.085-.1952.1853-.2697.2973-.0724.1105-.1269.2317-.1613.3592-.0472.1833-.0482.3755-.003.5593.0355.151.1027.2927.197.4157.0563.0773.123.1465.1982.2055.0858.0702.1808.1282.2824.1726-.2464-.1524-.4379-.3791-.547-.6474-.1031-.2732-.0935-.5761.0266-.8422.0671-.1415.1571-.2709.2664-.383.0075.01.017.0183.0279.0244.011.0061.0231.0097.0355.0108.0125.001.025-.0006.0368-.0048.0118-.0041.0226-.0108.0316-.0194.1882-.1287.2892-.1821.3466-.2153l.0017-.0014.0095.0122h.0016l.0035-.002.0067-.0037h.0012c.0041.0035.0053.0025.0303.0374.0134.0217.029.0394.0428.0615l-.0686-.1011.0207-.011c.0589-.0339.126-.0508.1939-.0487.109.0241.2221.0225.3304-.0047-.0562.0168-.111.0377-.1642.0624l.0395.0869c.2205-.0668.4553-.0709.6781-.0118l-.0116.0946.0908.0153c.0291.2185-.3903.1291-.5517.2634l.0477.1183.0591-.0209.0042.0134c-.0854.0246-.1655.0647-.2365.1182-.1601.1249-.6448.2979-.2778.4897l.15.5428c.0321.0338.0676.0642.1058.0908-.0791.0118-.1591.0162-.239.0131-.0629-.0042-.1655.103-.1826.299-.0167.1925.0412.3839.1617.5349.093.1182-.0701.1432-.1182.2252.1495.0394.1872.1576.3495.1732.2171.1105.4624.1533.7041.1227 0 0 .0788-.0305.3105-.091.0773-.0234.0666-.0544.057-.0843l.0197.0605c.0549-.082.224-.0857.2799-.1533l.03.0563c.1107-.1304.2746-.1684.3743-.3012l.0429.0471c.0617-.0538.1163-.1165.1401-.0944l.0467.0434c.0869-.0406.1401-.2207.1911-.1829l-.0518-.037c.1702-.2336.3048-.4912.3995-.7642.1239-.3897.1105-.8101-.0377-1.1912-.1483-.381-.4225-.6999-.7771-.9035zm5.5296 1.8257c-.0483-.0999-.1101-.1927-.1836-.2758.1593.2418.2378.528.2242.8172-.0104.1442-.0491.285-.1139.4142-.0648.1293-.1544.2445-.2638.339-.1203.1005-.2563.1804-.4027.2364-.0026-.0122-.0077-.0237-.0151-.0338-.0074-.0101-.0169-.0185-.0277-.0247-.0109-.0062-.023-.0099-.0354-.0111-.0125-.0011-.025.0004-.0369.0044-.2247.0375-.3388.0436-.4048.0497h-.0022l-.0035-.0152h-.0148c-.0024-.0049-.0038-.0045-.0118-.0465-.003-.0254-.0095-.0487-.0132-.0737l.0197.1204-.0233.0012c-.0678.0061-.136-.0067-.197-.0371-.0886-.068-.192-.1141-.3018-.1347.0581.0083.1167.0124.1753.0122v-.0954c-.2281-.032-.4429-.1269-.6202-.274l.0503-.081-.0761-.0522c.0654-.2106.4086.0469.6108-.0071l.0063-.127-.0627-.006.0018-.0139c.0877.0135.1772.0109.264-.0079.197-.0461.7104 0 .4579-.3279l.092-.5555c-.0151-.0442-.0345-.0867-.058-.1269.0767.0226.1512.0523.2225.0886.0551.0302.1934-.0238.2913-.1946.096-.1677.1238-.3658.0779-.5534-.0351-.1456.1237-.1003.2023-.1543-.1182-.0985-.103-.2224-.2445-.304-.1505-.1916-.3551-.3335-.5873-.4072 0 0-.0845-.0053-.3201-.0477-.0798-.0112-.0834.0213-.0871.0526l.0075-.0632c-.0844.051-.2394-.0166-.3186.0215l-.0034-.0637c-.1554.0715-.3201.0374-.4661.1161l-.0197-.0607c-.0788.023-.1543.0569-.1667.0268l-.024-.0591c-.0959 0-.2199.1416-.2504.0859l.0315.0553c-.2526.1405-.4831.3176-.6838.5257-.2754.3016-.4394.6884-.4647 1.0961-.0253.4076.0896.8117.3256 1.1451.0429.0788.1452.1139.1531.0097.0431.0707.091.1385.1432.2029.106.127.1241.0012.2333.114.2464.1852.5279.3182.8274.3909.1476.035.2987.0529.4504.0536.0754.0005.1508-.0033.2258-.0114l.1111-.0168.0457-.0082v.0025h.016l.0853-.0055c.1159-.0077.2308-.0262.3434-.0552.1304-.0333.2551-.0861.3699-.1564.112-.07.2123-.1571.2971-.2583.1198-.1465.2015-.3205.2376-.5063.031-.1519.0295-.3087-.0045-.46-.0178-.0933-.0484-.1836-.0908-.2686zm-48.1256-.6804c-.424 0-1.6246.0807-2.4011.0807-.7984-.0672-1.5996-.0942-2.4008-.0807h-1.3416c-.2828 0-.635.0394-2.4716.1207-.3524 0-1.0591-.0808-1.4116-.0808-1.3417.0808-2.3301.2016-2.754.2016-.0706 0-.1413-.0406-.212-.0406-.2965-.098-.6056-.1523-.9177-.161-.212 0 .0705-.0394-2.2596-.0394-.6352 0-1.1299-.0394-1.7648-.0394-.3771-.0057-.7542.0074-1.1299.0394-.4945.0394-.7772.0808-1.27095.0808-.28271 0-.63596-.0808-.91868-.0808-1.34087 0-.35245-.0394-1.34087-.0394-.33004-.007-.66019.0062-.98862.0394-.42378.0394-.84716.0394-1.27094.0394-.25972.0088-.51971-.0044-.77722-.0394-.23354-.0352-.46989-.0484-.7059-.0394-.56445 0-1.12968.0394-1.34167.0394-.28271 0-.84716.2416-.91789.4425-.05754.1401-.08168.2917-.07053.4427 0 .2018.21199.2818.35325.3625.3328.2216.73202.3211 1.12987.2818.84717-.081 1.97684-.081 2.40082-.081.7057 0 1.41141.081 2.1181.081.35246 0 1.4116-.081 2.25955-.081.77648 0 1.55288-.0394 2.33008-.0394.3525 0 .7059 0 1.1299.0394.4451.0546.8932.0816 1.3417.081.1919.0186.3855-.0091.5644-.081.1382-.0365.2814-.0498.424-.0394.3524 0 1.0591.0394 2.6827.0394.9884 0 1.9769.0394 2.8248.0394 2.0476 0 2.6825-.0394 3.248-.0394 1.6943.121 3.4597.121 5.1541.121.4975.0239.996-.0168 1.4831-.121.1116-.0752.2025-.1773.2643-.2969.0617-.1196.0923-.2528.0889-.3873 0-.3623-.6359-.7648-1.1296-.7648zm17.0109-.1675c-.0872.0382-.1327.197-.2379.0902-.1351-.1381-.3181-.219-.5111-.2261-.197-.0071-.3152.0817-.319.1446-.0066.0799-.0208.1591-.0423.2364-.0218-.0413-.0476-.0802-.0773-.1163l-.5201-.2155c-.1454-.3875-.3767.0719-.5203.2155-.0617.0639-.1113.1385-.1462.2201l-.0128-.0057.028-.0564-.1111-.0618c-.1531.1438-.1159.5713-.3292.5154l-.004-.092h-.0953c-.0313-.2283.0016-.4608.0949-.6715l-.0813-.05c-.0311.0497-.0586.1016-.0822.1552.0406-.104.0561-.2161.0453-.3272.0062-.0677.0313-.1322.0723-.1864l.0132-.0197.0918.0804c-.0197-.0163-.0356-.0339-.0557-.05-.0313-.029-.0302-.03-.0331-.0345v-.0012l.0045-.0063.0022-.003.0014-.0015-.0113-.0111.0018-.0015c.0394-.0528.1054-.1466.2561-.3174.0097-.0079.0176-.0178.0232-.029.0055-.0112.0087-.0234.0092-.0359.0005-.0125-.0017-.025-.0063-.0366-.0047-.0116-.0117-.0221-.0207-.0307.1249-.0946.2647-.1679.4137-.2167.1381-.0429.2832-.0581.4272-.0449.144.0133.2839.0547.4119.1221.2529.1411.4544.3591.5752.6224-.0313-.1064-.0772-.2078-.1365-.3015-.0493-.082-.1098-.1568-.1797-.2222-.1104-.1088-.2427-.193-.3881-.2469-.1769-.0675-.3678-.0901-.5556-.0658-.1307.0186-.2576.0577-.3761.1159-.1204.0602-.2311.1382-.3282.2315-.084.0802-.1604.168-.2283.2622l-.0499.0697-.0084.0132.0019.0018-.0311.0345-.0729.0855c-.0467.0593-.0899.1213-.1292.1858-.0795.1291-.144.2669-.1923.4106-.0966.2927-.1325.6021-.1054.9092.038.1523-.0788.101-.0264.2583.027.0783.0592.1547.0965.2287-.0926-.0485-.1172.0567-.0725.135.1583.3765.4407.6876.8003.8815.3595.1939.7745.259 1.1762.1845.2827-.0604.5549-.1624.8077-.3026l.0306.0557c-.0314-.0551.154-.0859.2048-.167l-.0374-.0516c-.0197-.0264.0501-.0729.1109-.1275l-.0413-.0483c.1438-.0825.2017-.2403.3447-.3349l-.0522-.0365c.0741-.0472.0985-.2145.1866-.2592l-.0577-.027c.0285.0134.0581.0276.0906-.0461.0885-.2226.1287-.2971.1287-.2971.06-.2361.0477-.4848-.0355-.7138.0049-.1639-.1078-.2157-.1295-.369zm-4.8518-.1872c-.0745-.112-.1654-.2123-.2697-.2973-.0901-.0735-.1867-.1386-.2887-.1944l-.075-.0408-.0144-.0069-.0014.0022-.038-.0266-.0938-.0619c-.0646-.039-.1315-.0741-.2002-.1054-.1379-.0629-.2825-.11-.431-.1405-.3024-.0598-.6139-.0574-.9153.0071-.1466.0566-.1102-.0654-.2597.0055-.0745.0365-.1464.0779-.2153.124.0368-.0985-.0706-.1094-.1429-.0556-.3542.2035-.6282.522-.7765.9026-.1483.3807-.1619.8006-.0385 1.1901.0947.2731.2293.5306.3995.7642l-.0518.0371c.0512-.0379.1042.1422.1911.1828l.0467-.0434c.0238-.022.0788.0406.1401.0944l.0427-.0471c.0985.1328.2632.1708.3744.3013l.0297-.0564c.056.0676.225.0713.28.1533l.0197-.0605c-.0099.03-.0197.0609.0569.0843.2317.0605.3105.091.3105.091.2417.0306.487-.0122.7041-.1227.1624-.0148.2-.133.3495-.1732-.0486-.0819-.2118-.1077-.1182-.2252.1205-.1509.1784-.3424.1618-.5349-.017-.197-.1198-.3032-.1827-.299-.0799.0031-.16-.0013-.2391-.013.0382-.0266.0737-.057.1058-.0908l.1501-.5428c.3668-.1919-.1182-.3649-.2778-.4898-.0709-.0535-.1511-.0936-.2364-.1182l.0043-.0134.0591.0209.0477-.1182c-.1616-.1344-.581-.0449-.5517-.2634l.0911-.0154-.0117-.0946c.2228-.0591.4576-.055.6782.0119l.0394-.0869c-.0532-.0247-.108-.0456-.1641-.0625.1082.0272.2213.0289.3303.0047.0679-.002.1351.0148.1939.0487l.0207.011-.0686.1011c.0138-.0213.0294-.0394.043-.0615.0248-.0348.026-.0338.0301-.0374h.0014l.0065.0038.0034.0019h.0017l.0095-.0122.0018.0014c.0573.0333.1576.0867.3465.2153.009.0087.0198.0153.0316.0195.0118.0041.0243.0058.0368.0047.0125-.001.0246-.0047.0355-.0108.0109-.0061.0204-.0144.0279-.0244.1093.1121.1993.2415.2664.383.0595.1318.0924.274.097.4185.0045.1445-.0195.2885-.0706.4237-.109.2683-.3004.4951-.5467.6474.1015-.0443.1965-.1024.2823-.1726.0752-.0591.1419-.1283.1984-.2055.0943-.123.1615-.2647.197-.4157.0452-.1838.0442-.3759-.003-.5593-.0347-.1268-.0891-.2473-.1613-.3572zm-5.8571-.7571l.0316-.0554c-.0306.0558-.1545-.0855-.2502-.0859l-.0243.0591c-.0124.0302-.088-.0037-.1668-.0267l-.0197.0606c-.146-.0788-.3105-.0445-.466-.116l-.0033.0636c-.0788-.038-.2341.0296-.3186-.0214l.0075.0632c-.0038-.0313-.0075-.0638-.0871-.0526-.2364.0424-.3201.0477-.3201.0477-.2323.0737-.437.2156-.5875.4072-.1411.0816-.1257.2047-.2445.304.0788.054.2364.0087.2025.1543-.0461.1876-.0182.3857.0778.5534.0985.1708.2364.2248.2914.1946.0712-.0364.1457-.0661.2224-.0886-.0235.0402-.0429.0827-.0579.1268l.0918.5556c-.2524.3282.2601.2818.4581.3279.0867.0187.1762.0214.264.0078l.0017.014-.0626.0059.0063.1271c.2029.054.5461-.2035.6107.0071l-.076.0522.0502.081c-.1773.1471-.392.242-.6202.274v.0954c.0586.0002.1172-.0039.1752-.0122-.1098.0207-.2132.0668-.3018.1347-.061.0304-.1292.0432-.1971.0371l-.0232-.0012.0197-.1204c-.0038.025-.0099.0483-.013.0737-.0081.0419-.0095.0416-.0118.0465h.0012H34.9472l-.0034.0151h-.0022c-.066-.0061-.1802-.0122-.4048-.0496-.0119-.0041-.0244-.0056-.0369-.0044-.0124.0011-.0245.0049-.0353.0111-.0109.0061-.0204.0146-.0278.0246-.0073.0101-.0125.0217-.0151.0339-.1464-.056-.2824-.1359-.4027-.2364-.1093-.0946-.199-.2098-.2638-.339-.0648-.1292-.1035-.27-.1139-.4142-.0137-.2893.0649-.5755.2244-.8172-.0737.083-.1355.1758-.1838.2758-.0435.0853-.075.1761-.0937.2699-.0342.1513-.0357.3081-.0046.4601.0361.1858.1178.3598.2376.5063.0849.1012.1853.1883.2973.2583.1148.0703.2394.123.3698.1564.1125.029.2275.0474.3434.0552l.0853.0055h.016v-.0026l.0455.0083.1111.0167c.0751.0082.1506.012.2262.0115.1516-.0007.3026-.0187.4501-.0536.2995-.0728.5811-.2058.8275-.3909.1091-.1129.1273.013.2333-.1141.0522-.0643.1-.1321.1432-.2029.0079.1042.1101.0695.1529-.0097.2361-.3333.3511-.7374.3258-1.1451-.0253-.4077-.1894-.7945-.4649-1.0961-.2005-.2085-.4307-.3861-.6833-.527zm42.428-23.068c.1587-.0118.3153-.0433.4662-.0938.1871-.0632.4354-.2177.6533-.2811.169-.0255.3353-.067.4964-.1239.2847-.1406.5559-.3067.8104-.4965.1956-.0745.3833-.1687.5599-.2811.1618-.1478.2711-.3443.3113-.5598-.0159-.2144-.0693-.4245-.1577-.6206-.1096-.1764-.2464-.3345-.4052-.4685-.0272-.0297-.0605-.0532-.0977-.069-.0371-.0157-.0771-.0233-.1175-.0222-.0951.0023-.1874.0329-.265.088-.0776.055-.137.1321-.1705.2211-.1336.2695-.3013.5206-.4991.7471-.1544.1876-.2786.2177-.4963.4989-.0937.0914-.1266.2179-.2179.3091-.0912.0912-.2811.0936-.3743.1576-.2436.204-.5157.3712-.8077.4965-.029.0147-.0531.0373-.0697.0652-.0166.0279-.025.0599-.0241.0924-.0047.0533.0058.1068.0303.1544.036.0656.0912.1186.1583.1519.067.0333.1426.0453.2166.0343zm38.1116 6.2203v.2812c.029.3179-.011.6385-.119.9391-.108.3006-.28.574-.504.8009-.127.0767-.242.1714-.342.2811-.091.0936-.124.3115-.218.4053-.792.7316-1.816 1.1611-2.892 1.213-.155 0-.312.0306-.436.0306-.417.0314-.836-.0336-1.224-.1899-.389-.1564-.736-.4-1.015-.7119-.276-.4137-.418-.903-.405-1.4006-.009-.4726.145-.934.435-1.3067.267-.322.645-.5328 1.059-.5911h.248c.466 0 .808.1545.808.4965-.003.0697-.021.138-.051.201-.03.0629-.072.1192-.124.1657-.052.0464-.113.082-.179.1048-.066.0227-.136.0321-.205.0275-.072.0075-.145.0003-.214-.0209-.069-.0213-.133-.0563-.188-.1029-.055-.0466-.101-.1038-.133-.1683-.033-.0645-.052-.1348-.057-.2069-.149.0125-.293.0581-.422.1335-.13.0753-.24.1785-.325.3021-.155.2186-.242.4789-.248.7473 0 .0632.03.1542.03.2177v.3418c-.013.108.01.2173.064.3117.094.1544.342.3114.435.4659.21.2199.469.3878.755.4904.286.1026.592.1371.894.1006h.217c.804-.0312 1.573-.3381 2.178-.869.183-.1607.35-.3379.499-.5294.107-.2435.2-.493.279-.747.191-.3971.288-.8332.281-1.2739v-.6535l-.124-.3421c-.059-.2758-.164-.5396-.312-.7799-.093-.1242-.124-.3419-.218-.466-.173-.1518-.36-.2867-.559-.4027-.245-.2118-.516-.3898-.808-.5293-.385-.1067-.783-.1598-1.182-.1577-.187 0-.405.0329-.591.0329-1.127.1099-2.224.4259-3.237.9321-.124.0633-.248.0304-.372.0936-.094.0305-.188.2179-.279.2811l-.592.3419c-.394.3003-.81.5703-1.244.8077-.171.0496-.338.1123-.499.1876-.124.0912-.248.3089-.372.4027-.342.2508-.808.6535-1.182.8712-.33.2457-.672.474-1.026.6838-.331.1498-.644.3376-.932.5597-.551.382-1.147.6958-1.773.9347-.07.0268-.144.0372-.218.0303h-.2179c-.0938.0303-.2179.1874-.3117.2179-.6883.3219-1.4079.5722-2.1474.7471-.0957.4158-.2935.8012-.5755 1.1214-.2821.3202-.6396.5649-1.04.7122-.5071.2339-1.06.3516-1.6183.3446-.5512.0059-1.0988-.0894-1.6155-.2812-.5048-.2008-.9458-.5343-1.2765-.9653-.3687-.4937-.6819-1.0265-.9338-1.5888-.4415.3215-.8583.6756-1.2469 1.0594l-.2508.3115c-.0936.0632-.1848.0331-.3115.0937-.1545.0936-.2786.3419-.4334.466-.3106.222-.6443.4096-.9954.5597-.3619.1306-.7389.2148-1.122.2508-.0742.0074-.1491-.0039-.2178-.0329-.482-.1089-.9042-.3979-1.1802-.8078-.3018-.4724-.5035-1.0017-.5926-1.5552-.1093-.4792-.1612-.9698-.1546-1.4613v-.1241c.0135-.9664.0758-1.9316.1865-2.8917-.3113 0-.4354.4964-.5924.6501-.2973.3935-.6188.7683-.9626 1.122-.0932.0726-.1931.1363-.2983.1901.0012.012.0122.015.0122.0276.0012.0434-.0093.0862-.0305.1241-.2087.3406-.4713.6451-.7774.9017l-.2179.0609c-.1694.232-.3565.4504-.5597.6533-.5598.5294-1.2133.9018-1.7424 1.4615l-.2483.3115c-.0937.0632-.1873.0331-.3114.0937-.1545.0936-.2812.3419-.4356.466-.3542.2142-.7294.3916-1.1197.5293-.3884.1585-.7965.2633-1.2132.3115-.0632 0-.0936-.0303-.1576-.0303-.4801-.0761-.913-.3325-1.2107-.7167-.1081-.2771-.1514-.5751-.1266-.8714-.0006-.2605.0205-.5205.0632-.7775.2613-1.2037.6362-2.3798 1.1196-3.5127 0-.0331-.0608-.1267-.0937-.0938-.1242.0607-.2786.2786-.4356.4027-.1728.1258-.3386.261-.4965.4051-.0938.0939-.1241.2179-.2179.3116-.0182.0182-.0376.0353-.0579.0511-.0013.0146-.0047.0289-.0103.0425-.2088.3406-.4714.6451-.7776.9017l-.2179.0609-.5597.6533c-.4967.5535-1.0492 1.0542-1.6486 1.4944-.094.0607-.2812.0607-.3743.1544-.0911.0633-.0302.2179-.1543.2812l-.5597.4027c-.34.1925-.6939.3593-1.0588.499-.3951.2041-.8296.3207-1.2739.3418-.0634 0-.0938-.0303-.1576-.0303-.48-.0761-.913-.3325-1.2106-.7167-.123-.2506-.1774-.5294-.1577-.8078.0033-.2827.0346-.5644.0936-.8409.1876-.7445.342-1.3676.5911-2.1147l-.1547-.0609c-.2617.2711-.554.5108-.8712.7142-.1544.1241-.1544.2482-.248.3117-.1576.1544-.3743.2177-.5597.3721-.1152.1533-.2403.2988-.3744.4358-.2785.2481-.5268.5292-.8077.7471-.7142.4659-1.2765.9953-1.9899 1.4006-.2179.1241-.4964.3089-.7776.4356-.1694.0625-.3488.0934-.5294.0912-.0839.0069-.1684-.0035-.2482-.0304-.3381-.1142-.632-.3312-.8409-.6206-.1575-.363-.2315-.7568-.2167-1.1523.0118-.6203.1181-1.2351.3153-1.8234-.1305.1866-.2793.3596-.4443.5164-.5597.5294-1.2107.9018-1.74 1.4615l-.2506.3115c-.0913.0632-.1848.0331-.309.0937-.1576.0936-.2811.3744-.4358.4989-.377.2034-.7728.3697-1.182.4964-.5433.1742-1.1089.2689-1.6792.2812-.288-.0248-.5683-.1062-.8248-.2396-.2565-.1335-.484-.3163-.6695-.538-.2618-.5547-.3992-1.1598-.4027-1.7732v-.1851c0-.1259.0295-.2705.0403-.4039-.052.0762-.1095.1487-.1719.2167-.3744.3743-.6232.7167-1.0285 1.0587l-.4025.3722-.499.2482c-.1547.1267-.0938.2812-.3089.4053-.4014.2624-.8175.5017-1.2461.7167-.4159.2051-.8737.3108-1.3374.309-.4031-.0085-.8023-.082-1.1821-.2177-.3491-.1104-.6611-.3149-.9015-.5911-.0609-.0607-.1544-.3418-.2482-.3722-.1176-.0772-.2226-.172-.3115-.2811-.2858-.4314-.5061-.9028-.6535-1.3988l-.0609-.1576c-.1163-.1427-.2413-.278-.3743-.4053-.1545-.2482-.1848-.2179-.1848-.5268 0-.3743.3115-.9017.5595-.9017.2179 0 .4358.185.5911.185.4926-.0612.9675-.2224 1.3957-.4737.4281-.2513.8003-.5875 1.0939-.9878.155-.2055.3207-.4028.4963-.591.1243-.0938.2484-.1241.3117-.2508.0632-.0912.0936-.2786.1544-.3724.1824-.3575.2885-.749.3115-1.1497.005-.0948-.0053-.1897-.0303-.2812-.0425-.0872-.1097-.1599-.1934-.2091-.0836-.0491-.1799-.0725-.2767-.0671-.064-.0048-.1282.0056-.1874.0304-.6372.2284-1.2354.554-1.7731.9653l-.3115.3724c-.1241.1873-.4356.1873-.6206.3418-.2506.2179-.2811.4661-.4988.7473-.1241.1544-.4053.3115-.4053.4027-.1683.1329-.3152.2909-.4356.4685-.0606.0608-.1848.0608-.2785.1241-.2812.248-.3421.7471-.5598 1.0891l-.2811.4027c-.185.2482-.1544.6229-.2482.9653-.2481.8078-.2786 2.2718-.5292 2.7976-.0317.0883-.0915.1636-.1703.2145-.0787.0508-.1721.0742-.2655.0667-.2328-.0155-.4578-.0905-.6533-.2179-.185-.1241-.5599-.2177-.591-.4053v-.1241c0-.2177.0937-.3115.0937-.5597.0198-.4698.0714-.9377.1545-1.4006.1482-.8259.2398-1.1208.3101-1.4419-.4742.2958-.9051.6558-1.2806 1.0698-.2768.2886-.5901.5397-.9321.747-.8105.5598-1.5879 1.0562-2.4593 1.5854-.0607.0635-.4659.1241-.5268.1876-.23.2019-.4804.3793-.7471.5293-.342.1545-.8408.2481-1.2132.3722-.1545.0305-.4053.1547-.4988.1547-.3042.0093-.6064.0509-.9018.1241-.1322.0285-.2676.0396-.4027.0329-.8572-.0129-1.6786-.3464-2.3023-.9347-.3745-.5595-.56-1.2244-.5292-1.897 0-.1545-.0634-.3115-.0634-.4659 0-.1545.2179-.5598.2179-.7777.0208-.2482.0603-.4945.1182-.7368-.1669.1099-.3184.2067-.3712.238-.1121.1089-.2525.1844-.4052.2177-.0842-.0053-.1686.0059-.2485.0329-.0935.0305-.1241.1241-.2177.1547-.4267.1643-.88.2484-1.3373.248-.4118.0202-.8182-.1004-1.1523-.3418-.2483.4659-.3722.4052-.6502.7776l-.0632.0936c-.2703.4146-.595.7912-.9654 1.1194-.1544.0938-.2482.0633-.3723.1874-.0936.0938-.1242.342-.2177.4052-.0306 0-.0306.0306-.1242.0913-.3049.2809-.6518.5125-1.0282.6863-.4546.1811-.9391.2756-1.4285.2786-.4267.0321-.8539-.0557-1.2333-.2535-.3795-.1978-.6961-.4977-.9142-.8659-.2772-.6032-.4049-1.2643-.3723-1.9274 0-.106.0137-.2055.0179-.3103-.1921.1828-.8472.9088-.9603.9941-.4128.4361-.8841.8128-1.4003 1.1195-.0974.0543-.2013.096-.3092.1241-.0935.0632-.2167.2811-.3443.3418-.2177.1241-.4965.0635-.6502.2482-.1267.0938-.1267.2508-.2506.3421-.1546.1576-.185.0632-.4027.1873-.3959.2885-.8539.4802-1.3373.5597-.2179 0-.3446.0938-.5928.0938-.2112.047-.4186.1096-.6204.1874-.38079.0638-.76629.0952-1.15236.0938-1.45549.0406-2.89831-.2806-4.19916-.9347-.2239-.1019-.44206-.216-.6535-.3418-.28104-.2752-.52151-.5891-.71417-.9321-.22544-.2444-.4336-.5042-.62296-.7776-.18756-.2179-.15466-.4685-.27878-.6864-.09378-.1239-.34201-.3089-.37432-.4356-.54927-1.5343-.79192-3.1616-.71418-4.7894.00581-2.3034.41591-4.5879 1.21164-6.7495-.14883-.0966-.28497-.2114-.40526-.3418-.09378-.0938-.27858-.4991-.37216-.5911-.18756-.1873-.37433-.2809-.52938-.4685-.408325-.5478-.704452-1.171-.871392-1.8336-.097558-.4706-.149286-.9495-.154459-1.4301-.005078-.2185.00506-.4372.03034-.6543.073241-.79374.351599-1.55481.807761-2.20851.3874-.48794.88945-.8725 1.46145-1.11944.41111-.18809.85504-.29397 1.30679-.31167.09378 0 .2179.03053.31168.03053.32926.01462.65455.07775.96537.18737.1045.05885.19133.14462.25148.24838.06014.10376.0914.22174.09053.34167.00185.10728-.0198.21366-.06343.31168-.09102.18736-.1848.21671-.24804.21671-.09378 0-.15466-.06087-.2179-.06087-.03034 0-.18736.03054-.31148.03054-.05347.00793-.10803-.00286-.15446-.03054-.12317-.05683-.23031-.14332-.31183-.25173-.08153-.10842-.13488-.23536-.15529-.36946-.11189-.02652-.22701-.03674-.34182-.03034-.34722-.00468-.68637.10475-.96537.31148-.31492.20874-.55427.5133-.68265.86864-.07791.25912-.18229.50953-.31148.74727-.12412.40526-.03034.55972-.12412.80779-.0331.1266-.2179.2508-.2179.3743s.1848.3117.1848.4358c-.01529.4167.01637.8339.09437 1.2435.11134.4989.31205.9735.59242 1.4008.09378.1241.4027.4027.49667.5268.10497.171.2307.3284.37433.4685.23296-.4809.49257-.9485.77762-1.4005.08524-.3056.21037-.5986.37216-.8714.09567-.0432.18049-.1072.24823-.1874.06344-.0912.03034-.2179.09358-.3418.12432-.342.59105-.5268.84106-.8383.42678-.6672.91606-1.29224 1.46125-1.86672.46614-.4356.96537-.68384 1.46145-1.15234.2177-.1848.34182-.46593.59105-.68383.21789-.185.49903-.185.77761-.34202.53061-.50105 1.14041-.91098 1.80461-1.21321.2786-.06088.5911.0329.7775-.15466.7192-.50704 1.5528-.82808 2.4264-.93444.4659-.12412 1.1498-.15446 1.555-.21789.5055-.06317 1.0145-.09337 1.5239-.09043.5313-.0092 1.0622.0323 1.5856.12392.1239.03054.2784.15465.4051.18499.2022.07676.4096.13936.6205.18736.4553.12295.8724.35807 1.2133.68384.1873.18756.0935.2508.248.49904 0-.0331.2508.09358.3446.2177.3071.34728.549.74712.7142 1.18031.093.37996.1657.76462.2177 1.15234.0819.26252.1338.53351.1546.80775.0039.13578-.0064.27159-.0305.40526-.0351.1108-.0555.22572-.0607.34183-.006.1983-.0272.3959-.0634.591-.0227.2946-.1072.581-.2481.8407-.0331.0938-.1875.1547-.2179.2482 0 .1545.0304.2483.0304.342-.1041.3039-.2399.5959-.4051.8712-.1243.2812-.2786.3115-.4358.5294-.1585.2689-.3462.5195-.5597.7471-.091.0912-.2481.0303-.3089.0912-.0609.0609-.0633.2812-.1267.3418-.4265.4051-.9352.7136-1.4916.9043-.3788.1544-.7762.2583-1.1821.309-.0938.0329-.2482.1875-.3724.2178-.3907.0638-.7861.0952-1.182.0938-.28.0049-.5601-.0055-.8389-.0311l-.2508.1876c-.2556.224-.5254.4313-.8078.6204-.5294.3418-.6533.2177-.9953.3418-.1547.0634-.3117.251-.4659.3116-.423.1395-.8624.2229-1.307.2481h-.2181c-.5869.0969-1.179.1595-1.7731.1875h-.49869c-.68849.0492-1.37922-.0573-2.02097-.3114-.03647-.0246-.08036-.0357-.12412-.0314-.09378 0-.18756.0306-.27858.0306-.5408-.1134-1.07182-.2692-1.58813-.466l-.4356-.1875c-.2177.4988-.65349 1.0282-.65349 1.555.02735.1435.03846.2896.0331.4356 0 .6232-.4687 1.2461-.4687 1.8058.0375.3094.05867.6205.06344.9321-.03054.5926-.06344.6533-.06344.9016.0329 1.3373.12668 1.6184.12668 1.8667 0 .342-.0329.747-.0329 1.0891.0329.4356.2179.5597.34182.9015.06344.1876.06344.4053.12412.5928.09377.2786.56227.4027.56227.6839 0 .2177.46594.8077.46594.9318.06088.0633.185.0938.24824.1874.15466.1546.12412.2482.37236.342.09378.0303.12668.1874.15761.2482.27858.1874.4356.2177.68384.4053.28924.196.61943.3233.96536.3722.32787.064.66127.0954.99532.0937.64983-.0089 1.29652-.0922 1.92742-.2482.2395-.0955.4908-.1586.747-.1874.227-.0955.4456-.2099.6535-.342.0306-.0303.0609-.0303.1242-.0303.0937 0 .1875 0 .2179-.0304.0935-.0329.0606-.2508.1873-.2811.4507-.1497.8793-.3593 1.2741-.6232.5291-.3772 1.038-.7821 1.5245-1.213.1241-.1544.7471-.7141.8712-.8383.2055-.1842.3961-.3844.5698-.5989.0224-.0882.0325-.1933.0608-.2725.1547-.3723.0938-.747.3117-1.0585.0641-.0806.1371-.1537.2177-.2179.185-.3089.2154-.7445.4027-1.056.3541-.5303.7388-1.0394 1.1524-1.5247.0912-.1241.2179-.1241.3091-.2179.0936-.1241.2177-.3418.3114-.4356.5073-.4845 1.0975-.874 1.7424-1.15.0306-.0329.0938-.0329.1547-.0329h.2179c.4141-.076.8202-.1904 1.213-.3418.1651-.0252.3321-.0354.499-.0303.2934-.0028.5841.0551.854.17.2699.1148.5132.2842.7146.4975.2014.2133.3565.4659.4558.7419.0992.2761.1403.5697.1207.8623v.2179c0 .1242-.0606.1848-.0937.309.005.1668-.0052.3338-.0304.4988-.0673.3618-.1717.7157-.3115 1.0562-.0475.8089-.3041 1.5917-.7447 2.2718.2523.2077.5762.3078.9018.2787h.2785c.2018.0124.4039-.0187.5927-.0912.1995-.0509.3888-.1358.5597-.2508.1591-.0643.3147-.137.4661-.2179.2407-.1584.4693-.3345.6838-.5268.0613-.0463.1228-.0999.188-.1422.0118-.0197.0231-.0591.0349-.0755.4429-.9114.9748-1.7768 1.5881-2.5834.3746-.4765.8266-.8865 1.3371-1.2131.2179-.1544.5292-.0608.7471-.2482.0953-.1112.1985-.2153.3089-.3115.639-.3454 1.3576-.5164 2.0837-.4959.422-.0114.8428.0512 1.2433.1848.2509.1452.4725.3359.6535.5623.0938.0912.1876.0912.2508.2788.4659-.4053.7447-1.8033 1.2132-1.8033.3418 0 .5266.5595.5266.8078-.0021.2739-.0772.5424-.2177.7776-.1544.3418-.3089.1576-.3723.2811-.0635.1236-.0304.2483-.1239.3724-.2812.3418-.6839.6535-.8714.8712-.2812.3115-.5598.7142-.9321.8077-.0936 0-.2811-.1544-.2811-.2482 0-.1241.3116-.2811.4052-.4661.1372-.2164.2222-.4617.2483-.7166.0049-.0839-.0054-.168-.0304-.2482-.1253-.1771-.2941-.3188-.4902-.4116-.1961-.0927-.4129-.1333-.6292-.1178-.4533.0243-.8882.1869-1.2461.466-.1242.0937-.5911.2811-.7142.4052-.0633.0306-.3117.0635-.3743.1576-.309.2483-.2786.466-.5269.7447-.2339.303-.4833.5938-.747.8712-.0635.0633-.4662.1874-.4662.4053.0148.0719.025.1446.0306.2177-.0011.0668-.0233.1315-.0635.1848-.1848.3446-.3089.6537-.4963.9346-.0634.0938-.2179.2179-.2482.342.0446.0994.076.2041.0936.3115 0 .6206-.4354 1.2739-.4354 2.1451-.0051.156.005.3121.0301.4662.094.5293.2788.9346.8385 1.0587.2136.0523.4337.0736.6533.0632.6354-.0187 1.2603-.1669 1.8364-.4356.3183-.0919.6297-.2062.9319-.342.5599-.2811.7169-.5293 1.2764-.5293.0609-.0329.0938-.2506.1547-.2812l.3743-.0936c.2179-.1241.2179-.3091.4356-.4356.2835-.1767.5535-.3743.8078-.591.0937-.0609.2482-.0938.342-.1547.2167-.1576.2811-.4988.4659-.6533.2767-.1839.5279-.4037.7471-.6535.0938-.0935.3117-.1576.4053-.2482.194-.223.352-.4655.6008-.5453.1441-.7061.4427-2.691.587-3.0638.1875-.4053.1875-.7471.342-1.1498.1293-.2482.2337-.5086.3116-.7774.0472-.2324.109-.4617.1848-.6864.1398-.5746.3279-1.1364.5623-1.6793l.3418-.8383c.3555-1.336.8023-2.6459 1.3374-3.9206.0311-.0703.05-.1484.077-.2197.1668-.6457.3938-1.2744.6779-1.8777.0231-.0501.0504-.0981.0814-.1437.2526-.593.4202-1.18499.6249-1.6466l.5739-.31522c.1208-.25178.027-.43343.1586-.75358.2632-.56088.6094-1.07892 1.0269-1.53671.1138-.35257.3142-.67094.5829-.92596.0897-.09851.2759-.13555.3326-.23189.0651-.16456.1208-.33269.1669-.50357.2857-.62438.7236-1.16705 1.2735-1.57828l.1201-.09851c.4415-.36108.9063-.69265 1.3914-.99255.4916-.29864 1.0002-.56835 1.5233-.80776 1.2339-.3863 2.5112-.616752 3.8023-.686005 1.4183-.102218 2.8359.207422 4.0824.891685.4723.29013.8886.66284 1.2289 1.10033.3878.57224.6863 1.20015.8852 1.86217.103.41685.173.84114.2095 1.26897.0139.34162-.0353.68581-.0491 1.08949l.0051.12648c-.0422.62911-.2656 1.23254-.6432 1.73747-.4666.79732-1.1437.97975-1.4142 1.24124-.2973.2911-.7817.6532-2.6467.7289-.6492.0347-1.2873-.1792-1.7845-.5981-.4971-.41901-.8161-1.0116-.8919-1.65732l-.0077-.18736c-.0382-.93109.3816-1.32354.9092-1.37575.1012-.0071.2028.00711.2982.04171.0954.0346.1824.08883.2556.15919.0731.07035.1306.15526.1689.24924.0382.09397.0563.19493.0532.29635-.0394.50101-.4374.70236-.5107 1.20474.0014.03034.5562 1.3791 1.7682 1.3289.7968-.0361 1.5652-.30659 2.2089-.77765.3665-.25956.671-.59708.8916-.98831.2206-.39122.3517-.82645.3841-1.2744.0256-.28945.0349-.58011.0278-.87061.0165-.64923-.1505-1.28995-.4817-1.84858-.462-.63478-.2914-1.04752-1.0217-1.42303-.4138-.20096-.8472-.86686-1.3163-.94212-1.0083-.37504-2.0898-.51107-3.1595-.39738-1.0555.10421-2.0741.44408-2.9806.99453-.335.19878-.863.22065-1.1624.45096-.3655.23307-.7424.87218-1.4063 1.42914-.6261.69653-1.1592 1.47135-1.586 2.30507-.1454.2242-.3591.32665-.474.54947-.1468.25435-.3111.75791-.4275 1.01364-.1706.3493-.1732.28606-.3464.63537-.1416.31758-.3097.79081-.4222 1.0769-.0333.0718-.0715.1414-.114.2082-.0761.3264-.1761.6468-.2993.9585-.3743.6535-.499 1.5223-.8712 2.3328-.2627.4946-.4716 1.016-.6232 1.5551l-.3723 1.4918c-.0709.4421-.2293.8657-.466 1.2459-.0329.0609-.5622 1.9908-.5926 2.1756-.3976.7907-.7305 1.6123-.9953 2.4568-.0336.2524-.0853.502-.1546.7471-.1648.4293-.2696.8793-.3115 1.3373l.0938-.0304c.2711-.2504.5109-.5327.7141-.8408.0938-.1547.4053-.2153.5294-.3724.2222-.2543.4617-.493.7167-.7143.4335-.3113.7446-.6862 1.1804-.9952.5869-.495 1.2485-.8939 1.9603-1.182.2753-.066.5577-.0975.8408-.0938.135-.0076.2704.0027.4027.0305.2384.051.4532.1796.6108.3656.1577.1861.2492.4191.2604.6626.0243.1541.0344.3101.0303.466.0205.3294-.0666.6565-.2482.932-.0632.0679-.097.1581-.0938.2508v.1242c-.372.7052-.9176 1.304-1.5853 1.7398-.466.3117-.8712.6864-1.0588.7776-.1876.0912-.5595.0936-.714.2177-.2075.1005-.4272.1737-.6535.2179-.2811.0329-.591.0938-.591.2508.0263.1821.1016.3536.2179.4963.0927.1522.1959.2979.3089.4358.4358.591.2811.7774.8409 1.3371.2102.1893.4394.3565.6838.4991.2619.1266.55.1899.8408.1848.3812.0039.7567-.0921 1.0891-.2786.3864-.2056.7602-.434 1.1195-.6839.2787-.2506.5294-.5293.7776-.7774.2167-.1875.3723-.1576.5597-.3117.1545-.1576.0607-.2177.2786-.4356.0717-.064.1346-.1372.1873-.2177.0938-.2482.3724-.342.4991-.591l.0027-.0045c.2307-.9881.5441-1.9549.9368-2.8904.0609-.2177-.0303-.4963.1242-.6839.2559-.2783.428-.6234.4964-.9953.0044-.2971.0576-.5914.1576-.8712.1313-.1418.246-.2981.3419-.4659 0-.0938-.0633-.1876-.0633-.2786-.0023-.0171-.0006-.0345.0051-.0509.0058-.0163.0153-.031.0278-.0429.2978-.5218.5075-1.0891.6206-1.6791 0-.2179-.4661-.2179-.6206-.2179-.1241 0-.2179.0305-.3418.0305-.2811 0-.4687-.3117-.5599-.499.1401-.0896.3003-.1426.4661-.1545.241-.0019.4809-.0333.7142-.0936l1.0891-.2787c.0502-.2997.1671-.5842.342-.8326.0741-.1576.1476-.3119.2398-.5095.0825-.1942.195-.3972.3038-.5985.0128-.0488.0283-.0968.0465-.1438l.0278-.0024c.1885-.3366.411-.653.6639-.9443.4137-.4602.4001-1.2233 1.1301-1.358.1097-.0197.3215-.0904.4669-.1172.0612-.0194.1268-.0207.1887-.0038.0956.0429.1711.1209.2106.2179.0067.016.0091.0335.0072.0507-.002.0173-.0083.0337-.0184.0478-.2104.608-.4419 1.2641-.6675 1.9343l.1379-.012c-.0628 0-.0934.0301-.1556.0628l-.0085.0245c-.0701.1201-.0287.2638-.117.4115 0 .0197-.0506.0641-.0885.1029-.0762.1607-.1608.3173-.2535.4691v.2056c-.1233.2329-.2071.4845-.2481.7448.0357.039.0791.0703.1275.0916.0484.0214.1008.0325.1537.0325.1685-.0101.3352-.0408.4963-.0914.4355-.0327 1.0587-.1576 1.4311-.1576h.1241c.3115 0 .5294.0935.5294.1873 0 .0304 0 .0609-.0635.0936-.1544.0938-.3723.4965-.6838.591-.4125.0505-.8281.0717-1.2436.0635-.3723.0607-1.0891.0301-1.3068.2784-.1517.3923-.3618.7594-.6231 1.0891-.0818.3558-.2068.7002-.3724 1.0256l-.405.8105c-.0318.2449-.094.4849-.185.7144-.2285.4319-.4267.8791-.593 1.3385-.2483.7167-.4356 1.4309-.6535 2.115-.2417.9582-.3869 1.9381-.4335 2.9252-.0329.1239-.0938.1848-.0938.3113.0154.2052.0731.4049.1694.5867.0964.1818.2294.3417.3906.4695.1621.1168.3602.1726.5595.1576.4454-.0159.8813-.1337 1.2741-.3444l.1241-.185c.2506-.1576.4988-.2506.7471-.405.2762-.2747.5358-.5656.7774-.8712.0634-.0938.2179-.0938.2811-.185.2174-.1778.4063-.3879.5599-.623.0936-.1241.4051-.2811.5292-.4052.3302-.2201.8472-1.0145 1.177-1.1997.0117-.0254.0249-.0502.0394-.0742.0632-.0331.1576-.0331.1875-.0635v-.2167c.0629-.1746.1462-.3413.2481-.4965.1823-.2499.3912-.4791.6231-.6838.0936-.0634.1545 0 .2168-.0938.063-.1257.0952-.2646.0937-.4052.0304-.3419.6837-.4356.9016-.6837.0608-.0938.0305-.1875.0938-.2811.1849-.2179.6204-.4027.8382-.6206.3744-.3115.8106-.4356 1.2133-.7167.2809-.1876.6535-.0938.9953-.2483.1576-.0938.2811-.0632.4988-.1241.225-.1166.4656-.2002.7144-.248.1576 0 .3115-.0331.4356-.0331.4698.0212.9377.0739 1.4006.1576.5918.0543 1.146.3139 1.5665.734.4205.42.6808.9739.7358 1.5657.0054.1158-.0058.2318-.0331.3444-.0304.1545-.1545.3724-.5911.3724-.0972.0005-.1913-.0337-.2656-.0964s-.1238-.1498-.1396-.2457c0-.4988.2811-.6533.2811-.8406-.0518-.2755-.2078-.5204-.4356-.6839-.4416-.261-.9486-.3902-1.4613-.3723-.6567.0035-1.3045.1523-1.897.4356-.1576.0607-.2508.0303-.4358.0938-.2332.1038-.4445.2509-.6229.4334l-.2168.2508c-.1544.1543-.3723.0936-.5597.2482-.1546.124-.0938.3722-.342.3722-.2482 0-.3115.3418-.4659.5597-.1059.1502-.2595.26-.4358.3115-.1576.1241-.1874.4052-.3113.5928-.0938.1848-.342.3418-.4661.5268-.2812.4051-.5294.8712-.7777 1.2459-.3288.5688-.56 1.1886-.6838 1.8338-.0287.1116-.0398.2269-.0329.3419 0 .2811.0634.5293.4053.5597.2273.0045.4521-.0487.6535-.1545.2785-.2177.59-.2811.8711-.4988.1605-.1404.3064-.2966.4356-.4662.2786-.2785.4965-.3723.7777-.6203.5268-.4358.9624-.9347 1.5221-1.3397l.7471-.9016.2179-.4965c.1624-.338.4227-.6194.747-.8077.1876-.0938.6839-.3743.8409-.4356.0469-.0267.1009-.0382.1547-.0329.405 0 .747.4988.8711.8408.0348.1005.0552.2054.0607.3115 0 .2483-.0912.4965-.0912.7445-.0796.386-.227.7548-.4356 1.0891-.1576.3744-.1873.9018-.405 1.3374-.0306.0937-.1242.1266-.2179.3743-.0248.0583-.0352.1216-.0304.1848v.1873c-.0582.2235-.0896.453-.0938.6839-.0073.074.0031.1487.0304.2179.0305.1873.2167.2811.4356.2811.1078.0098.2161-.0122.3115-.0634.2179-.0936.5597-.4356 1.5246-1.0562.2866-.1948.5478-.4244.7777-.6836.0608-.0938.3091-.1267.3723-.2179.2181-.1771.407-.3873.5597-.623.0936-.1241.4053-.2811.5294-.4053.3011-.2007.7583-.8844 1.0901-1.1484.0471-.0487.09-.1014.1281-.1576.0632-.1239.2177-.091.3114-.1848.0938-.1241.1242-.3114.2483-.4356.0637-.1003.1366-.1944.2179-.2811.0936-.0938.2177-.1545.2811-.2179.2453-.2869.4736-.588.6838-.9015.1882-.2854.3966-.5568.6236-.8123.2177-.2179.4356-.6535.7774-.9953.1045-.1525.2188-.298.342-.4356.2483-.3724.1545-.4991.5294-.6841.0738-.0473.1608-.0695.2482-.0632.1222.0138.2393.0564.3419.1241.3114.2179.1544.499.342.6838.0794.1104.152.2254.2177.3444.0253.0802.0356.1643.0305.2483 0 .6534-.6206 1.2132-.9017 1.9273-.0609.1577-.2179.3421-.2786.4991-.2179.4963-.4356.9953-.6231 1.4918-.0936.2809-.0633.4988-.1543.7774-.1576.3743-.1876.9017-.4053 1.3373-.0305.0938-.1241.1267-.2179.3743-.0248.0583-.0353.1217-.0305.1848v.1874c-.058.2235-.0894.453-.0936.6838-.0073.0741.0031.1487.0304.2179.0305.1874.2179.2812.4358.2812.1077.0098.2159-.0122.3112-.0635.2546-.0901.5041-.1941.7473-.3114l.1241-.185c.2483-.1576.4963-.2506.7445-.4051.2765-.2752.537-.5661.7802-.8712.0607-.0938.2154-.0938.2786-.185.2184-.1768.4078-.3868.5611-.6224.0936-.1241.4053-.2811.5294-.4052.2925-.1951.7348-.8533 1.0638-1.1334.0136-.0288.0097-.0501.0298-.0788.0609-.0607.1547-.0607.2179-.1242.0502-.0999.1122-.1935.1848-.2785l.342-.2812c.2254-.2476.424-.5184.5926-.8077.4278-.4957.8124-1.0269 1.1498-1.588.1876-.4964.3418-1.8032.5597-2.3326.3743-1.1498.6839-2.5506 1.1524-3.6395.1546-.342.5268-.5597.6534-.9017v-.5609c.3092-.5597.2483-.9017.5911-1.4918.1543-.2506.4963-.5597.5595-.8712.3459-.8409.7951-1.6356 1.3373-2.36553.4356-.59104.5294-.46594.6535-.65015.0938-.12668.0304-.4356.2179-.59262.1347-.17441.2801-.34023.4354-.49647.2642-.27183.5982-.46545.9654-.55952.3097-.1102.6342-.17342.9626-.18756.1373.00241.2736.02376.4051.06344.7142.2177.9953 1.02565.9953 1.92719-.009.49445-.0818.98562-.2167 1.46142-.0946.4891-.262.9612-.4965 1.4006-.2179.1874-.2506.7142-.5292 1.3373-.5519 1.2215-1.2194 2.3873-1.9934 3.4817-.2811.4356-.7774 1.0891-1.0891 1.5247-.2167.3114-.6229.3743-.7774.6838-.0305.0329-.0305.2811-.1576.4053l-.5268.5597c-.2811.2482-.4687.591-.6838.8077-.3042.2603-.5672.5652-.7802.9041-.2481.5268-.3418.5268-.3418 1.0562-.0398.422-.123.8387-.2483 1.2436-.0251.1854-.0353.3725-.0303.5595.006.1771-.0042.3543-.0303.5296-.0118.5559-.0849 1.1087-.218 1.6486-.0328.0634-.0632.0938-.0632.1576 0 .2177.3115.3418.3115.4659.0155.4183.11.8299.2786 1.2131.0818.1474.1984.2727.3397.365.1412.0922.3028.1487.4708.1643.0634.0052.1271-.0061.1848-.0329.2548-.0892.5043-.1932.7471-.3114l.1241-.185c.2508-.1577.499-.2506.7473-.4051.2762-.2747.5358-.5656.7774-.8712.0634-.0938.2179-.0938.2811-.185.1482-.1358.2829-.2856.4021-.4474-.1383-.2895-.2206-.6025-.2425-.9226-.0073-.2042.0353-.4071.1241-.5911.1241-.2482.2167-.4356.4659-.4356.1491.0098.2958.0414.4356.0938.1397.0496.288.0703.4358.0607.7014-.1099 1.3468-.4482 1.8362-.9624.8383-.7471 1.6155-1.5576 2.3933-2.3656.0633-.0607.1874-.0303.2508-.0938.0584-.0953.1003-.1997.1242-.3089.1241-.2508.2482-.2811.3721-.4052l1.5249-1.5551c.2831-.3344.6465-.5914 1.056-.747.1267 0 .1576.1241.2508.2177.1092.1772.163.383.1545.591.0052.3244-.0693.6452-.2171.934-.2249.2884-.4329.5895-.623.9018-.1241.3115-.0303.8408-.1545 1.2433-.1546.6232-.1546 1.5249-.3418 2.115-.0801.1561-.1325.3249-.1546.499 0 .0936.0912.2177.0912.3113-.048.6672-.1309 1.3313-.2483 1.9898.2483-.0937.4053-.0937.5598-.1576l1.2435-.4964c.8128-.3665 1.6028-.7818 2.3658-1.2436.211-.0587.419-.1315.62-.2179.251-.1576.218-.2506.469-.4051.309-.2179.777-.4052 1.089-.6231l1.18-.8383c.248-.1576.56-.4685.811-.623l.901-.5293c.248-.1545.497-.4027.745-.5598.606-.3364 1.242-.617 1.899-.8383.742-.2976 1.513-.516 2.301-.6517.206-.0273.415-.0383.623-.0329.504-.0048 1.007.0582 1.494.1874.64.0702 1.229.3818 1.646.8714.127.1544.436.3721.56.5292.146.255.261.526.345.8077.163.2843.249.6067.248.9346 0 .1242-.124.3419-.124.466-.001.1546.153.2181.153.3725zm-30.2375-3.8876c.2179-.0633.3117-.3115.9953-.8409.1241-.1241.2788-.3724.4053-.5268.5034-.5343.9514-1.1181 1.3373-1.7426.1241-.1872.5268-.2811.6535-.4659.3089-.4685.1239-.4685.4334-.9345.1267-.1875.6864-1.0562.78-1.2437.2788-.623.7776-1.6183 1.0259-2.2718.3443-.8419.5441-1.7358.591-2.64413.0007-.1674-.0198-.33421-.0609-.49648-.0243-.17007-.1113-.32494-.2438-.43426-.1325-.10933-.3011-.16524-.4727-.15678-.5294.09122-.6232.37236-.9321.71418-.115.19365-.1996.40382-.2508.62317-.0607.1544-.3723.2482-.4659.4027.0313.0911.0525.1854.0632.2811 0 .0304-.0329.0609-.0329.0938-.4398.6837-.8041 1.4131-1.0865 2.1754-.0689.2339-.1527.4632-.2508.6864-.0304.0912-.1848.0607-.2177.3418 0 .0609-.2483.185-.2786.2483 0 .0634.0303.2179.0303.342-.1092.4154-.2763.8133-.4964 1.1821l-.4356 1.15c-.0938.248-.3418.499-.4356.7774-.0304.0938-.0304.4052-.0635.499l-.0936.2482c-.2784.6308-.4468 1.3046-.4978 1.9923zm-69.7174-7.2157c.0251-.1854.0353-.3726.0303-.5597.0104-.5171-.1304-1.0259-.4052-1.464-.2414-.4027-.6145-.7096-1.0562-.8687-.0911-.0271-.1862-.0382-.2812-.0329-.3507.004-.6903.1243-.9653.3421-.3042.2688-.5119.63-.5911 1.0282 0 .0607-.0303.091-.0303.1544 0 .1545.0609.2483.0609.466v.1241c0 .1241-.0609.2508-.0609.4053-.0082.0534.0025.108.0303.1544.0306.1576.2812.2508.3115.4053.126.4254.3886.7975.7473 1.0587.3624.3333.817.5495 1.3042.6204.4593-.52.7718-1.1529.9057-1.8336zM5.34341 16.131c.2179.124.46614.2177.71694.3419.83402.388 1.72831.6304 2.64413.7167.40269.0305.71417 0 1.24355.0607.15447.0331.31147.1576.46597.1576.1241 0 .2482-.1872.3723-.1872.8309-.011 1.6571-.1259 2.4594-.342.6727-.1971 1.3047-.5127 1.8665-.9321-.4203-.0956-.8204-.2646-1.1821-.499-.9654-.591-.8407-.8078-1.1195-1.3068-.0336-.0942-.2504-.1856-.2819-.2792-.1825-.3674-.2778-.7719-.2786-1.1821-.0134-.6055.125-1.2047.4027-1.7429.2548-.4732.6308-.87 1.0895-1.15001.3931-.23893.8473-.35781 1.307-.34202.1239 0 .2812.03034.4051.03034.4068.03423.7964.18003 1.1257.42137.3294.24132.5858.56882.741.94652.0912.2811.0607.5292.1544.8406.086.2028.1588.411.2179.6232v.1241c-.0071.1569-.0283.3129-.0634.466 0 .1544-.2177.1873-.2482.342.0445.1419.0759.2877.0937.4354-.0803.4441-.2501.8672-.499 1.2437l-.1848.2812c.177.0049.3541-.0053.5294-.0306.5955-.1186 1.1513-.386 1.6155-.7774.2177-.1576.2482-.3444.5294-.4358.1434-.0557.2795-.1288.405-.2177.0913-.0634.1242-.2506.185-.3418.2812-.4053.7471-.6535.9954-1.2767.1176-.2317.2216-.4701.3114-.7139.0304-.1577.2179-.3744.2483-.5294.0329-.1876.5291-.4991.499-.5597-.0643-.1362-.0964-.2853-.0938-.43583.0359-.37711.0985-.75119.1874-1.11943v-.31148c.0033-.53733-.1135-1.06861-.3418-1.55504-.3446-.65349-.4991-.59262-.8714-.87139-.0936-.09358-.0936-.2177-.2177-.28114-.0727-.05166-.1625-.07339-.2508-.06068h-.1848c-.074.00507-.1482-.00527-.2179-.03034-.7036-.22232-1.4412-.31752-2.1782-.28114-.8012.03745-1.5807.27236-2.2692.68384-.3743.18736-.6864.03034-1.0282.18736-.2788.12412-.466.52937-.8385.52937-.0633 0-.0936-.0329-.1576-.0329-.4358 0-.8078.40526-1.1197.62296-.1848.09378-.5292.06344-.6533.15446-.1546.09378-.185.49904-.3418.62316-.1243.06324-.2484.03034-.3117.15446-.1241.15761-.185.40525-.342.52937-.3115.18736-.5595.2177-.7445.49884-.121.20634-.25638.40385-.40526.59105-.09358.1241-.40525.1874-.49884.2811-.09484.1591-.17782.325-.24823.4963-.27858.3418-.68384.6535-.99552.9654-.02181.086-.0532.1692-.09358.2482-.09358.1545-.31148.1874-.4027.3418-.04256.1793-.09518.3561-.15761.5294-.06068.1545-.34182.342-.40269.4965-.06325.1267-.03291.2179-.09378.3444-.09358.2153-.81032.4334-.81032.591-.00546.2074.00554.4149.0329.6206 0 .1576-.2508.4356-.34202.5926-.17333.2084-.30063.4512-.37354.7122zm19.13969 6.6264c.1452-.0116.2893.0329.4027.1241.0633.0633.1242.0938.1576.1576l.0607-.4356c0-.0634.0938-.1875.0938-.2482 0-.0936-.0938-.2177-.0938-.2811-.0006-.3038-.0753-.6029-.2177-.8712-.0864-.1261-.2026-.2291-.3382-.2997-.1356-.0707-.2865-.1069-.4394-.1056-.0607 0-.1544.0329-.2179.0329-.6412.1128-1.2419.3913-1.7424.8078-.3113.2692-.5923.5715-.8383.9015-.2823.2689-.5423.5603-.7774.8714-.1241.2177-.0305.4053-.4052.6535-.1547.0936-.4027.1545-.4965.3115 0 .1544.0607.3418.0607.4356-.1373.5294-.3356 1.0411-.5911 1.5247-.1174.2638-.2213.5334-.3115.8077v.6204c-.0349.2694.0013.5432.105.7943s.2712.4706.4861.6368c.2194.1186.4678.1732.7167.1576.4943-.003.9743-.1665 1.3677-.4659.3787-.2926.7236-.6265 1.0284-.9955.4848-.5123.912-1.0763 1.2739-1.6817-.2465-.328-.4358-.6954-.5597-1.0866-.034-.1541-.0553-.3108-.0635-.4685v-.8077c.0273-.1922.1011-.3748.215-.5319.1139-.1572.2644-.2841.4385-.3698.2091-.1196.445-.1844.6858-.1884zm70.9586 5.4756c-.2811.0306-.5926.0609-.8408.0609-.1459.0061-.292-.0041-.4356-.0303-.1241-.0306-.342-.1874-.4965-.1874-.0171-.0023-.0345-.0006-.0508.0051-.0163.0057-.031.0151-.043.0276-.0125.0115-.0273.0202-.0434.0255-.0162.0053-.0333.007-.0502.005-.0634 0-.1241-.0305-.2179-.0305-.4356-.0632-.7167-.4354-1.089-.4354-.097-.0095-.1944.0117-.2786.0607-.0936.0634-.0936.2179-.0936.3743v.1241c-.0045.0437.0061.0876.0301.1243.3103.4771.7699.8377 1.307 1.0257.2155.0966.4478.1501.6839.1576.3609-.0002.7114-.1215.9953-.3444.166-.1075.3074-.249.4148-.4151.1074-.1661.1784-.3531.2083-.5487v.001zm1.3372-6.6888c-.2177.1876-.2506.4358-.4356.5294-.6733.4305-1.2635.9787-1.7424 1.6184-.5216.5872-1.0827 1.138-1.6794 1.6487-.256.2033-.468.4567-.6229.7447-.0304.0329-.0304.0632-.0304.1241.0056.0732.0157.146.0304.2179 0 .0936-.0609.1576-.0609.2506 0 .0305 0 .0609.0609.1241.2179.2483.6229.342.8408.5294.5339.2506 1.1205.3679 1.7097.342.283.0024.5652-.0291.8407-.0938.0619-.3981.1447-.7927.2482-1.1821 0-.0606-.0303-.1241-.0303-.2177.0303-.0937.1546-.3116.1873-.4356 0-.0305-.0632-.1241-.0632-.1546.1921-.5291.2973-1.0859.3115-1.6486 0-.2483.185-.6839.185-.9654.0541-.4822.1378-.9606.2506-1.4325v.001zm-34.155 21.7961c0 .3349-.2508.9194-.5847 1.0026-.4789.186-.9288.4392-1.3364.752-.2247.2825-.5101.5108-.8351.6679-.585.4176-.6685.3349-1.0026.8353l-.8352.9191c-.0604.3222-.1732.6324-.3339.9183-.1215.2601-.2611.5115-.4177.7521-.1671.2503-.0835 1.2529-.752 1.4201-.1667 0-.2502.0832-.4175.0832-.3349 0-.668-.1673-1.002-1.0026-.189-.5973-.4711-1.161-.8357-1.6703-.3655-.1714-.7033-.3966-1.002-.6681 0-.1671.0833-.2502.0833-.3349-.033-.1472-.0893-.2881-.1669-.4175-.0837-.2506-.0837-.7512-.5012-.9185-.5559-.2793-1.0635-.6458-1.5036-1.0855-.5131-.333-1.0427-.6398-1.5867-.9193-.1673 0-.4177 0-.4177-.3349-.0066-.2264.0531-.4498.1718-.6427.1187-.1928.2912-.3468.4963-.4429.5022-.0095.9926-.1537 1.4201-.4174.2943-.2019.5734-.4252.8351-.6679.3634-.2091.6999-.4617 1.0022-.7522.0837-.1673.5014-.2504.8354-.751l1.0861-1.5042c.1665-.4175.8351-2.3382 1.4195-2.3382.5843 0 1.1697 1.0022 1.2532 1.4199 0 .5847 0 1.3359.2504 1.5032s.0835.4175.5012.752c.501.2504.501.751.7516 1.0024.2872.3512.594.6858.9189 1.0024.2508.0832.8349.8352 1.1695 1.0014.4176.0851 1.3363.1683 1.3363.8362zm-2.3642.2397c-.1444-.2537-.3145-.4919-.5075-.711l-1.1168-1.1161c-.2028-.2033-.9136-.6107-1.0153-.8131-.1016-.101-.3042-.9129-.5075-1.2185-.2514-.3889-.6018-.704-1.0152-.913-.305 0-.4058.5076-.7108.913-.4061.2033-.7104.5089-.7104.7108-.4197.36-.7946.7691-1.1167 1.2186-.2031.4066-.8125.4066-1.1167.7108-.2911.2771-.5017.628-.6094 1.0152.1017.1011.2028.6098.8119.8119.534.2889 1.0148.6668 1.4217 1.1175.4873.2268.907.5766 1.2179 1.015.305.4066.5075 1.1163.8125 1.32.2027.1022 1.0152-.6086 1.0152-.6086l1.0152-1.1175c.4486-.4354.8564-.9109 1.2184-1.4206.2401-.3632.5511-.6742.9143-.9144h-.0008z"/>
</svg>