<svg fill="currentColor" viewBox="0 0 235 31">
  <path d="M43.175 16.0933v.5555c0 .1852-.1852.3704-.1852.3704 0 .1852-.1852.1852-.1852.1852l-.1852.1852c.1852-.1852.3704-.1852.5556-.5556 0-.3704-.1852-.7407 0-.7407-.1852-.3704-.3704-.3704-.3704-.5556h-.1852c-.1851-.1852-.1851-.1852-.3703-.1852v-.1852h-.1852-.3704.1852-.5556c0 .1852.3704.1852.5556.1852v.1852s.1852 0 .1852.1852c.1852.1852.5555.3704.1852.3704l-.1852.5555h-.1852.1852s.1852.1852.1852.3704 0 .3704-.1852.5556c0 .1851 0 .1851.1852.1851-.1852 0-.1852.1852-.3704.1852 0 0-.3704.1852-.7407.1852h-.3704s-.1852 0-.1852-.1852c-.1852-.1852-.1852-.1852-.3704-.3703 0 0-.1851-.1852-.1851 0l-.1852-.1852c-.1852-.1852-.3704-.5556-.3704-.7408-.3704-.5555.1852-1.6666.7407-2.037h.1852s.1852 0 .1852-.1852h1.1111c0 .5556.1852.5556.3704.5556 0 0 .1852 0 .1852.1851 0 0 .1852 0 .1852.1852 0 0 .1851.1852.1851.3704.3704 0 .3704.1852.5556.3704zm-5.7407-.7408h-3.3334c-.1852 0-.3703 0-1.4815.1852h-.7407c-.7407 0-1.2963.1852-1.4815.1852h-.1852c-.3703-.1852-.1851-.1852-.5555-.1852h-2.2222v-.1852c-.7408 0 2.4074-.3703.5555-.1852h-.1852c-2.037.1852-2.7777.5556-3.1481.7408h-.5556c-.3703 0-.9259 0-1.2963.1852-.5555.3703-1.1111.5555-1.6666 1.6666-.7408 1.1111-1.1111 2.2223-1.1111 2.963v.1852c.1851.7407.3703.7407.5555 1.2963.1852.5555.5556.3704.7408.5555 0 .1852.5555.3704.9259.3704.1852 0 .3703 0 .5555-.1852.1852-.1852.1852-.3703.1852-.7407s-.1852-.5556-.5555-.7408c-.5556-.1851-1.1111-.3703-1.2963-.7407 0-.1852-.1852-.3704-.1852-.5556 0-.1851 0-.3703.1852-.3703.1852-.1852.1852-1.2963.5555-1.2963.3704 0 .7408-.3704.9259-.5556.1852-.1852.5556-.1852 1.4815-.5555.926-.1852 2.7778-.5556 3.3334-.5556.5555 0 1.4814.1852 2.7777 0 .5556 0-4.4444-.1852-4.074-.1852h7.9629c.926.1852 2.0371.1852 2.963.1852.3704 0 .7407 0 .9259-.1852v-.5555c0-.3704-.3704-.7408-.5555-.7408zm5.5555-4.2592c-.5555-.1852-1.1111-.1852-1.4815 0 0-.1852-.5555 0-.7407-.1852-.3704.1852-.7407-.1852-1.1111 0 0 0 0-.1852.1852-.1852-.1852 0-.7408.1852-.7408 0-.7407 0-1.6666 0-2.037.1852-.1852.1852-.3704 0-.5556.1852-.3703.1852-.9259.1852-1.1111.1852v-.1852h-.5555.1852c0 .3703-.3704-.1852-.7408 0-.3704 0-.7407.5555-1.1111.3703-.1852.1852.1852-.1851-.1852-.1851 0-.1852.1852-.1852 0-.1852s-.3704-.1852-.7407 0v-.1852c-.3704.1852-.7408-.1852-1.1111 0-.1852.3704 0 0-.5556.1852l-.1852-.1852c-.1852 0-.1852.1852-.3703.1852 0-.1852-.1852 0-.1852-.1852-.5556-.1852-.926.1852-1.6667 0-.1852.1852-.3704 0-.5556.1852 0 0-.5555 0-.3703-.1852v-.1852c-.3704-.1852-.7408.1852-.9259 0 .1851 0 .1851 0 .1851.1852h-.3703v-.1852h-.5556v.1852c-.1852 0-.3704-.1852-.5555-.1852-.1852.1852.1851.1852 0 .1852-.3704 0 4.4444-.1852 4.074-.1852 0 .1852 0 .1852-.1852.1852v-.1852c-.3703.1852-.1851-.1852-.5555-.1852v.1852c-.3704.1852-.1852-.1852-.7408 0 .1852 0 0 .1852-.1851.1852v-.1852h-.1852s0-.1852-.1852-.1852l.1852-.1852-.3704.1852c-.1852-.1852-.7407 0-.7407-.1852 0 0-.5556 0-.7408.1852.1852-.1852-.1852-.1852-.1852-.1852-.1851.1852-.5555.1852-.7407 0-.5556-.1852-1.1111.1852-1.6667 0 0 .1852-.1852 0-.1852.1852.1852.7408-.3703.1852-.5555.7408-.1852 0-.3704-.1852-.3704-.1852h-.9259c-.1852 0-.1852.3703-.5556.1852.1852-.1852 0 0-.1851 0 0 0 .1851 0 0-.1852-.1852 0-.1852 0 0 0-.1852-.1852-.5556 0-.5556-.1852-.7407.1852-1.2963.3704-1.6667.5555-.1852-.1851 0-.1851.1852-.1851h-.3704c0-.1852.1852 0 .3704-.1852-.5555-.1852-.9259.1852-1.4815 0l-.1851.1852h-.1852s0-.1852-.1852-.1852-.5556.1852-.7408.1852h-.3703v-.1852s0 .1852-.1852.1852h-.1852s.1852 0 .1852-.1852c-.3704.1852-.1852.1852-.7408.1852-.3703 0-.5555 0-.9259-.1852-1.4815-.7408-2.2222.5555-4.07406.9259-2.03703.3704-2.4074.9259-3.51852 1.2963-.18518 0-.37037.1852-.55555.1852-.92593.7407-2.03704 2.2222-2.96296 2.9629-.92593.7408-.37037.926-.55556 2.2223-.18518 1.4814-.555555 2.5926-.18518 3.8889.18518.3703.18518.5555.37037.7407.37037.3704.74074.7407.92592 1.1111.18519.1852.37037.3704.55556.7407.55555 1.2963.74074 1.8519.92592 2.7778v.1852c0 .1852.18519.1852.37037 0 .18519-.1852.55556-.9259.92593-1.2963.55555.1852 1.2963.9259 3.14815 1.2963 2.03701.3704 2.22221-.1852 3.14811-.3704.5556 0 1.1111-.5555 1.8519-.9259.7407-.5555 1.4815-1.1111 1.6667-1.2963.3703-.3704 1.6666-2.9629 1.8518-3.5185.1852-.5556-.5555-2.2222-1.1111-3.1482l-.1852-.1851c-.7407-.926-1.4815-1.2963-2.5926-1.4815-.9259-.1852-2.037.1852-2.7778.5555l-.1851.1852c-.74079.5556-1.66671 1.8519-1.66671 2.4074 0 .3704.18518.926.55555 1.4815.18519.1852.37037.3704.55556.5556.5556.5555 2.037 1.1111 2.4074.7407.3704-.3704.7407-1.2963.3704-1.8518l-.1852-.1852c-.1852-.1852-1.1111-.1852-1.2963-.3704l-.3704-.3704c-.1852-.1852-.1852-.3703-.3703-.5555-.18523-.3704 0-.5556.3703-.7408.3704-.1852.7408-.3703 1.2963-.5555h.1852c.9259-.3704 1.6667-.3704 3.1482 1.4815l.1851.1851c1.2963 1.6667-.1851 3.7037-1.1111 4.6297-.1852.1852-.3703.3703-.7407.5555-.5556.3704-1.4815.7408-2.2222.7408h-.1852c-.7408.1852-1.29632.1852-2.40743.1852-1.11111 0-2.22222-.926-2.77778-1.8519-.18518-.1852-.18518-.3704-.18518-.5556 0-.1851-.18519-.3703-.18519-.5555-.18518-.3704-.37037-.3704-.55555-.5556 0-.1851-.18519-.1851-.18519-.5555-.18518-.9259-1.11111-2.0371-.92592-3.1482 0-.5555.37037-1.1111.74074-2.037.18518-.9259 1.66666-2.2222 2.22222-2.7778.55556-.3704 2.40741-.5555 3.14815-1.1111h-.18519c.37042-.1852.74072-.1852 1.11112-.1852.3704 0 .7407.1852.7407.1852 1.2963.3704 2.0371 0 3.5186-.1852 1.2963 0 1.6666.1852 3.1481.1852h1.2963c.7407 0 1.4815 0 2.037-.1852.1852 0 .1852-.1852.3704 0H22.6194c.3704 0 .7408-.1852.926 0v-.1852c.5555.1852.9259-.1851 1.4815 0 .7407-.3703 1.1111.1852 1.8518-.1851-.1852 0 0 0 0 .1851.3704 0 .7407 0 .7407-.3703.1852 0 .1852 0 .1852.1852 0-.1852.1852-.1852.3704-.1852h.5556c.3703 0 0 .1852.3703.1852v-.1852c.3704 0 .7408.3703 1.1111.3703 1.6667 0-1.8518-.3703-.3703 0v.1852c0 .1852.3703-.3703.5555-.1852h.1852s.1852 0 0 .1852h.3704l.1852.1852c.7407.1852 1.2963-.1852 1.8518-.1852.7408.1852 2.4074 0 3.3334-.1852 1.2962-.3703 2.7777.5556 4.074.1852h1.2963c-.1852-.1852 5.5556-.1852 1.2963-1.8518zm4.4445-2.59262c.1851 0 .1851 0 0 0h1.1111s4.8148 0 1.1111-1.48148c-.5556-.18519-.9259-.18519-1.2963 0 0-.18519-.3704 0-.5556-.18519-.3703.18519-.7407-.18518-.9259 0v-.18518c-.1852 0-.5556.18518-.5556 0-.5555 0-1.2962 0-1.6666.18518-.1852.18519-.1852 0-.5556.18519-.1852.18518-.5555 0-.7407.18518V7.0192h-.3704.1852c0 .37037-.3704-.18519-.5556 0-.3703 0-.5555.55555-.9259.37037-.1852.18518.1852-.18519 0-.18519 0-.18518.1852-.18518 0-.18518s-.3703-.18519-.5555 0v-.18519c-.3704.18519-.5556-.18518-.926 0-.3703.18519-.1851-.37037-.5555-.18518l-.1852-.18519c-.1852 0-.1852.18519-.3704.18519 0-.18519-.1852 0-.1852-.18519-.3703-.18518-.7407.18519-1.2963 0-.1851.18519-.3703 0-.3703.18519 0 0-.5556 0-.1852-.18519v-.18518c-.3704-.18519-.5556.18518-.9259 0 0 0 .1852 0 .1852.18518h-.1852v-.18518h-.3704v.18518c-.1852 0-.1852-.18518-.5556-.18518-.1851.18518.1852.18518 0 .18518-.1851 0-.7407-.18518-.9259-.18518 0 .18518 0 .18518-.1852.18518v-.18518c-.3703.18518-.1852-.18519-.5555-.18519l-.1852.18519c-.3704.18518-.1852-.18519-.5556 0 .1852 0 0 .18518-.1852.18518v-.18518h-.1851s0-.18519-.1852-.18519l.1852-.18518-.1852.18518c-.1852-.18518-.5556 0-.5556-.18518 0 0-.3704 0-.5555.18518 0-.18518-.1852-.18518 0-.18518-.1852.18518-.3704.18518-.5556 0-.5555-.18519-.9259.18518-1.2963 0 0 .18518-.1852 0-.1852.18518-.5555.18519-.9259-.37037-1.1111.18519-.1852 0-.1852-.18519-.3704-.18519h-.7407c-.1852 0-.1852.37037-.3704.18519 0-.18519 0 0-.1851 0v-.18519c-.1852 0-.1852 0 0 0-.1852-.18518-.5556 0-.5556-.18518-.5556 0 4.4444.18518 4.0741.18518 0 0 0-.18518.1852-.18518h-.3704c0-.18519.1852 0 .1852-.18519-.3704-.18518-.7408.18519-1.1111 0v.18519s0 .18518-.1852.18518c0-.18518 0-.18518-.1852-.18518-.1852-.18519-.3704 0-.7408.18518h-.1851-2.7778c-.5556 0-2.4074-.37037-3.3333-.55555-.926-.37037-1.1112-.18519-1.4815-.55556-.1852.74074-.3704.37037-.926.37037-.3703 0-.1851-1.11111-.5555-1.2963 0 0-.1852-.18518-.1852-.37037 0-.18518 0-.37037.1852-.55555.1852-.18519.7407-.55556 1.2963-.74074.3704-.18519.5555-.37037.5555-.74074 0-.18519 0-.37037-.1851-.740744C19.8417.7229 19.6565.7229 19.4713.7229c-.3704 0-.7407.185186-.9259.37037-.1852.18519-.5556 0-.7408.55556-.3703.55555-.5555.55555-.7407 1.29629v.18519c0 .74074.3704 1.85185 1.1111 2.96296.7407 1.11111 1.2963 1.2963 1.6667 1.66667.3703.18518.7407.18518 1.2963.18518h.5555c.3704.18519 1.1111.55556 3.1482.74074h.1852c1.2963 0 2.9629 0 4.074-.18518.3704 0 .7408.18518 1.2963 0h-3.7037c.1852-.18519.7408 0 .9259-.18519l.1852.18519c.1852 0 .1852-.18519.3704 0h.5556c.1851 0 .5555-.18519.7407 0v-.18519c.5556.18519.7407-.18518 1.1111 0 .5556-.37037.9259.18519 1.4815-.18518v.18518c.3704 0 .5555 0 .5555-.37037.1852 0 .1852 0 .1852.18519 0-.18519.1852-.18519.3704-.18519h.5556v-.18518c.1851 0 0 .18518.3703.18518v-.18518c.3704 0 .5556.37037.926.37037 1.2962 0 2.7777-.37037 4.074 0v.18518c0 .18519.3704-.37037.3704-.18518h.1852s.1852 0 0 .18518h.1852v.18519c.5555.18518.9259-.18519 1.4814-.18519.7408.18519 2.0371 0 2.7778-.18518 1.1111-.18519 2.4074.74074 3.3334.37037zm-34.4445-.55556c.1852.18519.1852.18519.1852.37037.1852 0 .1852.18519.3704.37037l.1852.18519.1851.18518h.5556c.7407.18519 1.6667-.37037 1.8519-.92592v-.37037-.18519c0-.37037 0-.55555-.1852-.92592 0-.18519-.1852-.18519-.1852-.37037 0 0 0-.18519-.1852-.18519l-.1852-.18518s-.1852-.18519-.3704-.18519c0 0-.1851-.18518-.3703-.18518h-.5556c-.1852 0-.1852 0-.3704.18518v.18519c0 .18518 0 .18518-.1851.37037.1851-.18519.1851-.37037.5555-.55556.1852-.18518.5556-.18518.7408 0 .1851-.18518.3703 0 .3703 0v.18519c.1852.18518.1852.18518.1852.37037v.55555-.18518c.1852.18518.1852.37037.1852.55555-.1852 0-.1852-.37037-.3704-.55555h-.1852s0-.18519-.1851-.18519c0 .18519-.3704-.37037-.3704 0l-.5556.18519v.18518-.18518s-.1852-.18519-.3703-.18519c-.1852 0-.3704.18519-.5556.18519-.1852.18518-.1852 0-.1852 0 0 .18518-.1852.18518-.1852.37037 0 0-.1852.37037 0 .74074 0-.18519 0 0 .1852.18518zM192.99 14.9822s-.185 0 0 0H191.508c-.185 0-.185 0-.37.1851 0 0-.185 0-.185.1852 0 0-.185 0-.185.1852 0 0-.186.1852-.186.3704 0 0-.185.1852-.185.3704v.5555c0 .1852.185.3704.185.3704 0 .1852.186.1852.186.1852l.185.1852c-.185-.1852-.371-.1852-.556-.5556-.185-.1852 0-.5556 0-.7407.185-.1852.185-.3704.185-.3704h.186c.185-.1852.185-.1852.37-.1852v-.1852h.556-.186.556c0 .1852-.37.1852-.556.1852v.1852s-.185 0-.185.1852c-.185.1852-.555.3703-.185.3703l.185.5556h.185-.185s-.185.1852-.185.3704 0 .3703.185.5555c0 .1852 0 .1852-.185.1852.185 0 .185.1852.37.1852 0 0 .371.1852.741.1852h.37s.186 0 .186-.1852l.37-.3704s.185-.1852.185 0l.185-.1852c.186-.1851.371-.5555.371-.7407.185-.7407-.185-1.6667-.926-2.037zm16.296 1.1111c-.37-.1852-.741-.1852-1.296-.1852h-.556c-.37-.1852-1.111-.5556-3.148-.7408h-.185c-1.852 0 2.593.1852 1.852.1852v.1852h-2.222c-.371 0-.186 0-.556.1852h-.185c-.185 0-.741-.1852-1.482-.1852h-.74c-1.112 0-1.297-.1852-1.482-.1852h-3.333c-.371 0-.556.3704-.556.7408 0 .1852 0 .5555.185.5555 0 0 .556.1852.926.1852.926 0 2.037 0 2.963-.1852H207.434c.371 0-6.111.1852-5.37.1852 1.296 0 2.222-.1852 2.778 0 .555.1852 2.407.3704 3.333.5556.926.3703 1.111.1852 1.481.5555.371.1852.556.5556.926.5556.371 0 .186 1.1111.556 1.2963.185 0 .185.1852.185.3703 0 .1852 0 .3704-.185.5556-.185.1852-.741.5556-1.296.7407-.371.1852-.556.3704-.556.7408 0 .1852 0 .3704.185.7407.185.1852.371.1852.556.1852.37 0 .741-.1852.926-.3704.185-.1851.555-.1851.741-.5555.185-.5556.555-.5556.555-1.2963v-.1852c0-.7407-.37-1.8519-1.111-2.963-.926-1.1111-1.296-1.2963-1.852-1.6666zm-15-7.77781c.37.18519.556.18519.741 0 0 .18519.37 0 .37.18519.185-.18519.371.18518.556 0v.18518c.185 0 .37-.18518.37 0 .371 0 .926 0 1.111-.18518.185-.18519.185 0 .371-.18519.185-.18518.37 0 .555-.18518v.18518h.371-.186c0-.37037.186.18519.371 0 .185 0 .37-.55555.555-.37037.185-.18518 0 .18519 0 .18519v.18518c.185 0 .185.18519.371 0v.18519c.185-.18519.37.18518.555 0 .185-.18519.185.37037.371.18518l.185.18519c.185 0 0-.18519.185-.18519 0 .18519.185 0 0 .18519.185.18518.556-.18519.926 0 0-.18519.185 0 .37-.18519 0 0 .371 0 .185.18519v.18518c.186.18519.371-.18518.556 0 0 0-.185 0 0-.18518h.185v.18518h.185v-.18518c.186 0 .186.18518.371.18518 0-.18518-.185-.18518 0-.18518s.37.18518.74.18518c0-.18518 0-.18518.186-.18518v.18518c.185-.18518 0 .18519.37.18519v-.18519c.185-.18518.185.18519.37 0v-.18518.18518h.186v.37037l.185-.18518c.185.18518.37 0 .37.18518 0 0 .371 0 .371-.18518 0 .18518.185.18518 0 .18518 0-.18518.37-.18518.37 0 .37.18519.555-.18518.926 0 0-.18518.185 0 .185-.18518.37-.18519-6.111.37037-5.926-.18519.185 0 .185.18519.185.18519h.556c.185 0 .185-.37037.37-.18519 0 .18519 0 0 0 0v.18519c.185 0 0 0 0 0 .185.18518.371 0 .371.18518.37 0 .555-.18518.74-.18518 0 0 0 .18518-.185.18518h.185c0 .18519-.185 0-.185.18519.185.18518.556-.18519.741 0V9.4266s0 .18519.185.18519c.185.18518.37 0 .37-.18519h3.334c2.037-.18518 2.778-.55555 3.148-.74074h.555c.371 0 .926 0 1.297-.18518.555-.37037 1.111-.55556 1.666-1.66667.741-1.11111 1.112-2.22222 1.112-2.96296v-.18519c-.186-.74074-.371-.74074-.556-1.29629-.185-.55556-.556-.37037-.741-.55556 0-.18518-.555-.37037-.926-.37037-.185 0-.37 0-.555.18519-.185.18518-.185.37037-.185.74074s.185.55555.555.74074c.556.18518 1.111.37037 1.296.74074 0 .18518.186.37037.186.55555 0 .18519 0 .37037-.186.37037-.185.18519-.185 1.2963-.555 1.2963-.371 0-.741.37037-.926.55556-.185.18518-.556.18518-1.482.55555-.925.37037-2.777.55556-3.333.55556h-2.963c-.555 0-.926.18518-1.111.18518-.37-.18518-.556-.18518-1.111-.18518h-1.111c-.185.18518-.371 0-.741.18518v-.18518s-.185.18518-.185 0h-.37c-.186 0 6.296.18518 6.111 0v.18518c-.371-.18518-.556.18519-.741 0-.37.37037-.556-.18518-.926.18519v-.18519c-.185 0-.37 0-.37.37037-.186 0-.186 0-.186-.18518 0 .18518-.185.18518-.185.18518h-.37v.18519c-.185 0 0-.18519-.185-.18519v.18519c-.186 0-.371-.37037-.556-.37037-.926 0-1.852.37037-2.592 0v-.18519c0-.18518-.186.37037-.186.18519h-.185v-.18519h-.185l-.185-.18518c-.371-.18519-.556.18518-.926.18518-.371-.18518-1.296 0-1.667.18519-.741.37037-1.481-.55556-2.222-.18519h-.556c-.555-1.29629-3.518-1.29629-1.296.37037zm22.963-.74074c.185.74074 1.111 1.2963 1.852.92593.185 0 .555-.18519.741-.37037 0 0 .185 0 .185-.18519l.185-.18518c.185 0 .185-.18519.37-.37037 0 0 0-.18519.186-.18519 0-.18518.185-.37037.185-.37037v-.74074c0-.18518-.185-.18518-.185-.37037 0 0-.186.18519-.186 0 0-.18518-.37-.18518-.555-.18518-.185 0-.371 0-.371.18518v0l-.555-.18518c-.185-.37037-.37 0-.556.18518l-.185.18519h-.185c-.185.18518-.185.55555-.37.55555v-.55555-.37037s.185-.18519.185-.37037v-.18519s.185-.18519.37-.18519h.741c.37.18519.37.37037.555.55556 0-.18519 0-.18519-.185-.37037 0 0 0-.18519-.185-.18519 0 0-.185-.18518-.37-.18518h-.556c-.185 0-.37 0-.37.18518-.185 0-.185.18519-.371.18519-.185.18518-.185.18519-.185.18519s0 .18518-.185.18518c0 .18518-.185.18519-.185.37037 0 .18519-.185.55556-.185.92593v.18518c.37.37037.37.55556.37.74074 0-.18518 0-.18518 0 0zm15 10.55555c-.185-1.4815.37-1.6667-.555-2.4074-.926-.5556-2.038-2.037-2.963-2.7778-.186-.1852-.371-.1852-.556-.1852-1.111-.5555-1.481-1.1111-3.333-1.4814-1.852-.3704-2.593-1.48153-4.074-.926-.186.1852-.371.1852-.556.1852h-2.778c-.185 0-.37 0-.555.1852-.741-.1852-1.111-.1852-2.037-.1852h-1.852c-.185.1852-.741 0-1.111.1852l-.185-.1852c-.186 0-.186.1852-.371 0h-.37c-.185-.1852-.371-.1852-.371 0h-.555v.1852c-.556-.1852-.741.1852-1.296 0-.556.3704-.926-.1852-1.667.1852v-.1852c-.37 0-.556 0-.556.3704-.185 0-.185 0-.185-.1852 0 .1852-.185.1852-.37.1852h-.556l.185.1852c-.185 0 0-.1852-.37-.1852v.1852c-.37 0-.556-.3704-.926-.3704-1.481 0 3.704.3704 2.222 0v-.1852c0-.1852-.37.3704-.37.1852h-.185s-.185 0 0-.1852h-.185l-.186-.1852c-.555-.1852-1.111.1852-1.666.1852-.741-.1852-2.037 0-2.963.1852-1.111.3704-2.408-.5556-3.519-.1852h-1.296s-5 0-1.296 1.4815c.555.1852.926.1852 1.296 0 0 .1852.556 0 .556.1852.37-.1852.74.1852 1.111 0 0 0 0 .1852-.186.1852.186 0 .556-.1852.556 0 .556 0 1.481 0 1.852-.1852.185-.1852.185 0 .555-.1852.186-.1852.741 0 .926-.1852v.1852h.556-.185c0-.3704.37.1852.74 0 .371 0 .556-.5556.926-.3704.186-.1852-.185.1852.186.1852 0 .1852-.186.1852 0 .1852.185 0 .37.1852.74 0v.1852c.371-.1852.741.1852.926 0 .371-.1852.185.3703.741.1852l.185.1851c.185 0 .185-.1851.371-.1851 0 .1851.185 0 .185.1851.37.1852.926-.1851 1.481 0 .185-.1851-6.296 0-6.111-.1851 0 0 .556 0 .185.1851v.1852c.371.1852.556-.1852.926 0-.185 0-.185 0-.185-.1852h.37v.1852h.371v-.1852c.185 0 .37.1852.555.1852.185-.1852-.185-.1852 0-.1852.371 0 .741.1852 1.111.1852 0-.1852 0-.1852.186-.1852v.1852c.37-.1852.185.1852.555.1852l.185-.1852c.371-.1852.186.1852.556 0-.185 0 0-.1852.185-.1852v.1852h.185s0 .1852.185.1852l-.185.1852.371-.1852c.185.1852.555 0 .74.1852 0 0 .556 0 .556-.1852-.185.1852.185.1852 0 .1852.185-.1852.555-.1852.555 0 .556.1852.926-.1852 1.482 0 0-.1852.185 0 .185-.1852.556-.1852.926.3704 1.111-.1852.185 0 .185.1852.371.1852h.926c.185 0 .185-.1852.37-.1852h.37v.1852c.185 0 .185 0 0 0 .185 0 .556 0 .556.1852.555 0 .926-.1852 1.296-.1852h.185s0 .1852-.185.1852h.371c0 .1852-.186 0-.371.1852.371.1852.741-.1852 1.296 0v-.1852l.186-.1852c0 .1852 0 .1852.185.1852.185.1852.555 0 .741-.1852-.186 0 0 0 0-.1852.185 0 .185.1852.185 0v.1852c0-.1852.37-.1852.37-.1852 0 .1852-.185.1852-.185.1852h.741c.185-.1852 0-.1852 0-.1852.185 0 .37-.1852.555 0v-.1852h.556c.926.3704 1.852 0 2.407.1852.556 0 1.296-.3703 1.852.1852l.37.1852c.741.5555 2.408.7407 3.149 1.1111.555.3704 2.037 1.8519 2.222 2.7778.185.9259.555 1.4815.741 2.037.185 1.1111-.741 2.2222-.926 3.1482 0 .1852-.186.3703-.186.5555-.185.3704-.37.3704-.555.5556 0 .1852-.185.1852-.185.5555 0 .1852-.186.3704-.186.5556-.555.9259-1.851 1.6667-2.777 1.8518-1.111.1852-1.667 0-2.408-.1851h-.185c-.555.1851-1.481-.3704-2.222-.7408-.185-.1852-.556-.3704-.741-.5555-.926-.926-2.407-2.963-1.111-4.6297l.185-.1852c1.482-1.8518 2.222-1.8518 3.148-1.4814h.186c.555.1851.925.3703 1.296.5555.37.1852.555.3704.37.7408 0 .1851-.185.3703-.37.5555l-.371.3704c0 .1852-1.111.1852-1.296.3704l-.185.1851c-.37.5556 0 1.4815.37 1.8519.556.3704 1.852-.1852 2.408-.7407l.555-.5556c.371-.5556.556-1.1111.556-1.4815 0-.5555-1.111-1.8518-1.667-2.4074l-.37-.1852c-.741-.3703-1.852-.7407-2.778-.5555-.926.3703-1.852.5555-2.593 1.4814l-.185.1852c-.555.926-1.296 2.5926-1.111 3.1482.185.5555 1.296 2.9629 1.852 3.5185.185.1852.926.7407 1.667 1.2963.74.3704 1.296.9259 1.852.9259.925.1852 1.111.7408 3.148.3704 1.852-.3704 2.777-1.1111 3.148-.7407.37.3703.741 1.1111.926 1.2962h.37v-.1851c.185-.926.371-1.4815.926-2.7778.185-.3704.37-.5556.556-.7408.37-.5555.74-.7407.926-1.1111.185-.1852.185-.5555.37-.7407-1.296-2.5926-1.667-3.8889-1.852-5.1852zM152.434 3.13031c0-.18519-.37-.18519-.555-.18519 0 0 0-.18518-.185-.18518h-.926c-.186 0-.556 0-.741.18518-.371 0-.926.37037-.926.74074v.18519c-.185.37037-.185.74074-.185 1.11111 0 .37037.185.74074.185 1.2963 0 .18518 0 .18518.185.37037 0 0 .185 0 .185.18518v.55556c0 .18518.185.18518.185.37037v.18518s.186 0 .186.18519v.18518c0 .18519.185.18519.185.37037 0 .37037 0 .55556.185.92593 0 0 .185.18518.185.37037v.37034c0 .1852.185.3704.185.3704v.7407l.186.1852v.5556c0 .1852.185.1852.185.3704v2.037s-.185 0-.185.1852V15.7229c0 .1852-.186.3704-.186.3704v.1852c0 .3703-.185.3703-.37.7407 0 .1852 0 .3704-.185.3704l-.185.1852v.1851s-.186.1852-.186.3704-.37.1852-.37.3704c0 0 0 .1852-.555.5555-.556.3704-.556.5556-.741.5556-.185 0-.371 0-.371.1852-.185 0-.185.1852-.37.1852h-.37c-.741.5555-1.111.5555-1.852.5555h-.556c-.555 0-.74 0-1.296-.1852-.926-.1852-2.407-.9259-2.963-1.6666 0 0 0-.1852-.185-.1852s-.556-.7408-.556-.7408c0-.1851-.185-.3703-.185-.3703v-.3704c0-.1852-.185-.3704-.185-.5556V14.9822v-.926c.185-.5555.555-.9259.555-.9259 0-.1852.371-.7407.741-1.1111.185-.1852.556-.5556.741-.7407.185-.1852.37 0 .37-.1852.186 0 .186-.1852.371-.1852.37-.1852.37-.1852.555-.1852.371-.1852.185 0 .556-.1852h.37c.371 0 .926 0 1.111.1852 0 0 .185.1852.371.1852h.37c.185.1852.37.3704.556.5555.185.1852.185.3704.37.3704.185.1852.37.3704.556.5556.37 0 .74.1852.925.3703.371.1852.556.5556.741.7408.185.3703.185.5555.185.7407v.1852c0 .1852 0 .3704-.185.5556h-.185c-.185 0-.185 0-.185-.1852v-.1852s0-.1852.185-.1852.185-.1852.185-.3704-.185-.3703-.185-.5555c-.185-.1852-.185-.3704-.37-.5556 0 0 0-.1852-.186-.1852l-.37.3704c-.185 0-.185-.1852-.37-.1852.185.3704.185.7408.185 1.2963 0 .3704 0 .7408-.185.9259l-.185.1852v.1852c0 .1852-.186.3704-.371.5556-.185.1852-.37.3703-.555.3703h-.186s0 .1852-.185.1852-.37.1852-.741.1852h-.37c-.555-.1852-.555-.1852-.741-.3704-.185 0-.37-.1851-.37-.3703-.185-.3704-.556-.7408-.556-1.2963v-.1852c0-.1852.186-.3704.186-.3704 0-.1852 0-.5555.185-.7407l.185-.1852c.185-.3704.556-.5556 1.111-.7407.37-.1852.556-.1852.926-.1852h.556c-.186-.1852-.371-.3704-.371-.3704-.185-.1852 0-.1852-.555-.3704-.186 0-.556-.1852-.741-.1852h-.741c-.185 0-.555.3704-.741.3704h-.37c-.185 0-.37 0-.37.1852-.371.1852-.556.1852-.926.5556 0 0-.185 0-.185.1851-.186.1852 0 .3704-.186.5556 0 .1852-.185.1852-.37.3704 0 0-.185.5555-.185.7407v2.2222c0 .3704.185.7408.37 1.1111.185.1852.185.3704.371.5556 0 0 0 .1852.185.1852 0 0 .185 0 .185.1852 0 0 0 .1851.185.1851l.371.3704c.37.3704.74.7408 1.851.9259.186 0 .371.1852.556.1852H145.027c.37 0 .926 0 1.296-.3703.185 0 .185 0 .371-.1852.185 0 .37-.1852.74-.3704.185-.1852.741-.5556.926-.7407h.185c.186-.1852 0-.1852.186-.3704.185-.1852.185-.3704.37-.5556.185-.3703.37-.7407.37-1.1111.185-.3703.185-1.1111.185-1.4815v-.3703-.7408c0-.3703-.185-.7407-.185-1.1111v-.3703c-.185-.926-.37-1.2963-.37-1.6667 0-.3704-.37-1.29631-.37-1.4815v-.18518s-.186-.18519-.186-.37037c0-.37037-.37-1.11111-.37-1.48148-.185-.74074-.37-1.2963-.37-2.22222 0-1.11112.37-1.66667.74-2.03704 0-.18519.186-.18519.371-.18519.185-.18518.37-.37037.555-.55555l.741-.18519h1.296c.741.18519 1.111.37037 1.482 1.11111.185.18519.185.37037.37.55556.185-.18519.371-.18519.371-.37037.185-.18519.555-.74074.925-.92593.186 0 .371-.18518.556-.18518.185 0 .37.18518.37.37037v.37037c-.185.18518-.74.18518-.74.18518l-.371.37037c-.185.37037-.37.55556-.555.92593 0 .18518 0 .37037-.371.55556 0 0-.185-.00001-.185.18518v.37037c0 .18519-.37.55556-.37.74074h-.371c-.185 0-.185-.18518-.185-.37037v-.18518c0-.18519.371-.92593.371-1.2963V4.4266c0-.18518-.186-.37037-.186-.55555l-.185-.18519v-.55555c0 .18518 0 .18518 0 0zm-6.852 9.62959h-.37c-.37 0-.556.1852-.926.1852h-.37l-.185.1852c0 .1852-.186.1852-.371.1852-.37.1852-.555.5555-.555.9259v.3704c0 .3704.185.7407.37 1.1111.185 0 .185.1852.37.3704H144.471c.185 0 .371-.1852.556-.3704 0 0 0-.1852.185-.1852.37-.3704.556-.7407.556-1.4815 0-.3703-.186-.9259-.186-1.1111v-.1852c.186 0 .186 0 0 0zm20.926 0c-.185.1852-.555.3704-.74.3704 0 0-.186 0-.186-.1852.186-.1852.186-.7407.186-.9259 0-.1852 0-.3704-.186-.3704H165.027s-.185.1852-.371.1852h-.185c-.185 0-.185.1852-.185.3704l-.926.7407s0 .1852-.185.1852c-.741.9259-1.481 1.8519-1.667 2.037-.185.1852 0 .3704-.185.5556h-.185c-.185.1852 0 .3704-.185.3704-.185.1852-.185.1852-.185.3703v.5556c0 .1852-.186.3704-.371.3704h-.185c-.185 0-.185 0-.185-.1852-.185 0-.371-.1852-.371-.3704s.186-.5555.186-.7407c.37-.3704.37-.7408.555-1.1111.185-.1852.185-.5556.371-1.1112.185-.3703.37-.7407.37-1.1111 0 0-.185.1852-.37.1852-.371.3704-.371.1852-.556.3704 0 0 0 .1852-.185.1852l-.741.7407-.185.1852c-.185.1852-.37.5556-.37.5556s-.186 0-.186.1851l-.185.1852c-.185 0-.185.1852-.37.1852-.185.1852-.556.7408-.741.7408-.185 0-.185 0-.37.1851-.185 0-.556.5556-.741.5556-.37 0-.741.3704-1.296.3704h-.186c-.185 0-.37.1852-.555.1852H153.36c-.555-.1852-.741-.3704-.926-.7408 0-.1852-.185-.1852-.185-.3704 0-.1851-.185-.5555-.185-.7407 0-.1852 0-.3704.185-.7407 0-.1852 0-.5556.185-.7408.185-.3704.371-.7407.556-1.1111l.185-.1852c.185-.1852.185-.1852.185-.3703 0-.1852.185-.1852.371-.3704.37-.3704.74-.7408.925-.9259.186-.1852.926-.5556 1.667-.5556.371 0 .556.1852.741.3704.185.1852.185.5555.185.7407 0 .3704-.185.5556-.185.7408l-.185.1851c-.185 0-.185.3704-.185.3704 0 .1852-.371.1852-.371.3704l-.185.1852c-.37.3703-.556.3703-.926.5555h-.37c-.186 0-.186.1852-.371.1852-.185.1852-.74 0-.926.3704l-.185.5555v.7408c.185.5555.556.7407 1.111.7407h.371c.74-.1852 1.111-.3704 2.037-1.1111.37-.1852.74-.5556 1.111-.9259.185.1852.37 0 .555-.1852.186 0 .371-.5556.741-.7408.185-.1851.37-.3703.37-.3703.186-.1852.371-.5556.741-.7408.185-.1851.185-.3703.556-.5555.185-.1852.37-.3704.37-.5556.185-.3703.185-.3703.371-.5555 0 0 .185 0 .185-.1852.185-.1852.37-.3704.555-.3704.185 0 .371.1852.556.1852.185.1852.185.1852.185.3704s0 .1852-.185.5555c0 .3704-.371.7408-.371 1.1111l-.185.3704s-.185.3704-.185.5556c.185-.1852.556-.5556.926-1.1111.185-.1852.185-.1852.185-.3704.185-.1852.371-.3704.556-.5556.555-.3703.926-.7407 1.296-.9259.185 0 .37-.1852.556-.1852.185 0 .37 0 .555.1852.185.1852.371.3704.371.7407v.5556c0 .5556 0 .5556-.186.7407zm-12.592 1.2963h.37c.37 0 .556-.1852.741-.1852.185 0 .37-.1851.555-.3703l.186-.1852c.555-.5556.926-1.1111.926-1.6667 0 0 0-.1852-.186-.3703h-.185c-.185 0-.185 0-.37.1851-.185.1852-.185.3704-.371.3704-.185.1852-.37.1852-.555.3704 0 0 0 .1852-.185.1852 0 0-.186.1852-.371.1852-.185.1851-.185.3703-.37.7407 0 .3704-.185.3704-.185.7407zm37.037-3.8889c-.185.926-.926 1.8519-1.482 2.5926-.185.1852-.185.3704-.555.5556-.185.1852-.185 0-.371.1852 0 0-.185.1852-.185.3703-.37.1852-.555.5556-.926.7408-.185.1852-.555.3704-.926.3704h-.37c-.185 0-.185.1851-.185.1851-.556.3704-1.667.7408-3.148.926-.186.7407-.371.9259-1.111 1.2963-.371.1852-.741.1852-1.112.1852-.37 0-.74 0-1.111-.1852-.185 0-.555-.3704-.74-.5556-.371-.3704-.556-.7407-.741-1.1111v-.1852s-.185 0-.185.1852c-.186.1852-.556.7407-.741.7407-.185 0-.185 0-.37.1852-.186 0-.556.5556-.741.5556-.371 0-.741.3704-1.297.3704h-.185c-.185 0-.37.1851-.555.1851H173.175c-.556-.1851-.741-.3703-.926-.7407 0-.1852-.185-.1852-.185-.3704s-.185-.5555-.185-.7407c0-.1852 0-.3704.185-.7408-.185.1852-.185.3704-.37.3704-.371.3704-.741.5556-1.112.9259l-.185.1852h-.185c-.185 0-.185.1852-.37.3704-.186.1852-.556.3704-.741.3704-.185 0-.556.1852-.741.1852h-.185c-.37 0-.741-.1852-.741-.5556v-.5556-.5555c.185-.9259.371-1.6667.741-2.4074 0 0-.185.1852-.37.1852-.186 0-.186.1851-.371.1851 0 0 0 .1852-.185.1852l-.185.1852c-.185.1852-.185.1852-.37.1852-.186 0-.186-.1852-.186-.1852 0-.1852.186-.3704.371-.3704 0 0 .185 0 .185-.1851 0 0 0-.1852.185-.3704 0 0 0-.1852.185-.1852l.185-.1852c.186-.1852.371-.3703.556-.5555.185-.3704.185-.3704.37-.5556.186-.1852.371-.3704.556-.7407 0 0 .185-.1852.185-.3704.185-.1852.185-.3704.37-.5556h.371c.185.1852.185.3704.185.5556l.185.1852v.1852c0 .3703-.37.7407-.555 1.2963 0 .1852-.186.1852-.186.3703-.185.3704-.37.7408-.37 1.1111 0 .1852 0 .3704-.185.5556-.185.1852-.185.5556-.185.9259l-.185.1852v1.1111c0 .1852.185.1852.37.1852h.185s.185 0 .37-.1852v-.1852c.186-.1851.371-.1851.556-.1851.185-.1852.37-.3704.556-.5556 0 0 .185 0 .185-.1852l.37-.3704s.185-.1851.371-.1851l.555-.5556c.185-.3704.37-.7407.556-1.1111l.185-.1852c.185-.3704.185-.3704.185-.5555 0-.1852.185-.1852.37-.3704.371-.3704.741-.7408.926-.9259.185-.1852.926-.5556 1.667-.5556.37 0 .556.1852.741.3704.185.1852.185.5555.185.7407 0 .3704-.185.5556-.185.7408l-.185.1851s0 .3704-.186.3704c0 .1852-.37.1852-.37.3704l-.185.1852c-.371.3703-.556.3703-.926.5555h-.371c-.185 0-.37.1852-.37.1852-.185.1852-.741 0-.926.3704l-.185.5555v.7408c.185.5555.556.7407 1.111.7407h.37c.926 0 1.297-.1852 2.223-.9259.37-.1852.555-.5556.926-.7408 0-.1851-.186-.3703-.186-.5555v-.3704c0-.1852.186-.3704.371-.3704h1.111c.185-.1851.185-.1851.37-.1851.185-.1852.371-.1852.556-.3704.555-.5556 1.111-1.1111 1.667-1.6667h.185v-.1852c0-.1851.185-.1851.185-.1851l1.111-1.1112c.185-.18514.37-.37033.741-.55551.185 0 .185 0 .185.18518 0 0 .185.18519.185.37033 0 .1852 0 .5556-.185.5556-.185.1852-.37.3704-.37.5556 0 .1851 0 .5555-.186.9259-.185.3704-.185 1.1111-.185 1.4815 0 .1851-.185.1851-.185.3703v.1852c0 .3704-.185 1.1111-.185 1.2963.741 0 1.666-.1852 2.592-.5555.926-.3704 1.297-.5556 1.852-.926.556-.3703 1.111-.7407 1.482-1.2963 0-.1851.185-.1851.37-.3703l.185-.3704c.371-.5556.741-1.4815.926-2.22223 0-.37037 0-.74074.185-1.11111v-.37037-.37037c0-.18518-.185-.37037-.185-.74074-.185-.55555-.741-1.11111-1.481-1.29629-.371 0-.556-.18519-.926-.18519-.371 0-.556 0-.926.18519-.185 0-.37 0-.37.18518l-.186.18519c-.37.37037-.74.74074-.74 1.29629v1.2963c.185.37037.37.55555.74.92592.186 0 .371.18519.371.18519H187.434l.185-.18519c.186 0 .186-.18518.371-.37037 0-.18518.185-.18518.185-.37037v-.18518c-.185 0-.185-.18519-.185-.37037v-.18519c0-.18518.185-.18518.37-.18518h.185c.186 0 .371.18518.371.55555v.18519c-.185.55555-.371.92592-.741 1.11111-.185.18514-.556.18514-.926.18514h-.555c-.556-.18514-1.112-.55551-1.297-1.29625v-.55556-.37037-.55555c0-.37037.185-.55556.371-.92593.185-.37037.37-.55555 1.111-.74074.185-.18518.37-.18519.74-.37037h1.852c1.111.37037 1.852 1.11111 2.223 2.03704v.37037c0 .18518.185.18518.185.37037v.74074c-.741.55555-.741.92592-.926 1.29625zm-17.037 3.8889h.37c.37 0 .556-.1852.741-.1852.185 0 .37-.1851.555-.3703l.186-.1852c.555-.5556.926-1.1111.926-1.6667 0 0 0-.1852-.186-.3703h-.185c-.185 0-.185 0-.37.1851-.185.1852-.185.3704-.371.3704-.37.1852-.555.1852-.555.3704 0 0 0 .1852-.185.1852 0 0-.186.1852-.371.1852-.185.1851-.185.3703-.37.7407 0 .3704-.185.3704-.185.7407zm7.592 2.2223h-.926s-.185-.1852-.37-.1852h-.185c-.371 0-.556-.3704-.741-.3704h-.185v.3704c.185.3703.555.5555.926.7407.185 0 .37.1852.555.1852.186 0 .556 0 .741-.1852 0-.1852.185-.3704.185-.5555zm.926-4.6297s-.185.3704-.37.3704c-.37.3704-.926.7407-1.111 1.1111-.371.3704-.741.7407-1.111 1.1111-.186.1852-.371.1852-.371.5556V15.1673c.185.1852.371.1852.556.3704.185.1852.741.1852 1.111.1852h.556c0-.1852.185-.5556.185-.7407v-.1852s.185-.1852.185-.3704c0-.3704.185-.7407.185-1.1111 0-.1852.185-.5556.185-.7407-.185 0 0-.926 0-.926zm-10.555-4.6296c.555 0 1.111-1.2963 1.111-1.66667.185-.18519.185-.55556.185-.74074V4.4266h-.37c-.371 0-.371.18519-.371.37037-.185.18519-.37.37037-.555.55556V5.90809c0 .18518 0 .37037-.185.74074v.18518s0 .18519.185.18519zm-106.4818 0c.5556 0 1.1111-1.2963 1.1111-1.66667 0-.18519.1852-.55556.1852-.74074V4.4266h-.3703c-.1852 0-.1852.18519-.3704.37037-.1852.18519-.3704.37037-.5556.55556V5.90809c0 .18518 0 .37037-.1852.74074v.18518l.1852.18519zm-8.7037 12.2222c.5556-.3704.5556-.3704.5556-.5555 0 0 .3703-.1852.3703-.3704 0 0 .1852-.1852.1852-.3704v-.1852l.1852-.1851c0-.1852 0-.3704.1852-.3704 0-.1852.3704-.3704.3704-.9259 0-.1852.1852-.1852.1852-.3704v-.1852-.3704c0-.3703.1851-.7407.1851-1.1111v-.3704-.9259c0-.1852-.1851-.1852-.1851-.3703v-.3704-.1852l-.1852-.1852v-.3704V11.0933c0-.1852-.1852-.1852-.1852-.3704v-.3704c0-.1852-.1852-.1852-.1852-.37034-.1852-.37037-.1852-.55556-.1852-.92593 0-.18518-.1852-.18518-.1852-.37037v-.18518h-.1852v-.18519c0-.18518-.1851-.37037-.1851-.37037v-.55555s-.1852 0-.1852-.18519c0-.18518 0-.37037-.1852-.37037-.1852-.37037-.1852-.74074-.1852-1.29629 0-.37037 0-.55556.1852-1.11112v-.74074c0-.37037.3704-.74074.9259-.92592.1852-.18519.5556-.18519.7408-.18519H59.6565s0 .18519.1852.18519c.1852.18518.3703 0 .5555.18518v.37037l.1852.18519c0 .18518.1852.37037.1852.55555v.18519c0 .37037-.1852 1.11111-.3704 1.48148v.18519c0 .18518.1852.37037.1852.37037h.3704s.3704-.37037.3704-.55556c0-.18518 0 0 .1851-.18518.1852-.37037.1852-.37038.1852-.55556.1852-.55556.3704-.92593.7408-1.11111 0-.18519.3703-.37037.3703-.37037.1852 0 .7408 0 .7408-.18519v-.37037c0-.18518-.1852-.37037-.3704-.37037s-.3704 0-.5556.18519c-.3703.18518-.7407.74074-.9259.92592.1852 0 0 .18519-.1852.18519 0-.18519-.1851-.37037-.3703-.55556-.3704-.74074-.7408-.92592-1.4815-1.11111h-1.2963l-.7408.18519c-.1851 0-.3703.37037-.5555.55555-.1852 0-.1852.18519-.3704.18519-.3703.37037-.7407.92592-.7407 2.03704v.18518c0 .92593.1852 1.48148.3703 2.22222-.1851.37037.1852 1.2963.1852 1.48148 0 0 .1852.18519.1852.37037v.18519c0 .18518.3704 1.11111.3704 1.48151 0 .1852.1852.7407.1852 1.1111v.3704c0 .1851.1852.7407.1852 1.1111v1.1111c0 .3703 0 .9259-.1852 1.4815-.1852.3703-.3704.7407-.3704 1.1111 0 .1852-.1852.3703-.3704.5555 0 .1852 0 .1852-.1852.3704h-.1851c-.1852.1852-.5556.5555-.926.9259-.3703.1852-.5555.3704-.7407.3704-.1852 0-.1852 0-.3704.1852-.3703.1852-.9259.3703-1.2963.3703H51.8787c-.1852 0-.3704-.1851-.5555-.1851-1.1112-.1852-1.4815-.5556-1.8519-.926l-.3704-.3703s0-.1852-.1852-.1852c0 0-.1851 0-.1851-.1852 0 0 0-.1852-.1852-.1852-.1852-.1852-.1852-.3704-.3704-.5555-.1852-.1852-.3704-.7408-.3704-1.1112v-.7407-.3704-.5555-.5556c0-.1852.1852-.7407.1852-.9259 0-.1852.1852-.1852.3704-.3704 0-.1852 0-.3703.1852-.5555 0 0 .1852 0 .1852-.1852 0 0 0-.1852.1851-.3704.3704-.1852.5556-.3704 1.1112-.7407.1851 0 .3703-.1852.5555-.3704.3704-.1852.9259-.3704 1.2963-.3704h.1852c.3704 0 .7407.1852.9259.3704h.3704v.1852c.5555.3704.7407.3704.9259.5555.1852.1852 0 .1852.1852.3704h.1852c0 .3704.1852.9259.1852 1.2963 0 .1852 0 .5556-.1852.7407-.1852.3704-.3704.5556-.7408.7408-.1851 0-.5555-.1852-.7407-.1852h-.3704v.3704c0 .1852.3704.5555.7408.5555h.1852c.5555 0 1.1111-.3703 1.4814-.7407 0 0 .1852-.1852.1852-.3704v-.7407-.5556c0-.1852 0-.5555-.1852-.7407-.1851-.5556-.7407-1.1111-1.1111-1.2963 0 0-.7407-.3704-1.2963-.5556-.3703 0-.5555-.1852-1.1111-.1852h-.5555c-.3704 0-.7408.1852-1.1111.3704-.1852 0-.1852.1852-.3704.1852s-.3704 0-.5556.1852c0 0-.1852 0-.1852.1852-.1851.1852-.7407.5555-.9259.7407-.3704.3704-.5555.9259-.7407 1.2963 0 .1852-.3704.3704-.3704.9259 0 .3704-.1852.5556-.1852 2.0371.3704.3703.5556.5555.5556.7407v.3704c0 .1852.1852.1852.1852.3704 0 .1851.3703.7407.5555.9259.1852 0 0 .1852.1852.1852.5556.7407 2.037 1.4814 2.963 1.6666.5555.1852.7407.1852 1.2963.1852h.5555c.7408 0 .9259 0 1.6667-.3704.1852 0 .1852 0 .3704-.1851.1851 0 .1851-.1852.3703-.1852 0 0 .1852 0 .3704-.1852.3704.1852.3704 0 .9259-.3704zm75.9255-5.1852s-.185.1852-.185.3704v.1852c0 .5555-.37 1.1111-.555 1.2963-.185 0-.185 0-.185.1852l-.186.1852c-.555.3703-1.111.5555-1.852.5555h-.37c-.741 0-1.481-.3704-1.667-.9259-.185-.1852-.185-.3704-.185-.5556v-.3703c0-.3704.185-.7408.371-.926.185-.1852.555-.1852.74-.1852.371 0 .741.1852.741.3704s-.185.3704-.37.3704-.185-.1852-.185-.3704c-.186 0-.371 0-.556.1852-.185.1852-.185.3704-.185.5556v.5555c0 .1852.185.1852.185.3704.185.3704.741.5555 1.111.5555h.185c.556 0 .926 0 1.297-.3703l.37-.3704.185-.3704c.185-.1852.185-.5555.371-.9259v-.5556c0-.1851 0-.3703-.186-.5555 0-.1852 0-.1852-.185-.3704 0-.1852-.185-.1852-.37-.3703-.185-.1852-.185-.3704-.556-.3704-.185-.1852-.741-.1852-1.111-.1852-.926 0-1.667 0-2.407.1852h-.185l-.186.1852c-.185 0-.37.1852-.37.1852-.37.1851-.556.3703-.926.3703h-.37c.185 0 .185.1852 0 .1852-.186.1852-.371.1852-.741.3704s-.556.1852-.741.3703h-.37c-.185 0-.185.1852-.371.1852-.74.1852-1.111.1852-1.666.3704-.185 0-.556.1852-.741.1852-.185 0-.556 0-.741.1852v1.4815c0 .3703.371.7407.741.7407h.185c.371 0 .926-.1852 1.297-.3704.185-.1852.555-.3703.74-.5555 0-.1852.185-.1852.371-.1852h.185v.1852c0 .1852 0 .1852-.185.3703-.186.1852-.556.5556-.741.5556-.185.1852-.556.3704-.741.3704-.185 0-.37.1852-.37.1852-.185 0-.185.1851-.371.1851h-.555c-.741 0-1.667-.3703-1.667-.9259 0-.1852-.185-.1852-.185-.3704 0-.1851-.185-.5555-.185-.7407 0-.1852 0-.3704.185-.7407 0 0-.185 0-.185.1851l-.185.1852c-.186.1852-.371.3704-.556.3704-.185.1852-.185.3704-.37.5556-.556.3703-.926.7407-1.482.9259-.185.1852-.555.1852-.926.1852-.555 0-1.111-.1852-1.296-.7408v-.3703-.5556-.3704c0-.1852 0-.5555.185-.7407.185-.3704.185-.7408.185-1.1111 0-.1852.371-.3704.371-.7408v-.1851c-.185-.1852-.185-.5556-.556-.5556-.185.1852-.555.3704-.741.7407-.185.3704-.37.5556-.74.7408-.185.1852-.371.1852-.556.3703 0 .1852-.185.1852-.185.1852s0 .1852-.185.1852c-.185.1852-.185.1852-.371.3704-.185 0-.37.3704-.555.5555-.185 0 0 .1852-.185.3704-.186.1852-.556.1852-.556.5556 0 .1852-.185.3703-.185.3703h-.185c-.185.1852-.371.3704-.556.3704-.185 0-.185 0-.37.1852l-.185.1852s-.371.1852-.741.1852h-.37l-.186-.1852c-.185-.1852-.555-.1852-.555-.3704-.185-.3704-.185-.5555-.185-.9259 0-.3704 0-.7408.185-1.1111v-.5556c-.371.3704-.556.5556-.926.7408-.371 0-.371.1851-.556.1851-.185.1852-.185.1852-.37.1852-.185.1852-.37.5556-.556.5556-.37.3704-.74.7407-.926.9259-.37.1852-.555.5556-.925.7408h-.186H100.953c-.371 0-.741-.1852-.741-.5556 0-.5556.185-1.1111.37-1.6667.186-.5555.371-.9259.556-1.2963.185-.3703.37-.7407.37-1.1111 0 0-.185.1852-.37.1852-.37.5556-.926.9259-1.2963 1.4815h-.1852c-.1852.1852-.3704.5555-.5556.5555v-.1851c-.1852.1851-.1852.3703-.3703.3703-.3704.3704-.7408.5556-1.1112.926l-.1851.1851h-.1852c-.1852 0-.1852.1852-.3704.3704s-.5555.1852-.7407.3704c-.1852 0-.7408.1852-1.1111.1852-.3704 0-.926-.3704-1.1112-.5556-.1851-.1852-.3703-.7407-.3703-.9259v-.1852-.7407l-.3704.3703c-.3704.5556-.9259.7408-1.1111 1.1111 0 0-.1852 0-.1852.1852 0 0 0 .1852-.1852.1852l-.3703.1852c-.1852.1852-.5556.1852-.7408.3704-.1852.1852-.5555.1852-.9259.1852h-.1852c-.3704 0-.7407-.1852-.7407-.5556 0 0-.1852-.3704-.1852-.5556v-.5555c.1852-.5556.1852-.9259.3703-1.4815h-.1851l-.5556.5556c-.1852 0-.1852.1851-.1852.1851-.1852.1852-.1852.1852-.3704.1852 0 0-.1851.1852-.1851.3704l-.5556.5556c-.3704.1851-.7407.5555-1.2963.9259-.1852 0-.3704.1852-.5555.3704h-.5556c-.1852 0-.5556-.1852-.5556-.3704-.1851-.1852-.1851-.5556-.1851-.7408 0-.1851 0-.5555.1851-.7407-.1851.1852-.3703.3704-.3703.3704l-.1852.1852c-.3704.3703-.1852.3703-.9259.7407-.1852.1852-.1852.1852-.3704.1852l-.1852.1852c-.1852.1852-.3704.1852-.7407.1852-.1852 0-.5556 0-.7408-.1852-.1852-.1852-.3703-.3704-.5555-.5556v-.3704-.1851l-.1852-.1852v-1.1111-.926c0-.5555.1852-1.1111.1852-1.4814 0-.5556-.1852-.7408-.3704-.7408s-.3704.1852-.5556.3704c-.1851 0-.1851.1852-.3703.3704-.1852 0-.1852.1851-.3704.3703l-.1852.1852-.1852.1852v.1852l-.1851.1852c-.1852 0-.1852.1851-.1852.3703-.5556.3704-.926.926-1.2963 1.2963-.1852.3704-.1852.5556-.5556.926l-.1852.1851v.3704c-.1852.1852-.1852.7408-.3703.7408-.1852 0-.5556 0-.7408.1851h-.1852c-.1852 0-.3703 0-.3703-.3703v-.3704c.1851-.9259.1851-.7407.3703-1.1111v-.3704c.1852-.3704.3704-1.1111.5556-1.4815v-.5555c.1852-.5556.3704-.9259.5555-1.4815h-.1851c-.1852 0-.1852.1852-.3704.3704 0 0-.1852.3703-.3704.5555-.1852.1852-.3704.3704-.5555.5556l-.3704.3703-.3704.3704h-.1852l-.9259.9259c-.1852.5556-.1852 1.1112-.3704 1.4815 0 .1852 0 .3704-.1851.5556-.1852.5555-.5556 1.8518-.5556 2.2222 0 .1852-.1852.5556-.3704 1.1111 0 .1852-.1852.3704-.3703.5556-.1852.1852-.1852.3703-.1852.5555-.1852.5556-.3704.7408-.5556.926 0 .1851-.1852.3703-.1852.5555.3704 0 .7408.1852 1.1111.1852h1.6667c.1852 0 .3704-.1852.5556-.1852.5555-.1852 1.1111-.3704 1.4814-.7407.5556-.5556.7408-.926.7408-1.2963 0-.3704-.1852-.926-.7408-.926-.3703 0-.3703.3704-.3703.3704 0 .1852.1852 0 .1852.3704v.1852c0 .1852-.1852.3703-.3704.3703s-.5556-.1851-.5556-.5555c0-.5556.5556-.7408 1.1111-.7408.5556 0 .926.1852 1.1112.5556 0 .1852.1851.3704.1851.5556 0 .1851 0 .5555-.1851.7407l-.1852.1852v.3704c0 .1851-.3704.3703-.5556.5555-.1852.1852-.5555.3704-.9259.5556h-.3704-.1852c-.1852 0-.1852.1851-.3703.1851-.3704.1852-.926.1852-1.4815.1852h-.3704c-.5555 0-1.1111-.1852-1.8518-.1852-.1852.1852-.1852.5556-.3704.7408 0 .1852-.3704.3704-.3704.5555-.1852.1852-.1852.3704-.5555.7408 0 0-.1852.1852-.3704.1852 0 .1852 0 .3703-.1852.3703-.1852.1852-.1852.3704-.5555.7408-.1852.1852-.3704.3704-.5556.5555-.1852.1852-.3704.3704-.7407.7408h-.3704c-.1852 0 0 .1852-.1852.3703-.1852.1852-.5556.5556-1.2963.926-.1852 0-.3704 0-.5556.1852-.1851 0-.1851.1851-.3703.1851-.7408.3704-.9259.3704-1.4815.3704-.5556 0-.9259.1852-1.2963.1852-1.1111 0-2.037-.1852-2.5926-.5556-.1852 0-.1852-.1851-.3704-.3703-.1852 0-.3703 0-.5555-.1852-.3704-.1852-.5556-.5556-.7408-.7408-.1851-.1851-.3703-.9259-.3703-1.6666v-.1852c0-.5556.1852-.7407.1852-1.1111 0-.5556.3703-.9259.7407-1.4815.1852-.1852.3704 0 .3704-.1852.1851-.1852.1851-.3704.3703-.5555.1852-.1852.5556-.5556.926-.7408.3703-.1852.9259-.3703 1.4814-.5555.5556-.1852 1.2963-.1852 1.8519-.3704 0 0 .1852.1852.3704.1852s.3703-.1852.5555-.1852h1.2963c.3704 0 .5556.1852.9259.1852h.7408l2.5926.3704.1852-.5556c0-.1852.1851-.1852.1851-.3704s0-.3703.1852-.5555c.1852-.1852.1852-.1852.1852-.3704s.1852-.5556.1852-.7407l.3704-.926c0-.1852 0-.3703.1852-.5555.1851-.3704.1851-.9259.3703-1.1111l.1852-.3704c.1852-.5556.3704-.9259.3704-1.4815 0-.1852.1852-.3704.1852-.5555v-.5556-.3704c0-.3703.1852-1.1111.3703-1.2963-.1851.3704-.5555.7408-.7407 1.1111-.3704.3704-.7407.926-1.1111 1.1112 0 0-.1852 0-.1852.1851 0 0 0 .1852-.1852.1852 0 0-.1852.1852-.5555.3704-.3704.3704-.7408.5556-1.1111.9259-.1852.1852-.7408.3704-1.1112.3704-.1851 0-.3703 0-.5555-.1852-.1852-.1852-.1852-.5555-.1852-.9259 0-.3704 0-.9259.1852-1.2963 0 .1852-.1852.1852-.1852.3704-.3704.3703-.7407.5555-1.1111.9259l.5555.7407h-.1851c-.1852 0-.1852.1852-.3704.3704s-.5556.3704-.7408.3704c-.1851 0-.5555.1852-.7407.1852h-.1852c-.3703 0-.7407-.1852-.7407-.5556v-.5556-.5555c.1852-.9259.3704-1.6667.7407-2.4074 0 0-.1852.1852-.3703.1852-.1852 0-.1852.1851-.3704.1851 0 0 0 .1852-.1852.1852l-.1852.1852c-.1852.1852-.1852.1852-.3704.1852-.1851 0-.1851-.1852-.1851-.1852 0-.1852.1851-.3704.3703-.3704 0 0 .1852 0 .1852-.1851 0 0 0-.1852.1852-.3704 0 0 0-.1852.1852-.1852l.1852-.1852.5555-.5555c.1852-.3704.1852-.3704.3704-.5556.1852-.1852.3704-.3704.5555-.7407 0 0 .1852-.1852.1852-.3704.1852-.1852.1852-.3704.3704-.5556h.3704c.1852.1852.1852.3704.1852.5556.1851.3704.1851.5556.1851.5556v.1851c0 .3704-.3703.7408-.5555 1.2963 0 .1852-.1852.1852-.1852.3704-.1852.3704-.3704.7407-.3704 1.1111 0 .1852 0 .3704-.1852.5556-.1851.1852-.1851.5555-.1851.9259l-.1852.1852v1.1111c0 .1852.1852.1852.3703.1852h.1852c.1852 0 .3704-.1852.5556-.1852v-.1852c.1852-.1852.3704-.1852.5555-.1852.1852-.1852.3704-.3703.5556-.5555 0 0 .1852 0 .1852-.1852l.3704-.3704s.1851-.1852.3703-.1852c.1852-.1852.5556-.7407.7408-.7407.1852-.1852.1852-.3704.1852-.3704s.1851-.1852.1851-.3704c.1852-.1851.3704-.5555.5556-.7407.1852-.1852.3704-.1852.5555-.3704 0 0 0-.1851.1852-.1851.1852-.1852.3704-.1852.3704-.3704l.1852-.1852c.3704-.1852.7407-.3704 1.1111-.5556.1852 0 .7407-.1851 1.1111-.1851h.5556c.7407-.3704.9259 0 1.1111 0 .1852-.1852.1852-.5556.3703-.7408.1852-.1852.3704-.3704.5556-.3704l.3704-.18514c.1852 0 .1852 0 .1852.18514 0 .7408-.5556 1.2963-.5556 1.8519v.5556c-.1852.7407-.3704 1.2962-.5556 2.037l.7408-.5556.1852-.1852c.1852-.1851 0-.1851.3703-.3703l.5556-.5556c.5556-.7407 1.1111-1.2963 1.6667-2.2222.1852-.3704.5555-.5556.9259-.74074.1852 0 .1852-.18519.3704-.18519.1851 0 .1852.18519.1852.37033 0 .3704-.1852 1.1112-.1852 1.1112-.5556.1851-.5556.3703-.5556.7407l-.1852.1852v.3704c-.1852.1851-.1852.3703-.1852.5555 0 .1852-.3703.9259-.3703 1.1111.1852 0 .3703-.3704.5555-.5555.5556-.5556.7408-.5556 1.1111-1.1111.1852-.1852.5556-.7408.926-.926.1851-.1852.3703-.3703.5555-.5555.3704-.1852.7408-.3704 1.1111-.3704.1852 0 .5556.1852.7408.3704.1852.3703.1852.7407.1852 1.1111V13.871c0 .3704 0 .5556-.1852.7408v1.2963c0 .3704.1852.7407.3703.7407h.3704c.1852 0 .3704 0 .5556-.1852.1851-.1851.5555-.5555.7407-.5555l.3704-.3704.3703-.3704c0-.1851.1852-.5555.3704-.7407 0-.1852.1852-.3704.1852-.3704h.1852v-.1852s.1852-.1851.1852-.3703c0 0 .3703-.3704.3703-.5556h.1852v-.1852c0-.1851.5556-.3703.5556-.5555v-.1852c.1852-.1852.3704-.1852.5555-.3704.1852-.1852.5556-.3703.7408-.5555.1852-.1852.3703 0 .7407-.1852h.3704c.1852 0 .1852-.1852.5555-.1852h.3704c.3704 0 .5556 0 .9259.1852.926.1852 1.6667.7407 1.6667 1.6667v.1851c0 .1852-.1852.1852-.3704.1852-.1851 0-.1851-.1852-.1851-.1852 0-.3703.1851-.3703.1851-.5555 0-.1852-.1851-.3704-.3703-.5556-.3704-.1852-.5556-.3703-1.1111-.3703-.5556 0-.926.1851-1.2963.3703h-.3704c-.1852 0-.3704.1852-.3704.3704v.1852c-.1852.1852-.1852 0-.3704.1852-.1851 0 0 .1852-.1851.1852-.1852 0-.1852.1851-.3704.3703 0 0-.1852.1852-.3704.1852s-.1852.1852-.1852.3704-.1851.1852-.3703.3703c-.1852.1852-.3704.5556-.5556.926-.1852.3703-.3704.7407-.5555 1.2963v.1852c0 .1851 0 .3703.1851.3703.1852 0 .3704 0 .3704-.1852.1852-.1851.3704-.1851.5556-.3703.1852 0 .1852-.1852.3703-.3704.1852-.1852.3704-.1852.5556-.3704.3704-.3703.7407-.5555 1.1111-.9259l.5556-.5556.1851-.3703.5556-.5556c.1852 0 .5556-.1852.5556-.3703h.1851c.1852 0 .5556.3703.5556.5555v.7407c0 .1852-.1852.5556-.3704.7408-.1852.1852-.1852.5555-.1852.9259l-.1851.1852v1.1111c0 .1852.1851.1852.3703.1852h.1852c.1852 0 .3704-.3704 1.1111-.7407.1852-.1852.3704-.1852.5556-.5556 0 0 .1852 0 .1852-.1852.1852-.1852.1851-.1852.3703-.3704 0 0 .1852-.1851.3704-.1851.1852-.1852.5556-.7408.7407-.7408.1852-.3704.3704-.9259.3704-1.2963v-.5555c.1852-.1852.3704-.3704.3704-.7408 0-.1852 0-.3703.1852-.5555 0 0 .1852-.1852.1852-.3704v-.1852c0-.1852.1851-.3704.1851-.55554.3704-.18519.5556-.92593.7408-1.2963-.1852 0-.1852 0-.3704.18519-.5555 0-.5555.18518-.9259.18518h-.3704c-.1852 0-.1852 0-.3704-.18518h-.1851c-.3704 0-.5556.18518-.926.18518h-.1852c-.5555-.18518-1.2962-.18518-1.6666-.37037-.5556-.18518-.7408-.37037-1.1111-.74074V7.0192l-.1852-.18519c0-.18518-.1852-.18518-.1852-.37037v-.37037c0-.18518 0-.18518.1852-.37037.1852-.18518.3704-.18519.5555-.37037.1852 0 .3704.18519.3704.37037 0 .18519-.1852.18519-.1852.37037H90.0269v.18519c0 .37037.1851.74074.5555.92592v.18519h.5556c.1852.18518.5555.37037.9259.55555.3704.18519.9259.18519 1.2963.18519h3.3333c.1852-.18519.1852-.55556.3704-.74074.1852-.18519.1852-.37037.1852-.55556.1852-.37037.5555-.55555.7407-.74074.1852-.37037.5556-.74074.7408-.92592.3703-.18519.3703-.74075.7407-.74075h.3704v.18519c-.1852.55556-.5556.92593-.7408 1.48148-.1852.18519-.3703.55556-.5555.74074h-.1852v.37037l-.1852.18519v.55555l1.1111-.18518h.7409c.185 0 .185 0 .37-.18519.185-.18518.371 0 .556-.18518.37 0 .741-.18519 1.111-.18519.37-.18518.741-.18518.926-.18518.185 0 .555 0 .741-.18519h.74l.371-.18518c.37 0 .37 0 .926-.18519h.37c.185 0 .185-.18518.37-.18518.371 0 .556-.18519 1.111-.18519H112.064l.185.18519H113.36c.371 0 .556.18518.926.37037.185.18518.37 0 .556.18518 0 0 .37.18519.37.37037.185 0 .37.18519.556.37037 0 0 0 .18519.185.18519.37.18518.185.18518.555.37037.186.18518.371.74074.371.92592 0 .18519-.185.55556-.371.55556h-.185c-.185 0-.185 0-.37-.18519v-.18518c0-.18519 0-.18519.185-.37037 0-.37037-.37-.74074-.926-.92593 0 0-.37-.18518-.556-.18518-.185-.18519-.185-.18519-.74-.37037h-.556c-.185 0-.37-.18519-.555-.18519h-.926c-.371-.18518-.741-.18518-1.297-.18518h-.555l-.185-.18519h-1.667c-.185 0-.185.18519-.37.18519H106.508c-.185 0-.555 0-.74.18518H104.286c-.555.18519-.555.18519-.926.18519-.37 0-.555.18518-.926.18518h-1.481l-.185.18519c-.186 0-.556.18518-.741.18518-.9261.18519-.7409.18519-1.4816.37037l-1.1111.18519-.1852.55555c0 .18519-.1852.55556-.3704.74074 0 .18519-.1852.55553-.1852.74073l-.1852.5556c0 .1852 0 .3703-.1851.5555-.1852.1852-.3704.5556-.3704.926-.3704.3703-.5556.9259-.5556 1.2962-.1852.7408-.1852 1.2963-.3703 2.0371v.1852c0 .1852.1851.5555.3703.7407.1852 0 .1852.1852.3704.1852.3704 0 .7407-.1852.9259-.1852v-.1852c.1852-.1852.3704-.1852.5556-.1852.1852-.1851.3703-.3703.5555-.5555 0 0 .1852 0 .1852-.1852l.3704-.3704s.1852-.1852.3704-.1852c.1851-.1851.5555-.7407.7407-.7407l.3704-.3704c0-.1852.1853-.1852.1853-.1852l.37-.7407c.185-.1852 0-.1852.371-.5555.185 0 .185-.1852.37-.3704s.37-.3704.37-.5556c0-.1852.186-.3703.186-.5555.37-.1852.555-.1852.74-.3704.185-.1852.371-.3704.741-.3704.185 0 .37.1852.37.1852v.1852c0 .1852 0 .1852-.185.3704v.5555c0 .1852-.555.7408-.555 1.1111 0 0 0 .1852-.186.1852 0 .1852 0 .3704-.185.5556-.37.7407-1.111 2.4074-1.111 2.7778 0 .1851.185.1851.371.1851h.185c.185 0 .74-.5555 1.111-.7407 0 0 0-.1852.185-.1852.185-.1852.37-.3704.556-.3704.185-.1851.185-.1851.37-.3703.185 0 .185-.1852.37-.1852.185-.1852.371-.3704.556-.5556.185-.1852.555-.3703.555-.7407.186-.1852.371-.5556.556-.7407.185-.1852.37-.3704.556-.5556.185-.1852.185-.7407.555-.7407 0 0 .185-.1852.37-.1852.371.1852.371.5555.371.9259v.1852c-.185.1852-.371.5555-.371.9259-.185.1852-.37.3704-.37.5556-.185.5555-.37 1.1111-.555 1.6666v.5556c0 .3704.185.7407.37.9259h.185c.37 0 .741-.3704.926-.3704.556-.5555 1.111-.9259 1.481-1.4814.186-.1852.371-.3704.556-.5556l.37-.3704.186-.1852c.185-.1851.37-.3703.74-.7407.556-.3704.556-.5555.741-.7407l.185-.3704c0-.1852.185-.1852.185-.1852s.186-.1852.186-.3704v-.5555c0-.5556.185-1.11113.555-1.29631 0 0 .185-.18519.371-.18519h.185c-.185 0 0 0 0 .18519.185.18518.185.18518.185.37037v.18514c0 .1852-.37.3704-.556.7408v.1852c0 .1852.186.3703.186.3703.185.1852 1.111.3704 1.296.5556.185.1852.185.3704.185.5556v.1851c-.185.5556-.37 1.1111-.556 1.4815-.185.3704-.185.7408-.185 1.1111v.5556c0 .3704.185.7407.371.7407h.37c.185 0 .556-.1852.741-.3703l.185-.1852c.185-.1852.37-.3704.556-.5556.185-.3704.74-.9259 1.111-1.1111.185-.1852.37-.5556.555-.7407.185-.3704.185-.5556.556-.926l.185-.1851c.185-.1852.185-.1852.185-.3704s.185-.1852.37-.3704c.371-.3704.741-.7407.926-.9259.186-.1852.926-.5556 1.667-.5556.37 0 .556.1852.741.3704.185.5556.185.7407.185.9259 0 .3704-.185.5556-.185.7408l-.185.1852c-.186.1851-.186.5555-.186.5555 0 .1852-.37.1852-.37.3704 0 0-.37.3703-.926.7407.371-.1852.926-.1852 1.296-.3704.186 0 .371-.1851 1.667-.7407l.741-.3704c.185-.1851.37-.3703.555-.3703.186-.1852.371-.1852.741-.3704.185 0 .371-.1852.556-.1852.37-.1852.926-.3704 1.296-.3704.556 0 .926-.1851 1.667-.1851.555 0 .926.1851 1.296.3703.556.1852.741.3704 1.111.7408 0 .1852.185.3703.37.3703.186.1852.186.3704.186.5556-.186.3704-.186.5555-.186.7407zm-64.6292 9.6297c-.7407-.1852-1.6666-.3704-2.5926-.3704-.1852 0-.1852-.1852-.3703-.1852h-.5556c-.7407 0-1.4815-.1852-2.2222-.1852H61.138c-.3704 0-.926.1852-1.2963.3704-.7408.1852-1.2963.7407-1.6667 1.1111-.1852.1852-.3704.1852-.3704.3704-.1852.1852-.1852.3703-.3703.5555-.1852 0-.1852.1852-.3704.1852v.3704c-.1852.3704-.3704.5555-.3704.9259v.3704c0 .3704 0 .7407.1852 1.1111.1852.3704.3704.5555.5556.7407.1851 0 .1851.1852.1851.1852.1852 0 .1852.1852.3704.1852.3704.1852.5556.3704 1.1111.5556.3704 0 .926.1851 1.2963.1851.5556 0 1.1111-.1851 1.4815-.1851.1852 0 .3704 0 .5556-.1852.3703-.1852.7407-.3704 1.1111-.5556.1852 0 .3703-.1852.5555-.1852.1852-.1852.1852-.3703.3704-.3703l.5556-.3704c.1851-.1852.3703-.3704.7407-.5556.3704-.3703.5556-.7407.9259-1.1111.1852-.1852.1852-.1852.3704-.1852 0-.1851.1852-.3703.1852-.3703.1852-.3704.1852-.3704.3703-.5556l.3704-1.8518zm3.7037-11.8519c0-.3704-.3703-.5555-.7407-.5555-.1852 0-.5556 0-.9259.1851-.3704.1852-.7408.5556-1.1112.926-.1851.1852-.3703.1852-.3703.1852V12.9451l-.3704.3704c-.1852.1852-.1852.3704-.3704.5555 0 .1852-.3703.1852-.3703.3704-.1852.3704-.1852.5556-.3704.9259-.1852.3704-.3704.7408-.3704 1.1112v.1851l.1852.1852c.3704 0 .7407-.1852.9259-.3703l.5556-.5556c.1852-.1852.3704-.1852.3704-.3704v-.1852c.1851-.1851.3703-.1851.5555-.3703v-.1852h.1852c.1852-.1852.5556-.3704.5556-.5556.1851-.1852 0-.3703.1851-.3703.1852-.1852.3704-.3704.5556-.7408.3704-.3703.9259-.5555.9259-1.1111zm49.8145 1.8519l.186-.1852c.555-.5556.925-1.1111.925-1.6667 0 0 0-.1852-.185-.3704h-.185c-.185 0-.185 0-.37.1852s-.185.3704-.371.3704c-.185.1852-.37.1852-.555.3704 0 0 0 .1852-.185.1852 0 0-.186.1851-.371.1851-.185.1852-.185.3704-.37.7408-.185.3703-.371.3703-.371.7407h.371c.37 0 .555-.1852.741-.1852.37-.1852.555-.1852.74-.3703z"/>
</svg>