<svg xmlns="http://www.w3.org/2000/svg" fill="currentColor" viewBox="0 0 48 42">
<path fill-rule="evenodd" d="M39.5632 8.4366V-.00732422h-2.111V8.43778h-8.4415v2.10982h8.4415v8.4451h2.111v-8.4451h8.4416v-2.111h-8.4416zM26.4924-.00732422H13.7911C8.09686-.00732422 2.73795 4.52514 2.73795 9.52396c-.01117 1.25824.23403 2.50554.72064 3.66594s1.20442 2.2095 2.10971 3.0834c.90529.8739 1.97907 1.5543 3.15589 1.9997 1.17681.4454 2.43201.6465 3.68911.591.4026 0 .7934.046 1.1806.0189-.4022.7376-.6232 1.5603-.6446 2.4002.0335.674.2041 1.3342.5013 1.9401.2972.6059.7147 1.1449 1.2271 1.5841-.7296 0-1.4333.0283-2.2019.0283-7.0531 0-12.48165938 4.4971-12.48165938 9.1571 0 4.5891 5.95160938 7.4616 13.00475938 7.4616 8.0401 0 12.4817-4.5632 12.4817-9.1523 0-3.68-1.085-5.8831-4.4416-8.2574-1.1476-.8134-3.3424-2.7898-3.3424-3.9527 0-1.3613.3884-2.0331 2.438-3.6352 1.0718-.7953 1.9508-1.8217 2.5717-3.003.6209-1.1814.9679-2.4874 1.0151-3.82112 0-3.19598-1.4238-5.41676-4.0944-7.52774h4.0271l2.8383-2.11216422zM22.0567 31.5157c.1022.4294.1541.8691.1547 1.3105 0 3.7084-2.3885 6.6116-9.2421 6.6116-4.87482 0-8.39547-3.0874-8.39547-6.7958 0-3.634 4.36836-6.66 9.24207-6.6115 1.073.008 2.1387.1788 3.1605.5065 2.6458 1.8335 4.5443 2.8736 5.0803 4.9716v.0071zm-7.8063-13.8394c-3.2728-.098-6.38258-3.66-6.94692-7.96107-.56435-4.30107 1.62928-7.58914 4.90082-7.49233 3.2716.09681 6.3825 3.54781 6.948 7.8465.5656 4.2987-1.6304 7.7049-4.9019 7.6069z" clip-rule="evenodd"/>
</svg>
