<svg xmlns="http://www.w3.org/2000/svg" fill="currentColor" viewBox="0 0 48 48">
<path d="M24 4.32413c6.4087 0 7.167.02477 9.6983.14005 2.3398.1067 3.6107.4973 4.4567.82598 1.0437.3843 1.9878.99799 2.7628 1.7958.7978.77493 1.4115 1.71907 1.7958 2.76279.3286.84595.7192 2.11685.8259 4.45665.1153 2.5313.1401 3.2896.1401 9.6983s-.0248 7.1671-.1401 9.6983c-.1067 2.3398-.4973 3.6107-.8259 4.4567-.3997 1.0348-1.0114 1.9746-1.7958 2.759s-1.7242 1.3961-2.759 1.7958c-.846.3286-2.1169.7192-4.4567.8259-2.5303.1153-3.2896.1401-9.6983.1401s-7.168-.0248-9.6983-.1401c-2.3398-.1067-3.6107-.4973-4.45666-.8259-1.04371-.3843-1.98785-.998-2.76278-1.7958-.79782-.775-1.41151-1.7191-1.79581-2.7628-.32867-.846-.71928-2.1169-.82598-4.4567-.11527-2.5313-.14004-3.2896-.14004-9.6983s.02477-7.167.14004-9.6983c.1067-2.3398.49731-3.6107.82598-4.45667.3843-1.04371.99799-1.98785 1.79581-2.76278.77493-.79782 1.71907-1.4115 2.76278-1.7958.84596-.32868 2.11686-.71928 4.45666-.82598 2.5313-.11528 3.2896-.14005 9.6983-.14005L24 4.32413zm.0038-4.32803625c-6.5182 0-7.3357.02762785-9.8955.14480825-2.5599.11718-4.30233.525881-5.82948 1.119398-1.6013.60253-3.05195 1.54698-4.25087 2.76755C2.8091 5.22724 1.86629 6.67786 1.26516 8.27872.666878 9.80587.261035 11.5502.144808 14.1044.0285805 16.6585 0 17.4816 0 23.9999s.0276278 7.3357.144808 9.8955c.11718 2.5599.52207 4.2985 1.115592 5.8257.60252 1.6013 1.54698 3.0519 2.76755 4.2509 1.19913 1.2205 2.64971 2.1652 4.25087 2.7685 1.52429.5925 3.27148.9984 5.82568 1.1155 2.5541.1172 3.3772.1439 9.8955.1439s7.3357-.0276 9.8955-.1439c2.5599-.1162 4.2985-.523 5.8257-1.1155 1.5943-.6168 3.0421-1.5598 4.2509-2.7685 1.2087-1.2088 2.1517-2.6566 2.7685-4.2509.5925-1.5243.9984-3.2715 1.1155-5.8257.1172-2.5541.1439-3.3772.1439-9.8955s-.0276-7.3357-.1439-9.8955c-.1162-2.5599-.523-4.29853-1.1155-5.82568-.6033-1.60116-1.548-3.05173-2.7685-4.25087C42.7727 2.809 41.322 1.8662 39.7212 1.26507 38.194.666783 36.4497.26094 33.8955.144712 31.3414.028485 30.5183-.00009552 24-.00009552l.0038-.00381073z"/>
<path d="M24 11.6758c-2.4376 0-4.8206.7228-6.8474 2.0772-2.0268 1.3543-3.6065 3.2792-4.5393 5.5313-.9329 2.2522-1.1769 4.7303-.7012 7.1212.4756 2.3908 1.6495 4.5869 3.3733 6.3105 1.7237 1.7236 3.9199 2.8974 6.3108 3.3728 2.3908.4755 4.869.2312 7.121-.7017 2.2521-.933 4.1769-2.5129 5.5311-4.5398 1.3541-2.027 2.0768-4.4099 2.0766-6.8476.0001-1.6185-.3186-3.2212-.9379-4.7165-.6194-1.4954-1.5272-2.854-2.6717-3.9984-1.1445-1.1445-2.5033-2.0522-3.9987-2.6714-1.4953-.6193-3.098-.9379-4.7166-.9376zm0 20.3236c-1.5827 0-3.1299-.4694-4.4459-1.3487-1.316-.8793-2.3417-2.1292-2.9474-3.5914-.6057-1.4623-.7642-3.0713-.4554-4.6237.3087-1.5523 1.0709-2.9782 2.1901-4.0974 1.1192-1.1192 2.5451-1.8814 4.0974-2.1901 1.5524-.3088 3.1614-.1503 4.6237.4554 1.4623.6056 2.7121 1.6314 3.5914 2.9474.8793 1.316 1.3487 2.8632 1.3487 4.4459 0 2.1224-.8431 4.1579-2.3439 5.6587-1.5008 1.5008-3.5363 2.3439-5.6587 2.3439zM36.8117 14.068c1.5906 0 2.88-1.2894 2.88-2.8799 0-1.59059-1.2894-2.87999-2.88-2.87999-1.5905 0-2.8799 1.2894-2.8799 2.87999 0 1.5905 1.2894 2.8799 2.8799 2.8799z"/>
</svg>
