<svg xmlns="http://www.w3.org/2000/svg" fill="currentColor" viewBox="0 0 48 46">
  <path  fill-rule="evenodd" d="M10.8882 45.9035V14.9234H.600717v30.9801H10.8882zM5.74511 10.6929c1.51717-.0091 2.96887-.6193 4.03689-1.69686 1.068-1.0776 1.6652-2.53469 1.6607-4.05188-.0045-1.51719-.6104-2.97069-1.68479-4.041914C8.68349-.168977 7.22821-.770508 5.71101-.770508c-1.5172 0-2.97252.601531-4.04694 1.672754C.589657 1.97347-.016211 3.42697-.0207265 4.94416-.025242 6.46135.571962 7.91844 1.63998 8.99604 2.708 10.0736 4.15971 10.6838 5.67688 10.6929h.06823zM16.5824 45.9035h10.2928V28.6066c-.0415-.8514.0741-1.7032.3412-2.5127.3838-1.0953 1.0969-2.0451 2.0416-2.7194.9446-.6742 2.0747-1.0399 3.2352-1.0469 3.7262 0 5.218 2.8405 5.218 7.0055v16.5744H48.004V28.1396c0-9.5167-5.0842-13.9427-11.8515-13.9427-1.8868-.0754-3.7579.372-5.4065 1.2928-1.6487.9208-3.0109 2.2791-3.9363 3.9252h.0669v-4.4901H16.5878c.1338 2.9046 0 30.98 0 30.98l-.0054-.0013z" clip-rule="evenodd"/>
</svg>
