<svg xmlns="http://www.w3.org/2000/svg" fill="currentColor" viewBox="0 0 48 49">
  <path fill-rule="evenodd" d="M24 .00244141C18.4912.00546461 13.1511 1.90343 8.876 5.37775 4.60094 8.85207 1.65118 13.6913.521805 19.0831-.607574 24.4749.152168 30.0911 2.67356 34.989c2.5214 4.8979 6.65093 8.7794 11.69544 10.993-.103-1.8474.0376-3.7002.4183-5.5109.4608-1.9484 3.0863-13.0764 3.0863-13.0764-.5218-1.1972-.7832-2.4916-.7669-3.7975 0-3.5566 2.0606-6.2127 4.627-6.2127 2.1824 0 3.2363 1.64 3.2363 3.6026 0 2.1942-1.3989 5.4766-2.1185 8.5167-.1428.563-.1515 1.1515-.0256 1.7185.126.5669.3831 1.0964.7508 1.5459s.8357.8065 1.3664 1.0424c.5307.2358 1.1094.3439 1.6894.3155 4.5455 0 7.607-5.8393 7.607-12.7609 0-5.2604-3.5447-9.1962-9.9819-9.1962-1.541-.0618-3.0785.1907-4.5187.7422s-2.753 1.3905-3.8584 2.4658c-1.1055 1.0753-1.9805 2.3644-2.5717 3.7888-.5911 1.4244-.8861 2.9543-.8669 4.4964-.0727 1.7105.4905 3.3874 1.581 4.7073.1929.1568.3305.3713.3926.612.0621.2407.0454.495-.0476.7256-.1182.4419-.3793 1.5041-.4892 1.9259-.021.1294-.0724.252-.1501.3576-.0776.1056-.1792.1913-.2965.2499-.1172.0586-.2468.0885-.3778.0873-.1311-.0013-.26-.0337-.3761-.0946-3.35207-1.3694-4.91295-5.0405-4.91295-9.1677 0-6.8177 5.74715-14.99177 17.14455-14.99177 9.1583 0 15.1867 6.63097 15.1867 13.74757 0 9.4147-5.232 16.4486-12.9441 16.4486-1.149.0305-2.2873-.2273-3.3111-.7499-1.0237-.5226-1.9003-1.2933-2.5495-2.2419 0 0-1.3918 5.5298-1.6872 6.5967-.5572 1.8193-1.37 3.5503-2.414 5.141 3.2996.9728 6.7697 1.2249 10.1752.739 3.4055-.4859 6.6667-1.6982 9.5626-3.5549s5.3588-4.3143 7.2216-7.2062c1.8629-2.892 3.0822-6.1506 3.5753-9.5551.4931-3.4044.2484-6.8751-.7174-10.1767-.9657-3.3017-2.6301-6.3571-4.8802-8.95909-2.2501-2.60203-5.0333-4.68987-8.161-6.12199C30.839.748705 27.44.00578986 24 .00244141z" clip-rule="evenodd"/>
</svg>
