<svg xmlns="http://www.w3.org/2000/svg" fill="currentColor" viewBox="0 0 48 40">
    <path fill-rule="evenodd" d="M47.9938 4.61808c-1.7973.79715-3.704 1.32035-5.6564 1.55216 2.0572-1.23135 3.5964-3.16883 4.3306-5.451207C44.7353 1.86726 42.6203 2.67616 40.4146 3.1107 38.929 1.53339 36.9652.489408 34.8268.140159c-2.1384-.349249-4.3323.015688-6.2425 1.038391-1.9102 1.0227-3.4303 2.6462-4.3253 4.61948-.8949 1.97328-1.1149 4.18643-.6259 6.29727-3.916-.1963-7.747-1.2142-11.2441-2.98746C8.89192 7.33455 5.80695 4.84548 3.33445 1.8023 2.07548 3.97122 1.6898 6.5382 2.25582 8.98132c.56602 2.44308 2.04124 4.57898 4.12573 5.97328-1.56372-.049-3.093-.4716-4.45997-1.2325v.1244c.0001 2.2744.78677 4.4788 2.22663 6.2394 1.43986 1.7606 3.44431 2.9691 5.67347 3.4205-1.45006.3958-2.97161.4537-4.44754.1692.62886 1.9577 1.85425 3.6697 3.5046 4.8963 1.65036 1.2266 3.64296 1.9064 5.69886 1.9441-4.1312 3.2307-9.37196 4.6975-14.58004141 4.0806C4.50012 37.4914 9.74097 39.0285 15.0938 39.0243c18.1135 0 28.0197-15.0129 28.0197-28.0334 0-.4279-.0091-.8528-.0274-1.27483 1.9261-1.39392 3.588-3.1203 4.9077-5.09799z" clip-rule="evenodd"/>
</svg>
