<svg viewBox="0 0 24 24" fill="currentColor"><path d="M16 10c-.553 0-1 .447-1 1s.447 1 1 1 1-.447 1-1-.447-1-1-1zm-4 0c-.553 0-1 .447-1 1s.447 1 1 1 1-.447 1-1-.447-1-1-1zm4 4c-.553 0-1 .447-1 1v4c0 .553.447 1 1 1s1-.447 1-1v-4c0-.553-.447-1-1-1zm-4 0c-.553 0-1 .447-1 1s.447 1 1 1 1-.447 1-1-.447-1-1-1zm0 4c-.553 0-1 .447-1 1s.447 1 1 1 1-.447 1-1-.447-1-1-1zm-4 2c.553 0 1-.447 1-1s-.447-1-1-1-1 .447-1 1 .447 1 1 1zM8 8h8c.553 0 1-.447 1-1V5c0-.553-.447-1-1-1H8c-.553 0-1 .447-1 1v2c0 .553.447 1 1 1zm12-8H4c-.553 0-1 .447-1 1v22c0 .553.447 1 1 1h16c.553 0 1-.447 1-1V1c0-.553-.447-1-1-1zm-1 22H5V2h14v20zM8 16c.553 0 1-.447 1-1s-.447-1-1-1-1 .447-1 1 .447 1 1 1zm0-4c.553 0 1-.447 1-1s-.447-1-1-1-1 .447-1 1 .447 1 1 1z"/></svg>