<svg viewBox="0 0 24 24" fill="currentColor"><path d="M12 0C5.373 0 0 5.373 0 12s5.373 12 12 12 12-5.373 12-12S18.627 0 12 0zm9.949 11h-7.133c-.034-.095-.098-.172-.141-.262l5.06-5.06C20.947 7.16 21.75 8.989 21.949 11zM2 12C2 6.478 6.478 2 12 2c2.401 0 4.598.854 6.321 2.265L13.266 9.32C12.878 9.134 12.46 9 12 9c-1.657 0-3 1.343-3 3 0 .462.113.895.3 1.286l-5.041 5.041C2.848 16.604 2 14.401 2 12zm11 0c0 .553-.447 1-1 1s-1-.447-1-1 .447-1 1-1 1 .447 1 1zm-1 10c-2.401 0-4.604-.848-6.327-2.259l5.041-5.041c.391.187.824.3 1.286.3 1.305 0 2.403-.838 2.816-2h7.133c-.502 5.053-4.763 9-9.949 9z"/></svg>