<svg viewBox="0 0 24 24" fill="currentColor"><path d="M6 5c-.309 0-.574.148-.758.368l-.011-.009-5 6 .011.009C.098 11.542 0 11.757 0 12s.098.458.242.632l-.011.009 5 6 .011-.009c.184.22.449.368.758.368.553 0 1-.447 1-1 0-.243-.098-.458-.242-.632l.011-.009L2.302 12l4.467-5.359-.011-.009C6.902 6.458 7 6.243 7 6c0-.553-.447-1-1-1zm9-2c-.429 0-.787.272-.93.651l-.007-.003-6 16 .007.003c-.041.11-.07.225-.07.349 0 .553.447 1 1 1 .429 0 .787-.272.93-.651l.007.003 6-16-.007-.003c.041-.11.07-.225.07-.349 0-.553-.447-1-1-1zm9 9c0-.243-.098-.458-.242-.632l.011-.009-5-6-.011.009C18.574 5.148 18.309 5 18 5c-.553 0-1 .447-1 1 0 .243.098.458.242.632l-.011.009L21.698 12l-4.467 5.359.011.009c-.144.174-.242.389-.242.632 0 .553.447 1 1 1 .309 0 .574-.148.758-.368l.011.009 5-6-.011-.009c.144-.174.242-.389.242-.632z"/></svg>