<svg viewBox="0 0 24 24" fill="currentColor"><path d="M20 5c.553 0 1-.447 1-1s-.447-1-1-1-1 .447-1 1 .447 1 1 1zM4 21c.553 0 1-.447 1-1s-.447-1-1-1-1 .447-1 1 .447 1 1 1zm8-1c4.418 0 8-3.582 8-8s-3.582-8-8-8-8 3.582-8 8 3.582 8 8 8zm-3-2.832c-.776-.452-1.435-1.076-1.942-1.812L9 13.414v3.754zM12 18c-.343 0-.673-.046-1-.101v-2.485l2.407 2.407c-.452.111-.92.179-1.407.179zm3.356-1.058L13.414 15h3.754c-.452.776-1.076 1.435-1.812 1.942zm2.465-6.349c.111.451.179.92.179 1.407 0 .343-.046.673-.101 1h-2.485l2.407-2.407zM15 6.832c.776.452 1.435 1.076 1.942 1.812L15 10.586V6.832zM14 12c0 1.104-.896 2-2 2s-2-.896-2-2 .896-2 2-2 2 .896 2 2zm-2-6c.343 0 .673.046 1 .101v2.485l-2.407-2.407C11.044 6.068 11.513 6 12 6zM8.644 7.058L10.586 9H6.832c.452-.776 1.076-1.435 1.812-1.942zM8.586 11l-2.407 2.407C6.068 12.956 6 12.487 6 12c0-.343.046-.673.101-1h2.485zM20 19c-.553 0-1 .447-1 1s.447 1 1 1 1-.447 1-1-.447-1-1-1zm3-19H1C.447 0 0 .447 0 1v22c0 .553.447 1 1 1h22c.553 0 1-.447 1-1V1c0-.553-.447-1-1-1zm-1 22H2V2h20v20zM4 5c.553 0 1-.447 1-1s-.447-1-1-1-1 .447-1 1 .447 1 1 1z"/></svg>