<svg viewBox="0 0 24 24" fill="currentColor"><path d="M9 17h6c.553 0 1-.447 1-1s-.447-1-1-1H9c-.553 0-1 .447-1 1s.447 1 1 1zM23.707 5.293l-5-5S18.546 0 18 0H1C.447 0 0 .447 0 1v22c0 .553.447 1 1 1h22c.553 0 1-.447 1-1V6c0-.276-.112-.526-.293-.707zM9 2h1v3c0 .553.447 1 1 1s1-.447 1-1V2h3v5H9V2zm9 20H6v-9h12v9zm4 0h-2V12c0-.553-.447-1-1-1H5c-.553 0-1 .447-1 1v10H2V2h5v6c0 .553.447 1 1 1h8c.553 0 1-.447 1-1V2h.586L22 6.414V22zM9 20h2c.553 0 1-.447 1-1s-.447-1-1-1H9c-.553 0-1 .447-1 1s.447 1 1 1z"/></svg>