<svg viewBox="0 0 24 24" fill="currentColor"><path d="M12 13c.553 0 1-.447 1-1V1c0-.553-.447-1-1-1s-1 .447-1 1v11c0 .553.447 1 1 1zm5.717-9.692C17.535 3.119 17.282 3 17 3c-.553 0-1 .447-1 1 0 .368.209.678.506.851l-.02.037C19.304 6.408 21 9.574 21 13c0 4.971-4.029 9-9 9s-9-4.029-9-9c0-3.426 1.665-6.592 4.482-8.112l-.011-.022C7.781 4.696 8 4.379 8 4c0-.553-.447-1-1-1-.171 0-.323.054-.464.129l-.002-.002C3.091 4.985 1 8.813 1 13c0 6.075 4.925 11 11 11s11-4.925 11-11c0-4.067-2.013-7.778-5.283-9.692z"/></svg>