<svg viewBox="0 0 24 24" fill="currentColor"><path d="M23 8h-4.867l.859-6.876-.017-.002C18.98 1.08 19 1.043 19 1c0-.553-.447-1-1-1H8c-.509 0-.913.386-.976.878L7.008.876 6.117 8H1c-.553 0-1 .447-1 1v10c0 .553.447 1 1 1h5v3c0 .553.447 1 1 1h10c.553 0 1-.447 1-1v-3h5c.553 0 1-.447 1-1V9c0-.553-.447-1-1-1zM8.883 2h7.984l-.75 6H8.133l.75-6zM16 22H8v-6h8v6zm6-4h-4v-2h1c.553 0 1-.447 1-1s-.447-1-1-1H5c-.553 0-1 .447-1 1s.447 1 1 1h1v2H2v-8h20v8zM4 13c.553 0 1-.447 1-1s-.447-1-1-1-1 .447-1 1 .447 1 1 1z"/></svg>