<svg viewBox="0 0 24 24" fill="currentColor"><path d="M13 16h6c.553 0 1-.447 1-1s-.447-1-1-1h-6c-.553 0-1 .447-1 1s.447 1 1 1zm0 4h6c.553 0 1-.447 1-1s-.447-1-1-1h-6c-.553 0-1 .447-1 1s.447 1 1 1zm10.46-9.874l.006-.011-19-10-.006.011C4.32.053 4.169 0 4 0c-.553 0-1 .447-1 1 0 .384.223.706.54.874l-.006.011L18.953 10H1c-.553 0-1 .447-1 1v12c0 .553.447 1 1 1h22c.553 0 1-.447 1-1V11c0-.384-.224-.706-.54-.874zM22 22H2V12h20v10zM7 20c1.657 0 3-1.343 3-3s-1.343-3-3-3-3 1.343-3 3 1.343 3 3 3zm0-4c.553 0 1 .447 1 1s-.447 1-1 1-1-.447-1-1 .447-1 1-1z"/></svg>