<svg viewBox="0 0 24 24" fill="currentColor"><path d="M20.708.296c-.398-.395-1.044-.395-1.442 0-.398.394-.398 1.034 0 1.428C21.101 3.49 21.991 5.763 22 8.006c.009 2.265-.882 4.5-2.734 6.282-.398.395-.398 1.034 0 1.428.398.395 1.044.395 1.442 0C22.897 13.547 24 10.776 24 8.006s-1.103-5.542-3.292-7.71zM18 8.006c.007 1.175-.561 2.295-1.706 3.277-.413.39-.413 1.022 0 1.412.413.39 1.082.39 1.495 0 1.417-1.339 2.178-3.044 2.211-4.689.035-1.708-.713-3.356-2.197-4.725-.416-.384-1.091-.384-1.507 0-.416.383-.433 1.025 0 1.39 1.13.952 1.697 2.171 1.704 3.335zM6.208 12.695c.406.39 1.065.39 1.472 0 .406-.39.406-1.021 0-1.412-1.102-.971-1.669-2.11-1.68-3.277-.011-1.173.539-2.373 1.672-3.335.431-.367.416-1.007 0-1.39-.416-.384-1.091-.384-1.507 0C4.698 4.633 3.971 6.318 4 8.006c.029 1.665.796 3.333 2.208 4.689zm-1.505 1.593C2.872 12.54 1.977 10.28 2 8.006c.022-2.233.931-4.483 2.707-6.282.394-.395.394-1.034 0-1.428-.394-.395-1.031-.395-1.424 0C1.12 2.464.012 5.235 0 8.006s1.071 5.541 3.262 7.71c.398.395 1.044.395 1.441 0 .399-.394.399-1.034 0-1.428zm14.231 8.353L14.12 10.128c.543-.543.88-1.294.88-2.122 0-1.657-1.343-2.999-3-2.999S9 6.349 9 8.006c0 .829.337 1.58.881 2.122L5.066 22.641l.006.002C5.029 22.755 5 22.874 5 23c0 .552.447 1 1 1 .426 0 .783-.269.928-.643l.006.003 1.292-3.358h7.549l1.292 3.358.006-.003c.144.374.501.643.927.643.553 0 1-.447 1-1 0-.127-.029-.245-.072-.357l.006-.002zM12 7.006c.553 0 1 .447 1 1s-.447 1-1 1-1-.447-1-1 .447-1 1-1zm-.302 3.969c.101.01.198.03.302.03s.201-.021.302-.03l1.165 3.029h-2.934l1.165-3.029zm-2.704 7.027l.77-2h4.473l.77 2H8.994z"/></svg>