<svg viewBox="0 0 24 24" fill="currentColor"><path d="M13 4c-.553 0-1 .447-1 1s.447 1 1 1 1-.447 1-1-.447-1-1-1zm6-2h-2v.027C16.089.804 14.644 0 13 0c-2.604 0-4.718 1.997-4.953 4.539L3.542 9.044c-.608.094-1.194.366-1.663.835C.707 11.05.684 10.902.293 11.293.098 11.488 0 11.744 0 12s.098.512.293.707c.187.188.462.285.707.293.267.008.504-.09.707-.293.391-.391 1.195-1.023 1.586-1.414s1.023-.391 1.414 0 .391 1.023 0 1.414-1.023 1.195-1.414 1.586C3.098 14.488 3 14.744 3 15s.098.512.293.707S3.744 16 4 16s.512-.098.707-.293c.391-.391.242-.414 1.414-1.586.469-.469.741-1.055.835-1.663l3.289-3.289C11.034 9.693 11.98 10 13 10c.479 0 .932-.09 1.368-.218l3.297 3.297c-2.795 2.755-9.048 8.89-9.372 9.214-.188.187-.285.461-.293.707-.008.266.09.504.293.707s.441.301.707.293c.246-.007.52-.105.707-.293.391-.391 10.195-10.023 10.586-10.414s1.023-.391 1.414 0 .391 1.023 0 1.414-7.023 7.195-7.414 7.586c-.203.203-.301.44-.293.707.008.245.105.52.293.707.195.195.451.293.707.293s.512-.098.707-.293c.391-.391 6.242-6.414 7.414-7.586.586-.586.879-1.353.879-2.121V7c0-2.762-2.238-5-5-5zM6.385 10.201c-.083-.11-.163-.223-.264-.322-.1-.101-.212-.181-.322-.264l2.62-2.62c.116.266.261.514.419.753l-2.453 2.453zM13 8c-1.657 0-3-1.343-3-3s1.343-3 3-3 3 1.343 3 3-1.343 3-3 3zm6.106 3.692l-2.903-2.903c.21-.181.418-.363.598-.574l3.027 3.027c-.258.11-.496.267-.722.45zM22 10.729c-1.582-1.629-4.215-4.354-4.215-4.354.126-.44.215-.896.215-1.375 0-.343-.035-.677-.101-1H19c1.657 0 3 1.343 3 3v3.729z"/></svg>