<svg viewBox="0 0 24 24" fill="currentColor"><path d="M21.389 14.087L15.361 8.05l4.118-4.124c.164.044.333.074.51.074 1.103 0 1.998-.896 1.998-2s-.895-2-1.998-2-1.997.896-1.997 2c0 .178.031.348.074.512l-4.118 4.124L7.919.598C7.765.31 7.416 0 7.008 0 7 0 6.994.004 6.986.005c-.284-.026-.576.057-.793.274-4.276 4.281-4.276 11.224 0 15.505.509.51 1.057.954 1.632 1.343l-2.709 5.426.009.005c-.068.134-.115.281-.115.442 0 .553.447 1 .999 1H12c.552 0 1-.447 1-1v-4.049c3.105.265 6.301-.787 8.678-3.167.114-.114.184-.251.231-.395.051-.12.079-.252.079-.39-.001-.407-.31-.694-.599-.912zM11.002 22H7.625l1.955-3.916c.465.201.939.371 1.422.505V22zm-3.401-7.625C4.34 11.11 4.122 5.957 6.938 2.435l12.586 12.604c-3.517 2.819-8.663 2.601-11.923-.664z"/></svg>