<svg viewBox="0 0 24 24" fill="currentColor"><path d="M14.5 13h3c.276 0 .5-.224.5-.5s-.224-.5-.5-.5h-3c-.276 0-.5.224-.5.5s.224.5.5.5zm0-9h3c.276 0 .5-.224.5-.5s-.224-.5-.5-.5h-3c-.276 0-.5.224-.5.5s.224.5.5.5zM24 6V1c0-.553-.448-1-1-1H1C.448 0 0 .447 0 1v5c0 .553.448 1 1 1v2c-.552 0-1 .447-1 1v5c0 .553.448 1 1 1v2c-.552 0-1 .447-1 1v4c0 .553.448 1 1 1h22c.552 0 1-.447 1-1v-4c0-.553-.448-1-1-1v-2c.552 0 1-.447 1-1v-5c0-.553-.448-1-1-1V7c.552 0 1-.447 1-1zm-2 16H2v-2h20v2zM3 18v-2h18v2H3zm19-4H2v-3h20v3zM3 9V7h18v2H3zm19-4H2V2h20v3zM3.5 4c.276 0 .5-.224.5-.5S3.776 3 3.5 3s-.5.224-.5.5.224.5.5.5zm0 9c.276 0 .5-.224.5-.5s-.224-.5-.5-.5-.5.224-.5.5.224.5.5.5z"/></svg>