<svg viewBox="0 0 24 24" fill="currentColor"><path d="M13.5 13c-.276 0-.5.224-.5.5s.224.5.5.5.5-.224.5-.5-.224-.5-.5-.5zm0-3c.276 0 .5-.224.5-.5s-.224-.5-.5-.5-.5.224-.5.5.224.5.5.5zm1 2c.276 0 .5-.224.5-.5s-.224-.5-.5-.5-.5.224-.5.5.224.5.5.5zm-3 1c-.276 0-.5.224-.5.5s.224.5.5.5.5-.224.5-.5-.224-.5-.5-.5zm0-3c.276 0 .5-.224.5-.5s-.224-.5-.5-.5-.5.224-.5.5.224.5.5.5zm1 2c.276 0 .5-.224.5-.5s-.224-.5-.5-.5-.5.224-.5.5.224.5.5.5zm-2 0c.276 0 .5-.224.5-.5s-.224-.5-.5-.5-.5.224-.5.5.224.5.5.5zM17 6h-1V1c0-.553-.447-1-1-1s-1 .447-1 1v5h-3V1c0-.553-.447-1-1-1S9 .447 9 1v5H8c-.553 0-1 .447-1 1v9c0 .553.447 1 1 1h1v6c0 .553.447 1 1 1s1-.447 1-1v-6h3v6c0 .553.447 1 1 1s1-.447 1-1v-6h1c.553 0 1-.447 1-1V7c0-.553-.447-1-1-1zm-1 9H9V8h7v7z"/></svg>