<svg viewBox="0 0 24 24" fill="currentColor"><path d="M21 5h-4c-.552 0-1 .447-1 1v4c0 .553.448 1 1 1h1v4c0 .553-.448 1-1 1h-4V6h1c.552 0 1-.447 1-1 0-.161-.047-.308-.115-.442l.009-.005-2-4-.009.005C12.721.23 12.391 0 12 0s-.721.23-.885.558l-.009-.005-2 4 .009.005C9.047 4.692 9 4.839 9 5c0 .553.448 1 1 1h1v14H7c-.552 0-1-.447-1-1v-4.184c1.163-.413 2-1.511 2-2.816 0-1.657-1.343-3-3-3s-3 1.343-3 3c0 1.305.837 2.403 2 2.816V19c0 1.657 1.343 3 3 3h4v1c0 .553.448 1 1 1s1-.447 1-1v-5h4c1.657 0 3-1.343 3-3v-4h1c.552 0 1-.447 1-1V6c0-.553-.448-1-1-1zM5 13c-.552 0-1-.447-1-1s.448-1 1-1 1 .447 1 1-.448 1-1 1zm6.618-9L12 3.236l.382.764h-.764zM20 9h-2V7h2v2z"/></svg>