<svg viewBox="0 0 24 24" fill="currentColor"><path d="M22 10c0-5.522-4.478-10-10-10S2 4.478 2 10c0 5.186 3.947 9.447 9 9.949V22H7c-.553 0-1 .447-1 1s.447 1 1 1h10c.553 0 1-.447 1-1s-.447-1-1-1h-4v-2.051c5.053-.502 9-4.763 9-9.949zM6.937 16.192C5.145 14.725 4 12.496 4 10c0-4.418 3.582-8 8-8s8 3.582 8 8c0 2.496-1.145 4.725-2.937 6.192.585-.926.937-2.015.937-3.192 0-3.313-2.687-6-6-6s-6 2.687-6 6c0 1.177.352 2.266.937 3.192zM12 17c-2.209 0-4-1.791-4-4s1.791-4 4-4 4 1.791 4 4-1.791 4-4 4zm-2-7c-.553 0-1 .447-1 1s.447 1 1 1 1-.447 1-1-.447-1-1-1z"/></svg>