<svg xmlns="http://www.w3.org/2000/svg" fill="currentColor" viewBox="0 0 223 154">
<path fill="#17858C" d="M42.2041 117.333h70.7699c1.475 0 1.659 1.833 1.843 2.2H43.4942c-1.2901.183-1.1058-1.467-1.2901-2.2zm1.843-114.39985H180.243c-.184-.36667-.184-2.199996-1.843-2.199996H42.757c.1843.733336.1843 2.199996 1.2901 2.199996zM180.796 117.333h-25.618c-1.474 0-1.658 1.833-1.842 2.2h26.17c1.29.183 1.29-1.467 1.29-2.2z"/>
<path  d="M51.6033 147.4c-.9215 1.1-1.2901 1.833-2.0273 2.383-1.4744 1.284-3.3174 2.017-5.1603 2.017-4.6075 0-8.2934-3.85-8.2934-8.617 0-4.766 3.8702-8.8 8.4777-8.8 1.4743 0 3.133.55 4.4231 1.284.7372.55 1.1058.916 2.0273 2.016v2.384h1.4744v-6.6h-1.4744v2.2c-2.0273-1.834-4.0546-2.75-6.6347-2.75-5.7133 0-10.1364 4.583-10.1364 10.266 0 5.684 4.2388 9.9 9.9521 9.9 3.5016 0 6.2661-1.65 8.4777-5.133l.1842-.183-1.29-.367zM64.8731 133.1c-5.7132 0-10.5049 4.584-10.5049 10.084s4.7917 10.083 10.5049 10.083 10.505-4.583 10.505-10.083c0-5.684-4.6075-10.084-10.505-10.084zm0 18.7c-4.976 0-8.8463-3.85-8.8463-8.616 0-4.767 4.0546-8.617 8.8463-8.617 4.976 0 8.8463 3.85 8.8463 8.8 0 4.583-4.0545 8.433-8.8463 8.433zM94.1765 147.4c-.9215 1.1-1.2901 1.833-2.0273 2.383-1.4743 1.284-3.3173 2.017-5.1603 2.017-4.6074 0-8.2934-3.85-8.2934-8.617 0-4.766 3.8703-8.8 8.4777-8.8 1.4744 0 3.1331.55 4.4231 1.284.7372.55 1.1058.916 2.0273 2.016v2.384h1.4744v-6.6h-1.4744v2.2c-2.0272-1.834-4.0545-2.75-6.6347-2.75-5.7132 0-10.1364 4.583-10.1364 10.266 0 5.684 4.2389 9.9 9.9521 9.9 3.5017 0 6.2661-1.65 8.4777-5.133l.1843-.183-1.2901-.367zM103.759 142.633l7.741-7.7h2.027v-1.283h-6.45v1.283h2.027l-6.819 7.15v-7.15h2.396v-1.283h-6.4505v1.283h2.3955v16.5h-2.3955v1.284h6.4505v-1.284h-2.396v-8.067l7.925 8.067h-2.396v1.284h6.819v-1.284h-2.027l-8.847-8.8zM129.93 138.05v-4.4h-13.453v4.4h1.474v-3.117h4.423v16.5h-2.58v1.284h6.819v-1.284h-2.58v-16.5h4.423v3.117h1.474zM140.066 134.933h2.211v-1.283h-7.372v1.283h2.212l-5.713 16.5h-2.396v1.284h6.635v-1.284h-2.581l1.659-4.766h7.188l1.474 4.766h-2.58v1.284h6.635v-1.284h-2.396l-4.976-16.5zm-1.659.367l2.949 9.9h-6.266l3.317-9.9zM149.097 134.933h2.396v16.5h-2.396v1.284h6.266v-1.284h-2.212v-16.5h2.212v-1.283h-6.266v1.283zM170.475 151.433h-7.924v-16.5h2.58v-1.283h-6.635v1.283h2.396v16.5h-2.396v1.284h13.454v-4.767h-1.475v3.483zM186.509 143.917c-.921-.733-2.027-1.283-3.87-1.65l-1.843-.367c-1.658-.366-2.396-.733-2.949-1.283-.552-.55-.921-1.283-.921-2.2 0-2.017 2.027-3.85 4.423-3.85 1.106 0 2.027.367 2.949.917.737.55 1.106.916 1.659 1.833v1.467h1.474v-5.134h-1.474v1.467c-1.291-1.283-2.949-2.017-4.792-2.017-3.318 0-5.898 2.384-5.898 5.317 0 2.567 1.475 4.033 4.792 4.767l2.396.55c1.659.366 2.396.733 3.133 1.283.737.55 1.106 1.467 1.106 2.567 0 2.566-1.843 4.216-4.608 4.216-1.843 0-3.686-.916-5.529-2.566v-1.65h-1.474v5.133h1.474v-1.65c1.843 1.65 3.502 2.383 5.714 2.383 3.686 0 6.081-2.383 6.081-5.683-.368-1.65-.921-2.933-1.843-3.85zM4.05469 39.7835l2.02727-1.1c.73719 4.5833 2.76446 9.1667 9.39914 9.1667 4.7918 0 9.7678-4.4 9.9521-9.9.3686-12.65-19.16694-15.4-19.16694-26.2167 0-6.41665 4.23884-9.71665 10.13634-9.71665 5.3447 0 9.3992 2.75 9.3992 7.15 0 1.09995-.3686 1.65005-1.2901 1.65005s-1.4744-.7334-1.4744-1.65005c0-4.76667-2.0272-6.6-6.819-6.6-3.6859 0-7.92477 2.2-7.92477 6.96667 0 11.36668 19.35127 14.29998 19.35127 26.39998 0 7.15-5.3447 12.4667-12.348 12.4667-5.1603-.1833-9.76773-2.3834-11.24211-8.6167zM57.3158 16.1334v31.1667h-2.9487v-4.95c-1.843 3.6667-5.1603 5.8667-9.3992 5.8667-5.3446 0-8.4777-4.0334-8.4777-8.9834v-23.1h2.9488v22.9167c0 5.8667 3.133 8.0667 6.6347 8.0667 4.6074 0 7.0033-3.4834 8.2934-6.6V16.1334h2.9487zM136.564 61.4167c0 6.9667-5.897 12.4667-13.638 12.4667-11.795 0-17.876-9.9-17.876-22.9167V24.3834c0-5.8667-3.134-8.0667-6.6352-8.0667-5.1603 0-7.7405 4.7667-8.662 7.8834v22.9166h-2.9487V24.3834c0-5.8667-3.1331-8.0667-6.6348-8.0667-5.1603 0-7.7404 4.7667-8.6619 7.8834v22.9166h-2.9488V15.9501h2.9488v6.05c1.8429-4.0334 5.3446-6.7834 9.7677-6.7834 4.6075 0 7.5562 3.1167 8.2934 7.15 1.6587-4.4 5.3446-7.15 9.9521-7.15 5.3444 0 8.4774 4.0334 8.4774 8.9834v26.5833c0 14.1167 4.423 22.1833 14.744 22.1833 6.45 0 11.611-5.5 11.611-11.7333 0-4.95-2.949-8.8-7.188-8.8-1.474 0-2.764.55-3.501 1.2833-1.659 2.2-.553 3.6667-2.212 3.6667-1.29 0-1.29-1.8333-.553-2.9333.922-1.4667 2.949-2.5667 6.266-2.5667 6.082 0 9.399 4.2167 9.399 9.5333z"/>
<path  d="M159.233 24.3834v23.1h-2.949v-23.1c0-5.8667-3.133-8.0667-6.635-8.0667-5.16 0-7.74 4.7667-8.662 7.8834v22.9166h-2.949V24.3834c0-5.8667-3.133-8.0667-6.634-8.0667-5.161 0-7.741 4.7667-8.662 7.8834v22.9166h-2.949V15.9501h2.949v6.05c1.843-4.0334 5.344-6.7834 9.768-6.7834 4.607 0 7.556 3.1167 8.293 7.15 1.659-4.4 5.345-7.15 9.952-7.15 5.345.1834 8.478 4.2167 8.478 9.1667zM197.567 35.2c0 7.5166-5.897 13.2-13.453 13.2-8.847 0-16.218-6.7834-16.218-16.3167 0-7.8833 5.528-16.5 16.218-16.5 9.215 0 13.822 6.6 13.085 13.3833h-25.618c-.184 1.1-.184 2.0167-.184 3.1167 0 10.6333 5.713 15.7667 12.901 15.7667 6.819 0 12.532-5.6834 12.716-12.4667h.553V35.2zm-25.986-7.15h23.038c.184-6.4167-3.502-11.9167-10.321-11.9167-7.372 0-11.611 4.7667-12.717 11.9167zM223.552 20.3501c0 .9166-.368 1.65-1.474 1.65-.737 0-.922-.7334-1.106-1.65-.553-2.9334-1.659-4.4-4.792-4.4-4.239 0-6.819 4.4-7.187 7.7v23.65h-2.949V16.1334h2.949v4.7667c1.474-3.4834 4.239-5.6834 8.293-5.6834 3.686.1834 6.266 2.3834 6.266 5.1334zM-1.47363 109.267c0-8.25 5.89752-14.6671 13.26943-14.6671 6.2661 0 10.1364 3.4833 10.1364 8.2501 0 2.383-2.7645 2.2-2.7645 0 0-3.8501-1.6587-7.3334-7.5562-7.3334-7.18762 0-11.242158 7.1504-11.242158 13.7504 0 9.716 6.634718 16.133 16.771058 16.133 10.3207 0 17.324-7.883 17.324-19.433 0-19.8004-20.8256-21.2671-20.8256-35.3837 0-6.4167 4.2388-9.7167 10.1363-9.7167 5.3447 0 9.3992 2.75 9.3992 7.15 0 1.1-.3686 1.65-1.2901 1.65s-1.4744-.7334-1.4744-1.65c0-4.7667-2.0272-6.6-6.819-6.6-3.6859 0-7.9248 2.2-7.9248 6.9667 0 15.0333 21.7471 17.05 21.7471 36.1167 0 13.933-9.952 21.633-20.457 21.633-10.50495-.183-18.42973-6.416-18.42973-16.866zM72.9823 90.7499c0 9.7171-7.3719 16.5001-16.2182 16.5001s-16.2182-6.783-16.2182-16.5001c0-7.8833 5.5289-16.3167 16.2182-16.3167 10.6892-.1833 16.2182 8.4334 16.2182 16.3167zm-3.3174 0c0-8.9833-4.2388-15.7667-12.9008-15.7667-8.662 0-12.9008 6.7834-12.9008 15.7667 0 10.6331 5.7132 15.7671 12.9008 15.7671 7.1876 0 12.9008-5.134 12.9008-15.7671zM84.4087 60.6835H81.46V106.15h2.9487V60.6835zM91.5967 99.7333l2.0273-1.1c.5529 3.4837 2.9487 7.6997 7.925 7.6997 4.239 0 7.372-3.3 7.372-7.5163 0-8.9834-15.297-8.9834-15.297-17.4167 0-4.2167 2.7644-7.15 8.478-7.15 2.764 0 5.344.9167 6.634 2.5667 1.106 1.2833 1.659 4.0333-.368 4.0333-1.659 0-.369-1.65-1.843-4.0333-.922-1.2834-2.396-2.0167-4.239-2.0167-3.1331 0-5.7133 1.8333-5.7133 5.5 0 8.0667 15.4813 7.7 15.4813 17.2333 0 5.3167-3.871 9.3497-9.952 9.3497-4.6078.184-9.2152-2.016-10.5053-7.1497zM118.319 103.034V63.6168l2.765-1.1v40.5172c0 13.566 4.239 21.266 14.006 21.266 6.082 0 10.69-4.95 10.69-10.816 0-4.584-2.765-8.25-6.635-8.25-1.474 0-2.58.366-3.317 1.283-1.475 2.017-.553 3.3-2.028 3.3-1.105 0-1.105-1.65-.553-2.75.738-1.283 2.765-2.383 5.898-2.383 5.345 0 8.478 3.85 8.478 8.8 0 6.416-5.529 11.55-12.533 11.55-11.057 0-16.771-9.534-16.771-22z"/>
<path  d="M138.592 66.7333c0-1.2834.921-2.2 2.211-2.2 1.29 0 2.212.9166 2.212 2.2 0 1.2833-.922 2.2-2.212 2.2s-2.211-.9167-2.211-2.2zm.737 8.25h2.949V101.75l-2.949-.55V74.9833zM180.059 93.8667c0 7.5163-6.082 13.2003-14.007 13.2003-8.846 0-16.218-6.784-16.218-16.5003 0-7.8834 5.529-16.3167 16.218-16.3167 5.345 0 9.584 1.8333 11.795 4.7667 1.475 2.0166 2.027 5.6833 0 5.6833-1.843 0-.553-2.75-2.396-5.5-1.658-2.5667-4.976-4.4-9.399-4.4-8.662 0-12.901 6.7833-12.901 15.7667 0 10.6333 5.714 15.7663 12.901 15.7663 7.372 0 12.901-5.133 12.901-12.4663h1.106zM215.075 93.8667c0 7.5163-5.897 13.2003-13.454 13.2003-8.846 0-16.218-6.784-16.218-16.317 0-7.8833 5.529-16.5 16.218-16.5 9.215 0 13.823 6.6 13.086 13.3833h-25.618c-.184 1.1-.184 2.0167-.184 3.1167 0 10.633 5.713 15.767 12.901 15.767 6.819 0 12.532-5.684 12.716-12.467h.553v-.1833zM189.089 86.9h23.037c.185-6.4167-3.501-12.1-10.32-12.1-7.372 0-11.611 4.95-12.717 12.1z"/>
</svg>
