<svg fill="currentColor" viewBox="0 0 234 116">
  <path d="M75.8626 71.08c0 .21-.61.64-.92.86-.7246.3978-1.3237.9901-1.73 1.71-.124.1943-.3059.3447-.52.43-2.45 1-4.91 1.71-7.56.74-.4138-.2047-.8683-.314-1.33-.32-2.76-.32-3.68-1.82-5.22-3.85.0014-.014-.0001-.028-.0045-.0413-.0044-.0134-.0115-.0256-.021-.036-.0094-.0104-.0209-.0186-.0337-.0243-.0129-.0056-.0267-.0085-.0408-.0084-.2392-.4222-.3472-.9062-.31-1.39 0-.1-.71-.21-.82-.85 0-.22-.1-.43 0-.54.72-1-.1-1.28-.51-1.82 0-.21.21-.53.21-.75-.1-2.67-.51-5.56.1-8.45.51-2.35.72-4.49 1.23-6.74l2.14-9.31 1.74-8.56c.1283-.6593.1985-1.3285.21-2-.31-.11-.51-.11-.72-.21 0-.11-.1-.22-.1-.32.2-1.93.92-4.07 1-6 .1-1.0677.1-2.1423 0-3.21 0-.32-1-1.39-1.84-1.17-.31.0543-.6171.1244-.92.21-2.0006.9502-3.8585 2.1754-5.52 3.64-1.13 1.18-2.46 2.35-3.58 3.64-.8656.5561-1.583 1.3146-2.09 2.21-.51 1.39-2 2.89-3 4-3.2493 3.962-5.9658 8.3325-8.08 13l-.82 2.14c-.2731 1.294-.6855 2.5547-1.23 3.76-.1796 1.0287-.4714 2.0347-.87 3-.4413 1.1434-.776 2.325-1 3.53-.1581 1.5233-.4662 3.0273-.92 4.49-1 .75-.71-.21-1.74-.53-.61-.22-2.76-.33-2.76-.86.3334-2.2739.8076-4.5249 1.42-6.74 1.13-4.28 1.64-6.74 2.76-10.81l3-11.23c2.45-9.2 3.37-13.59 3.27-16.26-.1-2.89-.41-3.75-1.94-3.75-1.33.32-1.43.86-2.05 1.28-1.8209 1.417-3.3177 3.207-4.39 5.25-.3665.4736-.7006.9714-1 1.49-.51.86-1.43 1.5-1.43 2.79 0 .1-.1.1-.1.21-1.1332 1.4349-2.0621 3.02-2.76 4.71-.2648.5068-.5797.9859-.94 1.43-.21.64-.21 1.39-.41 1.93l-5.83 15.47-3.27 8.45c-1.13 3-1.33 5.78-1.95 8.88-.2 1-.4 1.39-1.53 1.07-.5097-.1811-.9912-.4336-1.42996-.75-.34475-.1542-.67883-.3313-1-.53-1.13-.22-1.44-.43-1.23-1.29.2-1.07.71-2 1.12-4.06 1.33-6.63 2.24996-9.84 5.62996-24.08.31-1.39.51-2.78.71-4 .52-2.46.72-4.71 1.13-7.17.3899-2.3155.6304-4.6536.72-7 .2-2.24.2-4.38.3-6.52.0329-1.41066-.1389-2.81864-.51-4.18-.2117-.5785-.5047-1.12396-.87-1.62001-.1073-.20341-.2595-.37979-.4449-.51587-.1855-.13607-.3994-.22828-.6257-.26968-.2262-.0414-.4589-.03091-.6805.03068-.2217.06159-.4264.17267-.5989.32487-.8551.45512-1.61 1.07744-2.22 1.83C9.83869 7.33637 8.70905 8.98557 7.76264 10.74c-1.13 1.38-1.74 3.31-3.06 4.7-.61.64-1.13 1.5-1.64 1.39-.72-.1-2.360003-2.14-2.360003-2.67.809743-1.5866 1.767313-3.0933 2.860003-4.5 1.11023-1.62826 2.30521-3.19709 3.58-4.70001 1.21879-1.55333 2.75235-2.8313 4.49996-3.75 1.2493-.65183 2.6542-.945976 4.06-.849995.6546.128231 1.279.379324 1.84.739995 1.84 1.07 2.25 3.75001 2.87 6.42001l.3 3.64c.2285 1.2768.1945 2.5868-.1 3.85-.51 1.18 0 2.36-.1 3.53-.1169.6609-.1871 1.3292-.21 2-1 3.21-.92 6.63-1.84 9.95-.3549 1.4721-.5593 2.9765-.61 4.49.3991-.8296.7334-1.6889 1-2.57 1.54-3.1 2.76-6.42 4.3-9.52 1.3232-2.8469 2.9708-5.5313 4.91-8 1.84-2.36 3.68-4.28 6.34-5.35.7754-.31639 1.6194-.42664 2.45-.32 1.1264.11845 2.2286.40496 3.27.85.7229.2444 1.3641.6838 1.8529 1.2696.4888.5859.8062 1.2955.9171 2.0504.3064 1.4047.4075 2.8463.3 4.28 0 2.67-.71 5.24-.92 7.81-.1255 1.4748-.4173 2.9307-.87 4.34 0 .21-.31.43-.41.64-.1.21-.41.43-.41.54.51 1.49-1 2.56-.51 4.06.6775-.9592 1.2922-1.9613 1.84-3 1.7426-3.208 3.8718-6.1902 6.34-8.88 2.5207-2.7985 5.5823-5.0573 9-6.64.8108-.4667 1.7249-.7245 2.66-.75 1.8749.0625 3.718.5012 5.42 1.29.2217.1184.4003.3039.51.53 1.1023 1.7541 1.5716 3.8324 1.33 5.89-.2 2.24-.1 4.6-.51 6.74-.2814 1.0537-.4853 2.1265-.61 3.21-.21 1.28-.51 2.57-.72 3.85-.2.85-.61 1.71-1.53 1.71 0 .43.82.32.3 1-.52.68.21.65.21 1s-.61.53-.41 1.17c.2.32 0 .75 0 1.07-.1056.4845-.2772.9522-.51 1.39-.31 0-.92.11-1.33.11.3231.114.6589.1879 1 .22.0543.099.0883.2077.1.32-.001.862-.1017 1.7211-.3 2.56-.31 1.4-.82 2.89-1.23 4.5.1576.2098.2485.4621.261.7242.0124.2621-.0541.5219-.191.7458-.3466.7777-.5531 1.6105-.61 2.46-.0528.6811-.1905 1.353-.41 2-.31.75.41 1.28-.41 1.71.3.21.61.43-.1.43.2076.0768.3771.2316.4723.4314.0953.1999.1088.4289.0377.6386-.11.21-.41.42-.62.75.11.21.41.42.51.64.1452.3721.1833.7774.11 1.17-.064.6701.0791 1.3438.41 1.93.2.32 0 .86.1 1.39.1.53.1 1 .41 1.18.82.53.92 1.71 1.53 2.46.5294.6759 1.2165 1.2117 2.001 1.5603.7845.3487 1.6426.4997 2.499.4397 1.9941-.0929 3.9463-.6039 5.73-1.5 1.2104-.6223 2.3706-1.3378 3.47-2.14.16.64-1.13.75-.97 1.71zm-65.75-13.91c4.59-14.35 5.59-23.22 6.75-32.74-.5257 2.0791-.9364 4.1856-1.23 6.31-.8181 6.1238-1.9799 12.1967-3.48 18.19-.8459 2.4569-1.5602 4.9571-2.14 7.49-.03942.1247-.05092.2565-.03363.3861.01728.1297.06293.2539.13363.3639zm19.22-41.62c-.71 1.07-1.63 2-2.25 3.1-1.8574 2.9253-3.4631 6.003-4.8 9.2l-2.76 6.64c-2.76 6.52-6.24 17.65-7.16 20.33-.3397.9432-.6137 1.9089-.82 2.89-.41 1-1.23 3.63-.51 3.1l1.33-3.1c.71-1.72.82-2.79 1.53-4.18 1.7863-6.3944 4.0425-12.648 6.75-18.71.31-.32.31-.75.41-1.29.51-1 .2-2.35 1.13-3.31.71-.75.61-1.71 1.32-2.68.11-.53.41-.85.52-1.28l.92-1.61c.1222-.6341.3273-1.2494.61-1.83.1079-.5865.3548-1.1386.72-1.61 1-1.5 2-2.89 3-4.39.0884-.0788.1602-.1744.2112-.2813.0509-.1069.0801-.2228.0857-.3411.0056-.1183-.0125-.2365-.0532-.3477-.0406-.1112-.1031-.2131-.1837-.2999zm8.49 20.11l2.25-10.7-.31-.42c0 .32-1.53 5.56-1.53 5.67 0 1.17-.82 2.46-1.12 3.74-1.33 3.75-2.25 8.56-3.07 11.77-1.33 5-1.94 7.38-3 12.52.03.295.1007.5844.21.86 0 .1 4-14.77 4.09-14.77l1.12-4.17c.3237-1.5362.7787-3.0417 1.36-4.5zm19.53-18.08c-1.63.75-3 1.18-4.19 2.46-1.3312.6107-2.4391 1.6208-3.17 2.89-.1814.0872-.3525.1945-.51.32-.72.75-1.23 1.5-1.94 2.14-.71.64-.92 1.43-1.54 2.14-1.43 2-2.55 4.07-3.78 6.21-1.13 1.92-1.64 2.25-2.66 4.17l-.51 1.91c.41-.86 1.33-2.46 1.94-3.53.2514-.754.7569-1.3973 1.43-1.82l.21-.32c.71-1.61 1.33-1.61 2.15-3.21.1-.11.51-.11.51-.22.2-.64.1-1.07.3-.85l2.56-3.43c.72-1 1.43-1.92 2.25-2.89 1.1018-1.0225 2.0335-2.2141 2.76-3.53.51-.21 1-.1 1.43-.42.82-.63 1.64-1.16 2.76-2.02zm-.92 45.8l.31 2.56c-.8299-1.6138-1.0806-3.4636-.71-5.24.3181.8558.4544 1.7686.4 2.68zm0-6.53c-.4-1.82.31-3.53.82-5.35-.3 1.82-.55 3.64-.82 5.32v.03zm2.27-11.13c-.4 1.39-.61 2.89-1.22 4.6.0502-1.617.3888-3.2121 1-4.71.1 0 .1 0 .22.11zm.8 12.1l-.92-1.28-.2 5.35 1.12-.75c-.2404-.2047-.4335-.4591-.5659-.7457-.1324-.2866-.201-.5986-.201-.9143s.0686-.6277.201-.9143c.1324-.2866.3255-.541.5659-.7457zm.1-2.46c-.1805-.5579-.3142-1.1299-.4-1.71-.21.11-.52.21-.52.32 0 .75.11 1.28.11 2 .2591-.2206.5295-.4275.81-.62v.01zm-.61-10.81c-.1 0-.2 0-.2-.1s.1-.43.1-.64c.1 0 .2 0 .2.1s-.1.42-.1.63v.01zm.61-2.67c-.0578.2649-.1592.5183-.3.75-.1 0-.1 0-.21-.11l.41-.85c0 .2.1.2.1.2v.01zm.31 9.09c.61-.21 1.23-.32.92-.53.41-.21.1-.21-.2-.32.3-2.89.61-3.75.3-4.28v-.12c-.61 1.71-1.33 3.43-1.02 5.24v.01zm1.94-20c-.1018 1.192-.3059 2.373-.61 3.53l-.41-.11.87-3.43.15.01zm-.81 14.44c.1-.32.51-.64.3-1l-.3 1zm1.12-10.27c.1233.0754.2656.1136.41.11l.2-.86c-.0551.0068-.1111.0004-.1632-.0188-.0522-.0191-.0991-.0504-.1368-.0912.0065.3121-.1041.6153-.31.85v.01zm2-4.71c.0552-.0068.1112-.0004.1633.0188.0522.0191.099.0504.1367.0912.11-.11.21-.22.21-.32.2-.11.1-.32.1-.75-.1526.3355-.3403.6539-.56.95l-.05.01z"/>
  <path d="M68.7026 55.44c-.4738-.3857-.9866-.7208-1.53-1-.4283-.5621-.7206-1.2158-.8542-1.9097-.1336-.6939-.1048-1.4094.0842-2.0903.29-.7.48-1.2.67-1.8.1-.1.1-.1.1-.2.1-.6.38-1.1.57-1.8l.67-1.2c.38-.5.58-1 .77-1.2 1.0559-1.5339 2.1943-3.0094 3.41-4.42 1.1531-1.4255 2.7838-2.3848 4.59-2.7 2 .4 4.3.8 4.68 3.1.29 1.4-.48 2.3-1 3.3.77-.1 1.44-.9 2.58-.8.2941.1176.5537.3076.7548.5523.201.2448.3369.5364.3952.8477.0533.6396-.0111 1.2836-.19 1.9-.1.1-.1.3-.19.5-.3389 1.4298-.2378 2.9286.29 4.3.0639.2309.1727.447.3203.6357.1476.1888.331.3466.5397.4643.1047.0498.2191.0756.335.0756.1159 0 .2303-.0258.335-.0756.3414-.0708.676-.1711 1-.3 1.5574-.8161 3.0282-1.7877 4.39-2.9 1.25-.8 2.68-1.7 4-2.7 2.29-1.5 2.1-1.3 4.3-2.8.7464-.6345 1.5454-1.2033 2.3904-1.7l.28.2-.86 1.2c.2.5.2.5.77.1 0-.2 0-.6.48-.4-1 1.5-2.49 2.3-3.7304 3.2-.4594.3266-.9368.6271-1.43.9-.3139.4057-.7047.7455-1.15 1-.1.1-.38.1-.67.2-.0073-.0768-.043-.1481-.1-.2.2238-.0825.4233-.2201.58-.4.1747-.0674.3193-.1954.4075-.3607.0881-.1652.1138-.3567.0725-.5393 0-.1-.2-.2-.29-.2-.6291.4224-1.2212.8975-1.77 1.42-1.0906.4775-2.1021 1.1182-3 1.9-.3216.1891-.6557.3562-1 .5v.2c.28-.1.57-.1.76-.3.1207-.1438.2929-.2347.4797-.2533.1868-.0187.3735.0363.5203.1533 0-.1-.1-.2-.1-.3.67-.3 1.15-.2 1.72-.7.5671-.2949 1.109-.636 1.62-1.02-.0046.1382-.0414.2734-.1073.3949-.066.1215-.1594.2259-.2727.3051-.77.4-1.53 1-2.3 1.4-.2376.1487-.4337.3551-.57.6-.1842.1901-.4153.3281-.67.4.215.0752.4423.1091.67.1l-.1.1c-.2015.1252-.4328.1943-.67.2v.4c.48-.3 1.15-.6 1.63-.9v.2c-.5542.3784-1.0671.8142-1.53 1.3-.77.9-1.63 1.1-2.58 1.8-.57.3-.86.2-1.34.5-.3108.1639-.6504.2658-1 .3-.2778.0883-.562.1552-.85.2-.5392.0827-1.0848.1161-1.63.1-.19-.1-.76-.1-1-.3-.24-.2-.47-.5-.76-.6-.57-.8-1.24-1.2-1.63-2.1-.57-.6-.47-.8-.76-1.3-.19-.1-.19-.3-.29-.5-.57.4-.57 1.4-1.24 1.4-.19.2-.28.5-.47.6-1.2912 1.1201-2.7033 2.0928-4.21 2.9-.7011.3756-1.4777.5886-2.2722.6232-.7946.0346-1.5868-.11-2.3178-.4232-.2461.0133-.4927-.0137-.73-.08zm4.3-3.3c1.1895-.5053 2.2319-1.3034 3.03-2.32 1.43-1.6 2.1-2.8 3.54-4.4.09 0 .47-.5.47-.5h-.09c-2.11-.2-1.34-4.6-1.25-4.7-2.86.5-6.21 5.2-7.26 7.1-.9633 1.6622-1.703 3.4443-2.2 5.3 1.2611.0432 2.5209-.1189 3.73-.48h.03zm24.85-6c-.0139-.1283.0161-.2574.0851-.3664.069-.109.173-.1914.2949-.2336.1-.2.48-.3.77-.4.29-.1.57-.1.76-.2v-.6c.19-.1.2904-.3.3904-.4.1-.1 0-.2-.1-.2-.3585.3013-.7434.5691-1.1504.8-.7226.4207-1.3938.9241-2 1.5.2751.1309.5309.2991.76.5.04 0 .16-.3.16-.4h.03z"/>
  <path d="M94.2828 55.44s-.19-.2-.38-.1l-.38.6c-.5362-1.0114-.7359-2.1674-.57-3.3l.76-4.1c.2819-1.0821.4726-2.186.57-3.3.2-1.4.67-2.8.86-4.1.19-1.3.48-2.7.67-4.1.1-.2.1-.6.19-.7.0978-.1437.2269-.2633.3776-.3499.1507-.0866.319-.1379.4924-.1501 1-.4 1.71.1 2.1 1.6.2853.8351.381 1.7233.28 2.6 0 .3-.19.6-.19 1.1.29-.4.67-.7.77-1 .4642-.783 1.0442-1.491 1.7202-2.1.792-1.1336 1.814-2.0877 3-2.8.502-.4526 1.14-.7272 1.814-.7814.674-.0542 1.347.1149 1.916.4814.468.3748.916.7754 1.34 1.2.09.1.19.3.38.3.361.3203.625.7363.76 1.2l-.09.5s-.57.3-1.82-.3c-.299-.054-.606-.0463-.901.0225-.296.0688-.575.1972-.819.3775-.449.4449-.965.8162-1.53 1.1-.28.1-.48.5-.67.8-.57.5-1.14 1-1.62 1.5-.57.8-1.34 1.6-2 2.5-.66.9-1.4302 2-2.1002 3.2-.6945 1.1733-1.2707 2.4127-1.72 3.7-.38 1-.48 1.9-.77 2.8-.19.7-.19 1.4-.38 2.1-.19 1.2-.57 1.4-1.34 1.1-.62-.3-.72-.7-.72-1.6zm7.0002-14.9c.007-.0768.043-.1481.1-.2 1-1.1 1.91-2.3 2.86-3.4-.28-.8-.57.5-.86.3-.28.4-.38.8-.57.9-1 .3-1.43 1.4-2.2 2.2-.291.2595-.513.5873-.6456.9539-.1327.3666-.172.7605-.1146 1.1461.2152-.7876.7182-1.4656 1.4102-1.9h.02zm1.63 0c.57-.3.86-.9 1.33-1.4-.507.1935-.962.5015-1.33.9-.465.4942-.883 1.0297-1.25 1.6.65.1.84-.9 1.23-1.1h.02zM135.483 64.14l-7.84 2.31c-.15.0871-.312.1512-.48.19-.67-.1-.86.2-1.24.81-.004.1835-.072.3601-.19.5.187.3747.315.7761.38 1.19-.383-.044-.764-.1074-1.14-.19-.1.09-.1.09-.1.19s.38.11.57.2c-.09.5.58.91-.09 1.5.38.7.19 1.2-.29 1.41.19.79 0 1-.67 1.4.1.1.38.3.38.39-.09.31-.19.61-.38.71h.38c.1 0 .1 0 .1.1-.183.0588-.348.1619-.48.3-.19.2-.28.39-.48.5.177.3019.404.5723.67.8-.332.0454-.669.0454-1 0v.2l.86.1c.19.7.1.8-1 .7-.128.387-.192.7923-.19 1.2.332-.4161.719-.786 1.15-1.1.09.6.19.9-.39 1.1-1.14.1-1.14.8-.76 1.6l.29-.6c.19.1.47.2.57.4-.29.9-.48 1.7-.67 2.5-.094.6065-.221 1.2074-.38 1.8-.29.6-.67 0-.86-.1-.1.2-.1.3-.19.4-.29 1-.19 1 .38.8-.09-.2827-.218-.5519-.38-.8.38.1.67.2.67.3.09.3611.09.7389 0 1.1-.134.0905-.246.209-.328.3471-.083.1382-.135.2927-.152.4529-.324.1296-.659.23-1 .3-.035.0411-.061.0889-.077.1406-.015.0516-.02.1059-.013.1594.28 0 .57-.1.86-.1.029.3123-.037.6261-.19.9l-.58-.6c-.07.2031-.203.3785-.38.5l.57.1c.1.2572.1.5428 0 .8-.152-.2618-.345-.498-.57-.7-.19.7-.19 1.1-.38 1.6.09.2.48.3.67.6.19.3-.58 1.3-1.06 1.6.1.2.2.3.29.3l-.67.5c.078.3273.111.6637.1 1l-1.07-.13v.2c.346-.0413.696.0287 1 .2 0 .0265.01.0519.029.0707.019.0187.044.0293.071.0293-.283.0754-.546.2119-.77.4.48.7-.19 1.2-.38 2-.28.6-1 .8-1.15 1.4-.28.1.2 1.4-.76.7.087.3042.252.5801.48.8.09.6-.58.4-1.05.5.212.099.405.234.57.4-.247.089-.475.225-.67.4.38 1.1-1 .9-1.24 1.6l.57.4c-.369.475-.704.976-1 1.5-.027 0-.052-.011-.071-.029-.019-.019-.029-.044-.029-.071-.38.4-1 .8-1.24 1.1 0 .1 0 .2.09.2h.29c.01.076.045.146.1.2-.86 1.1-1.92 2-2.78 3 0 .303-.079.602-.229.865-.151.263-.369.482-.631.635-.66.7-1.43 1.2-2 1.9-.1.1-.1.2-.19.2-1 .4-1.53 1.4-2.78 1.4-.28.1-.47.7-.76.9-.482.357-1.04.597-1.63.7-1.124.287-2.281.422-3.4403.4-.327.092-.6731.092-1 0-1.5022-.42-2.9466-1.025-4.3-1.8-.593-.248-1.1283-.616-1.5723-1.08-.444-.465-.7871-1.016-1.0077-1.62-.19-.4-.57-.5-.86-1-.3736-1.128-.8212-2.231-1.34-3.3-.19-.2-.19-.6-.28-.9.09-.7.09-1.2.19-1.7.1455-1.714.3993-3.418.76-5.1.29-1.3.48-2.7 1-4.2.0686-.149.1634-.2845.28-.4.1482.1516.2791.3193.39.5.235-.9656.5702-1.904 1-2.8l-.29-.2c-.1.2-.29.3-.38.4-.09.1-.1 0-.19-.1.2938-.4295.5198-.9017.67-1.4.86-1.8 1.81-3.5 2.77-5.1.96-1.6 2.2-3.1 3.15-4.6.1406-.155.3022-.2897.48-.4l1-1.1c.3023-.4249.6363-.8261 1.0003-1.2.09.1.38.1.47.1l-1.1403 1.4c-.4229.334-.8709.6349-1.34.9-.0334.2404-.0972.4757-.19.7.38-.2.48-.3.67-.3.19-.2.28-.4.38-.5.1961-.2433.3576-.5125.48-.8.2803-.1.6703-.1.8603-.2.903-1.0493 1.861-2.0507 2.87-3 .47-.6622 1.052-1.2374 1.72-1.7.24.0161.478-.0549.67-.2.164-.1983.262-.4431.28-.7-2.2.9-3.44 3-5.26 4.2 0-.1-.09-.1-.19-.2.339-.4098.725-.7789 1.15-1.1.562-.7042 1.203-1.3417 1.91-1.9 1.53-1.2 3.06-2.3 4.69-3.5 1.306-1.1625 2.787-2.111 4.39-2.81l3.63-2.1c1.457-.5072 2.865-1.143 4.21-1.9l.38-.1c.231-.0241.455-.0968.656-.2135.202-.1167.376-.2747.512-.4636s.231-.4044.277-.6324c.047-.228.045-.4633-.005-.6905-.091-.1499-.126-.3268-.1-.5.041-.5179.169-1.025.38-1.5.1-.1.19-.2.19-.3.86 1 .19 2.3.39 3.51.167-.1602.267-.3784.28-.61l.58-4c0-.3.09-.6.09-.8.1-.6.29-1.3.48-2.1.19-1 .19-1.9.48-3.1.034-.3054.098-.6067.19-.9.09-.9.19-2.1.38-3v-.3c-.069.1517-.167.2878-.29.4-.57 3.3-1.14 6.6-1.81 9.8-.1.3-.1.6-.19.9-.19.0501-.384.0836-.58.1v.1c.014-.2698-.016-.5402-.09-.8.121-.0698.218-.1743.28-.3-.66-1 .1-1.7.1-2.5h.67v-.2h-.57c.24-2.0506.591-4.0869 1.05-6.1-.1.1-.1.2-.19.2-.051.0048-.098.0277-.133.0644-.035.0368-.055.0849-.057.1356-.175-.202-.41-.3423-.67-.4-.2.1-.29.5-.48.6-.29.4-.38.6-.77.8-.739 1.0086-1.606 1.9163-2.58 2.7v.1c-1.53.5-2.2 1.1-3.34 1.5-.559.1727-1.137.2736-1.72.3-.696.1501-1.415.1501-2.11 0l-2.38-.9c-.278-.2552-.506-.5605-.67-.9-.019-.1722-.083-.3364-.185-.4767-.101-.1402-.238-.2516-.395-.3233-.76-.6-.76-1.6-.86-2.6-.57-1.6 0-3.2.48-4.7.29-.6.67-1.3.86-1.8.271-.6957.606-1.3652 1-2 .09 0 .09 0 .09-.1 1-.9 1.34-2.7 2.49-3.6.84-.761 1.732-1.4627 2.67-2.1 1.01-.493 2.166-.5997 3.25-.3.48.2 1.24 0 1.63.1.57.5 1.81.7 2.39 1.1.858.6663 1.627 1.4392 2.29 2.3l.53 1.31c.57-.5 1.24-1.6 1.72-1.9l1.15.3c.781.0706 1.55.2385 2.29.5l-.28 1.9c-.302.751-.559 1.5189-.77 2.3-.163.5241-.29 1.0587-.38 1.6-.77 3.2-1 6.2-1.72 9.3-.29 1.5 0 2.9-.58 4.3-.044.8713-.137 1.7394-.28 2.6 0 0 .09.5.19.5 1.24-.1 2.39-.4 3.63-.5 1.114-.1001 2.235-.1001 3.35 0 .79-.08 1.46.82 1.46 1.42zM91.6127 92.75c-.0478.6992-.3175 1.3648-.77 1.9.2205-.6113.3518-1.2512.39-1.9h.38zm31.5403-24.3c-.1 0-.19 0-.19-.11-.058.2197-.156.4267-.29.61-.087-.0589-.186-.0965-.29-.11-.19 1-.38 2.11-.47 3.11-.1.3-.1 1.09-.86 1 .38-1.3.47-2.8.86-4.11-.77.2-1.34.7-2 .91-2.375.8664-4.624 2.0433-6.69 3.5-1.24.9-2.87 1.79-4.3 2.9-1 .8-2.3 1.4-3.44 2.4-.39.6-1.15 1.1-1.53 1.6-.58.5-1 .7-1.44 1.1-.556.5955-1.067 1.2305-1.53 1.9-.681.5873-1.3194 1.2223-1.9103 1.9-.19.4-.48 1.1-1.24.8-.1539.1046-.2834.241-.38.4l-.57.7c1 .8-.1 1.1 0 1.7-.87-.1-1.15 0-1.06.7.146-.0772.2779-.1787.39-.3-.48 1.2-1.06 2.5-1.53 3.6h-.19c.1643-.2827.292-.5851.38-.9-.1 0-.19-.1-.29-.1-.1196.3392-.3145.6469-.57.9-.1.4-.19 1-.38 1.6-.3073.4109-.5067.8922-.58 1.4-.29.8-.38 1.8-.57 2.5-.3821 1.3449-.6695 2.715-.86 4.1-.0384 1.802.025 3.605.19 5.4.0695.877.36 1.722.8444 2.457.4844.734 1.1468 1.334 1.9256 1.743.4995.197 1.0105.364 1.53.5.57 0 1.15-.2 1.63-.2v.3c-.9576-.062-1.9191-.029-2.87.1.19.1.28.2.38.2 1.2712.47 2.6744.434 3.92-.1.67-.2 1.4303-.7 2.0003-.9 1.536-.617 2.933-1.535 4.11-2.7 1.212-1.104 2.329-2.309 3.34-3.6 1.53-2 2.49-3.8 3.82-5.8 1.187-1.9955 2.243-4.0666 3.16-6.2.695-1.485 1.27-3.0232 1.72-4.6.828-2.293 1.529-4.6299 2.1-7 .48-1.8.77-3.7 1.15-5.5.303-1.0743.465-2.1838.48-3.3l.76 1c-.09.09-.29.2-.29.3-.19.5-.28 1.1-.47 1.6l-.48 4c-.069.312-.237.593-.48.8-.039.5422-.137 1.0786-.29 1.6-.38 1.4-.66 2.9-1.14 4.3-.48 1.4-.77 2.8-1.25 4.3-.141.49-.402.937-.76 1.3.068.3237.051.6595-.049.9749s-.279.5996-.521.8251c-.1.1-.29.1-.29.2.29.6-.19 1-.57 1.2-.38.2-.48.5-.86.8h.86c-.48.9-.67 2.3-1.53 2.7h.19c-.38.6-.29 1.4-1.15 1.4-.09 0-.09.2-.29.5.284-.071.548-.208.77-.4-.509.603-.927 1.276-1.24 2 0 .1-.19.2-.39.3-.2.1-.38 0-.47.1v.2l.47.1c-.397.332-.666.791-.76 1.3l-1 1.3c-.09 0-.19-.1-.28-.1l1.53-2.2c-.67.2-2.58 3.1-2.87 3.5.451-.288.841-.662 1.15-1.1l.19.2c-.48.5-.58 1.5-1.63 1.2-.144.028-.276.097-.38.2-1.202 1.305-2.478 2.54-3.82 3.7l-1.72 1.2c-.29.2-.39.3-.58.3.19.1.38.1.58.2-.179.361-.405.697-.67 1 0 .1.09.3.19.3.57-.3 1.05-.7 1.53-1 1-.6 2-1.5 3.34-1.5-.28-.1-.47-.3-.76-.4.326-.083.663-.116 1-.1 0 0 0-.2.1-.2.48-.5 1.24-.9 1.72-1.5.29-.5 1-1.1 1-1.3-.38-.7.38-.3.48-.5.1-.5.67-.9.67-1.1.09-.7.38-.8.57-1.2.48-.6.67-1.3 1.34-1.8.76-.7.57-1.9 1.53-2.6.09 0 0-.1.09-.2.231-.8172.589-1.5932 1.06-2.3.442-.3787.785-.8592 1-1.4.072-.6959.269-1.3732.58-2l.86-1.7c.28-1.1.67-2.1.86-3.3.19-.6.47-1 .67-1.6.28-.4.19-.8.47-1.4.119-.389.183-.793.19-1.2.028-.65.16-1.2914.39-1.9.046-.1635.046-.3365 0-.5.168-.41.358-.8105.57-1.2.57-.1-.48-1.4.67-1.7l-.57-.1c.088-.3468.215-.6823.38-1 0-.2-.19-.7.09-.9.382-1.2803.67-2.5872.86-3.91.019-.1278-.009-.2583-.079-.3669-.07-.1087-.177-.188-.301-.2231.158-.0425.318-.0759.48-.1v-.9c-.1 0-.1 0-.1-.1s-.09-.1-.19-.1c.1-.1.19-.21.29-.21.29-.29.76-2.5.48-2.59l-.48.3c-.027 0-.052-.0105-.071-.0293-.019-.0187-.029-.0442-.029-.0707.163-.1799.295-.3862.39-.61.09 0 .19.1.28.21-.01-.5.28-.93.28-1.3zm-31.0003 25.3c.19 0 .38.1.67.1v-1.4l-.1.1c-.2184.3816-.3992.7835-.54 1.2h-.03zm1.24-4.5l.29.2c.039-.0633.0917-.1171.1542-.1575.0625-.0404.1332-.0663.207-.0759.0737-.0096.1487-.0026.2194.0205.0708.0231.1354.0616.1894.1129-.3857.3154-.7227.6861-1 1.1.86.1 1.24-.3 1-1.1.19-.1.47-.1.57-.3.38-.5.48-1 .76-1.3.3936-.6065.8422-1.1756 1.34-1.7.0009-.1068-.0305-.2114-.09-.3.2406-.2013.5464-.3079.86-.3l-.1-.2c-.1939-.0055-.3859-.0392-.57-.1.484-.3199.9044-.7268 1.24-1.2.2432-.207.4118-.488.48-.8.1234-.2953.3392-.5426.6151-.7048.2758-.1623.5972-.2308.9152-.1952-.232.2367-.427.5063-.5803.8-.47.2-.67.6-1 .8l.19.3c.4066-.4806.8939-.8867 1.4403-1.2.874-.9803 1.799-1.9148 2.77-2.8l.38-.8c.951-.4444 1.7-1.2295 2.1-2.2h.86v-.2c-.263-.0732-.518-.1737-.76-.3l3.35-2.5c.052.0544.083.125.09.2.108-.2096.275-.3833.48-.5.19-.1.48-.4.76-.4 1.152-.4667 2.243-1.0711 3.25-1.8.38-.2.48-.5.86-.7 1.054-.5338 2.139-1.0046 3.25-1.41 1.34-.59 2.3-1.79 3.83-2 .28-.09.57-.7.19-1v-.09c.171-.3436.361-.6775.57-1-.29 0-.67-.1-.76.1-.448.3999-1.03.6145-1.63.6-.1-.1-.29.31-.48.4l-.19.21c-.281.0748-.571.1052-.86.09-.67.11-1.15.11-1 .8-.321.1414-.656.2454-1 .31-.67 0-1.24.8-2 .8v.29c.39 0 .77.21 1 .1.863-.4016 1.695-.8662 2.49-1.39.1 0-.1-.21-.1-.5l.48.59c.418-.463.939-.8216 1.52-1.0474.582-.2257 1.209-.3122 1.83-.2526-.875.3033-1.711.7095-2.49 1.21-.869.5644-1.798 1.0306-2.77 1.39-.34.2356-.738.3739-1.15.4-.389.1103-.77.2473-1.14.41-.327.363-.717.6644-1.15.89-.29.11-.48.41-.86.7-.77.41-1.91.91-2.77 1.41.108.1209.237.2223.38.3-1 .4-1.82.7-2.2 1.7-.308.0233-.605.1267-.86.3v.29c-1-.09-1.53.21-1.34.91-.38.1-1.14.1-1.14.3-.1.6-.86.9-1.34 1.3-.319.3758-.607.7771-.86 1.2.57-.4.76-.4 1 .2-.397.2109-.781.4446-1.15.7-.19-.6-.38-.6-.67-.3-.19.1-.19.3-.28.5-.002.0126 0 .0254.003.0375.004.0121.011.0232.019.0327.009.0094.019.017.031.0221.011.0052.024.0078.037.0077.257-.0656.49-.2045.67-.4 0 .2.1.3 0 .4-.261.3468-.605.622-1 .8 0 .2.1.3.2.5-.48.1-.77 0-1.2503.1.3903-.5.6703-.7 1.0003-1.1-.325.0927-.664.1266-1.0003.1.1.1.19.1.19.2-.5264.5339-.9742 1.14-1.33 1.8-.58.3-1 .5-1.25 0-.696.8565-1.3341 1.7585-1.91 2.7h.38c.2 0 .29-.1.48-.1-.09.1-.09.3-.19.5-.2294.3786-.52.7165-.86 1 .0567-.1465.0782-.3044.0625-.4608-.0156-.1563-.0679-.3068-.1525-.4392-.2285.323-.4862.6243-.77.9h.86c.1 0 .19.1.29.2-.1527.3829-.3995.7212-.7177.9834-.3181.2622-.6973.4399-1.1023.5166 0 .09 0 .39-.28.59h-.03zm7.1703 23.8c-.6169.064-1.2242.198-1.8103.4-.1.1.09.2.09.3.3282.082.674.059.9881-.067.3142-.126.5812-.347.7622-.633h-.03zm5.74-3.5c.09.1.09.1.19.1-.86.7-1.44 1.5-2.1 2.1-.1-.1-.2-.1-.2-.2.32-.9 1.37-1.3 2.14-2h-.03zm.19-35.7c.185.1097.393.1757.608.193.215.0173.431-.0145.632-.093.1-.2.48-.41.57-.7.635-.4794 1.304-.9138 2-1.3.19-.11.29-.5.48-.5.836-.1585 1.585-.6217 2.1-1.3h-.86c.1.19 0 .39.1.6-.86-.6-1.34 0-1.72.7-.134-.0148-.268.017-.38.09-1.32.8-2.32 1.61-3.5 2.28l-.03.03zm1.43 33.8l.38.3c-.569.468-1.11.969-1.62 1.5.1-.2-.1-.4-.1-.4l1.34-1.4zm14.91-61.41c.67.1.77-.5 1-.8-.38-.2-.58-.6-.86-.9-.208-.2035-.355-.4619-.422-.745-.067-.2832-.053-.5797.042-.855.018-.9115-.214-1.8106-.67-2.6-.097-.1429-.224-.2622-.373-.3488-.149-.0866-.316-.1383-.487-.1512-1.474.0541-2.874.661-3.92 1.7-.77.7-1.53 1.2-2.2 1.9-.1.2-.48.5-.67.8l.1.5c-.48.7-1.15 1.3-1.63 2.1-.57 1.2-1 2.4-1.43 3.5-.396.8099-.464 1.7412-.19 2.6.28 0 .67-.1 1-.1 1.382-.2154 2.727-.6192 4-1.2.48-.1 1-1.1 2.11-.5-.29-.8 0-1.1.57-1.1h.09c.365-.6647.937-1.1915 1.63-1.5.19 0 .38-.3.57-.5.38-.6 1.44-.7 1.53-1.6.001-.0294.008-.0583.021-.0848.013-.0264.031-.0498.054-.0687s.049-.0328.077-.0408c.029-.008.059-.0099.088-.0057h-.03zm-10.29 23.58c.38 0 .76.31 1 .2.33-.076.63-.2503.86-.5-.311-.1067-.643-.1351-.968-.0827-.324.0523-.631.1837-.892.3827zm10.23 13.11c.015-.141-.021-.2827-.1-.4-.102-.0182-.199-.052-.29-.1-.017.2118-.082.417-.19.6-.09.3-.09.5-.19.9.114.0689.246.1036.38.1.1-.38.32-.78.39-1.08v-.02zm.19-1.4c.097-.3763.224-.7441.38-1.1-.76.22-.86.39-.38 1.12v-.02zm2.1-33.71c-.265.0476-.506.1812-.687.3801-.181.1989-.291.452-.313.7199h-.87v.2l-.09-.1v.1c-.1 0-.1 0-.1.1s-.09.1-.09.2c0 .3-.1.6-.1.8.58-.2.77-.7 1-.7.48 0 .67-.3.86-.7 0-.1.1-.1.2-.2.1-.28.19-.48.19-.8z"/>
  <path d="M135.002 55.44c-.473-.3856-.986-.7208-1.53-1-.429-.5615-.721-1.2156-.853-1.91-.132-.6944-.1-1.4101.093-2.09.28-.7.47-1.2.67-1.8.09-.1.09-.1.09-.2.1-.6.38-1.1.57-1.8l.67-1.2c.39-.5.58-1 .77-1.2 1.067-1.5278 2.215-2.9966 3.44-4.4 1.154-1.4255 2.784-2.3847 4.59-2.7 2 .4 4.3.8 4.68 3.1.29 1.4-.48 2.3-1 3.3.77-.1 1.44-.9 2.59-.8.292.1197.549.3106.748.5551.199.2445.334.535.392.8449.054.6396-.011 1.2836-.19 1.9-.09.1-.09.3-.19.5-.339 1.4298-.237 2.9287.29 4.3.064.2309.173.447.321.6358.147.1887.331.3465.539.4642.105.0498.22.0756.335.0756.116 0 .231-.0258.335-.0756.359-.0665.711-.167 1.05-.3 1.559-.8137 3.03-1.7855 4.39-2.9 1.25-.8 2.68-1.7 4-2.7 2.29-1.5 2.1-1.3 4.3-2.8.747-.6344 1.546-1.2032 2.39-1.7l.29.2-.86 1.2c.19.5.19.5.76.1 0-.2 0-.6.48-.4-1 1.5-2.49 2.3-3.73 3.2-.459.3266-.936.6271-1.43.9-.313.4057-.704.7455-1.15 1-.1.1-.38.1-.67.2-.006-.075-.038-.1455-.09-.2.22-.0857.415-.2229.57-.4.175-.0674.32-.1954.408-.3607.088-.1652.114-.3566.072-.5393 0-.1-.19-.2-.29-.2-.675.4119-1.314.8802-1.91 1.4-1.09.4776-2.102 1.1182-3 1.9-.321.1892-.655.3562-1 .5v.2c.29-.1.57-.1.76-.3.121-.1437.293-.2346.48-.2533.187-.0187.374.0363.52.1533 0-.1-.1-.2-.1-.3.67-.3 1.15-.2 1.72-.7.57-.288 1.115-.6224 1.63-1-.004.1382-.041.2734-.107.3949s-.159.226-.273.3051c-.77.4-1.53 1-2.3 1.4-.237.1487-.433.3551-.57.6-.184.1901-.415.3281-.67.4.215.0752.443.1091.67.1l-.1.1c-.201.1252-.432.1943-.67.2v.4c.48-.3 1.15-.6 1.63-.9v.2c-.554.3784-1.067.8142-1.53 1.3-.76.9-1.62 1.1-2.58 1.8-.57.3-.86.2-1.34.5-.295.1576-.617.2594-.95.3-.281.0869-.569.1537-.86.2-.539.0827-1.084.1161-1.63.1-.19-.1-.76-.1-.95-.3-.19-.2-.48-.5-.77-.6-.57-.8-1.24-1.2-1.62-2.1-.58-.6-.48-.8-.77-1.3-.19-.1-.19-.3-.29-.5-.57.38-.57 1.38-1.23 1.38-.2.2-.29.5-.48.6-1.291 1.1201-2.703 2.0928-4.21 2.9-.701.3756-1.477.5886-2.272.6232-.794.0346-1.587-.11-2.318-.4232-.256.0167-.513-.0104-.76-.08zm4.3-3.3c1.199-.4953 2.251-1.2867 3.06-2.3 1.43-1.6 2.1-2.8 3.54-4.4.09 0 .47-.5.47-.5h-.09c-2.1-.2-1.34-4.6-1.24-4.7-2.87.5-6.22 5.2-7.27 7.1-.963 1.6622-1.703 3.4443-2.2 5.3 1.263.0375 2.523-.1314 3.73-.5zm24.85-6c-.014-.1282.017-.2574.086-.3664.069-.109.173-.1913.294-.2336.1-.2.48-.3.77-.4.29-.1.57-.1.76-.2v-.6c.19-.1.29-.3.39-.4.1-.1 0-.2-.1-.2-.358.3013-.743.5691-1.15.8-.722.4208-1.393.9241-2 1.5.276.1309.531.2992.76.5.1 0 .19-.3.19-.4z"/>
  <path d="M160.612 55.44s-.19-.2-.38-.1l-.38.6c-.536-1.0114-.736-2.1674-.57-3.3l.76-4.1c.282-1.0821.473-2.186.57-3.3.2-1.4.67-2.8.86-4.1.19-1.3.48-2.7.67-4.1.1-.2.1-.6.19-.7.098-.1437.227-.2633.378-.3499.151-.0866.319-.1379.492-.1501.95-.4 1.71.1 2.1 1.6.286.8351.381 1.7233.28 2.6 0 .3-.19.6-.19 1.1.29-.4.67-.7.77-1 .464-.783 1.044-1.491 1.72-2.1.793-1.1336 1.815-2.0877 3-2.8.503-.4526 1.14-.7272 1.815-.7814.674-.0542 1.347.1149 1.915.4814.469.3748.916.7754 1.34 1.2.09.1.19.3.38.3.362.3203.625.7363.76 1.2l-.09.5s-.57.3-1.82-.3c-.298-.054-.605-.0463-.901.0225-.296.0688-.574.1972-.819.3775-.448.4449-.965.8162-1.53 1.1-.28.1-.48.5-.67.8-.57.5-1.14 1-1.62 1.5-.57.8-1.34 1.6-2 2.5-.66.9-1.43 2-2.1 3.2-.694 1.1733-1.27 2.4127-1.72 3.7-.38 1-.48 1.9-.77 2.8-.19.7-.19 1.4-.38 2.1-.19 1.2-.57 1.4-1.34 1.1-.63-.3-.72-.7-.72-1.6zm7-14.9c.008-.0768.043-.1481.1-.2 1-1.1 1.91-2.3 2.86-3.4-.28-.8-.57.5-.86.3-.28.4-.38.8-.57.9-1 .3-1.43 1.4-2.2 2.2-.291.2595-.512.5873-.645.9539-.133.3666-.172.7605-.115 1.1461.216-.7876.719-1.4656 1.41-1.9h.02zm1.63 0c.57-.3.86-.9 1.33-1.4-.506.1935-.962.5015-1.33.9-.464.4942-.882 1.0297-1.25 1.6.65.1.84-.9 1.23-1.1h.02zM193.023 43.04c-.114.0797-.253.1152-.39.1-.164-.0156-.328.0193-.47.1.17.0765.329.1775.47.3-.09.2-.28.2-.47.5 0 .1-.29 0-.48 0 .027.1954-.004.3947-.089.5727-.085.1779-.222.3266-.391.4273-.29.3-.48.6-.86.4-.1-.2 0-.5-.1-.7h-.09c0 .1-.1.1-.1.2 0 .4-.09.5-.48.5-.09 0-.28.2-.38.3-.1.1-.09.6 0 .6.38.3.1.4-.09.5l-1 1c-.052-.0524-.118-.0874-.19-.1l.48-.6c.006-.075.038-.1455.09-.2-.95.5-1.62 1.3-1.34 1.8.1-.1.2-.3.29-.3.29 0 .48-.1.77-.1.046.1635.046.3365 0 .5-.273-.0298-.547.0413-.77.2.1.1.1.2.19.4.265-.2013.554-.3692.86-.5 0-.6.39-.9.67-1.3.904-.8281 1.737-1.7313 2.49-2.7.09 0 .19-.1.28-.1l.1.1c-.57.8-1.15 1.6-1.91 2.5-.463.5465-.975 1.0487-1.53 1.5-.191.3231-.415.6248-.67.9-.122.1764-.189.3855-.19.6.291-.2954.609-.5632.95-.8-.19.6-.76.9-1.33 1.4-.122.1507-.22.3194-.29.5.09 0 .09 0 .19.1.29-.2.57-.5 1-.8 0 .2.09.3 0 .4-.381.3747-.736.7756-1.06 1.2-.19.2-.28.5-.47.7l-.48.5c-.786.5761-1.463 1.2871-2 2.1-.406.5054-.889.9441-1.43 1.3-.449.349-.973.5886-1.53.7-.57.3-1.24.6-1.91 1-.653.1062-1.322.0011-1.91-.3-1-.2-1.34-1.1-2-1.6-.19-.1-.19-.4-.29-.6-.1-.2987-.263-.5719-.48-.8-.09-.4-.38-.6-.47-1-.106-1.825.117-3.6542.66-5.4.248-1.3204.582-2.6232 1-3.9.38-1.8.86-3.5 1.34-5.4v-.8c-.1-.4 0-.7.38-.7s.57-.3.86.2c.29.5 1 .8 1.24 1.3.404.2906.747.6575 1.01 1.08.177.4802.208 1.002.09 1.5-.025.5526-.154 1.0955-.38 1.6-.29 1.2-.67 2.4-1 3.7-.203.3815-.364.7839-.48 1.2-.108.1463-.174.3192-.19.5.28.9-.29 1.8-.38 2.8-.09 1-.29 1.8-.39 2.8.992-.2452 1.911-.7253 2.68-1.4 1.53-1.4 3.25-2.8 4.68-4.3 1.43-1.5 2.87-3 4.3-4.4 1.15-1.1 2.39-2.2 3.64-3.5.13.22.22.82-.25 1.72zm-14-11.4c-.283-.3436-.482-.7485-.581-1.1825-.099-.4341-.095-.8852.011-1.3175.236-.6484.604-1.2408 1.081-1.7399.477-.4991 1.052-.8941 1.689-1.1601.09-.1.48-.1.48-.1 1.05-.1 1.62.2 1.81.9.431 1.0095.533 2.1294.29 3.2-.425.9788-1.164 1.7881-2.1 2.3-.266.1129-.556.1538-.842.1187-.286-.0351-.558-.145-.788-.3187-.359-.2004-.697-.4348-1.01-.7h-.04zm7.74 17.4c-.95 0-1.14 1.2-2 1.6v.1l1.62-.6c0-.1-.1-.1-.1-.2s-.19.1-.38.1l-.09-.1c.353-.2729.684-.5739.99-.9h-.04zm2.49-.2c.09 0 .09 0 .19.1-.104.3416-.231.6758-.38 1-.154-.1076-.287-.2433-.39-.4l.58-.7z"/>
  <path d="M204.203 22.44l-.1.2c3.73-.1 4.49-.1 6.41-.3.28.2.19.3 0 .4l-1.44.2c-.637.2449-1.32.3473-2 .3-.48 0-1.34 0-2.58.1-1.06 0-2.49-.1-3.35 0h-1.05l-1 3.4c-.225.1495-.4.3624-.503.6117-.104.2493-.13.5237-.077.7883.1.2-.09.4-.28.7.012.2765-.033.5527-.133.8109-.1.2581-.252.4928-.447.6891 0 .2-.19.4-.09.6.1.2.19.6-.39.8-.09 0 0 .2 0 .4-.161.6261-.287 1.2604-.38 1.9-.184.4243-.344.8583-.48 1.3-.19 1-.66 2-.76 2.9-.32.5509-.515 1.1654-.57 1.8-.347 1.0771-.604 2.1808-.77 3.3-.154.3215-.345.6237-.57.9.28.5 0 1.1 0 1.6 0 .2-.29.6-.29.9-.121.3879-.152.7984-.09 1.2-.263.7727-.395 1.5839-.39 2.4-.001.1842-.069.3618-.19.5-.09 0 0 .1.19.2-.115.3513-.273.6872-.47 1 .38.5.47 2.3 0 2.4.19.2.47.3.09.5.38.1.38.4.38.8-.042.7122.056 1.4257.29 2.1.002.244.053.4851.151.7085.098.2235.24.4248.419.5915l.67.8c.86.5 1 .6 1.82.5.667-.0137 1.321-.185 1.91-.5.29 1-.57 1.6-1 2.4-.19.3-.38.4-1 .4h.19c-.528.1311-1.079.1361-1.609.0145s-1.024-.3664-1.441-.7145c-.86-.3-1.25-.9-2-1.8-.165-.2527-.356-.4873-.57-.7-.968-1.7296-1.586-3.6322-1.82-5.6-.256-2.0278-.223-4.0817.1-6.1.013-1.2144.171-2.4229.47-3.6l.67-2.8c.38-1.1.38-2.2.77-3.5 0-.4.28-.7.47-1.2h.2c-.1-.1-.1-.3-.2-.4l3.06-10 1-3.1c-1.471-.0193-2.94-.1194-4.4-.3-1.14-.3-2.2-.5-2.29-1.4.003-.2264.067-.4478.185-.6412.118-.1935.285-.3519.485-.4588.48-.6.86-.5.86-.5s.38.1.57 0c.28-.1798.599-.2916.931-.3263.332-.0347.667.0085.979.1263l1.82.2c.697-.0768 1.398-.1102 2.1-.1.57-1 .67-2 1.24-3 .29-1 .67-1.9 1.06-2.9s.86-2.1 1.14-3.3c.48-1.10001.67-2.20001 1.25-3.40002 0-.4.28-.59999.57-1.09999.19-.7.57-1.70001.76-2.40001.19-.7.48-.69999.86-.59999.1.2.29.2.48.3.77.5 1.63.7 1.72 1.5.1.3.48.5.67.79999.77.5.48 1.00001.19 1.70001-.71 1.85156-1.538 3.65531-2.48 5.40001-.446 1.2918-.956 2.5601-1.53 3.8-.474 1.1693-.858 2.3727-1.15 3.6.823.1459 1.655.2461 2.49.3 4.58.2 5.16.3 7.16-.1.2-.1.67-.5 1-.3.29 1-1.15 1.1-1.53 1.7l-.19.1c-.746-.0419-1.493.06-2.2.3-.38-.3-1.62-.1-2.2 0l-1.77.2zm-14.91 27.9l.57-4.2c.1-1.2.57-2.5.67-3.7.38-1.4.76-2.5 1-3.9.19-1 .67-2.1 1-3.2.33-1.1.57-2 .67-3 .668-1.6323 1.243-3.3018 1.72-5l.28-.9c.199-.1432.339-.3549.393-.5947.053-.2398.016-.4908-.103-.7053-.19.3-.76 1.5-.76 1.5-.2.3-.29.8-.39.9-.244 1.2231-.578 2.4264-1 3.6-.478 1.2109-.892 2.4459-1.24 3.7l-.87 2.8c-.19 1.2-.47 2.2-.66 3.3-.39 1.2-.67 2.4-1 3.6-.19.8-.1 1.6-.38 2.5.045.766.045 1.534 0 2.3-.19.3 0 .7 0 1-.1.5-.48 1.2.09 1.6.097-.5286.101-1.0703.01-1.6zm8.7-25.3l-.58.9c-.095.2448-.262.4543-.48.6-1 3-1.91 6.8-3 10-.1-.1-.19-.1-.19-.2 0-.3.09-.5-.1-.6-.28-.9.67-1.4.58-2.2-.19-.2.19-.7.19-.7.445-.8847.765-1.8271.95-2.8.082-.3958.246-.7702.48-1.1.19-.2.19-.2.19-.5v-.9l.39-1.1.86-1.3c-.137-.005-.273.0297-.39.1l.39-1.1h-.39c-.102.6565-.294 1.2958-.57 1.9l-.38.6c-.229.6826-.389 1.386-.48 2.1-.384.4895-.617 1.0802-.67 1.7-.291.8497-.625 1.6841-1 2.5-.048.7444-.278 1.4657-.67 2.1-.29.5 0 .9-.38 1.4-.232.4675-.361.9788-.38 1.5.09.3-.1.5-.29.8-.29.3678-.427.8338-.38 1.3.058.3934.027.7948-.088 1.1752-.116.3804-.315.7304-.582 1.0248 0 .1-.19.2 0 .2.28.6 0 .6-.1.8l.19.4c-.123.0522-.23.1347-.312.2396-.083.1049-.137.2289-.158.3604-.29.8-.29 1.5-.58 2.2.054.0539.089.1242.1.2-.1.2.19.4-.1.6-.09.1.1.6.19.9 0 .1.1.1.19.2-.66.4-.38 1.1-.57 1.8-.045.5324-.045 1.0676 0 1.6 0 .2-.19.4-.09.7.2.3105.314.6687.329 1.0378.016.3691-.067.7357-.239 1.0622.034.1957.137.3729.29.5.09-.1.09-.1.19-.1.045-.766.045-1.534 0-2.3 0-.9.09-1.7.09-2.5 0-.4.2-1 .2-1.3.106-.2894.17-.5925.19-.9-.1-.2.09-.5-.1-.8-.19-.3 0-.5.38-.7-.051-.0048-.098-.0277-.133-.0644-.035-.0368-.055-.085-.057-.1356.043-.165.146-.3078.29-.4-.047-.8109.051-1.6237.29-2.4.05-.0557.081-.1256.09-.2.087-.5205.248-1.0257.48-1.5 0-.1-.1-.4 0-.5.236-.6866.426-1.3881.57-2.1h.19c0-.2-.19-.3-.19-.6.202-.0813.396-.1817.58-.3-.48-.2-.48-.2 0-.5-.054-.0543-.125-.0894-.2-.1-.19-.6.67-.6.77-1.1 0 .2.09.3.09.5-.476 1.0479-.796 2.1596-.95 3.3-.25.5449-.441 1.1148-.57 1.7-.122.2835-.157.5967-.1.9.1 0 .29 0 .29.1s-.29.1-.29.2c-.343.8661-.568 1.7741-.67 2.7-.255.6343-.321 1.329-.19 2h.38c-.106-.2894-.17-.5925-.19-.9.334-1.0125.591-2.0488.77-3.1.106-.1238.235-.2257.38-.3.28-.1.38-.1.38-.2s-.29-.4-.57-.4c.081-.1889.112-.3956.09-.6.19.2.48.3.58.5.38-.5-.48-.5-.58-.7.108-.1795.236-.3471.38-.5.188-.5518.318-1.1214.39-1.7v-.3c.47-.2.28-.5.19-.9l.38-.1c0-.3-.1-.5 0-.7.08-.2283.144-.4623.19-.7l.38.6c-.016-.2378.018-.4763.1-.7h-.48c.215-.458.392-.9329.53-1.42.18.103.339.2386.47.4.038-.4769.135-.9471.29-1.4.1-.4.19-.8-.29-.9.1-.2.29-.4.19-.5-.19-.9.67-1.7.86-2.5.35-1.1164.637-2.2515.86-3.4.352-.8078.656-1.6359.91-2.48zm-5.83 23.7c-.58 0-.2.8-.87.8l-.19-.3c-.007.075-.038.1455-.09.2-.033.4372-.097.8716-.19 1.3.013.502-.02 1.0042-.1 1.5l.1-.1.76-.8c-.086.1726-.183.3396-.29.5.137-.0152.276.0203.39.1.071-.3959.101-.798.09-1.2h-.19v.3c0 .1-.29.2-.48.3.1-.2-.09-.5.1-.5.09-.2.29-.3.67-.7-.1-.32.19-.8.29-1.4zm-.29 4.8c.049-.0549.116-.0904.19-.1-.108-.1215-.237-.223-.38-.3-.1.4-.29.8-.39 1.2.1.2.48.6.39.9h.09c.29-.3.1-.7.1-.9-.101-.2572-.101-.5428 0-.8zm2.48-14.72h-.28c-.2.6-.2 1.1-.39 1.6.39-.3.67-.5.67-.8 0-.3-.19-.58 0-.8zm4.3-15.5c0 .1-.09.1-.28.2l-.38 1.3h.09l.77-1.2c0-.18-.1-.18-.15-.28l-.05-.02z"/>
  <path d="M199.233 55.44c-.474-.3856-.987-.7208-1.53-1-.428-.5621-.721-1.2157-.854-1.9097-.134-.6939-.105-1.4093.084-2.0903.29-.7.48-1.2.67-1.8.1-.1.1-.1.1-.2.159-.6094.349-1.2102.57-1.8l.67-1.2c.38-.5.57-1 .77-1.2 1.066-1.5278 2.214-2.9966 3.44-4.4 1.149-1.4248 2.777-2.3842 4.58-2.7 2 .4 4.31.8 4.69 3.1.28 1.4-.48 2.3-1 3.3.77-.1 1.44-.9 2.58-.8.294.1176.554.3076.755.5523.201.2448.337.5364.395.8477.048.6396-.017 1.2826-.19 1.9-.1.1-.1.3-.19.5-.337 1.4292-.24 2.9266.28 4.3.137.4625.444.8558.86 1.1.105.0498.219.0756.335.0756.116 0 .23-.0258.335-.0756.359-.0652.711-.1656 1.05-.3 1.56-.816 3.035-1.7876 4.4-2.9 1.24-.8 2.68-1.7 4-2.7 2.29-1.5 2.1-1.3 4.3-2.8.746-.6344 1.546-1.2032 2.39-1.7l.28.2-.86 1.2c.19.5.19.5.77.1 0-.2 0-.6.48-.4-1 1.5-2.49 2.3-3.73 3.2-.461.3294-.942.6299-1.44.9-.308.4079-.696.7483-1.14 1-.1.1-.39.1-.67.2-.007-.0768-.043-.1481-.1-.2.222-.085.421-.2222.58-.4.175-.0657.32-.1939.407-.36.087-.1661.109-.3584.063-.54 0-.1-.19-.2-.28-.2-.677.4094-1.316.8779-1.91 1.4-1.091.4776-2.102 1.1182-3 1.9-.306.1872-.623.3542-.95.5v.2c.28-.1.57-.1.76-.3.121-.1437.293-.2346.48-.2533.186-.0187.373.0363.52.1533 0-.1-.1-.2-.1-.3.67-.3 1.15-.2 1.72-.7.57-.288 1.115-.6224 1.63-1-.005.1382-.041.2734-.107.3949s-.16.226-.273.3051c-.77.4-1.53 1-2.3 1.4-.238.1487-.434.3551-.57.6-.184.1901-.415.3281-.67.4.215.0752.442.1091.67.1l-.1.1c-.202.1252-.433.1943-.67.2v.4c.48-.3 1.15-.6 1.63-.9v.2c-.554.3784-1.067.8142-1.53 1.3-.77.9-1.63 1.1-2.58 1.8-.58.3-.86.2-1.34.5-.311.1639-.651.2658-1 .3-.281.0893-.569.1561-.86.2-.536.0831-1.078.1165-1.62.1-.19-.1-.77-.1-1-.3-.23-.2-.47-.5-.76-.6-.58-.8-1.24-1.2-1.63-2.1-.57-.6-.47-.8-.76-1.3-.19-.1-.19-.3-.29-.5-.67.4-.67 1.4-1.34 1.4-.19.2-.28.5-.47.6-1.291 1.1201-2.703 2.0928-4.21 2.9-.701.3756-1.478.5886-2.272.6232-.795.0346-1.587-.11-2.318-.4232-.214-.0031-.426-.0368-.63-.1zm4.3-3.3c1.198-.4953 2.251-1.2867 3.06-2.3 1.43-1.6 2.1-2.8 3.53-4.4.1 0 .48-.5.48-.5h-.09c-2.11-.2-1.34-4.6-1.25-4.7-2.86.5-6.21 5.2-7.26 7.1-.963 1.6622-1.703 3.4443-2.2 5.3 1.262.0368 2.522-.1321 3.73-.5zm24.85-6c-.014-.1282.016-.2574.085-.3664.069-.109.173-.1913.295-.2336.1-.2.48-.3.77-.4.29-.1.57-.1.76-.2v-.6c.152-.1068.281-.2428.38-.4 0-.1 0-.2-.09-.2-.358.3013-.743.5691-1.15.8-.72.4245-1.391.9276-2 1.5.279.1283.539.2968.77.5.08 0 .18-.3.18-.4z"/>
</svg>