<svg viewBox="0 0 24 24" fill="currentColor"><path d="M11 10h-1V9c0-.553-.447-1-1-1s-1 .447-1 1v1H7c-.553 0-1 .447-1 1 0 .552.447 1 1 1h1v1c0 .552.447 1 1 1s1-.448 1-1v-1h1c.553 0 1-.448 1-1 0-.553-.447-1-1-1zm12.275 2.064l.006-.005-5.023-6.015C17.708 5.41 16.906 5 16 5H1c-.553 0-1 .447-1 1v10c0 .552.447 1 1 1h1.184c.413 1.162 1.511 2 2.816 2s2.403-.838 2.816-2h6.367c.413 1.162 1.512 2 2.816 2s2.403-.838 2.816-2H21c1.657 0 3-1.343 3-3 0-.741-.279-1.411-.725-1.936zM5 17c-.553 0-1-.448-1-1 0-.553.447-1 1-1s1 .447 1 1c0 .552-.447 1-1 1zm12 0c-.553 0-1-.448-1-1 0-.553.447-1 1-1s1 .447 1 1c0 .552-.447 1-1 1zm4-2h-1.184c-.413-1.162-1.512-2-2.816-2s-2.403.838-2.816 2H7.816C7.403 13.838 6.305 13 5 13s-2.403.838-2.816 2H2V7h14c.269 0 .511.109.69.281l-.003.003L18.955 10H16c0-.553-.447-1-1-1s-1 .447-1 1v1c0 .552.447 1 1 1h5.626l1.089 1.304c.175.18.285.425.285.696 0 .552-.447 1-1 1z"/></svg>