<svg viewBox="0 0 24 24" fill="currentColor"><path d="M23 7c0-.377-.12-.691-.304-1-.859-1.445-3.373-1.736-6.527-1.016C15.234 1.97 13.717 0 12 0S8.768 1.969 7.834 4.985C4.678 4.263 2.163 4.555 1.304 6 1.125 6.3 1 6.636 1 7c0 1.606.903 3.184 2.664 5.002C1.891 13.833 1 15.609 1 17c0 .353.131.709.304 1 .859 1.445 3.373 1.736 6.527 1.016C8.766 22.03 10.283 24 12 24s3.232-1.969 4.166-4.985c3.156.723 5.671.431 6.531-1.015.178-.3.303-.636.303-1 0-1.388-.904-3.184-2.665-5.003C22.082 10.194 23 8.382 23 7zM3.086 17c-.469-.789.323-2.172 1.945-3.717.603.517 1.261 1.026 1.971 1.522.088.842.211 1.653.37 2.418-2.187.592-3.817.566-4.286-.223zm3.781-4.736c-.113-.087-.227-.173-.337-.258.112-.088.213-.176.33-.264-.002.087-.006.171-.006.258 0 .091.012.173.013.264zm.134-3.069c-.711.497-1.365 1.009-1.968 1.525C3.41 9.175 2.618 7.789 3.086 7c.469-.789 2.101-.815 4.29-.223-.159.766-.288 1.573-.375 2.418zm7.738-1.803c.02.127.028.273.047.403-.072-.041-.14-.084-.212-.125s-.146-.076-.218-.116c.124-.05.259-.116.383-.162zM12 2c.938 0 1.776 1.358 2.342 3.494-.762.249-1.546.55-2.343.897-.796-.35-1.578-.648-2.339-.896C10.226 3.358 11.063 2 12 2zM9.27 7.395c.128.049.259.1.39.151-.077.043-.155.08-.233.124-.077.043-.15.09-.227.134.021-.143.048-.271.07-.409zm-.009 9.213c-.02-.127-.028-.273-.047-.403.072.041.14.084.213.125s.146.076.218.116c-.125.05-.26.117-.384.162zM12 22c-.938 0-1.776-1.358-2.342-3.494.762-.249 1.547-.55 2.343-.897.796.35 1.578.648 2.339.896C13.774 20.642 12.938 22 12 22zm2.73-5.395c-.128-.049-.259-.101-.39-.151.078-.043.155-.08.233-.124.077-.043.15-.09.227-.134-.021.143-.048.271-.07.409zm.31-2.9c-.48.303-.977.602-1.496.893-.528.296-1.044.548-1.562.804-.503-.251-1.013-.516-1.526-.804-.513-.287-1.004-.583-1.479-.882-.031-.564-.065-1.124-.065-1.716 0-.582.019-1.149.048-1.705.48-.303.977-.602 1.496-.893.528-.297 1.044-.548 1.562-.804.504.251 1.013.516 1.526.804.513.287 1.004.583 1.479.882.031.563.065 1.124.065 1.716 0 .582-.019 1.149-.048 1.705zM20.914 7c.469.789-.323 2.172-1.945 3.717-.603-.517-1.261-1.026-1.971-1.522-.088-.842-.211-1.653-.37-2.418 2.187-.592 3.817-.566 4.286.223zm-3.781 4.736c.114.086.228.172.337.258-.112.088-.213.175-.329.264.001-.087.005-.171.005-.258 0-.091-.012-.173-.013-.264zM20.914 17c-.469.789-2.101.815-4.29.223.159-.767.288-1.572.375-2.418.71-.497 1.365-1.009 1.968-1.525 1.623 1.545 2.415 2.931 1.947 3.72zM12 11c-.552 0-1 .447-1 1s.448 1 1 1 1-.447 1-1-.448-1-1-1z"/></svg>