<svg viewBox="0 0 24 24" fill="currentColor"><path d="M13.681 8.6l.024-.025c-1.256-1.224-2.691-1.927-4.501-1.437-1.81.489-2.695 1.854-3.177 3.548l.017.004c-.046.171-.065.351-.017.534.147.555.712.883 1.261.734.355-.096.6-.375.701-.706l.01.003c.29-1.017.653-1.816 1.738-2.11 1.031-.279 1.717.147 2.428.818.246.329.669.495 1.087.382.549-.148.875-.718.727-1.272-.05-.194-.164-.345-.298-.473zm8.507-4.772c-1.12-1.119-3.145-1.23-4.737-.971C16.626 1.75 15.554 1 14.015 1c-1.383 0-2.391.587-3.18 1.505-1.114-.631-2.439-.698-3.858-.317-1.571.422-2.309 1.453-2.792 2.818-.166-.032-.329-.021-.483.021l-.005-.016C2.001 5.492.635 6.378.146 8.186.066 8.477 0 8.727 0 9c0 1.127.326 2.133 1.009 3.014 0 .017-.004.032-.004.049H.988c.03 1.8.509 3.381 2.046 4.347.763.479 1.514.644 2.253.58l-1.232 3.694.013.004c-.034.099-.064.202-.064.312 0 .553.448 1 1.001 1 .442 0 .806-.291.938-.688l.012.004 1.505-4.511c.71.241 1.481.291 2.336.059 1.18-.32 1.964-1.006 2.503-1.914.713.648 1.59 1.05 2.717 1.05 1.634 0 2.744-.819 3.587-2.037 1.197.136 2.324-.104 3.284-1.067 1.201-1.206 1.52-2.354 1.137-3.896l-.025-.029c.268.009.538-.083.741-.287.13-.129.201-.288.244-.453l.016.003c0-1.645-.524-3.119-1.812-4.406zm-.96 4.432c-.278.278-.341.688-.195 1.028.199.864.22 1.596-.464 2.282-.721.724-1.508.649-2.43.419l-.002.01c-.303-.07-.631-.003-.867.234-.137.137-.205.308-.239.484-.486.753-1.019 1.283-2.015 1.283-1.093 0-1.635-.652-2.16-1.524l-.009.005c-.016-.024-.045-.037-.063-.062-.016-.021-.038-.035-.056-.056-.127-.146-.288-.244-.478-.297-.057-.018-.11-.04-.169-.047-.023-.001-.043-.019-.068-.019-.062 0-.114.024-.172.035-.046.006-.09-.004-.135.008-.027.008-.05.024-.076.034-.005.002-.009.004-.014.006-.364.139-.614.463-.659.84-.284.94-.665 1.655-1.691 1.935-1.081.293-1.789-.216-2.54-.95l-.008.008c-.25-.236-.6-.354-.954-.259-.525.143-.834.675-.728 1.208-.329.003-.664-.066-1.026-.294-.702-.44-.947-1.061-1.034-1.807.175-.134.32-.309.381-.536.114-.417-.053-.841-.383-1.086-.671-.711-1.098-1.396-.818-2.425C2.449 7.633 3.988 7.289 5.005 7v-.037c.081-.002.16.007.242-.015.419-.112.704-.468.753-.874.284-.935.479-1.614 1.51-1.891 1.06-.285 1.969-.274 2.714.405.182.244.459.412.788.412.421 0 .778-.261.926-.629C12.439 3.568 12.977 3 14.015 3c1.093 0 1.634.652 2.16 1.524l.007-.004c.037.058.063.12.113.171.17.17.387.257.61.277.04.006.071.032.113.032.159 0 .305-.046.439-.112.936-.207 2.596-.363 3.315.354.773.772 1.292 1.303 1.292 2.51l.01.002c-.009.039.006.078.001.117-.34.07-.675.215-.847.389z"/></svg>