<svg viewBox="0 0 24 24" fill="currentColor"><path d="M7 5c.11 0 .213-.03.313-.063l.004.012 9-3-.004-.012C16.709 1.805 17 1.441 17 1c0-.553-.447-1-1-1-.111 0-.213.029-.313.063l-.004-.012-9 3 .004.012C6.291 3.195 6 3.559 6 4c0 .552.447 1 1 1zm9.651-.93l-.003-.007-8 3 .003.007C8.272 7.213 8 7.571 8 8c0 .552.447 1 1 1 .124 0 .239-.029.349-.07l.003.007 8-3-.003-.007c.379-.143.651-.501.651-.93 0-.553-.447-1-1-1-.124 0-.239.029-.349.07zM9.478 14.084c-.755-.297-1.488-.662-2.184-1.084C4.286 14.824 2 17.724 2 21v2c0 .552.447 1 1 1s1-.448 1-1v-2c0-2.956 2.501-5.531 5.478-6.916zM17 19c-.11 0-.213.029-.313.063l-.004-.012-9 3 .004.012C7.291 22.195 7 22.559 7 23c0 .552.447 1 1 1 .11 0 .213-.03.313-.063l.004.012 9-3-.004-.012c.396-.132.687-.496.687-.937 0-.553-.447-1-1-1zm-9.651.93l.003.007 8-3-.003-.007c.379-.143.651-.501.651-.93 0-.553-.447-1-1-1-.124 0-.239.029-.349.07l-.003-.007-8 3 .003.007c-.379.143-.651.501-.651.93 0 .552.447 1 1 1 .124 0 .239-.029.349-.07zM21 0c-.553 0-1 .447-1 1v2c0 2.956-2.501 5.531-5.479 6.916.756.297 1.488.661 2.185 1.084C19.714 9.176 22 6.276 22 3V1c0-.553-.447-1-1-1zm-9 11c-4.418 0-8-3.582-8-8V1c0-.553-.447-1-1-1S2 .447 2 1v2c0 5.522 4.478 10 10 10 4.418 0 8 3.582 8 8v2c0 .552.447 1 1 1s1-.448 1-1v-2c0-5.522-4.478-10-10-10z"/></svg>