<svg viewBox="0 0 24 24" fill="currentColor"><path d="M8 18h1v1c0 .552.448 1 1 1h4c.552 0 1-.448 1-1v-1h1c.552 0 1-.448 1-1v-4c0-.553-.448-1-1-1h-1v-1c0-.553-.448-1-1-1h-4c-.552 0-1 .447-1 1v1H8c-.552 0-1 .447-1 1v4c0 .552.448 1 1 1zm1-4h1c.552 0 1-.448 1-1v-1h2v1c0 .552.448 1 1 1h1v2h-1c-.552 0-1 .447-1 1v1h-2v-1c0-.553-.448-1-1-1H9v-2zm14-7h-4V4c0-1.657-1.343-3-3-3H8C6.343 1 5 2.343 5 4v3H1c-.552 0-1 .447-1 1v14c0 .552.448 1 1 1h22c.552 0 1-.448 1-1V8c0-.553-.448-1-1-1zM7 4c0-.553.448-1 1-1h8c.552 0 1 .447 1 1v3H7V4zm15 17H2V9h20v12z"/></svg>