<svg viewBox="0 0 24 24" fill="currentColor"><path d="M8 14c.276 0 .526-.112.707-.293l4-4C12.888 9.526 13 9.276 13 9c0-.553-.447-1-1-1-.276 0-.526.112-.707.293l-4 4C7.111 12.474 7 12.724 7 13c0 .553.447 1 1 1zm9-9h-1.719l.688-2.758-.018-.004C15.972 2.159 16 2.084 16 2c0-.553-.447-1-1-1h-1c0-.553-.448-1-1-1h-2c-.553 0-1 .447-1 1H9c-.553 0-1 .447-1 1 0 .084.028.159.048.238l-.018.004L8.719 5H7C5.343 5 4 6.343 4 8v12c0 1.657 1.749 2.469 3 3 0 0 2.5 1 5 1s5-1 5-1c1.22-.531 3-1.343 3-3V8c0-1.657-1.343-3-3-3zm1 15c0 .553-.51.75-1 1 0 0-2.5 1-5 1s-5-1-5-1c-.553-.281-1-.447-1-1V8c0-.553.447-1 1-1h3c.553 0 1-.447 1-1 0-.084-.028-.16-.048-.238l.018-.004L10.28 3h3.438l-.689 2.758.019.004C13.028 5.84 13 5.916 13 6c0 .553.447 1 1 1h3c.553 0 1 .447 1 1v12zm-2-4c-.276 0-.526.112-.707.293l-3 3c-.181.181-.293.431-.293.707 0 .553.447 1 1 1 .276 0 .526-.112.707-.293l3-3c.181-.181.293-.431.293-.707 0-.553-.447-1-1-1zm0-6c-.276 0-.526.112-.707.293l-8 8C7.111 18.474 7 18.724 7 19c0 .553.447 1 1 1 .276 0 .526-.112.707-.293l8-8c.181-.181.293-.431.293-.707 0-.553-.447-1-1-1z"/></svg>