<svg viewBox="0 0 24 24" fill="currentColor"><path d="M21 14c0-3.014-1.908-5.575-4.579-6.562l1.365-1.849C17.912 5.423 18 5.225 18 5c0-.627-.4-.8-.4-.8l-.67-.606.956-1.151C17.953 2.308 18 2.161 18 2c0-.276-.112-.526-.293-.707l-1-1S16.546 0 16 0c-.276 0-.526.112-.707.293l-1.244 1.244L13.6 1.2S13.446 1 13 1c-.327 0-.604.167-.786.41L6.2 9.4s-.2.155-.2.6c0 .627.4.8.4.8l4 3s.154.2.6.2c.327 0 .604-.168.786-.41l1.344-1.763C13.49 13.078 14.632 14 16 14c1.192 0 2.213-.701 2.697-1.708.195.532.303 1.106.303 1.708v3c0 2.762-2.238 5-5 5-2.419 0-4.436-1.718-4.899-4H11c.553 0 1-.448 1-1 0-.553-.447-1-1-1H5c-.553 0-1 .447-1 1 0 .552.447 1 1 1h2.079c.224 1.558.954 2.95 2.026 4H4c-.553 0-1 .447-1 1 0 .552.447 1 1 1h16c.553 0 1-.448 1-1 0-.553-.447-1-1-1h-1.121C20.182 20.729 21 18.964 21 17v-3zm-10.2-2.4L8.4 9.8l4.8-6.4 2.4 1.8-4.8 6.4zm5.2.4c-.553 0-1-.448-1-1 0-.553.447-1 1-1s1 .447 1 1c0 .552-.447 1-1 1z"/></svg>