<svg viewBox="0 0 24 24" fill="currentColor"><path d="M21 1c-1.657 0-3 1.343-3 3 0 .136.022.266.04.396L12.942 7.31C12.211 6.51 11.169 6 10 6c-.697 0-1.343.194-1.913.508L5.859 3.724C5.947 3.499 6 3.256 6 3c0-1.104-.896-2-2-2s-2 .896-2 2 .896 2 2 2c.102 0 .198-.016.296-.03l2.325 2.907C6.233 8.493 6 9.218 6 10c0 1.06.419 2.017 1.092 2.731L3.494 17.05C3.332 17.022 3.169 17 3 17c-1.657 0-3 1.343-3 3s1.343 3 3 3 3-1.343 3-3c0-.75-.285-1.428-.74-1.954l3.541-4.249c.381.12.778.203 1.199.203.77 0 1.481-.228 2.092-.604l4.945 4.238c-.022.119-.037.241-.037.366 0 1.104.896 2 2 2s2-.896 2-2-.896-2-2-2c-.231 0-.45.047-.657.119l-4.868-4.173c.324-.578.525-1.235.525-1.946 0-.319-.047-.626-.118-.924L18.95 6.18c.537.505 1.255.82 2.05.82 1.657 0 3-1.343 3-3s-1.343-3-3-3zM3 21c-.553 0-1-.448-1-1 0-.553.447-1 1-1 .552 0 1 .447 1 1 0 .552-.448 1-1 1zm7-9c-1.104 0-2-.896-2-2s.896-2 2-2 2 .896 2 2-.896 2-2 2zm11-7c-.553 0-1-.448-1-1 0-.553.447-1 1-1 .552 0 1 .447 1 1 0 .552-.448 1-1 1z"/></svg>