<svg viewBox="0 0 24 24" fill="currentColor"><path d="M12 4c1.657 0 3-1.343 3-3 0-.553-.448-1-1-1s-1 .447-1 1c0 .552-.448 1-1 1s-1-.448-1-1c0-.553-.448-1-1-1H2c-.552 0-1 .447-1 1v22c0 .552.448 1 1 1s1-.448 1-1V2h6.184C9.597 3.162 10.696 4 12 4zm10 6V9c0-.553-.448-1-1-1s-1 .447-1 1v1c-.552 0-1 .447-1 1 0 .552.448 1 1 1v6.5c0 1.933-1.567 3.5-3.5 3.5-1.781 0-3.234-1.335-3.455-3.055C15.823 18.668 18 16.351 18 13.5V6c0-.553-.448-1-1-1H7c-.552 0-1 .447-1 1v7.5c0 2.882 2.225 5.22 5.046 5.454C11.28 21.775 13.618 24 16.5 24c3.038 0 5.5-2.463 5.5-5.5V12c.552 0 1-.448 1-1 0-.553-.448-1-1-1zM8 7h8v3.382c-.922-.403-2.391-.65-4.031.618-1.627 1.257-3.063 1.025-3.969.628V7zm4 10c-1.975 0-3.606-1.435-3.931-3.317.914.398 2.327.601 3.9-.683 1.627-1.328 3.104-1.065 4.031-.642V13c0 2.209-1.791 4-4 4z"/></svg>