<svg viewBox="0 0 24 24" fill="currentColor"><path d="M6.707 9.707l3-3c.391-.391.391-1.023 0-1.414s-1.023-.391-1.414 0l-3 3c-.391.391-.391 1.023 0 1.414s1.023.391 1.414 0zM14 6c.552 0 1-.448 1-1 0-.553-.448-1-1-1-.553 0-1 .447-1 1 0 .552.447 1 1 1zm-8 7c-.553 0-1 .447-1 1 0 .552.447 1 1 1 .552 0 1-.448 1-1 0-.553-.448-1-1-1zm6 0c.552 0 1-.448 1-1 0-.553-.448-1-1-1-.553 0-1 .447-1 1 0 .552.447 1 1 1zm.293 2.293l-3 3c-.391.391-.391 1.023 0 1.414s1.023.391 1.414 0l3-3c.391-.391.391-1.023 0-1.414s-1.023-.391-1.414 0zM12 0C5.372 0 0 5.372 0 12c0 6.627 5.372 12 12 12 6.627 0 12-5.373 12-12 0-6.628-5.373-12-12-12zm0 22C6.477 22 2 17.522 2 12S6.477 2 12 2c5.522 0 10 4.478 10 10s-4.478 10-10 10zm3.707-13.707c-.391-.391-1.023-.391-1.414 0s-.391 1.023 0 1.414l3 3c.391.391 1.023.391 1.414 0s.391-1.023 0-1.414l-3-3z"/></svg>