<svg viewBox="0 0 24 24" fill="currentColor"><path d="M23.706 22.288l-1.711-1.711v-2.593c0-.548-.294-.709-.294-.709l-9.317-9.317.282-.305c.184-.18.306-.42.306-.698 0-.554-.449-1.002-1.003-1.002-.169 0-.321.053-.461.126L6.654 1.241C5.875.48 4.951 0 4 0 2.996 0 1.969.311 1.154 1.128.317 1.969 0 2.965 0 4c0 .93.503 1.896 1.239 2.656l4.84 4.852c-.073.14-.126.292-.126.461 0 .554.449 1.002 1.003 1.002.54 0 .709-.293.709-.293l.293-.294 9.317 9.317c.182.182.432.294.709.294h2.593l1.711 1.711c.182.182.433.294.709.294.554 0 1.003-.449 1.003-1.003 0-.276-.112-.527-.294-.709zM7.457 10.05L2.692 5.285l.007-.006c-.802-.804-.895-1.889-.095-2.694.802-.805 1.881-.68 2.682.125l.008-.008 4.756 4.755-2.593 2.593zm11.53 10.527l-9.611-9.611 1.59-1.59 9.611 9.611-1.59 1.59z"/></svg>