<svg viewBox="0 0 24.002 24" fill="currentColor"><path d="M18.238 18.239c-.404.404-.404 1.062 0 1.467.405.404 1.063.404 1.467 0 .405-.405.405-1.063 0-1.467-.404-.405-1.061-.405-1.467 0zM4.279 4.279c-.405.405-.405 1.062 0 1.467s1.062.405 1.467 0 .405-1.062 0-1.467-1.061-.405-1.467 0zm18.223 11.119L8.557 1.452C7.562.457 6.304-.014 5 0 3.732.014 2.419.484 1.452 1.452.464 2.44-.007 3.705 0 5c.007 1.276.479 2.583 1.452 3.557l13.945 13.945c.974.974 2.328 1.49 3.603 1.498 1.296.008 2.514-.509 3.502-1.498.943-.942 1.462-2.267 1.498-3.502.039-1.335-.479-2.583-1.498-3.602zM4.65 8.913c.369.138.799.064 1.096-.233.405-.405.405-1.062 0-1.467s-1.062-.405-1.467 0c-.297.297-.371.727-.233 1.096L2.873 7.136c-1.178-1.178-1.178-3.086 0-4.263 1.177-1.178 3.085-1.178 4.262 0l1.174 1.173c-.37-.138-.799-.064-1.096.233-.405.405-.405 1.062 0 1.467s1.062.405 1.467 0c.296-.297.371-.726.232-1.096l2.023 2.022-4.263 4.263L4.65 8.913zm3.418 3.418l4.263-4.263 3.599 3.599-4.263 4.263-3.599-3.599zm13.013 8.751c-1.177 1.177-3.085 1.177-4.263 0l-1.143-1.144c.369.138.8.063 1.097-.232.404-.405.404-1.063 0-1.467-.405-.405-1.063-.405-1.467 0-.297.296-.371.727-.233 1.096l-2.004-2.004 4.263-4.262 2.004 2.003c-.369-.138-.8-.063-1.097.233-.404.405-.404 1.062 0 1.467.405.405 1.063.405 1.467 0 .297-.297.371-.728.233-1.097l1.143 1.144c1.178 1.177 1.178 3.085 0 4.263z"/></svg>