<svg viewBox="0 0 24 24" fill="currentColor"><path d="M23.707 22.293L19.414 18l1.293-1.293c.181-.181.293-.431.293-.707s-.112-.526-.293-.707l-11-11C9.526 4.112 9.276 4 9 4c-.276 0-.526.112-.707.293L7 5.586 4.414 3l1.293-1.293C5.888 1.526 6 1.276 6 1c0-.553-.448-1-1-1-.276 0-.526.112-.707.293l-4 4C.112 4.474 0 4.724 0 5c0 .552.448 1 1 1 .276 0 .526-.112.707-.293L3 4.414 5.586 7 4.293 8.293C4.112 8.474 4 8.724 4 9s.112.526.293.707l11 11c.181.181.431.293.707.293.276 0 .526-.112.707-.293L18 19.414l4.293 4.293c.181.181.431.293.707.293.552 0 1-.448 1-1 0-.276-.112-.526-.293-.707zM16 18.586L14.414 17l1.293-1.293c.181-.181.293-.431.293-.707 0-.553-.448-1-1-1-.276 0-.526.112-.707.293L13 15.586 11.414 14l1.293-1.293c.181-.181.293-.431.293-.707 0-.553-.448-1-1-1-.276 0-.526.112-.707.293L10 12.586 8.414 11l1.293-1.293C9.888 9.526 10 9.276 10 9c0-.553-.448-1-1-1-.276 0-.526.112-.707.293L7 9.586 6.414 9 9 6.414 18.586 16 16 18.586z"/></svg>