<svg viewBox="0 0 24 24" fill="currentColor"><path d="M9 14c-.553 0-1 .447-1 1 0 .552.447 1 1 1s1-.448 1-1c0-.553-.447-1-1-1zm1-7c-.553 0-1 .447-1 1 0 .552.447 1 1 1s1-.448 1-1c0-.553-.447-1-1-1zm13 4h-1.051c-.063-.64-.19-1.26-.369-1.857l.803-.329c.502-.205.743-.779.537-1.282-.206-.502-.779-.743-1.282-.537l-.802.328c-.308-.579-.669-1.125-1.079-1.63l.939-.939c.4-.4.4-1.05 0-1.449-.399-.4-1.049-.4-1.449 0l-.939.939c-.505-.411-1.051-.771-1.63-1.079l.328-.802c.206-.503-.035-1.077-.537-1.282-.503-.206-1.077.035-1.283.537l-.329.802c-.597-.179-1.217-.306-1.857-.369V1c0-.553-.447-1-1-1s-1 .447-1 1v1.051c-.64.063-1.26.19-1.857.369l-.33-.803c-.205-.502-.779-.743-1.282-.537-.502.205-.743.779-.537 1.282l.328.802c-.579.308-1.125.668-1.63 1.079l-.939-.939c-.4-.4-1.05-.4-1.449 0-.4.399-.4 1.049 0 1.449l.939.939c-.41.505-.771 1.051-1.079 1.63l-.802-.328c-.503-.206-1.077.035-1.282.537-.206.503.035 1.077.537 1.282l.803.33c-.179.597-.306 1.217-.369 1.857H1c-.553 0-1 .447-1 1 0 .552.447 1 1 1h1.051c.063.64.19 1.26.369 1.857l-.803.328c-.502.206-.743.78-.537 1.283.205.502.779.743 1.282.537l.802-.328c.308.579.669 1.125 1.079 1.629l-.939.94c-.4.4-.4 1.049 0 1.449.399.4 1.049.4 1.449 0l.939-.939c.505.41 1.051.771 1.63 1.079l-.328.802c-.206.503.035 1.076.537 1.282.503.206 1.077-.035 1.282-.538l.329-.802c.598.18 1.218.307 1.858.37V23c0 .552.447 1 1 1s1-.448 1-1v-1.051c.64-.063 1.26-.19 1.857-.369l.328.802c.206.503.78.744 1.283.538.502-.206.743-.779.537-1.282l-.328-.802c.579-.308 1.125-.669 1.63-1.079l.939.939c.4.4 1.05.4 1.449 0 .4-.4.4-1.049 0-1.449l-.939-.94c.41-.504.771-1.05 1.079-1.629l.802.328c.503.206 1.076-.035 1.282-.537.206-.503-.035-1.077-.537-1.283l-.803-.328c.179-.598.306-1.218.369-1.857H23c.552 0 1-.448 1-1 0-.554-.448-1.001-1-1.001zm-11 9c-4.418 0-8-3.582-8-8s3.582-8 8-8 8 3.582 8 8-3.582 8-8 8zm4-11c-.553 0-1 .447-1 1 0 .552.447 1 1 1s1-.448 1-1c0-.553-.447-1-1-1z"/></svg>