<svg viewBox="0 0 24 24" fill="currentColor"><path d="M7 14c-1.657 0-3 1.343-3 3s1.343 3 3 3 3-1.343 3-3-1.343-3-3-3zm0 4c-.552 0-1-.448-1-1 0-.553.448-1 1-1s1 .447 1 1c0 .552-.448 1-1 1zm15 .184V15c0-.553-.448-1-1-1h-7.7c-1.012-2.119-3.044-3.648-5.468-3.939L7.42 8H16c.552 0 1-.448 1-1 0-.553-.448-1-1-1H7.02L5.98.804l-.02.004C5.869.351 5.484 0 5 0H1C.448 0 0 .447 0 1c0 .552.448 1 1 1h3.18l1.624 8.12C2.511 10.69 0 13.544 0 17c0 3.866 3.134 7 7 7s7-3.134 7-7c0-.343-.053-.671-.101-1H20v2.184c-1.163.413-2 1.512-2 2.816 0 1.657 1.343 3 3 3s3-1.343 3-3c0-1.305-.837-2.403-2-2.816zM7 22c-2.762 0-5-2.238-5-5s2.238-5 5-5c2.761 0 5 2.238 5 5s-2.239 5-5 5zm14 0c-.552 0-1-.448-1-1 0-.553.448-1 1-1s1 .447 1 1c0 .552-.448 1-1 1z"/></svg>