<svg fill="currentColor" viewBox="0 0 236 116">
  <path d="M78.2026 14.91c-.91.61-1.65.84-2.31-.11-.13-.31.44-.46 1-.95.3791-.242.7003-.5646.9405-.9449.2403-.3802.3937-.8088.4495-1.2551.1315-.6052.0391-1.2377-.26-1.78-.1825-.25762-.4161-.47492-.6862-.63836-.2701-.16344-.5709-.26952-.8838-.31164l-.75-.1c-.2669.09058-.5518.11461-.83.07-.4.08-.83.08-1.18.19-.09 0-.13.12-.09.15-.78-.07-1.3.08-1.48.34-.1313.1079-.2758.19863-.43.27-.1907.09193-.3985.14302-.61.15-.22 0-.35.12-.44.38l-1 .68c-.65.5-2.65 1.29-3.79 3-1.14 1.71-.08 3.33 1.35 4.32.74.45 1.57.83 2.31 1.21.31.19.61.3.92.46 1.5729.6851 3.0625 1.5474 4.44 2.57.9917.7465 1.785 1.7252 2.31 2.85.1768.4157.2256.8747.1401 1.3183-.0855.4436-.3014.8515-.6201 1.1717-1.31 1.59-4.62 2.84-7.41 3.22-1.8636.27-3.7564.27-5.62 0-3.18-.49-5.23-2.42-5.36-5-.0193-.3825.041-.7648.177-1.1228.1359-.358.3447-.6839.613-.9572l.3-.12s0-.07-.13-.07c.5877-.5043 1.2666-.8913 2-1.14 1-.45 2.36.68 1.62.91-1.44.38-2.53 1.14-2.66 2.62-.0675.671.0463 1.3479.3295 1.96.2832.6121.7254 1.137 1.2805 1.52.7917.4299 1.6701.676 2.57.72 1.0025.0442 2.0069-.006 3-.15 2.1641-.3283 4.247-1.0611 6.14-2.16.6137-.3541 1.1481-.8307 1.57-1.4.2582-.2917.4184-.657.4579-1.0446.0394-.3875-.0438-.7777-.2379-1.1154-.4004-.7037-.9499-1.3112-1.61-1.78-1.1836-.912-2.4897-1.6526-3.88-2.2-.9239-.4338-1.8251-.9144-2.7-1.44-1.2281-.6041-2.2661-1.5348-3-2.69-.3428-.5874-.4968-1.2659-.4414-1.9438.0555-.6778.3177-1.3223.7514-1.8462.4606-.6582 1.0532-1.2133 1.74-1.63.8592-.6098 1.7771-1.13236 2.74-1.56 1.7884-.88247 3.7114-1.4604 5.69-1.71 1.4601-.18844 2.9435.05127 4.27.69.35.23999.6352.56294.83.94.4337.9437.518 2.0109.2378 3.011-.2803 1.0001-.9068 1.8681-1.7678 2.449zm-19.39 12c.13.41.31.91.44 1.4.0402-.4999-.1179-.9956-.44-1.38v-.02zm10.42-17c-1.27.64-2.75 1.21-3.53 2.23v.08c.0797-.04.1537-.0904.22-.15.2078-.2791.4929-.4912.82-.61.2968-.2579.6348-.4641 1-.61.48-.22 1-.41 1.36-.64.0406-.03.0736-.0692.0962-.1144.0226-.0452.0342-.0951.0338-.1456v-.04zm6.18 17.21l-.43.41c-.35.23-.53.31-.66.72.3152-.1403.5979-.3446.83-.6.0892-.0545.1611-.1333.2071-.2272.0461-.0938.0644-.1989.0529-.3028zm.7-1.52v.3c.0265.1629.0842.3191.17.46.09-.38.09-.54-.17-.76zM88.1927 15.74v.08c1.7 0 2 0 2.92-.12.13.08.09.12 0 .16l-.65.07c-.2963.098-.6085.1387-.92.12h-3.18l-.48 1.29c-.17.08-.35.38-.26.53.09.15 0 .15-.13.27.0017.1084-.0208.2157-.0657.3143-.045.0986-.1114.1859-.1943.2557 0 .07-.09.15 0 .22s.09.23-.17.31v.15c-.0769.2348-.1338.4756-.17.72-.0867.157-.1602.3209-.22.49-.09.38-.31.76-.35 1.1-.1405.2023-.2297.4356-.26.68-.1569.4044-.2741.823-.35 1.25-.0701.1281-.1576.2459-.26.35.13.18 0 .41 0 .6s-.13.23-.13.34c-.0428.1503-.0428.3097 0 .46-.1164.2891-.1742.5984-.17.91-.001.0362-.0094.0718-.0249.1045-.0155.0327-.0377.0618-.0651.0855l.09.07c-.052.1379-.1263.2663-.22.38.18.19.22.87 0 .91.09.08.22.11 0 .19.18 0 .18.15.18.3-.0206.2732.0239.5474.13.8.0015.0964.0259.1911.0711.2763.0452.0851.1099.1584.1889.2137l.31.31c.2401.1631.5337.2275.82.18.3023-.0013.6014-.0625.88-.18.13.37-.27.6-.48.91-.09.11-.18.15-.44.15h.09c-.2396.0504-.4868.0525-.7272.0061-.2404-.0463-.4691-.1402-.6728-.2761-.39-.11-.56-.34-.91-.68-.1186-.081-.2422-.1545-.37-.22-.436-.6334-.72-1.3589-.83-2.12-.1346-.7641-.1346-1.5459 0-2.31.0088-.4614.0828-.9193.22-1.36l.31-1.09c.17-.41.17-.83.34-1.32 0-.15.13-.27.22-.46h.09s0-.11-.09-.15l1.44-3.79.43-1.17c-.56 0-1.17 0-2-.12-.53-.11-1-.19-1.05-.53.0068-.0921.0396-.1804.0944-.2547.0549-.0743.1296-.1316.2156-.1653.0455-.0601.1046-.1086.1723-.1416.0678-.033.1423-.0496.2177-.0484.0855.0204.1745.0204.26 0 .1333-.0682.2788-.1095.428-.1216.1493-.012.2995.0056.442.0516l.79.1h1c.26-.38.3-.76.57-1.14.27-.38.3-.72.47-1.1.17-.38.4-.8.53-1.25.13-.45.3-.83.56-1.29 0-.15.13-.23.27-.42.14-.19.26-.64.34-.91.0102-.04168.029-.08078.0551-.11483.0261-.03406.059-.06232.0966-.083.0376-.02068.0791-.03333.1218-.03714.0428-.00382.0858.00128.1265.01497 0 .07.13.07.21.11.35.19.74.27.79.57 0 .11.22.19.3.3.35.19.22.38.09.65-.3303.6918-.7079 1.3601-1.13 2-.2026.4944-.4364.9753-.7 1.44-.2144.44-.3885.8985-.52 1.37.3744.0568.7516.0935 1.13.11 1.0857.1369 2.1843.1369 3.27 0 .09 0 .3-.19.43-.11.14.38-.52.42-.69.65h-.09c-.3377-.0166-.6758.0239-1 .12-.3285-.0801-.6715-.0801-1 0l-.74.04zm-6.8 10.58l.31-1.6c0-.45.26-.94.3-1.4.04-.46.35-.94.48-1.48.09-.37.31-.79.44-1.21.1233-.3735.2235-.7542.3-1.14.3084-.6102.5724-1.2418.79-1.89l.13-.34c.0819-.048.1415-.1265.1659-.2182.0243-.0918.0114-.1895-.0359-.2718-.09.11-.35.56-.35.56s-.13.31-.17.35c-.1117.4639-.2588.9186-.44 1.36-.214.4565-.4043.9238-.57 1.4l-.39 1.06c-.09.46-.22.84-.3 1.25-.08.41-.31.91-.44 1.37-.09.3 0 .6-.17 1 .0201.2897.0201.5803 0 .87-.09.11 0 .26 0 .38s-.22.45 0 .6c.0305-.2177.0135-.4395-.05-.65zm4-9.59l-.26.34c-.0505.0957-.1267.1754-.22.23-.48 1.13-.87 2.57-1.35 3.79 0 0-.08 0-.08-.08v-.23c-.13-.34.31-.53.26-.83-.08-.08.09-.27.09-.27.203-.3272.3516-.6852.44-1.06.0328-.1527.1052-.2941.21-.41.09-.08.09-.08.09-.19v-.34l.18-.42.39-.49c-.0594-.0116-.1206-.0116-.18 0l.18-.41h-.18c-.0433.2535-.1314.4973-.26.72l-.17.22c-.105.2569-.1788.5255-.22.8-.172.1727-.2811.398-.31.64-.1367.3424-.2937.6763-.47 1-.0271.2903-.1344.5673-.31.8-.13.19 0 .34-.17.53-.1101.1704-.1723.3673-.18.57 0 .11 0 .19-.13.3-.13.11-.22.34-.17.49.0241.1548.0083.3133-.0459.4603-.0543.147-.1452.2777-.2641.3797 0 0-.09.07 0 .07.13.23 0 .23 0 .31l.08.15c-.0527.0154-.1002.0451-.1372.0856-.037.0406-.0622.0905-.0728.1444-.13.3-.13.56-.26.83v.07c0 .07.09.16 0 .23s0 .23.08.34c.08.11 0 0 .09.08-.31.15-.17.42-.26.68-.0479.183-.0748.3709-.08.56 0 .07-.09.15 0 .26.0845.1162.1301.2563.1301.4 0 .1437-.0456.2838-.1301.4 0 .07.09.15.13.19.04.04 0 0 .09 0 .02-.2897.02-.5803 0-.87v-1c0-.35.09-.38.09-.49.0455-.1081.0725-.223.08-.34 0-.08.05-.19 0-.31s0-.19.17-.26c-.0205-.0022-.0396-.0113-.0541-.0259-.0146-.0145-.0237-.0336-.0259-.0541 0-.11.08-.11.13-.15-.02-.3091.0242-.6189.13-.91v-.07c.0437-.2001.1179-.3924.22-.57v-.19c.109-.2589.196-.5265.26-.8h.09c0-.07-.09-.11-.09-.23.0918-.0231.1795-.0602.26-.11-.21-.08-.21-.08 0-.19-.0261-.0078-.0539-.0078-.08 0-.09-.22.3-.22.35-.41v.19c-.2176.3882-.3665.8111-.44 1.25-.1106.2028-.1978.4175-.26.64 0 .15-.09.23 0 .34.09.11.13 0 .13 0s-.13 0-.13.08c-.1548.3151-.2594.6525-.31 1-.1118.237-.1399.5049-.08.76h.17c-.0473-.108-.0776-.2227-.09-.34.1524-.3818.2696-.7768.35-1.18.0525-.0477.1136-.0851.18-.11.13 0 .17 0 .17-.08-.0309-.0413-.0699-.076-.1146-.1018-.0447-.0258-.0942-.0422-.1454-.0482.0225-.075.0225-.155 0-.23.09.08.22.12.26.19.18-.19-.21-.19-.26-.26.0496-.0725.1103-.1366.18-.19.0801-.2098.1371-.4278.17-.65v-.11c.22-.08.13-.19.09-.34h.17v-.27c.0407-.0826.0709-.1699.09-.26l.17.23c-.0238-.0884-.0238-.1816 0-.27h-.22c.1066-.1662.1938-.344.26-.53.0797.04.1537.0904.22.15.0196-.1817.0633-.3599.13-.53 0-.15.09-.3-.13-.34 0-.08.13-.15.09-.19-.09-.34.3-.64.39-1 .1584-.4175.2887-.8451.39-1.28.178-.2814.3351-.5756.47-.88h.04zm-2.66 9c-.26 0-.08.3-.39.3l-.09-.11c.0091.0259.0091.0541 0 .08-.0126.1661-.0427.3303-.09.49.0185.1895.0185.3804 0 .57l.35-.3c-.08.11-.08.15-.13.19.0591-.0144.1209-.0144.18 0 .0181-.1495.0181-.3005 0-.45h-.09v.11s-.13.08-.22.12c-.09.04 0-.19 0-.19s.13-.12.3-.27c-.03-.14.15-.33.15-.56l.03.02zm-.13 1.82c.0296-.0072.0604-.0072.09 0-.0503-.0457-.1077-.0829-.17-.11 0 .15-.13.3-.18.45-.05.15.22.23.18.34.13-.11 0-.26 0-.34-.023-.0588-.0313-.1222-.0243-.1849.0069-.0627.029-.1228.0643-.1751l.04.02zm1.1-5.59h-.13c-.09.23-.09.42-.18.6.18-.11.31-.18.31-.3s-.09-.23 0-.3zm2-5.88l-.13.08-.18.49.34-.45c-.03-.08-.03-.08-.03-.12z"/>
  <path d="M87.8428 28.25c-.0276-.0149-.0586-.0227-.09-.0227s-.0623.0078-.09.0227l-.17.23c-.2429-.3683-.3359-.8154-.26-1.25l.35-1.55c.1249-.4112.2119-.833.26-1.26.08-.53.3-1.06.39-1.55.09-.49.22-1 .3-1.55 0-.08 0-.23.09-.27.0491-.056.1089-.1017.1759-.1343.0669-.0326.1397-.0516.2141-.0557.44-.15.79 0 1 .61.1372.3143.1823.6611.13 1 0 .12-.08.23-.08.42.13-.15.3-.27.35-.38.2152-.3069.4786-.5771.78-.8.375-.4397.8339-.8001 1.35-1.06.2452-.1744.5341-.2771.8344-.2965.3003-.0194.6.0452.8656.1865.212.1379.4157.2882.61.45 0 0 .09.12.17.12.1639.1064.2872.2649.35.45v.19c-.2806.0699-.5773.0306-.83-.11-.2695-.0433-.5457.0098-.78.15-.2131.1712-.4486.3125-.7.42-.13 0-.22.19-.31.3-.26.19-.52.38-.74.57-.22.19-.61.61-.91 1-.3.39-.65.75-1 1.21-.3111.4363-.5727.9058-.78 1.4-.18.38-.22.72-.35 1.06-.13.34-.09.53-.18.8-.09.45-.26.53-.61.42-.35-.11-.34-.38-.34-.72zm3.18-5.65c-.0047-.0111-.0071-.023-.0071-.035 0-.012.0024-.0239.0071-.035.48-.42.87-.88 1.31-1.29-.13-.31-.26.19-.39.11-.13.15-.18.3-.26.34-.44.12-.66.53-1 .84-.126.0856-.2249.2055-.2852.3454-.0602.14-.0792.2942-.0548.4446.0603-.1589.1515-.3043.2682-.4279.1167-.1235.2566-.2228.4118-.2921zm.74 0c.26-.11.39-.34.61-.53-.2235.0727-.4306.1881-.61.34-.2095.1841-.4005.3885-.57.61.31.04.39-.34.57-.42zM95.9927 28.25c-.2193-.151-.4539-.2783-.7-.38-.1902-.1981-.3232-.444-.3848-.7117-.0616-.2676-.0496-.547.0348-.8083.13-.26.22-.45.31-.68v-.07c.0713-.2355.1581-.466.26-.69l.31-.45c.17-.19.26-.38.34-.45.4924-.585 1.0165-1.1425 1.57-1.67.5731-.5522 1.3101-.9032 2.1-1 .9103.16 2.0003.31 2.1303 1.18.13.53-.22.87-.43 1.25.34 0 .65-.34 1.17-.3.126.035.242.1022.335.1951.093.0929.16.2083.195.3349.021.2437-.01.489-.09.72 0 0 0 .11-.09.19-.152.5415-.106 1.1193.13 1.63.072.1818.212.3286.39.41.099.0406.21.0406.31 0 .163-.0181.325-.055.48-.11.699-.3047 1.368-.6729 2-1.1.57-.3 1.22-.64 1.83-1 1-.57 1-.5 2-1.06.347-.2429.711-.4601 1.09-.65l.13.08-.39.45c.09.19.09.19.35 0 0-.08 0-.23.22-.15-.486.5068-1.062.9174-1.7 1.21-.21.1263-.427.2399-.65.34-.15.1609-.33.2901-.53.38 0 0-.17 0-.3.08.01-.0257.01-.0543 0-.08.099-.0249.189-.0769.26-.15.18-.08.27-.19.22-.34-.05-.15-.08-.08-.13-.08-.304.1529-.595.3301-.87.53-.48.1796-.934.4216-1.35.72-.141.0766-.288.1402-.44.19v.08c.13 0 .27 0 .35-.11.063-.0471.141-.0725.22-.0725.079 0 .156.0254.22.0725v-.12c.31-.11.53-.07.79-.26.256-.1081.503-.2351.74-.38-.002.0559-.019.1103-.049.1577-.03.0474-.072.0861-.121.1123-.35.15-.7.37-1 .53-.105.0485-.195.1245-.26.22-.088.0774-.195.1293-.31.15.102.0172.207.0172.31 0-.092.0513-.195.0788-.3.08v.15c.22-.12.52-.23.74-.34v.07c-.247.1436-.481.3075-.7.49-.361.2764-.754.5081-1.17.69-.26.11-.4.07-.61.19-.142.0554-.289.0924-.44.11-.128.0358-.259.0625-.39.08-.247.0197-.494.0197-.74 0-.09 0-.35 0-.44-.11-.09-.11-.22-.19-.35-.23-.26-.3-.56-.45-.74-.79-.18-.34-.22-.31-.35-.5-.08 0-.08-.11-.13-.19-.3.16-.3.54-.61.54-.08.07-.13.18-.21.22-.6017.4303-1.2449.7988-1.9203 1.1-.6604.2946-1.409.3233-2.09.08-.1791.0503-.3676.0572-.55.02zm2-1.25c.5248-.1779 1.0007-.4758 1.39-.87.6603-.61 1.0003-1.06 1.6103-1.67l.22-.19c-1-.08-.61-1.74-.57-1.78-1.3003.19-2.8303 2-3.3103 2.69-.4287.6145-.7656 1.2883-1 2 .5455.0095 1.09-.051 1.62-.18h.04zm11.3303-2.28c0-.15.09-.18.17-.22.08-.04.22-.12.35-.15.13-.03.26 0 .35-.08v-.23c.09 0 .13-.11.17-.15.04-.04 0-.07 0-.07-.166.1133-.339.2137-.52.3-.327.1554-.636.3466-.92.57.126.0436.244.1078.35.19-.03 0 .01-.12.01-.16h.04z"/>
  <path d="M110.413 29.92s0-.08-.08-.15c-.084.0126-.161.0511-.22.11-.228-.1622-.412-.379-.534-.6306-.123-.2516-.18-.53-.166-.8094-.005-.6954.099-1.3872.31-2.05.109-.5489.283-1.0827.52-1.59.12-.4372.264-.8678.43-1.29.033-.2818.093-.5597.18-.83 0-.23.09-.27.35-.19.09.0046.179.0285.26.07.047.0426.106.0704.17.08.18 0 .44-.08.61.08.122.0618.222.1609.285.2831.063.1221.086.2611.065.3969l-.26.68-.26.72c-.131.2739-.248.5542-.35.84-.049.118-.08.2428-.09.37-.06.1205-.104.2483-.13.38-.191.5764-.309 1.1744-.35 1.78h.13l.53-.45c.56-.53 1.09-1 1.65-1.56.56-.56 1.14-1.17 1.75-1.82.08 0 .13-.11.21-.15.14-.22.22-.22.44-.07.4 0 .7 0 .74.27h.44c.07.1058.127.22.17.34.013.0353.013.0747 0 .11-.116.0823-.211.19-.279.3148-.068.1248-.106.2634-.111.4052l-.27 1c.018.2396.018.4804 0 .72.02.2262.02.4538 0 .68.39-.3.7-.57 1-.84.399-.3106.78-.6445 1.14-1 .3-.42.69-.91 1-1.33.31-.42.57-1.1.92-1.59.13-.34.13-.64.26-1 .166-.4328.224-.8996.17-1.36 0-.19 0-.3-.13-.38l.09-.11c.097-.0014.193.0174.283.0552.089.0379.17.094.237.1648.223.2382.361.5445.39.87.019.3797.019.7603 0 1.14-.081.2879-.213.5589-.39.8-.02.0901-.05.1774-.09.26 0 0-.09.08-.09.16-.038.1302-.111.2477-.21.34 0 0 0-.08-.13-.16-.067.0853-.127.1755-.18.27v.08c-.184.2764-.345.5673-.48.87h.09v.07c0 .07-.08 0-.21.08-.002.0356.004.0712.018.104.014.0329.035.0623.062.086h-.35l.09.19h-.13v.34c.13-.12.48-.08.44-.42.069-.0037.14-.0037.21 0 .029-.1799.072-.3571.13-.53.35.15.35-.15.48-.27-.035-.0739-.061-.1509-.08-.23.017-.1279.06-.2508.127-.361.067-.1102.157-.2052.263-.279-.078.2081-.138.4222-.18.64h.09c.18-.34.35-.68.48-1v.22c-.22.38-.22.8-.52 1.18-.09.15-.13.34-.22.53-.13 0-.17-.11-.22-.11-.05 0-.08.15-.13.19-.036.0562-.08.1067-.13.15l-.22-.12-.13.31c.13 0 .26 0 .48-.08-.012.1207-.06.2353-.136.3295-.076.0942-.179.1639-.294.2005v.08c-.359.4797-.75.9342-1.17 1.36-.273.3528-.613.6484-1 .87-.26.12-.52.35-.82.5-.22.0932-.458.131-.695.1101-.238-.0209-.466-.1-.665-.2301-.08 0-.08-.07-.13-.07-.48 0-.52-.31-.74-.61-.243-.6371-.332-1.3222-.26-2-.27.3503-.561.6842-.87 1-.22.26-.48.45-.7.72-.09.1098-.191.2103-.3.3-.154.2344-.347.4408-.57.61-.241.2568-.539.4523-.87.57-.223.1048-.458.1789-.7.22-.16.29-.27.14-.45.07zm5.1-1.9c.045-.2797.105-.5568.18-.83-.13.07-.22.07-.22.11-.028.2392-.028.4808 0 .72h.04zm.44 1.25c-.107-.1359-.191-.2878-.25-.45h-.13c.083.1013.142.2214.17.35 0 0 .09 0 .13.07.04.07.03.03.08.03zm4.4-4.28c.09 0 0 0 0-.08-.18 0 0-.11 0-.11.13-.19.26-.3.34-.45-.04-.077-.098-.1424-.17-.19-.153.1502-.272.3308-.35.53h.14l-.14.26v-.07c-.26.07 0 .15-.09.3.082-.0733.173-.137.27-.19zm.52-1c-.17-.16.09-.19.09-.27-.18 0-.18 0-.31.45.082-.0397.156-.0939.22-.16v-.02zm.13-.42v-.31c.002.0316.012.0622.027.0898.016.0277.037.0516.063.0702l.13-.38c.02-.1287.05-.2557.09-.38.13-.23.13-.23-.09-.34.09.22-.13.41-.13.64 0 .23 0 .19-.13.27-.062.0307-.113.0801-.145.1411-.032.0609-.045.1305-.035.1989h.22zm1-.19s.09 0 .09.07v.46c-.082-.158-.126-.3324-.13-.51l.04-.02zm.22-.84c.027-.0038.055.0021.079.0167s.042.037.051.0633l-.17.64h-.14c.074-.2269.121-.4619.14-.7l.04-.02zM141.273 3.23c-.095.60467-.228 1.20259-.4 1.79-.231.69078-.522 1.36-.87 2-.27.5227-.574 1.02711-.91 1.51-.366.65718-.791 1.27974-1.27 1.86-.329.4696-.704.9051-1.12 1.3-.479.4548-.933.9355-1.36 1.44-.403.3257-.768.6945-1.09 1.1-.65.53-1.26 1.1-1.83 1.59-.57.49-1.26.87-1.87 1.29-.394.2526-.771.5298-1.13.83-.48.23-.79.34-1.18.49-.282.3931-.46.8503-.52 1.33-.18.61-.39 2.08-.52 2.65.056.0113.114.0113.17 0 .313-.2913.647-.5587 1-.8.177-.052.351-.1155.52-.19.517-.1099 1.052-.1099 1.57 0 .694.0486 1.373.2284 2 .53.87.46 1.05.76.79 1.63-.291 1.1159-.846 2.145-1.62 3-.43.41-.78.83-1.3 1.25-.616.6394-1.359 1.1435-2.18 1.48-.268.1045-.546.1783-.83.22-.366.0329-.731-.0735-1.022-.2977-.291-.2243-.487-.5501-.548-.9123-.055-.4094-.142-.814-.26-1.21.014-.3358-.016-.6721-.09-1 0-.23-.09-.38-.09-.57.07-.464.07-.936 0-1.4 0-.68.22-.91.27-1.59.027-.1934.07-.3841.13-.57.045-.0836.072-.1755.08-.27.09-.22.18-1.44.22-1.66-.244.1057-.478.2329-.7.38-.3.19-.78.53-1 .45-.22-.08-.3-.8-.26-1.14.04-.34.26-.45.48-.53.322-.1852.627-.3994.91-.64.27-.08.35-.23.66-.34.083-.167.141-.3457.17-.53 0-.08 0-.15.13-.31h.09l.21-.57c.01-.2027.062-.4011.151-.5833.09-.1822.215-.3444.369-.4767-.26-.3 0-.6.05-.87.26-.57.47-1.1.69-1.67.22-.57.74-1.29 1-2s.79-1.55 1.22-2.31c.43-.76.79-1.29 1.22-1.93.221-.41609.49-.80531.8-1.16.36-.55355.755-1.08454 1.18-1.59.785-.87647 1.645-1.68286 2.57-2.41.774-.55558 1.707-.846654 2.66-.830001.576.115481 1.134.307171 1.66.570001.117.01343.229.05501.327.12119.097.06617.177.15497.233.25881.35.46.57.69.44 1.29zm-14.12 21.53l-.13 1.33c0 .53 0 1.21.08 1.74.14.19.44.27.48.15.53-.38 1.05-.76 1.53-1.17.57-.57 1-1.14 1.61-1.67.375-.562.668-1.1749.87-1.82.13-.38-.22-.68-.56-.87-.244-.0794-.506-.0794-.75 0h-.08c-.664.0865-1.28.3928-1.75.87-.35.2155-.685.4561-1 .72-.114.0785-.203.1882-.256.3159-.053.1276-.069.268-.044.4041zm.74-9.55c.3-.61.56-1.14.78-1.7.168-.5166.418-1.0028.74-1.44.22-.54.44-1 .7-1.56.31-.34.48-.83.79-1.25l.17-.34c0-.08.09-.08.17-.08l-.08-.11h.08l.31-.38c.14-.22785.3-.44212.48-.64l.22-.57c.148-.13871.267-.30522.35-.49h-.14c.066-.07188.126-.14878.18-.23.03-.01107.055-.03195.071-.05921.017-.02726.023-.05928.019-.09079v-.12c.129-.01561.26-.01561.39 0v-.07l-.31-.08c0-.11.18-.22.22-.3.04-.08.13 0 .17.08.058-.14945.105-.30325.14-.46h.3c0-.07-.09-.15-.13-.15.106-.02809.21-.06488.31-.11.21-.31.3-.61.52-.88.22-.27.13-.15 0-.37 0 .11-.13.15-.17.22-.04.07.13 0 .17.08-.076.00198-.149.02635-.21.07l.08.12h-.3c-.13 0-.09.15-.13.18l-.22.42c-.254.26639-.46.57415-.61.91-.332.35114-.612.74861-.83 1.18-.243.29835-.433.63672-.56 1h-.09c-.09.19-.26.42-.61 1-.227.3531-.431.72054-.61 1.1-.297.3862-.52.8234-.66 1.29-.323.4285-.586.8997-.78 1.4-.163.3195-.294.6545-.39 1-.09.22-.26.6-.35.9-.059.1346-.103.2755-.13.42 0 .23-.22.49 0 .68.012-.1914-.005-.3835-.05-.57zm11.63-8.72h-.08c-.033.05019-.077.09144-.13.12-.18.3-.22.53-.35.64-.48.65-1 1.25-1.44 1.93-.26.19-1.09 1.14-1.35 1.41-.296.1878-.573.402-.83.64-.353.3344-.687.6883-1 1.06-.61.53-1.17 1.14-1.78 1.71-.09.07-.26.11-.39.19 0 .34-.35.41-.53.53-.433.4619-.897.893-1.39 1.29-.318.2603-.652.5008-1 .72-.273.2854-.567.5495-.88.79.31-.07.44.27.66.12.37-.1156.712-.3101 1-.57.39-.15.52-.68.74-1 .148-.1402.332-.236.532-.2767.2-.0406.407-.0245.598.0467.168-.115.345-.2153.53-.3.206-.0351.391-.1456.52-.31.13-.19-.13-1 .44-1 .037-.1737.128-.3313.26-.45.113-.1515.268-.2677.445-.335.177-.0672.369-.0828.555-.045-.05-.27.35 0 .43-.16.08-.16.22-.22.26-.34.31-.79.7-1.21 1.35-1.29 0-.11 0-.41.48-.3-.43-.23.09-.34.13-.53-.058-.0205-.115-.0438-.17-.07.09-.19.09-.42.35-.57.35-.65.52-1.59 1.13-1.79.13-.26.48-.53.57-.79.053-.02334.098-.06154.13-.11-.18-.16 0-.19 0-.27.011-.24387.084-.48101.21-.69zm-5.27-.53c-.269.4882-.606.93596-1 1.33-.22.38-.43.61-.65 1.06-.22.45-.65 1.1-.87 1.55-.627.7928-1.101 1.6946-1.4 2.66 0 .15-.17.23-.3.49.13.27-.22.23-.31.27-.09.04.26.26.09.41-.2.4598-.374.9305-.52 1.41-.26.45-.53.94-.7 1.32.11-.0334.215-.084.31-.15.91-.72 1.78-1.4 2.7-2.2.604-.4894 1.16-1.0352 1.66-1.63.931-.86 1.803-1.7821 2.61-2.76 1.098-1.36123 2.047-2.83634 2.83-4.4.32-.72782.484-1.51486.48-2.31.011-.1715-.02-.34309-.09-.5-.102-.12641-.239-.21896-.395-.26539-.155-.04643-.321-.04455-.475.00539-.287.08207-.553.22535-.78.42-.611.33349-1.171.75461-1.66 1.25l-.61.79c-.273.44045-.581.85844-.92 1.25zm-1.87 17.59c-.26.38-.48.83-.79 1.21-.31.38-.69.88-1 1.33.61 0 .65-.68 1.13-.68.22-.65.88-1.1.66-1.86zm7.32-18.88h-.09c0 .27-.17.54-.22.76h.05c.112-.24397.199-.49858.26-.76zM143.703 27.11c.557-.2348 1.095-.5123 1.61-.83-.05.07-.05.15-.09.19-.181.152-.372.2922-.57.42l-.82.56c-.318.1464-.625.3134-.92.5-.38.2258-.774.4263-1.18.6-.28.0976-.574.1482-.87.15-.14-.0029-.277.0392-.39.12-.212.0686-.43.1188-.65.15-.325.0944-.663.1317-1 .11-.44-.031-.875-.1047-1.3-.22-.361-.0857-.701-.242-1-.46 0-.07-.17-.11-.21-.15-.295-.2017-.547-.4601-.74-.76-.09-.07-.09-.07-.18-.45-.151-.3103-.21-.6573-.17-1 .042-.781.283-1.5383.7-2.2.174-.2368.361-.4638.56-.68.39-.42.79-.79 1.18-1.17.396-.3611.904-.5762 1.44-.61.145-.0109.29-.0377.43-.08.198-.0349.401-.029.597.0174.196.0464.381.1324.543.2526.359.1562.696.3615 1 .61.176.1245.311.298.389.4989.079.2009.096.4204.051.6311-.086.1863-.205.3557-.35.5-.39.37-.79.72-1.18 1.06-.13.11-.39.15-.43.26-.05.27-.35.31-.53.38l-.3.15c.042-.0131.087-.0131.13 0-.143.0724-.29.1359-.44.19 0 0 0 .15-.08.19-.31.15-.66.26-.92.42-.117.0473-.22.1229-.3.22-.35.16-.48.19-.79.34.17.46.26.54.61.65.57 0 1.13 0 1.7-.08.401-.0634.796-.1638 1.18-.3.3-.11.65-.27 1-.38.222-.0401.44-.1038.65-.19.48-.26 1-.49 1.44-.72l.13-.07h.05c-.05.0725-.111.1366-.18.19 0 0 .09.08 0 .12.121-.0005.24-.0278.35-.08v.08c-.196.1235-.384.2605-.56.41.18.08.368.1436.56.19-.091.0322-.178.0724-.26.12l.11.15zm-6.8-1.55c.35-.19.56-.3.74-.42.18-.12.17 0 .22 0 .183-.0963.358-.2102.52-.34h-.31c.27-.19.4-.42.7-.42-.09.12-.22.19-.3.3.39-.22.74-.49 1.13-.72l-.08-.07c-.105.0911-.223.1654-.35.22-.139.0907-.287.1678-.44.23.008-.0172.012-.036.012-.055 0-.019-.004-.0378-.012-.055.411-.2784.806-.5823 1.18-.91.243-.1868.45-.4174.61-.68.13-.19-.09-.53-.26-.46-.39.0843-.769.2117-1.13.38-.397.2189-.763.4878-1.09.8-.346.4115-.654.8532-.92 1.32-.123.2808-.207.5768-.25.88h.03zm3.8-1.93c.13-.23.35-.5.48-.72l-.13-.31c-.152.1196-.266.2805-.328.4632-.062.1828-.07.3796-.022.5668zm2.66 2.76c0-.11-.44 0-.74.34.255-.0938.502-.2075.74-.34zm.35-.49c.39-.23.78-.38 1.22-.61 0 .19-.31.27-1.18.65l-.05-.04h.01zm2.61-1v.07c-.15.119-.311.2229-.48.31l.05.15c-.18.07-.27.15-.14.26-.17.12-.43.12-.47.38-.3 0-.48.26-.7.42-.164.1046-.339.1917-.52.26-.09 0-.17 0-.26-.07-.015-.0625-.015-.1275 0-.19-.008-.0261-.008-.0539 0-.08.22.19.61-.19 1-.34l.3-.15c.18 0 .27-.15.09-.38-.3.23-.7.42-1.05.68-.094-.0516-.195-.0887-.3-.11.485-.2007.916-.5124 1.26-.91.09-.08.57-.27.7-.38l.31.11c.073-.0987.161-.1863.26-.26-.057-.0342-.117-.0611-.18-.08.159.0124.32.0124.48 0-.05-.08-.09-.12-.09-.16l.22-.15h-.05l-.17.12h-.09l.74-.42.09.27s-.21.19-.35.27c-.222.1104-.439.2306-.65.36v.02z"/>
  <path d="M146.593 28.25c-.028-.0149-.059-.0227-.09-.0227-.032 0-.063.0078-.09.0227l-.17.23c-.243-.3683-.336-.8154-.26-1.25l.34-1.55c.133-.4097.223-.8319.27-1.26.08-.53.3-1.06.39-1.55.09-.49.22-1 .3-1.55 0-.08 0-.23.09-.27.049-.056.109-.1017.176-.1343.067-.0326.139-.0516.214-.0557.44-.15.79 0 1 .61.137.3143.182.6611.13 1 0 .12-.08.23-.08.42.13-.15.3-.27.34-.38.221-.3049.488-.5747.79-.8.375-.4397.834-.8001 1.35-1.06.245-.1744.534-.2771.834-.2965.3-.0194.6.0452.866.1865.22.15.43.3.61.45.18.15.09.12.17.12.161.1092.284.2667.35.45v.19c-.281.0699-.577.0306-.83-.11-.27-.0433-.546.0098-.78.15-.213.1712-.449.3125-.7.42-.13 0-.22.19-.31.3-.26.19-.52.38-.74.57-.22.19-.61.61-.91 1-.356.3841-.69.788-1 1.21-.31.4386-.575.9077-.79 1.4-.17.38-.21.72-.34 1.06-.13.34-.09.53-.18.8-.09.45-.26.53-.61.42-.35-.11-.34-.38-.34-.72zm3.18-5.65c-.005-.0111-.007-.023-.007-.035 0-.012.002-.0239.007-.035.48-.42.87-.88 1.31-1.29-.13-.31-.26.19-.39.11-.13.15-.18.3-.27.34-.43.12-.65.53-1 .84-.125.0869-.224.2065-.286.3459-.062.1393-.084.293-.064.4441.063-.1602.158-.3062.278-.4297.12-.1236.264-.2222.422-.2903zm.74 0c.26-.11.39-.34.61-.53-.224.0727-.431.1881-.61.34-.21.1841-.401.3885-.57.61.31.04.39-.34.57-.42zM154.473 28.25c-.026-.0149-.055-.0228-.085-.0228-.03 0-.059.0079-.085.0228l-.17.23c-.248-.3662-.341-.8153-.26-1.25l.34-1.55c.129-.41.217-.8322.26-1.26.09-.53.31-1.06.4-1.55.09-.49.21-1 .3-1.55.05-.08.05-.23.09-.27.051-.0696.117-.1265.193-.1664.076-.0399.161-.0617.247-.0636.44-.15.79 0 1 .61.132.3157.177.661.13 1 0 .12-.09.23-.09.42.13-.15.31-.27.35-.38.221-.3049.488-.5747.79-.8.375-.4397.834-.8001 1.35-1.06.245-.1744.534-.2771.834-.2965.3-.0194.6.0452.866.1865.22.15.43.3.61.45.18.15.08.12.17.12.161.1092.284.2667.35.45v.19c-.281.0699-.577.0306-.83-.11-.273-.0423-.552.0106-.79.15-.208.1739-.44.3155-.69.42-.13 0-.22.19-.31.3-.26.19-.52.38-.74.57-.22.19-.61.61-.91 1-.356.3841-.69.788-1 1.21-.31.4386-.575.9077-.79 1.4-.17.38-.21.72-.35 1.06-.14.34-.08.53-.17.8-.09.45-.26.53-.61.42-.35-.11-.4-.34-.4-.68zm3.23-5.65c-.005-.0111-.007-.023-.007-.035 0-.012.002-.0239.007-.035.48-.42.87-.88 1.31-1.29-.13-.31-.26.19-.39.11-.14.15-.18.3-.27.34-.43.12-.65.53-1 .84-.127.0852-.227.2046-.289.3444-.062.1398-.083.2943-.061.4456.061-.1613.155-.3083.276-.4321.12-.1238.264-.2218.424-.2879zm.74 0c.26-.11.39-.34.61-.53-.224.0727-.431.1881-.61.34-.21.1841-.401.3885-.57.61.27.04.35-.34.53-.42h.04zM157.053 51.98c-.58-.09-1.137-.2936-1.638-.599-.501-.3055-.937-.7068-1.282-1.181-.18-.35-.48-.8-.7-1.26-.219-.265-.363-.5836-.418-.9229-.054-.3392-.017-.6869.108-1.0071.028-.1755.028-.3545 0-.53.123-.4948.196-1.0006.22-1.51.379-1.3244.966-2.58 1.74-3.72.734-1.0727 1.536-2.098 2.4-3.07.848-.9125 1.749-1.774 2.7-2.58 1-.72 2-1.51 3.05-2.2l1.66-1.06c.397-.1906.775-.4183 1.13-.68.39-.19.83-.49 1.13-.6.48-.23.44-.5.44-.84.13-.3391.204-.6971.22-1.06.119-.5005.206-1.0082.26-1.52.2-.7294.33-1.476.39-2.23-.001-.2459.043-.4897.13-.72 0-.12-.22-.12-.22-.23 0 .0308-.009.061-.025.0875-.016.0264-.038.048-.065.0625-.66.4316-1.285.913-1.87 1.44-.52.19-.83.61-1.35.84-.272.2257-.58.4048-.91.53-.22 0-.44.11-.57-.08l.3-.15c-.48 0-.3-.12-.48-.3l.05-.12h-.13c-.05.12-.05.23-.13.23s-.27 0-.22-.11c-.148-.2439-.278-.4979-.39-.76-.05-.42.3-.61.3-.91.149-.52.253-1.052.31-1.59.031-.3453.119-.6831.26-1 .043-.1097.061-.228.053-.3458-.009-.1177-.044-.232-.103-.3342-.13-.11 0-.34 0-.45.066-.0877.152-.1581.251-.2051.1-.047.209-.0693.319-.0649.179.0449.353.1085.52.19.288.1977.565.4114.83.64.023.041.036.0876.036.135 0 .0474-.013.094-.036.135-.13.19 0 .53-.13 1-.09.26-.22.79-.39 1.25.001.264-.061.5246-.18.76.235-.1133.457-.2543.66-.42.39-.19.65-.65 1-.87.35-.22.69-.57 1.09-.8.436-.3871.916-.7227 1.43-1 .27-.27.35-.38.66-.23.09.15.35.15.52.15.17 0 .26.08.35.08v.07l.09.27c.3.11.13.26.48.26l-.09.42c0 .26-.18.91-.22 1v.08c0 .41-.26 1-.22 1.25-.082.2692-.126.5486-.13.83-.009.0944-.036.1862-.08.27-.082.048-.142.1265-.166.2182-.025.0918-.012.1895.036.2718.21.3-.05.68 0 1-.109.1418-.199.2963-.27.46-.08.34-.08.61-.17 1l-.09.07c.015.027.038.0493.065.0648.027.0155.058.0237.09.0237.031 0 .062-.0082.089-.0237.027-.0155.05-.0378.066-.0648.785-.3398 1.541-.7446 2.26-1.21.53-.23.74-.34 1.4-.64l.87-.35c.35 0 1.35-.64 1.52-.64l.09.45c-.22.31-.61.69-.7.84-.09.15-.34.3-.43.3-.352.1398-.687.3175-1 .53l-.91.46.12.07c-.3.12-.47.57-.82.38-.319.1544-.627.3315-.92.53l.13.15c-.136.0636-.281.1041-.43.12-.221.038-.43.1271-.61.26-.09 0-.09.16-.22.27-.13.11-.09-.11-.09-.11h-.26c-.066.2808-.221.5332-.44.72-.13.08-.08.42-.21.46-.13.04-.13.23-.13.38h.08-.39c.44.46.18 1 0 1.56-.08-.19-.08-.34-.21-.42v.42h.19c0 .15 0 .15-.39.19l.22.11c.17.12.17.19.13.46 0 .11-.13.22-.13.34 0 .12 0 .45-.52.49.132.0875.229.2177.277.3689.047.1511.041.3139-.017.4611-.071.2888-.241.5436-.48.72.43.19.3.84 0 1 .09.26 0 .41-.22.57-.15-.0791-.294-.1694-.43-.27.26-.23-.09-.64.21-.64-.049-.0519-.077-.1192-.08-.19.13-.15 0-.34.26-.57.26-.23.13-.65.22-1 .021-.2642.093-.522.21-.76-.025-.3387.019-.679.13-1 0-.11.05-.3.05-.45-.05-.2478-.003-.505.13-.72v-.14c.22-.23.22-.31.17-.54-.05-.23.13-.18.13-.26-.17 0-.17 0-.13-.11-.22.22-.35.37-.3.64-.13.3-.09.76-.22 1.14 0 .22-.09.45-.09.68-.082.4264-.139.8571-.17 1.29-.175.4845-.322.9786-.44 1.48.022.1124.039.2259.05.34-.079.3077-.23.5922-.44.83-.09 0-.35-.19-.57-.19.27.34.13.65 0 .65v.38c-.113.0029-.221.0414-.31.11 0 0-.17 0-.22.11h.09c.116.0117.233.0117.35 0-.005.144-.066.2805-.17.38 0 .23-.18.5-.18.76-.09.08-.22.19-.17.31l-.05.11c0 .07 0 .45-.21.45l.17.08c-.17.19-.17.45-.35.45v.16c-.041.2435-.098.4841-.17.72 0 .19-.31.19-.35.26-.04.07.56 0 0 .27.005.1132-.015.2262-.061.3303-.045.104-.113.1963-.199.2697-.023.1965-.086.3863-.183.5581-.098.1718-.23.3221-.387.4419.31.07.09.15 0 .3-.252.6114-.542 1.206-.87 1.78-.079.1157-.137.2443-.17.38-.019.0355-.028.075-.028.115 0 .04.009.0795.028.115.115.0206.234.0206.35 0 0-.11 0-.11-.13-.19h.26v-.3h.09c0 .15.18.15.18.26 0 .11-.27.12-.27.23 0 .11-.08.15-.08.15s-.18.12-.31.12l-.09-.12c-.168.097-.314.2261-.43.38-.246.2731-.451.5795-.61.91 0 .19-.13.19-.13.19-.31.08-.26.23 0 .42-.241.0658-.475.1528-.7.26.31.16.31.27.44.23v-.23c.08 0 .13-.19.35-.19v.19c.09 0 .22.16.22.16s-.13.15-.39.26c0 .15-.35 0-.66 0h-.08c-.115.023-.221.0746-.31.15 0 0 0 .15.18.11l-.18.16h.26c0 .07.18.07.26.07-.34.12-.61.23-1 .34.18.31-.17.12-.26.31-.43.3-1.22.11-1.74.22-.335.0326-.673-.0084-.99-.12zm-3.58-5.42c.055-.3018.142-.5968.26-.88-.025-.3238.037-.6482.18-.94 0-.31.17-.46.35-.76.18-.3.43-.83.65-1.25.26-.19.17-.3.26-.57.18-.08.44-.23.44-.45s0-.12.08-.12.44-.23.48-.45c.04-.22.05-.23.18-.23-.006-.037 0-.0748.016-.1086s.042-.0621.074-.0814c.34 0 0-.11.21-.19 0 0 .13-.15.09-.26.208-.1861.384-.4058.52-.65.273-.3351.581-.6401.92-.91.174-.2632.379-.5049.61-.72v-.17c.17-.08.35-.08.43-.19.08-.11.09-.08.09-.27.254-.0869.479-.2427.65-.45.35-.46.92-.72 1.31-1.14.26-.11.53-.38.74-.45.145-.1941.325-.3602.53-.49.122-.0071.24-.0487.34-.12.09-.34.66-.38.92-.76.211-.2106.463-.3772.74-.49.416-.2574.811-.5484 1.18-.87.61-.3.87-.65 1.39-.87.22-.12.22-.19.35-.31h-.17c-.227.1269-.461.2404-.7.34-.544.2789-1.057.6141-1.53 1-.57.2775-1.109.6125-1.61 1-.74.46-1.52 1.07-2.31 1.67-.79.6-1.44 1.25-2.22 1.78-.448.5678-.929 1.1087-1.44 1.62-.17.31-.52.46-.65.88-.241.247-.447.5264-.61.83-.473.5796-.911 1.1874-1.31 1.82-.3.38-.44.83-.74 1.17-.235.4696-.439.954-.61 1.45-.059.2977-.146.589-.26.87.02.313.02.627 0 .94v.19c.22-.15.26-.26.17-.41zm.57 1.1c-.05-.16 0-.27-.05-.42v-.11c-.045-.0591-.076-.1277-.09-.2006-.014-.0729-.01-.148.01-.2194-.13.34-.09.53-.22 1 .112-.0394.231-.0564.35-.05zm.09-1.94c-.007-.2312.068-.4574.21-.64l-.08-.15c-.144.2302-.228.4927-.243.7635-.016.2708.037.5413.153.7865.077-.1137.115-.2495.107-.3867-.007-.1372-.059-.2683-.147-.3733zm.43-.38c-.062.0668-.109.1458-.139.232-.029.0861-.04.1774-.031.268.13-.12.13-.27.17-.5zm3.71 5.42c.745-.1942 1.432-.5685 2-1.09.696-.4925 1.265-1.1438 1.66-1.9.44-.76.83-1.33 1.22-2 .22-.46.3-.91.57-1.37.48-1.32 1.17-2.65 1.65-4 .13-.45.18-.9.39-1.47l.22-.12s0-.11.13-.11h-.35c0-.23.22-.3.18-.38.116-.6765.276-1.3446.48-2 .054-.8765.229-1.7413.52-2.57-.024-.2733.02-.5483.13-.8-.26.08-.48.08-.48.27-.085.1524-.204.2826-.348.3799-.144.0974-.31.1591-.482.1801v.12c-.21.11-.39.26-.48.26-.09 0-.39.23-.56.38-.367.4209-.857.715-1.4.84 0 0-.13 0-.13.11-.07.148-.18.2729-.318.3598-.139.0869-.299.1321-.462.1302h-.65c.044-.0314.083-.0714.112-.1178.029-.0464.049-.0981.058-.1522.39-.22.57-.56 1-.75.367-.1592.705-.3789 1-.65.09 0 .14-.15.14-.15.21-.15.21-.15.34-.15.35-.23.83-.49 1.14-.72.31-.23.74-.46.91-.76.35 0 .44-.07.57-.23v-.07c-.183.0549-.357.1321-.52.23-.79.49-1.7 1.06-2.57 1.55-.09.15-.09.15 0 .3h-.13c-.637.3504-1.249.7447-1.83 1.18-.535.4211-1.043.8753-1.52 1.36-.326.1948-.608.4533-.83.76-.26 0-.22.08-.35.19-.108.1477-.225.288-.35.42.26 0 .26-.16.35-.42l.39-.11c.26-.35.88-.69 1.22-1.07.34-.38.4-.3.4 0 .21.08.21 0 .39-.22.18-.22.26-.42.52-.27.26.15.18-.19.22-.19.35.15 0 .27 0 .34-.139.0047-.273.0461-.39.12-.09 0-.13.19-.26.3-.13.11-.31.11-.26.19-.35.23-.66.68-1.09.76l-.22.11h.22c0 .15-.26.15-.22.27-.109.1967-.277.3541-.48.45 0 .12-.09.23-.35.23-.08.3-.26.3-.3.64 0 .16-.13.16-.26.16-.398.4108-.762.8522-1.09 1.32-.09.19-.35.57-.44.76-.09.19-.3.49-.52.42l-.13.07c.13 0 .13.15.26.15-.169.1457-.317.3139-.44.5-.26.11-.22.45-.52.6-.177.2473-.284.5373-.31.84-.17.2562-.302.5358-.39.83.009.2766-.084.5471-.26.76-.194.4397-.27.9221-.22 1.4.019.3798.019.7602 0 1.14l.21.11c-.148-.0006-.293.0265-.43.08.17.15.17.15.26.15-.09.08-.09.08-.22.08.09.11.22.11.22.26.17 0 .17 0 .17.15s.18.15.35.27c0 .3.05.49.22.6-.001.1093.033.2159.095.3054.063.0895.152.1575.255.1946-.009.063-.009.127 0 .19h.09l.13.07c.333.1794.706.2733 1.085.2733.378 0 .751-.0939 1.085-.2733zm-3.1-6.52c0-.3.52-.34.31-.6.21-.27 0-.72.52-.72-.35-.23-.35.19-.57.34.22-1 1-1.44 1.35-2.27h-.08c-.337.3347-.641.6996-.91 1.09-.315.4655-.511 1.0012-.57 1.56-.22.11-.13.3-.17.6h.12zm1-1.93c-.21.08-.13.23-.43.46.26-.08.52-.08.43-.46zm.31-.38c0-.11-.22 0-.22.19v.19c.13-.19.22-.26.22-.38zm.7-1.32c.13-.23.21-.5.48-.57.261-.2449.468-.5411.61-.87.16-.226.348-.431.56-.61-.3 0-.52.23-.56.61 0 0-.22 0-.27.07-.198.3281-.448.622-.74.87-.13.27-.26.5-.39.8.068-.1306.177-.2357.31-.3zm1 10.87h-.48c.028.0287.061.0516.098.0671.037.0156.076.0237.117.0237.04 0 .079-.0081.116-.0237.037-.0155.071-.0384.099-.0671h.05zm.92-12.35c0-.08 0-.08-.22-.15-.22-.07 0 .19-.26.26.08 0 .26-.11.43-.11h.05zm-.13 12c.39.19 1.87-.76 1.87-1.17.18 0 .18 0 .18.07s0-.07.08-.07c-.067-.1123-.175-.1946-.3-.23l-.09.11c-.3.12-.35.38-.52.38-.18.34-.39.42-.7.61-.08.15-.43.15-.65.26v-.11c0 .11-.09.19-.05.34.04.15 0-.1.13-.14l.05-.05zm.73-12.8v-.23c-.22.12-.3.23-.44.23.09.12.14.12.14.12s.04-.12.3-.12zm.83-1c-.35 0-.44.38-.61.45.26-.05.52-.17.57-.43l.04-.02zm1 13.45v.15c-.26.12-.52 0-.78 0 .262-.0192.522-.056.78-.11v-.04zm.53-1.06c.17-.11.17-.23.35-.38.18-.15.34-.3.47-.45l.14-.15c-.013-.0896-.013-.1804 0-.27h-.43c.17 0 .17-.19.3-.3 0 .11.13.11.26.26.661-.6992 1.154-1.5408 1.44-2.46.088-.2181.206-.4233.35-.61 0-.07.17-.07.31-.15.17.08.17.08.21.15.04.07-.09.38-.39.15 0 .23.09.38-.09.46.27.15.13.23-.13.26s-.26.12-.22.38c.05-.19.22-.19.35-.19-.227.3668-.431.7476-.61 1.14h-.17l-.13.11c.17.35-.09.57-.22.8-.13.23-.52.53-.78.72l-.53.64c0 .19-.39.19-.65.12l.17-.23zm.91-14.36c-.168.1139-.328.2374-.48.37.13-.09.39-.2.48-.35v-.02zm.09 11.37s0-.08-.13-.08c0 .23-.13.3-.13.46.051-.1419.141-.2666.26-.36v-.02zm1.22-1h.09c.016.0623.016.1277 0 .19-.048.2273-.136.4441-.26.64 0 .12-.13.12-.26 0 .131-.2533.275-.5002.43-.74v-.09zm.52-.42c-.22 0-.3.15-.43.15 0-.12.17-.23.43-.08v-.07zm-.22-.3l.22-.15c-.111-.0494-.23-.0766-.35-.08.237-.0937.459-.2217.66-.38.019.0353.029.0748.029.115s-.01.0797-.029.115c.118-.2239.192-.4682.22-.72-.048.0554-.108.0981-.176.1242-.069.0262-.142.0351-.214.0258.17-.23.3-.23.61-.23v-.11c.13-.27.35-.27.66-.15v.11c-.223.3504-.386.7358-.48 1.14-.13.15-.26.42-.52.34-.214.0377-.433.0098-.63-.08v-.07zm.66-1.44c0-.23.08-.3.48-.49-.22.26-.18.49-.4.64v.11c-.035-.0598-.062-.1236-.08-.19v-.07zm.78-1.18l-.39.5c.07-.43 0-.46.39-.43v-.07zm-.26.91c0-.07.18-.07.18-.07-.14-.15-.31-.23-.05-.23.08-.1241.112-.2737.09-.42.22-.19.17-.41.3-.68.13-.27.13-.15.13-.15.132.0197.267.0197.4 0 .08.19.08.27-.13.27-.18.19-.4.19-.4.34h.4c-.08 0 0 .22-.18.38-.053.2448-.155.4762-.3.68-.139-.0612-.292-.0786-.44-.05v-.07zm.18-1.63c0-.07-.14-.19 0-.38-.05-.07 0-.22 0-.22.121-.043.226-.1235.3-.23h-.13v-.12c.17-.15.3-.22.39-.41 0 0 .17 0 .13.15-.205.3938-.353.8147-.44 1.25-.21.11-.3.11-.25.03v-.07zm.61-8.71h-.18c0 .19-.3.26-.43.41.209-.1024.412-.2159.61-.34v-.07zm-.27 8.6c.35-.3.09-.72.44-1.06v-.34c0-.07-.09 0-.09.11h-.18v-.07c-.063-.0908-.091-.2005-.08-.31.08-.15.3-.23.35-.3.011.0494.011.1006 0 .15-.03.0743-.033.1565-.01.233.024.0764.073.1424.14.187 0-.31.09-.5 0-.84.024-.1255.024-.2545 0-.38.22 0 .27-.11.53-.11-.09.08-.05.23-.09.38.076-.0868.184-.1405.3-.15 0 .38 0 .64-.26 1-.001.0448-.014.0885-.037.1271-.022.0385-.055.0705-.093.0929 0 .27-.08.5-.08.76h-.31c.027.0149.058.0227.09.0227.031 0 .062-.0078.09-.0227-.14.15-.31.23-.4.45h.13l.13-.22v.41c-.192.0316-.388.0144-.57-.05v-.07zm.4-3.18c.101-.1018.161-.2369.17-.38.22-.08.22-.19.26-.34-.3-.12-.3-.12 0-.35 0-.07-.26-.37 0-.45.073-.2325.104-.4765.09-.72.09-.11.09-.19.09-.38.009-.0629.009-.1271 0-.19 0-.11.13-.26.13-.26s.17-.16 0-.23c0-.23.17-.38.13-.57.13-.27.31-.3.09-.64-.009-.063.003-.127.034-.1827.031-.0557.078-.1003.136-.1273v-.19c.05-.2505.08-.5047.09-.76.002-.0187.001-.0377-.004-.0559s-.014-.035-.027-.0492c-.012-.0143-.027-.0257-.045-.0335-.017-.0077-.036-.0116-.054-.0114-.015.115-.064.223-.14.31v.34c0 .19-.08.3 0 .45.08.15 0 .23-.26.31.09.34-.17.53-.13.83-.08.15 0 .38-.08.61-.08.23-.05.45-.05.72 0 .27 0 .22-.3.22-.05.15.22.23.22.23-.27.23-.22.61-.31.87s-.09.34-.35.34c0 0 .18.16.22.23.04.07 0 .27-.09.34v.12h.18zm0 .68c-.014-.0359-.013-.0756.002-.1109.015-.0354.042-.0637.078-.0791.002-.0265.011-.0518.027-.0731.016-.0212.038-.0375.063-.0469.007.0631.007.1269 0 .19-.044.1767-.115.3454-.21.5-.104-.0102-.207-.0102-.31 0 .04-.05.22-.12.37-.31l-.02-.07zm.3-15.24c0 .08-.09.08 0 .23-.18.07-.18.23 0 0 .48.07 0-.08 0-.16v-.07zm.57-.23c0 .08.17.08.3 0 .13-.08.09-.34.44-.26 0 0 .13 0 .13-.08.17-.11.17-.45.26-.53.09-.08 0-.15 0-.15-.22.15-.18.45-.44.57-.26.12-.13.11-.3 0-.061-.0049-.121.0065-.176.0328-.054.0264-.101.0669-.134.1172-.13 0-.17.26-.17.26v.19c0 .03-.04 0 .09-.08v-.07zm.87 7.24c-.35 0-.44 0-.39.23 0-.04.17-.04.39-.16v-.07zm0-.91c0-.3.4-.64.09-1 .092-.376.166-.7565.22-1.14.015-.3144.09-.6231.22-.91V25.6c-.13.27-.13.64-.22.83-.13.72-.21 1.41-.3 2.13l-.09.15c0 .07.09.19 0 .34-.09.15 0 .19.09.38l-.05.07c-.17.23-.13.57-.3.95.43-.04.56-.27.38-.46l-.04-.07zm.48.19c0-.22-.08-.49 0-.6h-.09c0 .11-.22.38-.18.6h.27zm0-1.06c-.044.1229-.044.2571 0 .38.17-.12.17-.19.04-.31l-.04-.07zm4.4-.57c-.08-.15-.08-.15-.08-.26-.57.34-1.48.64-2.1 1-.62.36-1.17 1-1.91 1.1.091.0738.166.1658.22.27 1.69-.67 2.65-1.43 3.91-2.04l-.04-.07zM67.1326 81.56c0 .18-.54.54-.82.72-.634.3329-1.1635.8347-1.53 1.45-.1064.1661-.2646.2926-.45.36-2.17.81-4.34 1.44-6.69.63-.369-.1747-.7717-.2668-1.18-.27-2.44-.27-3.25-1.54-4.61-3.25.0014-.0126.0002-.0254-.0037-.0375-.0039-.0121-.0103-.0233-.0188-.0327-.0085-.0095-.0189-.017-.0305-.0221-.0117-.0052-.0243-.0078-.037-.0077-.2077-.3531-.3019-.7616-.27-1.17 0-.09-.63-.18-.72-.72 0-.18-.09-.36 0-.45.63-.82-.09-1.09-.45-1.54 0-.18.18-.45.18-.63-.09-2.26-.45-4.7.09-7.14.45-2 .63-3.8 1.08-5.7l1.9-7.86 1.54-7.23c.1092-.5671.1694-1.1426.18-1.72-.2132-.048-.4236-.1081-.63-.18 0-.09-.09-.18-.09-.27.18-1.63.81-3.43.9-5.06.0901-.9011.0901-1.8089 0-2.71-.1411-.3101-.3717-.571-.6621-.7492-.2904-.1781-.6275-.2655-.9679-.2508-.27.09-.63.09-.81.18-1.7606.7972-3.4028 1.8337-4.88 3.08-1 1-2.17 2-3.16 3.07-.7857.46-1.44 1.1142-1.9 1.9-.6909 1.2451-1.5752 2.3725-2.62 3.34-2.8534 3.3148-5.2543 6.9936-7.14 10.94l-.73 1.81c-.2371 1.1204-.5994 2.2105-1.08 3.25-.1787.8711-.4537 1.7197-.82 2.53-.3734.9699-.6482 1.975-.82 3-.1401 1.2909-.4115 2.5642-.81 3.8-.9.63-.63-.18-1.54-.45-.54-.18-2.44-.28-2.44-.73.2987-1.9224.7229-3.8231 1.27-5.69 1-3.62 1.44-5.69 2.44-9.13l2.62-9.49c2.17-7.77 3-11.48 2.89-13.74-.09-2.44-.36-3.16-1.72-3.16-1.17.27-1.26.72-1.8 1.09-1.5989 1.177-2.9256 2.6845-3.89 4.42-.3273.4033-.6279.8275-.9 1.27-.46.72-1.27 1.26-1.27 2.35 0 .09-.09.09-.09.18-.9968 1.2123-1.8182 2.5589-2.44 4-.2268.4182-.4984.8105-.81 1.17-.18.54-.18 1.18-.37 1.63l-5.15 13.1-2.89 7.14c-1 2.53-1.17 4.88-1.72 7.5-.18.82-.36 1.18-1.34996.91-.43091-.1737-.8376-.4022-1.21-.68-.3088-.1317-.60935-.282-.9-.45-1-.18-1.27-.36-1.09-1.08.19-.91.64-1.72 1-3.44 1.17-5.6 2-8.31 4.99996-20.33.27-1.18.45-2.35.63-3.34.45-2.08.64-4 1-6.06.3427-1.9401.5532-3.9013.63-5.87.18-1.9.18-3.71.27-5.52-.0012-1.1939-.1832-2.3807-.54-3.52-.1663-.5165-.409-1.0053-.72-1.45-.1014-.1736-.2395-.323-.4047-.4376-.1652-.1147-.3534-.1919-.5515-.2262-.1982-.0343-.4014-.0248-.5955.0276-.1941.0525-.3744.1468-.5283.2762-.7683.3657-1.45.8907-1.99996 1.54-1.14931 1.269-2.15538 2.6607-3 4.15-1 1.18-1.54 2.81-2.71 4-.55.54-1 1.27-1.45 1.18-.91972-.5056-1.63937-1.3099-2.040003-2.28.714193-1.348 1.561773-2.6211 2.530003-3.8.98369-1.3869 2.03843-2.722 3.16-4 1.09968-1.3194 2.46189-2.3956 3.99996-3.16 1.1173-.5468 2.3593-.7883 3.6-.7.5742.1086 1.1234.3221 1.62.63 1.63.9 2 3.16 2.53 5.42l.27 3.08c.2014 1.0774.1707 2.1854-.09 3.25-.45 1 0 2-.09 3-.1044.5678-.1646 1.1429-.18 1.72-.9 2.71-.81 5.6-1.62 8.4-.3199 1.2431-.5043 2.5172-.55 3.8.3573-.6995.6614-1.4249.91-2.17 1.35-2.62 2.44-5.42 3.79-8 1.18-2.42 2.6364-4.6952 4.34-6.78 1.4275-1.9856 3.3662-3.5476 5.61-4.52.6849-.2878 1.4305-.4012 2.17-.33.996.1011 1.9725.3435 2.9.72.62.1979 1.1741.5615 1.6023 1.0514.4283.49.7145 1.0877.8277 1.7286.2754 1.1856.3665 2.4066.27 3.62 0 2.26-.64 4.43-.82 6.6-.1197 1.2359-.3814 2.454-.78 3.63 0 .18-.27.36-.36.54-.09.18-.36.36-.36.46.45 1.26-.91 2.16-.45 3.43.5919-.809 1.1329-1.654 1.62-2.53 1.5343-2.7189 3.3984-5.238 5.55-7.5 2.2641-2.3869 4.9845-4.2947 8-5.61.7138-.398 1.5131-.6176 2.33-.64 1.6522.0502 3.2789.4203 4.79 1.09.1918.1014.3486.2582.45.45.9729 1.4744 1.3911 3.2462 1.18 5-.0552 1.9033-.2087 3.8025-.46 5.69-.2483.8884-.4288 1.7943-.54 2.71-.18 1.09-.45 2.17-.63 3.26-.18.72-.54 1.44-1.36 1.44 0 .37.73.28.27.82-.46.54.19.54.19.81s-.55.45-.37 1c.18.28 0 .64 0 .91-.0949.409-.2463.8028-.45 1.17-.27 0-.81.09-1.17.09.2921.0943.5941.1547.9.18.048.0866.0786.1817.09.28.0105.7063-.0634 1.4112-.22 2.1-.27 1.18-.72 2.44-1.08 3.8.1542.1931.2382.4329.2382.68 0 .2471-.084.4869-.2382.68-.3125.649-.4991 1.3514-.55 2.07-.0397.6044-.1643 1.2003-.37 1.77-.27.63.36 1.09-.36 1.45.27.18.54.36-.09.36.36.18.63.54.45.9-.09.18-.36.36-.54.64.09.18.36.36.45.54.09.18.09.63.09 1-.0545.5677.0715 1.1381.36 1.63.18.27 0 .72.09 1.17.09.45.09.82.37 1 .72.45.81 1.44 1.35 2.08.4807.5849 1.0951 1.0457 1.7913 1.3433.6962.2976 1.4537.4234 2.2087.3667 1.7543-.0756 3.4752-.5041 5.06-1.26 1.0647-.5303 2.0906-1.1351 3.07-1.81.12.42-1.05.51-.87 1.33zM9.02264 69.82c3.05846-8.9582 5.07176-18.2397 5.99996-27.66-.4627 1.7543-.8233 3.5339-1.08 5.33-.745 5.1656-1.7867 10.2841-3.12 15.33-.7441 2.0751-1.37833 4.1881-1.89996 6.33-.04047.1112-.05253.2307-.03506.3477.01746.117.06389.2278.13506.3223zM26.0226 34.66c-.64.91-1.45 1.72-2 2.62-1.6407 2.461-3.0628 5.0609-4.25 7.77l-2.44 5.61c-2.44 5.51-5.51 14.91-6.33 17.17-.2933.7966-.5339 1.6117-.72 2.44-.35996.81-1.07996 3.07-.44996 2.62l1.16996-2.62c.64-1.45.73-2.35 1.36-3.53 1.5891-5.4169 3.5951-10.7027 6-15.81.28-.27.28-.63.37-1.09.45-.81.18-2 1-2.8.63-.63.54-1.44 1.17-2.26.1-.45.37-.72.46-1.08l.81-1.36c.1083-.528.2866-1.0392.53-1.52.0964-.4978.3126-.9646.63-1.36.91-1.26 1.81-2.44 2.63-3.7.0806-.0667.1464-.1496.193-.2433.0467-.0937.0732-.1961.078-.3006.0047-.1046-.0126-.209-.0506-.3064-.0381-.0975-.0961-.186-.1704-.2597l.01.01zm7.5 17l2-9-.28-.36c0 .27-1.35 4.7-1.35 4.79 0 1-.72 2.08-1 3.17-1.17 3.16-2 7.23-2.71 9.94-1.17 4.25-1.71 6.23-2.62 10.57.0276.247.0881.4891.18.72 0 .09 3.53-12.47 3.62-12.47l1-3.52c.2611-1.32.6462-2.6124 1.15-3.86l.01.02zm17.25-15.29c-1.365.4343-2.6273 1.142-3.71 2.08-1.1642.5025-2.1429 1.3554-2.8 2.44-.1612.0698-.3125.1606-.45.27-.63.63-1.08 1.26-1.72 1.81-.64.55-.81 1.17-1.39 1.85-1.27 1.72-2.26 3.44-3.35 5.25-1 1.62-1.44 1.89-2.35 3.52l-.45 1.63c.36-.73 1.18-2.08 1.72-3 .2281-.6417.6739-1.1832 1.26-1.53l.19-.27c.63-1.36 1.17-1.36 1.89-2.71.09-.1.46-.1.46-.19.18-.54.09-.9.27-.72l2.26-2.89c.63-.81 1.26-1.63 2-2.44.9676-.864 1.7912-1.8767 2.44-3 .46-.18.91-.09 1.27-.36.74-.57 1.47-1.02 2.46-1.74zm-.81 38.68l.27 2.17c-.737-1.3524-.9641-2.9243-.64-4.43.2888.7167.4152 1.4886.37 2.26zm0-5.51c-.37-1.54.27-3 .72-4.52-.27 1.53-.45 3.07-.72 4.52zm2-9.4c-.36 1.17-.54 2.44-1.08 3.88.0488-1.3777.354-2.7342.9-4 .07.03.07.03.16.12h.02zm.74 10.21l-.82-1.08-.18 4.55 1-.63c-.2195-.166-.3976-.3806-.5202-.6269-.1226-.2464-.1865-.5179-.1865-.7931s.0639-.5467.1865-.7931c.1226-.2464.3007-.461.5202-.6269zm.09-2.08c-.1728-.4708-.3034-.956-.39-1.45-.18.09-.46.18-.46.27 0 .63.09 1.08.09 1.71.2335-.1898.4772-.3668.73-.53h.03zm-.54-9.13c-.09 0-.19 0-.19-.09s.1-.36.1-.54c.09 0 .18 0 .18.09s-.12.36-.12.54h.03zm.54-2.26c-.0519.2274-.1433.444-.27.64-.09 0-.09 0-.18-.09l.36-.73c0 .18.06.18.06.18h.03zm.27 7.69c.54-.18 1.08-.28.81-.46.36-.18.09-.18-.18-.27.27-2.44.54-3.16.27-3.61v-.09c-.7037 1.3658-1.0251 2.8965-.93 4.43h.03zm1.72-16.9c-.0907 1.0148-.2748 2.019-.55 3l-.36-.09.73-2.89.18-.02zm-.73 12.2c.09-.27.46-.55.27-.82l-.27.82zm1-8.68c.1094.0628.234.094.36.09l.18-.72c-.0488.0061-.0984.0012-.1452-.0144-.0467-.0156-.0893-.0414-.1248-.0756.0008.134-.0253.2668-.0769.3905-.0515.1236-.1274.2357-.2231.3295h.03zm1.8-4c.0505-.0069.1018-.0024.1503.0132.0484.0155.0928.0418.1297.0768.09-.09.18-.18.18-.27.18-.09.09-.27.09-.63-.1532.3026-.3485.582-.58.83l.03-.02z"/>
  <path d="M65.4127 60.59c-.4507-.3525-.9366-.6575-1.45-.91-.4004-.5001-.6747-1.089-.8-1.7173-.1253-.6282-.0979-1.2773.08-1.8927.27-.63.45-1.09.63-1.63.09-.09.09-.09.09-.18.09-.54.36-1 .54-1.63l.64-1.08c.36-.45.54-.9.72-1.08 1.0083-1.3925 2.0933-2.7279 3.25-4 1.1116-1.3022 2.6497-2.167 4.34-2.44 1.9.36 4.07.72 4.43 2.8.27 1.27-.4501 2.08-.9101 3 .7301-.09 1.3601-.81 2.4401-.72.2735.1005.517.2688.7077.4892.1907.2204.3222.4856.3823.7708.0478.5795-.0133 1.1629-.18 1.72-.09.09-.09.27-.18.45-.3155 1.2933-.2212 2.6527.27 3.89.0626.2117.1664.409.3054.5806.139.1716.3104.3141.5046.4194.1006.0453.2096.0687.32.0687.1103 0 .2193-.0234.32-.0687.341-.0585.6758-.1489 1-.27 1.4717-.7303 2.8655-1.6081 4.16-2.62 1.17-.72 2.53-1.53 3.79-2.44 2.17-1.35 2-1.17 4.07-2.53.7115-.5722 1.4672-1.0871 2.26-1.54l.27.19-.81 1.08c.18.45.18.45.72.09 0-.18 0-.54.45-.36-.9755 1.1819-2.1709 2.1633-3.52 2.89-.4381.2948-.8921.5652-1.36.81-.2943.3738-.6618.6834-1.08.91-.09.09-.36.09-.64.18-.0067-.0691-.0388-.1332-.09-.18.2094-.0743.398-.1978.55-.36.1629-.0571.299-.1724.382-.3238.0831-.1514.1073-.3281.068-.4962 0-.09-.18-.18-.27-.18-.6399.3688-1.2456.7938-1.81 1.27-1.0151.4283-1.9592 1.0082-2.8 1.72-.2932.1698-.5972.3201-.91.45v.18c.27-.09.55-.09.73-.27.1151-.119.2687-.1934.4335-.2099.1647-.0165.33.026.4665.1199 0-.09-.09-.18-.09-.27.63-.28 1.09-.19 1.63-.64.5324-.2601 1.0439-.561 1.53-.9-.0045.1263-.0396.2497-.1023.3594-.0627.1098-.1512.2026-.2577.2706-.72.36-1.44.91-2.17 1.27-.2228.1315-.4086.3172-.54.54-.1761.1715-.3929.2953-.63.36.2027.068.4162.0985.63.09l-.09.09c-.1912.1128-.4081.1748-.63.18v.36c.45-.27 1.08-.54 1.53-.81v.18c-.5257.3459-1.012.7483-1.45 1.2-.7427.6396-1.5624 1.1838-2.44 1.62-.54.27-.82.18-1.27.45-.2808.1466-.5857.2414-.9.28-.2653.0795-.5361.1396-.81.18-.5098.0745-1.0251.1046-1.54.09-.18-.09-.72-.09-.91-.27-.19-.18-.45-.46-.72-.55-.54-.72-1.17-1.08-1.53-1.89-.55-.55-.46-.73-.73-1.18-.18-.09-.18-.27-.27-.45-.63.36-.6301 1.26-1.2601 1.26-.18.18-.2799.46-.4599.55-1.2352 1.0147-2.5763 1.8932-4 2.62-.6685.3386-1.4018.5298-2.1505.5609-.7487.031-1.4953-.0988-2.1895-.3809-.2349-.0036-.4678-.0441-.69-.12zm4.0599-3c1.1249-.4361 2.1221-1.1479 2.9001-2.07 1.35-1.45 2-2.53 3.34-4 .09 0 .45-.45.45-.45h-.09c-2-.18-1.2601-4.16-1.1701-4.25-2.71.45-5.8799 4.7-6.8699 6.42-.9134 1.4918-1.6135 3.1041-2.08 4.79 1.1887.045 2.377-.1001 3.5199-.43v-.01zm23.5001-5.42c-.0102-.1175.02-.2349.0854-.3331.0654-.0981.1622-.1711.2746-.2069.09-.18.45-.27.73-.36.28-.09.54-.09.72-.18v-.54c.18-.09.27-.28.36-.37.09-.09 0-.18-.09-.18-.3373.2754-.6988.5197-1.08.73-.6827.3762-1.3202.8292-1.9 1.35.2591.1169.5013.2683.72.45.09.01.18-.26.18-.35v-.01z"/>
  <path d="M91.4325 60.59s-.18-.18-.36-.09l-.36.54c-.5083-.9122-.6983-1.9678-.54-3l.72-3.71c.2679-.9822.4486-1.9861.54-3 .19-1.27.64-2.53.82-3.71.18-1.18.45-2.44.63-3.7.09-.18.09-.54.18-.63.091-.1333.2114-.244.3517-.3237.1404-.0798.2971-.1264.4583-.1363.91-.36 1.63.09 2 1.45.2714.7517.3639 1.5563.27 2.35 0 .27-.18.54-.18 1 .27-.36.64-.63.73-.9.4364-.7148.9794-1.3589 1.61-1.91.7516-1.0286 1.7085-1.8901 2.8095-2.53.483-.4113 1.084-.6591 1.717-.7076.632-.0485 1.264.1047 1.803.4376.45.36.9.72 1.27 1.08.09.09.18.28.36.28.34.283.59.6581.72 1.08l-.09.45s-.54.27-1.72-.27c-.569-.0988-1.155.0305-1.63.36-.426.4041-.912.7413-1.44 1-.27.09-.45.45-.63.72-.537.4254-1.051.8794-1.5395 1.36-.54.72-1.27 1.44-1.9 2.25-.63.81-1.35 1.81-2 2.9-.6495 1.0568-1.1922 2.1757-1.62 3.34-.36.9-.45 1.72-.73 2.53-.18.63-.18 1.27-.36 1.9-.18 1.08-.54 1.26-1.26 1-.53-.24-.63-.6-.63-1.41zm6.6-13.47c.0066-.0691.0387-.1332.09-.18 1-1 1.81-2.08 2.7095-3.07-.27-.73-.54.45-.81.27-.2695.36-.3595.72-.5395.81-.91.27-1.36 1.27-2.08 2-.2649.2274-.468.5181-.5904.845-.1224.327-.1601.6796-.1096 1.025.217-.7121.6911-1.318 1.33-1.7zm1.54 0c.5395-.27.8095-.81 1.2595-1.26-.475.1727-.9052.4494-1.2595.81-.4362.4468-.8312.9321-1.18 1.45.64.09.82-.82 1.18-1zM132.193 68.45l-7.41 2.08c-.14.0837-.292.1444-.45.18-.63-.09-.81.18-1.17.72-.004.1668-.068.3267-.18.45.171.3441.293.7112.36 1.09-.367-.0366-.731-.0967-1.09-.18-.09.09-.09.09-.09.18s.36.09.54.18c-.09.45.55.81-.09 1.36.37.63.18 1.08-.27 1.26.18.72 0 .9-.63 1.27.09.09.36.27.36.36-.09.27-.18.54-.36.63h.36c.09 0 .09 0 .09.09-.168.0557-.322.1479-.45.27-.18.18-.27.36-.45.45.16.2821.374.53.63.73-.332.0459-.669.0459-1 0v.18l.81.09c.18.63.09.72-1 .63-.124.3502-.188.7186-.19 1.09.318-.379.685-.7152 1.09-1 .09.54.18.81-.36 1-1.09.09-1.09.72-.73 1.44l.28-.54c.18.09.45.18.54.36-.27.81-.45 1.54-.63 2.26-.092.5501-.215 1.0944-.37 1.63-.27.54-.63 0-.81-.09-.09.18-.09.27-.18.36-.27.9-.18.9.36.72-.082-.2575-.203-.5005-.36-.72.36.09.63.18.63.27.092.3269.092.673 0 1-.18.18-.45.36-.45.73-.292.1151-.593.2054-.9.27-.035.0354-.06.0781-.076.1248-.016.0467-.02.0963-.014.1452.27 0 .54-.09.81-.09.027.2822-.036.5658-.18.81l-.54-.54c-.074.1821-.199.3386-.36.45l.54.09c.089.2317.089.4883 0 .72-.149-.2351-.331-.4473-.54-.63-.19.63-.19 1-.37 1.45.09.18.46.27.64.54s-.55 1.17-1 1.45c.093.18.183.27.27.27l-.63.45c.07.2946.1.5973.09.9l-1-.09v.18c.311-.028.623.0345.9.18 0 .0239.009.0468.026.0636.017.0169.04.0264.064.0264-.265.0677-.511.1942-.72.37.45.63-.18 1.08-.36 1.8-.27.55-.91.73-1.09 1.27-.27.09.18 1.26-.72.63.082.276.237.525.45.72.09.55-.54.37-1 .46.199.088.382.21.54.36-.231.079-.445.201-.63.36.36 1-1 .81-1.18 1.45l.54.36c-.331.429-.632.88-.9 1.35-.024 0-.047-.009-.064-.026s-.026-.04-.026-.064c-.36.36-.9.73-1.18 1 0 .09 0 .18.1.18h.27c.009.068.04.132.09.18-.82 1-1.81 1.81-2.62 2.71-.005.278-.083.549-.227.786-.144.238-.349.432-.593.564-.63.64-1.35 1.09-1.9 1.72-.09.09-.09.18-.18.18-.9.36-1.44 1.27-2.62 1.27-.27.09-.45.63-.72.81-.459.325-.986.54-1.54.63-1.0627.266-2.1555.39-3.2504.37-.3268.093-.6732.093-1 0-1.3994-.388-2.7486-.938-4.02-1.64-.5529-.217-1.055-.545-1.4748-.965-.4199-.42-.7485-.922-.9652-1.475-.18-.36-.54-.45-.81-.91-.3623-1.025-.7864-2.027-1.27-3-.18-.18-.18-.54-.27-.81.09-.63.09-1.09.18-1.54.3163-2.839.8614-5.6484 1.63-8.4.0673-.1355.1588-.2575.27-.36.1372.1354.258.2864.36.45.2454-.8755.5806-1.7233 1-2.53l-.27-.18c-.09.18-.27.27-.36.36-.09.09-.09 0-.18-.09.2808-.3844.4938-.8139.63-1.27.82-1.63 1.72-3.16 2.62-4.61.9-1.45 2.08-2.8 3-4.15.1311-.1446.2827-.2693.45-.37l.9-1c.3059-.3845.6402-.7455 1-1.08.09.09.36.09.45.09l-1.09 1.26c-.3989.3015-.8201.5722-1.26.81-.028.2211-.0886.4368-.18.64.36-.18.45-.27.63-.27.18-.18.27-.37.36-.46.1817-.2187.3331-.4609.45-.72.27-.09.64-.09.82-.18.8554-.9502 1.7594-1.8548 2.7104-2.71.448-.6018.996-1.1227 1.62-1.54.227.0147.453-.0488.64-.18.161-.1716.257-.3948.27-.63-2.08.81-3.26 2.71-5.0004 3.8 0-.1-.09-.1-.18-.19.3193-.3748.6814-.7104 1.0804-1 .54-.6359 1.147-1.2125 1.81-1.72 1.44-1.08 2.89-2.08 4.43-3.16 1.246-1.0498 2.645-1.9029 4.15-2.53l3.44-1.9c1.379-.4605 2.717-1.0358 4-1.72l.36-.09c1.08-.27 1.44-.81 1.35-1.8-.082-.1384-.114-.3009-.09-.46.034-.4685.157-.9264.36-1.35.09-.09.18-.18.18-.27.82.9.19 2.08.37 3.16.078-.0676.143-.1501.189-.2428.046-.0927.074-.1938.081-.2972l.54-3.62c0-.27.09-.54.09-.72.09-.54.27-1.17.45-1.9.18-.9.18-1.71.45-2.8.035-.2749.095-.546.18-.81.09-.82.19-1.9.37-2.71v-.28c-.063.1436-.159.2703-.28.37-.54 3-1.08 6-1.71 8.85-.09.27-.09.55-.18.82-.181.0461-.365.0762-.55.09v.09c.014-.2468-.017-.494-.09-.73.116-.063.212-.1563.28-.27-.64-.9.09-1.53.09-2.26h.63v-.18h-.54c.231-1.8538.564-3.6933 1-5.51-.09.09-.09.18-.18.18-.047.0024-.092.0221-.125.0554-.033.0332-.053.0776-.055.1246-.166-.1854-.387-.3118-.63-.36-.18.09-.28.45-.46.54-.171.3035-.419.5556-.72.73-.704.916-1.524 1.7362-2.44 2.44v.09c-1.45.45-2.08 1-3.16 1.35-.531.1561-1.078.2468-1.63.27-.66.1364-1.341.1364-2 0l-2.26-.81c-.259-.2289-.472-.5035-.63-.81-.017-.1589-.075-.3106-.17-.4391-.095-.1284-.223-.2289-.37-.2909-.72-.54-.72-1.44-.82-2.35-.54-1.44 0-2.89.46-4.24.27-.55.63-1.18.81-1.63.243-.6297.545-1.2356.9-1.81.09 0 .09 0 .09-.09 1-.81 1.27-2.44 2.35-3.25.801-.6879 1.646-1.3225 2.53-1.9.964-.4443 2.053-.5397 3.08-.27.45.18 1.17 0 1.53.09.55.45 1.72.63 2.26 1 .808.5988 1.537 1.2977 2.17 2.08l.64 1.18c.54-.46 1.17-1.45 1.62-1.72l1.09.27c.738.0642 1.466.2152 2.17.45l-.28 1.72c-.28.6788-.521 1.3733-.72 2.08-.152.4715-.272.9526-.36 1.44-.72 2.9-1 5.61-1.63 8.41-.27 1.35 0 2.62-.54 3.89-.041.7849-.131 1.5665-.27 2.34 0 0 .09.46.18.46 1.18-.09 2.26-.36 3.43-.46 1.054-.0901 2.115-.0901 3.17 0 .345.0094.675.1483.923.389.248.2407.397.5658.417.911zM90.7026 94.3c-.0512.6352-.3034 1.2377-.72 1.72.2046-.5523.3259-1.132.36-1.72h.36zm29.8204-22c-.09 0-.18 0-.18-.09-.052.1967-.144.3806-.27.54-.083-.0482-.175-.0788-.27-.09-.18.9-.36 1.9-.45 2.8-.09.27-.09 1-.81.9.36-1.17.45-2.53.81-3.7-.72.18-1.27.63-1.9.81-2.233.781-4.356 1.8429-6.32 3.16-1.18.82-2.72 1.63-4.07 2.63-1 .72-2.17 1.26-3.25 2.16-.37.55-1.09 1-1.45 1.45-.54.45-1 .63-1.36 1-.522.5375-1.003 1.1123-1.4404 1.72-.6485.5238-1.2538 1.099-1.81 1.72-.18.36-.45 1-1.18.72-.1432.0943-.2657.2168-.36.36l-.54.64c1 .72-.09 1 0 1.53-.81-.09-1.08 0-1 .63.1375-.064.2601-.1559.36-.27-.45 1.09-1 2.26-1.45 3.26h-.18c.1589-.2545.2802-.5307.36-.82-.09 0-.18-.09-.27-.09-.112.3125-.2971.5937-.54.82-.09.36-.18.9-.36 1.44-.2843.371-.47.8079-.54 1.27-.28.72-.37 1.63-.55 2.26-.3549 1.233-.6222 2.489-.8 3.76-.0318 1.629.0283 3.258.18 4.88.0748.805.3551 1.577.8138 2.242.4588.665 1.0807 1.202 1.8062 1.558.4741.178.9583.329 1.45.45.54 0 1.08-.18 1.53-.18v.27c-.9041-.056-1.8116-.026-2.71.09.18.09.27.18.36.18 1.2055.428 2.5267.396 3.71-.09.63-.18 1.36-.63 1.9-.81 1.4404-.551 2.7594-1.38 3.8804-2.44 1.146-.992 2.206-2.08 3.17-3.25 1.44-1.81 2.35-3.44 3.61-5.25 1.124-1.7971 2.127-3.668 3-5.6.656-1.3385 1.198-2.7301 1.62-4.16.789-2.066 1.456-4.1762 2-6.32.45-1.63.72-3.35 1.08-5 .297-.9726.452-1.9831.46-3l.72.91c-.09.09-.27.18-.27.27-.18.45-.27 1-.45 1.44l-.46 3.62c-.066.2833-.225.5366-.45.72-.038.4916-.129.9777-.27 1.45-.36 1.26-.63 2.62-1.08 3.88-.45 1.26-.73 2.53-1.18 3.89-.14.4465-.387.8517-.72 1.18.064.2936.047.5991-.048.8842-.095.2852-.265.5393-.492.7358-.09.09-.27.09-.27.18.27.55-.18.91-.55 1.09-.37.18-.45.45-.81.72h.81c-.45.81-.63 2.08-1.44 2.44h.18c-.36.54-.27 1.27-1.09 1.27-.09 0-.09.18-.27.45.266-.066.515-.189.73-.36-.481.538-.879 1.145-1.18 1.8 0 .09-.18.19-.36.28-.18.09-.36 0-.45.09v.18l.45.09c-.371.293-.626.707-.72 1.17l-.91 1.18c-.09 0-.18-.09-.27-.09l1.45-2c-.64.18-2.44 2.8-2.71 3.16.422-.258.79-.598 1.08-1l.18.18c-.45.45-.54 1.35-1.54 1.08-.136.022-.261.085-.36.18-1.14 1.183-2.345 2.302-3.61 3.35l-1.63 1.08c-.27.18-.36.27-.54.27.18.09.36.09.54.18-.164.333-.377.639-.6304.91 0 .09.0904.27.1804.27.54-.27 1-.63 1.45-.91.906-.736 2.001-1.204 3.16-1.35-.27-.09-.45-.27-.72-.36.294-.07.597-.1.9-.09 0 0 0-.18.09-.18.45-.46 1.17-.82 1.63-1.36.27-.45 1-1 1-1.17-.36-.64.36-.28.45-.46.09-.45.64-.81.64-1 .09-.63.36-.72.54-1.08.45-.55.63-1.18 1.26-1.63.73-.63.55-1.72 1.45-2.35.09 0 0-.09.09-.18.22-.742.558-1.4442 1-2.08.46-.27.64-.81.91-1.27.071-.6275.253-1.2371.54-1.8l.81-1.54c.327-.9845.601-1.986.82-3 .18-.55.45-.91.63-1.45.27-.36.18-.72.45-1.26.11-.3531.171-.72.18-1.09.025-.5892.146-1.1703.36-1.72.09-.18 0-.36 0-.45.161-.3707.345-.7314.55-1.08.54-.09-.46-1.27.63-1.54l-.54-.09c.088-.3118.208-.6135.36-.9 0-.18-.18-.63.09-.82.355-1.1521.625-2.3286.81-3.52.016-.1184-.012-.2387-.078-.3381-.066-.0995-.167-.1713-.282-.2019.148-.0388.298-.0689.45-.09v-.82c-.09 0-.09 0-.09-.09s-.09-.09-.18-.09c.09-.09.18-.18.27-.18.27-.27.72-2.26.45-2.35l-.45.27c-.024 0-.047-.0095-.064-.0264-.017-.0168-.026-.0397-.026-.0636.15-.1578.272-.3405.36-.54.09 0 .18.09.27.18-.03-.39.24-.75.24-1.11l-.01-.04zM91.2526 95.2c.18 0 .36.09.64.09v-1.26l-.1.09c-.2159.3409-.3968.7028-.54 1.08zm1.18-4.06l.27.18c.0363-.0593.0852-.1099.1434-.148.0582-.0381.1241-.0628.1929-.0724.0689-.0095.139-.0037.2054.0171.0663.0208.1272.0561.1783.1033-.3437.2913-.6464.6276-.9 1 .81.09 1.17-.27.9-1 .18-.08.45-.08.54-.27.36-.45.46-.9.73-1.17.3726-.5503.7943-1.0658 1.26-1.54.0007-.0975-.0309-.1925-.09-.27.233-.1838.5234-.2794.82-.27l-.1-.18c-.1834-.0042-.3652-.0345-.54-.09.4555-.2856.8553-.6515 1.18-1.08.2248-.1884.3827-.4445.45-.73.1248-.2711.3325-.4956.5931-.6412.2605-.1455.5606-.2046.8569-.1688-.2213.2084-.4071.4516-.55.72-.45.18-.63.54-1 .72l.18.28c.3836-.4426.8444-.812 1.36-1.09.8268-.8902 1.7014-1.7348 2.6204-2.53l.36-.72c.893-.3929 1.607-1.1066 2-2h.81v-.18c-.249-.0648-.49-.1552-.72-.27l3.16-2.26c.051.0468.083.1109.09.18.101-.1918.258-.3486.45-.45.18-.09.45-.36.73-.36 1.081-.4269 2.11-.9736 3.07-1.63.36-.18.45-.45.81-.63.996-.4865 2.021-.9106 3.07-1.27 1.27-.54 2.17-1.63 3.62-1.81.27-.09.54-.63.18-.9v-.09c.09-.27.36-.54.54-.9-.27 0-.63-.1-.72.09-.43.3638-.978.5562-1.54.54-.09-.09-.27.27-.45.36l-.18.18c-.264.0743-.537.1047-.81.09-.64.09-1.09.09-.91.72-.291.1189-.592.2093-.9.27-.63 0-1.18.73-1.9.73v.27c.36 0 .72.18 1 .09.812-.3674 1.597-.7918 2.35-1.27.09 0-.1-.18-.1-.45l.46.54c.405-.4195.899-.7424 1.446-.9449.547-.2025 1.133-.2795 1.714-.2251-.823.2674-1.612.6298-2.35 1.08-.826.5159-1.704.9416-2.62 1.27-.326.2139-.702.3381-1.09.36-.369.0925-.73.2128-1.08.36-.31.334-.675.6115-1.08.82-.28.09-.46.36-.82.63-.72.36-1.81.81-2.62 1.26.102.1112.224.2027.36.27-.9.37-1.71.64-2.08 1.54-.289.0201-.568.113-.81.27v.27c-1-.09-1.45.18-1.26.82-.37.09-1.09.09-1.09.27-.09.54-.81.81-1.26 1.17-.305.3386-.58.7033-.82 1.09.54-.36.73-.36 1 .18-.376.1881-.74.3985-1.09.63-.18-.54-.36-.54-.63-.27-.1804.09-.1804.27-.2704.45 0 .0239.0095.0468.0264.0636.0168.0169.0397.0264.0636.0264.2404-.0556.4594-.1808.6304-.36 0 .18.09.27 0 .36-.239.3082-.5474.555-.9004.72 0 .19.09.28.18.46-.45.09-.72 0-1.18.09.36-.45.64-.64.91-1-.2965.0789-.6038.1094-.91.09.09.09.18.09.18.18-.4937.4822-.9177 1.0308-1.26 1.63-.54.27-.91.45-1.18 0-.6575.7693-1.2591 1.5847-1.8 2.44h.36c.18 0 .27-.09.45-.09-.09.09-.09.27-.18.45-.2185.3486-.496.6565-.82.91.0564-.1325.0786-.2769.0646-.4202-.014-.1433-.0637-.2807-.1446-.3998-.22.2933-.4642.5676-.73.82h.81c.1 0 .19.09.28.18-.1522.3501-.389.6568-.6893.8925-.3003.2356-.6545.3929-1.0307.4575-.18.1-.18.37-.45.56zm6.78 21.5c-.5844.065-1.1606.189-1.72.37-.09.09.09.18.09.27.3045.067.6222.042.9125-.072.2903-.114.5401-.311.7175-.568zm5.4204-3.16c.09.09.09.09.18.09-.81.63-1.36 1.36-2 1.9-.09-.09-.18-.09-.18-.18.28-.81 1.28-1.18 2-1.81zm.18-32.26c.176.1014.372.1621.574.1777.203.0156.406-.0144.596-.0877.09-.18.46-.36.55-.64.604-.43 1.235-.8208 1.89-1.17.19-.09.28-.45.46-.45.789-.1327 1.502-.5531 2-1.18h-.81c.09.18 0 .36.09.55-.81-.55-1.26 0-1.63.63-.127-.0135-.255.0184-.36.09-1.28.68-2.28 1.44-3.36 2.08zm1.35 30.6l.37.27c-.544.415-1.058.866-1.54 1.35.09-.18-.09-.36-.09-.36l1.26-1.26zm14.1-55.5c.64.09.73-.45.91-.72-.36-.18-.54-.54-.82-.81-.194-.1809-.332-.4142-.395-.6716-.064-.2574-.052-.5278.035-.7784.021-.8277-.198-1.6439-.63-2.35-.093-.1309-.214-.2393-.354-.3172-.14-.0779-.296-.1233-.456-.1328-1.381.0452-2.699.5887-3.71 1.53-.72.64-1.44 1.09-2.08 1.72-.09.18-.45.45-.63.73l.09.45c-.45.63-1.08 1.17-1.54 1.89-.54 1.09-.9 2.17-1.35 3.17-.369.7288-.433 1.5736-.18 2.35.27 0 .63-.09 1-.09 1.309-.1954 2.586-.5618 3.8-1.09.45-.09 1-1 2-.45-.28-.72 0-1 .54-1h.09c.344-.611.882-1.0897 1.53-1.36.19 0 .37-.27.55-.45.36-.54 1.35-.63 1.44-1.45-.005-.025-.004-.0506.002-.0753.006-.0246.016-.0479.031-.0684.015-.0205.034-.0378.056-.0509.021-.0131.046-.0218.071-.0254v.05zm-9.76 21.33c.36 0 .73.27 1 .18.305-.074.585-.2296.81-.45-.298-.1094-.617-.1465-.932-.1083-.315.0383-.616.1508-.878.3283v.05zm9.67 11.84c.013-.1269-.019-.2544-.09-.36-.095-.0157-.186-.046-.27-.09-.019.1912-.081.3758-.18.54-.09.27-.09.45-.18.82.109.0628.234.0939.36.09.09-.42.27-.78.36-1.05v.05zm.18-1.26c.092-.3441.215-.6789.37-1-.73.13-.82.31-.37.95v.05zm2-30.46c-.238.0482-.453.1714-.615.3515-.162.18-.262.4074-.285.6485h-.81v.18l-.1-.09v.09c-.09 0-.09 0-.09.09s-.09.09-.09.18c0 .28-.09.55-.09.73.55-.18.73-.63 1-.63.45 0 .63-.28.81-.64 0-.09.09-.09.18-.18-.01-.33.08-.51.08-.78l.01.05zM133.553 60.59c-.451-.3525-.937-.6575-1.45-.91-.401-.5001-.675-1.089-.8-1.7173-.125-.6282-.098-1.2773.08-1.8927.27-.63.45-1.09.63-1.63.09-.09.09-.09.09-.18.09-.54.36-1 .54-1.63l.64-1.08c.36-.45.54-.9.72-1.08 1.008-1.3925 2.093-2.7279 3.25-4 1.111-1.3022 2.65-2.167 4.34-2.44 1.9.36 4.07.72 4.43 2.8.27 1.27-.45 2.08-.9 3 .72-.09 1.35-.81 2.44-.72.271.1019.513.2708.702.4911.189.2203.319.4848.378.7689.048.5795-.013 1.1629-.18 1.72-.09.09-.09.27-.18.45-.316 1.2933-.221 2.6527.27 3.89.062.2117.166.409.305.5806.139.1716.311.3141.505.4194.1.0453.209.0687.32.0687.11 0 .219-.0234.32-.0687.341-.0585.676-.1489 1-.27 1.472-.7303 2.865-1.6081 4.16-2.62 1.17-.72 2.53-1.53 3.79-2.44 2.17-1.35 2-1.17 4.07-2.53.711-.5722 1.467-1.0871 2.26-1.54l.27.19-.85 1.07c.18.45.18.45.72.09 0-.18 0-.54.45-.36-.976 1.1819-2.171 2.1633-3.52 2.89-.437.297-.891.5675-1.36.81-.294.3738-.662.6834-1.08.91-.09.09-.36.09-.63.18-.007-.0691-.039-.1332-.09-.18.206-.075.391-.1985.54-.36.163-.0571.299-.1725.382-.3238.083-.1514.107-.3281.068-.4962 0-.09-.18-.18-.27-.18-.639.3712-1.244.796-1.81 1.27-1.015.4283-1.959 1.0082-2.8 1.72-.291.1679-.591.3182-.9.45v.18c.27-.09.54-.09.72-.27.115-.119.269-.1934.433-.2099.165-.0165.33.026.467.1199 0-.09-.09-.18-.09-.27.63-.28 1.09-.19 1.63-.64.532-.2601 1.044-.561 1.53-.9-.005.1263-.04.2497-.102.3594-.063.1098-.152.2026-.258.2706-.72.36-1.44.91-2.17 1.27-.223.1315-.409.3172-.54.54-.176.1714-.393.2953-.63.36.203.068.416.0985.63.09l-.09.09c-.191.1128-.408.1748-.63.18v.36c.45-.27 1.08-.54 1.54-.81v.18c-.526.3375-1.013.7334-1.45 1.18-.741.6418-1.561 1.1862-2.44 1.62-.54.27-.81.18-1.27.45-.281.1466-.586.2414-.9.28-.266.0795-.536.1396-.81.18-.51.0748-1.025.1049-1.54.09-.18-.09-.72-.09-.9-.27-.18-.18-.45-.46-.73-.55-.54-.72-1.17-1.08-1.53-1.89-.55-.55-.45-.73-.73-1.18-.18-.09-.18-.27-.27-.45-.63.36-.63 1.26-1.26 1.26-.18.18-.27.46-.45.55-1.236 1.0142-2.577 1.8926-4 2.62-.669.3386-1.402.5298-2.151.5609-.748.031-1.495-.0988-2.189-.3809-.227.0041-.453-.0263-.67-.09zm4.07-3c1.12-.4391 2.113-1.1506 2.89-2.07 1.35-1.45 2-2.53 3.34-4 .09 0 .45-.45.45-.45h-.09c-2-.18-1.26-4.16-1.17-4.25-2.71.45-5.88 4.7-6.87 6.42-.909 1.494-1.609 3.1057-2.08 4.79 1.192.0444 2.383-.1008 3.53-.43v-.01zm23.49-5.42c-.01-.1175.02-.2349.085-.3331.066-.0981.162-.1711.275-.2069.1-.18.46-.27.73-.36.27-.09.54-.09.72-.18v-.54c.18-.09.27-.28.36-.37.09-.09 0-.18-.09-.18-.337.2754-.699.5197-1.08.73-.683.3762-1.32.8292-1.9 1.35.259.1169.501.2683.72.45.09.01.18-.26.18-.35v-.01z"/>
  <path d="M159.583 60.59s-.19-.18-.37-.09l-.36.54c-.509-.9122-.699-1.9678-.54-3l.72-3.71c.271-.9819.455-1.9858.55-3 .18-1.27.63-2.53.81-3.71.18-1.18.45-2.44.63-3.7.09-.18.09-.54.18-.63.092-.1346.214-.2461.356-.3259.142-.0798.301-.1257.464-.1341.9-.36 1.62.09 2 1.45.28.7496.376 1.5555.28 2.35-.081.3298-.144.6636-.19 1 .28-.36.64-.63.73-.9.44-.7119.986-1.3526 1.62-1.9.751-1.0286 1.708-1.8901 2.81-2.53.482-.4113 1.083-.6591 1.716-.7076.632-.0485 1.264.1047 1.804.4376.45.36.9.72 1.27 1.08.09.09.18.28.36.28.339.283.589.6581.72 1.08l-.09.45s-.54.27-1.72-.27c-.567-.0994-1.149.0301-1.62.36-.433.4018-.921.7387-1.45 1-.27.09-.45.45-.63.72-.54.45-1.09.9-1.54 1.36-.54.72-1.26 1.44-1.9 2.25-.64.81-1.35 1.81-2 2.9-.65 1.0568-1.193 2.1757-1.62 3.34-.36.9-.45 1.72-.73 2.53-.18.63-.18 1.27-.36 1.9-.18 1.08-.54 1.26-1.26 1-.52-.25-.64-.61-.64-1.42zm6.59-13.47c.006-.0691.038-.1332.09-.18 1-1 1.81-2.08 2.71-3.07-.27-.73-.54.45-.81.27-.27.36-.36.72-.54.81-.91.27-1.36 1.27-2.08 2-.274.2281-.483.5228-.61.8556-.126.3328-.164.6925-.11 1.0444.215-.7265.697-1.3445 1.35-1.73zm1.54 0c.54-.27.81-.81 1.26-1.26-.476.1727-.906.4494-1.26.81-.437.4468-.832.9321-1.18 1.45.64.09.82-.82 1.17-1h.01zM192.023 49.38c-.106.0716-.233.1035-.36.09-.156-.014-.312.0172-.45.09.174.0635.339.151.49.26-.09.18-.27.18-.45.45 0 .09-.27 0-.45 0 .09.37-.1.64-.46.91s-.45.54-.81.36c-.09-.18 0-.45-.09-.63h-.09c0 .09-.09.09-.09.18 0 .36-.09.45-.45.45-.09 0-.27.18-.36.27-.09.09-.09.54 0 .54.36.27.09.36-.09.45l-.91.91c-.049-.0492-.112-.0809-.18-.09l.45-.54c.006-.0691.038-.1332.09-.18-.9.45-1.53 1.17-1.26 1.62.09-.09.18-.27.27-.27.27 0 .45-.09.72-.09 0 .09.09.27 0 .45-.254-.0269-.509.0368-.72.18.09.09.09.18.18.36.249-.1838.522-.335.81-.45 0-.54.36-.81.64-1.17.846-.7504 1.632-1.5662 2.35-2.44.09 0 .18-.09.27-.09l.09.09c-.55.72-1.09 1.44-1.81 2.26-.438.4964-.924.9486-1.45 1.35-.181.2944-.393.5692-.63.82-.111.1588-.174.3464-.18.54.277-.267.578-.508.9-.72-.18.54-.72.81-1.26 1.26-.11.1375-.2.2888-.27.45.09 0 .09 0 .18.09.27-.18.54-.45.9-.72 0 .18.09.27 0 .36-.36.3378-.695.7021-1 1.09-.18.18-.27.45-.45.63l-.46.45c-.75.5034-1.404 1.1367-1.93 1.87-.392.456-.851.8504-1.36 1.17-.429.3211-.925.54-1.45.64-.54.27-1.17.54-1.8.9-.617.0955-1.248.0013-1.81-.27-.9-.18-1.27-1-1.9-1.45-.18-.09-.18-.36-.27-.54-.097-.2694-.251-.515-.45-.72-.09-.36-.36-.54-.45-.91-.101-1.6519.113-3.3078.63-4.88.215-1.1934.516-2.3698.9-3.52.36-1.63.82-3.16 1.27-4.88v-.72c-.09-.37 0-.64.36-.64s.54-.27.81.18.91.73 1.18 1.18c.398.2607.739.6012 1 1 .166.4338.198.908.09 1.36-.024.4991-.146.9886-.36 1.44-.27 1.09-.63 2.17-1 3.35-.187.3448-.341.7064-.46 1.08-.09.18-.18.27-.18.45.28.82-.27 1.63-.36 2.53-.09.9-.27 1.63-.36 2.54.93-.2215 1.796-.6563 2.53-1.27 1.45-1.27 3.07-2.53 4.43-3.89 1.36-1.36 2.71-2.71 4.07-4 1.08-1 2.26-2 3.43-3.17.19.24.28.79-.17 1.6zm-13.2-10.3c-.266-.3053-.454-.6702-.548-1.0638-.094-.3935-.091-.8039.008-1.1962.236-.5918.59-1.1293 1.04-1.5797.45-.4505.988-.8044 1.58-1.0403.09-.09.46-.09.46-.09 1-.09 1.53.18 1.71.81.409.9065.504 1.9234.27 2.89-.414.8989-1.118 1.6318-2 2.08-.251.102-.524.1391-.793.1076-.27-.0315-.527-.1304-.747-.2876-.345-.1806-.673-.3914-.98-.63zm7.33 15.74c-.91 0-1.09 1.09-1.9 1.45v.09l1.53-.54c0-.09-.09-.09-.09-.18s-.18.09-.36.09l-.09-.09c.321-.2531.625-.5271.91-.82zm2.35-.18c.09 0 .09 0 .18.09-.096.3123-.217.6165-.36.91-.147-.0929-.273-.2156-.37-.36l.55-.64z"/>
  <path d="M204.403 30.76l-.09.18c3.52-.09 4.25-.09 6.06-.27.27.18.18.27 0 .36l-1.36.18c-.607.2254-1.254.3208-1.9.28-.45 0-1.26 0-2.44.09-1 0-2.35-.09-3.16 0h-1l-1 3.07c-.207.1308-.37.3212-.466.5461-.096.225-.122.4739-.074.7139.09.19-.09.37-.27.64.012.2515-.031.5026-.126.7358-.095.2331-.24.4428-.424.6142 0 .18-.18.36-.09.54.09.18.18.55-.36.73-.09 0 0 .18 0 .36-.155.5654-.276 1.1398-.36 1.72-.175.3803-.325.771-.45 1.17-.18.91-.63 1.81-.72 2.62-.303.4956-.491 1.0525-.55 1.63-.326.9775-.567 1.9812-.72 3-.151.2917-.332.5666-.54.82.27.45 0 1 0 1.44 0 .18-.27.54-.27.81-.116.3512-.147.7246-.09 1.09-.244.6973-.366 1.4314-.36 2.17-.003.169-.071.3304-.19.45-.09 0 0 .09.19.18-.117.3172-.272.6193-.46.9.37.46.46 2.08 0 2.17.18.18.46.27.09.46.37.09.37.36.37.72-.043.6452.049 1.2922.27 1.9.002.222.052.441.145.6426.093.2015.227.3813.395.5274l.63.72c.82.46.91.55 1.72.46.63-.0131 1.249-.1705 1.81-.46.27.91-.55 1.45-1 2.17-.18.27-.36.36-.9.36h.18c-.498.124-1.018.1316-1.519.0224-.501-.1093-.97-.3325-1.371-.6524-.82-.27-1.18-.81-1.9-1.62-.155-.2335-.336-.4483-.54-.64-.911-1.5525-1.496-3.2741-1.72-5.06-.24-1.8312-.209-3.6876.09-5.51.016-1.0977.167-2.1892.45-3.25l.64-2.54c.36-1 .36-2 .72-3.16 0-.36.27-.63.45-1.08h.18c-.09-.09-.09-.27-.18-.36l2.89-9 .91-2.8c-1.391-.0211-2.78-.1145-4.16-.28-1.09-.27-2.08-.45-2.17-1.26.003-.2083.064-.4117.175-.588.111-.1763.268-.3188.455-.412.45-.55.82-.46.82-.46s.36.09.54 0c.267-.1622.568-.2626.879-.2938.312-.0311.626.0078.921.1138l1.72.18c.664-.0694 1.332-.0995 2-.09.54-.9.63-1.81 1.18-2.71.27-.9.63-1.72 1-2.62.37-.9.81-1.9 1.08-3 .46-1 .64-2 1.18-3.07 0-.37.27-.55.54-1 .18-.63.54-1.54.72-2.17.18-.63.46-.63.82-.54.09.18.27.18.45.27.72.45 1.54.63 1.63 1.36.09.27.45.45.63.72.72.45.45.9.18 1.54-.677 1.6761-1.462 3.3063-2.35 4.88-.419 1.1697-.903 2.3149-1.45 3.43-.444 1.0605-.805 2.1538-1.08 3.27 1.26.09 2 .37 2.35.28 4.34.18 4.88.27 6.78-.09.18-.1.63-.46.9-.28.27.91-1.08 1-1.44 1.54l-.19.09c-.701-.038-1.403.0536-2.07.27-.37-.27-1.54-.09-2.08 0l-1.55.13zm-14.1 25.22l.54-3.8c.09-1.08.55-2.26.64-3.34.36-1.27.72-2.26 1-3.53.18-.9.63-1.89.9-2.89.26-.8915.474-1.7961.64-2.71.633-1.4715 1.174-2.9811 1.62-4.52l.28-.81c.176-.1334.3-.3249.35-.5408.049-.2158.021-.4422-.08-.6392-.18.27-.73 1.36-.73 1.36-.18.27-.27.72-.36.81-.216 1.1082-.517 2.198-.9 3.26-.449 1.0929-.843 2.2077-1.18 3.34l-.81 2.53c-.18 1.08-.45 2-.63 3-.36 1.09-.64 2.17-.91 3.26-.18.72-.09 1.44-.36 2.26.045.6893.045 1.3807 0 2.07-.18.28 0 .64 0 .91-.09.45-.45 1.08.09 1.44.059-.4886.025-.984-.1-1.46zm8.23-22.87l-.55.82c-.093.2209-.25.409-.45.54-1 2.71-1.81 6.14-2.8 9-.09-.09-.18-.09-.18-.18 0-.28.09-.46-.09-.55-.27-.81.63-1.26.54-2-.18-.18.18-.63.18-.63.423-.7954.729-1.6474.91-2.53.071-.3633.225-.7053.45-1 .18-.18.18-.18.18-.46v-.81l.36-1 .81-1.18c-.126-.004-.251.0272-.36.09l.36-1h-.36c-.099.5958-.281 1.1748-.54 1.72l-.36.54c-.217.6158-.367 1.2526-.45 1.9-.363.434-.586.9672-.64 1.53-.294.7704-.628 1.5247-1 2.26-.043.6771-.26 1.3317-.63 1.9-.27.45 0 .81-.36 1.27-.222.4171-.349.8782-.37 1.35.09.27-.09.45-.27.72-.268.332-.397.7549-.36 1.18.057.3594.031.7273-.079 1.0745-.109.3472-.298.6641-.551.9255 0 .09-.18.18 0 .18.27.54 0 .54-.09.72l.18.36c-.117.0449-.219.1192-.298.2156-.079.0964-.131.2116-.152.3344-.27.72-.27 1.35-.54 2 .049.0483.08.1117.09.18-.09.18.18.37-.09.55-.1.09.09.54.18.81 0 .09.09.09.18.18-.64.36-.36 1-.55 1.63-.046.4789-.046.9611 0 1.44 0 .18-.18.36-.09.64.194.2733.306.5967.322.9318.016.3351-.065.6677-.232.9582 0 .18.19.37.28.46.09-.09.09-.09.18-.09.045-.6926.045-1.3874 0-2.08 0-.82.09-1.54.09-2.26 0-.36.18-.91.18-1.18.102-.2588.163-.5322.18-.81-.09-.18.09-.45-.09-.72-.18-.27 0-.46.36-.64-.047-.0024-.092-.0222-.125-.0554-.033-.0333-.053-.0776-.055-.1246.04-.15.137-.2788.27-.36-.044-.7338.047-1.4693.27-2.17.049-.0483.08-.1117.09-.18.081-.4701.233-.9252.45-1.35 0-.09-.09-.37 0-.46.221-.6174.401-1.2488.54-1.89h.25c0-.18-.19-.28-.19-.55.192-.0697.377-.1602.55-.27-.45-.18-.45-.18 0-.45-.049-.0492-.112-.0809-.18-.09-.18-.54.63-.54.72-1 0 .18.09.27.09.45-.449.9492-.753 1.9605-.9 3-.243.4901-.428 1.0069-.55 1.54-.09.36-.18.54-.09.81.09 0 .27 0 .27.09s-.27.09-.27.18c-.324.7798-.536 1.6011-.63 2.44-.242.5713-.305 1.2023-.18 1.81h.36c-.103-.2588-.164-.5322-.18-.81.313-.9163.554-1.8559.72-2.81.104-.1133.23-.205.37-.27.27-.09.36-.09.36-.18s-.27-.36-.55-.36c.079-.1681.11-.3551.09-.54.19.18.46.27.55.45.36-.45-.45-.45-.55-.63.107-.1622.231-.313.37-.45.171-.5.291-1.0159.36-1.54v-.27c.45-.18.27-.45.18-.82l.36-.09c0-.27-.09-.45 0-.63.072-.2064.132-.4167.18-.63l.36.54c-.015-.214.016-.4286.09-.63h-.45c.219-.4054.4-.8306.54-1.27.172.0935.327.2152.46.36.037-.4296.128-.8528.27-1.26.09-.36.18-.72-.27-.81.09-.19.27-.37.18-.46-.18-.81.63-1.53.81-2.26.324-1.0082.594-2.033.81-3.07.302-.7232.559-1.4647.77-2.22zm-5.52 21.42c-.54 0-.18.73-.81.73l-.18-.28c-.007.0691-.039.1332-.09.18-.029.3975-.089.7921-.18 1.18.011.4551-.019.9104-.09 1.36l.09-.1.72-.72c-.18.27-.18.36-.27.45.126-.0135.254.0184.36.09.071-.3554.101-.7178.09-1.08h-.18v.27c0 .09-.27.18-.45.27.09-.18-.09-.45.09-.45.09-.18.27-.27.63-.63-.04-.27.18-.73.27-1.27zm-.27 4.34c.048-.0492.111-.0809.18-.09-.103-.1112-.225-.2027-.36-.27-.09.36-.27.72-.36 1.08.09.18.45.55.36.82h.14c.27-.27.09-.64.09-.82-.119-.2203-.152-.4772-.09-.72h.04zm2.35-13.29h-.27c-.18.55-.18 1-.36 1.45.36-.27.63-.45.63-.72 0-.27-.18-.49 0-.73zm4.07-14c0 .09-.09.09-.27.18l-.36 1.17h.09l.72-1.08c0-.18-.09-.18-.18-.27z"/>
  <path d="M203.323 60.59c-.452-.3502-.938-.655-1.45-.91-.4-.5001-.675-1.089-.8-1.7173-.125-.6282-.098-1.2773.08-1.8927.27-.63.45-1.09.63-1.63.09-.09.09-.09.09-.18.09-.54.36-1 .54-1.63l.63-1.08c.37-.45.55-.9.73-1.08 1.008-1.3925 2.093-2.7279 3.25-4 1.111-1.3022 2.65-2.167 4.34-2.44 1.9.36 4.07.72 4.43 2.8.27 1.27-.45 2.08-.91 3 .73-.09 1.36-.81 2.44-.72.273.1005.517.2688.708.4892.19.2204.322.4856.382.7708.048.5795-.013 1.1629-.18 1.72-.09.09-.09.27-.18.45-.316 1.2933-.221 2.6527.27 3.89.062.2117.166.409.305.5806.139.1716.311.3141.505.4194.099.045.206.0684.315.0684.108 0 .216-.0234.315-.0684.341-.0577.676-.1482 1-.27 1.47-.7326 2.864-1.6103 4.16-2.62 1.17-.72 2.53-1.53 3.79-2.44 2.17-1.35 2-1.17 4.07-2.53.71-.5745 1.465-1.0895 2.26-1.54l.27.19-.81 1.08c.18.45.18.45.72.09 0-.18 0-.54.45-.36-.976 1.1819-2.171 2.1633-3.52 2.89-.438.2948-.892.5652-1.36.81-.294.3738-.662.6834-1.08.91-.09.09-.37.09-.64.18-.007-.0691-.039-.1332-.09-.18.208-.0766.396-.1998.55-.36.163-.0571.299-.1724.382-.3238.083-.1514.107-.3281.068-.4962 0-.09-.18-.18-.27-.18-.64.3688-1.246.7938-1.81 1.27-1.016.4259-1.961 1.006-2.8 1.72-.294.1678-.598.3181-.91.45v.18c.27-.09.55-.09.73-.27.115-.119.269-.1934.433-.2099.165-.0165.33.026.467.1199 0-.09-.09-.18-.09-.27.63-.28 1.08-.19 1.63-.64.532-.2601 1.044-.561 1.53-.9-.005.1263-.04.2497-.102.3594-.063.1098-.152.2026-.258.2706-.72.36-1.45.91-2.17 1.27-.223.1315-.409.3172-.54.54-.176.1715-.393.2953-.63.36.203.068.416.0985.63.09l-.09.09c-.191.1128-.408.1748-.63.18v.36c.45-.27 1.08-.54 1.53-.81v.18c-.521.3402-1.004.7358-1.44 1.18-.743.6396-1.563 1.1838-2.44 1.62-.55.27-.82.18-1.27.45-.281.1466-.586.2414-.9.28-.269.0804-.543.1405-.82.18-.507.0748-1.019.1049-1.53.09-.18-.09-.73-.09-.91-.27-.18-.18-.45-.46-.72-.55-.54-.72-1.17-1.08-1.53-1.89-.55-.55-.46-.73-.73-1.18-.18-.09-.18-.27-.27-.45-.63.36-.63 1.26-1.26 1.26-.19.18-.28.46-.46.55-1.235 1.0147-2.576 1.8932-4 2.62-.669.3386-1.402.5298-2.151.5609-.748.031-1.495-.0988-2.189-.3809-.234.0029-.467-.0309-.69-.1zm4.06-3c1.125-.4361 2.122-1.1479 2.9-2.07 1.35-1.45 2-2.53 3.34-4 .09 0 .45-.45.45-.45h-.09c-2-.18-1.27-4.16-1.17-4.25-2.72.45-5.88 4.7-6.87 6.42-.914 1.4918-1.614 3.1041-2.08 4.79 1.189.045 2.377-.1001 3.52-.43v-.01zm23.5-5.42c-.01-.1175.02-.2349.085-.3331.066-.0981.162-.1711.275-.2069.09-.18.45-.27.73-.36.28-.09.54-.09.72-.18v-.54c.18-.09.27-.28.36-.37.09-.09 0-.18-.09-.18-.34.2774-.705.5218-1.09.73-.678.3783-1.312.8311-1.89 1.35.259.1169.501.2683.72.45.09.01.18-.26.18-.35v-.01z"/>
</svg>