<svg fill="currentColor" viewBox="0 0 50 43"><path d="M8.88202 13.6047c.30394.8308.95236 2.1681 2.02628 4.5389.4661.9726 1.3779 2.31 2.4721 2.4923.6162-.0364 1.2169-.2077 1.7596-.5018.5427-.2941 1.0142-.7039 1.3811-1.2003 1.8034-1.9249 4.316-4.316 4.9847-5.0049-2.1884-1.4387-5.2278 0-6.8691.4255-1.9463.4445-3.9873.1786-5.75468-.7497zM4.62463 8.377c-.02034-.05212-.02034-.10999 0-.16211 0-.14184 0-.52683 3.2826-.36473 2.02629.10131 4.66047.40526 7.45677.83078 2.7963.42552 5.4102.93209 7.3554 1.43866 3.1205.7903 3.0597 1.1753 3.0395 1.3171.0171.0457.0171.0961 0 .1418-.5877.5877-5.8155.1419-10.6583-.5876-4.8429-.7295-10.07071-1.88444-10.47597-2.6139zm3.30286-.30395c-2.97865-.1621-3.10023.18237-3.12049.18237.26342.48631 4.23495 1.58051 10.1315 2.49238 5.8965.9118 10.1314 1.0536 10.4962.6484 0 0 0-.3648-2.9179-1.0942-2.4047-.6019-4.8397-1.07537-7.2947-1.41843-2.6747-.40526-5.30884-.7092-7.29461-.81052z"/><path d="M23.6537 12.3482c-2.9268-.1031-5.8439-.3941-8.7333-.8713-2.3505-.3445-10.13151-1.60079-10.7394-2.85709-.0485-.15848-.0485-.32784 0-.48631 0-.64842.70921-.95236 3.80943-.79026 2.02627.10132 4.68077.40526 7.51757.83078 2.8368.42552 5.4507.95236 7.4162 1.43867 2.9179.77001 3.4244 1.21581 3.4244 1.90471-.0312.1708-.1164.3271-.2431.4458-.7616.3668-1.6145.5007-2.4518.385zM6.67334 8.53876c2.76897.75843 5.58486 1.33379 8.42936 1.72234 2.8213.4749 5.6713.7592 8.5307.851l-1.155-.2836c-1.925-.4863-4.4983-.99292-7.2338-1.41844-2.7355-.42552-5.36971-.7092-7.33522-.81052l-1.23604-.06078z"/><path d="M10.2569 5.58059L2.15177 12.4903c-.00943.0125-.02167.0227-.03574.0298-.01407.007-.02958.0107-.04531.0107-.01573 0-.03124-.0037-.04531-.0107-.01407-.0071-.0263-.0173-.03574-.0298l-.18237-.2432c-.463-.5468-.813773-1.1795-1.032274-1.8619C.556524 9.70282.474569 8.98408.533839 8.27001c.05927-.71406.258604-1.40945.586621-2.04648.32802-.63703.7783-1.20321 1.32513-1.66621.54682-.46301 1.17949-.81378 1.86188-1.03228.68239-.2185 1.40114-.30046 2.1152-.24119.71406.05927 1.40946.25861 2.04648.58662.63703.32802 1.20321.7783 1.66625 1.32513l.2026.22289v.12158s-.0811.02026-.0811.04052zM2.0302 12.1053v.1418l7.90254-6.76782-.12158-.14184c-.40564-.62549-.94085-1.15659-1.56944-1.5574-.62859-.40081-1.33592-.66198-2.07415-.76586-.73823-.10388-1.49016-.04804-2.20495.16374-.71479.21177-1.37578.57455-1.93828 1.06381-.5625.48926-1.01339 1.09358-1.322195 1.77212-.308806.67854-.468323 1.41547-.467769 2.16098.000555.7455.16117 1.4822.470985 2.16027.309819.6781.761609 1.2817 1.324839 1.7702z"/><path d="M2.03265 13.0173c-.15049-.002-.2949-.0597-.40526-.1621l-.20263-.2837C.669579 11.6929.189968 10.6113.0458205 9.46169-.0983268 8.31212.0993784 7.14555.614248 6.10766c.332075-.72848.815622-1.37781 1.418402-1.90471.59045-.53148 1.28319-.93681 2.03579-1.19116.75259-.25435 1.5492-.35237 2.341-.28803.77648.05051 1.53501.2558 2.23098.60378.69597.34798 1.31531.83164 1.82158 1.42251l.2027.24315c.0532.09978.081.21113.081.32421 0 .11308-.0278.22443-.081.32421 0 .12158 0 .1621-.1419.18236L2.4987 12.8552c-.06272.0571-.13634.1009-.21644.1287-.0801.0279-.16501.0393-.24961.0334zm3.84996-8.99672c-1.12398-.00655-2.2118.39688-3.0597 1.13473-.49421.40529-.88927.91816-1.15499 1.49945-.38508.77192-.54735 1.63591-.46861 2.49494.07875.859.3954 1.6791.91439 2.3682l7.13255-6.07891c-.7881-.82679-1.85896-1.32604-2.99891-1.39814l-.36473-.02027z"/><path d="M4.88847 5.27671c-.01392-.05974-.04002-.11595-.07667-.16514-.03665-.04918-.08305-.09028-.1363-.12071-.05325-.03043-.11221-.04954-.17319-.05614-.06098-.0066-.12267-.00055-.1812.01778-.39545.14158-.76507.34693-1.0942.60789-.29437.28736-.54677.61479-.74973.97262-.03038.05516-.04873.11613-.05384.17889-.0051.06277.00314.1259.0242.18525.02106.05934.05445.11356.09798.15906.04353.04551.0962.08128.15456.10495l2.3505.89157c.26341.10131.42552 0 .36473-.30395l-.52684-2.47207zm3.34659.64827c.04699-.03995.08474-.08963.11062-.14561.02589-.05598.0393-.11692.0393-.1786 0-.06167-.01341-.12261-.0393-.17859-.02588-.05598-.06363-.10567-.11062-.14561-.32616-.23417-.68913-.41223-1.07393-.52684-.39247-.12728-.80325-.1889-1.21578-.18237-.06231.00225-.12345.01754-.17948.04489-.05603.02735-.1057.06614-.1458.11388-.0401.04774-.06974.10337-.08701.16327-.01727.05991-.02177.12278-.01323.18454l.38499 2.49234c0 .26342.24316.34447.44579.1621l1.88445-1.8034zM2.31824 7.78942c-.05843-.02174-.12091-.03038-.18304-.02531-.06213.00506-.12239.02372-.17651.05465-.05412.03093-.10079.07337-.1367.12432-.03591.05096-.06019.10918-.07112.17055-.07408.40868-.07408.82735 0 1.23604.0876.40898.24527.79973.46605 1.15503.03995.0469.08963.0847.14561.1106.05598.0259.11692.0393.1786.0393.06167 0 .12261-.0134.17859-.0393s.10567-.0637.14561-.1106l2.0263-1.58055c.20263-.16211.18236-.385 0-.46605l-2.57339-.66868z"/><path d="M5.96322 40.1493c-1.90472-.5066-1.90472-.7498-1.90472-.9524 0-.5674 1.07394-.7903 2.30998-1.0942 1.5805-.4053 3.54601-.8916 3.80942-2.2289.4863-2.4316 1.0537-7.0515 1.2968-9.4628.3344-2.7574-.2268-5.5493-1.60074-7.9633-1.07393-2.2695-2.14787-4.235-3.18128-6.1397-.66867-1.2563-1.35761-2.53286-2.02629-3.931-.01423-.02465-.02172-.0526-.02172-.08106 0-.02845.00749-.05641.02172-.08105.02378-.01656.05207-.02544.08105-.02544s.05727.00888.08105.02544C5.09191 8.7012 9.06345 9.7954 14.96 10.7072c5.8965.9119 10.1314 1.0537 10.4962.6484.0222-.0199.0511-.0309.081-.0309.0299 0 .0588.011.0811.0309.0199.0223.0309.0512.0309.0811 0 .0299-.011.0588-.0309.081-1.0942 1.0942-2.1277 2.0263-3.1408 3.1003-1.5602 1.5197-3.1813 3.0799-4.9442 4.9847-2.0378 1.8913-3.4036 4.3952-3.8904 7.1325-.4863 2.3505-1.3171 6.9299-1.6008 9.402-.1418 1.3576 1.6008 2.4113 2.9989 3.2623 1.0739.6484 2.0263 1.1753 1.8845 1.7426 0 0 0 .3648-2.0263.2635-1.2158 0-2.8368-.2432-4.5187-.4863-1.68179-.2432-3.24203-.4661-4.41728-.77zm10.80018 1.0739c0-.4255-.8511-.9726-1.7832-1.54-1.4589-.8713-3.2623-2.0263-3.0799-3.4649.2634-2.4721 1.0942-7.0718 1.5805-9.4223.5078-2.7782 1.8926-5.3206 3.9512-7.2541 1.7832-1.9047 3.3839-3.4853 4.9442-5.005.9118-.8713 1.8439-1.7831 2.8165-2.776-3.3949.1068-6.7916-.1513-10.1314-.77-3.4192-.393-6.78356-1.1678-10.03018-2.30996.62815 1.23604 1.2563 2.39106 1.86419 3.50546 1.03341 2.0263 2.02629 3.8905 3.22179 6.241 1.3947 2.4583 1.963 5.2996 1.6211 8.1052-.2229 2.31-.7903 6.9299-1.2969 9.483-.2837 1.4792-2.33021 2.0263-4.05256 2.3911-1.07394.2634-2.02629.5065-2.16813.9523 1.94215.7905 3.99066 1.289 6.07889 1.4792 2.0733.4637 4.2064.6005 6.322.4053l.1419-.0203z"/><path d="M15.793 42.0538h-.8713c-1.236 0-2.857-.2431-4.5794-.5066-1.72233-.2634-3.30284-.5673-4.51862-.8713-1.60077-.4255-2.3505-.7294-2.22892-1.4386.12158-.7092 1.29683-1.1955 2.69497-1.54 1.39814-.3445 3.24207-.7903 3.4447-1.8237.46607-2.4113 1.05367-7.0109 1.27657-9.402.3464-2.6685-.2024-5.3766-1.56025-7.6999-1.11446-2.3505-2.22893-4.397-3.20155-6.2004l-.1621-.2229c-.64841-1.1955-1.29683-2.41132-2.02629-3.72841-.06716-.14645-.07738-.31266-.02869-.46625.0487-.15358.15283-.28353.29211-.36453.07122-.04242.15037-.06982.23258-.08051.08221-.0107.16574-.00447.24545.0183.07971.02278.15392.06162.21807.11413.06414.05251.11687.11759.15494.19124 3.17813 1.1222 6.47623 1.87022 9.82753 2.22893 3.3294.6947 6.736.9468 10.1315.7497.1126-.1054.2611-.164.4153-.164.1543 0 .3028.0586.4154.164.0577.0549.1035.1209.1349.1941.0313.0731.0475.1519.0475.2314 0 .0796-.0162.1584-.0475.2315-.0314.0732-.0772.1392-.1349.1941-1.0942 1.1144-2.1478 2.0263-3.161 3.1205-1.54 1.4994-3.1407 3.0597-4.9036 4.9644-1.9625 1.8574-3.2645 4.305-3.7081 6.9704-.4863 2.3505-1.2969 6.9097-1.5805 9.3615 0 1.0334 1.5399 2.0263 2.7355 2.776 1.1955.7497 2.2289 1.3374 2.0262 2.2087-.2026.8713-.5268.7902-1.5805.7902zM5.27658 39.1967c1.72334.4752 3.47665.834 5.24812 1.074 1.7487.2969 3.5157.4729 5.2886.5268-.3445-.2431-.7902-.5268-1.1145-.7092-1.5805-.9523-3.5257-2.1479-3.3231-4.0526.2634-2.472 1.0942-7.092 1.6008-9.4628.5111-2.8635 1.9323-5.4857 4.0526-7.477 1.7831-2.0263 3.3839-3.4852 4.9441-5.0049l1.8845-1.8439c-2.9812-.0932-5.9529-.3843-8.8954-.8714-2.9935-.3758-5.95845-.9512-8.8752-1.7223l1.13472 2.0263.10132.1621c1.03341 2.0263 2.02629 3.8905 3.22176 6.2612 1.4422 2.5664 2.0111 5.5319 1.6211 8.4497-.2229 2.31-.7903 6.9299-1.2968 9.5236-.3648 1.8034-2.57344 2.3505-4.35658 2.776l-1.23604.3444zM44.584 13.6047c-.3039.8308-.9524 2.1681-2.0263 4.5389-.466.9726-1.3779 2.31-2.4721 2.4923-.6127-.0393-1.2094-.212-1.7484-.506-.539-.294-1.0073-.7022-1.3721-1.1961-1.8034-1.9249-4.316-4.316-4.9846-5.0049 2.1884-1.4387 5.2278 0 6.8488.4255 1.9465.4409 3.9862.1752 5.7547-.7497zm-6.0781-2.6138c-4.8428.7295-10.1314 1.1753-10.6785.5876-.0095-.0224-.0144-.0465-.0144-.0709 0-.0243.0049-.0485.0144-.0709 0-.1418 0-.5268 3.0192-1.3171 2.0262-.50657 4.5794-1.01314 7.3757-1.43866 2.7962-.42552 5.4304-.72947 7.4567-.83078 3.2016-.1621 3.2623.22289 3.2826.36473.0099.05358.0099.10852 0 .16211-.5066.72946-5.6331 1.8642-10.4557 2.6139zm-.3242-2.02628c-2.4543.34698-4.8891.82041-7.2946 1.41838-2.8774.7295-2.9179 1.0942-2.9179 1.0942.4053.3445 4.4579.2027 10.5367-.6484 6.0789-.85103 9.9491-2.02628 10.1315-2.49233 0 0-.1216-.34447-3.1002-.18237-1.9858.02027-4.5997.32421-7.3757.74973l.0202.06079z"/><path d="M29.8358 12.3487c-.813.1079-1.6397-.0334-2.3707-.4053-.1245-.1093-.2039-.261-.2229-.4255 0-.6484.4052-1.1347 3.4042-1.90472 2.0263-.48631 4.5996-1.01315 7.4162-1.43867 2.8165-.42552 5.4912-.72946 7.4973-.83078 3.1002-.1621 3.7081.14184 3.8297.79026.0421.15937.0421.32693 0 .48631-.7498 1.2563-8.4699 2.5126-10.8812 2.8571-2.8693.4756-5.7661.7667-8.6726.8713zm16.9398-3.80946h-1.1955c-2.0263 0-4.5794.385-7.3351.81052-2.7558.42552-5.3292.93214-7.2542 1.41844l-1.1347.3039c2.8595-.0918 5.7095-.3761 8.5307-.851 2.8293-.38099 5.6313-.94275 8.3888-1.68186z"/><path d="M43.0653 41.0207c-1.702.2431-3.3028.4255-4.5186.4863-2.0263.1013-2.0263-.1419-2.0263-.2634 0-.5674.8105-1.0942 1.8845-1.7426 1.3981-.8511 3.1407-1.9048 2.9786-3.2624-.2634-2.472-1.0942-7.0515-1.5805-9.402-.5036-2.7462-1.8826-5.2556-3.931-7.1528-1.7629-1.9047-3.3636-3.4649-4.9239-4.9847-1.0131-.9726-2.0263-2.0263-3.1407-3.1002-.02-.0223-.031-.0511-.031-.081 0-.0299.011-.0588.031-.0811.0222-.0199.0511-.031.081-.031.0299 0 .0588.0111.0811.031.4052.385 4.4578.2432 10.5367-.6079 6.0789-.85102 9.9491-2.02627 10.1314-2.49232.019-.01856.0444-.02896.071-.02896.0265 0 .0519.0104.0709.02896 0 0 .1013 0 0 .1621-.7092 1.39814-1.3982 2.67472-2.0263 3.93102-1.0334 1.9047-2.0263 3.8702-3.2218 6.2004-1.3739 2.4141-1.9352 5.2059-1.6008 7.9634.2229 2.4113.8105 7.0312 1.2766 9.4628.2634 1.3373 2.2492 1.8236 3.8297 2.2289 1.2157.3039 2.1884.5268 2.3099 1.0942 0 .1216 0 .3647-1.8844.8713-1.1145.2026-2.695.5066-4.3971.77zm-6.3423.2026c2.1089.1951 4.2353.0583 6.3018-.4053 2.0882-.1905 4.1366-.689 6.0789-1.4791-.1013-.4458-1.1145-.689-2.1681-.9524-1.6413-.4053-3.6879-.9118-4.0526-2.391-.5066-2.5532-1.074-7.1731-1.2969-9.4831-.3522-2.806.2167-5.6505 1.6211-8.1051 1.3779-2.3303 2.3505-4.2958 3.4041-6.2208.6079-1.1144 1.2361-2.26941 1.8642-3.50545-3.227 1.13776-6.5707 1.91255-9.9693 2.30995-3.34.6174-6.7365.8756-10.1315.77.9726.9929 2.0263 1.9047 2.8368 2.776 1.5603 1.5198 3.161 3.1003 4.9239 5.005 2.0922 1.9139 3.513 4.4501 4.0526 7.2338.4863 2.3505 1.3171 6.9502 1.5805 9.4223.1621 1.4995-1.6413 2.5937-3.08 3.465-.932.5673-1.8236 1.1144-1.7831 1.5399l-.1824.0203z"/><path d="M37.6752 42.0541c-1.0537 0-1.5806-.1621-1.6616-.7295-.1013-.9321.8713-1.54 2.0263-2.2694 1.155-.7295 2.8571-1.7426 2.7557-2.7761-.2836-2.472-1.0942-7.0312-1.6007-9.3614-.4669-2.6476-1.7912-5.0683-3.7689-6.8894-1.7224-1.8642-3.3232-3.4042-4.8429-4.9036-1.0739-1.0537-2.1276-2.0263-3.2218-3.1813-.0576-.0549-.1035-.1209-.1348-.1941-.0314-.0731-.0475-.1519-.0475-.2314 0-.0796.0161-.1584.0475-.2315.0313-.0732.0772-.1392.1348-.1941.0567-.0582.1244-.1044.1992-.136.0749-.0316.1553-.0479.2365-.0479s.1616.0163.2364.0479.1426.0778.1992.136c3.3967.1464 6.7986-.1189 10.1315-.7902 3.3744-.33379 6.6914-1.10343 9.868-2.28973.0832-.12576.2101-.21613.3561-.25357.1461-.03745.3008-.01929.4342.05094.1428.07768.2513.2062.3038.36008.0525.15387.0454.32187-.0201.4707-.7092 1.39818-1.4184 2.67468-2.0263 3.91078-1.074 2.0263-2.0263 3.931-3.2218 6.2207-1.3153 2.3236-1.8415 5.0113-1.4995 7.6594.2229 2.391.8105 6.9907 1.2766 9.402.2026 1.0334 2.0263 1.4994 3.4447 1.8236 1.4184.3242 2.5126.6282 2.6949 1.4995.1824.8713-.6281 1.0739-2.2491 1.4792-1.4836.3673-2.985.6581-4.4984.8713-1.7224.2634-3.3434.4458-4.5794.5066l-.9726.0405zm0-1.2361c1.7796-.0526 3.5535-.2286 5.3088-.5268 1.7542-.2336 3.4882-.5994 5.1873-1.0942-.3849-.1216-.8915-.2431-1.2765-.3242-1.7832-.4458-4.0526-.9929-4.3565-2.7963-.5066-2.5734-1.074-7.1933-1.2969-9.5236-.3453-2.8885.2365-5.8121 1.6616-8.3483 1.1144-2.31 2.1681-4.2552 3.1813-6.0789v-.1215l1.236-2.28975c-2.895.80055-5.8394 1.40975-8.8144 1.82365-2.9492.4881-5.9277.7792-8.9157.8713l1.8642 1.8237.1013.1216c1.54 1.4792 3.1205 3.0191 4.8631 4.9036 2.1123 1.9975 3.532 4.6169 4.0526 7.477.4863 2.3505 1.3374 6.9705 1.6008 9.4628.2026 1.8237-1.7629 3.0192-3.3231 4.0526-.2432.0405-.7497.3242-1.0942.5673h.0203zM26.5724 7.95138c-.2007-.00528-.3914-.08873-.5315-.23257-.14-.14383-.2183-.33667-.2183-.53742V1.46724c-.018-.11018-.0119-.22297.018-.33054.0299-.10758.0828-.207374.1551-.292465.0722-.085091.1622-.153445.2635-.200323s.2116-.071158.3233-.071158c.1116 0 .222.02428.3233.071158.1013.046878.1912.115232.2635.200323s.1252.184885.1551.292465c.0299.10757.036.22036.018.33054v5.71415c0 .20421-.0812.40006-.2256.54446-.1444.1444-.3402.22553-.5444.22553zm-2.2506.20261c-.1224-.00309-.2425-.03387-.3513-.09002-.1088-.05615-.2034-.13622-.2768-.23419l-2.2492-2.95839c-.0591-.07963-.1018-.17018-.1256-.26642-.0238-.09624-.0284-.19625-.0133-.29425.0151-.09799.0495-.19202.1011-.27665.0517-.08462.1196-.15816.1999-.21635.0802-.06229.1723-.10764.2705-.13328.0983-.02564.2008-.03105.3012-.01589.1004.01516.1967.05057.2831.10408.0863.05351.1609.124.2191.20719l2.1682 2.95839c.059.07963.1017.17019.1256.26642.0238.09624.0283.19626.0132.29425-.0151.09799-.0494.19202-.1011.27665-.0516.08462-.1196.15816-.1998.21635-.1062.08359-.2316.13932-.3648.16211zm4.4362.00011c-.1417-.01415-.2758-.07064-.385-.1621-.0826-.05635-.1527-.12906-.206-.21364-.0533-.08457-.0886-.1792-.1038-.278-.0152-.09881-.01-.19968.0155-.29636.0254-.09669.0704-.18711.1322-.26567l2.1884-2.95839c.0563-.08258.1291-.15269.2136-.20599.0846-.0533.1792-.08865.278-.10385.0988-.0152.1997-.00993.2964.01549.0967.02541.1871.07042.2657.13225.0802.05819.1482.13173.1998.21635.0517.08462.0861.17865.1011.27665.0151.09799.0106.198-.0132.29424-.0239.09624-.0666.1868-.1256.26643L29.3659 7.8299c-.0692.09753-.1602.1776-.2657.23388-.1055.05627-.2227.0872-.3422.09032z"/></svg>