<svg viewBox="0 0 19.95 17.68" fill="currentColor"><defs><style>.cls-1{fill:#ffd100}</style></defs><g id="Layer_2" data-name="Layer 2"><g id="Layer_1-2" data-name="Layer 1"><g id="Drinks_02" data-name="Drinks 02"><path d="M.1 16.41c0 .35.29.5 1 .68.54.13 1.26.26 2 .37a20.37 20.37 0 002.05.21h.35c.52 0 .78-.08.82-.35 0-.44-.41-.7-1-1s-1.28-.76-1.23-1.21a25.43 25.43 0 01.46-2.91c.32-1.62.66-2.53 1.59-3 3-1.63 3.62-3.3 3.74-3.91.13.61.74 2.28 3.75 3.91.93.51 1.26 1.42 1.59 3 .21 1.1.35 1.85.46 2.91.05.45-.69.89-1.23 1.2s-1 .6-1 1 .3.38.82.38h.35a20.37 20.37 0 002-.21c.77-.11 1.49-.24 2-.37.73-.18 1.07-.33 1-.65a.14.14 0 000-.07c-.07-.37-.57-.49-1.2-.66s-1.44-.37-1.52-.81a20.73 20.73 0 01-.28-2.33v-.6a5.48 5.48 0 01.73-3.43 5.09 5.09 0 01.74-1c.8-.92 1.9-2.17 1.67-3.89s0 0 0-.07c0-.31-.32-.45-1.73-.39a33.72 33.72 0 00-3.36.34c-1.27.18-2.45.4-3.33.61-1.05.26-1.42.45-1.53.66-.1-.21-.48-.4-1.52-.66-.72-.16-1.9-.42-3.17-.6a31.13 31.13 0 00-3.37-.34C.35 3.16.07 3.3 0 3.61v.07c-.23 1.72.86 3 1.66 3.89a5.21 5.21 0 01.75 1A5.48 5.48 0 013.17 12v.6a23.34 23.34 0 01-.28 2.33c-.09.44-.91.66-1.52.81S.18 16 .1 16.41zM7.24 4.76h-.17l-.69-.07h-.3L5 4.5a31.21 31.21 0 01-3.4-.69h.16c.89 0 2.06.15 3.29.33s2.38.39 3.25.6l.34.09c-.36 0-.84-.02-1.4-.07zm4.08.08l.34-.09c.86-.21 2-.43 3.25-.6s2.4-.29 3.29-.33h.15A31 31 0 0115 4.5l-1.09.14h-.31l-.65.07h-.99zm-.78.56a4.52 4.52 0 00.68 0A31.59 31.59 0 0015 5.09a24.29 24.29 0 004.4-1 4.81 4.81 0 01-1.56 3.11 5.31 5.31 0 00-.82 1.08 6.06 6.06 0 00-.74 3.72v.6a22 22 0 00.34 2.4c.14.76 1.11 1 1.88 1.21a3.79 3.79 0 01.76.24 4.55 4.55 0 01-.56.16c-.53.13-1.23.26-2 .37a19.5 19.5 0 01-2 .2h-.59a6 6 0 01.67-.45c.69-.4 1.54-.91 1.47-1.68a28.82 28.82 0 00-.47-3c-.33-1.7-.72-2.75-1.78-3.35-2.52-1.34-3.25-2.7-3.46-3.3zm-9.86 11a4 4 0 01.76-.24c.78-.2 1.75-.45 1.89-1.21s.22-1.58.29-2.38v-.6a6.06 6.06 0 00-.78-3.69 5.7 5.7 0 00-.82-1.08A4.81 4.81 0 01.51 4.13a24.38 24.38 0 004.39 1 31.78 31.78 0 003.82.35 4.58 4.58 0 00.69 0C9.19 6 8.47 7.36 6 8.7c-1.1.6-1.49 1.65-1.84 3.38a28.4 28.4 0 00-.47 3c-.08.77.78 1.28 1.47 1.68a6 6 0 01.67.45h-.6a19.5 19.5 0 01-2-.2c-.75-.11-1.46-.24-2-.37-.23-.11-.45-.17-.55-.2z" class="cls-1"/><path d="M1.32 5.28A7.47 7.47 0 004.78 6c1.8-.15 2.68-.17 3.44.37-.71 1.05-3.16 2.3-3.42 2.5a.72.72 0 01-1-.16 10.88 10.88 0 00-1.3-1.84 7.13 7.13 0 01-1.18-1.59zM15.17 6a7.42 7.42 0 003.45-.67 6.56 6.56 0 01-1.18 1.59 10.63 10.63 0 00-1.29 1.84.72.72 0 01-1 .16c-.26-.2-2.71-1.45-3.42-2.55.76-.59 1.64-.57 3.44-.37zM10 3.32a.37.37 0 01-.37-.38V.37A.37.37 0 0110 0a.38.38 0 01.38.38v2.56a.38.38 0 01-.38.38zM11.32 3.25a.37.37 0 01-.3.16.38.38 0 01-.3-.6l1-1.33a.38.38 0 01.61.44zM9 3.41a.4.4 0 01-.31-.16l-1-1.33a.37.37 0 01.11-.52.38.38 0 01.53.08l1 1.33a.37.37 0 01-.08.52.4.4 0 01-.25.08z" class="cls-1"/></g></g></g></svg>