<svg viewBox="0 0 27.12 21.62" fill="currentColor"><defs><style>.cls-1{fill:#de4726}</style></defs><g id="Layer_2" data-name="Layer 2"><g id="Layer_1-2" data-name="Layer 1"><g id="Drinks_02" data-name="Drinks 02"><g id="Drinks_01" data-name="Drinks 01"><g id="Label"><g id="Dark_Label" data-name="Dark Label"><path d="M13.57 0a.5.5 0 00-.5.5v3a.51.51 0 00.5.5.5.5 0 00.5-.5v-3a.5.5 0 00-.5-.5zM14.77 4.05a.49.49 0 00.4-.2l1.12-1.52a.5.5 0 10-.8-.6l-1.12 1.53a.49.49 0 00.11.7.5.5 0 00.29.09zM24.22 3l1-1.23a.27.27 0 00-.06-.41 2.44 2.44 0 00-.72-.3 2.25 2.25 0 00-.78 0 .27.27 0 00-.22.35l.47 1.53c.09.12.2.15.31.06zM21.84 2.88l1.55.36c.17 0 .26-.07.2-.23L23 1.52a.27.27 0 00-.38-.16 2.52 2.52 0 00-.63.47 2.63 2.63 0 00-.39.68.27.27 0 00.24.37zM24.59 3.48l1.57.27a.27.27 0 00.32-.26 2.64 2.64 0 00-.09-.78A2.35 2.35 0 0026 2a.26.26 0 00-.41 0l-1.1 1.19c-.12.13-.07.26.1.29zM26 4.06l-1.56-.35c-.16 0-.25.07-.19.23l.56 1.49a.27.27 0 00.38.15 2.73 2.73 0 00.63-.47 2.44 2.44 0 00.38-.69.27.27 0 00-.2-.36zM22.32 10.21l-.68-.21-.28-1.48A1 1 0 0021 8a1 1 0 00-.72-.14l-2 .39a1 1 0 00-.61.4 1 1 0 00-.15.72l.05.23a3.21 3.21 0 00-.69.29c.55 2 2.3 8.5 2.73 10.13.15.59 5.7-.7 5.6-1.29-.21-1.29-1.09-7-1.4-8.8a3.11 3.11 0 01-1.49.28zM20.1 9.9a.89.89 0 00-.41.54l-.14.56-.72.15-.43-2 2-.43.21 1.05a.89.89 0 00-.51.13zm1.61 2.76l-1.47-.36.39-1.5 1.47.39z" class="cls-1"/><path d="M24.57 6.53a3.19 3.19 0 00-.52-6.31h-.12a3.15 3.15 0 00-2.17.86 3.18 3.18 0 00-1 2.22 3.22 3.22 0 000 .43C20 3.82 19.31 4 19 4a15.75 15.75 0 00-3.25 1c-.4.2-1.61.78-1.43 1.62a.85.85 0 00.24.42l3.63 13.8c.12.56.93.73 1.82.73a14.61 14.61 0 002.66-.31c.43-.1 4.19-.93 3.92-2.18zM21 3.3A2.94 2.94 0 0123.93.47H24a2.94 2.94 0 012.83 3 2.91 2.91 0 01-2.34 2.77L24.33 5a.93.93 0 00.05-.47c-.09-.41-.48-.65-1-.78.11-.13.07-.25-.1-.28l-1.57-.26a.27.27 0 00-.32.26 1 1 0 000 .19L21 3.7v-.39zm2.69 2.44l.09.6a2.86 2.86 0 01-.78-.18 5.87 5.87 0 00.69-.42zm-1.78-.22a1.31 1.31 0 01-.12-.11 2.92 2.92 0 01-.49-.73h.39l.19.27a.27.27 0 00.42 0l.26-.28a3.13 3.13 0 01.75.12 5 5 0 01-1.4.73zM19.23 5A17.13 17.13 0 0121 4.7a3.13 3.13 0 00.56.88 15.84 15.84 0 01-2.15.6 9.25 9.25 0 01-4.08.22 9.49 9.49 0 013.9-1.4zm3.31 15.58a7.09 7.09 0 01-3.59.15L15.47 7.48a5.32 5.32 0 001.09.1 16.29 16.29 0 003.14-.38 15.45 15.45 0 002.91-.89 3.15 3.15 0 001.21.28l2.06 12.62c-.09.25-1.29.93-3.34 1.36zM11.63 1.73a.48.48 0 00-.69-.1.5.5 0 00-.11.7L12 3.85a.51.51 0 00.4.2.53.53 0 00.3-.09.51.51 0 00.11-.7zM2.9 3c.11.13.24.1.29-.06l.47-1.53A.27.27 0 003.44 1a2.25 2.25 0 00-.78 0 2.44 2.44 0 00-.72.3.27.27 0 00-.06.41zM3.73 3.24l1.55-.36a.27.27 0 00.2-.37 2.33 2.33 0 00-.39-.68 2.56 2.56 0 00-.62-.47.28.28 0 00-.39.16L3.53 3c-.06.17.03.27.2.24zM2.54 3.48c.17 0 .21-.16.09-.29L1.55 2a.27.27 0 00-.42 0 2.44 2.44 0 00-.39.67 2.45 2.45 0 00-.1.78.28.28 0 00.36.3zM2.65 3.71l-1.56.35a.27.27 0 00-.2.36 2.33 2.33 0 00.39.69 2.56 2.56 0 00.62.47.28.28 0 00.39-.15l.55-1.49c.07-.16-.02-.27-.19-.23zM9.67 9.32a.93.93 0 00-.15-.72 1 1 0 00-.61-.4l-2-.39a1 1 0 00-.74.19 1 1 0 00-.4.61L5.48 10l-.68.17a3.16 3.16 0 01-1.42-.33c-.3 1.77-1.19 7.51-1.4 8.8-.1.59 5.45 1.88 5.6 1.29.42-1.59 2.18-8.12 2.73-10.09a2.93 2.93 0 00-.69-.29zm-4.26 3.34L5 11.19l1.47-.39.39 1.5zm2.88-1.51L7.58 11l-.15-.56a.83.83 0 00-.88-.64l.2-1.05 2 .43z" class="cls-1"/><path d="M11.34 5.05A15.65 15.65 0 008.1 4c-.29-.06-1-.19-1.75-.28a3.17 3.17 0 000-.43 3.18 3.18 0 00-1-2.22A3.13 3.13 0 003.19.22h-.11a3.19 3.19 0 00-.53 6.31l-2 12.6C.24 20.38 4 21.21 4.43 21.31a14.59 14.59 0 002.65.31c.9 0 1.7-.17 1.82-.73l3.63-13.8a.78.78 0 00.24-.42c.23-.84-1.03-1.42-1.43-1.62zm-10.16.51A2.94 2.94 0 013.08.47h.11a2.92 2.92 0 012 .79 2.89 2.89 0 01.93 2 2.55 2.55 0 010 .39h-.37v-.19a.28.28 0 00-.33-.26l-1.57.26c-.17 0-.21.15-.1.28-.52.13-.9.37-1 .78A.75.75 0 002.8 5l-.21 1.28a3 3 0 01-1.41-.72zm2.63-.79a3.14 3.14 0 01.76-.12l.25.28a.27.27 0 00.42 0l.19-.27h.39a2.88 2.88 0 01-.48.73l-.13.11a5.19 5.19 0 01-1.4-.73zm.37 1.39a3 3 0 01-.84.18l.1-.6a4.74 4.74 0 00.74.42zm4 14.56a7.09 7.09 0 01-3.59-.15c-2.05-.43-3.25-1.11-3.34-1.36L3.3 6.59a3.07 3.07 0 001.21-.28 15.68 15.68 0 002.91.89 16.29 16.29 0 003.14.38 5.25 5.25 0 001.09-.1zm-.55-14.5a15.44 15.44 0 01-2.15-.6 3.41 3.41 0 00.57-.88A17.4 17.4 0 017.89 5a9.64 9.64 0 013.82 1.45 9.26 9.26 0 01-4.08-.23z" class="cls-1"/></g></g></g></g></g></g></svg>