<svg viewBox="0 0 27.7 17.29" fill="currentColor"><defs><style>.cls-1{fill:#c2d500}</style></defs><g id="Layer_2" data-name="Layer 2"><g id="Layer_1-2" data-name="Layer 1"><g id="Drinks_02" data-name="Drinks 02"><path d="M27.7 4.05a3.19 3.19 0 10-6.37 0 3.46 3.46 0 00.09.72c-.62.14-1.28.31-2 .5-1.27.37-2.5.73-3.42 1.13s-1.39.63-1.5.85a.39.39 0 000 .26v.06c.48 1 2.41 5.43 3.38 7.79.26.63.43 1 .46 1.13a1.17 1.17 0 00.9.76h.22a16.7 16.7 0 003.18-.65 14.17 14.17 0 003.17-1.17 1.17 1.17 0 00.4-1.14c0-.09-.09-.54-.2-1.21-.25-1.58-.6-4.05-.86-5.95a3.15 3.15 0 002.55-3.08zm-2.26 9.13c.11.67.18 1.11.19 1.2a.55.55 0 01-.18.57 13.29 13.29 0 01-3 1.08 14.65 14.65 0 01-3.1.62.57.57 0 01-.45-.4c0-.08-.2-.5-.46-1.12-.83-2-2.43-5.69-3.16-7.31h.17a.53.53 0 01.14.24.42.42 0 00.44-.23l.21.21h.43l1-.45.53-.24L19.35 7l.55-.15.24-.07a2.56 2.56 0 011.39.3 1.74 1.74 0 01.47-.87l.39-.13c.26 0 .52.15.53.4a1.27 1.27 0 01.89-.82c.17 0 .36-.06.53-.11.26 1.86.78 5.62 1.1 7.63zm-.27-6.29c-.14-1-.24-1.83-.28-2.21v-.07a.4.4 0 00-.16-.22A1.19 1.19 0 0024 4.3c0-.08 0-.14-.16-.16l-1.58-.21a.27.27 0 00-.26.27 2.81 2.81 0 000 .43l-.35.08a2.84 2.84 0 01-.08-.66 2.94 2.94 0 113.59 2.84z" class="cls-1"/><path d="M25.69 1.92a2.48 2.48 0 00-.69-.28 2.49 2.49 0 00-.79 0A.27.27 0 0024 2l.52 1.51c.06.16.19.18.29 0l1-1.26a.27.27 0 00-.12-.33zM23.16 2.05a2.66 2.66 0 00-.61.49 2.56 2.56 0 00-.36.69.27.27 0 00.21.36l1.57.3c.17 0 .25-.07.19-.23l-.6-1.47a.28.28 0 00-.4-.14zM26.94 3.27a2.44 2.44 0 00-.42-.67.27.27 0 00-.41 0l-1.05 1.2c-.11.13-.06.26.11.28l1.57.22a.27.27 0 00.32-.3 2.37 2.37 0 00-.12-.73zM26.63 4.62l-1.57-.29c-.17 0-.25.07-.18.23l.6 1.44a.27.27 0 00.4.13 2.49 2.49 0 00.6-.49 2.26 2.26 0 00.36-.7.27.27 0 00-.21-.32zM23.65 9.81l-.25-1a.68.68 0 00-.3-.4.61.61 0 00-.49-.06l-1.74.44a.64.64 0 00-.46.47A5 5 0 0016.6 9c.68 1.64 2.14 5.17 2.62 6.36.23.56 5.74-1 5.65-1.61-.2-1.26-.42-2.3-.69-4.06a3 3 0 01-.53.12zm-2.65.71a.63.63 0 00-.33.83l.25.59-.06.27a.11.11 0 01-.06.09.12.12 0 01-.1 0L19 12a.12.12 0 01-.09-.05.2.2 0 010-.11l.34-1.71a.16.16 0 01.05-.13.12.12 0 01.1 0l1.71.33a.15.15 0 01.09.06zm.19-.67h-.23l-.09-.34a.15.15 0 01.13-.22l1.73-.45a.09.09 0 01.07 0 .13.13 0 01.07.09l.23.9a.64.64 0 00-.49 0l-1 .41a.56.56 0 000-.12.68.68 0 00-.4-.27zm2.41 2.29l-1.6.69a.14.14 0 01-.18-.07l-.37-.88.22-1.1 1.14-.49h.1a.11.11 0 01.08.07l.69 1.6a.14.14 0 01-.06.18zM13.2 7.25c-.11-.22-.5-.46-1.5-.85s-2.15-.76-3.46-1.13c-.68-.19-1.34-.36-2-.5a2.91 2.91 0 00.1-.72A3.19 3.19 0 102.5 7.13c-.26 1.9-.61 4.37-.86 6-.11.67-.18 1.12-.19 1.21a1.15 1.15 0 00.39 1.14 14.17 14.17 0 003.17 1.17 16.7 16.7 0 003.18.65h.22a1.17 1.17 0 00.9-.76l.47-1.13c1-2.36 2.89-6.79 3.37-7.79v-.06a.39.39 0 000-.26zM.25 4.05a2.94 2.94 0 115.87 0 2.84 2.84 0 01-.12.66l-.35-.08a2.81 2.81 0 000-.43.27.27 0 00-.31-.27l-1.58.21c-.12 0-.17.08-.16.16a1.19 1.19 0 00-.6.09.34.34 0 00-.15.22v.06c0 .38-.15 1.2-.29 2.21A2.92 2.92 0 01.25 4.05zm9 11.09c-.25.62-.42 1-.46 1.12a.56.56 0 01-.45.4A14.76 14.76 0 015.22 16a13.51 13.51 0 01-3-1.08.55.55 0 01-.18-.57c0-.09.08-.53.19-1.2.32-2 .84-5.77 1.08-7.63.17 0 .36.07.53.11a1.27 1.27 0 01.89.82c0-.25.27-.39.53-.4l.39.13a1.74 1.74 0 01.49.88 2.58 2.58 0 011.39-.3l.24.07.58.17 1.12.29.53.24L11 8h.43l.21-.21a.42.42 0 00.44.23.63.63 0 01.14-.24h.17c-.73 1.67-2.33 5.35-3.16 7.36z" class="cls-1"/><path d="M2.92 3.59c.1.13.24.11.29 0L3.73 2a.26.26 0 00-.2-.36 2.45 2.45 0 00-.78 0 2.35 2.35 0 00-.75.28.27.27 0 00-.08.41zM3.74 3.89l1.56-.3a.27.27 0 00.21-.36 2.56 2.56 0 00-.36-.69 2.66 2.66 0 00-.61-.49.27.27 0 00-.39.14l-.6 1.47c-.07.16.02.27.19.23zM2.54 4.09c.17 0 .21-.15.1-.28l-1-1.2a.28.28 0 00-.42 0 2.44 2.44 0 00-.42.67A2.37 2.37 0 00.64 4a.28.28 0 00.36.31zM2.64 4.33l-1.57.29A.28.28 0 00.86 5a2.55 2.55 0 00.36.7 2.49 2.49 0 00.6.49.27.27 0 00.4-.19l.61-1.48c.06-.12-.02-.22-.19-.19zM7.29 9.27a.64.64 0 00-.46-.47l-1.74-.44a.61.61 0 00-.49.06.72.72 0 00-.3.4l-.25 1a3 3 0 01-.53-.14c-.27 1.76-.49 2.8-.69 4.06-.09.6 5.42 2.17 5.65 1.61.52-1.2 1.94-4.73 2.62-6.35a5 5 0 00-3.81.27zm-1.42 3.49a.14.14 0 01-.18.07l-1.6-.69A.14.14 0 014 12l.69-1.6a.14.14 0 01.08-.07h.1l1.13.45.22 1.1zm.22-2.64a.31.31 0 000 .12l-1-.41a.64.64 0 00-.49 0L4.79 9a.13.13 0 01.07-.09.11.11 0 01.07 0H5l1.74.45a.14.14 0 01.1.18l-.08.34h-.24a.63.63 0 00-.43.24zm2.69 1.81a.11.11 0 01-.09.05L7 12.32a.12.12 0 01-.1 0 .15.15 0 01-.06-.09l-.06-.27.22-.61a.63.63 0 00-.33-.83l-.19-.08a.15.15 0 01.09-.06L8.3 10a.12.12 0 01.1 0 .16.16 0 01.06.08l.34 1.71a.2.2 0 01-.02.14zM14.22 0a.4.4 0 00-.39.36l-.18 4.14a.37.37 0 00.35.39.38.38 0 00.38-.36l.2-4.14a.37.37 0 00-.36-.39zM15.71 5.11A.37.37 0 0016 5l1.67-2.1a.38.38 0 00-.06-.53.37.37 0 00-.53.06L15.42 4.5a.37.37 0 00.06.53.4.4 0 00.23.08zM12.13 4.8a.36.36 0 00.31.16.37.37 0 00.21-.06.38.38 0 00.11-.52l-1.48-2.21a.37.37 0 00-.62.42z" class="cls-1"/></g></g></g></svg>