<svg viewBox="0 0 38.09 20.35" fill="currentColor"><defs><style>.cls-1{fill:#bc4700}</style></defs><g id="Layer_2" data-name="Layer 2"><g id="Layer_1-2" data-name="Layer 1"><g id="Drinks_01" data-name="Drinks 01"><path d="M19.11 0a.37.37 0 00-.39.36l-.18 4.14a.37.37 0 00.35.39.38.38 0 00.38-.36l.2-4.14a.37.37 0 00-.36-.39zM20.6 5.11a.37.37 0 00.29-.11l1.67-2.1a.38.38 0 00-.06-.53.37.37 0 00-.53.06L20.31 4.5a.37.37 0 00.06.53.38.38 0 00.23.08zM17 4.8a.36.36 0 00.31.16.37.37 0 00.21-.06.38.38 0 00.11-.52l-1.46-2.21a.37.37 0 00-.62.42zM16.51 6a4.62 4.62 0 00-5.07.12l-.2.14a.35.35 0 00-.09.47l.17.25h-.13c-2.37-.61-4.45-.7-5.09-.26a.51.51 0 00-.36.15s-.23.26-.54.66a1.24 1.24 0 00-.45-.09 1.55 1.55 0 00-.44.09l-.42.12a3.29 3.29 0 01-.35-.34c-.62-.63-.85-.83-1.06-.83C2 6.48.42 8.8.19 10c-.19 1-.4 3.87.23 4.38.19.17.53.14 1.22 0a2.56 2.56 0 01.46 0 .75.75 0 01.25.21 1.38 1.38 0 00.27.23 1.82 1.82 0 00.6.14 6.24 6.24 0 001.1 3.38 3.75 3.75 0 002.24 1.38c.18.05.37.1.57.17a9.36 9.36 0 002.75.45A3.52 3.52 0 0011 20.2a7.52 7.52 0 004.46-5.1 12.5 12.5 0 00.35-1.62l.23.32.1.1a.41.41 0 00.18 0 .33.33 0 00.19-.06l.2-.14a4.62 4.62 0 00-.2-7.7zm-13.3 7.43A1 1 0 013 13.3a1.63 1.63 0 00-.4-.25 2.23 2.23 0 00-.81.07c-.2 0-.51.08-.68.09a8.18 8.18 0 01.23-2.79 8.68 8.68 0 01.94-2.25l.33.28c.47.41.68.58.86.6A1.63 1.63 0 004 9l.25-.06a7.79 7.79 0 00-.83 2.2 16.26 16.26 0 00-.21 2.29zm11.27 1.39a6.63 6.63 0 01-3.84 4.44A6.82 6.82 0 017.45 19l-.62-.18a2.74 2.74 0 01-1.73-1.1c-1.1-1.31-1.1-4.16-.64-6.4A8.62 8.62 0 016.35 7.7a11.8 11.8 0 004.19 1.8 16.14 16.14 0 002.84.49l1.56 2.26a12.63 12.63 0 01-.46 2.57zm3.46-4.16a3.91 3.91 0 01-1.56 2.48l-4.47-6.47a3.94 3.94 0 014.24-.06 3.81 3.81 0 011.15 1.11 3.89 3.89 0 01.64 2.94z" class="cls-1"/><path d="M16.82 9.1a.28.28 0 00.24-.35 2.29 2.29 0 00-.31-.75 2.6 2.6 0 00-.58-.55.28.28 0 00-.41.11L15 9c-.08.16 0 .27.17.25zM16.86 9.93l-1.63.07c-.17 0-.23.13-.13.27l1 1.31a.28.28 0 00.43 0A2.57 2.57 0 0017 11a2.22 2.22 0 00.19-.77.27.27 0 00-.33-.3zM14.87 6.82a2.3 2.3 0 00-.79-.09 2.5 2.5 0 00-.77.22.27.27 0 00-.11.41l.89 1.36c.09.15.23.14.3 0l.66-1.49a.28.28 0 00-.18-.41zM6.83 9.66c-.62-.38-2 4.94-1.43 6.69a2.47 2.47 0 001.4.54s-.22-3.65 1.6-5.84c.45-.56-.94-1.05-1.57-1.39zM37.9 10c-.23-1.21-1.82-3.53-2.29-3.53-.2 0-.43.2-1.05.83a4.67 4.67 0 01-.35.34l-.42-.12a1.55 1.55 0 00-.44-.09 1.24 1.24 0 00-.45.09c-.31-.4-.54-.65-.55-.66a.49.49 0 00-.35-.14c-.63-.44-2.71-.35-5.08.26h-.14l.17-.25a.34.34 0 00-.08-.47l-.21-.14a4.61 4.61 0 10-5.25 7.59l.21.14a.31.31 0 00.19.06.34.34 0 00.17 0l.11-.1.23-.32a12.5 12.5 0 00.35 1.62 7.5 7.5 0 004.46 5.1 3.48 3.48 0 001.1.15A9.47 9.47 0 0031 19.9c.2-.07.39-.12.57-.17a3.78 3.78 0 002.24-1.38A6.15 6.15 0 0034.86 15a1.89 1.89 0 00.61-.14 1.38 1.38 0 00.27-.23.75.75 0 01.25-.21 2.65 2.65 0 01.46 0c.69.09 1 .12 1.22 0 .62-.54.41-3.42.23-4.42zm-16.2 3.14a3.95 3.95 0 01-.92-5.42 3.92 3.92 0 015.4-1zM33 17.72a2.74 2.74 0 01-1.73 1.05l-.62.18a6.82 6.82 0 01-3.19.31 6.61 6.61 0 01-3.84-4.44 12.71 12.71 0 01-.47-2.57L24.71 10a16.45 16.45 0 002.84-.49 11.88 11.88 0 004.19-1.8 8.62 8.62 0 011.89 3.62c.44 2.23.42 5.08-.63 6.39zm3.95-4.51c-.17 0-.48-.06-.68-.09a2.23 2.23 0 00-.81-.07 1.63 1.63 0 00-.4.25 1 1 0 01-.17.13 16.26 16.26 0 00-.27-2.31 8.45 8.45 0 00-.83-2.2l.25.06a1.58 1.58 0 00.53.1c.18 0 .39-.19.86-.6l.32-.28a8.3 8.3 0 011.18 5z" class="cls-1"/><path d="M22.32 7.57a.28.28 0 00-.41-.11 2.66 2.66 0 00-.57.55 2.44 2.44 0 00-.32.74.28.28 0 00.25.35l1.61.17c.18 0 .26-.09.18-.25zM22.85 10l-1.62-.09a.28.28 0 00-.3.3 2.51 2.51 0 00.19.77 2.49 2.49 0 00.48.64.27.27 0 00.42 0l1-1.31c.07-.16-.02-.31-.17-.31zM24.78 7a2.5 2.5 0 00-.78-.27 2.3 2.3 0 00-.79.09.28.28 0 00-.18.39l.67 1.49c.07.16.2.17.3 0l.89-1.36a.29.29 0 00-.11-.34zM31.26 9.66c-.63.37-2 .83-1.57 1.39 1.81 2.19 1.6 5.84 1.6 5.84a2.49 2.49 0 001.4-.54c.56-1.75-.81-7.07-1.43-6.69z" class="cls-1"/></g></g></g></svg>