<svg viewBox="0 0 24.85 17.29" fill="currentColor"><defs><style>.cls-1{fill:#f37f20}</style></defs><g id="Layer_2" data-name="Layer 2"><g id="Layer_1-2" data-name="Layer 1"><g id="Drinks_01" data-name="Drinks 01"><path d="M24.83 14.29c0-.09-.08-.54-.19-1.21-.4-2.51-1.06-7.3-1.18-8.4v-.07a.38.38 0 00-.15-.22c-.21-.13-.67-.14-1.73.05a36.06 36.06 0 00-3.58.84 36.23 36.23 0 00-3.42 1.12c-1 .39-1.38.63-1.5.85a.34.34 0 000 .26v.06c.47 1 2.4 5.43 3.37 7.79l.47 1.13a1.18 1.18 0 00.9.77H18a15.89 15.89 0 003.19-.65 13.86 13.86 0 003.16-1.17h.05a1.17 1.17 0 00.43-1.15zM18.2 5.88A33.61 33.61 0 0122.08 5c-.59.24-1.47.56-2.65.92h-.14l-.9.26c-.41.12-.79.22-1.16.31l-.26.07-.8.19H16c-.61.13-1.12.23-1.5.29a31.77 31.77 0 013.7-1.16zM24 15a13.11 13.11 0 01-3 1.08 13.57 13.57 0 01-3.1.62.55.55 0 01-.45-.39L17 15.14c-.82-2-2.42-5.68-3.15-7.31a4.26 4.26 0 00.47 0 25 25 0 003.6-.83l.56-.15a33.29 33.29 0 003.45-1.13c.38-.15.72-.3 1-.43.22 1.75.78 5.78 1.12 7.88.1.67.17 1.11.19 1.2A.56.56 0 0124 15z" class="cls-1"/><path d="M20.27 9.6l-.38-1.5a.72.72 0 00-.89-.51l-2 .51a.72.72 0 00-.51.87l.06.22a4.13 4.13 0 00-1.13.47l2.09 5.07c.23.56 5.88-1 5.78-1.62-.2-1.27-.37-2.16-.64-3.91a3.91 3.91 0 01-2.38.4zm-1.44.46l-.14.69-.92.23a.16.16 0 01-.15 0 .17.17 0 01-.1-.12l-.51-2a.21.21 0 01.15-.25l2-.52h.05a.2.2 0 01.2.15l.36 1.37h-.18a.62.62 0 00-.48.09.64.64 0 00-.28.36zm2.17 2.2a.15.15 0 01-.16.11L19.09 12a.13.13 0 01-.11-.16l.34-1.71a.11.11 0 01.06-.09.12.12 0 01.1 0l1.71.34a.14.14 0 01.11.16zM12.4 7.31c-.09-.23-.46-.51-1.42-1s-2.06-1-3.33-1.44a35.36 35.36 0 00-3.44-1.14c-1-.29-1.49-.33-1.72-.22a.34.34 0 00-.17.2v.06C2.08 4.88 1 9.58.35 12.05c-.17.66-.28 1.09-.3 1.19a1.18 1.18 0 00.28 1.17 14.3 14.3 0 003.05 1.46 16.51 16.51 0 003.11.94h.21a1.17 1.17 0 001-.68l.57-1.08c1.18-2.26 3.51-6.49 4.08-7.45a.34.34 0 000-.26zm-5-1.84a32.83 32.83 0 013.65 1.61c-.38-.09-.87-.24-1.47-.43l-.14-.05-.78-.26-.26-.09c-.35-.13-.72-.26-1.12-.42l-.87-.34-.14-.06a27 27 0 01-2.55-1.16 33.06 33.06 0 013.7 1.2zm.3 9.33c-.31.6-.52 1-.56 1.08a.57.57 0 01-.49.35 14.06 14.06 0 01-3-.91A13.74 13.74 0 01.8 14a.56.56 0 01-.12-.59c0-.09.13-.52.3-1.18.52-2.06 1.45-6 1.83-7.74a10.28 10.28 0 00.91.51 33.09 33.09 0 003.34 1.42l.53.2a25.89 25.89 0 003.48 1.1l.46.09c-.87 1.55-2.8 5.07-3.81 6.99z" class="cls-1"/><path d="M8.81 8.7a.71.71 0 00-.43-.91L6.44 7.1a.7.7 0 00-.9.42L5 9a3.87 3.87 0 01-2.36-.62c-.43 1.72-.68 2.59-1 3.83-.15.59 5.33 2.69 5.61 2.15.6-1.13 1.72-3.28 2.55-4.85a4 4 0 00-1.08-.57zM6 11.51l-1.73.18a.14.14 0 01-.15-.12l-.21-1.74A.14.14 0 014 9.68l1.76-.18a.15.15 0 01.1 0 .21.21 0 01.06.1l.18 1.73a.15.15 0 01-.1.18zm1.67-1a.21.21 0 01-.11.12.19.19 0 01-.15 0l-.9-.32-.07-.7a.62.62 0 00-.23-.43.65.65 0 00-.5-.18h-.18L6 7.69a.2.2 0 01.21-.13l1.94.69a.21.21 0 01.13.27zM13.24 4.53l.18-4.14a.38.38 0 00-.35-.39.39.39 0 00-.4.36l-.18 4.14a.37.37 0 00.36.39.37.37 0 00.39-.36zM14.56 5.11a.4.4 0 00.29-.11l1.66-2.1a.37.37 0 10-.58-.47L14.26 4.5a.38.38 0 00.06.53.41.41 0 00.24.08zM11 4.8a.37.37 0 00.31.17.44.44 0 00.21-.07.37.37 0 00.1-.52l-1.5-2.21a.37.37 0 00-.52-.1.38.38 0 00-.1.52z" class="cls-1"/></g></g></g></svg>