<svg fill="currentColor" viewBox="0 0 30 20"><path stroke-linejoin="round" stroke-miterlimit="10" stroke-width=".4371" d="M9.18023 8.22993c-1.9-.7-4.69999-1.9-4.59999-2.3 0-.1.09999-.3 1.59999.2.9.3 2.20001.7 3.40001 1.1 1.29996.5 2.49996 1 3.29996 1.4 1.4.7 1.3.90001 1.3.90001-.3.4-3.4-.70001-4.99997-1.30001z"/><path d="M4.78026 10.4299c-.4 1.7-.7 2.6-1 3.8-.1.6 4.99999 2.7 5.39999 1.9.5-1.2 1.50005-3 2.40005-4.6 0 0-1.2-1.4-3.30004-.8-2.3.7-3.5-.3-3.5-.3z"/><path stroke-linejoin="round" stroke-miterlimit="10" stroke-width=".6557" d="M5.58022 17.73c-1.5-.6-2.7-1.1-3-1.4-.2-.2-.40002-.5-.20002-1 0-.1.10001-.5.30001-1.2.6-2.4 1.70001-7.20002 1.90001-8.30002 0 0-.00001-.1.09999-.1 0 0 .1 0 .1.1 0 .2 1.6 1.1 4.5 2.2 2.89999 1.1 4.69999 1.5 4.89999 1.4h.1v.1c-.6 1.00002-2.9 5.30002-4.1 7.50002-.29999.6-.49998 1-.59998 1.1-.2.5-.60001.6-.80001.6-.5-.1-1.79999-.4-3.19999-1zm-2.90001-1.5c.3.3 1.50001.8 2.90001 1.4 1.4.5 2.79999.9 3.09999.9.2 0 .49999-.1.69999-.5 0-.1.30001-.5.60001-1.1 1.09999-2.1 3.29999-6.1 3.99999-7.40002-.8.1-3.4-.8-4.79999-1.4-1.7-.6-4-1.6-4.5-2.2-.3 1.4-1.3 5.90002-1.9 8.20002-.2.7-.3 1.1-.3 1.2-.1.5 0 .8.2.9z"/><path stroke-linejoin="round" stroke-miterlimit="10" stroke-width=".4371" d="M7.3803 12.1301c-.2-.1-.39999-.3-.29999-.6l.7-1.90003c.1-.2.29999-.4.59999-.3l1.9.70003c.2.1.4.3.3.6l-.7 1.9c-.1.2-.29999.4-.59999.3l-1.90001-.7z"/><path stroke-linejoin="round" stroke-miterlimit="10" stroke-width=".4371" d="M8.38026 13.3301c0 .2-.09998.4-.29998.4l-1.70002.2c-.2 0-.39999-.1-.39999-.3l-.2-1.7c0-.2.10001-.4.30001-.4l1.69999-.2c.2 0 .4.1.4.3l.19999 1.7z"/><path stroke-linejoin="round" stroke-miterlimit="10" stroke-width=".4371" d="M16.1803 9.52979c0-.1-.1-.3 1.3-1 .9-.4 2-.9 3.3-1.4 1.3-.5 2.5-.9 3.4-1.1 1.5-.4 1.6-.20001 1.6-.20001 0 .4-2.8 1.60001-4.6 2.30001-1.6.7-4.7 1.8-5 1.4z"/><path d="M25.5803 10.4299c.4 1.7.7 2.6 1 3.8.1.6-5 2.7-5.4 1.9-.5-1.2-1.5-3-2.4-4.6 0 0 1.2-1.4 3.3-.8 2.3.7 3.5-.3 3.5-.3z"/><path stroke-linejoin="round" stroke-miterlimit="10" stroke-width=".6557" d="M21.6802 18.6299c-.2 0-.6-.1-.8-.6 0-.1-.3-.5-.6-1.1-1.1-2.2-3.5-6.5-4.1-7.50002v-.1h.1c.1.1 1.9-.3 4.9-1.4 2.9-1.1 4.5-2 4.5-2.2 0 0 0-.1.1-.1 0 0 .1 0 .1.1.2 1.1 1.3 5.90002 1.9 8.30002.2.7.3 1.1.3 1.2.1.5-.1.8-.2 1-.3.3-1.5.9-3 1.4-1.5.7-2.8 1-3.2 1zm6.1-2.4c.2-.1.3-.4.2-.8 0-.1-.1-.5-.3-1.2-.6-2.3-1.6-6.70002-1.9-8.20002-.5.5-2.9 1.5-4.5 2.2-1.4.5-4.1 1.4-4.8 1.4.7 1.30002 2.9 5.30002 4 7.40002.3.6.5 1 .6 1.1.2.4.5.5.7.5.4 0 1.7-.4 3.1-.9 1.4-.7 2.6-1.3 2.9-1.5z"/><path stroke-linejoin="round" stroke-miterlimit="10" stroke-width=".4371" d="M22.9805 12.1298c.2-.1.4-.3.3-.6l-.7-1.89998c-.1-.2-.3-.4-.6-.3l-1.9.69998c-.2.1-.4.3-.3.6l.7 1.9c.1.2.3.4.6.3l1.9-.7z"/><path stroke-linejoin="round" stroke-miterlimit="10" stroke-width=".4371" d="M21.9805 13.3298c0 .2.1.4.3.4l1.7.2c.2 0 .4-.1.4-.3l.2-1.7c0-.2-.1-.4-.3-.4l-1.7-.2c-.2 0-.4.1-.4.3l-.2 1.7z"/><path stroke-linecap="round" stroke-linejoin="round" stroke-miterlimit="10" stroke-width=".8742" d="M15.48 6.42998l.3-5.2m1.8001 5.4999l2.1-2.6m-6.0999 2.4001l-1.9-2.8"/><path d="M23.4803 4.22991c-.1 0-.1 0 0 0l.1-.19999c.9-1.5 3-2.00001 4.5-1.10001.4.2.7.5 1 .9.8 1.1.8 2.5.1 3.6l-.1.2h-.1l-5.5-3.4c0 .1 0 .1 0 0zm5.4-.3c-.2-.4-.6-.59999-.9-.89999-1.5-.9-3.4-.40001-4.3 1.09999l-.1.1 5.4 3.30001.1-.10001c.6-1.1.6-2.5-.2-3.5z"/><path stroke-linecap="round" stroke-linejoin="round" stroke-miterlimit="10" stroke-width=".4075" d="M23.4803 4.22991c-.1 0-.1 0 0 0l.1-.19999c.9-1.5 3-2.00001 4.5-1.10001.4.2.7.5 1 .9.8 1.1.8 2.5.1 3.6l-.1.2h-.1l-5.5-3.4zm0 0c0 .1 0 .1 0 0zm5.4-.3c-.2-.4-.6-.59999-.9-.89999-1.5-.9-3.4-.40001-4.3 1.09999l-.1.1 5.4 3.30001.1-.10001c.6-1.1.6-2.5-.2-3.5z"/><path stroke-miterlimit="10" stroke-width=".081494" d="M26.6801 3.73003c0-.1.1-.2.3-.2 0 0 .4.1.6.2.3.2.5.4.5.4.1.1.1.29999-.1.29999l-1.2.70001c-.1.1-.2 0-.2-.1l.1-1.3zm-1.6997.69999c-.1-.1-.1-.19999-.1-.29999 0 0 .2-.3.5-.4l.6-.2c.1 0 .3.1.3.2v1.3c0 .1-.1.2-.2.1l-1.1-.70001zm3.3.39998c.1-.1.3-.00001.3.09999 0 0 .1.30001.1.60001 0 .3-.1.6-.1.6-.1.1-.2.2-.3.1l-1.2-.7c-.1-.1-.1-.2 0-.3l1.2-.4z"/><path stroke-linecap="round" stroke-linejoin="round" stroke-miterlimit="10" stroke-width=".374" d="M21.3801 5.93015c-.2.7.2 1.4.9 1.6.7.2 1.4-.2 1.6-.9.2-.7-.1-1.1-.9-1.1-.7-.7-1.4-.2-1.6.4z"/><path stroke-linecap="round" stroke-linejoin="round" stroke-miterlimit="10" stroke-width=".374" d="M24.7799 2.53003s-1.6 1.39999-1.9 3.39999"/><path d="M6.78021 4.32991l-5.5 3.3H1.1802l-.09999-.2c-.699997-1.1-.600006-2.5.09999-3.6.3-.4.6-.7 1-.9 1.5-.9 3.6-.39999 4.5 1.10001l.10001.29999c.1-.1.1-.1 0 0 0 0 .1 0 0 0zm-5.5 3l.09999.1 5.40001-3.3-.10001-.09999c-.9-1.5-2.8-2.00001-4.3-1.10001-.4.2-.69999.5-.89999.9-.800003 1.1-.9 2.5-.2 3.5z"/><path stroke-linecap="round" stroke-linejoin="round" stroke-miterlimit="10" stroke-width=".4075" d="M6.78021 4.32991l-5.5 3.3H1.1802l-.09999-.2c-.699997-1.1-.600006-2.5.09999-3.6.3-.4.6-.7 1-.9 1.5-.9 3.6-.39999 4.5 1.10001l.10001.29999zm0 0c.1-.1.1-.1 0 0zm0 0c.1 0 0 0 0 0zm-5.5 3l.09999.1 5.40001-3.3-.10001-.09999c-.9-1.5-2.8-2.00001-4.3-1.10001-.4.2-.69999.5-.89999.9-.800003 1.1-.9 2.5-.2 3.5z"/><path stroke-miterlimit="10" stroke-width=".081494" d="M3.58044 3.73003c0-.1-.1-.2-.3-.2 0 0-.40001.1-.60001.2-.3.2-.5.4-.5.4-.1.1-.09999.29999.10001.29999l1.19999.70001c.1.1.2 0 .2-.1l-.09999-1.3zm1.69954.69999c.1-.1.09999-.19999.09999-.29999 0 0-.2-.3-.5-.4-.3-.1-.59999-.2-.59999-.2-.1 0-.3.1-.3.2v1.3c0 .1.1.2.2.1l1.1-.70001zM2.08018 4.83c-.1-.1-.3-.00001-.3.09999 0 0-.1.30001-.1.60001 0 .3.1.6.1.6.1.1.2.2.3.1l1.2-.7c.1-.1.1-.2 0-.3l-1.2-.4z"/><path stroke-linecap="round" stroke-linejoin="round" stroke-miterlimit="10" stroke-width=".374" d="M8.88031 5.93015c.2.7-.19999 1.4-.89999 1.6-.7.2-1.40001-.2-1.60001-.9-.2-.7.10001-1.1.90001-1.1.7-.7 1.39999-.2 1.59999.4z"/><path stroke-linecap="round" stroke-linejoin="round" stroke-miterlimit="10" stroke-width=".374" d="M5.58008 2.53003s1.59999 1.39999 1.89999 3.39999"/></svg>