<svg fill="currentColor" viewBox="0 0 23 17"><path d="M18.0612 9.69607l-.2623-1.37717c-.0509-.23234-.1882-.43665-.3841-.57148-.0967-.06472-.2053-.10964-.3195-.13215-.1141-.02251-.2317-.02218-.3457.00099l-1.8737.36538c-.2269.05579-.4247.19434-.5547.38846-.1299.19412-.1827.4298-.1479.66081v.21547c-.2254.06505-.4423.15623-.6464.27169 0 0 1.3397 3.61623 1.7425 5.14333.1405.5434 5.34-.6558 5.2464-1.2179-.1968-1.2086-.4966-3.88796-.4966-3.88796-.4066.2064-.8556.31545-1.3116.31854l-.6464-.17801zm-1.8737.38413l-.1312.5246-.6745.1405-.4028-1.87365 1.8737-.40285.1873.93685c-.153-.01721-.3075.01566-.4403.09369-.0994.06443-.1837.14977-.2468.25009-.0631.10032-.1035.2132-.1185.33077h-.0469zm1.8737 2.0798l-1.3865-.3373.3653-1.4053 1.3772.3654-.356 1.3772zm-6.9795-8.15991c.1242 0 .2434-.04935.3312-.1372.0879-.08785.1372-.20699.1372-.33123V.721111c.0013-.061068-.0097-.12177-.0322-.178551-.0225-.056781-.0561-.108498-.0989-.152122-.0427-.043625-.0938-.078279-.1501-.101932-.0563-.023654-.1167-.035833-.1778-.03582-.253 0-.4685.206107-.4778.468425V3.53166c0 .12424.0493.24338.1372.33123.0878.08785.207.1372.3312.1372zm1.134.09362c.0726-.00071.1441-.01795.209-.05042.0649-.03246.1216-.0793.1657-.13695l1.0493-1.43338c.0579-.09978.077-.21744.0536-.33042-.0235-.11298-.0878-.21333-.1807-.28182-.0928-.06848-.2077-.10029-.3226-.08931-.1148.01098-.2216.06397-.2998.14881L11.8316 3.3536c-.0707.09987-.0994.2234-.0801.3442.0192.12079.0849.22926.1831.30222.0801.06276.1794.09586.2811.09369zM9.658 3.897c.03538.05098.08072.09425.13329.1272.05257.03296.11128.05492.17257.06455.06134.00963.12394.00674.18404-.0085.0602-.01525.1166-.04253.1659-.0802.0988-.07464.1648-.18473.184-.30707.0192-.12234-.0098-.24737-.081-.34872L9.36758 1.96709c-.03538-.05097-.08072-.09425-.13329-.1272-.05257-.03296-.11127-.05492-.17257-.06455-.06129-.00963-.12391-.00674-.18405.00851-.06015.01524-.11658.04252-.16588.08019-.09882.07464-.1648.18474-.18402.30707-.01923.12234.0098.24737.08096.34872L9.658 3.897z"/><path d="M22.0338 13.8559l-1.4053-9.2748c.0035-.03427.0035-.0688 0-.10306-.5434-1.20854-4.1971-.5059-4.9466-.34663-1.0458.20149-2.0666.5156-3.0448.93685-.3091.14989-1.1242.56211-1.3022 1.14295-.178-.58084-.993-.99306-1.3022-1.14295-.97815-.42125-1.99902-.73536-3.04477-.93685-.74948-.15927-4.4032-.86191-4.94657.34663-.00351.03426-.00351.06879 0 .10306L.645461 13.8559C.373774 15.1019 3.73707 15.8795 4.39286 16.02c.81807.1859 1.6532.2864 2.49201.2998h.21549c.356 0 1.47085 0 1.62075-.7682l2.54819-8.90007L13.93 15.5235c.1499.7308 1.2647.7589 1.6301.7682h.2061c.8388-.0134 1.674-.1139 2.492-.2998.6746-.1124 4.0379-.9087 3.7756-2.136zM7.71867 15.2612c-1.07786.2045-2.18887.1499-3.24149-.1593-1.08949-.1475-2.12916-.5486-3.0354-1.171l1.23664-8.21622c.18451.11658.37529.22292.57148.31853.97506.42957 1.99688.74398 3.04477.93685.9667.21381 1.95191.33304 2.94171.35601.28554.00293.5708-.01902.85252-.06558L7.71867 15.2612zm10.30533-.1593c-1.0526.3092-2.1636.3638-3.2415.1593l-2.3702-7.92577c.2817.04657.567.06851.8525.06558.9898-.02296 1.975-.14219 2.9417-.356 1.0479-.19288 2.0698-.50728 3.0448-.93685.1973-.09357.3882-.19997.5715-.31853l1.2366 8.17867c-.9003.5972-1.9262.9787-2.9979 1.1149l-.0375.0187z"/><path d="M8.39313 9.03091c.0348-.23101-.01796-.46669-.14795-.66081-.12999-.19412-.32782-.33267-.55468-.38846l-1.8737-.36538c-.11404-.02317-.23153-.0235-.3457-.00099-.11418.02251-.22275.06743-.31946.13215-.19594.13483-.33326.33914-.38411.57148l-.26232 1.37717-.65579.17801c-.45598-.00309-.905-.11214-1.3116-.31854 0 0-.29979 2.67936-.49653 3.88796-.09369.5621 5.10584 1.7613 5.24637 1.2179.40284-1.5271 1.74254-5.14333 1.74254-5.14333-.20414-.11546-.4211-.20664-.64643-.27169l.00936-.21547zM4.40216 12.16l-.35601-1.3772 1.37717-.3654.36537 1.4053-1.38653.3373zm2.70749-1.4147l-.67453-.1405-.13116-.5246c-.05627-.21272-.19434-.39457-.38411-.50591-.1364-.07753-.29368-.1103-.44968-.0937l.18736-.93685 1.8737.40285-.42158 1.79871z"/></svg>