<svg viewBox="0 0 81.41 15.98" fill="currentColor"><defs><style>.cls-1{fill:#009579}</style></defs><g id="Layer_2" data-name="Layer 2"><g id="Layer_1-2" data-name="Layer 1"><g id="Title_Bottom" data-name="Title Bottom"><path d="M74.79 13.29c-4.72 0-7.46-2-9.89-3.79-2.11-1.55-4.11-3-7.16-3-1.59 0-2.86 1.16-2.86 2.12a.51.51 0 01-.5.5.5.5 0 01-.5-.5c0-1.63 1.84-3.12 3.86-3.12 3.38 0 5.5 1.56 7.75 3.2 2.45 1.79 5 3.67 9.48 3.6A10 10 0 0077 12a11.13 11.13 0 001.64-.64 3.58 3.58 0 001.64-2 2.52 2.52 0 00-1.66-3.14 1.92 1.92 0 00-2.39 1.26 1.44 1.44 0 001 1.79 1 1 0 001.3-.69.48.48 0 01.62-.33.49.49 0 01.33.62 2 2 0 01-2.55 1.35 2.43 2.43 0 01-1.6-3 2.9 2.9 0 013.63-1.92 3.5 3.5 0 012.32 4.38 4.49 4.49 0 01-2.08 2.52 10.89 10.89 0 01-1.9.75 10.47 10.47 0 01-2.29.28z" class="cls-1"/><circle cx="78.93" cy="13.76" r=".74" class="cls-1"/><circle cx="68.61" cy="9.31" r=".74" class="cls-1"/><path d="M73.45 13.22s.35-.77 3 .17c.27.09 2 1.16 1.27 2.59.02.02-.72-2.23-4.27-2.76zM62 6.44s0 .74 2.63 1.83a2.81 2.81 0 003.75-1.2S66.27 9 62 6.44zM6.62 13.29h-.19A10 10 0 014.17 13a10.12 10.12 0 01-1.93-.75A4.49 4.49 0 01.16 9.74a3.45 3.45 0 01.25-2.67 3.48 3.48 0 012.07-1.71 2.9 2.9 0 013.63 1.92 2.42 2.42 0 01-1.6 3A2 2 0 012 9a.49.49 0 01.33-.62.48.48 0 01.62.33 1.06 1.06 0 001.3.69 1.44 1.44 0 001-1.79 1.92 1.92 0 00-2.48-1.3 2.53 2.53 0 00-1.48 1.22 2.57 2.57 0 00-.18 1.92 3.58 3.58 0 001.64 2 11.34 11.34 0 001.67.65 10.15 10.15 0 002 .24c4.52.05 7-1.81 9.48-3.6 2.25-1.64 4.37-3.2 7.75-3.2 2 0 3.86 1.49 3.86 3.12a.5.5 0 01-.5.5.51.51 0 01-.5-.5c0-1-1.27-2.12-2.86-2.12-3.05 0-5.05 1.46-7.16 3-2.41 1.73-5.15 3.75-9.87 3.75z" class="cls-1"/><circle cx="2.48" cy="13.76" r=".74" class="cls-1"/><circle cx="12.8" cy="9.31" r=".74" class="cls-1"/><path d="M8 13.22s-.35-.77-3 .17c-.33.09-2 1.16-1.33 2.61 0 0 .79-2.25 4.33-2.78zM19.41 6.44s0 .74-2.63 1.83A2.81 2.81 0 0113 7.07s2.14 1.93 6.41-.63zM52 2.44a.5.5 0 00-.45-.34 7.2 7.2 0 00-5.61 2.2 6.89 6.89 0 01.65.54h.19a6.24 6.24 0 014.37-1.79 6.23 6.23 0 01-1.08 5.4A6 6 0 0148.29 10a5.19 5.19 0 01-.53 1.37 7.21 7.21 0 004.22-9z" class="cls-1"/><path d="M40.92 15.56A9 9 0 0135.79 14a3.13 3.13 0 01-3.63-2.47A2.73 2.73 0 0132.93 9v-.1c0-3.68 3.59-6.67 8-6.67a8.82 8.82 0 015.87 2.14 2.91 2.91 0 012.45 2.29 2.58 2.58 0 01-.35 1.76 3.7 3.7 0 010 .47c.02 3.68-3.56 6.67-7.98 6.67zm-4.87-2.62l.17.13a7.93 7.93 0 004.7 1.49c3.86 0 7-2.54 7-5.67a4.58 4.58 0 000-.53v-.18L48 8a1.67 1.67 0 00.3-1.19 2 2 0 00-1.78-1.5h-.15l-.12-.11a7.73 7.73 0 00-5.3-2c-3.86 0-7 2.55-7 5.67v.54l-.2.16a1.73 1.73 0 00-.61 1.76 2.2 2.2 0 002.7 1.67z" class="cls-1"/><circle cx="47.3" cy="10.89" r=".92" class="cls-1"/><circle cx="45.2" cy="11.2" r=".71" class="cls-1"/><circle cx="42.98" cy="11.61" r=".71" class="cls-1"/><circle cx="41.11" cy="12.76" r=".71" class="cls-1"/><circle cx="44.55" cy="13.47" r=".92" class="cls-1"/><circle cx="44.59" cy="9.52" r=".37" class="cls-1"/><circle cx="42.3" cy="9.31" r=".55" class="cls-1"/><path d="M42.52 3a6.3 6.3 0 012.88-1.92 6.26 6.26 0 01.93 3.71.93.93 0 01.15.13 3.09 3.09 0 01.83.25A7.23 7.23 0 0046 .21a.48.48 0 00-.51-.21 7.23 7.23 0 00-4.13 2.81 8.57 8.57 0 011.16.19zM33.52 8.85a5.84 5.84 0 01.16-1.1 6.23 6.23 0 01-2.36-4.88A6.25 6.25 0 0136.73 4a8 8 0 011-.47c-.13-.12-.26-.24-.4-.35A7.24 7.24 0 0030.68 2a.49.49 0 00-.35.44 7.26 7.26 0 002.81 6.15c.12.11.26.18.38.26z" class="cls-1"/></g></g></g></svg>