<svg viewBox="0 0 104.63 47.54" fill="currentColor"><defs><style>.cls-1{fill:#009579}</style></defs><g id="Layer_2" data-name="Layer 2"><g id="Layer_1-2" data-name="Layer 1"><g id="Layer_1-2-2" data-name="Layer 1-2"><g id="Text_Top" data-name="Text Top"><path d="M61.25 28.12c-.78.61-1.59 1.2-2.41 1.81a26 26 0 00-2.42 2 10.53 10.53 0 00-1.55 1.72l-.4-.68-.11-.19c.48-.56.93-1.09 1.41-1.6s1.23-1.3 1.89-1.92c1.28-1.27 2.64-2.45 4-3.86a7.86 7.86 0 00-2.74 1 10.74 10.74 0 00-2.34 1.73 9.31 9.31 0 00-1.8 2.34 6.78 6.78 0 00-.69 1.78 18.89 18.89 0 01-1.21-2.77c.51-.39 1-.76 1.52-1.11l1.53-1a5 5 0 002.48-1.52c1-.58 2-1.17 3-1.84a7.07 7.07 0 00-2 .17 4.8 4.8 0 00.26-1.25 10.75 10.75 0 001.45-1.25 8.62 8.62 0 001.67-2.5c-1.16.7-2.22 1.43-3.27 2.11a5.07 5.07 0 00-.91-1.81 10.22 10.22 0 001.79-1.14 8.2 8.2 0 001.94-2.17c-1.78.73-3.34 1.54-5 2.21a4.85 4.85 0 00-1.14-.51.49.49 0 010-.17l1.49-1.13a46.92 46.92 0 004.94-4.08 12.93 12.93 0 00-3.08 1.13 17.67 17.67 0 00-2.79 1.71c-.17.13-.34.28-.51.43A6.27 6.27 0 0056 14.4c.26-.21.52-.41.78-.63a22.86 22.86 0 003.8-4A10.6 10.6 0 0058 11a15.6 15.6 0 00-2.25 1.61c-.17.14-.33.3-.49.45a7.17 7.17 0 00-1-1.06 6.59 6.59 0 00.71-.24A8.63 8.63 0 0057.43 10a10.14 10.14 0 001.78-2.3 8.28 8.28 0 001-2.74c-1.41 1.37-2.58 2.72-3.87 4a25.82 25.82 0 01-2 1.75c-.31.23-.65.44-1 .65a6.28 6.28 0 00-1.76-.72.24.24 0 010-.12 7.45 7.45 0 003.68-2.26A9.55 9.55 0 0057 6a7.32 7.32 0 00.76-2.67C56.45 4.63 55.4 6 54.25 7.19c-.56.62-1.16 1.2-1.77 1.78-.21.19-.43.36-.64.54.06-.46.13-.91.2-1.35v-.1c.12-.35.22-.7.33-1.06a4.09 4.09 0 00.8-.3 5.33 5.33 0 001.58-1.21 5.92 5.92 0 001.06-1.64A4.74 4.74 0 0056.27 2a10.66 10.66 0 00-1.42 1.26c-.43.42-.82.85-1.2 1.27l-.82.91a20.07 20.07 0 00.41-2.56 12.26 12.26 0 000-2.84 9.57 9.57 0 00-1.49 2.44 13.74 13.74 0 00-.87 2.63.88.88 0 01-.08.44c-.14-.28-.27-.55-.42-.81a13.18 13.18 0 00-.76-1.18 7 7 0 00-1-1.17A3.15 3.15 0 0048.48 4 4 4 0 0049 5.43a4.06 4.06 0 001 1.22 4.45 4.45 0 00.51.33 3.87 3.87 0 01-.06.83 8.62 8.62 0 00.09 1.24 1.58 1.58 0 01-.08.6c-.16-.27-.33-.53-.49-.79-.35-.56-.71-1.09-1.07-1.63s-.74-1.06-1.15-1.59a14.18 14.18 0 00-1.3-1.58 5.37 5.37 0 00.29 2.14 7.26 7.26 0 00.95 1.91 6.8 6.8 0 001.46 1.57 5.69 5.69 0 001.28.76h-.1a5.85 5.85 0 00-2.11.39 12.17 12.17 0 00-.89-1.72 8.48 8.48 0 00-1.65-1.88 3.92 3.92 0 00-2.32-1.06 14.5 14.5 0 011.41 1.89L46 10c.33.49.66 1 1 1.47a6 6 0 00-2.13 2.4c-.49-.66-1-1.32-1.45-2-.59-.86-1.16-1.71-1.72-2.68a7.47 7.47 0 00.66 3.26A12.83 12.83 0 0044 15.29c.1.14.21.26.31.39a5.69 5.69 0 00-.06.83V17c-.64-.65-1.28-1.3-1.9-2s-1.35-1.49-2-2.37a7.49 7.49 0 001.11 3.14 13.64 13.64 0 002 2.6c.39.39.79.76 1.21 1.11a5.42 5.42 0 00-.7.29c-.84-.57-1.69-1.11-2.51-1.69s-1.68-1.21-2.54-1.93A7.24 7.24 0 0040.67 19a12.2 12.2 0 001.95 1.7l-.3.29a.43.43 0 00-.22.22c-.1.11-.17.24-.26.36-.39-.26-.77-.51-1.15-.78-.85-.6-1.68-1.21-2.54-1.93a7.26 7.26 0 001.74 2.84 11.07 11.07 0 001.23 1.14 5.62 5.62 0 00-.36 1.9 13.53 13.53 0 00-2.76-.38c.94.48 1.86.92 2.78 1.36a5.67 5.67 0 005.59 4.78 5.61 5.61 0 003-.88c.82.34 1.65.66 2.5 1 .1.26.21.51.32.77a4.38 4.38 0 00-2-.17c-.9.09-1.72.3-2.51.43a19.25 19.25 0 01-2.39.29h-2.57A6.41 6.41 0 0048 33.16a13.38 13.38 0 002.52-.79 8.56 8.56 0 011.87-.55c.28.61.58 1.2.91 1.78l.24.38a4.69 4.69 0 00-1.67 0c-.91.15-1.71.4-2.5.58a19.16 19.16 0 01-2.37.38c-.82.06-1.65 0-2.58 0A5.44 5.44 0 0047 36.12a6.78 6.78 0 002.8-.12 14.1 14.1 0 002.49-.93 7.46 7.46 0 011.71-.55c1.85 3 3.58 4.94 5.15 5.86a2.22 2.22 0 00-.71-2.17A15.76 15.76 0 0155.11 34l2-1.14a26 26 0 002.62-1.69A12.9 12.9 0 0062.11 29a4.32 4.32 0 001.15-3 7.4 7.4 0 01-2.01 2.12zm-8.6.66c-.21-.67-.4-1.35-.56-2a5.19 5.19 0 001.56.64l-.06.06a7.05 7.05 0 00-.94 1.3zm6-6.25a4 4 0 01-4 4A3.86 3.86 0 0152 25.48a.14.14 0 010-.09 7.43 7.43 0 002 .7 6.54 6.54 0 01-2-1.81.06.06 0 010-.06 4.92 4.92 0 001.4.52A4.25 4.25 0 0151.86 23a5.34 5.34 0 001.54.69 4.6 4.6 0 01-1.16-1.4 6.1 6.1 0 003.68-3.47 4 4 0 012.75 3.75zm-8.33-11.07a5 5 0 01.49 10l.28-.13a4.89 4.89 0 001.76-1.53 4.58 4.58 0 01-2 1.07 7.41 7.41 0 01-1.31.26l.17-.08a6.48 6.48 0 001.59-1.22 6.38 6.38 0 01-1.78.76 8.86 8.86 0 01-1.25.23l.53-.25a5.88 5.88 0 001.47-1.16 5.73 5.73 0 01-1.66.69 6.64 6.64 0 01-.87.16h-.61l.53-.25a6.93 6.93 0 001.16-.78 6 6 0 01-1.32.3 7.22 7.22 0 01-.92.06 9.57 9.57 0 001.1-.68A7.2 7.2 0 0146 19a4.93 4.93 0 01-.72-2.56 5 5 0 015.04-4.98zm-8.58 13.37a4.49 4.49 0 01.6-2.23l.16-.06.42-.09a4.44 4.44 0 01.9-.07A4.54 4.54 0 0043 22h-.17l.06-.08a3.86 3.86 0 01.51-.09 4.33 4.33 0 01.72 0 4.54 4.54 0 011.45.36 5.1 5.1 0 00-1.32-.84 3.31 3.31 0 00-.41-.14h.37a4.57 4.57 0 01.74 0 3.07 3.07 0 011.42.5 3.38 3.38 0 00-1.28-1 2.08 2.08 0 00-.32-.12 4.84 4.84 0 01.85-.23 6 6 0 004.53 2.27c.06.61.13 1.22.22 1.83l-.24-.09.27.26a5.6 5.6 0 00.18 1.06 2.39 2.39 0 00-.47-.31 2 2 0 01.45 1 1.82 1.82 0 01-.17 1 4.66 4.66 0 01-8.62-2.46zm8.61 4.07a5.23 5.23 0 00.74-.88c.17.62.36 1.22.57 1.82-.43-.33-.86-.64-1.31-.94z" class="cls-1"/><path d="M48.79 14.8a.9.9 0 01-.06-1.21 1.23 1.23 0 01.36-.36.89.89 0 00-1.15.44.88.88 0 00.06 1.21.74.74 0 00.79-.08zM45.21 26.51a1.09 1.09 0 01-.1-.5.87.87 0 00-.25 1.2.9.9 0 001.08.6.74.74 0 00.35-.71.89.89 0 01-1.08-.59zM57.38 24a.71.71 0 00.09-1 .56.56 0 00-.63 0 .72.72 0 01-.1.95.85.85 0 01-.33.24.73.73 0 00.97-.19zM41.07 33.83a5.94 5.94 0 00-2.64-3.19h.13a2.36 2.36 0 001.3-1.35 5.69 5.69 0 01-.83.47 4.19 4.19 0 01-1.74.37c-.75-.29-1.51-.51-1.58-.53a13.79 13.79 0 00-3-.33c-6.25 0-11.26 4.09-16.1 8-1.61 1.36-3.29 2.73-4.93 3.82a4.33 4.33 0 01-.47-.38 4.6 4.6 0 01-1.46-3.16 4.46 4.46 0 014.49-4.42h.09a.61.61 0 00.61-.61.61.61 0 00-.61-.61 5.68 5.68 0 00-5.79 5.59 5.84 5.84 0 001.81 4l.25.22a14 14 0 01-7.47 2.54 16.35 16.35 0 01-2.43-.1.62.62 0 00-.69.52.61.61 0 00.51.69 17.22 17.22 0 002.59.13 15.59 15.59 0 008.53-3 6.54 6.54 0 003.32.9c3.07 0 5.54-2.6 7.72-4.86a17.28 17.28 0 013.59-3.18.6.6 0 00.24-.81.6.6 0 00-.82-.23 17.94 17.94 0 00-3.88 3.39c-2.11 2.2-4.29 4.47-6.85 4.5a5.21 5.21 0 01-2.24-.47c1.53-1.09 3-2.32 4.58-3.57 4.67-3.82 9.51-7.76 15.33-7.76a13.16 13.16 0 012.72.29 13.32 13.32 0 012.25.85 4.89 4.89 0 012.25 2.61 3.42 3.42 0 01-2.22 4.29 2.61 2.61 0 01-3.27-1.69 2 2 0 01.13-1.5 1.88 1.88 0 011.14-1 1.48 1.48 0 011.11.09 1.46 1.46 0 01.71.85.61.61 0 101.16-.37 2.67 2.67 0 00-1.31-1.56 2.72 2.72 0 00-2-.17 3.17 3.17 0 00-2.07 4 3.83 3.83 0 004.8 2.48 4.78 4.78 0 002-1.28v.16a1.79 1.79 0 00.93 1.1 4 4 0 01-.28-.64 2.86 2.86 0 01-.15-1.23c.07-.12.16-.23.23-.36a4.65 4.65 0 00.31-3.5z" class="cls-1"/><path d="M31.7 37a4.29 4.29 0 011.42-3.56l.18-.19a.6.6 0 00.08-.71.61.61 0 00-.65-.3c-3.34.68-5.55 3.42-7.69 6.06-3.4 4.21-6.61 8.18-14.22 6a.59.59 0 00-.56.11 10.94 10.94 0 01-5.54 1.91.61.61 0 00-.5.71.62.62 0 00.57.5h.06a12.82 12.82 0 005.92-2C19 47.78 22.69 43.16 26 39.08c1.61-2 3.15-3.89 5.1-4.94a5.57 5.57 0 00-.6 2.92 5.15 5.15 0 001.2 3.06.6.6 0 00.86.07.62.62 0 00.07-.86A4 4 0 0131.7 37zM7.55 42a3.77 3.77 0 00-4.36-.39 3.52 3.52 0 004.36.39zM8.11 41.38s.29-3.5-2.83-4.69a4.39 4.39 0 002.83 4.69zM103.89 44.21a16.22 16.22 0 01-2.41.12A13.93 13.93 0 0194 41.79l.25-.22a5.93 5.93 0 001.81-4 5.69 5.69 0 00-5.74-5.64.61.61 0 00-.61.61.61.61 0 00.61.61 4.45 4.45 0 014.57 4.34.22.22 0 010 .08 4.68 4.68 0 01-1.46 3.16 5.58 5.58 0 01-.47.38c-1.67-1.11-3.3-2.49-4.96-3.85-4.84-3.94-9.85-8-16.1-8a13.58 13.58 0 00-3.05.34s-.81.23-1.55.52a4.15 4.15 0 01-1.74-.37 5.21 5.21 0 01-.83-.47A2.32 2.32 0 0066 30.6h.13a5.9 5.9 0 00-2.64 3.19 4.57 4.57 0 00.3 3.53c.07.13.16.24.23.36A3.08 3.08 0 0163.9 39a4.59 4.59 0 01-.28.64 1.8 1.8 0 00.91-1.06v-.16a4.66 4.66 0 002 1.28 3.84 3.84 0 004.81-2.48 3.17 3.17 0 00-2-4 2.66 2.66 0 00-3.35 1.72.61.61 0 00.39.77.62.62 0 00.77-.4 1.45 1.45 0 011.82-.94 2 2 0 011.27 2.47 2.61 2.61 0 01-3.27 1.69 3.41 3.41 0 01-2.22-4.29A4.81 4.81 0 0167 31.63a10.2 10.2 0 015-1.14c5.82 0 10.66 3.94 15.33 7.76 1.54 1.25 3 2.48 4.58 3.57a5.27 5.27 0 01-2.24.47c-2.56 0-4.74-2.3-6.85-4.5a18.43 18.43 0 00-3.88-3.39.6.6 0 00-.82.23.59.59 0 00.21.82 17.8 17.8 0 013.59 3.18c2.18 2.26 4.65 4.83 7.72 4.86h.07a6.51 6.51 0 003.29-.93 15.53 15.53 0 008.53 3 17.29 17.29 0 002.59-.13.62.62 0 00.51-.69.63.63 0 00-.7-.54z" class="cls-1"/><path d="M99.87 46.29a10.91 10.91 0 01-5.54-1.91.6.6 0 00-.56-.11c-7.61 2.22-10.82-1.75-14.22-6-2.14-2.64-4.35-5.38-7.69-6.06a.6.6 0 00-.65.3.59.59 0 00.08.71l.18.19A4.32 4.32 0 0172.89 37a4.06 4.06 0 01-.89 2.33.61.61 0 10.93.79 5.21 5.21 0 001.2-3.06 5.67 5.67 0 00-.6-2.92c2 1 3.49 3 5.1 4.94 3.29 4.08 7 8.7 15.21 6.44a12.74 12.74 0 005.92 2h.06a.61.61 0 00.07-1.21zM101.4 41.53A3.77 3.77 0 0097 42a3.52 3.52 0 004.4-.47zM99.31 36.69c-3.12 1.19-2.83 4.69-2.83 4.69a4.4 4.4 0 002.83-4.69z" class="cls-1"/></g></g></g></g></svg>