<svg fill="currentColor" viewBox="0 0 195 92"><path d="M131.493 88.9317c-4.72 0-7.46-2-9.89-3.79-2.11-1.55-4.11-3-7.16-3-1.59 0-2.86 1.16-2.86 2.12-.003.1318-.057.2575-.15.3507s-.219.1467-.35.1493c-.133 0-.26-.0527-.354-.1465-.094-.0937-.146-.2209-.146-.3535 0-1.63 1.84-3.12 3.86-3.12 3.38 0 5.5 1.56 7.75 3.2 2.45 1.79 5 3.67 9.48 3.6.685-.0301 1.365-.1307 2.03-.3.562-.1697 1.111-.3837 1.64-.64.776-.439 1.361-1.1523 1.64-2 .193-.6365.128-1.3239-.183-1.9122-.311-.5882-.842-1.0296-1.477-1.2278-.485-.1472-1.007-.0975-1.455.1385-.447.2359-.783.6389-.935 1.1215-.054.1832-.07.3751-.048.5646.021.1896.08.373.173.5395.093.1665.218.3129.369.4307.15.1177.322.2045.506.2552.13.046.269.0644.406.0541.138-.0103.273-.0491.395-.1139.122-.0649.229-.1544.315-.2628.086-.1085.149-.2336.184-.3674.017-.0637.046-.1232.087-.1747.041-.0516.093-.0942.151-.1252.058-.0309.122-.0496.187-.0548.066-.0052.132.0032.195.0247.062.0182.121.0489.172.0902.051.0413.093.0923.123.1501.031.0578.05.1212.056.1864.006.0652-.002.1309-.021.1933-.074.2591-.2.5006-.37.71-.169.2093-.38.3823-.618.5083-.238.1261-.499.2028-.768.2254-.268.0226-.539-.0093-.794-.0937-.607-.1915-1.113-.6128-1.413-1.1736-.299-.5608-.366-1.2165-.187-1.8264.111-.3647.294-.7038.537-.9977.243-.294.542-.5371.879-.7155.337-.1783.706-.2884 1.086-.3239.38-.0355.763.0043 1.128.1171.44.1347.849.355 1.204.6481.355.2932.649.6536.864 1.0605.216.4068.349.8522.392 1.3107.043.4584-.005.9208-.14 1.3607-.353 1.0714-1.095 1.971-2.08 2.52-.609.309-1.245.5601-1.9.75-.751.1774-1.519.2713-2.29.28l-.22.06zm4.14 1.2099c.408 0 .74-.3313.74-.74s-.332-.74-.74-.74c-.409 0-.74.3313-.74.74s.331.74.74.74z"/><path d="M125.313 85.6917c.408 0 .74-.3313.74-.74s-.332-.74-.74-.74c-.409 0-.74.3313-.74.74s.331.74.74.74zm4.84 3.1699s.35-.77 3 .17c.27.09 2 1.16 1.27 2.59.02.02-.72-2.23-4.27-2.76zm-11.45-6.7801s0 .74 2.63 1.83c.657.3312 1.419.3911 2.12.1666.701-.2244 1.286-.7151 1.63-1.3666 0 0-2.11 1.93-6.38-.63zm-55.3803 6.85h-.19c-.7619-.0103-1.5202-.1076-2.26-.29-.6673-.1834-1.314-.4347-1.93-.75-.9833-.5466-1.7256-1.4423-2.08-2.51-.1387-.4392-.188-.9017-.145-1.3603.0429-.4586.1772-.9039.395-1.3097.2146-.4079.5081-.7691.8634-1.0627.3554-.2935.7655-.5136 1.2066-.6473.3644-.1128.7475-.1526 1.1273-.1171.3798.0355.7489.1456 1.0861.3239.3372.1784.6359.4215.879.7155.243.294.4257.633.5376.9977.1813.61.1151 1.2668-.1844 1.8283-.2995.5615-.808.9824-1.4156 1.1717-.5026.161-1.0485.1168-1.5187-.123-.4701-.2398-.8265-.6556-.9913-1.157-.02-.0624-.0272-.1281-.0214-.1933.0059-.0652.0247-.1286.0555-.1864.0308-.0578.0728-.1088.1236-.1501.0508-.0413.1094-.0719.1723-.0902.0623-.0215.1283-.0298.194-.0247.0657.0052.1296.0239.1878.0548.0581.031.1093.0736.1503.1252.041.0516.0709.111.0879.1747.0852.261.2683.4787.5107.6074.2425.1287.5254.1583.7893.0826.1839-.0507.3559-.1375.506-.2552.1501-.1178.2753-.2641.3683-.4307.0931-.1665.1521-.3499.1737-.5394.0215-.1896.0052-.3815-.048-.5647-.0702-.2528-.1915-.4886-.3564-.6927-.1648-.2041-.3698-.3723-.6022-.4941-.2324-.1219-.4873-.1948-.749-.2142-.2616-.0195-.5245.0149-.7724.101-.6343.1966-1.1659.6348-1.48 1.22-.3069.5924-.3715 1.2809-.18 1.92.2783.8477.8632 1.561 1.64 2 .5386.2604 1.0971.4777 1.67.65.6571.1461 1.327.2265 2 .24 4.52.05 7-1.81 9.48-3.6 2.25-1.64 4.37-3.2 7.75-3.2 2 0 3.86 1.49 3.86 3.12 0 .1326-.0527.2598-.1464.3535-.0938.0938-.221.1465-.3536.1465-.1318-.0026-.2575-.0561-.3507-.1493-.0932-.0932-.1467-.2189-.1493-.3507 0-1-1.27-2.12-2.86-2.12-3.05 0-5.05 1.46-7.16 3-2.41 1.73-5.15 3.75-9.87 3.75zm-4.1398 1.2101c.4087 0 .74-.3313.74-.74s-.3313-.74-.74-.74-.74.3313-.74.74.3313.74.74.74z"/><path d="M69.5027 85.6917c.4087 0 .74-.3313.74-.74s-.3313-.74-.74-.74-.74.3313-.74.74.3313.74.74.74zm-4.7998 3.1699s-.35-.77-3 .17c-.33.09-2 1.16-1.33 2.61 0 0 .79-2.25 4.33-2.78zm11.4097-6.7801s0 .74-2.63 1.83c-.6606.3406-1.4293.4056-2.1378.1807-.7084-.2249-1.2989-.7214-1.6422-1.3807 0 0 2.14 1.93 6.41-.63zm32.5904-3.9999c-.033-.0954-.093-.1788-.173-.2395-.08-.0607-.177-.0957-.277-.1005-1.039-.0603-2.078.1051-3.047.4849-.968.3798-1.843.9649-2.563 1.7151.227.1665.444.3469.65.54h.19c1.166-1.1461 2.735-1.7888 4.37-1.79.245.9227.276 1.8895.089 2.8258-.188.9363-.588 1.8171-1.169 2.5742-.485.6294-1.09 1.1563-1.78 1.55-.111.4795-.29.9408-.53 1.37 1.723-.6721 3.123-1.9813 3.908-3.6565.786-1.6753.897-3.5884.312-5.3435l.02.07z"/><path d="M97.6228 91.2015c-1.8288.0133-3.6182-.5308-5.13-1.56-.8081.147-1.6416-.0297-2.3207-.4917-.6791-.4621-1.1493-1.1726-1.3093-1.9783-.0965-.4524-.0765-.9219.0582-1.3644.1347-.4426.3796-.8436.7118-1.1656v-.1c0-3.68 3.59-6.67 8-6.67 2.1523-.0268 4.2402.7343 5.8702 2.14.595.0824 1.149.3466 1.588.7566.438.41.74.9456.862 1.5334.098.6097-.027 1.2341-.35 1.76.01.1565.01.3135 0 .47.02 3.68-3.56 6.67-7.9802 6.67zm-4.87-2.62l.17.13c1.3686.9835 3.0148 1.5054 4.7 1.49 3.8602 0 7.0002-2.54 7.0002-5.67.01-.1765.01-.3534 0-.53v-.18l.08-.18c.247-.3442.354-.7696.3-1.19-.103-.4045-.33-.7666-.649-1.0356-.32-.269-.715-.4314-1.131-.4644h-.15l-.12-.11c-1.45-1.3133-3.3441-2.028-5.3002-2-3.86 0-7 2.55-7 5.67v.54l-.2.16c-.259.2046-.454.4791-.5621.7909-.1081.3119-.1247.6481-.0479.9691.0621.29.1821.5644.3529.8068.1709.2424.3889.4478.6411.6038.2522.156.5334.2594.8265.304.2932.0445.5923.0294.8795-.0446l.21-.06z"/><path d="M104.003 87.4516c.508 0 .92-.4119.92-.92s-.412-.92-.92-.92c-.509 0-.92.4119-.92.92s.411.92.92.92zm-2.1.1c.392 0 .71-.3179.71-.71 0-.3921-.318-.71-.71-.71-.392 0-.71.3179-.71.71 0 .3921.318.71.71.71zm-2.2203.4099c.3923 0 .7103-.3179.7103-.71 0-.3921-.318-.71-.7103-.71-.3922 0-.71.3179-.71.71 0 .3921.3178.71.71.71zm-1.8702 1.1502c.3922 0 .71-.3179.71-.71 0-.3922-.3178-.71-.71-.71-.3921 0-.71.3178-.71.71 0 .3921.3179.71.71.71zm3.4405.92c.508 0 .92-.4119.92-.92 0-.5082-.412-.92-.92-.92-.509 0-.92.4118-.92.92 0 .5081.411.92.92.92zm.04-4.5002c.204 0 .37-.1656.37-.37 0-.2043-.166-.37-.37-.37s-.37.1657-.37.37c0 .2044.166.37.37.37zm-2.2904-.0299c.3038 0 .55-.2462.55-.55 0-.3037-.2462-.55-.55-.55-.3037 0-.55.2463-.55.55 0 .3038.2463.55.55.55zm.2199-6.86c.7619-.8963 1.7595-1.5614 2.8805-1.92.689 1.1094 1.014 2.4066.93 3.71.054.0379.104.0814.149.13.288.0439.567.1281.831.25.184-1.7579-.282-3.5224-1.311-4.96-.053-.0832-.13-.148-.221-.1856-.092-.0375-.192-.0461-.288-.0244-1.667.4162-3.1314 1.4124-4.1305 2.81.3906.0367.7781.1002 1.16.19zm-8.9997 5.8501c.0182-.371.0718-.7393.16-1.1-.7356-.5831-1.3299-1.3249-1.7386-2.1699-.4086-.845-.6211-1.7715-.6214-2.7101.928-.2391 1.8986-.2615 2.8367-.0655.9381.1959 1.8185.6049 2.5733 1.1955.3221-.1796.6562-.3366 1-.47-.13-.12-.26-.24-.4-.35-.9291-.7224-2.0202-1.2074-3.179-1.413-1.1587-.2056-2.3501-.1256-3.471.233-.0965.0285-.1818.0861-.2444.1648-.0626.0787-.0995.1748-.1056.2752-.0657 1.1761.1558 2.3506.6453 3.4221.4896 1.0714 1.2325 2.0076 2.1647 2.7279.12.11.26.18.38.26zm25.9002-73.631c-.769-1.12664-1.801-2.04824-3.007-2.68444-1.206-.6362-2.55-.96769-3.913-.96556-.769.0031-1.533.11419-2.27.33.123.3269.226.66082.31 1 .65-.18762 1.323-.28189 2-.28 1.141-.00039 2.267.26401 3.289.77241 1.022.50841 1.912 1.24699 2.601 2.15759-.687.9136-1.576 1.6549-2.598 2.1652-1.023.5103-2.15.7756-3.292.7748-.677.0002-1.35-.0941-2-.28-.09.32-.19.64-.31.95.74.2158 1.508.3269 2.28.33 1.363-.0004 2.705-.333 3.911-.969 1.206-.636 2.238-1.5562 3.009-2.681.068-.0894.104-.1992.102-.3117-.001-.1125-.041-.2212-.112-.3083z"/><path d="M97.6125 21.6308c-2.7349-.0018-5.3608-1.0727-7.317-2.9841-1.9562-1.9113-3.0877-4.5117-3.153-7.2459-.0753-2.77901.9556-5.47428 2.8663-7.4937C91.9195 1.88769 94.5536.709303 97.3325.630817h.29c2.7845-.03713 5.4705 1.033503 7.4655 2.976383 1.996 1.94288 3.137 4.59884 3.175 7.3836.037 2.7848-1.034 5.4703-2.977 7.4656-1.943 1.9954-4.599 3.1373-7.3835 3.1744h-.29zm0-19.99998h-.26c-1.8741.05381-3.6903.66156-5.2194 1.74657-1.5291 1.085-2.7025 2.59863-3.3722 4.34987-.6697 1.75123-.8056 3.66164-.3907 5.49004.415 1.8284 1.3623 3.4929 2.7223 4.7835 1.1243 1.0625 2.4915 1.8337 3.9823 2.2464 1.4908.4127 3.06.4543 4.5706.1212 1.5106-.3331 2.9166-1.0308 4.0956-2.0322 1.179-1.0015 2.095-2.2762 2.668-3.713.573-1.4368.786-2.992.62-4.5299-.166-1.53796-.706-3.01191-1.572-4.29327-.867-1.28137-2.034-2.33121-3.399-3.05793-1.366-.72672-2.8886-1.10824-4.4355-1.11128h-.01z"/><path d="M97.6228 19.5207c-2.2422-.0026-4.3926-.891-5.9828-2.4718-1.5902-1.5809-2.4914-3.726-2.5072-5.9682 0-.1326.0527-.2598.1465-.3535.0937-.0938.2209-.1465.3535-.1465l16.0002-.08c.132 0 .26.0527.353.1465.094.0937.147.2209.147.3535.006 1.114-.207 2.2183-.628 3.2498-.421 1.0314-1.041 1.9697-1.825 2.7612-.784.7914-1.716 1.4204-2.743 1.8509-1.0279.4306-2.1302.6542-3.2442.6581h-.07zm-7.47-8c.1244 1.8969.9653 3.6756 2.3525 4.9754 1.3871 1.2998 3.2165 2.0236 5.1175 2.0246 1.8965-.0062 3.7202-.7326 5.1012-2.0321 1.381-1.2996 2.217-3.0753 2.339-4.9679H90.1528z"/><path d="M97.6627 19.5208c-.0652.0014-.13-.0103-.1906-.0343-.0606-.0241-.1158-.06-.1624-.1056-.0465-.0456-.0835-.1001-.1088-.1602-.0252-.0601-.0382-.1247-.0382-.1899v-7.91c-.0013-.0665.0106-.1326.0351-.1944.0246-.0618.0612-.1181.1078-.1656.0465-.0475.1021-.0852.1634-.111.0613-.0257.1272-.039.1937-.039.1288.0113.2496.0676.341.159.0914.0915.1477.2122.159.341v7.91c0 .1326-.0527.2598-.1464.3536-.0938.0938-.221.1464-.3536.1464z"/><path d="M103.243 17.1808c-.066-.0004-.13-.0138-.191-.0396-.06-.0257-.114-.0633-.159-.1104l-5.6204-5.56c-.0527-.0444-.0955-.0993-.126-.1611-.0304-.0618-.0477-.1292-.0509-.1981-.0031-.0688.008-.1375.0327-.2019.0247-.0643.0624-.1228.1108-.1719.0483-.049.1063-.0876.1703-.1132.064-.0256.1325-.0376.2014-.0355.0688.0022.1365.0185.1988.0481.0622.0295.1177.0716.1629.1236l5.6204 5.56c.072.0694.121.1587.142.2565.02.0977.011.1995-.026.292-.038.0926-.103.1717-.186.2273-.083.0555-.181.0848-.28.0842z"/><path d="M92.0425 17.2509c-.0656.0008-.1306-.0121-.1909-.0379-.0603-.0259-.1145-.064-.1591-.1121-.0466-.0456-.0836-.1-.1088-.1601-.0253-.0601-.0383-.1247-.0383-.1899 0-.0652.013-.1297.0383-.1898.0252-.0601.0622-.1145.1088-.1602l5.58-5.64c.0465-.0468.1018-.084.1627-.1094.0609-.0254.1263-.0385.1923-.0385s.1313.0131.1923.0385c.0609.0254.1162.0626.1627.1094.0478.0449.0859.0991.112.1593.0261.0602.0395.1251.0395.1907 0 .0656-.0134.1305-.0395.1907-.0261.0602-.0642.1144-.112.1593l-5.58 5.64c-.0458.0493-.1016.0883-.1637.1141-.0621.0259-.1291.0382-.1963.0359z"/><path d="M89.6427 11.8008c-.1326 0-.2598-.0527-.3535-.1465-.0938-.0938-.1465-.2209-.1465-.3535-.0066-1.1145.2066-2.21932.6273-3.25133.4207-1.03201 1.0407-1.97097 1.8246-2.76319.7839-.79222 1.7162-1.42216 2.7437-1.85379 1.0275-.43164 2.13-.6565 3.2444-.66174 2.2423.00258 4.3923.89104 5.9833 2.47186 1.59 1.58083 2.491 3.72595 2.507 5.96819.001.0671-.011.1339-.037.1959s-.064.1179-.113.1641c-.093.0933-.219.147-.35.15l-16.0003.08h.07zm8-8.00005c-1.8947.00876-3.7155.73627-5.0947 2.03557-1.3791 1.2993-2.2137 3.07357-2.3353 4.96448l14.9403-.07c-.14-1.89846-.995-3.67311-2.393-4.96516-1.397-1.29204-3.2338-2.00507-5.1373-1.99489l.02.03z"/><path d="M97.6226 11.6808c-.1326 0-.2598-.0527-.3536-.1465-.0938-.0938-.1464-.2209-.1464-.3535V3.27075c.0092-.12954.0649-.25139.1567-.34322.0919-.09183.2137-.14749.3433-.15678.1326 0 .2597.05268.3535.14645.0938.09377.1465.22094.1465.35355v7.91005c-.0026.1318-.0561.2575-.1493.3507-.0932.0932-.2189.1467-.3507.1493z"/><path d="M97.6228 11.6808c-.1301-.0013-.255-.0512-.35-.14l-5.62-5.57002c-.0469-.04648-.0841-.10178-.1095-.16271-.0253-.06093-.0384-.12628-.0384-.19229 0-.06601.0131-.13136.0384-.19229.0254-.06093.0626-.11623.1095-.16271.0951-.09225.2225-.14384.355-.14384.1325 0 .2598.05159.355.14384l5.62 5.57002c.0465.0456.0835.1001.1088.1602.0252.0601.0383.1246.0383.1898s-.0131.1297-.0383.1898c-.0253.0601-.0623.1146-.1088.1602-.0954.0957-.2249.1496-.36.15z"/><path d="M97.6224 11.6809c-.1301-.0012-.2549-.0512-.35-.14-.0468-.0465-.0841-.1018-.1094-.1627-.0254-.0609-.0385-.1263-.0385-.1923s.0131-.1313.0385-.1923c.0253-.0609.0626-.1162.1094-.1627l5.5696-5.62998c.046-.04727.101-.08503.162-.11112.06-.02609.125-.03999.191-.04092.066-.00093.132.01114.193.03551s.117.06057.164.10653c.048.04597.085.10079.112.16135.026.06055.04.12565.04.19158.001.06593-.011.1314-.035.19267-.024.06126-.061.11713-.107.1644l-5.5796 5.62998c-.0954.0957-.2249.1497-.36.15zm-71.9699 21.95c-1.1592.0253-2.3188-.0315-3.47-.17-5.25-.76-9.64-4.48-9.83-4.64-.1008-.0875-.1627-.2115-.1721-.3446-.0093-.1332.0346-.2646.1221-.3654s.2115-.1627.3446-.172c.1332-.0094.2646.0345.3654.122 0 0 4.36 3.7 9.31 4.41 1.1049.1312 2.2176.1847 3.33.16 6.65 0 12.41-4.7 18.51-9.67 6.56-5.33 13.28-10.81 21.66-10.81 1.345-.0022 2.6862.142 4 .43 1.1677.3235 2.3026.7554 3.39 1.29 1.7142.9232 3.0175 2.4586 3.65 4.3.4753 1.4985.3382 3.1243-.3813 4.5221-.7195 1.3977-1.9629 2.454-3.4587 2.9379-1.2293.3903-2.5632.278-3.71-.3122-1.1468-.5903-2.0132-1.6106-2.41-2.8378-.3146-1.0065-.2189-2.0966.2661-3.0329.4851-.9364 1.3203-1.6434 2.3239-1.9671.8341-.2635 1.7387-.1851 2.515.2181.7763.4031 1.3608 1.098 1.625 1.9319.0202.0617.0279.1268.0226.1915-.0052.0647-.0232.1277-.053.1854-.0297.0577-.0707.1089-.1204.1506-.0497.0418-.1072.0732-.1692.0925-.126.041-.2631.0303-.3812-.0296-.1181-.06-.2076-.1645-.2488-.2904-.091-.2872-.2376-.5535-.4317-.7839-.1941-.2304-.4316-.4202-.6992-.5586-.2675-.1384-.5597-.2227-.8599-.248-.3001-.0253-.6023.0088-.8892.1005-.7546.2432-1.3822.7752-1.7457 1.4798-.3635.7045-.4334 1.5243-.1943 2.2802.3142.9751 1.0022 1.7859 1.9132 2.2545.9111.4687 1.9708.557 2.9468.2455.621-.1946 1.1966-.5116 1.693-.9324.4964-.4208.9034-.9369 1.197-1.5176.3008-.5775.484-1.209.539-1.8579.0549-.6489-.0195-1.3022-.219-1.9221-.5723-1.5998-1.7155-2.9318-3.21-3.74-1.0084-.4805-2.0554-.8752-3.13-1.18-1.2417-.2707-2.5092-.4048-3.78-.4-8 0-14.64 5.39-21 10.6-6.36 5.21-12.15 9.88-19.16 9.88zm10.1301-21.6901c.4584 0 .83-.3716.83-.83s-.3716-.83-.83-.83-.83.3716-.83.83.3716.83.83.83z"/><path d="M28.8027 27.3609c.4584 0 .83-.3716.83-.83s-.3716-.83-.83-.83-.83.3716-.83.83.3716.83.83.83zm-11.2203 4.4499c-.1289.0024-.2539-.044-.35-.13-2.4662-2.414-3.9001-5.6904-4-9.14.0026-.1309.0565-.2555.15-.3471.0934-.0916.2191-.1429.35-.1429.0665 0 .1324.0132.1937.039.0613.0257.1169.0635.1635.1109.0465.0475.0831.1038.1077.1657.0245.0618.0365.1279.0351.1944.11 3.156 1.4104 6.1535 3.64 8.39.0714.0687.1207.1571.1417.254.021.0968.0128.1977-.0236.2899-.0365.0921-.0995.1714-.181.2276-.0816.0563-.178.0871-.2771.0885h.05z"/><path d="M18.6425 31.3009c-.566-.9256-.7974-2.0174-.6554-3.093.142-1.0756.6486-2.07 1.4354-2.817-.377.0824-.7339.2388-1.05.46-.7549.5692-1.2563 1.4118-1.3965 2.3467-.1403.935.0919 1.8876.6465 2.6533.3988.4831.9364.8321 1.54 1-.1896-.1673-.3636-.3514-.52-.55zm-5.7497 1.17c-.5424.3555-1.0048.8201-1.3578 1.3641-.3529.5441-.5887 1.1557-.6922 1.7959.444-.4413.9259-.8428 1.44-1.2 1.0278-.684 2.1803-1.1588 3.3917-1.3973 1.2114-.2385 2.4579-.236 3.6683.0073-.7443.1163-1.4503.4076-2.06.85-.5988.3906-1.0275.9934-1.2 1.6872-.1725.6938-.0761 1.4272.27 2.0528.149-.7638.453-1.4888.8933-2.1304.4404-.6415 1.0076-1.186 1.6667-1.5996.5516-.3687 1.1645-.6362 1.81-.79-3.13-1.75-5.82-2.04-7.83-.64zm21.4496-12.24c-.1174-.3806-.3197-.7296-.5917-1.0206-.272-.2911-.6065-.5165-.9783-.6594-.2555-.1095-.5309-.1645-.8088-.1616-.2779.0029-.5521.0636-.8052.1784s-.4795.2811-.6648.4883c-.1853.2071-.3253.4506-.4112.7149-.1345.3816-.1923.786-.17 1.19l.73-.13h.08c-.0052-.0665-.0052-.1334 0-.2.34-.93 1.5-1.24 2.84-.75.274.0825.5362.2001.78.35zm-.8399-4.6902c1.0111-.3974 2.1281-.4355 3.1639-.1079 1.0358.3277 1.9276 1.0013 2.5261 1.9079-.0185-.387-.1101-.767-.27-1.12-.4344-.8415-1.1813-1.4793-2.0805-1.7765-.8992-.2973-1.8791-.2303-2.7295.1865-.65.3-.83.72-1.26 1.33.2029-.1602.4206-.3008.65-.42zm-.1498-5.9099c-.2527-.5877-.6223-1.11778-1.0865-1.55791-.4642-.44013-1.0132-.78109-1.6135-1.00209.3539.51704.665 1.0622.93 1.63.4989 1.13635.7682 2.3602.7922 3.601.024 1.2409-.1977 2.4742-.6522 3.629.0127-.751-.1518-1.4944-.48-2.17-.2799-.658-.7985-1.1856-1.4515-1.4768-.653-.2913-1.392-.3246-2.0685-.0932.7259.2784 1.3866.7036 1.9406 1.2491.5541.5455.9896 1.1994 1.2794 1.9209.2617.6181.4075 1.2791.43 1.95 2.25-2.82 3.01-5.41 1.98-7.68zm18.1698-1.92995c-.0084-.48527-.1145-.96385-.3121-1.40715-.1976-.44329-.4826-.84219-.8379-1.17285.0963.46466.1565.93606.18 1.41.0327 1.89142-.6867 3.71845-2 5.07995.2286-.5222.3314-1.0908.3-1.65995-.0012-.54343-.2081-1.06624-.5792-1.46327-.371-.39703-.8787-.63882-1.4208-.67673.6328.6677 1.0398 1.5173 1.1636 2.42885.1238.9115-.0418 1.8389-.4736 2.6512 2.39-1.2601 4.04-3.33005 3.98-5.19005zM12.0828 28.9009c.5578 0 1.01-.4522 1.01-1.01 0-.5578-.4522-1.01-1.01-1.01-.5579 0-1.01.4522-1.01 1.01 0 .5578.4521 1.01 1.01 1.01zm40.6499-16.4401c.3866 0 .7-.3134.7-.7 0-.3866-.3134-.7-.7-.7-.3866 0-.7.3134-.7.7 0 .3866.3134.7.7.7zm-38.9302 10.47c.5247 0 .95-.4254.95-.95 0-.5247-.4253-.95-.95-.95-.5246 0-.95.4253-.95.95 0 .5246.4254.95.95.95zm25.7901-9.21c.5246 0 .95-.4253.95-.95 0-.5247-.4254-.95-.95-.95-.5247 0-.95.4253-.95.95 0 .5247.4253.95.95.95zm-12.8799 6.0601c.5247 0 .95-.4254.95-.95 0-.5247-.4253-.95-.95-.95-.5247 0-.95.4253-.95.95 0 .5246.4253.95.95.95z"/><path d="M30.5726 24.6308c-.1005.0007-.1987-.0308-.28-.09-1.7365-1.2462-3.0545-2.9895-3.78-5-.0217-.0623-.0306-.1284-.0261-.1942.0044-.0659.0221-.1301.052-.189.0299-.0588.0713-.111.1219-.1534.0505-.0424.1091-.0742.1722-.0934.126-.041.2631-.0304.3813.0296.1181.06.2076.1645.2487.2904.6775 1.7655 1.8557 3.2947 3.39 4.4.0546.0362.1013.0829.1375.1375.0361.0545.061.1157.0731.1801.0122.0643.0113.1304-.0026.1943-.0138.064-.0403.1245-.078.1781-.0308.0859-.086.161-.1588.216-.0728.0551-.1601.0877-.2512.094zm43.2201-10.95c.4021-.1698.7654-.4196 1.068-.7342.3026-.3146.538-.6874.692-1.0958-.3541.2425-.7289.4533-1.12.63-1.5614.666-3.3228.6876-4.9.06.5391.5597 1.2208.9616 1.9715 1.1625.7506.2009 1.5419.1931 2.2885-.0225zM44.2626 34.6307c-.1714.3402-.2706.7121-.2913 1.0925-.0206.3803.0377.7608.1713 1.1175.0992-.3431.2263-.6776.38-1 .3149-.6711.7599-1.273 1.3092-1.7709.5493-.4978 1.192-.8816 1.8908-1.1291-.6759-.0596-1.3553.0662-1.965.364-.6097.2978-1.1266.7563-1.495 1.326zm31.57-10.1899c.0959.3125.2545.6022.4659.8515.2115.2492.4714.4529.7641.5985-.1494-.283-.2765-.5772-.38-.88-.1869-.6007-.253-1.2325-.1947-1.8589.0584-.6265.2401-1.2351.5347-1.7911-.4605.356-.8148.8312-1.0245 1.3741-.2098.5429-.267 1.1328-.1655 1.7059z"/><path d="M40.3827 31.3609c-1.4211.0037-2.8291-.2725-4.1434-.813-1.3143-.5405-2.5093-1.3346-3.5166-2.337-1.8186-1.719-2.8949-4.0797-3-6.58.0143-1.2356.2728-2.4562.7608-3.5915.4879-1.1353 1.1956-2.1629 2.0823-3.0235.8867-.8607 1.9349-1.5375 3.0843-1.9914 1.1493-.454 2.377-.6761 3.6126-.6536.1326 0 .2597.0527.3535.1465s.1465.2209.1465.3535c0 .1326-.0527.2598-.1465.3536-.0938.0938-.2209.1464-.3535.1464-1.1039-.0212-2.201.176-3.2284.5801-1.0275.4042-1.9649 1.0074-2.7585 1.7749-.7935.7676-1.4276 1.6844-1.8658 2.6978-.4381 1.0133-.6717 2.1033-.6873 3.2072.0997 2.2398 1.0682 4.3525 2.7 5.89.9271.9255 2.0306 1.6555 3.245 2.1468 1.2144.4913 2.5151.7338 3.825.7132 4.69-.05 8.57-4.09 12.32-8 2.27-2.35 4.4-4.58 6.62-5.81.0577-.0316.1211-.0516.1866-.0587.0655-.0071.1317-.0012.1949.0174.0632.0186.1221.0495.1733.0909.0512.0414.0938.0925.1252.1504.0332.0561.0547.1183.0631.1829.0084.0646.0036.1303-.0142.193-.0178.0626-.0481.1211-.0892.1716-.0411.0506-.092.0923-.1497.1225-2.09 1.19-4.2 3.31-6.39 5.61-3.71 3.87-7.92 8.26-13 8.31h-.15zm15.5098-21.2302c.4584 0 .83-.3716.83-.83 0-.45839-.3716-.83-.83-.83s-.83.37161-.83.83c0 .4584.3716.83.83.83zm-2.75-1.56982c.4584 0 .83-.3716.83-.83s-.3716-.83-.83-.83-.83.3716-.83.83.3716.83.83.83z"/><path d="M23.4427 30.4409h-.87c-.0652-.0013-.1295-.0156-.1892-.0421-.0596-.0264-.1133-.0645-.158-.112-.0447-.0475-.0795-.1035-.1023-.1646s-.0332-.1262-.0305-.1913c.0121-.131.0716-.2531.1674-.3433.0957-.0903.2211-.1424.3526-.1467 10.57.34 15.92-6.11 20.63-11.81 3.58-4.33 7-8.42004 12.11-8.80004.1321-.0084.2623.0349.3631.12074.1007.08584.1642.2075.1769.33926.0055.06571-.0021.13184-.0223.1946-.0202.06277-.0526.12091-.0954.1711-.0427.05019-.095.09143-.1537.12134-.0588.02992-.1229.04792-.1886.05296-4.72.35004-7.83 4.10004-11.42 8.44004-4.73 5.72-10.08 12.17-20.57 12.17zm4.4798 5.86c-.1217.0007-.2393-.044-.3299-.1254-.0906-.0813-.1476-.1935-.1601-.3146-.014-.1312.0243-.2626.1068-.3656.0824-.103.2022-.1693.3332-.1844 5.07-.53 7.67-2.64 7.69-2.67.0639-.0507.139-.0853.2191-.101.08-.0156.1627-.0118.2409.011 10.57 3.08 15.51-2.92 20.29-8.73 3.16-3.84 6.14-7.46 10.56-8.36.1025-.0235.2098-.0128.3055.0306.0958.0433.1747.1169.2245.2094.053.0929.0748.2004.0622.3065-.0126.1062-.0589.2056-.1322.2835l-.24.25c-.6993.6355-1.2434 1.4232-1.5901 2.3022-.3468.8791-.487 1.826-.4099 2.7678.07 1.2322.5326 2.4097 1.32 3.36.0849.1021.1257.2338.1136.366-.0122.1322-.0765.2542-.1786.339-.1021.0849-.2337.1257-.3659.1135-.1322-.0122-.2542-.0764-.3391-.1785-.9353-1.1308-1.4791-2.5342-1.55-4-.1432-1.6824.3373-3.3588 1.35-4.71-3.23 1.31-5.72 4.34-8.33 7.51-4.75 5.78-10.09 12.27-21.12 9.22-2.3917 1.5727-5.1453 2.5089-8 2.72l-.07-.05z"/><path d="M45.3926 15.5609s.38-.9 3-2.78c1.31-1 2.85-1 3.88.45-.01 0-2.83-1.6-6.88 2.33zm-3.46 3.72c.9-1.36 1.72-2.16 1.52-4.82 0 0 2.27 2.91-1.52 4.82zM21.9124 43.6908c1.2267-.723 2.1722-1.8402 2.6825-3.1695.5103-1.3293.5553-2.7923.1275-4.1505 0 0-4.2 2.74-2.81 7.32zm-3.47-4.5899c1.0587.0363 2.0986-.2869 2.9502-.917.8516-.6301 1.4648-1.53 1.7398-2.553 0 0-3.74 0-4.69 3.47zM67.0127 7.63072c.3492 1.01991 1.0336 1.89147 1.9415 2.47258.908.5811 1.9861.8375 3.0585.7274 0 0-1.39-3.54998-5-3.19998zm5.5497-4.5399c-.7709 1.11249-1.1429 2.45294-1.0558 3.8036.0871 1.35066.6284 2.63219 1.5358 3.63638 0 0 2.54-4.03998-.48-7.43998zM62.4125 22.5708c-1.245.5261-2.2759 1.4572-2.9256 2.6424-.6498 1.1852-.8804 2.555-.6544 3.8876 0 0 4.31-2.04 3.58-6.53zM169.253 33.6307c-7 0-12.9-4.81-19.14-9.9-6.24-5.09-13-10.6-21-10.6-1.282-.0048-2.559.1327-3.81.41-1.065.3019-2.102.6933-3.1 1.17-1.489.8131-2.627 2.1438-3.2 3.74-.388 1.2533-.268 2.6088.334 3.7742.603 1.1654 1.639 2.0474 2.886 2.4558.977.311 2.038.2214 2.949-.2492.911-.4707 1.598-1.2838 1.911-2.2608.117-.3781.158-.7758.121-1.1699-.038-.3941-.153-.777-.338-1.1265-.186-.3496-.44-.6588-.746-.91s-.658-.4393-1.037-.5536c-.287-.0916-.59-.1258-.89-.1005-.3.0253-.592.1096-.86.248-.267.1384-.505.3282-.699.5586-.194.2304-.34.4968-.431.7839-.02.0632-.051.1217-.094.1723-.042.0505-.094.092-.153.1219-.059.0299-.123.0476-.189.052-.066.0044-.132-.0045-.194-.0262-.062-.0193-.12-.0507-.17-.0925-.049-.0417-.09-.0929-.12-.1506-.03-.0576-.048-.1207-.053-.1854-.005-.0647.002-.1298.023-.1915.266-.832.851-1.5246 1.627-1.9257.776-.4012 1.68-.4782 2.513-.2143 1.003.3237 1.838 1.0307 2.323 1.9671.486.9363.581 2.0264.267 3.0329-.393 1.2263-1.255 2.2477-2.397 2.8414-1.143.5938-2.474.7119-3.703.3286-.745-.2375-1.436-.6194-2.033-1.1238-.597-.5045-1.089-1.1217-1.447-1.8164-.359-.6946-.577-1.4531-.642-2.2321-.065-.7789.024-1.5631.262-2.3077.636-1.8394 1.938-3.3736 3.65-4.3 1.08-.5086 2.205-.917 3.36-1.22 1.329-.2955 2.688-.4431 4.05-.44 8.38 0 15.13 5.5 21.67 10.83 6.09 5 11.85 9.67 18.5 9.67 1.112.0247 2.225-.0288 3.33-.16 5-.71 9.27-4.37 9.32-4.41.048-.0434.106-.0767.167-.0977.062-.0211.128-.0295.193-.0249.065.0047.129.0223.187.052.059.0296.11.0707.153.1206.092.0952.143.2225.143.355 0 .1325-.051.2599-.143.355-.19.16-4.58 3.88-9.82 4.64-1.173.1209-2.353.1577-3.53.11zm-10.131-21.6899c.459 0 .83-.3716.83-.83s-.371-.83-.83-.83c-.458 0-.83.3716-.83.83s.372.83.83.83z"/><path d="M166.102 27.3609c.459 0 .83-.3716.83-.83s-.371-.83-.83-.83c-.458 0-.83.3716-.83.83s.372.83.83.83zm11.231 4.4499c-.069.0011-.137-.0115-.2-.0373-.064-.0258-.122-.0641-.17-.1127-.047-.0465-.084-.1018-.11-.1627-.025-.061-.038-.1263-.038-.1923s.013-.1314.038-.1923c.026-.0609.063-.1162.11-.1627 2.233-2.2342 3.534-5.2331 3.64-8.39-.001-.0665.01-.1326.035-.1944.025-.0619.061-.1182.108-.1657.046-.0474.102-.0852.163-.1109.061-.0258.127-.039.194-.039.128.009.248.0632.34.153.092.0898.148.2092.16.337-.095 3.4507-1.53 6.729-4 9.14-.075.0699-.169.1153-.27.13z"/><path d="M176.262 31.3009c.566-.9256.798-2.0174.656-3.093-.142-1.0756-.649-2.07-1.436-2.817.377.0824.734.2388 1.05.46.755.5692 1.257 1.4118 1.397 2.3467.14.935-.092 1.8876-.647 2.6533-.397.4804-.93.8291-1.53 1 .187-.167.358-.3511.51-.55zm5.751 1.1698c.542.3555 1.004.8201 1.357 1.3642.353.544.589 1.1556.693 1.7958-.444-.4412-.926-.8428-1.44-1.2-1.028-.684-2.181-1.1588-3.392-1.3973-1.212-.2385-2.458-.236-3.668.0073.744.1163 1.45.4077 2.06.85.605.3894 1.039.9959 1.212 1.6951.173.6991.072 1.4379-.282 2.0649-.149-.7637-.453-1.4888-.894-2.1304-.44-.6415-1.007-1.186-1.666-1.5996-.565-.3643-1.192-.6219-1.85-.76 3.17-1.8 5.86-2.09 7.87-.69zm-21.451-12.2399c.118-.3806.32-.7296.592-1.0207.272-.291.607-.5164.979-.6593.256-.1035.531-.154.808-.1483.277.0057.55.0674.802.1815.252.114.479.2779.666.4819.188.204.331.4438.424.7049.129.3828.187.7862.17 1.19l-.741-.13h-.069v-.21c-.34-.93-1.511-1.24-2.851-.75-.273.0878-.535.2087-.78.36zm.84-4.6901c-1.011-.3955-2.127-.4327-3.163-.1051-1.035.3275-1.927.9999-2.527 1.9051.022-.3877.117-.7678.28-1.12.429-.8443 1.173-1.4863 2.071-1.7874.898-.3012 1.878-.2375 2.729.1774.65.3.84.72 1.27 1.33-.208-.1517-.429-.2855-.66-.4zm.15-5.9099c.255-.58804.627-1.11818 1.093-1.55824.465-.44007 1.016-.78088 1.617-1.00176-.356.51708-.671 1.06219-.94 1.63-.996 2.2836-1.047 4.8693-.14 7.19-.012-.751.152-1.4944.48-2.17.283-.6633.806-1.1946 1.465-1.4861.66-.2916 1.405-.3216 2.085-.0839-.727.2778-1.389.7027-1.945 1.2481-.556.5455-.993 1.1997-1.285 1.9219-.261.6181-.407 1.2791-.43 1.95-2.27-2.78-3.02-5.37-2-7.64zm-18.159-1.92995c.004-.48502.107-.96406.303-1.40772.196-.44366.481-.84258.837-1.17228-.099.46403-.155.93589-.17 1.41-.017.93662.151 1.86736.494 2.73901.343.87164.855 1.66714 1.506 2.34094-.229-.5222-.332-1.0908-.3-1.65995.001-.54343.208-1.06624.579-1.46327s.879-.63882 1.421-.67673c-.637.665-1.048 1.51425-1.174 2.42655-.125.9123.04 1.8409.474 2.6535-2.39-1.2601-4.04-3.33005-3.97-5.19005zm39.43 21.20005c.557 0 1.01-.4522 1.01-1.01 0-.5578-.453-1.01-1.01-1.01-.558 0-1.011.4522-1.011 1.01 0 .5578.453 1.01 1.011 1.01zm-40.65-16.4401c.386 0 .7-.3134.7-.7 0-.3866-.314-.7-.7-.7-.387 0-.7.3134-.7.7 0 .3866.313.7.7.7zm38.94 10.47c.524 0 .95-.4254.95-.95 0-.5247-.426-.95-.95-.95-.525 0-.95.4253-.95.95 0 .5246.425.95.95.95zm-25.79-9.21c.524 0 .95-.4253.95-.95 0-.5247-.426-.95-.95-.95-.525 0-.95.4253-.95.95 0 .5247.425.95.95.95zm12.87 6.0601c.524 0 .95-.4254.95-.95 0-.5247-.426-.95-.95-.95-.525 0-.95.4253-.95.95 0 .5246.425.95.95.95z"/><path d="M164.333 24.6308c-.082.0011-.162-.0185-.234-.057-.072-.0385-.132-.0946-.176-.163-.038-.0536-.065-.1141-.078-.1781-.014-.064-.015-.13-.003-.1944.012-.0643.037-.1255.073-.1801.036-.0545.083-.1012.138-.1374 1.556-1.125 2.738-2.6933 3.39-4.5.02-.0657.053-.1267.097-.1796.044-.0528.098-.0965.159-.1286.06-.032.127-.0518.195-.0581.069-.0063.138.0009.204.0213.065.0203.126.0534.179.0973.053.044.097.0979.129.1587.032.0608.052.1274.058.1958.006.0685-.001.1375-.021.2032-.727 2.0124-2.049 3.7562-3.79 5-.091.0715-.205.1071-.32.1zm-43.22-10.95c-.403-.1698-.766-.4196-1.068-.7342-.303-.3146-.538-.6874-.692-1.0958.356.2384.731.449 1.12.63 1.561.665 3.322.6865 4.9.06-.54.5597-1.221.9616-1.972 1.1625-.751.2009-1.542.1931-2.288-.0225zm29.53 20.95c.171.3401.27.7121.291 1.0924.02.3804-.038.7609-.171 1.1176-.096-.3445-.223-.6793-.38-1-.321-.6591-.769-1.2483-1.318-1.734-.549-.4856-1.189-.8581-1.882-1.096.669-.0681 1.344.0466 1.953.3319.61.2853 1.13.7304 1.507 1.2881zm-31.57-10.19c-.095.3133-.253.6037-.464.8532-.212.2495-.473.4527-.766.5968.153-.2809.281-.5755.38-.88.189-.6.257-1.2315.2-1.858-.057-.6265-.237-1.2356-.53-1.792.458.3572.811.8329 1.019 1.3757.208.5428.263 1.1322.161 1.7043z"/><path d="M154.523 31.3608h-.11c-5.12-.05-9.33-4.44-13-8.31-2.21-2.3-4.3-4.47-6.38-5.63-.058-.0304-.109-.072-.15-.1223-.042-.0503-.072-.1083-.091-.1707-.019-.0624-.025-.1279-.018-.1926.007-.0647.027-.1274.059-.1844.031-.0579.073-.109.125-.1504.051-.0414.11-.0723.173-.0909.063-.0186.129-.0245.195-.0174.065.0071.129.0271.186.0587 2.22 1.23 4.361 3.46 6.621 5.81 3.75 3.91 7.63 8 12.33 8 1.307.0159 2.605-.2289 3.817-.7199 1.212-.491 2.315-1.2185 3.243-2.1401 1.631-1.5375 2.6-3.6502 2.7-5.89-.015-1.1034-.247-2.1932-.684-3.2065-.437-1.0133-1.07-1.9302-1.863-2.6979-.793-.7677-1.73-1.371-2.757-1.7753-1.026-.4042-2.123-.6015-3.226-.5803-.133 0-.26-.0526-.354-.1464-.094-.0938-.146-.221-.146-.3536 0-.1326.052-.2598.146-.3535.094-.0938.221-.1465.354-.1465 7.2 0 9.53 6.24 9.53 9.26-.1 2.5073-1.177 4.8761-3 6.6-1.013 1.0072-2.214 1.804-3.536 2.3447-1.321.5406-2.737.8143-4.164.8053zm-15.51-21.2301c.458 0 .83-.3716.83-.83 0-.45839-.372-.83-.83-.83-.459 0-.83.37161-.83.83 0 .4584.371.83.83.83zm2.75-1.56982c.458 0 .83-.3716.83-.83s-.372-.83-.83-.83c-.459 0-.83.3716-.83.83s.371.83.83.83z"/><path d="M171.472 30.4408c-10.5 0-15.84-6.45-20.57-12.16-3.6-4.34-6.71-8.09-11.43-8.43997-.065-.00504-.129-.02304-.188-.05296-.059-.02991-.111-.07115-.154-.12134-.043-.05018-.075-.10833-.095-.1711-.02-.06276-.028-.12889-.023-.1946.006-.06573.024-.12982.053-.18858.03-.05875.072-.11101.122-.15376.05-.04275.108-.07516.171-.09535.063-.02019.129-.02777.194-.02231 5.14.38 8.53 4.46997 12.12 8.79997 4.71 5.69 10.07 12.12 20.63 11.78.132-.0001.259.0509.354.1423.095.0913.151.216.156.3477.003.0652-.007.1303-.03.1914-.023.0611-.058.1171-.102.1646-.045.0475-.099.0856-.158.112-.06.0265-.124.0408-.19.042l-.86.02zm-4.489 5.86c-2.856-.2068-5.611-1.1433-8-2.72-11 3.1-16.38-3.39-21.1-9.13-2.62-3.17-5.11-6.2-8.34-7.51.986 1.3541 1.445 3.0218 1.29 4.69-.071 1.4658-.615 2.8692-1.55 4-.039.0587-.09.1084-.15.146-.059.0377-.126.0623-.196.0722-.07.01-.141.0052-.208-.0142-.068-.0194-.131-.0529-.185-.0983-.054-.0453-.097-.1016-.128-.165-.031-.0634-.048-.1326-.05-.203-.002-.0704.011-.1405.038-.2055.027-.0651.067-.1238.119-.1722.78-.9534 1.239-2.1297 1.31-3.36.079-.942-.06-1.8896-.407-2.7691-.347-.8794-.892-1.6668-1.593-2.3009l-.24-.25c-.074-.0779-.12-.1773-.132-.2835-.013-.1062.009-.2136.062-.3065.051-.0933.132-.1672.229-.2105.098-.0434.207-.0537.311-.0295 4.41.9 7.39 4.52 10.55 8.36 4.76 5.79 9.71 11.79 20.27 8.71.078-.0229.161-.0266.241-.011.08.0157.155.0503.219.101 2.272 1.5731 4.931 2.4962 7.69 2.67.065.0063.129.0255.188.0566.058.0311.11.0734.151.1246.042.0511.073.11.092.1733.019.0634.026.1298.019.1955-.017.1211-.077.2321-.169.3129-.091.0808-.209.1259-.331.1271z"/><path d="M149.513 15.5609s-.38-.9-3-2.78c-1.31-1-2.85-1-3.89.45.02 0 2.84-1.6 6.89 2.33zm3.469 3.72c-.9-1.36-1.72-2.16-1.52-4.82 0 0-2.27 2.91 1.52 4.82zm20.011 24.4099c-1.227-.7228-2.174-1.8395-2.686-3.1685s-.559-2.7921-.134-4.1515c0 0 4.21 2.74 2.82 7.32zm3.47-4.59c-1.062.0342-2.103-.2937-2.954-.9297-.85-.636-1.459-1.5424-1.726-2.5703 0 0 3.74.03 4.68 3.5zm-48.57-31.47008c-.35 1.01991-1.034 1.89147-1.942 2.47258-.908.5811-1.986.8375-3.058.7274 0 0 1.39-3.54998 5-3.19998zm-5.55-4.5399c.771 1.11249 1.143 2.45294 1.056 3.8036-.087 1.35066-.629 2.63219-1.536 3.63638 0 0-2.54-4.03998.48-7.43998zm10.15 19.47998c1.245.5261 2.276 1.4572 2.925 2.6424.65 1.1852.881 2.555.655 3.8876 0 0-4.35-2.04-3.58-6.53zM4.96279 45.1707c-.46323.002-.91662-.1336-1.30274-.3895-.38613-.2559-.68761-.6207-.86625-1.0481-.17864-.4274-.22641-.8982-.13726-1.3527.08916-.4546.31123-.8725.63808-1.2008.32686-.3282.74379-.5521 1.19797-.6432.45419-.0911.9252-.0453 1.35336.1315.42816.1768.79421.4767 1.05178.8617.25757.3851.39506.8379.39506 1.3011.00132.3068-.05797.6109-.17448.8947-.1165.2839-.28792.5419-.50441.7593-.21649.2175-.4738.39-.75714.5077-.28334.1177-.58714.1783-.89397.1783zm0-3.67c-.26586-.002-.52631.0752-.7482.2217-.22189.1464-.39518.3556-.49784.6009-.10266.2452-.13004.5155-.07865.7763.05138.2609.17921.5006.36721.6886.188.188.42768.3158.68854.3672.26087.0514.53112.024.77638-.0787.24525-.1026.45443-.2759.6009-.4978.14648-.2219.22364-.4823.22166-.7482 0-.1747-.0344-.3476-.10124-.509-.06683-.1613-.1648-.3079-.2883-.4314-.12351-.1236-.27012-.2215-.43149-.2884-.16136-.0668-.33431-.1012-.50897-.1012zm5.07991 6.3302c-.46044-.002-.90994-.1403-1.29179-.3975-.38184-.2573-.67893-.6219-.85375-1.0478-.17482-.4259-.21954-.8941-.12851-1.3454.09103-.4513.31373-.8655.63998-1.1904.32625-.3248.74143-.5458 1.19313-.6349.45174-.0891.91964-.0423 1.34484.1343.4252.1767.7885.4753 1.0441.8582.2555.383.392.8331.392 1.2935 0 .3068-.0606.6106-.1784.8939-.1177.2834-.2902.5407-.5076.7572-.2174.2165-.4755.3879-.7593.5044-.2839.1165-.5879.1758-.8947.1745zm0-3.66c-.26266.002-.51881.0816-.73621.229-.21739.1473-.38631.3557-.48544.5989-.09913.2432-.12405.5103-.07161.7676.05245.2574.1799.4934.36629.6784.1864.185.42339.3107.68111.3612.25776.0505.52466.0236.76706-.0773.2425-.101.4496-.2715.5953-.49.1457-.2185.2234-.4752.2235-.7378-.0027-.3537-.145-.6919-.396-.9411-.2511-.2491-.5904-.3889-.944-.3889zm-.15018-3.1901c-.35953-.002-.71042-.1104-1.0084-.3116-.29798-.2012-.52969-.4861-.66591-.8188-.13622-.3328-.17084-.6984-.09949-1.0508.07135-.3523.24547-.6757.5004-.9292.25492-.2536.57923-.4259.932-.4953.35277-.0695.71818-.0328 1.05018.1052.332.1381.6156.3713.8152.6704.1995.2991.306.6506.306 1.0101-.0026.4836-.1966.9465-.5395 1.2875-.3429.3411-.8069.5325-1.29048.5325zm0-2.64c-.16218 0-.32072.0481-.45557.1382-.13485.0901-.23995.2182-.30201.368-.06207.1498-.0783.3147-.04666.4738.03164.159.10973.3051.22441.4198.11468.1147.26079.1928.41986.2244.15906.0317.32395.0154.47375-.0466.1499-.0621.2779-.1672.368-.302.0901-.1349.1382-.2934.1382-.4556 0-.1077-.0212-.2143-.0624-.3138-.0412-.0995-.1016-.1899-.1778-.266-.0761-.0762-.1665-.1366-.266-.1778-.0995-.0412-.2061-.0624-.31378-.0624zm-7.34991 11.87c-.36278.0019-.71797-.104-1.02044-.3043-.30247-.2003-.538571-.486-.678317-.8208-.139747-.3348-.176829-.7036-.106537-1.0595.070292-.3559.244786-.6829.501314-.9394.25653-.2566.58352-.431.93944-.5013.35591-.0703.72469-.0332 1.05948.1065.3348.1397.6205.3758.82082.6783.20032.3025.30622.6577.30424 1.0205-.00263.4818-.19522.9432-.53597 1.284-.34075.3407-.80215.5333-1.28403.536zm0-2.65c-.20315.0224-.39089.1189-.52726.2712-.13637.1522-.21177.3494-.21177.5538 0 .2043.0754.4015.21177.5538.13637.1522.32411.2488.52726.2712.20315-.0224.39089-.119.52726-.2712.13637-.1523.21177-.3495.21177-.5538 0-.2044-.0754-.4016-.21177-.5538-.13637-.1523-.32411-.2488-.52726-.2712zm3.85014-10.7099c-.35996 0-.71184-.1067-1.01113-.3067-.2993-.2-.53257-.4842-.67033-.8168-.13775-.3325-.17379-.6985-.10356-1.0515.07022-.3531.24356-.6774.49809-.9319.25453-.2545.57882-.4279.93187-.4981.35305-.0702.71899-.0342 1.05155.1036.33256.1377.61681.371.81679.6703.19998.2993.30672.6512.30672 1.0111 0 .4827-.19174.9457-.53306 1.287-.34132.3413-.80424.533-1.28694.533zm0-2.64c-.16218 0-.32071.0481-.45556.1382-.13485.0901-.23995.2182-.30202.368-.06206.1499-.0783.3147-.04666.4738.03164.1591.10974.3052.22442.4199.11468.1146.26079.1927.41985.2244.15906.0316.32394.0154.47378-.0467.14983-.062.2779-.1671.368-.302.0901-.1348.13819-.2934.13819-.4556 0-.2174-.08639-.426-.24017-.5798s-.36235-.2402-.57983-.2402zM189.463 45.1707c-.463.002-.917-.1336-1.303-.3895-.386-.2559-.688-.6207-.866-1.0481-.179-.4274-.227-.8982-.137-1.3527.089-.4546.311-.8725.638-1.2008.326-.3282.743-.5521 1.198-.6432.454-.0911.925-.0453 1.353.1315.428.1768.794.4767 1.052.8617.257.3851.395.8379.395 1.3011.001.3068-.058.6109-.175.8947-.116.2839-.288.5419-.504.7593-.217.2175-.474.39-.757.5077-.284.1177-.587.1783-.894.1783zm0-3.67c-.266-.002-.527.0752-.748.2217-.222.1464-.396.3556-.498.6009-.103.2452-.13.5155-.079.7763.051.2609.179.5006.367.6886.188.188.428.3158.689.3672.261.0514.531.024.776-.0787.245-.1026.455-.2759.601-.4978.147-.2219.224-.4823.222-.7482 0-.3527-.14-.691-.39-.9404-.249-.2495-.587-.3896-.94-.3896zm-5.081 6.3302c-.46-.002-.909-.1403-1.291-.3975-.382-.2573-.679-.6219-.854-1.0478-.175-.4259-.22-.8941-.129-1.3454.092-.4513.314-.8655.64-1.1904.327-.3248.742-.5458 1.194-.6349.451-.0891.919-.0423 1.344.1343.426.1767.789.4753 1.044.8582.256.383.392.8331.392 1.2935 0 .3068-.06.6106-.178.8939-.118.2834-.29.5407-.507.7572-.218.2165-.476.3879-.76.5044-.284.1165-.588.1758-.895.1745zm0-3.66c-.262.002-.518.0816-.736.229-.217.1473-.386.3557-.485.5989-.099.2432-.124.5103-.072.7676.053.2574.18.4934.367.6784.186.185.423.3107.681.3612.257.0505.524.0236.767-.0773.242-.101.449-.2715.595-.49.146-.2185.223-.4752.223-.7378-.002-.3537-.144-.6919-.396-.9411-.251-.2491-.59-.3889-.944-.3889zm.15-3.1901c-.36 0-.711-.1067-1.011-.3067-.299-.2-.532-.4842-.67-.8168-.138-.3326-.174-.6985-.104-1.0515.071-.3531.244-.6774.498-.9319.255-.2545.579-.4279.932-.4981.353-.0702.719-.0342 1.052.1036.332.1377.617.371.817.6703.2.2993.306.6512.306 1.0111-.002.4819-.195.9433-.536 1.2841-.34.3407-.802.5333-1.284.5359zm0-2.64c-.162 0-.32.0481-.455.1382-.135.0901-.24.2182-.302.368-.062.1499-.078.3147-.047.4738.032.1591.11.3052.225.4198.114.1147.26.1928.419.2245.159.0316.324.0154.474-.0467.15-.0621.278-.1672.368-.302.09-.1349.138-.2934.138-.4556 0-.2175-.086-.426-.24-.5798s-.362-.2402-.58-.2402zm7.83 11.8099c-.362.002-.717-.1037-1.019-.3035-.302-.1999-.538-.485-.678-.8192-.14-.3342-.178-.7025-.109-1.0581.07-.3557.243-.6827.499-.9396.255-.257.581-.4322.937-.5037.355-.0714.723-.0357 1.058.1025.335.1382.622.3727.823.6739.202.3011.309.6553.309 1.0177 0 .4836-.191.9476-.532 1.2905s-.804.5369-1.288.5395zm0-2.65c-.165-.002-.326.0453-.464.1357-.138.0904-.246.22-.31.372-.064.1521-.082.3198-.05.4817.032.162.111.3108.228.4274.116.1167.265.196.427.2277.162.0317.33.0144.482-.0497.152-.064.281-.1719.372-.31.09-.138.137-.2998.135-.4648 0-.1077-.021-.2143-.062-.3138-.041-.0995-.102-.1899-.178-.266-.076-.0762-.166-.1366-.266-.1778-.099-.0412-.206-.0624-.314-.0624zm-4.33-10.6498c-.36 0-.711-.1067-1.011-.3067-.299-.2-.532-.4842-.67-.8168-.138-.3325-.174-.6985-.104-1.0515.071-.3531.244-.6774.498-.9319.255-.2545.579-.4279.932-.4981.353-.0702.719-.0342 1.052.1036.332.1377.617.371.817.6703.2.2993.306.6512.306 1.0111 0 .4827-.191.9457-.533 1.287-.341.3413-.804.533-1.287.533zm0-2.64c-.217 0-.426.0864-.579.2402-.154.1538-.241.3624-.241.5798 0 .2175.087.4261.241.5799.153.1537.362.2401.579.2401.218 0 .426-.0864.58-.2401.154-.1538.24-.3624.24-.5799 0-.2174-.086-.426-.24-.5798s-.362-.2402-.58-.2402zm-76.849-23.58h-3.63v1h3.61c.132 0 .26-.0527.353-.1465.094-.0938.147-.2209.147-.3535 0-.1293-.05-.2535-.14-.3467-.089-.0932-.211-.1482-.34-.1533zm-23.7905.6699v-.71h-3.54c-.1326 0-.2597.0527-.3535.1465-.0938.0937-.1465.2209-.1465.3535.0026.1318.0561.2575.1493.3507.0932.0933.2189.1468.3507.1493h3.56c0-.1-.02-.19-.02-.29z"/><path d="M88.0025 13.7409c-.7016.2238-1.4335.3385-2.17.34-1.1603.0133-2.3076-.2458-3.3496-.7564-1.0421-.5106-1.9498-1.2585-2.6504-2.1836.9216-1.21052 2.1925-2.10898 3.6411-2.57396 1.4486-.46498 3.005-.47406 4.4589-.02602.0782-.33951.1784-.67355.3-1-1.715-.53328-3.5556-.50354-5.2525.08487-1.6969.58842-3.1608 1.7046-4.1775 3.18511-.0586.0816-.0901.1796-.0901.28 0 .1005.0315.1984.0901.28.7792 1.1354 1.8246 2.0626 3.0448 2.7006 1.2203.6381 2.5783.9675 3.9552.9594.8417-.0033 1.678-.1348 2.48-.39-.09-.26-.19-.58-.28-.9zm21.9695-9.24012c.115.92412-.001 1.86233-.34 2.73.336.02101.67.06107 1 .12.369-1.08725.455-2.25036.25-3.38-.019-.09871-.068-.18936-.139-.26054-.071-.07118-.162-.1197-.261-.13946-.901-.1671-1.828-.14586-2.721.06237-.893.20824-1.734.59896-2.469 1.14763.2.26.4.53.58.81 1.174-.88211 2.644-1.27303 4.1-1.09zm-.339 10.55012c.338.8712.455 1.8126.34 2.74-.756.0889-1.521.025-2.251-.188-.73-.2131-1.41-.5708-1.999-1.052-.187.2792-.39.5464-.61.8 1.183.957 2.658 1.4794 4.18 1.48.412-.0018.824-.0386 1.23-.11.099-.0197.189-.0683.26-.1394.072-.0712.12-.1619.14-.2606.204-1.1296.118-2.2927-.25-3.38-.344.0623-.691.0991-1.04.11z"/><path d="M89.3627 16.5309c-.5935.4911-1.2809.8562-2.0203 1.0728-.7393.2166-1.515.2803-2.2797.1872-.1114-.9282.0088-1.8696.35-2.74-.3352-.0166-.6692-.0533-1-.11-.3767 1.0854-.4663 2.2498-.26 3.38.0198.0987.0683.1894.1395.2606.0711.0711.1618.1197.2605.1394.3864.0681.7777.1049 1.17.11 1.53.0028 3.0139-.5236 4.2-1.49-.2007-.26-.3876-.5304-.56-.81zm-4.83-12.96009c-.0987.01975-.1894.06827-.2606.13945-.0711.07119-.1197.16184-.1394.26055-.2063 1.13023-.1168 2.29462.26 3.38.3301-.06142.6644-.09819 1-.11-.3408-.87052-.461-1.81178-.35-2.74.7495-.09341 1.5101-.03532 2.2367.17081.7267.20614 1.4045.55612 1.9933 1.02919.1863-.2767.3865-.54371.6-.8-.7433-.59054-1.6046-1.01483-2.5257-1.24426-.9212-.22943-1.8809-.25867-2.8143-.08574z"/></svg>