<svg viewBox="0 0 204.52 144.41" fill="currentColor"><defs><style>.cls-1{fill:#53575a}.cls-2{fill:#009579}.cls-3{fill:#54575a}</style></defs><g id="Layer_2" data-name="Layer 2"><g id="Layer_1-2" data-name="Layer 1"><g id="Label"><path d="M49.89 119.21c0-3.41 2.13-5 4.33-5a3.68 3.68 0 013.7 2.8l-.91.27a2.71 2.71 0 00-2.79-2.2c-2 0-3.36 1.47-3.36 4.15s1.4 4.14 3.36 4.14a2.71 2.71 0 002.79-2.2l.91.27a3.67 3.67 0 01-3.7 2.8c-2.22-.02-4.33-1.63-4.33-5.03zM63.67 119.21c0-3.11 2-5 4.3-5s4.3 1.9 4.3 5-2 5-4.3 5-4.3-1.89-4.3-5zm7.63 0c0-2.74-1.5-4.14-3.33-4.14s-3.34 1.4-3.34 4.15 1.5 4.14 3.34 4.14 3.33-1.36 3.33-4.16zM78.05 119.2c0-3.4 2.12-5 4.32-5a3.67 3.67 0 013.7 2.8l-.91.26a2.69 2.69 0 00-2.79-2.19c-2 0-3.36 1.47-3.36 4.14s1.4 4.15 3.36 4.15a2.7 2.7 0 002.79-2.2l.91.26a3.68 3.68 0 01-3.7 2.81c-2.21-.01-4.32-1.62-4.32-5.03zM92.35 114.3h.93v4.18l3.82-4.18h1.18l-4 4.39 4.37 5.41H97.5l-4.22-5.2v5.2h-.93zM106.52 115.16h-2.93v-.87h6.78v.87h-2.92v8.94h-.93zM117.62 114.29h.82l3.54 9.8h-1l-1-2.79h-4l-1 2.79h-1zm2.13 6.15l-1.75-4.89-1.72 4.89zM127.59 114.29h.93v9.8h-.93zM135.36 114.29h.93v8.93h4.59v.87h-5.52zM146.25 121.55l.8-.47c.28 1.2.91 2.25 2.27 2.25a1.71 1.71 0 001.77-1.9c0-1.28-.94-1.75-2.13-2.31s-2.16-1.29-2.16-2.67a2.25 2.25 0 012.34-2.28 2.35 2.35 0 012.38 1.51l-.76.48a1.67 1.67 0 00-1.62-1.12 1.34 1.34 0 00-1.42 1.34c0 1.15 1 1.63 2.06 2.12 1.28.57 2.27 1.34 2.27 2.88a2.66 2.66 0 01-2.73 2.82 3.1 3.1 0 01-3.07-2.65z" class="cls-1"/><path d="M108.18 54.1a.51.51 0 00-.4-.4 5.8 5.8 0 00-3.25.34v1.1a4.78 4.78 0 012.71-.51 4.75 4.75 0 01-5.17 5.26c-.15.12-.29.24-.45.35a8.11 8.11 0 01-.65-.51 5.4 5.4 0 00.08.69.51.51 0 00.4.4 6.46 6.46 0 001.07.1 5.75 5.75 0 005.65-6.82z" class="cls-2"/><path d="M101.63 60.74a.49.49 0 01-.28-.09 7.24 7.24 0 010-11.95.5.5 0 01.57 0 7.24 7.24 0 010 11.95.52.52 0 01-.29.09zm0-11a6.25 6.25 0 000 9.89 6.23 6.23 0 000-9.89z" class="cls-2"/><path d="M101.58 60.74a.51.51 0 01-.5-.5v-6.45a.51.51 0 01.5-.5.5.5 0 01.5.5v6.45a.5.5 0 01-.5.5zM120.18 10.23a8.38 8.38 0 00-6.92-3.65 8.2 8.2 0 00-2.27.33c.11.3.22.62.31 1a7.14 7.14 0 012-.28 7.38 7.38 0 015.89 2.93 7.36 7.36 0 01-5.89 2.94 7.21 7.21 0 01-2-.28c-.09.32-.2.64-.32.95a8.33 8.33 0 009.21-3.32.5.5 0 00-.01-.62z" class="cls-2"/><path d="M101.67 21A10.48 10.48 0 0191.2 10.77 10.47 10.47 0 01101.39 0h.29a10.48 10.48 0 01.32 21zm0-20h-.26a9.49 9.49 0 00-6.27 16.37A9.48 9.48 0 10101.68 1z" class="cls-2"/><path d="M101.67 18.89a8.49 8.49 0 01-8.48-8.44.5.5 0 01.5-.5l16-.08a.5.5 0 01.5.5 8.48 8.48 0 01-8.44 8.52zm-7.46-8a7.48 7.48 0 007.46 7 7.5 7.5 0 007.44-7z" class="cls-2"/><path d="M101.71 18.89a.51.51 0 01-.5-.49v-7.91a.51.51 0 01.5-.51.54.54 0 01.5.5v7.91a.49.49 0 01-.49.5z" class="cls-2"/><path d="M107.3 16.55a.47.47 0 01-.35-.15l-5.63-5.56a.5.5 0 11.71-.71l5.62 5.56a.5.5 0 010 .71.49.49 0 01-.35.15z" class="cls-2"/><path d="M96.1 16.62a.51.51 0 01-.36-.15.5.5 0 010-.7l5.58-5.64a.5.5 0 01.71.7l-5.58 5.64a.5.5 0 01-.35.15z" class="cls-2"/><path d="M93.69 11.17a.51.51 0 01-.5-.5 8.5 8.5 0 018.45-8.53 8.49 8.49 0 018.48 8.44.5.5 0 01-.49.51l-16 .08zm8-8a7.48 7.48 0 00-7.43 7l14.94-.07a7.51 7.51 0 00-7.52-6.96z" class="cls-2"/><path d="M101.68 11.05a.5.5 0 01-.5-.5V2.64a.54.54 0 01.5-.5.5.5 0 01.5.5v7.91a.51.51 0 01-.5.5z" class="cls-2"/><path d="M101.68 11.05a.5.5 0 01-.35-.14L95.7 5.34a.5.5 0 01.71-.71L102 10.2a.48.48 0 010 .7.47.47 0 01-.32.15z" class="cls-2"/><path d="M101.68 11.05a.5.5 0 01-.36-.85l5.58-5.63a.5.5 0 01.71 0 .5.5 0 010 .71L102 10.9a.47.47 0 01-.32.15zM197.85 60.15l-1.26.27-.43-2 2-.43.29 1.54 1.08.28-.39-2a1 1 0 00-1.13-.76l-2 .39a1 1 0 00-.61.41 1 1 0 00-.15.72l.4 2a1 1 0 00.4.61.94.94 0 00.53.16h.19l.85-.17z" class="cls-2"/><path d="M199.55 63h-.22l-1.68-.44a.9.9 0 01-.64-1.09l.44-1.68a.89.89 0 011.08-.64l1.69.44a.89.89 0 01.54.41.86.86 0 01.09.68l-.44 1.68a.89.89 0 01-.86.64zM198 61.54l1.46.38.39-1.47-1.47-.38zm0 .11zM192 53.21a.5.5 0 01-.5-.5v-3a.5.5 0 01.5-.49.5.5 0 01.5.5v2.94a.5.5 0 01-.5.55zM193.16 53.32a.47.47 0 01-.3-.1.51.51 0 01-.11-.7l1.12-1.52a.5.5 0 01.7-.11.51.51 0 01.11.7l-1.12 1.52a.49.49 0 01-.4.21zM190.83 53.31a.49.49 0 01-.4-.2l-1.12-1.53a.5.5 0 01.81-.59l1.11 1.53a.49.49 0 01-.11.7.5.5 0 01-.29.09z" class="cls-2"/><ellipse cx="197.12" cy="54.87" class="cls-2" rx="4.62" ry="1.13" transform="rotate(-11.99 197.03847108 54.86937087)"/><path d="M194.34 56.84h-.26c-.45 0-1.79 0-2-.89-.32-1.52 3.84-2.49 4.68-2.66a14.54 14.54 0 013.38-.37c.44 0 1.79.05 2 .9.18.84-1 1.42-1.43 1.62a15.75 15.75 0 01-3.25 1 15.56 15.56 0 01-3.12.4zm-1.16-1.13a9.6 9.6 0 004.08-.22 9.29 9.29 0 003.81-1.49 9.6 9.6 0 00-4.08.22 9.44 9.44 0 00-3.81 1.49zm8-1.61z" class="cls-2"/><path d="M197.82 71h-.22c-.39 0-1.58 0-1.74-.82L192.12 56a.5.5 0 111-.25l3.73 14.17a7.4 7.4 0 003.46-.17 7.5 7.5 0 003.24-1.25l-2.4-14.5a.51.51 0 01.42-.57.49.49 0 01.57.41l2.36 14.54c.29 1.34-3.3 2.17-4 2.32a12.94 12.94 0 01-2.68.3zm-1-1.07zm6.69-1.41zM189 58.14a1 1 0 00-.64-.35l-2.05-.22a.93.93 0 00-.7.21 1 1 0 00-.36.64l-.21 2 1-.36.13-1.53 2 .17-.17 2-1.34-.14.37 1 .86.09h.1a1 1 0 001-.86l.22-2a1 1 0 00-.21-.65z" class="cls-2"/><path d="M185.15 63.56a.92.92 0 01-.39-.09.89.89 0 01-.45-.5l-.58-1.64a.88.88 0 01.54-1.13l1.64-.59a.88.88 0 011.13.54l.58 1.64a.89.89 0 010 .68.86.86 0 01-.51.46l-1.64.58a.93.93 0 01-.32.05zm-.44-2.46l.51 1.43 1.43-.51-.51-1.43z" class="cls-2"/><ellipse cx="186.96" cy="55.31" class="cls-2" rx="1.13" ry="4.62" transform="rotate(-82.9 186.9622163 55.3075117)"/><path d="M188.91 57.07a16.44 16.44 0 01-2.15-.15c-.85-.1-5.08-.71-4.89-2.25.11-.85 1.44-1 1.88-1.06a14.76 14.76 0 013.41.08c.85.1 5.07.71 4.88 2.25-.1.85-1.44 1-1.88 1.06a11.9 11.9 0 01-1.25.07zm-6-2.26a9.59 9.59 0 003.93 1.12 9.26 9.26 0 004.16-.13 9.64 9.64 0 00-4-1.12 9.43 9.43 0 00-4 .13z" class="cls-2"/><path d="M186.83 71.48a17.52 17.52 0 01-1.87-.12c-.73-.1-4.38-.62-4.2-2l1.11-14.66a.49.49 0 01.54-.46.5.5 0 01.46.53l-1.11 14.62a10.82 10.82 0 006.79.84l2.5-14.44a.5.5 0 111 .17l-2.52 14.52c-.11.81-1.47 1-2.7 1zm1.7-1.17zm-6.78-.86zM18.8 63h-.22l-1.68-.44a.9.9 0 01-.64-1.09l.44-1.68a.89.89 0 011.08-.64l1.69.44a.89.89 0 01.54.41.86.86 0 01.09.68l-.44 1.68a.89.89 0 01-.86.64zm-1.54-1.41l1.46.38.39-1.47-1.47-.38zm0 .11zM11.2 53.21a.5.5 0 01-.5-.5v-3a.5.5 0 01.5-.49.5.5 0 01.5.5v2.94a.5.5 0 01-.5.55zM12.41 53.32a.47.47 0 01-.3-.1.51.51 0 01-.11-.7L13.12 51a.5.5 0 01.7-.11.51.51 0 01.11.7l-1.12 1.52a.49.49 0 01-.4.21zM10.08 53.31a.49.49 0 01-.4-.2l-1.12-1.53a.5.5 0 01.81-.58l1.11 1.53a.49.49 0 01-.11.7.5.5 0 01-.29.08z" class="cls-2"/><ellipse cx="16.37" cy="54.87" class="cls-2" rx="4.62" ry="1.13" transform="rotate(-11.99 16.38142338 54.86341611)"/><path d="M13.59 56.84h-.26c-.45 0-1.79 0-2-.89-.33-1.53 3.87-2.5 4.67-2.67a14.54 14.54 0 013.38-.37c.44 0 1.79.05 2 .9.18.84-1 1.42-1.43 1.62a15.75 15.75 0 01-3.25 1 15.56 15.56 0 01-3.11.41zm-1.16-1.13a9.6 9.6 0 004.08-.22A9.29 9.29 0 0020.32 54a9.6 9.6 0 00-4.08.22 9.44 9.44 0 00-3.81 1.49zm8-1.61z" class="cls-2"/><path d="M17.07 71h-.22c-.39 0-1.58 0-1.74-.82L11.37 56a.5.5 0 111-.25l3.73 14.17a7.4 7.4 0 003.46-.17 7.5 7.5 0 003.24-1.25L20.4 54a.51.51 0 01.42-.57.49.49 0 01.57.41l2.36 14.54c.29 1.34-3.3 2.17-4 2.32a12.94 12.94 0 01-2.68.3zm-1-1.07zm6.69-1.41zM8.22 58.14a1 1 0 00-.64-.35l-2-.22a.94.94 0 00-.7.21 1 1 0 00-.36.64l-.21 2 1-.36.13-1.53 2 .17-.17 2-1.34-.14.37 1 .86.09h.1a1 1 0 001-.86l.22-2a1 1 0 00-.26-.65z" class="cls-2"/><path d="M4.4 63.56a.92.92 0 01-.4-.09.89.89 0 01-.45-.5L3 61.33a.88.88 0 01.54-1.13l1.64-.59a.88.88 0 011.13.54l.58 1.64a.89.89 0 010 .68.86.86 0 01-.51.46l-1.64.58a.93.93 0 01-.34.05zM4 61.1l.51 1.43L5.9 62l-.51-1.43z" class="cls-2"/><ellipse cx="6.21" cy="55.31" class="cls-2" rx="1.13" ry="4.62" transform="rotate(-82.9 6.20833473 55.305058)"/><path d="M8.16 57.07A16.44 16.44 0 016 56.92c-.85-.1-5.08-.71-4.89-2.25.11-.85 1.44-1 1.88-1.06a14.77 14.77 0 013.41.08c.85.1 5.07.71 4.88 2.25-.1.85-1.44 1-1.88 1.06a11.9 11.9 0 01-1.24.07zm-6-2.26a9.59 9.59 0 003.93 1.12 9.26 9.26 0 004.08-.13 9.64 9.64 0 00-3.93-1.12 9.43 9.43 0 00-4.04.13z" class="cls-2"/><path d="M6.08 71.48a17.52 17.52 0 01-1.87-.12c-.73-.1-4.38-.62-4.2-2L1.12 54.7a.5.5 0 011 .07L1 69.39a7.52 7.52 0 003.32 1 7.56 7.56 0 003.47-.13l2.5-14.44a.5.5 0 011 .17L8.77 70.48c-.1.81-1.46 1-2.69 1zm1.7-1.17zM1 69.45zM74.34 56.8A2.47 2.47 0 0073 58.21a5.64 5.64 0 01.85-.49 4.94 4.94 0 013.74-.06 2.46 2.46 0 00-1.13.25 1.47 1.47 0 00-.82 1.84 3 3 0 013-1.77c-1.43-1.19-3.14-1.7-4.3-1.18z" class="cls-2"/><circle cx="78.92" cy="55.87" r=".62" class="cls-2"/><circle cx="75.73" cy="54.38" r=".74" class="cls-2"/><circle cx="78.4" cy="59.98" r=".74" class="cls-2"/><path d="M79.67 58.24c-1.6 0-3.07-.78-4.23-3.23a.51.51 0 01.24-.67.5.5 0 01.67.24c1.79 3.79 4.27 2.78 7.4 1.5 2.93-1.19 6.24-2.54 9.27.33a.5.5 0 11-.69.72c-2.56-2.42-5.43-1.25-8.2-.12a12.68 12.68 0 01-4.46 1.23z" class="cls-2"/><path d="M86.82 55.11s-.55.77-3.35 1.23a2.47 2.47 0 01-3-2.09s1.59 2.38 6.35.86zM136.11 141.71c-4.72 0-7.47-2-9.89-3.79-2.11-1.54-4.11-3-7.16-3-1.59 0-2.86 1.15-2.86 2.11a.5.5 0 01-.5.5.5.5 0 01-.5-.5c0-1.63 1.84-3.11 3.86-3.11 3.38 0 5.5 1.55 7.75 3.2 2.44 1.79 4.95 3.67 9.48 3.59a9.42 9.42 0 002.05-.25 9.26 9.26 0 001.64-.64 3.51 3.51 0 001.64-1.95 2.51 2.51 0 00-1.66-3.13 1.9 1.9 0 00-1.46.14 1.85 1.85 0 00-.93 1.12 1.43 1.43 0 001 1.78 1 1 0 001.3-.69.5.5 0 01.62-.33.49.49 0 01.33.62 2 2 0 01-2.55 1.36 2.43 2.43 0 01-1.6-3A2.88 2.88 0 01138 134a2.91 2.91 0 012.22-.21 3.51 3.51 0 012.07 1.71 3.45 3.45 0 01.25 2.67 4.49 4.49 0 01-2.08 2.52 10.12 10.12 0 01-1.9.75 10.47 10.47 0 01-2.29.28z" class="cls-2"/><circle cx="140.25" cy="142.18" r=".74" class="cls-2"/><circle cx="129.93" cy="137.73" r=".74" class="cls-2"/><path d="M134.77 141.64s.35-.77 3 .17c.26.1 2 1.16 1.26 2.6.02 0-.76-2.24-4.26-2.77zM123.32 134.87s0 .73 2.63 1.83c1.31.55 3.15.27 3.75-1.21 0 0-2.11 1.95-6.38-.62zM67.94 141.71h-.19a10.75 10.75 0 01-2.27-.27 10.58 10.58 0 01-1.92-.76 4.49 4.49 0 01-2.08-2.52 3.5 3.5 0 012.32-4.38 2.89 2.89 0 013.63 1.93 2.44 2.44 0 01-1.6 3 2 2 0 01-2.55-1.36.48.48 0 01.33-.62.5.5 0 01.62.33 1 1 0 001.3.69 1.43 1.43 0 001-1.78 1.92 1.92 0 00-2.39-1.26 2.5 2.5 0 00-1.66 3.13 3.51 3.51 0 001.64 1.95 7.58 7.58 0 003.69.89c4.52 0 7-1.8 9.48-3.59 2.25-1.65 4.37-3.2 7.75-3.2 2 0 3.86 1.48 3.86 3.11a.5.5 0 01-.5.5.5.5 0 01-.5-.5c0-1-1.27-2.11-2.86-2.11-3 0-5 1.46-7.16 3-2.48 1.81-5.22 3.82-9.94 3.82z" class="cls-2"/><circle cx="63.79" cy="142.18" r=".74" class="cls-2"/><circle cx="74.12" cy="137.73" r=".74" class="cls-2"/><path d="M69.28 141.64s-.35-.77-3 .17c-.27.1-2 1.16-1.27 2.6-.01 0 .77-2.24 4.27-2.77zM80.73 134.87s0 .73-2.63 1.83c-1.31.55-3.15.27-3.75-1.21 0 0 2.11 1.95 6.38-.62zM128.92 56.8a2.44 2.44 0 011.34 1.41 5.64 5.64 0 00-.85-.49 4.94 4.94 0 00-3.74-.06 2.46 2.46 0 011.13.25 1.48 1.48 0 01.83 1.84 3 3 0 00-3-1.77c1.43-1.19 3.14-1.7 4.29-1.18z" class="cls-2"/><circle cx="124.34" cy="55.87" r=".62" class="cls-2"/><circle cx="127.53" cy="54.38" r=".74" class="cls-2"/><circle cx="124.86" cy="59.98" r=".74" class="cls-2"/><path d="M123.59 58.24a12.73 12.73 0 01-4.46-1.24c-2.77-1.13-5.64-2.3-8.2.12a.5.5 0 11-.69-.72c3-2.87 6.34-1.52 9.27-.33 3.14 1.28 5.61 2.29 7.4-1.5a.5.5 0 01.91.43c-1.16 2.46-2.63 3.24-4.23 3.24z" class="cls-2"/><path d="M116.45 55.11s.55.77 3.34 1.23a2.49 2.49 0 003-2.09s-1.59 2.38-6.34.86zM30.46 33a24.69 24.69 0 01-3.46-.15c-5.24-.76-9.63-4.48-9.82-4.64a.51.51 0 01-.05-.71.49.49 0 01.7-.05c.05 0 4.36 3.7 9.32 4.41a23.77 23.77 0 003.33.16c6.65 0 12.41-4.7 18.5-9.67C55.5 17 62.25 11.52 70.63 11.52a18.61 18.61 0 014 .43A19.77 19.77 0 0178 13.24a7.78 7.78 0 013.65 4.3A5.95 5.95 0 0177.83 25a4.88 4.88 0 01-6.12-3.15 4 4 0 012.59-5A3.3 3.3 0 0178.44 19a.5.5 0 01-1 .3 2.3 2.3 0 00-2.84-1.5 3 3 0 00-1.94 3.76 3.87 3.87 0 004.86 2.51 5 5 0 003.22-6.23 6.93 6.93 0 00-3.2-3.74 19.89 19.89 0 00-3.13-1.18 17.44 17.44 0 00-3.78-.4c-8 0-14.64 5.39-21 10.6S37.46 33 30.46 33z" class="cls-2"/><circle cx="40.59" cy="10.48" r=".83" class="cls-2"/><circle cx="33.61" cy="25.9" r=".83" class="cls-2"/><path d="M22.38 31.18a.5.5 0 01-.34-.13 13.28 13.28 0 01-3.95-9.14.49.49 0 01.5-.49.5.5 0 01.5.51 12.45 12.45 0 003.64 8.39.5.5 0 010 .71.51.51 0 01-.35.15z" class="cls-2"/><path d="M23.45 30.67a4.74 4.74 0 01.78-5.91 2.92 2.92 0 00-1.05.46 3.61 3.61 0 00-.75 5 3.08 3.08 0 001.53 1 4 4 0 01-.51-.55zM17.7 31.84a4.67 4.67 0 00-2 3.11 10.73 10.73 0 011.44-1.2 9.39 9.39 0 017.06-1.39 4.76 4.76 0 00-2.06.85 2.82 2.82 0 00-.98 3.79 5.69 5.69 0 012.56-3.73 5.53 5.53 0 011.84-.76c-3.16-1.78-5.85-2.07-7.86-.67zM39.15 19.6a2.63 2.63 0 00-1.57-1.68 2.05 2.05 0 00-2.7 1.22 3.27 3.27 0 00-.17 1.19l.74-.13h.07v-.21c.34-.93 1.51-1.24 2.85-.75a3.53 3.53 0 01.78.36zM38.31 14.91a4.75 4.75 0 015.69 1.8 3.06 3.06 0 00-.28-1.12 3.61 3.61 0 00-4.8-1.59c-.65.3-.84.72-1.27 1.33a4.56 4.56 0 01.66-.42zM38.16 9a4.73 4.73 0 00-2.71-2.56 11.64 11.64 0 01.94 1.63 9.41 9.41 0 01.14 7.19 4.78 4.78 0 00-.48-2.17 2.84 2.84 0 00-3.55-1.57 5.66 5.66 0 013.23 3.17 5.47 5.47 0 01.43 1.95c2.27-2.78 3.02-5.37 2-7.64zM56.32 7.07a3.56 3.56 0 00-1.14-2.58 8 8 0 01.17 1.41 7.13 7.13 0 01-2 5.08 3.78 3.78 0 00.3-1.66 2.15 2.15 0 00-2-2.14 4.37 4.37 0 01.7 5.08c2.39-1.26 4.04-3.33 3.97-5.19z" class="cls-2"/><circle cx="16.89" cy="27.26" r="1.01" class="cls-2"/><circle cx="57.54" cy="11.13" r=".7" class="cls-2"/><circle cx="18.6" cy="21.35" r=".95" class="cls-2"/><circle cx="44.39" cy="12.14" r=".95" class="cls-2"/><circle cx="31.52" cy="18.2" r=".95" class="cls-2"/><path d="M35.38 24a.47.47 0 01-.28-.09 10.55 10.55 0 01-3.79-5 .5.5 0 01.33-.63.49.49 0 01.62.32 9.77 9.77 0 003.4 4.5.49.49 0 01.13.69.48.48 0 01-.41.21zM78.6 13.05a3.22 3.22 0 001.76-1.83 8.39 8.39 0 01-1.12.63 6.44 6.44 0 01-4.9.06 4.27 4.27 0 004.26 1.14zM49.07 34a2.76 2.76 0 00-.07 2.19 5.72 5.72 0 01.38-1 5.57 5.57 0 013.2-2.83A3.72 3.72 0 0049.07 34zM80.64 23.81a2.38 2.38 0 001.23 1.45 5.19 5.19 0 01-.38-.88 4.76 4.76 0 01.33-3.65 3.19 3.19 0 00-1.18 3.08z" class="cls-2"/><path d="M45.19 30.73a10.82 10.82 0 01-7.66-3.15 9.61 9.61 0 01-3-6.6c0-3 2.33-9.26 9.53-9.26a.5.5 0 010 1A8.37 8.37 0 0035.53 21a8.62 8.62 0 002.7 5.89 9.77 9.77 0 007.06 2.86c4.7-.05 8.58-4.09 12.33-8 2.26-2.35 4.4-4.58 6.62-5.81a.5.5 0 01.68.2.49.49 0 01-.2.67c-2.08 1.16-4.17 3.33-6.38 5.63-3.71 3.87-7.92 8.26-13 8.31z" class="cls-2"/><circle cx="60.7" cy="8.67" r=".83" class="cls-2"/><circle cx="57.95" cy="7.1" r=".83" class="cls-2"/><path d="M28.24 29.81h-.86a.49.49 0 01-.48-.51.54.54 0 01.51-.49C38 29.15 43.33 22.7 48 17c3.59-4.33 7-8.42 12.12-8.8a.52.52 0 01.54.46.5.5 0 01-.46.54c-4.72.35-7.83 4.1-11.43 8.44-4.69 5.72-10.03 12.17-20.53 12.17zM32.73 35.67a.51.51 0 01-.5-.44.5.5 0 01.45-.55A15.19 15.19 0 0040.37 32a.51.51 0 01.46-.09C51.39 35 56.34 29 61.12 23.19c3.16-3.84 6.14-7.46 10.55-8.36a.49.49 0 01.54.24.5.5 0 01-.07.59l-.24.25a6.11 6.11 0 00-2 5.07 5.83 5.83 0 001.31 3.36.5.5 0 01-.76.64 6.79 6.79 0 01-1.55-4 6.88 6.88 0 011.35-4.71c-3.23 1.31-5.72 4.34-8.34 7.51-4.74 5.78-10.09 12.27-21.12 9.22a16.72 16.72 0 01-8 2.72z" class="cls-2"/><path d="M50.2 14.93s.38-.9 3-2.78c1.31-1 2.85-1 3.89.45-.02 0-2.84-1.6-6.89 2.33zM46.73 18.65c.9-1.36 1.72-2.16 1.52-4.82 0 0 2.27 2.91-1.52 4.82zM26.72 43.06a6.3 6.3 0 002.81-7.32s-4.2 2.74-2.81 7.32zM23.25 38.47A4.68 4.68 0 0027.93 35s-3.74 0-4.68 3.47zM71.82 7a4.77 4.77 0 005 3.2s-1.39-3.55-5-3.2zM77.37 2.46a6 6 0 00.48 7.44s2.54-4.04-.48-7.44zM67.22 21.94a6 6 0 00-3.58 6.53s4.36-2.04 3.58-6.53zM174.06 33c-7 0-12.9-4.81-19.14-9.9s-13-10.6-21-10.6a17.3 17.3 0 00-3.81.41A19.24 19.24 0 00127 14.1a6.89 6.89 0 00-3.2 3.74 4.92 4.92 0 00.32 3.78 4.87 4.87 0 002.88 2.45 3.83 3.83 0 003-.25 3.79 3.79 0 001.91-2.26 3 3 0 00-1.94-3.76 2.29 2.29 0 00-2.97 1.49.5.5 0 01-.63.32.49.49 0 01-.32-.62 3.3 3.3 0 014.14-2.14 4 4 0 012.59 5 4.88 4.88 0 01-6.09 3.15 5.95 5.95 0 01-3.86-7.48 7.74 7.74 0 013.65-4.3 19.5 19.5 0 013.35-1.22 18.56 18.56 0 014.06-.44c8.38 0 15.13 5.5 21.66 10.83 6.1 5 11.86 9.67 18.51 9.67a23.77 23.77 0 003.33-.16c5-.71 9.27-4.37 9.31-4.41a.51.51 0 01.71.05.51.51 0 010 .71c-.19.16-4.58 3.88-9.83 4.64a24.56 24.56 0 01-3.52.11z" class="cls-2"/><circle cx="163.93" cy="10.48" r=".83" class="cls-2"/><circle cx="170.91" cy="25.9" r=".83" class="cls-2"/><path d="M182.13 31.18a.5.5 0 01-.34-.86 12.46 12.46 0 003.64-8.39.5.5 0 01.5-.51.54.54 0 01.5.49 13.33 13.33 0 01-4 9.14.51.51 0 01-.3.13z" class="cls-2"/><path d="M181.07 30.67a4.74 4.74 0 00-.78-5.91 2.92 2.92 0 011.05.46 3.61 3.61 0 01.75 5 3.06 3.06 0 01-1.54 1 4.2 4.2 0 00.52-.55zM186.82 31.84a4.67 4.67 0 012.05 3.16 10.73 10.73 0 00-1.44-1.2 9.4 9.4 0 00-7.06-1.39 4.76 4.76 0 012.06.85 2.83 2.83 0 01.93 3.76 5.69 5.69 0 00-2.56-3.73 5.59 5.59 0 00-1.85-.76c3.17-1.8 5.86-2.09 7.87-.69zM165.37 19.6a2.63 2.63 0 011.57-1.68 2 2 0 012.69 1.22 3.07 3.07 0 01.17 1.19l-.73-.13H169a1.29 1.29 0 000-.2c-.34-.93-1.5-1.24-2.84-.75a3.31 3.31 0 00-.79.35zM166.21 14.91a4.74 4.74 0 00-5.69 1.8 3.07 3.07 0 01.27-1.12A3.62 3.62 0 01165.6 14c.65.3.83.72 1.26 1.33a4.09 4.09 0 00-.65-.42zM166.36 9a4.71 4.71 0 012.7-2.56 11.48 11.48 0 00-.93 1.63 9.41 9.41 0 00-.13 7.23 4.78 4.78 0 01.48-2.17 2.83 2.83 0 013.52-1.57 5.65 5.65 0 00-3.22 3.17 5.47 5.47 0 00-.43 1.95c-2.27-2.82-3.02-5.41-1.99-7.68zM148.19 7.07a3.61 3.61 0 011.15-2.58 9.21 9.21 0 00-.18 1.41 7.14 7.14 0 002 5.08 3.64 3.64 0 01-.3-1.66 2.15 2.15 0 012-2.14 4.39 4.39 0 00-.69 5.08c-2.39-1.26-4.04-3.33-3.98-5.19z" class="cls-2"/><circle cx="187.63" cy="27.26" r="1.01" class="cls-2"/><circle cx="146.98" cy="11.13" r=".7" class="cls-2"/><circle cx="185.91" cy="21.35" r=".95" class="cls-2"/><circle cx="160.12" cy="12.14" r=".95" class="cls-2"/><circle cx="173" cy="18.2" r=".95" class="cls-2"/><path d="M169.14 24a.47.47 0 01-.41-.22.49.49 0 01.13-.69 9.63 9.63 0 003.39-4.5.5.5 0 01.63-.32.49.49 0 01.32.63 10.57 10.57 0 01-3.78 5 .49.49 0 01-.28.1zM125.92 13.05a3.22 3.22 0 01-1.76-1.83 7.75 7.75 0 001.11.63 6.46 6.46 0 004.91.06 4.27 4.27 0 01-4.26 1.14zM155.45 34a2.76 2.76 0 01.12 2.21 6.56 6.56 0 00-.38-1 5.6 5.6 0 00-3.2-2.83 3.73 3.73 0 013.46 1.62zM123.88 23.81a2.41 2.41 0 01-1.23 1.45 6.15 6.15 0 00.38-.88 4.77 4.77 0 00-.34-3.65 3.19 3.19 0 011.19 3.08z" class="cls-2"/><path d="M159.33 30.73h-.12c-5.11-.05-9.32-4.44-13-8.31-2.2-2.3-4.29-4.47-6.38-5.63a.48.48 0 01-.19-.67.5.5 0 01.68-.2c2.22 1.23 4.35 3.46 6.62 5.81 3.75 3.91 7.63 8 12.32 8a9.86 9.86 0 007.07-2.86A8.62 8.62 0 00169 21a8.38 8.38 0 00-8.54-8.26.5.5 0 010-1A9.37 9.37 0 01170 21a9.61 9.61 0 01-3 6.6 10.82 10.82 0 01-7.67 3.13z" class="cls-2"/><circle cx="143.82" cy="8.67" r=".83" class="cls-2"/><circle cx="146.57" cy="7.1" r=".83" class="cls-2"/><path d="M176.27 29.81c-10.49 0-15.84-6.45-20.57-12.16-3.6-4.34-6.7-8.09-11.42-8.44a.5.5 0 01-.46-.54.49.49 0 01.53-.46c5.15.38 8.53 4.47 12.12 8.8 4.72 5.69 10.08 12.12 20.63 11.78a.51.51 0 01.52.49.49.49 0 01-.48.51zM171.79 35.67h-.06a16.82 16.82 0 01-8-2.72c-11 3.1-16.37-3.39-21.1-9.13-2.61-3.17-5.1-6.2-8.33-7.51a6.88 6.88 0 011.34 4.69 6.79 6.79 0 01-1.55 4 .5.5 0 01-.77-.64 5.78 5.78 0 001.32-3.36 6.17 6.17 0 00-2-5.07l-.24-.25a.5.5 0 01-.07-.59.48.48 0 01.53-.24c4.42.9 7.4 4.52 10.56 8.36 4.78 5.81 9.72 11.81 20.29 8.73a.51.51 0 01.46.09s2.62 2.14 7.69 2.67a.5.5 0 01.44.55.49.49 0 01-.51.42z" class="cls-2"/><path d="M154.32 14.93s-.38-.9-3-2.78c-1.31-1-2.85-1-3.88.45.01 0 2.83-1.6 6.88 2.33zM157.78 18.65c-.9-1.36-1.72-2.16-1.52-4.82 0 0-2.26 2.91 1.52 4.82zM177.8 43.06a6.3 6.3 0 01-2.8-7.32s4.19 2.74 2.8 7.32zM181.27 38.47a4.69 4.69 0 01-4.69-3.5s3.74.03 4.69 3.5zM132.7 7a4.77 4.77 0 01-5 3.2s1.39-3.55 5-3.2zM127.15 2.46a6 6 0 01-.48 7.44s-2.54-4.04.48-7.44zM137.3 21.94a6 6 0 013.57 6.53s-4.3-2.04-3.57-6.53zM9.77 44.54a2.34 2.34 0 112.33-2.34 2.34 2.34 0 01-2.33 2.34zm0-3.67a1.34 1.34 0 101.33 1.33 1.34 1.34 0 00-1.33-1.33zM14.85 47.2a2.33 2.33 0 112.33-2.33 2.33 2.33 0 01-2.33 2.33zm0-3.66a1.33 1.33 0 101.33 1.33 1.33 1.33 0 00-1.33-1.33zM14.7 40.35a1.82 1.82 0 111.82-1.82 1.82 1.82 0 01-1.82 1.82zm0-2.64a.82.82 0 100 1.64.82.82 0 100-1.64zM7.35 49.58a1.83 1.83 0 111.82-1.82 1.82 1.82 0 01-1.82 1.82zm0-2.65a.83.83 0 10.82.83.83.83 0 00-.82-.83zM11.2 36.22A1.82 1.82 0 1113 34.4a1.81 1.81 0 01-1.8 1.82zm0-2.64a.82.82 0 10.82.82.82.82 0 00-.82-.82zM194.27 44.54a2.34 2.34 0 112.33-2.34 2.34 2.34 0 01-2.33 2.34zm0-3.67a1.34 1.34 0 101.33 1.33 1.34 1.34 0 00-1.33-1.33zM189.18 47.2a2.33 2.33 0 112.34-2.33 2.33 2.33 0 01-2.34 2.33zm0-3.66a1.33 1.33 0 101.34 1.33 1.34 1.34 0 00-1.34-1.33zM189.33 40.35a1.82 1.82 0 111.83-1.82 1.83 1.83 0 01-1.83 1.82zm0-2.64a.82.82 0 100 1.64.82.82 0 100-1.64zM197.17 49.52a1.83 1.83 0 111.83-1.83 1.82 1.82 0 01-1.83 1.83zm0-2.65a.83.83 0 000 1.65.83.83 0 000-1.65zM192.83 36.22a1.82 1.82 0 111.83-1.82 1.82 1.82 0 01-1.83 1.82zm0-2.64a.82.82 0 10.83.82.82.82 0 00-.83-.82zM113.3 130.87a.49.49 0 00-.45-.35 7.21 7.21 0 00-5.61 2.21 8.34 8.34 0 01.65.53h.19a6.22 6.22 0 014.37-1.79 6.25 6.25 0 01-1.08 5.41 6.34 6.34 0 01-1.76 1.55 5.33 5.33 0 01-.53 1.37 7.21 7.21 0 004.22-9z" class="cls-2"/><path d="M102.24 144a9 9 0 01-5.13-1.56 3.14 3.14 0 01-3.63-2.48 2.72 2.72 0 01.77-2.52v-.1c0-3.68 3.59-6.67 8-6.67a8.86 8.86 0 015.88 2.14 2.93 2.93 0 012.45 2.29 2.61 2.61 0 01-.35 1.77 3.62 3.62 0 010 .47c.01 3.66-3.57 6.66-7.99 6.66zm-4.87-2.61l.16.13a8 8 0 004.71 1.48c3.86 0 7-2.54 7-5.66a4.58 4.58 0 000-.53v-.19l.1-.15a1.7 1.7 0 00.3-1.2 2 2 0 00-1.78-1.49h-.15l-.12-.1a7.73 7.73 0 00-5.3-2c-3.86 0-7 2.54-7 5.67v.53l-.2.16a1.74 1.74 0 00-.61 1.76 2.19 2.19 0 002.69 1.63z" class="cls-2"/><circle cx="108.62" cy="139.32" r=".92" class="cls-2"/><circle cx="106.52" cy="139.63" r=".71" class="cls-2"/><circle cx="104.3" cy="140.04" r=".71" class="cls-2"/><circle cx="102.43" cy="141.19" r=".71" class="cls-2"/><circle cx="105.87" cy="141.9" r=".92" class="cls-2"/><circle cx="105.91" cy="137.94" r=".37" class="cls-2"/><circle cx="103.62" cy="137.73" r=".55" class="cls-2"/><path d="M42.9 111.11c.39.66.79 1 1.2.85v.22a2.17 2.17 0 01-1.36.7 3.93 3.93 0 01-1.92-.06 3.52 3.52 0 01-1.69-1 12.66 12.66 0 01-7.66 4.56 14 14 0 01-9.09-.87 19 19 0 01-7.53-6.25 26.8 26.8 0 01-4.48-10 21.52 21.52 0 010-10.22A18.35 18.35 0 0115 80.7a15.46 15.46 0 017.9-4.5 14 14 0 016.04-.2 9.42 9.42 0 014.59 2.32 8.38 8.38 0 012.4 4.28 8.88 8.88 0 010 4.32 7.25 7.25 0 01-2.09 3.47 8.68 8.68 0 01-4 2 5.31 5.31 0 01-2.57 0 4.25 4.25 0 01-2-1.08 3.44 3.44 0 01-1-1.74 3.25 3.25 0 010-1.58A1.83 1.83 0 0125 86.9l.34-.08a1.74 1.74 0 00.54.79 3.23 3.23 0 001.14.68 2.47 2.47 0 001.4.08 3.36 3.36 0 002.45-1.67 4.39 4.39 0 00.22-3 4.26 4.26 0 00-2.25-2.83 7 7 0 00-5-.29A9.9 9.9 0 0018.38 84a14 14 0 00-3 6.39 18.05 18.05 0 00.14 7.7 23.61 23.61 0 003.22 7.64A15.73 15.73 0 0024.1 111a8.65 8.65 0 006.41 1 7.75 7.75 0 004.6-2.67 5 5 0 001-4.36l-1.23-5.39-6.1 1.42a3.89 3.89 0 00-2 1.34l-.3.07-1.27-5.53 14.19-3.31.07.29a3.44 3.44 0 00-.36 2.3L42 109a7.81 7.81 0 00.9 2.11zM47 81.25v.27a4.47 4.47 0 00-.33 2.19l3.81 22.22a2.54 2.54 0 00.33.91q.25.42.72 1v.27l-5.88 1v-.27a4.52 4.52 0 00.34-2.2l-3.75-22.16a2.63 2.63 0 00-.34-.91c-.16-.27-.4-.62-.71-1v-.27zM67.88 78.44v.27a4.31 4.31 0 00-.37 2.17l3.06 24.73-1.57.19-10.61-15.42 1.75 14.12a3.69 3.69 0 001 2v.31l-6 .74v-.31a4.38 4.38 0 00.44-2.14l-2.77-22.4a3.45 3.45 0 00-.28-1 6.32 6.32 0 00-.64-1v-.27l5-.62 7.22 11-1.16-9.4a3.51 3.51 0 00-1-2v-.27zM99.44 103.52v.31l-5.64.31-1.56-2.14a7.66 7.66 0 01-5.38 3 6.68 6.68 0 01-5.27-1.8 8.06 8.06 0 01-2.25-5.59 6.82 6.82 0 011-4.1 16.34 16.34 0 013.14-3.55 1.45 1.45 0 00-.33-.45 22.43 22.43 0 01-2-3.25 8.08 8.08 0 01-.82-3A5.68 5.68 0 0181.68 79 5.85 5.85 0 0186 77.12a6.08 6.08 0 014.55 1.31 5.61 5.61 0 011.81 4.07 8.11 8.11 0 01-.8 4.33 13.84 13.84 0 01-2.72 3.45l2.88 3.9a18.81 18.81 0 00.21-3.92l4.92-.26v.27A2.46 2.46 0 0096 92a18.62 18.62 0 01-.38 2.62 21.21 21.21 0 01-1 3.51c1.53 2.1 2.41 3.28 2.66 3.52a9.78 9.78 0 002.16 1.87zM90 99l-4.27-6a7.26 7.26 0 00-1.43 2 4.63 4.63 0 00-.4 2.27 4.14 4.14 0 00.87 2.38 2.58 2.58 0 002.32.92A3.84 3.84 0 0090 99zm-5.29-17.88a3.44 3.44 0 00-.37 1.72 3.65 3.65 0 00.46 1.61c.28.51.84 1.36 1.69 2.56a8.6 8.6 0 001.42-2.09 4.49 4.49 0 00.4-2.23 3.62 3.62 0 00-.54-1.69 1.56 1.56 0 00-1.55-.76 1.65 1.65 0 00-1.51.88zM139.45 70.82a4.13 4.13 0 01-.91 2.47 5.49 5.49 0 01-2.32 1.71 8 8 0 01-3.26.53 35.86 35.86 0 01-4.53-.44c-1.43-.23-3.29-.58-5.56-1l-1.39 31.22a3.24 3.24 0 00.75 2v.27l-6.7-.24V107a3.47 3.47 0 00.66-1 2.82 2.82 0 00.27-1.1l1.41-31.85c-1.45-.16-2.57-.25-3.35-.28a8.21 8.21 0 00-3.83.69 6.35 6.35 0 00-2.45 1.9 3.82 3.82 0 00-.87 2.08 2.06 2.06 0 00.5 1.44 1.6 1.6 0 001.18.65V80a3.94 3.94 0 01-1.4 1.51 4.13 4.13 0 01-2.3.46 3.09 3.09 0 01-2.47-1.28 5.08 5.08 0 01-.88-3.4 8.23 8.23 0 011.77-4.7 11.69 11.69 0 014.63-3.6 14.42 14.42 0 016.66-1.23 39.53 39.53 0 014.55.4c1.38.2 3.08.51 5.12.92 1.86.35 3.39.62 4.58.8a31.72 31.72 0 003.85.36 6.83 6.83 0 003.57-.66 4.5 4.5 0 001.78-1.54h.27a5.35 5.35 0 01.67 2.78z" class="cls-1"/><path d="M129.64 84.17a11.1 11.1 0 013.71-4.46 7.26 7.26 0 014.92-1.2 7.14 7.14 0 014.54 2.23 11.14 11.14 0 012.66 5.26 24.13 24.13 0 01-1.55 14.48 11.25 11.25 0 01-3.7 4.53 7.38 7.38 0 01-9.46-1 11.35 11.35 0 01-2.68-5.27 21.76 21.76 0 01-.35-7.45 20.69 20.69 0 011.91-7.12zm9.18 15.52a19 19 0 001.79-6.77 21 21 0 00-.27-7.37c-.5-1.91-1.34-2.92-2.5-3a2.54 2.54 0 00-2.15 1 9 9 0 00-1.69 3.18 23.52 23.52 0 00-1 5 24.81 24.81 0 00-.07 5.21 9.49 9.49 0 001 3.64 2.54 2.54 0 001.89 1.46c1.09.09 2.12-.68 3-2.35zM167 83v.27a4.47 4.47 0 00-1 2l-4.19 24.56-1.57-.27-5.74-17.83-2.4 14a3.78 3.78 0 00.34 2.16l-.05.3-5.92-1v-.3a4.27 4.27 0 001-1.92l3.8-22.22a3.24 3.24 0 000-1 6.56 6.56 0 00-.31-1.16v-.27l5 .85 3.74 12.66 1.59-9.34a3.44 3.44 0 00-.34-2.19l.05-.27zM177.61 85.36l-.06.27a4.45 4.45 0 00-1.14 1.91l-4.84 22a2.45 2.45 0 000 1c.05.32.13.73.26 1.24l-.06.27-5.82-1.29.06-.26a4.52 4.52 0 001.13-1.91l4.84-22a2.5 2.5 0 000-1q-.08-.47-.27-1.23l.06-.27zM188.92 115.67a6.37 6.37 0 01-2.07.19 11.93 11.93 0 01-2.67-.41 8.45 8.45 0 01-4.57-2.93 10.63 10.63 0 01-2.15-5.42 18.33 18.33 0 01.61-7 21.6 21.6 0 013.15-7 11.47 11.47 0 014.69-4 8.12 8.12 0 015.52-.41 12.67 12.67 0 012.61 1 4 4 0 011.35 1l-1.3 5.79h-.17a13.49 13.49 0 00-1.39-2.19 4 4 0 00-2.17-1.54 3.35 3.35 0 00-2.83.55 8.84 8.84 0 00-2.61 3.06 21.52 21.52 0 00-2 5.17 15.39 15.39 0 00-.58 4.61 7.48 7.48 0 00.86 3.42 3.5 3.5 0 002.17 1.71 6.13 6.13 0 002.82.1 12.2 12.2 0 002.29-.64h.15z" class="cls-1"/><path d="M33.16 64.43l-4.5-5.57c-1.5-1.84-1.14-3.5.39-4.74s3.07-.91 4.4.74l.85 1L33 57l-.85-1c-.68-.85-1.47-1.09-2.23-.48s-.72 1.44 0 2.28l4.42 5.46c.7.86 1.52 1.2 2.33.54s.71-1.4 0-2.28l-.82-1 1.28-1 .75.93c1.25 1.55 1.42 3.3-.2 4.61s-3.11 1.11-4.52-.63zM35 49.9l1.4-1 6.6 9.84 3-2 .86 1.26-4.38 3zM44.64 43.7l2-1.1L55.52 53l-1.52.91-2.5-3-2.5 1.33L50.26 56l-1.39.77zm5.89 6.08L46.61 45h-.09l2 5.84zM56.23 49.21l-.23-.49 1.43-.63.11.24c.37.82 1 1.84 2.23 1.31.91-.4.88-1.3.4-2.4A3 3 0 0058 45.61l-1.39-.3a4 4 0 01-3.18-2.46c-.84-1.88-.37-3.61 1.46-4.42 1.66-.74 3.1-.12 3.94 1.76l.25.58-1.43.63-.23-.52c-.37-.84-1.06-1.41-2-1s-1 1.38-.59 2.2a2.63 2.63 0 002.17 1.4l1.39.35a4.35 4.35 0 013.36 2.61c.89 2 .63 3.73-1.38 4.62-1.69.76-3.22.23-4.14-1.85zM64.6 45.65l-.17-.5 1.48-.51.09.25c.29.85.88 1.92 2.1 1.5.94-.32 1-1.22.61-2.36a3 3 0 00-2-1.81l-1.36-.43a3.94 3.94 0 01-2.95-2.72c-.67-2 0-3.63 1.85-4.28 1.71-.59 3.09.15 3.76 2.1l.21.6-1.49.5-.18-.54c-.3-.87-.94-1.5-1.88-1.17s-1.07 1.29-.78 2.14 1 1.29 2 1.63l1.35.47a4.34 4.34 0 013.13 2.88c.71 2.08.3 3.77-1.78 4.48-1.78.59-3.25-.08-3.99-2.23zM71 32.89l1.65-.43 3.43 12.92-1.65.44zM78.8 41.62l-1.34-7c-.44-2.33.66-3.63 2.59-4s3.14.65 3.53 2.73l.26 1.33-1.62.32-.22-1.36c-.2-1.06-.78-1.66-1.73-1.47s-1.32.93-1.13 2l1.31 6.9c.21 1.09.77 1.78 1.8 1.59s1.29-.91 1.08-2l-.24-1.28 1.58-.38.22 1.19c.37 2-.31 3.58-2.36 4s-3.32-.38-3.73-2.57zM92.41 39.55L92 32.4c-.13-2.36 1.12-3.5 3.08-3.61s3 1.05 3.15 3.17l.07 1.35-1.64.09-.07-1.33c-.06-1.09-.56-1.75-1.53-1.7s-1.43.75-1.37 1.82l.39 7c.07 1.1.53 1.86 1.58 1.8s1.39-.73 1.33-1.85l-.08-1.3 1.64-.09.07 1.2c.11 2-.78 3.51-2.85 3.62s-3.23-.79-3.36-3.02zM101.87 39.2l.24-7.26c.06-2 1.16-3.34 3.28-3.27s3.11 1.46 3 3.5l-.24 7c-.06 2-1.18 3.42-3.28 3.35a2.86 2.86 0 01-3-3.32zm4.62 0l.24-7.18c0-1-.34-1.73-1.41-1.77s-1.48.72-1.51 1.67l-.24 7.18c0 .94.34 1.77 1.39 1.81s1.5-.72 1.53-1.71zM113 29.39l1.68.21-1.38 11.73 3.56.43-.18 1.54-5.25-.63zM122.22 30.69l1.67.34-2.36 11.58 3.52.72-.31 1.52-5.18-1.06zM131.32 32.73l5.08 1.48-.4 1.45-3.45-1-1.16 4 2.85.83-.43 1.47-2.81-.86-1.31 4.5 3.45 1-.43 1.45-5.08-1.48zM136.17 45.06l2.57-6.68c.85-2.21 2.46-2.74 4.3-2s2.32 2.2 1.56 4.18l-.49 1.27-1.53-.59.48-1.25c.39-1 .21-1.82-.7-2.17s-1.61.09-2 1.09l-2.53 6.56c-.4 1-.28 1.91.7 2.29s1.57-.09 2-1.14l.47-1.21 1.53.59-.43 1.12c-.72 1.85-2.15 2.88-4.1 2.13s-2.64-2.1-1.83-4.19zM150.07 41.3l-2-1 .67-1.4 5.61 2.71-.67 1.4-2.05-1-5.15 10.64-1.53-.74zM157.56 43.43l1.48.84-6.61 11.62-1.43-.84zM157 55.14l4-6c1.13-1.68 2.76-2.22 4.52-1s1.86 2.88.73 4.58l-3.88 5.79c-1.1 1.64-2.82 2.28-4.56 1.11a2.87 2.87 0 01-.81-4.48zm3.93 2.44l4-6a1.45 1.45 0 00-.27-2.24c-.89-.6-1.63-.18-2.16.62l-4 6a1.49 1.49 0 00.23 2.26c.94.63 1.65.19 2.2-.64zM171.71 52.71l1.5 1.22-3.69 9.15 6-7.29 1.12.91-8.46 10.38-1.26-1 3.93-9.94-6.46 7.86-1.13-.91z" class="cls-3"/><path d="M115.24 10h-3.63v1h3.61a.51.51 0 00.5-.5.5.5 0 00-.48-.5zM91.45 10.67v-.71h-3.54a.5.5 0 00-.5.5.5.5 0 00.5.5h3.56a2.83 2.83 0 01-.02-.29z" class="cls-2"/><path d="M92.06 13.11a7.24 7.24 0 01-2.17.34 7.46 7.46 0 01-6-2.94 7.47 7.47 0 016-2.93 7.3 7.3 0 012.11.33c.09-.32.19-.64.31-1a8.42 8.42 0 00-9.44 3.27.52.52 0 000 .56 8.46 8.46 0 007 3.66 8.29 8.29 0 002.48-.39 8.1 8.1 0 01-.29-.9zM188.66 59l-.2 1.83a.47.47 0 01-.5.41l-1.07-.12.26.75a.37.37 0 01-.23.49l-1.64.58a.38.38 0 01-.5-.23l-.58-1.64a.39.39 0 01.23-.5l1.11-.39v-.27a3.64 3.64 0 01-2.61 0c-.15 1.79-.54 7.58-.65 8.88 0 .6 5.59 1.41 5.7.82.29-1.67 1.47-8.32 1.85-10.33a3 3 0 00-1.17-.28zM201.5 59.15a3.61 3.61 0 01-2.6.2l.07.33 1.21.32a.38.38 0 01.27.47l-.45 1.69a.38.38 0 01-.47.27l-1.68-.43a.38.38 0 01-.27-.47l.23-.87-1.18.23a.47.47 0 01-.53-.37l-.35-1.8a3.05 3.05 0 00-1.18.39c.55 2 2.3 8.51 2.73 10.14.15.58 5.7-.7 5.6-1.3-.21-1.3-1.09-7.03-1.4-8.8zM101.72 60.24c-.16-.11-.31-.23-.46-.35A4.76 4.76 0 0196 54.63a4.81 4.81 0 012.79.55v-.51-.6a5.82 5.82 0 00-3.33-.37.49.49 0 00-.4.4 5.75 5.75 0 005.65 6.82 6.34 6.34 0 001.06-.1.5.5 0 00.4-.4c0-.21.06-.41.08-.62-.15.2-.34.3-.53.44zM20.75 59.15a3.61 3.61 0 01-2.6.2l.05.24 1.23.32a.39.39 0 01.27.48l-.44 1.68a.38.38 0 01-.47.28l-1.69-.44a.39.39 0 01-.27-.47l.2-.79-1.15.23a.47.47 0 01-.53-.37l-.35-1.8a3.05 3.05 0 00-1.18.39c.55 2 2.3 8.51 2.73 10.14.15.58 5.7-.7 5.6-1.3-.21-1.29-1.09-7.02-1.4-8.79z" class="cls-2"/><path d="M17.19 60.13l-1.35.29-.43-2 2-.43.29 1.53h.06l1 .26-.38-2a1 1 0 00-1.13-.76l-2 .39a1 1 0 00-.61.41 1 1 0 00-.15.72l.4 2a1 1 0 00.4.61.94.94 0 00.53.16H16l.94-.19zM7.91 59l-.2 1.83a.47.47 0 01-.5.41L6 61.12l.33.92a.39.39 0 01-.23.5l-1.65.58a.38.38 0 01-.45-.23l-.58-1.65a.37.37 0 01.23-.49l1.17-.42.05-.41a3.64 3.64 0 01-2.61 0c-.15 1.79-.54 7.58-.65 8.88 0 .6 5.59 1.41 5.7.82.24-1.62 1.42-8.3 1.8-10.31a3 3 0 00-1.2-.31zM103.84 131.39a6.24 6.24 0 012.88-1.89 6.26 6.26 0 01.93 3.71l.15.13a3.64 3.64 0 01.83.25 7.22 7.22 0 00-1.29-5 .5.5 0 00-.53-.2 7.2 7.2 0 00-4.13 2.82 8.76 8.76 0 011.16.18zM94.84 137.28a5.61 5.61 0 01.16-1.1 6.25 6.25 0 01-2.36-4.89 6.25 6.25 0 015.41 1.09 8 8 0 011-.46c-.13-.12-.26-.25-.4-.36a7.28 7.28 0 00-6.65-1.12.5.5 0 00-.34.45 7.24 7.24 0 002.8 6.11c.12.13.26.19.38.28zM114 3.87a5.62 5.62 0 01-.35 2.73 8.37 8.37 0 011 .12 6.66 6.66 0 00.35-3.38.51.51 0 00-.4-.4 6.68 6.68 0 00-5.2 1.21 9.3 9.3 0 01.6.85 5.65 5.65 0 014-1.13zM113.68 14.42a5.66 5.66 0 01.35 2.74 5.67 5.67 0 01-4.27-1.24 8 8 0 01-.61.8 6.65 6.65 0 004.18 1.48 7.3 7.3 0 001.23-.11.51.51 0 00.4-.4 6.66 6.66 0 00-.26-3.38 6.77 6.77 0 01-1.02.11zM93.41 15.9a5.63 5.63 0 01-4.29 1.26 5.65 5.65 0 01.34-2.74 8.83 8.83 0 01-1-.11 6.77 6.77 0 00-.25 3.38.51.51 0 00.4.4 7.3 7.3 0 001.23.11A6.65 6.65 0 0094 16.71a9.53 9.53 0 01-.59-.81zM88.59 2.94a.51.51 0 00-.4.4 6.77 6.77 0 00.25 3.38 7.07 7.07 0 011-.11 5.67 5.67 0 01-.34-2.74 5.65 5.65 0 014.23 1.2 7.86 7.86 0 01.59-.8 6.61 6.61 0 00-5.33-1.33z" class="cls-2"/></g></g></g></svg>