<svg viewBox="0 0 193.46 49.58" fill="currentColor"><defs><style>.cls-1{fill:#009579}</style></defs><g id="Layer_2" data-name="Layer 2"><g id="Layer_1-2" data-name="Layer 1"><g id="Title_top" data-name="Title top"><path d="M115.4 10.23a8.36 8.36 0 00-6.92-3.65 8.2 8.2 0 00-2.27.33 8.81 8.81 0 01.31 1 7.14 7.14 0 012-.28 7.38 7.38 0 015.89 2.93 7.36 7.36 0 01-5.89 2.94 7.27 7.27 0 01-2-.28c-.09.32-.19.64-.31.95a8.27 8.27 0 002.28.33 8.39 8.39 0 006.92-3.65.5.5 0 00-.01-.62z" class="cls-1"/><path d="M96.89 21a10.48 10.48 0 01-10.47-10.23A10.49 10.49 0 0196.61 0h.29a10.48 10.48 0 01.28 21zm0-20h-.26a9.49 9.49 0 00-6.26 16.37A9.48 9.48 0 1096.9 1z" class="cls-1"/><path d="M96.9 18.89a8.5 8.5 0 01-8.49-8.44.5.5 0 01.5-.5l16-.08a.5.5 0 01.5.5 8.47 8.47 0 01-8.44 8.52zm-7.47-8a7.49 7.49 0 007.47 7 7.48 7.48 0 007.44-7z" class="cls-1"/><path d="M96.94 18.89a.49.49 0 01-.5-.49v-7.91a.5.5 0 01.5-.51.55.55 0 01.5.5v7.91a.5.5 0 01-.5.5z" class="cls-1"/><path d="M102.52 16.55a.49.49 0 01-.35-.15l-5.62-5.56a.5.5 0 11.7-.71l5.62 5.56a.5.5 0 01-.35.86z" class="cls-1"/><path d="M91.32 16.62a.47.47 0 01-.35-.15.49.49 0 010-.7l5.58-5.64a.5.5 0 01.71 0 .48.48 0 010 .7l-5.58 5.64a.47.47 0 01-.36.15z" class="cls-1"/><path d="M88.92 11.17a.5.5 0 01-.5-.5 8.48 8.48 0 018.44-8.53 8.5 8.5 0 018.49 8.44.48.48 0 01-.15.36.51.51 0 01-.35.15l-16 .08zm8-8a7.48 7.48 0 00-7.43 7l14.94-.07a7.51 7.51 0 00-7.53-6.96z" class="cls-1"/><path d="M96.9 11.05a.5.5 0 01-.5-.5V2.64a.54.54 0 01.5-.5.5.5 0 01.5.5v7.91a.51.51 0 01-.5.5z" class="cls-1"/><path d="M96.9 11.05a.52.52 0 01-.35-.14l-5.62-5.57a.5.5 0 010-.71.51.51 0 01.71 0l5.62 5.57a.49.49 0 010 .7.51.51 0 01-.36.15z" class="cls-1"/><path d="M96.9 11.05a.52.52 0 01-.35-.14.5.5 0 010-.71l5.57-5.63a.5.5 0 11.72.7l-5.58 5.63a.51.51 0 01-.36.15zM24.93 33a24.56 24.56 0 01-3.47-.17c-5.25-.76-9.64-4.48-9.83-4.64a.5.5 0 01.66-.76s4.36 3.7 9.31 4.41a23.77 23.77 0 003.33.16c6.65 0 12.41-4.7 18.51-9.67C50 17 56.72 11.52 65.1 11.52a18.54 18.54 0 014 .43 19.46 19.46 0 013.39 1.29 7.74 7.74 0 013.65 4.3A5.95 5.95 0 0172.3 25a4.88 4.88 0 01-6.12-3.15 4 4 0 012.59-5A3.3 3.3 0 0172.91 19a.49.49 0 01-.32.62.5.5 0 01-.63-.32 2.29 2.29 0 00-2.88-1.49 3 3 0 00-1.94 3.76 3.87 3.87 0 004.86 2.5 4.87 4.87 0 002.89-2.45 4.92 4.92 0 00.32-3.78A6.89 6.89 0 0072 14.1a19.89 19.89 0 00-3.13-1.18 17.44 17.44 0 00-3.78-.4c-8 0-14.64 5.39-21 10.6S31.94 33 24.93 33z" class="cls-1"/><circle cx="35.06" cy="10.48" r=".83" class="cls-1"/><circle cx="28.08" cy="25.9" r=".83" class="cls-1"/><path d="M16.86 31.18a.51.51 0 01-.35-.13 13.33 13.33 0 01-4-9.14.5.5 0 01.5-.49.5.5 0 01.5.51 12.5 12.5 0 003.64 8.39.5.5 0 01-.34.86z" class="cls-1"/><path d="M17.92 30.67a4.74 4.74 0 01.78-5.91 2.92 2.92 0 00-1.05.46 3.61 3.61 0 00-.75 5 3.06 3.06 0 001.54 1 4.2 4.2 0 01-.52-.55zM12.17 31.84A4.67 4.67 0 0010.12 35a10.73 10.73 0 011.44-1.2 9.4 9.4 0 017.06-1.39 4.76 4.76 0 00-2.06.85 2.83 2.83 0 00-.93 3.74 5.69 5.69 0 012.56-3.73 5.59 5.59 0 011.81-.79c-3.13-1.75-5.82-2.04-7.83-.64zM33.62 19.6a2.63 2.63 0 00-1.57-1.68 2 2 0 00-2.69 1.22 3.07 3.07 0 00-.17 1.19l.73-.13H30a1.29 1.29 0 010-.2c.34-.93 1.5-1.24 2.84-.75a3.31 3.31 0 01.78.35zM32.78 14.91a4.74 4.74 0 015.69 1.8 3.07 3.07 0 00-.27-1.12A3.62 3.62 0 0033.39 14c-.65.3-.83.72-1.26 1.33a4.09 4.09 0 01.65-.42zM32.63 9a4.71 4.71 0 00-2.7-2.56 11.48 11.48 0 01.93 1.63A9.41 9.41 0 0131 15.3a4.78 4.78 0 00-.48-2.17A2.83 2.83 0 0027 11.56a5.65 5.65 0 013.22 3.17 5.47 5.47 0 01.43 1.95c2.25-2.82 3.01-5.41 1.98-7.68zM50.8 7.07a3.61 3.61 0 00-1.15-2.58 9.21 9.21 0 01.18 1.41 7.14 7.14 0 01-2 5.08 3.64 3.64 0 00.3-1.66 2.15 2.15 0 00-2-2.14 4.39 4.39 0 01.69 5.08c2.39-1.26 4.04-3.33 3.98-5.19z" class="cls-1"/><circle cx="11.36" cy="27.26" r="1.01" class="cls-1"/><circle cx="52.01" cy="11.13" r=".7" class="cls-1"/><circle cx="13.08" cy="21.35" r=".95" class="cls-1"/><circle cx="38.87" cy="12.14" r=".95" class="cls-1"/><circle cx="25.99" cy="18.2" r=".95" class="cls-1"/><path d="M29.85 24a.47.47 0 01-.28-.09 10.57 10.57 0 01-3.78-5 .49.49 0 01.32-.63.5.5 0 01.63.32 9.71 9.71 0 003.39 4.4.49.49 0 01.13.69.47.47 0 01-.41.31zM73.07 13.05a3.22 3.22 0 001.76-1.83 7.31 7.31 0 01-1.12.63 6.43 6.43 0 01-4.9.06 4.27 4.27 0 004.26 1.14zM43.54 34a2.76 2.76 0 00-.12 2.21 6.56 6.56 0 01.38-1 5.6 5.6 0 013.2-2.9A3.73 3.73 0 0043.54 34zM75.11 23.81a2.41 2.41 0 001.23 1.45 6.15 6.15 0 01-.38-.88 4.77 4.77 0 01.34-3.65 3.19 3.19 0 00-1.19 3.08z" class="cls-1"/><path d="M39.66 30.73A10.82 10.82 0 0132 27.58 9.61 9.61 0 0129 21a9.37 9.37 0 019.54-9.26.5.5 0 010 1A8.38 8.38 0 0030 21a8.62 8.62 0 002.7 5.89 9.79 9.79 0 007.07 2.86c4.69-.05 8.57-4.09 12.32-8 2.27-2.35 4.4-4.58 6.62-5.81a.5.5 0 01.68.2.48.48 0 01-.19.67c-2.09 1.19-4.2 3.31-6.39 5.61-3.71 3.87-7.92 8.26-13 8.31z" class="cls-1"/><circle cx="55.17" cy="8.67" r=".83" class="cls-1"/><circle cx="52.42" cy="7.1" r=".83" class="cls-1"/><path d="M22.72 29.81h-.87a.49.49 0 01-.48-.51.54.54 0 01.52-.49c10.57.34 15.92-6.11 20.63-11.81 3.58-4.33 7-8.42 12.11-8.8a.51.51 0 01.54.46.5.5 0 01-.46.54c-4.72.35-7.83 4.1-11.42 8.44-4.73 5.72-10.08 12.17-20.57 12.17zM27.2 35.67a.49.49 0 01-.49-.44.5.5 0 01.44-.55c5.07-.53 7.67-2.64 7.69-2.67a.51.51 0 01.46-.09C45.87 35 50.81 29 55.59 23.19c3.16-3.84 6.14-7.46 10.56-8.36a.48.48 0 01.53.24.5.5 0 01-.07.59l-.24.25a6.17 6.17 0 00-2 5.07 5.78 5.78 0 001.32 3.36.5.5 0 01-.77.64 6.79 6.79 0 01-1.55-4 6.88 6.88 0 011.35-4.71c-3.23 1.31-5.72 4.34-8.33 7.51C51.64 29.56 46.3 36.05 35.27 33a16.82 16.82 0 01-8 2.72z" class="cls-1"/><path d="M44.67 14.93s.38-.9 3-2.78c1.31-1 2.85-1 3.88.45-.01 0-2.83-1.6-6.88 2.33zM41.21 18.65c.9-1.36 1.72-2.16 1.52-4.82 0 0 2.27 2.91-1.52 4.82zM21.19 43.06A6.3 6.3 0 0024 35.74s-4.2 2.74-2.81 7.32zM17.72 38.47A4.69 4.69 0 0022.41 35s-3.74 0-4.69 3.47zM66.29 7a4.77 4.77 0 005 3.2s-1.39-3.55-5-3.2zM71.84 2.46a6 6 0 00.48 7.44s2.54-4.04-.48-7.44zM61.69 21.94a6 6 0 00-3.58 6.53s4.31-2.04 3.58-6.53zM168.53 33c-7 0-12.9-4.81-19.14-9.9s-13-10.6-21-10.6a17.3 17.3 0 00-3.81.41 19.61 19.61 0 00-3.1 1.17 6.93 6.93 0 00-3.2 3.74 5 5 0 003.22 6.23 3.87 3.87 0 004.86-2.51 3 3 0 00-2-3.76 2.29 2.29 0 00-2.88 1.49.49.49 0 01-.63.32.49.49 0 01-.32-.62 3.3 3.3 0 014.14-2.14 4 4 0 012.59 5 4.88 4.88 0 01-6.1 3.17 5.95 5.95 0 01-3.86-7.48 7.78 7.78 0 013.65-4.3 19.51 19.51 0 013.36-1.22 18.47 18.47 0 014.05-.44c8.38 0 15.13 5.5 21.67 10.83 6.09 5 11.85 9.67 18.5 9.67a23.77 23.77 0 003.33-.16c5-.71 9.27-4.37 9.32-4.41a.49.49 0 01.7.05.51.51 0 010 .71c-.19.16-4.58 3.88-9.82 4.64a24.69 24.69 0 01-3.53.11z" class="cls-1"/><circle cx="158.4" cy="10.48" r=".83" class="cls-1"/><circle cx="165.38" cy="25.9" r=".83" class="cls-1"/><path d="M176.61 31.18a.51.51 0 01-.37-.15.5.5 0 010-.71 12.46 12.46 0 003.64-8.39.5.5 0 01.5-.51.54.54 0 01.5.49 13.28 13.28 0 01-4 9.14.5.5 0 01-.27.13z" class="cls-1"/><path d="M175.54 30.67a4.74 4.74 0 00-.78-5.91 2.92 2.92 0 011.05.46 3.61 3.61 0 01.75 5 3.08 3.08 0 01-1.53 1 4 4 0 00.51-.55zM181.29 31.84a4.67 4.67 0 012.05 3.16 10.73 10.73 0 00-1.44-1.2 9.4 9.4 0 00-7.06-1.39 4.76 4.76 0 012.06.85 2.82 2.82 0 01.93 3.76 5.69 5.69 0 00-2.56-3.73 5.5 5.5 0 00-1.85-.76c3.17-1.8 5.86-2.09 7.87-.69zM159.84 19.6a2.63 2.63 0 011.57-1.68 2.05 2.05 0 012.7 1.22 3.27 3.27 0 01.17 1.19l-.74-.13h-.07v-.21c-.34-.93-1.51-1.24-2.85-.75a3.53 3.53 0 00-.78.36zM160.68 14.91a4.75 4.75 0 00-5.69 1.8 3.06 3.06 0 01.28-1.12 3.61 3.61 0 014.8-1.61c.65.3.84.72 1.27 1.33a4.56 4.56 0 00-.66-.4zM160.83 9a4.73 4.73 0 012.71-2.56 11.64 11.64 0 00-.94 1.63 9.41 9.41 0 00-.14 7.19 4.78 4.78 0 01.48-2.17 2.84 2.84 0 013.55-1.57 5.66 5.66 0 00-3.23 3.17 5.47 5.47 0 00-.43 1.95c-2.27-2.78-3.02-5.37-2-7.64zM142.67 7.07a3.56 3.56 0 011.14-2.58 8 8 0 00-.17 1.41 7.13 7.13 0 002 5.08 3.64 3.64 0 01-.3-1.66 2.15 2.15 0 012-2.14 4.37 4.37 0 00-.7 5.08c-2.39-1.26-4.04-3.33-3.97-5.19z" class="cls-1"/><circle cx="182.1" cy="27.26" r="1.01" class="cls-1"/><circle cx="141.45" cy="11.13" r=".7" class="cls-1"/><circle cx="180.39" cy="21.35" r=".95" class="cls-1"/><circle cx="154.6" cy="12.14" r=".95" class="cls-1"/><circle cx="167.47" cy="18.2" r=".95" class="cls-1"/><path d="M163.61 24a.48.48 0 01-.41-.22.49.49 0 01.13-.69 9.55 9.55 0 003.39-4.5.5.5 0 011 .31 10.55 10.55 0 01-3.79 5 .47.47 0 01-.32.1zM120.39 13.05a3.22 3.22 0 01-1.76-1.83 8.39 8.39 0 001.12.63 6.44 6.44 0 004.9.06 4.27 4.27 0 01-4.26 1.14zM149.92 34a2.76 2.76 0 01.12 2.21 5.72 5.72 0 00-.38-1 5.57 5.57 0 00-3.2-2.83 3.72 3.72 0 013.46 1.62zM118.35 23.81a2.38 2.38 0 01-1.23 1.45 5.19 5.19 0 00.38-.88 4.76 4.76 0 00-.33-3.65 3.19 3.19 0 011.18 3.08z" class="cls-1"/><path d="M153.8 30.73h-.11c-5.12-.05-9.33-4.44-13-8.31-2.21-2.3-4.3-4.47-6.38-5.63a.49.49 0 01-.2-.67.5.5 0 01.68-.2c2.22 1.23 4.36 3.46 6.62 5.81 3.75 3.91 7.63 8 12.33 8a9.85 9.85 0 007.06-2.86 8.62 8.62 0 002.7-5.89 8.37 8.37 0 00-8.53-8.26.5.5 0 010-1c7.2 0 9.53 6.24 9.53 9.26a9.61 9.61 0 01-3 6.6 10.82 10.82 0 01-7.7 3.15z" class="cls-1"/><circle cx="138.29" cy="8.67" r=".83" class="cls-1"/><circle cx="141.04" cy="7.1" r=".83" class="cls-1"/><path d="M170.75 29.81c-10.5 0-15.84-6.45-20.57-12.16-3.6-4.34-6.71-8.09-11.43-8.44a.5.5 0 01-.46-.54.5.5 0 01.54-.46c5.14.38 8.53 4.47 12.12 8.8 4.71 5.69 10.07 12.12 20.63 11.78a.51.51 0 01.51.49.49.49 0 01-.48.51zM166.26 35.67a16.72 16.72 0 01-8-2.72c-11 3.1-16.38-3.39-21.1-9.13-2.62-3.17-5.11-6.2-8.34-7.51a6.88 6.88 0 011.29 4.69 6.79 6.79 0 01-1.55 4 .5.5 0 11-.76-.64 5.83 5.83 0 001.31-3.36 6.14 6.14 0 00-2-5.07l-.24-.25a.5.5 0 01-.07-.59.49.49 0 01.54-.24c4.41.9 7.39 4.52 10.55 8.36 4.76 5.79 9.71 11.79 20.27 8.71a.51.51 0 01.46.09 15.19 15.19 0 007.69 2.67.5.5 0 01.45.55.51.51 0 01-.5.44z" class="cls-1"/><path d="M148.79 14.93s-.38-.9-3-2.78c-1.31-1-2.85-1-3.89.45.02 0 2.84-1.6 6.89 2.33zM152.26 18.65c-.9-1.36-1.72-2.16-1.52-4.82 0 0-2.27 2.91 1.52 4.82zM172.27 43.06a6.31 6.31 0 01-2.82-7.32s4.21 2.74 2.82 7.32zM175.74 38.47a4.68 4.68 0 01-4.68-3.5s3.74.03 4.68 3.5zM127.17 7a4.77 4.77 0 01-5 3.2s1.39-3.55 5-3.2zM121.62 2.46a6 6 0 01-.48 7.44s-2.54-4.04.48-7.44zM131.77 21.94a6 6 0 013.58 6.53s-4.35-2.04-3.58-6.53zM4.24 44.54a2.34 2.34 0 112.33-2.34 2.33 2.33 0 01-2.33 2.34zm0-3.67a1.34 1.34 0 101.33 1.33 1.33 1.33 0 00-1.33-1.33zM9.32 47.2a2.33 2.33 0 112.34-2.33 2.33 2.33 0 01-2.34 2.33zm0-3.66a1.33 1.33 0 101.34 1.33 1.34 1.34 0 00-1.34-1.33zM9.17 40.35A1.82 1.82 0 1111 38.53a1.83 1.83 0 01-1.83 1.82zm0-2.64a.82.82 0 10.82.82.82.82 0 00-.82-.82zM1.82 49.58a1.83 1.83 0 111.82-1.82 1.83 1.83 0 01-1.82 1.82zm0-2.65a.83.83 0 000 1.65.83.83 0 000-1.65zM5.67 36.22a1.82 1.82 0 111.82-1.82 1.82 1.82 0 01-1.82 1.82zm0-2.64a.82.82 0 10.82.82.82.82 0 00-.82-.82zM188.74 44.54a2.34 2.34 0 112.33-2.34 2.33 2.33 0 01-2.33 2.34zm0-3.67a1.34 1.34 0 101.33 1.33 1.33 1.33 0 00-1.33-1.33zM183.66 47.2a2.33 2.33 0 112.34-2.33 2.33 2.33 0 01-2.34 2.33zm0-3.66a1.33 1.33 0 101.34 1.33 1.34 1.34 0 00-1.34-1.33zM183.81 40.35a1.82 1.82 0 111.82-1.82 1.83 1.83 0 01-1.82 1.82zm0-2.64a.82.82 0 10.82.82.82.82 0 00-.82-.82zM191.64 49.52a1.83 1.83 0 111.82-1.83 1.83 1.83 0 01-1.82 1.83zm0-2.65a.83.83 0 10.82.82.82.82 0 00-.82-.82zM187.31 36.22a1.82 1.82 0 111.82-1.82 1.82 1.82 0 01-1.82 1.82zm0-2.64a.82.82 0 100 1.64.82.82 0 000-1.64zM110.46 10h-3.63v1h3.61a.5.5 0 00.5-.5.5.5 0 00-.48-.5zM86.67 10.67v-.71h-3.54a.5.5 0 00-.5.5.51.51 0 00.5.5h3.56c0-.1-.02-.19-.02-.29z" class="cls-1"/><path d="M87.28 13.11a7.19 7.19 0 01-2.17.34 7.42 7.42 0 01-6-2.94 7.43 7.43 0 018.1-2.6 8 8 0 01.3-1 8.41 8.41 0 00-9.43 3.27.48.48 0 000 .56 8.43 8.43 0 007 3.66 8.29 8.29 0 002.48-.39c-.09-.26-.19-.58-.28-.9zM109.25 3.87a5.61 5.61 0 01-.34 2.73 8.86 8.86 0 011 .12 6.77 6.77 0 00.25-3.38.51.51 0 00-.4-.4 6.65 6.65 0 00-5.19 1.21c.2.26.4.53.58.81a5.65 5.65 0 014.1-1.09zM108.91 14.42a5.65 5.65 0 01.34 2.74 5.67 5.67 0 01-4.25-1.24 8 8 0 01-.61.8 6.65 6.65 0 004.18 1.48 7.3 7.3 0 001.23-.11.51.51 0 00.4-.4 6.77 6.77 0 00-.25-3.38 7.07 7.07 0 01-1.04.11z" class="cls-1"/><path d="M88.64 15.9a5.67 5.67 0 01-4.3 1.26 5.66 5.66 0 01.35-2.74 8.38 8.38 0 01-1-.11 6.66 6.66 0 00-.26 3.38.51.51 0 00.4.4 7.3 7.3 0 001.17.11 6.63 6.63 0 004.2-1.49 9.41 9.41 0 01-.56-.81zM83.81 2.94a.51.51 0 00-.4.4 6.66 6.66 0 00.26 3.38 6.77 6.77 0 011-.11 5.67 5.67 0 01-.35-2.74 5.64 5.64 0 014.23 1.2 9.81 9.81 0 01.6-.8 6.64 6.64 0 00-5.34-1.33z" class="cls-1"/></g></g></g></svg>