<svg fill="currentColor" viewBox="0 0 70 8">
  <path d="M4.90264 7.62986h-2.8l-1.400003-1.4v-4.1L2.10264.729858h2.7l.7 2.000002-1.3-.4h-.7l-.6.3-.2.5v2.1l.2.5.6.3h.8l1.2-.4-.6 2zM13.0025 7.62988H9.90254l-1.3-1.3v-4.4l1.3-1.299997h3.09996l1.3 1.299997v4.4l-1.3 1.3zm-.7-4.8l-.2-.4-.4-.2h-.5l-.4.2-.2.4v2.6l.2.4.4.2h.5l.4-.2.2-.4v-2.6zM22.0027 7.62986h-2.8l-1.4-1.4v-4.1l1.4-1.400002h2.7l.7 2.000002-1.2-.4h-.7l-.5.3-.3.5v2.1l.2.5.6.3h.8l1.2-.4-.7 2zM29.7028 7.62988l-.1-.9-.8-2.4h-.1l-.5.5-.1.2v1.8l.2.8h-2.4l.2-.8v-5.4l-.2-.799997h2.3l-.2.799997v1.4l.1-.2 1.4-1.4.2-.599997h2.1l.2.2-1.8 1.999997 1.4 3.9.6.9h-2.5zM38.8026 2.32988h-.8l-.1.1v4.2l.3 1h-2.6l.3-1v-4.2l-.1-.1h-.6l-1 .3.7-1.999997h4.3l.7 1.999997-1.1-.3zM46.0027 7.62986l.1-.8-.1-.6-.2-.1h-1.6l-.1.1-.1.6.1.8h-2.3l.4-.8 1.4-5.5-.1-.600002h3.4l-.1.600002 1.4 5.5.4.8h-2.6zm-1-5.2v-.3.3l-.6 2.1.1.1h.9l.1-.1-.5-2.1zM51.2026 7.62986l.2-.8v-5.4l-.2-.700002h2.4l-.2.800002v5.4l.2.8h-2.4v-.1zM61.4027 7.62988h-4.1l.2-.8v-5.4l-.2-.799997h2.5l-.3.899997v4.2l.1.1h1.4l1-.3-.6 2.1zM68.6024 2.32983h-1.4l-.3.1-.1.3v.2l.2.2 1.5.3.9.9v1.9l-1.3 1.3h-2.9l-.7-2 1 .3h1.4l.3-.1.1-.3v-.3l-.1-.2-1.5-.3-.9-.9v-1.6l1.3-1.299996h2.8l.6 1.899996-.9-.4z"/>
</svg>