<svg xmlns="http://www.w3.org/2000/svg" viewBox="0 0 232.5 76.8" fill="currentColor"><path d="M132.8 42c0-4.4-6.8-14.3-7.6-15.4-.3-.4-.7-.6-1.2-.6s-1 .2-1.2.6c-.3.4-1.2 1.8-2.3 3.6-3.1-5.4-6.3-10.1-6.4-10.2-.3-.4-.7-.6-1.2-.6s-1 .2-1.2.6c-1.2 1.8-11.9 17.5-11.9 24.2 0 7.3 5.9 13.2 13.2 13.2 4.7 0 9.1-2.5 11.4-6.6 4.6-.1 8.4-4 8.4-8.8zm-19.9 12.4c-5.6 0-10.2-4.6-10.2-10.2 0-4.4 6.5-15.1 10.2-20.7 1.4 2.1 3.7 5.8 5.8 9.6-1.8 3.2-3.4 6.7-3.4 8.9 0 3.8 2.4 7 5.8 8.3-2 2.5-5 4.1-8.2 4.1zm11.1-6.6c-3.2 0-5.8-2.6-5.8-5.8 0-1.6 1.6-4.8 3.4-8 0-.1.1-.1.1-.2.8-1.3 1.5-2.6 2.3-3.7 2.6 4 5.8 9.7 5.8 11.9 0 3.2-2.6 5.8-5.8 5.8zm0 0"/></svg>