<svg xmlns="http://www.w3.org/2000/svg" fill="currentColor" viewBox="0 0 145 49">
  <path fill="var(--palette)" d="M40.2 48.0001h-2.8l-1.4-1.4v-4.1l1.4-1.4h2.7l.7 2-1.3-.4h-.7l-.6.3-.2.5v2.1l.2.5.6.3h.8l1.2-.4-.6 2zM48.2999 48h-3.1l-1.3-1.3v-4.4l1.3-1.3h3.1l1.3 1.3v4.4l-1.3 1.3zm-.7-4.8l-.2-.4-.4-.2h-.5l-.4.2-.2.4v2.6l.2.4.4.2h.5l.4-.2.2-.4v-2.6zM57.3001 48.0001h-2.8l-1.4-1.4v-4.1l1.4-1.4h2.7l.7 2-1.2-.4h-.7l-.5.3-.3.5v2.1l.2.5.6.3h.8l1.2-.4-.7 2zM65.0002 48l-.1-.9-.8-2.4h-.1l-.5.5-.1.2v1.8l.2.8h-2.4l.2-.8v-5.4l-.2-.8h2.3l-.2.8v1.4l.1-.2 1.4-1.4.2-.6h2.1l.2.2-1.8 2 1.4 3.9.6.9h-2.5zM74.1 42.7h-.8l-.1.1V47l.3 1h-2.6l.3-1v-4.2l-.1-.1h-.6l-1 .3.7-2h4.3l.7 2-1.1-.3zM81.3001 48.0001l.1-.8-.1-.6-.2-.1h-1.6l-.1.1-.1.6.1.8h-2.3l.4-.8 1.4-5.5-.1-.6h3.4l-.1.6 1.4 5.5.4.8h-2.6zm-1-5.2v-.3.3l-.6 2.1.1.1h.9l.1-.1-.5-2.1zM86.5 48.0001l.2-.8v-5.4l-.2-.7h2.4l-.2.8v5.4l.2.8h-2.4v-.1zM96.7001 48h-4.1l.2-.8v-5.4l-.2-.8h2.5l-.3.9v4.2l.1.1h1.4l1-.3-.6 2.1zM103.9 42.7h-1.4l-.3.1-.1.3v.2l.2.2 1.5.3.9.9v1.9l-1.3 1.3h-2.9l-.7002-2 1.0002.3h1.4l.3-.1.1-.3v-.3l-.1-.2-1.5-.3-.9-.9v-1.6l1.3-1.3h2.8l.6 1.9-.9-.4z"/>
  <path fill="hsla(var(--fg-hsl), 0.8)" d="M127.518 26.03h-21.01v1h21.01v-1zM38.2278 26.03h-21.01v1h21.01v-1zM76.0176 9.11001c.86.01 1.72.04 2.58.06-.1-.44-.19-.87-.29-1.31.02-.82.05-1.65.07-2.47.05-.04.09-.08.14-.13.38.01.77.02 1.15.04.33.12.67.24 1 .36.03-.74.06-1.47.09-2.21-.35.09-.69.19-1.04.29-.39-.01-.77-.03-1.16-.04l-.13-.13c.02-.61.04-1.21.05-1.82.05-.04.09-.08.14-.13.83.02 1.66.06 2.48.09.41.15.82.3 1.22.45l-.6-1.98c-1.85-.0900002-3.71-.1400002-5.57-.1700002.09.3500002.17.7000002.26 1.0400002-.04 2.34-.09 4.68-.13 7.02-.07.35-.17.69-.26 1.04zM86.1574 8.51982c.06-.78.11-1.56.17-2.33.05-.04.1-.08.14-.12.34.02.67.05 1.01.08.09.05.17.1.26.15.29 1.15.58 2.31.85 3.46.84.07 1.67.15 2.51.23-.2-.43-.4-.87-.61-1.3-.25-.92-.5-1.83-.76-2.75.54-.43 1.08-.86 1.63-1.28.07-.73.15-1.47.22-2.2-.5-.57-1-1.14-1.51-1.709996-1.9-.17-3.8-.31-5.7-.43.07.35.14.699996.21 1.049996-.14 2.34-.29 4.67-.43 7.01l-.33 1.02c.84.05 1.68.11 2.51.17-.04-.34-.11-.7-.17-1.05zm.46-6.35l.15-.12c.55.04 1.1.08 1.65.13.22.13.44.25.66.38.08.18.15.36.23.54-.02.26-.05.52-.07.78-.11.16-.21.33-.32.49-.24.09-.47.18-.71.27-.54-.04-1.09-.09-1.63-.13-.04-.05-.08-.09-.13-.14.07-.73.12-1.47.17-2.2zM133.357 10.9c-.37 1.11-.749 2.22-1.119 3.33-.05.21-.1.43-.14.64-.02-.23-.04-.47-.05-.7-.28-1.69-.58-3.39-.9-5.07998-.87-.28-1.751-.55-2.621-.82.01.37.02.73.03 1.1-.69 2.23998-1.37 4.46998-2.06 6.70998-.19.3-.37.61-.559.92.73.22 1.449.45 2.179.68.02-.36.041-.71.061-1.07.46-1.45.919-2.89 1.379-4.34.04-.21.091-.43.131-.64.019.23.049.47.069.7.38 2.08.731 4.15 1.041 6.22.55.19 1.099.37 1.649.56l2.64-7.62c.2-.3.41-.59.61-.89-.76-.26-1.509-.52-2.269-.77998-.03.36998-.051.72998-.071 1.07998zM67.8975 8.11l-.24 1.05c1.81-.05 3.62-.08 5.44-.08.24-.71.49-1.43.74-2.14l-1.41.45c-.78 0-1.56.01-2.34.02-.07-.06-.14-.13-.2-.19-.01-.71-.02-1.43-.04-2.14l.13-.13c.38-.01.77-.01 1.15-.01.34.11.68.21 1.02.32 0-.74-.01-1.47-.01-2.21l-1.02.33c-.39 0-.78.01-1.16.02-.05-.04-.09-.09-.14-.13l-.03-1.56c.04-.04.09-.09.14-.13.83-.01 1.66-.02 2.49-.02.41.13.83.26 1.24.39l-.69-1.95c-1.86 0-3.71.0299999-5.57.0799999.1.3400001.21.6900011.31 1.0300001.06 2.33.13 4.67.19 7zM122.877 14.9999c.64-2.25 1.28-4.5 1.92-6.75004.18-.31.37-.62.55-.92-.86-.24-1.71-.48-2.57-.72v1.08c-.62 2.26-1.23 4.52004-1.85 6.77004-.18.31-.35.62-.53.93.82.22 1.63.45 2.45.68.01-.35.02-.71.03-1.07zM140.608 14.5499c.26-.02.51-.03.77-.05.6.23 1.19.47 1.79.71l1.17.96.09-2.28c-1.23-.5-2.46-.98-3.69-1.45-.83.33-1.66.67-2.48 1.01-.64 1.75-1.29 3.5-1.93 5.25.36.73.71 1.47 1.06 2.2 1.05.4 2.1.81 3.14 1.23.75-.3 1.51-.61 2.27-.9.06-.26.11-.52.17-.77.21-.52.43-1.04.64-1.56.23-.19.45-.38.68-.56-.94-.39-1.88-.77-2.83-1.14.04.39.09.78.13 1.17-.23.56-.45 1.13-.67 1.69-.17.07-.35.14-.52.21-.42-.17-.84-.33-1.27-.5-.14-.15-.28-.29-.42-.44-.02-.19-.05-.39-.07-.58.47-1.23.94-2.47 1.42-3.7.17-.18.36-.34.55-.5zM112.857 12.4601c.22-.97.44-1.95.65-2.92002.05-.03.11-.06.16-.1.75.17 1.51.34 2.26.52.03.05002.07.11002.1.16002l-.69 2.91c-.17.32-.34.63-.5.95l2.46.6c0-.36 0-.72-.01-1.07.57-2.27 1.14-4.54002 1.71-6.81002.17-.31.35-.63.53-.94-.86-.22-1.72-.43-2.59-.63l.03 1.08c-.17.72-.34 1.43-.51 2.15-.05.03-.11.06-.17.09-.76-.18-1.52-.36-2.28-.53-.04-.05-.07-.1-.11-.16l.48-2.16c.17-.32.33-.64.5-.95-.86-.2-1.73-.38-2.6-.57l.06 1.08c-.49 2.29-.97 4.58-1.46 6.87002l-.48.96c.83.17 1.65.35 2.47.54.01-.36 0-.72-.01-1.07zM100.187 8.96997c-.4897.08-.9797.16-1.4597.25-.77-.11-1.55-.21-2.32-.32-.06-.07-.1199-.15-.1699-.22.09-.71.1799-1.42.2699-2.13.05-.04.1-.07.15-.11.38.05.76.1 1.15.15.32.15.64.31.96.46.1-.73.21-1.46.31-2.19-.35.06-.71.12-1.06.18-.39-.05-.77-.1-1.16-.15-.04-.05-.0799-.1-.1199-.15.07-.52.1299-1.03.1999-1.55.05-.04.1-.07.15-.11.82.11 1.65.22 2.47.33.39.19.7897.38 1.1797.56-.13-.68-.27-1.35-.4-2.03-1.8397-.27-3.6897-.51-5.5297-.72.05.36.1.71.16 1.07-.27 2.32-.54 4.65-.81 6.97-.13.33-.26.67-.38 1.00003 1.8.21 3.6001.44 5.4001.7.32-.65.6599-1.32003 1.0096-1.99003zM29.4275 13.32c0 .36-.01.72-.01 1.07.84-.21 1.69-.41 2.53-.61-.21-.4-.41-.79-.62-1.19-.15-.63-.3-1.27-.44-1.9.03-.05.07-.1.1-.16.93-.22 1.85-.43 2.78-.63.49-.73.99-1.45 1.49-2.18-.16-.76-.32-1.53-.47-2.29-.65-.4-1.3-.79-1.96-1.18-1.87.4-3.74.83-5.6 1.29.17.31.35.63.52.94.56 2.29 1.12 4.56 1.68 6.84zm.61-6.83c.54-.13 1.08-.25 1.63-.37.25.06.5.11.75.17.13.15.26.3.38.45.06.25.11.51.17.76-.05.19-.11.38-.16.57-.2.15-.4.31-.6.47-.54.12-1.07.24-1.6.37-.05-.03-.11-.06-.16-.1-.17-.72-.34-1.43-.5-2.15.02-.07.06-.12.09-.17zM17.5776 17.7501c.72-.23 1.45-.46 2.17-.68-.19-.31-.37-.61-.56-.92l-1.38-4.47c-.07-.16-.15-.32-.22-.48.12.15.23.29.35.44 1.25 1.39 2.47 2.78 3.68 4.19.02-.01.04-.01.06-.02.25-1.84.53-3.67.83-5.51.02-.19.04-.36996.06-.55996.02.17.05.34996.07.51996.42 1.5.84 3.01 1.26 4.51.01.36.01.72.02 1.07.79-.22 1.59-.44 2.39-.65-.18-.31-.35-.62-.53-.94-.61-2.26-1.21-4.51996-1.82-6.77996v-1.08c-.88.23-1.76.48-2.64.72-.26 1.5-.5 2.99996-.73 4.49996.01.1.01.2.02.31l-.15-.27c-1-1.14-2.02-2.26996-3.05-3.38996-.88.27-1.75.54-2.62.82.2.3.39.6.58.91.71 2.22996 1.42 4.45996 2.13 6.68996.04.35.06.71.08 1.07zM11.6576 11.2201c-.02-.36-.05-.72-.07-1.08-.85.29-1.68998.58-2.52998.88.2.29.41.59.61.89.77998 2.21 1.55998 4.41 2.34998 6.62.03.36.06.71.09 1.07.8-.29 1.61-.57 2.41-.84-.2-.3-.39-.6-.59-.9-.76-2.21-1.52-4.43-2.27-6.64zM57.9178 8.67001c-.06.35-.12.71-.18 1.06.84-.07 1.68-.14 2.51-.19-.11-.34-.23-.68-.34-1.02-.06-.78-.11-1.56-.17-2.33.04-.05.08-.09.13-.14.34-.02.68-.05 1.01-.07.09.04.19.08.28.11.45 1.1.9 2.2 1.34 3.3.84-.05 1.68-.09 2.52-.13-.26-.4-.52-.8-.79-1.2l-1.14-2.61c.47-.5.95-1 1.42-1.5-.03-.74-.07-1.47-.1-2.21-.58-.49-1.16-.99-1.74-1.48-1.9.1-3.8.23-5.7.39.12.34.24.68.36 1.01.2 2.34.4 4.67.59 7.01zm1.67-6.65c.55-.04 1.1-.08 1.65-.11.24.09.47.19.71.28.1.17.2.34.31.5.01.26.03.52.04.78l-.24.54c-.22.12-.44.24-.66.37-.54.03-1.09.07-1.63.11l-.15-.12c-.05-.73-.11-1.47-.16-2.2.04-.06.08-.1.13-.15zM102.158 27.3902c-.06-.04-.06-.04-.12-.06-.06-.02-.06-.02-.12-.06-.04 0-.08-.02-.12 0-.04.02-.08.06-.1.1 0 .02-.04.06-.06.1 0 .04-.02.06-.04.1-.02.04-.02.08-.04.12-.02.02-.04.06-.06.1-.02.02-.04.06-.06.1 0 .04-.02.08-.04.1-.02.04-.04.08-.04.12-.02.04-.06.06-.06.1-.02.04-.04.08-.06.1 0 .04-.04.08-.06.1-.02.04-.04.08-.06.1-.02.04-.02.08-.04.12-.02.04-.04.06-.06.1-.02.04-.04.06-.06.1-.02.04-.04.08-.06.1l-.06.12c-.02.02-.02.08-.04.1-.02.04-.06.08-.08.1l-.06.12c-.02.02-.04.06-.06.1-.02.04-.04.06-.06.1-.02.04-.04.06-.08.1-.02.04-.02.08-.04.1-.02.04-.04.08-.08.1-.02.04-.04.06-.06.1-.04.04-.04.08-.06.12-.02.02-.06.04-.08.08-.02.04-.04.08-.06.1-.02.04-.06.08-.0803.1-.02.04-.06.06-.08.1-.02.02-.04.06-.06.1-.04.02-.06.04-.1.08-.02.02-.04.06-.06.1-.04.02-.06.06-.1.08-.02.04-.04.06-.08.1-.02.02-.06.04-.1.06l-.08.08c-.04.02-.08.04-.1.06l-.12.06c-.04 0-.08.02-.12.02-.04 0-.08 0-.12-.02-.04 0-.08-.02-.1-.04-.04-.02-.06-.06-.1-.08-.02-.04-.04-.06-.06-.1-.02-.04-.02-.08-.02-.14 0-.02-.02-.06-.02-.12v-.12c.02-.04.02-.08.02-.12 0-.04 0-.08.02-.12 0-.04 0-.08.02-.12 0-.04.02-.08.04-.12 0-.04 0-.08.02-.12 0-.04.02-.08.04-.12 0-.02.02-.06.04-.1 0-.04.02-.08.02-.12.02-.06.04-.06.06-.12 0-.06.02-.06.04-.1l.04-.12c0-.06 0-.06.02-.12l.04-.12c.02-.04.02-.04.04-.1l.04-.12c.02-.06.02-.06.04-.1l.04-.12.04-.12.04-.12c.02-.04.02-.04.04-.1l.04-.12c.02-.06 0-.06.02-.12.02-.04.04-.04.04-.1l.04-.12c.02-.06.04-.06.06-.1.02-.06 0-.06.02-.12l.04-.12c.02-.06.02-.06.04-.1l.04-.12.04-.12c0-.06.02-.06.04-.1.02-.06.02-.06.02-.12.02-.06.04-.06.06-.12.02-.06 0-.06.02-.12.02-.04.02-.04.04-.1l.04-.12c.02-.06.02-.06.04-.1l.04-.12.04-.12c.0203-.06.0203-.06.0403-.1l.04-.12.04-.12c0-.04.02-.08.02-.12l.06-.12c.02-.04.02-.08.02-.12.02-.04.02-.08.04-.12 0-.04.02-.08.02-.12.02-.04.02-.08.02-.12 0-.04.02-.08.02-.12.02-.04 0-.08.02-.12v-.5c0-.04 0-.08-.02-.12 0-.04-.02-.08-.02-.12l-.06-.12c0-.04-.02-.08-.04-.1l-.06-.12c-.02-.02-.04-.06-.06-.1-.02-.04-.04-.06-.0803-.1-.02-.02-.04-.06-.08-.08-.02-.04-.06-.06-.08-.1-.04-.02-.06-.04-.1-.06l-.12-.06c-.04 0-.06-.04-.1-.06-.04 0-.08-.02-.12-.02-.04-.02-.08-.04-.12-.04-.04-.02-.08-.02-.12-.02-.04 0-.08 0-.12-.02h-.24c-.04 0-.08.02-.12.02h-.12c-.04.02-.06.04-.1.04-.04 0-.08.02-.12.02-.04.02-.08.04-.1.06-.04 0-.08 0-.12.02-.04.02-.06.04-.1.06-.04.02-.08.04-.1.06l-.12.06c-.02.02-.06.04-.08.06-.04.02-.06.06-.1.08-.04.02-.06.06-.08.08-.04.02-.06.04-.1.08-.02.02-.06.04-.08.08-.04.04-.1 0-.1-.06v-.14c0-.08.02-.08.02-.16 0-.06-.02-.1-.06-.14-.04-.04-.1-.06-.16-.06h-.76c-.02 0-.06 0-.1.02-.02.02-.06.06-.06.1-.02.04-.02.06-.04.1l-.04.12c-.02.06 0 .06-.02.12s-.04.06-.06.1l-.04.12c-.02.06 0 .06-.02.12s-.02.06-.04.1c-.02.06-.04.06-.04.12l-.04.12c-.02.06-.02.06-.04.1l-.04.12-.04.12c-.02.06-.02.06-.04.1-.02.06 0 .06-.02.12s-.04.06-.06.12c-.02.06-.02.06-.04.1l-.04.12c-.02.06 0 .06-.02.12l-.04.12c-.02.04-.02.04-.04.1l-.04.12-.04.12c-.02.04-.02.04-.04.1l-.04.12c-.02.06-.02.06-.04.1l-.04.12-.04.12c-.02.06 0 .06-.02.12s-.02.06-.04.1l-.04.12-.04.12c-.02.04-.02.06-.04.1l-.04.12-.04.12c-.02.06-.02.06-.04.1l-.04.12-.04.12c-.02.04-.02.04-.04.1l-.04.12c-.01.04-.01.06-.01.08-.01.01-.02.03-.03.04-.02.04-.02.08-.04.12-.02.04-.04.08-.06.1l-.06.12c-.02.04-.04.06-.06.1-.02.04-.04.08-.06.1-.02.04-.06.06-.08.1-.02.04-.04.08-.06.1-.02.04-.06.06-.08.1-.02.04-.04.06-.06.1-.04.02-.06.06-.08.08-.04.04-.06.08-.1.1l-.08.08c-.02.02-.06.06-.1.08-.02.02-.04.06-.08.08-.04.02-.06.04-.1.06-.04.02-.06.06-.1.08-.04.02-.08.02-.12.04-.04.02-.06.04-.1.06-.04.02-.08.04-.12.04-.04.02-.08.02-.12.02-.04.02-.08.04-.12.04-.04.02-.08.02-.12.02-.02.02-.06.02-.12.02-.04 0-.06.02-.12.02-.02 0-.06-.02-.08-.04-.02-.02-.02-.06-.02-.1.02-.04.04-.08.04-.12.02-.02.04-.06.06-.1 0-.04 0-.08.02-.12 0-.04.02-.08.04-.12 0-.04.02-.08.04-.1 0-.04.02-.08.04-.12l.04-.12c.02-.06 0-.06.02-.12l.04-.12c.02-.04.04-.04.06-.1l.04-.12c.02-.06.02-.06.02-.12.02-.06.04-.06.06-.12.02-.04 0-.06.02-.12.02-.04.02-.04.04-.1.02-.06.04-.06.06-.12l.04-.12c0-.06 0-.06.02-.12s.02-.06.04-.1l.04-.12.04-.12.04-.12.04-.12c.02-.04 0-.06.02-.12.02-.04.04-.04.04-.1l.04-.12c.02-.06.04-.06.06-.12.02-.06.02-.06.04-.1.02-.06 0-.08.02-.12.02-.06.04-.06.06-.12.02-.06 0-.06.02-.12.02-.04.02-.08.04-.12 0-.04.04-.08.04-.12.02-.04.02-.08.02-.12.02-.04.02-.08.04-.12 0-.04 0-.08.02-.12v-.12c0-.04 0-.08.02-.12v-.26c0-.04-.02-.08-.02-.12v-.12c0-.04-.02-.08-.02-.12-.02-.04-.04-.08-.04-.12-.02-.04-.02-.08-.04-.1 0-.04-.02-.08-.04-.12 0-.04-.04-.08-.06-.1-.02-.04-.04-.08-.06-.1-.02-.04-.04-.08-.06-.1-.02-.04-.04-.08-.06-.1l-.08-.08c-.04-.04-.06-.08-.08-.1-.04-.02-.08-.04-.1-.06-.04-.04-.06-.06-.1-.08-.04-.02-.06-.04-.1-.06-.04-.02-.06-.04-.1-.06-.04-.02-.08-.02-.12-.04-.04-.02-.06-.04-.1-.04-.04-.02-.08-.02-.12-.04-.04 0-.08-.02-.12-.04-.04 0-.06-.02-.1-.02-.04-.02-.08 0-.12 0-.04-.02-.08-.04-.12-.04-.04 0-.08.02-.12.02-.04-.02-.08-.02-.12-.02h-.24c-.04.02-.08.02-.12.02-.04 0-.08.02-.12.02-.04 0-.08 0-.12.02-.02 0-.06.02-.1.02l-.12.06c-.04 0-.08.02-.1.02-.04.02-.08.02-.12.04-.04.02-.08.04-.12.04-.02.02-.06.04-.1.06-.04.02-.08.04-.1.06-.04.02-.08.04-.1.06-.04.02-.08.04-.1.06-.04.04-.06.06-.1.08-.02.04-.06.06-.08.08-.04.04-.06.06-.1.08-.02.04-.06.06-.08.08-.02.04-.06.06-.08.1l-.08.08c-.02.04-.04.06-.08.1-.02.04-.04.06-.06.1-.02.04-.04.08-.06.1-.02.04-.04.08-.06.1-.02.04-.04.08-.06.1l-.06.12c-.02.02-.04.06-.06.1-.02.02-.02.06-.04.1l-.06.12c-.02.02-.04.06-.04.1-.02.04-.04.08-.06.1-.02.04-.02.08-.04.12 0 .04-.02.08-.04.12 0 .04-.04.06-.04.1-.02.04-.04.08-.04.12-.02.06-.02.04-.04.1l-.04.12-.04.12c-.02.04 0 .06-.02.1-.02.06-.04.06-.06.12l-.04.12c-.02.04 0 .04-.02.1l-.04.12-.04.12c-.02.04-.04.04-.04.1l-.04.12c-.02.06-.02.06-.04.1-.02.06 0 .06-.02.12s-.04.06-.06.1l-.04.12-.04.12c-.02.06 0 .06-.02.12-.02.04-.04.04-.04.1l-.04.12c-.01.02-.01.03-.01.04-.01.02-.02.03-.03.04-.02.04-.02.08-.04.1l-.06.12c0 .04-.02.06-.04.1-.02.04-.04.06-.06.1-.02.04-.02.08-.04.12-.02.02-.04.06-.06.1-.02.02-.06.06-.08.1 0 .02-.02.06-.04.1-.02.02-.04.06-.06.1l-.06.12c-.02.02-.04.06-.06.1-.02.02-.04.06-.06.1-.02.04-.04.06-.06.1l-.06.12c-.02.02-.04.06-.06.1-.02.02-.04.06-.06.1-.02.04-.04.06-.08.1-.02.04-.02.06-.06.1-.02.04-.04.06-.06.1-.02.04-.04.08-.06.1-.02.04-.04.08-.06.1-.04.04-.06.08-.08.1-.02.04-.04.08-.06.1-.02.04-.06.06-.08.1-.02.04-.06.06-.08.1-.02.02-.04.06-.08.08-.02.04-.04.08-.06.1-.02.04-.06.06-.1.08-.02.04-.04.08-.08.1-.02.04-.06.06-.08.08-.02.04-.06.06-.08.1-.04.02-.08.04-.1.06-.04.02-.08.06-.1.08-.04.02-.08.02-.12.04-.04.02-.08.02-.12.02-.04 0-.08 0-.12-.02-.04 0-.08-.02-.12-.04-.02-.02-.06-.04-.08-.08-.02-.04-.04-.06-.06-.12 0-.02-.02-.06-.02-.12 0-.02-.02-.06-.02-.12 0-.02.02-.06.02-.12v-.12c0-.04.02-.08.02-.12.02-.04 0-.08.02-.12 0-.04.02-.08.02-.12.02-.04.02-.08.04-.12 0-.04.02-.06.04-.1.02-.04.02-.08.04-.12 0-.04.02-.08.04-.12.02-.06 0-.06.02-.12l.04-.12c.02-.04.02-.04.04-.1.02-.06.04-.06.06-.12.02-.06.02-.06.02-.12.02-.04.02-.04.04-.1l.04-.12.04-.12c.02-.04.02-.04.04-.1l.04-.12c0-.06.02-.06.04-.12.02-.04 0-.06.02-.12.02-.04.02-.04.04-.1.02-.06.04-.06.06-.12.02-.06.02-.04.04-.1.02-.06 0-.06.02-.12l.04-.12c.02-.06.02-.06.04-.1.02-.06.04-.06.06-.12 0-.06 0-.06.02-.12l.04-.12c.02-.04.02-.04.04-.1l.04-.12c.02-.06.02-.06.04-.1.02-.06 0-.06.02-.12l.04-.12.04-.12c.02-.04.02-.06.04-.1.02-.06.04-.06.06-.12.02-.06.02-.06.04-.1.02-.06 0-.08.02-.12l.04-.12.04-.12c.02-.04.02-.04.04-.1l.04-.12.04-.12c.02-.06.02-.04.04-.1l.04-.12c.02-.06.02-.06.02-.12.02-.06.04-.04.06-.1.02-.06 0-.06.02-.12s.04-.06.06-.12c0-.04 0-.06.02-.1l.04-.12.04-.12.04-.12c0-.04.02-.04.04-.1l.04-.12c.02-.06.02-.06.04-.1l.04-.12c.02-.06 0-.06.02-.12l.04-.12c.02-.04.02-.04.04-.1l.04-.12h.02c0-.02 0-.06-.02-.08 0-.04 0-.08-.02-.1l-.06-.06c-.04-.02-.06-.02-.1-.02h-.72c-.06 0-.06-.02-.12-.02s-.06.02-.12.02h-.12c-.06 0-.1 0-.12.04-.04.02-.06.06-.08.1-.02.06 0 .06-.02.1-.02.06-.04.06-.06.12l-.04.12c-.02.04 0 .06-.02.1-.02.06-.04.06-.06.12-.02.06 0 .06-.02.12-.02.04-.02.06-.04.1-.02.06-.04.06-.06.12 0 .06 0 .06-.02.1l-.04.12c-.02.06-.02.06-.02.12-.02.06-.04.06-.06.1-.02.06 0 .06-.02.12s-.04.06-.06.12c-.02.06 0 .06-.02.1-.02.06-.04.06-.06.12-.02.06-.02.06-.04.1-.02.06 0 .06-.02.12l-.04.12c-.02.06-.02.06-.04.1-.02.06 0 .08-.02.12-.02.06-.04.06-.06.12-.02.06 0 .06-.02.12-.02.04-.02.04-.04.1l-.04.12c-.02.06-.04.06-.04.1l-.04.12-.04.12c-.02.06-.04.04-.06.1-.02.06 0 .06-.02.12l-.04.12c-.02.04-.02.04-.04.1l-.04.12c-.02.06-.02.06-.04.1l-.04.12c0 .06 0 .06-.02.12s-.04.04-.06.1c-.02.06 0 .06-.02.12l-.04.12c-.02.06-.04.04-.06.1-.01.03-.01.04-.01.06-.02.02-.03.05-.05.08 0 .04-.02.08-.04.12 0 .02-.02.06-.04.1-.02.04-.06.06-.08.1 0 .04-.02.08-.04.12-.02.02-.04.06-.06.1-.02.02-.04.06-.06.1-.02.02-.04.08-.06.1-.02.04-.04.08-.06.1-.02.04-.04.08-.06.1l-.06.12c-.02.04-.06.06-.08.1-.02.02-.02.06-.04.1-.02.04-.06.06-.08.1-.02.02-.04.06-.06.1-.02.04-.04.06-.06.1-.02.04-.06.06-.08.1-.02.02-.04.06-.06.1-.02.04-.04.06-.08.1-.02.02-.04.06-.06.1l-.08.08c-.02.04-.06.06-.08.1-.02.02-.04.06-.06.1-.04.02-.06.06-.08.08-.02.04-.04.08-.08.1-.02.04-.06.06-.08.08-.02.04-.06.06-.08.08-.04.04-.06.08-.08.1-.04.02-.08.04-.1.06-.04.04-.06.06-.08.1-.04.02-.06.04-.1.06-.04.04-.06.06-.1.08-.04.02-.06.04-.1.06-.04.02-.08.04-.12.04-.02.02-.06.04-.1.06-.04.02-.08.02-.12.02h-.12c-.04 0-.08.02-.12 0-.04 0-.08-.02-.12-.04-.04-.02-.06-.04-.1-.06l-.06-.12c-.02-.02-.02-.06-.04-.12 0-.04-.02-.08-.02-.12v-.24c0-.04 0-.08.02-.12 0-.04 0-.08.02-.12 0-.04.02-.08.02-.14.02-.02.04-.06.04-.1.02-.04.02-.08.04-.12 0-.04.02-.08.02-.12.02-.04.02-.08.04-.12l.04-.12c.02-.06.02-.06.04-.1l.04-.12.04-.12c.02-.06.02-.06.04-.1l.04-.12.04-.12c.02-.06 0-.06.02-.1l.04-.12c.02-.06.04-.06.06-.12.02-.04.02-.04.04-.1.02-.06 0-.06.02-.12l.04-.12c.02-.04.02-.04.04-.1l.04-.12.04-.12c.02-.04.02-.04.04-.1l.04-.12c.02-.04.02-.04.04-.1.02-.06 0-.06.02-.12s.04-.06.06-.12c.02-.04 0-.04.02-.1l.04-.12.04-.12c.02-.06.04-.04.06-.1.02-.06 0-.06.02-.12l.04-.12c.02-.04.02-.04.04-.1.02-.06 0-.06.02-.12s.04-.06.06-.1l.04-.12c.02-.06 0-.06.02-.12s.02-.06.04-.1l.04-.12.04-.12c.02-.04.04-.04.06-.1 0-.06 0-.06.02-.12l.04-.12c.02-.04.02-.04.04-.1l.04-.12c.02-.06.02-.04.04-.1.02-.06 0-.06.02-.12s.04-.06.06-.12c.02-.04 0-.04.02-.1l.04-.12c.02-.06.04-.06.06-.1.02-.06 0-.06.02-.12l.04-.12.04-.12c.02-.04.02-.04.04-.1l.04-.12c.02-.06.02-.06.04-.1l.04-.12c.02-.06 0-.06.02-.12.02-.04.06-.06.1-.06H85.0177c.04 0 .08 0 .12-.02l.06-.12c.02-.04.02-.04.04-.1l.04-.12c.02-.06.02-.06.04-.1l.04-.12c.02-.04.02-.06.02-.1 0-.02-.02-.06-.04-.08-.02-.04-.04-.06-.06-.08-.04 0-.06-.02-.1-.02-.06 0-.06.02-.12.02s-.06-.02-.12-.02c-.04 0-.04.02-.1.02h-.12c-.06 0-.06-.02-.12-.02s-.06.02-.12.02h-.22c-.06 0-.06-.02-.12-.02s-.06.02-.12.02c-.04 0-.06-.02-.08-.06-.02-.02-.02-.06-.02-.08l.04-.12c.02-.06.04-.04.06-.1.02-.06 0-.06.02-.12l.04-.12c.02-.06.02-.06.04-.1l.04-.12.04-.12c.02-.06 0-.06.02-.12.02-.04.04-.04.06-.1l.04-.12c.02-.04.02-.04.04-.1.02-.06 0-.06.02-.12l.04-.12c.02-.04.02-.06.04-.1l.04-.12.04-.12c.02-.04.02-.06.04-.1l.04-.12.04-.12c.02-.04 0-.06.02-.1.02-.06.04-.06.06-.12 0-.06.02-.06.04-.1.02-.06 0-.06.02-.12l.04-.12c.02-.06.02-.06.04-.1.02-.04 0-.08 0-.1 0-.04 0-.06-.02-.1-.02-.02-.04-.04-.08-.06h-.08c-.06 0-.06-.02-.12-.02h-.24c-.06 0-.06.02-.12.02s-.06-.02-.12-.02h-.12c-.08 0-.08.02-.14.02-.06 0-.06-.02-.12-.02h-.12c-.04 0-.08.02-.12.04-.02.02-.04.06-.06.1l-.04.12c-.02.06-.02.06-.04.1l-.04.12c-.02.06-.02.06-.04.1l-.04.12c0 .06-.02.06-.04.12-.02.04 0 .04-.02.1l-.04.12c-.02.06-.04.06-.04.1l-.04.12-.04.12c0 .06-.02.04-.04.1-.02.06-.02.06-.02.12-.02.06-.04.06-.06.1l-.04.12c-.02.06 0 .06-.02.12-.02.04-.04.04-.06.1 0 .06 0 .06-.02.12s-.02.06-.04.1l-.04.12c-.02.06-.02.06-.04.1-.02.06-.02.06-.02.12-.02.06-.04.06-.06.12-.02.04-.02.06-.02.1l-.04.12-.04.12c-.02.04-.02.04-.04.1-.02.04-.06.08-.1.08h-.12c-.04 0-.04-.02-.1-.02h-.12c-.06 0-.06.02-.12.02-.04 0-.04-.02-.1-.02-.06 0-.06.02-.12.02h-.22c-.04 0-.08 0-.12.02-.04.02-.06.06-.08.1-.02.06 0 .06-.02.12-.04.06-.02.06-.04.1-.02.06-.04.06-.06.12l-.04.12c0 .02-.02.06-.02.08 0 .04.02.06.04.1.02.02.04.04.08.06.02.02.06.02.08.02h.72c.04 0 .06.02.08.04.02.02.04.06.04.1-.02.06-.04.04-.06.1l-.04.12c-.02.06 0 .06-.02.12-.02.04-.02.04-.04.1l-.04.12c-.02.06-.02.06-.04.1l-.04.12-.04.12c-.02.06-.02.04-.04.1l-.04.12c-.02.06-.02.06-.04.1-.02.06 0 .08-.02.12l-.04.12-.04.12c-.02.04-.04.04-.06.1-.02.06 0 .06-.02.12s-.04.04-.06.1c-.02.06 0 .06-.02.12l-.04.12c-.02.04-.02.04-.04.1l-.04.12c-.02.06 0 .06-.02.12-.02.04-.02.04-.04.1-.02.06-.04.06-.04.12-.02.06-.04.04-.06.1-.02.06 0 .06-.02.12s-.04.06-.06.1c-.02.06 0 .06-.02.12l-.04.12c-.02.06-.02.06-.04.1l-.04.12-.04.12c-.02.04-.02.06-.04.1l-.04.12c0 .06 0 .06-.02.12s-.04.04-.06.1c-.02.06 0 .06-.02.12l-.01.04c-.01.01-.02.03-.03.04-.02.04-.02.07-.04.09-.01.01-.02.02-.02.05-.01.02-.01.04-.01.05 0 .01-.01.02-.01.03-.02.04-.04.06-.06.1-.02.04-.04.06-.06.1-.02.04-.04.06-.06.1 0 .04-.02.08-.04.1l-.06.12c-.02.04-.04.06-.06.1-.02.02-.04.06-.06.1-.02.04-.02.08-.04.12l-.08.08-.06.12c-.02.02-.04.06-.06.1-.02.04-.04.06-.06.1-.02.02-.06.06-.08.1-.02.02-.04.06-.06.1-.02.02-.04.06-.06.1l-.08.08c-.02.04-.04.08-.06.1-.04.04-.06.08-.08.1-.02.04-.04.06-.08.1l-.08.08c-.02.04-.04.08-.06.1-.02.04-.06.06-.08.08-.04.04-.06.06-.08.1-.04.02-.08.04-.1.08-.02.02-.06.04-.08.08-.04.02-.06.06-.08.08-.02.04-.06.06-.1.08-.02.04-.06.04-.1.06-.02.04-.06.06-.08.08-.04.02-.06.06-.1.08-.02.02-.06.06-.1.08-.02.02-.06.04-.1.06-.04.02-.06.02-.1.04l-.12.06c-.02.02-.06.04-.1.06-.04.02-.08.02-.1.04-.04.02-.08.02-.12.04-.04 0-.08 0-.12.02-.04 0-.08.02-.12.02-.04 0-.08.02-.12.02-.04.02-.08 0-.12 0-.04 0-.08.02-.12.02h-.12c-.04-.02-.08-.02-.12-.02-.04 0-.08-.02-.1-.02-.04 0-.1 0-.12-.02-.04 0-.08-.02-.12-.04-.04-.02-.08-.04-.1-.04l-.12-.06-.08-.08c-.04-.02-.08-.04-.1-.08l-.08-.08-.06-.12c-.02-.02-.04-.06-.06-.1-.02-.02-.04-.06-.04-.1-.02-.04-.04-.08-.04-.12-.02-.04-.02-.08-.02-.12-.02-.04-.02-.08-.02-.12v-.6c.02-.04.02-.08.04-.12 0-.04-.02-.08 0-.12 0-.04.02-.08.02-.12 0-.04.02-.06.04-.1 0-.04.02-.08.02-.12.02-.04.02-.08.04-.12 0-.04.02-.08.02-.12.02-.04.04-.08.04-.1l.04-.12.04-.12.04-.12c.02-.06.02-.04.04-.1l.04-.12.04-.12.04-.12c.02-.04 0-.06.02-.1.02-.06.04-.06.06-.12l.04-.12c.02-.06 0-.06.02-.12.02-.04.02-.06.04-.1l.04-.12.04-.12c.02-.06.04-.04.06-.1.02-.06 0-.06.02-.12l.04-.12.04-.12c.02-.04.02-.06.04-.1l.04-.12.04-.12.04-.12c.02-.04.02-.06.04-.1l.04-.12c.02-.04.02-.08.04-.12 0-.04.02-.08.04-.1.02-.04.02-.08.04-.12.02-.04.04-.08.04-.12.02-.04.04-.08.06-.1 0-.04.02-.08.04-.12.02-.04.02-.08.04-.12.02-.04.02-.08.04-.1l.06-.12c.02-.04.06-.06.08-.1.02-.04.02-.08.04-.1.02-.04.04-.08.08-.1.02-.04.04-.08.06-.1.04-.04.06-.06.1-.08.02-.04.06-.06.08-.08.04-.04.08-.06.1-.08.04-.02.08-.02.12-.04.04-.02.08-.04.12-.04.04-.02.08-.02.12-.02.04-.02.08-.02.12-.02h.12c.04.02.08.02.12.02.04.02.08.04.1.06.04.02.08.04.1.06.04.04.06.06.08.1.04.02.04.06.06.1.02.04.02.08.04.12 0 .04.02.08.02.12v.24c-.02.04 0 .08 0 .12-.02.04-.04.06-.04.1-.02.04-.02.08-.02.12-.02.04-.02.08-.04.12 0 .04-.02.08-.04.12-.02.04-.02.08-.02.12-.02.02-.04.06-.06.1v.1c.02.04.02.08.04.1.04.02.06.04.1.06.04 0 .06 0 .1-.02.06 0 .06 0 .12-.02.06 0 .06 0 .12-.02.04-.02.04 0 .1-.02.06 0 .06 0 .12-.02l.12-.04c.04-.02.06 0 .1-.02.06 0 .06 0 .12-.02l.12-.04c.06 0 .06 0 .1-.02.04 0 .08-.02.1-.04.02-.04.04-.06.06-.1 0-.04.02-.08.04-.12 0-.04.02-.06.02-.1.02-.04.02-.08.04-.12 0-.04 0-.08.02-.12 0-.04 0-.08.02-.12v-.12c.02-.04.02-.08.02-.1.02-.04 0-.08 0-.12v-.12c-.02-.04-.02-.08-.02-.12 0-.04 0-.08-.02-.12 0-.04-.02-.08-.02-.12-.02-.04-.02-.08-.04-.1 0-.04-.02-.08-.04-.12-.02-.04-.02-.08-.04-.1-.02-.04-.04-.08-.06-.1-.02-.04-.06-.08-.08-.1-.02-.04-.04-.06-.06-.1-.04-.02-.06-.06-.1-.08-.02-.02-.04-.06-.08-.08-.02-.04-.06-.04-.1-.06-.04-.02-.06-.06-.1-.08-.02-.02-.06-.04-.1-.04-.04-.02-.08-.04-.12-.04-.04-.02-.06-.06-.1-.06-.04-.02-.08-.02-.12-.04-.04 0-.06-.02-.1-.02-.04-.02-.08-.02-.12-.04h-.12c-.04-.02-.08-.02-.12-.02h-.12c-.04 0-.08-.02-.12-.02h-.24c-.04 0-.08.02-.12.02h-.12c-.04 0-.08.02-.12.02-.04 0-.08 0-.12.02-.04 0-.06.02-.1.04-.04 0-.08 0-.12.02-.04.02-.08.02-.12.04-.04.02-.08.02-.1.04l-.12.06c-.04 0-.06.04-.1.06-.04.02-.08.04-.1.06-.04.02-.08.04-.1.06-.04.02-.08.04-.1.08-.04.02-.06.04-.1.06-.02.04-.06.06-.08.08-.04.04-.06.06-.08.1-.04.02-.06.06-.08.08-.04.04-.06.06-.08.1l-.08.08c-.02.04-.04.08-.08.1-.02.04-.04.08-.06.1-.02.04-.04.08-.06.1l-.06.12c-.02.02-.04.06-.06.1-.02.04-.04.06-.06.1 0 .04-.04.06-.06.1-.02.04-.02.08-.04.12-.02.04-.02.08-.04.1l-.06.12c0 .04-.02.08-.04.12 0 .02-.02.06-.02.1l-.06.12c-.02.06-.02.06-.04.1l-.04.12-.04.12c-.02.06 0 .06-.02.12s-.04.04-.06.1c-.02.06-.02.06-.02.12-.02.06-.04.06-.06.12-.02.04-.02.04-.02.1l-.04.12-.04.12c-.02.06-.02.06-.04.1l-.04.12-.04.12c-.02.06-.02.06-.04.1-.02.06 0 .06-.02.12l-.04.12c-.02.06-.04.06-.06.1-.02.06 0 .06-.02.12l-.04.12-.03.08c0 .01-.01.02-.01.02-.02.04-.02.08-.04.1l-.06.12c-.02.02-.04.06-.06.08-.02.04-.02.08-.04.12-.02.04-.04.06-.06.1h.02c-.02.04-.04.06-.06.1-.02.04-.04.08-.06.1-.02.04-.04.08-.06.1l-.06.12c-.02.02-.04.06-.06.1-.02.04-.06.06-.08.1-.02.04-.04.06-.06.1-.02.04-.04.06-.06.1l-.06.12c-.02.02-.04.06-.08.08-.02.04-.04.08-.06.1-.02.04-.06.06-.08.1-.02.02-.04.06-.06.08-.04.04-.06.08-.08.1-.02.04-.04.08-.08.1-.02.04-.04.06-.08.1l-.08.08c-.02.02-.04.06-.08.08-.02.04-.04.08-.06.1-.04.04-.08.06-.1.08l-.08.08c-.04.04-.06.06-.1.08-.02.04-.06.06-.08.08-.04.04-.06.06-.1.08-.02.04-.04.06-.08.08-.04.04-.06.06-.1.08l-.08.08c-.04.02-.08.04-.1.06-.04.02-.08.04-.1.06l-.12.06c-.04.02-.06.04-.1.06-.04.02-.06.04-.1.06-.04.02-.08.04-.12.04-.04.02-.06.04-.1.06-.04.02-.08.02-.12.04-.04 0-.08.04-.1.04-.04.02-.08.02-.12.02-.04.02-.08.04-.12.04-.04.02-.08.02-.12.02-.04 0-.08.02-.12.02-.04 0-.08.02-.12.02-.04 0-.08 0-.12.02-.04 0-.08-.02-.12-.02-.04 0-.08.02-.12 0h-.12c-.04 0-.08-.02-.12-.02-.04 0-.08 0-.12-.02-.04 0-.08-.02-.12-.02-.04-.02-.08-.02-.12-.04-.02-.02-.06-.04-.1-.04-.04-.02-.06-.06-.1-.08-.04-.02-.08-.04-.1-.06-.04-.02-.08-.04-.1-.08-.04-.02-.06-.06-.08-.08-.02-.04-.04-.08-.06-.1-.04-.04-.04-.08-.06-.12-.02-.02-.04-.06-.06-.1 0-.04-.04-.08-.04-.12-.02-.02-.02-.06-.04-.12 0-.02 0-.06-.02-.12V29.9302c0-.04.02-.08.02-.12v-.12c.02-.02.02-.06.02-.1.02-.04 0-.08 0-.12.02-.04.04-.06.06-.1 0-.04.02-.08.02-.12.02-.04.02-.04.04-.1.02-.06.02-.06.02-.1l.04-.12c.02-.06.02-.04.04-.1 0-.04.04-.06.06-.08.04 0 .08.02.1.04.04.02.06.06.1.08.02.02.06.04.1.06l.12.06c.02.02.06.04.1.06.04 0 .06.04.1.04.04.02.08.02.12.04.04 0 .08.02.12.02.04.02.08.02.12.02.04 0 .08.02.12.02h.36c.04 0 .08-.02.12-.02.04-.02.08-.02.12-.02.04-.02.08-.02.12-.02.04-.02.08-.02.12-.04.04 0 .08-.02.12-.04.04 0 .08 0 .12-.02.04 0 .06-.04.1-.06.04 0 .08-.02.1-.04.04-.02.08-.02.12-.04.04-.02.06-.06.1-.08.04-.02.06-.04.1-.06.04-.02.06-.06.1-.08.02-.04.06-.06.08-.08.04-.04.06-.06.08-.1.04-.02.06-.04.1-.08.02-.02.04-.06.06-.1.04-.02.06-.06.08-.08l.06-.12c.02-.04.06-.06.08-.08.02-.04.02-.08.04-.12.02-.04.04-.08.06-.1.02-.04.04-.08.04-.12.02-.04.04-.06.06-.1l.06-.12c0-.04.04-.06.04-.1.02-.04.02-.08.04-.12.02-.04.02-.08.04-.12.02-.04.04-.06.04-.1.02-.04.04-.08.04-.12.02-.04.02-.08.04-.12.02-.04.04-.08.04-.1.02-.06 0-.06.02-.12l.04-.12c.02-.06.02-.06.04-.1l.04-.12.04-.12c.02-.04.02-.04.04-.1.02-.06.02-.06.02-.12.02-.04.02-.06.04-.1l.04-.12c0-.06.02-.06.04-.1 0-.04 0-.1.02-.14 0-.04.04-.06.04-.1.02-.06 0-.1.02-.14 0-.04 0-.08.02-.12 0-.04.02-.08.02-.12 0-.04-.02-.08-.02-.12 0-.04.02-.08.02-.12 0-.04-.02-.08-.02-.12-.02-.04-.02-.08-.02-.12 0-.04-.02-.08-.02-.12-.02-.04-.02-.08-.04-.12-.02-.04-.04-.06-.06-.1-.02-.04-.02-.08-.04-.1-.02-.04-.04-.08-.06-.1l-.06-.12-.08-.08c-.02-.04-.06-.06-.08-.08-.04-.04-.06-.06-.08-.1-.04-.02-.08-.04-.1-.06-.04-.02-.08-.04-.1-.06-.04-.02-.08-.04-.1-.06l-.12-.06c-.02-.02-.06-.04-.1-.04l-.12-.06c-.02 0-.08-.02-.1-.02-.04-.02-.08-.04-.12-.04-.04-.02-.08 0-.12-.02-.04 0-.08-.02-.12-.02-.04-.02-.08-.02-.12-.02h-.36c-.02 0-.06 0-.1.02-.04 0-.08-.02-.12 0h-.12c-.04.02-.08.02-.12.02-.04 0-.08.04-.12.04-.04.02-.08 0-.12.02-.02.02-.06.04-.1.04-.04.02-.08.02-.12.04-.04 0-.08.02-.1.04-.04.02-.08.04-.1.06l-.12.06c-.02.02-.06.02-.1.04-.04.02-.06.04-.1.08-.04.02-.06.04-.1.06-.02.02-.04.06-.08.08-.02.04-.06.06-.08.08-.04.02-.06.06-.1.08-.02.04-.04.06-.08.1-.02.02-.04.06-.06.08-.04.04-.06.06-.08.1-.02.04-.04.06-.06.1-.02.04-.04.06-.06.1-.04.02-.06.06-.08.1-.02.02-.04.06-.06.1 0 .04-.04.06-.06.1 0 .04-.02.08-.04.1-.02.04-.02.08-.04.12-.02.04-.04.06-.06.1-.02.04-.02.08-.04.12-.02.02-.04.06-.04.1-.02.04-.04.08-.04.12-.02.04-.04.06-.06.1 0 .04-.02.08-.04.12-.02.06-.02.06-.02.1-.02.06-.04.06-.06.12-.02.06 0 .06-.02.12l-.04.12c-.02.04-.02.06-.04.1l-.04.12-.04.12c-.02.04-.02.06-.04.1 0 .06-.02.06-.02.12l-.04.12c-.02.06-.04.04-.06.1l-.04.12c-.02.06 0 .06-.02.12s-.02.06-.04.1c-.02.06-.04.06-.06.12-.02.06 0 .06-.02.12l-.04.12c-.02.04-.02.04-.04.1l-.04.12-.04.12c-.02.04-.02.04-.04.1v.02c-.01.03-.02.07-.03.09l-.06.12c-.02.02-.04.06-.06.1-.02.04-.02.08-.04.1-.02.04-.04.06-.06.1l-.06.12c0 .02-.04.06-.06.1-.02.02-.02.08-.04.1l-.06.12c-.02.02-.04.06-.06.08l-.06.12c-.02.02-.04.06-.06.1-.02.04-.04.08-.06.1-.02.04-.04.08-.06.1l-.06.12c-.02.04-.04.06-.06.1-.02.04-.06.06-.08.1-.02.04-.04.06-.06.1-.02.04-.04.08-.06.1-.02.04-.06.06-.08.1-.02.04-.04.08-.06.1-.02.04-.04.08-.06.1-.02.04-.06.06-.08.1-.02.04-.04.06-.06.1-.04.04-.04.06-.08.1-.02.04-.06.06-.08.08-.02.04-.04.08-.08.1-.02.04-.04.06-.08.1-.02.02-.06.04-.08.08-.04.02-.06.06-.08.1-.02.02-.06.04-.1.06-.02.04-.06.06-.08.08l-.12.06c-.04.02-.06.04-.1.04-.04.02-.08.04-.12.04-.04 0-.08 0-.12-.02-.04 0-.08-.02-.12-.04-.04-.02-.06-.04-.08-.08-.04-.02-.04-.06-.06-.12-.02-.02-.02-.06-.02-.12 0-.02-.02-.06-.02-.12v-.24c.02-.04.02-.08.04-.12 0-.04.02-.08.02-.12 0-.04.02-.08.04-.12 0-.04 0-.08.02-.12 0-.04.02-.06.04-.1.02-.04.02-.08.02-.12.02-.04.02-.08.04-.12l.04-.12.04-.12c.02-.04.02-.06.04-.1l.04-.12.04-.12c.02-.04.02-.06.04-.12.02-.04.02-.04.04-.1l.04-.12.04-.12c.02-.04.02-.06.02-.1.02-.06.04-.06.06-.12l.04-.12c.02-.06.02-.06.04-.1l.04-.12c.02-.06 0-.06.02-.12l.04-.12c.02-.04.02-.06.04-.1.02-.06.04-.06.06-.12.02-.06 0-.06.02-.12l.04-.12c.02-.04.02-.04.04-.1l.04-.12c.02-.06.02-.06.04-.1l.04-.12.04-.12.04-.12c.02-.04 0-.06.02-.1l.04-.12c.02-.06.04-.06.06-.12.02-.04 0-.06.02-.12.02-.04.04-.04.06-.1.02-.06 0-.06.02-.12l.04-.12c.02-.04.02-.06.04-.1l.04-.12.04-.12c.02-.06.02-.04.04-.1.02-.06 0-.06.02-.12s.04-.06.06-.12c.02-.06.02-.06.04-.1.02-.06 0-.06.02-.12s.04-.06.06-.12c.02-.06 0-.06.02-.12s.04-.04.06-.1c.02-.06 0-.06.02-.12l.04-.12c.02-.06.02-.06.04-.1l.04-.12.04-.12.04-.12c.02-.04.02-.04.04-.1l.04-.12.04-.12c.02-.06.02-.06.04-.1.02-.06 0-.06.02-.12s.04-.06.06-.12c.02-.06 0-.06.02-.12.02-.04.04-.04.06-.1l.04-.12c0-.06 0-.06.02-.12s.02-.06.04-.1c.02-.06.04-.06.06-.12.02-.06 0-.06.02-.12l.04-.12c.02-.04.02-.04.04-.1l.04-.12c.02-.06.02-.06.02-.12.02-.06.04-.04.06-.1l.04-.12.04-.12c.02-.04 0-.06.02-.1l.04-.12c.02-.06.04-.06.06-.12.02-.06 0-.06.02-.12.02-.04.02-.06.04-.1l.04-.12.04-.12c.02-.06.02-.06.04-.1l.04-.12.04-.12c.02-.06.02-.04.04-.1l.04-.12.04-.12c.02-.06 0-.06.02-.12s.04-.04.04-.1c.02-.06.04-.06.06-.12l.04-.12c.02-.04 0-.06.02-.1l.04-.12.04-.12.04-.12c.02-.04.02-.04.04-.1.02-.06.04-.06.04-.12l.04-.12c.02-.04.02-.04.04-.1l.04-.12.04-.12c.02-.06.02-.04.04-.1l.04-.12.04-.12c.02-.06.02-.06.04-.1.02-.06 0-.06.02-.12.02-.04.02-.06.02-.1 0-.02-.02-.06-.04-.08-.02-.04-.04-.06-.06-.06-.04-.02-.06-.04-.1-.04-.06 0-.06.02-.12.02h-.36c-.06 0-.06-.02-.12-.02s-.06.02-.12.02-.06-.02-.12-.02h-.24c-.06 0-.08.02-.12.06-.04.02-.06.04-.08.08l-.04.12c-.02.06 0 .06-.02.12l-.04.12c-.02.04-.04.04-.06.1-.02.06 0 .06-.02.12s-.04.06-.06.1c-.02.06-.02.06-.02.12l-.04.12-.04.12c-.02.06-.02.04-.04.1l-.04.12-.04.12c-.02.06-.02.04-.04.1l-.04.12c-.02.06 0 .06-.02.12s-.04.04-.06.1l-.04.12c-.02.06 0 .06-.02.12s-.04.06-.06.1c0 .06 0 .06-.02.12l-.04.12-.04.12c-.02.04-.04.04-.04.1l-.04.12-.04.12c0 .06-.02.04-.04.1l-.04.12-.04.12c-.02.06-.02.06-.04.1l-.04.12-.04.12c-.02.06-.02.04-.04.1-.02.06 0 .06-.02.12l-.04.12c-.02.06-.02.06-.04.1l-.04.12-.04.12-.04.12c-.02.04-.02.04-.04.1l-.04.12-.04.12c0 .04 0 .06-.02.1-.02.06-.04.06-.06.12-.02.06 0 .06-.02.12s-.02.06-.04.1l-.04.12c-.02.06-.04.06-.06.12-.02.04 0 .06-.02.12-.02.04-.02.04-.04.1l-.04.12c-.02.06-.02.06-.04.1l-.04.12c-.02.06-.02.06-.02.12-.02.06-.04.06-.06.1-.02.06 0 .06-.02.12l-.04.12c-.02.06-.04.06-.06.12 0 .04 0 .06-.02.1-.02.06-.04.06-.06.12-.02.06 0 .06-.02.12-.02.04-.02.04-.04.1l-.04.12-.04.12c-.02.06-.02.06-.04.1l-.04.12-.04.12c-.02.04 0 .06-.02.12-.02.04-.04.04-.06.1l-.04.12c0 .06-.02.06-.02.1l-.04.12-.04.12-.04.12c-.02.04-.02.04-.04.1l-.04.12c-.02.06-.02.06-.04.1l-.04.12c-.02.06 0 .06-.02.12s-.04.06-.06.12c-.02.04-.02.04-.04.1l-.04.12-.04.12c-.02.06-.02.04-.04.1-.02.06 0 .06-.02.12s-.04.06-.06.12c-.02.04-.02.04-.04.1 0 .06 0 .06-.02.12l-.04.12-.01.03c-.01.03-.01.06-.03.07l-.06.12c-.02.02-.04.06-.06.1-.02.04-.02.08-.04.1-.02.04-.04.06-.06.1l-.06.12c0 .02-.04.06-.06.1-.02.02-.02.08-.04.1l-.06.12c-.02.02-.04.06-.06.08l-.06.12c-.02.02-.04.06-.06.1-.02.04-.04.08-.06.1-.02.04-.04.08-.06.1l-.06.12c-.02.04-.04.06-.06.1-.02.04-.06.06-.08.1-.02.04-.04.06-.06.1-.02.04-.04.08-.06.1-.02.04-.06.06-.08.1-.02.04-.04.08-.06.1-.02.04-.04.08-.06.1-.02.04-.06.06-.08.1-.02.04-.04.06-.06.1-.04.04-.04.06-.08.1-.02.04-.06.06-.08.08-.02.04-.04.08-.08.1-.02.04-.04.06-.08.1-.02.02-.06.04-.08.08-.04.02-.06.06-.08.1-.02.02-.06.04-.1.06-.02.04-.06.06-.08.08l-.12.06c-.04.02-.06.04-.1.04-.04.02-.08.04-.12.04-.04 0-.08 0-.12-.02-.04 0-.08-.02-.12-.04-.04-.02-.06-.04-.08-.08-.04-.02-.04-.06-.06-.12-.02-.02-.02-.06-.02-.12 0-.02-.02-.06-.02-.12v-.24c.02-.04.02-.08.04-.12 0-.04.02-.08.02-.12 0-.04.02-.08.04-.12 0-.04 0-.08.02-.12 0-.04.02-.06.04-.1.02-.04.02-.08.02-.12.02-.04.02-.08.04-.12l.04-.12.04-.12c.02-.04.02-.06.04-.1l.04-.12.04-.12c.02-.04.02-.06.04-.12.02-.04.02-.04.04-.1l.04-.12.04-.12c.02-.04.02-.06.02-.1.02-.06.04-.06.06-.12l.04-.12c.02-.06.02-.06.04-.1l.04-.12c.02-.06 0-.06.02-.12l.04-.12c.02-.04.02-.06.04-.1.02-.06.04-.06.06-.12.02-.06 0-.06.02-.12l.04-.12c.02-.04.02-.04.04-.1l.04-.12c.02-.06.02-.06.04-.1l.04-.12.04-.12.04-.12c.02-.04 0-.06.02-.1l.04-.12c.02-.06.04-.06.06-.12.02-.04 0-.06.02-.12.02-.04.04-.04.06-.1.02-.06 0-.06.02-.12l.04-.12c.02-.04.02-.06.04-.1l.04-.12.04-.12c.02-.06.02-.04.04-.1.02-.06 0-.06.02-.12s.04-.06.06-.12c.02-.06.02-.06.04-.1.02-.06 0-.06.02-.12s.04-.06.06-.12c.02-.06 0-.06.02-.12s.04-.04.06-.1c.02-.06 0-.06.02-.12l.04-.12c.02-.06.02-.06.04-.1l.04-.12.04-.12.04-.12c.02-.04.02-.04.04-.1l.04-.12.04-.12c.02-.06.02-.06.04-.1.02-.06 0-.06.02-.12s.04-.06.06-.12c.02-.06 0-.06.02-.12.02-.04.04-.04.06-.1l.04-.12c0-.06 0-.06.02-.12s.02-.06.04-.1c.02-.06.04-.06.06-.12.02-.06 0-.06.02-.12l.04-.12c.02-.04.02-.04.04-.1l.04-.12c.02-.06.02-.06.02-.12.02-.06.04-.04.06-.1l.04-.12.04-.12c.02-.04 0-.06.02-.1l.04-.12c.02-.06.04-.06.06-.12.02-.06 0-.06.02-.12.02-.04.02-.06.04-.1l.04-.12.04-.12c.02-.06.02-.06.04-.1l.04-.12.04-.12c.02-.06.02-.04.04-.1l.04-.12.04-.12c.02-.06 0-.06.02-.12s.04-.04.04-.1c.02-.06.04-.06.06-.12l.04-.12c.02-.04 0-.06.02-.1l.04-.12.04-.12.04-.12c.02-.04.02-.04.04-.1.02-.06.04-.06.04-.12l.04-.12c.02-.04.02-.04.04-.1l.04-.12.04-.12c.02-.06.02-.04.04-.1l.04-.12.04-.12c.02-.06.02-.06.04-.1.02-.06 0-.06.02-.12.02-.04.02-.06.02-.1 0-.02-.02-.06-.04-.08-.02-.04-.04-.06-.06-.06-.04-.02-.06-.04-.1-.04-.06 0-.06.02-.12.02h-.36c-.06 0-.06-.02-.12-.02s-.06.02-.12.02-.06-.02-.12-.02h-.24c-.06 0-.08.02-.12.06-.04.02-.06.04-.08.08l-.04.12c-.02.06 0 .06-.02.12l-.04.12c-.02.04-.04.04-.06.1-.02.06 0 .06-.02.12s-.04.06-.06.1c-.02.06-.02.06-.02.12l-.04.12-.04.12c-.02.06-.02.04-.04.1l-.04.12-.04.12c-.02.06-.02.04-.04.1l-.04.12c-.02.06 0 .06-.02.12s-.04.04-.06.1l-.04.12c-.02.06 0 .06-.02.12s-.04.06-.06.1c0 .06 0 .06-.02.12l-.04.12-.04.12c-.02.04-.04.04-.04.1l-.04.12-.04.12c0 .06-.02.04-.04.1l-.04.12-.04.12c-.02.06-.02.06-.04.1l-.04.12-.04.12c-.02.06-.02.04-.04.1-.02.06 0 .06-.02.12l-.04.12c-.02.06-.02.06-.04.1l-.04.12-.04.12-.04.12c-.02.04-.02.04-.04.1l-.04.12-.04.12c0 .04 0 .06-.02.1-.02.06-.04.06-.06.12-.02.06 0 .06-.02.12s-.02.06-.04.1l-.04.12c-.02.06-.04.06-.06.12-.02.04 0 .06-.02.12-.02.04-.02.04-.04.1l-.04.12c-.02.06-.02.06-.04.1l-.04.12c-.02.06-.02.06-.02.12-.02.06-.04.06-.06.1-.02.06 0 .06-.02.12l-.04.12c-.02.06-.04.06-.06.12 0 .04 0 .06-.02.1-.02.06-.04.06-.06.12-.02.06 0 .06-.02.12-.02.04-.02.04-.04.1l-.04.12-.04.12c-.02.06-.02.06-.04.1l-.04.12-.04.12c-.02.04 0 .06-.02.12-.02.04-.04.04-.06.1l-.04.12c0 .06-.02.06-.02.1l-.04.12-.04.12-.04.12c-.02.04-.02.04-.04.1l-.04.12c-.02.06-.02.06-.04.1l-.04.12c-.02.06 0 .06-.02.12s-.04.06-.06.12c-.02.04-.02.04-.04.1l-.04.12-.04.12c-.02.06-.02.04-.04.1-.02.06 0 .06-.02.12s-.04.06-.06.12c-.02.04-.02.04-.04.1 0 .06 0 .06-.02.12l-.03.1c-.01.01-.02.03-.03.04-.02.04-.02.08-.04.12-.02.04-.04.08-.06.1l-.06.12c-.02.04-.04.06-.06.1-.02.04-.04.08-.06.1-.02.04-.06.06-.08.1-.02.04-.04.08-.06.1-.02.04-.06.06-.08.1-.02.04-.04.06-.06.1-.04.02-.06.06-.08.08-.04.04-.06.08-.1.1l-.08.08c-.02.02-.06.06-.1.08-.02.02-.04.06-.08.08-.04.02-.06.04-.1.06-.04.02-.06.06-.1.08-.04.02-.08.02-.12.04-.04.02-.06.04-.1.06-.04.02-.08.04-.12.04-.04.02-.08.02-.12.02-.04.02-.08.04-.12.04-.04.02-.08.02-.12.02-.02.02-.06.02-.12.02-.04 0-.06.02-.12.02-.02 0-.06-.02-.08-.04-.02-.02-.02-.06-.02-.1.02-.04.04-.08.04-.12.02-.02.04-.06.06-.1 0-.04 0-.08.02-.12 0-.04.02-.08.04-.12 0-.04.02-.08.04-.1 0-.04.02-.08.04-.12l.04-.12c.02-.06 0-.06.02-.12l.04-.12c.02-.04.04-.04.06-.1l.04-.12c.02-.06.02-.06.02-.12.02-.06.04-.06.06-.12.02-.04 0-.06.02-.12.02-.04.02-.04.04-.1.02-.06.04-.06.06-.12l.04-.12c0-.06 0-.06.02-.12s.02-.06.04-.1l.04-.12.04-.12.04-.12.04-.12c.02-.04 0-.06.02-.12.02-.04.04-.04.04-.1l.04-.12c.02-.06.04-.06.06-.12.02-.06.02-.06.04-.1.02-.06 0-.08.02-.12.02-.06.04-.06.06-.12.02-.06 0-.06.02-.12.02-.04.02-.08.04-.12 0-.04.04-.08.04-.12.02-.04.02-.08.02-.12.02-.04.02-.08.04-.12 0-.04 0-.08.02-.12v-.12c0-.04 0-.08.02-.12v-.26c0-.04-.02-.08-.02-.12v-.12c0-.04-.02-.08-.02-.12-.02-.04-.04-.08-.04-.12-.02-.04-.02-.08-.04-.1 0-.04-.02-.08-.04-.12 0-.04-.04-.08-.06-.1-.02-.04-.04-.08-.06-.1-.02-.04-.04-.08-.06-.1-.02-.04-.04-.08-.06-.1l-.08-.08c-.04-.04-.06-.08-.08-.1-.04-.02-.08-.04-.1-.06-.04-.04-.06-.06-.1-.08-.04-.02-.06-.04-.1-.06-.04-.02-.06-.04-.1-.06-.04-.02-.08-.02-.12-.04-.04-.02-.06-.04-.1-.04-.04-.02-.08-.02-.12-.04-.04 0-.08-.02-.12-.04-.04 0-.06-.02-.1-.02-.04-.02-.08 0-.12 0-.04-.02-.08-.04-.12-.04-.04 0-.08.02-.12.02-.04-.02-.08-.02-.12-.02h-.24c-.04.02-.08.02-.12.02-.04 0-.08.02-.12.02-.04 0-.08 0-.12.02-.02 0-.06.02-.1.02l-.12.06c-.04 0-.08.02-.1.02-.04.02-.08.02-.12.04-.04.02-.08.04-.12.04-.02.02-.06.04-.1.06-.04.02-.08.04-.1.06-.04.02-.08.04-.1.06-.04.02-.08.04-.1.06-.04.04-.06.06-.1.08-.02.04-.06.06-.08.08-.04.04-.06.06-.1.08-.02.04-.06.06-.08.08-.02.04-.06.06-.08.1l-.08.08c-.02.04-.04.06-.08.1-.02.04-.04.06-.06.1-.02.04-.04.08-.06.1-.02.04-.04.08-.06.1-.02.04-.04.08-.06.1l-.06.12c-.02.02-.04.06-.06.1-.02.02-.02.06-.04.1l-.06.12c-.02.02-.04.06-.04.1-.02.04-.04.08-.06.1-.02.04-.02.08-.04.12 0 .04-.02.08-.04.12 0 .04-.04.06-.04.1-.02.04-.04.08-.04.12-.02.06-.02.04-.04.1l-.04.12-.04.12c-.02.04 0 .06-.02.1-.02.06-.04.06-.06.12l-.04.12c-.02.04 0 .04-.02.1l-.04.12-.04.12c-.02.04-.04.04-.04.1l-.04.12c-.02.06-.02.06-.04.1-.02.06 0 .06-.02.12s-.04.06-.06.1l-.04.12-.04.12c-.02.06 0 .06-.02.12-.02.04-.04.04-.04.1l-.04.12c-.02.06-.02.06-.04.1l-.02.07c-.06.08-.1.19-.15.31-.08.12-.1.2-.18.32-.04.02-.08.16-.1.2-.06.06-.1.14-.14.22-.06.1-.14.16-.2.28-.04.06-.32.4-.38.48-.06.04-.14.1-.18.16-.02.04-.04.08-.08.1l-.08.1c-.08.08-.2.14-.28.22-.1.06-.1.1-.28.22-.18.1-.32.24-.52.3-.04.02-.06.06-.1.06-.04 0-.32.1-.34.12-.12.08-.34.08-.48.12-.08.02-.18 0-.24.02-.12.02-.24.02-.36.02-.28 0-.6-.1-.72-.1-.02-.02-.08-.02-.1-.04-.04 0-.08-.02-.12-.04-.16-.1-.14-.06-.22-.1-.08-.04-.38-.22-.42-.24-.06-.04-.32-.3-.34-.34-.04-.08-.1-.14-.14-.2-.08-.14-.18-.26-.2-.3-.04-.06-.12-.3-.12-.34-.04-.04-.12-.3-.12-.34l-.06-.36v-.12c-.08-.32-.02-.36-.02-.48 0-.04-.02-.08-.02-.12 0-.04.02-.08.02-.12 0-.2.04-.16.04-.22 0-.24.04-.2.04-.24l.06-.36c.02-.12.12-.26.14-.38.02-.2.3-.14.42-.14.08 0 .22-.04.36-.04.08 0 .28-.06.34-.06.22 0 .24-.04.36-.06.2-.04.22-.06.34-.08l.36-.1c.16-.04.5-.22.56-.22.22-.06.42-.22.62-.32.26-.16.12-.12.3-.2.22-.14.1-.08.2-.14.08-.06.2-.16.28-.22.06-.06.14-.12.18-.16.06-.08.1-.12.18-.16.04-.04.1-.14.14-.18l.1-.08c.08-.08.14-.2.22-.28.08-.1.38-.58.46-.7.04-.08.1-.14.14-.2.02-.04.06-.18.1-.22.08-.18.36-.7.4-.86 0-.04.04-.06.06-.1 0-.04 0-.08.02-.12.04-.08.06-.14.1-.22.06-.18.04-.2.06-.24l.06-.1c.04-.12.08-.34.14-.46.02-.04.02-.04.02-.1 0-.08.06-.16.08-.22.02-.16.1-.3.1-.34 0-.14.08-.36.08-.48v-.48c0-.18-.04-.26-.04-.36 0-.18-.12-.32-.14-.46-.02-.12-.16-.34-.22-.44-.08-.16-.28-.34-.4-.44 0 0 .02 0 .02-.02-.08-.06-.14-.08-.2-.14l-.3-.2c-.2-.12-.18-.04-.44-.18-.04-.02-.08-.02-.12-.02l-.12-.04c-.08-.02-.16-.02-.24-.04-.12-.04-.14 0-.24 0-.02 0-.06-.02-.1-.02-.1 0-.4.02-.48.04-.04.02-.08 0-.12 0-.04.02-.08.04-.12.04l-.36.08c-.14.08-.08.04-.22.08l-.1.06c-.04 0-.08.02-.12.04-.1.04-.28.12-.32.16l-.1.08c-.06.04-.14.06-.2.12l-.52.48c-.02.04-.04.08-.08.1-.08.06-.1.16-.12.2l-.1.08-.22.42-.06.12c-.1.16-.06.12-.1.22-.12.2-.04.08-.08.22l-.06.1-.04.12c-.04.08-.16.36-.18.44-.02.1-.02.28-.18.38-.14.08-.16-.02-.28-.04-.06-.02-.16-.06-.22-.08-.1-.06-.48-.2-.56-.22-.04 0-.08 0-.12-.02l-.46-.12-.36-.06h-.12c-.1-.04-.36-.04-.46-.04-.1 0-.2-.02-.24-.02-.04 0-.14.02-.24.02-.06 0-.68.1-.7.12-.1 0-.24.08-.34.12-.12.02-.24.08-.34.12-.1.02-.5.34-.58.42-.04.02-.06.06-.08.08-.24.2-.1.1-.24.28-.02.02-.06.04-.08.08l-.12.2c-.04.06-.2.36-.2.44-.02.12-.04.02-.06.24l-.04.12c-.02.08-.06.26-.06.36 0 .22-.04.22.02.48 0 .04-.02.08 0 .12 0 .04.02.08.02.12 0 .14.16.58.16.6 0 .04.04.06.06.1.02.12.08.22.16.34.16.24.2.34.42.56.22.22.18.2.46.4.16.1.3.24.48.34.08.04.7.34.76.36.12.02.24.08.34.14.04.02.08.02.12.02l.12.06c.02 0 .08 0 .1.02.08 0 .16.04.24.06.04.02.08.02.12.02l.1.06h.12c.28.04.12.38.1.5-.02.1-.06.22-.06.34 0 .04-.02.08-.04.12v.12c-.06.2-.06.5-.06.72 0 .1-.02.2-.02.24 0 .1.02.16.02.24 0 .16.04.24.04.34 0 .26.02.18.06.36.02.18.04.16.06.24.04.16.02.18.1.34.02.04.02.08.02.12l.08.1c.04.12-.02.1.1.22.02.02.02.06.04.1l.2.3.06.1c.04.06.2.22.24.28.02.04.04.06.08.08.06.06.12.08.18.16.04.06.14.08.2.14l.08.08.1.06c.1.06.1.08.12.08 0 0 .02 0 .1.04.12.04.26.18.44.18.04.02.16.06.22.08.06 0 .18.06.22.08.16.04.54.1.72.1.1 0 .2.02.24.02.04 0 .08-.02.12-.02.04 0 .08.02.12.02.18 0 .14-.04.36-.04.1 0 .16-.02.24-.02.04 0 .08-.02.12-.04.06-.02.24-.04.36-.06.14-.04.2-.08.22-.08.18-.06.06-.02.22-.08l.12-.04.1-.06c.14-.04.3-.16.44-.22.24-.14.24-.18.28-.2l.12-.06c.12-.08.26-.26.36-.32.08-.06.18-.2.26-.26.04-.06.12-.12.16-.16.06-.1.14-.22.22-.3.01-.01.01-.02.02-.02V30.8002c0 .04.02.08.04.12 0 .04 0 .08.02.1 0 .04 0 .08.02.12.02.04.02.08.04.12.02.04.02.08.04.1l.06.12c.02.04.04.06.06.1.02.04.04.06.06.1.02.04.04.06.08.08.02.04.04.08.06.1.04.04.06.06.1.08.02.04.06.06.08.08.04.02.08.04.1.06.04.02.08.04.1.06.04.02.08.06.1.08.04 0 .08.02.12.02l.12.06c.02 0 .06.02.1.04.04 0 .08.02.12.02.04 0 .08.02.12.02.04 0 .08.02.12.02H56.1377c.04-.02.08 0 .12 0 .04-.02.08 0 .12-.02.04 0 .08-.02.12-.02.04 0 .08 0 .12-.02.04 0 .08-.02.12-.02.04-.02.08-.02.12-.04.04 0 .06-.02.1-.04.04 0 .08-.02.12-.04.04 0 .06-.02.1-.04l.12-.06c.02-.02.06-.04.1-.06.02-.02.06-.04.08-.06.04-.04.08-.06.1-.08.04-.02.08-.04.1-.06l.08-.08c.04-.04.06-.06.08-.1.04-.02.06-.06.08-.08.04-.04.06-.06.08-.1l.08-.08c.02-.04.04-.06.08-.1.02-.04.04-.06.06-.1.02-.04.04-.06.06-.1.02-.04.04-.06.06-.1.02-.04.04-.06.06-.1l.06-.12c.02-.02.02-.06.04-.1.02-.04.04-.08.06-.1l.06-.12c.02-.02.04-.06.08-.06s.08.02.12.02c.04 0 .08-.02.12-.02.04 0 .08 0 .12-.02h.12c.04 0 .08-.02.12-.02.04 0 .06-.02.1-.02.04 0 .08-.02.12-.02.04-.02.08-.02.12-.04.04 0 .08 0 .12-.02.04 0 .08-.02.12-.02.02-.02.06-.04.1-.06.04 0 .08-.02.12-.04.02 0 .06-.04.1-.06.04 0 .08-.02.1-.04.04-.02.08-.04.1-.06l.12-.06.03-.03c0 .02 0 .03-.01.05 0 .04-.02.08-.02.12-.02.04-.02.08-.04.12v.1c-.02.04-.02.08-.04.12 0 .04-.02.08-.02.12v.12c0 .04-.02.08-.02.12v.24c0 .04.02.08.02.12v.12c.02.04.02.06.02.1.02.04.02.08.04.12 0 .04.02.08.02.12.02.04.04.08.04.1l.06.12c.02.02.04.06.06.1.02.04.04.06.08.08.02.04.06.06.08.1.04.02.08.04.1.06.04.02.06.04.1.06.04.02.06.04.1.06.04.02.08.02.12.04.04 0 .08 0 .12.02.04 0 .06.02.1.02.04.02.08.02.12.02h.36c.04-.02.08-.02.12-.04.04 0 .08 0 .12-.02.04 0 .08-.04.12-.04.04-.02.08-.02.12-.04.02-.02.06-.02.1-.04l.12-.06c.02-.02.06-.02.1-.04.04-.02.06-.06.1-.08.02-.02.06-.04.1-.08.02-.02.06-.04.08-.06.04-.04.08-.06.1-.08.04-.02.06-.06.1-.08.02-.04.06-.06.08-.08.04-.04.04-.06.08-.1.02-.02.04-.06.08-.08.02-.04.06-.06.08-.1l.08-.08c.02-.04.04-.08.06-.1.02-.04.06-.06.08-.1.04-.04.06-.06.08-.1.02-.04.04-.06.06-.1.01-.02.02-.03.04-.05v.19c0 .04.02.08.02.12v.12c.02.04.02.06.02.1.02.04.02.08.04.12 0 .04.02.08.02.12.02.04.04.08.04.1l.06.12c.02.02.04.06.06.1.02.04.04.06.08.08.02.04.06.06.08.1.04.02.08.04.1.06.04.02.06.04.1.06.04.02.06.04.1.06.04.02.08.02.12.04.04 0 .08 0 .12.02.04 0 .06.02.1.02.04.02.08.02.12.02h.36c.04-.02.08-.02.12-.04.04 0 .08 0 .12-.02.04 0 .08-.04.12-.04.04-.02.08-.02.12-.04.02-.02.06-.02.1-.04l.12-.06c.02-.02.06-.02.1-.04.04-.02.06-.06.1-.08.02-.02.06-.04.1-.08.02-.02.06-.04.08-.06.04-.04.08-.06.1-.08.04-.02.06-.06.1-.08.02-.04.06-.06.08-.08.04-.04.04-.06.08-.1.02-.02.04-.06.08-.08.02-.04.06-.06.08-.1l.08-.08c.02-.04.04-.08.06-.1.02-.04.06-.06.08-.1.04-.04.06-.06.08-.1.02-.04.04-.06.06-.1.02-.04.06-.06.08-.1.02-.02.04-.06.06-.1.02-.04.04-.06.06-.1.02-.04.04-.06.06-.1.02-.04.06-.06.08-.1.02-.03.03-.06.05-.08.01.02.01.04.01.06 0 .04.02.08.02.12.02.04 0 .08.02.12 0 .04 0 .08.02.1 0 .04.02.08.04.12 0 .04.02.08.04.12 0 .04.02.08.04.1l.06.12c0 .04.02.08.04.12.02.02.04.06.06.1.02.02.06.06.08.1.02.02.04.06.06.08.04.04.06.08.08.1.02.04.06.06.08.1.02.02.06.04.1.08.02.02.06.04.08.08.04.02.08.04.1.06l.12.06c.02.02.06.04.1.06.04.02.06.04.1.06.04.02.08.02.12.04.04.02.06.04.1.04.04.02.08.04.12.04.04.02.08.02.12.04.04 0 .08.02.12.02.04.02.08.02.12.04.04 0 .08 0 .12.02h.1c.04.02.08.02.14.02h.12c.04 0 .08.02.12.02.04 0 .08-.02.12-.02h.22c.04 0 .08-.02.12-.02.04 0 .08 0 .12-.02h.12c.04-.02.08-.02.12-.02.04 0 .08-.02.12-.04.04 0 .08-.02.12-.02.04-.02.08-.02.1-.02.04-.02.08-.02.12-.04.04-.02.08-.02.12-.04.04 0 .08-.02.1-.04.04-.02.08-.02.12-.04.04-.02.08-.04.1-.04l.12-.06c.04-.02.06-.04.1-.06.04-.02.08-.02.12-.04.02-.02.06-.04.1-.06.02-.02.06-.04.1-.06.04-.02.06-.06.1-.08.02-.02.06-.04.1-.06.02-.02.06-.04.1-.08.02-.02.06-.04.08-.06.04-.02.06-.06.1-.08.02-.02.06-.04.1-.08.02-.02.04-.06.08-.08l.08-.08c.02-.04.06-.06.08-.08.04-.02.08-.06.1-.08.02-.02.04-.06.06-.1.04-.02.06-.06.1-.08.02-.04.04-.06.06-.1.04-.02.06-.06.08-.08.04-.04.06-.06.1-.08.02-.04.02-.08.06-.12.02-.02.04-.06.08-.08.02-.04.04-.06.06-.1.04-.02.06-.06.08-.1l.03-.03c.01.02.01.05.01.07v.24c0 .04.02.08.02.12 0 .04 0 .08.02.12 0 .04.02.08.02.12.02.04.02.08.02.12.02.04.04.06.06.1 0 .04.02.08.04.12 0 .04.02.08.04.12 0 .02.04.06.06.1.02.02.04.06.06.1.02.02.04.06.06.1.02.04.04.06.08.1.02.02.04.06.06.08.04.04.06.06.1.08.02.04.06.06.08.08.04.04.06.06.1.08.04.02.06.04.1.06.04.02.06.04.1.06.04.02.08.04.12.04.02.02.06.06.1.06.04.02.08.02.12.04.02.02.06.04.1.04.04.02.08.02.12.02.04.02.08.04.12.04.04 0 .08.02.12.02h.12c.04.02.08.02.12.02h.12c.02 0 .06.02.1.02h.14c.04 0 .08-.02.12-.02h.12c.04 0 .06-.04.1-.04.04 0 .08 0 .12-.02.04 0 .08 0 .12-.02.04 0 .08 0 .12-.02.04 0 .08-.02.12-.04.04 0 .08-.02.12-.04.04 0 .08-.02.1-.02.04-.02.08-.04.12-.04l.12-.06c.02-.02.06-.02.1-.04.04-.02.06-.06.1-.08.04-.02.08-.04.1-.06.04-.02.08-.02.12-.04.04-.02.06-.06.1-.08.02-.02.06-.04.1-.06.04-.02.06-.04.1-.06.04-.02.06-.06.1-.08l.08-.08c.04-.02.08-.04.1-.06.04-.04.06-.06.1-.08.02-.04.06-.06.08-.08.04-.04.06-.06.08-.1.04-.02.06-.06.1-.08.02-.02.04-.06.08-.08.02-.04.04-.06.08-.1l.08-.08c.02-.04.06-.06.08-.1l.08-.08c.02-.04.06-.06.08-.1 0 0 .01-.02.02-.02v.1c0 .04-.02.08-.02.12 0 .04 0 .08.02.12v.12c0 .04 0 .08.02.12v.12c0 .04.04.06.04.1 0 .04.02.08.02.12.02.04.04.08.06.1.02.04.02.08.04.12.02.04.04.06.06.1.02.04.06.06.08.1.02.02.04.06.06.1.04.02.06.04.1.08.02.02.06.04.1.06.02.02.06.06.1.06.02.02.06.04.1.06.04.02.08.02.12.04.04 0 .08.02.12.02.02.02.06.02.1.02.04.02.08 0 .12.02h.24c.06 0 .1 0 .12-.02h.14c.04-.02.06-.02.1-.04.04 0 .08-.02.12-.02.04-.02.08-.04.12-.04.04-.02.08-.04.12-.04.04-.02.08-.02.12-.04.02-.02.06-.04.1-.06.04-.02.06-.04.1-.06.04-.02.08-.04.1-.06l.12-.06c.02-.02.06-.04.1-.06.02-.04.06-.04.1-.08l.08-.08c.04-.02.06-.04.1-.08l.08-.08c.04-.02.06-.06.1-.08l.08-.08c.02-.04.06-.06.08-.08l.1-.1c.02-.02.04-.06.08-.08.02-.04.04-.08.06-.1.02-.04.06-.06.08-.1.04-.02.06-.06.08-.08l.06-.12.02-.02v.06c0 .04-.02.08-.02.12v.12c0 .04 0 .08.02.12 0 .04 0 .08.02.12v.1c0 .04.02.08.04.12 0 .04.02.08.02.12.02.04.04.08.04.1l.06.12c.02.02.04.06.06.1.02.02.06.06.08.1.02.02.06.04.08.08.04.02.08.04.1.06.04.02.06.04.1.06.04.02.06.04.1.06.04.02.08.02.12.02l.12.06h.12c.04 0 .06.02.12.02h.1c.04 0 .08-.02.12-.02h.24c.04-.02.08-.04.12-.04.04-.02.08-.02.12-.04.04 0 .08-.02.12-.02.04-.02.08-.04.1-.06l.12-.06c.02-.02.06-.04.1-.06.04-.02.06-.04.1-.06.04-.02.06-.04.1-.06.04-.04.06-.06.1-.08l.08-.08c.04-.04.06-.06.1-.08l.08-.08c.04-.04.06-.06.08-.1l.08-.08c.04-.04.06-.06.08-.1l.08-.08c.02-.04.06-.08.08-.1.02-.04.04-.06.08-.1.02-.02.04-.06.06-.1.02-.02.04-.06.06-.1.02-.02.04-.06.06-.1.04-.04.06-.06.08-.1.01-.01.03-.04.04-.06v.2c0 .04.02.08.04.12 0 .04 0 .08.02.1 0 .04 0 .08.02.12.02.04.02.08.04.12.02.04.02.08.04.1l.06.12c.02.04.04.06.06.1.02.04.04.06.06.1.02.04.04.06.08.08.02.04.04.08.06.1.04.04.06.06.1.08.02.04.06.06.08.08.04.02.08.04.1.06.04.02.08.04.1.06.04.02.08.06.1.08.04 0 .08.02.12.02l.12.06c.02 0 .06.02.1.04.04 0 .08.02.12.02.04 0 .08.02.12.02.04 0 .08.02.12.02H89.5577c.04-.02.08 0 .12 0 .04-.02.08 0 .12-.02.04 0 .08-.02.12-.02.04 0 .08 0 .12-.02.04 0 .08-.02.12-.02.04-.02.08-.02.12-.04.04 0 .06-.02.1-.04.04 0 .08-.02.12-.04.04 0 .06-.02.1-.04l.12-.06c.02-.02.06-.04.1-.06.02-.02.06-.04.08-.06.04-.04.08-.06.1-.08.04-.02.08-.04.1-.06l.08-.08c.04-.04.06-.06.08-.1.04-.02.06-.06.08-.08.04-.04.06-.06.08-.1l.08-.08c.02-.04.04-.06.08-.1.02-.04.04-.06.06-.1.02-.04.04-.06.06-.1.02-.04.04-.06.06-.1.02-.04.04-.06.06-.1l.06-.12c.02-.02.02-.06.04-.1.02-.04.04-.08.06-.1l.06-.12c.02-.02.04-.06.08-.06s.08.02.12.02c.04 0 .08-.02.12-.02.04 0 .08 0 .12-.02h.12c.04 0 .08-.02.12-.02.04 0 .06-.02.1-.02.04 0 .08-.02.12-.02.04-.02.08-.02.12-.04.04 0 .08 0 .12-.02.04 0 .08-.02.12-.02.02-.02.06-.04.1-.06.04 0 .08-.02.12-.04.02 0 .06-.04.1-.06.04 0 .08-.02.1-.04.04-.02.08-.04.1-.06l.12-.06c-.01.01-.01.02-.02.04-.02.04 0 .04-.02.1l-.04.12-.04.12c-.02.04-.02.04-.04.1-.02.06-.02.06-.02.12-.02.06-.04.06-.06.12-.02.04 0 .06-.02.1-.02.06-.04.06-.06.12l-.04.12c-.02.04 0 .06-.02.1l-.04.12-.04.12c-.02.06-.02.06-.04.1l-.04.12-.04.12c-.02.06-.02.04-.04.1l-.04.12-.04.12c-.02.04 0 .1.02.16.04.04.1.06.14.06.06 0 .06.02.12.02s.06-.02.12-.02H94.5577c.02 0 .06-.02.08-.04.04-.02.06-.04.06-.08.02-.06.02-.06.04-.1.02-.06.04-.06.06-.12.02-.06 0-.06.02-.12s.02-.04.04-.1l.04-.12.04-.12c.02-.04.02-.04.04-.1l.04-.12c.02-.06.02-.06.04-.1l.04-.12c.02-.06 0-.06.02-.12s.04-.04.06-.1c0-.06.02-.06.04-.12 0-.06.02-.06.02-.1l.04-.12.04-.12c.02-.06.02-.04.04-.1l.04-.12c.02-.06.02-.06.04-.1l.04-.12c.02-.06 0-.06.02-.12s.02-.06.04-.1c.02-.06.04-.06.06-.12.02-.06 0-.06.02-.12.02-.04.02-.04.04-.1l.04-.12.04-.12c.02-.04.02-.04.04-.1l.04-.12c.02-.04.02-.06.04-.1l.04-.12c.02-.06 0-.06.02-.12.02-.04.04-.04.06-.1l.04-.12c.02-.04 0-.06.02-.1.02-.04.04-.08.04-.12l.06-.12c0-.04.02-.08.02-.1.02-.04.04-.08.04-.12l.06-.12c0-.04.02-.08.02-.12.02-.02.02-.06.04-.1l.06-.12c0-.04.02-.08.04-.1 0-.04 0-.08.02-.12.02-.04.02-.08.04-.12.02-.04.02-.08.04-.12.02-.04.02-.08.04-.1.02-.04.02-.08.04-.12 0-.04.02-.08.04-.12 0-.04.04-.08.04-.1.02-.04.02-.08.04-.12.02-.04.04-.08.04-.12.02-.04.02-.08.04-.12.02-.02.04-.06.06-.1.02-.04.02-.08.04-.12.02-.02.04-.06.06-.1.02-.04.02-.08.02-.12.02-.04.06-.06.06-.1l.06-.12c0-.04.04-.06.06-.1.02-.04.02-.08.04-.12.02-.02.04-.06.06-.1.02-.04.04-.06.06-.1.02-.04.04-.06.06-.1.02-.04.04-.08.06-.1.04-.04.06-.06.08-.1.04-.02.08-.06.1-.08l.08-.08c.04-.02.06-.06.1-.08.04-.02.06-.04.1-.06.04-.02.06-.04.1-.06.04 0 .08-.02.12-.02.04 0 .08-.02.12-.02.04 0 .08 0 .12.02.04 0 .08 0 .12.02.04.02.06.04.1.06l.08.08c.02.04.06.06.06.1.02.04.04.08.04.12.02.02.02.06.02.1v.12c0 .04.02.08.02.12 0 .04-.02.08-.02.12 0 .04 0 .08-.02.12 0 .04 0 .08-.02.12 0 .02-.02.06-.02.1-.02.04-.02.08-.02.12-.02.04-.02.08-.04.12 0 .02-.02.06-.04.1 0 .04-.02.08-.02.12-.02.04-.02.08-.04.1-.02.04-.02.08-.02.12l-.04.12c-.02.06-.02.06-.04.1l-.04.12c-.02.06-.04.06-.06.1-.02.06 0 .08-.02.12-.02.06-.04.06-.06.12 0 .06 0 .06-.02.12-.02.04-.02.04-.04.1l-.04.12c-.02.06-.02.06-.04.1l-.04.12c-.02.06-.02.06-.02.12l-.04.12c-.02.04-.02.04-.04.1l-.04.12c-.02.04-.02.04-.04.1-.02.06-.04.06-.06.12 0 .06 0 .06-.02.12s-.02.04-.04.1l-.04.12c-.02.06 0 .06-.02.12-.02.04-.02.04-.04.1-.02.06-.04.06-.04.12-.02.06-.04.06-.06.1 0 .06 0 .06-.02.12l-.04.12c-.02.06-.04.04-.06.1 0 .06 0 .06-.02.12l-.04.12c-.02.04-.04.06-.04.1-.02.04-.02.08-.04.12-.02.04-.02.08-.04.1 0 .04 0 .08-.02.12 0 .04-.02.08-.02.12-.02.04-.04.08-.04.12-.02.04-.02.08-.02.12-.02.02-.02.08-.02.1 0 .04-.02.08-.02.12 0 .04-.02.08-.04.12v.12c0 .04 0 .08-.02.12v.24c.02.04.02.08.02.12v.12c.02.04.02.06.02.1.02.04.02.08.04.12 0 .04 0 .08.02.12.02.04.04.06.06.1.02.04.02.08.04.12.02.02.06.06.08.1.02.02.04.06.06.08.04.04.06.06.1.08.02.04.04.06.08.08.04.02.08.04.1.06.04.02.08.04.1.06.04 0 .08.02.12.04.04.02.08.02.12.02.04.02.08.02.12.04h.36c.04 0 .08-.02.1-.02.04 0 .08-.02.12-.02.04-.02.08-.02.12-.02.04-.02.08-.02.12-.04.04-.02.08-.02.12-.04.04-.02.08-.02.1-.04.04-.02.08-.02.12-.04.04-.02.06-.06.1-.08.04-.02.06-.04.1-.06.02-.04.06-.06.1-.08.02-.02.06-.04.1-.06l.08-.08c.04-.04.06-.06.1-.08.02-.04.06-.06.08-.1.0203-.02.0603-.04.1003-.06.02-.04.04-.08.06-.1.04-.04.06-.06.08-.1.04-.02.06-.06.08-.08.04-.04.06-.08.08-.1.02-.04.04-.06.06-.1.02-.04.06-.06.08-.1.02-.04.06-.06.08-.1.02-.02.04-.06.06-.1.02-.02.04-.06.06-.1.02-.02.04-.06.06-.1.04-.04.04-.06.06-.1.02-.04.06-.08.08-.1.02-.04.04-.08.06-.1.02-.04.04-.08.06-.1l.06-.12c.02-.02.04-.06.06-.1.02-.04.06-.06.08-.1.02-.02.02-.06.04-.1l.06-.12c.02-.02.06-.06.08-.1.02-.04.02-.08.04-.1.02-.04.06-.08.08-.1l.06-.12c.02-.04.02-.08.04-.1l.06-.12.06-.12c.02-.02.04-.06.06-.1.02-.04.04-.06.06-.1.02-.04.02-.08.04-.12.02-.04.04-.06.06-.1.02-.04.06-.08.06-.1l.06-.12c0-.04.02-.08.04-.12.02-.04.04-.06.06-.1l.06-.12c.02-.04.04-.08.04-.1l.06-.12c.02-.04.02-.08.02-.14-.02-.04-.06-.08-.1-.1-.08-.03-.08-.01-.14-.03zm-32.1403.04c0-.04 0-.08.02-.12 0-.04 0-.08.02-.12 0-.04.02-.08.02-.12.02-.04.02-.06.04-.1l.04-.12c.02-.04.02-.04.04-.1l.04-.12c.02-.04.02-.04.04-.1.02-.06 0-.06.02-.12s.04-.04.06-.1c.02-.06 0-.06.02-.12s.04-.04.06-.1c.02-.06 0-.06.02-.12.02-.04.04-.06.06-.1 0-.04 0-.08.02-.12.02-.04.02-.08.04-.12.02-.04.04-.08.06-.1 0-.04.02-.08.04-.12.02-.04.02-.08.02-.12.02-.04.06-.06.06-.1.02-.04.04-.08.04-.12.02-.04.06-.06.06-.1.02-.04.04-.08.06-.1l.06-.12c.02-.04.04-.06.08-.1.02-.04.04-.06.06-.08.04-.04.06-.08.08-.1.04-.02.06-.06.1-.08.02-.02.06-.04.1-.06.04-.02.06-.06.1-.06.04-.02.08-.02.12-.04.04 0 .08-.02.12-.02h.12c.04 0 .08-.02.12 0 .04 0 .08.02.1.02l.12.06c.02.02.06.02.1.06l.08.08c.02.04.02.08.04.12.02.02.02.06.04.1 0 .04.02.08.02.12.02.04.02.08.02.12v.12c0 .04 0 .08-.02.12 0 .04-.02.06-.02.1-.02.04 0 .08-.02.12 0 .04-.02.08-.04.12 0 .04-.02.08-.02.1-.02.04-.04.08-.04.12-.02.04-.04.06-.04.1-.02.04-.02.08-.04.12-.02.04-.04.06-.04.1-.02.04-.02.08-.02.12-.02.04-.04.08-.04.1-.02.04-.04.08-.04.12-.02.04-.04.06-.04.1-.02.04-.02.08-.04.12-.02.04-.02.08-.04.1 0 .04-.04.08-.04.12-.02.04-.02.08-.04.12-.02.04-.02.08-.04.12-.02.02-.04.06-.06.1 0 .04-.02.08-.04.1l-.06.12c-.02.04-.04.06-.06.1-.02.04-.04.08-.06.1-.02.04-.06.08-.08.1-.02.04-.06.06-.08.1l-.08.08c-.04.02-.06.06-.1.08-.04.02-.06.04-.1.06l-.12.06c-.02 0-.06.02-.1.04h-.12c-.04.02-.08.02-.12.02h-.12c-.04-.02-.08-.02-.12-.02-.04-.02-.08-.04-.1-.06l-.12-.06c-.02-.02-.06-.04-.08-.08-.02-.02-.04-.06-.06-.1-.02-.04-.02-.08-.04-.12 0-.02-.02-.06-.04-.1v-.12zm-21.2-2.32c.02-.04 0-.04.02-.1l.2-.56c.06-.2.1-.38.18-.56l.12-.34c.06-.16.08-.3.14-.46.06-.16.18-.34.36-.2l.2.18c.12.12.28.34.48.16.08-.1.18-.16.28-.24.06-.08.26-.24.26-.32 0-.1-.26-.34-.3-.4-.02-.04-.06-.06-.1-.08l-.18-.18c-.24-.24-.1-.1-.26-.22-.04-.04-.06-.08-.1-.1-.16-.08-.02-.34.02-.44l.06-.22c.02-.08.3-.88.32-.92.04-.2.18-.4.2-.42l.04-.12c.02-.08.08-.14.12-.2.02-.04.02-.08.04-.1.16-.16.12-.18.14-.2.04-.02.08-.04.1-.08.02-.04.22-.26.24-.26.34-.2.5-.36.98-.36.16 0 .1.02.22.04.06 0 .14.02.22.04.08.02.32.2.38.26.12.14.1.14.18.3.12.26.04.22.08.34.02.1.04 0 .04.22 0 .44-.14.8-.14.94-.04.04-.06.14-.08.22h.02c-.06.04-.08.14-.1.22-.04.12-.04.14-.06.22-.02.04-.04.04-.06.1-.02.08-.08.14-.08.22-.04.16-.06.18-.1.34l-.06.1c0 .04-.02.08-.02.12-.02.08-.08.12-.1.22-.04.12-.08.22-.14.34-.04.06-.06.14-.16.32-.06.08-.06.12-.1.22-.06.1-.14.2-.2.3-.02.02-.08.14-.12.22-.08.1-.08.04-.12.2-.06.02-.34.38-.4.46-.04.04-.26.22-.26.24l-.16.18-.3.2c-.08.04-.14.08-.2.14-.08.04-.14.04-.22.1-.14.06-.12.04-.22.1l-.1.06c-.12.02-.24.08-.34.12-.04.02-.08.02-.12.02-.04.02-.08.04-.12.04-.08.02-.18.02-.24.04-.12.02-.34.06-.42-.02-.12-.12-.02-.34.04-.44zm-.96-1.94c-.04.08-.04.12-.06.22-.04.14-.14.4-.2.56-.04.08-.04.16-.06.24-.04.16-.18.48-.24.66-.08.2-.06.22-.1.36-.02.06-.06.14-.08.22 0 .04-.04.08-.1.1-.14.08-.14 0-.26 0-.02-.02-.08-.02-.1-.02-.08-.02-.16-.08-.24-.08-.12-.02-.22-.1-.34-.12-.04 0-.08-.04-.1-.06 0-.02-.14-.06-.22-.1-.12-.08-.24-.1-.32-.16-.48-.38-.66-.52-.96-1.06-.08-.14-.06-.22-.08-.24l-.08-.22c-.02-.08 0-.18 0-.24 0-.04-.02-.08-.02-.12 0-.16.04-.34.06-.48.02-.16.12-.26.16-.32.04-.06.06-.16.1-.22l.24-.26c.1-.1.26-.22.4-.3.12-.08.12-.06.22-.08.02-.02.06-.04.1-.04.06-.02.16-.06.24-.08.04-.02.08 0 .12 0 .06-.02.14-.06.24-.06.04 0 .08.02.12.02.04 0 .08-.02.12-.02.08 0 .48.06.58.1h.12l.12.06c.04 0 .08 0 .12.02.08.02.14.08.22.1.12.02.24.06.34.14.02 0 .4.12.32.34-.1.2-.1.38-.18.56-.12.24-.04.1-.08.24l-.12.34zm9.34 6.98c-.02.04-.04.08-.04.12-.02.04-.04.08-.06.1-.02.04-.02.08-.04.12-.02.04-.04.06-.06.1-.02.04-.04.06-.06.1-.04.04-.04.06-.06.1-.04.04-.06.06-.08.1-.04.02-.06.06-.08.08l-.12.06-.08.08c-.04.02-.08.02-.12.04-.04.02-.08.02-.12.04h-.12c-.04.02-.06.02-.12.02-.04 0-.08-.02-.12-.02-.04-.02-.08-.02-.12-.02-.04-.02-.08-.04-.1-.06-.04-.02-.08-.04-.1-.08-.04-.02-.06-.06-.08-.08l-.06-.12c-.02-.04-.02-.08-.04-.12v-.12c-.02-.04-.02-.08-.02-.12 0-.04.02-.08.02-.12v-.14c.02-.04.04-.06.06-.1v-.14c.02-.04.04-.08.04-.12.02-.02.04-.06.06-.1.02-.04.02-.06.04-.1 0-.04.02-.08.02-.12.02-.04.04-.06.04-.1.02-.04.02-.08.04-.12 0-.04.02-.08.02-.1.02-.04.04-.08.04-.12.02-.04.02-.06.04-.1.02-.04.04-.08.04-.12.02-.02.02-.08.02-.1.02-.04.04-.08.04-.12.02-.04.06-.06.1-.06.04-.02.08.02.1.06l.06.12c0 .04.04.08.06.1l.06.12c.02.04.04.08.08.1l.06.12c.02.04.04.08.08.1.02.04.04.06.06.1.04.02.06.06.08.08.02.04.06.06.1.08.02.02.06.04.08.08.02.02.04.06.08.08.02.02.06.04.1.06.02.02.04.06.08.08.04.02.08.04.1.06.04.02.04.06.04.12-.02.02-.04.06-.04.1zm1.72-5.14c0 .04-.02.08-.02.12 0 .04-.02.08-.02.12-.02.02 0 .06-.02.1 0 .04-.02.08-.02.12-.02.04-.02.08-.04.12 0 .04-.04.06-.04.1-.02.04-.02.08-.02.12l-.04.12c-.02.04-.02.06-.04.1-.02.06-.04.06-.06.12-.02.06 0 .06-.02.12s-.04.04-.06.1l-.04.12-.04.12-.04.12c-.02.04-.02.04-.04.1l-.04.12-.04.12c-.02.06-.02.06-.04.1-.02.06 0 .06-.02.12s-.04.06-.06.12c-.02.06 0 .06-.02.12s-.04.04-.06.1c-.02.06 0 .06-.02.12l-.04.12c-.02.06-.04.06-.06.1l-.04.12-.04.12-.04.12c-.02.04-.02.06-.04.1-.02.06 0 .06-.02.12s-.04.06-.06.12l-.04.12c-.02.06-.02.04-.04.1-.02.06 0 .06-.02.12l-.04.12c-.02.02-.04.06-.08.06-.04.02-.06 0-.1-.02-.02-.02-.06-.04-.08-.06l-.08-.08-.08-.08c-.02-.04-.04-.08-.06-.1-.04-.04-.06-.06-.08-.1l-.08-.08-.06-.12c-.02-.02-.04-.06-.04-.1-.02-.04-.04-.06-.06-.1-.02-.04-.04-.08-.04-.12-.02-.04-.04-.06-.06-.1 0-.04-.02-.08-.02-.12-.02-.04-.02-.08-.02-.12-.02-.04-.02-.08-.02-.12-.02-.04-.02-.08-.02-.12 0-.04-.02-.06-.02-.1v-.36c0-.04 0-.08.02-.12v-.12c0-.04 0-.08.02-.12 0-.04.02-.08.02-.12.02-.04.02-.08.04-.12 0-.04 0-.08.02-.12 0-.02.02-.06.02-.1.02-.04.02-.08.02-.12.02-.04.04-.08.04-.12.02-.04.02-.08.04-.12 0-.02.02-.06.04-.1 0-.04.02-.08.02-.12.02-.04.02-.08.04-.12.02-.02.04-.06.04-.1.02-.04.04-.08.04-.12.02-.04.04-.08.06-.1 0-.04.02-.08.04-.12.02-.04.02-.08.04-.12.02-.02.04-.06.06-.1.02-.04.04-.06.08-.1.02-.04.02-.08.04-.1.02-.04.06-.06.08-.1.02-.04.06-.06.08-.1.02-.02.04-.06.08-.08.02-.04.06-.06.1-.08.02-.02.04-.06.08-.08.04-.02.08-.04.1-.06.04-.02.08-.02.12-.04.04-.02.08-.04.12-.04.04 0 .08-.02.12-.02.04 0 .08-.02.12-.02h.12c.04.02.06.04.1.04.04.02.08.02.12.04.02.02.04.06.08.1.02.02.06.04.08.08.02.02.02.06.04.1 0 .04.02.08.02.12.02.04.02.06.02.1.02.04.02.08.02.12v.12zm31.7 5.14c-.02.04-.04.08-.04.12-.02.04-.04.08-.06.1-.02.04-.02.08-.04.12-.02.04-.04.06-.06.1-.02.04-.04.06-.06.1-.04.04-.04.06-.06.1-.04.04-.06.06-.08.1-.04.02-.06.06-.08.08l-.12.06-.08.08c-.04.02-.08.02-.12.04-.04.02-.08.02-.12.04h-.12c-.04.02-.06.02-.12.02-.04 0-.08-.02-.12-.02-.04-.02-.08-.02-.12-.02-.04-.02-.08-.04-.1-.06-.04-.02-.08-.04-.1-.08-.04-.02-.06-.06-.08-.08l-.06-.12c-.02-.04-.02-.08-.04-.12v-.12c-.02-.04-.02-.08-.02-.12 0-.04.02-.08.02-.12v-.14c.02-.04.04-.06.06-.1v-.14c.02-.04.04-.08.04-.12.02-.02.04-.06.06-.1.02-.04.02-.06.04-.1 0-.04.02-.08.02-.12.02-.04.04-.06.04-.1.02-.04.02-.08.04-.12 0-.04.02-.08.02-.1.02-.04.04-.08.04-.12.02-.04.02-.06.04-.1.02-.04.04-.08.04-.12.02-.02.02-.08.02-.1.02-.04.04-.08.04-.12.02-.04.06-.06.1-.06.04-.02.08.02.1.06l.06.12c0 .04.04.08.06.1l.06.12c.02.04.04.08.08.1l.06.12c.02.04.04.08.08.1.02.04.04.06.06.1.04.02.06.06.08.08.02.04.06.06.1.08.02.02.06.04.08.08.02.02.04.06.08.08.02.02.06.04.1.06.02.02.04.06.08.08.04.02.08.04.1.06.04.02.04.06.04.12-.02.02-.04.06-.04.1zm1.72-5.14c0 .04-.02.08-.02.12 0 .04-.02.08-.02.12-.02.02 0 .06-.02.1 0 .04-.02.08-.02.12-.02.04-.02.08-.04.12 0 .04-.04.06-.04.1-.02.04-.02.08-.02.12l-.04.12c-.02.04-.02.06-.04.1-.02.06-.04.06-.06.12-.02.06 0 .06-.02.12s-.04.04-.06.1l-.04.12-.04.12-.04.12c-.02.04-.02.04-.04.1l-.04.12-.04.12c-.02.06-.02.06-.04.1-.02.06 0 .06-.02.12s-.04.06-.06.12c-.02.06 0 .06-.02.12s-.04.04-.06.1c-.02.06 0 .06-.02.12l-.04.12c-.02.06-.04.06-.06.1l-.04.12-.04.12-.04.12c-.02.04-.02.06-.04.1-.02.06 0 .06-.02.12s-.04.06-.06.12l-.04.12c-.02.06-.02.04-.04.1-.02.06 0 .06-.02.12l-.04.12c-.02.02-.04.06-.08.06-.04.02-.06 0-.1-.02-.02-.02-.06-.04-.08-.06l-.08-.08-.08-.08c-.02-.04-.04-.08-.06-.1-.04-.04-.06-.06-.08-.1l-.08-.08-.06-.12c-.02-.02-.04-.06-.04-.1-.02-.04-.04-.06-.06-.1-.02-.04-.04-.08-.04-.12-.02-.04-.04-.06-.06-.1 0-.04-.02-.08-.02-.12-.02-.04-.02-.08-.02-.12-.02-.04-.02-.08-.02-.12-.02-.04-.02-.08-.02-.12 0-.04-.02-.06-.02-.1v-.36c0-.04 0-.08.02-.12v-.12c0-.04 0-.08.02-.12 0-.04.02-.08.02-.12.02-.04.02-.08.04-.12 0-.04 0-.08.02-.12 0-.02.02-.06.02-.1.02-.04.02-.08.02-.12.02-.04.04-.08.04-.12.02-.04.02-.08.04-.12 0-.02.02-.06.04-.1 0-.04.02-.08.02-.12.02-.04.02-.08.04-.12.02-.02.04-.06.04-.1.02-.04.04-.08.04-.12.02-.04.04-.08.06-.1 0-.04.02-.08.04-.12.02-.04.02-.08.04-.12.02-.02.04-.06.06-.1.02-.04.04-.06.08-.1.02-.04.02-.08.04-.1.02-.04.06-.06.08-.1.02-.04.06-.06.08-.1.02-.02.04-.06.08-.08.02-.04.06-.06.1-.08.02-.02.04-.06.08-.08.04-.02.08-.04.1-.06.04-.02.08-.02.12-.04.04-.02.08-.04.12-.04.04 0 .08-.02.12-.02.04 0 .08-.02.12-.02h.12c.04.02.06.04.1.04.04.02.08.02.12.04.02.02.04.06.08.1.02.02.06.04.08.08.02.02.02.06.04.1 0 .04.02.08.02.12.02.04.02.06.02.1.02.04.02.08.02.12v.12zM6.21754 16.0898c-.7.11-1.4.22-2.11.33-.21-.08-.41-.16-.62-.24-.06-.16-.13-.32-.19-.48.02-.2.05-.39.07-.59.14-.15.28-.3.43-.45.57-.22 1.13-.44 1.7-.66.44-.03.88-.06 1.32-.08-.45-.53-.9-1.05-1.35-1.58-1.15.43-2.29.88-3.43 1.34-.36.75-.71 1.5-1.060001 2.26.250001.6.500001 1.2.740001 1.8.56.21 1.13.43 1.69.65.7-.12 1.39-.23 2.09-.34.2.08.41.17.61.25.1.26.2.52.31.79-.02.19-.04.39-.07.58-.14.15-.28.29-.41.44-.58.23-1.16.46-1.75.7-.49.03-.97.07-1.46.11.51.56 1.01 1.13 1.51 1.7 1.15-.47 2.3-.93 3.45-1.37.34-.74.69-1.47 1.04-2.2l-.84-2.25c-.55-.25-1.11-.48-1.67-.71zM46.4072 7.43004c.11.79.23 1.59.35 2.38-.08.40996-.15.80996-.23 1.21996.92-.14 1.84-.26 2.76-.39-.18-.37-.37-.73996-.55-1.10996-.11-.84-.22-1.68-.34-2.51.55-1.54 1.11-3.07 1.69-4.61.21-.37.42-.75.64-1.12-.85.1-1.71.21-2.56.32-.01.31-.01.61-.02.92-.33.87-.65 1.75-.97 2.62l-.03.27c-.03-.08-.07-.17-.1-.25-.54-.76-1.09-1.51-1.65-2.26-.09-.29-.18-.59-.27-.88-.92.14-1.84.28-2.76.43.31.3.62.6.92.91 1.06 1.34 2.1 2.69 3.12 4.06zM108.318 8.38994c-.34-.49-.69-.97-1.04-1.46-.65-.27-1.29-.55-1.94-.81-.13-.18-.26-.35-.4-.53l.09-.51c.12-.16.24-.31.36-.47.2-.05.39-.11.59-.16.59.1 1.18.21 1.77.32.38.2.77.41 1.15.62-.1-.68-.21-1.36-.31-2.05-1.19-.23-2.38-.44-3.58-.65-.69.45-1.38.91-2.06 1.37-.1.64-.21 1.28-.31 1.93.36.48.72.95 1.08 1.43.65.26 1.29.53 1.93.8.13.18.26.35.39.53-.05.28-.1.55-.15.83-.12.15-.24.31-.36.45996-.19.05-.38.11-.57.16-.61-.11-1.22-.20996-1.83-.30996-.43-.22-.85-.45-1.28-.67.13.75.26 1.48996.39 2.22996 1.2.2 2.4.41 3.6.63.67-.45 1.34-.9 2.02-1.34.16-.77996.31-1.55996.46-2.34996zM43.7675 11.4502c.13-.74.25-1.49003.39-2.23003-.44.22-.88.45001-1.32.68001-.68.11002-1.37.23002-2.05.35002-.08-.05-.16-.1-.23-.16-.35-1.94002-.7-3.88002-1.05-5.82002.04-.45.08-.89.11-1.34-.89.16-1.79.32-2.68.5.16.32.31.65.47.97.44 2.3.88 4.6 1.32 6.90002-.02.36-.04.71-.07 1.07 1.7-.34 3.41-.64 5.11-.92z"/>
</svg>
