<svg xmlns="http://www.w3.org/2000/svg" fill="currentColor" viewBox="0 0 13 19">
  <path transform="rotate(180)" transform-origin="center" d="M9.16417 16.0541c.5224.643.42467 1.5877-.21828 2.1101-.64295.5224-1.58766.4246-2.11006-.2183l2.32834-1.8918zM1.90625 9.5l-1.164172.9459c-.447771-.55112-.447771-1.34069 0-1.89179L1.90625 9.5zm4.92958-8.44589c.5224-.642954 1.4671-.740681 2.11006-.218281.64295.522401.74068 1.467101.21828 2.110061L6.83583 1.05411zm0 16.89179l-6.093752-7.5L3.07042 8.55411l6.09375 7.49999-2.32834 1.8918zM.742078 8.55411l6.093752-7.5 2.32834 1.89178-6.09375 7.50001L.742078 8.55411z" />
</svg>
