<svg viewBox="-4 -4 24 24" fill="currentColor" xmlns="http://www.w3.org/2000/svg">
<path clip-rule="evenodd" d="M13.9738 0.387621C14.3227 0.0387617 14.8883 0.0387617 15.2372 0.387621C15.586 0.736481 15.586 1.30209 15.2372 1.65095L9.26236 7.62577L15.2374 13.6008C15.5862 13.9497 15.5862 14.5153 15.2374 14.8641C14.8885 15.213 14.3229 15.213 13.9741 14.8641L7.99903 8.8891L2.024 14.8641C1.67514 15.213 1.10953 15.213 0.760668 14.8641C0.411808 14.5153 0.411809 13.9497 0.760668 13.6008L6.73569 7.62577L0.76088 1.65095C0.412021 1.30209 0.412021 0.736481 0.76088 0.387621C1.10974 0.0387617 1.67535 0.0387617 2.02421 0.387621L7.99903 6.36244L13.9738 0.387621Z"/>
</svg>
