<svg viewBox="0 0 17 24" fill="currentColor"><path fill-rule="evenodd" d="M13.935 13.321c-.135.392-.497.678-.935.678-.552 0-1-.447-1-1 0 0-.097-1.997-3-1.997v11.985c0 .551-.447.998-1 .998H4c-.552 0-1-.447-1-.998V11.002H1c-.552 0-1-.446-1-.999V4.011c0-.551.448-.998 1-.998h2V1.015c0-.551.448-.999 1-.999h4c.553 0 1 .447 1 .999v1.998c2.939 0 3-1.998 3-1.998 0-.738.652-.946.999-.998.233.03.751.162.933.659.36.431 2.068 4.033 2.068 6.387 0 2.241-1.732 5.789-2.065 6.258zM5 21.987h2V11.002H5v10.985zM7 2.014H5v.999h2v-.999zm5.985 1.017C11.971 3.9 11.243 5.01 9 5.01H2v3.995h7c2.243 0 2.971 1.11 3.986 1.98C13.463 9.911 14 8.358 14 6.957c0-1.323-.532-2.848-1.015-3.926zM13 .017h.006H13c-.012 0-.016 0-.024-.001.01 0 .01.001.024.001zm.006-.001" clip-rule="evenodd"/></svg>