<svg viewBox="0 0 24 24" fill="currentColor"><path d="M22 11h-3V1c0-.553-.447-1-1-1H6c-.553 0-1 .447-1 1v10H2c-.553 0-1 .447-1 1v9c0 .553.447 1 1 1h3v1c0 .139.028.27.078.391.152.357.508.609.922.609h12c.553 0 1-.447 1-1v-1h3c.553 0 1-.447 1-1v-9c0-.553-.447-1-1-1zM5 20H3v-7h2v7zm12 2H7V7.622c1.082 1.157 2.5 2.004 4 2.276V11c0 .553.447 1 1 1 .553 0 1-.447 1-1V9.896c1.48-.274 2.908-1.122 4-2.286V22zm0-19c0 2.161-1.846 4.332-4 4.869V7c0-.553-.447-1-1-1-.553 0-1 .447-1 1v.872C8.845 7.346 7 5.216 7 3V2h10v1zm4 17h-2v-7h2v7zM9 15v4c0 .553.447 1 1 1h4c.553 0 1-.447 1-1v-4c0-.553-.447-1-1-1h-4c-.553 0-1 .447-1 1zm2 1h2v2h-2v-2z"/></svg>