<svg viewBox="0 0 24 24" fill="currentColor"><path d="M22 11h-1V5c0-.553-.447-1-1-1V1c0-.553-.447-1-1-1h-4c-.553 0-1 .447-1 1v3c-.553 0-1 .447-1 1v1h-2V5c0-.553-.447-1-1-1V1c0-.553-.447-1-1-1H5c-.553 0-1 .447-1 1v3c-.553 0-1 .447-1 1v6H2c-.553 0-1 .447-1 1v11c0 .553.447 1 1 1h8c.553 0 1-.447 1-1V12h2v11c0 .553.447 1 1 1h8c.553 0 1-.447 1-1V12c0-.553-.447-1-1-1zM6 2h2v2H6V2zm3 20H3v-2h6v2zm0-4H3v-5h6v5zm0-7H5V6h4v5zm4-1h-2V8h2v2zm3-8h2v2h-2V2zm-1 4h4v5h-4V6zm6 16h-6v-2h6v2zm0-4h-6v-5h6v5z"/></svg>