<svg viewBox="0 0 24 24" fill="currentColor"><path d="M23 15c-.275 0-.525.111-.707.293L18.586 19H7c-2.762 0-5-2.238-5-5s2.238-5 5-5h12c.275 0 .525-.112.707-.293l4-4C23.889 4.526 24 4.276 24 4c0-.553-.447-1-1-1-.275 0-.525.112-.707.293L18.586 7H7.414l2.293-2.293C9.888 4.526 10 4.276 10 4c0-.553-.447-1-1-1-.276 0-.526.112-.707.293l-4.48 4.479C1.551 8.933 0 11.283 0 14c0 3.866 3.134 7 7 7h12c.275 0 .525-.111.707-.293l4-4c.182-.182.293-.432.293-.707 0-.553-.447-1-1-1zm0-5c-.275 0-.525.112-.707.293L17.586 15H9c-.553 0-1-.447-1-1s.447-1 1-1h3c.553 0 1-.447 1-1 0-.553-.447-1-1-1H9c-1.657 0-3 1.343-3 3s1.343 3 3 3h9c.275 0 .525-.111.707-.293l5-5c.182-.181.293-.431.293-.707 0-.553-.447-1-1-1z"/></svg>