<svg viewBox=".5 .5 24 24" fill="currentColor"><path d="M17.5 24.5h-9c-3.313 0-6-2.687-6-6v-12c0-3.314 2.687-6 6-6 3.23 0 7.264 6.845 8 8 .762 1.194 6 8.334 6 11 0 2.762-2.238 5-5 5zm-2-14c-.212-.346-.902-1.482-1.795-2.791l-1.788 1.788c1.265 1.733 2.642 3.75 3.713 5.458l1.699-1.7c-.852-1.305-1.602-2.385-1.829-2.755zm-7-2v10h7s-6.801-10-7-10zm9.926 6.488l-1.737 1.738c.502.895.812 1.568.812 1.856 0 1.331-.588 1.917-2 1.917h-7c-.976 0-2-.988-2-2v-10c0-2.003.641-3 2-3 .256 0 1.117.977 2.204 2.381l1.821-1.821C11.133 4.211 9.561 2.5 8.5 2.5c-2.026 0-4 1.911-4 4v12c0 1.993 1.974 4 4 4h9c1.489 0 3-1.516 3-3 0-.889-.979-2.721-2.074-4.512z" clip-rule="evenodd"/><path fill-rule="evenodd" d="M17.5 24.5h-9c-3.313 0-6-2.687-6-6v-12c0-3.314 2.687-6 6-6 3.23 0 7.264 6.845 8 8 .762 1.194 6 8.334 6 11 0 2.762-2.238 5-5 5zm-2-14c-.212-.346-.902-1.482-1.795-2.791l-1.788 1.788c1.265 1.733 2.642 3.75 3.713 5.458l1.699-1.7c-.852-1.305-1.602-2.385-1.829-2.755zm-7-2v10h7s-6.801-10-7-10zm9.926 6.488l-1.737 1.738c.502.895.812 1.568.812 1.856 0 1.331-.588 1.917-2 1.917h-7c-.976 0-2-.988-2-2v-10c0-2.003.641-3 2-3 .256 0 1.117.977 2.204 2.381l1.821-1.821C11.133 4.211 9.561 2.5 8.5 2.5c-2.026 0-4 1.911-4 4v12c0 1.993 1.974 4 4 4h9c1.489 0 3-1.516 3-3 0-.889-.979-2.721-2.074-4.512z" clip-rule="evenodd"/></svg>