<svg viewBox="0 0 24 24" fill="currentColor"><path d="M3 11c-1.657 0-3 1.343-3 3v7c0 .553.448 1 1 1s1-.447 1-1v-7c0-.553.448-1 1-1s1-.447 1-1c0-.553-.448-1-1-1zm21-3c0-1.657-1.343-3-3-3 0-1.657-1.343-3-3-3s-3 1.343-3 3v6h6c1.657 0 3-1.343 3-3zm-7-3c0-.553.448-1 1-1s1 .447 1 1v2h2c.552 0 1 .447 1 1s-.448 1-1 1h-4V5zm4 8h-6v6c0 1.657 1.343 3 3 3s3-1.343 3-3c1.657 0 3-1.343 3-3s-1.343-3-3-3zm0 4h-2v2c0 .553-.448 1-1 1s-1-.447-1-1v-4h4c.552 0 1 .447 1 1s-.448 1-1 1zM10 2C8.343 2 7 3.343 7 5 5.343 5 4 6.343 4 8s1.343 3 3 3h6V5c0-1.657-1.343-3-3-3zm1 7H7c-.552 0-1-.447-1-1s.448-1 1-1h2V5c0-.553.448-1 1-1s1 .447 1 1v4zm-7 7c0 1.657 1.343 3 3 3 0 1.657 1.343 3 3 3s3-1.343 3-3v-6H7c-1.657 0-3 1.343-3 3zm7 3c0 .553-.448 1-1 1s-1-.447-1-1v-2H7c-.552 0-1-.447-1-1s.448-1 1-1h4v4z"/></svg>