<svg viewBox="0 0 24 24" fill="currentColor"><path d="M12 4c.553 0 1-.447 1-1V1c0-.553-.447-1-1-1-.553 0-1 .447-1 1v2c0 .553.447 1 1 1zM8 4c.553 0 1-.447 1-1 0-.276-.112-.526-.293-.707l-1-1C7.526 1.112 7.276 1 7 1c-.553 0-1 .447-1 1 0 .276.112.526.293.707l1 1C7.474 3.888 7.724 4 8 4zm8 2H8c-.553 0-1 .447-1 1v4c0 .546.293.707.293.707L9 13.414V15c-.553 0-1 .447-1 1s.447 1 1 1v6c0 .553.447 1 1 1h4c.553 0 1-.447 1-1v-9.586l1.707-1.707S17 11.546 17 11V7c0-.553-.447-1-1-1zm-2.707 6.293S13 12.454 13 13v9h-2v-9c0-.275-.112-.526-.293-.707L9.414 11h5.172l-1.293 1.293zM15 9H9V8h6v1zm2-8c-.275 0-.525.112-.707.293l-1 1C15.111 2.474 15 2.724 15 3c0 .553.447 1 1 1 .275 0 .525-.112.707-.293l1-1C17.889 2.526 18 2.276 18 2c0-.553-.447-1-1-1z"/></svg>