<svg viewBox="0 0 24 24" fill="currentColor"><path d="M14.938 16.688C14.805 16.291 14.441 16 14 16c-.553 0-1 .447-1 1l1 3c0 1.045-.938 2-2 2-1.037 0-1.9-.989-2-2l.895-1.553S11 18.326 11 18c0-.553-.447-1-1-1-.391 0-.721.23-.886.559l-.009-.006C8.856 17.927 8 19.368 8 20c0 2.209 1.791 4 4 4s4-1.791 4-4c0-.635-.773-2.709-1.052-3.316l-.01.004zM15 8c-.109 0-.213.029-.313.063l-6 2C8.291 10.195 8 10.559 8 11c0 .553.447 1 1 1 .11 0 .213-.03.313-.063l6-2C15.709 9.805 16 9.441 16 9c0-.553-.447-1-1-1zm-5.937-.687c.132.396.496.687.937.687.553 0 1-.447 1-1l-1-3c0-1.045.938-2 2-2 1.037 0 1.9.989 2 2l-.895 1.553S13 5.674 13 6c0 .553.447 1 1 1 .391 0 .721-.23.887-.558l.008.005C15.145 6.073 16 4.632 16 4c0-2.209-1.791-4-4-4S8 1.791 8 4c0 .635.773 2.709 1.051 3.316l.012-.003zM15 12c-.227 0-.316.052-.316.052l-6 1.999S8 14.186 8 15c0 .553.447 1 1 1 .11 0 .213-.029.313-.063l6-2c.396-.132.687-.496.687-.937 0-.553-.447-1-1-1z"/></svg>