<svg viewBox="0 0 24 24" fill="currentColor"><path d="M12 0c-1.991 0-9 5.373-9 12s7.04 12 9 12c1.991 0 9-5.373 9-12S13.991 0 12 0zm1 21.563v-3.147l3.707-3.707c.182-.184.293-.434.293-.709 0-.553-.447-1-1-1-.275 0-.525.111-.707.293L13 15.586v-3.172l2.707-2.707C15.889 9.526 16 9.276 16 9c0-.553-.447-1-1-1-.275 0-.525.112-.707.293L13 9.586V6c0-.553-.447-1-1-1-.553 0-1 .447-1 1v3.586L9.707 8.293C9.526 8.112 9.276 8 9 8c-.553 0-1 .447-1 1 0 .276.112.526.293.707L11 12.414v3.172l-2.293-2.293C8.526 13.111 8.276 13 8 13c-.553 0-1 .447-1 1 0 .275.112.525.293.707L11 18.414v3.148C8.982 20.313 5 16.505 5 12c0-5.522 6.02-10 7-10 1.043 0 7 4.478 7 10 0 4.505-3.982 8.313-6 9.563z"/></svg>