<svg viewBox="0 0 24 24" fill="currentColor"><path d="M23.506 3.157l.01-.015-5-3-.01.015C18.355.066 18.188 0 18 0c-.161 0-.309.047-.441.114l-.006-.009-5.509 2.755L7.515.143l-.009.014C7.355.066 7.188 0 7 0c-.161 0-.308.047-.442.114L6.553.105l-6 3 .005.009C.23 3.279 0 3.609 0 4v19c0 .553.447 1 1 1 .161 0 .308-.047.442-.114l.005.009 5.509-2.754 4.529 2.717.009-.015c.151.091.318.157.506.157.161 0 .308-.047.442-.114l.005.009 5.509-2.754 4.528 2.717.01-.015c.151.091.319.157.506.157.553 0 1-.447 1-1V4c0-.363-.204-.668-.494-.843zM6 19.382l-4 2V4.618l4-2v16.764zm5 1.85l-3-1.799V2.767l3 1.8v16.665zm6-1.85l-4 2V4.618l4-2v16.764zm5 1.85l-3-1.799V2.767l3 1.8v16.665z"/></svg>