<svg viewBox="0 0 24 24" fill="currentColor"><path d="M19 2.184V1c0-.553-.447-1-1-1s-1 .447-1 1v1.184c-1.162.413-2 1.511-2 2.816v6c0 1.305.838 2.402 2 2.816V23c0 .553.447 1 1 1s1-.447 1-1v-9.184c1.162-.414 2-1.512 2-2.816V5c0-1.305-.838-2.403-2-2.816zM19 11c0 .553-.447 1-1 1s-1-.447-1-1V5c0-.553.447-1 1-1s1 .447 1 1v6zm-2.168 11.445l-5.241-7.862c.505-.875.561-1.993.031-2.938L9.269 7.446c-.678-1.21-2.071-1.726-3.311-1.313L4.832 4.445l-.016.01C4.638 4.188 4.347 4 4 4c-.553 0-1 .447-1 1 0 .205.077.386.184.545l-.016.01 1.241 1.862c-.506.875-.56 1.993-.031 2.938l2.354 4.198c.678 1.211 2.071 1.727 3.311 1.313l5.126 7.688.017-.011c.175.27.466.457.814.457.553 0 1-.447 1-1 0-.205-.077-.386-.184-.545l.016-.01zm-7.185-8.506c-.45.268-1.026.107-1.286-.355L6.009 9.386c-.261-.464-.107-1.058.344-1.325s1.026-.108 1.286.355l2.353 4.198c.259.464.106 1.058-.345 1.325z"/></svg>