<svg viewBox="0 0 24 24.004" fill="currentColor"><path d="M3.257 7.695c.204.204.472.306.739.306h2.586l2.004 2.004h2.828L7.996 6.587V4.001c0-.268-.102-.535-.306-.739L4.734.307c-.408-.408-1.069-.408-1.478 0L.302 3.262c-.205.205-.303.474-.302.743.001.266.099.531.302.734l2.955 2.956zm.739-5.172l1.91 1.91L6 6.005l-1.571-.094-1.91-1.91 1.477-1.478zm19.126 11.56c.593-.59.885-1.367.878-2.141-.007-.756-.3-1.51-.878-2.086-1.172-1.167-3.071-1.167-4.243 0 0 0-1.104 1.172-1.879 1.172H3c-1.657 0-3 1.338-3 2.988s1.343 2.988 3 2.988h14c3.309 0 6.122-2.921 6.122-2.921zM2 14.017c0-.55.447-.996 1-.996h14c1.715 0 3.293-1.756 3.293-1.756.391-.389 1.023-.389 1.414 0 .391.39.391 1.02 0 1.409 0 0-2.432 2.339-4.707 2.339H3c-.553 0-1-.447-1-.996zm20 5.987c-.178 0-.348.031-.512.074l-2.074-2.074h-2.828l3.488 3.488c-.045.165-.074.335-.074.512 0 1.104.896 2 2 2s2-.896 2-2c0-1.103-.896-2-2-2z"/></svg>