<svg viewBox="0 0 24 24" fill="currentColor"><path d="M6 19c0-.553-.447-1-1-1-.276 0-.526.111-.707.293L3 19.586l-1.293-1.293C1.526 18.111 1.276 18 1 18c-.553 0-1 .447-1 1 0 .275.112.525.293.707L1.586 21 .293 22.293C.112 22.475 0 22.725 0 23c0 .553.447 1 1 1 .276 0 .526-.111.707-.293L3 22.414l1.293 1.293c.181.182.431.293.707.293.553 0 1-.447 1-1 0-.275-.112-.525-.293-.707L4.414 21l1.293-1.293C5.888 19.525 6 19.275 6 19zM22.414 3l1.293-1.293C23.889 1.526 24 1.276 24 1c0-.553-.447-1-1-1-.275 0-.525.112-.707.293L21 1.586 19.707.293C19.525.112 19.275 0 19 0c-.553 0-1 .447-1 1 0 .276.111.526.293.707L19.586 3l-1.293 1.293C18.111 4.474 18 4.724 18 5c0 .553.447 1 1 1 .275 0 .525-.112.707-.293L21 4.414l1.293 1.293c.182.181.432.293.707.293.553 0 1-.447 1-1 0-.276-.111-.526-.293-.707L22.414 3zM16 2h-1c-2.209 0-4 1.791-4 4v12c0 1.104-.896 2-2 2H8c-.553 0-1 .447-1 1s.447 1 1 1h1c2.209 0 4-1.791 4-4V6c0-1.104.896-2 2-2h1c.553 0 1-.447 1-1s-.447-1-1-1z"/></svg>