<svg viewBox="0 0 24 24" fill="currentColor"><path d="M19.553 12.056C20.43 11.322 21 10.233 21 9c0-2.209-1.791-4-4-4h-1V4c0-2.209-1.791-4-4-4S8 1.791 8 4v1H7C4.791 5 3 6.791 3 9c0 1.233.57 2.322 1.447 3.056C2.502 12.327 1 13.98 1 16c0 2.209 1.791 4 4 4h6v3c0 .553.447 1 1 1 .553 0 1-.447 1-1v-3h6c2.209 0 4-1.791 4-4 0-2.02-1.502-3.673-3.447-3.944zM19 18h-3.391l1.904-1.143s.485-.17.485-.857c0-.553-.447-1-1-1-.376 0-.515.143-.515.143L13 17.232v-4.818l2.707-2.707C15.889 9.526 16 9.276 16 9c0-.553-.447-1-1-1-.546 0-.707.293-.707.293L12 10.586 9.707 8.293C9.526 8.112 9.276 8 9 8c-.553 0-1 .447-1 1 0 .546.293.707.293.707L11 12.414v4.818l-3.485-2.09c0 .001-.139-.142-.515-.142-.553 0-1 .447-1 1 0 .363.204.668.494.843L8.39 18H5c-1.104 0-2-.896-2-2s.896-2 2-2c0 0 3-.063 3-2 0-.969-1-1-1-1-1.104 0-2-.896-2-2s.896-2 2-2h2c.553 0 1-.447 1-1V4c0-1.104.896-2 2-2s2 .896 2 2v2c0 .553.447 1 1 1h2c1.104 0 2 .896 2 2s-.896 2-2 2c0 0-1 .027-1 1 0 1.961 3 2 3 2 1.104 0 2 .896 2 2s-.896 2-2 2z"/></svg>