<svg viewBox="0 0 24 24" fill="currentColor"><path d="M18.895 18.553L16.618 14H17c.552 0 1-.447 1-1 0-.161-.047-.309-.115-.441L15.618 8H16c.552 0 1-.447 1-1 0-.408-.168-.555-.168-.555l-4-6S12.66 0 12 0s-.832.445-.832.445l-4 6S7 6.592 7 7c0 .553.448 1 1 1h.382l-2.276 4.553c-.001 0-.106.121-.106.447 0 .553.448 1 1 1h.382l-2.276 4.553c-.001 0-.106.121-.106.447 0 .553.448 1 1 1h5v3c0 .553.448 1 1 1s1-.447 1-1v-3h5c.552 0 1-.447 1-1 0-.326-.105-.447-.105-.447zM7.618 18l2.276-4.553s.105-.121.105-.447c0-.553-.448-1-1-1h-.381l2.276-4.553c.001 0 .106-.121.106-.447 0-.553-.448-1-1-1h-.131L12 2.803 14.131 6H14c-.552 0-1 .447-1 1 0 .326.105.447.105.447L15.382 12H15c-.552 0-1 .447-1 1 0 .326.105.447.105.447L16.382 18H7.618z"/></svg>