<svg viewBox="0 0 24 24" fill="currentColor"><path d="M17.293 13.707c.182.182.432.293.707.293.553 0 1-.447 1-1 0-.275-.111-.526-.293-.707L13 6.586V3.414l4.293 4.293c.182.181.432.293.707.293.553 0 1-.447 1-1 0-.276-.111-.526-.293-.707l-6-6C12.525.112 12.276 0 12 0s-.526.112-.707.293l-6 6C5.112 6.474 5 6.724 5 7c0 .553.447 1 1 1 .276 0 .526-.112.707-.293L11 3.414v3.172l-5.707 5.707C5.112 12.474 5 12.725 5 13c0 .553.447 1 1 1 .276 0 .526-.111.707-.293L11 9.414v3.172l-5.707 5.707C5.112 18.475 5 18.725 5 19c0 .553.447 1 1 1 .276 0 .526-.111.707-.293L11 15.414V23c0 .553.447 1 1 1 .553 0 1-.447 1-1v-7.586l4.293 4.293c.182.182.432.293.707.293.553 0 1-.447 1-1 0-.275-.111-.525-.293-.707L13 12.586V9.414l4.293 4.293z"/></svg>