<svg viewBox="0 0 24 24" fill="currentColor"><path d="M23.271 11.055l-5.992-1.729.669-2.01C17.98 7.217 18 7.111 18 7c0-.553-.447-1-1-1-.227 0-.316.052-.316.052l-2.009.669L12.945.73C12.825.312 12.456 0 12 0c-.835 0-.962.726-.962.726L9.325 6.721l-2.009-.669S7.227 6 7 6c-.553 0-1 .447-1 1 0 .229.051.316.051.316l.67 2.009-5.995 1.713S0 11.165 0 12c0 .456.312.825.729.945l5.991 1.729-.67 2.01s-.051.09-.051.315c0 .553.447 1 1 1 .111 0 .217-.019.315-.054l2.01-.668 1.713 5.996s.127.726.962.726c.456 0 .825-.312.944-.729l1.729-5.99 2.013.656c.102.035.204.064.315.064.553 0 1-.447 1-1 0-.111-.02-.217-.053-.314l-.668-2.011 5.99-1.729c.419-.121.731-.49.731-.946s-.312-.825-.729-.945zm-7.544 1.983S15 13.165 15 14c0 .227.052.316.052.316l.367 1.103-1.103-.367S14.226 15 14 15c-.835 0-.962.727-.962.727L12 19.359l-1.055-3.631c-.12-.415-.489-.728-.945-.728-.227 0-.316.052-.316.052l-1.103.367.355-1.106c.035-.1.064-.204.064-.313 0-.835-.726-.962-.726-.962L4.64 12l3.635-1.038-.004-.017c.417-.12.729-.489.729-.945 0-.227-.052-.316-.052-.316l-.367-1.103 1.106.355c.1.034.203.064.313.064.456 0 .825-.312.945-.729L12 4.64l1.055 3.631c.12.417.489.729.945.729.109 0 .213-.03.313-.063l1.106-.355-.367 1.103s-.052.09-.052.316c0 .456.313.825.729.945l-.004.017L19.359 12l-3.632 1.038zM12 11c-.553 0-1 .447-1 1 0 .553.447 1 1 1 .553 0 1-.447 1-1 0-.553-.447-1-1-1z"/></svg>