<svg class='amzn' xmlns="http://www.w3.org/2000/svg" fill="currentColor" viewBox="0 0 57 18" style="transform: translateY(0.3ex)">
  <g color="#f9a51b">
    <path  d="M35.1859 14.306C31.8185 16.7046 27.1279 18 22.9897 18c-5.7967 0-10.9635-2.0939-14.94426-5.6811-.36817-.3319-.13044-.7211.32736-.4585 4.3305 2.4992 9.5204 3.9613 14.966 3.9613 3.6723 0 7.5729-.7297 11.2796-2.3034.8105-.3447 1.1464.3748.5675.7877z"/>
    <path  d="M36.6246 12.6874c-.4259-.5429-2.804-.2567-3.8725-.1308-.3215.0394-.3739-.2429-.0808-.4469 1.8968-1.3232 5.0062-.938 5.3657-.5013.3637.4493-.096 3.5625-1.8731 5.0486-.274.2301-.5312.1053-.4105-.1959.3988-.9983 1.295-3.2327.8712-3.7737z"/>
  </g>

  <path d="M32.8862 2.95957V1.60851c.0015-.20565.1495-.34318.3286-.34318h5.7874c.1864 0 .3343.14144.3343.34197v1.16076c-.0023.1916-.1588.44647-.4359.84996l-3.0004 4.48084c1.1134-.02727 2.2915.14684 3.3032.74257.2279.13474.2899.33118.3072.5265v1.44487c0 .1997-.2084.4304-.4252.3102-1.7832-.9793-4.1474-1.0857-6.1169.0118-.2018.1128-.4118-.1132-.4118-.3129V9.4474c0-.21905.0034-.59471.215-.92896l3.4729-5.21718h-3.0234c-.1847-.00009-.3328-.138-.335-.34169zM11.774 11.4075h-1.7611c-.16752-.0107-.30254-.1427-.31498-.3112l.0016-9.46471c0-.18871.15084-.34086.33938-.34086l1.6398-.00065c.1718.00986.3091.14572.3204.31843v1.23613h.0323c.4264-1.19519 1.233-1.75379 2.3168-1.75379 1.1021 0 1.7905.5586 2.285 1.75379.4277-1.19519 1.3966-1.75379 2.4332-1.75379.7401 0 1.5447.31927 2.0386 1.03634.5595.7945.4439 1.95154.4439 2.96509l-.0007 5.97402c0 .1898-.1536.3411-.3404.3411h-1.7583c-.1775-.0107-.3162-.1578-.3162-.3392l-.0007-5.01895c0-.3979.0322-1.39256-.0501-1.77269-.1324-.63696-.5267-.81618-1.0362-.81618-.4255 0-.8703.29889-1.0517.77701-.1799.47839-.1642 1.27326-.1642 1.81186v5.01685c0 .1898-.1522.3411-.3398.3411H14.732c-.1771-.0107-.3166-.1578-.3166-.3392l-.0023-5.01894c0-1.05626.1653-2.60868-1.0834-2.60868-1.2668 0-1.2171 1.51501-1.2171 2.60868l-.0008 5.01684c-.0001.1903-.1493.3416-.3378.3416zM44.3206 1.09094c2.6111 0 4.0276 2.3499 4.0276 5.33704 0 2.88607-1.5646 5.17932-4.0276 5.17932-2.5652 0-3.9635-2.3542-3.9635-5.2801 0-2.94563 1.4141-5.23626 3.9635-5.23626zm.0167 1.93088c-1.3004 0-1.3828 1.85429-1.3828 3.00574 0 1.15564-.0166 3.62409 1.366 3.62409 1.3614 0 1.4261-1.99071 1.4261-3.20237 0-.79766-.032-1.75314-.2628-2.5105-.1967-.65827-.5913-.91696-1.1465-.91696zm7.3988 8.38568h-1.7558c-.1774-.0107-.316-.1578-.316-.3392l-.0037-9.46816c.0155-.17364.1612-.3095.339-.3095l1.6352-.00065c.1546.00856.2811.11864.313.26585v1.44662h.0332c.4929-1.29326 1.1804-1.9117 2.397-1.9117.7902 0 1.5643.29926 2.0573 1.11674.4576.7543.4576 2.02998.4576 2.94554v5.95546c-.0203.1696-.1648.2989-.334.2989h-1.7682c-.1606-.01-.2939-.1373-.3142-.2989V5.96996c0-1.03383.1168-2.54959-1.1018-2.54959-.4281 0-.8184.29963-1.0168.75802-.2461.57787-.2784 1.15359-.2784 1.79166v5.09635c-.0045.1898-.1559.3411-.3434.3411zM8.32291 9.67091c-.32035-.46704-.66301-.844-.66301-1.7081V5.08995c0-1.21547.08311-2.33259-.77475-3.17082-.67616-.67958-1.79588-.91901-2.65338-.91901-1.67598 0-3.544935.65483-3.937552 2.82271-.041777.23189.118577.35221.263108.38627l1.706824.19364c.15866-.00856.27519-.1741.30577-.33983.14684-.74769.74444-1.10772 1.41607-1.10772.36106 0 .77297.14051.98817.4797.24702.37826.21386.89843.21386 1.33756v.23738c-1.02203.12032-2.35668.19979-3.31071.63937C.773413 6.14928 0 7.16534 0 8.6636c0 1.9173 1.15234 2.8753 2.63374 2.8753 1.25465 0 1.93704-.3099 2.90468-1.341.31999.4846.42443.7185 1.00896 1.2296.13146.0729.29929.0671.41635-.0435l.00391.0045c.35191-.3284.99199-.91 1.34976-1.2251.14284-.1242.1176-.32536.00551-.49249zm-3.46484-.82827c-.28053.51636-.72426.83619-1.21821.83619-.6759 0-1.07109-.53926-1.07109-1.33552 0-1.56945 1.34611-1.8542 2.61952-1.8542v.39827c0 .71643.01609 1.31598-.33022 1.95526zm26.55003.82827c-.3228-.46704-.6649-.844-.6649-1.7081V5.08995c0-1.21547.0825-2.33259-.7754-3.17082-.6732-.67958-1.7945-.91901-2.6503-.91901-1.6756 0-3.5456.65483-3.9379 2.82271-.0418.23189.1186.35221.2628.38627l1.7058.19364c.1611-.00856.2768-.1741.3068-.33983.1478-.74769.7428-1.10772 1.4154-1.10772.3619 0 .7747.14051.9878.4797.2464.37826.2135.89843.2135 1.33756v.23738c-1.0207.12032-2.3546.19979-3.3093.63937-1.1039.50008-1.8784 1.51614-1.8784 3.0144 0 1.9173 1.1517 2.8753 2.6351 2.8753 1.2514 0 1.9374-.3099 2.904-1.341.3193.4846.4245.7185 1.0089 1.2296.1325.0729.2986.0671.4151-.0435l.0038.0045c.3527-.3284.9926-.91 1.3522-1.2251.1433-.1242.1188-.32536.005-.49249zm-3.4661-.82827c-.2783.51636-.7238.83619-1.2182.83619-.6759 0-1.0694-.53926-1.0694-1.33552 0-1.56945 1.3444-1.8542 2.6175-1.8542v.39827c0 .71643.0171 1.31598-.3299 1.95526z"/>
</svg>
