<svg class='drizly' xmlns="http://www.w3.org/2000/svg" fill="currentColor" viewBox="0 0 36 30">
  <path d="M25.3675 11.7722l-3.3649.7858.066-6.98764 1.1396-.26391-.06 6.09995 2.2253-.5159-.006.8817zm-4.9663-5.00825l-2.7891 5.92595 2.7351-.6358-.006.8877-3.9887.9297.006-.7857 2.7891-5.92598-2.5312.58779.006-.91768 3.7847-.8817-.0059.81572zm-5.8001 7.51545l-1.1396.2639.066-6.98762 1.1396-.26391-.066 6.98763zm-4.0306.9357l-1.04963-2.4712-.74375.1739-.02399 2.7171-1.10962.2579.06598-6.98758 1.67942-.38987c1.45149-.33588 2.27319.08997 2.26119 1.57745-.006.7857-.2819 1.5835-1.1036 2.1413l1.1636 2.717-1.1396.264zM32.1391 3.77098c-.4198-.16795-.9776-.56981-1.1816-.85171-.2039-.28191-1.0496-1.19359-1.6914-1.42152-.6418-.22792-1.5474-.25791-1.8953-.25791-.3479 0-1.2536 0-1.6075-.14395-.3479-.14395-.8457-1.241574-1.3135-1.0796296 0 0-.8158.0539816-1.3436 1.1635996-.5278 1.10962-.3778 1.27757-2.4831 1.73341-2.0993.45584-4.2886.2819-5.1943.76774-.9056.47983-1.8653 2.12927-4.2885 2.21324-2.42316.08397-3.23888-.14395-5.92596 1.50548C3.39696 8.51535 2.6772 9.48702 2.29933 10.1648l.92369-.21594c1.78139-.41386 2.77105.13794 2.74106 2.83704-.02399 2.6991-1.06164 3.7427-2.81304 4.1506l-1.51148.3538.05998-5.9979c-.42586.7617-1.157607 2.2372-1.277566 3.6108-.143951 1.6494.467841 4.2885.55781 5.1702.089966.8817.407856 1.9613.377866 2.5851-.02998.6238-.32388 2.2432 0 2.5851.3179.3419 2.24924 1.3076 3.56279.6238 1.31355-.6838.67177-1.1096.43785-1.3075-.23392-.198-.64178-.7378-.81572-.9657-.17394-.2279-.11396-.4858-.02999-.6538.08997-.1679.40786-1.3375.49783-1.5355.08997-.1979 1.42751-2.1292 1.54747-2.5011.11396-.3719 1.1696-.2579 1.40352-.054.23392.1979.64178 1.4755.67177 2.0453.02999.5698.05998 2.1293.55181 2.6151.49783.4859 2.47712.5638 2.83102.5698.5938.006 1.1936-.4018.8157-.7677-.3778-.3719-1.2835-1.2476-1.4275-1.4455-.1439-.198.144-1.0796.4079-1.4215.2639-.3419.4438-.4259.6178-.054.1739.3719.9896 2.6451 1.1636 4.0066.1739 1.3615.2039 3.2689.3239 3.6108.1139.3419 1.8113 1.9913 2.717 1.9913.9057 0 3.7667-.5398 2.3932-2.1593-1.3735-1.6194-1.5175-1.0796-1.5774-2.5011-.06-1.4215.2039-4.2046.2939-4.9723.0899-.7677.1139-.8817.2939-.4858.1739.3958.5278 3.4968.7857 4.4624.2639.9657.4019 2.1533 1.4575 2.5552 1.0436.3958 3.9167.8877 4.6124.3718.4259-.3179-.2639-.8217-.9657-1.3615-.7017-.5398-1.8413-1.1636-1.8653-1.9313-.03-.7678.5518-3.6948.9057-4.5165.3479-.8217.5518-1.7634.6418-3.041.0899-1.2775.2339-3.3528.4378-3.4668.162-.0899 1.6914-.8097 3.1609-1.6434l.024-2.56713-1.6254-3.99463 1.1516-.26991 1.0856 2.96899 1.1696-3.49681 1.0676-.24591-1.7214 4.77436-.024 2.14724c1.6675-1.06161 2.2193-1.25954 2.5672-1.51745.3478-.25791 1.4875-.16794 2.4531-.73775.9657-.5698.9297-1.04964.9297-1.04964s.5578-.42585.7018-.99566c.1439-.5698.6118-.85171.6118-1.53547 0-.68377-.114-.82172-.7318-.8817-.6118-.05398-2.3032.02999-2.7291-.13795z"/>
  <path d="M9.35299 9.42101l-.55181.12596-.02399 2.53113.5938-.1379c.81571-.192 1.15161-.5998 1.16361-1.5715.012-.9237-.3059-1.15162-1.18161-.94769zM4.82438 13.0618c.01799-1.8534-.33589-2.4951-1.4695-2.2312l-.50982.1199-.05398 5.2062.51582-.1199c1.12761-.2699 1.49949-1.0976 1.51748-2.975z"/>
</svg>
