<svg xmlns="http://www.w3.org/2000/svg" fill="currentColor" viewBox="0 0 277 60">
    <path d="M42.2726 56.2077c4.3388-.022 7.8383-3.5571 7.8164-7.8959-.022-4.3389-3.5571-7.8384-7.8959-7.8164-4.3389.022-7.8384 3.5571-7.8164 7.8959.0219 4.3388 3.5571 7.8384 7.8959 7.8164zM59.1854 30.9858c.0742-4.3382-3.3825-7.9152-7.7207-7.9894-4.3383-.0742-7.9153 3.3824-7.9895 7.7207-.0742 4.3383 3.3825 7.9153 7.7207 7.9895 4.3383.0742 7.9153-3.3825 7.9895-7.7208zM43.3554 20.6869c4.3388-.0114 7.847-3.5379 7.8356-7.8768-.0113-4.33889-3.5379-7.84703-7.8768-7.83567-4.3388.01136-7.847 3.53792-7.8356 7.87677.0113 4.3389 3.5379 7.847 7.8768 7.8357zM24.3851 15.7181c4.3384-.0705 7.7982-3.6445 7.7277-7.98278-.0704-4.33831-3.6444-7.7981257-7.9827-7.72770181C19.7918.078042 16.332 3.65203 16.4024 7.99035c.0704 4.33835 3.6444 7.79815 7.9827 7.72775zM16.3274 19.7531c.0439-4.3387-3.4377-7.8915-7.77637-7.9354C4.21237 11.7738.659581 15.2554.61566 19.594c-.043922 4.3387 3.43766 7.8915 7.77632 7.9354 4.33862.0439 7.89142-3.4376 7.93542-7.7763zM15.7171 39.4639c.0492-4.3386-3.428-7.8956-7.7666-7.9449-4.33861-.0492-7.8956496 3.4281-7.94487165 7.7667C-.0435937 43.6243 3.43364 47.1813 7.77225 47.2305c4.33865.0493 7.89565-3.428 7.94485-7.7666zM23.0037 59.9913c4.3384-.0636 7.8039-3.6322 7.7403-7.9706-.0636-4.3384-3.6322-7.8039-7.9706-7.7402-4.3384.0636-7.8039 3.6321-7.7403 7.9705.0637 4.3385 3.6322 7.8039 7.9706 7.7403zM204.058 11.23c-2.054-.0013-4.063.6067-5.772 1.7472-1.709 1.1405-3.041 2.7622-3.828 4.6599-.788 1.8978-.994 3.9864-.594 6.0017.4 2.0152 1.388 3.8666 2.841 5.3198 1.452 1.4533 3.303 2.4432 5.318 2.8445 2.015.4013 4.104.1961 6.002-.5899 1.898-.7859 3.521-2.1172 4.662-3.8254 1.142-1.7082 1.751-3.7166 1.751-5.7712.001-1.3636-.267-2.7141-.788-3.9742-.521-1.2602-1.286-2.4052-2.25-3.3698-.963-.9646-2.108-1.7297-3.368-2.2518-1.26-.5221-2.61-.7908-3.974-.7908zm0 18.4741c-1.609.0406-3.194-.3996-4.551-1.2642-1.358-.8647-2.427-2.1147-3.071-3.5901-.644-1.4754-.833-3.1093-.544-4.6928.289-1.5835 1.044-3.0448 2.169-4.1971 1.124-1.1522 2.566-1.9431 4.142-2.2716 1.576-.3284 3.214-.1795 4.705.4277 1.491.6073 2.766 1.6452 3.664 2.9813.898 1.3361 1.378 2.9095 1.377 4.5193.023 2.1181-.794 4.159-2.273 5.6751-1.479 1.5162-3.5 2.3838-5.618 2.4124zM74.9097 11.5633h6.8563c6.802 0 10.0533 4.8498 10.0533 9.7948 0 5.1083-3.0541 10.2029-10.0533 10.2029h-6.8563V11.5633zm14.4269 9.7676c0-3.7139-2.4555-7.3733-7.5706-7.3733h-4.3668v15.1547h4.3668c5.2987 0 7.5706-3.9451 7.5706-7.7678v-.0136zM115.776 11.5633h2.489V31.595h-2.489V11.5633zM126.435 11.5633l12.243 15.3248V11.5633h2.462V31.595h-1.7l-12.291-15.2703V31.595h-2.456V11.5633h1.742zM167.811 11.5633l4.659 16.5355 5.115-16.5355h1.599l5.149 16.5491 4.625-16.5491h2.857l-6.122 20.0181h-2.482l-4.762-14.9643-4.761 14.9643h-2.51l-6.122-20.0181h2.755zM147.799 11.5633h2.463V31.595h-2.463V11.5633zM159.166 11.5633h3.115l-8.727 9.652 9.604 10.3797h-3.088l-9.795-10.2845 8.891-9.7472zM238.375 11.5633h2.462V31.595h-2.462V11.5633z"/>
    <path d="M249.754 11.5633h3.122l-8.747 9.9989 9.583 10.0328h-3.088l-9.794-9.9308 8.924-10.1009zM263.507 13.3726c-2.19 0-4.407 1.1359-4.407 3.2854 0 1.646 1.632 2.8092 4.584 3.4417 4.081.8639 7.095 2.0406 7.095 6.1218 0 3.7955-3.496 5.7817-7.163 5.7817-1.418-.0124-2.816-.3333-4.098-.9406-1.281-.6073-2.415-1.4863-3.323-2.576l1.762-1.6325c.693.8483 1.558 1.5394 2.538 2.0273.981.4878 2.054.7614 3.148.8023 2.102 0 4.673-1.204 4.673-3.5506 0-2.1222-1.761-3.1697-4.917-3.8295-3.844-.7958-6.755-2.2379-6.755-5.6933 0-3.5982 3.347-5.4415 6.802-5.4415 1.236-.0247 2.459.245 3.57.7867 1.11.5417 2.076 1.3399 2.817 2.3286l-1.673 1.5032c-.525-.7458-1.222-1.3544-2.032-1.7746-.81-.4203-1.708-.6398-2.621-.6401zM233.81 31.5951l-6.625-7.625c4.081-.4421 5.768-3.1697 5.741-6.1217 0-3.265-2.258-6.2374-6.802-6.2374h-7.332v19.9841h2.482v-7.5366h2.871l6.523 7.5366h3.142zM221.274 13.808h4.904c2.884 0 4.313 2.0406 4.286 4.0812 0 2.2582-1.402 3.9587-4.401 3.9587h-4.762l-.027-8.0399zM111.212 31.5951l-6.598-7.625c4.081-.4421 5.768-3.1697 5.741-6.1217 0-3.265-2.258-6.2374-6.802-6.2374h-7.3665v19.9841h2.4895v-7.5366h2.87l6.517 7.5366h3.149zM98.676 13.808h4.897c2.891 0 4.32 2.0406 4.292 4.0812 0 2.2582-1.401 3.9587-4.407 3.9587h-4.7616l-.0204-8.0399zM272.269 13.6039c0-.5141.204-1.0072.567-1.3708.364-.3635.857-.5678 1.371-.5678s1.007.2043 1.371.5678c.363.3636.568.8567.568 1.3708s-.205 1.0072-.568 1.3708c-.364.3635-.857.5678-1.371.5678s-1.007-.2043-1.371-.5678c-.363-.3636-.567-.8567-.567-1.3708zm3.557 0c0-.4293-.171-.8411-.474-1.1447-.304-.3036-.716-.4742-1.145-.4742-.429 0-.841.1706-1.145.4742-.303.3036-.474.7154-.474 1.1447 0 .4294.171.8411.474 1.1447.304.3036.716.4742 1.145.4742.429 0 .841-.1706 1.145-.4742.303-.3036.474-.7153.474-1.1447zm-2.319-1.0951h.741c.087-.0098.175-.0008.258.0265.084.0272.16.072.225.1313.064.0593.115.1318.149.2126.034.0807.051.1678.048.2554.002.1433-.046.2829-.137.3937-.091.1109-.218.1859-.359.2116l.68.9591h-.313l-.68-.9591h-.313v.9387h-.306l.007-2.1698zm.741.9727c.252 0 .381-.1293.381-.3469 0-.2177-.129-.3537-.381-.3537h-.435v.6802l.435.0204zM81.8851 54.228c2.489 0 4.009-.912 5.396-2.356l-1.501-1.52c-1.14 1.064-2.185 1.729-3.819 1.729-2.546 0-4.389-2.128-4.389-4.731v-.038c0-2.603 1.843-4.693 4.389-4.693 1.52 0 2.66.665 3.724 1.653l1.501-1.729c-1.273-1.216-2.755-2.071-5.206-2.071-4.028 0-6.859 3.097-6.859 6.878v.038c0 3.819 2.888 6.84 6.764 6.84zM89.4714 54h2.299v-3.819c0-2.66 1.406-3.971 3.42-3.971h.133v-2.432c-1.767-.076-2.926.95-3.553 2.451v-2.261h-2.299V54zM101.584 54.228c1.843 0 3.154-.741 4.104-1.881l-1.349-1.197c-.798.779-1.596 1.197-2.717 1.197-1.482 0-2.6409-.912-2.8879-2.546h7.3719c.019-.228.038-.437.038-.646 0-2.888-1.615-5.396-4.807-5.396-2.8689 0-4.9019 2.356-4.9019 5.225v.038c0 3.097 2.242 5.206 5.1489 5.206zm-2.8689-5.947c.209-1.558 1.197-2.641 2.6029-2.641 1.52 0 2.394 1.159 2.546 2.641h-5.1489zM116.87 54v-5.947c0-2.679-1.444-4.237-4.408-4.237-1.634 0-2.717.342-3.819.836l.627 1.843c.912-.38 1.748-.627 2.869-.627 1.596 0 2.47.76 2.47 2.147v.19c-.779-.247-1.558-.418-2.774-.418-2.337 0-4.066 1.064-4.066 3.287v.038c0 2.014 1.672 3.097 3.572 3.097 1.52 0 2.565-.627 3.249-1.444V54h2.28zm-2.223-3.629c0 1.254-1.14 2.109-2.66 2.109-1.083 0-1.938-.532-1.938-1.482v-.038c0-.969.855-1.558 2.299-1.558.893 0 1.71.171 2.299.399v.57zM122.874 54.171c.855 0 1.501-.19 2.071-.513v-1.881c-.456.228-.912.342-1.425.342-.779 0-1.235-.361-1.235-1.254v-4.921h2.698v-1.976h-2.698v-2.755h-2.299v2.755h-1.273v1.976h1.273v5.282c0 2.204 1.197 2.945 2.888 2.945zM127.342 42.429h2.47v-2.185h-2.47v2.185zM127.437 54h2.299V43.968h-2.299V54zM137.51 54.228c3.097 0 5.377-2.375 5.377-5.225v-.038c0-2.869-2.261-5.206-5.339-5.206-3.078 0-5.358 2.375-5.358 5.244v.038c0 2.85 2.261 5.187 5.32 5.187zm.038-1.995c-1.786 0-3.059-1.482-3.059-3.23v-.038c0-1.748 1.178-3.192 3.021-3.192 1.805 0 3.078 1.463 3.078 3.23v.038c0 1.729-1.178 3.192-3.04 3.192zM145.228 54h2.299v-5.662c0-1.558.931-2.489 2.261-2.489 1.368 0 2.147.893 2.147 2.451V54h2.299v-6.384c0-2.337-1.311-3.857-3.572-3.857-1.558 0-2.489.817-3.135 1.767v-1.558h-2.299V54zM169.148 54.228c2.489 0 4.009-.912 5.396-2.356l-1.501-1.52c-1.14 1.064-2.185 1.729-3.819 1.729-2.546 0-4.389-2.128-4.389-4.731v-.038c0-2.603 1.843-4.693 4.389-4.693 1.52 0 2.66.665 3.724 1.653l1.501-1.729c-1.273-1.216-2.755-2.071-5.206-2.071-4.028 0-6.859 3.097-6.859 6.878v.038c0 3.819 2.888 6.84 6.764 6.84zM181.147 54.228c1.843 0 3.154-.741 4.104-1.881l-1.349-1.197c-.798.779-1.596 1.197-2.717 1.197-1.482 0-2.641-.912-2.888-2.546h7.372c.019-.228.038-.437.038-.646 0-2.888-1.615-5.396-4.807-5.396-2.869 0-4.902 2.356-4.902 5.225v.038c0 3.097 2.242 5.206 5.149 5.206zm-2.869-5.947c.209-1.558 1.197-2.641 2.603-2.641 1.52 0 2.394 1.159 2.546 2.641h-5.149zM188.015 54h2.299v-5.662c0-1.558.931-2.489 2.261-2.489 1.368 0 2.147.893 2.147 2.451V54h2.299v-6.384c0-2.337-1.311-3.857-3.572-3.857-1.558 0-2.489.817-3.135 1.767v-1.558h-2.299V54zM203.161 54.171c.855 0 1.501-.19 2.071-.513v-1.881c-.456.228-.912.342-1.425.342-.779 0-1.235-.361-1.235-1.254v-4.921h2.698v-1.976h-2.698v-2.755h-2.299v2.755H199v1.976h1.273v5.282c0 2.204 1.197 2.945 2.888 2.945zM211.91 54.228c1.843 0 3.154-.741 4.104-1.881l-1.349-1.197c-.798.779-1.596 1.197-2.717 1.197-1.482 0-2.641-.912-2.888-2.546h7.372c.019-.228.038-.437.038-.646 0-2.888-1.615-5.396-4.807-5.396-2.869 0-4.902 2.356-4.902 5.225v.038c0 3.097 2.242 5.206 5.149 5.206zm-2.869-5.947c.209-1.558 1.197-2.641 2.603-2.641 1.52 0 2.394 1.159 2.546 2.641h-5.149zM218.779 54h2.299v-3.819c0-2.66 1.406-3.971 3.42-3.971h.133v-2.432c-1.767-.076-2.926.95-3.553 2.451v-2.261h-2.299V54z"/>
</svg>
