<svg xmlns="http://www.w3.org/2000/svg" fill="currentColor" viewBox="0 0 277 60">
    <path d="M42.2538 56.2041c4.3394-.009 7.8498-3.5342 7.8407-7.8735-.0091-4.3394-3.5342-7.8498-7.8736-7.8407-4.3394.0091-7.8498 3.5342-7.8407 7.8736.0091 4.3393 3.5342 7.8497 7.8736 7.8406zM59.1895 30.9108c.0311-4.3393-3.4614-7.8821-7.8007-7.9132-4.3392-.031-7.8821 3.4615-7.9131 7.8007-.0311 4.3393 3.4614 7.8821 7.8007 7.9132 4.3392.031 7.8821-3.4615 7.9131-7.8007zM43.3414 20.6963c4.3393-.0046 7.8534-3.526 7.8489-7.8654-.0046-4.33936-3.526-7.85344-7.8654-7.84889-4.3394.00454-7.8534 3.52599-7.8489 7.86539.0045 4.3394 3.526 7.8534 7.8654 7.8489zM24.3106 15.719c4.3393-.0295 7.833-3.5711 7.8035-7.91041-.0296-4.33928-3.5712-7.8330147-7.9105-7.8034777-4.3392.029537-7.833 3.5711577-7.8034 7.9104377.0295 4.33925 3.5711 7.83305 7.9104 7.80345zM16.3276 19.7073c.0182-4.3394-3.4848-7.8718-7.82414-7.89-4.33934-.0182-7.871805 3.4848-7.889982 7.8242-.018176 4.3393 3.484822 7.8718 7.824162 7.8899 4.33936.0182 7.87186-3.4848 7.88996-7.8241zM15.7183 39.4146c.0212-4.3394-3.4793-7.8743-7.81864-7.8955-4.33933-.0212-7.8742365 3.4793-7.89544259 7.8187C-.0169887 43.6771 3.48354 47.212 7.82287 47.2332c4.33933.0212 7.87423-3.4793 7.89543-7.8186zM22.9411 59.9976c4.3393-.0272 7.8349-3.567 7.8076-7.9063-.0273-4.3393-3.5671-7.8349-7.9064-7.8077-4.3393.0273-7.8348 3.5671-7.8076 7.9064.0273 4.3393 3.5671 7.8349 7.9064 7.8076zM204.082 20.5444c-2.054 0-4.061.6089-5.768 1.7495-1.707 1.1407-3.037 2.762-3.823 4.6589-.786 1.8968-.991 3.9841-.591 5.9978.401 2.0137 1.389 3.8634 2.841 5.3152 1.452 1.4518 3.302 2.4405 5.315 2.8411 2.014.4005 4.101.1949 5.998-.5908 1.897-.7857 3.518-2.1162 4.659-3.8234 1.141-1.7071 1.75-3.7142 1.75-5.7673 0-2.7532-1.094-5.3936-3.041-7.3405-1.947-1.9468-4.587-3.0405-7.34-3.0405zm0 18.4694c-1.61.0406-3.195-.3996-4.553-1.2644s-2.427-2.1149-3.071-3.5904c-.644-1.4756-.833-3.1097-.544-4.6934.29-1.5837 1.045-3.0452 2.169-4.1975 1.124-1.1524 2.567-1.9434 4.143-2.2719 1.576-.3285 3.214-.1796 4.705.4277 1.491.6074 2.767 1.6454 3.665 2.9817.898 1.3362 1.378 2.9098 1.377 4.5198.013 1.0494-.18 2.0911-.57 3.0657-.389.9745-.967 1.8628-1.699 2.614-.733.7512-1.607 1.3505-2.572 1.7639-.964.4133-2.001.6324-3.05.6448zM74.9185 20.8843h6.8571c6.8027 0 10.0476 4.8571 10.0476 9.7959 0 5.1156-3.0544 10.2041-10.0476 10.2041h-6.8571v-20zm14.4217 9.7687c0-3.7143-2.4557-7.3674-7.5646-7.3674h-4.3741v15.1361h4.3741c5.2993 0 7.5646-3.9388 7.5646-7.7687zM115.782 20.8843h2.483v20.0204h-2.483V20.8843zM126.442 20.8843l12.245 15.3333V20.8843h2.456v20.0204h-1.687l-12.3-15.2721v15.2721h-2.462V20.8843h1.748zM167.816 20.8842l4.66 16.5307 5.116-16.5375h1.599l5.163 16.5375 4.605-16.5375h2.83l-6.122 20.0204h-2.483l-4.762-14.9659-4.762 14.9659h-2.51l-6.123-20.0204 2.789.0068zM147.81 20.8843h2.455v20.0204h-2.455V20.8843zM159.184 20.8843h3.115l-8.734 9.6394 9.598 10.381h-3.088l-9.796-10.2925 8.905-9.7279zM238.388 20.8843h2.428v20.0204h-2.456l.028-20.0204zM249.769 20.8843h3.115l-8.741 9.9932 9.598 10.0272h-3.088l-9.796-9.932 8.912-10.0884zM263.524 22.687c-2.191 0-4.408 1.1361-4.408 3.2857 0 1.6395 1.626 2.8028 4.578 3.4014 4.082.8707 7.095 2.0408 7.095 6.1224 0 3.796-3.49 5.7824-7.156 5.7824-1.419-.0133-2.817-.3339-4.1-.9399-1.282-.606-2.418-1.483-3.329-2.5703l1.762-1.6327c.695.8479 1.561 1.5387 2.543 2.0265.982.4879 2.056.7617 3.151.8034 2.102 0 4.673-1.2108 4.673-3.551 0-2.1224-1.768-3.1701-4.925-3.8299-3.843-.8027-6.755-2.2381-6.755-5.7007 0-3.5986 3.354-5.4422 6.803-5.4422 1.237-.0217 2.462.2514 3.572.7967 1.111.5453 2.076 1.3472 2.816 2.3394l-1.681 1.5034c-.525-.7411-1.221-1.3453-2.028-1.7619-.807-.4167-1.703-.6336-2.611-.6327zM233.823 40.9047l-6.612-7.6259c4.116-.4353 5.769-3.17 5.741-6.1564 0-3.2585-2.258-6.2381-6.802-6.2381h-7.354v20.0204h2.49v-7.5306h2.87l6.517 7.5306h3.15zm-12.537-17.7755h4.898c2.891 0 4.319 2.0408 4.292 4.0816 0 2.2585-1.401 3.9592-4.401 3.9592h-4.762l-.027-8.0408zM111.218 40.9047l-6.599-7.6259c4.116-.4353 5.769-3.17 5.742-6.1564 0-3.2585-2.259-6.2381-6.803-6.2381h-7.3676v20.0204h2.4898v-7.5306h2.8708l6.517 7.5306h3.15zM98.6802 23.1292h4.8978c2.891 0 4.32 2.0408 4.293 4.0816 0 2.2585-1.402 3.9592-4.402 3.9592h-4.7616l-.0272-8.0408zM272.32 22.8909c.02-.3784.15-.7428.375-1.0479.225-.3051.534-.5377.89-.6689.355-.1312.741-.1553 1.111-.0694.369.0859.705.2782.966.5529.261.2748.435.6201.502.9931s.023.7575-.126 1.1059c-.149.3483-.397.6453-.714.8542-.316.2088-.686.3204-1.065.321-.265.0033-.527-.048-.77-.1507-.244-.1027-.463-.2547-.646-.4463-.182-.1916-.322-.4188-.412-.6672-.09-.2485-.128-.5129-.111-.7767zm3.558 0c-.015-.3166-.122-.6219-.309-.8782-.186-.2562-.444-.452-.741-.5632-.297-.1111-.62-.1327-.929-.062-.309.0706-.59.2304-.809.4596-.219.2291-.366.5175-.423.8293-.056.3119-.02.6335.104.925.125.2915.332.5401.596.7149.265.1748.575.2682.892.2685.22.0032.438-.039.641-.124.202-.085.386-.2109.538-.3699.151-.159.269-.3476.345-.5541.075-.2064.108-.4263.095-.6459zm-2.32-1.1224h.741c.165-.0253.332.0157.466.114.134.0982.223.2456.249.4098.025.1642-.016.3317-.114.4656-.098.134-.246.2234-.41.2487l.68.9592h-.34l-.68-.9116h-.32v.9388h-.299l.027-2.2245zm.741.9796c.05.0072.1.0033.148-.0115.047-.0148.091-.0401.128-.074.036-.034.065-.0757.083-.1221.018-.0465.026-.0964.022-.1462 0-.2177-.129-.3469-.381-.3469h-.442v.6803l.442.0204z"/>
</svg>
