<svg xmlns="http://www.w3.org/2000/svg" fill="currentColor" viewBox="0 0 188 132">
  <path d="M119.607 63.1015c.01-5.6587-4.583-10.2539-10.258-10.2637-5.676-.0099-10.285 4.5693-10.2949 10.2279-.0099 5.6586 4.5829 10.2538 10.2589 10.2637 5.675.0099 10.284-4.5693 10.294-10.2279zM121.292 50.52c5.675-.0345 10.248-4.6497 10.213-10.3082-.034-5.6585-4.663-10.2176-10.339-10.1831-5.675.0346-10.248 4.6497-10.214 10.3083.035 5.6585 4.664 10.2176 10.34 10.183zM110.765 27.04c5.675 0 10.276-4.5872 10.276-10.2458 0-5.6586-4.601-10.24586-10.276-10.24586-5.676 0-10.277 4.58726-10.277 10.24586 0 5.6586 4.601 10.2458 10.277 10.2458zM96.0985 10.36C96.1302 4.70143 91.555.0886706 85.8795.057067 80.204.0254634 75.5774 4.58698 75.5457 10.2455c-.0317 5.6586 4.5435 10.2713 10.219 10.3029 5.6755.0316 10.3021-4.5299 10.3338-10.1884zM65.2138 35.9566c5.6756-.0187 10.2613-4.6211 10.2425-10.2797-.0188-5.6586-4.635-10.2306-10.3106-10.2119-5.6756.0188-10.2613 4.6212-10.2425 10.2798.0188 5.6586 4.6351 10.2306 10.3106 10.2118zM64.4388 61.6346c5.6755-.0237 10.2572-4.6301 10.2334-10.2886-.0238-5.6586-4.644-10.2266-10.3195-10.2029-5.6756.0237-10.2573 4.6301-10.2335 10.2887.0238 5.6586 4.644 10.2265 10.3196 10.2028zM94.3069 68.0735c.0297-5.6585-4.5471-10.2697-10.2226-10.2993-5.6756-.0297-10.3006 4.5335-10.3303 10.192-.0297 5.6586 4.5471 10.2697 10.2226 10.2994 5.6756.0296 10.3006-4.5336 10.3303-10.1921zM157.419 121.436h-.248v.386h.248c.095 0 .146-.044.146-.12v-.133c0-.095-.051-.12-.146-.12v-.013zm0 .519h-.248v.316h-.121v-.955h.369c.19 0 .266.095.266.24v.146c.006.045-.003.09-.024.13-.022.04-.056.072-.096.091l.241.336h-.146l-.241-.304zm-.077.728c-.169-.003-.335-.055-.475-.151-.14-.096-.249-.231-.312-.388-.064-.157-.08-.329-.045-.495.034-.166.116-.318.237-.438.121-.119.274-.2.44-.233.167-.033.34-.016.497.048.157.065.292.174.387.315.095.14.146.305.147.475 0 .114-.022.227-.066.333-.045.106-.109.201-.191.282-.081.081-.178.144-.284.188-.106.043-.22.065-.335.064zm0-1.836c-.246.02-.476.132-.644.313-.167.181-.261.419-.26.665-.001.247.093.484.26.665.168.182.398.293.644.313.136.011.272-.006.4-.051.129-.044.247-.114.347-.206.099-.092.179-.203.234-.327.054-.124.082-.258.082-.394 0-.135-.028-.269-.082-.393-.055-.124-.135-.236-.234-.328-.1-.092-.218-.162-.347-.206-.128-.044-.264-.061-.4-.051zM139.646 123.411c0-.538-.261-.754-.889-.754h-1.765v2.532h1.708c.685 0 .946-.26.946-.81v-.968zm1.009 3.006l1.669 2.734h-2.386l-1.314-2.317h-1.632v2.329h-2.113v-8.227h3.891c2.221 0 2.932.861 2.932 2.361v1.151c.042.393-.035.788-.222 1.136-.187.348-.474.631-.825.814v.019zm-25.676-5.481h-2.386l-2.406 4.095 2.406 4.101h2.386l-2.494-4.101 2.494-4.095zm-6.474 5.784c-.251 0-.497.075-.705.214-.209.139-.372.336-.468.568-.096.231-.121.485-.072.731s.17.471.347.648c.178.177.404.298.65.346.246.049.502.024.734-.072.232-.095.43-.258.569-.466.14-.208.214-.453.214-.703 0-.336-.133-.658-.371-.895-.239-.237-.561-.371-.898-.371zm0-5.942c-.251 0-.497.074-.705.213-.209.139-.372.337-.468.568-.096.232-.121.486-.072.732.049.245.17.471.347.648.178.177.404.297.65.346.246.049.502.024.734-.072.232-.096.43-.258.569-.466.14-.208.214-.453.214-.703 0-.336-.133-.658-.371-.895-.239-.238-.561-.371-.898-.371zm0 2.962c-.251 0-.497.074-.705.213-.209.139-.372.337-.468.568-.096.231-.121.486-.072.731.049.246.17.471.347.648.178.177.404.298.65.347.246.049.502.024.734-.072.232-.096.43-.258.569-.466.14-.209.214-.453.214-.704 0-.335-.133-.657-.371-.895-.239-.237-.561-.37-.898-.37zm45.391 1.341v2.31c-.42.064-.845.1-1.27.108-1.085 0-1.269-.38-1.269-1.076v-2.829c0-.753.362-1.006 1.269-1.006.951.013 1.899.094 2.838.24l.19-1.772c-.979-.188-1.974-.282-2.971-.278-2.424 0-3.434.816-3.434 2.531v3.411c0 1.652.914 2.563 3.365 2.563 1.103 0 2.202-.145 3.269-.43v-3.797l-1.987.025zm-9.369 4.082h2.101v-8.227h-2.114l.013 8.227zm-14.403-2.683c0 .633-.368 1.025-1.415 1.025-1.047 0-1.397-.367-1.397-1.025v-5.544h-2.113v5.772c0 1.265.793 2.588 3.51 2.588 2.717 0 3.523-1.266 3.523-2.588v-5.772h-2.108v5.544zm-13.126-5.544h5.839v1.703h-3.725v1.461h3.427v1.722h-3.427v1.607h3.725v1.734h-5.839v-8.227zM32.475 124.36h-3.9228v-3.405h-1.4409v8.195h1.4409v-3.449h3.9228v3.449h1.4472v-8.195H32.475v3.405zM38.8413 122.835c-.4318-.007-.8606.072-1.2613.233-.4007.161-.7651.4-1.072.703-.3068.303-.5499.664-.7149 1.062-.1651.397-.2488.824-.2462 1.255-.0009.427.084.851.2497 1.245.1658.394.4091.751.7156 1.05.3064.299.6698.534 1.0687.691.399.157.8254.232 1.254.222.4252 0 .8461-.083 1.2389-.245.3927-.163.7496-.4 1.0502-.7.3006-.3.5391-.656.7017-1.047.1627-.392.2465-.811.2465-1.235 0-.424-.0838-.844-.2465-1.235-.1626-.392-.4011-.748-.7017-1.047-.3006-.3-.6575-.538-1.0502-.7-.3928-.162-.8137-.246-1.2389-.246l.0064-.006zm0 5.221c-.2589 0-.5151-.052-.753-.154-.2379-.101-.4525-.25-.6307-.437-.1783-.188-.3163-.409-.4058-.651-.0895-.242-.1286-.5-.1148-.758-.013-.253.0261-.506.1149-.744.0887-.238.2253-.455.4012-.638.176-.183.3877-.328.622-.427.2343-.099.4864-.148.7408-.146.2594-.001.5162.052.7545.154.2384.102.4533.251.6316.439.1783.188.3163.41.4054.653.0891.243.1274.501.1127.76.013.253-.0261.506-.1148.744-.0888.238-.2253.455-.4013.638-.1759.183-.3876.328-.6219.427-.2344.098-.4865.148-.7408.146v-.006zM50.8441 122.835c-.4126-.003-.8195.095-1.1856.285-.3661.19-.6803.465-.9155.803-.1672-.341-.4314-.627-.7597-.82-.3284-.194-.7064-.287-1.0874-.268-.3826-.003-.7592.094-1.093.281-.3338.186-.6134.456-.8112.782v-.937h-1.4028v6.202h1.4218v-3.474c0-.962.5395-1.544 1.3266-1.544s1.2695.538 1.2695 1.493v3.525h1.4155v-3.487c0-.993.5523-1.531 1.333-1.531s1.2695.525 1.2695 1.506v3.512h1.4155v-3.942c-.0254-1.525-.8442-2.386-2.1962-2.386zM57.4336 122.834c-.825.068-1.593.447-2.1467 1.06-.5538.613-.8514 1.415-.8319 2.24.0195.825.3545 1.611.9366 2.198.5821.586 1.3671.929 2.1943.958.4843.012.9649-.087 1.405-.289.4401-.202.828-.501 1.134-.876l-.8378-.734c-.2116.233-.4702.419-.7591.546-.2888.127-.6012.191-.9167.188-.4356.007-.8578-.15-1.1825-.44-.3247-.29-.528-.691-.5694-1.123h4.5575v-.386c-.0127-1.791-1.0092-3.342-2.9833-3.342zm-1.6186 2.785c.0109-.424.1828-.827.481-1.129.2981-.302.7002-.48 1.1249-.497.4243.01.8275.186 1.1222.49.2947.305.4571.713.452 1.136H55.815zM70.7377 124.891c.3588-.154.6631-.412.8735-.74.2105-.328.3174-.712.3071-1.101 0-1.266-1.0473-2.095-2.704-2.095h-3.6879v8.208h3.8085c1.8344 0 3.0468-.785 3.0468-2.259-.0191-1.133-.6538-1.684-1.644-2.013zm-3.8085-2.658h2.0756c.9331 0 1.4472.386 1.4472 1.051 0 .766-.6347 1.126-1.5488 1.126h-1.974v-2.177zm2.393 5.645h-2.393v-2.252h2.2914c1.1362 0 1.6884.411 1.6884 1.113 0 .703-.5776 1.158-1.5678 1.158l-.019-.019zM76.3168 122.879c-.816-.011-1.6237.164-2.3612.513l.3871 1.132c.5585-.252 1.1642-.384 1.7773-.386.9839 0 1.5234.469 1.5234 1.329v.152c-.5526-.182-1.1319-.269-1.7138-.259-1.4409 0-2.539.633-2.539 1.987 0 1.266 1.0347 1.898 2.209 1.898.381.012.7598-.062 1.1081-.217.3484-.154.6573-.385.904-.675v.81h1.4092v-3.664c.0253-1.664-.8697-2.62-2.7041-2.62zm1.352 4.037c0 .773-.7045 1.298-1.644 1.298-.6347 0-1.1996-.329-1.1996-.911 0-.633.5331-.994 1.4218-.994.4849-.003.9664.081 1.4218.247v.36zM82.1562 124.366v-1.399h-1.4218v6.196h1.4218v-2.354c0-1.639.8696-2.443 2.1137-2.443h.0825v-1.531c-.4845-.024-.963.114-1.3605.391-.3975.277-.6914.678-.8357 1.14zM92.6303 122.835c-.4201-.001-.8336.105-1.2012.307-.3677.203-.6774.496-.8998.851v-3.392h-1.4219v8.563h1.4219v-.956c.2351.338.5493.614.9154.803.3661.19.773.288 1.1856.285 1.4789 0 2.8944-1.158 2.8944-3.221s-1.4218-3.24-2.8944-3.24zm-.3301 5.208c-.4958-.048-.9558-.279-1.2905-.646-.3347-.368-.5201-.847-.5201-1.344 0-.497.1854-.976.5201-1.343.3347-.368.7947-.599 1.2905-.647.4861.061.9331.297 1.2571.663.3241.367.5029.839.5029 1.327 0 .489-.1788.96-.5029 1.327-.324.366-.771.602-1.2571.663zM99.3774 127.562l-1.7646-4.594h-1.5171l2.5834 6.183c-.2348.544-.476.715-.8759.715-.2945-.008-.5825-.088-.8379-.234l-.4824 1.057c.4491.252.9573.381 1.4726.373.9966 0 1.5488-.468 2.0439-1.734l2.4626-6.329h-1.479l-1.6056 4.563zM120.603 93.7993c-1.918 0-3.793.5672-5.388 1.6297-1.595 1.0625-2.838 2.5728-3.572 4.3397-.734 1.7673-.927 3.7113-.552 5.5873.374 1.876 1.298 3.599 2.654 4.951 1.356 1.352 3.085 2.273 4.966 2.646 1.882.374 3.832.182 5.604-.55 1.772-.732 3.287-1.971 4.353-3.561 1.065-1.591 1.634-3.46 1.634-5.373 0-2.564-1.022-5.0239-2.841-6.8374-1.818-1.8135-4.285-2.8323-6.858-2.8323zm0 17.2077c-1.502.036-2.982-.375-4.249-1.181-1.267-.805-2.264-1.969-2.865-3.343-.6-1.374-.777-2.894-.506-4.368.27-1.474.976-2.8345 2.025-3.907 1.05-1.0726 2.396-1.8089 3.867-2.1149 1.472-.306 3.001-.1678 4.393.3968 1.392.5647 2.584 1.5303 3.423 2.7735.839 1.2436 1.288 2.7076 1.288 4.2056.024 1.975-.74 3.878-2.123 5.291-1.383 1.414-3.272 2.221-5.253 2.247zM.00097656 94.1226H6.4056c6.3475 0 9.3879 4.5185 9.3879 9.1194 0 4.765-2.85 9.524-9.3879 9.524H.00097656V94.1226zM13.4767 103.217c0-3.4557-2.2978-6.8605-7.0711-6.8605H2.32416V110.45H6.4056c4.9637 0 7.0711-3.67 7.0711-7.233zM38.168 94.1226h2.3232v18.6434H38.168V94.1226zM48.1274 94.1226L59.591 108.4V94.1226h2.2978v18.6434h-1.5869l-11.489-14.2261v14.2261h-2.3168V94.1226h1.6313zM86.7778 94.1226l4.348 15.4224 4.7797-15.3971h1.4916l4.8309 15.3971 4.303-15.3971h2.647l-5.713 18.6441h-2.323l-4.4431-13.9231-4.4433 13.9231h-2.3485l-5.7128-18.6441 2.5835-.0253zM68.084 94.1226h2.2978v18.6434H68.084V94.1226zM78.7097 94.1226h2.9135l-8.1692 8.9734 8.969 9.67h-2.8817l-9.1468-9.549 8.3152-9.0944zM152.689 94.1226h2.298v18.6434h-2.298V94.1226zM163.322 94.1226h2.913l-8.182 9.3024 8.969 9.341h-2.875L155 103.514l8.322-9.3914zM176.169 95.7996c-2.05 0-4.119 1.0568-4.119 3.0566 0 1.5318 1.523 2.6138 4.278 3.2018 3.808.81 6.627 1.899 6.627 5.696 0 3.538-3.263 5.386-6.684 5.386-1.325-.013-2.632-.312-3.829-.877-1.198-.565-2.259-1.382-3.109-2.395l1.644-1.525c.648.791 1.457 1.435 2.375 1.89.917.455 1.921.71 2.944.749 1.962 0 4.361-1.121 4.361-3.31 0-1.975-1.644-2.949-4.596-3.563-3.592-.747-6.309-2.082-6.309-5.3034 0-3.3541 3.129-5.0628 6.347-5.0628 1.156-.02 2.3.2348 3.338.7432 1.038.5084 1.939 1.2559 2.629 2.1806l-1.568 1.3986c-.487-.6957-1.134-1.2646-1.887-1.6588-.754-.3943-1.591-.6024-2.442-.6068zM148.424 112.766l-6.163-7.107c3.847-.405 5.389-2.949 5.364-5.7269 0-3.0377-2.108-5.8095-6.348-5.8095h-6.881v18.6434h2.324v-7.018h2.678l6.088 7.018h2.938zM136.72 96.1983h4.576c2.698 0 4.031 1.8986 4.005 3.7971 0 2.1076-1.307 3.6896-4.113 3.6896h-4.443l-.025-7.4867zM33.9093 112.766l-6.1634-7.107c3.8085-.405 5.389-2.949 5.3636-5.7269 0-3.0377-2.1137-5.8095-6.3475-5.8095h-6.887v18.6434h2.3422v-7.018h2.666l6.0872 7.018h2.9389zM22.2172 96.1983h4.5766c2.6976 0 4.037 1.8986 4.0052 3.7971 0 2.1076-1.3075 3.6896-4.1131 3.6896h-4.4687v-7.4867zM184.383 95.9895c.018-.3521.14-.6911.35-.9749.209-.2839.498-.5002.83-.6223.332-.1221.692-.1445 1.036-.0646.345.08.658.2588.902.5144.243.2557.406.5768.469.9239.062.347.021.7047-.118 1.0288-.139.324-.371.6003-.666.7946-.295.1943-.641.2981-.994.2986-.247.0031-.492-.0446-.719-.1402-.227-.0955-.432-.2369-.602-.4151-.17-.1783-.301-.3896-.385-.6207-.084-.2312-.119-.4772-.103-.7225zm3.319 0c-.013-.2946-.113-.5787-.288-.817-.174-.2384-.414-.4206-.691-.524-.277-.1034-.578-.1234-.867-.0577-.288.0657-.551.2144-.755.4276-.204.2131-.341.4814-.394.7715-.053.2901-.019.5893.097.8605s.309.5024.556.6651c.247.1626.536.2494.832.2498.205.0029.408-.0363.598-.1154.189-.079.36-.1962.502-.3441.141-.1479.251-.3234.322-.5155.07-.1921.101-.3966.088-.6008zm-2.164-.9999h.692c.081-.0081.163.001.24.0268.077.0257.148.0674.208.1224.06.055.108.122.14.1966.032.0746.048.1552.046.2364.003.1334-.043.2632-.128.3663-.084.1032-.203.1729-.335.1969l.635.8923h-.299l-.634-.867h-.292v.867h-.286l.013-2.0377zm.692.9113c.046.0067.093.0031.137-.0107.045-.0138.085-.0373.12-.0689.034-.0316.06-.0704.077-.1136s.025-.0896.021-.1359c0-.2025-.12-.3228-.355-.3228h-.407v.6329l.407.019z"/>
</svg>
