<svg xmlns="http://www.w3.org/2000/svg" fill="currentColor" viewBox="0 0 277 60">
<path d="M42.2538 56.2041c4.3394-.009 7.8498-3.5342 7.8407-7.8735-.0091-4.3394-3.5342-7.8498-7.8736-7.8407-4.3394.0091-7.8498 3.5342-7.8407 7.8736.0091 4.3393 3.5342 7.8497 7.8736 7.8406zM59.1895 30.9108c.0311-4.3393-3.4614-7.8821-7.8007-7.9132-4.3392-.031-7.8821 3.4615-7.9131 7.8007-.0311 4.3393 3.4614 7.8821 7.8007 7.9132 4.3392.031 7.8821-3.4615 7.9131-7.8007zM43.3414 20.6963c4.3393-.0046 7.8534-3.526 7.8489-7.8654-.0046-4.33936-3.526-7.85344-7.8654-7.84889-4.3394.00454-7.8534 3.52599-7.8489 7.86539.0045 4.3394 3.526 7.8534 7.8654 7.8489zM24.3106 15.719c4.3393-.0295 7.833-3.5711 7.8035-7.91041-.0296-4.33928-3.5712-7.8330147-7.9105-7.80347771C19.8644.0346493 16.3706 3.57627 16.4002 7.91555c.0295 4.33925 3.5711 7.83305 7.9104 7.80345zM16.2924 19.5916c0-4.3394-3.5178-7.8572-7.85713-7.8572-4.33938 0-7.857145 3.5178-7.857145 7.8572 0 4.3394 3.517765 7.8571 7.857145 7.8571 4.33933 0 7.85713-3.5177 7.85713-7.8571zM15.6801 39.1839c0-4.3394-3.5178-7.8572-7.85714-7.8572-4.33938 0-7.8571397 3.5178-7.8571397 7.8572 0 4.3394 3.5177597 7.8571 7.8571397 7.8571 4.33934 0 7.85714-3.5177 7.85714-7.8571zM22.9411 59.9976c4.3393-.0272 7.8349-3.567 7.8076-7.9063-.0273-4.3393-3.5671-7.8349-7.9064-7.8077-4.3393.0273-7.8348 3.5671-7.8076 7.9064.0273 4.3393 3.5671 7.8349 7.9064 7.8076zM78.6872 42.4219c-.4503-.0012-.8933.1125-1.2874.3303-.394.2179-.7259.5326-.9643.9146v-3.6463h-1.517v9.1769h1.517v-1.0272c.252.3633.5887.6597.9811.8635.3923.2039.8284.3091 1.2706.3065 1.585 0 3.0952-1.2449 3.0952-3.4626 0-2.2176-1.5102-3.4557-3.0952-3.4557zm-.3538 5.5986c-.5313-.052-1.0244-.2998-1.3831-.6953-.3586-.3954-.5573-.9102-.5573-1.4442 0-.5339.1987-1.0487.5573-1.4441.3587-.3955.8518-.6433 1.3831-.6953.521.0658 1.0001.3195 1.3473.7134.3473.3939.5389.9009.5389 1.426 0 .5252-.1916 1.0322-.5389 1.4261-.3472.3939-.8263.6476-1.3473.7134zM85.9048 47.4896l-1.8844-4.932h-1.619l2.7619 6.6395c-.2517.5782-.5102.7687-.9388.7687-.3135-.0079-.6199-.0945-.8912-.2517l-.517 1.136c.4789.2711 1.0213.4097 1.5715.4014 1.068 0 1.6598-.5034 2.1836-1.864l2.6463-6.8027h-1.585l-1.7279 4.9048zM148.021 40.9182h-.259v.4149h.259c.102 0 .156-.0544.156-.1292v-.1565c0-.1088-.054-.1292-.156-.1292zm0 .5442h-.259v.3333h-.143v-.9796h.388c.204 0 .286.1021.286.2585v.1565c.005.0472-.005.0946-.028.136-.024.0414-.059.0746-.101.0953l.258.3605h-.122l-.279-.3605zm-.082.7755c-.182-.0027-.359-.059-.509-.162-.151-.103-.267-.248-.335-.4169s-.085-.3541-.049-.5325c.037-.1783.126-.3419.255-.4702.129-.1283.293-.2156.472-.251.179-.0354.364-.0172.532.0521.168.0694.313.1869.414.3378.102.151.157.3286.159.5107.001.1233-.023.2454-.07.3594-.047.1139-.116.2173-.204.3041-.087.0868-.191.1553-.305.2014-.114.0461-.237.0689-.36.0671zm0-1.9728c-.264.0213-.511.1412-.69.336-.18.1948-.28.45-.28.715 0 .265.1.5203.28.7151.179.1947.426.3147.69.336.145.0116.291-.0069.429-.0544.137-.0475.264-.123.371-.2217.107-.0988.192-.2186.251-.352.058-.1333.088-.2774.088-.423s-.03-.2896-.088-.423c-.059-.1333-.144-.2532-.251-.3519-.107-.0987-.234-.1742-.371-.2218-.138-.0475-.284-.066-.429-.0543zM129.021 43.0341c0-.5782-.273-.8095-.946-.8095h-1.891v2.7211h1.83c.734 0 1.007-.2721 1.007-.8639v-1.0477zm1.081 3.2245l1.789 2.9388h-2.551l-1.408-2.4898h-1.748v2.4898h-2.259v-8.8027h4.164c2.374 0 3.142.9251 3.142 2.5374v1.2381c.044.4212-.041.8457-.242 1.2182-.202.3725-.511.6757-.887.8702zm-27.49-5.8639h-2.551l-2.5779 4.3945 2.5779 4.4082h2.551l-2.6663-4.4082 2.6663-4.3945zm-6.9248 6.2109c-.2691 0-.5321.0798-.7559.2293-.2237.1495-.3981.3619-.5011.6106-.1029.2486-.1299.5221-.0774.786.0525.264.1821.5064.3724.6967.1902.1902.4327.3198.6966.3723.2639.0525.5375.0256.7861-.0774.2486-.103.4611-.2774.6106-.5011.1495-.2238.2293-.4868.2293-.7559 0-.3608-.1434-.7069-.3985-.962-.2552-.2552-.6013-.3985-.9621-.3985zm0-6.381c-.2691 0-.5321.0798-.7559.2293-.2237.1495-.3981.362-.5011.6106-.1029.2486-.1299.5222-.0774.7861.0525.2639.1821.5063.3724.6966.1902.1903.4327.3199.6966.3724.2639.0525.5375.0255.7861-.0775.2486-.1029.4611-.2773.6106-.5011.1495-.2237.2293-.4868.2293-.7558 0-.3609-.1434-.7069-.3985-.9621-.2552-.2551-.6013-.3985-.9621-.3985zm0 3.1837c-.2691 0-.5321.0798-.7559.2293-.2237.1495-.3981.362-.5011.6106-.1029.2486-.1299.5221-.0774.7861.0525.2639.1821.5063.3724.6966.1902.1903.4327.3198.6966.3723.2639.0525.5375.0256.7861-.0774.2486-.103.4611-.2774.6106-.5011.1495-.2237.2293-.4868.2293-.7559 0-.3608-.1434-.7069-.3985-.962-.2552-.2552-.6013-.3985-.9621-.3985zm48.5918 1.4422v2.4762c-.45.073-.905.1117-1.361.1156-1.163 0-1.36-.4014-1.36-1.1497v-3.0408c0-.8095.388-1.0816 1.36-1.0816 1.019.0143 2.035.1007 3.041.2585l.198-1.9048c-1.05-.1995-2.116-.2997-3.184-.2993-2.592 0-3.674.8776-3.674 2.7211v3.6599c0 1.7755.98 2.7211 3.606 2.7211 1.183.0022 2.361-.1534 3.503-.4626v-4.0817l-2.129.0681zm-10.027 4.3469h2.265v-8.8027h-2.265v8.8027zm-15.429-2.8639c0 .6802-.387 1.0952-1.51 1.0952-1.122 0-1.503-.3878-1.503-1.0952v-5.9388h-2.259v6.1973c0 1.4013.85 2.7823 3.762 2.7823s3.769-1.3606 3.769-2.7823v-6.1973h-2.259v5.9388zm-14.061-5.9388h6.252v1.8299h-3.993v1.5714h3.68v1.8436h-3.68v1.7279h3.993v1.8299h-6.252v-8.8027zM204.082 11.2314c-2.056-.0013-4.065.607-5.774 1.7479-1.709 1.1409-3.042 2.7631-3.829 4.6615-.787 1.8984-.993 3.9876-.593 6.0033.401 2.0156 1.39 3.8672 2.844 5.3204 1.453 1.4531 3.304 2.4426 5.32 2.8432 2.016.4006 4.105.1943 6.003-.5928 1.899-.787 3.521-2.1195 4.662-3.8288 1.141-1.7093 1.749-3.7186 1.748-5.7737 0-2.7532-1.094-5.3936-3.041-7.3404-1.947-1.9468-4.587-3.0406-7.34-3.0406zm0 18.4762c-1.61.0406-3.194-.3994-4.552-1.2639-1.358-.8645-2.427-2.1142-3.071-3.5894-.644-1.4751-.834-3.1088-.545-4.6924.289-1.5835 1.043-3.0449 2.167-4.1976 1.123-1.1526 2.565-1.9441 4.141-2.2734 1.575-.3293 3.213-.1813 4.704.4249 1.492.6063 2.768 1.6433 3.667 2.9786.899 1.3354 1.379 2.9083 1.38 4.518.013 1.0497-.18 2.0918-.569 3.0667-.39.975-.967 1.8637-1.7 2.6154-.733.7517-1.607 1.3518-2.571 1.7658-.965.4141-2.002.634-3.051.6473zM74.9185 11.5645h6.8571c6.8027 0 10.0476 4.8571 10.0476 9.8027 0 5.1088-3.0544 10.2041-10.0476 10.2041h-6.8571V11.5645zm14.4217 9.7687c0-3.7075-2.4558-7.3674-7.5646-7.3674h-4.3741v15.1429h4.3741c5.2993 0 7.5646-3.9388 7.5646-7.7687v-.0068zM115.782 11.5645h2.483v20.034h-2.483v-20.034zM126.442 11.5645l12.245 15.3333V11.5645h2.456v20.034h-1.687l-12.3-15.2721v15.2721h-2.462v-20.034h1.748zM167.816 11.5645l4.66 16.5374 5.116-16.5374h1.599l5.163 16.5442 4.612-16.5442h2.83l-6.122 20.0272h-2.483l-4.762-14.966-4.762 14.966h-2.51l-6.123-20.0272h2.782zM147.81 11.5645h2.455v20.034h-2.455v-20.034zM159.184 11.5645h3.115l-8.734 9.6462 9.598 10.3878h-3.088l-9.796-10.2857 8.905-9.7483zM238.388 11.5645h2.428v20.034h-2.456l.028-20.034zM249.769 11.5645h3.115l-8.741 10 9.598 10.034h-3.088l-9.796-9.9388 8.912-10.0952zM263.524 13.3739c-2.191 0-4.408 1.136-4.408 3.2857 0 1.6395 1.626 2.8095 4.578 3.4354 4.082.8707 7.095 2.0408 7.095 6.1224 0 3.7959-3.49 5.7823-7.156 5.7823-1.419-.0145-2.818-.3364-4.1-.9436-1.283-.6071-2.418-1.4851-3.329-2.5734l1.762-1.6326c.693.8492 1.56 1.5409 2.542 2.0289.982.4879 2.056.761 3.152.801 2.102 0 4.673-1.2041 4.673-3.551 0-2.1225-1.768-3.1701-4.925-3.8299-3.843-.8028-6.755-2.2381-6.755-5.6939 0-3.5987 3.354-5.4422 6.803-5.4422 1.237-.0233 2.462.2477 3.573.7906 1.112.5428 2.079 1.3421 2.821 2.3319l-1.68 1.5034c-.524-.7458-1.219-1.3545-2.028-1.7749-.809-.4203-1.707-.6398-2.618-.6401zM233.823 31.5986l-6.612-7.6326c4.116-.4354 5.769-3.1633 5.741-6.1225 0-3.2653-2.258-6.2449-6.802-6.2449h-7.354v20h2.49v-7.5374h2.87l6.517 7.5374h3.15zm-12.537-17.7959h4.898c2.891 0 4.319 2.0408 4.292 4.0816 0 2.2586-1.401 3.9592-4.401 3.9592h-4.762l-.027-8.0408zM111.218 31.5986l-6.599-7.6326c4.116-.4354 5.769-3.1633 5.742-6.1225 0-3.2653-2.259-6.2449-6.803-6.2449h-7.3676v20h2.4898v-7.5374h2.8708l6.517 7.5374h3.15zM98.6802 13.8027h4.8978c2.891 0 4.32 2.0408 4.293 4.0816 0 2.2586-1.402 3.9592-4.402 3.9592h-4.7616l-.0272-8.0408zM272.32 13.6053c-.016-.2638.023-.528.113-.7764.09-.2484.23-.4758.411-.6681.181-.1923.4-.3455.643-.4503.242-.1047.504-.1587.768-.1587s.526.054.769.1587c.242.1048.461.258.642.4503.181.1923.321.4197.412.6681.09.2484.128.5126.113.7764.015.2638-.023.5281-.113.7765-.091.2484-.231.4757-.412.668-.181.1924-.4.3456-.642.4503-.243.1048-.505.1588-.769.1588s-.526-.054-.768-.1588c-.243-.1047-.462-.2579-.643-.4503-.181-.1923-.321-.4196-.411-.668-.09-.2484-.129-.5127-.113-.7765zm3.551 0c.014-.221-.017-.4425-.092-.651-.074-.2085-.191-.3994-.343-.561-.151-.1616-.334-.2904-.537-.3784-.203-.0881-.422-.1335-.644-.1335-.221 0-.44.0454-.644.1335-.203.088-.386.2168-.537.3784-.152.1616-.268.3525-.343.561-.075.2085-.106.43-.091.651-.015.221.016.4426.091.6511.075.2084.191.3994.343.561.151.1615.334.2903.537.3784.204.088.423.1335.644.1335.222 0 .441-.0455.644-.1335.203-.0881.386-.2169.537-.3784.152-.1616.269-.3526.343-.561.075-.2085.106-.4301.092-.6511zm-2.32-1.102h.742c.087-.0087.175.0013.259.0293.083.0281.159.0735.224.1334.064.0598.115.1327.149.2137.034.081.05.1684.048.2562.002.1434-.046.283-.137.3938-.091.1109-.219.1859-.36.2117l.681.9592h-.327l-.68-.9388h-.313v.9388h-.306l.02-2.1973zm.742.9796c.251 0 .381-.1293.381-.347 0-.2176-.13-.3537-.381-.3537h-.436v.6803l.436.0204z"/>
</svg>
