<svg xmlns="http://www.w3.org/2000/svg" fill="currentColor" viewBox="0 0 190 150">
    <path d="M120.366 63.6132c.006-5.7107-4.619-10.345-10.33-10.351-5.711-.006-10.3449 4.6186-10.3509 10.3294-.0059 5.7107 4.6189 10.345 10.3299 10.351 5.71.006 10.345-4.6186 10.351-10.3294zM122.03 50.9428c5.711-.02 10.324-4.6656 10.305-10.3763-.02-5.7107-4.666-10.3239-10.377-10.304-5.71.0199-10.324 4.6655-10.304 10.3762.02 5.7107 4.666 10.324 10.376 10.3041zM111.469 27.2269c5.71 0 10.34-4.6295 10.34-10.3402 0-5.7107-4.63-10.34019-10.34-10.34019-5.711 0-10.341 4.62949-10.341 10.34019s4.63 10.3402 10.341 10.3402zM96.7141 10.3774C96.733 4.66665 92.1189.021869 86.4082.0029315 80.6975-.016006 76.0527 4.59807 76.0338 10.3088c-.0189 5.7107 4.5952 10.3555 10.3059 10.3744 5.7107.019 10.3554-4.5951 10.3744-10.3058zM65.6359 36.2161c5.7108-.012 10.3305-4.6511 10.3186-10.3619-.012-5.7107-4.6512-10.3304-10.3619-10.3185-5.7107.012-10.3305 4.6511-10.3185 10.3619.012 5.7107 4.6511 10.3304 10.3618 10.3185zM64.8306 62.1446c5.7108-.014 10.3289-4.6547 10.315-10.3655-.014-5.7107-4.6548-10.3288-10.3655-10.3149-5.7107.014-10.3288 4.6548-10.3149 10.3655.014 5.7107 4.6547 10.3288 10.3654 10.3149zM94.9174 68.6252c.0179-5.7107-4.597-10.3547-10.3077-10.3726-5.7107-.018-10.3547 4.5969-10.3726 10.3076-.018 5.7108 4.5969 10.3547 10.3076 10.3727 5.7107.0179 10.3547-4.597 10.3727-10.3077zM158.392 140.286h-.249v.389h.249c.096 0 .147-.044.147-.121v-.141c0-.102-.051-.127-.147-.127zm0 .511h-.249v.319h-.122v-.952h.371c.192 0 .268.096.268.249v.141c.006.045-.003.091-.024.131-.022.04-.056.073-.097.093l.243.338h-.147l-.243-.319zm-.077.734c-.171-.002-.337-.055-.478-.152-.141-.097-.25-.233-.314-.391-.064-.159-.08-.333-.046-.5.035-.168.118-.321.239-.442.121-.12.276-.202.443-.235.168-.034.342-.017.5.049.158.065.293.175.389.317.096.141.147.308.149.479.001.116-.022.231-.066.338-.044.106-.109.204-.191.285-.082.082-.18.146-.287.189-.107.043-.222.065-.338.063zm0-1.852c-.248.02-.479.133-.648.315-.169.183-.262.423-.262.672 0 .249.093.488.262.671.169.183.4.296.648.315.137.011.274-.006.403-.051.129-.044.248-.115.348-.208.101-.092.181-.205.236-.33.054-.125.083-.261.083-.397 0-.137-.029-.272-.083-.397-.055-.126-.135-.238-.236-.331-.1-.093-.219-.163-.348-.208-.129-.045-.266-.062-.403-.051zM32.6937 143.243h-3.947V139.8h-1.4498v8.271h1.4498v-3.487h3.947v3.487h1.4562V139.8h-1.4562v3.443zM39.0996 141.704c-.6416.012-1.2652.214-1.7925.58-.5273.366-.9349.879-1.1714 1.476-.2366.596-.2917 1.249-.1584 1.877.1333.628.4491 1.202.9077 1.651.4586.449 1.0396.752 1.6701.872.6305.12 1.2823.051 1.8736-.198.5914-.249 1.0959-.668 1.4503-1.203.3544-.535.5429-1.163.5418-1.804-.0017-.433-.0892-.861-.2575-1.259-.1684-.398-.4142-.759-.7232-1.062-.309-.302-.675-.54-1.0768-.7-.4018-.16-.8313-.238-1.2637-.23zm0 5.269c-.2604 0-.5182-.053-.7576-.155-.2394-.103-.4553-.253-.6347-.442-.1793-.189-.3182-.412-.4083-.657-.09-.244-.1293-.504-.1154-.764-.0167-.258.0198-.515.1071-.758.0873-.242.2235-.464.4002-.652.1768-.187.3902-.336.6271-.438.2368-.101.492-.153.7497-.152.261 0 .5194.053.7592.156.2398.103.4561.254.6355.443.1794.19.3182.414.4079.659.0896.246.1282.506.1134.767.0167.257-.0197.514-.1071.757-.0873.242-.2237.463-.4005.65s-.3903.336-.6272.436c-.2368.101-.4919.152-.7493.15zM51.177 141.704c-.4151-.003-.8245.096-1.1929.287-.3683.192-.6845.47-.9211.811-.1678-.344-.4326-.631-.7618-.826-.3291-.195-.7081-.29-1.0903-.272-.3848-.002-.7632.097-1.0989.285-.3357.188-.6171.459-.8172.788v-.946H43.877v6.24h1.4306v-3.506c0-.971.5429-1.565 1.3348-1.565.792 0 1.2774.549 1.2774 1.514v3.557h1.4306v-3.519c0-1.003.5557-1.552 1.3349-1.552s1.2773.537 1.2773 1.527v3.544h1.4307v-3.979c-.0256-1.526-.8559-2.388-2.2163-2.388zM57.807 141.704c-.8301.067-1.6028.45-2.16 1.069-.5572.619-.8566 1.428-.837 2.26.0196.833.3567 1.626.9424 2.219.5857.592 1.3755.937 2.2079.966.4877.015.9722-.083 1.4155-.287.4433-.204.8332-.508 1.1392-.888l-.8367-.741c-.2143.235-.4757.423-.7673.551-.2916.127-.6069.192-.9252.19-.4422.01-.8718-.148-1.2024-.442-.3306-.293-.5376-.702-.5795-1.142h4.5857v-.39c.0064-1.807-.9963-3.365-2.9826-3.365zm-1.6031 2.81c.0125-.427.186-.834.4857-1.138.2997-.305.7034-.484 1.1302-.504.4263.01.8314.189 1.1269.496.2955.308.4575.719.4506 1.146h-3.1934zM71.2001 143.773c.3599-.157.6647-.417.8753-.749.2105-.331.3172-.717.3063-1.11 0-1.277-1.0538-2.114-2.7208-2.114h-3.7107v8.303h3.8321c1.8394 0 3.0592-.792 3.0592-2.28 0-1.162-.6706-1.718-1.6414-2.05zm-3.832-2.683h2.0884c.9389 0 1.4562.39 1.4562 1.061 0 .772-.6387 1.136-1.5584 1.136h-1.9735l-.0127-2.197zm2.4078 5.697h-2.3951v-2.273h2.3057c1.1432 0 1.6988.415 1.6988 1.124 0 .709-.6003 1.149-1.5967 1.149h-.0127zM76.814 141.742c-.8212-.013-1.6343.164-2.3759.517l.3896 1.144c.5594-.256 1.167-.389 1.7819-.39.9963 0 1.5392.473 1.5392 1.335v.153c-.5588-.18-1.1437-.267-1.7308-.255-1.4498 0-2.5547.638-2.5547 2.005 0 1.277 1.041 1.916 2.2226 1.916.3834.012.7645-.063 1.115-.219.3505-.156.6614-.389.9096-.681v.766h1.4179v-3.698c.0255-1.629-.875-2.593-2.7144-2.593zm1.354 4.075c0 .779-.709 1.309-1.6542 1.309-.6387 0-1.2071-.332-1.2071-.92 0-.638.5365-1.002 1.4306-1.002.4879-.003.9724.081 1.4307.249v.364zM82.6831 143.236v-1.405h-1.4307v6.24h1.4307v-2.376c0-1.654.875-2.465 2.1268-2.465h.083v-1.514c-.4843-.025-.9633.111-1.3628.385-.3996.275-.6973.674-.847 1.135zM93.2469 141.704c-.4237-.002-.8408.104-1.2118.309-.3711.204-.6838.5-.9087.859v-3.423h-1.4306v8.622h1.4306v-.964c.2373.342.5544.621.924.812.3695.191.7803.29 1.1965.286 1.4881 0 2.9059-1.169 2.9059-3.251s-1.4498-3.25-2.9059-3.25zm-.3322 5.256c-.4988-.049-.9617-.282-1.2985-.653-.3367-.371-.5233-.855-.5233-1.356 0-.501.1866-.984.5233-1.356.3368-.371.7997-.604 1.2985-.652.4892.061.9389.299 1.265.669.326.37.5059.846.5059 1.339s-.1799.969-.5059 1.339c-.3261.37-.7758.608-1.265.67zM100.01 146.468l-1.7751-4.637h-1.5264l2.6058 6.24c-.2363.543-.4854.722-.8878.722-.2961-.008-.5857-.089-.843-.236l-.479 1.066c.4495.255.9588.385 1.4753.377 1.0028 0 1.5582-.473 2.0562-1.75l2.478-6.419h-1.488l-1.616 4.637zM113.314 139.8l-2.427 4.133 2.427 4.138h2.395l-2.503-4.138 2.503-4.133h-2.395zM109.214 139.641c-.253 0-.5.075-.71.215-.21.14-.374.34-.47.573-.097.234-.122.49-.073.738s.171.476.35.654c.178.179.406.301.654.35.247.049.504.024.738-.073.233-.097.433-.26.573-.47.14-.21.215-.457.215-.71 0-.339-.134-.664-.374-.903-.239-.24-.564-.374-.903-.374zM109.214 142.63c-.253 0-.5.075-.71.215-.21.14-.374.34-.47.573-.097.234-.122.49-.073.738s.171.476.35.654c.178.179.406.301.654.35.247.049.504.024.738-.073.233-.097.433-.26.573-.47.14-.21.215-.457.215-.71 0-.339-.134-.664-.374-.903-.239-.24-.564-.374-.903-.374zM109.214 145.619c-.253 0-.5.075-.71.215-.21.14-.374.34-.47.573-.097.234-.122.49-.073.738s.171.476.35.654c.178.179.406.301.654.35.247.049.504.024.738-.073.233-.097.433-.26.573-.47.14-.21.215-.457.215-.71 0-.339-.134-.664-.374-.903-.239-.24-.564-.374-.903-.374zM117.734 148.071h5.876v-1.718h-3.749v-1.622h3.449v-1.737h-3.449v-1.476h3.749V139.8h-5.876v8.271zM154.867 143.984v2.331c-.423.065-.85.101-1.278.108-1.098 0-1.315-.383-1.315-1.085v-2.855c0-.76.364-1.016 1.277-1.016.956.014 1.91.095 2.855.243l.192-1.788c-.985-.191-1.986-.285-2.989-.281-2.44 0-3.456.823-3.456 2.554v3.443c0 1.667.92 2.555 3.385 2.555 1.111-.001 2.217-.147 3.29-.435v-3.832l-1.961.058zM142.598 143.351v-1.168c0-1.514-.716-2.383-2.951-2.383h-3.915v8.303h2.127v-2.337h1.641l1.322 2.337h2.402l-1.68-2.759c.357-.186.65-.476.838-.832.188-.356.264-.761.216-1.161zm-2.07-.108c0 .549-.261.811-.951.811h-1.718v-2.555h1.775c.639 0 .894.217.894.76v.984zM147.567 139.8h-2.127v8.271h2.127V139.8zM130.929 145.382c0 .639-.364 1.029-1.424 1.029-1.061 0-1.406-.371-1.406-1.029V139.8h-2.126v5.819c0 1.309.798 2.612 3.532 2.612 2.733 0 3.551-1.277 3.551-2.612v-5.825h-2.127v5.588zM40.8241 101.901h-4.3494v-6.9486h-1.4561v8.2776h5.8055v-1.329zM43.6792 96.9833h-1.4307v6.2397h1.4307v-6.2397zM43.7301 94.6713h-1.5392v1.3603h1.5392v-1.3603zM51.6821 105.12v-8.1366h-1.4306v.9707c-.2398-.3409-.5584-.6188-.9287-.81-.3703-.1913-.7814-.2903-1.1981-.2885-1.4882 0-2.8933 1.1688-2.8933 3.2504 0 2.083 1.4307 3.251 2.8933 3.251.4244.001.8421-.106 1.214-.31.3719-.204.686-.5.9128-.858v2.931h1.4306zm-3.1934-3.002c-.2526-.007-.5012-.065-.7305-.171-.2293-.107-.4345-.259-.6031-.447-.1686-.188-.297-.409-.3774-.649-.0804-.239-.111-.493-.0901-.745-.0238-.252.0049-.5066.0842-.7475.0793-.2408.2075-.4627.3766-.6516.1692-.1889.3756-.3408.6062-.4462.2306-.1053.4806-.1619.7341-.166.4945.0558.9511.2917 1.2827.6628.3316.3711.5148.8513.5148 1.3485 0 .498-.1832.978-.5148 1.349-.3316.372-.7882.608-1.2827.663zM55.6162 103.357c.387-.002.7669-.104 1.1026-.297.3358-.192.616-.468.8134-.801v.964h1.4306v-6.2397h-1.3987v3.5257c.0239.197.0052.396-.055.585-.0602.189-.1603.363-.2937.509-.1333.147-.2967.263-.479.341-.1823.078-.3792.115-.5774.11-.8494 0-1.3348-.555-1.3348-1.52v-3.5507h-1.4306v3.9727c0 1.456.8175 2.401 2.2226 2.401zM62.3095 96.9833h-1.4306v6.2397h1.4306v-6.2397zM62.3542 94.6713h-1.5393v1.3603h1.5393v-1.3603zM68.875 97.9541c-.2398-.3409-.5584-.6188-.9287-.81-.3703-.1913-.7813-.2903-1.1981-.2885-1.4881 0-2.8932 1.1688-2.8932 3.2504 0 2.083 1.4306 3.251 2.8932 3.251.4244.001.8421-.106 1.214-.31.372-.204.686-.5.9128-.858v1.034h1.4306v-8.6219H68.875v3.353zm-1.7819 4.1639c-.2527-.007-.5012-.065-.7306-.171-.2293-.107-.4345-.259-.6031-.447-.1685-.188-.2969-.409-.3773-.649-.0804-.239-.111-.493-.0901-.745-.0238-.252.0048-.5066.0841-.7475.0794-.2408.2076-.4627.3767-.6516.1692-.1889.3755-.3408.6062-.4462.2306-.1053.4805-.1619.7341-.1661.4945.0559.9511.2918 1.2827.6629.3315.3711.5148.8513.5148 1.3485 0 .498-.1833.978-.5148 1.349-.3316.372-.7882.608-1.2827.663zM79.1961 96.8556c-.4234.0002-.8397.1075-1.2105.3118-.3707.2044-.6837.4992-.9099.857v-1.0411H75.645v8.1367h1.4307v-2.861c.2372.342.5544.621.9239.812.3696.192.7803.29 1.1965.286 1.4881 0 2.906-1.168 2.906-3.251 0-2.0816-1.4435-3.2504-2.906-3.2504zm-.3321 5.2624c-.4945-.056-.9512-.291-1.2827-.663-.3316-.371-.5149-.851-.5149-1.349 0-.4972.1833-.9774.5149-1.3485.3315-.3711.7882-.6071 1.2827-.6629.4945.0558.9511.2918 1.2827.6629.3315.3711.5148.8513.5148 1.3485 0 .498-.1833.978-.5148 1.349-.3316.372-.7882.607-1.2827.663zM86.5218 103.37c.6425-.011 1.2672-.212 1.7957-.578.5284-.366.9369-.879 1.1741-1.476.2371-.598.2924-1.252.1587-1.8802-.1337-.6285-.4502-1.2035-.9099-1.6525-.4596-.449-1.0418-.752-1.6733-.8709-.6314-.119-1.284-.0485-1.8755.2026-.5915.2511-1.0955.6715-1.4486 1.2083-.3531.5368-.5396 1.1661-.5359 1.8087.0033.431.0919.857.2606 1.253.1687.396.4142.755.7223 1.056.3082.301.6729.538 1.0731.698.4002.159.828.238 1.2587.231zm0-5.2626c.261-.0004.5194.0525.7592.1555.2399.103.4561.2539.6355.4435.1795.1896.3182.4138.4079.659.0896.2451.1282.506.1135.7666.0169.26-.0204.52-.1097.764s-.2285.467-.4088.655-.3977.335-.6383.434c-.2407.099-.4992.146-.7593.14-.2604 0-.5182-.053-.7576-.155-.2394-.103-.4553-.253-.6347-.442-.1793-.189-.3182-.413-.4083-.657-.09-.244-.1293-.504-.1154-.765-.0169-.2594.0204-.52.1096-.7646.0892-.2447.2284-.4681.4085-.6561.1802-.188.3976-.3364.6382-.4359.2407-.0995.4994-.1479.7597-.142zM93.8854 103.357c.4244.001.8421-.106 1.214-.31.372-.204.686-.5.9128-.858v1.034h1.4306v-8.6219h-1.4306v3.353c-.2398-.3409-.5584-.6188-.9287-.81-.3703-.1913-.7813-.2903-1.1981-.2885-1.4881 0-2.8932 1.1688-2.8932 3.2504 0 2.083 1.437 3.251 2.8932 3.251zm.3449-5.2624c.4945.0559.9511.2918 1.2827.6629.3315.3711.5148.8513.5148 1.3485 0 .498-.1833.978-.5148 1.349-.3316.372-.7882.608-1.2827.663-.2524-.007-.5007-.065-.7297-.171-.229-.107-.4339-.259-.6019-.447-.1681-.189-.2959-.409-.3755-.649-.0797-.24-.1095-.493-.0876-.745-.0248-.2522.0032-.5072.0821-.7485.0789-.2412.2071-.4635.3765-.6526.1693-.1891.376-.3411.6071-.4461.2311-.105.4815-.1609.7354-.1642h-.0064zM101.409 102.189c-.745-.029-1.4623-.298-2.0433-.767l-.6386.971c.7559.591 1.6849.919 2.6439.932 1.278 0 2.319-.638 2.319-1.96 0-1.124-1.029-1.5396-1.916-1.8206-.735-.2363-1.412-.4215-1.412-.875 0-.364.319-.6387.875-.6387.629.042 1.237.2467 1.763.594l.568-1.0155c-.681-.4489-1.477-.6948-2.293-.7089-1.239 0-2.2222.7217-2.2222 1.916 0 1.1947 1.0282 1.5777 1.9482 1.8327.734.224 1.398.39 1.398.875-.019.428-.376.665-.99.665zM109.01 103.223h1.43v-5.007h1.629v-1.1816h-1.654v-.3449c0-.6387.281-.9452.824-.9452.287.0021.573.054.843.1533v-1.2072c-.376-.1091-.765-.1629-1.156-.1596-1.233 0-1.916.6706-1.916 2.0438v.447h-.792v1.1944h.792v5.007zM116.003 96.8556c-.436-.0094-.869.0685-1.274.2292-.405.1606-.773.4006-1.084.706-.311.3053-.557.6698-.725 1.0719-.167.4021-.253.8337-.251 1.2693-.001.431.084.859.251 1.257.167.398.412.758.72 1.06.309.302.674.539 1.076.697.401.158.83.234 1.261.224.428 0 .852-.084 1.247-.248.395-.163.754-.403 1.057-.706.302-.302.542-.661.706-1.057.163-.395.248-.818.248-1.246 0-.4279-.085-.8514-.248-1.2466-.164-.3952-.404-.7543-.706-1.0568-.303-.3024-.662-.5423-1.057-.706-.395-.1637-.819-.248-1.247-.248h.026zm0 5.2694c-.261 0-.518-.053-.758-.155-.239-.103-.455-.253-.634-.442-.18-.189-.319-.412-.409-.657-.09-.244-.129-.504-.115-.765-.017-.2561.019-.5134.106-.7554s.223-.4636.399-.651c.176-.1874.389-.3367.625-.4386.236-.1018.49-.1541.748-.1536.261-.0004.519.0525.759.1555.24.103.456.254.635.4436.18.1895.318.4138.408.6589.09.2452.128.506.114.7666.015.256-.022.513-.109.754s-.223.462-.399.649c-.176.186-.388.335-.624.437-.236.101-.49.153-.746.153zM122.205 100.847c0-1.6539.875-2.465 2.126-2.465h.083v-1.5136c-.484-.0226-.963.1146-1.362.3903-.399.2757-.697.6749-.847 1.1361v-1.4115h-1.425v6.2397h1.425v-2.376zM130.999 103.357c.383.015.764-.059 1.114-.215.35-.156.659-.391.904-.685v.766h1.425v-3.6977c0-1.667-.901-2.6314-2.747-2.6314-.821-.0112-1.634.1658-2.376.5174l.39 1.1496c.561-.2567 1.171-.3917 1.788-.396.99 0 1.533.4726 1.533 1.3412v.1278c-.556-.1831-1.139-.2716-1.724-.2619-1.45 0-2.555.639-2.555 2.012.026 1.296 1.067 1.973 2.248 1.973zm-.805-2.024c0-.639.53-1.003 1.431-1.003.488-.003.972.082 1.431.249v.39c0 .779-.709 1.277-1.655 1.277-.677 0-1.207-.326-1.207-.92v.007zM137.572 99.7041c-.024-.1968-.006-.3964.055-.5853.06-.1888.16-.3625.293-.5092.134-.1467.297-.2629.479-.3407.183-.0779.379-.1155.578-.1104.849 0 1.334.5557 1.334 1.5201v3.5444h1.431v-3.966c0-1.4562-.817-2.4014-2.222-2.4014-.387.0027-.767.1053-1.103.2978-.335.1924-.616.4682-.814.8007v-.9708h-1.43v6.2397h1.43l-.031-3.5189zM144.411 103.945c-.294-.005-.583-.087-.836-.236l-.486 1.066c.45.254.959.384 1.476.377 1.009 0 1.564-.473 2.056-1.75l2.485-6.4187h-1.488l-1.623 4.6367-1.769-4.6367H142.7l2.599 6.2397c-.236.549-.485.722-.888.722zM121.394 112.778c-1.93 0-3.817.572-5.422 1.645-1.605 1.072-2.856 2.596-3.594 4.379-.739 1.783-.932 3.746-.556 5.639.377 1.893 1.306 3.632 2.671 4.996 1.365 1.365 3.104 2.295 4.997 2.671 1.893.377 3.855.184 5.638-.555 1.784-.739 3.308-1.99 4.38-3.594 1.072-1.605 1.645-3.492 1.645-5.422 0-2.588-1.028-5.071-2.859-6.901-1.83-1.83-4.312-2.858-6.9-2.858zm0 17.365c-1.512.039-3.001-.375-4.277-1.187-1.276-.813-2.281-1.987-2.886-3.373-.605-1.386-.783-2.921-.512-4.409.272-1.488.981-2.861 2.036-3.944 1.056-1.083 2.411-1.827 3.891-2.137 1.481-.309 3.02-.17 4.421.4 1.401.569 2.601 1.544 3.445 2.799.845 1.254 1.296 2.732 1.297 4.245.012.986-.169 1.965-.535 2.881-.366.917-.909 1.752-1.597 2.458-.689.706-1.51 1.27-2.416 1.659-.907.389-1.881.596-2.867.608zM0 113.104h6.44426c6.38674 0 9.45244 4.56 9.45244 9.209 0 4.803-2.874 9.58-9.45244 9.58H0v-18.789zm13.5591 9.177c0-3.487-2.3056-6.923-7.11484-6.923h-4.1067v14.23h4.1067c4.99444 0 7.11484-3.705 7.11484-7.307zM38.4102 113.104h2.3375v18.815h-2.3375v-18.815zM48.431 113.104l11.5345 14.408v-14.408h2.312v18.815h-1.6031l-11.5601-14.351v14.351h-2.3247v-18.815h1.6414zM87.3265 113.104l4.375 15.545 4.8092-15.545h1.5073l4.86 15.545 4.324-15.545h2.651l-5.748 18.815h-2.338l-4.4707-14.051-4.4707 14.051h-2.3631l-5.7481-18.815h2.6121zM68.5176 113.104h2.312v18.815h-2.312v-18.815z"/>
    <path d="M79.1958 113.104h2.9316l-8.2198 9.056 9.0245 9.759h-2.906l-9.2033-9.663 8.373-9.152zM153.653 113.104h2.312v18.815h-2.312v-18.815zM164.351 113.104h2.932l-8.22 9.388 9.031 9.427h-2.906l-9.21-9.331 8.373-9.484zM177.284 114.796c-2.063 0-4.145 1.067-4.145 3.085 0 1.545 1.533 2.638 4.305 3.232 3.832.817 6.668 1.916 6.668 5.748 0 3.57-3.283 5.435-6.725 5.435-1.333-.008-2.647-.306-3.852-.873-1.206-.567-2.273-1.389-3.129-2.41l1.654-1.533c.652.798 1.467 1.447 2.39 1.905.923.458 1.932.715 2.962.752 1.974 0 4.388-1.13 4.388-3.334 0-1.992-1.654-2.982-4.624-3.602-3.615-.754-6.349-2.101-6.349-5.352 0-3.385 3.149-5.109 6.387-5.109 1.163-.021 2.313.236 3.357.747 1.044.512 1.951 1.265 2.647 2.197l-1.578 1.411c-.489-.704-1.14-1.28-1.898-1.68-.758-.4-1.601-.612-2.458-.619zM149.368 131.919l-6.208-7.166c3.87-.415 5.429-2.976 5.397-5.786 0-3.066-2.121-5.863-6.387-5.863h-6.923v18.815h2.337v-7.077h2.695l6.132 7.077h2.957zm-11.784-16.721h4.605c2.714 0 4.056 1.916 4.03 3.832 0 2.127-1.316 3.724-4.139 3.724h-4.47l-.026-7.556zM34.1246 131.919l-6.2079-7.166c3.8704-.415 5.4224-2.976 5.3968-5.786 0-3.066-2.1204-5.863-6.3868-5.863h-6.9296v18.815h2.3567v-7.077h2.6824l6.1314 7.077h2.957zm-11.7708-16.721h4.6049c2.7143 0 4.0556 1.916 4.03 3.832 0 2.127-1.3157 3.724-4.1386 3.724h-4.4963v-7.556zM185.549 114.962c.018-.355.141-.697.352-.984.211-.286.501-.505.835-.628.334-.123.697-.146 1.043-.065.347.081.662.261.907.519s.409.582.472.933c.063.35.022.711-.119 1.038-.14.327-.373.606-.67.802-.296.196-.644.301-1 .301-.248.003-.494-.045-.723-.141-.229-.097-.435-.239-.606-.419-.171-.18-.303-.393-.387-.627-.085-.233-.12-.481-.104-.729zm3.34 0c-.014-.297-.115-.584-.29-.824-.175-.241-.417-.425-.695-.529-.279-.105-.582-.125-.872-.058-.291.066-.555.216-.76.431-.206.215-.344.486-.397.779-.053.292-.019.594.097.868.117.274.312.507.56.671.248.164.539.252.837.252.206.003.411-.036.602-.116.19-.08.362-.198.505-.347.142-.15.253-.327.324-.52.071-.194.101-.401.089-.607zm-2.178-1.028h.696c.154-.024.312.015.437.107.126.092.21.23.234.385.023.154-.015.311-.107.437s-.231.21-.385.233l.639.901h-.301l-.606-.882h-.294v.882h-.287l-.026-2.063zm.696.92c.046.006.094.003.139-.011.044-.014.085-.038.12-.07.034-.032.061-.071.078-.114.017-.044.024-.091.021-.138 0-.204-.122-.325-.358-.325h-.409v.638l.409.02z"/>
</svg>
