<svg xmlns="http://www.w3.org/2000/svg" fill="currentColor" viewBox="0 0 322 70">
    <path d="M49.1473 65.4004c5.05 0 9.1438-4.0939 9.1438-9.1439 0-5.05-4.0938-9.1438-9.1438-9.1438-5.05 0-9.1439 4.0938-9.1439 9.1438 0 5.05 4.0939 9.1439 9.1439 9.1439zM59.7317 45.0464c5.0501 0 9.1439-4.0939 9.1439-9.1439 0-5.05-4.0938-9.1438-9.1439-9.1438-5.05 0-9.1438 4.0938-9.1438 9.1438 0 5.05 4.0938 9.1439 9.1438 9.1439zM50.4217 24.0828c5.05 0 9.1439-4.0939 9.1439-9.1439 0-5.05001-4.0939-9.14386-9.1439-9.14386-5.05 0-9.1439 4.09385-9.1439 9.14386 0 5.05 4.0939 9.1439 9.1439 9.1439zM28.2234 18.2877c5.0501 0 9.1439-4.0938 9.1439-9.14384C37.3673 4.09384 33.2735 0 28.2234 0c-5.05 0-9.1438 4.09384-9.1438 9.14386 0 5.05004 4.0938 9.14384 9.1438 9.14384zM9.85626 32.0312c5.05004 0 9.14384-4.0938 9.14384-9.1438 0-5.05-4.0938-9.1439-9.14384-9.1439-5.05001 0-9.143858 4.0939-9.143858 9.1439 0 5.05 4.093848 9.1438 9.143858 9.1438zM9.14386 54.9661c5.05004 0 9.14384-4.0939 9.14384-9.1439 0-5.05-4.0938-9.1439-9.14384-9.1439C4.09384 36.6783 0 40.7722 0 45.8222c0 5.05 4.09384 9.1439 9.14386 9.1439zM26.64 69.8179c5.05 0 9.1438-4.0939 9.1438-9.1439 0-5.05-4.0938-9.1438-9.1438-9.1438-5.0501 0-9.1439 4.0938-9.1439 9.1438 0 5.05 4.0938 9.1439 9.1439 9.1439zM249.521 57.9744h-.309v.4829h.309c.118 0 .182-.0633.182-.1504v-.1821c0-.1188-.064-.1504-.182-.1504zm0 .6333h-.309v.3959h-.151v-1.2113h.46c.237 0 .332.1187.332.3008v.1821c.008.0552-.002.1115-.029.1601-.028.0487-.07.087-.121.1091l.301.4275h-.183l-.3-.3642zm-.095.9025c-.21-.0046-.414-.0709-.586-.1904-.172-.1196-.305-.2872-.383-.4819-.078-.1948-.097-.4081-.054-.6134.043-.2053.145-.3935.294-.5412.148-.1478.337-.2485.543-.2896.206-.0411.419-.0208.613.0583s.361.2136.479.3868c.118.1731.183.3772.186.5868 0 .2877-.114.5636-.318.767-.203.2034-.479.3176-.766.3176h-.008zm.008-2.2879c-.32 0-.626.1268-.851.3524-.226.2257-.353.5318-.353.8509-.003.1602.026.3193.084.4684.058.1492.145.2853.256.4008.111.1154.244.2078.391.2719.147.0642.305.0988.465.1019.161.0021.321-.0276.47-.0873.15-.0598.287-.1484.402-.2609.115-.1125.208-.2466.271-.3947.064-.1481.098-.3072.1-.4684-.001-.1604-.034-.319-.097-.4666s-.154-.2813-.269-.3933c-.115-.1119-.251-.1999-.4-.2589-.15-.0589-.309-.0877-.469-.0845M93.8689 61.632h-4.8926v-4.2592h-1.7971v10.2443h1.7971v-4.3146h4.8926v4.3146h1.7971V57.3728h-1.7971v4.2592zM101.802 59.7241c-1.071-.0191-2.1065.3865-2.8794 1.1282-.7728.7417-1.2207 1.7592-1.2456 2.8302-.0036.0289-.0036.0581 0 .0871-.0124.8156.2173 1.6166.6601 2.3017.4427.6851 1.0787 1.2235 1.8279 1.5472.748.3236 1.576.418 2.379.2711.802-.1468 1.543-.5283 2.129-1.0962.585-.5679.989-1.2967 1.161-2.0942.171-.7975.102-1.628-.198-2.3863-.301-.7584-.819-1.4106-1.491-1.8742-.671-.4636-1.464-.7178-2.28-.7304l-.063.0158zm0 6.5313c-.63 0-1.234-.2502-1.68-.6956-.4452-.4454-.6954-1.0495-.6954-1.6794v-.1346c-.0193-.3052.0217-.6111.1206-.9004.099-.2893.254-.5563.4558-.7857.203-.2294.448-.4167.723-.5512.274-.1345.573-.2136.878-.2327h.15c.63 0 1.234.2502 1.68.6956.445.4454.695 1.0495.695 1.6794.004.0448.004.0898 0 .1346.019.3051-.022.6111-.12.9004-.099.2893-.254.5563-.457.7857-.202.2294-.447.4167-.722.5512-.274.1345-.573.2136-.878.2327h-.15zM116.756 59.724c-.514-.003-1.022.1194-1.478.3567-.457.2372-.849.5822-1.142 1.005-.206-.4276-.534-.7848-.943-1.0269-.408-.2422-.879-.3587-1.353-.3348-.477.0009-.946.1245-1.362.3587-.416.2343-.765.5715-1.013.9792v-1.1716h-1.797v7.7267h1.765v-4.3463c0-1.2033.673-1.9317 1.655-1.9317s1.583.6729 1.583 1.8684v4.4096h1.774v-4.3621c0-1.243.688-1.9159 1.654-1.9159s1.584.6571 1.584 1.8842v4.3938h1.765v-4.9321c.016-1.8921-1.005-2.9609-2.692-2.9609zM124.966 59.7241c-1.043.0638-2.02.5291-2.727 1.2984-.707.7692-1.088 1.7824-1.063 2.8267.025 1.0443.453 2.0385 1.195 2.7736.742.7351 1.74 1.1539 2.785 1.1685.603.0159 1.202-.1063 1.751-.3574.549-.2512 1.033-.6244 1.416-1.0914l-1.045-.9183c-.263.2931-.586.5267-.946.6851-.36.1584-.751.2379-1.144.2332-.551.0166-1.088-.1772-1.501-.5418-.413-.3647-.672-.8729-.724-1.4215h5.676v-.483c.032-2.2404-1.179-4.1721-3.673-4.1721zm-2.019 3.4834c.018-.5287.233-1.0316.604-1.4086.371-.3769.871-.6004 1.399-.626.529.0124 1.032.2331 1.4.614.367.3809.57.8913.564 1.4206h-3.967zM141.552 62.2891c.45-.1863.832-.5065 1.094-.9172.262-.4106.391-.892.371-1.3787 0-1.5833-1.307-2.6204-3.373-2.6204h-4.592v10.2443h4.75c2.28 0 3.792-.9817 3.792-2.8263-.007-1.4013-.847-2.09-2.042-2.5017zm-4.75-3.325h2.589c1.155 0 1.797.4829 1.797 1.3221 0 .8391-.792 1.4012-1.932 1.4012h-2.454v-2.7233zm2.984 7.0538h-2.984v-2.8104h2.85c1.417 0 2.106.5145 2.106 1.3933s-.721 1.4171-1.948 1.4171h-.024zM148.503 59.7716c-1.018-.0136-2.025.2057-2.945.6412l.483 1.4251c.694-.3133 1.446-.4778 2.208-.483 1.235 0 1.908.5859 1.908 1.6546v.1901c-.69-.2227-1.412-.3324-2.137-.3246-1.805 0-3.167.7916-3.167 2.4858 0 1.5834 1.29 2.3751 2.755 2.3751.473.014.944-.0783 1.377-.2701.433-.1918.817-.4783 1.125-.8383v.95h1.757v-4.5442c.032-2.0742-1.084-3.2617-3.364-3.2617zm1.678 5.0509c0 .9658-.871 1.5833-2.043 1.5833-.839 0-1.496-.4116-1.496-1.14 0-.7916.657-1.2429 1.774-1.2429.602-.0011 1.199.1034 1.765.3088v.4908zM155.778 61.632v-1.7417h-1.773v7.7268h1.773v-2.945c0-2.0505 1.077-3.0559 2.629-3.0559h.103v-1.8763c-.6-.0261-1.191.1447-1.685.4863-.493.3417-.861.8354-1.047 1.4058zM168.833 59.7241c-.517.0088-1.023.1459-1.473.3987-.451.2529-.832.6137-1.108 1.05v-4.2434h-1.773v10.6877h1.773v-1.2034c.293.4228.685.7678 1.142 1.005.456.2373.964.3597 1.478.3567 1.845 0 3.595-1.4488 3.595-4.0217 0-2.573-1.805-4.0296-3.634-4.0296zm-.412 6.5154c-.516.0574-1.036-.047-1.49-.2986-.454-.2516-.818-.6381-1.042-1.1059-.225-.4678-.298-.9937-.21-1.5051.088-.5113.332-.9827.7-1.3488.367-.3662.839-.6091 1.351-.695.512-.086 1.037-.0107 1.504.2153.467.226.853.5916 1.103 1.0462s.352.9757.293 1.4911c-.062.5638-.315 1.0895-.717 1.4898-.401.4003-.928.6512-1.492.711zM177.233 65.6299l-2.193-5.7396h-1.893l3.223 7.7267c-.293.6729-.602.8946-1.101.8946-.365-.0092-.721-.1099-1.037-.2929l-.602 1.3142c.558.3137 1.189.4748 1.829.4671 1.243 0 1.932-.5859 2.549-2.1613l3.072-7.9168h-1.845l-2.002 5.708zM193.707 57.3728l-3 5.1142 3 5.1301h2.969l-3.103-5.1301 3.103-5.1142h-2.969zM188.609 57.167c-.313 0-.62.0929-.88.2668-.26.174-.463.4213-.583.7106-.12.2893-.151.6077-.09.9148.061.3072.212.5893.433.8107.222.2215.504.3723.811.4334.307.0611.625.0297.915-.0901.289-.1199.536-.3228.71-.5832.174-.2604.267-.5665.267-.8797 0-.4199-.167-.8226-.464-1.1196-.297-.2969-.699-.4637-1.119-.4637zM188.609 60.8719c-.313 0-.62.0929-.88.2669-.26.174-.463.4213-.583.7106-.12.2893-.151.6077-.09.9148.061.3071.212.5893.433.8107.222.2214.504.3722.811.4333.307.0611.625.0298.915-.0901.289-.1198.536-.3228.71-.5831.174-.2604.267-.5665.267-.8797 0-.4199-.167-.8227-.464-1.1196-.297-.2969-.699-.4638-1.119-.4638zM188.609 64.6008c-.313 0-.62.0929-.88.2669-.26.174-.463.4212-.583.7106-.12.2893-.151.6076-.09.9148.061.3071.212.5892.433.8107.222.2214.504.3722.811.4333.307.0611.625.0297.915-.0901.289-.1198.536-.3228.71-.5832.174-.2603.267-.5665.267-.8796 0-.42-.167-.8227-.464-1.1196-.297-.297-.699-.4638-1.119-.4638zM199.178 67.6171h7.283v-2.1296h-4.647v-2.0109h4.275v-2.1454h-4.275v-1.8288h4.647v-2.1296h-7.283v10.2443zM245.166 62.5425v2.8896c-.523.0844-1.053.1294-1.583.1346-1.354 0-1.623-.475-1.623-1.3459V60.69c0-.9342.451-1.2588 1.583-1.2588 1.185.0169 2.368.1175 3.539.3008l.23-2.2087c-1.221-.2377-2.462-.357-3.705-.3563-3.017 0-4.275 1.0292-4.275 3.1667v4.2592c0 2.0584 1.14 3.1667 4.195 3.1667 1.374.0066 2.743-.1718 4.07-.5304v-4.6867h-2.431zM229.974 61.7508v-1.425c0-1.8842-.887-2.953-3.65-2.953h-4.853v10.2443h2.636v-2.8975h2.027l1.647 2.8975h2.969l-2.082-3.4201c.44-.2267.801-.5823 1.034-1.0193.234-.437.328-.9348.272-1.4269zm-2.565-.1346c0 .6887-.317 1.0054-1.172 1.0054h-2.13v-3.1667h2.193c.792 0 1.109.2692 1.109.9342v1.2271zM236.133 57.3728h-2.636v10.2443h2.636V57.3728zM215.542 64.2762c0 .7917-.459 1.2746-1.766 1.2746-1.306 0-1.741-.4512-1.741-1.2746v-6.9034h-2.637v7.2122c0 1.5833.99 3.23 4.378 3.23 3.389 0 4.394-1.5833 4.394-3.23v-7.2122h-2.628v6.9034zM94.3676 10.4343h-5.3913V1.82874h-1.7971V12.073h7.1884v-1.6387zM97.9066 4.34631h-1.7733v7.72679h1.7733V4.34631zM97.962 1.47253h-1.9V3.1588h1.9V1.47253zM107.818 14.4164V4.34632h-1.734v1.19543c-.297-.42209-.692-.76622-1.151-1.00325-.459-.23703-.968-.35998-1.485-.35843-1.844 0-3.5862 1.44877-3.5862 4.02963 0 2.5809 1.7732 4.0217 3.5862 4.0217.527.0049 1.046-.1259 1.508-.3796.461-.2537.85-.6219 1.128-1.0692v3.6338h1.734zm-3.958-3.7208c-.303-.0071-.602-.0745-.878-.1983-.277-.1237-.526-.3014-.733-.52247-.207-.22112-.368-.48131-.473-.76535-.106-.28404-.154-.58624-.141-.88895v-.12666c-.026-.29797.007-.59815.097-.88332.091-.28518.236-.54973.429-.77848.193-.22875.429-.4172.694-.55454.266-.13733.556-.22086.854-.24578h.182c.605.04638 1.169.32235 1.577.77132.408.44897.628 1.03692.616 1.6433.005.02087.005.04246 0 .06333.023.30416-.015.6098-.11.89943-.096.28963-.247.55756-.447.78846-.199.23091-.442.42021-.714.55711-.273.137-.57.2188-.874.2409H103.86zM112.687 12.2314c.481.0013.953-.1238 1.37-.3628.417-.2391.763-.5835 1.005-.9989v1.2034h1.773V4.34631h-1.773v4.36214c.027.22404.009.45112-.052.66825-.062.21714-.165.42008-.305.59725-.139.17715-.313.32505-.51.43535-.196.1102-.413.1806-.637.2071-.079.0079-.159.0079-.238 0-1.053 0-1.654-.68877-1.654-1.89212V4.34631H109.9v4.91631c.04 1.82088 1.045 2.96878 2.787 2.96878zM120.976 4.34631h-1.773v7.72679h1.773V4.34631zM121.031 1.47253h-1.9V3.1588h1.9V1.47253zM129.107 5.54168c-.294-.4239-.687-.76954-1.146-1.00686-.458-.23732-.967-.35913-1.483-.35483-1.844 0-3.586 1.44877-3.586 4.02963 0 2.58088 1.766 4.02168 3.586 4.02168.526.0051 1.044-.1257 1.505-.3795.46-.2537.847-.622 1.124-1.0692v1.2904h1.773V1.38538h-1.773v4.1563zm-2.209 5.15382c-.303-.0071-.601-.0745-.878-.1983-.276-.1237-.526-.3013-.733-.52245-.207-.22112-.368-.4813-.473-.76534-.106-.28404-.153-.58625-.141-.88895v-.12667c-.028-.298.003-.59866.091-.8847.088-.28604.232-.55183.424-.78209.191-.23027.426-.42046.691-.55967.265-.1392.555-.22467.853-.25149h.166c.612.02069 1.191.28155 1.612.72608.42.44454.649 1.03696.636 1.64895.005.02887.005.05822 0 .08709.024.30417-.012.61005-.107.90011s-.245.5586-.444.79025c-.199.23168-.441.42188-.713.55968-.272.1379-.569.2207-.873.2437h-.103l-.008.0238zM141.868 4.18005c-.522.00219-1.035.1361-1.492.38935-.456.25325-.842.61764-1.12 1.05942V4.34631h-1.774V14.4164h1.774v-3.5467c.292.4217.683.766 1.138 1.0032.455.2372.961.3602 1.474.3585 1.845 0 3.602-1.4488 3.602-4.02172 0-2.57294-1.773-4.02963-3.602-4.02963zm-.403 6.51545c-.614-.0165-1.197-.2759-1.62-.72109-.422-.44521-.652-1.03998-.637-1.65389v-.095c-.031-.61341.177-1.215.58-1.6785.403-.46351.97-.75287 1.582-.80736h.095c.301.00918.599.07804.874.2026.275.12457.523.30238.729.52318.206.22079.366.4802.471.76327.106.28306.154.58418.142.88597.004.04477.004.08982 0 .13459.06.59732-.12 1.19389-.5 1.65855-.38.46468-.929.75938-1.526.81938l-.19-.0317zM150.957 12.2472c.797-.011 1.573-.2576 2.23-.7089s1.166-1.0871 1.462-1.82711c.297-.74004.367-1.55125.204-2.3314-.164-.78015-.556-1.49431-1.125-2.05248-.569-.55816-1.291-.93534-2.074-1.084-.783-.14866-1.593-.06214-2.327.24865-.734.31078-1.36.83193-1.798 1.49775-.438.66583-.67 1.44652-.665 2.24369-.009.5205.086 1.03754.278 1.52151.191.48399.477.92539.839 1.29899.363.3735.795.6719 1.273.8781.478.2061.992.3159 1.513.3231l.19-.0079zm0-6.51549c.63 0 1.234.25022 1.679.69563.446.4454.696 1.0495.696 1.6794.004.04213.004.08453 0 .12666.028.62874-.195 1.24286-.62 1.70747-.424.46463-1.016.74173-1.644.77053h-.111c-.63 0-1.234-.2503-1.68-.6957-.445-.44538-.695-1.04948-.695-1.67938v-.13458c-.02-.30516.021-.61113.12-.90043.099-.28931.254-.55628.457-.78566.202-.22938.447-.41668.722-.55119.274-.13451.573-.2136.878-.23275h.198zM160.093 12.2313c.527.0056 1.046-.1247 1.508-.3785.462-.2538.85-.6224 1.128-1.0702v1.2904h1.765V1.38538h-1.765v4.1563c-.298-.42209-.693-.76622-1.152-1.00325-.459-.23704-.968-.35998-1.484-.35844-1.845 0-3.587 1.44877-3.587 4.02963 0 2.58088 1.774 4.02168 3.587 4.02168zm.427-6.51546c.613.0347 1.189.30559 1.607.75581.418.45021.645 1.04474.634 1.65881.004.02621.004.05295 0 .07916.022.30416-.015.6098-.111.89943-.096.28963-.247.55756-.447.78846-.199.23089-.442.42019-.714.55719-.273.1369-.57.2187-.874.2408h-.087c-.3-.0112-.595-.0816-.868-.2072s-.518-.3038-.722-.52452c-.204-.2207-.362-.4795-.465-.76151-.104-.28201-.151-.58169-.138-.88181v-.10292c-.057-.59937.126-1.197.509-1.66162.383-.46462.934-.75822 1.534-.81633h.15l-.008-.02375zM169.419 10.8143c-.924-.0417-1.81-.3742-2.534-.94997l-.791 1.19547c.936.7338 2.088 1.1399 3.277 1.1558 1.584 0 2.874-.7917 2.874-2.43044 0-1.39335-1.275-1.90794-2.375-2.25628-.902-.29292-1.742-.53042-1.742-1.08459 0-.45126.396-.79168 1.085-.79168.779.05384 1.532.30739 2.185.73626l.697-1.25877c-.842-.55699-1.825-.86187-2.835-.87876-1.535 0-2.755.8946-2.755 2.37503 0 1.48044 1.275 1.94752 2.375 2.27211.911.27709 1.726.48292 1.726 1.0846-.008.50672-.396.83122-1.187.83122zM178.808 12.0731h1.773V5.86634h2.019V4.40173h-2.051V3.9584c0-.79168.357-1.17168 1.03-1.17168.353.00722.703.07138 1.037.19V1.5042c-.465-.14022-.948-.20961-1.433-.20584-1.52 0-2.375.83126-2.375 2.53337v.55417h-.974v1.48044h.974v6.20676zM187.477 4.17999c-1.072-.02122-2.108.38371-2.882 1.12588-.773.74217-1.22 1.7609-1.243 2.8325-.004.03155-.004.06346 0 .095-.007.52447.09 1.04517.285 1.53183.196.4867.486.9296.855 1.3031.368.3734.807.67 1.291.8723.484.2024 1.003.3066 1.527.3066h.119c1.07.0483 2.115-.3304 2.906-1.0527.79-.7223 1.262-1.72906 1.31-2.79883.048-1.06978-.331-2.11492-1.053-2.90551-.722-.79059-1.729-1.26187-2.799-1.31017h-.332.016zm0 6.53131c-.63 0-1.234-.2502-1.68-.6956-.445-.44541-.695-1.04951-.695-1.67941v-.13458c-.02-.30516.021-.61113.12-.90043.099-.28931.254-.55628.456-.78566.203-.22938.448-.41668.723-.55119.274-.13451.573-.2136.878-.23275h.15c.63 0 1.234.25022 1.68.69563.445.4454.695 1.0495.695 1.6794.004.04213.004.08453 0 .12666.021.3058-.02.61261-.118.90283-.099.29022-.253.55814-.456.78837-.202.23023-.448.41823-.723.55323-.275.135-.574.2144-.88.2335h-.15zM195.156 9.12796c0-2.05044 1.085-3.05587 2.637-3.05587h.126V4.19581c-.6-.02659-1.193.14391-1.687.48552-.495.34161-.864.83558-1.052 1.40659V4.34623h-1.773V12.073h1.765l-.016-2.94504zM206.049 12.2314c.474.014.944-.0782 1.377-.2701.433-.1918.817-.4782 1.125-.8383v.95h1.758V7.48923c0-2.06627-1.117-3.2617-3.397-3.2617-1.017-.01362-2.025.20572-2.945.64125l.483 1.4646c.684-.31169 1.426-.47879 2.177-.49083 1.235 0 1.908.58584 1.908 1.6546v.19c-.691-.22001-1.412-.32695-2.137-.31667-1.805 0-3.167.79168-3.167 2.48586.063 1.54376 1.354 2.37506 2.818 2.37506zm-1.005-2.50172c0-.79168.657-1.24294 1.773-1.24294.603-.00576 1.201.09889 1.766.30876v.48292c0 .96588-.879 1.58338-2.051 1.58338-.791 0-1.488-.4117-1.488-1.14004v.00792zM214.18 7.71098c-.049-.45203.082-.90516.365-1.26093.283-.35577.696-.58543 1.147-.63909h.23c1.06 0 1.654.68876 1.654 1.88419V12.089h1.774V7.12514c0-1.80502-1.014-2.9767-2.755-2.9767-.479.0041-.948.13067-1.364.36765-.416.23698-.764.57646-1.011.98611V4.34636h-1.766v7.72674h1.766l-.04-4.36212zM222.659 12.9677c-.35-.0187-.689-.122-.99-.3009l-.602 1.3142c.557.3177 1.189.4791 1.829.4671 1.243 0 1.932-.5858 2.549-2.1613l3.072-7.91674h-1.844l-2.003 5.73174-2.209-5.75549h-1.884l3.222 7.72679c-.333.6729-.641.8946-1.14.8946zM237.503 23.9008c-2.39 0-4.725.7085-6.712 2.036-1.987 1.3274-3.535 3.2142-4.449 5.4217-.915 2.2076-1.154 4.6366-.688 6.9801.466 2.3435 1.617 4.4961 3.306 6.1857 1.69 1.6895 3.842 2.8401 6.186 3.3063 2.343.4661 4.773.2269 6.98-.6875 2.208-.9144 4.094-2.4628 5.422-4.4495 1.327-1.9867 2.036-4.3225 2.036-6.7119-.002-3.2034-1.276-6.275-3.541-8.5402-2.265-2.2652-5.337-3.5386-8.54-3.5407zm0 21.494c-1.863.0464-3.698-.4607-5.272-1.4571-1.575-.9963-2.819-2.4373-3.574-4.1406-.756-1.7032-.99-3.5924-.671-5.4284.318-1.836 1.173-3.5365 2.457-4.8864 1.285-1.3498 2.941-2.2885 4.759-2.6971 1.818-.4087 3.716-.2691 5.455.4012 1.739.6703 3.24 1.8411 4.313 3.3644 1.073 1.5233 1.67 3.3306 1.716 5.1934v.2375c.018 1.2218-.206 2.4351-.658 3.5702-.452 1.1351-1.125 2.1696-1.978 3.0443-.853.8746-1.871 1.572-2.994 2.0523-1.124.4803-2.331.7339-3.553.7463zM87.1792 24.2965h7.9801c7.9167 0 11.6927 5.6526 11.6927 11.4001 0 5.9534-3.554 11.8752-11.6927 11.8752h-7.9801V24.2965zM103.963 35.665c0-4.3226-2.858-8.5739-8.8037-8.5739h-5.0905v17.6148h5.0905c6.1747 0 8.8037-4.5838 8.8037-9.0409zM134.735 24.2965h2.89v23.299h-2.89v-23.299zM147.141 24.2965l14.25 17.8444V24.2965h2.858v23.299h-1.955l-14.322-17.7731v17.7731h-2.866v-23.299h2.035zM195.291 24.2965l5.423 19.2457 5.953-19.2457h1.861l6.016 19.2457 5.36-19.2457h3.293l-7.125 23.299h-2.889l-5.542-17.4168-5.542 17.4168h-2.921l-7.125-23.299h3.238zM172.007 24.2965h2.858v23.299h-2.858v-23.299zM185.252 24.2965h3.626l-10.173 11.2181 11.171 12.0809h-3.595l-11.4-11.9701 10.371-11.3289zM277.419 24.2965h2.834v23.299h-2.857l.023-23.299zM290.664 24.2965h3.626l-10.173 11.6297 11.178 11.6693h-3.594l-11.4-11.5584 10.363-11.7406zM306.672 26.3944c-2.549 0-5.13 1.3221-5.13 3.8238 0 1.908 1.892 3.2617 5.328 3.9584 4.75 1.0134 8.257 2.3751 8.257 7.1251 0 4.4176-4.061 6.7293-8.329 6.7293-1.65-.0149-3.278-.3879-4.771-1.0931-1.492-.7053-2.814-1.7261-3.874-2.992l2.051-1.9c.809.9864 1.817 1.79 2.96 2.3577 1.142.5677 2.392.8866 3.666.9357 2.446 0 5.439-1.4092 5.439-4.1326 0-2.47-2.058-3.6892-5.732-4.4571-4.473-.9342-7.861-2.6046-7.861-6.6343 0-4.1879 3.903-6.3334 7.917-6.3334 1.439-.0253 2.865.2925 4.157.9272 1.293.6346 2.416 1.5678 3.276 2.7224l-1.955 1.7496c-.612-.8624-1.421-1.5655-2.36-2.0504-.94-.4849-1.982-.7374-3.039-.7363zM272.107 47.5956l-7.687-8.8747c4.789-.5066 6.713-3.6892 6.681-7.125 0-3.7922-2.628-7.2597-7.916-7.2597h-8.566v23.2594h2.897v-8.7638h3.341l7.584 8.7638h3.666zM257.516 26.917h5.7c3.365 0 5.027 2.3751 4.996 4.7501 0 2.6284-1.631 4.6076-5.122 4.6076h-5.542l-.032-9.3577zM129.423 47.5956l-7.679-8.8747c4.79-.5066 6.713-3.6892 6.682-7.125 0-3.7922-2.629-7.2597-7.917-7.2597h-8.574v23.2594h2.898v-8.7638h3.34l7.585 8.7638h3.665zm-14.59-20.6786h5.7c3.364 0 5.027 2.3751 4.995 4.7501 0 2.6284-1.631 4.6076-5.122 4.6076h-5.542l-.031-9.3577zM316.908 26.7666c.014-.6379.278-1.2447.737-1.6886.458-.4439 1.073-.6891 1.711-.6824.638.0068 1.248.265 1.696.7186.449.4535.701 1.0658.701 1.7038 0 .6381-.252 1.2504-.701 1.7039-.448.4536-1.058.7118-1.696.7185-.638.0068-1.253-.2384-1.711-.6823-.459-.4439-.723-1.0507-.737-1.6886v-.1029zm4.362 0c-.018-.4974-.231-.9676-.593-1.3095-.362-.342-.843-.5283-1.341-.519-.498.0094-.972.2136-1.32.5689-.349.3552-.544.8331-.544 1.3308 0 .4978.195.9756.544 1.3309.348.3552.822.5595 1.32.5688.498.0094.979-.177 1.341-.5189.362-.3419.575-.8121.593-1.3095.004-.0474.004-.0951 0-.1425zm-2.842-1.3459h.911c.104-.0064.208.0078.306.0417.099.034.19.087.268.1562.078.0691.141.153.187.2467.045.0938.072.1956.078.2996v.0475c.006.1769-.052.3501-.165.4871-.112.1369-.27.2283-.445.2571l.792 1.1796h-.396l-.792-1.148h-.387v1.148h-.373l.016-2.7155zm.911 1.1955c.308 0 .467-.1584.467-.4275 0-.2692-.159-.4275-.467-.4275h-.539v.855h.539z"/>
</svg>
