<svg xmlns="http://www.w3.org/2000/svg" fill="currentColor" viewBox="0 0 139 140">
    <path  d="M98.5841 131.149c10.1269-.021 18.3189-8.247 18.2979-18.374-.022-10.126-8.248-18.3185-18.3747-18.2973-10.1267.0212-18.3187 8.2473-18.2975 18.3743.0212 10.127 8.2476 18.319 18.3743 18.297zM138.112 72.1262c.073-10.1264-8.078-18.3942-18.204-18.4667-10.126-.0724-18.394 8.0779-18.467 18.2043-.072 10.1264 8.078 18.3942 18.205 18.4666 10.126.0725 18.394-8.0778 18.466-18.2042zM101.128 48.2976c10.127-.0106 18.328-8.2284 18.317-18.3551-.011-10.1266-8.229-18.3273-18.355-18.3167-10.1268.0106-18.3275 8.2285-18.3169 18.3551.0106 10.1267 8.2285 18.3273 18.3549 18.3167zM56.7267 36.6756c10.1264-.069 18.2796-8.3339 18.2107-18.4603C74.8685 8.08886 66.6035-.0643425 56.4771.00458684 46.3507.0735162 38.1975 8.33848 38.2664 18.4649c.0689 10.1264 8.3339 18.2796 18.4603 18.2107zM38.0965 45.9809c.0424-10.1265-8.1324-18.3701-18.259-18.4125C9.71095 27.526 1.46737 35.7008 1.42495 45.8273 1.38253 55.9539 9.55734 64.1975 19.6839 64.2399c10.1266.0424 18.3702-8.1324 18.4126-18.259zM36.6834 91.9753c.0495-10.1265-8.1196-18.3758-18.2461-18.4253C8.31075 73.5005.0614571 81.6696.0119691 91.7961-.0375188 101.923 8.13154 110.172 18.2581 110.221c10.1265.05 18.3758-8.119 18.4253-18.2457zM53.5274 139.994c10.1265-.064 18.284-8.324 18.2204-18.451-.0637-10.126-8.3244-18.284-18.4508-18.22-10.1265.063-18.284 8.324-18.2204 18.451.0637 10.126 8.3244 18.284 18.4508 18.22z"/>
    <path  d="M127.93 32.056c-.033-.7127.081-1.4245.333-2.0919.252-.6674.638-1.2764 1.133-1.7898.496-.5134 1.091-.9204 1.749-1.1961.658-.2758 1.365-.4145 2.078-.4076 3.063 0 5.288 2.3655 5.288 5.4854 0 3.1199-2.225 5.4854-5.288 5.4854-3.062 0-5.293-2.3783-5.293-5.4854zm9.705 0c0-2.5573-1.758-4.6096-4.412-4.6096-2.653 0-4.417 2.0267-4.417 4.6096 0 2.5829 1.751 4.6159 4.417 4.6159s4.412-2.0266 4.412-4.6159zm-6.33-2.9921h2.027c.239-.0264.481-.0016.709.073.229.0745.439.197.616.3592s.318.3604.412.5814c.095.2209.141.4595.136.6998.007.3925-.125.7748-.374 1.079-.248.3042-.595.5109-.981.5833l1.79 2.6148h-.876l-1.771-2.5573h-.857v2.5573h-.831v-5.9905zm2.027 2.6724c.69 0 1.042-.3644 1.042-.959 0-.5945-.352-.9526-1.042-.9526h-1.196v1.918l1.196-.0064z"/>
</svg>
