<svg xmlns="http://www.w3.org/2000/svg" fill="currentColor" viewBox="0 0 232 140">
    <path d="M147.559 77.9846c.012-7.002-5.654-12.6882-12.656-12.7004-7.002-.0122-12.688 5.6541-12.701 12.6561-.012 7.0021 5.654 12.6883 12.656 12.7005 7.003.0122 12.689-5.6542 12.701-12.6562zM149.637 62.4164c7.002-.0428 12.643-5.7536 12.6-12.7555-.042-7.0019-5.753-12.6434-12.755-12.6007-7.002.0428-12.644 5.7537-12.601 12.7556.043 7.0019 5.754 12.6434 12.756 12.6006zM136.65 33.362c7.003 0 12.679-5.6763 12.679-12.6783 0-7.0021-5.676-12.67833-12.679-12.67833-7.002 0-12.678 5.67623-12.678 12.67833 0 7.002 5.676 12.6783 12.678 12.6783zM118.556 12.7223c.04-7.00196-5.605-12.7098376-12.607-12.7489442C98.9472-.0657508 93.2393 5.57873 93.2002 12.5807c-.0391 7.0019 5.6054 12.7098 12.6078 12.7489 7.001.0391 12.709-5.6054 12.748-12.6073zM80.4533 44.3955c7.002-.0232 12.6594-5.7183 12.6362-12.7203-.0233-7.002-5.7183-12.6594-12.7203-12.6362-7.002.0232-12.6595 5.7183-12.6362 12.7203.0232 7.002 5.7183 12.6594 12.7203 12.6362zM79.4973 76.1695c7.002-.0293 12.6544-5.7293 12.6251-12.7313-.0293-7.002-5.7293-12.6544-12.7313-12.6251-7.002.0293-12.6544 5.7293-12.6251 12.7313.0293 7.002 5.7293 12.6545 12.7313 12.6251zM116.346 84.1372c.036-7.0019-5.61-12.7078-12.612-12.7445-7.0022-.0367-12.7081 5.6098-12.7448 12.6118-.0366 7.0019 5.6099 12.7078 12.6118 12.7445 7.002.0367 12.708-5.6098 12.745-12.6118zM148.788 115.971c-2.367 0-4.68.702-6.648 2.017s-3.501 3.183-4.407 5.37c-.906 2.186-1.143 4.592-.681 6.913.462 2.321 1.602 4.453 3.275 6.127 1.673 1.673 3.805 2.813 6.127 3.275 2.321.461 4.727.224 6.913-.681 2.186-.906 4.055-2.44 5.37-4.407 1.315-1.968 2.017-4.282 2.017-6.648 0-3.174-1.261-6.217-3.505-8.461-2.244-2.244-5.288-3.505-8.461-3.505zm0 21.285c-1.854.046-3.68-.461-5.245-1.457-1.564-.996-2.796-2.437-3.538-4.137-.742-1.7-.96-3.582-.627-5.407.334-1.825 1.204-3.508 2.499-4.836 1.296-1.328 2.957-2.239 4.773-2.617 1.816-.379 3.703-.207 5.421.492 1.718.7 3.188 1.896 4.223 3.436 1.035 1.539 1.587 3.352 1.586 5.207.029 2.441-.912 4.794-2.617 6.541-1.705 1.748-4.034 2.747-6.475 2.778zM0 116.37h7.90144c7.83096 0 11.58196 5.591 11.58196 11.285 0 5.888-3.5239 11.785-11.58196 11.785H0v-23.07zm16.6173 11.253c0-4.276-2.827-8.489-8.71586-8.489H2.86613v17.44h5.03531c6.11596 0 8.71586-4.542 8.71586-8.951zM47.0796 116.37h2.8661v23.07h-2.8661v-23.07zM59.3666 116.37l14.0957 17.659V116.37h2.8348v23.07h-1.9029l-14.1741-17.604v17.604H57.354v-23.07h2.0126zM107.041 116.37l5.364 19.084 5.897-19.053h1.84l5.936 19.053 5.302-19.053h3.312l-7.048 23.07h-2.866l-5.481-17.228-5.482 17.228h-2.89l-7.048-23.07 3.164-.031zM83.979 116.37h2.8348v23.07H83.979v-23.07zM97.1038 116.37h3.5942l-10.0782 11.104 11.0652 11.966h-3.5632l-11.2922-11.817 10.2742-11.253zM188.342 116.37h2.835v23.07h-2.835v-23.07zM201.459 116.37h3.595l-10.063 11.512 11.065 11.558h-3.563l-11.285-11.449 10.251-11.621zM217.301 118.445c-2.521 0-5.074 1.308-5.074 3.783 0 1.895 1.871 3.234 5.278 3.962 4.698 1.003 8.175 2.349 8.175 7.048 0 4.378-4.025 6.664-8.254 6.664-1.633-.017-3.243-.387-4.719-1.086-1.477-.699-2.784-1.71-3.832-2.962l2.028-1.888c.799.98 1.798 1.777 2.929 2.34 1.132.563 2.371.879 3.634.926 2.419 0 5.379-1.394 5.379-4.096 0-2.443-2.036-3.649-5.669-4.409-4.433-.924-7.784-2.576-7.784-6.562 0-4.15 3.861-6.265 7.831-6.265 1.424-.025 2.834.29 4.112.917 1.279.628 2.39 1.551 3.241 2.693l-1.934 1.731c-.601-.86-1.4-1.563-2.33-2.049-.929-.487-1.962-.743-3.011-.747zM183.088 139.44l-7.604-8.794c4.698-.501 6.648-3.649 6.617-7.087 0-3.759-2.608-7.189-7.831-7.189h-8.497v23.07h2.867v-8.684h3.312l7.51 8.684h3.626zm-14.448-20.501h5.646c3.328 0 4.98 2.349 4.941 4.698 0 2.608-1.613 4.566-5.074 4.566h-5.482l-.031-9.264zM41.825 139.44l-7.6039-8.794c4.7456-.501 6.6485-3.649 6.6172-7.087 0-3.759-2.6077-7.189-7.831-7.189h-8.4966v23.07h2.8975v-8.684h3.3047l7.5098 8.684h3.6023zm-14.4168-20.501h5.6383c3.3281 0 4.9805 2.349 4.9492 4.698 0 2.608-1.6211 4.566-5.0745 4.566h-5.513v-9.264zM227.435 118.68c.023-.435.173-.855.432-1.206.258-.351.614-.619 1.024-.77.409-.151.854-.179 1.279-.08.424.099.811.32 1.111.637.301.316.502.713.579 1.143.077.429.027.872-.145 1.273-.172.401-.458.743-.822.983-.364.24-.79.369-1.226.37-.305.003-.606-.056-.887-.174-.28-.118-.533-.293-.743-.514-.209-.22-.371-.482-.475-.768-.103-.286-.147-.59-.127-.894zm4.095 0c-.017-.364-.14-.716-.355-1.011-.215-.295-.511-.52-.853-.648-.342-.128-.713-.153-1.069-.071-.356.081-.68.265-.932.529-.252.263-.421.595-.486.954s-.024.73.119 1.065c.144.336.382.622.687.823.304.201.661.309 1.026.309.253.005.505-.043.739-.14.234-.098.445-.243.62-.426s.311-.401.397-.639c.087-.238.124-.492.107-.745zm-2.67-1.237h.854c.189-.029.381.018.536.131.154.113.257.283.286.472.029.189-.018.382-.131.536-.114.154-.283.257-.472.286l.783 1.104h-.368l-.783-1.08h-.361v1.08h-.352l.008-2.529zm.854 1.128c.056.008.114.003.169-.014.055-.017.105-.046.147-.085.043-.039.075-.087.096-.14.021-.054.03-.111.026-.169 0-.25-.149-.399-.438-.399h-.502v.783l.502.024z" />
</svg>
