<svg viewBox="0 0 138 15" fill="currentColor"><defs/><path d="M77.865 4.54h1.524v5.92h1V4.54h1.505v-1h-4.029v1z"/><path fill-rule="evenodd" d="M72.879 1a1 1 0 011-1h12a1 1 0 011 1v12a1 1 0 01-1 1h-12a1 1 0 01-1-1V1zm1 0h12v12h-12V1zM49.667 11.5V1.448l-.924.168v3.5c-.462-.21-1.05-.336-1.722-.336-1.61 0-3.024 1.176-3.024 3.598 0 2.226 1.218 3.262 2.674 3.262.966 0 1.624-.504 2.128-1.106l.168.966h.7zm-.924-1.876c-.588.714-1.204 1.19-1.988 1.19-1.05 0-1.82-.868-1.82-2.478 0-1.862.924-2.758 2.114-2.758.686 0 1.176.126 1.694.392v3.654zM4.432 1.84c1.974 0 3.178.98 3.178 2.716 0 1.904-1.414 2.87-3.388 2.87H3.018V11.5h-.966V1.84h2.38zm-.168 4.732c1.47 0 2.366-.644 2.366-1.988 0-1.246-.784-1.89-2.254-1.89H3.018v3.878h1.246zM11.445 4.738c1.722 0 3.01 1.26 3.01 3.458 0 2.184-1.316 3.444-3.01 3.444-1.694 0-2.968-1.26-2.968-3.444 0-2.198 1.302-3.458 2.968-3.458zm0 6.118c1.246 0 2.058-1.008 2.058-2.66 0-1.624-.812-2.674-2.058-2.674-1.232 0-2.03 1.008-2.03 2.674 0 1.61.826 2.66 2.03 2.66z"/><path d="M24.726 4.878h-.938l-1.638 5.446-1.666-5.474h-.798l-1.652 5.474-1.708-5.558-.896.168 2.198 6.622h.798l1.638-5.432 1.652 5.432h.812l2.198-6.678z"/><path fill-rule="evenodd" d="M31.038 9.862l.14.84a3.852 3.852 0 01-2.534.938c-1.736 0-2.982-1.176-2.982-3.458 0-2.128 1.204-3.444 2.842-3.444 1.792 0 2.688 1.484 2.688 3.318v.196h-4.606c.028 1.638.784 2.59 2.114 2.59.882 0 1.652-.392 2.338-.98zm-.798-2.338c-.084-1.19-.672-2.044-1.75-2.044-.966 0-1.694.714-1.876 2.044h3.626z"/><path d="M36.347 5.606l-.154-.868c-1.092.028-1.862.756-2.352 1.498l-.21-1.358h-.686V11.5h.924V7.342c.448-.882 1.386-1.666 2.478-1.736z"/><path fill-rule="evenodd" d="M42.482 9.862l.14.84a3.852 3.852 0 01-2.534.938c-1.736 0-2.982-1.176-2.982-3.458 0-2.128 1.204-3.444 2.842-3.444 1.792 0 2.688 1.484 2.688 3.318v.196H38.03c.028 1.638.784 2.59 2.114 2.59.882 0 1.652-.392 2.338-.98zm-.798-2.338c-.084-1.19-.672-2.044-1.75-2.044-.966 0-1.694.714-1.876 2.044h3.626zM57.952 4.738c1.442 0 2.66 1.05 2.66 3.262 0 2.422-1.386 3.584-3.22 3.584-.924 0-1.666-.182-2.408-.434V1.616l.924-.168v4.298c.476-.518 1.12-1.008 2.044-1.008zm-.518 6.048c1.316 0 2.24-.854 2.24-2.744 0-1.61-.77-2.478-1.82-2.478-.742 0-1.358.462-1.946 1.148v3.808c.42.168.854.266 1.526.266z"/><path d="M67.48 4.878h-.966l-1.946 5.544-2.044-5.628-.91.168 2.506 6.58-.28.686c-.266.728-.602.98-1.176.98-.196 0-.378-.028-.532-.056l.14.826.063.01c.088.014.198.032.343.032.924 0 1.526-.378 1.988-1.652l2.814-7.49zM100.746 1.84l.126.882h-3.164V11.5h-.966V2.722h-3.108V1.84h7.112zM107.32 11.5V6.754c0-1.26-.658-2.016-1.974-2.016-.896 0-1.638.476-2.324 1.078V1.448l-.924.168V11.5h.924V6.712c.728-.714 1.442-1.148 2.142-1.148.84 0 1.232.518 1.232 1.372V11.5h.924zM109.986 1.952a.67.67 0 01.658.672.67.67 0 01-.658.672.681.681 0 01-.672-.672c0-.364.308-.672.672-.672zM110.434 4.878V11.5h-.91V4.878h.91zM116.109 5.606l-.154-.868c-1.092.028-1.862.756-2.352 1.498l-.21-1.358h-.686V11.5h.924V7.342c.448-.882 1.386-1.666 2.478-1.736zM119.468 7.608c1.568.42 2.324.924 2.324 2.1 0 1.204-.938 1.918-2.464 1.918-.882 0-1.806-.28-2.38-.602l.154-.896c.616.392 1.428.714 2.31.714.924 0 1.498-.392 1.498-1.064 0-.658-.392-.952-1.708-1.302-1.47-.378-2.1-.854-2.1-1.946 0-1.036.882-1.792 2.254-1.792.784 0 1.47.182 2.058.448l-.154.882c-.602-.322-1.274-.518-1.932-.518-.91 0-1.344.392-1.344.938 0 .546.364.826 1.484 1.12zM126.503 11.5l-.14-.77c-.154.028-.406.07-.616.07-.714 0-.98-.294-.98-.966V5.662h1.652l-.126-.784h-1.526v-2.45l-.91.154v2.296h-1.022v.784h1.022v4.326c0 1.218.686 1.624 1.722 1.624.392 0 .728-.056.924-.112zM128.716 1.952a.67.67 0 01.658.672.67.67 0 01-.658.672.681.681 0 01-.672-.672c0-.364.308-.672.672-.672zM129.164 4.878V11.5h-.91V4.878h.91z"/><path fill-rule="evenodd" d="M136.547 10.702l-.14-.84c-.686.588-1.456.98-2.338.98-1.33 0-2.086-.952-2.114-2.59h4.606v-.196c0-1.834-.896-3.318-2.688-3.318-1.638 0-2.842 1.316-2.842 3.444 0 2.282 1.246 3.458 2.982 3.458a3.852 3.852 0 002.534-.938zm-2.688-5.222c1.078 0 1.666.854 1.75 2.044h-3.626c.182-1.33.91-2.044 1.876-2.044z"/><path d="M.5 12.855h61v1H.5v-1zM67.5 13H66v1h1.5v-1zM93.5 12.855h44v1h-44v-1z"/></svg>
