<svg width="38" height="12" viewBox="0 0 38 12" fill="none" xmlns="http://www.w3.org/2000/svg"> <g clip-path="url(#clip0)"> <path d="M16.0673 11.8269H13.0637L14.9424 0.210571H17.9459L16.0673 11.8269Z" fill="#00579F"/> <path d="M26.9557 0.494553C26.3633 0.259513 25.4236 0 24.2617 0C21.2955 0 19.2068 1.58171 19.194 3.84309C19.1693 5.51153 20.6895 6.43822 21.8264 6.99453C22.9884 7.56299 23.3835 7.93403 23.3835 8.44074C23.3716 9.21895 22.4445 9.57767 21.5797 9.57767C20.3805 9.57767 19.738 9.39272 18.7615 8.95976L18.366 8.77416L17.9457 11.3818C18.6501 11.7027 19.948 11.9875 21.2955 12C24.4471 12 26.4989 10.4428 26.5232 8.03291C26.5352 6.71054 25.7325 5.69729 24.002 4.86931C22.9515 4.33781 22.3081 3.97942 22.3081 3.43559C22.3204 2.9412 22.8523 2.43482 24.0382 2.43482C25.0146 2.41002 25.7321 2.64473 26.2756 2.87961L26.5472 3.00296L26.9557 0.494553Z" fill="#00579F"/> <path d="M30.9477 7.71164C31.1951 7.0443 32.1469 4.46149 32.1469 4.46149C32.1344 4.48629 32.3938 3.78183 32.5421 3.34936L32.752 4.35029C32.752 4.35029 33.3208 7.13086 33.4443 7.71164C32.9749 7.71164 31.541 7.71164 30.9477 7.71164ZM34.6553 0.210571H32.332C31.6156 0.210571 31.0713 0.420481 30.7621 1.17438L26.3007 11.8267H29.4523C29.4523 11.8267 29.9711 10.393 30.0826 10.0842C30.4284 10.0842 33.4942 10.0842 33.939 10.0842C34.0253 10.492 34.2974 11.8267 34.2974 11.8267H37.0785L34.6553 0.210571Z" fill="#00579F"/> <path d="M10.5549 0.210571L7.61342 8.13179L7.29198 6.52527C6.74815 4.67156 5.0426 2.65755 3.13928 1.65612L5.83362 11.8146H9.00986L13.731 0.210571H10.5549Z" fill="#00579F"/> <path d="M4.88196 0.210571H0.0494386L0 0.445282C3.76967 1.40926 6.26625 3.73288 7.29198 6.52577L6.24145 1.18703C6.06849 0.445118 5.53698 0.235044 4.88196 0.210571Z" fill="#FAA61A"/> </g> <defs> <clipPath id="clip0"> <rect width="37.0785" height="12" fill="white"/> </clipPath> </defs> </svg>
