<svg fill="currentColor" viewBox="0 0 90 13"><path d="M44.484 12.4111c-1.5074.0013-2.9998-.2984-4.3898-.8816-1.3899-.5832-2.6494-1.4381-3.7046-2.51458-1.0703-1.05798-1.9189-2.31875-2.4962-3.70858-.5774-1.38983-.8718-2.88082-.866-4.38577-.0009-.074237.0137-.147841.0429-.216081.0293-.068239.0725-.129603.1269-.180146.0505-.054382.1119-.097584.1801-.12683.0683-.029245.1419-.043886.2161-.042981l21.7925.056604c.0738-.000016.1469.014699.2149.043281.0681.028583.1297.070458.1814.123173.0516.052716.0923.115211.1195.183824.0272.068614.0404.141966.0389.21576.0013 1.507356-.2985 2.999786-.8817 4.389746-.5832 1.38996-1.4381 2.64946-2.5145 3.7046-1.0577 1.05968-2.3142 1.90008-3.6974 2.47318-1.3831.5731-2.8658.8675-4.363.8664zM34.1708 1.48661c.1099 2.56091 1.1811 4.98629 3 6.79246.9512.96745 2.0861 1.73513 3.338 2.25813 1.252.5229 2.5958.7905 3.9525.7872 1.3598.0007 2.7062-.2681 3.9614-.7908 1.2553-.5227 2.3945-1.28894 3.3519-2.25453 1.8078-1.79287 2.885-4.19347 3.0226-6.73586l-20.6264-.0566z"/><path d="M44.4855 10.1696c-2.448-.006-4.7936-.98346-6.5214-2.71767-1.7279-1.73422-2.6967-4.08335-2.6937-6.531399.0029-.149216.0635-.291512.169-.397043.1055-.105531.2478-.166098.397-.168996h17.2982c.1501 0 .2941.059636.4002.165789.1062.106153.1658.250127.1658.40025.003 1.212579-.2331 2.413859-.6947 3.535139-.4617 1.12128-1.1398 2.14056-1.9956 2.99957-.8559.859-1.8727 1.54087-2.9922 2.00663-1.1196.46575-2.32.70623-3.5326.70773zm-8.0604-8.68303c.1401 2.03945 1.0467 3.95037 2.5376 5.34894 1.491 1.39857 3.4559 2.1812 5.5002 2.19069 2.052.00195 4.0282-.77557 5.5288-2.17528 1.5006-1.3997 2.4136-3.31711 2.5542-5.36435H36.4251z"/><path d="M44.4608 10.1698c-.1502-.0058-.2926-.0688-.3978-.17617-.1053-.10735-.1655-.25091-.1683-.40123V1.02258c.0029-.149214.0635-.29151.169-.397041.1056-.105531.2479-.166098.3971-.168996.1501 0 .2941.059636.4002.165789.1062.106153.1658.250127.1658.400248v8.58114c0 .15013-.0596.2941-.1658.40028-.1061.1061-.2501.1658-.4002.1658z"/><path d="M50.5278 7.66797c-.0741-.00043-.1473-.01568-.2153-.04484-.0681-.02916-.1296-.07166-.181-.12497l-6.0452-6.01133c-.0531-.05262-.0952-.11522-.1239-.1842-.0288-.06898-.0436-.14296-.0436-.21768 0-.07473.0148-.148713.0436-.21769.0287-.068977.0708-.131581.1239-.184202.0526-.053054.1152-.095164.1842-.123901.0689-.028737.1429-.043532.2176-.043532.0748 0 .1488.014795.2177.043532.069.028737.1316.070847.1842.123901l6.0566 6.022652c.0783.0798.1311.18098.1519.29078.0209.1098.0087.2233-.0349.3262-.0435.10291-.1166.19061-.21.25206-.0933.06144-.2028.09388-.3145.09322h-.0113z"/><path d="M38.3935 7.65661c-.074-.00043-.1472-.01567-.2153-.04484-.068-.02916-.1295-.07165-.1809-.12497-.0531-.05262-.0952-.11522-.1239-.1842-.0287-.06898-.0435-.14296-.0435-.21768 0-.07473.0148-.14871.0435-.21769.0287-.06898.0708-.13158.1239-.1842L44.0879.626418c.0526-.053054.1152-.095164.1842-.123901.0689-.028737.1429-.043533.2177-.043533.0747 0 .1487.014796.2176.043533.069.028737.1316.070847.1842.123901.0531.05262.0952.115225.1239.184202.0288.068977.0436.142961.0436.21768 0 .07473-.0148.14871-.0436.21769-.0287.06898-.0708.13158-.1239.1842L38.8011 7.4868c-.108.10837-.2546.16944-.4076.16981zm51.1225-.50956c-.1029-.00081-.2037-.02971-.2915-.08357-.0878-.05386-.1592-.13065-.2066-.22209-.2658-.49549-.6298-.93168-1.0696-1.28201-.4399-.35032-.9464-.60745-1.4889-.75572-2.6684-.99173-5.5688-1.18062-8.3434-.5434-1.1498.29069-2.2835.64213-3.3962 1.05283-1.3553.51362-2.7481.92237-4.166 1.22264-1.4199.33746-2.9043.28751-4.2982-.14461-1.394-.43213-2.6464-1.23059-3.6264-2.31199-.053-.05262-.0951-.11523-.1239-.18421-.0287-.06897-.0435-.14296-.0435-.21768 0-.07472.0148-.14871.0435-.21769.0288-.06897.0709-.13158.1239-.1842.0526-.05305.1153-.09516.1842-.1239.069-.02874.143-.04353.2177-.04353.0747 0 .1487.01479.2177.04353s.1316.07085.1842.1239c.8438.94181 1.9286 1.63559 3.1374 2.00663 1.2089.37104 2.4961.40528 3.723.09903 1.3573-.28186 2.6928-.66017 3.9962-1.13207 1.1524-.44044 2.3277-.81835 3.5208-1.13208 2.9732-.67948 6.0796-.48287 8.9434.56604.6776.19533 1.3087.52569 1.8554.9712.5467.44552.9976.99699 1.3257 1.62126.0348.06588.056.1381.0623.21234.0062.07425-.0025.149-.0258.21979-.0232.07079-.0605.13617-.1095.19224-.0491.05607-.109.10169-.176.13412-.0486.04856-.1063.08704-.1699.1132zm-88.9455 0c-.095143-.01451-.184875-.05352-.260377-.1132-.133316-.06786-.2343494-.18574-.281018-.32786-.0466687-.14213-.03517797-.29695.0319608-.43063C.39227 5.6534.844213 5.10377 1.39044 4.65862c.54623-.44514 1.17576-.77686 1.85176-.97572 2.86381-1.04891 5.97021-1.24552 8.9434-.56604 1.1988.30688 2.3783.68491 3.5321 1.13208 1.3012.47877 2.6372.85724 3.9962 1.13207 1.2259.30634 2.5121.27326 3.7207-.09569 1.2085-.36895 2.2939-1.05985 3.1397-1.99865.0454-.06654.1044-.12263.1732-.16453.0687-.04191.1457-.06866.2256-.07846.0799-.00981.161-.00245.2379.02159.0768.02404.1477.0642.2078.1178.0601.0536.108.11941.1407.19303.0326.07362.0492.15335.0485.23388-.0006.08053-.0184.15999-.0522.23309-.0338.07309-.0828.13813-.1438.19077-.978 1.0844-2.2298 1.8857-3.624 2.31992-1.3943.43421-2.8797.48533-4.3005.14801-1.4187-.2972-2.8117-.70602-4.166-1.22264-1.1116-.41388-2.2455-.76537-3.3963-1.05283-2.76153-.63769-5.64908-.45672-8.30941.52075-.52718.15945-1.01763.42158-1.44312.77129-.42549.34972-.77762.78012-1.03613 1.26645-.04327.11293-.12158.20903-.223441.27423-.101862.06519-.221926.09604-.342599.08803z"/></svg>