<svg fill="currentColor" viewBox="0 0 83 79">
  <path d="M81.8431 53.89c-.24-.12-5.9-2.89-11.32-.36-2.52 1.18-4 4.48-4.73 6.28-.3471.1836-.6812.3907-1 .62-1.0608-1.1426-2.3003-2.1051-3.67-2.85 1.7276-.9538 3.0294-2.5268 3.6432-4.4023.6138-1.8754.494-3.9138-.3354-5.7044-.8293-1.7905-2.3065-3.2002-4.1339-3.945-1.8274-.7447-3.8692-.7691-5.7139-.0683-.22.09-.43.18-.64.29.1732-1.3259.2268-2.6646.16-4v-.47h-.49c-3.0837.0738-6.0304 1.2888-8.27 3.41-1.0535-1.6588-2.3362-3.1603-3.81-4.46l-.35-.3-.33.33c-.16.16-3.94 4-3.34 9.13.0285.2021.0685.4025.12.6l-2.92 1.23v3.36l-1-.49-1.89.76V42.6h-7.29l.15-.52-4.7-2.26-.25.3-1.22 1.45c-.1132-.1849-.2474-.356-.4-.51-.0929-.0852-.1737-.1828-.24-.29-.0519-.2906-.1718-.5647-.35-.8-.0495-.171-.0895-.3446-.12-.52l-.08-.45c-.0992-.7668-.3292-1.511-.68-2.2-.3408-.5171-.782-.9605-1.2973-1.304-.5153-.3436-1.0943-.5802-1.7027-.696-.1948-.519-.1948-1.091 0-1.61.0351-.1072.0351-.2228 0-.33.153-.1841.2839-.3855.39-.6.0955-.2016.1692-.4128.22-.63l.08-.05c.3604-.4074.5933-.9115.67-1.45l2.29.05c.0652.0013.13-.0104.1906-.0344.0606-.024.1158-.0599.1624-.1055.0466-.0457.0835-.1001.1088-.1603.0252-.0601.0382-.1246.0382-.1898.0027-.1309-.046-.2577-.1358-.3531-.0897-.0954-.2133-.1517-.3442-.1569l-2.33-.05c-.021-.1642-.0613-.3253-.12-.48l2.39-1.11c.0597-.0269.1134-.0655.158-.1134.0445-.048.079-.1044.1013-.166.0224-.0615.0322-.1269.0289-.1922-.0033-.0654-.0197-.1295-.0482-.1884-.0545-.1205-.1546-.2145-.2783-.2613-.1237-.0469-.261-.0428-.3817.0113l-2.47 1.15c-.1243-.1609-.265-.3084-.42-.44l1.65-2.64c.0348-.0558.0583-.1179.0691-.1828.0108-.0649.0087-.1313-.0062-.1954-.0148-.064-.0422-.1245-.0804-.1781-.0383-.0535-.0867-.0989-.1425-.1337-.1127-.0703-.2487-.0929-.3781-.0629s-.2416.1102-.3119.2229l-1.63 2.7c-.189-.0875-.3868-.1545-.59-.2h-.13c.06-.43.08-1 .1-1.55.02-.55.05-1.07.1-1.46.0086-.0657.0041-.1324-.0132-.1963-.0172-.0639-.0469-.1238-.0873-.1763-.0404-.0525-.0907-.0965-.1481-.1295-.0574-.033-.1207-.0544-.1864-.0629-.0656-.0085-.1323-.0041-.1963.0132-.0639.0172-.1238.0469-.1763.0873-.0524.0404-.0964.0907-.1294.1481-.0331.0574-.0544.1207-.063.1864-.06.42-.08 1-.11 1.55s0 1.07-.09 1.46c-.01.0529-.01.1071 0 .16-.1687.012-.336.0387-.5.08l-1.61997-2.54c-.03289-.0613-.07821-.1151-.13306-.1579-.05485-.0428-.11803-.0737-.1855-.0906-.06746-.017-.13773-.0197-.2063-.008-.06858.0117-.13395.0376-.19195.076-.05799.0385-.10733.0886-.14485.1472-.03752.0585-.06241.1243-.07306.1931-.01065.0687-.00684.1389.01119.2061.01803.0672.04988.1299.09353.1841l1.54999 2.34-.14999.09c-.03989-.0043-.08012-.0043-.12 0l-2.12-.37c-.04617-.0097-.09384-.0097-.14 0 0-.2-.03-.41-.09-.63-.30704-1.725-.49416-3.4692-.56-5.22 0-.42.04999-.82.08-1.2.24442-1.1449.0518-2.3399-.54-3.35h.09999c1.15001-.08 1.26001-2.16 1.26001-3.05-.00088-.1208-.04457-.2373-.12332-.3289-.07874-.0915-.18742-.1522-.30668-.1711-.2 0-.64 0-1.2-.05.10264-.0761.19655-.1633.28-.26.22523-.322.37692-.6895.44432-1.0766.06739-.3871.04885-.7843-.05432-1.1634-.37033-1.23429-.90156-2.41443-1.58-3.51001-.04055-.06874-.09728-.12654-.16524-.16836-.06797-.04183-.14513-.06642-.22476-.07164-.07963-.00919-.16027.00259-.23394.03416-.07367.03157-.13781.08184-.18606.14584-2.31 2.89-2.05 4.63001-1.65001 5.41001.12465.2543.30189.4793.52.66H1.82313c-.07192-.004-.14385.0074-.21107.0332-.06722.0259-.12821.0657-.17893.1168-.08946.0986-.13932.2268-.14001.36.0227.3897.0227.7803 0 1.17-.06343.2473-.07664.5048-.03886.7573.03779.2525.12581.4948.25887.7127.13497.164.30674.2939.50135.379.19461.0852.40657.1232.61864.111h.36c.14055 1.7234.40456 3.4344.79 5.12.17163 1.2254.24187 2.463.21 3.7 0 1.13.00001 2.2.10001 2.81 0 .35.06.84.08 1.36-.07259.0279-.13765.0725-.19001.13-.82259.9656-1.30717 2.1736-1.38 3.44-.06365.3939-.01375.7979.14387 1.1645.15763.3666.41644.6807.74613.9055.0971.0545.20149.0949.31.12-.15506.1961-.25756.4284-.2978.6752-.04025.2467-.01691.4996.0678.7348.08677.1827.20527.3486.35001.49.0482.0456.09174.0958.12999.15.14148.2816.20698.5953.19.91.03075.2423.03075.4876 0 .73-.02217.0781-.04888.1549-.07999.23-.05267.1641-.09607.331-.13001.5-.02688.6589.20661 1.3019.65001 1.79l.03.15c.2631.2844.45502.6271.56 1 .00634.4986-.14024.9872-.42 1.4l-.12.2c-.47554.8763-.81285 1.8207-1.00001 2.8-.0715.2414-.08151.4968-.02912.7431.0524.2463.16554.4755.32912.6669.18714.1604.41005.2736.65001.33.08724.0226.17125.0562.25.1.07.06.1.3-.07.77l-.64001 1.89c-.16725.5086-.13872 1.0613.08 1.55.59746 1.8438.80186 3.7923.60001 5.72-.13308 1.0085-.31664 2.0098-.55 3-.1.43-.19001.85-.28001 1.28-.31 1.56-.51999 3.16-.71999 4.75-.13982.6997-.13982 1.4202 0 2.12 0 .11.07.22.09999.32.07684.1768.11763.3672.12.56 0 .3-.33.58-.65999.87l-.15001.14c-1.34 1.24-1.999995 4.49-2.059995 6 .000684.1331.050543.2614.14.36.046168.0488.102066.0874.164075.1132.06202.0258.12876.0384.19592.0368H46.2031c.1326 0 .2598-.0527.3536-.1465.0937-.0937.1464-.2209.1464-.3535l-.12-22.08.41-.23c2.88.81 6.2 2.81 7.07 5.51.0273.0592.0645.1133.11.16-1.8926.7096-3.4765 2.0603-4.4762 3.8171-.9996 1.7567-1.3517 3.8084-.9949 5.7979.3568 1.9896 1.3998 3.7911 2.9475 5.091 1.5478 1.3 3.5024 2.0162 5.5236 2.024 1.0707-.0031 2.1317-.2031 3.13-.59 1.8109-.6999 3.3305-1.9938 4.31-3.67 1.3591 1.0163 3.0033 1.5796 4.7 1.61h.13c1.4859.0024 2.9439-.4029 4.2153-1.1718 1.2714-.7689 2.3075-1.8719 2.9954-3.1889s1.0012-2.7975.9059-4.2803c-.0953-1.4827-.5957-2.9109-1.4466-4.129 3.46-2 5.84-7.66 5.94-7.92l.18-.43-.39-.25zm-10.89.55c3.85-1.8 8-.62 9.66 0l-9.9 4.62c-.3683-.0443-.7391-.0643-1.11-.06-.8499-.0296-1.6986.0854-2.51.34.73-1.75 2.01-4.04 3.86-4.9zm-16-10c1.2537-.4832 2.6223-.5848 3.9336-.292 1.3113.2929 2.5066.967 3.4356 1.9377.929.9707 1.5501 2.1945 1.7851 3.5173.235 1.3229.0735 2.6857-.4643 3.917-.3624.8175-.8823 1.5555-1.53 2.1721-.6477.6165-1.4105 1.0995-2.2449 1.4212-.8343.3218-1.7238.4761-2.6178.454-.8939-.022-1.7748-.2199-2.5923-.5823-.8175-.3625-1.5555-.8824-2.1721-1.5301-.6165-.6477-1.0995-1.4105-1.4212-2.2448-.3218-.8343-.4761-1.7239-.454-2.6178.022-.894.2199-1.7748.5823-2.5923.3587-.8182.8755-1.5574 1.5208-2.1752.6452-.6179 1.4062-1.1021 2.2392-1.4248v.04zm-8.12 10h-.22v-3.07c1.0347-.1532 2.0439-.4459 3-.87-.0375.9612.1049 1.9211.42 2.83-1.1286.1046-2.2123.4933-3.15 1.13l-.05-.02zm3.44-6.78c-.2302.5295-.4013 1.0829-.51 1.65-.9915.5127-2.0638.8509-3.17 1v-.7l6.54-8.19c-.0199 1.0059-.1169 2.0089-.29 3-1.1241.8084-2.0115 1.903-2.57 3.17v.07zm2.44-7.35l-6.55 8.2c.2829-.8635.395-1.7737.33-2.68-.0749-.7807-.2953-1.5405-.65-2.24 1.8302-1.8711 4.2643-3.0332 6.87-3.28zm-7.21 5.6c.049.9211-.101 1.842-.44 2.7l-2.12-.91-.9-7.63c1.31 1.35 3.29 3.73 3.46 5.84zm-7 1.32c-.1729-2.763.714-5.488 2.48-7.62l.9 7.64-1.33-.57-2 .86c-.0224-.1023-.0391-.2058-.05-.31zm-2.79 2.64l4.81-2.1 5 2.16.19 27.35h-6.29l-.15-22.39-3.56-1.8v-3.22zm2.53 5.64l.15 21.77h-10v-22l5.32-2.1 4.53 2.33zm-7.37-11.91v9.62h.05l-3.49 1.4v22.66h-6.09V47.7l.17-.07c.0797.0096.1603.0096.24 0h.11c.1814-.0363.3502-.119.49-.24h.74v-.85c.21-.33.35-.62.37-.65-.0037-.0299-.0037-.0601 0-.09l.14-.23.58-2 6.69.03zM8.98313 30.75c-.09864-.0115-.19849.006-.28731.0504-.08882.0444-.16274.1138-.21269.1996.05135-.267.07813-.5381.08-.81.04156.1169.0917.2305.15.34.02824.0516.06677.0969.11322.133.04644.0361.0998.0623.15678.077v.01zm1.19997 2.48c-.2329-.6396-.32831-1.3211-.27998-2 .06188-.6385.34898-1.234.80998-1.68.2081-.2034.4623-.3533.741-.4369.2786-.0836.5734-.0984.859-.0431.2072.0564.3991.1584.5617.2985.1627.1402.2919.3149.3783.5115.1317.3191.1935.6626.1814 1.0076-.012.3449-.0978.6833-.2514.9924-.1476.3372-.3914.6234-.7009.8226-.3096.1992-.671.3027-1.0391.2974-.1317.0052-.2564.0612-.3477.1563-.0914.095-.1424.2218-.1423.3537.0026.1309.0565.2555.15.3471.0934.0916.2191.1429.35.1429.367.0008.7306-.0706 1.07-.21-.026.4548.0386.9103.19 1.34-.5205.0323-1.0352-.1239-1.45-.44-.3929-.3233-.7307-.7083-1-1.14.0103-.1127-.0179-.2255-.08-.32zm4.27 31.1c.1564-.1892.2376-.4293.2284-.6745-.0092-.2453-.1083-.4786-.2784-.6555-.0843-.0729-.1786-.1335-.28-.18l-.08-.08c-.0175-.1752.0325-.3505.14-.49.2786-.2881.6179-.5104.9934-.6505.3754-.1402.7774-.1947 1.1766-.1595.2967-.0033.5906.0576.8615.1784.271.1208.5127.2987.7085.5216-.0421.073-.0643.1557-.0643.24 0 .0842.0222.167.0643.24.282.6971.3617 1.4596.23 2.2-.05.37-.12.74-.19 1.11-.07.37-.25.9-.25 1.37-.0751.855-.0751 1.715 0 2.57l.15 2.54c-.0078.0932-.0078.1868 0 .28-2.349-.3186-4.7215-.4291-7.09-.33l-5.99997.1h.12c.58603-.1521 1.09955-.5063 1.45-1 .15405-.2478.27825-.513.37-.79l.09-.26c.34839-.768.86032-1.4505 1.5-2 1.56823-1.4935 3.39007-2.6956 5.37997-3.55.2974-.1086.5624-.291.77-.53zm4.8-2.39c.2584-.1363.468-.3494.6-.61.0489-.0403.0884-.0906.116-.1476.0277-.0569.0427-.1191.044-.1824.0267-3.1381-.2142-6.2728-.72-9.37-.09-.45-.19-.91-.29-1.36h.1l.36.48.88-1.41v25.85l-.16-.19c-.0789-.0532-.1468-.1211-.2-.2-.0373-.1545-.0373-.3156 0-.47v-.16c.075-.2559.0627-.5295-.0351-.7776s-.2754-.4565-.5049-.5924c-.1395-.0723-.293-.1132-.45-.12h-.11s0-.08-.07-.36l-.1-2.51c-.06-.8022-.06-1.6078 0-2.41.0448-.437.1149-.8711.21-1.3.07-.39.15-.78.2-1.18.15-.8858.0532-1.7957-.28-2.63.1131-.1418.2523-.2606.41-.35zm3.53-17.53c.0483.3418-.0075.6903-.16 1l-.57.91-.23.1c-.056-.2154-.1509-.4187-.28-.6-.13-.18-.25-.34.24-.9.0834-.1152.1539-.2393.21-.37.11-.2386.2476-.4635.41-.67.0983.0551.1832.1312.2489.2228.0657.0915.1104.1964.1311.3072zm.57-1.86l-.35.53c-.183-.1261-.3911-.2114-.61-.25-.0788-.0195-.1612-.0195-.24 0-.55.19-.86.82-1.07 1.23-.0174.0525-.0409.1029-.07.15-.69.79-.78 1.49-.27 2.16.0304.0535.054.1106.07.17l-1.44 2.46-.87-1.15c-.1326-.661-.2294-1.3286-.29-2 .07-.78.14-1.51.2-2l1.88-2.78.66.32 2.4 1.16zm-7.58-5.22c.2977.5845.4874 1.218.56 1.87l.09.45c.0882.521.2605 1.0242.51 1.49.09.49.15 1.15.18 1.44-.0074.1366-.0074.2734 0 .41.0302.3827.0302.7672 0 1.15v1.72c0 .42-.08 1-.12 1.57v.19l.5.66c.11.58.23 1.16.36 1.73.13.57.27 1.2.39 1.8.4695 2.8661.7036 5.7657.7 8.67-.0481.0652-.0795.1412-.0917.2213-.0122.0802-.0048.1621.0217.2387l-.16.16-.21.14c-.5839-.5212-1.3373-.8126-2.12-.82-.7514-.026-1.4964.1465-2.16.5.3214-2.6873.4284-5.3958.32-8.1v-4.19c0-1.38 0-3-.1-4.48-.2044-2.5296-.1407-5.0738.19-7.59.0163-.1136-.0048-.2294-.06-.33.492.2516.9067.6317 1.2 1.1zm-1.84-8.33c.0327.0907.0562.1845.07.28-.1564-.2815-.3682-.5285-.6225-.7261-.2544-.1977-.546-.3418-.8575-.4239-.4491-.1006-.9162-.0864-1.3584.0411-.4422.1276-.8451.3645-1.17158.6889-.20848.2-.38699.429-.52999.68-.00462-.1523.01565-.3043.06-.45.14-.3566.3795-.6656.68997-.89.2909-.2347.6296-.4029.9924-.4927.3628-.0899.7409-.0992 1.1076-.0273.3567.0726.6904.2306.9726.4605.2821.2299.5043.5248.6474.8595zm-4.99997-.91c-.11231.1481-.20633.3093-.28.48-.18975-.0035-.37883.0235-.56.08-.09801-.1497-.22774-.276-.38-.37v-.45l1.22.26zm-1.36 2.04c-.02657.8381-.28073 1.6532-.73523 2.3578-.45451.7047-1.09222 1.2724-1.84477 1.6422-.08231.0462-.16952.0831-.26.11h-.02c-.09455-.0497-.17353-.1246-.22823-.2164-.0547-.0917-.083-.1968-.08177-.3036.00152-.2939.05571-.5852.15999-.86l.15001.14c.10758.078.23709.12.37.12h.19c.71-.23 1.86-1.97 2.3-2.99zm-1.73-7.4v-.06c.11 1.11.31 2.44.49 3.67.192 1.0343.31892 2.0797.38 3.13-.34968.8809-.84678 1.6959-1.47 2.41-.07-.52-.09-1.39-.1-2-.01001-.61 0-1.4-.1-1.88s-.08-1.6-.09001-2.7v-2.24h.11001c.29229-.0078.57088-.1256.78-.33zm.07-3.22c-.20445.2958-.32535.6413-.35 1v.33c-.00461.1913-.02467.3819-.06.57-.05048.2296-.16896.4387-.34.6v.05c-.02716-.0619-.05054-.1253-.07-.19-.0378-.1139-.11608-.21-.22-.27 0-.09 0-.19-.06-.26-.35857-1.5913-.60914-3.205-.75001-4.83h1.00001c.96.83.96 1.72.85 3zm-1.2-11.51001c.46823.80475.83438 1.66471 1.09 2.56001.06924.2406.08722.4932.05277.7412-.03445.2481-.12056.4861-.25277.6988-.15888.1521-.35071.2656-.56057.3315-.20987.0659-.43211.0825-.64943.0485-.17679-.0075-.34756-.0663-.49142-.1693-.14387-.103-.25458-.2458-.31859-.4107-.16-.36-.48999-1.56 1.13001-3.80001zM2.71312 15.52c-.06288.0109-.12746.0066-.18835-.0125-.06089-.0192-.11631-.0526-.16165-.0975-.09863-.2096-.11644-.4481-.04999-.67 0 0 0-.33.04999-.88h4.42001c.01272.5568-.10725 1.1087-.35 1.61H3.81312l-1.1.05zm2.41001 24.85c.71128-.1585 1.35487-.5362 1.84-1.08 1.05824-1.1869 1.67612-2.7016 1.75-4.29.00001-.0652-.01299-.1298-.03824-.1899-.02524-.0601-.06223-.1145-.1088-.1602-.04656-.0456-.10177-.0815-.16238-.1055-.06061-.0241-.1254-.0357-.19058-.0344-.12939.0048-.25234.0576-.34481.1482-.09247.0907-.14781.2125-.15519.3418-.07117 1.3275-.5812 2.5938-1.45 3.6-.29342.332-.66949.5804-1.09.72.00426-.0499.00426-.1001 0-.15.06416-.3292.08433-.6655.06-1 .0206-.5167-.11158-1.028-.38-1.47-.06453-.0878-.13467-.1713-.21-.25-.06361-.0578-.11762-.1253-.16001-.2 0-.08.00001-.28.37001-.75.07284-.0874.11499-.1963.12-.31.14 0 .28999-.09.44-.16 1.21157-.5921 2.16987-1.6001 2.7-2.84l.1.09.62 1c.44579.8499 1.05393 1.6041 1.78997 2.22.4929.3647 1.0787.5831 1.69.63-.45.36-.89.73-1.31 1.1-.94.82-1.81997 1.64-2.70997 2.47-.73.68-1.47 1.37-2.24 2-.15396-.2471-.32788-.4812-.52-.7l-.09-.12c-.12213-.1598-.22925-.3305-.32-.51zm-.11 7.44c-.08662-.0245-.17042-.058-.25-.1 0 0-.05-.11-.05-.51.1598-.8763.45322-1.7228.87-2.51l.11-.2c.30504-.4924.49952-1.0451.57-1.62.93-.81 1.8-1.63 2.67-2.44.87-.81 1.77997-1.64 2.77997-2.43.56-.5 1.15-1 1.75-1.47-.3614 1.4456-1.0761 2.7788-2.08 3.88-.61.72-1.29 1.4-1.94997 2.07-.66.67-1.08 1.08-1.59 1.65-1.05236 1.1038-1.88095 2.4011-2.44 3.82l-.39-.14zm-.66 20.07c.19-1.53.4-3.11.7-4.63l.27-1.25c.25142-1.0245.44176-2.063.57-3.11.21749-2.0755-.00049-4.1736-.64-6.16-.15-.46-.19-.6-.09-.88l.68-1.85c.09304-.2714.1502-.5538.17-.84.03026-.0489.05064-.1033.06-.16.46306-1.5777 1.308-3.0168 2.46-4.19.51-.56.99999-1.09 1.55997-1.62.56-.53 1.37-1.38 2-2.13.4802-.5695.9117-1.1783 1.29-1.82-.07 1.65 0 3.33.07 5s.13 3 .09 4.4c-.04 1.4 0 2.84 0 4.23.1743 3.2025-.0271 6.4143-.6 9.57-.0185.0752-.0181.1538.0011.2288.0192.075.0566.1441.1089.2012v.07c.0256.1442.0805.2816.1614.4038.0808.1221.1859.2263.3086.3062l.15.09c-.119.1143-.2627.1998-.42.25-2.0936.8965-4.01039 2.1596-5.65997 3.73-.75294.6494-1.35091 1.4592-1.75 2.37l-.11.3c-.0528.1924-.1301.3773-.23.55-.21274.2877-.52131.4898-.87.57h-.26c.1112-.1904.18264-.4013.20999-.62.01462-.3416-.04332-.6824-.16999-1-.03125-.0886-.05795-.1787-.08001-.27-.10764-.5757-.10084-1.167.02001-1.74zm-1.55001 5.61l7.99998-.13c2.7573-.1549 5.523.0434 8.23.59v.19c-.1034.3631-.0823.7503.06 1.1.1098.2044.2634.382.45.52h.05c.0843.5022.1244 1.0108.12 1.52H1.71312c.15364-1.3145.52186-2.5948 1.09-3.79zM55.0531 60.66c-.88-2.74-3.92-4.82-6.8-5.86.6698-.3716 1.424-.5645 2.19-.56.6485 1.2992 1.648 2.3907 2.8853 3.1508 1.2372.76 2.6627 1.1581 4.1147 1.1492.9014-.0034 1.7951-.1659 2.64-.48.0291.0408.0666.0749.11.1 1.4453.7399 2.754 1.7206 3.87 2.9l-.2.18c-.4332.405-.819.8579-1.15 1.35-.6023-.517-1.2759-.9447-2-1.27-1.7688-.7791-3.748-.9411-5.62-.46.0015-.0688-.0122-.1371-.04-.2zm4.92 15.68c-1.6504.6369-3.4708.6812-5.1503.1255-1.6795-.5557-3.1142-1.677-4.0591-3.1727-.9449-1.4956-1.3414-3.2727-1.122-5.0282.2194-1.7554 1.0412-3.3802 2.3252-4.5973 1.2839-1.217 2.9504-1.9507 4.7151-2.0759 1.7646-.1252 3.518.3659 4.961 1.3894 1.4429 1.0235 2.4859 2.5161 2.951 4.2229.465 1.7069.3234 3.5222-.4009 5.1363-.8217 1.8393-2.3393 3.2778-4.22 4zm9.39-2.13c-1.5444-.0207-3.0387-.5516-4.25-1.51.6838-1.5597.892-3.2866.5985-4.9641-.2935-1.6775-1.0757-3.2311-2.2485-4.4659.2826-.4732.6181-.9127 1-1.31 1.3382-1.2992 3.135-2.018 5-2h.12c.9364.0151 1.8605.2145 2.7198.5867.8593.3723 1.6368.9102 2.2882 1.5829.6514.6728 1.1639 1.4673 1.5083 2.3381.3444.8708.5138 1.801.4987 2.7373-.0151.9363-.2144 1.8605-.5867 2.7198-.3723.8592-.9102 1.6368-1.5829 2.2882-.6728.6514-1.4672 1.1639-2.3381 1.5083-.8708.3443-1.8009.5138-2.7373.4987l.01-.01zm6.16-12.55c-.07-.08-.13-.16-.21-.24-.837-.8836-1.8624-1.5672-3-2l8.19-3.82c-.98 1.85-2.79 4.86-4.98 6.06z"/>
  <path d="M72.0532 68.6c-.3771.2565-.6507.6388-.7716 1.0786-.1209.4397-.0814.9082.1116 1.3214.0392.0857.1028.158.1829.2078.08.0497.1729.0749.2671.0722.0728.0129.1472.0129.22 0 .1178-.0599.207-.1641.2482-.2896.0413-.1255.0311-.2623-.0282-.3804-.0738-.197-.0835-.4123-.0278-.6151.0556-.2029.1738-.3831.3378-.5149.1741-.1052.3779-.1505.5802-.1288.2023.0216.3919.1091.5398.2488.0394.0525.0888.0968.1453.1303.0565.0334.119.0554.184.0647.065.0093.1312.0057.1948-.0106.0636-.0163.1234-.045.1759-.0844.0525-.0394.0968-.0887.1302-.1452.0335-.0565.0555-.1191.0648-.1841.0093-.065.0057-.1312-.0106-.1948-.0163-.0636-.045-.1234-.0844-.1759-.2942-.3501-.7043-.5831-1.1558-.6565-.4514-.0734-.9142.0176-1.3042.2565zM32.8335 4.83l.63-.92c.1201-.21605.3161-.37992.55-.46.1937-.05952.384-.12963.57-.21l.69-.24-1.07-1.3c0-.32-.06-.58-.08-.85-.0015-.285139-.0283-.569584-.08-.85l-1.09.47c-.1143.060742-.2407.094924-.37.1-.45-.06-.87-.15-1.35-.23h-.18c0 .3.06.58.09.85.0621.192.0717.39714.0277.5941-.0439.19696-.1398.37855-.2777.5259l-.58.93 1.4.43 1.12 1.16zM51.553 18.22l.25-.19c.29-.24.58-.49.88-.72.1105-.0856.2415-.1408.38-.16h1.06c.0831.0095.1669.0095.25 0 0-.1-.06-.18-.09-.26l-.42-1.09c-.0297-.1114-.0297-.2286 0-.34.0415-.1942.0983-.3848.17-.57l.24-.9c-.408.0004-.8155.0271-1.22.08-.1568.03-.3185.0221-.4716-.0231-.1531-.0452-.2931-.1265-.4084-.2369-.25-.2-.53-.37-.83-.57l-.47 1.6-1.29.93 1.4.89c.17.52.36 1.03.57 1.56zM49.4934 28.65l1.15-1c.6-.1 1.14-.07 1.68-.19-.17-.39-.32-.76-.49-1.12-.0801-.1989-.0801-.4211 0-.62.08-.31.19-.6.28-.9.006-.1199.006-.2401 0-.36l-1.4.09c-.1439.0124-.288-.0227-.41-.1-.2-.15-.41-.27-.62-.41l-.62-.37c-.07.35-.16.67-.2 1-.0069.1518-.0483.3001-.1211.4335-.0728.1334-.175.2485-.2989.3365-.27.19-.52.42-.78.63l-.18.17 1.39.89c.23.51.43 1.01.62 1.52zM22.4127 15.32c.38.39.58.88 1 1.24l.88-1.38.79-.31c.2523-.0766.4968-.1771.73-.3l-.86-.94c-.0857-.0795-.152-.1777-.1936-.2869-.0417-.1093-.0575-.2267-.0464-.3431v-1.13-.08l-.23.07-1.09.42c-.1024.0192-.2075.0192-.31 0-.1794-.0476-.3563-.1043-.53-.17l-.95-.26c-.05.58.09 1.12.08 1.66-.28.46-.57.92-.88 1.41l1.61.4zM22.363 26.69c.1558.2266.3407.4317.55.61l.87-1.37c.52-.22 1-.37 1.55-.62-.29-.32-.55-.6-.83-.87-.1469-.1234-.2401-.2991-.26-.49 0-.32-.06-.65-.07-1 .0038-.1516-.027-.302-.09-.44l-1.37.59c-.55-.13-1-.33-1.6-.42.05.57.09 1.11.13 1.66l-.87 1.39 1.5.33c.15.2.31.42.49.63zM43.0735 11.84l-.83-.52c-.1354.2861-.2329.5887-.29.9l-.64.53.8.52c.16.24.11.54.34.76l.62-.5c.2963-.007.5911-.0438.88-.11l-.19-.69c0-.39.21-.63.16-1l-.85.11zM29.2236 11.29l.47-.4c.0678-.0638.1482-.1127.236-.1437.0878-.031.1811-.0434.274-.0363.1942-.003.388-.0197.58-.05l-.35-.92999c.1-.23228.1641-.47843.19-.73-.2753-.00857-.5495-.03866-.82-.09-.2706-.09574-.5345-.20933-.79-.34-.08.31-.15.59-.23.88l-.64.54.7.37999.38.92zM16.6232 20.61c.15-.12.28-.22.4-.33.0697-.0641.1518-.1131.2413-.1441.0894-.031.1843-.0432.2787-.0359.2142-.0029.428-.0196.64-.05-.0807-.217-.1776-.4276-.29-.63-.0294-.0626-.0447-.1309-.0447-.2 0-.0691.0153-.1374.0447-.2l.19-.63c-.3059-.0305-.6141-.0305-.92 0l-.72-.52-.24.93-.67.49.72.55c.0926.2703.2168.5288.37.77zM56.0628 24c0 .05.08.08.15.16l.54-.52 1-.09-.37-.78c.06-.26.14-.55.22-.86-.2959-.03-.5941-.03-.89 0l-.73-.5c-.0633.1871-.1167.3773-.16.57-.0128.0931-.0441.1827-.0922.2635-.0481.0807-.112.151-.1878.2065-.15.11-.29.24-.45.37.0644.0632.1347.1201.21.17.3703.2302.6413.5904.76 1.01zM41.963 5.16999l.6-.56.89-.05c.0126-.14685-.0302-.29312-.12-.41-.1248-.20323-.1677-.44631-.12-.68.06-.19.11-.38.18-.61-.26 0-.48 0-.7.05-.0684.01191-.1385.00915-.2057-.00809-.0673-.01724-.1301-.04857-.1843-.09191l-.52-.41c-.0638.15973-.1172.3234-.16.49-.0131.1226-.0531.24081-.117.34624-.064.10542-.1503.19547-.253.26376l-.42.28c.2478.17112.4788.36532.69.58.1726.25507.32.52635.44.81zM35.8735 38.43h.13c.11.0011.2171-.0348.3041-.1019.0871-.0671.149-.1615.1759-.2681 1.38-5.3 3.75-12.07 9.83-17.55.0532-.0427.097-.0958.1289-.156.0319-.0602.0511-.1264.0565-.1943.0054-.0679-.0032-.1363-.0251-.2008-.022-.0645-.0569-.1238-.1027-.1743-.0457-.0506-.1013-.0912-.1633-.1195-.062-.0282-.1292-.0435-.1973-.0449-.0682-.0013-.1359.0113-.199.037-.0631.0258-.1202.0642-.168.1128-6.35 5.71-8.82 13-10.12 18-.0245.0661-.0349.1367-.0302.2071.0046.0705.0241.1391.0572.2014.033.0624.0789.117.1346.1604.0557.0433.1199.0744.1884.0911zM43.9833 30c-2 .92-5.23 4.39-6.56 7.14-.029.0591-.0461.1233-.0502.189-.0042.0657.0047.1315.0261.1938.0213.0622.0548.1196.0984.1689s.0965.0895.1557.1183c.0727.0138.1473.0138.22 0 .0948-.0007.1874-.0284.2671-.0797.0796-.0513.1431-.1243.1829-.2103 1.23-2.53 4.23-5.83 6.07-6.66.1205-.0546.2144-.1547.2613-.2784.0469-.1237.0428-.2609-.0113-.3816-.0615-.1136-.1653-.1983-.2889-.2358-.1236-.0374-.257-.0246-.3711.0358zM33.9029 37.81c.0052.1282.0605.2493.154.3371.0935.0879.2177.1356.346.1329.0657-.0038.13-.0206.1892-.0493.0592-.0287.1122-.0689.1559-.1181.0436-.0493.0771-.1066.0986-.1688.0214-.0623.0304-.1281.0263-.1938-.29-5.16-1.27-12.82-6.37-19.68-.0385-.0522-.0869-.0962-.1426-.1296-.0556-.0333-.1173-.0552-.1815-.0645-.0642-.0093-.1296-.0058-.1924.0103-.0628.0162-.1218.0447-.1735.0838-.0533.0387-.0984.0874-.1328.1436-.0344.0561-.0574.1185-.0676.1836-.0102.065-.0075.1314.008.1954s.0435.1243.0824.1774c5.01 6.64 5.92 14.1 6.2 19.14zM32.1934 37c.0286.1084.0921.2043.1806.273.0886.0687.1973.1063.3094.107h.12c.0638-.0163.1237-.045.1763-.0846.0526-.0395.0969-.089.1304-.1457.0334-.0566.0553-.1193.0645-.1845.0091-.0652.0054-.1315-.0112-.1952-.76-2.95-3.2-7-5-8.29-.0523-.0386-.1118-.0664-.175-.0818-.0632-.0154-.1288-.018-.193-.0078-.0643.0103-.1258.0332-.1811.0674-.0552.0343-.1031.0792-.1409.1322-.0389.0531-.0669.1134-.0824.1774s-.0182.1304-.008.1955c.0102.065.0332.1274.0676.1835.0344.0562.0795.105.1328.1436 1.62 1.13 3.91 4.96 4.61 7.71zM35.2234 11.55c.87 2.73.64 10.24.19 15.85-.0069.0652-.0006.1311.0184.1938.0191.0627.0505.121.0925.1713.0419.0504.0935.0918.1518.1218.0582.0301.1219.0481.1873.0531h.05c.1242-.0021.2432-.0503.3338-.1354.0906-.085.1463-.2007.1562-.3246.17-2.06 1-12.54-.23-16.23-.0398-.1326-.1306-.244-.2525-.3096-.1219-.0656-.2649-.0802-.3975-.0404-.1326.0398-.244.1306-.3096.2525-.0657.1219-.0802.2649-.0404.3975h.05zM23.1332 66.45v-2h-1.35v2h1.35zM21.7734 63.32h1.36v-2h-1.36v2zM27.643 45.47h-1.35v2h1.35v-2zM23.1234 48.57h-1.35v2h1.35v-2zM27.633 50.56v-2h-1.34v2h1.34zM23.1334 51.78h-1.36v2h1.36v-2zM27.6432 51.77h-1.36v2h1.36v-2zM21.7734 72.8h1.36v-2h-1.36v2zM21.7734 69.62h1.36v-2h-1.36v2zM21.7627 56.93h1.37V55h-1.37v1.93zM21.7734 58.15v2h1.35v-2h-1.35zM25.3327 48.58h-1.32v2h1.32v-2zM28.5127 50.57h1.33v-2h-1.33v2zM29.8429 45.46h-1.34v2h1.34v-2zM25.3327 51.77h-1.32v2h1.32v-2zM25.3227 45.46h-1.31v2h1.31v-2zM24.0029 66.44h1.33v-2h-1.33v2zM25.3329 61.34h-1.33v2h1.33v-2zM24.0127 72.8h1.31v-2h-1.31v2zM24.0127 60.11h1.32v-1.94h-1.32v1.94zM24.0029 69.61h1.33v-2h-1.33v2zM25.3329 55h-1.33v2h1.33v-2zM42.3134 62.35v-2h-1.33v2h1.33zM44.5429 57.17h-1.33v2h1.33v-2zM42.3227 57.18h-1.35v2h1.35v-2zM40.9834 75h1.33v-2h-1.33v2zM42.3127 66.76h-1.34v1.95h1.34v-1.95zM40.9834 71.84h1.34v-2h-1.34v2zM40.9834 65.52h1.35v-1.95h-1.35v1.95zM44.5429 62.35v-2h-1.33v2h1.33zM43.2129 75h1.33v-2h-1.33v2zM43.2031 68.71h1.34v-1.95h-1.34v1.95zM43.2129 71.84h1.34v-2h-1.34v2zM43.2129 65.52h1.34v-1.95h-1.34v1.95zM44.5431 54.08h-1.34v2h1.34v-2zM40.9727 56h1.35v-2h-1.35v2zM44.5429 50.88h-1.33v2h1.33v-2zM42.3227 50.89h-1.35v1.94h1.35v-1.94zM40.1134 50.88h-1.34v1.95h1.34v-1.95zM36.5527 52.83h1.34v-1.94h-1.34v1.94zM60.5626 49h.23c.1302-.0221.2467-.0939.3251-.2002.0783-.1063.1123-.2389.0949-.3698-.0198-.132-.0906-.251-.1972-.3314-.1065-.0804-.2404-.1158-.3728-.0986-.1416.0168-.285-.0107-.4103-.0788-.1254-.068-.2266-.1733-.2897-.3012-.0553-.1333-.0687-.2804-.0383-.4215.0304-.1412.103-.2697.2083-.3685.0507-.0415.0926-.0927.1231-.1506.0306-.058.0492-.1215.0548-.1867.0056-.0653-.002-.131-.0222-.1933-.0203-.0623-.0528-.1199-.0957-.1694-.0871-.1007-.2101-.1633-.3427-.1745-.1327-.0113-.2645.0299-.3673.1145-.2569.2235-.4393.5202-.5229.8503-.0835.3301-.0642.6779.0555.9967.1197.3188.334.5934.6141.7869.2802.1936.6128.2969.9533.2961zM62.1934 68.81c-.2148.0994-.4604.1095-.6826.0279s-.403-.2481-.5024-.4629c-.0995-.2148-.1095-.4604-.0279-.6826s.2481-.4029.4629-.5024c.1074-.0672.1852-.1727.2179-.2951.0326-.1224.0176-.2526-.0421-.3643-.0597-.1117-.1595-.1967-.2794-.2376-.1199-.041-.2508-.0349-.3664.017-.3719.2023-.6652.5235-.8327.9123-.1676.3888-.1998.8226-.0914 1.2318.1084.4093.351.7703.689 1.0252.338.2549.7518.389 1.1751.3807.2222 0 .4425-.0407.65-.12.0611-.0243.1167-.0604.1639-.1062.0471-.0458.0847-.1005.1107-.1608.026-.0604.0399-.1253.0408-.191.0009-.0657-.0111-.1309-.0354-.192-.0243-.0611-.0604-.1168-.1062-.1639-.0458-.0471-.1005-.0847-.1608-.1107-.0604-.026-.1253-.0399-.191-.0408-.0657-.0009-.1309.0111-.192.0354z"/>
</svg>