<svg fill="transparent" xmlns="http://www.w3.org/2000/svg" viewBox="0 0 218 52">
  <path stroke="var(--bg)" stroke-linecap="round" stroke-linejoin="round" stroke-width=".9298" d="M87.8027 20.8c-.8-.5-1.6.5-1.5 1.4.2 1.1 1.6 2 3 1.3 2.3-1.2 2.2-4.9-2.9-5.1-4.7-.2-12.8 3.3-12.8 3.3l-.8.2-3.7-16.9c-.1-.4-.4-.6-.8-.5l-6.7 1.3c-.2 0-.3.1-.4.3-.1.1-.1.3-.1.5l3.6 15.1-.9.2c-.4.1-.6.4-.5.8l.9 3.7c-.8.3-1.6.6-2.4 1l-11.8-18c-.2-.3-.6-.4-.9-.2l-.2-.3c-.2-.3-.6-.4-.9-.2l-1.3.6-2 1.2-1.3.8h-.1c-.3.2-.4.6-.2.9l.2.3c-.3.2-.4.6-.2.9l10.7 16.3-2 1.2-8.9-13.2c-.2-.3-.6-.4-.9-.2l-.2-.3c-.2-.3-.6-.4-.9-.2h-.1l-1.3.8-2 1.2-1.3.8c-.1.1-.2.2-.3.4 0 .2 0 .3.1.5l.2.3c-.3.2-.4.6-.2.9l7.9 11.8-.6.4c-.3.2-.4.6-.2.9l1.7 2.6c-1 .8-2.1 1.8-3.1 2.7l-6-5c-.3-.2-.7-.2-.9 0l-1 1.1-.6-.5c-.3-.2-.7-.2-.9 0l-.6.7c-.1.1-.2.3-.2.5s.1.3.2.5l.6.5-.1.1c-.1.2-.2.4-.1.6l-1 1.1c-.1.1-.1.7-.1.8l-.3.2c-.2.2-.2.5-.1.8l-.3.3-1.4-1.2c-.2-.2-.5-.2-.8-.1l-2-1.7c-.1-.1-.2-.1-.3-.2l-1.1-.2c-.2 0-.5 0-.6.2-.2.2-.2.4-.1.6l.4 1.1c0 .1.1.2.2.3l2 1.8v.2c0 .2.1.3.2.5l1.4 1.2-.9 1c-.1.1-.2.3-.2.5s.1.3.2.4l5.1 4.2M127.902 20.6c.7-.5 1.7.5 1.5 1.3-.2 1.1-1.5 2.1-2.9 1.4-2.4-1.1-2.4-4.8 2.6-5.3 4.7-.4 13.5 2.8 13.5 2.8l5.3-14.80001c.1-.2.2-.30001.3-.40001.2-.1.3-.1.5 0l.3.1c.2-.3.5-.39999.8-.29999l.8.29999c.2.1.3.20001.4.30001.1.1.1.3.1.4l1 .3.2-.60001c.1-.3.5-.5.8-.4l1.5.50001.6-1.7c.1-.3.5-.50001.8-.40001h.1c.2-.2.5-.39999.8-.29999l1.7.6c.3.1.5.49999.4.79999l-.8 2.10001 1.5.5c.3.1.5.49999.4.79999l-.4 1.10001.6.2c.3.1.5.50001.4.80001l-5 14.7 3.9 1.8 7-11.3c.1-.1.8 0 .9 0h.2l1.5-2.4c.2-.3.6-.4.9-.2l.1.1s1.6-1.9 1.7-2l1.3-.4 3-3.90002c.2-.2.4-.29999.7-.19999l2.7-4.30001c.1-.1.2-.19999.3-.29999l.5-.20001c.2-.1.4 0 .6.1.2.1.3.3.3.5v.5c0 .1 0 .3-.1.4l-2.7 4.30001c.2.2.3.49999.2.69999l-1.9 4.60002.3 1.1c0 .2-.8 2.4-.8 2.4.3.2.4.6.2.9l-1.5 2.4c.1.2.8.8.4 1.4l-7.5 11c.5.4 1 .7 1.6 1.1l3.5-4.4c.1-.1.3-.2.4-.2.1 0 .2 0 .3.1l.3-.4c.1-.1 1.3-.3 1.5-.1l2.1 1.7c.2-.1.9-.4 1-.3l.9.7c.2.2-.1.8-.2 1.1l.7.6c.3.2.3.6.1.9l-.4.4-.1.1-4 5c.4.4.8.7 1.2 1.1l9.2-7.9c.1-.1.3-.2.5-.2s.3.1.5.2l1 1.1c.2.3-.4 1.3-.7 1.5h-.1l.3.3c.2.2 1.2 1.4 1.3 1.5l.2.2 1.1-1c.1-.1 1-.8 1.2-.8.2 0 .3.1.5.2l1 1.1c.2.3.2.7-.1.9l-1.3 1.1.8 1.4c.2.2.2.6 0 .8l.2.3c.1.1.2.3.2.5s-.1.3-.2.4c0 0-.7 1-.9 1.2l-.1.1.2.2c.1.1.2.3.2.5s-.1.3-.2.4l-6.2 5.3-.1.1"/>
  <path fill="var(--bg)" d="M213.003 8.49999l-.6-.3c-.2-.1-.3-.2-.5-.3-.2-.1-.4-.2-.7-.1-.3 0-.7.1-1 .1.1-.5.1-1 .2-1.5-.2-.4-.4-.8-.6-1.3.4-.1.7-.1 1-.1.6-.1.6-.1.9-.5.2-.2.4-.4.5-.6l.1.1c.2.4.4.7.6 1.1.1.1.2.1.3.2.3.2.6.3 1 .5l-.5.5c-.2.2-.3.4-.6.6.1.5 0 1-.1 1.6zM213.902 26.7c.5-.2.9-.4 1.4-.6 0 .3.1.6.1.9 0 .3.1.6.3.8.3.2.5.5.8.8-.3.1-.5.3-.8.4-.2.1-.3.1-.5.2-.1 0-.2.1-.2.2-.2.3-.4.6-.5 1 0 .1-.1.1-.1.2l-.2-.2c-.2-.3-.4-.5-.6-.8-.1-.1-.2-.1-.3-.2-.3-.1-.7-.1-1-.2-.1 0-.2 0-.3-.1.3-.5.5-.9.7-1.4-.1-.5-.1-1-.2-1.5.4.2.9.4 1.4.5zM205.803 35.3c-.4-.3-.7-.7-1.1-1.1-.4-.1-.9-.1-1.4-.2.2-.4.5-.9.7-1.3-.1-.5-.1-1-.2-1.5h.2c.3.1.6.1.9.2.3.1.5 0 .8-.2.2-.2.5-.3.8-.5 0 .2.1.5.1.7 0 .2.1.5.1.7 0 .1.1.3.2.3l.9.9c-.1.1-.2.1-.3.2-.3.1-.5.2-.8.3-.2.1-.3.2-.4.4-.1.4-.3.7-.5 1.1zM197.703 7.99998c-.5.1-1 .1-1.5.2 0-.5.2-.9.3-1.4-.2-.4-.5-.9-.7-1.3.5-.1 1-.1 1.5-.2.4-.3.7-.7 1.1-1.1.1.3.3.6.4.8.1.2.1.3.2.5 0 .1.1.1.2.2.3.2.6.4 1 .5.1 0 .1.1.2.1v.1c-.3.2-.5.4-.8.7-.2.1-.3.3-.3.5 0 .4-.1.8-.1 1.2-.2-.1-.4-.2-.7-.3-.3-.2-.5-.4-.8-.5zM189.403 11.3l1.1-1.1c.3.5.4.9.7 1.4l1.2.6-.3.3c-.2.2-.4.4-.7.6-.1.1-.2.3-.2.5 0 .4-.1.7-.1 1.1-.5-.2-.9-.5-1.4-.7-.5.1-1 .1-1.5.2 0-.3.1-.5.1-.8 0-.2.1-.5.1-.7-.2-.4-.4-.8-.7-1.3.7.1 1.2 0 1.7-.1zM209.803 19.5c0-.3-.1-.6-.1-.9.3 0 .5.1.8.1.3-.1.5-.3.8-.3 0 .3.1.6.1.9.2.2.4.4.5.6-.2.2-.5.2-.8.5-.1.1-.2.3-.4.5-.3-.1-.4-.4-.6-.6-.2 0-.5-.1-.7-.1 0-.3.3-.4.4-.7zM203.903 8.29999c-.1-.2-.1-.5-.2-.7.3.1.5.1.8.1.3-.1.5-.2.8-.4.1.3.1.5.2.8.1.2.3.4.4.6-.2.2-.4.2-.7.3-.1.3-.3.5-.5.8-.1-.1-.3-.2-.4-.4-.1-.2-.3-.2-.4-.3-.2 0-.3-.1-.6-.1.3-.1.4-.4.6-.7zM189.503 5.10001v-.8c.3.1.6.1.8.2.3-.1.5-.3.8-.4 0 .3 0 .5.1.8l.6.6c-.2.1-.4.2-.6.2-.1.1-.2.1-.3.3l-.3.6-.4-.4c-.1-.2-.3-.2-.4-.3-.2 0-.3-.1-.5-.1 0-.2.1-.5.2-.7zM210.802 34.5c.2 0 .4.1.5.1.2 0 .3 0 .5-.1.1-.1.3-.1.5-.2 0 .3.1.6.1.8.2.2.4.4.5.6-.3.1-.5.3-.7.4-.1.3-.2.5-.3.7-.2-.2-.4-.4-.7-.6-.2 0-.4 0-.7-.1v-.2c.2-.4.3-.7.2-1.2.1-.1.1-.1.1-.2zM217.903 14.2c-.2.1-.4.2-.5.2-.2.1-.3.3-.4.5 0 .1-.1.3-.2.3-.2-.2-.3-.4-.6-.6-.2 0-.5-.1-.8-.1.1-.3.3-.5.3-.8v-.8c.2 0 .3.1.5.1.2.1.4 0 .7-.1.1-.1.3-.1.4-.2v.6c0 .1 0 .2.2.3.1.3.3.4.4.6z"/>
  <path stroke="var(--bg)" stroke-linecap="round" stroke-miterlimit="10" stroke-width=".9298" d="M188.603 30c4.1-2 10.7-4.7 18.6-3.6M190.103 31c2.7-.7 6.9-.5 8.7.3M187.703 28.8c3.3-3.1 8.2-8.3 10-16.1M187.403 27c1.6-2.3 2.9-6.3 2.8-8.2M196.002 23.6c3.9-2.8 9.7-7.3 11.3-9.8"/>
  <path fill="var(--bg)" d="M5.70244 8.6l.6-.3c.2-.1.3-.2.5-.3.2-.1.4-.2.7-.1.3 0 .7.1 1 .1-.1-.5-.1-1-.2-1.5.2-.4.4-.8.6-1.3-.4-.1-.7-.1-1-.1-.6-.1-.6-.1-.9-.5-.2-.2-.4-.4-.5-.6l-.1.1c-.2.4-.4.7-.6 1.1-.1.1-.2.1-.3.2-.3.2-.6.3-1 .5l.5.5c.2.2.3.4.6.6-.1.6 0 1.1.1 1.6zM4.70254 26.8c-.5-.2-.9-.4-1.4-.6 0 .3-.1.6-.1.9 0 .3-.1.6-.3.8-.3.2-.5.5-.8.8.3.1.5.3.8.4.2.1.3.1.5.2.1 0 .2.1.2.2.2.3.4.6.5 1 0 .1.1.1.1.2l.2-.2c.2-.3.4-.5.6-.8.1-.1.2-.1.3-.2.3-.1.7-.1 1-.2.1 0 .2 0 .3-.1-.3-.5-.5-.9-.7-1.4.1-.5.1-1 .2-1.5-.4.3-.9.4-1.4.5zM12.8027 35.4c.4-.3.7-.7 1.1-1.1.4-.1.9-.1 1.4-.2-.2-.4-.5-.9-.7-1.3.1-.5.1-1 .2-1.5h-.2c-.3.1-.6.1-.9.2-.3.1-.5 0-.8-.2-.2-.2-.5-.3-.8-.5 0 .2-.1.5-.1.7 0 .2-.1.5-.1.7 0 .1-.1.3-.2.3l-.9.9c.1.1.2.1.3.2.3.1.5.2.8.3.2.1.3.2.4.4.1.4.3.8.5 1.1zM20.9026 8.19999c.5.1 1 .1 1.5.2 0-.5-.2-.9-.3-1.4.2-.4.5-.9.7-1.3-.5-.1-1-.1-1.5-.2-.4-.3-.7-.7-1.1-1.1-.1.3-.3.6-.4.8-.1.2-.1.3-.2.5 0 .1-.1.1-.2.2-.3.2-.6.4-1 .5-.1 0-.1.1-.2.1v.1c.3.2.5.4.8.7.2.1.3.3.3.5 0 .4.1.8.1 1.2.2-.1.4-.2.7-.3.4-.3.6-.4.8-.5zM29.3027 11.5l-1.1-1.1c-.3.5-.4.9-.7 1.4l-1.2.6.3.3c.2.2.4.4.7.6.1.1.2.3.2.5 0 .4.1.7.1 1.1.5-.2.9-.5 1.4-.7.5.1 1 .1 1.5.2 0-.3-.1-.5-.1-.8 0-.2-.1-.5-.1-.7.2-.4.4-.8.7-1.3-.8 0-1.3 0-1.7-.1zM8.90273 19.7c0-.3.1-.6.1-.9-.3 0-.5.1-.8.1-.3-.1-.5-.3-.8-.3 0 .3-.1.6-.1.9-.2.2-.4.4-.5.6.2.2.5.2.8.5.1.1.2.3.4.5.3-.1.4-.4.6-.6.2 0 .5-.1.7-.1-.1-.3-.4-.5-.4-.7zM14.7026 8.5c.1-.2.1-.5.2-.7-.3.1-.5.1-.8.1-.3-.1-.5-.2-.8-.4-.1.3-.1.5-.2.8-.1.2-.3.4-.4.6.2.2.4.2.7.3.1.3.3.5.5.8.1-.1.3-.2.4-.4.1-.2.3-.2.4-.3.2 0 .3-.1.6-.1-.3-.2-.4-.4-.6-.7zM29.1027 5.29999v-.8c-.3.1-.6.1-.8.2-.3-.1-.5-.3-.8-.4 0 .3 0 .5-.1.8l-.6.6c.2.1.4.2.6.2.1.1.2.1.3.3l.3.6.4-.4c.1-.2.3-.2.4-.3.2 0 .3-.1.5-.1 0-.3-.1-.5-.2-.7zM7.90273 34.6c-.2 0-.4.1-.5.1-.2 0-.3 0-.5-.1-.1-.1-.3-.1-.5-.2 0 .3-.1.6-.1.8-.2.2-.4.4-.5.6.3.1.5.3.7.4.1.3.2.5.3.7.2-.2.4-.4.7-.6.2 0 .4 0 .7-.1V36c-.2-.4-.3-.7-.2-1.2-.1 0-.1-.1-.1-.2zM.702637 14.3c.2.1.400003.2.500003.2.2.1.3.3.4.5.1.2.1.3.3.4.2-.2.3-.4.6-.6.2 0 .5-.1.8-.1-.1-.3-.3-.5-.3-.8v-.8c-.2 0-.3.1-.5.1-.2.1-.4 0-.7-.1-.1-.1-.3-.1-.4-.2v.6c0 .1 0 .2-.2.3-.2.2-.300003.4-.500003.5z"/>
  <path stroke="var(--bg)" stroke-linecap="round" stroke-miterlimit="10" stroke-width=".9298" d="M31.9027 30.2c-4.1-2-10.7-4.7-18.6-3.6M30.4026 31.1c-2.7-.7-6.9-.5-8.7.3M32.8027 28.9c-3.3-3.1-8.2-8.3-10-16.1M31.3025 27.1c-1.6-2.3-2.9-6.3-2.8-8.2M24.5026 23.8c-3.9-2.8-9.7-7.3-11.3-9.8"/>
  <path stroke="var(--bg)" stroke-miterlimit="10" stroke-width=".9298" d="M104.403 7.1c-.2-2.8-3.9-6.1-3.9-6.1s-3.1003 3.1-2.7003 7.2c.3 2.6 3.7003 4.9 3.7003 4.9s3.1-2.8 2.9-6zM101.903 13l-1.3-11.79999M115.903 2.99999c2.6-2.099999 8.4-1.6 8.4-1.6s-.1 5.3-4 8.2c-2.4 1.80001-7.2.80001-7.2.80001s-.2-4.90001 2.8-7.40001zM112.803 9.99998l11.2-8.3"/>
  <path stroke="var(--bg)" stroke-miterlimit="10" stroke-width=".9298" d="M107.902 13.9c3.535 0 6.4-2.8654 6.4-6.39999 0-3.53462-2.865-6.4-6.4-6.4-3.534 0-6.4 2.86538-6.4 6.4 0 3.53459 2.866 6.39999 6.4 6.39999z"/>
  <path stroke="var(--bg)" stroke-miterlimit="10" stroke-width=".9298" d="M115.203 21.4c3.534 0 6.4-2.8654 6.4-6.4s-2.866-6.39999-6.4-6.39999c-3.535 0-6.4 2.86539-6.4 6.39999 0 3.5346 2.865 6.4 6.4 6.4zM97.3026 8.8c-2.1-1.8-7.1-1.5-7.1-1.5s0 4.4 3.2 7c2 1.6 6.1.8 6.1.8s.3-4.1-2.2-6.3z"/>
  <path stroke="var(--bg)" stroke-miterlimit="10" stroke-width=".9298" d="M99.8024 14.8l-9.3-7.40001"/>
  <path stroke="var(--bg)" stroke-miterlimit="10" stroke-width=".9298" d="M104.003 22.2c3.534 0 6.4-2.8654 6.4-6.4s-2.866-6.40001-6.4-6.40001c-3.535 0-6.4005 2.86541-6.4005 6.40001s2.8655 6.4 6.4005 6.4z"/>
  <path stroke="var(--bg)" stroke-linecap="round" stroke-miterlimit="10" stroke-width=".9298" d="M110.003 3.79999c-.3.3-.5.8-.3 1.2.2.4.6.7 1.1.6M118.502 12.1c-.5.2-.9.8-.8 1.3.1.5.6 1 1.2.9M107.103 13.8c-.5.3-.7.9-.5 1.4.2.5.9.8 1.4.6"/>
</svg>