<svg fill="transparent" viewBox="0 0 208 112">
  <path fill="var(--fg)" d="M41.0049 85.0983c.1909 0 .3818.0955.4772.2864.0955.1909.0955.2864 0 .5728-.1909.8591-.3818 1.8137-.6682 2.7682-.2863.9546-.4773 1.9092-.7636 2.7683-.2864.9546-.5728 1.8137-.8591 2.6729-.2864.8591-.5728 1.6227-.8592 2.3864-1.1455 2.6728-2.3864 5.0597-3.8183 6.9687-1.3364 1.813-2.7683 3.245-4.2001 4.295-.4773.382-1.0501.764-1.7183 1.05-.5727.287-1.2409.478-1.8137.669-.7636.191-1.4319.286-2.1955.286-.7637 0-1.4319-.095-2.1001-.286-1.1455-.287-2.1955-.86-3.0546-1.719-.8592-.859-1.5274-1.718-2.1001-2.768-.5728-1.05-.9546-2.195-1.241-3.436-.2863-1.241-.3818-2.4823-.3818-3.7233 0-2.1001.0955-4.1047.3818-5.9184.1909-1.8137.5728-3.6274 1.0501-5.3456.4773-1.7183 1.1455-3.3411 1.9091-4.9638.7637-1.6228 1.7183-3.1502 2.7683-4.7729.3818-.5728.8591-1.1455 1.5273-1.7183.6682-.5727 1.4319-1.1455 2.291-1.6228.8591-.4773 1.7183-.7636 2.7683-.8591 1.05-.0954 1.9092.0955 2.9592.5728.7637.3818 1.4319 1.05 2.1001 1.9091.6682.8591 1.1455 1.9092 1.4318 3.1501.2864 1.1455.3819 2.3865.2864 3.7229-.0954 1.3364-.5727 2.5774-1.2409 3.6274-.191.3818-.6682.5727-1.1455.6682-.5728.0955-1.0501 0-1.5274-.0955-.4772-.0954-.9545-.3818-1.1455-.6682-.2863-.2863-.2863-.6682 0-.9545.4773-.6682.8592-1.4319 1.1455-2.3865.2864-.9546.3819-1.8137.4773-2.7683.0955-.9546 0-1.8137-.1909-2.5773-.1909-.7637-.4773-1.4319-.8591-1.8137-.6682-.2864-1.05-.3819-1.6228-.0955-.4773.2864-1.1455.7637-1.7182 1.5273-.5728.7637-1.241 1.7183-1.9092 2.8638-.6682 1.1455-1.2409 2.4819-1.8137 4.0092-.3818 1.1455-.7637 2.291-1.05 3.5319-.2864 1.241-.4773 2.482-.6682 3.6274-.191 1.1455-.2864 2.291-.3819 3.3411-.0954 1.05-.0954 2.0046-.0954 2.8637 0 1.6228.1909 3.0547.4773 4.2958.2863 1.241.8591 2.386 1.4318 3.245.5728.86 1.241 1.528 2.1001 2.005.7637.477 1.6228.668 2.4819.573.8591-.096 1.8137-.478 2.7683-1.05.9546-.668 1.9092-1.623 2.7683-2.864.6682-.955 1.3364-2.1 2.0046-3.341.6682-1.241 1.2409-2.5774 1.8137-4.1047.5727-1.5274 1.1455-2.9592 1.6228-4.582.4773-1.6228.9546-3.3411 1.2409-5.0593.1909-.6682.3819-.7637.8592-.7637z"/>
  <path fill="var(--fg)" d="M67.351 80.9937c-.0954-.1909-.1909-.2864-.3818-.2864-.1909-.0954-.3818-.0954-.5728 0-.0954.0955-.1909.191-.2863.3819-.2864.7636-.6682 1.7182-1.1455 2.5773-.4773.9546-1.0501 1.9092-1.6228 2.8638.0954-.6682 0-1.3364-.0955-2.1001-.0954-.7637-.3818-1.5273-.7636-2.291-.3819-.7636-.9546-1.6228-1.6228-2.4819s-1.5273-1.7182-2.5774-2.6728l.0955-.1909c.1909-.4773.3818-1.0501.4773-1.5274.0954-.4772.0954-.9545.0954-1.3364-.0954-.3818-.2864-.6682-.5727-.8591-.2864-.1909-.7637-.2864-1.3364-.1909-.5728.0955-.9546.2864-1.241.5727-.2864.2864-.5727.5728-.6682.8592-.1909.2863-.1909.6682-.2864.9545v.7637c.0955.4773.1909.9546.3819 1.3364.1909.3818.4772.7637.7636 1.1455-.0954.3818-.6682 3.8183-1.8137 5.5366-.1909.3818-.6682.6682-1.1455.9546-.4773.2863-1.2409.5727-2.1.7636.0954-.9546.0954-1.7182 0-2.1001-.0955-.4772-.2864-.7636-.4773-.9545-.191-.1909-.4773-.2864-.7637-.191-.2864.0955-.4773.0955-.6682.0955-.4773.0955-.7637.3818-1.05.7637-.2864.3818-.2864.8591-.2864 1.3364 0 .4773.1909.9546.4773 1.3364.2863.3818.6682.6682 1.1455.7637-.1909.6682-.3819 1.3364-.6682 2.1-.2864.7637-.5728 1.5274-.8592 2.1956-.2863.6682-.6682 1.2409-.9545 1.7182-.3819.4773-.6682.6682-1.0501.6682-.4773 0-.8591-.1909-1.1455-.5727-.2863-.3819-.4773-.9546-.5727-1.6228-.0955-.6682-.1909-1.4319-.0955-2.291 0-.8591.1909-1.7183.2864-2.6728.1909-.9546.3818-1.8137.6682-2.6729.2864-.8591.5727-1.7182.9546-2.3864.1909-.3818.3818-.7637.6682-1.1455.2864-.3818.4773-.6682.6682-.9546.1909-.2864.4773-.3818.6682-.4773.1909-.0954.4773.0955.7637.3819-.0955.1909-.191.2863-.2864.4773-.0955.1909-.0955.3818-.0955.5727.0955.2864.1909.4773.4773.6682.2864.1909.4773.1909.7637.0955.3818-.0955.6682-.2864.7636-.6682.0955-.191.0955-.4773 0-.8592-.0954-.1909-.1909-.4773-.3818-.7636-.1909-.2864-.2864-.4773-.5727-.6682-.1909-.1909-.4773-.3819-.7637-.4773-.2864-.0955-.6682-.1909-1.1455-.0955-.9546.1909-1.8137.4773-2.6728.9546-.7637.4773-1.5273 1.1455-2.1001 1.9092-.5727.7636-1.1455 1.6227-1.5273 2.5773-.3819.9546-.7637 2.0046-.9546 2.9592-.1909 1.0501-.3818 2.1001-.3818 3.0547 0 .9546.0954 2.0046.2863 2.8637.2864 1.1455.8592 2.1001 1.6228 2.8637.7637.7637 1.8137 1.0501 2.9592.8592.8591-.0955 1.6228-.4773 2.291-1.0501.6682-.6682 1.241-1.3364 1.7183-2.1955.4773-.8591.8591-1.7182 1.2409-2.6728.2864-.9546.5728-1.8137.7637-2.5774.6682-.0954 1.2409-.2864 1.8137-.5727.5727-.2864 1.1455-.5728 1.6228-.8592.4773-.3818.8591-.7636 1.1455-1.1454.9545-1.3365 1.4318-4.2957 1.6227-4.6775.9546 1.3364 1.6228 2.6728 2.0047 3.8183.3818 1.1455.6682 2.1956.7636 3.0547.0955.8591 0 1.7182-.1909 2.3864-.1909.6682-.3818 1.241-.7637 1.7183-.3818.4773-.5727.7636-.9545 1.05-.2864.1909-.5728.3818-.7637.3818-.4773.0955-.9546-.0954-1.2409-.2863-.2864-.2864-.5728-.5728-.6683-1.0501-.0954-.3818-.1909-.8591-.0954-1.3364.0954-.4773.1909-.9546.3818-1.3364.0955.1909.2864.3818.4773.4773.1909.0955.3818.0955.5728.0955.2863 0 .4772-.191.6682-.3819.1909-.1909.2863-.4773.1909-.7636 0-.2864-.1909-.4773-.3819-.6682-.2863-.191-.4772-.191-.7636-.191-.2864 0-.5728.0955-.8591.2864-.2864.1909-.6682.5728-1.0501 1.1455-.2864.3818-.3818.9546-.4773 1.5273 0 .6682.0955 1.241.3819 1.9092.2863.6682.6682 1.1455 1.2409 1.5273.5728.3819 1.3364.5728 2.1956.3819.2863-.0955.6682-.191 1.1454-.3819.4773-.1909.8592-.4773 1.3365-.7636.7636-.4773 1.5273-1.0501 2.1-1.7183.5728-.6682 1.1455-1.3364 1.6228-2.1001.7637-1.1454 1.3364-2.1955 1.9092-3.2455.5727-1.0501 1.05-2.1956 1.4318-3.4365.2864-.4773.2864-.5728.2864-.7637z"/>
  <path fill="var(--fg)" d="M87.1109 76.889c0 .7636-.0954 1.6228-.2863 2.4819-.191.8591-.4773 1.7182-.7637 2.6728-.2864.8591-.6682 1.7183-.9546 2.4819-.2864.7637-.5727 1.4319-.7636 2.0046-.191.5728-.191 1.0501-.191 1.3364.0955.2864.2864.4773.7637.4773.1909 0 .4773-.1909.8591-.5727.3819-.3818.6682-.8591 1.1455-1.4319.3818-.5727.7637-1.2409 1.241-1.9091.3818-.7637.7636-1.4319 1.1455-2.1001.3818-.6682.6682-1.3364.9545-2.0046.2864-.6682.4773-1.1455.5728-1.5274.0954-.1909.1909-.2863.2864-.3818.0954-.0954.2863-.0954.4773 0 .1909.0955.2863.0955.3818.2864.0954.0954.0954.2864 0 .4773-.1909.3818-.3818.9546-.6682 1.7182-.2864.7637-.6682 1.4319-1.0501 2.291-.3818.7637-.8591 1.6228-1.3364 2.4819-.4773.8591-.9545 1.6228-1.5273 2.291-.5727.6682-1.05 1.241-1.6228 1.7182-.5727.4773-1.1455.7637-1.7182.7637-.4773.0955-.8591 0-1.241-.1909-.3818-.1909-.6682-.4773-.8591-.9546-.1909-.3818-.3818-.8591-.5727-1.3364-.0955-.4773-.191-1.05-.191-1.5273 0-.9546.191-1.9092.3819-2.8638.2863-.9545.5727-1.8137.8591-2.6728s.6682-1.6228.9546-2.3864c.2863-.7637.5727-1.3364.6682-1.9092.0954-.5727.1909-.9546.0954-1.2409-.0954-.2864-.3818-.3819-.8591-.3819-.1909 0-.4773.1909-.8591.5728-.3818.3818-.7637.8591-1.1455 1.5273-.3818.5727-.8591 1.3364-1.241 2.1001-.3818.7636-.8591 1.6228-1.2409 2.4819-.3818.8591-.8591 1.6228-1.1455 2.4819-.3818.8591-.6682 1.6228-.9546 2.291-.2864 1.05-.5727 1.9091-.7637 2.6728-.1909.7637-.0954 1.1455.0955 1.3364.1909.0955.0955.2864-.1909.4773-.2864.1909-.6682.3818-1.1455.3818-.4773.0955-.9546 0-1.4319-.1909-.4773-.1909-.8591-.6682-1.1455-1.2409-.2863-.6682-.2863-1.4319-.0954-2.4819.1909-1.0501.4773-2.0047.8591-3.0547.3818-1.05.8591-2.1955 1.2409-3.2456.4773-1.05.8592-2.0046 1.1455-2.8637.2864-.8591.4773-1.5273.4773-2.0046 0-.4773-.2863-.6682-.7636-.5728-.1909 0-.4773.1909-.8592.5728-.3818.3818-.7636.7636-1.1454 1.3364-.3819.5727-.7637 1.1455-1.1455 1.8137-.3819.6682-.7637 1.3364-1.1455 2.0046-.3819.9546-.7637 2.0046-1.1455 2.9592-.4773 1.05-.8592 2.0046-1.1455 2.8637-.2864.8592-.5728 1.6228-.7637 2.291-.1909.6682-.1909 1.1455.0955 1.5274.0954.1909.0954.3818-.1909.5727-.191.1909-.5728.3818-.8592.3818-.3818.0955-.7636-.0954-1.2409-.2863-.3819-.191-.7637-.6682-1.0501-1.3364-.1909-.5728-.2863-1.241-.1909-2.1956.0955-.9546.3819-1.9091.6682-2.9592.2864-1.05.6682-2.1001 1.0501-3.2455.3818-1.1455.7636-2.1001 1.05-3.0547.2864-.9546.5728-1.7182.6682-2.3864.0955-.6683.0955-1.0501-.0954-1.241-.191-.0955-.0955-.2864.1909-.4773.2863-.1909.6682-.3818 1.1455-.3818.4772-.0955.9545 0 1.4318.1909.4773.1909.8592.6682 1.1455 1.2409.1909.3819.1909.9546.1909 1.5274.6682-.9546 1.3365-1.8137 2.1001-2.4819.7637-.6682 1.5273-1.0501 2.1955-1.1455.8592-.0955 1.6228.1909 2.1001 1.05.4773.8591.7637 1.8137.6682 3.0547 0 .2863-.0954.5727-.0954.8591s-.0955.5727-.0955.8591c.4773-.8591.8591-1.6228 1.3364-2.3864.4773-.7637.9546-1.4319 1.4319-2.1001.4773-.5728 1.05-1.0501 1.5273-1.4319.4773-.3818 1.0501-.5727 1.5274-.5727.8591-.0955 1.6227.2863 2.1 1.05.4773.4773.6682 1.4319.6682 2.7683z"/>
  <path fill="var(--fg)" d="M101.62 74.6935c0 .3818-.095.6682-.19.7636-.191.3819-.478.5728-.86.5728-.286 0-.5723-.0955-.7632-.2864-.191-.1909-.2864-.3818-.3819-.7636 0-.191.0955-.3819.191-.5728.0954-.1909.1909-.2864.3818-.3818-.1909-.2864-.3819-.4773-.6682-.4773-.1909 0-.4773.0954-.7637.2864-.2864.1909-.5727.4773-.8591.7636-.2864.3819-.5728.6682-.8591 1.0501-.4773.6682-.9546 1.3364-1.3364 2.1955-.4773.8591-.8592 1.7182-1.1455 2.5774-.2864.8591-.5728 1.7182-.7637 2.5773-.1909.8591-.2864 1.6228-.2864 2.291 0 .6682.0955 1.241.2864 1.7183.1909.4773.5727.7636 1.05.7636.3819.0955.7637-.0954 1.1455-.4773.3819-.3818.8592-.8591 1.241-1.5273.3818-.5727.8591-1.2409 1.2409-2.0046.3819-.7637.7637-1.3364 1.0501-2.0046-.4773-.1909-.8591-.5728-1.0501-1.0501-.1909-.4773-.2863-.9545-.1909-1.4318.0955-.4773.1909-.9546.5728-1.241.3818-.2864.6682-.5727 1.1455-.5727h.6682c.286 0 .477.0954.668.3818.191.2864.287.5727.287 1.05 0 .4773-.096 1.1455-.382 2.1001.954 0 1.623-.1909 2.195-.3818.573-.1909.955-.4773 1.241-.7637.287-.2864.477-.5727.573-.8591.095-.2864.191-.4773.191-.4773.095-.1909.191-.2864.286-.2864.191 0 .287 0 .382.0955.191.0954.286.1909.286.2864.096.1909.096.2863 0 .4773-.19.4772-.477.8591-.859 1.2409-.382.3818-.859.6682-1.336.9546-.477.2864-1.05.4773-1.718.6682-.669.1909-1.241.1909-1.909.1909-.287.7637-.6687 1.5273-1.146 2.3865-.4773.8591-1.05 1.7182-1.7182 2.4819-.6682.7636-1.3364 1.4318-2.1001 1.9091-.7637.4773-1.6228.7637-2.4819.6682-1.1455-.0954-2.1001-.5727-2.7683-1.4318-.6682-.8592-1.05-1.9092-1.1455-3.0547 0-.9546 0-1.9092.1909-2.8637.1909-1.0501.4773-2.0047.8592-2.9592.3818-.9546.8591-1.9092 1.5273-2.7683.5727-.8591 1.2409-1.6228 2.0046-2.291.7637-.6682 1.5273-1.1455 2.4819-1.5273.8591-.3819 1.8137-.5728 2.7683-.4773.4773 0 .7637.0954 1.1455.2864.2863.1909.5723.3818.7633.5727.191.1909.287.4773.382.7637.287.2863.382.5727.477.8591z"/>
  <path fill="var(--fg)" d="M109.353 86.8166c0 .4773-.191.7637-.669.8591.096.2864.287.3819.573.4773.287 0 .668-.0954 1.05-.3818s.859-.7637 1.337-1.3364c.477-.5728.954-1.241 1.527-2.1001.477-.8591 1.05-1.8137 1.527-2.8637.287-.6682.573-1.3364.859-2.1956.191-.7636.382-1.5273.478-2.291.095-.7636 0-1.3364-.096-1.8137-.191-.5727-.382-.8591-.859-.9545-.382-.0955-.764-.0955-1.241.1909-.477.1909-.859.5727-1.336.9546-.478.3818-.859.9545-1.337 1.5273-.477.5727-.859 1.2409-1.336 1.9091-.477 1.1455-1.146 2.482-1.814 3.8184-.668 1.3364-1.432 2.7682-2.1 4.2001-.764 1.4319-1.432 2.7683-2.195 4.1047-.764 1.3364-1.337 2.5774-1.814 3.6274-.573 1.1455-.955 2.1001-1.241 2.8637-.286.7637-.382 1.3365-.191 1.6228.095.191 0 .3819-.286.5728-.2867.1909-.5731.2864-.9549.2864-.3819 0-.7637-.191-1.1455-.3819-.3819-.2863-.6682-.7636-.8591-1.4318-.0955-.3819-.0955-1.0501.1909-2.0047.2863-.9545.6682-2.0046 1.1455-3.1501.4773-1.2409 1.05-2.5773 1.7181-3.9138.668-1.3364 1.337-2.8637 2.005-4.2001.668-1.4319 1.336-2.7683 2.004-4.2002.669-1.4318 1.241-2.5773 1.719-3.6274.477-1.05.859-1.9091 1.05-2.6728.191-.7636.286-1.1455.191-1.2409-.191-.1909-.096-.2864.286-.4773.286-.1909.764-.2864 1.145-.2864.478 0 .955.0955 1.432.3818.478.2864.764.7637.955 1.4319.095.2864.095.6682 0 1.1455.954-1.05 1.909-1.7182 2.959-2.1955 1.05-.4773 2.196-.3819 3.532.1909.859.3818 1.527 1.05 1.909 1.7182.382.6682.573 1.5274.573 2.3865 0 .8591-.096 1.7182-.286 2.6728-.191.9546-.573 1.7182-.86 2.4819-.668 1.5273-1.336 2.6728-2.195 3.7229-.764 1.05-1.623 1.8137-2.387 2.3864 1.146-.1909 2.196-.6682 3.151-1.3364.954-.6682 1.813-1.5273 2.672-2.4819.764-.8591 1.528-1.7182 2.196-2.6728.668-.8591 1.145-1.7183 1.623-2.4819.095-.1909.191-.2864.286-.2864.096 0 .286 0 .477.0955.191.0954.287.1909.287.3818s0 .2864-.096.4773c-.572 1.1455-1.241 2.1955-2.004 3.2455-.764 1.0501-1.623 2.0047-2.482 2.9592-.573.6682-1.241 1.1455-1.909 1.7183-.669.4773-1.432.9546-2.196 1.2409-.764.2864-1.718.5728-2.673.6682-.954.0955-2.1.0955-3.245-.0954h-.478c-.286 0-.572-.0955-.859-.1909-.286-.0955-.573-.1909-.859-.3819-.286-.1909-.477-.4773-.668-.7636-.191-.2864-.286-.6682-.191-1.1455 0-.4773.095-.8591.382-.9546.191-.1909.477-.2864.763-.2864.287 0 .478.0955.764.2864.287.1909.096-.0955.096.1909z"/>
  <path fill="var(--fg)" d="M135.126 76.4117c0 .3818-.095.6682-.286.7636-.191.2864-.573.4773-.859.3819-.287 0-.477-.191-.764-.3819-.286-.1909-.286-.4773-.286-.7636 0-.191.095-.3819.191-.4773.095-.1909.286-.2864.477-.3819-.191-.3818-.382-.5727-.573-.5727-.191 0-.477.0955-.763.1909-.287.0955-.573.3818-.955.6682-.382.2864-.668.6682-.955.9546-.572.5727-1.05 1.241-1.622 2.0046-.573.7637-1.05 1.6228-1.432 2.3865-.382.8591-.764 1.6228-1.05 2.4819-.287.8591-.478 1.6228-.573 2.291-.095.6682 0 1.2409.095 1.7182.096.4773.478.7637.955.8591.382.0955.764 0 1.241-.3818.477-.2864.955-.7637 1.432-1.3364.477-.5728.954-1.1455 1.432-1.8137.477-.6682.859-1.241 1.241-1.8137-.478-.2864-.764-.6682-.859-1.1455-.096-.4773-.191-.9546 0-1.4319.095-.4773.381-.8591.668-1.2409.382-.2864.763-.4773 1.145-.4773.191 0 .382.0954.573.0954.286.0955.477.191.573.3819.095.1909.191.5727.191 1.05 0 .4773-.191 1.1455-.573 2.1001.955.0954 1.718 0 2.291-.1909.573-.191 1.05-.3819 1.336-.6682.382-.2864.573-.4773.669-.7637.095-.2864.19-.3818.286-.4773.095-.1909.191-.1909.382-.2864.191 0 .286 0 .382.0955.095.0954.19.1909.286.3818.095.1909 0 .2864-.096.4773-.19.3818-.572.7637-.954 1.1455-.382.3818-.859.5728-1.432.7637-.573.1909-1.145.3818-1.814.3818-.668 0-1.336.0955-1.909 0-.382.6682-.859 1.4319-1.432 2.291-.572.8591-1.241 1.6228-1.909 2.291-.668.6682-1.527 1.2409-2.291 1.6228-.859.3818-1.623.5727-2.482.3818-1.145-.1909-2.004-.7637-2.577-1.7182-.573-.9546-.859-2.0047-.764-3.2456.096-.9546.287-1.9092.573-2.8638.286-.9545.668-1.9091 1.241-2.8637.477-.9546 1.145-1.8137 1.814-2.5774.668-.7636 1.431-1.5273 2.195-2.1.859-.5728 1.718-.9546 2.578-1.241.954-.2864 1.813-.2864 2.768-.1909.382.0955.763.1909 1.05.3818.286.1909.477.3819.668.6682.191.2864.286.5728.382.8592.095.8591.095 1.1454.095 1.3364z"/>
  <path fill="var(--fg)" d="M147.249 82.4256c-.191.3818-.572.8591-1.05 1.5273-.477.6682-.954 1.241-1.527 2.0046-.573.6682-1.145 1.4319-1.814 2.1001-.668.6682-1.336 1.3364-2.004 1.9092-.669.5727-1.337 1.05-2.005 1.3364-.668.2864-1.241.4773-1.814.3818-.477 0-.859-.1909-1.145-.4773-.286-.2863-.573-.5727-.668-.9546-.096-.3818-.191-.8591-.191-1.4318 0-.5728.095-1.1455.191-1.7183.191-.7636.668-1.7182 1.336-3.0546.668-1.3364 1.432-2.7683 2.291-4.2956.859-1.5274 1.814-3.1501 2.768-4.6775.955-1.6227 1.814-3.0546 2.578-4.391.763-1.3364 1.432-2.4819 1.813-3.4365.478-.9546.573-1.4319.478-1.6228-.096-.1909-.096-.2864.286-.4773.382-.1909.764-.1909 1.146-.1909.477 0 .954.1909 1.336.4773.477.2864.764.7636.859 1.5273.096.5728-.095 1.241-.477 2.1955-.382.9546-.859 2.0047-1.528 3.1502-.668 1.1454-1.431 2.3864-2.29 3.7228-.86 1.3364-1.719 2.6728-2.578 4.0092-.859 1.3365-1.718 2.5774-2.482 3.7229-.763 1.241-1.432 2.291-1.909 3.1501-.477.9546-.859 1.6228-.954 2.1956-.096.5727-.001.8591.381.8591.191 0 .573-.0955.955-.3819.382-.2863.859-.6682 1.336-1.1454.478-.4773 1.05-1.0501 1.623-1.6228.573-.5728 1.05-1.241 1.527-1.8137.478-.5728.955-1.1455 1.337-1.7183.382-.5727.668-1.05.859-1.3364.095-.1909.191-.2864.382-.2864s.286 0 .477.0955c.096.0955.191.1909.286.2864.287.0954.287.1909.191.3818z"/>
  <path fill="var(--fg)" d="M153.836 85.1939c-.477.5728-.955 1.241-1.527 1.9092-.573.6682-1.241 1.3364-1.91 2.1001-.668.6682-1.336 1.3364-2.004 1.8137-.668.4772-1.337.9545-2.005 1.2409-.668.2864-1.241.3818-1.814.2864-.477-.0955-.859-.1909-1.145-.4773-.286-.2864-.477-.5728-.668-1.05-.096-.3819-.191-.8592-.191-1.4319 0-.5728.095-1.1455.286-1.7183.191-.7636.573-1.5273.955-2.2909.382-.7637.859-1.6228 1.336-2.3865.477-.7637.955-1.5273 1.432-2.291.477-.7636.859-1.3364 1.241-2.0046.382-.5727.668-1.1455.859-1.5273.191-.3819.191-.7637.096-.8591-.096-.191 0-.2864.286-.4773.382-.0955.764-.191 1.145-.0955.478.0955.955.1909 1.337.5728.477.2863.763.8591.859 1.5273.095.6682-.096 1.5273-.477 2.3864-.382.8591-.955 1.8137-1.623 2.7683-.668.9546-1.337 1.9092-2.1 2.7683-.764.8591-1.337 1.7182-1.814 2.4819-.477.7637-.859 1.3364-.954 1.8137-.096.4773.095.6682.572.7637.191 0 .573-.0955.955-.3819.382-.2863.859-.6682 1.432-1.1455.572-.4773 1.05-.9546 1.623-1.6228.572-.5727 1.145-1.1454 1.622-1.7182.478-.5727.955-1.1455 1.432-1.7182.477-.5728.764-.9546.955-1.3365.095-.1909.191-.2863.382-.2863.19 0 .286 0 .477.0954.095.0955.191.1909.286.2864.096.1909 0 .2864-.095.4773-.382.3818-.764.8591-1.241 1.5273z"/>
  <path fill="var(--fg)" d="M151.068 74.5026c-.096.2864-.191.4773-.382.5728-.191.0954-.382-.0001-.478-.0955-.095-.0955-.286-.3818-.286-.7637-.095-.3818 0-.8591.191-1.4318.286-.9546.764-1.6228 1.527-2.0047.764-.3818 1.623-.5727 2.673-.4772 1.05.0954 1.527.1909 2.768.4772 1.337.2864 2.673.6683 4.01 1.0501.572-.9546 1.05-1.7183 1.336-2.3865.286-.6682.382-1.05.286-1.1455-.095-.1909 0-.2863.287-.3818.382-.0954.763-.1909 1.241-.0955.477.0955.859.2864 1.336.5728.477.2864.668.8591.764 1.5273.095.3819 0 .7637-.191 1.3364-.191.5728-.477 1.1455-.764 1.7183.955.1909 2.005.3818 2.959.5727 1.05.1909 1.91.1909 2.769.2864.859 0 1.527 0 2.004-.0955.573-.0954.859-.2863.859-.5727.096-.3818.191-.4773.382-.4773s.382.1909.573.3818c.191.1909.286.4773.286.7637 0 .2864-.095.5727-.477.7637-.382.1909-.859.3818-1.527.5727-.668.0955-1.528.1909-2.482.1909-.955 0-2.005 0-3.055-.0954-1.145-.0955-2.291-.1909-3.436-.3819-.764 1.1455-1.528 2.3865-2.482 3.6274-.955 1.241-1.909 2.5774-2.864 3.9138-.954 1.3364-1.814 2.4819-2.768 3.7229-.955 1.2409-1.623 2.1955-2.196 3.1501-.572.9546-.954 1.6228-1.145 2.1955-.191.5728-.096.8591.382.8591.191 0 .572-.0954.954-.3818s.859-.6682 1.432-1.05c.573-.4773 1.05-.9546 1.718-1.5274.669-.5727 1.146-1.1454 1.719-1.7182.572-.5727 1.05-1.1455 1.431-1.6228.382-.5727.764-.9546.955-1.3364.095-.1909.191-.2864.382-.2864s.286 0 .477.0955c.096.0954.191.1909.287.2864.095.1909 0 .2863-.096.4773-.286.3818-.573.8591-1.05 1.4318-.477.5728-1.05 1.241-1.623 1.9092-.573.6682-1.241 1.3364-2.004 2.0046-.764.6682-1.432 1.241-2.1 1.8137-.669.5727-1.337.9546-2.005 1.241-.668.2863-1.241.3818-1.814.2863-.477-.0954-.859-.1909-1.145-.4773-.287-.2863-.478-.5727-.668-1.05-.191-.4773-.191-.8591-.096-1.4319 0-.5727.096-1.1455.382-1.7182.191-.6682.668-1.6228 1.336-2.7683.669-1.1455 1.528-2.4819 2.387-3.9138.859-1.4318 1.813-2.8637 2.863-4.391 1.051-1.5274 1.91-2.8638 2.769-4.2002-1.146-.1909-2.291-.3818-3.341-.5727-1.05-.191-1.337-.2864-2.1-.2864-.859 0-1.528.0954-2.1.2864-.573.1909-.86.4773-1.05 1.05z"/>
  <path fill="var(--fg)" d="M170.732 82.9984c.095-.1909.095-.2864.286-.4773.191-.1909.287-.1909.478-.2863-.096-.2864-.191-.4773-.478-.5728-.286-.0955-.668 0-1.145.1909-.478.1909-.955.5728-1.528 1.0501-.572.4773-1.241 1.05-1.909 1.8137-.668.7636-1.336 1.5273-2.1 2.4819-.477.5727-.859 1.2409-1.241 1.9091-.382.6682-.668 1.4319-.859 2.1001-.191.6682-.286 1.3364-.191 1.8137 0 .5728.191.9546.573 1.241.286.1909.573.2863 1.05.1909.382-.0955.859-.3819 1.241-.6682.477-.3819.955-.7637 1.432-1.241.477-.4773 1.05-1.05 1.527-1.6228.477-.5727 1.05-1.1455 1.527-1.7182.478-.5728.955-1.1455 1.337-1.6228.477-.6682.954-1.2409 1.432-1.9092.477-.6682.859-1.1455 1.145-1.6227.382-.4773.573-.8592.764-1.241.191-.3818.191-.5727.095-.7637-.095-.1909 0-.2863.382-.3818.382-.0955.764-.0955 1.241 0 .477.0955.859.2864 1.337.6682.477.3818.668.8591.668 1.6228.095.6682-.191 1.5273-.668 2.3864-.478.8592-1.146 1.7183-1.814 2.6729-.764.8591-1.527 1.7182-2.291 2.6728-.764.9546-1.432 1.6228-2.005 2.291-.573.6682-.954 1.2409-1.05 1.7182-.095.4773 0 .6682.573.7637.191 0 .573-.0955.955-.2864.381-.1909.954-.5727 1.527-1.05.573-.3818 1.145-.8591 1.718-1.4319.573-.5727 1.241-1.05 1.718-1.6228.573-.5727 1.05-1.05 1.528-1.6228.477-.5727.763-.9545 1.05-1.2409.095-.1909.286-.2864.382-.2864.19 0 .286 0 .477.0955.191.0954.191.1909.286.3818.096.1909 0 .2864-.095.3818-.287.2864-.668.7637-1.146 1.3364-.477.5728-1.05 1.1455-1.718 1.8137-.668.6683-1.336 1.241-2.005 1.9092-.763.6682-1.431 1.1455-2.195 1.7183-.764.4772-1.432.8591-2.1 1.1454-.668.2864-1.337.2864-1.814.191-.859-.191-1.432-.6682-1.718-1.5274-.287-.8591-.191-1.8137.191-2.9592-.573.5728-1.146 1.1455-1.814 1.6228-.668.4773-1.241.7637-1.814.9546-.572.1909-1.241.2864-1.909.1909-.668-.0954-1.241-.3818-1.909-.8591-.859-.5727-1.336-1.241-1.527-2.1001-.191-.7636-.287-1.6228-.096-2.4819.191-.8591.382-1.7182.859-2.4819.382-.8591.859-1.6228 1.337-2.291.859-1.2409 1.718-2.291 2.673-3.0546.954-.7637 1.813-1.4319 2.672-1.9092.86-.4773 1.719-.6682 2.578-.7637.859-.0954 1.718 0 2.482.191.286.0954.572.1909.859.3818.286.1909.573.3818.763.5727.191.191.382.5728.478.8592.095.2863.095.7636 0 1.1455-.096.4772-.287.7636-.573.9545-.191.1909-.477.1909-.764.0955-.286-.0955-.477-.1909-.668-.4773-.477-.3818-.573-.6682-.477-.9546z"/>
  <path fill="var(--fg)" d="M192.305 90.635c-.286.7636-.668 1.5273-1.24 2.1955-.573.7637-1.146 1.4319-1.719 2.1001-.572.6682-1.241 1.3364-1.813 1.9091-.573.5728-1.05 1.1455-1.432 1.6228-.382.4773-.573.8591-.669 1.1455-.095.2864.096.573.573.668.191.096.573 0 .955-.191.382-.1906.954-.477 1.527-.8588.573-.3819 1.146-.8592 1.814-1.3364.668-.4773 1.241-1.0501 1.909-1.5274.573-.4773 1.146-1.05 1.623-1.5273.477-.4773.859-.8591 1.145-1.241.096-.1909.287-.1909.382-.1909.191 0 .287.0955.382.0955.095 0 .191.1909.191.3818s0 .2864-.191.3819c-.286.2863-.668.7636-1.241 1.3364-.573.5727-1.145 1.1455-1.814 1.7182-.668.5728-1.432 1.1455-2.195 1.8137-.764.5728-1.528 1.1453-2.291 1.5273-.764.477-1.528.764-2.196 1.05-.668.191-1.336.286-1.813.096-.478-.096-.764-.287-1.051-.669-.19-.286-.381-.763-.477-1.1452-.095-.3818-.095-.9545 0-1.4318.096-.4773.191-1.0501.477-1.5274.382-.8591.86-1.7182 1.432-2.4819.573-.7636 1.146-1.5273 1.814-2.1955.668-.6682 1.146-1.3364 1.718-1.9092.573-.5727 1.05-1.05 1.337-1.5273.286-.4773.477-.7637.572-1.05.096-.2864-.19-.4773-.668-.5728-.286-.0954-.668 0-1.241.2864-.572.2864-1.145.5727-1.813.9546-.669.3818-1.432.8591-2.1 1.3364-.764.4773-1.432 1.05-2.005 1.5273-.668.7637-1.336 1.4319-2.1 2.1955-.764.6683-1.337 1.3365-1.909 2.0047-.573.6682-1.05 1.2409-1.337 1.7182-.382.5728-.477.9546-.382 1.3364 0 .1909-.095.3819-.381.4773-.287.0955-.573.0955-.955 0-.382-.0954-.668-.2864-1.05-.6682-.286-.3818-.477-.8591-.477-1.6228 0-.5727.191-1.2409.668-2.1001.477-.7636 1.05-1.6227 1.718-2.4819.668-.8591 1.432-1.7182 2.196-2.6728.763-.8591 1.527-1.7182 2.1-2.4819.573-.7637 1.145-1.4319 1.527-2.0046.382-.5728.477-.9546.382-1.1455-.096-.1909 0-.2864.382-.3818.382-.0955.763-.0955 1.241.0954.477.0955.859.3819 1.241.7637.381.3818.572.8591.572 1.6228 0 .2863-.095.6682-.191.9546-.095.2863-.286.6682-.477 1.05.573-.3818 1.146-.6682 1.718-1.05.573-.2864 1.146-.5728 1.623-.7637.573-.1909 1.05-.2864 1.528-.3818.477-.0955.954-.0955 1.336.0954.859.1909 1.432.7637 1.527 1.7183.287.7636.096 1.8137-.382 2.9592zM62.2919 110.108c-.1909.191-.2864.477-.5727.668-.191.191-.4773.382-.7637.573-.2864.191-.5728.286-.9546.381-.3818.096-.6682.096-1.1455.096-.6682 0-1.2409-.096-1.8137-.382-.5727-.191-1.05-.573-1.4318-.955-.3819-.381-.7637-.859-.9546-1.431-.1909-.573-.3819-1.146-.3819-1.814 0-.668.0955-1.241.3819-1.814.1909-.573.5727-1.05.9546-1.432.3818-.382.8591-.763 1.4318-.954.5728-.191 1.1455-.382 1.8137-.382.2864 0 .6682 0 .9546.095.2864.096.5727.191.8591.287.2864.095.4773.286.7637.477.2864.191.3818.382.5727.573l-.7636.573c-.0955-.096-.1909-.287-.3819-.382-.1909-.096-.2863-.287-.5727-.382-.1909-.096-.4773-.191-.6682-.287-.1909-.095-.4773-.095-.7637-.095-.5727 0-1.05.095-1.5273.286-.4773.191-.8591.478-1.1455.86-.2864.381-.5728.763-.7637 1.24-.1909.478-.2863.955-.2863 1.432 0 .478.0954.955.2863 1.432.1909.478.3819.859.7637 1.241.2864.382.6682.668 1.1455.859.4773.191.9546.287 1.5273.287.4773 0 .9546-.096 1.4319-.287.4773-.191.8591-.572 1.1455-.954l.8591.191zM76.2284 107.149c0 .668-.0954 1.241-.3818 1.814-.1909.573-.5728 1.05-.9546 1.432-.3818.382-.8591.763-1.4319.954-.5727.191-1.1455.382-1.8137.382-.6682 0-1.2409-.095-1.8137-.382-.5727-.191-1.05-.572-1.4318-.954-.3819-.382-.7637-.859-.9546-1.432-.1909-.573-.3818-1.146-.3818-1.814 0-.668.0954-1.336.3818-1.813.1909-.573.5727-1.05.9546-1.432.3818-.382.8591-.764 1.4318-.955.5728-.191 1.1455-.382 1.8137-.382.6682 0 1.241.096 1.8137.382.5728.191 1.0501.573 1.4319.955.3818.382.7637.859.9546 1.432.2864.572.3818 1.145.3818 1.813zm-.9546 0c0-.477-.0954-.954-.2863-1.432-.191-.477-.3819-.859-.7637-1.241-.3818-.381-.6682-.668-1.1455-.859-.4773-.191-.9546-.286-1.5273-.286-.5728 0-1.0501.095-1.5274.286-.4772.191-.8591.478-1.1455.859-.2863.382-.5727.764-.7636 1.241-.1909.478-.2864.955-.2864 1.432 0 .478.0955.955.2864 1.432s.3818.859.7636 1.241c.2864.382.6683.668 1.1455.859.4773.191.9546.287 1.5274.287.5727 0 1.05-.096 1.5273-.287.4773-.191.8591-.477 1.1455-.859s.5727-.764.7637-1.241c.1909-.382.2863-.859.2863-1.432zM89.3066 110.108c-.191.191-.2864.478-.5728.669-.1909.191-.4773.381-.7637.572-.2863.191-.5727.287-.9545.382-.3819.096-.6682.096-1.1455.096-.6682 0-1.241-.096-1.8137-.382-.5728-.191-1.0501-.573-1.4319-.955-.3818-.382-.7637-.859-.9546-1.432-.1909-.572-.3818-1.145-.3818-1.813 0-.669.0954-1.241.3818-1.814.1909-.573.5728-1.05.9546-1.432.3818-.382.8591-.764 1.4319-.954.5727-.191 1.1455-.382 1.8137-.382.2863 0 .6682 0 .9546.095.2863.096.5727.191.8591.287.2863.095.4773.286.7636.477.2864.191.3819.382.5728.573l-.7637.572c-.0954-.095-.1909-.286-.3818-.382-.1909-.095-.2864-.286-.5728-.381-.1909-.096-.4772-.191-.6682-.287-.1909-.095-.4773-.095-.7636-.095-.5728 0-1.0501.095-1.5274.286-.4772.191-.8591.477-1.1455.859-.2863.382-.5727.764-.7636 1.241-.1909.478-.2864.955-.2864 1.432s.0955.955.2864 1.432.3818.859.7636 1.241c.2864.382.6683.668 1.1455.859.4773.191.9546.286 1.5274.286.4773 0 .9546-.095 1.4318-.286.4773-.191.8592-.573 1.1455-.954l.8592.19zM95.5115 106.767l4.2001-3.913h1.2414l-4.3915 4.009 4.6775 4.773h-1.3365l-4.391-4.678v4.678h-.8592v-8.782h.8592v3.913zM108.971 111.54h-.859v-8.018h-2.959v-.764h6.777v.764h-2.959v8.018zM117.371 111.54h-.954l3.818-8.782h.859l3.818 8.782h-.954l-.955-2.291h-4.582l-1.05 2.291zm1.336-3.15h3.914l-1.909-4.677-2.005 4.677zM131.021 111.54h-.859v-8.782h.859v8.782zM138.085 110.777h4.105v.763h-4.964v-8.782h.859v8.019zM151.64 104.19c-.191-.286-.477-.477-.763-.668-.287-.191-.669-.287-1.05-.287-.191 0-.478 0-.669.096-.19.095-.381.191-.572.286-.191.096-.287.287-.478.478-.191.19-.191.477-.191.763 0 .287.096.478.191.668.096.191.287.382.382.478.191.095.382.191.573.286.191.096.477.191.668.286.287.096.573.191.955.287.286.095.572.286.859.477.286.191.477.382.573.668.191.287.191.669.191 1.05 0 .382-.096.86-.287 1.146-.191.286-.382.573-.668.764-.286.19-.573.381-.955.477-.381.095-.668.191-1.05.191-.286 0-.572 0-.763-.096-.287-.095-.478-.095-.764-.286-.286-.096-.477-.286-.668-.382l-.573-.573.764-.572c.191.286.477.572.763.763.382.191.764.287 1.241.287.191 0 .478 0 .669-.096.19-.095.477-.191.668-.286.191-.191.382-.287.477-.573.095-.191.191-.477.191-.764 0-.286-.096-.572-.191-.763-.095-.191-.286-.382-.477-.478-.191-.095-.382-.286-.668-.381-.287-.096-.573-.191-.764-.287-.287-.095-.573-.191-.859-.286-.287-.096-.573-.287-.764-.477-.191-.191-.382-.382-.573-.669-.095-.286-.191-.572-.191-1.05 0-.381.096-.763.287-1.05.191-.286.382-.572.668-.763.286-.191.573-.382.955-.478.286-.095.668-.095.954-.095.573 0 1.146.095 1.527.286.382.191.764.478.955.764l-.573.859z"/>
  <path stroke="currentColor" stroke-linecap="round" stroke-linejoin="round" stroke-width=".9298" d="M83.5794 19.9007c-.7637-.4773-1.6228.4773-1.4319 1.3364.191 1.05 1.5274 1.9092 2.8638 1.2409 2.1955-1.1454 2.1001-4.7728-2.7683-4.8683-4.4865-.1909-12.2186 3.1501-12.2186 3.1501l-.7637.1909-3.5319-16.13237c-.0955-.38183-.3819-.57275-.7637-.47729l-6.3002 1.14549c-.1909 0-.2864.09546-.3818.28638-.0955.09545-.0955.28637-.0955.47729l3.4365 14.4141-.8591.191c-.3819.0954-.5728.3818-.4773.7636l.8591 3.532c-.7637.2863-1.5273.6682-2.291.9546L47.5918 8.92302c-.191-.28637-.5728-.38183-.8592-.19092l-.1909-.28637c-.1909-.28637-.5727-.38183-.8591-.19092l-1.3364.66821-1.9092 1.14548-1.2409.7637h-.0955c-.2864.1909-.3818.5727-.1909.8591l.1909.2864c-.2864.1909-.3818.5727-.1909.8591l10.214 15.5596-1.9092 1.1455-8.4003-12.6004c-.1909-.2864-.5727-.3818-.8591-.1909l-.1909-.2864c-.1909-.2864-.5727-.3818-.8591-.1909h-.0955l-1.2409.7636-1.9092 1.1455-1.2409.7637c-.0955.0955-.1909.1909-.1909.3818 0 .191-.0001.2864.0954.4773l.1909.2864c-.2864.1909-.3818.5727-.1909.8591l7.5412 11.2641-.5728.3818c-.2863.1909-.3818.5727-.1909.8591l1.6228 2.4819c-1.1455.7637-2.1955 1.6228-3.1501 2.5774l-5.8229-4.7729c-.2864-.1909-.6682-.1909-.8592 0l-.9545 1.05-.5728-.4773c-.2864-.1909-.6682-.1909-.8591 0l-.6682.6682c-.0955.0955-.1909.2864-.1909.4773 0 .1909.0954.2864.1909.4773l.5727.4773c-.1909.1909-.1909.3818-.0954.5728l-.9546 1.05c-.0955.0955-.0955.6682 0 .7637l-.2864.2863c-.1909.1909-.1909.4773 0 .7637l-.2864.2864-1.3364-1.1455c-.1909-.1909-.4773-.1909-.7636-.0955l-1.9092-1.6228c-.0954-.0954-.1909-.0954-.2864-.1909l-1.1455-.1909c-.1909 0-.4772 0-.5727.1909-.0955.1909-.1909.3818-.0955.5728l.3819 1.05c0 .0955.0954.1909.1909.2864l2.0046 1.7182v.1909c0 .191.0955.2864.1909.4773l1.3364 1.1455-.8591.9546c-.0955.0955-.1909.2864-.1909.4773 0 .1909.0954.2864.1909.4773l4.8684 4.0092"/>
  <path stroke="currentColor" stroke-linecap="round" stroke-miterlimit="10" stroke-width=".9298" d="M116.989 61.8068c3.532.0954 7.16-.8592 10.214-2.6729 1.241-.7636 2.387-1.6228 2.864-2.9592.477-1.3364.095-3.0546-1.241-3.6274-1.623-.6682-3.436 1.0501-3.436 2.7683 0 1.7183 1.336 3.2456 2.768 4.2956 3.436 2.4819 8.209 2.9592 12.028 1.3364M67.542 61.8068c3.5319.0954 7.1593-.8592 10.214-2.6729 1.2409-.7636 2.3864-1.6228 2.8637-2.9592.4773-1.3364.0955-3.0546-1.2409-3.6274-1.6228-.6682-3.4365 1.0501-3.4365 2.7683 0 1.7183 1.3364 3.2456 2.7683 4.2956 3.4365 2.4819 8.2094 2.9592 12.1231 1.3364"/>
  <path stroke="currentColor" stroke-linecap="round" stroke-linejoin="round" stroke-width=".9298" d="M121.858 19.8052c.668-.4773 1.623.4773 1.527 1.241-.191 1.05-1.432 2.0046-2.768 1.3364-2.291-1.0501-2.291-4.582 2.482-5.0593 4.486-.3818 12.887 2.6728 12.887 2.6728l5.059-14.2232c.095-.19092.191-.28638.286-.38184.191-.09545.287-.09545.478 0l.286.09546c.096-.28637.477-.38183.764-.28637l.763.28637c.191.09546.287.19092.382.28638.096.09545.096.28637.096.38183l.954.38183.191-.57275c.096-.28637.477-.47729.859-.38183l1.432.47729.573-1.62278c.095-.28638.477-.47729.764-.38184h.095c.191-.19091.477-.38183.764-.19091l1.622.57275c.287.09545.478.47729.382.76366l-.763 2.00462 1.432.47729c.381.09545.477.47729.381.76366l-.381 1.05004.572.19091c.382.09546.478.47733.382.76363l-4.964 13.8414c1.241.5728 2.482 1.1455 3.723 1.7183l6.682-10.7868c.096-.0954.764 0 .859 0h.191l1.432-2.291c.191-.2863.573-.3818.859-.1909h.096s1.527-1.9091 1.622-1.9091l1.241-.3819 2.864-3.72282c.191-.19092.382-.28638.668-.19092l2.578-4.10469c.095-.09546.191-.19092.286-.28638l.477-.19091c.191-.09546.382-.09546.573.09546.191.09545.287.28637.287.47729v.47729c0 .09545 0 .28637-.096.38183l-2.577 4.10469h.095c.191.19092.287.47729.191.66821l-1.814 4.39105.191 1.05c0 .0955-.763 2.291-.763 2.291.286.191.381.5728.191.8592l-1.432 2.291c.095.1909.763.7636.381 1.3364l-7.159 10.5003c.477.2864.955.6682 1.527 1.0501l3.342-4.2002c.095-.0954.286-.1909.381-.1909.096 0 .191 0 .382.0955l.287-.3819c.095-.0954 1.24-.1909 1.431-.0954l2.005 1.6228c.191-.0955.859-.3819.955-.2864l.859.6682c.191.1909-.096.7637-.191 1.05l.668.4773c.286.1909.286.5728.095.8591l-.381.3819-.096.0954-3.818 4.7729c.382.2864.764.6682 1.145 1.0501l8.782-7.5412c.096-.0955.287-.1909.478-.1909s.286.0954.477.1909l.955 1.05c.191.2864-.382 1.241-.669 1.4319h-.095l.286.2864c.191.1909 1.146 1.3364 1.337 1.4318l.191.191 1.05-.9546c.095-.0955.954-.7637 1.145-.7637.191 0 .382.0955.478.1909l.954 1.0501c.191.2863.191.6682-.095.8591l-1.241 1.05.763 1.3364c.191.191.191.5728 0 .7637l.191.2864c.096.0954.191.2863.191.4773 0 .1909-.095.2863-.191.3818 0 0-.668.9546-.859 1.1455h-.095l.191.1909c.095.0955.191.2864.191.4773 0 .1909-.096.2864-.191.3818l-5.919 5.0593-.095.0955"/>
  <path fill="currentColor" d="M203.093 8.15938l-.573-.28638c-.191-.09546-.286-.19091-.477-.28637-.191-.09546-.382-.09546-.669-.09546-.286 0-.668.09546-.954.09546.095-.47729.095-.95458.191-1.43187-.191-.38183-.382-.76366-.573-1.24095.382-.09546.668-.09546.955-.09546.572-.09546.572-.09546.859-.47729.191-.19092.382-.38183.573-.57275l.095.09546c.191.38183.382.6682.573 1.05004.095.09545.191.09545.286.19091.286.19092.573.28638.955.47729-.191.19092-.382.38183-.478.57275-.191.19092-.381.38183-.572.57275 0 .38183-.096.85912-.191 1.43187zM203.952 25.5327c.477-.1909.859-.3818 1.336-.5727 0 .2863.096.5727.096.8591s.095.5727.381.7636c.287.191.478.4773.764.7637-.286.0955-.477.1909-.764.3818-.191.0955-.381.0955-.477.191-.095 0-.191.0954-.191.1909-.191.2863-.382.5727-.477.9546 0 .0954-.096.0954-.096.1909-.095-.0955-.095-.0955-.191-.1909-.19-.2864-.381-.4773-.572-.7637-.096-.0955-.191-.0955-.287-.1909-.286-.0955-.668-.0955-.954-.1909-.096 0-.191 0-.287-.0955.191-.4773.478-.8591.669-1.241-.096-.4772-.096-.9545-.191-1.4318.286.1909.763.2864 1.241.3818zM196.22 33.7422c-.382-.2863-.668-.6682-1.05-1.05-.382-.0955-.859-.0955-1.337-.1909.191-.4773.478-.8591.669-1.241-.096-.4773-.096-.9546-.191-1.4318h.191c.286 0 .572.0954.859.1909.286.0954.573 0 .763-.1909.191-.191.478-.2864.764-.4773 0 .1909.096.4773.096.6682 0 .1909.095.4773.095.6682 0 .0954.096.2863.191.2863.286.2864.573.5728.859.8592-.095.0954-.191.1909-.286.1909-.287.0954-.573.1909-.764.2864-.191.0954-.286.1909-.382.3818-.095.3818-.286.6682-.477 1.05zM188.488 7.68218c-.478.09546-.955.09546-1.432.19092 0-.47729.191-.85912.286-1.33641-.191-.38184-.477-.85913-.668-1.24096.477-.09546.954-.09546 1.432-.19091.382-.28638.668-.66821 1.05-1.05004.095.28637.286.57275.382.76366.095.19092.095.28638.19.47729 0 .09546.096.09546.191.19092.287.19091.573.38183.86.47729.095 0 .095.09546.19.09546v.09545c-.286.19092-.477.38184-.763.66821-.191.09546-.287.28637-.287.47729 0 .38183-.095.76366-.095 1.1455-.191-.09546-.382-.19092-.668-.28638-.191-.19091-.478-.28637-.668-.47729zM180.565 10.8323c.382-.3818.668-.6682 1.05-1.05004.286.47724.382.85914.668 1.33644.382.1909.764.3818 1.145.5727-.095.0955-.191.1909-.286.2864-.191.1909-.382.3818-.668.5727-.096.0955-.191.2864-.191.4773 0 .3819-.096.6682-.096 1.0501-.477-.191-.859-.4773-1.336-.6682-.477.0954-.955.0954-1.432.1909 0-.2864.096-.4773.096-.7637 0-.2864.095-.4773.095-.6682-.191-.3818-.382-.7637-.668-1.2409.668.0954 1.145 0 1.623-.0955zM200.038 18.6599c0-.2864-.096-.5728-.096-.8592.287 0 .478.0955.764.0955.286-.0955.477-.2864.764-.2864.095.2864.095.5728.095.8592l.573.5727c-.191.1909-.477.1909-.764.4773-.095.0955-.191.2864-.382.4773-.19-.0955-.381-.3819-.572-.5728-.191 0-.478-.0954-.669-.0954 0-.2864.191-.3819.287-.6682zM194.406 7.9685c-.096-.19092-.096-.47729-.096-.66821.287.09546.478.09546.764.09546.191-.09546.477-.19092.764-.38183.095.28637.095.47729.191.76366.095.28637.286.38183.381.57275-.191.19091-.381.19091-.668.28637-.095.19092-.286.47729-.382.76367-.095-.09546-.286-.19092-.381-.38184-.096-.09545-.287-.19091-.382-.28637-.191 0-.382-.09546-.573-.09546.095-.09546.191-.38183.382-.6682zM180.66 4.91384v-.85912c.287.09545.573.09545.764.19091.286-.09546.477-.28637.763-.38183 0 .28637 0 .47729.096.76366.191.19092.382.38184.573.57275-.191.09546-.382.19092-.573.19092-.096.09546-.191.09546-.286.28637-.096.19092-.191.38183-.287.57275-.095-.19092-.286-.28637-.382-.38183-.095-.09546-.286-.19092-.381-.28638-.096 0-.287-.09545-.478-.09545 0-.19092.191-.38184.191-.57275zM200.993 32.9786c.191 0 .382.0954.477.0954.191 0 .286 0 .477-.0954.096-.0955.287-.0955.478-.1909 0 .2863.095.5727.095.7636.191.1909.382.3819.477.5728-.286.0954-.477.2863-.763.3818-.096.1909-.191.4773-.287.6682-.191-.1909-.382-.3818-.668-.6682-.191 0-.382 0-.668-.0955v-.1909c.191-.3818.286-.6682.191-1.1455.191 0 .191 0 .191-.0954zM207.77 13.6005c-.191.0955-.382.1909-.573.1909-.191.0955-.286.2864-.382.4773-.095.0955-.095.1909-.191.2864-.19-.1909-.286-.3818-.572-.5728-.191 0-.478-.0954-.764-.0954.096-.2864.286-.4773.286-.7637.096-.1909 0-.4773 0-.7636.191 0 .287.0954.382.0954.191.0955.382 0 .668-.0954.096-.0955.287-.0955.382-.191v.5728c0 .0954 0 .1909.191.2864.287.2863.478.3818.573.5727z"/>
  <path stroke="currentColor" stroke-linecap="round" stroke-miterlimit="10" stroke-width=".9298" d="M179.801 28.6828c3.914-1.9092 10.214-4.4865 17.755-3.4365M181.232 29.6373c2.578-.6682 6.587-.4773 8.305.2864M178.941 27.5373c3.151-2.9592 7.828-7.923 9.546-15.3687M178.655 25.8191c1.528-2.1955 2.769-6.0139 2.673-7.8276M186.865 22.5736c3.723-2.6729 9.259-6.9685 10.786-9.3549"/>
  <path fill="currentColor" d="M5.20824 8.25477c.19091-.09545.38183-.19091.57275-.28637.19091-.09546.28637-.19092.47729-.28637.19091-.09546.38183-.09546.6682-.09546.28638 0 .66821.09546.95458.09546-.09546-.47729-.09546-.95458-.19091-1.43187.19091-.38183.38183-.76367.57274-1.24096-.38183-.09545-.6682-.09545-.95458-.09545-.57274-.09546-.57274-.09546-.85912-.47729-.19091-.19092-.38183-.38184-.57275-.57275l-.09545.09546c-.19092.38183-.38184.6682-.57275 1.05003-.09546.09546-.19092.09546-.28638.19092-.28637.19092-.57274.28637-.95457.47729.19091.19092.38183.38183.47728.57275.19092.19091.38184.38183.57275.57275 0 .47729.09546.95458.19092 1.43186zM4.25363 25.6281c-.47729-.1909-.85912-.3818-1.33641-.5727 0 .2863-.09546.5727-.09546.8591s-.09545.5727-.38183.7636c-.28637.191-.47729.4773-.76366.7637.28637.0955.47729.1909.76366.3818.19092.0955.38184.0955.47729.191.09546 0 .19092.0954.19092.1909.19091.2863.38183.5727.47729.9546 0 .0954.09546.0954.09546.1909.09545-.0955.09545-.0955.19091-.1909.19092-.2864.38183-.4773.57275-.7637.09546-.0955.19092-.0955.28637-.1909.28638-.0955.66821-.0955.95458-.1909.09546 0 .19092 0 .28638-.0955-.19092-.4773-.47729-.8591-.66821-1.241.09546-.4772.09546-.9545.19092-1.4318-.28638.1909-.76367.2863-1.24096.3818zM11.9858 33.8376c.3819-.2863.6682-.6682 1.0501-1.05.3818-.0955.8591-.0955 1.3364-.1909-.1909-.4773-.4773-.8591-.6682-1.241.0954-.4773.0954-.9546.1909-1.4318h-.1909c-.2864 0-.5728.0954-.8592.1909-.2863.0954-.4772 0-.7636-.1909-.2864-.191-.4773-.2864-.7637-.4773 0 .1909-.0954.4773-.0954.6682 0 .1909-.0955.4773-.0955.6682 0 .0954-.0955.2863-.1909.2863-.2864.2864-.5728.5728-.8591.8592.0954.0954.1909.1909.2863.1909.2864.0954.4773.1909.7637.2864.1909.0954.2864.1909.3818.3818.0955.3818.2864.7637.4773 1.05zM19.7175 7.87298c.4773.09545.9546.09546 1.4319.19091 0-.47729-.1909-.85912-.2864-1.33641.1909-.38183.4773-.85912.6682-1.24095-.4773-.09546-.9546-.09546-1.4319-.19092-.3818-.28637-.6682-.6682-1.05-1.05004-.0955.28638-.2864.57275-.3818.76367-.0955.09546-.0955.28637-.191.38183 0 .09546-.0954.09546-.1909.19092-.2863.19091-.5727.38183-.9545.47729-.0955 0-.0955.09545-.191.09545v.09546c.2864.19092.4773.38183.7637.66821.1909.09546.2864.28637.2864.47729 0 .38183.0954.76366.0954 1.14549.1909-.09545.3819-.19091.6682-.28637.3819-.19092.5728-.28638.7637-.38183zM27.6406 11.0231c-.3818-.3818-.6682-.6682-1.05-1.05005-.2864.47725-.3819.85915-.6682 1.33645-.3819.1909-.7637.3818-1.1455.5727.0954.0955.1909.1909.2863.2864.1909.1909.3819.3818.6682.5727.0955.0955.191.2864.191.4773 0 .3819.0954.6682.0954 1.0501.4773-.191.8591-.4773 1.3364-.6682.4773.0954.9546.0954 1.4319.1909 0-.2864-.0955-.4773-.0955-.7637 0-.2864-.0954-.4773-.1909-.6682.1909-.3818.3818-.7637.6682-1.241-.5727 0-1.05 0-1.5273-.0954zM8.26267 18.8507c0-.2864.09546-.5728.09546-.8592-.28637 0-.47729.0955-.76366.0955-.28638-.0955-.47729-.2864-.76367-.2864-.09545.2864-.09545.5728-.09545.8592-.19092.1909-.38184.3818-.57275.5727.19091.1909.47729.1909.76366.4773.09546.0954.19092.2864.38183.4773.19092-.0955.38184-.3819.57275-.5728.19092 0 .47729-.0954.66821-.0954 0-.2864-.28638-.4773-.28638-.6682zM13.7991 8.15929c0-.19091.0954-.47729.0954-.6682-.2864.09545-.4773.09545-.7637.09545-.1909-.09545-.4772-.19091-.7636-.38183-.0955.28638-.0955.47729-.1909.76367-.0955.19091-.2864.38183-.3819.57274.1909.19092.3819.19092.6682.28638.0955.19091.2864.47729.4773.76366.0955-.09546.2864-.19091.3819-.38183.0954-.09546.2863-.19092.3818-.28637.1909 0 .3818-.09546.5727-.09546-.1909-.19092-.2863-.38183-.4772-.66821zM27.5451 5.10463v-.85912c-.2863.09546-.4772.09546-.7636.19092-.2864-.09546-.4773-.28638-.7637-.38183 0 .28637 0 .47729-.0954.76366-.191.19092-.3819.38183-.5728.57275.1909.09546.3818.19091.5728.19091.0954.09546.1909.09546.2863.28638.0955.19091.1909.38183.2864.57275.1909-.19092.2864-.28638.3818-.38184.0955-.09545.2864-.19091.3819-.28637.1909 0 .2863-.09546.4773-.09546 0-.19091-.0955-.38183-.191-.57275zM7.30833 33.0739c-.19092 0-.38183.0954-.47729.0954-.19092 0-.28638 0-.47729-.0954-.09546-.0955-.28638-.0955-.47729-.1909 0 .2863-.09546.5727-.09546.7636-.19092.1909-.38183.3819-.47729.5728.28637.0954.47729.2864.76366.3818.09546.1909.19092.4773.28638.6682.19091-.1909.38183-.3818.6682-.6682.19092 0 .38184 0 .66821-.0954v-.191c-.19092-.3818-.28637-.6682-.19092-1.1455-.19091.0955-.19091 0-.19091-.0954zM.435059 13.6958c.190916.0955.381831.191.572751.191.19091.0954.28637.2863.38183.4773 0 .1909 0 .2863.19091.3818.19092-.1909.28638-.3818.57275-.5728.19092 0 .47729-.0954.76367-.0954-.09546-.2864-.28638-.4773-.28638-.7637-.09546-.1909 0-.4773 0-.7636-.19091 0-.28637.0954-.38183.0954-.19092.0955-.38183 0-.66821-.0954-.09545-.0955-.28637-.0955-.38183-.191v.5728c0 .0954 0 .1909-.19091.2864-.286378.1909-.381835.3818-.572751.4772z"/>
  <path stroke="currentColor" stroke-linecap="round" stroke-miterlimit="10" stroke-width=".9298" d="M30.2181 28.7783c-3.9138-1.9092-10.214-4.4866-17.7552-3.4365M28.7863 29.7328c-2.5774-.6682-6.5866-.4773-8.3049.2864M31.0775 27.6328c-3.1501-2.9592-7.8275-7.923-9.5458-15.3687M29.6453 25.9146c-1.5274-2.1955-2.7683-6.0139-2.6729-7.8276M23.1544 22.7645c-3.8183-2.6729-9.2594-6.9685-10.7867-9.3549"/>
  <path fill="currentColor" d="M100.189 65.2431c-3.7227 0-6.7774-3.0547-6.7774-6.7775 0-3.7229 3.0547-6.7775 6.7774-6.7775 2.673 0 4.964 1.5273 6.109 3.8183.287-.1909.573-.2864.764-.3818-1.241-2.5774-3.914-4.2957-6.873-4.2957-4.2 0-7.732 3.4365-7.732 7.6367 0 4.2001 3.4365 7.7321 7.732 7.7321 1.718 0 3.341-.5728 4.582-1.5273-.191-.191-.382-.4773-.573-.6683-1.05.6682-2.482 1.241-4.009 1.241z"/>
  <path fill="transparent" d="M109.066 55.5064c-2.768 0-4.963 2.1955-4.963 4.9638s2.195 4.9638 4.963 4.9638c2.769 0 4.964-2.1955 4.964-4.9638 0-2.6728-2.195-4.9638-4.964-4.9638z"/>
  <path fill="currentColor" d="M109.067 54.6472c-.669 0-1.337.0955-2.005.3819-.286.0954-.573.1909-.764.3818-1.813.9546-3.054 2.9592-3.054 5.1547 0 1.241.381 2.3865 1.05 3.3411.191.1909.382.4773.572.6682 1.05 1.1455 2.578 1.8137 4.201 1.8137 3.245 0 5.823-2.5774 5.823-5.823 0-3.2455-2.578-5.9184-5.823-5.9184zm0 10.7868c-2.769 0-4.964-2.1955-4.964-4.9638s2.195-4.9638 4.964-4.9638c2.768 0 4.963 2.1955 4.963 4.9638s-2.195 4.9638-4.963 4.9638z"/>
  <path fill="currentColor" stroke="currentColor" stroke-miterlimit="10" stroke-width=".4649" d="M109.066 59.3247c-.286 0-1.145-2.1001-.954-2.3865.191-.2864 1.336-.2864 1.623-.0955.191.2864-.478 2.482-.669 2.482zM110.021 60.1838c-.095-.1909 1.241-2.0046 1.623-2.0046.382 0 .954 1.05.859 1.3364-.096.2864-2.387.8591-2.482.6682zM109.926 61.2338c.095-.1909 2.386-.0954 2.577.1909.191.2864-.286 1.3364-.573 1.4319-.286.0955-2.1-1.3364-2.004-1.6228zM108.207 60.1838c.096-.1909-1.241-2.0046-1.622-2.0046-.382 0-.955 1.05-.86 1.3364 0 .2864 2.291.8591 2.482.6682zM108.207 61.2338c-.095-.1909-2.386-.0954-2.577.1909-.191.2864.286 1.3364.573 1.4319.286.0955 2.1-1.3364 2.004-1.6228zM109.066 61.902c.287 0 1.051 2.1001.86 2.3865-.191.2864-1.337.2864-1.623.0954-.191-.1909.477-2.4819.763-2.4819z"/>
  <path stroke="currentColor" stroke-linecap="round" stroke-miterlimit="10" stroke-width=".9298" d="M100.571 53.4063c-.096 0 1.813-2.6728-.096-5.2502"/>
  <path stroke="currentColor" stroke-linecap="round" stroke-linejoin="round" stroke-miterlimit="10" stroke-width=".9298" d="M101.43 49.3017c.191-.0954.286-.4772 1.718-1.2409.955-.4773 2.291-.3818 2.959-.0955.859.2864 1.241.6682 1.623 1.5274-.286.2863-.668.4772-1.05.6682-1.05.4773-2.482.5727-4.105-.2864-.286-.1909-.859-.6682-1.145-.5728z"/>
  <path stroke="currentColor" stroke-linecap="round" stroke-miterlimit="10" stroke-width=".9298" d="M99.3296 53.7882c.7634-.1909 1.5274-.2864 2.2914-.1909"/>
  <path fill="currentColor" d="M14.8496 56.2701c.0955.3818.3818.8591.8591 1.8137.1909.3818.5728.9546.9546 1.05.4773.0955.9546-.2863 1.241-.6682l2.0046-2.0046c-.8591-.5727-2.1001 0-2.7683.1909-1.3364.1909-2.291-.3818-2.291-.3818z"/>
  <path fill="currentColor" stroke="currentColor" stroke-linecap="round" stroke-linejoin="round" stroke-miterlimit="10" stroke-width=".6974" d="M12.3677 53.6928c0-.1909 0-.3818 1.5273-.2863.9546 0 2.1955.1909 3.5319.3818 1.3365.1909 2.5774.4773 3.532.6682 1.5273.3818 1.4319.5728 1.4319.6682v.0955c-.2864.2863-2.7683.0954-5.0593-.2864-2.291-.2864-4.7729-.8591-4.9638-1.241z"/>
  <path fill="currentColor" stroke="currentColor" stroke-linecap="round" stroke-linejoin="round" stroke-miterlimit="10" stroke-width=".4649" d="M15.4223 51.1156l-5.53661 4.2956h-.09546l-.09545-.1909c-.85912-1.1455-1.05004-2.6729-.38183-3.9138.19091-.4773.57274-.7637.95455-1.1455 1.5274-1.241 3.8183-.9546 4.9638.5727l.0955.191c.0955.0954.0955.1909.0955.1909zm-5.63207 4.1047l.09546.0954 5.34561-4.2001v-.1909c-1.1455-1.5274-3.341-1.7183-4.7729-.5728-.3818.2864-.66816.6682-.85908 1.05-.76366 1.241-.66821 2.6729.19091 3.8184z"/>
  <path fill="currentColor" stroke="transparent" stroke-miterlimit="10" stroke-width=".093" d="M11.8904 50.9246c0-.1909-.191-.2864-.2864-.1909 0 0-.3819.0954-.6682.2863-.2864.191-.4773.5728-.4773.5728-.0955.0955 0 .2864.0954.3818l1.3365.5728c.0954.0954.1909 0 .1909-.1909l-.1909-1.4319zM13.7993 51.4018c.0955-.0955.0955-.2864 0-.3818 0 0-.2864-.2864-.5727-.3819-.2864-.0954-.6683-.0954-.6683-.0954-.1909 0-.2863.0954-.2863.2863l.1909 1.4319c0 .1909.0954.1909.2864.0955l1.05-.9546zM10.3632 52.3564c-.1909-.0954-.2864 0-.38181.191 0 0-.09546.3818 0 .7636 0 .2864.19091.6682.19091.6682.0955.0955.2864.1909.3818.0955l1.1455-.8591c.0955-.0955.0955-.1909 0-.2864l-1.3364-.5728z"/>
  <path fill="currentColor" stroke="currentColor" stroke-linecap="round" stroke-linejoin="round" stroke-miterlimit="10" stroke-width=".6974" d="M13.0356 68.8708c-.9546-.1909-.8591-.3819-.8591-.3819.0954-.2863.4773-.3818 1.1455-.5727.7636-.1909 1.7182-.3818 1.8137-1.05.1909-1.1455.4773-3.3411.5727-4.4866.1909-1.8137-.1909-2.6728-.7636-3.8183-.5728-1.1455-1.0501-2.1001-1.5274-2.9592-.2863-.5727-.6682-1.2409-.9545-1.9091v-.0955h.0954c.0955.1909 2.0046.7637 4.8684 1.1455 2.8637.4773 4.7729.4773 4.9638.2864h.0954v.0954c-.4772.5728-1.05 1.0501-1.5273 1.5274-.7637.7636-1.5273 1.4318-2.3864 2.3864-.8592.8591-1.5274 1.6228-1.9092 3.4365-.1909 1.1455-.6682 3.341-.7637 4.4865-.0954.6682.7637 1.1455 1.4319 1.5273.4773.2864.9546.5728.8591.8592 0 .0954 0 .1909-.9545.0954-.5728 0-1.3365-.0954-2.1956-.1909-.7636-.0955-1.4318-.2864-2.0046-.3818zm5.1547.4773c0-.1909-.3818-.4773-.8591-.7637-.6682-.3818-1.5273-.9546-1.4319-1.6228.0955-1.1455.4773-3.341.7637-4.4865.3818-1.8137 1.05-2.5774 1.9092-3.4365.8591-.8591 1.6227-1.6228 2.3864-2.3864.4773-.3819.8591-.8592 1.3364-1.3365-.7636.0955-2.8637-.0954-4.8683-.3818-2.0046-.2864-4.1047-.7636-4.7729-1.1455.2863.5728.5727 1.1455.8591 1.7183.4773.8591.9546 1.8137 1.5273 2.9592.4773 1.05.9546 2.0046.7637 3.8183-.0955 1.1455-.3818 3.341-.5728 4.4865-.0954.6682-1.1455.9546-1.9091 1.1455-.4773.0955-.9546.1909-1.0501.4773.0955.0954 1.1455.3818 2.9592.6682 1.7183.3818 2.8638.3818 2.9592.2864z"/>
  <path fill="currentColor" d="M31.6503 56.1747c-.0954.2863-.3818.8591-.7636 1.7182-.1909.3819-.4773.8591-.9546.9546-.3818.0955-.9546-.2864-1.1455-.6682-.6682-.7637-1.6228-1.6228-1.9092-1.9092.8592-.5727 2.0047 0 2.6729.191 1.1455.3818 2.1-.2864 2.1-.2864z"/>
  <path fill="currentColor" stroke="currentColor" stroke-linecap="round" stroke-linejoin="round" stroke-miterlimit="10" stroke-width=".6974" d="M29.2639 54.9338c-2.291.3818-4.7729.5727-5.0593.2864v-.0955c0-.0955 0-.2864 1.4319-.6682.9545-.1909 2.1955-.4773 3.5319-.6682 1.3364-.1909 2.5774-.3819 3.5319-.3819 1.5274-.0954 1.5274.0955 1.5274.191v.0954c-.1909.3819-2.5774.9546-4.9638 1.241z"/>
  <path fill="currentColor" stroke="currentColor" stroke-linecap="round" stroke-linejoin="round" stroke-miterlimit="10" stroke-width=".6974" d="M31.4594 69.2525c-.7637.0955-1.6228.1909-2.1955.1909-.9546.0955-.9546-.0954-.9546-.0954 0-.2864.3818-.4773.8591-.8591.6682-.3819 1.5273-.8592 1.4319-1.5274-.0955-1.1455-.4773-3.341-.7637-4.4865-.3818-1.8137-1.05-2.4819-1.9092-3.4365-.8591-.8591-1.6227-1.6228-2.3864-2.3864-.4773-.4773-.9546-.9546-1.5273-1.4319v-.0955h.0954c.1909.191 2.1956.0955 4.9638-.2863 2.8638-.4773 4.7729-.9546 4.8684-1.1455h.0955v.0954c-.3819.6682-.6682 1.241-.9546 1.9092-.4773.9546-.9546 1.8137-1.5274 2.9592-.4772 1.1455-.9545 2.0046-.7636 3.8183.0954 1.1455.3818 3.341.5727 4.4865.0955.6682 1.0501.8591 1.8137 1.0501.5728.1909 1.0501.2863 1.1455.5727 0 .0955 0 .1909-.8591.3818-.3818 0-1.1455.191-2.0046.2864zm-3.0547.0955c.0955.0954 1.241.0954 3.0547-.1909 1.8137-.2864 2.8637-.5728 2.9592-.6682 0-.191-.4773-.2864-1.05-.4773-.7637-.191-1.7183-.3819-1.9092-1.1455-.1909-1.241-.4773-3.4365-.5728-4.4866-.1909-1.8137.2864-2.7682.7637-3.8183.5728-1.1455 1.05-2.1 1.5273-2.9592.2864-.5727.5728-1.05.8592-1.7182-.6682.3818-2.7683.7636-4.7729 1.1455-2.0047.3818-4.1047.4773-4.8684.3818.4773.4773.9546.8591 1.3364 1.3364.7637.7637 1.5273 1.4319 2.3865 2.3865.7636.8591 1.5273 1.6228 1.9091 3.4365.1909 1.1455.6682 3.341.7637 4.4865.0954.7636-.7637 1.2409-1.4319 1.6228-.4773.1909-.9546.4773-.9546.6682z"/>
  <path stroke="currentColor" stroke-linecap="round" stroke-linejoin="round" stroke-miterlimit="10" stroke-width=".9298" d="M23.1543 52.3565V47.87M21.436 52.5474l-1.7182-2.1001M24.7769 52.5474l1.6227-2.1001"/>
  <path fill="currentColor" d="M193.451 56.2702c-.095.3818-.381.8591-.859 1.8137-.191.3818-.572.9546-.954 1.05-.478.0955-.955-.2863-1.241-.6682-.764-.7636-1.719-1.7182-2.005-2.0046.859-.5727 2.1 0 2.768.1909 1.241.1909 2.291-.3818 2.291-.3818z"/>
  <path fill="currentColor" stroke="currentColor" stroke-linecap="round" stroke-linejoin="round" stroke-miterlimit="10" stroke-width=".6974" d="M190.969 54.9337c-2.291.3819-4.772.5728-5.059.2864v-.0954c0-.0955 0-.2864 1.432-.6682.955-.191 2.196-.4773 3.532-.6682 1.336-.191 2.577-.3819 3.532-.3819 1.527-.0954 1.527.0955 1.527.1909v.0955c-.286.3818-2.673.9546-4.964 1.2409z"/>
  <path fill="currentColor" stroke="currentColor" stroke-linecap="round" stroke-linejoin="round" stroke-miterlimit="10" stroke-width=".4649" d="M192.783 51.1155c0-.0955 0-.0955 0 0l.096-.191c1.241-1.5273 3.436-1.8137 4.963-.5727.382.2864.669.6682.955 1.1455.668 1.2409.573 2.7683-.382 3.9138l-.095.1909h-.096l-5.441-4.4865zm5.919.2863c-.191-.3818-.573-.7636-.86-1.05-1.527-1.1455-3.627-.9546-4.772.5727l-.096.0955 5.346 4.2001.095-.0954c.859-1.05.955-2.4819.287-3.7229z"/>
  <path fill="currentColor" stroke="transparent" stroke-miterlimit="10" stroke-width=".093" d="M196.315 50.9245c0-.1909.191-.2864.286-.1909 0 0 .382.0954.669.2864.286.1909.477.5727.477.5727.095.0955 0 .2864-.096.3818l-1.336.5728c-.096.0954-.191 0-.191-.1909l.191-1.4319zM194.406 51.4018c-.095-.0955-.095-.2864 0-.3818 0 0 .286-.2864.573-.3819.286-.0954.668-.0954.668-.0954.191 0 .286.0954.286.2863l-.191 1.4319c0 .1909-.095.1909-.286.0955l-1.05-.9546zM197.938 52.3564c.191-.0955.286 0 .382.1909 0 0 .095.3818.095.7636 0 .3819-.191.6682-.191.6682-.095.0955-.286.191-.381.0955l-1.146-.8591c-.095-.0955-.095-.1909 0-.2864l1.241-.5727z"/>
  <path fill="currentColor" stroke="currentColor" stroke-linecap="round" stroke-linejoin="round" stroke-miterlimit="10" stroke-width=".6974" d="M193.069 69.2525c-.859.0955-1.527.1909-2.195.1909-.955.0955-.955-.0954-.955-.0954 0-.2864.382-.4773.859-.8591.669-.3819 1.528-.8592 1.432-1.5274-.095-1.1455-.572-3.341-.763-4.4865-.382-1.8137-1.05-2.4819-1.814-3.4365-.859-.8591-1.623-1.6228-2.386-2.3864-.478-.4773-.955-.9546-1.528-1.4319v-.0955h.096c.191.191 2.195.0955 4.963-.2863 2.864-.4773 4.773-.9546 4.869-1.1455h.095v.0954c-.382.6682-.668 1.241-.954 1.9092-.478.9546-1.05 1.8137-1.528 2.9592-.572 1.1455-.954 2.0046-.763 3.8183.095 1.1455.382 3.341.572 4.4865.096.6682 1.051.8591 1.814 1.0501.573.1909 1.05.2863 1.146.5727 0 .0955 0 .1909-.859.3818-.478 0-1.241.191-2.101.2864zm-2.959.0955c.096.0954 1.241.0954 2.959-.1909 1.814-.2864 2.864-.5728 2.96-.6682-.096-.191-.573-.2864-1.05-.4773-.764-.191-1.719-.3819-1.91-1.1455-.19-1.241-.477-3.4365-.572-4.4866-.191-1.8137.286-2.7682.763-3.8183.573-1.1455 1.05-2.1 1.528-2.9592.286-.5727.572-1.05.859-1.7182-.668.3818-2.768.7636-4.773 1.1455-2.005.2864-4.2.4773-4.868.3818.477.4773.954.8591 1.336 1.3364.764.7637 1.527 1.4319 2.386 2.3865.86.8591 1.528 1.6228 1.91 3.4365.191 1.1455.668 3.341.763 4.4865.096.7636-.763 1.2409-1.432 1.6228-.477.1909-.954.4773-.859.6682z"/>
  <path fill="currentColor" d="M176.556 56.1747c.095.2864.381.8591.763 1.7183.191.3818.573.8591.955.9545.382.0955.954-.2863 1.145-.6682.669-.7636 1.623-1.6228 1.91-1.9091-.86-.5728-2.005 0-2.673.1909-1.146.3818-2.1-.2864-2.1-.2864z"/>
  <path fill="currentColor" stroke="currentColor" stroke-linecap="round" stroke-linejoin="round" stroke-miterlimit="10" stroke-width=".6974" d="M173.978 53.6927c0-.1909 0-.3818 1.527-.2863.955 0 2.196.1909 3.532.3818 1.337.1909 2.578.4773 3.532.6682 1.528.3818 1.432.5728 1.432.6682v.0955c-.286.2863-2.768.0954-5.059-.2864-2.291-.2864-4.773-.8591-4.964-1.241z"/>
  <path fill="currentColor" stroke="currentColor" stroke-linecap="round" stroke-linejoin="round" stroke-miterlimit="10" stroke-width=".6974" d="M174.646 68.8706c-.955-.1909-.859-.3819-.859-.3819.095-.2863.477-.3818 1.145-.5727.764-.1909 1.719-.3819 1.814-1.0501.191-1.1455.477-3.341.573-4.4865.191-1.8137-.191-2.6728-.764-3.8183-.573-1.1455-1.05-2.1001-1.527-2.9592-.287-.5727-.668-1.2409-.955-1.9091v-.0955h.096c.095.1909 2.004.7637 4.868 1.1455 2.864.4773 4.773.4773 4.964.2864h.095v.0954c-.572.5728-1.05 1.0501-1.527 1.5273-.764.7637-1.527 1.4319-2.386 2.3865-.86.8591-1.528 1.6228-1.814 3.4365-.191 1.1455-.668 3.341-.764 4.4865-.095.6682.764 1.1455 1.432 1.5273.477.2864.955.5728.859.8592 0 .0954 0 .1909-.954.0954-.573 0-1.337-.0954-2.196-.1909-.764-.0955-1.527-.2864-2.1-.3818zm5.155.4773c0-.191-.382-.4773-.859-.7637-.669-.3818-1.528-.9546-1.432-1.6228.095-1.1455.572-3.341.763-4.4865.382-1.8137 1.05-2.5774 1.91-3.4365.859-.8591 1.622-1.6228 2.386-2.3865.382-.3818.859-.8591 1.336-1.3364-.763.0955-2.863-.0954-4.868-.3818-2.005-.2864-4.105-.7637-4.773-1.1455.286.5728.573 1.1455.859 1.7182.478.8592 1.05 1.8138 1.528 2.9592.477 1.0501.954 2.0047.763 3.8184-.095 1.1455-.382 3.341-.573 4.4865-.095.6682-1.145.9546-1.909 1.1455-.477.0954-.954.1909-1.05.4773.096.0954 1.146.3818 2.959.6682 1.719.3818 2.864.3818 2.96.2864z"/>
  <path stroke="currentColor" stroke-linecap="round" stroke-linejoin="round" stroke-miterlimit="10" stroke-width=".9298" d="M185.051 52.3563v-4.4865M186.77 52.5472l1.718-2.1001M183.524 52.5472l-1.718-2.1001"/>
  <path stroke="currentColor" stroke-miterlimit="10" stroke-width=".9298" d="M99.4251 6.82294C99.2342 4.15011 95.7022 1 95.7022 1s-3.0546 2.9592-2.5774 6.87297c.2864 2.48193 3.532 4.67743 3.532 4.67743s2.9592-2.67281 2.7683-5.72746zM97.0388 12.4549L95.7979 1.19089M110.403 3.0047c2.482-2.00462 8.018-1.52733 8.018-1.52733s-.095 5.05927-3.818 7.82755c-2.291 1.71828-6.873.76368-6.873.76368s-.191-4.77291 2.673-7.0639zM107.444 9.59125l10.691-8.01847"/>
  <path fill="transparent" stroke="currentColor" stroke-miterlimit="10" stroke-width=".9298" d="M102.766 13.3141c3.374 0 6.109-2.7352 6.109-6.1093 0-3.37408-2.735-6.10931-6.109-6.10931s-6.1093 2.73523-6.1093 6.10931c0 3.3741 2.7353 6.1093 6.1093 6.1093z"/>
  <path fill="transparent" stroke="currentColor" stroke-miterlimit="10" stroke-width=".9298" d="M109.83 20.4733c3.374 0 6.109-2.7352 6.109-6.1093 0-3.374-2.735-6.10927-6.109-6.10927s-6.109 2.73527-6.109 6.10927c0 3.3741 2.735 6.1093 6.109 6.1093zM92.6476 8.44571c-2.0046-1.71824-6.7775-1.43187-6.7775-1.43187s0 4.20016 3.0547 6.68206c1.9091 1.5273 5.8229.7637 5.8229.7637s.2864-3.9138-2.1001-6.01389z"/>
  <path stroke="currentColor" stroke-miterlimit="10" stroke-width=".9298" d="M95.0343 14.1732l-8.8776-7.06389"/>
  <path fill="transparent" stroke="currentColor" stroke-miterlimit="10" stroke-width=".9298" d="M99.0434 21.2372c3.3736 0 6.1096-2.7352 6.1096-6.1093 0-3.3741-2.736-6.10931-6.1096-6.10931-3.3741 0-6.1093 2.73521-6.1093 6.10931s2.7352 6.1093 6.1093 6.1093z"/>
  <path stroke="currentColor" stroke-linecap="round" stroke-miterlimit="10" stroke-width=".9298" d="M104.771 3.67285c-.286.28638-.382.76367-.286 1.1455.095.38183.572.57275 1.05.57275M112.885 11.5958c-.477.1909-.859.7637-.764 1.241.096.4773.668.9546 1.146.9546M102.003 13.2187c-.478.2864-.669.8591-.478 1.3364.191.4773.859.7637 1.337.5727"/>
  <path fill="currentColor" d="M47.2093 61.2341c-1.4318 1.1454-2.8637 1.1454-4.0092-.3819l-4.0092-4.8683c-1.3365-1.6228-1.0501-3.0547.2863-4.2002 1.3364-1.1455 2.6729-.8591 3.9138.6682l.7637.9546-1.1455.9546-.7637-.9546c-.5727-.7637-1.3364-.9546-2.0046-.3818-.6682.5727-.6682 1.3364 0 2.0046l3.9138 4.7729c.6682.7636 1.4318 1.1455 2.1.5727.6682-.5727.6682-1.2409 0-2.0046l-.7636-.8591 1.1455-.9546.6682.8591c1.05 1.1455 1.2409 2.6729-.0955 3.8184zM51.3139 57.702l-6.6821-9.7367 1.241-.8592 5.9184 8.6867 2.6728-1.8137.7637 1.1455-3.9138 2.5774zM61.3371 51.4017l-2.291-2.6728-2.1001 1.241 1.1455 3.341-1.241.6682-3.8183-11.6459 1.7183-.9545 8.0184 9.2594-1.4318.7636zm-6.5866-7.8275l1.7182 5.1547 1.7183-.9546-3.4365-4.2001zM66.9691 48.92c-1.4319.6682-2.8637.1909-3.6274-1.6228l-.1909-.4773 1.241-.5727.0954.1909c.2864.7637.9546 1.6228 2.0046 1.1455.7637-.3818.7637-1.1455.2864-2.1001-.3818-.8591-1.2409-1.2409-2.0046-1.4319l-1.241-.2863c-.9545-.1909-2.1-.5728-2.8637-2.1001-.7637-1.7182-.3818-3.2456 1.241-4.0092 1.4318-.6682 2.7682-.0955 3.5319 1.5273l.1909.4773-1.2409.5727-.191-.4773c-.2863-.7636-.9545-1.2409-1.7182-.8591-.8591.3818-.8591 1.241-.4773 2.0046.4773 1.0501 1.4319 1.1455 2.1001 1.3364l1.05.2864c1.1455.2864 2.291.6682 3.0547 2.1956.7636 1.8137.4773 3.341-1.241 4.2001zM74.2238 45.9606c-1.5273.5728-2.8637 0-3.5319-1.9091l-.1909-.4773 1.3364-.4773.0954.1909c.2864.7637.7637 1.7182 1.9092 1.3364.8591-.2864.8591-1.1455.5727-2.1001-.2863-.8591-1.05-1.3364-1.8137-1.6228l-1.2409-.3818c-.9546-.2864-2.1001-.7637-2.6728-2.3864-.6682-1.7183-.0955-3.2456 1.6228-3.8184 1.5273-.5727 2.7682.0955 3.341 1.8137l.1909.5728-1.3364.4773-.1909-.4773c-.2864-.7637-.8591-1.3364-1.6228-1.05-.8591.2863-.9546 1.1455-.6682 1.9091.3818 1.0501 1.3364 1.241 2.0046 1.5273l.9546.3819c1.1455.3818 2.291.8591 2.8637 2.4819.5728 1.8137.1909 3.341-1.6228 4.0092zM79.5695 44.0515l-3.1501-11.4549 1.4319-.3819 3.1501 11.455-1.4319.3818zM86.8245 42.5242c-1.8137.3818-3.0547-.2864-3.4365-2.1956l-1.241-6.2047c-.3818-2.1001.5728-3.2456 2.291-3.532 1.7183-.3818 2.7683.5728 3.1502 2.3865l.1909 1.1455-1.4319.2864-.1909-1.1455c-.1909-.9546-.7637-1.4319-1.5273-1.3365-.8592.191-1.1455.8592-1.0501 1.7183l1.1455 6.0138c.1909.9546.6682 1.6228 1.6228 1.4319.8591-.1909 1.1455-.7637.9546-1.8137l-.1909-1.1455 1.4318-.2864.1909 1.0501c.3819 1.8137-.1909 3.341-1.9091 3.6274zM99.234 40.9969c-1.8137.0954-2.9592-.7637-3.0547-2.6729l-.3818-6.3957c-.0955-2.1.9546-3.1501 2.7683-3.2455 1.7182-.0955 2.6732.9546 2.7682 2.8637l.096 1.241-1.4324.0954-.0954-1.2409c-.0955-.9546-.4773-1.5274-1.3364-1.5274s-1.241.6683-1.241 1.6228l.3819 6.1093c.0954.9546.4772 1.7183 1.4318 1.7183.8591 0 1.2405-.6682 1.1455-1.6228l-.095-1.1455 1.431-.0955.096 1.0501c.095 1.8137-.764 3.1501-2.482 3.2456zM107.252 40.9014c-1.814-.0954-2.768-1.1455-2.673-2.9592l.191-6.4911c.096-1.8137 1.05-2.9592 2.959-2.8637 1.91.0954 2.769 1.3364 2.673 3.1501l-.191 6.2047c-.095 1.7183-1.05 3.0547-2.959 2.9592zm1.623-9.2594c0-.8591-.286-1.5273-1.241-1.5273-.955 0-1.336.6682-1.336 1.4319l-.191 6.3956c0 .8592.286 1.6228 1.241 1.6228.954 0 1.336-.6682 1.336-1.5273l.191-6.3957zM113.075 41.0923l1.432-11.7413 1.527.1909-1.241 10.4049 3.151.3818-.191 1.3364-4.678-.5727zM120.33 42.0468l2.387-11.6458 1.527.2863-2.1 10.3095 3.15.6682-.286 1.3364-4.678-.9546zM127.489 43.6696l3.341-11.3595 4.487 1.3364-.382 1.3364-3.055-.8591-1.05 3.5319 2.482.7637-.382 1.3364-2.482-.7637-1.145 3.9138 3.055.8591-.382 1.3365-4.487-1.4319zM137.036 47.0107c-1.719-.6682-2.387-1.9091-1.623-3.7228l2.291-5.9184c.763-1.9092 2.195-2.3865 3.818-1.8137 1.623.6682 2.005 2.0046 1.336 3.7228l-.477 1.1455-1.336-.4773.477-1.1455c.382-.8591.191-1.6228-.573-1.9091-.859-.2864-1.432.0954-1.813.9545l-2.196 5.7275c-.382.9546-.286 1.8137.573 2.1001.859.2864 1.432-.0955 1.814-.9546l.381-1.05 1.337.4773-.382.9546c-.668 1.7182-1.909 2.5773-3.627 1.9091zM149.349 40.8059l-4.677 9.4504-1.337-.6682 4.678-9.4504-1.814-.8591.573-1.2409 4.964 2.4819-.573 1.2409-1.814-.9546zM148.681 52.3564l5.919-10.3095 1.336.7637-5.918 10.3094-1.337-.7636zM154.79 56.3656c-1.527-1.05-1.718-2.4819-.763-3.9138l3.627-5.3456c1.05-1.4319 2.482-1.9092 4.009-.8591 1.528 1.05 1.623 2.5773.669 4.1047l-3.437 5.1547c-1.05 1.3364-2.577 1.9091-4.105.8591zm6.301-6.9684c.477-.6682.572-1.4319-.191-2.0046-.764-.5728-1.432-.191-1.909.5727l-3.628 5.2502c-.477.6682-.572 1.4319.191 2.0046.859.5728 1.432.1909 2.005-.5727l3.532-5.2502zM162.905 62.284l3.531-8.7821-5.727 6.9684-.955-.8591 7.542-9.164 1.336 1.0501-3.341 8.1139 5.346-6.4911 1.05.8591-7.542 9.1639-1.24-.8591z"/>
</svg>