<svg xmlns="http://www.w3.org/2000/svg" fill="currentColor" viewBox="0 0 90 24"><path d="M83.6739 18.5695c-3.3195.0168-6.5619-.9995-9.2778-2.9081-.2554-.1792-.5017-.3711-.7379-.5751-3.8312 2.2249-8.2013 3.3513-12.6307 3.2553-.0722-.0014-.1434-.0171-.2094-.0464-.066-.0293-.1255-.0714-.175-.1239-.0496-.0526-.0881-.1145-.1134-.1821-.0253-.0677-.0368-.1397-.0339-.2118.0056-.1401.0652-.2726.1664-.3697.1011-.0971.2359-.1513.3762-.1512 4.1168.0779 8.1802-.9408 11.7735-2.9515-1.197-1.1376-1.9117-2.6913-1.9966-4.34047.0162-.70641.2022-1.39854.5421-2.01799.34-.61945.8239-1.14805 1.4111-1.54119.4352-.30582.9387-.50035 1.4664-.56656.5278-.0662 1.0638-.00208 1.561.18677 1.9207.81384 2.4632 3.25535 1.7688 5.08924-.6274 1.3842-1.6555 2.5484-2.9515 3.3421.141.1085.2712.217.4014.3038 2.0515 1.4325 4.4283 2.3297 6.9145 2.6102 2.4863.2804 5.0033-.0647 7.3223-1.0042.1327-.0511.2799-.0492.4113.0053.1313.0546.2366.1576.294.2877.0284.0662.0434.1374.044.2094.0006.072-.0131.1434-.0404.2101-.0273.0667-.0675.1272-.1185.1782-.0509.0509-.1114.0912-.1781.1185-1.9.7834-3.9346 1.1888-5.9898 1.1936zM74.6783 6.90451c-.4627.0111-.9118.1583-1.2913.42319-.4385.29252-.801.68521-1.0577 1.14562-.2566.4604-.3999.97529-.4181 1.50206.1045 1.45362.7793 2.80702 1.8773 3.76532 1.2147-.6902 2.1853-1.7404 2.7779-3.0057.2915-.6516.3332-1.38771.117-2.06805-.2161-.68035-.6749-1.25744-1.289-1.62138-.2273-.09289-.4705-.1408-.7161-.14106zM23.1774 18.5694c-3.3194.0168-6.5618-.9995-9.2777-2.9081-.2555-.1792-.5017-.3712-.7379-.5751-3.83521 2.2151-8.20258 3.3407-12.630715 3.2553-.071254-.0014-.141532-.0168-.206819-.0454-.065288-.0286-.124305-.0697-.173682-.1211-.049376-.0514-.0881435-.112-.1140879-.1784-.0259444-.0664-.03855718-.1372-.03711785-.2085.00831176-.1411.07026655-.2736.17316375-.3704.102897-.0969.238942-.1507.380245-.1504 4.117123.0805 8.181243-.9384 11.773513-2.9516-1.1988-1.1363-1.9139-2.6907-1.9966-4.34043.0163-.70641.2022-1.39854.5422-2.01799.3399-.61945.8239-1.14804 1.411-1.54118.4352-.30583.9387-.50036 1.4665-.56656.5277-.06621 1.0637-.00209 1.561.18677 1.9206.81383 2.4632 3.25534 1.7687 5.08919-.6313 1.3912-1.6675 2.5598-2.9732 3.353.141.1085.2713.217.4015.3038 2.0514 1.4325 4.4282 2.3297 6.9145 2.6101 2.4863.2805 5.0032-.0647 7.3222-1.0041.1327-.0511.28-.0492.4113.0053.1313.0546.2366.1576.294.2877.0284.0662.0434.1374.044.2094.0006.072-.0131.1434-.0404.2101-.0272.0666-.0675.1272-.1184.1782-.051.0509-.1115.0912-.1782.1185-1.8981.7746-3.9288 1.1726-5.979 1.1719zm-8.9956-11.665c-.4626.0111-.9118.1583-1.2912.42319-.4385.29252-.8011.68522-1.0577 1.14562-.2566.4604-.3999.97529-.4181 1.50206.1017 1.45203.7724 2.80523 1.8664 3.76533 1.2147-.6902 2.1853-1.7405 2.7779-3.0057.2915-.6516.3332-1.38772.1171-2.06806-.2161-.68035-.6749-1.25744-1.289-1.62138-.2243-.09052-.4635-.13836-.7054-.14106zm27.4317 15.072c-1.4819.0037-2.9378-.3888-4.217-1.1369-1.2792-.7481-2.3351-1.8246-3.0584-3.1179-.7233-1.2934-1.0877-2.7566-1.0554-4.2381.0323-1.4816.46-2.9275 1.239-4.18814.7789-1.26064 1.8807-2.29012 3.1912-2.98182 1.3105-.69169 2.7822-1.02046 4.2625-.95224 1.4803.06821 2.9154.53093 4.1568 1.34022 1.2413.8093 2.2438 1.93575 2.9034 3.26268.3189-.17024.6488-.31887.9875-.4449-.8519-1.74189-2.2212-3.178-3.9206-4.11182-1.6994-.93382-3.6458-1.31974-5.5729-1.10494-1.9271.2148-3.7408 1.01981-5.1929 2.30489-1.452 1.28509-2.4715 2.98746-2.919 4.87417-.4475 1.8867-.301 3.8656.4193 5.6659.7204 1.8003 1.9794 3.334 3.6048 4.3914 1.6254 1.0573 3.5378 1.5865 5.4756 1.5153 1.9377-.0712 3.8061-.7395 5.3495-1.9133-.2485-.261-.4771-.5403-.6836-.8355-1.4318 1.0807-3.1759 1.6671-4.9698 1.671z"/><path d="M52.4322 9.0962c-.8214.00103-1.6364.14421-2.409.4232-.3387.12603-.6686.27466-.9874.4449-1.5262.8311-2.6963 2.191-3.2904 3.8242-.594 1.6331-.571 3.427.0646 5.0444.6356 1.6174 1.8401 2.947 3.387 3.7388 1.547.7917 3.3299.9912 5.0136.5609 1.6837-.4304 3.1523-1.4609 4.1296-2.8978.9773-1.437 1.3961-3.1815 1.1777-4.9055-.2185-1.7241-1.0591-3.3089-2.3639-4.4568-1.3048-1.14778-2.984-1.77947-4.7218-1.7763zm0 13.195c-1.1976 0-2.3682-.3551-3.3639-1.0204-.9958-.6654-1.7719-1.611-2.2301-2.7174-.4583-1.1064-.5782-2.3239-.3446-3.4984.2336-1.1745.8103-2.2534 1.6571-3.1002s1.9257-1.4235 3.1002-1.6571c1.1746-.2337 2.392-.1138 3.4984.3445 1.1064.4583 2.0521 1.2344 2.7174 2.2301.6653.9957 1.0205 2.1664 1.0205 3.364-.0029 1.605-.6418 3.1434-1.7767 4.2783-1.1349 1.1349-2.6733 1.7737-4.2783 1.7766z"/><path d="M52.3994 15.3789c-.369 0-.5968-.3146-.7922-.651 0 0-1.2479-2.3439-.7813-3.0926.1387-.1745.3154-.3151.5166-.411.2012-.0959.4216-.1446.6445-.1424.1953 0 1.2045-.1085 1.6168.3255.6511.586-.434 3.1577-.434 3.1794-.1194.2713-.3255.7813-.7921.7921h.0217zm-.5968-3.1576c.1243.5387.3062 1.0626.5425 1.5625.1786-.5328.3057-1.0815.3798-1.6385-.3095-.0225-.6207.0032-.9223.076zm1.9985 4.1885c-.1358.012-.2723-.0118-.396-.0689-.1237-.0571-.2304-.1456-.3093-.2566-.1845-.3147 0-.6728.1627-1.02 0 0 1.4432-2.1703 2.3005-2.1703.2255.0265.4416.1063.6302.2327.1887.1264.3446.2958.4549.4944.1194.1627.7053.9983.5317 1.5734-.2821.7921-2.919 1.1394-3.0058 1.1394-.1213.0327-.2445.0581-.3689.0759zm1.7362-2.4198c-.4104.371-.7747.79-1.0851 1.2479.5498-.1105 1.0876-.274 1.6059-.4883-.1355-.2773-.311-.5332-.5208-.7596zm.3781 5.773c-.8681 0-2.4849-1.7687-2.5066-1.7904-.2713-.3039-.5534-.662-.369-1.0852.1628-.3472.5534-.4123.9441-.434 0 0 2.6477-.0977 3.1143.6511.0977.1992.1485.4182.1485.6402 0 .2219-.0508.4409-.1485.6402-.076.1845-.4341 1.0851-.9983 1.313-.0559.0351-.1189.0574-.1845.0651zm-1.4107-2.1702c.3982.4027.8342.7661 1.3022 1.0851.1583-.2693.272-.5624.3364-.8681-.5349-.1453-1.0847-.229-1.6386-.2496v.0326zm-3.3964-1.1829c-.13.0107-.2606.0107-.3906 0 0 0-2.7128-.4015-2.9515-1.2262-.1628-.5751.4123-1.4106.5317-1.5734.1129-.1963.2696-.364.4577-.4901.1882-.126.4029-.2071.6274-.2369.9007 0 2.2788 2.1702 2.2896 2.1702.1953.3473.3581.7054.1628 1.02-.0749.1212-.1838.2176-.313.2774-.1293.0598-.2732.0803-.4141.059zm-2.2787-1.6493c.5262.2129 1.0711.3764 1.6277.4883-.3148-.4612-.6786-.8869-1.0851-1.2696-.2137.236-.396.4986-.5426.7813zm.1517 5.0021c-.0538.0103-.109.0103-.1628 0-.5642-.1844-.9332-1.0851-.9983-1.3129-.0977-.1993-.1485-.4183-.1485-.6403 0-.2219.0508-.4409.1485-.6402.4775-.7487 3.0926-.6619 3.1143-.651.4015 0 .7813.0868.9441.434.1844.3906-.0869.7487-.3581 1.0851-.0434-.0434-1.606 1.7253-2.5392 1.7253zm-.2604-1.9966c.0907.2954.2222.5766.3906.8356.4649-.3186.8974-.6821 1.2913-1.0851-.5684.0181-1.1328.1018-1.6819.2495zm3.6876 3.9936c-.4544.0391-.907-.0924-1.2696-.369-.586-.6293.4558-3.1468.4666-3.1685.1085-.2713.3364-.7813.803-.7813.4666 0 .5968.3256.7921.6728 0 0 1.2045 2.3547.7271 3.1034-.1414.1692-.3194.304-.5206.3942-.2011.0902-.4202.1336-.6405.1267l-.3581.0217zm-.3255-1.0851c.3089.0267.6202.0047.9223-.0651-.1157-.5419-.2904-1.0696-.5208-1.5735-.1856.5322-.32 1.0809-.4015 1.6386zM41.5793 7.77235c-.0427-.10318-.0571-.21584-.0419-.32644.0153-.1106.0597-.21515.1287-.30293 1.1502-2.11597 1.0851-4.05833-.0977-5.63175-.0836-.11608-.119-.26003-.0987-.40164.0202-.14162.0945-.269899.2072-.357937.1138-.087509.2576-.126365.4-.108061.1424.018304.2717.092278.3596.205722 1.4649 1.909806 1.53 4.340466.1845 6.803676l-.4992-.14107-.5425.26043z"/><path d="M47.3863 4.54959c-1.1148-.01568-2.2078-.3104-3.1794-.85724-.1448-.0745-.2828-.16165-.4123-.26043-.1806-.14762-.3816-.26824-.5968-.35809-.0624.02805-.1299.04297-.1984.04383-.0684.00087-.1362-.01234-.1993-.0388-.0631-.02645-.1201-.0656-.1674-.11499-.0473-.0494-.084-.108-.1077-.17217-.0294-.06476-.0446-.13505-.0446-.20617 0-.07111.0152-.14141.0446-.20617.0207-.06559.0544-.12631.0991-.17853.0448-.05221.0997-.09483.1613-.1253l.0977-.09766c.5875-.58462 1.2699-1.065274 2.0183-1.421504 1.2903-.5964313 2.7631-.662669 4.1017-.184469.5212.162124.9979.442284 1.3931.818693.3953.3764.6983.83891.8857 1.35154.0429.10164.0545.21381.0332.32209-.0212.10828-.0744.20773-.1526.28557-.4313.40863-.9356.73255-1.4866.9549-.7263.29827-1.5045.44949-2.2896.4449zm-3.2554-2.17023l.3147.20617.293.19532c.6805.40274 1.4444.64354 2.2328.70375.7884.06021 1.5801-.06177 2.3138-.35651.3023-.13187.5897-.29556.8573-.4883-.1585-.29435-.3747-.55369-.6357-.76252-.261-.20882-.5615-.36283-.8835-.45281-1.0388-.35527-2.173-.30882-3.1794.13021-.4672.2202-.9139.48167-1.3347.78129l.0217.0434z"/></svg>