<svg xmlns="http://www.w3.org/2000/svg" fill="currentColor" viewBox="0 0 372 70"><path d="M103.81 23.4648H93.4288v-.7887c1.3711 0 1.7629-.3944 1.7629-1.9719v-9.2676l-6.4637 8.6761H85.79l-6.6595-9.0704v9.4647c0 1.3803.3917 1.9719 1.7628 1.9719v.7887h-9.5975v-.7887c1.3711 0 1.7628-.3944 1.7628-1.9719V3.15493c0-1.57747-.3917-1.97183-1.7628-1.97183V.394366h7.8347c0 .394366.1959.985914.5876 1.577464l7.8347 10.45067 7.8347-10.45067c.3918-.39437.5876-1.183098.5876-1.577464h7.8349V1.1831c-1.175 0-1.763.39436-1.763 1.97183V20.507c0 1.3803.392 1.9719 1.763 1.9719v.9859zm29.576 0h-9.989v-.7887c.783 0 1.371-.1972 1.371-.7888 0-.3943 0-.5915-.196-.9859l-.196-.3944c-1.175.3944-3.134.7888-5.093.7888-1.567 0-3.329-.3944-4.505-.7888l-.195.5916c-.196.3944-.196.7887-.196.9859 0 .5916.391.7887 1.175.7887v.7888h-9.989v-.7888c.979 0 1.371-.3943 1.958-1.5774l7.052-17.54932c.195-.59155.391-.98592.391-1.1831 0-.59155-.391-.98592-.979-.98592V.394366h10.773V1.1831c-.588 0-.98.39436-.98.98591 0 .39437.196.98592.392 1.1831l7.051 17.54929c.588 1.3803.98 1.5775 1.959 1.5775v.9859h.196zM119.088 6.90141l-3.134 8.87319c.979.3944 1.762.5916 3.134.5916 1.175 0 2.154-.1972 3.133-.5916l-3.133-8.87319zm28.009 9.66199c-.784 0-2.351 0-3.33-.1972v4.1408c0 1.5775.587 1.9719 1.763 1.9719v.7887h-10.381v-.7887c1.175 0 1.762-.5916 1.762-1.9719V3.15493c0-1.38028-.587-1.97183-1.762-1.97183V.394366C138.283.197183 142.787 0 146.117 0c8.423 0 13.123 2.56338 13.123 8.28169 0 5.12681-4.309 8.28171-12.143 8.28171zm-.392-11.23946c-.784 0-1.763 0-2.742.19719v5.91547c.979 0 2.35.1972 2.938.1972 4.113 0 5.876-.7887 5.876-2.95774-.196-2.76057-2.547-3.35212-6.072-3.35212zm37.411 11.23946l-1.372 7.0986c-.587-.1972-1.371-.3944-1.958-.3944h-18.803v-.7887c1.175 0 1.762-.5916 1.762-1.9719V3.15493c0-1.38028-.587-1.97183-1.762-1.97183V.394366h10.38V1.1831c-1.175 0-1.762.59155-1.762 1.97183V18.1408h10.381c1.175 0 1.958-.7887 2.35-1.7746l.784.1972zm25.658.1972l-1.371 6.9014c-.587-.1972-1.371-.3944-1.959-.3944H186.27v-.7887c1.175 0 1.763-.3944 1.763-1.9719V3.15493c0-1.38028-.588-1.97183-1.763-1.97183V.394366h19.979c.783 0 1.567 0 1.958-.197183l1.567 6.901407-.783.19718c-.588-1.18309-1.371-1.77464-2.547-1.77464h-11.36v3.54929h8.227c1.371 0 1.958-.39436 1.958-1.38028h.784v7.88736h-.784c0-.986-.391-1.3803-1.958-1.3803h-8.227v3.9436h11.36c1.372 0 2.155-.5915 2.743-1.7746l.587.3944zm36.823 6.7042h-8.618c-1.371-1.9718-2.742-4.7324-3.525-7.0986h-3.33v4.338c0 1.3803.587 1.9719 1.763 1.9719v.7887h-10.381v-.7887c1.371 0 1.762-.3944 1.762-1.9719V3.15493c0-1.1831-.391-1.77465-1.762-1.77465V.394366C225.052.197183 230.928 0 233.474 0c7.443 0 13.123 1.77465 13.123 8.08451 0 3.35209-2.742 6.30989-5.68 7.29579.979 2.169 2.155 3.9436 3.918 6.1127.391.5915.783.9859 1.762.9859v.9859zM233.866 5.32394h-2.742v5.91546c.783 0 1.958.1972 2.938.1972 3.525 0 5.876-.7887 5.876-3.15491-.196-2.3662-2.351-2.95775-6.072-2.95775zM275.39 1.1831c-.979 0-1.567.39436-2.351 1.57746l-8.618 13.21124v4.5352c0 1.3803.392 1.9719 1.763 1.9719v.7887h-10.381v-.7887c1.371 0 1.763-.5916 1.763-1.9719v-4.1408l-8.618-13.40845c-.784-1.1831-1.371-1.57747-2.351-1.57747V.394366h10.773V1.1831c-.783 0-1.371.39436-1.371.98591 0 .19719 0 .59155.196.98592l4.897 8.28167 4.7-8.28167c.392-.59155.392-.78873.392-1.1831 0-.59155-.392-.78873-1.371-.78873V.394366h10.381V1.1831h.196zm25.463 15.5775l-1.371 6.9014c-.588-.1972-1.371-.3944-1.959-.3944h-20.174v-.7887c1.371 0 1.762-.3944 1.762-1.9719V3.15493c0-1.38028-.587-1.97183-1.762-1.97183V.394366h19.978c.784 0 1.567 0 1.959-.197183l1.567 6.901407-.784.19718c-.587-1.18309-1.371-1.77464-2.546-1.77464h-11.556v3.54929h8.226c1.371 0 1.959-.39436 1.959-1.38028h.783v7.88736h-.783c0-.986-.392-1.3803-1.959-1.3803h-8.226v3.9436h11.36c1.371 0 2.155-.5915 2.742-1.7746l.784.3944zM47.9876 70H32.7099v-1.1831c1.9587 0 2.7421-.5916 2.7421-2.7606V52.6479l-9.5975 12.8169h-4.5049l-9.9893-13.4085v14c0 2.169.7835 2.7606 2.5463 2.7606V70H0v-1.1831c1.95868 0 2.54628-.5916 2.54628-2.7606V40.4225c0-2.3662-.39174-2.9577-2.54628-2.9577v-1.1831h11.5562c0 .5915.1959 1.5775.7835 2.3662l11.5561 15.3803 11.3604-15.3803c.5876-.7887.7834-1.5775.7834-2.3662h11.5562v1.1831c-1.9586 0-2.5463.5915-2.5463 2.7605v25.6339c0 2.169.5877 2.7605 2.5463 2.7605V70h.3918zm43.0908 0h-14.69v-1.1831c1.371 0 1.9586-.3944 1.9586-1.1831 0-.3944-.1958-.7887-.3917-1.3803l-.1959-.5915c-1.7628.5915-4.7008 1.1831-7.4429 1.1831-2.3504 0-4.8967-.5916-6.4637-1.1831l-.1958.7887c-.1959.5916-.1959.9859-.1959 1.3803 0 .7887.5876.9859 1.7628.9859V70H50.7297v-1.1831c1.5669 0 2.1546-.5915 2.7422-2.3662l10.5768-25.6338c.3918-.7887.5876-1.5775.5876-1.7746 0-.7888-.3917-1.3803-1.3711-1.3803v-1.1831h15.8653v.9859c-.9793 0-1.3711.3944-1.3711 1.3803 0 .5915.3918 1.3803.5876 1.9718l10.381 25.6338c.7835 1.9718 1.3711 2.3662 2.7422 2.3662V70h-.3918zM70.5123 45.7465l-4.7008 12.8169c1.3711.3943 2.7422.7887 4.7008.7887 1.7628 0 3.3298-.1972 4.505-.7887l-4.505-12.8169zm62.4817-8.2817c-1.763 0-2.546.7887-2.546 2.9577V70h-8.422c-.196-.9859-.588-1.9718-1.372-2.9577l-15.081-16.5634V65.662c0 1.9718.783 2.9577 2.546 2.9577v1.1831H94.0164v-1.1831c1.7629 0 2.5463-.7887 2.5463-2.9577V40.4225c0-2.169-.7834-2.9577-2.5463-2.9577v-1.1831H106.16c0 .5915.392 1.5775.98 2.3662l14.494 16.169V40.2253c0-2.169-.784-2.9577-2.742-2.9577v-1.1831h14.102v1.3803zM177.652 70H162.57v-1.1831c1.763 0 2.546-.9859 2.546-2.7606v-9.2676h-15.277v9.2676c0 1.9719.783 2.7606 2.546 2.7606V70h-15.278v-1.1831c1.763 0 2.547-.9859 2.547-2.7606V40.4225c0-1.9718-.98-2.9577-2.743-2.9577v-1.1831h15.278v1.1831c-1.567 0-2.546.7887-2.546 2.9577v8.6761h15.278v-8.6761c0-1.9718-.98-2.9577-2.547-2.9577v-1.1831h15.278v1.1831c-1.567 0-2.546.9859-2.546 2.9577v25.4367c0 1.9718.979 2.7605 2.546 2.7605V70zm43.483 0h-14.886v-1.1831c1.371 0 1.958-.3944 1.958-1.1831 0-.3944-.196-.7887-.391-1.3803l-.196-.5915c-1.763.5915-4.701 1.1831-7.443 1.1831-2.351 0-4.897-.5916-6.464-1.1831l-.196.7887c-.196.5916-.196.9859-.196 1.3803 0 .7887.588.9859 1.763.9859V70H180.59v-1.1831c1.567 0 2.154-.5915 2.742-2.3662l10.577-25.6338c.392-.7887.588-1.5775.588-1.7746 0-.7888-.392-1.3803-1.372-1.3803v-1.1831h15.866v.9859c-.98 0-1.371.3944-1.371 1.3803 0 .5915.391 1.3803.587 1.9718l10.381 25.6338c.784 1.9718 1.371 2.3662 2.742 2.3662V70h-.195zm-20.762-24.2535l-4.701 12.8169c1.371.3943 2.742.7887 4.701.7887 1.762 0 3.329-.1972 4.505-.7887l-4.505-12.8169zm54.059.1972l-1.175.3943c-.784-1.7746-1.959-2.5633-3.918-2.5633h-9.009v22.0845c0 1.9718.979 2.7605 2.546 2.7605v1.1831h-15.278v-1.1831c1.959 0 2.546-.7887 2.546-2.7605V43.7747h-8.814c-1.958 0-3.133.7887-3.917 2.5633l-1.371-.3943 2.155-10.2536c.783.1972 1.762.3944 2.938.3944h28.204c1.176 0 2.155-.1972 2.938-.3944l2.155 10.2536zm39.957 0l-1.175.3943c-.784-1.7746-1.959-2.5633-3.918-2.5633h-9.205v22.0845c0 1.9718.979 2.7605 2.546 2.7605v1.1831h-15.278v-1.1831c1.959 0 2.547-.7887 2.547-2.7605V43.7747h-8.814c-1.959 0-3.134.7887-3.918 2.5633l-1.371-.3943 2.155-10.2536c.783.1972 1.762.3944 2.938.3944h28.205c1.175 0 2.154-.1972 2.938-.3944l2.35 10.2536zM329.841 70h-14.886v-1.1831c1.371 0 1.959-.3944 1.959-1.1831 0-.3944-.196-.7887-.392-1.3803l-.196-.5915c-1.763.5915-4.701 1.1831-7.443 1.1831-2.35 0-4.896-.5916-6.463-1.1831l-.196.7887c-.196.5916-.196.9859-.196 1.3803 0 .7887.587.9859 1.763.9859V70h-14.495v-1.1831c1.567 0 2.155-.5915 2.743-2.3662l10.576-25.6338c.392-.7887.588-1.5775.588-1.7746 0-.7888-.392-1.3803-1.371-1.3803v-1.1831h15.865v.9859c-.979 0-1.371.3944-1.371 1.3803 0 .5915.392 1.3803.588 1.9718l10.381 25.6338c.783 1.9718 1.371 2.3662 2.742 2.3662V70h-.196zm-20.762-24.2535l-4.701 12.8169c1.371.3943 2.742.7887 4.701.7887 1.763 0 3.33-.1972 4.505-.7887l-4.505-12.8169zm62.678-8.2817c-1.763 0-2.547.7887-2.547 2.9577V70h-8.422c-.196-.9859-.587-1.9718-1.371-2.9577l-15.082-16.5634V65.662c0 1.9718.784 2.9577 2.547 2.9577v1.1831h-13.907v-1.1831c1.763 0 2.546-.7887 2.546-2.9577V40.4225c0-2.169-.783-2.9577-2.546-2.9577v-1.1831h12.144c0 .5915.391 1.5775.979 2.3662l14.494 16.169V40.2253c0-2.169-.783-2.9577-2.742-2.9577v-1.1831h14.103v1.3803h-.196z"/></svg>
