<svg xmlns="http://www.w3.org/2000/svg" fill="currentColor" viewBox="0 0 180 50"><path d="M151.139 26.2276c-.105 0-.105-.105-.105-.3148 0-.1049 0-.1049.105-.2098.105-.3147.315-.4196.315-.6295v-.4196c0-.1049.105-.1049.105-.2098.21-.2098.524-.3148.734-.4197.105-.1049.21-.3147.525-.3147.105 0 .21.1049.315.2098.104.1049.104.2098 0 .3148 0 .2098-.21.5245-.315.6294-.315.4197-1.259 1.4688-1.679 1.3639zM25.247 40.3904v-.2098c0-.1049.2098-.3147.2098-.4196v-.5246c0-.3147.2098-.6294.1049-1.154 0-.1049.1049-.3147.1049-.4196s0-.1049-.1049-.2099v-.5245c-.1049-.4196-.1049-.9442-.2098-1.3638-.1049-.2099-.1049-.3148-.2098-.5246-.1049-.4196-.2098-.7344-.3147-1.0491 0-.1049-.3148-.2098-.3148-.3147v-.4197s0-.1049-.1049-.1049l-.2098-.1049s0-.1049-.1049-.1049v-.4196h-.3148c0-.1049-.1049-.2099-.1049-.2099 0-.1049-.3147-.1049-.4196-.4196-.1049-.2098-.1049-.2098-.1049-.4196 0-.1049-.3147-.2099-.3147-.3148-.2099-.3147-.3148-.6294-.5246-.9442-.1049-.1049-.2098-.2098-.3147-.4196 0-.1049-.1049-.1049-.1049-.2098s-.1049 0-.2099 0c0 0 0-.1049-.1049-.1049v-.2099c0-.1049-.3147-.3147-.3147-.4196-.1049-.2098-.1049-.3147-.3147-.5245-.1049-.105-.2098 0-.2098-.105-.105-.1049-.105-.3147-.2099-.4196-.3147-.4196-.6294-.8393-.7343-1.2589-.1049-.3147-.1049-.7344-.1049-1.2589l-.105-.2099c-.1049-.4196.3148-.9442.8393-1.3638.2098-.2098.5246-.4196.9442-.5245.1049 0 .3147-.105.4197-.105h.2098l.2098-.1049c.1049 0 .2098-.1049.3147 0 .1049 0 .1049.1049.2098.2099.2099.1049.5246-.105.7344.1049 0 0 0 .1049.1049.1049 0 0 0 .1049.1049.1049.105.1049.2099.1049.3148.2098.1049.1049.2098.3147.4196.5246 0 0 0 .1049.1049.1049.1049.4196.1049 1.3638 0 1.6785v.2099c.1049.2098.2098.3147.4197.3147h.2098s.1049 0 .1049-.1049c.1049-.1049.3147-.6295.3147-.8393-.1049-.3147.1049-.1049.1049-.3147.1049-.4197.1049-.5246.1049-.8393.105-.4197.2099-.8393.4197-1.2589.1049-.105.3147-.6295.4196-.6295.1049-.1049.8393-.3147.9442-.5246.1049-.1049 0-.2098 0-.3147-.1049-.2098-.3147-.4196-.5245-.3147-.3148.1049-.5246.2098-.6295.3147-.4196.4197-.6295.9442-.8393 1.3638-.1049.2099-.3147.4197-.4196.6295 0 0 0 .1049-.1049.1049h-.1049c-.2099-.2098-.3148-.3147-.5246-.5245-.7344-.6295-1.2589-.8393-2.308-.7344-.2098 0-.7344.1049-1.0491.2098-.2098.1049-.4197.1049-.6295.2098l-.9442.5246c-.3147.2098-.4196.5245-.6294.7344-.1049.1049-.3148.2098-.3148.4196-.3147.5245-.5245 1.154-.2098 2.4129l.1049.2099c.3148 1.0491.7344 1.6785 1.259 2.308.2098.3147.8392 1.2589 1.0491 1.5736.1049.1049.3147.2099.3147.2099v.2098c.1049.2098.8393 1.0491.9442 1.3638s.5245.6295.6294 1.0491c0 .1049.1049.3147.1049.5246.105.3147.4197.7343.5246 1.154v.5245c0 .2098.2098.3148.2098.4197 0 0 .1049.1049.1049.3147.1049.4196.3148 1.154.3148 1.6786 0 .5245-.105.9441-.105 1.3638 0 .2098-.2098.5245-.2098.7344 0 .2098.1049.3147 0 .4196 0 .1049-.1049.1049-.2098.2098-.2098.3148-.5245.9442-.8393 1.2589-.3147.3148-.6294.6295-.7343.7344-.105.1049-.2099.1049-.4197.2098-.4196.4197-.9442.6295-1.4687.8393h-.1049c-.2099 0-.7344.2098-.9442.2098-.2099.1049-.4197 0-.7344 0-1.3638.1049-1.9933-.1049-2.5178-.4196-.105 0-.6295-.2098-.7344-.2098-.1049 0-.1049-.2098-.2098-.2098s-.2099 0-.2099-.105c-.1049-.1049-.1049-.2098-.2098-.2098-.3147-.1049-.3147-.3147-.5245-.4196-.3148-.2098-.7344-.6295-.8393-1.0491-.1049-.3147-.2098-.5246-.3147-.7344 0-.1049-.105-.2098-.105-.3147v-.1049c0-.1049-.1049-.2098-.1049-.3148 0-.1049 0-.2098-.1049-.3147 0-.2098 0-.3147-.1049-.5245-.1049-.2099-.1049-.8393-.1049-.9442s.2098-.3148.3147-.5246c.1049-.2098-.1049-.4196 0-.6294 0-.105.2099-.105.2099-.2099.1049-.1049 0-.3147.1049-.4196.3147-.4196.5245-.7344 1.0491-1.154.1049-.1049.4196-.4197.6294-.5246.4197-.3147.9442-.6294 1.4688-.8393h.1049c.4196-.1049 1.0491 0 1.2589 0 .1049 0 .2098 0 .2098-.1049h.2098l.105.1049c.2098.105.6294.105.7343.2099.1049.1049.2098.3147.3148.4196h.2098c.2098.1049.5245.6295.7344 1.154.1049.3148.1049.6295.1049.8393-.1049.3147-.3148.7344-.6295.9442 0 0-.1049 0-.1049.1049-.3147.1049-.7344-.1049-.9442 0-.1049 0-.1049 0-.2098.1049 0 0-.1049 0-.2098.1049-.105.1049-.105.2098-.105.4197.105.3147.5246.5245 1.0491.4196.105 0 .2099 0 .2099-.1049.7343-.2098 1.2589-.7344 1.4687-1.3638.1049-.1049.2098-.4197.2098-.5246 0-.3147-.1049-.5245-.1049-.8393 0-.2098 0-.4196-.1049-.6294-.1049-.3148-.2098-.5246-.4196-.7344-.4197-.5246-1.259-.9442-1.7835-1.0491-.1049 0-1.0491-.2098-1.6786-.1049-.4196.1049-.8392.1049-1.4687.3147-.2098.1049-.4196.1049-.6295.2098-.5245.2099-.9442.4197-1.154.7344-.1049.1049-.1049.3147-.3147.4196-.2098.105-.4197.2099-.5246.3148-.1049 0-.2098.1049-.3147.2098-.2098.3147-.7344.8393-.9442 1.154-.3147.5246-.4196 1.2589-.4196 1.5737 0 .1049-.3148.5245-.2098 1.2589 0 .3147.1049.6295.5245 2.308.1049.2098.3147.4197.4196.6295.105.1049.105.2098.105.3147.1049.1049.4196.2098.4196.4196.1049.2099.7344.7344.9442.7344.1049 0 .1049.2098.2098.2098.8393.6295 2.8326.9442 4.1964.8393.6295 0 1.0491-.1049 1.6786-.2098.3147-.1049.5245-.1049.7344-.2098.8392-.3148 1.154-.5246 1.9932-.9442.2099-.1049.3148-.1049.5246-.2098.1049-.1049.2098-.3148.3147-.4197s.2098-.1049.4197-.3147c.2098-.1049.2098-.3147.7343-.9442.5246-.6295.4197-.6295.5246-.8393.1049-.1049.3147-.3147.3147-.5245.5246-.1049.6295-.3148.7344-.4197zm98.406-14.1628c0-.105-.105-.4197-.105-.5246-.105-.2098-.21-.4196-.525-.6295-.105-.1049 0-.2098-.105-.2098-.105-.1049-.105-.1049-.209-.1049h-.105c-.315-.1049-.315-.2098-.42-.3147.105.4196.105.8393 0 1.3638 0 .3147-.21.7344-.42.9442 0 0-.314.1049-.314.2098v.1049c0 .2099-.21.5246-.525.6295-.315.2098-.42.4196-.839.4196h-.315c-.105 0-.105.1049-.21.2099-.21.1049-.524.1049-.944 0-.105 0-.21 0-.315-.105-.629-.2098-.734-.3147-.944-.5245-.21-.1049-.315-.2098-.524-.4196-.315-.4197-.42-.9442-.42-1.5737 0-.1049 0-.2098.105-.2098 0-.2098.21-.3148.315-.5246.105-.3147.209-.5245.419-.7343.105-.105.21-.105.315-.2099.42-.3147.839-.5245 1.364-.6294.419-.1049.839-.1049 1.259-.1049l.629.1049c-.105-.2098-.21-.3148-.315-.4197-.104-.1049-.104-.2098-.524-.5245-.105-.1049-.525-.3147-.839-.4197-.105 0-.315-.1049-.42-.1049-.21 0-.315-.1049-.525-.1049h-.104c-.21 0-.735.2098-.84.2098 0 0-.314.105-.419 0-.105 0-.42 0-.525.105-.524.2098-.734.2098-1.154.5245-.105.1049-.21.1049-.315.1049-.21.1049-.105.5246-.21.6295-.104.1049-.419.2098-.419.3147-.105.1049-.42.6295-.42.7344 0 .1049-.105.2098-.21.5245 0 .1049-.105.2098-.105.3148v.4196c0 .1049-.104.2098-.104.3147v.8393c0 .4197.104.9442.314 1.3638.105.2099.105.3148.315.6295.105.1049 0 .2098.105.3147 0 0 .21.1049.21.2099.105.1049 0 .2098.105.3147s.524.5245.524.5245c.315.4197.84.9442 2.098 1.4688l.63.3147c.21.1049.734.1049.944.2098h.21c.42.1049 1.049.1049 1.678-.1049.21-.1049.315-.1049.42-.1049.21 0 .525-.2098.944-.3147.42-.2098.944-.5246 1.259-.7344.105 0 .105 0 .21-.1049s.105-.2098.21-.4196c.105-.2099.42-.4197.524-.6295.21-.4196.525-.7344.735-1.2589.21-.5246.419-1.2589.419-1.6786v-.3147c0-.1049-.104-.3147 0-.5246v-.2098c0-.1049.105-.2098.105-.3147.105-.4197 0-.9442 0-1.2589 0-.2099.105-.4197.105-.5246.105-.4196-.105-.9442-.105-1.2589 0-.4197-.314-1.4688-.314-1.6786 0-.1049 0-.1049.105-.2098 0-.1049-.105-.3147-.21-.4196 0-.3148-.21-1.3639-.315-1.7835-.21-.8393-.315-1.5737-.21-2.6228v-.2098c.21-1.2589.735-1.7835 1.259-2.0982.105-.1049.315-.2098.525-.2098.314-.1049.524-.4197.944-.4197l1.049-.1049h.629c.315 0 .735.2099 1.049.2099.945.3147 1.364.7343 1.784 1.5736.105.3147.21.4196.315.7344l.105.1049h.104l.63-.3147c.315-.2099.734-.7344 1.259-.8393.21 0 .42-.1049.629 0h.105c.21 0 .315.3147.315.5245 0 .1049-.105.2098-.21.3148-.21.2098-.839 0-1.049.1049 0 0-.524.3147-.629.4196-.42.3147-.63.6295-.84.9442-.105.2098-.105.3147-.419.6295-.105.1049-.21 0-.21.1049v.1049c0 .2098-.525.5245-.63.6294h-.105s-.104 0-.209-.1049-.21-.3147-.21-.4196 0-.1049.105-.2098c.105-.2098.629-1.0491.629-1.4688v-.1049c0-.2098-.105-.5245-.105-.6294 0-.105-.105-.2099-.21-.3148v-.2098c-.104-.2098-.419-.2098-.629-.4196-.105-.1049 0-.2099-.105-.2099-.105-.1049-.21-.1049-.315-.1049h-.419c-.105-.1049-.315-.1049-.42-.1049-.315 0-.734 0-1.049.1049-.629.1049-1.259.5246-1.259.8393v.2098c-.315.4197-.42.8393-.524 1.1541-.105.4196 0 .9441.104 1.4687v.5245c.105.105.105.105.21.2099.105.3147 0 .4196 0 .6294 0 .1049.21.3148.21.5246 0 0 0 .1049-.105.2098v.1049c0 .1049.105.1049.21.1049 0 .1049 0 .2098.105.2098 0 .1049.105.3148.105.4197 0 .3147 0 .7344.105 1.0491 0 .1049.21.3147.21.4196-.105.2098-.105.2098-.105.4197 0 .3147.209.4196.105.5245v.2098s.104.1049.104.2099c0 .2098-.104.3147-.104.4196v.1049l.104.2098v.1049c0 .1049-.104.2099-.104.4197 0 .1049.209.3147.209.4196-.105.3147-.105.7344-.209 1.0491v.9442c0 .1049-.105.2098-.105.3147 0 .105-.105.105-.21.2099v.7343s-.105.1049-.105.2099v.2098c0 .1049-.315.3147-.315.5245v.3148c-.105.4196-.315.4196-.524.7343-.105.2098-.105.3148-.21.5246-.105.1049-.315.2098-.42.3147v.2098c-.105.1049-.21.2099-.315.3148-.104.2098-.419.2098-.524.3147-.105.1049-.105.2098-.839.5245-.735.4197-.84.4197-1.05.4197-.314 0-.419 0-.524.1049-.105.1049-.315.2098-.525.2098-.209.1049-.314 0-.524 0-.944.1049-1.259.2098-2.203.1049-.21 0-.525-.1049-.735-.1049-.629-.1049-1.049-.2098-1.678-.5245-1.259-.4197-2.833-1.4688-3.357-2.413-.105-.1049 0-.3147-.105-.3147-.21 0-.525-.8393-.525-1.0491 0-.2098-.21-.4196-.21-.5246v-.3147c0-.2098-.209-.5245-.105-.7344l.105-.7343.105-.7344c0-.3147.105-.6295.21-.9442.315-.7344.63-.9442.734-1.0491.105-.3147.525-.7344 1.154-1.154.315-.2098.735-.5246 1.155-.7344.209-.1049.419 0 .629-.1049.105 0 .315-.1049.42-.1049.419-.1049.524-.1049.734-.1049.42-.1049.315 0 .734 0h.42c.42.1049 1.049.2098 1.364.4196.105 0 .315.2099.315.3148.104 0 .314.1049.419.1049.315.2098.42.3147.525.5245.105.1049.21.4197.314.5246.105.2098.315.4196.525.7343.525.2099.839.4197 1.154.7344.315.3147.63.7344.734 1.0491.105.3148.105.6295.105.8393v.1049c0 .2098-.21.5246-.314.5246h-.21c-.105 0-.21-.1049-.315-.2099v-.1049c0-.1049.105-.2098.21-.2098-.105-.3147.105-.5245.105-.6294zm-2.308-1.8884l-.105-.2099c-.105 0-.315-.1049-.42-.1049h-.419c-.42 0-.735 0-1.05.1049h-.314c-.105 0-.21.2099-.21.2099-.105.1049-.315.1049-.42.2098-.419.2098-.734.5245-.944.9442 0 .2098-.105.3147-.105.5245-.105.5246 0 .9442.315 1.259.105.1049.21.3147.315.4196.105.1049.314.1049.524.2098.21 0 .315.1049.525.1049h.314c.21 0 .525-.2098.735-.2098.105 0 .105-.2098.315-.2098.524-.3147.944-.8393 1.049-1.4688v-.2098c0-.7344 0-1.2589-.105-1.5736zm-91.2721 1.2589c0 .1049.1049.2098.2098.2098.5245-.1049.8393-1.4687.8393-1.9933 0-.2098 0-.5245-.1049-.7344 0-.1049-.105-.2098-.2099-.2098h-.3147c-.3147.1049-.2098.3148-.3147.5246-.1049.2098-.4197.4196-.4197.7343v.3148c0 .1049.1049.1049.1049.2098s.105.2098.105.2098c.1049.2098 0 .3147 0 .6295.1049 0 .1049 0 .1049.1049zm15.3169 3.0424c-.2099.2098-.2099.3147-.2099.3147v.1049c-.1049.1049-.2098.1049-.2098.2098-.1049.105-.1049.2099-.2098.4197-.3147.5245-.6295 1.0491-.8393 1.5736-.2098.3148-.2098.6295-.3147.9442 0 .1049-.2098.2099-.2098.2099v.3147c-.105.3147 0 .7344-.2099.8393-.1049.1049-.5245.2098-.8392.3147h-.105c-.2098 0-.4196 0-.5245-.2098v-.4197c0-.9442.1049-.8392.3147-1.154 0-.1049-.1049-.3147 0-.4196.1049-.5246.2098-1.154.3148-1.6786v-.5245c0-.6295.3147-.9442.3147-1.4688h-.1049c-.1049 0-.2098.2098-.4197.4197-.1049.1049-.2098.4196-.3147.6294-.2098.2098-.3147.4197-.4196.6295l-.4197.5245c-.2098.2099-.1049.3148-.3147.4197h-.1049c0 .1049-.1049.2098-.2098.2098l-.4197.5246c-.1049.2098-.1049.3147-.3147.4196 0 .5245 0 1.154-.1049 1.5736v.6295c0 .5246-.1049 1.8884-.2098 2.308 0 .1049-.1049.5246-.2099 1.259 0 .2098-.1049.4196-.2098.6294v.6295c-.1049.5245-.2098.7343-.3147 1.0491 0 .2098-.1049.3147-.1049.5245.4196 0 .8393-.1049 1.2589-.2098.2098 0 .3147-.1049.5246-.1049.3147-.1049.7343-.2098 1.0491-.3147h.3147c.2098-.1049.4196-.2099.5245-.3148.6295-.3147 1.154-.7343 1.4688-1.154.4196-.6294.5245-.9442.4196-1.4687-.1049-.4197-.4196-.8393-1.0491-.6295-.4196.1049-.3147.4197-.3147.4197.1049.1049.3147 0 .3147.2098v.1049c0 .2098 0 .4196-.3147.4196-.3147.1049-.5246-.1049-.6295-.4196-.1049-.5246.4197-.9442.9442-1.0491.5246-.1049 1.154-.1049 1.3639.2098.1049.1049.3147.3147.3147.5246.1049.2098 0 .5245 0 .7343 0 .1049-.2098.2099-.2098.2099v.4196c0 .1049-.2099.5245-.4197.6295-.2098.3147-.5245.5245-.8393.7343-.1049 0-.1049.1049-.1049.1049h-.2098s-.1049 0-.1049.1049c-.1049.105-.1049.2099-.3147.3148-.4197.2098-.9442.4196-1.4688.5245-.1049 0-.3147 0-.4196.1049-.5246.105-1.2589.2099-2.0982.2099-.1049.2098-.1049.5245-.2098.7343-.105.2099-.2099.4197-.3148.5246-.1049.3147-.1049.4196-.4196.9442l-.3147.3147c-.105.1049 0 .3147-.105.4196-.1049.3148-.1049.4197-.4196.8393-.2098.2098-.3147.5246-.4196.7344-.2099.3147-.2099.5245-.7344 1.0491-.1049.1049-.3147.1049-.3147.1049-.1049.1049 0 .2098-.1049.4197-.105.2098-.4197.6294-1.1541 1.154-.1049.1049-.3147.1049-.5245.2098-.1049.1049-.1049.3147-.3147.3147-.6295.4197-.9442.5246-1.4688.7344-.5245.2098-.8393.3147-1.4687.5245-1.154.3148-2.0982.3148-2.9375.2099-.1049 0-.3147-.2099-.4197-.3148h-.6294c-.5246-.1049-.6295-.3147-.9442-.5245-.2098-.2098-.7344-.8393-.8393-1.4688v-.1049c-.1049-.6294-.1049-.7343-.1049-1.154 0-.5245.1049-.9442.5246-1.6786.1049-.2098.3147-.2098.4196-.3147.1049-.2098.1049-.4196.2098-.5245.2098-.3148.5246-.6295.8393-.9442.4196-.3148.9442-.5246 1.4687-.8393.5246-.4197 1.259-.6295 1.8884-.8393h.4197c.2098 0 .4196-.2098.5245-.3147s.3147-.1049.4197-.1049c.3147-.1049.6294-.1049 1.0491-.1049.3147-.1049.6294 0 .9441 0l.8393-.1049 2.9375-.2099.1049-.6294c0-.2098.2098-.3148.2098-.5246v-.5245c.105-.2099.105-.2099.2099-.5246 0-.2098 0-.5245.1049-.7344l.2098-.9441V34.6204c0-.1049.1049-.4197.1049-.4197.1049-.5245.2098-.9442.1049-1.5736-.1049-.2098.1049-.4197.1049-.6295v-.5245c.1049-.2099 0-.2099 0-.4197v-1.3638h-.1049c-.2098.4196-.3147.8393-.5245 1.154-.3148.5246-.6295 1.0491-.9442 1.4687-.1049.105-.2098.105-.2098.2099-.105.1049-.105.2098-.105.2098-.1049.1049-.1049.2098-.4196.5245-.4196.4197-.6295.8393-1.0491 1.154-.2098.2099-.6295.5246-1.154.7344-.2098.1049-.4197 0-.7344-.1049-.2098-.1049-.4196-.5245-.4196-.8393-.1049-.4196-.1049-.8393-.1049-1.154 0 .1049-.1049.2098-.2099.3147-.3147.4197-.7343.8393-1.0491 1.259l-.1049.2098c-.1049.1049-.1049.1049-.2098.1049-.1049.1049-.1049.3147-.2098.4196-.1049.2099-.5246.4197-.7344.5246-.2098.1049-.5245.3147-.8393.4196h-.1049c-.4196 0-.8393-.1049-1.0491-.2098-.1049-.1049-.2098-.3147-.2098-.5245-.1049-.2099-.1049-.4197-.1049-.5246 0-.8393 0-1.7835.2098-2.5178 0 0-.1049-.1049-.1049 0-.1049.1049-.1049.2098-.2098.3147l-.3147.3147c0 .1049-.105.2098-.105.2098 0 .105-.1049.105-.2098.2099-.1049.2098-.2098.3147-.2098.3147-.1049 0-.2098-.1049-.2098-.1049 0-.1049.2098-.4197.2098-.5246 0-.1049.1049-.1049.2098-.2098 0-.1049 0-.2098.1049-.3147 0-.1049.1049-.1049.1049-.2098s.105-.1049.2099-.2099c.1049-.2098.2098-.5245.3147-.7343.2098-.3148.1049-.4197.3147-.6295.1049-.2098.2098-.5245.4197-.8393 0-.1049.1049-.2098.2098-.3147.1049-.3147 0-.3147.3147-.5246.1049-.1049.1049-.1049.2098-.1049h.3148c.3147.1049.2098.3148.4196.4197 0 0 .2098.1049.2098.2098s0 .1049.1049.2098c.105.4197-.2098.9442-.3147 1.4688 0 .1049-.1049.3147-.1049.4196-.1049.4196-.1049.7344-.2098 1.154v.5246c0 .3147 0 .6294-.1049.9442 0 .1049-.1049.1049-.1049.3147v.6294c0 .105 0 .105.1049.105.1049.1049.2098.1049.3147.1049s.2098 0 .2098-.1049c.2098-.1049.3148-.2099.5246-.3148l.1049-.1049c.1049-.1049.3147-.2098.4196-.4196.2098-.2098.2098-.5246.4197-.7344 0-.1049.1049-.1049.2098-.2098.1049-.2098.2098-.3147.3147-.5246 0-.1049.2098-.3147.3147-.4196.2099-.2098.4197-.8393.6295-1.0491v-.1049c.1049-.2098.1049-.3147.1049-.4197 0-.1049.1049-.2098.2098-.3147.2099-.2098.2099-.6295.3148-.8393.1049-.2098.4196-.3147.5245-.5245 0 0 0-.1049.1049-.2098.1049-.105.3148-.3148.4197-.4197 0-.1049.1049-.2098.2098-.3147.3147-.3147.7344-.6295 1.154-.8393.3147-.1049.7344-.3147 1.154-.4196.2098 0 .4197-.1049.6295-.1049.8393 0 1.0491.3147 1.154.3147.1049-.2098 0-.6295.1049-.7344.1049-.1049.3147-.4196.5246-.5245.1049 0 .3147-.2099.4196-.2099s.2098 0 .2098.105c.1049.7343-.2098 1.3638-.2098 1.8883v.4197c-.1049.6294-.1049 1.3638-.1049 1.9933 0 0 .1049-.1049.1049-.2099.1049-.2098.3147-.4196.4196-.6294.2099-.4197.4197-.5246.5246-.6295.1049-.2098.2098-.4196.4196-.6294.5246-.8393.9442-1.5737 1.3639-2.413.2098-.4196.4196-.7343.8392-1.0491.1049-.1049.3148-.2098.4197-.2098.2098 0 .2098.1049.3147.2098.1049.3148 0 1.0491 0 1.154-.1049.3148 0 .5246 0 .8393 0 .1049-.1049.2098-.1049.2098s0 .105.1049.2099v.1049c-.1049.2098 0 .4196-.1049.6294 0 .3148-.2098.9442-.2098 1.0491v.1049c.2098 0 .4196-.4196.5245-.7343.3148-.6295.4197-.6295.8393-1.2589.2098-.3148.5246-.7344.7344-1.0491.2098-.3148.3147-.5246.5245-.7344.3148-.3148.6295-.5246 1.0491-.6295.3148-.1049.6295 0 .9442.2098.3148.2099.3148.6295.4197 1.0491v.9442s0 .1049.1049.2099c0 .2098 0 .4196.1049.5245.1049.3147 0 .6295 0 .8393v.1049c0 .2098.1049.4196.2098.6295v.3147c.1049.3147.2098.6294.5246.7344h.3147c.2098 0 .4196-.2099.6295-.3148.2098-.1049.5245-.6294.6294-.7343.2098-.2099.1049-.2099.3147-.5246l.3148-.4196c.1049-.1049.2098-.3148.3147-.5246.1049-.1049.1049-.2098.2098-.3147 0-.1049.1049-.3147.1049-.4197 0 0 .1049 0 .1049-.1049v-.1049c0-.1049.105-.2098.105-.3147s.3147-.4196.4196-.5246c.1049-.1049.1049 0 .1049-.1049v-.3147c0-.2098.4197-.4196.6295-.5246v-.2098c.1049-.2098.4196-.3147.5245-.5245.2098-.2098.5246-.4197.8393-.6295.2098-.2098.5246-.1049.7344-.3147.1049-.1049.2098-.1049.3147-.1049.1049-.1049.3147-.2098.5246-.2098.1049 0 .2098-.105.3147-.105.3147-.1049.7344 0 1.0491-.1049.9442 0 1.7835.5246 1.9933 1.259v.2098c0 .1049-.1049.3147-.4197.3147-.2098 0-.3147-.1049-.3147-.2098 0-.3147.1049-.5246.1049-.6295s-.2098-.3147-.4196-.4196c-.3147-.1049-.7344-.1049-1.154-.1049-.5246.1049-1.0491.3147-1.3639.5245-.1049.1049-.2098 0-.3147.1049s-.3147.2099-.4196.3148l.2098 1.2589c-.1049.1049-.3147.1049-.4197.2098-.1049.1049 0 .3147-.2098.3147s-.2098.3148-.3147.4197c0 .1049-.2098.2098-.3147.2098-.105.1049-.105.3147-.2099.4196 0 .105-.2098.3148-.3147.4197-.2098.3147-.3147.6294-.4196.9442-.2098.4196-.3148.8393-.3148 1.3638v.2098c0 .2098.105.3148.3148.3148.2098 0 .4196-.105.4196-.2099.2098-.2098.4197-.2098.6295-.4196l.3147-.3147c.2098-.2099.3147-.3148.5246-.5246.3147-.3147.6294-.7344.9441-1.0491l.4197-.7344.1049-.3147c.1049-.3147.2098-.4196.4196-.6294.1049-.105.4197-.3148.6295-.4197h.1049c.3147 0 .6295.2098.7344.4197 0 .1049.1049.1049.1049.2098v.5245c0 .2098-.1049.6295-.2098.7344-.1049.3147 0 .6295-.2099.9442 0 .1049-.1049.1049-.1049.3147v.8393c0 .1049.2099.2098.3148.1049.1049 0 .2098 0 .2098-.1049.1049-.1049.4196-.3147 1.0491-.8393l.5245-.5245c0-.1049.2099-.1049.2099-.2099.1049-.1049.2098-.3147.3147-.5245.1049-.1049.3147-.2098.3147-.3147.2098-.2099.5246-.8393.7344-.9442.1049-.4197.2098-.8393.3147-1.259 0-.1049-.1049-.3147 0-.5245s.3148-.5246.3148-.7344v-.6294c.1049-.1049.2098-.2099.2098-.3148 0-.1049-.1049-.1049-.1049-.2098v-.1049c.1049-.4196.3147-.7344.3147-1.154l.4196-.9442c0-.3147.105-.5246.3148-.7344h-.8393c-.1049 0-.4197.1049-.5246.1049-.7343 0-.7343.2099-1.154.2099h-.3147c-.1049 0-.2098-.105-.4196-.105h-.2099c-.4196 0-.6294.105-1.0491.105h-.2098c-.7344-.105-1.4687-.2099-2.0982-.4197-.6295-.3147-.8393-.5245-1.3638-.8393-.2098-.1049-.3148-.4196-.3148-.5245s.105-.1049.105-.2098-.2099-.1049-.2099-.2099c-.1049-.1049-.1049-.3147-.1049-.4196v-.3147c0-.1049.1049-.2098.2098-.3148.2099-.2098.4197-.3147.5246-.3147.2098 0 .4196.1049.4196.3147-.1049.2099-.2098.3148-.3147.3148s-.2098.1049-.2098.1049h-.2098v.2098c0 .3147.2098.8393.6294 1.0491.1049 0 0 .2098.1049.3147h.3148c.3147.2099.6294.4197 1.0491.5246.4196.2098 1.0491.2098 1.5736.3147.5246 0 .7344.1049 1.0491.1049.2098 0 .5246 0 1.0491-.1049.3148 0 .7344-.1049 1.0491-.1049.2098 0 1.0491-.1049 1.259-.1049.1049 0 .2098-.1049.4196-.1049v-.2098c.1049-.3148.5245-.5246.7344-.9442.2098-.3148.4196-.7344.7343-1.0491.3148-.3148.3148-.8393.8393-.8393.1049 0 .2098 0 .3147-.1049h.105s.1049.1049.1049.2098v.1049c-.2099.5246-.4197 1.0491-.7344 1.5737-.1049.3147-.4196.5245-.5246.8392 0 0-.1049 0-.1049.105v.2098l.5246-.1049.3147-.1049h.4197c.2098 0 .3147 0 .4196-.105.3147-.1049.4196-.1049.7344-.1049.4196-.1049.9442-.1049 1.3638-.2098.4196-.1049.8393-.2098 1.2589-.3147.3148 0 .6295 0 .9442-.1049.3147-.1049.5246-.1049.8393-.1049l.5246-.2099c.5245-.1049.5245-.1049 1.0491-.2098h.4196c.2098 0 .3147-.1049.4196-.1049.5246-.1049.7344-.1049 1.3639-.2098.5245 0 .6294-.1049 1.2589-.1049.1049 0 .3147.1049.4196.1049 0 0 .6295-.1049.9442-.1049h1.2589s.2099.1049.3148.1049h1.0491c.1049 0 .2098.1049.3147.1049h.7344c.2098 0 .4196 0 .5245.1049.4197.1049.6295.1049 1.0491.3147.3148.105.4197.105.6295.2099.1049 0 .4196.3147.5245.3147.2099 0 .4197.2098.6295.4196.1049.1049 0 .2099.1049.2099.4197.1049.3147.3147.5246.4196.3147.2098.4196.7344.4196.9442 0 .3147-.2098.6295-.5245.6295h-.105c-.2098 0-.3147 0-.4196-.2099v-.2098c0-.1049 0-.3147.1049-.4196 0-.4197-.5245-.7344-1.0491-1.0491-.1049 0-.4196-.2099-.6294-.3148-.3148-.1049-.3148-.2098-.8393-.3147-.2098 0-.4197 0-.7344-.1049-.2098 0-.4196-.2098-.6295-.3147-.2098 0-.8392 0-1.0491-.1049-.4196-.105-.9442-.2099-1.4687-.2099h-.7344c-.1049 0-.1049-.1049-.2098-.1049h-2.2031c-.3147 0-.2098.1049-.5246.1049h-.1049l-.7343.1049c-.4197 0-.4197.105-.8393.105-.3148 0-.6295.1049-.9442.1049h-.2098c-.2099 0-.2099.1049-.3148.1049-.6294.1049-.5245.1049-1.0491.2098-.3147.1049-.7343.1049-1.0491.2098-.4196 0-.7343.1049-1.154.2098-.2098.1049-.4196.1049-.6294.1049-.105 0-.2099.105-.3148.105-.3147 0-.5245.1049-.8393.1049-1.0491.1049-.9442.2098-1.8883.4196l-.6295.1049v.1049c0 .1049-.1049.3148-.1049.5246l-.2098.7344c-.1049.3147-.2099.5245-.4197.8392 0 .1049-.1049.6295-.2098.7344l-.2098.6295c0 .2098 0 .3147-.1049.5245-.1049.3147-.3148.6295-.3148.9442-.1049.5246-.2098 1.0491-.3147 1.4688-.2098.7343-.1049 1.3638-.1049 1.9932 0 .105-.1049.105 0 .2099 0 .2098.2098.5245.5246.6294.1049.1049.3147.1049.4196.1049.3147 0 .7344-.2098.9442-.3147l.1049-.1049c.2098-.1049.3147-.2098.5245-.3147.2099-.2099.3148-.4197.5246-.6295 0-.1049.1049-.1049.2098-.1049.1049-.1049.3147-.3147.4197-.4196.1049-.105.3147-.2099.3147-.3148.2098-.1049.4196-.5245.6294-.7343.105-.3148.4197-.3148.5246-.6295.1049-.2098.1049-.1049.2098-.3147l.3148-.3148c.3147-.3147.1049-.2098.3147-.5245.2098-.2098.2098-.3148.5245-.5246.2099-.2098.3148-.4196.4197-.5245 0-.1049.1049-.4197.2098-.5246.3147-.2098.5245-.2098.8393-.4196.2098-.2098.4196-.3147.7343-.4197.2099 0 .4197.105.5246.2099 0 .1049.1049.1049.1049.2098s-.1049.3147-.1049.4196c-.1049.1049 0 .4197 0 .4197 0 .2098-.5246.8392-.4196 1.0491 0 0-.105.1049-.105.2098-.1049.2098 0 .3147-.1049.5245-.4196.7344-.9441 2.5179-.9441 2.9375 0 .1049.2098.1049.3147.1049h.2098c.2098-.1049.8393-.5245 1.0491-.8392.1049-.105.1049-.2099.1049-.2099.2098-.2098.4197-.3147.6295-.5245.1049-.1049.2098-.3147.3147-.4197.1049-.1049.3147-.2098.4196-.3147.2099-.2098.4197-.4196.5246-.6295.1049-.2098.5245-.5245.6295-.7343.2098-.3148.3147-.5246.5245-.8393.1049-.2098.4196-.4196.6295-.7344.2098-.2098.2098-.6294.5245-.7343.1049 0 .2098-.105.3147-.105h.105c.3147.105.5245.5246.5245.8393v.2098c-.2098.2099-.3147.6295-.4196.9442-.1049.2099-.3148.4197-.4197.6295-.2098.5245-.3147 1.154-.4196 1.7835v.5245c0 .4197.2098.7344.4196.8393h.2098c.3148 0 .8393-.4196.9442-.5245l1.5737-1.5737c.2098-.2098.4196-.5246.6295-.6295l.3147-.3147c0-.1049.2098-.1049.2098-.2098l.7344-.7344c.1049-.1049.3147-.2098.4196-.4196.1049-.1049.2098-.3148.2098-.3148.1049-.1049.2099-.1049.3148-.2098 0 0 .1049-.2098.1049-.4196v-.6295c0-.5245.1049-1.0491.5245-1.3638.1049-.1049.2098-.1049.3148-.2098h.1049c.1049 0 .2098.1049.3147.2098s.2098.2098.2098.4196v.2099c-.1049.2098-.4196.4196-.5245.7343v.2098c0 .2099.1049.3148.3147.4197s1.154.3147 1.3638.5245c.1049.1049.3148.4197.3148.6295v.1049c-.1049.5246-.4197 1.0491-.6295 1.4687-.2098.3148-.1049.8393-.2098 1.1541 0 .1049-.1049.3147-.1049.4196 0 .3147.1049.7344.3147.8393.1049.1049.2098.1049.3147.1049.3148 0 .6295-.2098.8393-.3147l.3147-.2099c.2099-.2098.4197-.3147.6295-.5245l1.154-1.154c.1049-.1049.3148-.3148.4197-.5246v-.1049c.1049-.4196.4196-.7344.6294-1.154 0 0 .2098-.1049.2098-.2098.105-.1049.105-.2098.2099-.4197.1049-.2098.2098-.2098.3147-.4196.3147-.3147.7344-.6295 1.154-.9442.3147-.2098 1.0491-.5245 1.7835-.4196.3147 0 .6294.1049.8393.4196.2098.2098.3147.5246.3147.7344 0 .3147-.2098.6294-.3147.7344-.1049.1049-.2099.1049-.2099.2098-.1049.1049-.1049.3147-.2098.5245-.1049.1049-.3147.2098-.4196.3148-.1049 0-.4197.3147-1.0491.6294.4196-.1049.9442-.2098 1.4687-.3147.2098 0 .3148-.1049 1.7835-.6295l.7344-.3147c.2098-.1049.4196-.3147.6294-.3147.3148-.1049.4197-.1049.7344-.2099.2098-.1049.4196-.2098.6295-.2098.5245-.2098.9442-.2098 1.4687-.3147.5246-.1049 1.0494-.1049 1.7834-.1049.525 0 1.049.2098 1.469.4196.524.2098.839.4197 1.049.7344.105.1049.315.3147.315.4196.105.2099.105.4197.105.6295.104.2098.104.4196 0 .6295 0 .1049-.21.2098-.21.3147s.105.2098.105.2098c0 .6295-.42 1.154-.735 1.2589-.105 0-.21.1049-.314.1049-.105 0-.105.2099-.21.2099-.63.3147-1.259.5245-1.994.4196h-.314c-.8396-.1049-1.5739-.4196-1.8887-.9442-.1049-.2098-.1049-.4196-.1049-.6294 0-.105 0-.2099.1049-.3148.1049-.4196.2098-.6294.5246-.8393.2098-.2098.5245-.2098.8393-.2098.4198 0 .7348.2098.7348.5246 0 .1049-.21.3147-.42.2098-.3148 0-.4198-.2098-.4198-.4197-.2098 0-.4196 0-.6294.2099-.1049.1049-.3147.3147-.3147.6294 0 .1049-.105.2099-.105.3148v.1049c0 .1049.2099.2098.3148.4196.1049.3147.7343.6295 1.2591.6295h.315c.524 0 1.049 0 1.468-.3148.105-.1049.315-.2098.42-.3147.105-.1049.21-.3147.315-.4196.209-.3148.314-.5246.419-.8393 0-.1049.105-.3147.105-.4197v-.2098c0-.2098 0-.3147-.105-.5245 0-.1049-.105-.2098-.105-.3148-.105-.1049-.209-.2098-.314-.3147-.21-.2098-.315-.3147-.525-.4196-.315-.2098-.839-.3148-1.259-.3148-.944 0-1.7833 0-2.6226.2099h-.3147s-.1049.1049-.2098.1049c-.2099.1049-.3148.1049-.5246.1049-.3147.1049-.5245.3147-1.0491.4196h-.4196c-.1049 0-.2099.2098-.3148.2098-.3147.105-.4196.2099-.7343.3148-.3148.1049-.5246.2098-.8393.3147h-.4197c-.1049.1049-.2098.2098-.3147.2098-.7344.2098-1.2589.2098-1.8884.3148-.1049 0-.5245.1049-.7343.1049-.3148 0-.6295 0-.8393.2098-.1049.1049-.2098.5245-.2098.6295v.7343c.1049.3148.4196.7344.8392.7344h.2099c.4196 0 1.154-.1049 1.5736-.3147.2098-.1049.6295-.3148.8393-.6295.1049-.1049.2098-.2098.3147-.2098s.2098 0 .2098.1049.105.1049.105.2098-.105.2098-.2099.3147c-.3147.3148-.6294.4197-.9442.6295-.2098.1049-.6294.3147-.9442.3147-.1049 0-.3147.1049-.4196.1049-.2098 0-.3147.105-.5245.105h-.5246c-.8393 0-1.6786-.4197-1.8884-1.0491 0-.105-.1049-.2099-.1049-.3148-.1049-.3147-.1049-.4196-.1049-.7343 0-.105 0-.3148.1049-.4197-.1049.1049-.1049.2098-.2098.2098-.2098.2099-.3147.3148-.5246.4197-.2098.1049-.2098.3147-.4196.5245-.5246.3148-1.0491.7344-1.5737.9442-.3147.1049-.6294.2098-.9441.2098-.6295 0-1.1541-.2098-1.4688-.7343-.1049-.1049-.1049-.2099-.1049-.3148v-.5245c0-.1049 0-.2098-.1049-.3147 0-.2099.1049-.5246.1049-.7344.1049-.4197.1049-.7344.3147-1.154.1049-.2099.3148-.5246.3148-.7344v-.1049c-.105-.2098-.3148-.4197-.6295-.5246h-.2098c-.2098.2099-.5246.4197-.7344.7344-.2098.3147-.5245.6295-.7344.8393-.2098.1049-.4196.3147-.5245.4196s-.1049.2098-.2098.2098l-.1049.105c-.105.2098-.2099.2098-.3148.3147l-.5245.5245c-.1049.105 0 .2099-.1049.3148-.2099.2098-.5246.3147-.6295.5245-.1049.1049-.1049.3148-.2098.4197l.5245.1049c-.1049.1049-.2098.2098-.4196.3147-.1049.1049-.3147.1049-.4197.2098-.1049 0-.2098.2098-.3147.2098-.1049.105-.4196.2099-.7344.2099h-.4196c-.1049 0-.1049-.1049-.2098-.2099-.2098-.1049-.5246-.1049-.7344-.3147-.2098-.2098-.3147-.5245-.3147-.9442 0-.3147 0-.7343.1049-1.0491.1049-.3147 0-.3147 0-.6294 0-.105 0-.105-.1049-.105h-.1049c-.3148.3148-.6295.6295-.9442.8393-.1049.1049-.2098.2099-.3147.3148-.105.2098-.3148.2098-.4197.3147-.2098.2098-.4196.5245-.6294.6295-.3148.2098-.6295.6294-.9442.8392-.4197.3148-.6295.6295-1.0491.8393H70.778c0 .4197-.1049.4197-.2098.4197-.4196 0-.7344-.2099-.8393-.5246v-.2098c0-.5246.1049-1.154.3148-1.7835.2098-.5245.2098-.9442.4196-1.3638.1049-.3148.4196-.8393.4196-1.154v-.1049s0-.105-.1049-.105-.2098.105-.3147.2099c-.4196.5245-.9442 1.0491-1.3638 1.5736-.1049.1049-.4197.6295-.5246.6295l-.1049.1049c-.1049.2098-.2098.3147-.3147.5245-.4197.4197-.8393.7344-1.154 1.1541l-.2099.2098c-.1049 0-.1049 0-.2098.1049s-.2098.3147-.3147.4196c-.2098.1049-.6295.3148-.8393.4197-.2098.1049-.7344.3147-1.2589.3147-.4197 0-1.0491-.2098-1.154-.4196-.2099-.3148-.4197-.8393-.4197-1.1541V27.2767h-.1049l-.3147.5245c-.3147.5246-.8393.9442-1.0491 1.154-.1049.1049-.2098.1049-.2098.1049-.1049.1049 0 .1049-.1049.2098l-.4197.3148c-.2098.1049-.5245.3147-.7344.4196-.3147.2098-.6294.3147-.9442.4197h-.1049c-.4196 0-.7343-.105-.9442-.3148-.1049-.1049-.2098-.3147-.2098-.5245v-.6295c.1049-.5245.1049-.9442.2098-1.4687h-.1049c-.1049.2098-.3147.4196-.5245.6294-.1049.1049-.1049.2099-.1049.2099-.1049.1049-.2098.2098-.4197.3147-.1049.1049-.1049.2098-.2098.3147-.2098.2098-.3147.4197-.5245.6295-.5246.4196-.8393.8393-1.3639 1.154-.1049.1049-.3147.3147-.5245.4196-.3147.3148-.4197.3148-.5246.3148h-.2098c-.2098 0-.5245-.1049-.7344-.3148-.1049-.2098-.2098-.4196-.3147-.7343v-.7344c-.1049.1049-.2098.3147-.2098.4196l-.2098.3148c-.2099.3147-.2099.4196-.8393.9442-.1049.1049-.2098.2098-.4197.3147-.1049 0-.1049.1049-.2098.2098-.2098.1049-.4196.3147-.7343.4196-.3148.105-.7344.105-.8393 0-.2099-.1049-.5246-.2098-.6295-.4196 0-.1049-.1049-.1049-.1049-.1049v-.3147c0-.1049-.2098-.1049-.2098-.2099-.1049-.2098-.1049-.4196-.1049-.5245l-.1049-.6295c0-.2098-.105-.4196-.2099-.9442-.1049-.6294 0-1.0491 0-1.5736-.1049-.5246-.3147-.6295-.5245-.6295s-.4197.2098-.5246.4197c-.1049.2098-.1049.3147-.3147.5245-.2098.1049-.4196.2098-.4196.4197l-.1049.3147zm45.6359-3.8817c.1049 0 .2098.1049.3147.1049.3148 0 .6295-.1049.8393-.2098.2098-.1049.4196-.1049.6295-.3147.1049 0 .1049-.1049.2098-.2099.6295-.5245.9442-1.0491 1.0491-1.6785 0 0 0-.2098-.2098-.3147h-.1049c-.1049 0-.3148 0-.4197.1049-.2098.1049-.3147.3147-.5245.4196-.2099.1049-.3148.2098-.5246.3147-.1049.1049-.1049.1049-.1049.2099-.1049.1049-.2098.1049-.3147.2098-.2098.2098-.2098.4196-.4197.6294-.2098.2099-.4196.2099-.4196.7344zm-52.6649 3.9866c-.1049-.3147-.6295-.3147-.9442-.2098-.3148.1049-.6295.2098-.8393.4196-.4196.3147-.7344.7344-1.0491 1.154-.1049.1049-.3147.2098-.4196.3148v.2098c-.105.1049-.2099.3147-.3148.5245-.1049.2099-.2098.4197-.2098.6295-.1049.1049-.3147.3147-.3147.5245-.1049.4197-.1049.6295-.2099 1.0491-.1049.3148-.1049.7344-.1049 1.1541 0 .1049 0 .2098.1049.2098 0 .1049.2099.1049.3148.1049.4196-.1049.6294-.4197.9442-.7344.2098-.2098.2098-.4196.4196-.6294.1049-.105.3147-.2099.4197-.4197v-.2098l.4196-.4196v-.105s.1049-.1049.2098-.1049c.1049-.2098.4197-.5245.5246-.7343.1049-.2099 0-.3148.1049-.4197.2098-.3147.4196-.5245.5245-.8393 0-.6294.4197-.9442.4197-1.4687zm-1.259 12.4843c-.8392 0-1.7834.1049-2.7276.2098-.2098 0-.3147-.1049-.5246-.1049-.2098 0-.3147.1049-.5245.2098-.8393.1049-1.5737.2099-2.308.4197-.3148.1049-.5246.1049-.8393.2098h-.1049c-.1049 0-.2099 0-.4197.1049h-.1049c-.4196.2098-.9442.4197-1.3638.6295-.7344.4196-1.154.9442-1.5737 1.4687-.1049.1049-.3147.2098-.4196.5246-.1049.2098-.1049.3147-.3147.6294-.105.1049-.2099.2099-.3148.3148v.4196c-.1049.3147-.2098.6295-.1049 1.0491 0 .1049 0 .2098.1049.3147.1049.3148.2098.7344.4197.9442.2098.3148.5245.5246.7343.6295.1049 0 .2099.2098.3148.2098.1049.1049.3147 0 .4196.1049.4196.1049.7344.2098 1.2589.2098.4197 0 .9442-.1049 1.4688-.2098.5245-.1049 1.0491-.3147 1.5736-.6294.1049-.105.4197-.2099.5246-.2099.4196-.3147.6294-.5245.9442-.8392.1049-.105.3147-.2099.4196-.3148.1049-.2098.1049-.3147.3147-.5245l.5246-.6295c.2098-.3147.4196-.4196.5245-.7344.2099-.3147.4197-.8392.6295-1.2589.1049-.1049.2098-.2098.2098-.3147s.1049-.3147.1049-.5246c.1049-.3147.2099-.4196.3148-.6294l.8392-1.6786zm134.1802-8.3928v.1049c0 .1049-.105.1049-.105.2098s.105.3148.105.4197c0 .2098-.105.4196-.21.7343-.105.3148-.21.6295-.419.9442-.525.7344-1.574 1.4688-2.308 1.9933-.21.1049-.315.2098-.63.4197-.105.1049-.315 0-.42.1049-.104 0-.209.2098-.314.2098-.42.2098-.84.3147-1.259.4196-.315.1049-.63.1049-1.049.1049h-.42c-.105 0-.21.105-.315.105-.734.1049-1.888.2098-3.672-.2099-.419.5246-.734.7344-1.573.8393-.315 0-.839 0-1.259-.1049-.42-.1049-.839-.3147-1.154-.5245-.315-.2099-.63-.6295-.735-.9442-.209-.5246-.314-.9442-.314-1.259h-.21c-.21.105-.734.4197-1.049.5246h-.42c-.21 0-.734.3147-.944.3147-.42-.1049-.944.1049-1.469 0 0 0-.105 0-.105-.1049h-.629l-.63-.2098c-.524-.3147-.734-.5246-.734-1.0491 0-.1049-.105-.3147-.105-.4197 0-.3147 0-.5245.105-.7343 0-.2098.105-.3148.21-.5246-.105.1049-.315.2098-.42.3148-.524.2098-1.049.4196-1.469.6294l-.209.2098h-.21c-.105 0-.21.2099-.42.2099-.21.1049-.734.1049-.944.1049h-1.049c-.315-.1049-.63-.4197-.734-.7344 0-.1049 0-.3147.104-.6295 0-.2098.105-.4196.21-.5245.42-.7344.84-1.4688 1.364-2.0982l1.049-1.4688c.105-.1049.315-.3147.525-.4196.105-.1049.21-.2098.314-.2098.21-.2098.21-.3148.525-.3148h.21c.105 0 .105.105.21.105.209.2098 0 .3147.105.5245 0 0 .104.2098.104.3147v.2099c-.104.4196-.629.7343-.944 1.154-.105.1049-.21.2098-.314.3147-.21.3147-.525.6295-.735.8393-.105.2098-.105.3147-.21.5245-.209.2099-.314.5246-.524.8393 0 .1049-.105.1049-.21.2098 0 0 0 .1049-.105.1049v.105c-.105.1049-.105.3147-.21.4196v.1049c0 .1049.105.2098.315.3147h.21c.21 0 .315 0 .629-.1049l.105-.1049c.21-.1049.42-.1049.63-.1049.314-.1049.419-.3147.734-.4196.105 0 .21 0 .21-.1049.21-.105.315-.2099.524-.3148.105-.1049.315-.1049.42-.2098.21-.1049.525-.3147.734-.4196.21-.3148.525-.6295.945-.9442l.209-.1049c.105-.1049.21-.2099.315-.3148.105-.1049.315-.2098.42-.3147.419-.2098.839-.4196 1.259-.6295.314-.1049 1.154-.2098 1.783 0 .315.105.63.3148.735.6295.104.2098.209.5246.104.7344-.104.3147-.314.5245-.419.7343-.105 0-.21.105-.21.105-.21.1049-.21.3147-.315.4196-.105.1049-.419.1049-.524.2098-.105 0-.21.1049-.315.2098-.42.2099-.734.2099-1.049.3148h-.315c-.21 0-.315.1049-.524.1049-.315.1049-.735-.1049-1.049 0-.105 0-.315.4196-.315.5245s-.105.2098-.105.2098c0 .105-.105.3148-.105.4197 0 .6295.315.9442.839 1.0491.105 0 .315.1049.42.1049.944.1049 1.259-.1049 2.413-.4196.315-.1049.839-.3148 1.154-.4197v-.6294c0-.1049.105-.2099.21-.3148.105-.1049.209-.2098.419-.2098.105 0 .21.1049.315.2098.105.1049.21.1049.315.1049h.314c.105-.1049.315-.1049.42-.1049h.105c.21-.1049.525-.1049.734-.2098.735-.3147 1.469-.6295 2.204-1.0491h.209c.105 0 .105-.1049.105-.2098.105-.1049.21-.1049.315-.2098l1.364-.6295c.21-.1049.524-.3147.839-.3147.105 0 .105.1049.21.2098v.4196c-.105.2099-.21.4197-.315.5246-.21.2098-.419.2098-.629.4196-.105.2098-.21.5246-.315.7344-.21.4196-.42.9442-.629 1.2589-.105.1049-.21.2098-.21.3148v.2098c-.105.3147-.42.9442-.63 1.2589.735.2098 1.784.3147 2.833.3147 1.049-.1049 1.573-.1049 2.203-.3147.629-.2098 1.364-.4196 1.888-.7344.105-.1049.315-.1049.42-.2098l.315-.3147c.629-.5246 1.259-1.154 1.678-1.7835.21-.2098.315-.6295.42-.9442 0 0 .105-.2098.105-.3147s0-.2098.105-.3148c0-.2098-.105-.5245-.105-.7343 0-.6295-.42-1.3639-1.154-1.7835-.315-.2098-.63-.3147-.944-.4196-.315-.105-.63-.2099-.945-.2099-.209 0-.314-.1049-.524 0-.105 0-.21.1049-.315.1049-.524.2099-.944.5246-1.259 1.0492l-.315.6294c-.104.2098-.104.3147-.104.5246 0 .4196.209.7343.629 1.0491.105.1049.315.2098.42.2098.105 0 .209 0 .314.1049.105 0 .105.1049.21.1049h.21l.21-.1049c.21 0 .315-.1049.42-.2098.104-.1049.209-.2098.209-.3148v-.1049c-.105-.1049-.209-.2098-.209-.4196 0 0 0-.1049.104-.1049.105-.1049.21-.2098.42-.1049 0 0 .105 0 .105.1049.21.1049.21.3147.21.5245 0 .1049 0 .1049-.105.1049-.315.5246-.63.7344-1.154.8393-.315 0-.63 0-.944-.1049-.21-.1049-.42-.1049-.525-.2098-.629-.4196-.944-.9442-1.049-1.5737 0-.2098 0-.3147.105-.5245 0-.1049 0-.2098.105-.3147 0-.1049.105-.3148.21-.4197.209-.3147.419-.5245.629-.7344.315-.2098.525-.3147 1.259-.4196.21 0 .525-.1049.734-.1049.105 0 .315 0 .42.1049l.839.3147c.315.1049.63.2099.84.3148 1.259.4196 1.783 1.2589 1.888 2.308zm-19.828.8393c.105.1049.21.1049.315.1049.314.1049.629 0 .944 0 .21 0 .42 0 .734-.1049.105 0 .105-.1049.21-.1049.734-.3148 1.154-.8393 1.364-1.4688 0 0 0-.2098-.105-.3147 0 0-.105 0-.105-.1049h-.42c-.209.1049-.314.2098-.524.3147-.21.1049-.42.1049-.63.1049-.104 0-.104.1049-.209.2098-.105.105-.315.105-.42.105-.21.1049-.315.3147-.525.5245-.314.3147-.524.3147-.629.7344zm7.344 4.1964c-.21 0-.42-.1049-.63-.1049-.105 0-.21-.1049-.314-.1049-.105 0-.21-.2099-.315-.2099h-.21l-.105-.1049c-.315-.1049-.42-.4196-.734-.5245h-.21c-.105 0-.105.1049-.105.2098v.2098c.105.4197.42.6295.734.9442.105.1049.315.2098.42.2098.315.1049.525.1049.734 0 .42-.1049.63-.2098.735-.5245zm1.573-2.6228c0-.2098.315-.4196.315-.6294 0-.1049.525-.8393.525-.8393-.105 0-.42.2098-.42.2098-.525.1049-1.154.3147-1.574.6295-.524.3147-1.049.4196-1.573.7343-.21.105-.42.2099-.63.3148 0 0-.105 0-.105.1049v.1049s-.105.1049-.105.2098v.1049c.105.2098.42.3148.525.5246.105.2098.629.4196 1.154.6294.21.1049.42.1049.629.1049.105-.2098.315-.5245.42-.7343v-.1049c0-.1049.21-.2099.21-.2099v-.1049c.105-.3147.42-.5245.629-1.0491zm-16.89-4.8258c-.105 0-.105-.105-.105-.105v-.1049l.42-.8392v-.4197c-.105-.1049-.21-.1049-.315-.2098h-.315c-.105 0-.315.1049-.42.1049h-.209c-.105 0-.21.1049-.315.2098l-1.154.5246-.21.2098c-1.049.6295-2.098 1.3638-2.203 1.5737-.21.2098-.21.4196-.315.5245h-.105c-.105.1049-.21.3147-.21.4196-.209.105-.209.2099-.314.4197-.105.2098-.105.3147-.21.5245-.105.1049-.315.3148-.525.3148h-.209c-.105 0-.105-.1049-.21-.2099-.21-.1049-.42-.3147-.315-.5245.105-.2098.21-.5246.42-.7344.314-.4196.419-.7343.734-1.154.21-.2098.315-.6295.525-.9442.209-.3147.629-.6294.734-.9442v-.1049s0-.1049-.105-.1049-.21 0-.315.1049c-.629.4197-.524.2098-.734.4197-.105 0-.105.1049-.21.2098l-1.049.6294c-.105 0-.21.1049-.21 0-.21.1049-.419.4197-.524.4197-.105 0-.21 0-.315.1049-.105.1049-.105.2098-.21.2098-.105.1049-.315 0-.42.1049-.209.1049-.734.5246-.944.6295-.105.1049-.314 0-.419.1049-.21 0-.735.4196-.84.3147-.419-.1049-.944.2098-1.468.1049h-.105c-.21 0-.42.1049-.525 0h-.105l-.629-.2098c-.525-.3147-.735-.5245-.84-1.0491 0-.1049-.104-.2098-.104-.4196v-.7344c0-.2098.104-.4196.209-.6295.105-.2098.105-.4196.315-.7343.21-.3148.525-.7344.839-1.0491l.21-.1049c.105-.105.21-.2099.315-.3148.105-.1049.315-.2098.42-.3147.419-.3147.839-.5246 1.258-.7344.315-.1049 1.05-.3147 1.784-.2098.315.1049.629.2098.839.5246.21.2098.21.5245.21.7343-.105.3148-.21.6295-.42.7344-.104 0-.209.1049-.209.1049-.21.1049-.21.3147-.315.4196-.105.105-.315.2099-.42.3148-.105 0-.21.1049-.21.2098-.419.2098-.629.3147-1.049.3147h-.314c-.21 0-.315.1049-.42.2098-.315.105-.734-.1049-1.049.105-.105 0-.21.4196-.315.5245 0 .1049-.105.2098-.105.3147s-.105.3148-.105.4197c0 .6294.42.9442.944 1.0491h.42c.944 0 1.259-.1049 2.308-.5246.42-.2098.944-.4196 1.364-.6294.21-.1049.42-.3148.629-.3148.21 0 .525-.5245.84-.6294.21-.1049.419-.2098.524-.3148.315-.1049.525-.4196.84-.6294.209-.1049.314-.2098.629-.4197.21-.1049.42-.3147.525-.4196.419-.3147.314-.2098.629-.3147 0 0 .105-.1049.21-.1049.21-.1049.524-.3148.734-.2099.21 0 .42.2099.42.3148.105.2098.105.3147.105.4196s-.105.2098-.21.4197c-.21.3147-.525.6294-.63.9441-.104.105-.314.2099-.314.3148 0 0-.21.4196-.315.5245 0 0 0 .1049 0 0 .21-.2098.734-.4196 1.259-.8393.105-.1049.105-.2098.315-.2098.21-.1049.419-.2098.629-.4196.63-.3147 1.154-.5246 1.679-.5246h.629c.21.1049.42.2099.63.3148.209.2098.209.5245.209.8392 0 .105-.104.105-.104.2099l-.105.3147c-.105.1049-.21.2098-.42.3147-.42.3148-.734.3148-.944.3148zm-12.799-1.6786c.105.1049.21.1049.314.1049.315.1049.63 0 .945-.1049.209 0 .419-.1049.629-.2098.105 0 .105-.1049.21-.2098.629-.4197 1.154-.8393 1.259-1.5737 0 0 0-.2098-.105-.3147h-.105c-.105 0-.315 0-.42.1049-.209.1049-.314.2098-.524.3147-.21.1049-.42.1049-.63.2098-.105 0-.105.1049-.105.2099-.104.1049-.209.1049-.314.2098-.21.1049-.315.4196-.42.6294-.524.1049-.734.1049-.734.6295zm-15.737 11.1205c-.315-.1049-.524-.2098-.734-.1049 0-.2098-.315-.1049-.315-.1049-.21.1049-.42-.2099-.629-.105 0 0 0-.1049.105 0-.105 0-.315 0-.315-.1049-.315 0-.839-.1049-1.049 0-.105.1049-.21 0-.315 0-.105.1049-.42 0-.525 0v-.1049h-.314.105c-.105.2098-.21-.1049-.42 0-.21 0-.42.3148-.629.2098-.105.105.104-.1049 0-.1049 0-.1049.104 0 0-.1049-.105 0-.21-.1049-.42-.1049v-.1049c-.21.1049-.42-.1049-.525 0-.209 0-.105-.2098-.314-.1049l-.105-.1049c-.105 0-.105.1049-.21 0 0-.1049-.105-.1049-.105-.1049-.21-.1049-.525.1049-.839-.1049-.105.1049-.21 0-.315.1049 0 0-.315 0-.105-.1049v-.1049c-.21-.105-.315 0-.525 0 0 0 .105 0 .105.1049h-.209l-.21-.1049v.1049c-.105 0-.105-.2099-.315-.1049-.105 0 .105.1049 0 .1049-.21-.1049-.42-.2099-.629-.2099 0 .105 0 .105-.105.105v-.105c-.21.105-.105-.1049-.315-.1049l-.105.1049c-.21.105-.105-.1049-.315 0 .105 0 0 .105-.105.105v-.105h-.105s0-.1049-.104-.1049l.104-.1049-.209.1049c-.105-.1049-.315 0-.42-.1049 0 0-.315-.1049-.315 0 .105-.1049-.105-.1049 0-.2098-.105.1049-.314.1049-.419 0-.315-.1049-.525.1049-.84-.1049 0 .1049-.105 0-.105.1049-.314.1049-.524-.2098-.629.1049-.105 0-.105-.1049-.21-.1049h-.524c-.105 0-.105.2098-.315.1049.105-.1049 0 0-.105 0 0 0 .105 0 0-.1049-.1049 0-.1049 0 0 0-.1049-.1049-.3148 0-.3148-.1049-.3147 0-.5245.1049-.8392.1049 0 0 0-.1049.1049-.1049h-.2098c0-.1049.1049 0 .2098 0-.2098-.1049-.4197.1049-.7344 0l.7344.2098-.1049.1049c0-.1049 0-.1049-.1049-.1049-.105-.1049-.3148 0-.4197 0 .1049 0 0 0 0 .1049-.1049 0-.1049-.1049-.1049 0v-.1049c0 .1049-.2098.1049-.2098.1049 0-.1049.1049 0 .1049-.1049H97.74c-.105.1049 0 .1049 0 .1049-.105 0-.2099.1049-.4197 0v.1049h-.5245c-1.6786.5246-.4197.8393-.4197.8393.6295.2098.9442 0 1.7835 0 .6294.1049.8393.2098 1.5736.2098h1.0488c.21-.1049.42 0 .63-.1049l.105.1049h1.049v-.1049c.315.1049.419 0 .734.1049.42-.2098.525.2099.944 0v.1049c.21 0 .315 0 .42-.1049.105 0 .105.1049.105.1049 0-.1049.105-.1049.21-.1049h.314v-.1049c.105 0 0 .2098.21.1049v-.1049c.21 0 .315.2098.525.3148.839.1049 1.783 0 2.518.2098v.1049c0 .1049.21-.1049.21 0h.104s.105.1049 0 .1049h.105l.105.1049c.315.1049.63 0 .944.1049.42.2098 1.154.2098 1.679.1049.629-.1049 1.364.5246 1.993.4197h.105l.63.1049c-.315-.2098 2.518.3147.524-1.0491zm-32.417-1.7835c-.3148-.1049-.5246-.1049-.7344.1049 0-.1049-.2098 0-.3147 0-.2098.1049-.4197-.1049-.5246 0v-.1049c-.1049 0-.3147.1049-.3147 0-.3147 0-.7344 0-.9442.2098-.1049.1049-.1049 0-.3147.1049-.1049.1049-.3148 0-.4197.1049v-.1049h-.2098.1049c0 .2099-.2098-.1049-.4196 0-.2098 0-.3148.4197-.5246.3148-.1049.1049.1049-.1049-.1049-.1049 0-.105.1049-.105 0-.105s-.2098-.1049-.3147 0v-.1049c-.2098.1049-.4197-.1049-.5246.1049-.2098.105-.1049-.2098-.3147 0l-.1049-.1049c-.1049 0-.1049.1049-.2098.1049 0-.1049-.1049 0-.1049-.1049-.2099-.1049-.4197.2099-.7344 0-.1049.1049-.2098.1049-.2098.1049s-.3148 0-.1049-.1049v-.1049c-.2099-.1049-.3148.1049-.5246.1049.1049 0 .1049 0 .1049.1049h-.2098v-.1049h-.2098v.1049c-.1049 0-.2099-.1049-.3148 0-.1049.105.1049.105 0 .105-.2098 0-.4196-.105-.6294-.105 0 .105 0 .105-.1049.105v-.105c-.2098.105-.1049-.1049-.3148 0v.105c-.2098.1049-.1049-.105-.3147.1049.1049 0 .1049.1049 0 .1049v-.1049h-.1049s0-.1049-.1049-.1049v-.105l.1049.3148c-.1049-.1049-.3147.1049-.4196 0 0 0-.3148 0-.3148.1049 0-.1049-.1049-.1049-.1049-.1049s-.2098.1049-.3147 0c-.3147 0-.5246.2098-.7344.1049 0 .1049-.1049 0-.1049.1049-.2098.1049-.5245-.1049-.6294.2098-.105 0-.105-.1049-.2099-.1049-.2098.1049-.3147.1049-.4196.1049s-.1049.2098-.2098.2098c0-.1049 0 0-.1049 0v-.1049c-.105 0-.105 0 0 0-.105-.1049-.3148 0-.3148 0-.3147.1049-.5245.2098-.7344.3148 0 0 0-.105.105-.105h-.2099c0-.1049.1049-.1049.1049-.1049-.2098-.1049-.4196.2099-.6294.1049v.105s0 .1049-.1049.1049c0-.1049 0-.1049-.1049-.1049s-.2099.1049-.4197.1049c.1049 0 0 0 0 .1049h-.1049v-.1049c0 .1049-.1049.1049-.1049.1049 0-.1049.1049-.1049.1049-.1049-.2098 0-.1049 0-.3147.1049-.1049.1049 0 .1049 0 .2098-.1049 0-.2098.1049-.3147.1049v.1049c-.2099.1049-.3148.1049-.5246 0-1.4687.8393-.2098.8393-.2098.8393.6294.1049.9442-.2098 1.5736-.4196.6295-.1049.8393.1049 1.4688-.1049.3147 0 .6294-.105.9442-.2099.1049-.1049.4196-.1049.5245-.2098l.1049.1049c.1049 0 .1049-.1049.2099 0 .1049-.1049.2098 0 .2098-.1049h.1049c.1049-.1049.3147-.1049.4196-.1049v-.1049c.3148 0 .4197-.1049.7344-.1049.3147-.2098.5245.1049.8393-.2098v.1049c.2098 0 .3147-.1049.3147-.2099.1049 0 .1049 0 .1049.105 0-.105.1049-.105.2098-.105h.3148l-.1049-.1049c.1049 0 .1049.1049.2098.1049v-.1049c.2098 0 .3147.1049.5245.2099.8393 0 1.5737-.4197 2.413-.3148v.1049c0 .1049.2098-.2098.2098-.1049l.1049-.1049s.1049 0 0 .1049c.1049 0 .1049 0 .1049-.1049l.1049.1049c.3148 0 .5246-.1049.9442-.1049.4197.1049 1.154-.1049 1.5737-.2098.6294-.2098 1.3638.2098 1.8883 0h.6295s2.7277-.1049.6295-.9442zm49.937.3147c-.629-.2098-1.049-.3147-1.469-.3147 0-.2098-.524-.1049-.734-.2098-.42 0-.839-.3147-1.259-.3147h.105c-.315 0-.734-.105-.734-.2099-.735-.1049-1.574-.3147-2.098-.3147-.315 0-.315 0-.63-.1049-.315 0-.839-.1049-1.049-.1049v-.1049l-.525-.1049h.21c-.105.1049-.419-.2099-.839-.1049-.315-.105-.839.2098-1.154.1049-.21 0 .21-.1049-.105-.1049 0-.105.105 0 .105-.105-.315 0-.42-.2098-.734-.2098v-.1049c-.42 0-.84-.2098-1.05-.1049-.419 0-.314-.2098-.734-.2098l-.21-.1049c-.21 0-.21.1049-.419 0 0-.1049-.315-.1049-.105-.1049-.525-.2099-1.049 0-1.679-.3148-.21.1049-.524 0-.629 0 0-.1049-.63-.1049-.315-.1049h.105l.105-.1049c-.315-.2098-.735 0-1.049-.1049.105 0 .21 0 .105.1049l-.315-.1049h.105l-.525-.1049.105.1049c-.21-.1049-.315-.2098-.629-.1049-.105 0 .209.1049 0 .1049-.315-.1049-.84-.2098-1.259-.3147 0 .1049-.105.1049-.21.1049v-.1049c-.42 0-.105-.2099-.63-.1049l-.104.1049c-.42.1049-.21-.2099-.63 0 .21 0 .105.2098-.105.1049l.105-.1049h-.21c.105 0 0-.1049-.105-.1049l.105-.105-.314.105c-.21-.105-.63-.105-.735-.2099 0 0-.524-.1049-.734 0 .105 0-.21-.1049-.105-.2098-.105.1049-.63.1049-.734 0-.63-.1049-1.154 0-1.679-.1049 0 .1049-.315 0-.21.1049-.629 0-1.049-.3147-1.259 0-.315 0-.315-.1049-.419-.1049h.104c-.524 0-.629 0-1.049-.1049-.209 0-.209.1049-.524.1049.105 0 0 0-.105-.1049.105 0 .105 0-.105-.1049h-.21c-.21-.1049-.629 0-.629-.1049-.63 0-1.049 0-1.574.1049-.105-.1049.105-.1049.21-.1049h-.42c0-.1049.21 0 .315 0-.42-.1049-.944.1049-1.4688-.1049h-.1049s-.1049.1049-.2098.1049c-.1049-.1049 0-.1049-.2098-.1049-.2098-.1049-.6295 0-.8393 0 .1049 0 .1049 0 0 .1049-.1049 0-.2098-.1049-.3147 0v-.1049c0 .1049-.3148.1049-.4197.1049-.1049-.1049.2099 0 .2099-.1049h-.7344c-.3147.1049 0 .1049-.1049.1049-.2098 0-.5246.1049-.7344 0l.1049.1049c-.4196 0-.7344 0-1.0491-.1049-3.462.5245-.7344.8393-.7344.8393 1.3639.2098 1.9933 0 3.6719 0 1.3638.1049 1.7835.3147 3.2525.3147.734.1049 1.468.1049 2.098.1049.315-.1049.839.1049 1.259 0l.105.1049h1.154c.315 0 .734 0 1.049.1049V35.04c.629.1049.944 0 1.469.2098.734-.1049 1.154.3148 1.993.1049-.105 0 0 0 0 .1049.315 0 .734.0001.734-.1049.21 0 .21.1049.21.1049 0-.1049.21-.1049.42 0h-.105.629l-.105-.1049c.315.105.105.2099.315.2099v-.105c.42.105.63.3148 1.049.4197 1.679.3147 3.567.3147 5.141.7344l.105.1049c0 .1049.419-.1049.524 0h.21l.105.1049h.315l.21.1049c.629.2098 1.258.1049 1.993.3147.839.3148 2.413.4197 3.357.5246 1.364.1049 2.728.8393 4.091.9442h.21l1.154.3147s1.469.3147 2.413.4196c.525 0 .944-.1049-1.154-1.0491zm-81.3052-.7343h.1049-.1049zm34.3057-4.1964c-.6295-.105-1.1541-.105-1.5737.1049-.1049-.1049-.5245 0-.7344 0-.4196.1049-.8393-.1049-1.2589.1049 0 0 0-.1049.1049-.1049-.3147 0-.7344.1049-.7344 0-.7343 0-1.7834 0-2.2031.2098-.2098.1049-.3147 0-.6294.1049-.3148.1049-.8393.1049-1.0491.1049v-.1049h-.5246.2098c-.1049.2098-.4196-.1049-.8392.1049-.4197 0-.7344.4196-1.1541.3147-.2098.1049.2099-.1049-.1049-.1049 0-.1049.1049-.1049 0-.1049-.3147.1049-.4196 0-.8392 0v-.1049c-.4197.2098-.8393 0-1.1541.1049-.4196.1049-.3147-.2098-.8392 0l-.2099-.1049c-.2098 0-.1049.1049-.4196.1049 0-.1049-.3147 0-.2098-.1049-.5246 0-1.0491.2098-1.7835.2098-.1049.1049-.5245.1049-.6295.2098 0 0-.7343.105-.3147-.1049h.1049v-.1049c-.4196-.1049-.7344.1049-1.0491.2098h.2098-.3147l.1049-.1049h-.5245l.1049.1049c-.3148 0-.4197-.1049-.6295 0-.1049.105.2098.105 0 .105h-1.3638c0 .1049-.1049.1049-.2098.1049v-.1049c-.4197.2098-.2099-.105-.6295 0l-.1049.1049c-.4196.2098-.2098-.1049-.7344.1049.2098 0 .1049.1049-.1049.1049v-.1049c-.1049 0-.2098.1049-.2098.1049.1049 0 0-.1049-.2098-.1049l.1049-.1049-.3148.2098c-.3147 0-.7343.1049-.8392.1049 0 0-.6295 0-.7344.2098.1049-.1049-.2098-.1049-.1049-.1049-.1049.1049-.5246.2098-.7344.2098-.6294 0-1.154.3148-1.6786.3148 0 .1049-.3147.1049-.2098.2098-.6294.2098-1.154 0-1.2589.3147-.3147.1049-.3147 0-.5245 0h.1049c-.5246.1049-.6295.1049-1.0491.2098-.2099.1049-.2099.2099-.5246.2099.1049-.105 0 0-.2098 0 .1049 0 .1049 0-.1049-.105 0 0-.1049 0-.1049.105-.2098.1049-.2099.1049-.1049.1049-.2099 0-.6295.1049-.6295 0-.6295.1049-1.0491.3147-1.5737.5245-.1049 0 0-.1049.2099-.2098l-.4197.1049c0-.1049.2098-.1049.3148-.1049-.5246 0-.9442.3147-1.4688.3147l-.1049.1049s-.1049.1049-.2098.1049 0-.1049-.3147-.1049c-.2099 0-.6295.2099-.8393.2099.1049 0 .1049 0 0 .1049h-.3148v-.1049c.105.1049-.3147.2098-.3147.2098-.1049 0 .2098-.1049.2098-.1049-.5245.1049-.2098.1049-.7343.2098-.3148.1049.1049.1049 0 .2098-.2099.1049-.4197.2098-.7344.2098l.1049.1049c-.4196.2099-.7344.2099-1.0491.2099-3.2522 1.4687-.5246 1.0491-.5246 1.0491 1.3639-.2099 1.9933-.5246 3.6719-.9442 1.4687-.3148 1.7835-.2099 3.2522-.6295.7344-.1049 1.4688-.3147 2.0982-.4196.3148-.2099.9442-.2099 1.2589-.3148h.2099c.1049-.1049.3147-.1049.4196-.1049.2098-.1049.4196-.1049.5246-.1049l.2098-.1049c.3147-.1049.7344-.2098 1.0491-.2098v-.1049c.7344 0 .9442-.2098 1.5736-.2098.7344-.3148 1.259-.105 1.9933-.4197-.1049 0 0 0 0 .1049.3148-.1049.7344-.1049.7344-.3147.3147 0 .2098 0 .3147.1049 0-.1049.2099-.1049.4197-.2098h-.1049l.6294-.1049-.2098.2098c.3147 0 .1049.1049.4196.1049v-.1049c.4197 0 .7344.1049 1.1541.1049 1.7834-.2098 3.6718-.7344 5.3504-.6295l.1049.1049c0 .105.4196-.2098.5245-.1049l.2099-.1049c.1049 0 .2098 0 .1049.1049.2098 0 .2098 0 .3147-.1049l.2098.1049c.7344 0 1.2589-.2098 1.9933-.2098.9442.1049 2.5179-.2098 3.567-.3147 1.3638-.3147 2.9375.1049 4.3013-.1049h1.4687s1.5737 0 2.5179-.2098c.8392-.4197 1.154-.6295-1.154-1.0491zM20.7359 14.5825h.2098c0-.1049 0-.1049-.2098 0zm-8.183 5.2455c.4196-.1049 1.3638-.6294 1.3638-.6294.9442-.5246 1.6786-.9442 2.5178-1.3639.7344-.4196 1.5737-.9442 2.7277-1.5736 2.0982-.9442 2.7277-1.0491 4.9308-1.9933 1.0491-.4197 2.2031-.9442 3.2522-1.3638.4196-.3148 1.3638-.5246 1.9933-.8393h.2098c.2098-.1049.4197-.2098.6295-.2098.3147-.105.6294-.2099.8393-.3148l.4196-.1049h-.1049c.5245-.2098 1.0491-.4196 1.5736-.6294v.1049c1.0491-.2099 1.3639-.5246 2.413-.7344 1.154-.62947 1.8884-.52456 3.1473-1.04911-.1049.10491.1049 0 .1049 0 .5245-.20982 1.154-.41964 1.154-.52455.4196-.10491.3147 0 .4196 0 0-.10491.3148-.20982.6295-.31473l-.2098.10491.9442-.31473h-.2098c.5245-.10491.2098.10491.6294 0v-.10491c.7344-.20982 1.154-.10491 1.8884-.20982 1.3638-.41965 2.7277-.83929 4.1964-1.15402 1.4688-.41964 2.8326-.73437 4.1964-.83928l.1049.10491c.1049.10491.7344-.31473.8393-.20982l.3147-.10491h.105c.3147-.10491.3147-.10491.5245-.10491h.3147c1.154-.20982 2.0982-.41964 3.2522-.62946 1.4688-.10491 4.0915-.62946 5.6652-.94419 1.0491-.20982 2.308-.31473 3.462-.31473 1.154-.10491 2.413-.10491 3.4621-.31473.1049 0 .2098 0 .2098-.10491l2.0982-.10491c0-.10491 9.9665-.31473 2.308-1.04911-1.154 0-1.8884 0-2.6227.20982-.1049-.10491-.9442 0-1.154 0-.6295.20982-1.4688 0-2.0982.10491 0 0 0-.10491.2098-.10491-.5246 0-1.154.20982-1.154.10491-1.1541.10491-2.7277.31474-3.4621.52456-.4196.10491-.5245.10491-1.0491.20982h-.1049c-.4196.20982-1.3638.20982-1.6786.31473v-.10491l-.9441.10491.4196-.20982c-.1049.20982-.7344 0-1.3638.20982-.6295.10491-1.1541.52455-1.7835.62946-.3147.10491.2098-.20982-.2098 0 0-.10491.2098-.10491.1049-.10491-.4197.10491-.7344 0-1.2589.20982v-.10491c-.7344.20982-1.3639.10491-1.7835.31473-.7344.20982-.5246-.10491-1.2589.20982h-.3148c-.3147 0-.2098.20982-.6294.20982 0-.10491-.4197 0-.3148 0-.8392.10491-1.6785.41964-2.7276.52455-.3148 0-.8393.10491-1.0491.20982 0 0-1.0491.20982-.5246 0h.1049l.1049-.10491c-.6294 0-1.0491.31473-1.6785.41964.2098 0 .4196-.10491.3147 0l-.5245.10491.1049-.10491-.8393.20982h.1049c-.4196.10491-.6295 0-1.0491.20982-.2098.10491.4196 0 0 .10491-.5246.10491-1.3638.20982-2.0982.41964.1049.10491-.1049.10491-.3147.20982v-.10491c-.7344.31473-.3148-.10491-1.0491.20982l-.105.10491c-.6294.31474-.4196 0-1.0491.31473.3148-.10491.2099.10491-.2098.20983l.1049-.10492c-.2098.10491-.2098.10492-.4196.10492.1049-.10492 0-.10492-.2098 0l.2098-.10492-.5246.31474c-.4196.10491-1.0491.31473-1.2589.31473 0 0-.9442.20982-1.0491.41964.2098-.10491-.3147 0-.2098-.10491-.2098.10491-.8393.41964-1.154.41964-1.0491.20982-1.6786.62946-2.6228.83928.1049.10491-.4196.20982-.3147.20982-.9442.41963-1.7835.41963-1.9933.83933-.4196.2098-.5245.1049-.7344.2098h.1049c-.8392.3147-1.0491.4196-1.5736.6294-.3147.1049-.3147.3148-.8393.4197.1049-.1049-.1049 0-.2098 0 .1049-.1049.1049-.1049-.1049 0l-.1049.1049c-.3148.1049-.2099.1049-.1049.1049h.1049c-.4197.1049-.9442.3147-1.0491.3147-.9442.4197-1.6786.8393-2.413 1.154-.1049 0 .1049-.1049.3148-.2098l-.5246.2098c0-.1049.3147-.2098.5246-.3147-.7344.2098-1.3639.7344-2.2032.9442l-.1049.1049-.2098.2098c-.1049 0 0-.1049-.4196 0-.3148.1049-.8393.4197-1.2589.6295.2098-.1049.2098 0 .1049 0-.2099.1049-.3148.1049-.5246.2098l-.1049-.1049c.1049 0-.5246.3147-.5246.4196-.1049 0 .3148-.2098.3148-.2098-.7344.4197-.4197.2098-1.154.6295-.4197.3147.1049 0 0 .2098-.3148.2098-.6295.4196-1.154.6295h.2098c-.6295.4196-1.0491.6294-1.5737.7343-2.9375 1.7835-3.1473 2.0982-2.7276 1.9933zm147.2941-4.1964l-.105-.1049.105.1049zM106.133 2.93749c1.049.10491 1.783.10491 2.518.10491.105.20982.944.10491 1.154.10491.734-.10491 1.363.20982 2.098.10491h-.21c.525 0 1.154.10491 1.154.10491 1.154.10491 2.728.31473 3.462.20982h-.105c.42-.10491.525.10491 1.049.10491 0 0 .105 0 0 0 .42 0 1.364.20982 1.679.20982v.10491l.944.10491-.315-.10491c.105-.10491.63.20982 1.364.20982.63.10491 1.259-.10491 1.888.10491.315 0-.314.10491.21.10491 0 .10491-.21 0-.105.10491.42 0 .735.20982 1.259.20982v.10491c.735 0 1.364.31473 1.784.31473.734.10491.419.31473 1.259.31473l.314.10491c.315.10491.21-.10491.63.10491 0 0 .42.10491.21.10491.839.20982 1.678.20982 2.727.62946.21-.10491.735.10491.945.10491 0 .10491 1.049.20982.419.20982h-.21c.63.31473 1.154.20982 1.679.31473-.21-.10491-.42-.10491-.21-.10491l.525.10491h-.105l.839.20982-.105-.10491c.42.10491.525.31473.944.31473.21 0-.314-.20982.105-.10491.525.20982 1.364.41965 1.994.62947 0-.10491.104 0 .314 0v.10491c.735.10491.21.20982.944.31473h-.104l.209-.10491c.735.10491.315.20982 1.049.31473-.314-.10491-.104-.20982.21 0h-.105c.21 0 .315 0 .42.10491-.105 0-.105.10491.21.10491h-.21.63c.419.20982 1.049.31473 1.258.41964 0 0 .84.31473 1.154.31473-.209 0 .315.20982.105.20982.21 0 .945.20982 1.259.31475h-.105c.945.4196 1.784.4196 2.623.8393 0-.1049.42.1049.315 0 .944.2098 1.678.7343 2.098.6294.42.1049.525.2098.734.3148h-.104c.839.2098 1.049.3147 1.573.5245.315.1049.42 0 .944.2098-.209 0 0 .1049.21.1049-.105 0-.21 0 .105.1049h.21c.315.105.315.105.105 0v-.1049c.315.2099.944.3148.944.4197.944.3147 1.783.6294 2.518.8393.105.1049-.105 0-.42 0l.735.7343c0 .1049-.315-.1049-.525-.2098.63.4196 1.469.5246 2.203.9442h.21s.21 0 .315.1049c.105.1049-.105.1049.314.3147.315.2099.84.4197 1.259.5246-.209-.1049-.105-.1049 0-.1049.21.1049.315.2098.42.2098v.1049c0-.1049.525.1049.629.2098.105.1049-.314-.1049-.419-.1049.734.3148.419.2098 1.154.5246.419.1049 0-.1049.21-.1049.419.2098.734.3147 1.154.5245l-.105-.1049c.734.3147 1.154.5246 1.468.8393 2.623 1.154 2.938 1.154 2.728.8393-.315-.3148-1.259-.9442-1.259-.9442-.944-.6295-1.678-1.0491-2.518-1.4688-.839-.4196-1.678-.7343-2.937-1.2589-2.098-1.0491-2.623-1.4687-4.931-2.308-1.049-.5246-2.203-.8393-3.357-1.2589-.525-.1049-1.364-.5246-1.993-.6295l-.21-.1049c-.21 0-.42-.1049-.63-.2098-.314-.1049-.629-.2098-.839-.2098l-.419-.105h.104c-.524-.1049-1.154-.3147-1.573-.5245v.1049c-1.049-.41964-1.469-.41964-2.413-.83928-1.259-.20982-1.889-.73437-3.147-.94419.209 0-.105-.10491 0-.10491-.63-.10491-1.259-.31473-1.259-.20982-.42-.10491-.315-.10491-.42-.20982 0 .10491-.42 0-.734-.10491h.209l-.944-.20982.105.20982c-.524-.20983-.105-.20983-.524-.31474v.10492c-.735-.20982-1.05-.41965-1.679-.73438-1.364-.41964-2.833-.73437-4.301-.94419-1.469-.31473-2.833-.62946-4.197-.94419l-.105-.10491c0-.10491-.734 0-.839-.10491h-.315c-.105 0-.209-.10491-.105-.10491-.314-.10491-.314 0-.524 0l-.315-.10491c-1.154-.31473-2.098-.31473-3.252-.52455-1.364-.41964-4.092-.62946-5.665-.83928-1.049-.10491-2.308-.31473-3.462-.52455-1.154-.20983-2.413-.41965-3.567-.41965h-.315l-2.098-.20982c.21 0-9.7568-.31473-2.203.83929zm13.743 37.03331c-.21 0-.315 0-.42.1049-.209 0-.419 0-.629.1049.105.1049 0 .3147 0 .4197-.21.2098-.42.4196-.42.7343 0 .1049 0 .2098.105.3148 0 0-.105 0-.105.1049v-.2099c-.105 0 .105.2099 0 .2099 0-.1049-.105-.105-.105-.2099-.105.1049 0 .3148 0 .3148s0-.3148-.105-.2098v.1049c-.104-.2099-.209-.4197-.314-.1049v-.3148.1049-.1049l-.105.1049c-.105.2099-.105.4197-.105.4197.21.7343.944 1.4687 1.783 1.4687v-.1049c.21 0 .42.1049.63 0v-.1049c.21 0 .315 0 .524-.1049.315-.2098.525-.4197.735-.6295v-.1049c.105-.1049.21-.2098.21-.4196v-.1049s0-.105.104-.2099c-.314-.7343-1.049-1.4687-1.783-1.5736zm-59.2743 0c.3148 0 .5246.1049.7344.2098v.1049c.3147.2098.6295.6295.5246.8393 0 .1049-.105.1049-.105.3147v-.2098h-.1049c0 .2098 0 .4197-.1049.6295h-.1049v.1049c-.2098 0 0-.4197-.1049-.5246h-.1049v.1049c0-.3147-.3147-.6294-.6295-.6294h-.1049c0-.1049.1049-.1049.1049-.2098 0 0 0-.2099-.1049-.3148-.1049-.1049-.3147-.2098-.5245-.1049-.1049 0-.1049-.1049-.1049-.2098-.1049.1049-.2099.1049-.3148.2098 0 0-.4196.3148-.4196.5246 0 0 0 .1049-.1049.3147v.1049h-.1049v.3147h-.1049c0 .1049 0 .3148.1049.4197h-.1049v.2098h-.105c0 .1049.105.2098.105.2098.1049.3148.3147.5246.5245.6295.4197.5245 1.5737.5245 2.0982 0 .1049 0 .1049-.1049 0-.1049.1049 0 .1049-.1049.2098-.1049.1049-.1049 0-.1049.1049-.2099.3148-.5245.3148-1.154.105-1.6785-.105-.6295-.6295-.9442-1.259-.9442zM4.36986 20.3526c0 .8393.83928 1.4687 1.57366 1.3638.83928 0 1.46874-.8393 1.46874-1.5736 0-.8393-.73437-1.4688-1.57366-1.4688-.73437 0-1.46874.6295-1.46874 1.4688 0 .2098.10491.1049.10491.1049 0-.3148.10491-.6295.31473-.7344 0-.1049 0 .1049.10491.1049 0-.1049.10491-.1049.20982-.2098.10491 0 0 .1049.10491.2098-.20982.2098-.41964.4196-.41964.7344 0 .1049 0 .2098.10491.3147l-.10491-.1049h-.10491c0 .1049 0 .1049.10491.2098-.10491-.2098-.20982-.3147-.31473-.3147v.1049c0-.3147-.10491-.6295-.10491-.2098zM97.3203 2.41293c0-.10491.1049-.10491.2098 0v-.10491c0-.10491-.1049-.20982 0-.20982v-.10491c.1049-.10491.1049-.20982.2099-.31473l.1049-.10491h.2098v-.10491c0-.10491 0-.20982.1049-.20982 0-.10491.1049-.10491.1049-.20982-.1049.10491-.2098.10491-.3147.31473 0-.20982.3147-.524548.5245-.524548.1049-.104911.2098-.104911.3148-.104911-.4197 0-.6295.209821-.8393.524549.1049-.10491.2098-.20982.3147-.314728.1049-.10491.2098-.10491.4196-.209821-.3147 0-.5245.209821-.7343.419639v.10491-.10491c.1049-.209818.4196-.419639.7343-.419639h.105c.1049 0 .3147.104911.4196.209821h.1049c.1049 0 .2098.104908.3147.209818h.1049s0-.10491-.1049-.10491l-.1049-.104908c-.4196-.419641-1.0491-.314731-1.4687 0C98.3694.20982 98.6841 0 99.1038 0c.5245 0 1.0492.419641 1.2592.944192.105.524548.105 1.154008-.315 1.678568-.5246.73437-1.5737.94419-2.413.41964-.3147-.20982-.4196-.52456-.3147-.62947zm.4197-.73437h.2098-.2098zM80.8494 3.46204c.4196 0 .7344-.10491 1.0491-.41964.2098-.10491.5246-.41964.4196-.73438 0 .10491-.1049.10491-.1049.20983 0-.20983.2099-.41965.1049-.73438-.1049 0-.1049 0-.1049-.10491v.52455h-.1049c0-.10491.1049-.31473 0-.41964h-.1049v-.10491.20982h-.1049v-.31473l-.3147-.52455c-.2098-.209818-.4197-.209818-.7344-.209818h-.3147c-.1049 0 0-.104911.1049-.104911h.1049c-.1049 0 .1049 0 .1049-.10491s0-.20982-.3147-.20982c-.1049 0 0-.10491 0-.209821-.3148.104911-.6295.209821-.7344.524551-.2098.209821-.2098.524549-.3147.734369v.62946c0 .20982.1049.41964.2098.62947.2098.52455.6295.83928 1.154.73437zM8.35645 25.0735s-.10491 0-.52455.1049c.20982 0 .41964 0 .52455-.1049zM158.903 17.9396s.105 0 .105.105c-.105 0-.105 0-.105-.105zM29.6532 15.7365c-.1049 0-.1049.1049-.2098.1049l.2098-.1049zM80.8494 5.1406l.2098-.10491-.2098.10491zM179.78 22.1361s-.105.7343-.315.9441c-.839 2.0982-3.147 3.4621-5.455 3.2523-1.154 0-2.203-.4197-3.253-.8393-.524-.2098-.944-.5246-1.468-.8393l-1.364-.8393c-3.462-2.308-7.239-4.1964-10.701-5.77-2.518-1.0491-5.98-2.413-9.547-3.567-1.783-.6295-3.462-1.154-5.14-1.5736-1.574-.5246-3.043-.9442-4.302-1.259-1.049-.2098-1.993-.5245-2.937-.7343-.944-.2099-1.889-.4197-2.833-.6295-.944-.2098-1.783-.41964-2.727-.52455-.945-.20982-1.889-.31473-2.833-.52455l-1.049-.31473c-.734-.10491-.734-.10491-1.784-.20982.525.10491-.105-.10491-.419-.10491l-1.049-.10491c-.315-.20982-2.728-.20982-2.938-.41964l-.419-.10491C109.91 6.50443 98.9989 6.08479 88.8226 6.1897c-2.4129 0-3.8817-.20982-6.3995-.10491v.10491c-1.7835.10491-.4197-.10491-2.2032 0l.6295.10491c-1.0491 0-2.2031 0-3.3571.10491l.5245-.10491c-1.154.10491-2.5178.20982-2.5178.31473-.2098 0 .1049-.10491-1.4688 0 0 .10491-2.308.31473-4.4062.52455h-.2098c-2.2031.20982-3.9866.31474-5.7701.52456-.8393.10491-1.7834.20982-2.7276.31473-.9442.10491-1.8884.31473-3.0424.52455-1.7835.20982-2.9375.41964-4.1964.62946-1.259.20982-2.5179.52455-4.5112.83928h.2098c-1.7834.41963-3.7767.73433-5.77 1.36383l.2098-.1049-1.3638.3147c-.5246.2098-1.7835.4197-2.9375.8393-.7344.2098-1.5737.4196-2.308.7344l-.8393.2098c-1.154.4196-2.413.8393-3.6719 1.2589-.6294.2098-1.2589.4197-1.8884.6295-.5245.2098-1.0491.4196-1.4687.6294-3.7768 1.3639-7.6585 3.2523-11.2254 5.0357-1.8884 1.0491-3.3571 1.7835-4.721 2.6228-1.3638.7344-2.4129 1.4687-3.67182 2.2031-1.25892.6295-2.72766 1.0491-4.30132.9442-1.67856-.1049-3.56694-1.0491-4.720955-3.1473-1.258923-2.4129-.419641-5.0357 1.049105-6.3995 1.57365-1.4688 3.88167-1.5737 5.56024-.5246.73437.5246 1.46874 1.2589 1.78347 2.2031.31473.9442.20982 1.9933-.20982 2.9375-.41964.8393-1.36383 1.6786-2.51784 1.8884-1.15402.2098-2.41294-.3147-3.14731-1.3638 0 0-.20982-.3148-.31473-.7344-.10491-.5246-.10491-1.2589.20982-1.9933.31473-.6295 1.15401-1.2589 1.88838-1.2589.83928 0 1.46875.3147 1.78348.7343.20982.3148.31473.4197.31473.4197s-.10491 0-.20982-.1049c0-.4197-.20982-.6295-.52455-.7344-.31474-.1049-.83929-.2098-1.36384 0s-1.0491.7344-1.25892 1.4687c-.20982.7344.10491 1.6786.94419 2.2032.83928.5245 2.09821.5245 2.93749-.3148.62946-.5245 1.0491-1.3638 1.0491-2.308 0-.9442-.52455-1.9933-1.67856-2.6227.10491.1049.20982.2098.41964.3147-1.25892-.9442-2.83258-.9442-3.98659-.2098-.52455.4196.94419-.4197-.31473.4196-.52455.4196-.83928.8393-.94419 1.0491-.20982.2098-.20982.4196-.31473.5246-.10491.2098-.10491.3147-.20982.6294-.20982.3147-.31473.7344-.20982 1.3639V19.828c0 .1049-.10491.7344-.10491 1.259 0 .5245.20982.9441.20982.8392l-.10491.1049c.20982.5246.20982.9442.62946 1.4688.20982.2098.41964.4196-.10491-.2098.41964.6294 1.0491 1.154 1.78347 1.5736.73437.4197 1.46874.5246 2.0982.5246h1.36384c.41964-.1049 1.0491-.3148 1.0491-.3148h.20982c.20982-.1049.31473-.2098.52455-.3147.73437-.3147 1.25889-.6295 1.88839-1.0491s1.2589-.7344 1.7835-1.154c1.154-.7344 2.308-1.4687 3.5669-1.9933-.6294.3147-1.6785.9442-1.6785.9442l1.8883-1.0491c-.7343.4196-1.3638.8393-1.0491.7344 1.3639-.7344 2.6228-1.4688 3.9866-2.2032 1.3639-.7343 2.7277-1.4687 4.5112-2.2031.2098 0 2.2031-.9442 3.462-1.3638-.2098 0-.2098.1049-.2098 0-.5246.2098-.7344.2098.4196-.2098.2098-.1049.4197-.2098.5246-.2098.9442-.3148.8393-.2099.3147-.105.7344-.3147 1.4687-.5245.8393-.3147 1.8884-.7344 1.9933-.8393 3.0424-1.2589 2.0982-.7344 2.9375-1.0491 5.77-1.8884l-.3147.1049c.8393-.2098 1.0491-.2098 2.6228-.6294 1.154-.6295 3.9866-1.04914 7.4486-1.88842-.4197 0 1.2589-.31473 1.154-.41964 3.3571-.52455 5.9799-1.25893 9.6517-1.67857h-.2098c.5246 0 1.3639-.20982 2.2031-.31473.8393-.10491 1.6786-.20982 2.0982-.31473-.5245.10491 1.3639-.10491.6295.10491.4196-.10491 1.3638-.20982 2.308-.31473.9442-.10491 1.7835-.20982 1.7835-.20982.6295 0 3.0424-.31473 4.616-.31473l1.9933-.20982-.7343.10491c1.0491-.10491 1.2589 0 .8393 0 .5245 0 .7343-.10491 1.4687-.10491l-.3147.10491c1.2589-.10491 1.8883-.20982.8392-.20982 2.6228-.31473 1.5737 0 3.9866-.20982l.4197-.10491c2.6227-.20982.9442.10491 3.6718-.10491l.1049.10491c.7344 0 1.3639 0 1.1541-.10491 2.5178 0 5.5602 0 7.4486.10491 1.5736 0-.6295-.10491.2098-.10491 1.6786-.10491 2.2031 0 3.6719.10491l-.4197-.10491 3.2522.41964h-.4196l1.9933.10491c.629 0-.315 0-.944-.10491 2.203.10491 3.986 0 6.189.31473h-.839c-2.203 0 1.574.20982 1.679.20982.629-.10491 2.623.20982 3.462.20982 1.888.20982 3.672.41964 5.245.62946 1.574.20982 3.148.31473 4.511.62946-.734-.10491.945.20982.84.20982 1.259.20982.944.10491 2.098.20983l1.049.20982c2.728.31473 1.784.41964 4.406.83928 1.679.20982 3.882.94419 6.4 1.36385l.105.1049c1.888.4196 2.832.8393 4.406 1.154.42.2098-.42-.1049-.315 0 1.574.3147-.419 0 .63.2098 2.098.7344 4.406.9442 6.504 1.6786 1.154.3147 2.203.7344 2.938 1.0491.734.3147 1.363.5245 1.573.5245l-1.154-.4196 3.043 1.154.105.1049c1.258.4197 4.091 1.7835 5.56 2.308 0 0 .105.105.21.105 1.468.7343 1.888.9441 3.252 1.4687l-.21-.1049c1.154.5245 3.042 1.4687 5.036 2.6227.944.6295 1.993 1.1541 2.937 1.7835.944.5246 1.889 1.0491 2.833 1.154 0 0 .629.2098 1.364.2098.734 0 1.678-.2098 2.308-.6294-.42.2098-.42.3147-.525.3147.944-.4196 1.888-1.154 2.413-2.2031.525-.9442.629-2.2031.315-3.2522v.1049c-.105-.4196-.42-1.2589-1.049-1.7835-.525-.5245-1.259-.8393-1.364-.9442-1.154-.3147-2.518-.1049-3.357.8393-.42.4197-.84 1.0491-.84 1.6786-.105.7343.105 1.4687.735 2.0982l-.105-.1049c.419.5245 1.154.8393 1.783.8393.63 0 1.154-.3148 1.574-.7344.734-.8393.525-1.9933 0-2.5179-.105-.1049-.21-.2098-.315-.2098v.1049c0 .1049-.105.1049-.21.1049l.105.1049c.105.105.105.105.105.2099v.1049c0 .1049 0 .2098-.105.3147 0 0 0 .1049-.105.1049h-.104l.104.1049v.2098c0 .105 0 .105-.104.2099.104-.1049.104-.2099.104-.3148 0 .2099-.104.5246-.314.6295 0 .1049-.105.2098-.21.2098.315-.1049.524-.4196.524-.6294 0 .1049 0 .3147-.104.4196l-.315.3147c.21-.1049.419-.3147.419-.5245v-.1049.1049c0 .2098-.209.5245-.419.6294 0 0 0 .105-.105.105h-.525c-.105 0-.21 0-.314-.105h-.105l.105.105s.104 0 .104.1049c.525.2098 1.05-.1049 1.259-.4197-.105.2098-.314.5246-.629.6295-.42.1049-.944 0-1.364-.3147-.315-.4197-.524-.9442-.315-1.5737.21-.5246.63-.9442 1.259-1.154h-.21c-.419.1049-.629.3147-.734.3147-.105.1049-.105 0 0-.1049s.315-.4196.734-.5245c.42-.105 1.05-.105 1.679.2098.525.4196 1.049 1.0491 1.049 1.8884.105.8392-.419 1.7834-1.154 2.2031-.734.5245-1.783.6294-2.623.3147-1.888-.7344-2.517-2.9375-1.993-4.5111.315-.8393.839-1.3639 1.364-1.7835.524-.4196 1.154-.6295 1.678-.7344.525-.1049.945-.1049 1.155-.1049.314 0 .419.1049.419.1049 1.364.2098 2.518 1.154 3.147 2.308.945 1.5737 1.154 2.9375.84 4.1965zm-4.302-2.3081h.105-.105zM94.3828 38.1873c0 .2098-.2098.6295-.4196.6295-.3148.1049-.6295.3147-.8393.5245-.2098.2098-.2098.2099-.5246.4197-.4196.3147-.4196.2098-.6294.5245l-.5246.6295c-.1049.2098-.1049.5245-.2098.6294-.1049.2099-.2098.4197-.3147.5246-.1049.2098-.1049.8393-.5246.9442-.1049 0-.2098.1049-.3147.1049-.2098 0-.4196-.1049-.6295-.6295-.3147-.6294-.3147-.8392-.5245-1.0491-.2098-.1049-.6295-.4196-.6295-.4196 0-.1049.1049-.2098.1049-.2098 0-.1049-.1049-.2098-.1049-.3148-.1049-.2098-.1049-.5245-.3147-.6294-.4196-.2098-.8393-.5246-.9442-.7344-.2098-.1049-.9442-.6295-1.0491-.6295-.1049 0-.3147 0-.3147-.2098 0-.3147.2098-.6294.4196-.7343.3147-.105.6295-.105.9442-.3148.2098-.1049.4196-.3147.5246-.4196.2098-.2098.5245-.3147.6294-.5246.1049-.1049.3148-.2098.5246-.5245l.7343-.9442c.105-.3147.5246-1.4688.9442-1.4688.4197 0 .7344.6295.8393.9442 0 .4197 0 .8393.2098.9442.2099.1049.1049.3148.3148.5246.3147.2098.3147.5245.5245.6294.2098.2099.4197.5246.6295.6295.2098.1049.5245.5246.7344.6295.1049 0 .7343.1049.7343.5245zm-1.5736.1049c0-.1049-.3148-.4196-.3148-.4196l-.7343-.7344c-.1049-.1049-.6295-.4196-.6295-.5245-.1049-.1049-.2098-.6295-.3147-.8393-.1049-.2098-.6295-.6295-.6295-.6295-.2098 0-.2098.3147-.4196.6295-.3148.1049-.4197.3147-.4197.4196-.1049.1049-.6294.5246-.7343.8393-.1049.3147-.5246.3147-.7344.4196-.2098.105-.4197.6295-.4197.6295.105.1049.105.4196.5246.5246.4196.2098.6295.4196.9442.7343.4196.2098.6295.4197.7344.6295.2098.3147.3147.7344.5245.8393.1049.1049.6295-.4197.6295-.4197l.6294-.7343c.2099-.2099.4197-.4197.8393-.9442.3147-.2099.5246-.3148.5246-.4197z"/></svg>
