<svg viewBox="0 0 24 24" fill="currentColor"><path d="M5 16c.391 0 .721-.23.886-.558l.009.005L6.618 14h2.764l.724 1.447.009-.005c.164.328.494.558.885.558.553 0 1-.447 1-1 0-.161-.047-.308-.114-.442l.009-.005-3-6-.009.005C8.721 8.23 8.391 8 8 8s-.721.23-.886.558l-.009-.005-3 6 .009.005C4.047 14.692 4 14.839 4 15c0 .553.447 1 1 1zm3-4.764l.382.764h-.764L8 11.236zM17 13c.553 0 1-.447 1-1s-.447-1-1-1-1 .447-1 1 .447 1 1 1zm0-8c-.341 0-.673.032-1 .079V5c0-.553-.447-1-1-1H1c-.553 0-1 .447-1 1v14c0 .553.447 1 1 1h14c.553 0 1-.447 1-1v-.079c.327.047.659.079 1 .079 3.866 0 7-3.134 7-7s-3.134-7-7-7zm-3 13H2V6h12v12zm3-1c-.343 0-.677-.035-1-.101V7.101c.323-.066.657-.101 1-.101 2.762 0 5 2.238 5 5s-2.238 5-5 5z"/></svg>