<svg viewBox="0 0 24 24" fill="currentColor"><path d="M4 8c1.861 0 3.412-1.277 3.858-3H5.723C5.376 5.596 4.738 6 4 6c-1.104 0-2-.896-2-2s.896-2 2-2c.738 0 1.376.404 1.723 1h2.136C7.412 1.277 5.861 0 4 0 1.791 0 0 1.791 0 4s1.791 4 4 4zm20 9c0-.553-.447-1-1-1-.206 0-.386.077-.545.184l-.01-.016L18 19.132V17c0-.553-.448-1-1-1-.553 0-1 .447-1 1v6c0 .552.447 1 1 1 .552 0 1-.448 1-1v-1.465l1.272-.849 3.021 3.021c.181.181.431.293.707.293.553 0 1-.448 1-1 0-.276-.112-.526-.293-.707l-2.737-2.737 2.585-1.724-.01-.016c.268-.178.455-.469.455-.816zM7 16c-.276 0-.526.112-.707.293L4 18.586l-2.293-2.293C1.526 16.112 1.276 16 1 16c-.553 0-1 .447-1 1 0 .276.112.526.293.707L3 20.414V23c0 .552.447 1 1 1 .552 0 1-.448 1-1v-2.586l2.707-2.707C7.888 17.526 8 17.276 8 17c0-.553-.448-1-1-1zM23 0c-.276 0-.526.112-.707.293L20 2.586 17.707.293C17.526.112 17.276 0 17 0c-.553 0-1 .447-1 1v6c0 .552.447 1 1 1 .552 0 1-.448 1-1V3.414l1.293 1.293c.181.181.431.293.707.293s.526-.112.707-.293L22 3.414V7c0 .552.447 1 1 1s1-.448 1-1V1c0-.553-.447-1-1-1zm0 11H13V1c0-.553-.447-1-1-1s-1 .447-1 1v10H1c-.553 0-1 .447-1 1s.447 1 1 1h10v10c0 .552.447 1 1 1s1-.448 1-1V13h10c.553 0 1-.447 1-1s-.447-1-1-1z"/></svg>