<svg viewBox="0 0 24 24" fill="currentColor"><path d="M23.079 1.889C22.496 1.306 21.765 1 21 1c-.826 0-1.632.279-2.242.889l-8.482 8.482c-.397.397-.397 1.043 0 1.44l.212.212L.327 21.26l.018.02C.14 21.457 0 21.705 0 22c0 .553.447 1 1 1 .075 0 .142-.027.213-.043l.004.02 9-2-.004-.02c.313-.07.568-.284.696-.567l.01.004 2.398-5.595c.396.267.93.244 1.28-.106l8.481-8.482C23.696 5.594 24 4.809 24 4c0-.756-.344-1.535-.921-2.111zM9.283 19.135l-4.824 1.072 7.15-6.5-2.326 5.428zM21.639 4.77l-7.762 7.762-1.44-1.44 7.762-7.762c.398-.397 1.043-.397 1.44 0 .398.397.398 1.042 0 1.44z"/></svg>