<svg viewBox="0 0 24 24" fill="currentColor"><path d="M24 3c0-.651-.298-1.556-.889-2.148C22.528.268 21.764-.002 21 0c-.759.002-1.517.272-2.095.852L14.561 5.2l-.936-.937c-.375-.376-.983-.376-1.359 0-.375.376-.375.986 0 1.362l.935.936L3.104 16.689c-.912.913-1.096 2.268-.571 3.37L.287 22.3c-.193.194-.286.447-.287.7-.001.255.093.511.287.705.196.197.549.295.713.295.25 0 .498-.104.688-.295l2.244-2.246c1.103.524 2.458.342 3.37-.571l10.105-10.115.938.938c.375.376.983.376 1.359 0 .375-.377.375-.986 0-1.362l-.937-.938 4.343-4.346C23.682 4.494 24 3.749 24 3zM5.903 19.488c-.386.387-1.013.387-1.399 0-.386-.387-.386-1.013 0-1.399l10.1-10.124 1.402 1.404L5.903 19.488zM21.709 3.661l-4.343 4.347-1.402-1.404 4.344-4.347c.387-.389 1.015-.389 1.401 0 .388.388.388 1.016 0 1.404z"/></svg>