<svg viewBox="0 0 24 23.999" fill="currentColor"><path d="M24 5c.018-1.268-.48-2.605-1.448-3.574-.978-.978-2.269-1.453-3.55-1.425-1.209.027-2.41.502-3.332 1.425l-3.439 3.44-.599-.601c-.372-.373-.975-.373-1.347 0-.372.374-.372.979 0 1.352l.596.599-7.468 7.472c-.925.925-1.38 2.1-1.404 3.313-.019.963.227 1.962.775 2.798L.291 22.29c-.196.196-.292.453-.291.709.002.252.099.503.291.694.198.198.458.311.718.306.248-.004.495-.116.685-.306L4.186 21.2c.842.553 1.85.822 2.82.799 1.205-.029 2.369-.509 3.288-1.427l7.458-7.461.614.616c.372.373.975.373 1.347 0s.372-.979 0-1.352l-.612-.614 3.45-3.452C23.484 7.377 23.982 6.223 24 5zM8.918 19.195c-1.14 1.141-2.989 1.141-4.129 0-1.14-1.142-1.14-2.99 0-4.132l7.466-7.469 4.123 4.138-7.46 7.463zM21.175 6.934l-3.448 3.449-4.123-4.138 3.441-3.441c1.141-1.142 2.989-1.142 4.129 0 1.141 1.139 1.141 2.988.001 4.13z"/></svg>