<svg viewBox="0 0 24 24" fill="currentColor"><path d="M23 2c-.096 0-.183.029-.271.055l-.004-.017L15.86 4H8.14L1.274 2.038l-.003.017C1.183 2.029 1.096 2 1 2c-.553 0-1 .447-1 1v16c0 .456.312.825.729.945l-.004.017 7 2 .004-.017c.088.026.175.055.271.055h8c.096 0 .183-.029.271-.055l.004.017 7-2-.004-.017c.417-.12.729-.489.729-.945V3c0-.553-.447-1-1-1zM7 19.674l-5-1.428V4.326l5 1.428v13.92zM15 20H9v-4h6v4zm0-6H9v-4h6v4zm0-6H9V6h6v2zm7 10.246l-5 1.428v-5.92l5-1.428v5.92zm0-8l-5 1.428v-5.92l5-1.428v5.92z"/></svg>