<svg viewBox="0 0 24 24" fill="currentColor"><path d="M15 3H1c-.553 0-1 .447-1 1v1c0 .553.447 1 1 1s1-.447 1-1h5v14c-.553 0-1 .447-1 1s.447 1 1 1h2c.553 0 1-.447 1-1s-.447-1-1-1V5h5c0 .553.447 1 1 1s1-.447 1-1V4c0-.553-.447-1-1-1zm8 14c-.276 0-.526.112-.707.293l-.293.293V6.414l.293.293c.181.181.431.293.707.293.553 0 1-.447 1-1 0-.276-.112-.526-.293-.707l-2-2C21.526 3.112 21.276 3 21 3s-.526.112-.707.293l-2 2C18.112 5.474 18 5.724 18 6c0 .553.447 1 1 1 .276 0 .526-.112.707-.293L20 6.414v11.172l-.293-.293C19.526 17.112 19.276 17 19 17c-.553 0-1 .447-1 1 0 .276.112.526.293.707l2 2c.181.181.431.293.707.293s.526-.112.707-.293l2-2c.181-.181.293-.431.293-.707 0-.553-.447-1-1-1z"/></svg>