<svg viewBox="0 0 24 24" fill="currentColor"><path d="M17 6H1c-.552 0-1 .447-1 1s.448 1 1 1h15v15c0 .553.448 1 1 1s1-.447 1-1V7c0-.553-.448-1-1-1zM3 2h2c.552 0 1-.447 1-1s-.448-1-1-1H3c-.552 0-1 .447-1 1s.448 1 1 1zm14-2h-2c-.552 0-1 .447-1 1s.448 1 1 1h2c.552 0 1-.447 1-1s-.448-1-1-1zM9 2h2c.552 0 1-.447 1-1s-.448-1-1-1H9c-.552 0-1 .447-1 1s.448 1 1 1zm14 10c-.552 0-1 .447-1 1v2c0 .553.448 1 1 1s1-.447 1-1v-2c0-.553-.448-1-1-1zm0 6c-.552 0-1 .447-1 1v2c0 .553.448 1 1 1s1-.447 1-1v-2c0-.553-.448-1-1-1zm0-18h-2c-.552 0-1 .447-1 1s.448 1 1 1h1v1c0 .553.448 1 1 1s1-.447 1-1V1c0-.553-.448-1-1-1zm0 6c-.552 0-1 .447-1 1v2c0 .553.448 1 1 1s1-.447 1-1V7c0-.553-.448-1-1-1z"/></svg>