<svg viewBox="0 0 24 24" fill="currentColor"><path d="M12.782 9.81c2.151-.554 3.544-2.262 3.112-3.813-.433-1.552-2.526-2.36-4.677-1.806-2.151.553-3.543 2.261-3.112 3.813.433 1.552 2.527 2.36 4.677 1.806zm-2.729-2.308c-.144-.518.611-1.161 1.687-1.438s2.063-.083 2.208.435c.144.518-.611 1.161-1.687 1.438s-2.064.083-2.208-.435zm13.654.791l-8-8C15.526.112 15.276 0 15 0c-.118 0-.228.029-.333.067l-.003-.009-14 5 .003.009C.28 5.205 0 5.565 0 6c0 .276.112.526.293.707l5.605 5.605L.683 14.05l.004.013C.291 14.195 0 14.559 0 15c0 .276.112.526.293.707l8 8c.181.181.431.293.707.293.118 0 .228-.029.333-.067l.003.009 14-5-.003-.009c.387-.138.667-.499.667-.933V9c0-.276-.112-.526-.293-.707zM2.824 6.41L14.74 2.154l6.436 6.436L9.26 12.846 2.824 6.41zM9.26 21.846l-6.408-6.409 4.628-1.542.813.813c.181.18.431.292.707.292.118 0 .228-.029.333-.067l.003.009 6.772-2.418 5.067 5.066L9.26 21.846zM22 15.586l-3.807-3.808L22 10.419v5.167z"/></svg>