<svg viewBox="0 0 24 24" fill="currentColor"><path d="M18 14.758l1.659-1.66C18.041 7.846 11.029 0 11 0c-.064 0-9 10.029-9 15s4.029 9 9 9v-2c-3.866 0-7-3.134-7-7s6.978-12 7-12c.083 0 6.684 7.771 6.973 11.73l.027.028zM19.414 19l3.293-3.293c.181-.181.293-.431.293-.707 0-.553-.447-1-1-1-.276 0-.526.112-.707.293L18 17.586l-3.293-3.293C14.526 14.112 14.276 14 14 14c-.553 0-1 .447-1 1 0 .276.112.526.293.707L16.586 19l-3.293 3.293c-.181.181-.293.431-.293.707 0 .553.447 1 1 1 .276 0 .526-.112.707-.293L18 20.414l3.293 3.293c.181.181.431.293.707.293.553 0 1-.447 1-1 0-.276-.112-.526-.293-.707L19.414 19z"/></svg>