<svg viewBox="0 0 24 24" fill="currentColor"><path d="M2 2h8v5c0 .552.447 1 1 1h5v4.184c.424.15.81.383 1.121.695l.879.879V7c0-.276-.112-.526-.293-.707l-6-6C11.526.112 11.276 0 11 0H1C.447 0 0 .447 0 1v22c0 .553.447 1 1 1h11v-1-1H2V2zm10 1.414L14.586 6H12V3.414zM20.414 19l3.293-3.293c.181-.181.293-.431.293-.707 0-.553-.447-1-1-1-.276 0-.526.112-.707.293L19 17.586l-3.293-3.293C15.526 14.112 15.276 14 15 14c-.553 0-1 .447-1 1 0 .276.112.526.293.707L17.586 19l-3.293 3.293c-.181.181-.293.431-.293.707 0 .553.447 1 1 1 .276 0 .526-.112.707-.293L19 20.414l3.293 3.293c.181.181.431.293.707.293.553 0 1-.447 1-1 0-.276-.112-.526-.293-.707L20.414 19z"/></svg>