<svg viewBox="0 0 24 24" fill="currentColor"><path d="M4 8c2.209 0 4-1.791 4-4S6.209 0 4 0 0 1.791 0 4s1.791 4 4 4zm0-6c1.104 0 2 .896 2 2s-.896 2-2 2-2-.896-2-2 .896-2 2-2zm20 9c0-.553-.448-1-1-1-.297 0-.557.136-.74.342l-.007-.006-6.007 6.758.751-9.011-.013-.001C16.986 8.054 17 8.029 17 8c0-.553-.448-1-1-1-.304 0-.567.143-.75.356l-.009-.006-4.663 5.439-.598-2.985-.019.004C9.869 9.351 9.484 9 9 9H1c-.552 0-1 .447-1 1s.448 1 1 1h7.18l.839 4.196.019-.004c.093.457.478.808.962.808.304 0 .567-.143.75-.356l.009.007L14.746 11l-.743 8.918.013.001c-.002.027-.016.052-.016.081 0 .553.448 1 1 1 .298 0 .552-.141.732-.35l.016.014 8-9-.007-.006c.156-.177.259-.403.259-.658zM4 12c-2.209 0-4 1.791-4 4s1.791 4 4 4 4-1.791 4-4-1.791-4-4-4zm0 6c-1.104 0-2-.896-2-2s.896-2 2-2 2 .896 2 2-.896 2-2 2z"/></svg>