<svg viewBox="0 0 24 24" fill="currentColor"><path d="M12.937 7.648l-.007.003C12.787 7.272 12.429 7 12 7s-.787.272-.93.651l-.007-.003-3 8 .007.003c-.041.11-.07.225-.07.349 0 .553.447 1 1 1 .429 0 .787-.272.93-.651l.007.003.506-1.352h3.113l.507 1.352.007-.003c.143.379.501.651.93.651.553 0 1-.447 1-1 0-.124-.029-.239-.07-.349l.007-.003-3-8zM11.193 13L12 10.848 12.807 13h-1.614zm9.514-7.707l-5-5C15.526.112 15.276 0 15 0H4c-.553 0-1 .447-1 1v22c0 .553.447 1 1 1h16c.553 0 1-.447 1-1V6c0-.276-.112-.526-.293-.707zM16 3.414L17.586 5H16V3.414zM19 22H5V2h9v4c0 .553.447 1 1 1h4v15z"/></svg>