<svg viewBox="0 0 24 24" fill="currentColor"><path d="M12 0C5.373 0 0 5.373 0 12s5.373 12 12 12 12-5.373 12-12S18.627 0 12 0zm-1 21.949c-4.724-.47-8.48-4.225-8.949-8.949h3.05c.441 3.06 2.845 5.466 5.899 5.907v3.042zm0-5.058C9.043 16.492 7.498 14.958 7.101 13H11v3.891zM11 11H7.101C7.498 9.042 9.043 7.508 11 7.109V11zm0-5.908C7.945 5.534 5.542 7.94 5.101 11h-3.05C2.52 6.275 6.276 2.521 11 2.051v3.041zm2-3.041c4.724.47 8.48 4.225 8.949 8.949h-3.05C18.458 7.94 16.055 5.534 13 5.092V2.051zm0 5.058c1.957.398 3.502 1.933 3.899 3.891H13V7.109zM13 13h3.899c-.397 1.958-1.942 3.492-3.899 3.891V13zm0 8.949v-3.042c3.055-.441 5.458-2.848 5.899-5.907h3.05c-.469 4.724-4.225 8.479-8.949 8.949z"/></svg>