<svg viewBox="0 0 24 24" fill="currentColor"><path d="M5 14.009c-.553 0-1 .449-1 1.004s.447 1.004 1 1.004 1-.449 1-1.004-.447-1.004-1-1.004zM23 12h-8.262c1.423-1.964 1.269-4.721-.496-6.494-1.952-1.96-5.118-1.96-7.07 0l-5.605 5.871C.606 12.292 0 13.578 0 15.013c0 2.774 2.238 5.022 5 5.022h12c.276 0 .526-.113.707-.294l6-6.027c.181-.181.293-.432.293-.71 0-.555-.447-1.004-1-1.004zM5 18.027c-1.657 0-3-1.349-3-3.014 0-.792.311-1.507.808-2.044l.005.005.168-.176C3.515 12.307 4.219 12 5 12c1.657 0 3 1.349 3 3.013s-1.343 3.014-3 3.014zm.603-7.975l2.983-3.125c1.172-1.177 3.071-1.177 4.242 0 1.172 1.176 1.172 3.084 0 4.261l-2.906 3.044c-.345-2.201-2.104-3.91-4.319-4.18zm10.983 7.975H9.069l3.853-4.034c.027.002.05.016.078.016h7.586l-4 4.018z"/></svg>