<svg viewBox="0 0 24 24" fill="currentColor"><path d="M23 0H5c-.371 0-.682.211-.854.512L4.132.504l-4 7 .014.008C.062 7.658 0 7.818 0 8v2c0 1.657 1.343 3 3 3 .353 0 .688-.069 1-.184V23c0 .553.447 1 1 1h18c.552 0 1-.447 1-1V1c0-.553-.448-1-1-1zM4 10c0 .553-.447 1-1 1s-1-.447-1-1V9h2v1zM2.723 7L5.58 2h15.696L18.42 7H2.723zM16 9v1c0 .553-.447 1-1 1s-1-.447-1-1V9h2zm-4 0v1c0 .553-.447 1-1 1s-1-.447-1-1V9h2zM8 9v1c0 .553-.447 1-1 1s-1-.447-1-1V9h2zm4 13h-2v-5h2v5zm10 0h-8v-6c0-.553-.447-1-1-1H9c-.553 0-1 .447-1 1v6H6v-9.184c.313.115.647.184 1 .184.771 0 1.469-.3 2-.778.531.478 1.229.778 2 .778s1.469-.3 2-.778c.531.478 1.229.778 2 .778 1.657 0 3-1.343 3-3V9h1c.371 0 .682-.211.854-.512l.014.008L22 4.766V22zm-3-7h-2c-.553 0-1 .447-1 1v2c0 .553.447 1 1 1h2c.553 0 1-.447 1-1v-2c0-.553-.447-1-1-1z"/></svg>