<svg viewBox="0 0 24 24" fill="currentColor"><path d="M16 5h-6c-.553 0-1 .447-1 1s.447 1 1 1h6c.553 0 1-.447 1-1s-.447-1-1-1zm-2 4h-1c-.553 0-1 .447-1 1s.447 1 1 1h1c.553 0 1-.447 1-1s-.447-1-1-1zm9.965 13.824l.019-.003-4-22-.019.003C19.879.359 19.49 0 19 0H5c-.49 0-.879.359-.965.824l-.02-.003-4 22 .02.003C.024 22.884 0 22.938 0 23c0 .553.447 1 1 1 .49 0 .879-.359.965-.824l.019.003L5 6.59l3.016 16.589.02-.003c.085.465.474.824.964.824.553 0 1-.447 1-1 0-.063-.024-.116-.035-.176l.019-.003L9.289 19h11.967l.76 4.179.02-.003c.085.465.474.824.964.824.553 0 1-.447 1-1 0-.062-.024-.116-.035-.176zM8.926 17L6.198 2h11.967l2.728 15H8.926z"/></svg>