<svg viewBox="0 0 24 24" fill="currentColor"><path d="M13 11c.363 0 .668-.204.843-.494l.015.009 1.882-3.136.313.938.012-.004c.13.396.494.687.935.687.553 0 1-.447 1-1 0-.11-.03-.213-.063-.313l.012-.004-1-3-.012.004C16.805 4.291 16.441 4 16 4h-3c-.553 0-1 .447-1 1s.447 1 1 1h1.233l-2.091 3.485.015.009c-.091.151-.157.318-.157.506 0 .553.447 1 1 1zm7-11H4c-.553 0-1 .447-1 1v22c0 .553.447 1 1 1h16c.553 0 1-.447 1-1V1c0-.553-.447-1-1-1zm-1 22H5V2h14v20zM8 20h6c.553 0 1-.447 1-1v-6c0-.553-.447-1-1-1H8c-.553 0-1 .447-1 1v6c0 .553.447 1 1 1zm1-6h4v4H9v-4z"/></svg>