<svg viewBox="0 0 24 24" fill="currentColor"><path d="M23 6h-7c-.553 0-1 .447-1 1h-2V5.816c1.162-.413 2-1.511 2-2.816 0-1.657-1.343-3-3-3S9 1.343 9 3c0 .553.447 1 1 1s1-.447 1-1 .447-1 1-1 1 .447 1 1-.447 1-1 1-1 .447-1 1v2H9c0-.553-.447-1-1-1H1c-.553 0-1 .447-1 1v4c0 .553.447 1 1 1h3v11c0 .221.086.414.207.579.075.104.166.188.275.256.154.096.325.165.518.165h14c.193 0 .364-.069.518-.165.108-.067.2-.152.275-.256.121-.165.207-.358.207-.579V12h3c.553 0 1-.447 1-1V7c0-.553-.447-1-1-1zm-8.164 3c-.372 1.157-1.388 1.99-2.836 1.99S9.536 10.157 9.164 9h5.672zM22 10h-3c-.553 0-1 .447-1 1v11H6V11c0-.553-.447-1-1-1H2V8h5c0 2.762 2.238 5 5 5s5-2.238 5-5h5v2z"/></svg>