<svg viewBox="0 0 24 24" fill="currentColor"><path d="M24 1c0-.553-.447-1-1-1-.276 0-.526.112-.707.293L19.5 3.086l-.793-.793C18.526 2.112 18.276 2 18 2s-.526.112-.707.293L17 2.586l-1.293-1.293C15.526 1.112 15.276 1 15 1s-.526.112-.707.293l-6 6C8.112 7.474 8 7.724 8 8c0 .553.447 1 1 1 .276 0 .526-.112.707-.293L15 3.414l.586.586L2.293 17.293C2.112 17.474 2 17.724 2 18v2.586L.293 22.293C.112 22.474 0 22.724 0 23c0 .553.447 1 1 1 .276 0 .526-.112.707-.293L3.414 22H6c.276 0 .526-.112.707-.293l15-15C21.888 6.526 22 6.276 22 6s-.112-.526-.293-.707l-.793-.793 2.793-2.793C23.888 1.526 24 1.276 24 1zM5.586 20H4v-1.586l14-14L19.586 6l-14 14z"/></svg>