<svg viewBox="0 0 24 24" fill="currentColor"><path d="M12 7c-2.762 0-5 2.238-5 5s2.238 5 5 5 5-2.238 5-5-2.238-5-5-5zm0 8c-1.657 0-3-1.343-3-3s1.343-3 3-3 3 1.343 3 3-1.343 3-3 3zm11-6h-2.523c-.105-.299-.227-.589-.361-.872l1.653-1.654c.391-.391.391-1.023 0-1.414L18.94 2.231c-.391-.391-1.023-.391-1.414 0l-1.654 1.653c-.283-.134-.573-.255-.872-.361V1c0-.553-.447-1-1-1h-4c-.553 0-1 .447-1 1v2.523c-.299.106-.589.227-.872.362L6.474 2.231c-.391-.391-1.023-.391-1.414 0L2.231 5.06c-.391.391-.391 1.023 0 1.414l1.653 1.654c-.134.283-.255.573-.361.872H1c-.553 0-1 .447-1 1v4c0 .553.447 1 1 1h2.523c.105.299.227.589.361.872l-1.653 1.654c-.391.391-.391 1.023 0 1.414l2.828 2.828c.391.391 1.023.391 1.414 0l1.654-1.653c.284.135.574.256.873.362V23c0 .553.447 1 1 1h4c.553 0 1-.447 1-1v-2.523c.299-.105.589-.227.872-.361l1.654 1.653c.391.391 1.023.391 1.414 0l2.828-2.828c.391-.391.391-1.023 0-1.414l-1.653-1.654c.135-.283.256-.573.361-.872H23c.553 0 1-.447 1-1v-4C24 9.447 23.553 9 23 9zm-1 4h-3.101c-.171 1.182-.627 2.261-1.311 3.175l2.059 2.059-1.414 1.414-2.059-2.059c-.913.684-1.993 1.14-3.175 1.311V22h-2v-3.101c-1.182-.171-2.262-.627-3.175-1.311l-2.059 2.059-1.414-1.414 2.059-2.059c-.683-.913-1.139-1.992-1.309-3.174H2v-2h3.101c.171-1.182.626-2.262 1.311-3.175L4.353 5.767l1.414-1.414 2.059 2.059C8.738 5.728 9.818 5.271 11 5.101V2h2v3.101c1.182.171 2.262.627 3.175 1.311l2.059-2.059 1.414 1.414-2.059 2.059c.684.913 1.14 1.993 1.311 3.175H22V13z"/></svg>