<svg viewBox="0 0 24 24" fill="currentColor"><path d="M22.707 3.293l-3-3C19.526.112 19.276 0 19 0s-.526.112-.707.293l-7 7C11.112 7.474 11 7.724 11 8s.112.526.293.707l.793.793-1.793 1.793c-.181.181-.293.431-.293.707v1.586l-1.5 1.5-1.793-1.793C6.526 13.112 6.276 13 6 13c-.407 0-.755.245-.911.595l-.003-.001-.007.016-.001.001-3.992 8.982.01.005C1.04 22.723 1 22.854 1 23c0 .553.447 1 1 1 .145 0 .28-.034.405-.089l.001.003 8.982-3.992c0-.001.001-.001.001-.001l.017-.007-.001-.003c.349-.156.595-.504.595-.911 0-.276-.112-.526-.293-.707L9.914 16.5l1.793-1.793c.181-.181.293-.431.293-.707v-1.586l1.5-1.5.793.793c.181.181.431.293.707.293s.526-.112.707-.293l7-7C22.888 4.526 23 4.276 23 4s-.112-.526-.293-.707zM3.97 21.03l2.353-5.294 2.941 2.941L3.97 21.03zM15 9.586L13.414 8 19 2.414 20.586 4 15 9.586z"/></svg>