<svg viewBox="0 0 24 24" fill="currentColor"><path d="M0 19c0 1.657 1.343 3 3 3s3-1.343 3-3-3-5-3-5c-.032 0-3 3.343-3 5zm3 1c-.552 0-1-.447-1-1s.908-2 1-2c.038 0 1 1.447 1 2s-.448 1-1 1zm20.707-7.707l-3.79-3.789C20.602 7.767 21 6.913 21 6c0-2.762-3.582-5-8-5-.261 0-.511.026-.762.048C12.16 1.028 12.084 1 12 1c-.276 0-.526.112-.707.293l-8 8C3.112 9.474 3 9.724 3 10s.112.526.293.707l11 11c.181.181.431.293.707.293s.526-.112.707-.293l8-8c.181-.181.293-.431.293-.707s-.112-.526-.293-.707zM19 6c0 .402-.164.784-.451 1.135L14.524 3.11C17.095 3.448 19 4.608 19 6zm-7-2.586l4.863 4.863C15.817 8.722 14.48 9 13 9c-2.189 0-4.072-.596-5.113-1.473L12 3.414zm3 16.172L5.414 10l1.167-1.166C7.972 10.138 10.273 11 13 11c2.043 0 3.901-.482 5.315-1.271L21.586 13 15 19.586z"/></svg>