<svg viewBox="0 0 24 24" fill="currentColor"><path d="M20.911 18.595l.003-.001L12.922.611c-.001 0-.001-.001-.001-.001l-.007-.017-.003.001C12.755.245 12.407 0 12 0s-.755.245-.911.595l-.003-.001-.007.016-.001.001-7.992 17.983.003.001C3.033 18.72 3 18.855 3 19v4c0 .553.447 1 1 1s1-.447 1-1v-2.382l2.553 1.276.005-.009c.134.068.281.115.442.115s.308-.047.442-.114l.005.009L12 20.118l3.553 1.776.005-.009c.134.068.281.115.442.115s.308-.047.442-.114l.005.009L19 20.618V23c0 .553.447 1 1 1s1-.447 1-1v-4c0-.145-.034-.28-.089-.405zM12 3.462L13.572 7h-3.145L12 3.462zm4 16.42l-3.553-1.776-.005.009C12.308 18.047 12.161 18 12 18s-.308.047-.442.114l-.005-.009L8 19.882l-2.698-1.349L9.539 9h4.922l4.237 9.533L16 19.882z"/></svg>