<svg viewBox="0 0 24.001 24" fill="currentColor"><path d="M23.001 8c-.277 0-.517.121-.695.305l-.012-.012-.293.293L15.415 2l.293-.293c.181-.181.293-.431.293-.707 0-.553-.447-1-1-1-.276 0-.526.112-.707.293l-4 4c-.181.181-.293.431-.293.707s.112.526.293.707l.28.28L.269 16.293c-.204.203-.276.441-.268.707.008.246.08.521.268.708.022.022.053.03.077.051l5.948 5.948c.181.181.431.293.707.293.553 0 1-.447 1-1v-1h1c.553 0 1-.447 1-1v-1h1c.553 0 1-.447 1-1v-1h1c.553 0 1-.447 1-1v-1h1c.553 0 1-.447 1-1v-1h1c.383 0 .801-.188.931-.655l.362.362c.181.181.431.293.707.293s.526-.112.707-.293l4-4c.181-.181.293-.431.293-.707 0-.553-.447-1-1-1zm-7 4h-1c-.553 0-1 .447-1 1v1h-1c-.553 0-1 .447-1 1v1h-1c-.553 0-1 .447-1 1v1h-1c-.553 0-1 .447-1 1v1h-1c-.383 0-.77.22-.931.655l-3.667-3.668 9.585-9.585 4.013 4.012V12zm3-.414L12.415 5l1.586-1.586L20.587 10l-1.586 1.586z"/></svg>