<svg viewBox="0 0 24 24" fill="currentColor"><path d="M23.563 3.852c-.169-.315-.491-.539-.875-.539-.569 0-.738.324-.738.324L19.586 6H18V4.414l2.359-2.37c.199-.184.328-.439.328-.731 0-.384-.224-.706-.54-.874C20.147.438 19.293 0 18 0c-3.313 0-6 2.687-6 6 0 .485.073.951.183 1.403L.293 19.293C.112 19.474 0 19.724 0 20s.112.526.293.707l3 3c.181.181.431.293.707.293s.526-.112.707-.293l11.88-11.88c.453.111.926.173 1.413.173 3.313 0 6-2.687 6-6 0-.833-.25-1.778-.437-2.148zM4 21.586L2.414 20 13.04 9.374c.425.623.967 1.157 1.589 1.582L4 21.586zM18 10c-2.209 0-4-1.791-4-4 0-2.052 1.55-3.723 3.539-3.953l-1.246 1.246C16.112 3.474 16 3.724 16 4v3c0 .552.447 1 1 1h3c.276 0 .526-.112.707-.293l1.246-1.246C21.723 8.45 20.051 10 18 10z"/></svg>