<svg xmlns="http://www.w3.org/2000/svg" fill="currentColor" viewBox="0 0 328 100"><path d="M29.5822 54.8094l-8.53 3.6297 3.2668 7.804 3.4483-1.4519-2.1778-5.0817 9.4373-3.9927c1.6334-.726 3.0853-1.0889 4.5372-1.4519-1.8148-1.6334-4.9001-1.4519-9.9818.5445zm3.993-16.5152l.363.1815 4.5372-1.9964v-.363l-.363-.1815-4.5372 1.9964v.363zm-.9072-1.8151l.3629.1815 4.9002-1.9964.1815-.5445-.363-.1815-4.9001 1.9964-.1815.5445zm.726 3.6299v.363l.363.1815 4.7187-1.9964v-.363l-.363-.3629-4.7187 2.1778zm-8.1676-13.2489v-.3629l-.363-.1815-21.77859 9.2559-.18149.3629.54446.5445 2.17786-1.2704 19.60076-8.3485zM43.376 58.0763l.363.1815 5.2631-2.1778v-.5445l-.363-.1815-5.2631 2.1779v.5444zM32.1235 36.8421c-1.6334-3.6298-5.2632-4.7187-10.7078-2.5408l-10.8893 4.5372 4.9001 11.7967 10.8893-4.5372c5.2632-2.3593 7.4411-5.6261 5.8077-9.2559zm-6.1706 8.167l-9.8004 4.1742-4.1742-9.8004 9.8003-4.1742c4.7187-1.9964 7.804-1.0889 9.2559 1.9964 1.4519 3.0853-.5444 5.8076-5.0816 7.804zm4.3557-11.9783l.363.363 5.2631-2.3593v-.363l-.3629-.1815-5.2632 2.1779v.3629zm1.8149 1.4518l.363.1815 4.5372-1.9963v-.363l-.363-.1815-4.5372 1.9964v.3629zM27.042 32.305l.7259.1815 6.7151-2.9039v-.5444l-.363-.1815-7.078 3.0853v.363zm14.8813 19.7821l.363.363 4.5372-1.9964v-.3629l-.363-.363-4.5372 1.9964v.3629zM29.9457 27.0416l.1815-.363-.363-.3629L5.98923 36.479l-2.17786.5445-.18149.9074.54447.363 2.17786-1.2704 23.59349-9.9819zM43.5571 55.717l.363.1815 4.7187-1.9964v-.3629l-.363-.1815-4.7187 1.9963v.363zm-3.4487-5.0817l.363.1815 5.0816-2.1779.1815-.3629-.3629-.1815-5.0817 2.1778-.1815.363zm2.9043 3.0853l.363.363 4.5372-1.9964v-.363l-.363-.1815-4.5372 1.8149v.363z"/><path d="M22.1415 36.1162l-8.893 3.8112 3.4483 7.9855 3.4483-1.4519-2.1779-5.2632 9.8004-4.1742c.5445-.1815 1.0889-.363 1.8149-.5444-1.6334-1.452-3.9928-1.8149-7.441-.363zm13.9752 14.1559h.726l7.078-2.9038v-.5445l-.363-.1815-7.441 3.0853v.5445zm-3.6308-7.6225l-.5445.5445.363.363 5.9891-2.5409v-.3629l-.363-.363-5.4446 2.3593zM17.6046 58.4393v-.3629l-.363-.363-1.8149.9074-2.3593.5445v.9074l.5444.363 2.1779-1.2704 1.8149-.726zm4.7182 11.0706v-.363l-.3629-.363-1.8149.9075-2.3594.5444v.726l.5445.5445 2.1779-1.2705 1.8148-.7259zm-.7255-1.8147v-.363l-.363-.363-1.8149.9075-2.3593.5444v.726l.5444.5445 1.9964-1.2705 1.9964-.7259zm-.9073-1.815v-.5444l-.1814-.1815-1.9964.7259-2.1779.726-.1815.726.5445.5444 2.1779-1.2704 1.8148-.726zm-.7265-1.8149v-.5445l-.363-.1814-1.8149.7259-2.3593.726v.7259l.5444.5445 2.1779-1.2704 1.8149-.726zm-.7261-1.8149v-.5445l-.363-.1815-1.8149.726-2.3593.7259v.726l.5445.5444 2.1778-1.2704 1.8149-.7259zm3.267 12.8857l-2.3594.5445v.9074l.363.1815 22.8675-9.8004.1815-.363-.363-.3629-20.6896 8.8929z"/><path d="M47.0059 45.5535c1.9964 1.2704 3.2668 3.4482 3.9928 5.0816 4.3557 10.1634-1.9964 17.6044-12.7042 22.1416l-18.5118 7.804 4.5372 1.2704 18.6933-7.9855c12.8857-5.4446 15.245-14.519 12.5227-21.0526-2.1779-4.5372-4.7187-5.9891-8.53-7.2595z"/><path d="M48.6388 60.4357l.1814-.363-.3629-.363-27.5862 11.7968-2.1779.5444-.1815.9075.5445.3629 2.1778-1.2704 27.4048-11.6152z"/><path d="M49.9093 50.9982c-1.8149-4.1742-5.6262-7.2595-10.8893-7.0781 1.8148-3.2667 2.1778-7.6225.7259-11.2522-3.9927-9.6189-13.0671-9.9819-20.8711-6.5336L0 34.3013l19.2378 45.5535 18.5117-7.804c9.9819-4.3557 16.334-11.2523 12.1598-21.0526zM19.9637 78.4029L1.45191 34.8457l17.78589-7.6225c7.441-3.0853 15.9709-2.5408 19.4192 5.9891 1.6334 3.6298.9074 8.53-1.4519 11.7968 5.9891-.726 9.8003 1.8148 11.7967 6.3521 3.8113 8.8929-2.3593 15.4265-11.6152 19.4192l-17.4229 7.6225z"/><path d="M47.368 63.158v-.363l-.363-.1815-25.2269 10.7078-2.3593.5445-.1815.9074.726.363 1.9963-1.2704L47.368 63.158zm-29.0378-2.904v-.3629l-.1815-.363-1.8149.9074-2.3593.5445-.1815.9074.5444.363 2.1779-1.2704 1.8149-.726zm-6.1704-14.7004v-.363l-.363-.363-1.81489.9075-2.35935.5444v.726l.54446.5445 2.17788-1.2705 1.8149-.7259zm20.1453-17.423l.1815-.3629-.3629-.1815L6.89679 38.294l-2.35934.5445-.18149.9074.72595.363 1.99637-1.2704L32.3051 28.1306zm-21.0526 15.608l.1815-.5444-.363-.1815-1.81483.7259-2.35935.726-.18149.726.72595.5444 1.99637-1.2704 1.81485-.726zm-.7265-1.8149v-.5445l-.363-.1814-1.81488.7259-2.17786.726-.18149.7259.54446.5445 2.17786-1.2704 1.81491-.726zm-.72512-1.8149v-.5445l-.36298-.1815-1.81488.726-2.35935.7259v.726l.54447.5444L7.986 40.8347l1.81488-.7259zm3.08442 7.2595v-.363l-.3629-.363-1.8149.9075-2.35936.5444v.9075l.54447.363 2.17789-1.2705 1.8148-.7259zm24.32-3.8111v-.363l-.363-.1815-23.7749 9.9818-2.3594.726v.726l.5445.5444 2.1778-1.2704 23.775-10.1633zm-.7263 2.5408l.1815-.5444-.363-.1815-22.3231 9.4374-2.3593.7259-.1815.726.7259.5444 1.9964-1.2704L36.479 46.098zm4.174.3631l.1815-.363-.363-.363-25.7713 11.0708-2.3594.5445v.7259l.5445.5445 2.1778-1.2704L40.653 46.4611zm-26.1339 4.7187v-.5445l-.3629-.1814-1.8149.7259-2.35937.726v.7259l.54447.5445 2.1779-1.2704 1.8148-.726zm-.9077-1.9966l.1815-.3629-.363-.363-1.8148.9074-2.35939.5445-.18149.9074.72595.363 1.99633-1.2704 1.8149-.726zM41.924 60.4355l-.363.5445.363.1815 7.078-3.0853.1815-.363-.3629-.1815-6.8966 2.9038zm-.0003-6.3521c-1.6334-3.9928-6.3521-3.9928-13.0672-1.0889l-10.3448 4.3557 4.9002 11.6152 10.7078-4.5372c7.2595-3.0853 9.8004-5.9891 7.804-10.3448zm-8.3485 9.4374l-9.6188 4.1742-3.9928-9.8004 9.4374-3.9927c6.1706-2.7223 10.3448-2.7223 11.6153.5445 1.6334 3.8112-.9075 6.1706-7.4411 9.0744zm7.0781-31.0343c1.8149 4.3557 1.089 7.441 0 10.7078 1.8149.1815 2.9038.363 4.3557 1.0889 1.089-3.2668 1.2705-6.8965-.1814-10.5263-1.8149-4.1742-5.9892-7.441-9.9819-8.3485 2.1779 1.2705 4.3557 3.8113 5.8076 7.0781zm45.1908 7.9853l-.1815-.1815-5.6261 1.0889-.1815.5445.1815.1815 5.8076-1.2705v-.3629zm3.6297 3.2668l-.363-.1815-5.6261 1.089-.1815.5444.363.1815 5.6261-1.0889.1815-.5445zm-5.4446-4.9003l-.1815-.363-5.6262 1.2705-.1815.3629.363.363 5.6262-1.2704v-.363zm3.6298 3.267l-.1815-.1815-5.8076 1.089v.5444l.1815.1815 5.6261-1.2704.1815-.363zm-24.501 6.715l-.1814.726.5444.5445 2.1779-.726 1.9963-.363.1815-.5444-.3629-.1815-1.8149.363-2.5409.1814zm1.2706 5.9892l-.1815.7259.5444.5445 2.3594-.9075 1.8149-.3629.1814-.363-.3629-.363-1.8149.363-2.5408.363zm18.5113-17.7859l-.363-.363-18.6933 4.1743-2.3593.1815-.1815.7259.363.5445 2.3593-.726 18.6933-4.1742.1815-.363zM64.0653 52.8131l-.1815.726.5445.7259 2.1778-.9074 1.9964-.5445.1815-.363-.363-.3629-1.9964.5444-2.3593.1815zm-.3625-1.9964l-.363.7259.5445.726 2.3594-.9075 1.8148-.3629.1815-.363-.1815-.363-1.9963.363-2.3594.1815zm27.586-5.263l-.363-.363-5.6262 1.2704-.1814.363.3629.3629 5.6262-1.2704.1815-.3629zm-6.5341-17.4229l-.1815.3629.1815.363 5.8077-1.2704.1814-.5445-.3629-.1814-5.6262 1.2704zM64.9724 56.6243l-.363.726.5444.5444 2.3594-.7259 1.9964-.363v-.5445l-.1815-.1815-1.9964.363-2.3593.1815zm27.9492-9.4373l-.1815-.363-5.8076 1.2704-.1815.363.363.3629 5.8076-1.2704v-.3629zm-8.5301-24.3194c-.9074-4.5372-4.7187-5.9891-10.3448-4.7187l-11.2523 2.5408 3.0853 14.3376 10.8893-2.3594c5.9891-1.4519 8.7115-4.7187 7.6225-9.8003zm-7.804 8.5299l-9.8003 2.1779-2.7223-12.1597 10.1633-2.1779c5.0817-1.0889 8.167 0 8.8929 3.8113 1.0889 4.5372-1.2704 7.2595-6.5336 8.3484z"/><path d="M74.4107 20.1453l-9.2559 1.9964 2.1778 10.3448 3.6298-.726-1.6334-7.441 10.1633-2.1778c.9075-.363 1.452-.363 2.1779-.363-1.0889-1.8149-3.2668-2.5408-7.2595-1.6334zM82.759 30.49l-.363.5445.1815.1814 7.441-1.6334.1815-.3629-.363-.1815-7.078 1.4519z"/><path d="M98.0036 23.7749c-1.2705-5.4447-4.9002-9.2559-8.7115-11.0708 2.1779 1.9964 3.6298 5.2632 4.3557 8.167 1.9964 8.7114-1.8148 13.6116-6.5335 16.8784l17.9677 16.6969-12.1601 2.7223 4.1742 1.9964 14.1559-3.0853-18.8746-17.4229c3.8113-3.2668 7.0781-8.7114 5.6262-14.882z"/><path d="M85.4807 37.5681c4.7187-2.9038 8.8929-8.7114 7.078-16.5154C90.5624 11.6153 82.2139 7.80404 72.232 9.9819l-19.0562 4.1742L63.8836 62.432l8.8929-1.9964-3.8112-17.6043 7.441-1.6334 15.7894 14.882 11.0713-2.3593-17.7863-16.1525zm-8.8929 2.5408l-9.2559 1.9964 3.8112 17.6044-6.715 1.4519-9.9819-46.098 18.1488-3.9928c9.2559-1.99634 17.0599 1.4519 19.0563 10.1634 1.6334 7.2595-2.1779 13.0671-7.804 16.1524l17.0597 15.7895-8.3483 1.8149-15.9709-14.8821z"/><path d="M94.918 48.8203l-.363-.363-5.8076 1.2704-.1815.363.363.3629 5.8076-1.2704.1815-.3629zm1.6338 1.6335l-.363-.363-5.8076 1.2704-.1815.363.363.363 5.8076-1.2704.1815-.363zm1.452 1.2703l-5.8077 1.2704-.1815.363.363.363 5.8076-1.2704.1815-.363-.3629-.363zM58.8024 18.1489l24.5009-5.4447v-.363l-.1815-.3629-24.3194 5.4446-2.5408.1815-.1815.726.5444.5444 2.1779-.7259zm21.0526-.9076l.5444.1815 7.4411-1.6334v-.3629l-.1815-.363-7.804 1.8149v.3629zm-21.4159-1.0888l19.9637-4.3557.1815-.5445-.363-.1815-22.323 4.9002-.1815.363.363.5444 2.3593-.7259zm.9071 3.8112l26.6788-5.8076v-.3629l-.1815-.363-26.6788 5.8076-2.3593.363-.363.7259.5444.5445 2.3594-.9075zm.9077 3.9927l1.8149-.363.1815-.5445-.363-.1815-1.8149.363-2.5408.1815-.1815.7259.5445.5445 2.3593-.7259zm-.5438-1.9964l1.9964-.363.1815-.3629-.363-.363-1.9964.363-2.3593.3629-.1815.726.5445.5445 2.1778-.9075zm24.682-1.6332l.363.1814 5.0816-1.0889.1815-.363-.363-.3629-5.0816 1.0889-.1815.5445zM65.3363 58.6207l-.1815.726.363.363 4.3557-1.089.1815-.363-.363-.3629-1.9964.5444-2.3593.1815zm20.3263-34.4828l.1815.363 4.9002-1.0889.1815-.363-.363-.363-4.9002 1.089v.3629zm-2.7222-5.6261l.1815.363 5.8076-1.2704.1815-.363-.3629-.363-5.8077 1.2704v.363zm-22.3231 7.441l1.9964-.5445v-.363l-.1815-.3629-1.9963.5444-2.3594.1815-.1815.726.363.5444 2.3593-.7259zm24.682-3.8112l.1815.363 4.9002-1.0889.1815-.363-.363-.363-4.9002 1.0889v.363zM64.4284 43.5573l1.9963-.5445.1815-.363-.3629-.3629-1.9964.5444-2.3594.1815-.1814.726.5444.5444 2.1779-.7259zm-.7263-3.9929l22.5046-4.9002v-.363l-.1815-.363-22.5045 4.9002-2.5409.363-.1815.7259.5445.5445 2.3593-.9074zm1.271 5.9892l1.8149-.5444.1815-.363-.1815-.363-1.9963.5445-2.5409.1815-.1815.7259.5445.5445 2.3593-.726zm.3625 1.8149l1.9964-.363v-.363l-.1815-.363-1.9964.363-2.3593.363-.1815.7259.363.5445 2.3593-.9074zm-2.1777-9.8004l25.4083-5.4447.1815-.5445-.363-.1814-25.4083 5.4446-2.3594.363-.1815.7259.363.5445 2.3594-.9074zm-1.6335-7.8039l1.8149-.363.1815-.3629-.1815-.363-1.9964.363-2.5408.3629-.1815.726.5445.5445 2.3593-.9075zm.363 1.9964l1.9963-.363v-.5445l-.1815-.1815-1.9963.363-2.3594.1815-.1815.7259.363.5445 2.3594-.7259zm-.9078-3.8115l1.9964-.5444.1815-.363-.363-.363-1.9963.5445-2.3594.1815-.1815.7259.5445.5445 2.1778-.726zm1.8153 7.6225l1.8149-.363.1815-.363-.1815-.3629-1.9964.3629-2.3593.363-.363.726.5445.5444 2.3593-.9074zm-.5447-1.8147l1.9963-.363.1815-.5444-.363-.1815-1.8148.3629-2.5409.363-.1815.5445.5445.5444 2.1779-.7259z"/><path d="M76.225 42.2869l-6.3521 1.4519 3.9927 17.4228-9.9818 2.1779 4.3557 2.1779 9.8004-2.1779-3.9928-17.6044 4.7187-1.0889-2.5408-2.3593zm9.437-16.5156l-.1815.363.1815.363 5.0816-1.089.1815-.363-.1815-.3629-5.0816 1.0889zm29.946 20.5083l-.363.7259.363.726 2.541-.5445 25.227-2.1778.181-.363-.363-.363-25.227 2.1779-2.359-.1815zm-4.174-10.8894h-2.541l-.181.726.363.5444 2.541-.5444 1.815-.1815.181-.363-.181-.363-1.997.1815zm-.182-1.9964h-2.541l-.181.7259.363.5445 2.359-.5445h1.996l.182-.5444-.182-.1815h-1.996zm-.725-7.6225h-2.36l-.363.5445.545.7259 2.359-.5444 1.996-.1815.182-.363-.363-.363-1.996.1815zm.181 1.9964l-2.36-.1815-.363.7259.363.5445 2.541-.363 1.815-.1815.182-.3629-.182-.363-1.996.1815zm-.363-3.9927h-2.359l-.363.7259.544.5445 2.359-.5445 1.997-.1814.181-.363-.363-.363-1.996.1815zm3.085 20.8712l-.363.7259.363.5445 2.541-.5445 5.807-.3629.182-.363-.545-.363-5.626.363h-2.359zm-4.174-7.4411l-.182.7259.363.5445 2.541-.363 1.996-.1815.182-.3629-.182-.363-2.177.1815-2.541-.1815zm2.541 5.626l-.363.726.363.726 2.541-.5445 3.811-.363.182-.363-.363-.3629-3.812.3629-2.359-.1815zm-1.089-1.8147l-.363.726.363.5445 2.541-.363 3.085-.363.181-.363-.363-.3629-2.903.1814h-2.541zm-.907-1.9964l-.182.726.363.7259 2.359-.5444 2.541-.1815.182-.363-.363-.363-2.36.1815-2.54-.1815zm1.27-7.4411l-2.359-.1814-.363.7259.363.726 2.359-.5445 1.996-.1815.182-.363-.182-.3629-1.996.1814zm-2.178-25.04524l1.996-.18149.182-.36297-.182-.36298-4.356.36298-.363.36297.363.72596 2.36-.54447zm1.089 11.97804l1.996-.1815.181-.363-.181-.363-1.996.1815h-2.541l-.182.726.363.5445 2.36-.5445z"/><path d="M129.583 52.2687c12.704-1.089 21.052-8.3485 19.964-20.8712L147.006.363037l-9.075.725953 2.541 31.21601c.545 6.715-4.356 10.3448-11.797 11.0707-7.078.5445-12.704-2.1778-13.248-8.8929l-2.541-31.39744-9.074.72595 2.54 31.21599c1.271 12.5227 10.89 18.3303 23.231 17.2414zM111.978 4.35578l2.541 30.12702c.726 7.6225 6.897 10.5263 14.519 9.9819 8.167-.726 13.431-4.7187 12.705-12.1597l-2.541-30.30857 6.896-.54446 2.541 30.12703c.908 11.7967-6.896 18.6933-19.056 19.7822-11.797.9075-21.053-4.5372-21.96-16.3339l-2.541-30.12706 6.896-.54446z"/><path d="M110.345 22.5046l1.997-.1815.181-.363-.363-.3629-1.996.1815-2.36-.1815-.363.7259.545.726 2.359-.5445zm10.889 25.5897h-2.54l-.363.5445.544.726 2.359-.5445 19.238-1.6334.182-.363-.363-.363-19.057 1.6334zm-11.071-27.586l1.996-.1815.182-.363-.363-.363-1.815.1815h-2.541l-.363.5445.545.7259 2.359-.5444zm-.907-9.982l1.996-.1815.182-.36293-.182-.36297-1.996.18148-2.359-.18148-.363.7259.363.726 2.359-.5445zm-.182-1.9963l1.996-.18149.182-.36297-.182-.36298-1.996.18149h-2.359l-.363.54446.363.72595 2.359-.54446zm.363 3.9927l1.997-.1815.181-.363-.181-.363-1.997.1815h-2.541l-.181.726.363.5444 2.359-.5444zm.182 1.9963l1.997-.1815.181-.363-.181-.3629-1.997.1815h-2.541l-.181.5444.363.726 2.359-.5445zm.181 1.9964l1.997-.1815.181-.363-.181-.363-1.997.1815-2.54-.1815-.182.726.363.7259 2.359-.5444zm32.669 10.5263l-.182.363.182.3629 4.537-.3629.181-.363-.181-.363-4.537.363zm.181 1.8149l-.182.363.182.363 4.537-.363.181-.363-.181-.3629-4.537.3629zm-.364-3.8113l-.181.363.363.363 4.356-.363.363-.363-.363-.3629-4.538.3629zm-.181-1.8148l-.181.363.363.363 4.537-.5445.181-.363-.362-.363-4.538.5445zm-.181-1.9964l-.182.3629.363.363 4.537-.363.182-.5444-.363-.1815-4.537.363zm-20.69 19.9636c-.362-.7259-.544-1.4519-.544-2.7223l-2.904-31.94192-3.993-3.44827 2.541 31.21599c.545 3.4483 2.178 5.6261 4.9 6.8965zm21.052-4.5371l-.181.363.181.3629 5.082-.3629.182-.363-.363-.363-4.901.363zm.545-1.9964l-.182.363.182.363 4.719-.363.181-.363-.363-.3629-4.537.3629zm.182-1.8149l-.181.363.363.363 4.355-.363.182-.363-.182-.363-4.537.363zm-16.878 16.697h-2.541l-.363.7259.544.1815 12.16-.9074.182-.363-.182-.363-9.8.726zm16.696-18.6933l-.182.3629.182.363 4.537-.363.182-.3629-.182-.363-4.537.363zm2.722-21.23423l.182-.54446-.182-.18149-4.537.36298-.182.36297.182.36298 4.537-.36298zm.726 7.80393l.182-.3629-.182-.363-4.537.5444-.181.363.181.363 4.537-.5445zm-.18-1.8147l.181-.5444-.181-.1815-4.538.363-.181.3629.181.363 4.538-.363zm.362 3.8113l.181-.363-.363-.3629-4.537.3629-.181.5445.363.1815 4.537-.363zm-.362 21.5969l.181-.3629-.181-.363-6.353.5444-.181.363.181.363 6.353-.5445zm.725-1.9963l.181-.363-.181-.363-5.445.5445-.181.363.181.363 5.445-.5445zm-1.815-35.39014l.181-.54446-.181-.18149-4.537.36297-.182.36298.182.36298 4.537-.36298zm.363 3.81128l.181-.36298-.181-.36297-4.537.36297-.182.36298.182.36298 4.537-.36298zm-.181-1.99634l.181-.36297-.181-.36298-4.537.36298-.182.54446.182.36298 4.537-.54447zm-.182 37.5681l.182-.363-.182-.3629-8.348.7259-.545.363.182.363 8.711-.726zm.907-29.5827l.182-.363-.182-.363-4.537.363-.181.363.181.3629 4.537-.3629zm-.181-1.9964l.182-.363-.182-.3629-4.537.3629-.181.5445.181.363 4.537-.5445zm-34.846 18.1488h-2.36l-.362.726.362.5444 2.36-.5444h1.996l.182-.5445-.182-.1815h-1.996z"/><path d="M152.087 3.62982L148.095.363037l2.54 31.034463c1.089 13.6116-7.804 20.8712-21.052 21.9601-11.978 1.0889-17.06-3.9927-19.964-7.078 4.9 8.5299 16.334 11.0707 23.412 10.5263 13.793-1.089 22.505-10.3449 21.416-22.3231l-2.36-30.85298zm48.458 36.47908l-.182.363.182.3629 4.355.1815.182-.363-.182-.3629-4.355-.1815zm-4.537 7.8039l-.182.363.182.363 8.53.363.181-.363-.181-.363-8.53-.363zm4.536-5.8076l-.363.363.182.363 4.537.1815.181-.363-.181-.363-4.356-.1815zm-5.626 3.6299l-.181.363.181.363 9.619.5444.363-.363-.181-.3629-9.801-.5445zm-1.27-1.9966l-.182.363.182.363 11.071.5444.181-.3629-.181-.363-11.071-.5445zm7.259-11.6152l-.181.363.181.3629 4.356.1815.363-.3629-.363-.363-4.356-.1815zm-.181 3.9929l-.182.363.182.363 4.356.1815.181-.363-.181-.363-4.356-.1815zm0 1.9963l-.363.363.182.363 4.537.1815.181-.363-.181-.363-4.356-.1815zm.181-3.9926l-.363.363.182.3629 4.537.1815.182-.363-.182-.3629-4.356-.1815zm-7.622-1.9965l-.181-.363-6.534-.3629-.181.3629.181.363 6.352.363.363-.363zm-1.27-1.9963l-.182-.5445-6.352-.1815-.363.363.363.363 6.352.3629.182-.3629zm-1.089-2.1779l-.182-.3629-6.533-.1815-.182.1815.182.5444 6.352.1815.363-.363zm8.166 14.5189l-.181-.3629-6.352-.363-.182.363.182.3629 6.171.363.362-.363zm-4.718-8.3484l-.181-.363-6.352-.1815-.182.363.182.3629 6.352.1815.181-.3629zm3.629 6.3521l-.181-.5445-6.352-.1815-.363.363.181.363 6.534.1815.181-.1815zm-2.359-4.1741l-.181-.3629-6.352-.363-.363.363.181.3629 6.352.363.363-.363zm5.808-16.1524l-.181.3629.181.363 4.356.1815.363-.363-.182-.3629-4.537-.1815zm.726-13.97465l-.182.36298.182.36298 4.355.18149.182-.36298-.182-.36298-4.355-.18149zm-.363 7.98535l-.182.1815.182.5445 4.356.1814.181-.3629-.181-.363-4.356-.1815zm.181-3.9927l-.181.363.181.363 4.356.1815.182-.363-.182-.363-4.356-.1815zm0 1.9964l-.363.3629.182.363 4.537.1815.181-.363-.181-.3629-4.356-.1815zm.182-4.1741l-.363.36297.181.36298 4.356.36297.182-.36297-.182-.36298-4.174-.36297z"/><path d="M209.074 2.17786L200 1.81488l-1.633 35.39022L177.677.907441 165.699 0l-2.36 49.3648 9.075.363 1.815-34.8458 20.689 35.9347 11.797.5445 2.359-49.18334zm-13.43 47.73144l-22.323-39.02-1.815 37.7495-6.896-.3629 2.359-47.18697 9.982.54446 22.323 39.20141 1.815-37.93099 6.896.36298-2.359 47.18691-9.982-.5444z"/><path d="M201.089 30.127l-.363.3629.363.363 4.355.1815.182-.363-.182-.363-4.355-.1814z"/><path d="M207.622 52.45l-11.978-.5445 3.448 3.0853 12.16.5445 2.359-50.27227-3.448-3.0853L207.622 52.45zm-9.8-23.7749L183.666 3.81122 178.947.544434 197.641 33.3938l.181-4.7187z"/><path d="M201.271 26.1343l-.363.363.363.3629 4.355.1815.182-.363-.182-.3629-4.355-.1815zm.363-9.9817l-.182.363.182.3629 4.355.1815.363-.3629-.181-.363-4.537-.1815zm-.545 11.978l-.181.363.181.363 4.356.1815.363-.363-.363-.363-4.356-.1815zm.181-3.9927l-.181.363.181.363 4.356.1815.363-.363-.181-.363-4.538-.1815zm.182-1.9963l-.181.363.181.363 4.356.1814.181-.3629-.181-.363-4.356-.1815zm.182-3.9927l-.182.363.182.363 4.355.1815.182-.363-.182-.363-4.355-.1815zm-11.979 7.8039l-.181-.363-6.352-.363-.363.363.363.363 6.352.3629.181-.3629zm7.079 12.3413l-.182-.363-6.352-.363-.181.363.181.363 6.171.3629.363-.3629zm-27.769-3.6298l-2.541-.5444-.362.7259.362.726 2.36-.1815h1.996l.363-.363-.363-.363h-1.815zm.363-10.1634l-2.359-.363-.363.726.363.5445 2.359-.1815 1.997.1815.181-.363-.181-.363-1.997-.1815zm-.363 8.1669l-2.359-.5445-.363.7259.181.726 2.541-.1815h1.996l.182-.363-.182-.3629h-1.996zm-.362 7.9855l-2.36-.5444-.363.7259.182.726 2.541-.1815h1.996l.182-.363-.182-.363h-1.996zm0-1.9963l-2.36-.5445-.363.726.363.7259 2.36-.1814h1.996l.182-.363-.182-.363h-1.996zm.726-11.9783l-2.541-.5444-.363.7259.363.726 2.359-.1815h1.997l.362-.363-.181-.363h-1.996zm-.182 1.8149l-2.359-.363-.363.726.363.5444 2.359-.1815 1.997.1815.181-.3629-.181-.363-1.997-.1815zm-.001 1.9963l-2.54-.3629-.363.7259.363.5445 2.359-.1815 1.996.1815.363-.363-.181-.363-1.997-.1815zm-.362 5.9893l-2.36-.363-.362.726.181.5444 2.541-.1815 1.996.1815.182-.3629-.182-.363-1.996-.1815zm1.634-33.21248l5.989.36298.363-.36298-.182-.36297-8.53-.36298-.363.18149.182.72595 2.541-.18149zm36.115 1.81504l.363-.36298-.363-.36298-4.174-.18148-.363.36297.182.36298 4.355.18149zM188.384 23.7749l-.181-.3629-6.352-.1815-.182.3629.182.363 6.352.1815.181-.363zm-19.963 18.8748l-2.359-.5445-.363.726.363.7259 2.359-.1815h1.996l.182-.3629-.182-.363h-1.996z"/><path d="M173.321 50.8168l-9.982-.5445 3.449 3.0853 10.163.5445 1.452-29.5826-3.448-6.1706-1.634 32.6679z"/><path d="M168.421 44.4645l-2.359-.3629-.544.7259.363.5445 2.54-.1815 1.997.1815.181-.363-.181-.363-1.997-.1815zm-.181 1.9966l-2.359-.363-.363.726.363.363 4.355.1815.182-.363-.182-.363-1.996-.1815zm1.996-41.19785l7.441.36297.181-.36297-.181-.36298-7.26-.36298-2.54-.36297-.363.54446.363.72595 2.359-.18148zm-.363 9.25575l-2.359-.363-.545.726.363.5444 2.541-.1815 1.996.1815.182-.363-.182-.3629-1.996-.1815zm11.615-3.0853l-.182-.363-6.533-.3629-.363.3629.363.363 6.533.363.182-.363zm-1.27-1.99632l-.182-.36298-6.533-.36297-.182.36297.182.36298 6.533.36297.182-.36297zm2.359 3.99282l-.181-.363-6.534-.1815-.181.363.181.363 6.534.1815.181-.363zm3.63 6.3519l-.182-.363-6.533-.3629-.182.3629.182.363 6.533.363.182-.363zm-7.078-12.52252l-.182-.36297-8.711-.36298-2.359-.36298-.363.54447.181.72595 2.541-.18149 8.53.36298.363-.36298zm5.807 10.34472l-.181-.363-6.534-.1815-.181.1815.181.5445 6.534.1815.181-.363zm-1.088-1.9963l-.182-.3629-6.533-.363-.182.363.182.3629 6.533.363.182-.363zm-13.794-7.07803l-2.359-.36298-.363.72596.363.54446 2.359-.18149 1.997.18149.181-.36298-.181-.36297-1.997-.18149zm-.362 9.98193l-2.359-.363-.545.5445.363.7259 2.541-.1814 1.996.1814.182-.3629-.182-.363-1.996-.1815zm-.182 1.9962l-2.359-.1814-.363.5444.363.5445 2.359-.1815 1.997.1815.181-.363-.181-.363-1.997-.1815zm.182-3.9925l-2.36-.363-.363.7259.363.726 2.36-.363 1.996.1815.181-.363-.181-.3629-1.996-.1815zm-.182 5.989l-2.36-.363-.544.726.363.5444 2.541-.1815 1.815.1815.363-.363-.182-.3629-1.996-.1815zm.544-11.9783l-2.359-.363-.363.5445.182.7259 2.54-.1814 1.997.1814.181-.3629-.181-.363-1.997-.1815zm-.181 1.9963l-2.36-.3629-.363.5444.363.726 2.36-.1815 1.996.1815.182-.363-.182-.363-1.996-.1815zm17.423 9.2561l-.182-.363-6.352-.363-.363.363.182.363 6.533.363.182-.363zm40.472 17.4228l.363-.3629-.182-.363-3.267-.726-2.359-.7259-.363.7259.181.5445 2.541.1815 3.086.7259zm-3.267-2.7222l2.722.5444.363-.363-.181-.3629-2.722-.5445-2.541-.726-.363.5445.181.726 2.541.1815zm3.993 4.7185l.182-.1815-.182-.5445-3.448-.5444-2.359-.726-.545.5445.182.7259 2.54.1815 3.63.5445zm1.089 2.3595l.181-.363-.181-.363-3.993-.726-2.359-.7259-.545.5445.182.7259 2.54.1815 4.175.726zm-4.356-15.0636l2.359.3629.182-.3629-.182-.363-2.359-.363-2.36-.726-.363.5445.182.726 2.541.1815zm-.726 5.989l2.359.3629.363-.3629-.181-.363-2.359-.363-2.36-.7259-.544.5444.181.726 2.541.1815zm.363-3.9927l2.359.363.182-.363-.182-.363-2.359-.363-2.36-.7259-.544.5444.363.726 2.541.1815zm-.363 1.9963l2.359.363.363-.363-.181-.3629-2.359-.363-2.36-.726-.544.5445.363.7259 2.359.1815zm33.575-4.9l2.723 2.5408 10.344-6.1706c-1.815-3.0853-5.081-6.715-8.53-9.6189 2.541 3.0853 3.993 5.4447 4.901 7.4411l-9.438 5.8076zm-2.722 15.0634l6.352 8.7114c-6.352 6.1706-13.975 8.8929-23.23 7.078-5.082-.9074-10.89-3.9927-13.975-8.1669 3.085 5.4446 9.256 10.3448 17.06 11.7967 10.708 1.9964 18.693-2.7223 24.138-8.5299l-5.445-7.2596-4.9-3.6297zm-6.352-22.1416c2.359.363 4.174 1.4519 5.807 2.7223-2.359-3.6297-5.081-5.6261-8.893-6.3521-7.803-1.4519-13.793 4.9002-15.245 13.0672-1.088 5.8076.726 12.5227 5.082 15.7895-2.178-3.4483-2.722-8.167-1.996-12.1597 1.633-8.167 7.078-14.5191 15.245-13.0672zm-23.412 5.9892l2.54.363.182-.1815-.182-.363-2.359-.5444-2.359-.726-.545.5445.363.7259 2.36.1815z"/><path d="M233.394 48.2759l.363-.3629-.545-.363-5.808-1.0889-2.359-.726-.363.5445.182.7259 2.54.1815 5.99 1.0889zm-2.541-2.5409l.363-.1815-.181-.363-4.537-.9074-2.36-.726-.544.5445.181.7259 2.541.1815 4.537.726zm22.323 8.1671l.182-.1815-.182-.5444-23.593-4.3558-2.541-.7259-.363.5444.182.726 2.541.1815 23.774 4.3557z"/><path d="M238.294 57.3502c9.074 1.6334 15.789-.5445 21.96-6.3521l-5.626-7.6225c-4.719 4.5372-9.801 5.9891-14.338 5.2631-7.259-1.2704-12.522-8.7114-10.708-18.6932 1.634-8.893 8.167-15.2451 16.334-13.7931 5.264.9074 8.712 3.9927 11.616 10.5263l7.985-5.0817c-3.63-7.6225-9.074-12.52268-18.149-14.33757-14.337-2.72232-25.045 7.98547-27.404 21.05267-2.178 12.7041 3.992 26.4972 18.33 29.0381zm-17.06-29.0381c2.359-12.7042 12.341-22.68606 26.134-20.14523 8.712 1.6334 13.43 5.98913 16.879 12.70413l-6.171 3.9928c-2.541-5.8076-6.17-8.8929-11.797-9.9819-9.074-1.6334-15.971 5.2632-17.785 14.7006-1.634 8.7114 2.359 18.3303 11.252 19.9637 5.626 1.0889 10.345-1.0889 14.519-4.5372l4.356 5.9891c-5.627 4.9002-11.434 7.078-20.327 5.4446-13.43-2.7223-19.419-15.4265-17.06-28.1306z"/><path d="M231.942 15.4265l4.355.726.363-.1815-.181-.363-4.537-.9074-2.36-.726-.363.5445.182.7259 2.541.1815zm24.864 35.2087l.363-.363-.181-.363-6.353-1.0889-.363.1815.182.5445 6.352 1.0889zm-.908 1.815l.363-.363-.181-.363-8.712-1.6334-.544.363v.363l9.074 1.6334zm-.725-4.1743l.363-.3629-.182-.363-2.359-.363-.363.363.181.363 2.36.3629zm.725-28.8566l.182.5444 6.352 1.089.182-.363v-.363l-6.353-1.0889-.363.1815zm-29.582 5.2631l2.359.363.363-.363-.181-.363-2.359-.363-2.541-.7259-.363.5444.181.726 2.541.1815zm5.626 26.6788l-2.36-.7259-.363.5444.182.726 2.541.1815 18.148 3.2667.182-.1814v-.5445l-18.33-3.2668zm21.415-34.3014l.545.3629 8.167 1.6334.181-.363v-.3629l-8.711-1.6334-.182.363zM236.661 54.265l-2.36-.7259-.544.5444.363.363 10.708 1.9964.181-.363v-.363l-8.348-1.4519zm21.596-32.6678l-.362.3629.181.363 1.996.363.363-.363-.181-.363-1.997-.3629zm-30.308-.7261l3.085.5445.182-.363-.182-.363-2.904-.5445-2.359-.7259-.544.5445.181.7259 2.541.1815zm-.907 1.8149l2.722.5445.363-.363-.182-.363-2.722-.5444-2.359-.726-.545.5445.363.7259 2.36.1815zm3.267-5.4447l3.811.5445.182-.1815-.182-.5445-3.63-.5444-2.359-.9075-.545.726.363.7259 2.36.1815zm13.43-7.80398l8.711 1.63338.363-.363-.181-.3629-11.253-1.99641-.544.18149.363.72595 2.541.18149zM229.22 19.0562l3.085.5444.182-.363-.182-.3629-3.085-.5445-2.36-.726-.544.5445.363.726 2.541.1815zm4.537-5.263l5.081.9075.726-.1815-.181-.5445-5.626-.9074-2.36-.726-.363.5445.182.7259 2.541.1815zm2.359-1.6335l23.775 4.3557.181-.363-.181-.363-23.594-4.3557-2.359-.7259-.544.5444.181.726 2.541.1815zm3.085-1.4519l18.149 3.2668.363-.1815-.181-.5445-18.149-3.26679-2.36-.72595-.544.54446.363.72598 2.359.1815zm46.28 13.6116l1.815.5444.363-.1815v-.3629l-1.996-.726-1.997-1.2704-.726.5445.182.7259 2.359.726zm31.761 18.5119l.181-.363v-.363l-4.174-1.6334-.182.363v.363l4.175 1.6334zm1.995-5.6262l.363-.363v-.363l-4.174-1.6334-.363.363.181.363 3.993 1.6334zm-1.27 3.8112l.182-.3629v-.363l-4.175-1.6334-.363.363.182.3629 4.174 1.6334zm.545-1.9964l.363-.1815v-.363l-4.174-1.6334-.363.1815.181.5445 3.993 1.4519zm-2.723 7.6226l.363-.3629-.181-.363-4.174-1.6334-.182.363v.363l4.174 1.6333zm4.175-11.2524l.363-.363-.182-.3629-3.992-1.6334-.363.3629.181.363 3.993 1.6334zm-33.757-13.0669l1.815.7259.363-.1815v-.5444l-1.997-.5445-2.178-1.2704-.544.5445.181.7259 2.36.5445zm.726-1.8151l1.815.7259.363-.1815-.182-.5444-3.992-1.4519-.545.1814.182.726 2.359.5445zm28.13 27.9494l.363-.363-.181-.363-3.993-1.6334-.363.363v.363l4.174 1.6334zm-.725 1.8148l.363-.1814-.182-.363-3.992-1.6334-.363.1815v.5444l4.174 1.4519zm2.177-5.6262l.182-.1815v-.3629l-4.175-1.6334-.181.1815v.5444l4.174 1.4519zm-13.248 22.1415l-.363.1815.182.5445 3.993 1.4519.362-.1815v-.363l-4.174-1.6334zm-.726 1.8149l-.363.363.181.363 3.993 1.6334.363-.363v-.363l-4.174-1.6334zm-.726 1.815l-.363.363.181.3629 3.993 1.6334.363-.3629v-.363l-4.174-1.6334zm-.726 1.8149l-.182.363v.363l4.174 1.6334.182-.363v-.363l-4.174-1.6334zm-11.616-33.5753l5.808-15.0635-2.36-3.9928-6.896 17.7859 3.448 1.2704zm18.149 16.8783l-.363.1815v.5445l4.175 1.4519.363-.1815-.182-.363-3.993-1.6334zm-.725 1.8149l-.363.363v.363l4.174 1.6334.363-.363v-.363l-4.174-1.6334zm13.793-23.9566l.363-.1815-.182-.363-3.992-1.6334-.363.1815.181.5445 3.993 1.4519zm-15.971 29.5826l-.363.363.181.363 3.993 1.6334.363-.363v-.363l-4.174-1.6334zm.726-1.8149l-.363.1815v.5444l4.174 1.4519.363-.1815v-.3629l-4.174-1.6334zm.726-1.8147l-.363.1815v.5444l4.174 1.4519.363-.1815-.182-.5444-3.992-1.4519zm-2.178 5.6262l-.363.1815.181.363 3.993 1.6334.363-.1815v-.5445l-4.174-1.4519zm-30.671-8.8931l1.814.7259.363-.3629-.181-.363-1.815-.726-2.178-1.0889-.544.5445.181.7259 2.36.5445zm.725-1.8147l1.815.7259.363-.3629-.182-.363-1.815-.726-2.178-1.0889-.544.363.181.9074 2.36.5445zm-1.452 3.6296l1.815.726.363-.1815v-.5445l-1.996-.7259-1.997-1.089-.726.5445.182.726 2.359.5444zm2.904-7.4409l1.815.726.363-.1815-.181-.5445-1.815-.726-2.178-1.0889-.545.5445.182.7259 2.359.5445zm-.726 1.8149l1.815.726.363-.1815-.181-.5445-1.815-.7259-2.178-1.0889-.545.5444.182.726 2.359.5444zm9.982-26.1345l1.815.726.363-.1815v-.5445l-1.996-.7259-1.997-1.089-.726.5445.182.726 2.359.5444z"/><path d="M303.811 56.2613l-21.778-8.3485-7.079 18.6933-9.437-3.6297 2.359 4.1742 9.438 3.4483 7.078-18.5118 18.33 6.8965 1.089-2.7223zm-27.586-7.6224l1.815.7259.363-.363-.182-.3629-1.815-.726-2.177-1.0889-.545.363.182.9074 2.359.5445zm48.639-16.8784l-17.967 47.0054-9.438-3.4482 2.36 3.9927 9.437 3.6298 17.968-47.187-2.36-3.9927z"/><path d="M268.965 60.7986l3.993 1.4519.363-.1815v-.363l-1.815-.726-2.178-1.0889-.544.363.181.5445zm2.904-1.0889l1.815.7259.363-.1815v-.363l-1.996-.7259-1.996-1.2704-.726.5444.181.726 2.359.5445z"/><path d="M274.41 65.3357l7.078-18.6932 23.412 9.0744-7.078 18.6933 8.53 3.2667 17.605-46.098-8.53-3.2668-7.078 18.6933-23.412-9.0744 7.078-18.6933-8.53-3.2668L265.88 62.069l8.53 3.2667zm9.801-47.9128l6.352 2.5408-7.078 18.6933 25.59 9.8003 7.078-18.6932 6.352 2.5408-16.697 43.9201-6.352-2.5408 7.078-18.6933-25.59-9.6189-7.078 18.6933-6.352-2.5408 16.697-44.1016z"/><path d="M282.577 31.7604l1.815.726.363-.363v-.363l-1.815-.7259-2.178-1.0889-.726.5444.182.726 2.359.5444zm-.726 1.815l1.815.7259.363-.1815v-.5444l-1.815-.726-2.178-1.0889-.544.5445v.7259l2.359.5445zm1.452-3.8113l1.815.726.363-.1815v-.363l-1.815-.726-2.178-1.2704-.545.5445v.7259l2.36.5445zm.726-1.8149l1.815.7259.362-.1815v-.5444l-1.996-.726-1.996-1.0889-.726.5444.181.726 2.36.5445zm-2.904 7.4409l1.815.7259.363-.1815v-.3629l-1.815-.726-2.178-1.2704-.544.5445v.7259l2.359.5445zm-2.177 5.6262l33.938 13.0671.363-.3629-.182-.363-33.756-12.8857-2.178-1.2704-.545.5445v.7259l2.36.5445zm-.726 1.9963l33.938 12.8857.363-.1815-.182-.5445-33.756-12.8856-2.178-1.0889-.545.5444v.726l2.36.5444zm-.545 1.815l1.814.7259.363-.1815-.181-.5444-1.815-.726-2.178-1.0889-.544.5445v.7259l2.541.5445zm2.722-7.4409l1.815.7259.363-.363v-.3629l-1.815-.726-2.177-1.0889-.545.5444v.726l2.359.5445zm-.726 1.8147l33.939 13.0671.363-.363-.182-.3629-33.757-13.0672-2.178-1.0889-.544.5444v.726l2.359.5445zm-2.722 7.4411l1.815.726.363-.1815-.182-.5445-1.815-.5444-2.177-1.2705-.545.5445.182.726 2.359.5444z"/><path d="M53.1764 94.5554c.1815.5445.1815 1.0889.1815 1.6334s-.1815 1.0889-.363 1.4519-.5445.9074-.9074 1.0889c-.363.363-.9075.5445-1.4519.726-1.2705.363-2.3594.363-3.2668 0-.9075-.363-1.6334-1.2704-1.9964-2.3594-.1815-.5444-.1815-1.0889-.1815-1.6334 0-.5444.1815-.9074.363-1.4519.1815-.3629.5445-.9074 1.0889-1.2704.363-.363.9075-.5444 1.6334-.9074.5445-.1815 1.0889-.363 1.6334-.1815s1.0889.1815 1.4519.363.9075.5444 1.2704.9074c0 .726.363 1.0889.5445 1.6334zm31.7607-11.4339l-1.8149.5445c-.726-1.2705-1.4519-2.1779-2.5408-2.9039-1.089-.5444-2.3594-.7259-3.8113-.3629-1.0889.1815-1.9964.7259-2.7223 1.2704-.726.5445-1.2704 1.2704-1.4519 1.9964-.363.7259-.5445 1.6333-.5445 2.7223 0 .9074.1815 1.9963.363 3.0853.363 1.2704.7259 2.1778 1.0889 3.0853.5445.9074 1.0889 1.4519 1.6334 1.9963.726.5445 1.4519.726 2.1779.9075.7259.1815 1.6334.1815 2.5408-.1815 1.6334-.363 2.9038-1.0889 3.8112-2.1779.726-1.0889 1.2705-2.3593 1.452-3.8112l1.8148.1815c0 .9074-.1814 1.6334-.3629 2.5408-.1815.9075-.5445 1.6334-1.089 2.3594-.5444.7259-1.0889 1.2704-1.9963 1.9963-.9075.5445-1.8149.9075-3.0853 1.2704-1.2705.363-2.5409.363-3.8113.363-1.2704-.1815-2.3593-.5444-3.4483-1.0889-1.0889-.5445-1.9963-1.4519-2.7223-2.3594-.7259-1.0889-1.2704-2.3593-1.6334-3.9927s-.5445-3.0853-.1815-4.5372c.1815-1.2704.5445-2.5408 1.2704-3.4483.726-.9074 1.452-1.8149 2.5409-2.3593 1.0889-.726 2.1778-1.0889 3.4483-1.4519 1.2704-.363 2.5408-.363 3.4482-.1815 1.089.1815 1.8149.5445 2.3594.9074l.1815-1.6334 1.8148-.3629 1.2705 5.6261zm13.6109-9.0743c1.2704-.1815 2.541-.1815 3.811-.1815 1.271.1815 2.178.5445 3.267 1.0889.907.5445 1.815 1.452 2.359 2.7224.726 1.0889 1.089 2.5408 1.452 4.3557.182 1.4519.182 2.9038 0 3.9927-.181 1.089-.726 2.3594-1.27 3.2668-.726.9075-1.634 1.8149-2.722 2.3594-1.089.7259-2.541 1.0889-4.175 1.2704-1.2701.1815-2.5406.1815-3.6295.1815-1.0889-.1815-2.1778-.5445-3.0853-1.089-.9074-.5444-1.8149-1.4519-2.3593-2.5408-.726-1.0889-1.089-2.5408-1.4519-4.1742-.1815-1.4519-.363-2.9038-.1815-4.1742.1815-1.2705.5444-2.3594 1.2704-3.4483.7259-.9075 1.4519-1.8149 2.7223-2.5409.9075-.3629 2.3594-.7259 3.9928-1.0889zm.5444 1.9964c-1.0889.1815-1.8149.5444-2.5408.9074-.726.363-1.2704.9075-1.6334 1.6334-.363.726-.5445 1.4519-.726 2.3594 0 .9074 0 1.8148.1815 2.9038.1815 1.6334.5445 3.0853 1.089 3.9927.3629 1.0889.9074 1.8149 1.4519 2.3594.5444.5444 1.2704.9074 1.8149 1.0889.7259.1815 1.4515.1815 2.3595 0 1.089-.1815 1.996-.5445 2.722-.9075.726-.3629 1.271-1.0889 1.634-1.6333.362-.726.544-1.452.544-2.5409 0-.9074 0-1.9963-.182-3.2668-.181-1.4519-.544-2.7223-.907-3.8112-.363-1.089-.907-1.6334-1.452-2.1779-.544-.5444-1.089-.9074-1.815-.9074h-2.5406zm32.1236.363l-1.815.363c-.545-1.4519-1.271-2.3593-2.178-3.2668-1.089-.7259-2.36-1.0889-3.811-.9074-1.089.1815-1.997.3629-2.723.9074-.726.5445-1.27 1.0889-1.815 1.8149-.363.7259-.726 1.6334-.907 2.5408-.182.9075-.182 1.9964 0 3.0853.181 1.2704.363 2.3594.726 3.2668.363.9075.907 1.6334 1.452 2.1779.544.5444 1.27.9074 1.996 1.0889s1.634.363 2.541.1815c1.815-.1815 3.085-.726 3.993-1.6334.907-.9074 1.452-2.1779 1.815-3.6298l1.815.363c-.182.9074-.363 1.6334-.726 2.3594-.363.7259-.726 1.4519-1.452 2.1778-.545.726-1.271 1.2704-2.178 1.6334-.908.363-1.997.726-3.267.9075-1.27.1814-2.541 0-3.811-.1815-1.271-.1815-2.36-.726-3.267-1.4519-.907-.726-1.815-1.6334-2.359-2.7224-.545-1.0889-1.089-2.5408-1.089-4.1742-.182-1.6334 0-3.0853.363-4.5372.363-1.2704.907-2.3593 1.633-3.2668.726-.9074 1.633-1.6334 2.904-2.1778 1.089-.5445 2.359-.9075 3.63-.9075 1.27-.1815 2.54 0 3.448.1815.907.363 1.815.726 2.359 1.0889l.545-1.6334 1.815-.1815.363 6.5336zm24.683-5.6262c-.545 0-1.089.1815-1.634.3629-.544.1815-.907.5445-1.452.9075l-4.174 3.8112 6.534 9.2559c.363.363.726.726 1.089.9075s.907.1815 1.452.1815h.726v1.4519l-9.801.363v-1.4519h1.815c.363 0 .545-.0001.545-.1815.181-.1815.181-.1815.181-.363s-.181-.5445-.363-.726l-4.9-7.078-3.448 3.4483.181 4.1742c0 .7259.726 1.0889 2.359 1.0889v1.4519l-8.348.363v-1.4519c1.452 0 2.178-.5445 2.178-1.2704l-.545-13.4301c0-.726-.726-1.089-2.359-1.089v-1.4519l8.349-.363v1.4519c-1.452 0-2.178.5445-2.178 1.2705l.181 6.715 6.897-6.5335c.363-.1815.363-.5445.363-.9075 0-.1815-.182-.363-.363-.5445-.182-.1814-.545-.1814-.908-.1814h-1.089V69.51l8.167-.363.545 1.6334zm25.408 6.3521h-1.633c0-1.089-.182-1.9964-.363-2.7224-.182-.7259-.363-1.2704-.726-1.8148-.363-.363-.726-.726-1.089-.9075s-.907-.363-1.452-.363h-2.178l-.181 14.1561c0 .726.726 1.0889 2.178 1.2704v1.4519l-8.349-.1814v-1.452c1.452 0 2.178-.3629 2.178-1.0889l.181-14.1561h-2.359c-.544 0-1.089 0-1.452.1815s-.726.5445-1.089.9075c-.363.3629-.544 1.0889-.726 1.8148-.181.726-.363 1.6334-.363 2.7224l-1.633-.1815.181-7.6225 18.875.363v7.6225zm19.056 9.9819c.182.5445.726.7259 1.997.9074l-.182 1.4519-9.074-.5444.181-1.4519 2.178.1815c.544 0 .726-.1815.726-.363v-.363l-.908-2.7223-7.622-.5445-1.089 2.3594v.3629c0 .363.363.726 1.089.726l1.633.1815-.181 1.4519-6.897-.363.182-1.4519h1.633c.363-.1815.545-.1815.726-.5445l7.26-15.9709 3.629.1815 4.719 16.5154zm-11.978-5.2632l6.352.363-2.541-9.0744-3.811 8.7114zm28.312-7.8041c-1.452-.1815-2.178.1815-2.36.9074l-1.452 13.2487c0 .7259.545 1.2704 2.178 1.4519l-.181 1.4519-8.349-.9075.182-1.4519c1.452.1815 2.359-.1814 2.359-.9074l1.452-13.2486c0-.726-.545-1.2705-2.178-1.452l.182-1.4519 8.348.9075-.181 1.4519zm14.156 1.8151c-1.815-.363-2.723 0-2.904.7259l-2.178 13.7931 4.9.726c.544.1815 1.27.1815 1.815 0 .544-.1815.907-.363 1.452-.726.363-.363.726-.9074 1.089-1.4519.363-.7259.544-1.4519.907-2.5408l1.634.363-1.634 6.8965-16.152-2.5408.181-1.4519c1.452.1815 2.178 0 2.36-.726l2.177-13.2486c.182-.726-.544-1.2704-1.996-1.4519l.182-1.4519 8.711 1.4519-.544 1.6334zm26.86 10.5263l-1.634-.1815c0-.9074 0-1.6333-.181-2.3593-.182-.726-.545-1.2704-.908-1.8149-.363-.5444-.907-.9074-1.633-1.2704s-1.452-.5445-2.178-.726c-1.27-.1814-2.178-.3629-3.085 0-.908.1815-1.271.9075-1.634 1.8149-.181.5445 0 1.089.182 1.4519.363.363.726.726 1.27 1.089.545.3629 1.089.7259 1.997.9074.726.363 1.452.5445 2.178.9074.726.363 1.451.726 2.177 1.089.726.3629 1.271.9074 1.815 1.4519.545.5444.908 1.2704 1.089 1.9964.182.7259.182 1.6333 0 2.5408-.181.9074-.544 1.8149-1.089 2.3593-.544.726-1.089 1.089-1.815 1.4519-.726.363-1.633.5445-2.54.5445-.908 0-1.815 0-2.904-.363-1.089-.1815-1.997-.5444-2.723-.9074-.725-.363-1.451-.9075-1.814-1.4519-.182-.1815-.545-.363-.726-.5445-.182 0-.363 0-.545.1815-.363.1815-.544.363-.726.726l-1.633-.363 1.452-6.7151 1.633.1815c-.181.726 0 1.6334.182 2.1779.181.5444.544 1.2704.907 1.9963.545.5445 1.089 1.089 1.815 1.4519.726.363 1.633.726 2.541.9075 1.452.363 2.541.1815 3.448-.1815s1.452-1.0889 1.633-2.3594c0-.3629 0-.7259-.181-1.0889-.182-.363-.363-.5444-.726-.9074-.363-.1815-.726-.5445-1.27-.726-.545-.1815-.908-.363-1.634-.7259-.726-.363-1.089-.363-1.633-.726-.545-.1815-1.089-.5444-1.634-.7259-.726-.363-1.27-.726-1.814-1.089-.545-.3629-.908-.9074-1.271-1.4519-.363-.5444-.544-1.0889-.544-1.8149 0-.7259 0-1.4519.181-2.1778.182-.726.363-1.2704.726-1.8149s.908-1.0889 1.452-1.4519c.544-.363 1.27-.5445 2.178-.7259.907-.1815 1.815-.0001 3.085.1814 1.089.1815 1.996.5445 2.722.9075s1.271.7259 1.815 1.2704c.363.1815.545.363.908.5445.181 0 .363 0 .726-.1815s.544-.363.726-.5445l1.27.363-1.633 6.8965zm23.231 10.1632c-.181.5445-.363 1.089-.726 1.4519-.363.363-.726.726-1.27.9075-.545.1815-.908.363-1.452.363-.545 0-1.089 0-1.634-.1815-1.27-.363-2.178-1.089-2.722-1.9964s-.544-1.9964-.181-3.0853c.181-.5445.363-1.0889.726-1.4519.362-.363.725-.726 1.27-.9074.544-.1815.907-.363 1.452-.363.544 0 1.089 0 1.815.1815.544.1815 1.089.5444 1.452.7259.363.363.726.726 1.089 1.0889.181.363.362.9075.362 1.452 0 .5444.001 1.2704-.181 1.8148z"/></svg>
