<svg viewBox="0 0 24 24" fill="currentColor"><path d="M10 13c-.553 0-1 .447-1 1s.447 1 1 1 1-.447 1-1-.447-1-1-1zm0 4c-.553 0-1 .447-1 1s.447 1 1 1 1-.447 1-1-.447-1-1-1zm-4 0c-.553 0-1 .447-1 1s.447 1 1 1 1-.447 1-1-.447-1-1-1zm0-4c-.553 0-1 .447-1 1s.447 1 1 1 1-.447 1-1-.447-1-1-1zm8 4c-.553 0-1 .447-1 1s.447 1 1 1 1-.447 1-1-.447-1-1-1zm0-4c-.553 0-1 .447-1 1s.447 1 1 1 1-.447 1-1-.447-1-1-1zM5 8c-.553 0-1 .447-1 1s.447 1 1 1h14c.553 0 1-.447 1-1s-.447-1-1-1H5zm18-6h-4V1c0-.553-.447-1-1-1s-1 .447-1 1v1h-4V1c0-.553-.447-1-1-1s-1 .447-1 1v1H7V1c0-.553-.447-1-1-1S5 .447 5 1v1H1c-.553 0-1 .447-1 1v20c0 .553.447 1 1 1h22c.553 0 1-.447 1-1V3c0-.553-.447-1-1-1zm-1 20H2V4h3v1c0 .553.447 1 1 1s1-.447 1-1V4h4v1c0 .553.447 1 1 1s1-.447 1-1V4h4v1c0 .553.447 1 1 1s1-.447 1-1V4h3v18zm-4-9c-.553 0-1 .447-1 1s.447 1 1 1 1-.447 1-1-.447-1-1-1zm0 4c-.553 0-1 .447-1 1s.447 1 1 1 1-.447 1-1-.447-1-1-1z"/></svg>