<svg viewBox="0 0 24 24" fill="currentColor"><path d="M12 20c-.552 0-1 .447-1 1v2c0 .553.448 1 1 1s1-.447 1-1v-2c0-.553-.448-1-1-1zm11 0h-1c0-2.246-.75-4.313-2-5.981V13c0-2.025-.759-3.87-2-5.279V6c0-1.771-.781-3.345-2-4.442V0H8v1.558C6.781 2.655 6 4.229 6 6v1.721C4.759 9.13 4 10.975 4 13v1.019C2.75 15.688 2 17.754 2 20H1c-.552 0-1 .447-1 1v2c0 .553.448 1 1 1s1-.447 1-1v-1h1c.552 0 1-.447 1-1v-1c0-.24.045-.468.065-.703l2.061.516C6.049 20.197 6 20.592 6 21v2c0 .553.448 1 1 1s1-.447 1-1v-2c0-2.209 1.791-4 4-4s4 1.791 4 4v2c0 .553.448 1 1 1s1-.447 1-1v-2c0-.408-.049-.803-.126-1.188l2.061-.516c.02.236.065.464.065.704v1c0 .553.448 1 1 1h1v1c0 .553.448 1 1 1s1-.447 1-1v-2c0-.553-.448-1-1-1zM8 6c0-2.209 1.791-4 4-4s4 1.791 4 4v.079C14.822 5.396 13.459 5 12 5s-2.822.396-4 1.079V6zM6.85 17.932l-2.376-.594c.347-.979.887-1.863 1.56-2.626L7.66 16.88c-.306.319-.58.67-.81 1.052zM11 15.101c-.616.104-1.183.33-1.72.605L7.542 13.39c1.013-.688 2.182-1.161 3.458-1.32v3.031zm-4.893-3.167C6.612 9.13 9.052 7 12 7s5.388 2.13 5.893 4.934C16.239 10.723 14.206 10 12 10s-4.239.723-5.893 1.934zm8.613 3.772c-.537-.275-1.104-.501-1.72-.605V12.07c1.275.159 2.445.633 3.458 1.32l-1.738 2.316zm2.429 2.226c-.229-.382-.503-.732-.809-1.052l1.626-2.168c.673.763 1.213 1.646 1.56 2.626l-2.377.594z"/></svg>