<svg viewBox="0 0 24 24" fill="currentColor"><path d="M14 11h-1V9c0-.553-.447-1-1-1s-1 .447-1 1v3c0 .553.447 1 1 1h2c.553 0 1-.447 1-1s-.447-1-1-1zm3-3.895V1c0-.553-.447-1-1-1H8c-.553 0-1 .447-1 1v6.105C5.764 8.368 5 10.094 5 12s.764 3.632 2 4.895V23c0 .553.447 1 1 1h8c.553 0 1-.447 1-1v-6.105c1.235-1.263 2-2.988 2-4.895s-.765-3.632-2-4.895zM9 2h6v3.683C14.09 5.25 13.075 5 12 5s-2.09.25-3 .683V2zm6 20H9v-3.683c.91.433 1.925.683 3 .683s2.09-.25 3-.683V22zm-3-5c-2.762 0-5-2.238-5-5s2.238-5 5-5 5 2.238 5 5-2.238 5-5 5z"/></svg>