<svg viewBox="0 0 24 24" fill="currentColor"><path d="M4 21h4c.553 0 1-.447 1-1V4c0-.553-.447-1-1-1H4c-.553 0-1 .447-1 1v16c0 .553.447 1 1 1zM5 5h2v14H5V5zm11 9c.553 0 1-.447 1-1s-.447-1-1-1-1 .447-1 1 .447 1 1 1zm0-4c.553 0 1-.447 1-1s-.447-1-1-1-1 .447-1 1 .447 1 1 1zm0-4c.553 0 1-.447 1-1s-.447-1-1-1-1 .447-1 1 .447 1 1 1zm-4 0c.553 0 1-.447 1-1s-.447-1-1-1-1 .447-1 1 .447 1 1 1zm11-6c-.553 0-1 .447-1 1v10h-1V1c0-.553-.447-1-1-1H1C.447 0 0 .447 0 1v22c0 .553.447 1 1 1h19c.553 0 1-.447 1-1V13h2c.553 0 1-.447 1-1V1c0-.553-.447-1-1-1zm-4 22H2V2h17v20zm-7-4h4c.553 0 1-.447 1-1s-.447-1-1-1h-4c-.553 0-1 .447-1 1s.447 1 1 1zm0-4c.553 0 1-.447 1-1s-.447-1-1-1-1 .447-1 1 .447 1 1 1zm0-4c.553 0 1-.447 1-1s-.447-1-1-1-1 .447-1 1 .447 1 1 1z"/></svg>