<svg viewBox="0 0 24 24" fill="currentColor"><path d="M21.651 7.256l.007-.009-9-7-.007.009C12.476.102 12.252 0 12 0s-.476.102-.651.256l-.007-.009-9 7 .007.009C2.139 7.438 2 7.699 2 8v15c0 .553.447 1 1 1h18c.553 0 1-.447 1-1V8c0-.301-.139-.562-.349-.744zM4 13.174l4.761 4.081L4 20.957v-7.783zm4 .795V10h8v3.969l-2.372 2.033-.97-.755-.007.009C12.476 15.102 12.252 15 12 15s-.476.102-.651.256l-.007-.009-.97.755L8 13.969zM5.912 22L12 17.265 18.088 22H5.912zM20 20.957l-4.761-3.702L20 13.174v7.783zm0-10.417l-2 1.714V9c0-.553-.447-1-1-1H7c-.553 0-1 .447-1 1v3.254L4 10.54V8.487l8-6.223 8 6.223v2.053z"/></svg>