<svg viewBox="0 0 24 24" fill="currentColor"><path d="M12 17h-2c-.553 0-1 .447-1 1s.447 1 1 1h2c.553 0 1-.447 1-1s-.447-1-1-1zm2-4H8c-.553 0-1 .447-1 1s.447 1 1 1h6c.553 0 1-.447 1-1s-.447-1-1-1zm0-4H8c-.553 0-1 .447-1 1s.447 1 1 1h6c.553 0 1-.447 1-1s-.447-1-1-1zm5-7h-3V1c0-.553-.447-1-1-1s-1 .447-1 1v1h-2V1c0-.553-.447-1-1-1s-1 .447-1 1v1H8V1c0-.553-.447-1-1-1S6 .447 6 1v1H3c-.553 0-1 .447-1 1v20c0 .553.447 1 1 1h16c.553 0 1-.447 1-1V3c0-.553-.447-1-1-1zm-1 20H4V4h2v1c0 .553.447 1 1 1s1-.447 1-1V4h2v1c0 .553.447 1 1 1s1-.447 1-1V4h2v1c0 .553.447 1 1 1s1-.447 1-1V4h2v18z"/></svg>