<svg viewBox="0 0 24 24" fill="currentColor"><path fill-rule="evenodd" d="M20.707 7.293l-7-7C13.526.112 13.276 0 13 0H4c-.553 0-1 .447-1 1v22c0 .553.447 1 1 1h16c.553 0 1-.447 1-1V8c0-.276-.112-.526-.293-.707zM14 3.414L17.586 7H14V3.414zM19 22H5V2h7v6c0 .553.447 1 1 1h6v13zM8 8h1c.552 0 1-.447 1-1s-.448-1-1-1H8c-.553 0-1 .447-1 1s.447 1 1 1zm-1 3c0 .553.447 1 1 1h8c.553 0 1-.447 1-1s-.447-1-1-1H8c-.553 0-1 .447-1 1zm9 3H8c-.553 0-1 .447-1 1s.447 1 1 1h8c.553 0 1-.447 1-1s-.447-1-1-1zm0 4H8c-.553 0-1 .447-1 1s.447 1 1 1h8c.553 0 1-.447 1-1s-.447-1-1-1z" clip-rule="evenodd"/></svg>