<svg viewBox="0 0 24 24" fill="currentColor"><path d="M23.857 5.485L20.842.494C20.668.204 20.363 0 20 0c-.378 0-.515.143-.515.143l-5 3S14 3.311 14 4c0 .553.447 1 1 1 .188 0 .355-.066.506-.157l2.69-1.595-3.665 10.997-7.867-6.992S6.503 7 6 7c-.815 0-.949.684-.949.684L.063 22.688C.029 22.787 0 22.89 0 23c0 .553.447 1 1 1 .441 0 .805-.291.937-.688L6.469 9.755l7.873 6.985c.177.157.403.26.658.26.441 0 .805-.291.937-.688l4.324-12.934 1.896 3.127c.175.291.48.495.843.495.553 0 1-.447 1-1 0-.376-.143-.515-.143-.515z"/></svg>