<svg viewBox="0 0 24 24" fill="currentColor"><path d="M9 13h2.142c.362 1.4 1.461 2.494 2.858 2.858V16c0 .553.447 1 1 1s1-.447 1-1v-.142c1.397-.364 2.496-1.458 2.858-2.858H19c.553 0 1-.447 1-1s-.447-1-1-1h-.142C18.494 9.603 17.4 8.504 16 8.142V8c0-.553-.447-1-1-1s-1 .447-1 1v.142C12.603 8.506 11.504 9.6 11.142 11H9c-.553 0-1 .447-1 1s.447 1 1 1zm6-3c1.104 0 2 .896 2 2s-.896 2-2 2-2-.896-2-2 .896-2 2-2zm0 3c.553 0 1-.447 1-1s-.447-1-1-1-1 .447-1 1 .447 1 1 1zM5 8c.553 0 1-.447 1-1V5c0-.553-.447-1-1-1s-1 .447-1 1v2c0 .553.447 1 1 1zm0 12c.553 0 1-.447 1-1v-2c0-.553-.447-1-1-1s-1 .447-1 1v2c0 .553.447 1 1 1zM23 0H1C.447 0 0 .447 0 1v22c0 .553.447 1 1 1h22c.553 0 1-.447 1-1V1c0-.553-.447-1-1-1zm-1 22H2V2h20v20z"/></svg>