<svg viewBox="0 0 24 24" fill="currentColor"><path d="M22 1c0-.553-.447-1-1-1H3c-.553 0-1 .447-1 1 0 .031.015.059.018.089l-.014.002 2 22 .014-.002c.047.509.461.911.982.911h14c.521 0 .935-.402.982-.911l.014.002 2-22-.014-.002c.002-.03.018-.058.018-.089zm-5.346 1L12 4.769 7.346 2h9.308zm1.873 9L12 14.884 5.473 11 12 7.116 18.527 11zM4.739 9.089l-.604-6.652 5.893 3.506-5.289 3.146zm.367 4.041l4.921 2.928-4.416 2.627-.505-5.555zM18.087 22H5.913l-.099-1.089L12 17.231l6.186 3.68L18.087 22zm.301-3.315l-4.415-2.627 4.921-2.928-.506 5.555zm.873-9.596l-5.288-3.146 5.893-3.506-.605 6.652z"/></svg>