<svg xmlns="http://www.w3.org/2000/svg" viewBox="0 0 57.35 36.93" fill="currentColor"><defs><clipPath id="clip-path"><path d="M40.25 27.44a1.12 1.12 0 00.89-1.53 1 1 0 01-.52.4 1.06 1.06 0 01-.37 1.13zM24.47 31a12 12 0 009.8-.05 1.85 1.85 0 01-.53-.34c-2.96 1.39-7.1 1.08-9.27.39zm-6.89-.74a5 5 0 001.16.39c.34 0 .54-.12.39-.12a.94.94 0 01-.53-.19 2.89 2.89 0 00.58 0c.42 0 .62-.16.26-.34-.76-.34-1.44.17-1.86.29zm3.15.56a2.75 2.75 0 00-1.33.37 2 2 0 001.26.17c.05 0 .07-.05.06-.07s-.3 0-.45-.16c.43.06.73-.22.46-.28zM41.33 24a5.44 5.44 0 00-1.48 1.82c-.06.19.06.26.22.2.34-.15 1.07-1.39 2.27-1.78zm-24.64 5.8c.46 0 .72-.15.52-.16a1.17 1.17 0 01-.69-.26 3.35 3.35 0 00.76.05c.56 0 .84-.19.36-.45-1-.54-2 .1-2.48.26a7.43 7.43 0 001.53.52zm-1-2.18a3.93 3.93 0 00-2.28.05l.47.32a5.9 5.9 0 00.93.48c.36.13.93.15.85 0s-.58-.15-.87-.51a4.48 4.48 0 001 .22c.32-.08.33-.39-.13-.6zm20.82 3.08a12.48 12.48 0 01-5.68 1.95 11.89 11.89 0 003.26-.42 7.72 7.72 0 002.48-1.26c2.67.11 3.3-1.4 3.32-2.6a2.4 2.4 0 001.33-.46 2.48 2.48 0 001-2.29 2.21 2.21 0 010 .68 2.64 2.64 0 01-2.67 1.82c.05 1.39-.91 2.64-3.07 2.54zm.86-.52c1.1-.12 1.38-1.05 1.11-1.51a1.63 1.63 0 01-.52.3 1.08 1.08 0 01-.62 1.17zm-2.83-6.57c.57 1.44 2.69 2.55 4.23 2.65-2.77-.92-3.44-4.75-4.77-5.69.66 1.35.18 2.14.51 3zm-.35 1.31c1.5 1.88 4.32 2.44 5.37 1.62-2 .32-5.27-1.34-5.36-3.53v-.57a1.51 1.51 0 000-.34c-.42.13-.65.79-.72 1.37a1.67 1.67 0 010-1.07c-.74 1-.18 2.54 1.09 3.68A7.6 7.6 0 0038 27.71a5.59 5.59 0 01-3.84-2.83zm-1 .12c-.42 1.19.73 3 2.75 3.65a4.6 4.6 0 01-1.94-2.5 4.49 4.49 0 01-.83-1.19zM19 27.8c-.45 2 1.23 1.84 1.23 1.84a8.59 8.59 0 003.84 2.19 6.19 6.19 0 00.95.21 12 12 0 01-4.56-2.67A1.43 1.43 0 0119 27.8zM2.73 25.32A3 3 0 006.39 29c-3.65-.16-3.84-4-2.77-4.82a3.19 3.19 0 012.26-.32A1.52 1.52 0 004 24.89a2.55 2.55 0 003.59 2.88 2.44 2.44 0 01-3.51 1.76C2.8 29 2 27.08 2.73 25.32zm.58 3.08c.76 1.62 2.75 1 3 .83a3.28 3.28 0 01-3-.83zm19.09-9.56a.94.94 0 01.13.63 1.62 1.62 0 00-.74-.84 1.37 1.37 0 00-.53 1.13 2.35 2.35 0 01.68.41 2.63 2.63 0 01.88-.64c.16-.52 0-1.08.17-1.4 0 0 0-.05-.16 0a1.6 1.6 0 00-.43.71zm-9.34 8c.37.26.86.37.65.07-.06-.08-.25-.21-.35-.34a1.8 1.8 0 00.63.25c.21 0 .44 0 .3-.21-.45-.59-1.54-.74-2.38-1.08a4.16 4.16 0 001.15 1.3zm8.19-8a1.87 1.87 0 01.5-.57 1.88 1.88 0 01.46.33 1.41 1.41 0 01.5-.45V18c-.09-.16-.14-.25-.23-.28a.34.34 0 00-.19.2 2.53 2.53 0 010 .3c-.23-.35-.33-.45-.54-.55a1.32 1.32 0 00-.54.88 1.71 1.71 0 00-.43-.09 1.33 1.33 0 01.47.4zm-4.81 1.78a18.9 18.9 0 00.88 2.81 3 3 0 011.6-.83 1.45 1.45 0 00-1.12 2.14 1.24 1.24 0 011.2-1.23 1.35 1.35 0 00-1 1.25 17.33 17.33 0 001.35 2l.1-.15a4.88 4.88 0 01-1-1.63 13.9 13.9 0 001.22 1.29A3.41 3.41 0 0121 25.18c-1.51 1.15-1.1 2.22-.82 2.42a2 2 0 011.3-1.45 2 2 0 00-.95 2c3.43 3.12 9.32 2.84 12.05 1.58a5.3 5.3 0 01-.43-.57c-3.28 1.55-6.86 1-9.87-.42a12.5 12.5 0 009.47-.32 4.73 4.73 0 01-.43-1.89 9.11 9.11 0 01-8.46-.13 1.52 1.52 0 00-.85-.32.81.81 0 01.74-.08c-.1-.43-.31-1-.74-1.07l-.5.05a1.36 1.36 0 00-.4.14 13 13 0 01-1.26-1.36.7.7 0 00-.49-.23.69.69 0 01.62 0 .65.65 0 00-.29-.89h-.26a1.17 1.17 0 00-.38 0 13.1 13.1 0 01-1.76-4.19.31.31 0 01.13-.36.7.7 0 00.36-.81 1.16 1.16 0 00-.27-.14.15.15 0 00-.07 0 .91.91 0 00-1 1.1.94.94 0 01.35 0 5.6 5.6 0 00.39 2 1.26 1.26 0 00-.74.4zM11 27.1a14.93 14.93 0 00-5.87-2 2.33 2.33 0 00-.2.34 10.87 10.87 0 015.5 1.87c-3-1.42-4.93-1.59-5.61-1.5a2.93 2.93 0 00-.05.29c.78-.12 2.75.07 5.34 1.65-3.27-1.49-4.85-1.36-5.36-1.22v.35c1-.3 2.66.17 4.11.78A50.92 50.92 0 0017 30.87a3.87 3.87 0 01-.57-.36A15.54 15.54 0 0112.79 29a24.33 24.33 0 003.12 1.13 16.2 16.2 0 01-1.6-.9 5.64 5.64 0 01-1.25-.63l1.51.54a5.06 5.06 0 00.66-.24c-1.21 0-2.4-1.09-3.25-1.31a3.47 3.47 0 01.47-.09 26.13 26.13 0 00-5.64-2.75 1.43 1.43 0 00-1.29.12A13.42 13.42 0 0111 27.1zm11.8-9zm12.52 1.63a4 4 0 00-.73-1.86 5 5 0 01.48 1.72zm.79.4a4.37 4.37 0 00-1.42-3 5.24 5.24 0 011 2.83zm10.69 6.46a6.78 6.78 0 01-.55.88 4.89 4.89 0 001.62-.69c-.36.43-1.36 1.73-1.74 2.11 1-.43 1.86-.86 2.69-1.2 1.45-.61 3.07-1.08 4.11-.78a2.27 2.27 0 00.05-.35c-.51-.14-2.09-.27-5.36 1.22 2.63-1.56 4.61-1.78 5.38-1.63a1.47 1.47 0 000-.29 11.39 11.39 0 00-4.75 1.07 9.45 9.45 0 014.64-1.44 2.33 2.33 0 00-.2-.34 14.93 14.93 0 00-5.87 2 13.42 13.42 0 015.52-2.27 1.43 1.43 0 00-1.34-.17 18.54 18.54 0 00-4.16 1.89zM31.73 16.16c.57-1.1 4-1.78 9.72.32 5.09 1.88 8.08 4.74 7.19 6.3-.66 1.16-4.51 1.84-10.55-.65-4.45-1.83-7.2-4.36-6.36-5.97zm2.87 3.32C38 22 43.61 23.4 46.08 23c.73-.11 1.28-.34 1.47-.76.39-.85-.76-1.87-.76-1.87s-1.2 0-3.32 1.89a5 5 0 012.78-2.38 19.72 19.72 0 00-7.71-3.55 26.56 26.56 0 015.85 3c.09.08.07.16 0 .19A4.9 4.9 0 0042 21.75a9.58 9.58 0 01-4-.83 4.81 4.81 0 00-.69-2.48 6.06 6.06 0 01.34 2.34c-.32-.12-.63-.25-1-.4a5.63 5.63 0 00-2.34-4.44s-1.27.11-1.54.8c-.17.41-.12 1.34 1.83 2.74zm-11.86-1.33h.09zm29.2 5.68a3.17 3.17 0 012.25.32c1.08.8.88 4.66-2.77 4.82a3 3 0 003.67-3.65c.68 1.76-.07 3.71-1.39 4.21a2.44 2.44 0 01-3.51-1.76 2.55 2.55 0 003.59-2.88 1.51 1.51 0 00-1.84-1.06zm-.42 5.4c.23.21 2.22.79 3-.83a3.28 3.28 0 01-3 .83zM22.71 18.17zm3 4.48c.23-.66-.07-1.07-.4-1.12C26.57 21 26.71 20 27.07 20c-1.53-.62-2.93 1.36-3.15 2.55a1.09 1.09 0 011.81.1zm9.82 7.43a5.43 5.43 0 01-2.95-2.64c.64 1.23 3.54 2.69 4.87 1.61a4.64 4.64 0 01-3.9-1.65 2.43 2.43 0 01-.55-2.67 6.27 6.27 0 01-.26-.76c-1 .43-1.77 1.57-.85 3.3a5.7 5.7 0 003.66 2.81zm6.42.48a4.82 4.82 0 00-1-.48c-.52-.13-.83.11-.72.27a.87.87 0 00.76.17c-.09.16-.4.09-.51.15s0 0 0 .08c.43.25 1-.01 1.52-.19zm2.54-.94c-.39-.12-1.13-.62-1.85-.41-.4.12-.54.48-.24.53a3.81 3.81 0 00.83 0c-.21.28-.74.24-.78.32s.38.2.68.15a5.88 5.88 0 001.38-.59zM40 31.15c-.32-.15-.56-.53-1-.4-.14.05-.21.17-.11.23a1.26 1.26 0 00.53.09 1 1 0 01-.46.08c-.06 0-.05.05 0 .07.26.1.5.04 1.04-.07zm4.34-4.88c-.5.61-1.78 1.69-1.66 2.2.06.26.32.22.43 0a1.74 1.74 0 01.24-.47c0 .08-.1.75.11.66.54-.23.93-2.09.9-2.39zm-1.65 1c-.28.41-1.37 1.12-1.74 1.85a.65.65 0 00-.06.44c0 .11.13.13.18 0a1.59 1.59 0 01.31-.48c-.2.56.06.83.44.39a7 7 0 00.89-2.24zm1.79.15c0 .07 0 .35.26.27s.46-.41.46-.41a2.15 2.15 0 00-.13.39c0 .06 0 .12.14.09.79-.24 1.33-1.37 1.48-1.73-.69.58-2.04.54-2.19 1.35zm2.08.41c-.87.23-2.13.15-2.48.79-.1.17.06.28.28.27a1.87 1.87 0 00.64-.2c-.11.12-.32.22-.39.3-.24.27.3.26.7.05a3.64 3.64 0 001.27-1.25zm-32.33-3.57c-.05.28.26 2.31.78 2.64.2.12.21-.49.18-.58.25.33.22.79.42.67a.27.27 0 00.14-.29c-.02-.88-1.06-1.7-1.52-2.44zM12 23.74a5.8 5.8 0 001.22 1.86c.14.11.29 0 .24-.21a1.34 1.34 0 00.37.38c.21.09.3-.14.25-.3-.32-.93-1.51-1.07-2.08-1.73zm3.84 1.65a12 12 0 00.56 2.43c.29.54.61.28.49-.34a2.5 2.5 0 01.28.69c.05.13.3.15.27-.28-.07-.89-1.28-1.8-1.61-2.5zm2.24 3.27c.09 0 .16-.14.13-.51.13.19.09.55.19.58s.19-.12.16-.31c-.16-.82-.75-1.21-1-1.6.2.56.15 1.77.51 1.84z" class="cls-1"/></clipPath><style>.cls-1{fill:#e9cc9a}.cls-5,.cls-6{fill:#231f20}.cls-5{fill-rule:evenodd}</style></defs><g style="isolation:isolate"><g id="Layer_2" data-name="Layer 2"><g id="Layer_1-2" data-name="Layer 1"><g id="Beer_Stella" data-name="Beer Stella" style="mix-blend-mode:multiply"><path d="M27.2 10.27l-1.79 2.77 2.75-1.78.75 7.83.74-7.84 2.74 1.78-1.79-2.77 4.62-.74-4.62-.75 1.79-2.76-2.74 1.77L28.91 0l-.75 7.79-2.75-1.78 1.79 2.77-4.62.75 4.62.74z"/><path d="M46.08 23c.73-.11 1.28-.34 1.47-.76.39-.85-.76-1.87-.76-1.87s-1.2 0-3.32 1.89a5 5 0 012.78-2.38 19.72 19.72 0 00-7.71-3.55 26.56 26.56 0 015.85 3c.09.08.07.16 0 .19A4.9 4.9 0 0042 21.75a9.58 9.58 0 01-4-.83 4.81 4.81 0 00-.69-2.48 6.06 6.06 0 01.34 2.34c-.32-.12-.63-.25-1-.4a5.63 5.63 0 00-2.34-4.44s-1.27.11-1.54.8c-.16.41-.11 1.34 1.84 2.74C38 22 43.61 23.4 46.08 23zm-11-3.41a5 5 0 00-.48-1.72 4 4 0 01.73 1.86zm.64.34a5.24 5.24 0 00-1-2.83 4.37 4.37 0 011.42 3zM21.81 20.68c.11.85.63 3.46 2.44 4.74a4.45 4.45 0 006.52-1.64c-1.47 1.74-3.7 2.52-5.33 1.72A2.26 2.26 0 0124 23.81c-.16-1.28 1.18-1.65 1.57-.84a1.31 1.31 0 01-.52.57c1.95.06 2-1.83 1-2.07.78-.54.62-1.1 1.49-1.55a2 2 0 00-2.75.4c.39-.83-.13-1.89-1-1.75.75.58-.33 1.53 0 3.07a3.27 3.27 0 00-.34 2.22 8.16 8.16 0 01-1.28-3.23 1.43 1.43 0 001.08-1.31l-.21.09a3.82 3.82 0 00-.06-1.3c-.15.32 0 .88-.17 1.4a2.63 2.63 0 00-.88.64 2.35 2.35 0 00-.68-.41 1.37 1.37 0 01.53-1.13 1.62 1.62 0 01.74.84.94.94 0 00-.13-.63 1.55 1.55 0 01.44-.72 1.3 1.3 0 00-.63.5 1.88 1.88 0 00-.46-.33 1.87 1.87 0 00-.5.57 1.33 1.33 0 00-.47-.43 1.71 1.71 0 01.43.09 1.32 1.32 0 01.54-.88c.21.1.31.2.54.55a2.53 2.53 0 000-.3.34.34 0 01.19-.2c.09 0 .14.12.23.28 0-.22-.11-.46-.12-.61a.92.92 0 00-.36.3 1.28 1.28 0 00-.47-.7 1.46 1.46 0 00-.43.78 1 1 0 00-.31-.28v.89h-.32c.1.21-.15.73.23 1.36a2 2 0 00-.33 0c.17.31.41 1.01 1.22.99zm5.26-.68c-.36.06-.5 1.07-1.74 1.57.33 0 .63.46.4 1.12a1.09 1.09 0 00-1.81-.14c.22-1.23 1.62-3.21 3.15-2.55zM20 23.52a.69.69 0 00-.62 0 .7.7 0 01.49.23 13 13 0 001.26 1.36 1.36 1.36 0 01.4-.14c-.29-.25-.76-.69-.93-.88a1.08 1.08 0 00-.89-1.44.65.65 0 01.29.87zM17.4 18.05a.31.31 0 00-.13.36A13.1 13.1 0 0019 22.6a1.17 1.17 0 01.38 0 14.08 14.08 0 01-1.82-4.08c.57-.31.75-.9.17-1.28a.7.7 0 01-.33.81zM54.5 28.4a3.28 3.28 0 01-3 .83c.25.21 2.24.77 3-.83zM3.31 28.4c.76 1.62 2.75 1 3 .83a3.28 3.28 0 01-3-.83z"/><path d="M2 28.55l.06.16a3.18 3.18 0 003.24 2.12 3.48 3.48 0 003-2.52c2 0 8.23 5.2 15.8 3.52a8.59 8.59 0 01-3.84-2.19s-1.68.15-1.23-1.84a1.43 1.43 0 001.46 1.57 12.73 12.73 0 008.6 3.32 13.2 13.2 0 007.38-2c2.16.1 3.12-1.15 3-2.58 1.61-.09 3.08-1 2.64-2.92 2-1.26 7.81 0 7.46-3-.15-1.37-2.21-3.37-6.1-5.16-3.27-1.51-7.46-2.56-10.62-2-2.24.37-2.35 1.78-1.46 3.16s2 1.87 2.34 3.4a2.12 2.12 0 00-1.21 2.15 2.27 2.27 0 00-1.52 2.1 8 8 0 01-7.4.41A1.37 1.37 0 0022 24.9c.43 0 .64.64.74 1.07a.81.81 0 00-.74.08 1.52 1.52 0 01.85.32 9.11 9.11 0 008.46.13 4.73 4.73 0 00.43 1.89 12.5 12.5 0 01-9.47.32c3 1.39 6.59 2 9.87.42a5.3 5.3 0 00.43.57c-2.73 1.26-8.62 1.54-12-1.58a2 2 0 01.95-2 2 2 0 00-1.3 1.45c-.28-.2-.69-1.27.82-2.42a3.41 3.41 0 00-1.35 1.11A13.9 13.9 0 0118.41 25a4.88 4.88 0 001 1.63l-.1.15a17.33 17.33 0 01-1.35-2 1.35 1.35 0 011-1.25 1.24 1.24 0 00-1.18 1.25 1.45 1.45 0 011.12-2.14 3 3 0 00-1.6.83 18.9 18.9 0 01-.88-2.81 1.26 1.26 0 01.77-.45 5.6 5.6 0 01-.39-2 .94.94 0 00-.35 0c-.21-.92.74-1.13 1-1.1-1.24-.38-2.45.32-2.3 1a.85.85 0 00.53.55 21.48 21.48 0 001.21 5.4 1 1 0 00.63 1.41 14.28 14.28 0 001 1.7 2.85 2.85 0 01-1.2-1.17 4 4 0 00-.1.5 6.48 6.48 0 01-2.07-3.3c-.15.37.26 1.31.35 1.53a1.31 1.31 0 010 .52 6.32 6.32 0 01-2-3.45.45.45 0 000 .3 8.58 8.58 0 00.36 1.29A1.6 1.6 0 0114 24a1.88 1.88 0 000 .58c-1.05-.84-2-.58-3.06-2.82A.75.75 0 0011 22c.13.31.35.73.48 1a6.25 6.25 0 00.77 2.25A4.28 4.28 0 0110 23.53c0 .08.12.3.34.56.54.66.87.91.92 1a7 7 0 001.33 2c-3.2-2-7.68-4.89-8.52-2.22a2.55 2.55 0 003.59 2.88 2.44 2.44 0 01-3.51 1.76C2.8 29 2 27.08 2.73 25.32A3 3 0 006.39 29c-3.65-.16-3.84-4-2.77-4.82a3.79 3.79 0 00-1 .94A4 4 0 002 28.55zm53.2-3.46a3.79 3.79 0 00-1-.94c1.08.8.88 4.66-2.77 4.82a3 3 0 003.67-3.65c.68 1.76-.07 3.71-1.39 4.21a2.44 2.44 0 01-3.51-1.76 2.55 2.55 0 003.59-2.88c-.69-2.18-3.79-.64-6.66 1.11a3.31 3.31 0 00.18-.61c.14-.22.39-.67.3-.73-.94 1.53-2.4 1.49-3 1.93a2.75 2.75 0 000-.81c.16-.29.32-.57.25-.69-.61 1.17-1.45 1.51-1.89 2.05a1.3 1.3 0 000-.34 4.55 4.55 0 00.36-.69.63.63 0 00.05-.29 8 8 0 01-2.24 2.36 1.3 1.3 0 010-.27 2.4 2.4 0 01-1.33.46c0 1.2-.65 2.71-3.32 2.6A7.16 7.16 0 0134.6 32c7.09 1.11 12.91-3.7 14.9-3.69a3.48 3.48 0 003 2.52 3.18 3.18 0 003.24-2.12l.06-.16A4 4 0 0056 27a3.6 3.6 0 00-.77-1.91zm-10.7 2.29c.15-.81 1.53-.77 2.21-1.39-.15.36-.69 1.49-1.48 1.73-.09 0-.15 0-.14-.09a2.15 2.15 0 01.13-.39s-.31.37-.46.41-.27-.2-.26-.27zm-.14-1.11c0 .3-.33 2.16-.88 2.36-.21.09-.14-.58-.11-.66a1.74 1.74 0 00-.24.47c-.11.25-.37.29-.43 0-.12-.44 1.16-1.56 1.66-2.17zM41 29.08c.37-.73 1.46-1.44 1.74-1.85a7 7 0 01-.87 2.23c-.38.44-.64.17-.44-.39a1.59 1.59 0 00-.31.48c-.05.1-.15.08-.18 0a.65.65 0 01.06-.47zm-2 2.14c-.05 0-.06-.07 0-.07a1 1 0 00.46-.08 1.26 1.26 0 01-.53-.09c-.1-.06 0-.18.11-.23.43-.13.67.25 1 .4-.58.11-.82.17-1.04.07zm1.55-.47c-.07 0-.07-.06 0-.08s.42 0 .51-.15a.87.87 0 01-.76-.17c-.11-.16.2-.4.72-.27a4.82 4.82 0 011 .48c-.54.18-1.11.44-1.48.19zm2.61-.59c-.3.05-.77 0-.68-.15s.57 0 .78-.32a3.81 3.81 0 01-.83 0c-.3 0-.16-.41.24-.53.72-.21 1.46.29 1.85.41a5.88 5.88 0 01-1.37.59zM45.33 29c-.4.21-.94.22-.7-.05.07-.08.28-.18.39-.3a1.87 1.87 0 01-.64.2c-.22 0-.38-.1-.28-.27.35-.64 1.61-.56 2.48-.79A3.64 3.64 0 0145.33 29zm3.53-1.29c-.83.34-1.73.77-2.69 1.2.38-.38 1.38-1.68 1.74-2.11a4.89 4.89 0 01-1.62.69 6.78 6.78 0 00.55-.88 18.54 18.54 0 014.16-1.9 1.43 1.43 0 011.29.12 13.42 13.42 0 00-5.52 2.27 14.93 14.93 0 015.87-2 2.33 2.33 0 01.2.34 9.45 9.45 0 00-4.64 1.44 11.39 11.39 0 014.8-1.02 1.47 1.47 0 010 .29c-.77-.12-2.75.07-5.34 1.65 3.27-1.49 4.85-1.36 5.36-1.22a2.27 2.27 0 01-.05.35c-1.04-.3-2.66.17-4.11.78zm7.09.06A3.19 3.19 0 0056 27m-.08-.5a3.69 3.69 0 00-.19-.56m-18.39 4.2a1.08 1.08 0 00.59-1.21 1.63 1.63 0 00.52-.3c.27.46-.01 1.37-1.11 1.51zm2.91-2.7a1.06 1.06 0 00.37-1.13 1 1 0 00.52-.4 1.12 1.12 0 01-.89 1.53zM40.07 26c-.16.06-.28 0-.22-.2a5.44 5.44 0 011.48-1.8l1 .24c-1.19.35-1.92 1.59-2.26 1.76zm-8.34-9.82c.57-1.1 4-1.78 9.72.32 5.09 1.88 8.08 4.74 7.19 6.3-.66 1.16-4.51 1.84-10.55-.65-4.45-1.85-7.2-4.38-6.36-5.99zM34 20.57c1.32.94 2 4.77 4.73 5.65-1.54-.1-3.66-1.21-4.23-2.65-.32-.86.16-1.65-.5-3zm-.66 1.79a1.67 1.67 0 000 1.07c.07-.58.3-1.24.72-1.37a1.51 1.51 0 010 .34v.57c.09 2.19 3.39 3.85 5.36 3.53-1.05.82-3.87.26-5.37-1.62A5.59 5.59 0 0038 27.71 7.6 7.6 0 0134.44 26c-1.27-1.1-1.83-2.63-1.09-3.64zm2.57 6.29c-2-.65-3.17-2.46-2.75-3.65a4.49 4.49 0 00.84 1.19 4.6 4.6 0 001.92 2.46zm-4-1.38c-.92-1.73-.18-2.87.85-3.3a6.27 6.27 0 00.26.76 2.43 2.43 0 00.54 2.67 4.64 4.64 0 003.9 1.65c-1.33 1.08-4.23-.38-4.87-1.61a5.43 5.43 0 002.95 2.64 5.7 5.7 0 01-3.62-2.81zm1.82 3.37a1.79 1.79 0 00.53.34 12 12 0 01-9.8.05c2.18.66 6.32.97 9.28-.39zm-16.53-1c.2 0-.06.21-.52.16a7.43 7.43 0 01-1.53-.56c.53-.16 1.48-.8 2.48-.26.48.26.2.46-.36.45a3.35 3.35 0 01-.76-.05 1.17 1.17 0 00.7.22zm-1.58-1.21c.08.19-.49.17-.85 0a5.9 5.9 0 01-.93-.48l-.47-.32a3.93 3.93 0 012.28-.05c.46.21.45.52.08.52a4.48 4.48 0 01-1-.22c.32.36.87.42.9.51zm5.1 2.46c.26.06 0 .34-.46.31.15.13.41.08.45.16s0 .05-.06.07a2 2 0 01-1.26-.17 2.75 2.75 0 011.34-.41zm-1.29-.79c.36.18.16.34-.26.34a2.89 2.89 0 01-.58 0 .94.94 0 00.53.19c.15 0-.05.15-.39.12a5 5 0 01-1.16-.39c.43-.19 1.11-.7 1.87-.3zm-.89-1.64c0 .19 0 .36-.16.31s-.06-.39-.19-.58c0 .37 0 .53-.13.51-.36-.07-.31-1.28-.49-1.84.23.35.82.74.98 1.56zm-1.12-.53c0 .43-.22.41-.27.28a2.5 2.5 0 00-.28-.69c.12.62-.2.88-.49.34a12 12 0 01-.56-2.43c.34.66 1.55 1.57 1.61 2.46zm-3.2-3.63c.46.76 1.5 1.56 1.52 2.44a.27.27 0 01-.14.29c-.2.12-.17-.34-.42-.67 0 .09 0 .7-.18.58-.51-.37-.82-2.4-.77-2.68zM12 23.74c.58.66 1.77.8 2.08 1.73 0 .16 0 .39-.25.3a1.34 1.34 0 01-.37-.38c.05.23-.1.32-.24.21A5.8 5.8 0 0112 23.74zm-.08 1.78c.84.34 1.93.49 2.38 1.08.14.19-.09.25-.3.21a1.8 1.8 0 01-.63-.25c.1.13.29.26.35.34.21.3-.28.19-.65-.07a4.16 4.16 0 01-1.16-1.31zm-7.08 1.41v-.35c.51-.14 2.09-.27 5.36 1.22-2.64-1.58-4.61-1.8-5.39-1.65a2.93 2.93 0 01.05-.29c.68-.09 2.59.08 5.61 1.5A10.87 10.87 0 005 25.49a2.33 2.33 0 01.2-.34 14.93 14.93 0 015.87 2 13.42 13.42 0 00-5.52-2.27 1.43 1.43 0 011.29-.12 26.13 26.13 0 015.64 2.75 3.47 3.47 0 00-.47.09c.85.22 2 1.28 3.25 1.31a5.06 5.06 0 01-.66.24l-1.51-.54a5.64 5.64 0 001.25.63 16.2 16.2 0 001.6.9A24.33 24.33 0 0112.79 29a15.54 15.54 0 003.66 1.55 3.87 3.87 0 00.57.36A50.92 50.92 0 019 27.71c-1.5-.61-3.12-1.08-4.16-.78z"/><path d="M37.76 12.15l.85-3.61.92-.26-.93 4.07-.84-.2z" class="cls-5"/><path d="M43.52 11.24a1.24 1.24 0 01.64 1.51 1.42 1.42 0 01-2 .71l-.16-.05a1.46 1.46 0 01-.9-1.19l.56-.13a.91.91 0 00.58.89.76.76 0 001.06-.45c.23-.61-.43-1-.8-1.15l1.35-.89-1.6-.59.35-.66 2.4.86v.16zM48.09 13.16a1.39 1.39 0 01.22.09A1.23 1.23 0 0149 15a1.45 1.45 0 01-2.07.54 1.36 1.36 0 01-.73-1.89c.38-.75 1.61-1.18 2.18-1.48.12-.07.56-.27.56-.27l.8.45zm-1.21 1a.75.75 0 00.24 1.06c.41.2.82-.09 1-.5a.76.76 0 00-.22-1.1c-.42-.21-.85.13-1 .54M52.55 16l.22.11a1.28 1.28 0 01.47 1.85 1.44 1.44 0 01-2.08.35 1.33 1.33 0 01-.52-1.92c.45-.71 1.71-1 2.31-1.27l.59-.21.69.47zm-1.25.86a.75.75 0 00.14 1.08c.38.24.82 0 1.07-.4a.76.76 0 00-.12-1.12c-.4-.25-.85.05-1.09.43M20.28 9.83a1.94 1.94 0 01-1.45 2.54 1.93 1.93 0 01-2.52-1.46 1.94 1.94 0 011.44-2.56 2 2 0 012.53 1.48m-1 .27C19 9 18.43 8.56 17.85 8.72s-.84.86-.56 1.92.83 1.52 1.44 1.35.84-.87.56-1.89" class="cls-6"/><path d="M4.63 17.53L3 16.6l.51 1.78zm2.14.14l-.77.62-.9-.52-1.43 1.08.29 1-.41.33-1.19-4.26.56-.43zM10.69 15.38L8.77 11.8l-.41.2 1.09 2.03-2.95-.99-.75.43 2 3.54.39-.24-1.43-2.53 3.73 1.27.25-.13zM15.48 13.36l-1.44-3.81-.42.16.81 2.15-2.79-1.37-.8.33 1.51 3.77.42-.18-1.08-2.7 3.52 1.75.27-.1z" class="cls-5"/><path d="M40.25 27.44a1.12 1.12 0 00.89-1.53 1 1 0 01-.52.4 1.06 1.06 0 01-.37 1.13zM24.47 31a12 12 0 009.8-.05 1.85 1.85 0 01-.53-.34c-2.96 1.39-7.1 1.08-9.27.39zm-6.89-.74a5 5 0 001.16.39c.34 0 .54-.12.39-.12a.94.94 0 01-.53-.19 2.89 2.89 0 00.58 0c.42 0 .62-.16.26-.34-.76-.34-1.44.17-1.86.29zm3.15.56a2.75 2.75 0 00-1.33.37 2 2 0 001.26.17c.05 0 .07-.05.06-.07s-.3 0-.45-.16c.43.06.73-.22.46-.28zM41.33 24a5.44 5.44 0 00-1.48 1.82c-.06.19.06.26.22.2.34-.15 1.07-1.39 2.27-1.78zm-24.64 5.8c.46 0 .72-.15.52-.16a1.17 1.17 0 01-.69-.26 3.35 3.35 0 00.76.05c.56 0 .84-.19.36-.45-1-.54-2 .1-2.48.26a7.43 7.43 0 001.53.52zm-1-2.18a3.93 3.93 0 00-2.28.05l.47.32a5.9 5.9 0 00.93.48c.36.13.93.15.85 0s-.58-.15-.87-.51a4.48 4.48 0 001 .22c.32-.08.33-.39-.13-.6zm20.82 3.08a12.48 12.48 0 01-5.68 1.95 11.89 11.89 0 003.26-.42 7.72 7.72 0 002.48-1.26c2.67.11 3.3-1.4 3.32-2.6a2.4 2.4 0 001.33-.46 2.48 2.48 0 001-2.29 2.21 2.21 0 010 .68 2.64 2.64 0 01-2.67 1.82c.05 1.39-.91 2.64-3.07 2.54zm.86-.52c1.1-.12 1.38-1.05 1.11-1.51a1.63 1.63 0 01-.52.3 1.08 1.08 0 01-.62 1.17zm-2.83-6.57c.57 1.44 2.69 2.55 4.23 2.65-2.77-.92-3.44-4.75-4.77-5.69.66 1.35.18 2.14.51 3zm-.35 1.31c1.5 1.88 4.32 2.44 5.37 1.62-2 .32-5.27-1.34-5.36-3.53v-.57a1.51 1.51 0 000-.34c-.42.13-.65.79-.72 1.37a1.67 1.67 0 010-1.07c-.74 1-.18 2.54 1.09 3.68A7.6 7.6 0 0038 27.71a5.59 5.59 0 01-3.84-2.83zm-1 .12c-.42 1.19.73 3 2.75 3.65a4.6 4.6 0 01-1.94-2.5 4.49 4.49 0 01-.83-1.19zM19 27.8c-.45 2 1.23 1.84 1.23 1.84a8.59 8.59 0 003.84 2.19 6.19 6.19 0 00.95.21 12 12 0 01-4.56-2.67A1.43 1.43 0 0119 27.8zM2.73 25.32A3 3 0 006.39 29c-3.65-.16-3.84-4-2.77-4.82a3.19 3.19 0 012.26-.32A1.52 1.52 0 004 24.89a2.55 2.55 0 003.59 2.88 2.44 2.44 0 01-3.51 1.76C2.8 29 2 27.08 2.73 25.32zm.58 3.08c.76 1.62 2.75 1 3 .83a3.28 3.28 0 01-3-.83zm19.09-9.56a.94.94 0 01.13.63 1.62 1.62 0 00-.74-.84 1.37 1.37 0 00-.53 1.13 2.35 2.35 0 01.68.41 2.63 2.63 0 01.88-.64c.16-.52 0-1.08.17-1.4 0 0 0-.05-.16 0a1.6 1.6 0 00-.43.71zm-9.34 8c.37.26.86.37.65.07-.06-.08-.25-.21-.35-.34a1.8 1.8 0 00.63.25c.21 0 .44 0 .3-.21-.45-.59-1.54-.74-2.38-1.08a4.16 4.16 0 001.15 1.3zm8.19-8a1.87 1.87 0 01.5-.57 1.88 1.88 0 01.46.33 1.41 1.41 0 01.5-.45V18c-.09-.16-.14-.25-.23-.28a.34.34 0 00-.19.2 2.53 2.53 0 010 .3c-.23-.35-.33-.45-.54-.55a1.32 1.32 0 00-.54.88 1.71 1.71 0 00-.43-.09 1.33 1.33 0 01.47.4zm-4.81 1.78a18.9 18.9 0 00.88 2.81 3 3 0 011.6-.83 1.45 1.45 0 00-1.12 2.14 1.24 1.24 0 011.2-1.23 1.35 1.35 0 00-1 1.25 17.33 17.33 0 001.35 2l.1-.15a4.88 4.88 0 01-1-1.63 13.9 13.9 0 001.22 1.29A3.41 3.41 0 0121 25.18c-1.51 1.15-1.1 2.22-.82 2.42a2 2 0 011.3-1.45 2 2 0 00-.95 2c3.43 3.12 9.32 2.84 12.05 1.58a5.3 5.3 0 01-.43-.57c-3.28 1.55-6.86 1-9.87-.42a12.5 12.5 0 009.47-.32 4.73 4.73 0 01-.43-1.89 9.11 9.11 0 01-8.46-.13 1.52 1.52 0 00-.85-.32.81.81 0 01.74-.08c-.1-.43-.31-1-.74-1.07l-.5.05a1.36 1.36 0 00-.4.14 13 13 0 01-1.26-1.36.7.7 0 00-.49-.23.69.69 0 01.62 0 .65.65 0 00-.29-.89h-.26a1.17 1.17 0 00-.38 0 13.1 13.1 0 01-1.76-4.19.31.31 0 01.13-.36.7.7 0 00.36-.81 1.16 1.16 0 00-.27-.14.15.15 0 00-.07 0 .91.91 0 00-1 1.1.94.94 0 01.35 0 5.6 5.6 0 00.39 2 1.26 1.26 0 00-.74.4zM11 27.1a14.93 14.93 0 00-5.87-2 2.33 2.33 0 00-.2.34 10.87 10.87 0 015.5 1.87c-3-1.42-4.93-1.59-5.61-1.5a2.93 2.93 0 00-.05.29c.78-.12 2.75.07 5.34 1.65-3.27-1.49-4.85-1.36-5.36-1.22v.35c1-.3 2.66.17 4.11.78A50.92 50.92 0 0017 30.87a3.87 3.87 0 01-.57-.36A15.54 15.54 0 0112.79 29a24.33 24.33 0 003.12 1.13 16.2 16.2 0 01-1.6-.9 5.64 5.64 0 01-1.25-.63l1.51.54a5.06 5.06 0 00.66-.24c-1.21 0-2.4-1.09-3.25-1.31a3.47 3.47 0 01.47-.09 26.13 26.13 0 00-5.64-2.75 1.43 1.43 0 00-1.29.12A13.42 13.42 0 0111 27.1zm11.8-9zm12.52 1.63a4 4 0 00-.73-1.86 5 5 0 01.48 1.72zm.79.4a4.37 4.37 0 00-1.42-3 5.24 5.24 0 011 2.83zm10.69 6.46a6.78 6.78 0 01-.55.88 4.89 4.89 0 001.62-.69c-.36.43-1.36 1.73-1.74 2.11 1-.43 1.86-.86 2.69-1.2 1.45-.61 3.07-1.08 4.11-.78a2.27 2.27 0 00.05-.35c-.51-.14-2.09-.27-5.36 1.22 2.63-1.56 4.61-1.78 5.38-1.63a1.47 1.47 0 000-.29 11.39 11.39 0 00-4.75 1.07 9.45 9.45 0 014.64-1.44 2.33 2.33 0 00-.2-.34 14.93 14.93 0 00-5.87 2 13.42 13.42 0 015.52-2.27 1.43 1.43 0 00-1.34-.17 18.54 18.54 0 00-4.16 1.89zM31.73 16.16c.57-1.1 4-1.78 9.72.32 5.09 1.88 8.08 4.74 7.19 6.3-.66 1.16-4.51 1.84-10.55-.65-4.45-1.83-7.2-4.36-6.36-5.97zm2.87 3.32C38 22 43.61 23.4 46.08 23c.73-.11 1.28-.34 1.47-.76.39-.85-.76-1.87-.76-1.87s-1.2 0-3.32 1.89a5 5 0 012.78-2.38 19.72 19.72 0 00-7.71-3.55 26.56 26.56 0 015.85 3c.09.08.07.16 0 .19A4.9 4.9 0 0042 21.75a9.58 9.58 0 01-4-.83 4.81 4.81 0 00-.69-2.48 6.06 6.06 0 01.34 2.34c-.32-.12-.63-.25-1-.4a5.63 5.63 0 00-2.34-4.44s-1.27.11-1.54.8c-.17.41-.12 1.34 1.83 2.74zm-11.86-1.33h.09zm29.2 5.68a3.17 3.17 0 012.25.32c1.08.8.88 4.66-2.77 4.82a3 3 0 003.67-3.65c.68 1.76-.07 3.71-1.39 4.21a2.44 2.44 0 01-3.51-1.76 2.55 2.55 0 003.59-2.88 1.51 1.51 0 00-1.84-1.06zm-.42 5.4c.23.21 2.22.79 3-.83a3.28 3.28 0 01-3 .83zM22.71 18.17zm3 4.48c.23-.66-.07-1.07-.4-1.12C26.57 21 26.71 20 27.07 20c-1.53-.62-2.93 1.36-3.15 2.55a1.09 1.09 0 011.81.1zm9.82 7.43a5.43 5.43 0 01-2.95-2.64c.64 1.23 3.54 2.69 4.87 1.61a4.64 4.64 0 01-3.9-1.65 2.43 2.43 0 01-.55-2.67 6.27 6.27 0 01-.26-.76c-1 .43-1.77 1.57-.85 3.3a5.7 5.7 0 003.66 2.81zm6.42.48a4.82 4.82 0 00-1-.48c-.52-.13-.83.11-.72.27a.87.87 0 00.76.17c-.09.16-.4.09-.51.15s0 0 0 .08c.43.25 1-.01 1.52-.19zm2.54-.94c-.39-.12-1.13-.62-1.85-.41-.4.12-.54.48-.24.53a3.81 3.81 0 00.83 0c-.21.28-.74.24-.78.32s.38.2.68.15a5.88 5.88 0 001.38-.59zM40 31.15c-.32-.15-.56-.53-1-.4-.14.05-.21.17-.11.23a1.26 1.26 0 00.53.09 1 1 0 01-.46.08c-.06 0-.05.05 0 .07.26.1.5.04 1.04-.07zm4.34-4.88c-.5.61-1.78 1.69-1.66 2.2.06.26.32.22.43 0a1.74 1.74 0 01.24-.47c0 .08-.1.75.11.66.54-.23.93-2.09.9-2.39zm-1.65 1c-.28.41-1.37 1.12-1.74 1.85a.65.65 0 00-.06.44c0 .11.13.13.18 0a1.59 1.59 0 01.31-.48c-.2.56.06.83.44.39a7 7 0 00.89-2.24zm1.79.15c0 .07 0 .35.26.27s.46-.41.46-.41a2.15 2.15 0 00-.13.39c0 .06 0 .12.14.09.79-.24 1.33-1.37 1.48-1.73-.69.58-2.04.54-2.19 1.35zm2.08.41c-.87.23-2.13.15-2.48.79-.1.17.06.28.28.27a1.87 1.87 0 00.64-.2c-.11.12-.32.22-.39.3-.24.27.3.26.7.05a3.64 3.64 0 001.27-1.25zm-32.33-3.57c-.05.28.26 2.31.78 2.64.2.12.21-.49.18-.58.25.33.22.79.42.67a.27.27 0 00.14-.29c-.02-.88-1.06-1.7-1.52-2.44zM12 23.74a5.8 5.8 0 001.22 1.86c.14.11.29 0 .24-.21a1.34 1.34 0 00.37.38c.21.09.3-.14.25-.3-.32-.93-1.51-1.07-2.08-1.73zm3.84 1.65a12 12 0 00.56 2.43c.29.54.61.28.49-.34a2.5 2.5 0 01.28.69c.05.13.3.15.27-.28-.07-.89-1.28-1.8-1.61-2.5zm2.24 3.27c.09 0 .16-.14.13-.51.13.19.09.55.19.58s.19-.12.16-.31c-.16-.82-.75-1.21-1-1.6.2.56.15 1.77.51 1.84z" class="cls-1"/><g clip-path="url(#clip-path)"><path d="M0 .25h57.35v36.68H0z"/></g></g></g></g></g></svg>
