<svg viewBox="0 0 81.88 61.11" fill="currentColor"><defs><clipPath id="clip-path"><path d="M71.72 17.09c.78.29 1 1.11.78 1.51a.83.83 0 01-1.1.13c.83-.02 1.07-1.06.32-1.64zm-23 1.29a.75.75 0 00.6-1 .65.65 0 01-.35.27.71.71 0 01-.28.73zm-10.57 2.4a8 8 0 006.57 0 1.23 1.23 0 01-.36-.23 9.77 9.77 0 01-6.24.23zm-4.61-.49a3.31 3.31 0 00.78.26c.23 0 .35-.08.26-.08a.65.65 0 01-.36-.13 1.76 1.76 0 00.39 0c.28 0 .42-.11.18-.23a1.44 1.44 0 00-1.28.18zM20.3 51.53h41.59a.66.66 0 01.67.63.65.65 0 01-.67.63H20.3a.65.65 0 01-.67-.63.66.66 0 01.67-.63zm.22.63a2.94 2.94 0 00.92.14h39.3a3 3 0 00.93-.14 3.25 3.25 0 00-.93-.13h-39.3a3.23 3.23 0 00-.92.13zm15.1-31.5a1.86 1.86 0 00-.89.25 1.28 1.28 0 00.84.11s-.2 0-.3-.11c.33-.02.52-.21.35-.25zM7.86 44.16a1.69 1.69 0 012.55.24 3.9 3.9 0 012.19-1.68c-.21.84.46 1.92-.11 3.18a1.43 1.43 0 00-.94.81 1.5 1.5 0 011.75-.41 1.35 1.35 0 01.7 1.25 1.83 1.83 0 00-3.11.63 4.2 4.2 0 00.4 3.77 4.61 4.61 0 01-.21-3.64 2 2 0 012.62-.93 1.61 1.61 0 00-1.83.78 2.74 2.74 0 001.52 4 3.16 3.16 0 003.13-.32c1.22-1 .24-3-1.2-2.19a.77.77 0 01.32 0 1.12 1.12 0 00-.36.36 1.69 1.69 0 01.54-.27.64.64 0 01.15.13 1.38 1.38 0 00-.83.63 2 2 0 01.92-.5s0 .09.06.13c-.4.12-1 .39-1.1 1a1.46 1.46 0 011.17-.8v.16A1.41 1.41 0 0015 51.6a1.51 1.51 0 01-.1-2.05 2.3 2.3 0 012.45-.55 2.61 2.61 0 011.82 2.76 3.18 3.18 0 00-.58-1.41c.34.57.2 1.24.5 1.87a2 2 0 00.06.35 1.73 1.73 0 01-.52-1.16c0 .59 0 1.58.94 1.74a1.08 1.08 0 00.18.11c-.7.12-1.29-.23-1.36-1.39-.19 1.13.53 2 1.67 1.5a.91.91 0 00.23 0 1.42 1.42 0 01-1.95-.08 1.33 1.33 0 002.18.08h.16v.09c-.62 1-3.07 1.38-2.94-1.81a1.42 1.42 0 01-.07.22 3.67 3.67 0 01-2 1 3.16 3.16 0 001.92-.65 1.53 1.53 0 000 .3 4.92 4.92 0 01-4.34.47c1.56 1 3.73.16 4.32-.21V53c-.72.38-3.58 1.67-5.79-.6 1.44 2.37 4.75 1.52 5.83.91v.16a8.51 8.51 0 01-1.11.53 5.1 5.1 0 01-3.93-.25c-2.3-1.27-3-4.69-1.38-8.07-2.21 3.43-1.14 6.62.51 8.1a4 4 0 001.29.74c-1.55-.07-3-1.24-3.58-3.65a3.42 3.42 0 00.07.57 2.28 2.28 0 01-.64-.44 2 2 0 00.68.61l.09.32a6 6 0 01-1.35-1 4.44 4.44 0 001.43 1.25l.18.43a5.76 5.76 0 01-1.25-.9A4.22 4.22 0 0010.07 53l.17.25a3.56 3.56 0 01-1-.5 4.17 4.17 0 001.29.87A4 4 0 0011 54c-5.54-2-7.64-9.35-4-13.6-3.65 3.67-2.26 8-1.11 10.23-.83-.6-1.56-3.29-1.54-5a7.09 7.09 0 00.2 3c0-.08-.07-.15-.11-.22a8.06 8.06 0 01-.31-4.75 1.68 1.68 0 000-.47 20.89 20.89 0 01.44-4.68A12.51 12.51 0 004 43.39a3 3 0 01-.14.45 14.19 14.19 0 01.33-5.35 14 14 0 00-.6 6.41 5.31 5.31 0 00-.08.87 15.44 15.44 0 01.41-8.39c.07-.19.13-.37.2-.55 1.17.13 1.47 1 1.45 2a2.14 2.14 0 00-.36-.65 19.74 19.74 0 00-.74 4.33 14.35 14.35 0 011.07-2.6l.11-.26c1-2.24.12-3.94-1.39-3.18 1.82-4.64 4.35-5.88 4.47-7.52a1.67 1.67 0 00-.38-1.18 1.23 1.23 0 00-1-.42 2 2 0 011.44.47c1.69 2.28-1.88 4.56-3 7.14 2.13-3 4.23-3.84 5.7-6.69.74-1.45.6-3.63-1.06-3.89a1.7 1.7 0 011.87-.53 1 1 0 01.18.12 1 1 0 01.16.14 2.63 2.63 0 01.51 2.67c.6-1 .75-3.39-.4-4.57.4-.08 2.26.08 1.76 2.61a2.7 2.7 0 00.25-1.68 16.44 16.44 0 01.54-3.63 10.63 10.63 0 00-.71 3.13 1.64 1.64 0 00-.14-.22 11.65 11.65 0 01.8-3.74 7 7 0 00-1 3.53 2 2 0 00-.25-.14c.13-3.55 1.74-5.77 3.8-5.25-1.28.37-1.7 2.1-1.79 3.32a13.59 13.59 0 01-1.38 6.17c-2.25 4.18-7 6.33-8.56 9.8.92.38 1.24 1.3 1.22 2.63.41-2.83 2.13-3 2.52-4.38a4.17 4.17 0 01-1.12 5.22 2.27 2.27 0 013.11.66 4.07 4.07 0 00-2 .41 5.91 5.91 0 00-3.31 4.72c-.27 2.3.42 5.53 2.54 7.24a7.51 7.51 0 01-2-5.4 5.24 5.24 0 002.26 2.88 13.91 13.91 0 01.17-4.51c0-.6 0-1.58-1.11-1.44A1.26 1.26 0 019 45.58a1.71 1.71 0 00-1.14-1.42zm5.78-17.54a2.93 2.93 0 00.47-2.57 4.89 4.89 0 01-.47 2.57zm-2.43 2.93c1-1.16 2.33-3.35.85-4.94 1.16 1.85-.33 4.17-.85 4.94zm-.52 1a6.89 6.89 0 002.36-3.41 11.43 11.43 0 01-2.36 3.37zm-5 5.5a12.38 12.38 0 012.42-3.16A8.68 8.68 0 005.52 36zm1.13 1.88a6.13 6.13 0 01-1.02 3.35 3.39 3.39 0 001.06-3.39zm-.3 5.23a5.65 5.65 0 012.76-2.91 3.93 3.93 0 00-2.72 2.87zM7.45 40a5.64 5.64 0 002.38-4.71A8.92 8.92 0 017.45 40zm-1.89 6.86c0-3 .94-5.09 2-6.17-1.67 1.01-2.39 3.78-2 6.17zm4-2.75c.93 1 .11 2.61.15 3.17.1-.56 1.22-2.39-.16-3.17zm2.55 3.55a2.1 2.1 0 00-.78 2.69c-.25-1.47.27-2.44.77-2.69zm37.3-31.61a3.69 3.69 0 00-1 1.21c0 .14 0 .18.15.14s.71-.93 1.52-1.19zm13.85 1.67a1.66 1.66 0 01.74.16 1.7 1.7 0 01-.72.17h-4.07a2.51 2.51 0 010 .55H64a.63.63 0 00.63-.63.64.64 0 00-.63-.63h-5a2.4 2.4 0 01.12.38zm-30.35 2.21c.31 0 .48-.1.35-.11a.77.77 0 01-.46-.17 3.08 3.08 0 00.51 0c.37 0 .56-.14.24-.31-.67-.36-1.31.07-1.66.18a4.66 4.66 0 001.02.41zm34.61-2.23a1.57 1.57 0 01.81-.91 2 2 0 00-.67 1.09c.07.09.13.19.19.28a2.38 2.38 0 011.07-1.45 3.1 3.1 0 00-.86 1.81 2.77 2.77 0 01.24.62 3.73 3.73 0 011.94-3 2.77 2.77 0 00-2.41.42 1.18 1.18 0 00-.19.22 1.41 1.41 0 00-.15.86zm2.66 1.66a1 1 0 01.12-.65 1.27 1.27 0 00.31 1.07 1.09 1.09 0 00.31.14 1.28 1.28 0 01-.2-.82 1 1 0 00.8.84 1.47 1.47 0 001.07-1 1.53 1.53 0 01-2.28-1.3.83.83 0 00-.15.11 1.55 1.55 0 00.02 1.61zm-38-.89a2.62 2.62 0 00-1.54 0l.32.21a3.68 3.68 0 00.62.32c.24.08.62.1.57 0s-.39-.11-.58-.34a2.89 2.89 0 00.66.14c.3.02.3-.19 0-.33zm13.94 2.06a8.36 8.36 0 01-3.81 1.31 7.71 7.71 0 002.18-.28 5.22 5.22 0 001.67-.84c1.79.07 2.21-.94 2.22-1.75a1.56 1.56 0 00.89-.3 1.68 1.68 0 00.73-1.54 1.76 1.76 0 010 .46 1.78 1.78 0 01-1.79 1.22c.04.96-.6 1.79-2.04 1.72zm.58-.34c.73-.08.92-.7.74-1a1.51 1.51 0 01-.35.2.75.75 0 01-.34.8zm-1.9-4.4a3.58 3.58 0 002.83 1.77c-1.86-.59-2.28-3.16-3.17-3.78.54.9.16 1.43.39 2.01zm-.24.87c1 1.26 2.9 1.63 3.6 1.09-1.32.21-3.53-.9-3.59-2.37V15v-.23c-.28.09-.44.53-.48.92a1.14 1.14 0 010-.72c-.5.68-.12 1.7.73 2.47a5.1 5.1 0 002.4 1.12 3.75 3.75 0 01-2.61-1.9zm-.66.09c-.28.79.49 2 1.84 2.44a3 3 0 01-1.26-1.65 3 3 0 01-.48-.79zm-9.46 1.87c-.3 1.33.82 1.23.82 1.23a5.81 5.81 0 002.57 1.47 3.83 3.83 0 00.64.14 8.06 8.06 0 01-3.05-1.79 1 1 0 01-.93-1.05zM23.56 17A2 2 0 0026 19.4c-2.45-.1-2.58-2.69-1.86-3.23a2.12 2.12 0 011.53-.17 1 1 0 00-1.23.71 1.71 1.71 0 002.4 1.93 1.64 1.64 0 01-2.35 1.18 2.19 2.19 0 01-.93-2.82zm.44 2a1.46 1.46 0 002 .55 2.18 2.18 0 01-2-.55zm12.79-6.4a.71.71 0 01.09.42 1.14 1.14 0 00-.5-.56.91.91 0 00-.36.75 1.71 1.71 0 01.46.28 1.87 1.87 0 01.59-.43c.11-.35 0-.72.11-.93h-.1a1 1 0 00-.34.49zM30.48 18c.25.17.58.25.44.05s-.17-.14-.24-.23a1.18 1.18 0 00.42.16c.15 0 .3 0 .2-.14-.29-.39-1-.49-1.59-.72a2.64 2.64 0 00.77.88zM36 12.63a1.48 1.48 0 01.34-.38 1.3 1.3 0 01.31.22 1 1 0 01.33-.3.56.56 0 000-.14c-.05-.11-.09-.17-.15-.19a.24.24 0 00-.13.13v.2a.91.91 0 00-.37-.37.86.86 0 00-.36.59 1.83 1.83 0 00-.29-.06.88.88 0 01.32.3zm-3.22 1.2a13.35 13.35 0 00.59 1.87 2.05 2.05 0 011.08-.55 1 1 0 00-.75 1.43c-.08-.36.34-.82.79-.83a.9.9 0 00-.69.84 11.85 11.85 0 00.91 1.35l.06-.1a3.42 3.42 0 01-.67-1.1 8.68 8.68 0 00.82.87 2.26 2.26 0 01.9-.74c-1 .76-.73 1.48-.55 1.62a1.4 1.4 0 01.88-1 1.34 1.34 0 00-.64 1.32c2.3 2.1 6.25 1.9 8.07 1.06a2.88 2.88 0 01-.28-.38 7.78 7.78 0 01-6.62-.28A8.42 8.42 0 0043 19a3.15 3.15 0 01-.29-1.26 6.13 6.13 0 01-5.71-.08 1 1 0 00-.56-.21.54.54 0 01.49-.06c-.07-.28-.21-.7-.5-.71h-.33a1.07 1.07 0 00-.27.09 8.64 8.64 0 01-.84-.9.48.48 0 00-.33-.16.47.47 0 01.41 0 .42.42 0 00-.19-.59h-.17a.56.56 0 00-.26 0 8.73 8.73 0 01-1.18-2.81.2.2 0 01.09-.24.47.47 0 00.24-.54.76.76 0 00-.18-.1h-.02c-.23 0-.77.17-.64.74a.88.88 0 01.24 0 3.76 3.76 0 00.26 1.36.9.9 0 00-.52.3zm-3.61 4.32a10.18 10.18 0 00-3.94-1.31l-.13.23a7.43 7.43 0 013.69 1.25 8.07 8.07 0 00-3.76-1 1.18 1.18 0 000 .2 6 6 0 013.58 1.1c-2.19-1-3.25-.91-3.59-.82a1.57 1.57 0 00-.02.2 4.84 4.84 0 012.75.53 33 33 0 005.41 2.11 1.79 1.79 0 01-.39-.24 10 10 0 01-2.45-1 18.71 18.71 0 002.09.76c-.37-.14-.64-.39-1.07-.61a4.11 4.11 0 01-.84-.42l1 .36a3.54 3.54 0 00.43-.16c-.81 0-1.6-.73-2.17-.88l.31-.06a17.22 17.22 0 00-3.78-1.84 1 1 0 00-.86.08 8.89 8.89 0 013.7 1.52zM17.53 18a.63.63 0 00.63.63H23a2 2 0 010-.55h-4.1a1.67 1.67 0 01-.71-.17 1.66 1.66 0 01.74-.16H23a2.4 2.4 0 01.12-.38h-5a.63.63 0 00-.59.63zm53.34 32.35a2.09 2.09 0 00-.78-2.68c.49.24 1.02 1.21.78 2.68zM10.79 18.73c-.83 0-1.08-1.06-.33-1.64a1.15 1.15 0 00-.77 1.51.83.83 0 001.1.13zm-1.19.18a1.45 1.45 0 001.06 1 1 1 0 00.81-.84 1.28 1.28 0 01-.2.82 1.23 1.23 0 00.31-.14 1.34 1.34 0 00.31-1.07 1 1 0 01.12.65 1.55 1.55 0 000-1.64l-.15-.11a1.54 1.54 0 01-2.26 1.33zm4.29.23a2.77 2.77 0 01.24-.62 3.1 3.1 0 00-.86-1.81 2.46 2.46 0 011.07 1.45c.06-.09.12-.19.19-.28a2.09 2.09 0 00-.67-1.09 1.6 1.6 0 01.81.91 1.41 1.41 0 00-.15-.86 1.75 1.75 0 00-.19-.22 2.78 2.78 0 00-2.33-.45 3.78 3.78 0 011.89 2.97zm23.14-7zm8.38 1.1a2.51 2.51 0 00-.48-1.24 3.15 3.15 0 01.32 1.15zm27.73 32.34a1.25 1.25 0 01.77-1.45c-1.14-.14-1.16.84-1.11 1.44a13.91 13.91 0 01.2 4.51 5.24 5.24 0 002.26-2.88 7.48 7.48 0 01-2 5.4c2.13-1.71 2.82-4.94 2.55-7.24a5.91 5.91 0 00-3.31-4.72 4.09 4.09 0 00-2-.41 2.26 2.26 0 013.11-.66 4.17 4.17 0 01-1.13-5.22c.39 1.35 2.12 1.55 2.53 4.38 0-1.33.3-2.25 1.22-2.63-1.58-3.47-6.31-5.62-8.56-9.8a13.59 13.59 0 01-1.38-6.17c-.09-1.22-.51-2.95-1.79-3.32 2.06-.52 3.67 1.7 3.8 5.25a2 2 0 00-.25.14 7 7 0 00-1-3.53 11.65 11.65 0 01.8 3.74 1.64 1.64 0 00-.14.22A10.63 10.63 0 0067 19.5a16.33 16.33 0 01.53 3.63 2.72 2.72 0 00.26 1.68c-.5-2.53 1.36-2.69 1.76-2.61-1.15 1.18-1 3.54-.4 4.57a2.62 2.62 0 01.5-2.67 1.56 1.56 0 01.17-.14 1 1 0 01.18-.12 1.7 1.7 0 011.87.53c-1.66.26-1.81 2.44-1.06 3.89 1.47 2.85 3.57 3.72 5.7 6.69-1.1-2.58-4.67-4.86-3-7.14a2 2 0 011.45-.47 1.22 1.22 0 00-1 .42 1.67 1.67 0 00-.38 1.18c.11 1.64 2.64 2.88 4.46 7.52-1.51-.76-2.41.94-1.38 3.18a2 2 0 00.11.26 14.35 14.35 0 011.07 2.6 19.74 19.74 0 00-.84-4.33 1.79 1.79 0 00-.36.65c0-1 .27-1.86 1.45-2 .06.18.13.36.19.55a15.25 15.25 0 01.41 8.39 5.27 5.27 0 00-.07-.87 14.09 14.09 0 00-.62-6.4 14 14 0 01.33 5.35c0-.11-.1-.32-.13-.45a12.59 12.59 0 00-.65-4.88 21.85 21.85 0 01.45 4.68 1.68 1.68 0 000 .47 8.14 8.14 0 01-.31 4.75l-.12.22a7.06 7.06 0 00.21-3c0 1.68-.71 4.37-1.54 5 1.15-2.25 2.54-6.56-1.11-10.23 3.7 4.25 1.6 11.6-3.9 13.6a3.21 3.21 0 00.42-.41 4.2 4.2 0 001.3-.87 3.56 3.56 0 01-1 .5c0-.08.11-.16.16-.25a4 4 0 001.45-1.27 5.32 5.32 0 01-1.25.9c.07-.14.13-.28.19-.43a4.55 4.55 0 001.43-1.25 6 6 0 01-1.35 1 3 3 0 00.08-.32 1.9 1.9 0 00.68-.61 2 2 0 01-.64.41 3.4 3.4 0 00.08-.57c-.58 2.41-2 3.58-3.58 3.65a4 4 0 001.29-.74c1.65-1.48 2.72-4.67.51-8.1 1.63 3.38.92 6.8-1.38 8.07a5.1 5.1 0 01-3.93.25 8.69 8.69 0 01-1.09-.47.75.75 0 000-.16c1.08.61 4.38 1.46 5.82-.91-2.21 2.27-5.06 1-5.79.6a1.93 1.93 0 000-.24c.59.37 2.75 1.23 4.32.21a4.92 4.92 0 01-4.34-.47v-.3a3.13 3.13 0 001.92.65 3.78 3.78 0 01-2-1l-.06-.22c.13 3.19-2.32 2.84-2.94 1.81a.44.44 0 01-.05-.09h.16a1.32 1.32 0 002.17-.08 1.4 1.4 0 01-1.94.08h.24c1.14.51 1.86-.37 1.67-1.5-.08 1.16-.66 1.51-1.36 1.39l.18-.11c.93-.16 1-1.15.93-1.74a1.68 1.68 0 01-.53 1.13 1 1 0 00.06-.35c.31-.63.16-1.3.51-1.87a3.34 3.34 0 00-.57 1.41A2.62 2.62 0 0164.83 49a2.31 2.31 0 012.4.69 1.52 1.52 0 01-.1 2.05 1.42 1.42 0 00-1.19-1.11 1 1 0 010-.16 1.47 1.47 0 011.17.8c-.08-.65-.7-.92-1.1-1 0 0 0-.1.06-.13a2 2 0 01.92.5 1.38 1.38 0 00-.83-.63.86.86 0 01.14-.13 1.52 1.52 0 01.54.27 1.21 1.21 0 00-.35-.36.77.77 0 01.32 0c-1.45-.81-2.42 1.15-1.2 2.19a3.15 3.15 0 003.12.32c2.3-1 2.15-3.1 1.53-4a1.61 1.61 0 00-1.83-.78 2 2 0 012.62.93 4.58 4.58 0 01-.2 3.55 4.21 4.21 0 00.41-3.77 1.83 1.83 0 00-3.11-.63 1.33 1.33 0 01.74-1.25 1.5 1.5 0 011.75.41 1.43 1.43 0 00-.94-.81c-.57-1.26.1-2.34-.11-3.18a3.9 3.9 0 012.19 1.68 1.69 1.69 0 012.55-.24 1.74 1.74 0 00-1.19 1.42zm-4.6-19a5 5 0 01-.46-2.57 2.93 2.93 0 00.46 2.61zM71 29.55c-.51-.77-2-3.09-.84-4.94-1.52 1.59-.24 3.78.84 4.94zm.53 1a11.43 11.43 0 01-2.36-3.41 6.76 6.76 0 002.33 3.37zm5 5.5h.22a8.68 8.68 0 00-2.75-3.2A12.19 12.19 0 0176.45 36zm-5.66 14.3a2.1 2.1 0 00-.78-2.69c.49.25 1.02 1.22.78 2.69zm1.76-6.24c-1.37.78-.25 2.61-.14 3.17.04-.56-.78-2.22.14-3.17zM74.74 40a9 9 0 01-2.39-4.71A5.62 5.62 0 0074.74 40zm.89 3.12a3.93 3.93 0 00-2.76-2.91 5.65 5.65 0 012.76 2.91zm-1-2.43c1.08 1.08 2 3.15 2 6.17.37-2.39-.34-5.16-2.02-6.17zm1.77.59a6.19 6.19 0 01-1-3.39 3.4 3.4 0 00.98 3.39zM46 13.5a2.91 2.91 0 00-1-2 3.49 3.49 0 01.69 1.89zm7.15 4.32a4.05 4.05 0 01-.36.59 3.3 3.3 0 001.03-.41c-.24.29-.91 1.16-1.16 1.41.64-.29 1.24-.57 1.8-.8a4.84 4.84 0 012.75-.61 1.57 1.57 0 000-.23c-.34-.09-1.41-.18-3.59.82a5.94 5.94 0 013.57-1.1 1.2 1.2 0 000-.2A7.61 7.61 0 0054 18a6.38 6.38 0 013.11-1c0-.06-.1-.17-.14-.23a10.2 10.2 0 00-3.93 1.31 8.92 8.92 0 013.69-1.52 1 1 0 00-.86-.08 12.76 12.76 0 00-2.78 1.27zm-10.15-7c.38-.73 2.7-1.19 6.51.22 3.41 1.26 5.41 3.17 4.81 4.22-.44.78-3 1.23-7.06-.44-2.99-1.23-4.84-2.92-4.26-4zm1.92 2.23c2.3 1.65 6 2.62 7.69 2.36.49-.07.85-.22 1-.5.26-.57-.51-1.26-.51-1.26a4.17 4.17 0 00-2.22 1.27 3.3 3.3 0 011.86-1.59A13.21 13.21 0 0047.55 11a18.43 18.43 0 013.92 2c.05.06 0 .11 0 .13a3.3 3.3 0 00-1.62 1.46 6.51 6.51 0 01-2.7-.55 3.31 3.31 0 00-.46-1.66 3.85 3.85 0 01.22 1.57l-.64-.27a3.75 3.75 0 00-1.56-3s-.85.07-1 .53c-.14.27-.11.9 1.2 1.84zM37 12.16h.07zM56.52 16a2.12 2.12 0 011.51.21c.72.54.59 3.13-1.86 3.23A2 2 0 0058.63 17a2.19 2.19 0 01-.93 2.82 1.64 1.64 0 01-2.35-1.18 1.71 1.71 0 002.4-1.93 1 1 0 00-1.23-.71zm-.28 3.61a1.45 1.45 0 002-.55 2.15 2.15 0 01-2 .51zm-19.3-7.4zm2 3c.15-.44 0-.72-.27-.75.83-.34.92-1 1.16-1.05-1-.41-2 .91-2.1 1.7a.73.73 0 011.27.06zm6.58 5a3.67 3.67 0 01-2-1.77c.43.82 2.37 1.8 3.26 1.08a3.1 3.1 0 01-2.61-1.11 1.64 1.64 0 01-.37-1.79 5.07 5.07 0 01-.17-.51c-.69.29-1.18 1.06-.57 2.21a3.86 3.86 0 002.49 1.83zm4.29.32a3.64 3.64 0 00-.66-.33c-.35-.08-.55.08-.48.19a.61.61 0 00.51.11c-.06.11-.27.06-.35.1s0 0 0 .06c.3.08.69-.07 1.01-.19zm1.71-.63c-.27-.08-.76-.42-1.25-.27-.26.07-.36.31-.15.35a3 3 0 00.55 0c-.14.18-.49.16-.52.21s.25.13.46.1a4.31 4.31 0 00.94-.45zm-3 1c-.22-.1-.38-.36-.67-.26-.09 0-.14.11-.07.15a.87.87 0 00.36.06.74.74 0 01-.31.05v.05c0 .05.33-.01.71-.09zm2.91-3.26c-.34.4-1.2 1.13-1.12 1.47 0 .17.22.15.29 0a1.37 1.37 0 01.16-.32c0 .06-.07.5.08.45.38-.24.63-1.44.61-1.64zm-1.11.64c-.19.27-.92.75-1.16 1.24a.45.45 0 000 .29c0 .07.09.08.12 0a1.11 1.11 0 01.21-.32c-.13.38 0 .56.3.26a4.93 4.93 0 00.55-1.51zm1.2.09c0 .06 0 .24.17.19s.31-.28.31-.28a1.64 1.64 0 00-.09.27.06.06 0 00.09 0c.54-.16.9-.91 1-1.16-.44.43-1.36.41-1.46.94zm1.39.28c-.58.16-1.43.1-1.66.53-.07.11 0 .19.19.18a1.23 1.23 0 00.43-.13c-.08.08-.22.15-.26.2s.19.18.46 0a2.46 2.46 0 00.86-.82zm-21.64-2.4c0 .19.17 1.54.52 1.76.13.09.14-.32.12-.38.17.22.14.52.28.45a.18.18 0 00.09-.2c-.01-.59-.71-1.12-1.01-1.63zm-1.51-.35a4 4 0 00.82 1.24c.09.08.2 0 .16-.13.06.07.15.21.25.25s.2-.09.17-.2c-.16-.62-1.01-.72-1.4-1.16zm2.58 1.1a7.62 7.62 0 00.37 1.62c.2.36.41.19.33-.23a2.2 2.2 0 01.19.47c0 .08.2.09.18-.19-.04-.58-.85-1.19-1.07-1.67zm1.49 2.18c.07 0 .11-.09.1-.34.08.13 0 .37.12.39s.13-.08.11-.2a2.73 2.73 0 00-.65-1.03c.12.34.08 1.15.32 1.19z" class="cls-1"/></clipPath><style>.cls-1{fill:#e9cc9a}.cls-2{fill:#df1d48}.cls-3,.cls-4{fill:#231f20}.cls-3{fill-rule:evenodd}.cls-5{fill:#fff}</style></defs><g id="Layer_2" data-name="Layer 2"><g id="Layer_1-2" data-name="Layer 1"><g id="Dark_Title_Top" data-name="Dark Title Top"><g id="Label"><path d="M54.89 19c-1.33 0-5.24 3.22-10 2.47l-.37.13a7.71 7.71 0 01-2.18.28 10.6 10.6 0 01-1.14.06 9.38 9.38 0 01-2.7-.44 3.83 3.83 0 01-.64-.14C32.81 22.44 28.62 19 27.3 19a2.33 2.33 0 01-2 1.69 2.12 2.12 0 01-2.16-1.42 1.17 1.17 0 01-.05-.11h-4.95a1.23 1.23 0 01-1.14-.7c-.73 1 .19 4.28-2.17 8.33-2.11 3.64-6.36 5.83-7.92 9.2a1.62 1.62 0 01.59.74c.72-1.3 2.11-1.59 1.93-3.12 1.49 1 1.8 3.59.48 5.33a2.66 2.66 0 012.67 1.89c-3.11 0-4.64 1.31-5.23 2.92a4.68 4.68 0 001.49 5.37c-.31-1.46.79-4.36-1.37-4.84a1.94 1.94 0 012.92-.41 4.3 4.3 0 013-1.65c-.51.78.06 2.56-.39 3.64a1.75 1.75 0 011.53 1.47 1.63 1.63 0 01-.19 1.22 1.45 1.45 0 00-1.34-.64c-.59.06-1.15.67-1.11 1.71a2.57 2.57 0 002.67 2.48 2.4 2.4 0 012-3.59 2.93 2.93 0 013.18 2.65 1.14 1.14 0 01.56-.16h41.59a1.17 1.17 0 01.61.17 2.93 2.93 0 013.18-2.65 2.4 2.4 0 011.95 3.59 2.57 2.57 0 002.66-2.48c0-1-.51-1.65-1.1-1.71a1.46 1.46 0 00-1.27.64 1.73 1.73 0 01-.19-1.22 1.77 1.77 0 011.54-1.47c-.45-1.08.11-2.86-.4-3.64a4.32 4.32 0 013 1.65 1.94 1.94 0 012.92.41c-2.16.48-1.07 3.38-1.37 4.84a4.67 4.67 0 001.48-5.37c-.58-1.61-2.11-2.89-5.23-2.92a2.67 2.67 0 012.68-1.89 3.86 3.86 0 01.47-5.33c-.18 1.53 1.22 1.82 1.94 3.12a1.62 1.62 0 01.59-.74c-1.56-3.37-5.81-5.56-7.93-9.2-2.35-4.05-1.43-7.33-2.16-8.33a1.23 1.23 0 01-1.19.66h-5a.36.36 0 010 .11 2.14 2.14 0 01-2.17 1.42A2.33 2.33 0 0154.89 19zM39.95 6.88l-1.19 1.85 1.83-1.19.5 5.24.5-5.24 1.84 1.18-1.2-1.85 3.1-.49-3.1-.5 1.2-1.86-1.84 1.19-.5-5.21-.5 5.22-1.83-1.19 1.19 1.85-3.09.5 3.09.5z" class="cls-2"/><path d="M52.6 15.41c.49-.07.85-.22 1-.5.26-.57-.51-1.26-.51-1.26a4.17 4.17 0 00-2.22 1.27 3.3 3.3 0 011.86-1.59A13.21 13.21 0 0047.55 11a18.43 18.43 0 013.92 2c.05.06 0 .11 0 .13a3.3 3.3 0 00-1.62 1.46 6.51 6.51 0 01-2.7-.55 3.31 3.31 0 00-.46-1.66 3.85 3.85 0 01.22 1.57l-.64-.27a3.75 3.75 0 00-1.56-3s-.85.07-1 .53c-.1.27-.07.9 1.24 1.84 2.26 1.65 5.99 2.62 7.65 2.36zm-7.35-2.27a3.15 3.15 0 00-.32-1.14 2.51 2.51 0 01.48 1.24zm.43.22a3.49 3.49 0 00-.68-1.89 2.91 2.91 0 011 2zM9.66 29.4a2.43 2.43 0 00-.86-1.59c1.69 2.28-1.88 4.56-3 7.14 2.13-3 4.23-3.84 5.7-6.69.74-1.45.6-3.63-1.06-3.89a1.7 1.7 0 011.87-.53 2.27 2.27 0 00-3.42 1.95c1.39-1.36 4.44.78.77 3.61zM71 29.55c-.51-.77-2-3.09-.84-4.94-1.52 1.59-.24 3.78.84 4.94zM71.5 30.51a11.43 11.43 0 01-2.36-3.41 6.76 6.76 0 002.36 3.41zM36.34 13.85A4.89 4.89 0 0038 17a3 3 0 004.36-1.1 3.14 3.14 0 01-3.57 1.15 1.5 1.5 0 01-1-1.13c-.11-.86.79-1.11 1-.57a.89.89 0 01-.35.39c1.31 0 1.33-1.23.7-1.39.52-.36.41-.74 1-1a1.35 1.35 0 00-1.85.27c.27-.56-.08-1.27-.68-1.17.5.38-.22 1 0 2.05a2.15 2.15 0 00-.16 1.5 5.42 5.42 0 01-.86-2.16 1 1 0 00.73-.87h-.15a2.35 2.35 0 000-.86c-.1.21 0 .58-.11.93a1.87 1.87 0 00-.59.43 1.71 1.71 0 00-.46-.28.91.91 0 01.36-.75 1.14 1.14 0 01.5.56.71.71 0 00-.09-.42 1 1 0 01.29-.49.89.89 0 00-.42.34 1.3 1.3 0 00-.31-.22 1.48 1.48 0 00-.34.38.88.88 0 00-.31-.29 1.83 1.83 0 01.29.06.86.86 0 01.36-.59.91.91 0 01.37.37v-.2a.24.24 0 01.13-.13c.06 0 .1.08.15.19 0-.15-.07-.31-.08-.41a.63.63 0 00-.24.2.9.9 0 00-.31-.47 1 1 0 00-.29.52.57.57 0 00-.21-.18v.59h-.21c.06.15-.11.49.15.91a2 2 0 00-.22 0c.06.22.22.71.76.69zm3.52-.48c-.24 0-.33.71-1.16 1.05.22 0 .42.31.27.75a.73.73 0 00-1.21-.1c.14-.79 1.08-2.07 2.1-1.7zM76.45 36h.22A8.68 8.68 0 0074 32.85 12.19 12.19 0 0176.45 36z"/><path d="M73.28 25.79a2.27 2.27 0 00-3.42-1.95 1.7 1.7 0 011.87.53c-1.66.26-1.81 2.44-1.06 3.89 1.47 2.85 3.57 3.72 5.7 6.69-1.1-2.58-4.67-4.86-3-7.14a2.46 2.46 0 00-.85 1.59c-3.67-2.83-.61-4.97.76-3.61zM5.52 36h.21a12.38 12.38 0 012.42-3.16A8.68 8.68 0 005.52 36zM13.05 27.1a11.43 11.43 0 01-2.36 3.41 6.89 6.89 0 002.36-3.41zM11.21 29.55c1-1.16 2.33-3.35.85-4.94 1.16 1.85-.33 4.17-.85 4.94zM35.1 15.75a.47.47 0 00-.41 0 .48.48 0 01.33.16 8.64 8.64 0 00.84.9 1.07 1.07 0 01.27-.09c-.19-.17-.51-.46-.63-.59a.71.71 0 00-.59-1 .42.42 0 01.19.62zM33.39 12.09a.2.2 0 00-.09.24 8.73 8.73 0 001.18 2.81.56.56 0 01.26 0 9.14 9.14 0 01-1.22-2.74c.37-.2.5-.6.11-.85a.47.47 0 01-.24.54zM9.83 35.29A8.92 8.92 0 017.45 40a5.64 5.64 0 002.38-4.71zM58.23 19a2.15 2.15 0 01-2 .55 1.45 1.45 0 002-.55zM68.54 26.62a5 5 0 01-.46-2.57 2.93 2.93 0 00.46 2.57zM24 19a1.46 1.46 0 002 .55 2.18 2.18 0 01-2-.55zM76.38 41.28a6.19 6.19 0 01-1-3.39 3.4 3.4 0 001 3.39zM12.1 47.66a2.1 2.1 0 00-.78 2.69c-.24-1.47.28-2.44.78-2.69zM9.7 47.28c.11-.56 1.23-2.39-.15-3.17.93.95.11 2.61.15 3.17zM74.61 40.69c1.08 1.08 2 3.15 2 6.17.39-2.39-.32-5.16-2-6.17zM70.09 47.66c.49.25 1 1.22.78 2.69a2.1 2.1 0 00-.78-2.69zM72.49 47.28c0-.56-.78-2.22.14-3.17-1.37.78-.25 2.61-.14 3.17zM72.35 35.29A5.62 5.62 0 0074.74 40a9 9 0 01-2.39-4.71z"/><path d="M75.63 43.12a3.93 3.93 0 00-2.76-2.91 5.65 5.65 0 012.76 2.91zM5.56 46.86c0-3 .94-5.09 2-6.17-1.67 1.01-2.39 3.78-2 6.17zM14.11 24.05a4.89 4.89 0 01-.47 2.57 2.93 2.93 0 00.47-2.57z"/><path d="M77.63 34.53c-2.14-4.18-3.49-4.59-2.55-7.18a1.41 1.41 0 00-1.61 1.59c.11 1.64 2.64 2.88 4.46 7.52-1.51-.76-2.41.94-1.38 3.18a2 2 0 00.11.26 14.35 14.35 0 011.07 2.6 19.74 19.74 0 00-.73-4.33 1.79 1.79 0 00-.36.65c0-1 .27-1.86 1.45-2 .06.18.13.36.19.55a15.25 15.25 0 01.41 8.39 5.27 5.27 0 00-.07-.87 14.09 14.09 0 00-.62-6.4 14 14 0 01.33 5.35c0-.11-.1-.32-.13-.45a12.59 12.59 0 00-.65-4.88 21.85 21.85 0 01.45 4.68 1.68 1.68 0 000 .47 8.14 8.14 0 01-.31 4.75l-.12.22a7.06 7.06 0 00.21-3c0 1.68-.71 4.37-1.54 5 1.15-2.25 2.54-6.56-1.11-10.23 3.7 4.25 1.6 11.6-3.9 13.6a3.21 3.21 0 00.42-.41 4.2 4.2 0 001.3-.87 3.56 3.56 0 01-1 .5c0-.08.11-.16.16-.25a4 4 0 001.45-1.27 5.32 5.32 0 01-1.25.9c.07-.14.13-.28.19-.43a4.55 4.55 0 001.43-1.25 6 6 0 01-1.35 1 3 3 0 00.08-.32 1.9 1.9 0 00.68-.61 2 2 0 01-.64.41 3.4 3.4 0 00.08-.57c-.58 2.41-2 3.58-3.58 3.65a4 4 0 001.29-.74c1.65-1.48 2.72-4.67.51-8.1 1.63 3.38.92 6.8-1.38 8.07a5.1 5.1 0 01-3.93.25 8.69 8.69 0 01-1.09-.47.75.75 0 000-.16c1.08.61 4.38 1.46 5.82-.91-2.21 2.27-5.06 1-5.79.6a1.93 1.93 0 000-.24c.59.37 2.75 1.23 4.32.21a4.92 4.92 0 01-4.34-.47v-.3a3.13 3.13 0 001.92.65 3.78 3.78 0 01-2-1l-.06-.22c.13 3.28-2.46 2.82-3 1.72h.16a1.32 1.32 0 002.17-.08 1.4 1.4 0 01-1.94.08h.24c1.14.51 1.86-.37 1.67-1.5-.08 1.16-.66 1.51-1.36 1.39l.18-.11c.93-.16 1-1.15.93-1.74a1.68 1.68 0 01-.52 1.13 1 1 0 00.06-.35c.31-.63.16-1.3.51-1.87a3.34 3.34 0 00-.57 1.41A2.62 2.62 0 0164.83 49a2.31 2.31 0 012.4.69 1.52 1.52 0 01-.1 2.05 1.42 1.42 0 00-1.19-1.11 1 1 0 010-.16 1.47 1.47 0 011.17.8c-.08-.65-.7-.92-1.1-1 0 0 0-.1.06-.13a2 2 0 01.92.5 1.38 1.38 0 00-.83-.63.86.86 0 01.14-.13 1.52 1.52 0 01.54.27 1.21 1.21 0 00-.35-.36.77.77 0 01.32 0c-1.45-.81-2.42 1.15-1.2 2.19a3.15 3.15 0 003.12.32c2.3-1 2.15-3.1 1.53-4a1.61 1.61 0 00-1.83-.78 2 2 0 012.62.93 4.58 4.58 0 01-.2 3.55 4.21 4.21 0 00.41-3.77 1.83 1.83 0 00-3.11-.63 1.33 1.33 0 01.74-1.25 1.5 1.5 0 011.75.41 1.43 1.43 0 00-.94-.81c-.57-1.26.1-2.34-.11-3.18a3.9 3.9 0 012.19 1.68 1.69 1.69 0 012.55-.24 1.74 1.74 0 00-1.19 1.42 1.27 1.27 0 01.77-1.45c-1.14-.14-1.16.84-1.11 1.44a13.91 13.91 0 01.2 4.46 5.24 5.24 0 002.26-2.88 7.48 7.48 0 01-2 5.4c2.13-1.71 2.82-4.94 2.55-7.24a5.91 5.91 0 00-3.31-4.72 4.09 4.09 0 00-2-.41 2.26 2.26 0 013.11-.66 4.17 4.17 0 01-1.13-5.22c.39 1.35 2.12 1.55 2.53 4.38 0-1.33.3-2.25 1.22-2.63-1.58-3.47-6.31-5.62-8.56-9.8a13.59 13.59 0 01-1.38-6.17c-.09-1.22-.51-2.95-1.79-3.32 2.06-.52 3.67 1.7 3.8 5.25a2 2 0 00-.25.14 7 7 0 00-1-3.53 11.65 11.65 0 01.8 3.74 1.64 1.64 0 00-.14.22A10.63 10.63 0 0067 19.5a16.33 16.33 0 01.53 3.63 2.72 2.72 0 00.26 1.68c-.5-2.53 1.36-2.69 1.76-2.61-1.15 1.18-1 3.54-.4 4.57a2.62 2.62 0 01.5-2.67 3.13 3.13 0 01.39-2.21 3.67 3.67 0 00-1.05 0c-.51-2.17 0-3.73.77-4.5s1.63-.6 1.85 0a.62.62 0 01-.27.77c-.27.13-.74 0-.89-.55a1.53 1.53 0 002.28 1.3 1.47 1.47 0 01-1.07 1 1 1 0 01-.8-.84 1.28 1.28 0 00.2.82 1.09 1.09 0 01-.31-.14 1.27 1.27 0 01-.31-1.07 1 1 0 00-.12.65 1.55 1.55 0 010-1.64A1.62 1.62 0 0070 20a1.58 1.58 0 002.12.33 2.51 2.51 0 00.14-4.08 3.35 3.35 0 00-3-.5 3.3 3.3 0 00-1.39.84 2.77 2.77 0 012.41-.42 3.73 3.73 0 00-1.94 3 2.77 2.77 0 00-.24-.62 3.1 3.1 0 01.86-1.81 2.38 2.38 0 00-1.07 1.45c-.06-.09-.12-.19-.19-.28a2 2 0 01.67-1.09 1.57 1.57 0 00-.81.91 1.41 1.41 0 01.15-.86 2.58 2.58 0 00-.39.59 2.64 2.64 0 00-3.51-.6h-5a2.49 2.49 0 00-.69-.63c.72.54.59 3.13-1.86 3.23A2 2 0 0058.63 17a2.19 2.19 0 01-.93 2.82 1.64 1.64 0 01-2.35-1.18 1.71 1.71 0 002.4-1.93c-.45-1.46-2.54-.43-4.45.72a2.23 2.23 0 00.12-.41c.09-.15.26-.45.2-.49-.63 1-1.61 1-2 1.29a2 2 0 000-.54c.1-.2.21-.38.16-.46-.41.78-1 1-1.27 1.37a.59.59 0 000-.23 2.39 2.39 0 00.24-.46.33.33 0 000-.19 5.26 5.26 0 01-1.5 1.58 1.21 1.21 0 010-.18 1.56 1.56 0 01-.89.3c0 .81-.43 1.82-2.22 1.75a5 5 0 01-1.3.71c4.74.75 8.65-2.48 10-2.47a2.33 2.33 0 002 1.69 2.14 2.14 0 002.17-1.42.36.36 0 000-.11h5a1.23 1.23 0 001.19-.66c.73 1-.19 4.28 2.16 8.33 2.12 3.64 6.37 5.83 7.93 9.2a1.62 1.62 0 00-.59.74c-.72-1.3-2.12-1.59-1.94-3.12a3.86 3.86 0 00-.47 5.33 2.67 2.67 0 00-2.68 1.89c3.12 0 4.65 1.31 5.23 2.92a4.67 4.67 0 01-1.48 5.37c.3-1.46-.79-4.36 1.37-4.84a1.94 1.94 0 00-2.92-.41 4.32 4.32 0 00-3-1.65c.51.78-.05 2.56.4 3.64a1.77 1.77 0 00-1.54 1.47 1.73 1.73 0 00.19 1.22 1.46 1.46 0 011.27-.64c.59.06 1.14.67 1.1 1.71a2.57 2.57 0 01-2.66 2.48 2.4 2.4 0 00-1.95-3.59 2.93 2.93 0 00-3.18 2.65 1.17 1.17 0 00-.61-.17H20.3a1.14 1.14 0 00-.61.17 2.93 2.93 0 00-3.18-2.65 2.4 2.4 0 00-2 3.59 2.57 2.57 0 01-2.67-2.48c0-1 .52-1.65 1.11-1.71a1.45 1.45 0 011.26.64 1.63 1.63 0 00.19-1.22 1.75 1.75 0 00-1.53-1.47c.45-1.08-.12-2.86.39-3.64a4.3 4.3 0 00-3 1.65 1.94 1.94 0 00-2.92.41c2.16.48 1.06 3.38 1.37 4.84a4.68 4.68 0 01-1.41-5.41c.59-1.61 2.12-2.89 5.23-2.92a2.66 2.66 0 00-2.67-1.89c1.32-1.74 1-4.29-.48-5.33.18 1.53-1.21 1.82-1.93 3.12a1.62 1.62 0 00-.59-.73c1.56-3.37 5.81-5.56 7.92-9.2 2.36-4.05 1.44-7.33 2.17-8.33a1.23 1.23 0 001.19.66h4.95a1.17 1.17 0 00.05.11 2.12 2.12 0 002.16 1.42 2.33 2.33 0 002-1.69c1.32 0 5.51 3.48 10.58 2.36a5.81 5.81 0 01-2.57-1.47s-1.12.1-.82-1.23a1 1 0 001 1.05 8.55 8.55 0 005.75 2.23 8.76 8.76 0 005-1.37c1.44.07 2.08-.76 2-1.72 1.08-.06 2.06-.71 1.76-2 1.33-.84 5.23 0 5-2-.1-.92-1.48-2.26-4.09-3.46A13.44 13.44 0 0043.76 10c-1.5.25-1.57 1.19-1 2.11s1.38 1.26 1.57 2.28a1.42 1.42 0 00-.81 1.44 1.53 1.53 0 00-1 1.46 5.35 5.35 0 01-5 .28.92.92 0 00-1.07-.9c.29 0 .43.43.5.71a.54.54 0 00-.49.06 1 1 0 01.56.21 6.13 6.13 0 005.67.09A3.15 3.15 0 0043 19a8.42 8.42 0 01-6.35.22 7.78 7.78 0 006.62.28 2.88 2.88 0 00.28.38c-1.82.84-5.77 1-8.07-1.06a1.34 1.34 0 01.64-1.32 1.4 1.4 0 00-.88 1c-.18-.14-.46-.86.55-1.62a2.26 2.26 0 00-.9.74 8.68 8.68 0 01-.82-.87 3.42 3.42 0 00.67 1.1l-.06.1a11.85 11.85 0 01-.91-1.35.9.9 0 01.69-.84c-.45 0-.87.47-.79.83a1 1 0 01.75-1.43 2.05 2.05 0 00-1.08.55 13.35 13.35 0 01-.59-1.87.9.9 0 01.52-.31 3.76 3.76 0 01-.27-1.37.88.88 0 00-.24 0c-.14-.62.5-.76.69-.74-.83-.25-1.64.22-1.54.68a.54.54 0 00.35.37 14.91 14.91 0 00.81 3.62.71.71 0 00.43.95 9.73 9.73 0 00.66 1.13 1.94 1.94 0 01-.83-.77c0 .11 0 .22-.06.33a4.37 4.37 0 01-1.39-2.21c-.1.25.18.88.24 1a1.42 1.42 0 010 .35 4.22 4.22 0 01-1.35-2.32.32.32 0 000 .21 5.12 5.12 0 00.24.86 1.13 1.13 0 01.08.36 1.27 1.27 0 000 .39c-.71-.57-1.35-.39-2.05-1.89a.37.37 0 000 .22c.09.21.24.49.32.66a4.13 4.13 0 00.52 1.5 2.8 2.8 0 01-1.51-1.16c0 .06.07.2.22.38.36.44.59.6.62.67a4.63 4.63 0 00.89 1.35c-2.1-1.27-5.1-3.22-5.66-1.43a1.71 1.71 0 002.4 1.93 1.64 1.64 0 01-2.35 1.18 2.19 2.19 0 01-.93-2.78A2 2 0 0026 19.4c-2.45-.1-2.58-2.69-1.86-3.23a2.69 2.69 0 00-.7.63h-5a2.65 2.65 0 00-3.51.6 2.21 2.21 0 00-.38-.59 1.41 1.41 0 01.15.86 1.6 1.6 0 00-.81-.91 2.09 2.09 0 01.67 1.09c-.07.09-.13.19-.19.28a2.46 2.46 0 00-1.07-1.45 3.1 3.1 0 01.86 1.81 2.77 2.77 0 00-.24.62 3.78 3.78 0 00-1.94-3 2.78 2.78 0 012.41.42 3.4 3.4 0 00-4.39-.28 2.51 2.51 0 00.15 4.08 1.58 1.58 0 002.07-.33 1.62 1.62 0 00-.22-2.28 1.55 1.55 0 010 1.64 1 1 0 00-.12-.65 1.34 1.34 0 01-.31 1.07 1.23 1.23 0 01-.31.14 1.28 1.28 0 00.2-.82 1 1 0 01-.81.84 1.45 1.45 0 01-1.06-1 1.54 1.54 0 002.28-1.3c-.15.59-.62.68-.89.55a.61.61 0 01-.27-.77c.21-.61 1.18-.64 1.85 0s1.28 2.33.77 4.5a3.67 3.67 0 00-1.05 0 3.11 3.11 0 01.38 2.21 2.63 2.63 0 01.51 2.67c.6-1 .75-3.39-.4-4.57.4-.08 2.26.08 1.76 2.61a2.7 2.7 0 00.25-1.68 16.44 16.44 0 01.54-3.63 10.63 10.63 0 00-.71 3.13 1.64 1.64 0 00-.14-.22 11.65 11.65 0 01.8-3.74 7 7 0 00-1 3.53 2 2 0 00-.25-.14c.13-3.55 1.74-5.77 3.8-5.25-1.28.37-1.7 2.1-1.79 3.32a13.59 13.59 0 01-1.38 6.17c-2.25 4.18-7 6.33-8.56 9.8.92.38 1.24 1.3 1.22 2.63.41-2.83 2.13-3 2.52-4.38a4.17 4.17 0 01-1.12 5.22 2.27 2.27 0 013.11.66 4.07 4.07 0 00-2 .41 5.91 5.91 0 00-3.31 4.72c-.27 2.3.42 5.53 2.54 7.24a7.51 7.51 0 01-2-5.4 5.24 5.24 0 002.26 2.88 13.91 13.91 0 01.17-4.51c0-.6 0-1.58-1.11-1.44A1.26 1.26 0 019 45.58a1.71 1.71 0 00-1.18-1.42 1.69 1.69 0 012.55.24 3.9 3.9 0 012.19-1.68c-.21.84.46 1.92-.11 3.18a1.43 1.43 0 00-.94.81 1.5 1.5 0 011.75-.41 1.35 1.35 0 01.74 1.25 1.83 1.83 0 00-3.11.63 4.2 4.2 0 00.4 3.77 4.61 4.61 0 01-.21-3.64 2 2 0 012.62-.93 1.61 1.61 0 00-1.83.78 2.74 2.74 0 001.52 4 3.16 3.16 0 003.13-.32c1.22-1 .24-3-1.2-2.19a.77.77 0 01.32 0 1.12 1.12 0 00-.36.36 1.69 1.69 0 01.54-.27.64.64 0 01.15.13 1.38 1.38 0 00-.83.63 2 2 0 01.92-.5s0 .09.06.13c-.4.12-1 .39-1.1 1a1.46 1.46 0 011.17-.8v.16A1.41 1.41 0 0015 51.6a1.51 1.51 0 01-.1-2.05 2.3 2.3 0 012.45-.55 2.61 2.61 0 011.82 2.76 3.18 3.18 0 00-.58-1.41c.34.57.2 1.24.5 1.87a2 2 0 00.06.35 1.73 1.73 0 01-.52-1.16c0 .59 0 1.58.94 1.74a1.08 1.08 0 00.18.11c-.7.12-1.29-.23-1.36-1.39-.19 1.13.53 2 1.67 1.5a.91.91 0 00.23 0 1.42 1.42 0 01-1.95-.08 1.33 1.33 0 002.18.08h.16c-.53 1.1-3.13 1.56-3-1.72a1.42 1.42 0 01-.07.22 3.67 3.67 0 01-2 1 3.16 3.16 0 001.92-.65 1.53 1.53 0 000 .3 4.92 4.92 0 01-4.34.47c1.56 1 3.73.16 4.32-.21V53c-.72.38-3.58 1.67-5.79-.6 1.44 2.37 4.75 1.52 5.83.91v.16a8.51 8.51 0 01-1.05.53 5.1 5.1 0 01-3.93-.25c-2.3-1.27-3-4.69-1.38-8.07-2.21 3.43-1.14 6.62.51 8.1a4 4 0 001.29.74c-1.55-.07-3-1.24-3.58-3.65a3.42 3.42 0 00.07.57 2.28 2.28 0 01-.64-.44 2 2 0 00.68.61l.09.32a6 6 0 01-1.35-1 4.44 4.44 0 001.43 1.25l.18.43a5.76 5.76 0 01-1.25-.9A4.22 4.22 0 0010.07 53l.17.25a3.56 3.56 0 01-1-.5 4.17 4.17 0 001.29.87A4 4 0 0011 54c-5.54-2-7.64-9.35-4-13.6-3.65 3.67-2.26 8-1.11 10.23-.83-.6-1.56-3.29-1.54-5a7.09 7.09 0 00.2 3c0-.08-.07-.15-.11-.22a8.06 8.06 0 01-.31-4.75 1.68 1.68 0 000-.47 20.89 20.89 0 01.44-4.68A12.51 12.51 0 004 43.39a3 3 0 01-.14.45 14.19 14.19 0 01.33-5.35 14 14 0 00-.6 6.41 5.31 5.31 0 00-.08.87 15.44 15.44 0 01.41-8.39c.07-.19.13-.37.2-.55 1.17.13 1.47 1 1.45 2a2.14 2.14 0 00-.36-.65 19.74 19.74 0 00-.74 4.33 14.35 14.35 0 011.07-2.6l.11-.26c1-2.24.12-3.94-1.39-3.18 1.82-4.64 4.35-5.88 4.47-7.52a1.41 1.41 0 00-1.61-1.59c.93 2.59-.41 3-2.56 7.18C-2.65 48.61 9.37 58.47 17.78 54a1.78 1.78 0 001.35.89A3.23 3.23 0 0022 53.37h38.2a3.25 3.25 0 002.85 1.51A1.78 1.78 0 0064.4 54c8.41 4.47 20.44-5.39 13.23-19.47zM72.49 18.6a.82.82 0 01-1.09.13c.83 0 1.07-1.06.32-1.64.78.29 1.05 1.11.77 1.51zm-20.95-.27c.1-.53 1-.51 1.48-.93-.1.25-.46 1-1 1.16a.06.06 0 01-.09 0 1.64 1.64 0 01.09-.27s-.21.25-.31.28-.18-.18-.17-.24zm-.09-.73c0 .2-.23 1.44-.59 1.58-.15.05-.1-.39-.08-.45a1.37 1.37 0 00-.16.32c-.07.17-.25.19-.29 0-.08-.32.78-1.05 1.12-1.45zm-2.27 1.88c.24-.49 1-1 1.16-1.24a4.93 4.93 0 01-.58 1.49c-.26.3-.43.12-.3-.26a1.11 1.11 0 00-.21.32c0 .06-.1.05-.12 0a.45.45 0 01.05-.31zm-1.33 1.43v-.05a.74.74 0 00.31-.05.87.87 0 01-.36-.06c-.07 0 0-.12.07-.15.29-.1.45.16.67.26-.38.08-.54.14-.69.05zm1-.31v-.06c0-.01.29 0 .35-.1a.61.61 0 01-.51-.11c-.07-.11.13-.27.48-.19a3.64 3.64 0 01.66.33c-.31.12-.7.27-.95.13zm1.76-.4c-.21 0-.52 0-.46-.1s.38 0 .52-.21a3 3 0 01-.55 0c-.21 0-.11-.28.15-.35.49-.15 1 .19 1.25.27a4.31 4.31 0 01-.88.39zm1.45-.78c-.27.15-.63.15-.46 0s.18-.12.26-.2a1.23 1.23 0 01-.43.13c-.15 0-.26-.07-.19-.18.23-.43 1.08-.37 1.66-.53a2.46 2.46 0 01-.81.78zm2.37-.86c-.56.23-1.16.51-1.8.8.25-.25.92-1.12 1.16-1.41a3.3 3.3 0 01-1.08.46 4.05 4.05 0 00.36-.59 12.76 12.76 0 012.78-1.27 1 1 0 01.86.08 8.92 8.92 0 00-3.69 1.52A10.2 10.2 0 0157 16.84c0 .06.11.17.14.23A6.38 6.38 0 0054 18a7.61 7.61 0 013.18-.72 1.2 1.2 0 010 .2 5.94 5.94 0 00-3.57 1.1c2.18-1 3.25-.91 3.59-.82a1.57 1.57 0 010 .23 4.84 4.84 0 00-2.74.57zm9.57 0h-4.79a2.51 2.51 0 000-.55h4.07a1.7 1.7 0 00.72-.17 1.66 1.66 0 00-.74-.16h-4.11a2.4 2.4 0 00-.12-.38h5a.64.64 0 01.63.63.63.63 0 01-.66.67zm-17.25 1.63a.75.75 0 00.39-.81 1.51 1.51 0 00.35-.2c.18.31-.01.93-.74 1.01zm1.94-1.81a.71.71 0 00.25-.76.65.65 0 00.35-.27.75.75 0 01-.6 1.03zm-.12-1c-.1 0-.19 0-.15-.14a3.69 3.69 0 011-1.21l.68.16c-.82.28-1.3 1.11-1.53 1.21zM43 10.82c.38-.73 2.7-1.19 6.51.22 3.41 1.26 5.41 3.17 4.81 4.22-.44.78-3 1.23-7.06-.44-2.99-1.23-4.84-2.92-4.26-4zm1.52 3c.89.62 1.31 3.19 3.17 3.78a3.58 3.58 0 01-2.83-1.77c-.24-.62.14-1.15-.35-2.05zM44.07 15a1.14 1.14 0 000 .72c0-.39.2-.83.48-.92v.61c.06 1.47 2.27 2.58 3.59 2.37-.7.54-2.59.17-3.6-1.09a3.75 3.75 0 002.59 1.9 5.1 5.1 0 01-2.4-1.12c-.73-.8-1.16-1.82-.66-2.47zm1.72 4.22c-1.35-.44-2.12-1.65-1.84-2.44a3 3 0 00.58.79 3 3 0 001.26 1.62zm-2.68-.93c-.61-1.15-.12-1.92.57-2.21a5.07 5.07 0 00.17.51 1.64 1.64 0 00.37 1.79 3.1 3.1 0 002.61 1.11c-.89.72-2.83-.26-3.26-1.08a3.67 3.67 0 002 1.77 3.86 3.86 0 01-2.46-1.92zm1.22 2.26a1.23 1.23 0 00.36.23 8 8 0 01-6.57 0 9.77 9.77 0 006.21-.26zm-11.07-.7c.13 0 0 .14-.35.11a4.66 4.66 0 01-1-.37c.35-.11 1-.54 1.66-.18.32.17.13.31-.24.31a3.08 3.08 0 01-.51 0 .77.77 0 00.44.1zM32.2 19c0 .12-.33.1-.57 0a3.68 3.68 0 01-.62-.32l-.32-.21a2.62 2.62 0 011.54 0c.3.14.3.35.05.35a2.89 2.89 0 01-.66-.14c.19.23.56.32.58.32zm3.42 1.64c.17 0 0 .23-.31.21.1.09.28.06.3.11a1.28 1.28 0 01-.84-.11 1.86 1.86 0 01.85-.19zm-.86-.53c.24.12.1.23-.18.23a1.76 1.76 0 01-.39 0 .65.65 0 00.36.13c.09 0 0 .1-.26.08a3.31 3.31 0 01-.78-.26 1.44 1.44 0 011.25-.16zm-.6-1.11c0 .12 0 .24-.11.2s0-.26-.12-.39c0 .25 0 .36-.1.34-.24 0-.2-.85-.32-1.22a2.73 2.73 0 01.65 1.07zm-.75-.36c0 .28-.15.27-.18.19a2.2 2.2 0 00-.23-.43c.08.42-.13.59-.33.23a7.62 7.62 0 01-.33-1.63c.22.48 1.03 1.09 1.07 1.68zm-2.14-2.43c.3.51 1 1 1 1.63a.2.2 0 01-.1.2c-.14.07-.11-.23-.28-.45 0 .06 0 .47-.12.38-.33-.18-.54-1.53-.5-1.72zm-1.51-.35c.39.44 1.19.54 1.4 1.16 0 .11 0 .26-.17.2s-.19-.18-.25-.25c0 .15-.07.21-.16.13a4 4 0 01-.82-1.2zm-.05 1.19c.56.23 1.3.33 1.59.72.1.13-.05.17-.2.14a1.18 1.18 0 01-.42-.16c.07.09.2.17.24.23s-.19.12-.44-.05a2.64 2.64 0 01-.77-.84zM25 18a1.57 1.57 0 010-.23c.34-.09 1.4-.18 3.59.82A6 6 0 0025 17.52a1.18 1.18 0 010-.2 8.07 8.07 0 013.76 1 7.43 7.43 0 00-3.69-1.25l.13-.23a10.18 10.18 0 013.94 1.31 8.89 8.89 0 00-3.7-1.52 1 1 0 01.86-.08 17.22 17.22 0 013.78 1.84l-.31.06c.57.15 1.36.86 2.17.88a3.54 3.54 0 01-.43.16l-1-.36a4.11 4.11 0 00.84.42c.43.22.7.47 1.07.61a18.71 18.71 0 01-2.09-.76 10 10 0 002.45 1 1.79 1.79 0 00.39.24 33 33 0 01-5.41-2.11A4.84 4.84 0 0025 18zm-14.19.7a.83.83 0 01-1.1-.13 1.15 1.15 0 01.77-1.51c-.77.61-.48 1.65.31 1.67zm7.37-1.39h5a2.4 2.4 0 00-.12.38h-4.13a1.66 1.66 0 00-.74.16 1.67 1.67 0 00.71.17H23a2 2 0 000 .55h-4.84a.63.63 0 01-.63-.63.63.63 0 01.63-.6zm2.12 35.48a.65.65 0 01-.67-.63.66.66 0 01.67-.63h41.59a.66.66 0 01.67.63.65.65 0 01-.67.63z"/><path d="M9.32 40.21a3.93 3.93 0 00-2.76 2.91 5.65 5.65 0 012.76-2.91zM21.44 52a3.23 3.23 0 00-.92.13 2.94 2.94 0 00.92.14h39.3a3 3 0 00.93-.14 3.25 3.25 0 00-.93-.13zM6.86 37.89a6.13 6.13 0 01-1.06 3.39 3.39 3.39 0 001.06-3.39z"/><path d="M47.02 8.14l.57-2.42.62-.18-.63 2.73-.56-.13z" class="cls-3"/><path d="M50.88 7.53a.83.83 0 01.43 1A1 1 0 0150 9h-.07a1 1 0 01-.6-.79l.37-.09a.6.6 0 00.39.59.49.49 0 00.7-.29c.16-.42-.28-.69-.53-.78l.91-.6-1.07-.39.23-.44 1.58.58v.1zM53.94 8.81l.15.06a.83.83 0 01.43 1.21 1 1 0 01-1.39.35.91.91 0 01-.49-1.26c.26-.5 1.08-.79 1.46-1 .08 0 .38-.18.38-.18l.53.3zm-.81.64a.52.52 0 00.16.72.55.55 0 00.71-.33c.14-.28.14-.59-.14-.74-.28-.14-.56.09-.7.36M56.93 10.7a.75.75 0 01.15.07.85.85 0 01.31 1.23 1 1 0 01-1.39.24.91.91 0 01-.35-1.24c.3-.48 1.15-.69 1.55-.85l.39-.15.47.32zm-.84.57a.52.52 0 00.09.73.54.54 0 00.72-.27.51.51 0 00-.07-.75c-.26-.16-.57 0-.73.29M35.32 6.59a1.3 1.3 0 01-1 1.69 1.28 1.28 0 01-1.69-1 1.3 1.3 0 011-1.72 1.32 1.32 0 011.7 1m-.66.18c-.2-.72-.58-1-1-.93s-.56.58-.37 1.29.55 1 1 .9.56-.58.38-1.26" class="cls-4"/><path d="M24.83 11.74l-1.08-.62.35 1.19zm1.44.1l-.55.41-.6-.35-.93.73.2.65-.28.22-.8-2.84.38-.28zM28.89 10.3l-1.28-2.4-.27.14.73 1.35-1.98-.66-.5.29 1.34 2.37.26-.16-.96-1.69 2.5.85.16-.09zM32.1 8.95l-.96-2.55-.28.1.54 1.44-1.87-.92-.54.23 1.02 2.52.28-.12-.73-1.81 2.36 1.17.18-.06z" class="cls-3"/><path d="M66.05 35.33a1 1 0 101 .94.95.95 0 00-1-.94m0 1.71a.77.77 0 11.77-.77.77.77 0 01-.77.73z" class="cls-4"/><path d="M65.89 36.8h-.22v-1h.39c.27 0 .43.07.43.32s-.12.25-.29.27l.27.45h-.23l-.24-.48h-.11v.44m0-.61h.2c.12 0 .17-.06.17-.14s-.07-.12-.18-.12h-.19v.26M18.66 30.45a3.41 3.41 0 00.82.63c.73.38 1.46.57 1.95.8a.72.72 0 00-.43-.78c-.47-.28-1.31-.47-2.14-.9a3 3 0 01-1.17-1 5.58 5.58 0 00.97 1.25zM21.78 26.68c-1-.28-1.71-.11-1.92.33s0 .74.41 1a.6.6 0 010-.42c.19-.41.9-.49 1.91-.21a5.12 5.12 0 011.78 1v-1.93l-.65-.74v1.92a3.93 3.93 0 00-1.53-.95z" class="cls-4"/><path d="M24.1 30.3a4.61 4.61 0 00-1.1-1.1 2.39 2.39 0 011 2.22c-.08 1.46-1.3 2.59-3.42 2.63a7.49 7.49 0 01-3.06-.59l.68.67a5.79 5.79 0 002.79.56c2.14-.09 3.48-1.42 3.55-2.78a2.63 2.63 0 00-.44-1.61zM26.67 27.45v-.63H26a2.53 2.53 0 00-1.75.68l.49.49a2.35 2.35 0 011.75-.55zM30.72 27.48a2.78 2.78 0 011.82.68l-.19-2.09-.72-.66.19 2.1a2.53 2.53 0 00-1.75-.68h-.71v4.86a3.51 3.51 0 00.51 2.17h-3.73l.66.65h3.73a3.57 3.57 0 01-.53-2.17v-4.87zM37.79 38.7v-.64H37a2.66 2.66 0 00-1.8.68l.51.49a2.44 2.44 0 011.9-.54zM41.94 38.72a2.67 2.67 0 011.81.69l-.2-2.1-.71-.66.2 2.1a2.67 2.67 0 00-1.8-.68h-.76v4.86a3.53 3.53 0 00.52 2.16h-3.74l.66.66h3.73a3.54 3.54 0 01-.51-2.18v-4.86zM57.9 43.57v-4.09a4 4 0 01.37-2.32l-.52-.51a3.6 3.6 0 00-.51 2.17v4.1a3.6 3.6 0 00.51 2.17H54l.66.66h3.73a3.54 3.54 0 01-.49-2.18zM37.74 26.82h-2.05v1.75h.66v-1.1h2.1a2.63 2.63 0 011.79.59l-.19-2-.71-.66.19 2a2.75 2.75 0 00-1.79-.58zM39.94 31.9l-.09.17-.17 1.78h-7.25l.65.65h7.21l.19-2zM36.35 30.65h1.08a2.68 2.68 0 011.79.58l-.19-2-.71-.66.19 2a2.7 2.7 0 00-1.79-.57h-1v2.42h.66zM43.76 32.41h.65v-4.18a3.89 3.89 0 01.36-2.31l-.51-.52a3.54 3.54 0 00-.51 2.18zM47.67 31.73l-.21 2.12h-6.97l.65.65h6.92l.21-2.12-.6-.65zM59.78 29.5a8.84 8.84 0 00.29-.88c-.14-.4-.26-.79-.34-1.12a11.28 11.28 0 01-.62 1.89l-.34.93h.73zM58.73 32.38h2.89a.76.76 0 000-.11c-.06-.18-.22-.54-.22-.54h-3.15s-.13.34-.2.54a1.7 1.7 0 00.05 1.58h-2.62a5.69 5.69 0 00.49-.6l.09-.88-.6-.65-.21 2.12h-7l.66.65h9.75a1.79 1.79 0 01-.15-1.58z" class="cls-4"/><path d="M65.44 32.92c-.19-.47-2.85-6.87-2.85-6.87l-1-.65s2.66 6.4 2.85 6.87a4.49 4.49 0 001 1.59h-4l.66.64h4.3a4.3 4.3 0 01-.96-1.58zM52.2 28.23a4 4 0 01.35-2.31l-.49-.52a3.54 3.54 0 00-.51 2.18v4.83h.66zM47.76 43.88a3.47 3.47 0 01-.92-2.44c-.12-2 .59-3.09 1.79-3.09a2 2 0 011.49.64 2 2 0 00-1.79-1.21c-1.19 0-2.16 1.06-2.16 3.09 0 1.69.67 2.72 1.59 3.01z" class="cls-4"/><path d="M52.82 38.55a6.48 6.48 0 00-1.59-1.37 4.28 4.28 0 012 3.69 4.54 4.54 0 01-4.86 4.51 5 5 0 01-4-1.83 6.75 6.75 0 001.55 1.56 4.69 4.69 0 002.85.88 4.87 4.87 0 005-4.71 4.11 4.11 0 00-.95-2.73z" class="cls-4"/><path d="M22.65 29a22.32 22.32 0 00-2.31-1c-.48-.23-.68-.6-.48-1s1-.61 1.92-.33a3.93 3.93 0 011.56.95v-1.91a6.75 6.75 0 00-2.89-.49 3.4 3.4 0 00-2.17.78 2.55 2.55 0 00-.9 1.89 2.3 2.3 0 001.49 2.31c.83.43 1.67.62 2.14.9a.7.7 0 01.36.95c-.24.59-1.16.74-2.17.4a4.16 4.16 0 01-1.72-1.19v2.2a7.49 7.49 0 003.06.59c2.12 0 3.34-1.17 3.42-2.63A2.41 2.41 0 0022.65 29z" class="cls-5"/><path d="M60.14 41.69a3.42 3.42 0 00.83.63c.72.38 1.46.57 2 .8a.73.73 0 00-.42-.78c-.47-.28-1.31-.46-2.15-.9a3 3 0 01-1.17-1 5.65 5.65 0 00.91 1.25zM63.27 37.91c-1-.28-1.71-.1-1.92.33a.7.7 0 00.4 1 .61.61 0 010-.42c.19-.41.9-.49 1.91-.2a4.91 4.91 0 011.79 1v-1.94l-.66-.74v1.92a4.17 4.17 0 00-1.52-.95z" class="cls-4"/><path d="M65.6 41.55a3.72 3.72 0 00-.9-.95 2.35 2.35 0 01.75 2.06c-.07 1.47-1.29 2.61-3.42 2.64a7.38 7.38 0 01-3.03-.6l.69.68a5.63 5.63 0 002.79.56c2.15-.09 3.49-1.41 3.56-2.78a2.61 2.61 0 00-.44-1.61z" class="cls-4"/><path d="M64.14 40.2a22.71 22.71 0 00-2.31-1c-.48-.21-.68-.6-.48-1s1-.61 1.92-.33a4.17 4.17 0 011.56 1v-1.93a6.77 6.77 0 00-2.9-.49 3.36 3.36 0 00-2.17.79 2.49 2.49 0 00-.89 1.89 2.27 2.27 0 001.48 2.31c.84.44 1.68.62 2.15.9a.73.73 0 01.37 1c-.24.58-1.18.75-2.18.4A4.4 4.4 0 0159 42.51v2.19a7.38 7.38 0 003.07.6c2.13 0 3.35-1.17 3.42-2.64a2.39 2.39 0 00-1.35-2.46zM58.1 33.85a1.7 1.7 0 01-.05-1.58c.07-.2.2-.54.2-.54h3.11s.16.36.22.54a1.8 1.8 0 01-.08 1.59h4a4.49 4.49 0 01-1-1.59c-.19-.47-2.85-6.87-2.85-6.87h-3.19a1.52 1.52 0 01.19 1.26s-2 5.18-2.18 5.63a4.07 4.07 0 01-1 1.57zm.65-3.53l.34-.93a11.28 11.28 0 00.62-1.89 12.36 12.36 0 00.67 1.92l.38.9z" class="cls-5"/><path d="M31.17 38.21c-.37-.29-.79-.25-1.74-.25v2.49h.66v-1.83a5.59 5.59 0 011.45.08 1 1 0 00-.37-.49zM30.19 42.39a1.35 1.35 0 01.7.14 2.45 2.45 0 00-.49-.53 1.21 1.21 0 00-.87-.26h-.1v1.16a3.79 3.79 0 00.54 2.2h-3.45a4.07 4.07 0 01-.47-.93c-.2-.47-2.86-6.87-2.86-6.87l-1-.66s2.67 6.4 2.86 6.88a4.33 4.33 0 001 1.58h-4l.65.66h7.86a3.8 3.8 0 01-.53-2.21v-1.16zM35.93 44.62c-.43-.61-.73-1-.94-1.33a6.65 6.65 0 00-1-1.23 3.54 3.54 0 00-.67-.5 2.18 2.18 0 001.6-2.12 2 2 0 00-.43-1.35 6.08 6.08 0 00-.88-.88 2.18 2.18 0 01.77 1.68 2.13 2.13 0 01-2 2.28A3.45 3.45 0 0134 42.64c.22.32.45.72.88 1.32a4.69 4.69 0 001.17 1.13h-2.44a1.68 1.68 0 01-1.24-.4 5.89 5.89 0 001 .91 2.69 2.69 0 001.24.15h2.49a4.69 4.69 0 01-1.17-1.13z" class="cls-4"/><path d="M19.34 43.63h2.89a.56.56 0 010-.12c-.1-.18-.23-.51-.23-.51h-3.15s-.13.34-.2.54a1.76 1.76 0 00.05 1.58h-2.62l.66.66h2.54a1.77 1.77 0 01-.14-1.59zM20.39 40.74c.13-.37.22-.63.29-.88a11.77 11.77 0 01-.35-1.13 13.57 13.57 0 01-.62 1.9l-.34.93h.72z" class="cls-4"/><path d="M18.7 45.09a1.76 1.76 0 01-.05-1.58c.07-.2.2-.54.2-.54H22s.17.36.23.54a1.81 1.81 0 01-.08 1.58h4a4.33 4.33 0 01-1-1.58c-.19-.48-2.86-6.88-2.86-6.88h-3.22a1.52 1.52 0 01.18 1.26s-2 5.18-2.17 5.63a4 4 0 01-1 1.57zm.66-3.53l.34-.93a13.57 13.57 0 00.62-1.9 12.1 12.1 0 00.68 1.93l.39.9zM29.88 33.85a3.51 3.51 0 01-.51-2.17v-4.86h.71a2.53 2.53 0 011.75.68l-.19-2.1H24.4l-.19 2.1a2.53 2.53 0 011.79-.67h.71v4.86a3.51 3.51 0 01-.52 2.17zM41 45.09a3.53 3.53 0 01-.51-2.17v-4.86h.76a2.67 2.67 0 011.8.68l-.2-2.1h-7.43l-.19 2.1a2.66 2.66 0 011.8-.68h.75v4.86a3.53 3.53 0 01-.52 2.17zM57.24 38.82a3.6 3.6 0 01.51-2.17H54a3.53 3.53 0 01.52 2.17v4.1a3.53 3.53 0 01-.52 2.17h3.73a3.6 3.6 0 01-.51-2.17zM38.08 32.41h-2.39V30h1a2.7 2.7 0 011.79.59l-.19-2h-2.6v-1.77h2.05a2.75 2.75 0 011.79.58l-.19-2h-6.91a3.61 3.61 0 01.51 2.18v4.1a3.58 3.58 0 01-.51 2.17h7.25l.19-2a2.7 2.7 0 01-1.79.56zM43.76 27.58a3.54 3.54 0 01.51-2.18h-3.78a3.61 3.61 0 01.51 2.18v4.1a3.58 3.58 0 01-.52 2.17h7l.21-2.12a2.79 2.79 0 01-1.8.68h-2.13zM51.55 27.58a3.54 3.54 0 01.51-2.18h-3.79a3.54 3.54 0 01.52 2.18v4.1a3.51 3.51 0 01-.52 2.17h7l.21-2.12a2.82 2.82 0 01-1.81.68h-2.13zM34.92 44c-.43-.6-.66-1-.88-1.32a3.45 3.45 0 00-1.63-1.46 2.27 2.27 0 001-4.07 4 4 0 00-2.36-.45h-4.7a3.6 3.6 0 01.52 2.17v4.1a3.6 3.6 0 01-.52 2.17H30a3.79 3.79 0 01-.54-2.2v-1.21h.1a1.21 1.21 0 01.87.26 3.58 3.58 0 01.79 1c.22.34.41.66.69 1.1a1.75 1.75 0 001.73 1h2.48a4.69 4.69 0 01-1.2-1.09zM31 40.27a3.57 3.57 0 01-1.61.18V38c.95 0 1.37 0 1.74.25a1.13 1.13 0 01.44 1 1.15 1.15 0 01-.57 1.02zM48.33 36.37a4.52 4.52 0 100 9 4.54 4.54 0 004.86-4.51c0-2.72-2.19-4.49-4.86-4.49zm0 7.61c-1.19 0-2.16-1.07-2.16-3.11s1-3.09 2.16-3.09 2.16 1.06 2.16 3.09S49.53 44 48.33 44z" class="cls-5"/><path d="M71.72 17.09c.78.29 1 1.11.78 1.51a.83.83 0 01-1.1.13c.83-.02 1.07-1.06.32-1.64zm-23 1.29a.75.75 0 00.6-1 .65.65 0 01-.35.27.71.71 0 01-.28.73zm-10.57 2.4a8 8 0 006.57 0 1.23 1.23 0 01-.36-.23 9.77 9.77 0 01-6.24.23zm-4.61-.49a3.31 3.31 0 00.78.26c.23 0 .35-.08.26-.08a.65.65 0 01-.36-.13 1.76 1.76 0 00.39 0c.28 0 .42-.11.18-.23a1.44 1.44 0 00-1.28.18zM20.3 51.53h41.59a.66.66 0 01.67.63.65.65 0 01-.67.63H20.3a.65.65 0 01-.67-.63.66.66 0 01.67-.63zm.22.63a2.94 2.94 0 00.92.14h39.3a3 3 0 00.93-.14 3.25 3.25 0 00-.93-.13h-39.3a3.23 3.23 0 00-.92.13zm15.1-31.5a1.86 1.86 0 00-.89.25 1.28 1.28 0 00.84.11s-.2 0-.3-.11c.33-.02.52-.21.35-.25zM7.86 44.16a1.69 1.69 0 012.55.24 3.9 3.9 0 012.19-1.68c-.21.84.46 1.92-.11 3.18a1.43 1.43 0 00-.94.81 1.5 1.5 0 011.75-.41 1.35 1.35 0 01.7 1.25 1.83 1.83 0 00-3.11.63 4.2 4.2 0 00.4 3.77 4.61 4.61 0 01-.21-3.64 2 2 0 012.62-.93 1.61 1.61 0 00-1.83.78 2.74 2.74 0 001.52 4 3.16 3.16 0 003.13-.32c1.22-1 .24-3-1.2-2.19a.77.77 0 01.32 0 1.12 1.12 0 00-.36.36 1.69 1.69 0 01.54-.27.64.64 0 01.15.13 1.38 1.38 0 00-.83.63 2 2 0 01.92-.5s0 .09.06.13c-.4.12-1 .39-1.1 1a1.46 1.46 0 011.17-.8v.16A1.41 1.41 0 0015 51.6a1.51 1.51 0 01-.1-2.05 2.3 2.3 0 012.45-.55 2.61 2.61 0 011.82 2.76 3.18 3.18 0 00-.58-1.41c.34.57.2 1.24.5 1.87a2 2 0 00.06.35 1.73 1.73 0 01-.52-1.16c0 .59 0 1.58.94 1.74a1.08 1.08 0 00.18.11c-.7.12-1.29-.23-1.36-1.39-.19 1.13.53 2 1.67 1.5a.91.91 0 00.23 0 1.42 1.42 0 01-1.95-.08 1.33 1.33 0 002.18.08h.16v.09c-.62 1-3.07 1.38-2.94-1.81a1.42 1.42 0 01-.07.22 3.67 3.67 0 01-2 1 3.16 3.16 0 001.92-.65 1.53 1.53 0 000 .3 4.92 4.92 0 01-4.34.47c1.56 1 3.73.16 4.32-.21V53c-.72.38-3.58 1.67-5.79-.6 1.44 2.37 4.75 1.52 5.83.91v.16a8.51 8.51 0 01-1.11.53 5.1 5.1 0 01-3.93-.25c-2.3-1.27-3-4.69-1.38-8.07-2.21 3.43-1.14 6.62.51 8.1a4 4 0 001.29.74c-1.55-.07-3-1.24-3.58-3.65a3.42 3.42 0 00.07.57 2.28 2.28 0 01-.64-.44 2 2 0 00.68.61l.09.32a6 6 0 01-1.35-1 4.44 4.44 0 001.43 1.25l.18.43a5.76 5.76 0 01-1.25-.9A4.22 4.22 0 0010.07 53l.17.25a3.56 3.56 0 01-1-.5 4.17 4.17 0 001.29.87A4 4 0 0011 54c-5.54-2-7.64-9.35-4-13.6-3.65 3.67-2.26 8-1.11 10.23-.83-.6-1.56-3.29-1.54-5a7.09 7.09 0 00.2 3c0-.08-.07-.15-.11-.22a8.06 8.06 0 01-.31-4.75 1.68 1.68 0 000-.47 20.89 20.89 0 01.44-4.68A12.51 12.51 0 004 43.39a3 3 0 01-.14.45 14.19 14.19 0 01.33-5.35 14 14 0 00-.6 6.41 5.31 5.31 0 00-.08.87 15.44 15.44 0 01.41-8.39c.07-.19.13-.37.2-.55 1.17.13 1.47 1 1.45 2a2.14 2.14 0 00-.36-.65 19.74 19.74 0 00-.74 4.33 14.35 14.35 0 011.07-2.6l.11-.26c1-2.24.12-3.94-1.39-3.18 1.82-4.64 4.35-5.88 4.47-7.52a1.67 1.67 0 00-.38-1.18 1.23 1.23 0 00-1-.42 2 2 0 011.44.47c1.69 2.28-1.88 4.56-3 7.14 2.13-3 4.23-3.84 5.7-6.69.74-1.45.6-3.63-1.06-3.89a1.7 1.7 0 011.87-.53 1 1 0 01.18.12 1 1 0 01.16.14 2.63 2.63 0 01.51 2.67c.6-1 .75-3.39-.4-4.57.4-.08 2.26.08 1.76 2.61a2.7 2.7 0 00.25-1.68 16.44 16.44 0 01.54-3.63 10.63 10.63 0 00-.71 3.13 1.64 1.64 0 00-.14-.22 11.65 11.65 0 01.8-3.74 7 7 0 00-1 3.53 2 2 0 00-.25-.14c.13-3.55 1.74-5.77 3.8-5.25-1.28.37-1.7 2.1-1.79 3.32a13.59 13.59 0 01-1.38 6.17c-2.25 4.18-7 6.33-8.56 9.8.92.38 1.24 1.3 1.22 2.63.41-2.83 2.13-3 2.52-4.38a4.17 4.17 0 01-1.12 5.22 2.27 2.27 0 013.11.66 4.07 4.07 0 00-2 .41 5.91 5.91 0 00-3.31 4.72c-.27 2.3.42 5.53 2.54 7.24a7.51 7.51 0 01-2-5.4 5.24 5.24 0 002.26 2.88 13.91 13.91 0 01.17-4.51c0-.6 0-1.58-1.11-1.44A1.26 1.26 0 019 45.58a1.71 1.71 0 00-1.14-1.42zm5.78-17.54a2.93 2.93 0 00.47-2.57 4.89 4.89 0 01-.47 2.57zm-2.43 2.93c1-1.16 2.33-3.35.85-4.94 1.16 1.85-.33 4.17-.85 4.94zm-.52 1a6.89 6.89 0 002.36-3.41 11.43 11.43 0 01-2.36 3.37zm-5 5.5a12.38 12.38 0 012.42-3.16A8.68 8.68 0 005.52 36zm1.13 1.88a6.13 6.13 0 01-1.02 3.35 3.39 3.39 0 001.06-3.39zm-.3 5.23a5.65 5.65 0 012.76-2.91 3.93 3.93 0 00-2.72 2.87zM7.45 40a5.64 5.64 0 002.38-4.71A8.92 8.92 0 017.45 40zm-1.89 6.86c0-3 .94-5.09 2-6.17-1.67 1.01-2.39 3.78-2 6.17zm4-2.75c.93 1 .11 2.61.15 3.17.1-.56 1.22-2.39-.16-3.17zm2.55 3.55a2.1 2.1 0 00-.78 2.69c-.25-1.47.27-2.44.77-2.69zm37.3-31.61a3.69 3.69 0 00-1 1.21c0 .14 0 .18.15.14s.71-.93 1.52-1.19zm13.85 1.67a1.66 1.66 0 01.74.16 1.7 1.7 0 01-.72.17h-4.07a2.51 2.51 0 010 .55H64a.63.63 0 00.63-.63.64.64 0 00-.63-.63h-5a2.4 2.4 0 01.12.38zm-30.35 2.21c.31 0 .48-.1.35-.11a.77.77 0 01-.46-.17 3.08 3.08 0 00.51 0c.37 0 .56-.14.24-.31-.67-.36-1.31.07-1.66.18a4.66 4.66 0 001.02.41zm34.61-2.23a1.57 1.57 0 01.81-.91 2 2 0 00-.67 1.09c.07.09.13.19.19.28a2.38 2.38 0 011.07-1.45 3.1 3.1 0 00-.86 1.81 2.77 2.77 0 01.24.62 3.73 3.73 0 011.94-3 2.77 2.77 0 00-2.41.42 1.18 1.18 0 00-.19.22 1.41 1.41 0 00-.15.86zm2.66 1.66a1 1 0 01.12-.65 1.27 1.27 0 00.31 1.07 1.09 1.09 0 00.31.14 1.28 1.28 0 01-.2-.82 1 1 0 00.8.84 1.47 1.47 0 001.07-1 1.53 1.53 0 01-2.28-1.3.83.83 0 00-.15.11 1.55 1.55 0 00.02 1.61zm-38-.89a2.62 2.62 0 00-1.54 0l.32.21a3.68 3.68 0 00.62.32c.24.08.62.1.57 0s-.39-.11-.58-.34a2.89 2.89 0 00.66.14c.3.02.3-.19 0-.33zm13.94 2.06a8.36 8.36 0 01-3.81 1.31 7.71 7.71 0 002.18-.28 5.22 5.22 0 001.67-.84c1.79.07 2.21-.94 2.22-1.75a1.56 1.56 0 00.89-.3 1.68 1.68 0 00.73-1.54 1.76 1.76 0 010 .46 1.78 1.78 0 01-1.79 1.22c.04.96-.6 1.79-2.04 1.72zm.58-.34c.73-.08.92-.7.74-1a1.51 1.51 0 01-.35.2.75.75 0 01-.34.8zm-1.9-4.4a3.58 3.58 0 002.83 1.77c-1.86-.59-2.28-3.16-3.17-3.78.54.9.16 1.43.39 2.01zm-.24.87c1 1.26 2.9 1.63 3.6 1.09-1.32.21-3.53-.9-3.59-2.37V15v-.23c-.28.09-.44.53-.48.92a1.14 1.14 0 010-.72c-.5.68-.12 1.7.73 2.47a5.1 5.1 0 002.4 1.12 3.75 3.75 0 01-2.61-1.9zm-.66.09c-.28.79.49 2 1.84 2.44a3 3 0 01-1.26-1.65 3 3 0 01-.48-.79zm-9.46 1.87c-.3 1.33.82 1.23.82 1.23a5.81 5.81 0 002.57 1.47 3.83 3.83 0 00.64.14 8.06 8.06 0 01-3.05-1.79 1 1 0 01-.93-1.05zM23.56 17A2 2 0 0026 19.4c-2.45-.1-2.58-2.69-1.86-3.23a2.12 2.12 0 011.53-.17 1 1 0 00-1.23.71 1.71 1.71 0 002.4 1.93 1.64 1.64 0 01-2.35 1.18 2.19 2.19 0 01-.93-2.82zm.44 2a1.46 1.46 0 002 .55 2.18 2.18 0 01-2-.55zm12.79-6.4a.71.71 0 01.09.42 1.14 1.14 0 00-.5-.56.91.91 0 00-.36.75 1.71 1.71 0 01.46.28 1.87 1.87 0 01.59-.43c.11-.35 0-.72.11-.93h-.1a1 1 0 00-.34.49zM30.48 18c.25.17.58.25.44.05s-.17-.14-.24-.23a1.18 1.18 0 00.42.16c.15 0 .3 0 .2-.14-.29-.39-1-.49-1.59-.72a2.64 2.64 0 00.77.88zM36 12.63a1.48 1.48 0 01.34-.38 1.3 1.3 0 01.31.22 1 1 0 01.33-.3.56.56 0 000-.14c-.05-.11-.09-.17-.15-.19a.24.24 0 00-.13.13v.2a.91.91 0 00-.37-.37.86.86 0 00-.36.59 1.83 1.83 0 00-.29-.06.88.88 0 01.32.3zm-3.22 1.2a13.35 13.35 0 00.59 1.87 2.05 2.05 0 011.08-.55 1 1 0 00-.75 1.43c-.08-.36.34-.82.79-.83a.9.9 0 00-.69.84 11.85 11.85 0 00.91 1.35l.06-.1a3.42 3.42 0 01-.67-1.1 8.68 8.68 0 00.82.87 2.26 2.26 0 01.9-.74c-1 .76-.73 1.48-.55 1.62a1.4 1.4 0 01.88-1 1.34 1.34 0 00-.64 1.32c2.3 2.1 6.25 1.9 8.07 1.06a2.88 2.88 0 01-.28-.38 7.78 7.78 0 01-6.62-.28A8.42 8.42 0 0043 19a3.15 3.15 0 01-.29-1.26 6.13 6.13 0 01-5.71-.08 1 1 0 00-.56-.21.54.54 0 01.49-.06c-.07-.28-.21-.7-.5-.71h-.33a1.07 1.07 0 00-.27.09 8.64 8.64 0 01-.84-.9.48.48 0 00-.33-.16.47.47 0 01.41 0 .42.42 0 00-.19-.59h-.17a.56.56 0 00-.26 0 8.73 8.73 0 01-1.18-2.81.2.2 0 01.09-.24.47.47 0 00.24-.54.76.76 0 00-.18-.1h-.02c-.23 0-.77.17-.64.74a.88.88 0 01.24 0 3.76 3.76 0 00.26 1.36.9.9 0 00-.52.3zm-3.61 4.32a10.18 10.18 0 00-3.94-1.31l-.13.23a7.43 7.43 0 013.69 1.25 8.07 8.07 0 00-3.76-1 1.18 1.18 0 000 .2 6 6 0 013.58 1.1c-2.19-1-3.25-.91-3.59-.82a1.57 1.57 0 00-.02.2 4.84 4.84 0 012.75.53 33 33 0 005.41 2.11 1.79 1.79 0 01-.39-.24 10 10 0 01-2.45-1 18.71 18.71 0 002.09.76c-.37-.14-.64-.39-1.07-.61a4.11 4.11 0 01-.84-.42l1 .36a3.54 3.54 0 00.43-.16c-.81 0-1.6-.73-2.17-.88l.31-.06a17.22 17.22 0 00-3.78-1.84 1 1 0 00-.86.08 8.89 8.89 0 013.7 1.52zM17.53 18a.63.63 0 00.63.63H23a2 2 0 010-.55h-4.1a1.67 1.67 0 01-.71-.17 1.66 1.66 0 01.74-.16H23a2.4 2.4 0 01.12-.38h-5a.63.63 0 00-.59.63zm53.34 32.35a2.09 2.09 0 00-.78-2.68c.49.24 1.02 1.21.78 2.68zM10.79 18.73c-.83 0-1.08-1.06-.33-1.64a1.15 1.15 0 00-.77 1.51.83.83 0 001.1.13zm-1.19.18a1.45 1.45 0 001.06 1 1 1 0 00.81-.84 1.28 1.28 0 01-.2.82 1.23 1.23 0 00.31-.14 1.34 1.34 0 00.31-1.07 1 1 0 01.12.65 1.55 1.55 0 000-1.64l-.15-.11a1.54 1.54 0 01-2.26 1.33zm4.29.23a2.77 2.77 0 01.24-.62 3.1 3.1 0 00-.86-1.81 2.46 2.46 0 011.07 1.45c.06-.09.12-.19.19-.28a2.09 2.09 0 00-.67-1.09 1.6 1.6 0 01.81.91 1.41 1.41 0 00-.15-.86 1.75 1.75 0 00-.19-.22 2.78 2.78 0 00-2.33-.45 3.78 3.78 0 011.89 2.97zm23.14-7zm8.38 1.1a2.51 2.51 0 00-.48-1.24 3.15 3.15 0 01.32 1.15zm27.73 32.34a1.25 1.25 0 01.77-1.45c-1.14-.14-1.16.84-1.11 1.44a13.91 13.91 0 01.2 4.51 5.24 5.24 0 002.26-2.88 7.48 7.48 0 01-2 5.4c2.13-1.71 2.82-4.94 2.55-7.24a5.91 5.91 0 00-3.31-4.72 4.09 4.09 0 00-2-.41 2.26 2.26 0 013.11-.66 4.17 4.17 0 01-1.13-5.22c.39 1.35 2.12 1.55 2.53 4.38 0-1.33.3-2.25 1.22-2.63-1.58-3.47-6.31-5.62-8.56-9.8a13.59 13.59 0 01-1.38-6.17c-.09-1.22-.51-2.95-1.79-3.32 2.06-.52 3.67 1.7 3.8 5.25a2 2 0 00-.25.14 7 7 0 00-1-3.53 11.65 11.65 0 01.8 3.74 1.64 1.64 0 00-.14.22A10.63 10.63 0 0067 19.5a16.33 16.33 0 01.53 3.63 2.72 2.72 0 00.26 1.68c-.5-2.53 1.36-2.69 1.76-2.61-1.15 1.18-1 3.54-.4 4.57a2.62 2.62 0 01.5-2.67 1.56 1.56 0 01.17-.14 1 1 0 01.18-.12 1.7 1.7 0 011.87.53c-1.66.26-1.81 2.44-1.06 3.89 1.47 2.85 3.57 3.72 5.7 6.69-1.1-2.58-4.67-4.86-3-7.14a2 2 0 011.45-.47 1.22 1.22 0 00-1 .42 1.67 1.67 0 00-.38 1.18c.11 1.64 2.64 2.88 4.46 7.52-1.51-.76-2.41.94-1.38 3.18a2 2 0 00.11.26 14.35 14.35 0 011.07 2.6 19.74 19.74 0 00-.84-4.33 1.79 1.79 0 00-.36.65c0-1 .27-1.86 1.45-2 .06.18.13.36.19.55a15.25 15.25 0 01.41 8.39 5.27 5.27 0 00-.07-.87 14.09 14.09 0 00-.62-6.4 14 14 0 01.33 5.35c0-.11-.1-.32-.13-.45a12.59 12.59 0 00-.65-4.88 21.85 21.85 0 01.45 4.68 1.68 1.68 0 000 .47 8.14 8.14 0 01-.31 4.75l-.12.22a7.06 7.06 0 00.21-3c0 1.68-.71 4.37-1.54 5 1.15-2.25 2.54-6.56-1.11-10.23 3.7 4.25 1.6 11.6-3.9 13.6a3.21 3.21 0 00.42-.41 4.2 4.2 0 001.3-.87 3.56 3.56 0 01-1 .5c0-.08.11-.16.16-.25a4 4 0 001.45-1.27 5.32 5.32 0 01-1.25.9c.07-.14.13-.28.19-.43a4.55 4.55 0 001.43-1.25 6 6 0 01-1.35 1 3 3 0 00.08-.32 1.9 1.9 0 00.68-.61 2 2 0 01-.64.41 3.4 3.4 0 00.08-.57c-.58 2.41-2 3.58-3.58 3.65a4 4 0 001.29-.74c1.65-1.48 2.72-4.67.51-8.1 1.63 3.38.92 6.8-1.38 8.07a5.1 5.1 0 01-3.93.25 8.69 8.69 0 01-1.09-.47.75.75 0 000-.16c1.08.61 4.38 1.46 5.82-.91-2.21 2.27-5.06 1-5.79.6a1.93 1.93 0 000-.24c.59.37 2.75 1.23 4.32.21a4.92 4.92 0 01-4.34-.47v-.3a3.13 3.13 0 001.92.65 3.78 3.78 0 01-2-1l-.06-.22c.13 3.19-2.32 2.84-2.94 1.81a.44.44 0 01-.05-.09h.16a1.32 1.32 0 002.17-.08 1.4 1.4 0 01-1.94.08h.24c1.14.51 1.86-.37 1.67-1.5-.08 1.16-.66 1.51-1.36 1.39l.18-.11c.93-.16 1-1.15.93-1.74a1.68 1.68 0 01-.53 1.13 1 1 0 00.06-.35c.31-.63.16-1.3.51-1.87a3.34 3.34 0 00-.57 1.41A2.62 2.62 0 0164.83 49a2.31 2.31 0 012.4.69 1.52 1.52 0 01-.1 2.05 1.42 1.42 0 00-1.19-1.11 1 1 0 010-.16 1.47 1.47 0 011.17.8c-.08-.65-.7-.92-1.1-1 0 0 0-.1.06-.13a2 2 0 01.92.5 1.38 1.38 0 00-.83-.63.86.86 0 01.14-.13 1.52 1.52 0 01.54.27 1.21 1.21 0 00-.35-.36.77.77 0 01.32 0c-1.45-.81-2.42 1.15-1.2 2.19a3.15 3.15 0 003.12.32c2.3-1 2.15-3.1 1.53-4a1.61 1.61 0 00-1.83-.78 2 2 0 012.62.93 4.58 4.58 0 01-.2 3.55 4.21 4.21 0 00.41-3.77 1.83 1.83 0 00-3.11-.63 1.33 1.33 0 01.74-1.25 1.5 1.5 0 011.75.41 1.43 1.43 0 00-.94-.81c-.57-1.26.1-2.34-.11-3.18a3.9 3.9 0 012.19 1.68 1.69 1.69 0 012.55-.24 1.74 1.74 0 00-1.19 1.42zm-4.6-19a5 5 0 01-.46-2.57 2.93 2.93 0 00.46 2.61zM71 29.55c-.51-.77-2-3.09-.84-4.94-1.52 1.59-.24 3.78.84 4.94zm.53 1a11.43 11.43 0 01-2.36-3.41 6.76 6.76 0 002.33 3.37zm5 5.5h.22a8.68 8.68 0 00-2.75-3.2A12.19 12.19 0 0176.45 36zm-5.66 14.3a2.1 2.1 0 00-.78-2.69c.49.25 1.02 1.22.78 2.69zm1.76-6.24c-1.37.78-.25 2.61-.14 3.17.04-.56-.78-2.22.14-3.17zM74.74 40a9 9 0 01-2.39-4.71A5.62 5.62 0 0074.74 40zm.89 3.12a3.93 3.93 0 00-2.76-2.91 5.65 5.65 0 012.76 2.91zm-1-2.43c1.08 1.08 2 3.15 2 6.17.37-2.39-.34-5.16-2.02-6.17zm1.77.59a6.19 6.19 0 01-1-3.39 3.4 3.4 0 00.98 3.39zM46 13.5a2.91 2.91 0 00-1-2 3.49 3.49 0 01.69 1.89zm7.15 4.32a4.05 4.05 0 01-.36.59 3.3 3.3 0 001.03-.41c-.24.29-.91 1.16-1.16 1.41.64-.29 1.24-.57 1.8-.8a4.84 4.84 0 012.75-.61 1.57 1.57 0 000-.23c-.34-.09-1.41-.18-3.59.82a5.94 5.94 0 013.57-1.1 1.2 1.2 0 000-.2A7.61 7.61 0 0054 18a6.38 6.38 0 013.11-1c0-.06-.1-.17-.14-.23a10.2 10.2 0 00-3.93 1.31 8.92 8.92 0 013.69-1.52 1 1 0 00-.86-.08 12.76 12.76 0 00-2.78 1.27zm-10.15-7c.38-.73 2.7-1.19 6.51.22 3.41 1.26 5.41 3.17 4.81 4.22-.44.78-3 1.23-7.06-.44-2.99-1.23-4.84-2.92-4.26-4zm1.92 2.23c2.3 1.65 6 2.62 7.69 2.36.49-.07.85-.22 1-.5.26-.57-.51-1.26-.51-1.26a4.17 4.17 0 00-2.22 1.27 3.3 3.3 0 011.86-1.59A13.21 13.21 0 0047.55 11a18.43 18.43 0 013.92 2c.05.06 0 .11 0 .13a3.3 3.3 0 00-1.62 1.46 6.51 6.51 0 01-2.7-.55 3.31 3.31 0 00-.46-1.66 3.85 3.85 0 01.22 1.57l-.64-.27a3.75 3.75 0 00-1.56-3s-.85.07-1 .53c-.14.27-.11.9 1.2 1.84zM37 12.16h.07zM56.52 16a2.12 2.12 0 011.51.21c.72.54.59 3.13-1.86 3.23A2 2 0 0058.63 17a2.19 2.19 0 01-.93 2.82 1.64 1.64 0 01-2.35-1.18 1.71 1.71 0 002.4-1.93 1 1 0 00-1.23-.71zm-.28 3.61a1.45 1.45 0 002-.55 2.15 2.15 0 01-2 .51zm-19.3-7.4zm2 3c.15-.44 0-.72-.27-.75.83-.34.92-1 1.16-1.05-1-.41-2 .91-2.1 1.7a.73.73 0 011.27.06zm6.58 5a3.67 3.67 0 01-2-1.77c.43.82 2.37 1.8 3.26 1.08a3.1 3.1 0 01-2.61-1.11 1.64 1.64 0 01-.37-1.79 5.07 5.07 0 01-.17-.51c-.69.29-1.18 1.06-.57 2.21a3.86 3.86 0 002.49 1.83zm4.29.32a3.64 3.64 0 00-.66-.33c-.35-.08-.55.08-.48.19a.61.61 0 00.51.11c-.06.11-.27.06-.35.1s0 0 0 .06c.3.08.69-.07 1.01-.19zm1.71-.63c-.27-.08-.76-.42-1.25-.27-.26.07-.36.31-.15.35a3 3 0 00.55 0c-.14.18-.49.16-.52.21s.25.13.46.1a4.31 4.31 0 00.94-.45zm-3 1c-.22-.1-.38-.36-.67-.26-.09 0-.14.11-.07.15a.87.87 0 00.36.06.74.74 0 01-.31.05v.05c0 .05.33-.01.71-.09zm2.91-3.26c-.34.4-1.2 1.13-1.12 1.47 0 .17.22.15.29 0a1.37 1.37 0 01.16-.32c0 .06-.07.5.08.45.38-.24.63-1.44.61-1.64zm-1.11.64c-.19.27-.92.75-1.16 1.24a.45.45 0 000 .29c0 .07.09.08.12 0a1.11 1.11 0 01.21-.32c-.13.38 0 .56.3.26a4.93 4.93 0 00.55-1.51zm1.2.09c0 .06 0 .24.17.19s.31-.28.31-.28a1.64 1.64 0 00-.09.27.06.06 0 00.09 0c.54-.16.9-.91 1-1.16-.44.43-1.36.41-1.46.94zm1.39.28c-.58.16-1.43.1-1.66.53-.07.11 0 .19.19.18a1.23 1.23 0 00.43-.13c-.08.08-.22.15-.26.2s.19.18.46 0a2.46 2.46 0 00.86-.82zm-21.64-2.4c0 .19.17 1.54.52 1.76.13.09.14-.32.12-.38.17.22.14.52.28.45a.18.18 0 00.09-.2c-.01-.59-.71-1.12-1.01-1.63zm-1.51-.35a4 4 0 00.82 1.24c.09.08.2 0 .16-.13.06.07.15.21.25.25s.2-.09.17-.2c-.16-.62-1.01-.72-1.4-1.16zm2.58 1.1a7.62 7.62 0 00.37 1.62c.2.36.41.19.33-.23a2.2 2.2 0 01.19.47c0 .08.2.09.18-.19-.04-.58-.85-1.19-1.07-1.67zm1.49 2.18c.07 0 .11-.09.1-.34.08.13 0 .37.12.39s.13-.08.11-.2a2.73 2.73 0 00-.65-1.03c.12.34.08 1.15.32 1.19z" class="cls-1"/><g clip-path="url(#clip-path)"><path d="M0 .17h81.88v60.95H0z"/></g></g></g></g></g></svg>