<svg viewBox="0 0 55.41 33.46" fill="currentColor"><defs><style>.cls-1{fill:#231f20}</style></defs><g id="Layer_2" data-name="Layer 2"><g id="Layer_1-2" data-name="Layer 1"><g id="Dark_Title_Bottom" data-name="Dark Title Bottom"><path d="M18.39 8.55c.65-.1 1 .43 1.11 1a1.39 1.39 0 01-1.19 1.61c-.81.13-1.16-.26-1.22-.66a1.74 1.74 0 011.3-1.95zM54.9 16c-1.77 2.46-4.75 6-8.29 6.6-1.83.29-3.07-.63-3.49-3.31-.72-4.65 1.76-11.6 3.28-11.84.32 0 .53.22.62.78.33 2.14-1.77 5.89-3.53 8.31-.19.25-.12.34.13.1 3.11-2.93 4.81-5.92 4.52-7.81C48 7.74 47.26 7 46.29 7.19c-2.34.37-5.51 4.92-6.06 9.9a10.49 10.49 0 000 2.62c-.47 1.74-.93 2.57-1.67 2.62-.57 0-.7-.41-.78-.77-.46-2.14.94-5.7.67-7.44-.22-1.39-2.56-1.48-4-2.43a8 8 0 00.25-3c-.11-.7-.4-1.12-.9-1A2.1 2.1 0 0032.4 10a2.77 2.77 0 001.6 2.07 81.77 81.77 0 01-2 11.44c-.32 1.18-.76 2.3-1.43 2.42-.44.08-.73-.29-.94-1.6-.74-4.64.27-20.57 2.17-24.33-2.4 1-3.55 4.58-4.26 9.55-.18 1.24-.52 4.08-.76 5.44-.66 3.76-2.48 9-4 9.19-.5.08-.77-.27-.86-.87-.26-1.66.26-4.48 1.5-7.34a15.22 15.22 0 013.22-4.81c0-.06.08-.15-.05-.1-1.95.75-4 3.16-5.07 4.91a20.85 20.85 0 00-1.62 3.47c-1.09 3-2 6.38-3.16 6.49-.73.08-.8-.42-.9-1.09-.34-2.15.5-5.58 1.1-8.06a6.09 6.09 0 00.38-2.11c0-.28-.29-.6-.89-.5a4.6 4.6 0 00-1.21.37c-.72 1.87-2.42 7.05-1.95 10 .29 1.82 1.4 2.49 2.9 2.25 2.06-.32 2.38-2.47 3.22-5.11a4.38 4.38 0 000 1.25 2.28 2.28 0 002.88 2c2.22-.35 3.46-4.36 4.41-7.6a27.72 27.72 0 00.19 5.91c.49 3.15 1.75 3.77 2.9 3.59 1.82-.28 2.06-1.55 2.53-3.18a89.78 89.78 0 002-11.4c1.31.62 1.73.95 1.82 1.51.23 1.48-1.1 5.4-.77 7.53a2.06 2.06 0 002.58 1.94c1.73-.26 2.09-1.47 2.43-3.08.57 2.25 2.26 3.78 5.62 3.25 2.77-.43 5-2.09 7.39-4.89a12.59 12.59 0 002-3.18 4.22 4.22 0 00-.47.67zM34.33 8.82a7.47 7.47 0 01-.22 2.65 1.94 1.94 0 01-.65-1.31c-.14-.87 0-2 .47-2.08.24-.08.34.35.4.74z" class="cls-1"/><path d="M16.54 4.62a14.34 14.34 0 00-1.62 2.21c-.32-1.27-1.33-3.43-3.93-3C3.9 4.92-1.18 18.22.24 27.3c.82 5.25 3.93 6.62 7.69 6a9.06 9.06 0 005.43-3.1 6.52 6.52 0 001.49-2.35 23.3 23.3 0 01-2.4 2.63 7.28 7.28 0 01-3.63 1.78c-2.54.4-3.95-1.32-4.49-4.72C3 19.19 6.38 5 11.17 4.28c1.68-.26 2.38.84 2.57 2.1a4 4 0 01-.21 2.37c-.63 1.61-1.32 3.57-1.18 4.47.05.3.46.65 1.18.54a1.17 1.17 0 00.94-.57A13.83 13.83 0 0015.11 8s0-.1.05-.15a19.66 19.66 0 011.38-3.23zM29.91 30.56c0 .26.32.43.9.34 2.06-.32 3.42-1.73 20.82-5.67.69-.16.87-.3.93-.38l-.89.14s-6.24.92-9.12 1.47c-3 .58-9.45 1.94-11.71 3.12-.64.34-.99.62-.93.98z" class="cls-1"/></g></g></g></svg>