<svg xmlns="http://www.w3.org/2000/svg" viewBox="0 0 122.25 127.36" fill="currentColor"><defs><clipPath id="clip-path"><path d="M107.09 25.52c1.15.43 1.56 1.65 1.15 2.25a1.23 1.23 0 01-1.63.19c1.24-.02 1.6-1.57.48-2.44zM72.7 27.44a1.12 1.12 0 00.89-1.53 1 1 0 01-.52.4 1.06 1.06 0 01-.37 1.13zM56.92 31a12 12 0 009.8-.05 1.85 1.85 0 01-.53-.34c-2.96 1.39-7.1 1.08-9.27.39zM50 30.29a5 5 0 001.16.39c.35 0 .54-.12.39-.12a.94.94 0 01-.53-.19 2.89 2.89 0 00.58 0c.42 0 .62-.16.26-.34-.73-.37-1.44.14-1.86.26zM30.31 77h62.1a.94.94 0 110 1.88h-62.1a.94.94 0 110-1.88zm.32.93a4.51 4.51 0 001.39.21h58.67a4.47 4.47 0 001.39-.21 4.75 4.75 0 00-1.39-.2H32a4.79 4.79 0 00-1.37.15zm22.55-47a2.75 2.75 0 00-1.33.37 2 2 0 001.26.17s.08-.05.06-.07-.3 0-.45-.16c.43-.05.72-.33.46-.39zm-41.45 35a2.53 2.53 0 013.81.36 5.8 5.8 0 013.27-2.51c-.31 1.25.68 2.88-.17 4.76a2.1 2.1 0 00-1.4 1.2 2.27 2.27 0 012.61-.62A2 2 0 0121 71a2.73 2.73 0 00-4.64 1 6.3 6.3 0 00.6 5.63 6.85 6.85 0 01-.32-5.43 2.91 2.91 0 013.92-1.4 2.4 2.4 0 00-2.74 1.17c-.92 1.37-1.16 4.44 2.28 6a4.68 4.68 0 004.66-.48c1.83-1.55.37-4.48-1.79-3.28a1.32 1.32 0 01.48.09 1.44 1.44 0 00-.53.54 2.25 2.25 0 01.8-.41.82.82 0 01.22.19 2.11 2.11 0 00-1.24.94 2.93 2.93 0 011.3-.8s.06.13.09.19c-.6.18-1.53.59-1.65 1.56a2.25 2.25 0 011.75-1.2v.25a2.06 2.06 0 00-1.77 1.65 2.25 2.25 0 01-.15-3.07 3.45 3.45 0 013.57-1 3.93 3.93 0 012.72 4.13 4.77 4.77 0 00-.88-2.11c.52.85.3 1.86.76 2.8a1.44 1.44 0 00.09.51 2.51 2.51 0 01-.78-1.73c-.06.88 0 2.37 1.4 2.6l.26.17c-1 .18-1.91-.35-2-2.08-.28 1.69.8 3 2.5 2.25a2.07 2.07 0 00.35 0h.06a2.12 2.12 0 01-2.91-.12c.69 1.4 2.63 1 3.24.12h.24a.76.76 0 01-.07.14c-.93 1.54-4.59 2.07-4.39-2.7 0 .12-.06.22-.09.33a5.68 5.68 0 01-3 1.51 4.77 4.77 0 002.87-1 3.64 3.64 0 000 .45 7.32 7.32 0 01-6.48.7c2.34 1.53 5.57.24 6.46-.31a2 2 0 000 .35c-1.08.57-5.34 2.5-8.65-.88 2.15 3.53 7.09 2.27 8.71 1.35a2 2 0 000 .24 11.62 11.62 0 01-1.61.69 7.55 7.55 0 01-5.87-.36c-3.44-1.89-4.5-7-2.06-12.06-3.31 5.15-1.71 9.87.76 12.13a5.89 5.89 0 001.93 1.1c-2.31-.1-4.49-1.86-5.36-5.46a7.13 7.13 0 00.12.86 3.23 3.23 0 01-1-.61 3 3 0 001 .91c0 .16.08.32.13.47a8.2 8.2 0 01-2-1.48 6.68 6.68 0 002.13 1.86 5.35 5.35 0 00.27.64 8.53 8.53 0 01-1.87-1.34A6.12 6.12 0 0015 79.1l.25.38a5.7 5.7 0 01-1.5-.76A6.18 6.18 0 0015.73 80a6.14 6.14 0 00.64.62c-8.22-3-11.36-14-5.89-20.33C5 65.8 7.1 72.24 8.82 75.6c-1.24-.89-2.33-4.92-2.29-7.43a10.5 10.5 0 00.3 4.43c-.06-.11-.12-.22-.17-.33a12 12 0 01-.46-7.09 3.92 3.92 0 00.06-.69 31.08 31.08 0 01.66-7 18.61 18.61 0 00-1 7.29 5.68 5.68 0 01-.21.66 21.24 21.24 0 01.5-8A20.94 20.94 0 005.34 67a8.58 8.58 0 00-.11 1.31 23 23 0 01.61-12.52l.3-.84c1.75.21 2.2 1.56 2.16 3a3.36 3.36 0 00-.53-1 29 29 0 00-1.11 6.46 21.56 21.56 0 011.59-3.88 2.7 2.7 0 00.17-.38c1.53-3.35.19-5.88-2.07-4.76 2.72-6.89 6.49-8.74 6.65-11.18a2.52 2.52 0 00-.57-1.76 1.87 1.87 0 00-1.43-.64 3.06 3.06 0 012.16.71c2.52 3.41-2.8 6.81-4.46 10.66 3.19-4.43 6.32-5.73 8.52-10 1.11-2.15.89-5.41-1.59-5.81a2.56 2.56 0 012.8-.78 1.89 1.89 0 01.27.17 1.43 1.43 0 01.24.22 3.89 3.89 0 01.75 4c.9-1.53 1.13-5.06-.59-6.83.59-.12 3.38.13 2.63 3.9a4.08 4.08 0 00.38-2.5 24.21 24.21 0 01.79-5.42 15.46 15.46 0 00-1.05 4.67 2 2 0 00-.21-.32 17.17 17.17 0 011.19-5.6 10.63 10.63 0 00-1.57 5.28 2.71 2.71 0 00-.37-.21c.19-5.3 2.6-8.61 5.68-7.84-1.92.55-2.54 3.13-2.68 5a20.16 20.16 0 01-2.06 9.2C18.45 45.51 11.39 48.72 9 53.9c1.38.58 1.85 1.94 1.83 3.93.6-4.23 3.18-4.53 3.76-6.55 2.29 4.24-1.14 7.35-1.68 7.8 1.88-.9 3.85-.52 4.64 1a6.28 6.28 0 00-3 .61 8.85 8.85 0 00-4.94 7c-.41 3.45.62 8.26 3.79 10.82a11.26 11.26 0 01-3-8.07 7.91 7.91 0 003.37 4.31A20.89 20.89 0 0114 68c.07-.89 0-2.36-1.66-2.15a1.88 1.88 0 011.14 2.17 2.57 2.57 0 00-1.75-2.09zm8.64-26.18a4.39 4.39 0 00.7-3.85 7.29 7.29 0 01-.7 3.85zm-3.63 4.37c1.57-1.72 3.48-5 1.27-7.38 1.74 2.77-.5 6.26-1.27 7.38zM16 45.55a10.27 10.27 0 003.53-5.08A17.3 17.3 0 0116 45.55zm-7.4 8.21a18.41 18.41 0 013.61-4.7 12.93 12.93 0 00-3.93 4.67 2.16 2.16 0 01.28.03zm1.69 2.81a9.39 9.39 0 01-1.59 5.07 5.09 5.09 0 001.55-5.07zm-.46 7.82A8.45 8.45 0 0113.91 60a5.85 5.85 0 00-4.12 4.39zm1.33-4.66a8.4 8.4 0 003.56-7c-.34 3.06-2.61 5.99-3.6 7zM8.3 70c0-4.5 1.41-7.59 3-9.2-2.5 1.47-3.57 5.6-3 9.2zm6-4.09c1.39 1.41.16 3.89.23 4.72.11-.88 1.78-3.63-.27-4.76zm3.8 5.3c-1.44.6-1.74 2.75-1.16 4-.4-2.21.39-3.67 1.12-4.04zM73.78 24a5.44 5.44 0 00-1.48 1.82c-.06.19.06.26.22.2.34-.15 1.07-1.39 2.27-1.78zm20.67 2.49a2.48 2.48 0 011.1.25 2.61 2.61 0 01-1.06.25H88.4a3.19 3.19 0 010 .82h7.2a.94.94 0 000-1.88h-7.47a3.69 3.69 0 01.19.56zm-45.31 3.27c.46 0 .72-.15.53-.16a1.17 1.17 0 01-.7-.26 3.4 3.4 0 00.77.05c.55 0 .83-.19.35-.45-1-.54-2 .1-2.47.26a7.19 7.19 0 001.52.56zm51.67-3.33a2.31 2.31 0 011.19-1.36 3.1 3.1 0 00-1 1.63l.28.41a3.69 3.69 0 011.6-2.17 4.58 4.58 0 00-1.28 2.72 3.92 3.92 0 01.36.92 5.61 5.61 0 012.9-4.44 4.24 4.24 0 00-3.6.62 2.77 2.77 0 00-.29.33 2.09 2.09 0 00-.22 1.29zm4 2.48a1.6 1.6 0 01.18-1 2 2 0 00.46 1.6 1.42 1.42 0 00.47.21 2 2 0 01-.3-1.23 1.52 1.52 0 001.2 1.26 2.19 2.19 0 001.59-1.53c-1.58 1.05-3.42-.51-3.41-1.95l-.22.17a2.32 2.32 0 000 2.47zm-56.69-1.33a4 4 0 00-2.29.05c.07.05.28.18.47.32a5.9 5.9 0 00.93.48c.36.13.93.15.85 0s-.58-.15-.87-.51a4.6 4.6 0 001 .22c.36-.04.37-.35-.09-.56zm20.81 3.08a12.48 12.48 0 01-5.68 1.95 11.89 11.89 0 003.26-.42A7.72 7.72 0 0069 30.93c2.67.11 3.3-1.4 3.32-2.6a2.38 2.38 0 001.33-.46 2.48 2.48 0 001-2.29 2.57 2.57 0 010 .68A2.66 2.66 0 0172 28.08c.05 1.43-.91 2.68-3.07 2.58zm.87-.52c1.09-.12 1.37-1.05 1.1-1.51a1.63 1.63 0 01-.52.3 1.09 1.09 0 01-.58 1.21zM67 23.57c.57 1.44 2.69 2.55 4.24 2.65-2.78-.88-3.42-4.71-4.74-5.65.61 1.35.13 2.14.5 3zm-.35 1.31c1.5 1.88 4.33 2.44 5.37 1.62-2 .32-5.27-1.34-5.36-3.53v-.57a1.09 1.09 0 000-.34c-.41.13-.65.79-.72 1.37a1.67 1.67 0 010-1.07c-.74 1-.18 2.54 1.09 3.68a7.6 7.6 0 003.58 1.67 5.59 5.59 0 01-4-2.83zm-1 .12c-.42 1.19.73 3 2.75 3.65a4.6 4.6 0 01-1.89-2.46 4.49 4.49 0 01-.89-1.19zm-14.16 2.8c-.45 2 1.23 1.84 1.23 1.84a8.59 8.59 0 003.85 2.19 6 6 0 00.94.21A12 12 0 0153 29.37a1.43 1.43 0 01-1.51-1.57zm-16.31-2.48A3 3 0 0038.84 29c-3.65-.16-3.84-4-2.77-4.82a3.19 3.19 0 012.26-.32 1.52 1.52 0 00-1.85 1.06 2.56 2.56 0 003.59 2.88c-.28 1.81-2 2.32-3.51 1.76s-2.07-2.48-1.38-4.24zm.58 3.08a2.19 2.19 0 003 .83 3.28 3.28 0 01-3-.83zm19.09-9.56a.89.89 0 01.13.63 1.62 1.62 0 00-.74-.84 1.37 1.37 0 00-.53 1.13 2.35 2.35 0 01.68.41 2.74 2.74 0 01.88-.64c.16-.52 0-1.08.17-1.4 0 0 0-.05-.15 0a1.55 1.55 0 00-.44.71zm-9.34 8c.37.26.86.37.65.07 0-.08-.25-.21-.35-.34a1.8 1.8 0 00.63.25c.22 0 .44 0 .3-.21-.44-.59-1.54-.74-2.38-1.08a4.16 4.16 0 001.15 1.3zm8.19-8a1.87 1.87 0 01.5-.57 2.17 2.17 0 01.47.33 1.28 1.28 0 01.49-.45V18c-.09-.16-.14-.25-.23-.28a.37.37 0 00-.19.2 1.39 1.39 0 010 .3c-.23-.35-.32-.45-.54-.55a1.32 1.32 0 00-.54.88 1.71 1.71 0 00-.43-.09 1.33 1.33 0 01.47.4zm-4.81 1.78a18.9 18.9 0 00.88 2.81 3 3 0 011.6-.83 1.45 1.45 0 00-1.12 2.14c-.11-.54.52-1.23 1.18-1.25a1.35 1.35 0 00-1 1.25 16.26 16.26 0 001.36 2l.09-.15a4.88 4.88 0 01-1-1.63 13.9 13.9 0 001.22 1.29 3.41 3.41 0 011.35-1.11c-1.51 1.15-1.1 2.22-.82 2.42a2 2 0 011.31-1.45 2 2 0 00-1 2C56.39 31.24 62.28 31 65 29.7a5.3 5.3 0 01-.43-.57c-3.28 1.55-6.85 1-9.87-.42a12.5 12.5 0 009.47-.32 4.9 4.9 0 01-.43-1.89 9.1 9.1 0 01-8.46-.13 1.51 1.51 0 00-.84-.32.79.79 0 01.73-.08c-.1-.43-.31-1-.74-1.07l-.5.05a1.36 1.36 0 00-.4.14 13 13 0 01-1.26-1.36.7.7 0 00-.48-.23.67.67 0 01.61 0 .64.64 0 00-.29-.89h-.26a1.17 1.17 0 00-.38 0 13.1 13.1 0 01-1.76-4.19.3.3 0 01.14-.36.71.71 0 00.35-.81.93.93 0 00-.27-.14.15.15 0 00-.07 0 .91.91 0 00-.95 1.1 1 1 0 01.35 0 5.6 5.6 0 00.39 2 1.26 1.26 0 00-.76.43zm-5.4 6.46a14.93 14.93 0 00-5.87-2 2.33 2.33 0 00-.2.34 10.92 10.92 0 015.51 1.87c-3-1.42-4.94-1.59-5.62-1.5a2.93 2.93 0 00-.05.29C38 26 40 26.22 42.6 27.8c-3.27-1.49-4.85-1.36-5.36-1.22v.35c1-.3 2.66.17 4.11.78a51.31 51.31 0 008.07 3.16 3.38 3.38 0 01-.56-.36A15.42 15.42 0 0145.24 29a23.83 23.83 0 003.13 1.13 15.2 15.2 0 01-1.61-.9 5.86 5.86 0 01-1.25-.63l1.49.5a4.58 4.58 0 00.66-.24c-1.21 0-2.39-1.09-3.25-1.31a3.47 3.47 0 01.47-.09 26.13 26.13 0 00-5.64-2.75 1.43 1.43 0 00-1.29.12 13.42 13.42 0 015.54 2.27zm-17.31-.27a.94.94 0 00.94.94h7.19a3.72 3.72 0 010-.82h-6.08a2.65 2.65 0 01-1.07-.25 2.51 2.51 0 011.1-.25h6.14a2.81 2.81 0 01.18-.56h-7.46a1 1 0 00-.94.96zm79.63 48.35c.59-1.26.28-3.41-1.16-4 .74.38 1.52 1.84 1.16 4.02zM16.1 28c-1.23 0-1.6-1.57-.48-2.44-1.15.43-1.56 1.65-1.15 2.25a1.23 1.23 0 001.63.19zm-1.77.28a2.19 2.19 0 001.59 1.53 1.52 1.52 0 001.2-1.26 1.89 1.89 0 01-.29 1.23 1.46 1.46 0 00.46-.21 1.93 1.93 0 00.46-1.6 1.6 1.6 0 01.18 1 2.3 2.3 0 000-2.45l-.22-.17c.05 1.38-1.8 2.94-3.38 1.89zm6.41.34a3.84 3.84 0 01.35-.92 4.56 4.56 0 00-1.27-2.72 3.71 3.71 0 011.59 2.17l.28-.41a3 3 0 00-1-1.63 2.31 2.31 0 011.21 1.36v-.05a2.09 2.09 0 00-.22-1.29c-.13-.17-.2-.24-.28-.33a4.26 4.26 0 00-3.61-.62 5.6 5.6 0 012.95 4.4zm34.55-10.5zm12.52 1.63a4 4 0 00-.73-1.86 5 5 0 01.48 1.72zm41.4 48.3a1.88 1.88 0 011.14-2.17c-1.7-.21-1.73 1.26-1.66 2.15a20.6 20.6 0 01.26 6.75 7.86 7.86 0 003.37-4.31 11.22 11.22 0 01-3 8.07c3.18-2.56 4.2-7.37 3.79-10.82a8.84 8.84 0 00-4.93-7 6.32 6.32 0 00-3-.61c.8-1.5 2.76-1.88 4.64-1-.54-.45-4-3.56-1.68-7.8.58 2 3.16 2.32 3.77 6.55 0-2 .45-3.35 1.83-3.93-2.37-5.18-9.43-8.39-12.79-14.64a20.16 20.16 0 01-2.06-9.2c-.13-1.83-.76-4.41-2.68-5 3.09-.77 5.49 2.54 5.68 7.84a2.71 2.71 0 00-.37.21 10.63 10.63 0 00-1.57-5.28 17.51 17.51 0 011.2 5.6 1.48 1.48 0 00-.21.32 15.84 15.84 0 00-1.06-4.67 24.21 24.21 0 01.79 5.42A4.15 4.15 0 00101 37c-.74-3.77 2-4 2.64-3.9-1.72 1.77-1.5 5.3-.6 6.83a3.89 3.89 0 01.75-4 1.43 1.43 0 01.24-.22 1.89 1.89 0 01.27-.17 2.56 2.56 0 012.8.78c-2.48.4-2.7 3.66-1.59 5.81 2.2 4.26 5.34 5.56 8.52 10-1.65-3.85-7-7.25-4.46-10.66a3.09 3.09 0 012.16-.71 1.88 1.88 0 00-1.47.64 2.52 2.52 0 00-.57 1.76c.18 2.44 4 4.29 6.67 11.22-2.25-1.12-3.59 1.41-2.06 4.76a2.72 2.72 0 00.16.38 21.56 21.56 0 011.59 3.88A28.87 28.87 0 00115 57a3.16 3.16 0 00-.54 1c0-1.42.42-2.77 2.16-3q.15.41.3.84a22.92 22.92 0 01.61 12.52 7.47 7.47 0 00-.11-1.31 20.9 20.9 0 00-.9-9.57 21 21 0 01.49 8 4.24 4.24 0 01-.2-.66 18.69 18.69 0 00-1-7.29 32 32 0 01.67 7 2.63 2.63 0 00.06.69 12 12 0 01-.47 7.09l-.16.33a10.67 10.67 0 00.3-4.43c0 2.51-1 6.54-2.29 7.43 1.71-3.36 3.78-9.8-1.66-15.28 5.46 6.34 2.32 17.3-5.89 20.33A6.09 6.09 0 00107 80a6.07 6.07 0 001.94-1.31 5.56 5.56 0 01-1.5.76c.09-.12.17-.25.25-.38a6 6 0 002.17-1.89 8.31 8.31 0 01-1.86 1.37 5.35 5.35 0 00.27-.64 6.7 6.7 0 002.14-1.86 8.39 8.39 0 01-2 1.48c0-.15.09-.31.12-.47a3 3 0 001-.91 3.23 3.23 0 01-1 .61 5.57 5.57 0 00.12-.86c-.86 3.6-3 5.36-5.35 5.46a6 6 0 001.93-1.1c2.46-2.22 4.06-7 .76-12.11 2.43 5.06 1.37 10.17-2.06 12.06a7.57 7.57 0 01-5.88.36 11.62 11.62 0 01-1.61-.69c0-.08 0-.16.05-.24 1.61.92 6.55 2.18 8.7-1.35-3.3 3.38-7.57 1.45-8.64.88v-.35c.89.55 4.11 1.84 6.45.31a7.33 7.33 0 01-6.48-.7 2.38 2.38 0 00-.05-.45 4.77 4.77 0 002.87 1 5.58 5.58 0 01-3-1.51c0-.11-.06-.21-.1-.33.2 4.77-3.46 4.24-4.39 2.7l-.07-.14H92c.61.87 2.55 1.28 3.25-.12a2.12 2.12 0 01-2.91.12 2 2 0 00.35 0c1.71.75 2.78-.56 2.5-2.25-.12 1.73-1 2.26-2 2.08l.26-.17c1.4-.23 1.46-1.72 1.4-2.6a2.49 2.49 0 01-.77 1.73 2.09 2.09 0 00.09-.51c.45-.94.23-2 .75-2.8a4.89 4.89 0 00-.88 2.11 3.93 3.93 0 012.72-4.13 3.47 3.47 0 013.58 1 2.28 2.28 0 01-.15 3.07 2.08 2.08 0 00-1.77-1.65 2 2 0 010-.25 2.25 2.25 0 011.75 1.2c-.12-1-1-1.38-1.64-1.56a1.11 1.11 0 01.09-.19 2.91 2.91 0 011.37.74 2.11 2.11 0 00-1.24-.94.82.82 0 01.22-.19 2.25 2.25 0 01.8.41 1.44 1.44 0 00-.53-.54 1.32 1.32 0 01.48-.09C97.63 73 96.16 75.88 98 77.43a4.68 4.68 0 004.66.48c3.44-1.56 3.21-4.63 2.28-6a2.4 2.4 0 00-2.74-1.17 2.91 2.91 0 013.92 1.4 6.85 6.85 0 01-.32 5.43 6.24 6.24 0 00.6-5.63 2.73 2.73 0 00-4.64-1 2 2 0 011.11-1.87 2.27 2.27 0 012.61.62 2.08 2.08 0 00-1.4-1.2c-.85-1.88.15-3.51-.17-4.76a5.8 5.8 0 013.27 2.51 2.53 2.53 0 013.81-.36 2.59 2.59 0 00-1.77 2.12zm-6.87-28.3a7.39 7.39 0 01-.69-3.85 4.41 4.41 0 00.69 3.85zm3.66 4.37c-.77-1.15-3-4.61-1.27-7.38-2.24 2.37-.33 5.66 1.27 7.38zm.78 1.43a17.25 17.25 0 01-3.52-5.08 10.18 10.18 0 003.49 5.08zm7.4 8.21a2.36 2.36 0 01.32 0 13 13 0 00-3.92-4.67 18.21 18.21 0 013.57 4.67zm-8.34 21.42c.59-1.26.28-3.41-1.16-4 .71.36 1.49 1.82 1.13 4zm2.64-9.31c-2 1.15-.38 3.88-.22 4.72.03-.83-1.19-3.31.19-4.72zm3.14-6.14c-1-1-3.26-3.94-3.56-7a8.43 8.43 0 003.53 7zm1.34 4.66A5.86 5.86 0 00108.8 60a8.47 8.47 0 014.13 4.39zm-1.54-3.63c1.61 1.61 3 4.7 3 9.2.58-3.56-.51-7.69-3.03-9.2zm2.66.88a9.36 9.36 0 01-1.58-5.07 5.09 5.09 0 001.55 5.07zM68.6 20.15a4.32 4.32 0 00-1.42-3 5.24 5.24 0 011 2.83zm10.69 6.46a5.85 5.85 0 01-.55.88 4.77 4.77 0 001.62-.69c-.36.43-1.36 1.73-1.73 2.11 1-.43 1.86-.86 2.69-1.2 1.45-.61 3.07-1.08 4.11-.78 0-.12 0-.24.06-.35-.52-.14-2.1-.27-5.36 1.22 2.58-1.58 4.56-1.77 5.33-1.65a1.47 1.47 0 000-.29 11.32 11.32 0 00-4.74 1.07 9.39 9.39 0 014.63-1.44 3.72 3.72 0 00-.19-.34 15 15 0 00-5.88 2 13.42 13.42 0 015.52-2.27 1.43 1.43 0 00-1.29-.12 18.54 18.54 0 00-4.16 1.89zM64.18 16.16c.57-1.1 4-1.78 9.72.32 5.09 1.88 8.08 4.74 7.19 6.3-.66 1.16-4.51 1.84-10.54-.65-4.46-1.83-7.21-4.36-6.37-5.97zm2.87 3.32c3.44 2.48 9 3.92 11.48 3.54.74-.11 1.28-.34 1.47-.76.39-.85-.76-1.87-.76-1.87s-1.2 0-3.32 1.89a5 5 0 012.78-2.38 19.72 19.72 0 00-7.7-3.55 27 27 0 015.86 3c.08.08.06.16 0 .19a4.9 4.9 0 00-2.41 2.19 9.61 9.61 0 01-4-.83 4.81 4.81 0 00-.69-2.48 6.06 6.06 0 01.34 2.34c-.31-.12-.63-.25-1-.4a5.63 5.63 0 00-2.34-4.44s-1.27.11-1.54.8c-.17.43-.12 1.36 1.83 2.76zm-11.86-1.33h.09zm29.2 5.68a3.17 3.17 0 012.25.32c1.08.8.88 4.66-2.77 4.82a3 3 0 003.67-3.65c.68 1.76-.07 3.71-1.39 4.21a2.44 2.44 0 01-3.51-1.76 2.55 2.55 0 003.59-2.88 1.51 1.51 0 00-1.84-1.06zm-.39 5.4c.23.21 2.22.79 3-.83a3.28 3.28 0 01-3 .83zM55.16 18.17zm3 4.48c.24-.66-.07-1.07-.39-1.12C59 21 59.16 20 59.52 20c-1.53-.62-2.93 1.36-3.14 2.55a1.09 1.09 0 011.8.1zM68 30.08a5.46 5.46 0 01-3-2.64c.65 1.23 3.55 2.69 4.87 1.61A4.64 4.64 0 0166 27.4a2.43 2.43 0 01-.54-2.67 6 6 0 01-.25-.76c-1 .43-1.78 1.57-.86 3.3A5.73 5.73 0 0068 30.08zm6.42.48a4.57 4.57 0 00-1-.48c-.52-.13-.82.11-.72.27a.87.87 0 00.76.17c-.08.16-.4.09-.51.15s0 0 0 .08c.41.25.98-.01 1.47-.19zm2.58-.94c-.39-.12-1.13-.62-1.85-.41-.4.12-.54.48-.23.53a3.75 3.75 0 00.82 0c-.21.28-.74.24-.78.32s.38.2.68.15a5.88 5.88 0 001.36-.59zm-4.49 1.53c-.32-.15-.56-.53-1-.4-.14.05-.21.17-.11.23a1.28 1.28 0 00.54.09 1.06 1.06 0 01-.47.08c-.06 0 0 .05 0 .07.2.1.44.04 1-.07zm4.34-4.88c-.5.61-1.78 1.69-1.66 2.2.06.26.32.22.43 0a2.08 2.08 0 01.24-.47c0 .08-.1.75.11.66.51-.23.88-2.09.84-2.39zm-1.65 1c-.28.41-1.37 1.12-1.73 1.85a.66.66 0 00-.07.44c0 .11.13.13.18 0a1.59 1.59 0 01.31-.48c-.2.56.06.83.44.39a7 7 0 00.83-2.24zm1.79.15c0 .07 0 .35.26.27s.46-.41.46-.41a2.15 2.15 0 00-.13.39c0 .06 0 .12.14.09.79-.24 1.34-1.37 1.48-1.73-.72.58-2.1.54-2.2 1.35zm2.08.41c-.87.23-2.13.15-2.48.79-.1.17.06.28.28.27a1.87 1.87 0 00.64-.2c-.11.12-.32.22-.39.3-.24.27.3.26.7.05A3.64 3.64 0 0079 27.79zm-32.39-3.57c0 .28.26 2.31.79 2.64.19.12.21-.49.18-.58.24.33.21.79.41.67a.27.27 0 00.14-.29c-.02-.88-1.06-1.7-1.52-2.44zm-2.24-.52a5.8 5.8 0 001.22 1.86c.14.11.29 0 .24-.21a1.34 1.34 0 00.37.38c.21.09.3-.14.25-.3-.31-.93-1.52-1.07-2.08-1.73zm3.84 1.65a12.75 12.75 0 00.56 2.43c.29.54.61.28.5-.34a2.83 2.83 0 01.27.69c.06.13.3.15.27-.28-.06-.89-1.27-1.8-1.6-2.5zm2.24 3.27c.09 0 .16-.14.13-.51.14.19.09.55.19.58s.19-.12.16-.31c-.16-.82-.75-1.21-1-1.6.21.56.16 1.77.52 1.84z" class="cls-1"/></clipPath><style>.cls-1{fill:#e9cc9a}.cls-2{fill:#df1d48}.cls-3,.cls-4{fill:#231f20}.cls-3{fill-rule:evenodd}.cls-5{fill:#fff}</style></defs><g id="Layer_2" data-name="Layer 2"><g id="Layer_1-2" data-name="Layer 1"><g id="Label"><path d="M82 28.31c-2 0-7.81 4.8-14.9 3.69l-.54.19a11.89 11.89 0 01-3.26.42 14 14 0 01-5.78-.61 5.93 5.93 0 01-1-.21c-7.52 1.72-13.79-3.48-15.76-3.48a3.48 3.48 0 01-3 2.52 3.18 3.18 0 01-3.24-2.12l-.06-.16h-7.4a1.87 1.87 0 01-1.78-1c-1.07 1.5.3 6.45-3.2 12.45-3.16 5.44-9.52 8.7-11.83 13.74a2.35 2.35 0 01.87 1.1c1.08-1.94 3.16-2.38 2.89-4.66 2.21 1.55 2.69 5.37.71 8a4 4 0 014 2.82c-4.65 0-6.93 1.95-7.8 4.36a7 7 0 002.21 8c-.45-2.18 1.18-6.53-2-7.23a2.91 2.91 0 014.36-.62A6.47 6.47 0 0119.88 63c-.76 1.16.08 3.82-.59 5.43a2.64 2.64 0 012.29 2.2 2.55 2.55 0 01-.28 1.82 2.21 2.21 0 00-1.89-1c-.88.09-1.71 1-1.65 2.56s1.1 3.44 4 3.69a3.57 3.57 0 012.91-5.35 4.37 4.37 0 014.74 3.95 1.88 1.88 0 01.92-.24h62.1a1.87 1.87 0 01.91.24 4.37 4.37 0 014.74-3.95 3.57 3.57 0 012.92 5.43c2.88-.25 3.92-2 4-3.69s-.77-2.47-1.66-2.56a2.19 2.19 0 00-1.88 1 2.5 2.5 0 01-.29-1.82 2.64 2.64 0 012.29-2.2c-.67-1.61.18-4.27-.59-5.43a6.45 6.45 0 014.45 2.46 2.91 2.91 0 014.36.62c-3.23.7-1.59 5-2 7.23a7 7 0 002.22-8c-.97-2.48-3.25-4.39-7.9-4.39a4 4 0 014-2.82c-2-2.59-1.51-6.41.7-8-.27 2.28 1.82 2.72 2.89 4.66a2.31 2.31 0 01.88-1.1c-2.32-5-8.67-8.3-11.83-13.74-3.51-6-2.14-10.95-3.23-12.43a1.86 1.86 0 01-1.78 1h-7.4l-.06.16a3.17 3.17 0 01-3.24 2.12A3.48 3.48 0 0182 28.31zM59.65 10.27l-1.78 2.77 2.74-1.78.75 7.83.74-7.84 2.74 1.78-1.79-2.77 4.62-.74-4.62-.75 1.79-2.76-2.74 1.77L61.36 0l-.75 7.79-2.74-1.78 1.78 2.77-4.62.75 4.62.74z" class="cls-2"/><path d="M78.53 23c.74-.11 1.28-.34 1.47-.76.39-.85-.76-1.87-.76-1.87s-1.2 0-3.32 1.89a5 5 0 012.78-2.36 19.72 19.72 0 00-7.7-3.55 27 27 0 015.86 3c.08.08.06.16 0 .19a4.9 4.9 0 00-2.41 2.19 9.61 9.61 0 01-4-.83 4.81 4.81 0 00-.69-2.48 6.06 6.06 0 01.34 2.34c-.31-.12-.63-.25-1-.4a5.63 5.63 0 00-2.34-4.44s-1.27.11-1.54.8c-.16.41-.11 1.34 1.84 2.74 3.43 2.54 9 3.94 11.47 3.54zm-11-3.41a5 5 0 00-.48-1.72 4 4 0 01.73 1.86zm.64.34a5.24 5.24 0 00-1-2.83 4.32 4.32 0 011.42 3zM14.42 43.9a3.67 3.67 0 00-1.28-2.38c2.52 3.41-2.8 6.81-4.46 10.66 3.19-4.43 6.32-5.73 8.52-10 1.11-2.15.89-5.41-1.59-5.81a2.56 2.56 0 012.8-.78 3.39 3.39 0 00-5.11 2.91c2.05-2.03 6.61 1.17 1.12 5.4zM106 44.12c-.77-1.15-3-4.61-1.27-7.38-2.24 2.37-.33 5.66 1.27 7.38zM106.75 45.55a17.25 17.25 0 01-3.52-5.08 10.18 10.18 0 003.52 5.08zM54.26 20.68c.11.85.63 3.46 2.44 4.74a4.45 4.45 0 006.52-1.64c-1.47 1.74-3.7 2.52-5.33 1.72a2.26 2.26 0 01-1.44-1.69c-.16-1.28 1.18-1.65 1.58-.84a1.39 1.39 0 01-.53.57c2 .06 2-1.83 1-2.07.78-.54.62-1.1 1.49-1.55a2 2 0 00-2.75.4c.39-.83-.13-1.89-1-1.75.75.58-.33 1.53 0 3.07a3.21 3.21 0 00-.33 2.22 8 8 0 01-1.29-3.23 1.43 1.43 0 001.08-1.31l-.2.09a4.06 4.06 0 00-.07-1.3c-.15.32 0 .88-.17 1.4a2.74 2.74 0 00-.88.64 2.35 2.35 0 00-.68-.41 1.37 1.37 0 01.53-1.13 1.62 1.62 0 01.74.84.89.89 0 00-.13-.63 1.55 1.55 0 01.44-.72 1.22 1.22 0 00-.62.5 2.17 2.17 0 00-.47-.33 1.87 1.87 0 00-.5.57 1.33 1.33 0 00-.47-.43 1.71 1.71 0 01.43.09 1.32 1.32 0 01.54-.88c.22.1.31.2.54.55a1.39 1.39 0 000-.3.37.37 0 01.19-.2c.09 0 .14.12.23.28 0-.22-.11-.46-.12-.61a1 1 0 00-.36.3 1.3 1.3 0 00-.46-.7 1.44 1.44 0 00-.44.78 1 1 0 00-.31-.28c.05.26 0 .36 0 .89a3 3 0 00-.32 0c.11.21-.15.73.23 1.36a2 2 0 00-.33 0c.17.31.41 1.01 1.22.99zm5.26-.68c-.36.06-.5 1.07-1.73 1.57.32 0 .63.46.39 1.12a1.09 1.09 0 00-1.8-.14c.21-1.23 1.62-3.21 3.14-2.55zM114.15 53.76a2.36 2.36 0 01.32 0 13 13 0 00-3.92-4.67 18.21 18.21 0 013.6 4.67z"/><path d="M109.41 38.51a3.39 3.39 0 00-5.11-2.91 2.56 2.56 0 012.8.78c-2.48.4-2.7 3.66-1.59 5.81 2.2 4.26 5.34 5.56 8.52 10-1.65-3.85-7-7.25-4.46-10.66a3.67 3.67 0 00-1.28 2.38c-5.48-4.24-.92-7.44 1.12-5.4zM8.24 53.73a2.16 2.16 0 01.32 0 18.41 18.41 0 013.61-4.7 12.93 12.93 0 00-3.93 4.7zM19.49 40.47A17.3 17.3 0 0116 45.55a10.27 10.27 0 003.49-5.08zM16.74 44.12c1.57-1.72 3.48-5 1.27-7.38 1.74 2.77-.5 6.26-1.27 7.38zM52.41 23.52a.67.67 0 00-.61 0 .7.7 0 01.48.23 13 13 0 001.26 1.36 1.36 1.36 0 01.4-.14c-.29-.25-.75-.69-.93-.88a1.08 1.08 0 00-.89-1.44.64.64 0 01.29.87zM49.86 18.05a.3.3 0 00-.14.36 13.1 13.1 0 001.76 4.19 1.17 1.17 0 01.38 0A14.08 14.08 0 0150 18.52c.57-.31.75-.9.17-1.28a.71.71 0 01-.31.81zM14.68 52.7c-.3 3.09-2.57 6-3.56 7a8.4 8.4 0 003.56-7zM87 28.4a3.28 3.28 0 01-3 .83c.2.21 2.19.77 3-.83zM102.34 39.75a7.39 7.39 0 01-.69-3.85 4.41 4.41 0 00.69 3.85zM35.76 28.4a2.19 2.19 0 003 .83 3.28 3.28 0 01-3-.83zM114.05 61.64a9.36 9.36 0 01-1.58-5.07 5.09 5.09 0 001.58 5.07zM18.06 71.17c-1.44.6-1.74 2.75-1.16 4-.36-2.17.43-3.63 1.16-4zM14.49 70.59c.15-.84 1.82-3.57-.23-4.72 1.39 1.41.16 3.89.23 4.72zM111.39 60.76c1.61 1.61 3 4.7 3 9.2.61-3.56-.48-7.69-3-9.2zM104.65 71.17c.74.37 1.52 1.81 1.16 4 .59-1.25.28-3.4-1.16-4zM108.23 70.59c.06-.83-1.16-3.31.22-4.72-2.05 1.13-.38 3.88-.22 4.72zM108 52.7a8.43 8.43 0 003.56 7c-.95-.98-3.23-3.91-3.56-7z"/><path d="M112.93 64.39A5.86 5.86 0 00108.8 60a8.47 8.47 0 014.13 4.39zM8.3 70c0-4.5 1.41-7.59 3-9.2-2.5 1.47-3.57 5.6-3 9.2zM21.07 35.9a7.29 7.29 0 01-.7 3.85 4.39 4.39 0 00.7-3.85z"/><path d="M115.91 51.56c-3.19-6.24-5.21-6.85-3.81-10.72a2.1 2.1 0 00-2.41 2.37c.18 2.44 4 4.29 6.67 11.22-2.25-1.12-3.59 1.41-2.06 4.76a2.72 2.72 0 00.16.38 21.56 21.56 0 011.59 3.88A28.87 28.87 0 00115 57a3.16 3.16 0 00-.54 1c0-1.42.42-2.77 2.16-3q.15.41.3.84a22.92 22.92 0 01.61 12.52 7.47 7.47 0 00-.11-1.31 20.9 20.9 0 00-.9-9.57 21.2 21.2 0 01.49 8 4.24 4.24 0 01-.2-.66 18.69 18.69 0 00-1-7.29 32 32 0 01.67 7 2.63 2.63 0 00.06.69 12 12 0 01-.47 7.09l-.16.33a10.67 10.67 0 00.3-4.43c0 2.51-1.06 6.54-2.29 7.43 1.71-3.36 3.78-9.8-1.66-15.28 5.46 6.34 2.32 17.3-5.89 20.33A6.09 6.09 0 00107 80a6.07 6.07 0 001.94-1.31 5.56 5.56 0 01-1.5.76c.09-.12.17-.25.25-.38a6 6 0 002.17-1.89 8.31 8.31 0 01-1.86 1.37 5.35 5.35 0 00.27-.64 6.8 6.8 0 002.14-1.86 8.39 8.39 0 01-2 1.48c0-.15.09-.31.12-.47a3 3 0 001-.91 3.23 3.23 0 01-1 .61 5.57 5.57 0 00.12-.86c-.86 3.6-3 5.36-5.35 5.46a6 6 0 001.93-1.1c2.46-2.22 4.06-7 .76-12.11 2.43 5.06 1.37 10.17-2.06 12.06a7.57 7.57 0 01-5.88.36 11.62 11.62 0 01-1.61-.69c0-.08 0-.16.05-.24 1.61.92 6.55 2.18 8.7-1.35-3.3 3.38-7.57 1.45-8.64.88v-.35c.89.55 4.11 1.84 6.45.31a7.33 7.33 0 01-6.48-.7 2.38 2.38 0 00-.05-.45 4.77 4.77 0 002.87 1 5.58 5.58 0 01-3-1.51c0-.11-.06-.21-.1-.33.21 4.9-3.67 4.2-4.46 2.56H92c.61.87 2.55 1.28 3.25-.12a2.12 2.12 0 01-2.91.12 2 2 0 00.35 0c1.71.75 2.78-.56 2.5-2.25-.12 1.73-1 2.26-2 2.08l.26-.17c1.4-.23 1.46-1.72 1.4-2.6a2.46 2.46 0 01-.78 1.73 1.71 1.71 0 00.1-.51c.45-.94.23-2 .75-2.8a4.89 4.89 0 00-.88 2.11 3.93 3.93 0 012.72-4.13 3.47 3.47 0 013.58 1 2.28 2.28 0 01-.15 3.07 2.08 2.08 0 00-1.77-1.65 2 2 0 010-.25 2.25 2.25 0 011.75 1.2c-.12-1-1-1.38-1.64-1.56a1.11 1.11 0 01.09-.19 2.91 2.91 0 011.37.74 2.11 2.11 0 00-1.24-.94.82.82 0 01.22-.19 2.25 2.25 0 01.8.41 1.44 1.44 0 00-.53-.54 1.32 1.32 0 01.48-.09C97.63 73 96.16 75.88 98 77.43a4.68 4.68 0 004.66.48c3.44-1.56 3.21-4.63 2.28-6a2.4 2.4 0 00-2.74-1.17 2.91 2.91 0 013.92 1.4 6.85 6.85 0 01-.32 5.43 6.24 6.24 0 00.6-5.63 2.73 2.73 0 00-4.64-1 2 2 0 011.11-1.87 2.27 2.27 0 012.61.62 2.08 2.08 0 00-1.4-1.2c-.85-1.88.15-3.51-.17-4.76a5.8 5.8 0 013.27 2.51 2.53 2.53 0 013.81-.36 2.59 2.59 0 00-1.77 2.12 1.9 1.9 0 011.14-2.17c-1.7-.21-1.73 1.26-1.66 2.15a20.6 20.6 0 01.26 6.75 7.86 7.86 0 003.37-4.31 11.22 11.22 0 01-3 8.07c3.18-2.56 4.2-7.37 3.79-10.82a8.84 8.84 0 00-4.93-7 6.32 6.32 0 00-3-.61c.8-1.5 2.76-1.88 4.64-1-.54-.45-4-3.56-1.68-7.8.58 2 3.16 2.32 3.77 6.55 0-2 .45-3.35 1.83-3.93-2.37-5.18-9.43-8.39-12.79-14.64a20.16 20.16 0 01-2.06-9.2c-.13-1.83-.76-4.41-2.68-5 3.09-.77 5.49 2.54 5.68 7.84a2.71 2.71 0 00-.37.21 10.63 10.63 0 00-1.57-5.28 17.51 17.51 0 011.2 5.6 1.48 1.48 0 00-.21.32 15.84 15.84 0 00-1.06-4.67 24.21 24.21 0 01.79 5.42A4.15 4.15 0 00101 37c-.74-3.77 2-4 2.64-3.9-1.72 1.77-1.5 5.3-.6 6.83a3.89 3.89 0 01.75-4 4.63 4.63 0 01.57-3.31 5.5 5.5 0 00-1.56 0c-.77-3.24-.06-5.58 1.15-6.72 1-.94 2.44-.89 2.76 0a.94.94 0 01-.4 1.16c-.4.19-1.11.06-1.34-.83 0 1.44 1.83 3 3.41 1.95a2.19 2.19 0 01-1.59 1.53 1.52 1.52 0 01-1.2-1.26 2 2 0 00.3 1.23 1.42 1.42 0 01-.47-.21 2 2 0 01-.46-1.6 1.6 1.6 0 00-.18 1 2.32 2.32 0 010-2.45 2.43 2.43 0 00-.28 3.41 2.37 2.37 0 003.17.48 3.75 3.75 0 00.21-6.09 5 5 0 00-4.5-.74 5.15 5.15 0 00-2.07 1.24 4.24 4.24 0 013.6-.62 5.61 5.61 0 00-2.9 4.44 3.92 3.92 0 00-.36-.92 4.58 4.58 0 011.28-2.72 3.69 3.69 0 00-1.6 2.17l-.33-.37a3.1 3.1 0 011-1.63 2.31 2.31 0 00-1.21 1.36v-.05a2.09 2.09 0 01.22-1.29 3.87 3.87 0 00-.57.88 4 4 0 00-5.25-.88h-7.51a3.52 3.52 0 00-1-.94c1.08.8.88 4.66-2.77 4.82a3 3 0 003.67-3.65c.68 1.76-.07 3.71-1.39 4.21a2.44 2.44 0 01-3.51-1.76 2.55 2.55 0 003.59-2.88c-.68-2.18-3.79-.64-6.65 1.07a2.68 2.68 0 00.18-.61c.14-.22.39-.67.3-.73-.94 1.53-2.4 1.49-3 1.93a2.75 2.75 0 000-.81c.16-.29.32-.57.25-.69-.61 1.17-1.45 1.51-1.89 2.05a1.3 1.3 0 000-.34 4.55 4.55 0 00.36-.69.63.63 0 00.05-.29 7.88 7.88 0 01-2.24 2.36 1.3 1.3 0 010-.27 2.38 2.38 0 01-1.33.46c0 1.2-.65 2.71-3.32 2.6A7.16 7.16 0 0167.05 32C74.14 33.11 80 28.3 82 28.31a3.48 3.48 0 003 2.52 3.17 3.17 0 003.24-2.12l.06-.16h7.4a1.86 1.86 0 001.78-1c1.02 1.5-.35 6.45 3.16 12.45 3.16 5.44 9.51 8.7 11.83 13.74a2.31 2.31 0 00-.88 1.1c-1.07-1.94-3.16-2.38-2.89-4.66-2.21 1.55-2.69 5.37-.7 8a4 4 0 00-4 2.82c4.65 0 6.93 1.95 7.81 4.36a7 7 0 01-2.22 8c.46-2.18-1.18-6.53 2-7.23a2.91 2.91 0 00-4.36-.62 6.45 6.45 0 00-4.4-2.51c.77 1.16-.08 3.82.59 5.43a2.64 2.64 0 00-2.29 2.2 2.5 2.5 0 00.29 1.82 2.19 2.19 0 011.88-1c.89.09 1.72 1 1.66 2.56s-1.11 3.44-4 3.69a3.57 3.57 0 00-2.91-5.35 4.37 4.37 0 00-4.74 3.95 1.87 1.87 0 00-.91-.24H30.31a1.88 1.88 0 00-.92.24 4.37 4.37 0 00-4.74-3.95 3.57 3.57 0 00-2.91 5.35c-2.88-.25-3.92-2-4-3.69s.77-2.47 1.65-2.56a2.21 2.21 0 011.89 1 2.55 2.55 0 00.28-1.82 2.64 2.64 0 00-2.29-2.2c.67-1.61-.17-4.27.59-5.43a6.47 6.47 0 00-4.45 2.46 2.91 2.91 0 00-4.36.62c3.23.7 1.6 5 2 7.23a7 7 0 01-2.21-8c.87-2.41 3.15-4.31 7.8-4.36a4 4 0 00-4-2.82c2-2.59 1.5-6.41-.71-8 .27 2.28-1.81 2.72-2.89 4.66a2.35 2.35 0 00-.87-1.1c2.31-5 8.67-8.3 11.83-13.74 3.5-6 2.13-10.95 3.22-12.43a1.87 1.87 0 001.78 1h7.4l.06.16a3.18 3.18 0 003.24 2.12 3.48 3.48 0 003-2.52c2 0 8.23 5.2 15.81 3.52a8.59 8.59 0 01-3.85-2.19s-1.68.15-1.23-1.84a1.43 1.43 0 001.57 1.6 12.73 12.73 0 008.6 3.32 13.2 13.2 0 007.38-2c2.16.1 3.12-1.15 3-2.58C73.58 28 75 27 74.6 25.16c2-1.26 7.81 0 7.46-3-.15-1.37-2.21-3.37-6.1-5.16-3.27-1.51-7.46-2.56-10.62-2-2.23.37-2.35 1.78-1.46 3.16s2.05 1.87 2.34 3.4A2.12 2.12 0 0065 23.65a2.27 2.27 0 00-1.57 2.19 8 8 0 01-7.4.41 1.37 1.37 0 00-1.6-1.35c.43 0 .64.64.74 1.07a.79.79 0 00-.73.08 1.51 1.51 0 01.84.32 9.1 9.1 0 008.46.13 4.9 4.9 0 00.43 1.89 12.5 12.5 0 01-9.47.32c3 1.39 6.59 2 9.87.42a5.3 5.3 0 00.43.57c-2.72 1.3-8.61 1.54-12-1.58a2 2 0 011-2 2 2 0 00-1.31 1.45c-.28-.2-.69-1.27.82-2.42a3.41 3.41 0 00-1.35 1.11 13.9 13.9 0 01-1.3-1.26 4.88 4.88 0 001 1.63l-.09.15a16.26 16.26 0 01-1.36-2 1.35 1.35 0 011-1.25c-.66 0-1.29.71-1.18 1.25a1.45 1.45 0 011.12-2.14 3 3 0 00-1.6.83 18.9 18.9 0 01-.88-2.81 1.26 1.26 0 01.77-.45 5.6 5.6 0 01-.39-2 1 1 0 00-.35 0c-.21-.92.74-1.13 1-1.1-1.24-.38-2.45.32-2.3 1a.88.88 0 00.53.55 21.48 21.48 0 001.21 5.4 1 1 0 00.66 1.42 15.8 15.8 0 001 1.7A2.85 2.85 0 0149.77 26a4 4 0 00-.1.5 6.48 6.48 0 01-2.07-3.3c-.15.37.26 1.31.35 1.53a1.58 1.58 0 010 .52 6.25 6.25 0 01-2-3.45.45.45 0 000 .3 8.58 8.58 0 00.36 1.29 1.6 1.6 0 01.12.54 2.25 2.25 0 000 .58c-1-.84-2-.58-3.06-2.82a.93.93 0 00.07.33c.13.31.35.73.48 1a6.25 6.25 0 00.77 2.25 4.28 4.28 0 01-2.26-1.74c0 .08.12.3.34.56.54.66.87.91.93 1a6.78 6.78 0 001.32 2c-3.2-2-7.68-4.89-8.52-2.22a2.56 2.56 0 003.59 2.88c-.28 1.81-2 2.32-3.51 1.76s-2.07-2.45-1.38-4.21a3 3 0 003.64 3.7c-3.65-.16-3.84-4-2.77-4.82a3.79 3.79 0 00-1 .94h-7.53a3.94 3.94 0 00-5.24.88 3.64 3.64 0 00-.58-.88 2.09 2.09 0 01.22 1.29v.05a2.31 2.31 0 00-1.21-1.36 3 3 0 011 1.63l-.28.41a3.71 3.71 0 00-1.59-2.17 4.56 4.56 0 011.27 2.72 3.84 3.84 0 00-.35.92 5.6 5.6 0 00-2.91-4.44 4.26 4.26 0 013.61.62 5.18 5.18 0 00-2.08-1.24 5 5 0 00-4.5.74 3.75 3.75 0 00.21 6.09 2.37 2.37 0 003.17-.48 2.42 2.42 0 00-.28-3.44 2.3 2.3 0 010 2.45 1.6 1.6 0 00-.18-1 1.93 1.93 0 01-.46 1.6 1.46 1.46 0 01-.46.21 1.89 1.89 0 00.29-1.23 1.52 1.52 0 01-1.2 1.26 2.19 2.19 0 01-1.59-1.53c1.58 1.05 3.43-.51 3.41-1.95-.23.89-.93 1-1.33.83A.94.94 0 0116 26c.32-.9 1.76-.95 2.76 0 1.21 1.14 1.92 3.48 1.16 6.72a5.56 5.56 0 00-1.57 0 4.63 4.63 0 01.57 3.28 3.89 3.89 0 01.75 4c.9-1.53 1.13-5.06-.59-6.83.59-.12 3.38.13 2.63 3.9a4.08 4.08 0 00.38-2.5 24.21 24.21 0 01.79-5.42 15.46 15.46 0 00-1.05 4.67 2 2 0 00-.21-.32 17.17 17.17 0 011.19-5.6 10.63 10.63 0 00-1.57 5.28 2.71 2.71 0 00-.37-.21c.19-5.3 2.6-8.61 5.68-7.84-1.92.55-2.54 3.13-2.68 5a20.16 20.16 0 01-2.06 9.2C18.45 45.51 11.39 48.72 9 53.9c1.38.58 1.85 1.94 1.83 3.93.6-4.23 3.18-4.53 3.76-6.55 2.29 4.24-1.14 7.35-1.68 7.8 1.88-.9 3.85-.52 4.64 1a6.28 6.28 0 00-3 .61 8.85 8.85 0 00-4.94 7c-.41 3.45.62 8.26 3.79 10.82a11.26 11.26 0 01-3-8.07 7.91 7.91 0 003.37 4.31A20.89 20.89 0 0114 68c.07-.89 0-2.36-1.66-2.15a1.88 1.88 0 011.14 2.17 2.57 2.57 0 00-1.77-2.12 2.53 2.53 0 013.81.36 5.8 5.8 0 013.27-2.51c-.31 1.25.68 2.88-.17 4.76a2.1 2.1 0 00-1.4 1.2 2.27 2.27 0 012.61-.62A2 2 0 0121 71a2.73 2.73 0 00-4.64 1 6.3 6.3 0 00.6 5.63 6.85 6.85 0 01-.32-5.43 2.91 2.91 0 013.92-1.4 2.4 2.4 0 00-2.74 1.17c-.92 1.37-1.16 4.44 2.28 6a4.68 4.68 0 004.66-.48c1.83-1.55.37-4.48-1.79-3.28a1.32 1.32 0 01.48.09 1.44 1.44 0 00-.53.54 2.25 2.25 0 01.8-.41.82.82 0 01.22.19 2.11 2.11 0 00-1.24.94 2.93 2.93 0 011.3-.8s.06.13.09.19c-.6.18-1.53.59-1.65 1.56a2.25 2.25 0 011.75-1.2v.25a2.06 2.06 0 00-1.77 1.65 2.25 2.25 0 01-.15-3.07 3.45 3.45 0 013.57-1 3.93 3.93 0 012.72 4.13 4.77 4.77 0 00-.88-2.11c.52.85.3 1.86.76 2.8a1.44 1.44 0 00.09.51 2.51 2.51 0 01-.78-1.73c-.06.88 0 2.37 1.4 2.6l.26.17c-1 .18-1.91-.35-2-2.08-.28 1.69.8 3 2.5 2.25a2.07 2.07 0 00.35 0h.06a2.12 2.12 0 01-2.91-.12c.69 1.4 2.63 1 3.24.12h.24c-.79 1.64-4.66 2.34-4.46-2.56 0 .12-.06.22-.09.33a5.68 5.68 0 01-3 1.51 4.77 4.77 0 002.87-1 3.64 3.64 0 000 .45 7.32 7.32 0 01-6.48.7c2.34 1.53 5.57.24 6.46-.31a2 2 0 000 .35c-1.08.57-5.34 2.5-8.65-.88 2.15 3.53 7.09 2.27 8.71 1.35a2 2 0 000 .24 11.62 11.62 0 01-1.61.69 7.55 7.55 0 01-5.87-.36c-3.44-1.89-4.5-7-2.06-12.06-3.31 5.15-1.71 9.87.76 12.13a5.89 5.89 0 001.93 1.1c-2.31-.1-4.49-1.86-5.36-5.46a7.13 7.13 0 00.12.86 3.23 3.23 0 01-1-.61 3 3 0 001 .91c0 .16.08.32.13.47a8.2 8.2 0 01-2-1.48 6.68 6.68 0 002.13 1.86 5.35 5.35 0 00.27.64 8.53 8.53 0 01-1.87-1.34A6.12 6.12 0 0015 79.1l.25.38a5.7 5.7 0 01-1.5-.76A6.18 6.18 0 0015.73 80a6.14 6.14 0 00.64.62c-8.22-3-11.36-14-5.89-20.33C5 65.8 7.1 72.24 8.82 75.6c-1.24-.89-2.33-4.92-2.29-7.43a10.5 10.5 0 00.3 4.43c-.06-.11-.12-.22-.17-.33a12 12 0 01-.46-7.09 3.92 3.92 0 00.06-.69 31.08 31.08 0 01.66-7 18.61 18.61 0 00-1 7.29 5.68 5.68 0 01-.21.66 21.24 21.24 0 01.5-8A20.94 20.94 0 005.34 67a8.58 8.58 0 00-.11 1.31 23 23 0 01.61-12.52l.3-.84c1.75.21 2.2 1.56 2.16 3a3.36 3.36 0 00-.53-1 29 29 0 00-1.11 6.46 21.56 21.56 0 011.59-3.88 2.7 2.7 0 00.17-.38c1.53-3.35.19-5.88-2.07-4.76 2.72-6.89 6.49-8.74 6.65-11.18a2.1 2.1 0 00-2.41-2.37C12 44.71 10 45.32 6.8 51.56-4 72.57 14 87.3 26.55 80.61a2.66 2.66 0 002 1.33 4.81 4.81 0 004.25-2.26h57.09a4.82 4.82 0 004.25 2.26 2.66 2.66 0 002-1.33c12.58 6.69 30.53-8.04 19.77-29.05zm-7.67-23.79a1.23 1.23 0 01-1.63.19c1.24 0 1.6-1.57.48-2.44 1.15.48 1.56 1.65 1.15 2.25zM77 27.38c.15-.81 1.53-.77 2.21-1.39-.14.36-.69 1.49-1.48 1.73-.09 0-.15 0-.14-.09a2.15 2.15 0 01.13-.39s-.31.37-.46.41-.32-.2-.26-.27zm-.14-1.11c0 .3-.33 2.16-.88 2.36-.21.09-.14-.58-.11-.66a2.08 2.08 0 00-.24.47c-.11.25-.37.29-.43 0-.2-.44 1.11-1.56 1.61-2.17zm-3.38 2.81c.36-.73 1.45-1.44 1.73-1.85a7 7 0 01-.87 2.23c-.38.44-.64.17-.44-.39a1.59 1.59 0 00-.31.48c-.05.1-.15.08-.18 0a.66.66 0 01.02-.47zm-2 2.14s-.06-.07 0-.07a1.06 1.06 0 00.47-.08 1.28 1.28 0 01-.54-.09c-.1-.06 0-.18.11-.23.43-.13.67.25 1 .4-.61.11-.85.17-1.08.07zm1.52-.47c-.07 0-.07-.06 0-.08s.43 0 .51-.15a.87.87 0 01-.76-.17c-.1-.16.2-.4.72-.27a4.57 4.57 0 011 .48c-.54.18-1.11.44-1.47.19zm2.61-.59c-.3.05-.76 0-.68-.15s.57 0 .78-.32a3.75 3.75 0 01-.82 0c-.31 0-.17-.41.23-.53.72-.21 1.46.29 1.85.41a5.88 5.88 0 01-1.37.59zM77.78 29c-.4.21-.94.22-.7-.05.07-.08.28-.18.39-.3a1.87 1.87 0 01-.64.2c-.22 0-.38-.1-.28-.27.35-.64 1.61-.56 2.48-.79A3.64 3.64 0 0177.78 29zm3.53-1.29c-.83.34-1.73.77-2.69 1.2.37-.38 1.37-1.68 1.73-2.11a4.77 4.77 0 01-1.62.69 5.85 5.85 0 00.55-.88 18.54 18.54 0 014.16-1.89 1.43 1.43 0 011.29.12 13.42 13.42 0 00-5.52 2.27 15 15 0 015.88-2 3.72 3.72 0 01.19.34 9.39 9.39 0 00-4.63 1.44 11.32 11.32 0 014.74-1.07 1.47 1.47 0 010 .29c-.77-.12-2.75.07-5.33 1.65 3.26-1.49 4.84-1.36 5.36-1.22 0 .11 0 .23-.06.35-.98-.26-2.6.21-4.05.82zm14.29.06h-7.2a3.19 3.19 0 000-.82h6.09a2.61 2.61 0 001.06-.25 2.48 2.48 0 00-1.1-.25h-6.13a3.69 3.69 0 00-.19-.56h7.47a.94.94 0 010 1.88zm-25.8 2.37a1.09 1.09 0 00.58-1.21 1.63 1.63 0 00.52-.3c.27.46-.01 1.37-1.1 1.51zm2.9-2.7a1.06 1.06 0 00.37-1.13 1 1 0 00.52-.4 1.12 1.12 0 01-.89 1.53zM72.52 26c-.16.06-.28 0-.22-.2a5.44 5.44 0 011.48-1.8l1 .24c-1.19.35-1.92 1.59-2.26 1.76zm-8.34-9.82c.57-1.1 4-1.78 9.72.32 5.09 1.88 8.08 4.74 7.19 6.3-.66 1.16-4.51 1.84-10.54-.65-4.46-1.85-7.21-4.38-6.37-5.99zm2.28 4.41c1.32.94 2 4.77 4.74 5.65-1.55-.1-3.67-1.21-4.24-2.65-.33-.88.15-1.67-.5-3.02zm-.66 1.79a1.67 1.67 0 000 1.07c.07-.58.31-1.24.72-1.37a1.09 1.09 0 010 .34v.57c.09 2.19 3.4 3.85 5.36 3.53-1 .82-3.87.26-5.37-1.62a5.59 5.59 0 003.86 2.83A7.6 7.6 0 0166.89 26c-1.27-1.1-1.83-2.63-1.09-3.64zm2.57 6.29c-2-.65-3.17-2.46-2.75-3.65a4.49 4.49 0 00.86 1.19 4.6 4.6 0 001.89 2.44zm-4-1.38c-.92-1.73-.18-2.87.86-3.3a6 6 0 00.25.76A2.43 2.43 0 0066 27.4a4.64 4.64 0 003.9 1.65c-1.32 1.08-4.22-.38-4.87-1.61a5.46 5.46 0 003 2.64 5.73 5.73 0 01-3.66-2.81zm1.82 3.37a1.93 1.93 0 00.53.34 12 12 0 01-9.8.05c2.17.64 6.31.95 9.27-.41zm-16.52-1c.19 0-.07.21-.53.16a7.19 7.19 0 01-1.52-.56c.52-.16 1.47-.8 2.47-.26.48.26.2.46-.35.45a3.4 3.4 0 01-.77-.05 1.17 1.17 0 00.7.2zm-1.59-1.21c.08.19-.49.17-.85 0a5.9 5.9 0 01-.93-.45c-.19-.14-.4-.27-.47-.32a4 4 0 012.29-.05c.46.21.45.52.07.52a4.6 4.6 0 01-1-.22c.31.31.86.37.89.46zm5.1 2.46c.26.06 0 .34-.46.31.15.13.41.08.45.16s0 .05-.06.07a2 2 0 01-1.26-.17 2.75 2.75 0 011.33-.43zm-1.29-.79c.36.18.16.34-.26.34a2.89 2.89 0 01-.58 0 .94.94 0 00.53.19c.15 0 0 .15-.39.12a5 5 0 01-1.19-.48c.42-.12 1.13-.63 1.89-.23zm-.89-1.7c0 .19 0 .36-.16.31s-.05-.39-.19-.58c0 .37 0 .53-.13.51-.36-.07-.31-1.28-.49-1.84.22.39.81.78.97 1.6zm-1.12-.53c0 .43-.21.41-.27.28a2.83 2.83 0 00-.27-.69c.11.62-.21.88-.5.34a12.75 12.75 0 01-.56-2.43c.33.7 1.54 1.61 1.6 2.5zm-3.2-3.63c.46.76 1.5 1.56 1.52 2.44a.27.27 0 01-.14.29c-.2.12-.17-.34-.41-.67 0 .09 0 .7-.18.58-.53-.33-.84-2.36-.79-2.64zm-2.24-.52c.58.66 1.77.8 2.08 1.73 0 .16 0 .39-.25.3a1.34 1.34 0 01-.37-.38c.05.23-.1.32-.24.21a5.8 5.8 0 01-1.22-1.86zm-.08 1.78c.84.34 1.94.49 2.38 1.08.14.19-.08.25-.3.21a1.8 1.8 0 01-.63-.25c.1.13.3.26.35.34.21.3-.28.19-.65-.07a4.16 4.16 0 01-1.15-1.31zm-7.07 1.41v-.35c.51-.14 2.09-.27 5.36 1.22C40 26.22 38 26 37.26 26.15a2.93 2.93 0 01.05-.29c.68-.09 2.59.08 5.62 1.5a10.92 10.92 0 00-5.51-1.87 2.33 2.33 0 01.2-.34 14.93 14.93 0 015.87 2A13.42 13.42 0 0038 24.83a1.43 1.43 0 011.29-.12 26.13 26.13 0 015.64 2.75 3.47 3.47 0 00-.47.09c.86.22 2 1.28 3.25 1.31a4.58 4.58 0 01-.66.24l-1.51-.54a5.86 5.86 0 001.25.63 15.2 15.2 0 001.61.9A23.83 23.83 0 0145.24 29a15.42 15.42 0 003.67 1.55 3.38 3.38 0 00.56.36 51.31 51.31 0 01-8.07-3.16c-1.4-.65-3.07-1.12-4.11-.82zM16.1 28a1.23 1.23 0 01-1.63-.19c-.41-.6 0-1.82 1.15-2.25-1.12.83-.75 2.38.48 2.44zm11-2.07h7.46a2.81 2.81 0 00-.18.56h-6.12a2.51 2.51 0 00-1.1.25 2.65 2.65 0 001.07.25h6.08a3.72 3.72 0 000 .82h-7.19a.94.94 0 110-1.88zm3.19 52.94a.94.94 0 110-1.88h62.1a.94.94 0 110 1.88z"/><path d="M13.91 60a5.85 5.85 0 00-4.12 4.35A8.45 8.45 0 0113.91 60zM32 77.68a4.79 4.79 0 00-1.39.2 4.51 4.51 0 001.39.21h58.69a4.47 4.47 0 001.39-.21 4.75 4.75 0 00-1.39-.2zM10.25 56.57a9.39 9.39 0 01-1.59 5.07 5.09 5.09 0 001.59-5.07z"/><path d="M70.21 12.15l.85-3.61.92-.26-.93 4.07-.84-.2z" class="cls-3"/><path d="M76 11.24a1.24 1.24 0 01.64 1.51 1.42 1.42 0 01-2 .71l-.11-.05a1.43 1.43 0 01-.89-1.19l.56-.13a.89.89 0 00.57.89.76.76 0 001.06-.45c.23-.61-.43-1-.8-1.15l1.36-.89-1.67-.59.35-.66 2.36.86v.16zM80.54 13.16a1.08 1.08 0 01.22.09 1.24 1.24 0 01.65 1.75 1.46 1.46 0 01-2.08.54 1.37 1.37 0 01-.73-1.89c.38-.75 1.61-1.18 2.18-1.48.12-.07.57-.27.57-.27l.79.45zm-1.21 1a.75.75 0 00.24 1.06.8.8 0 001-.5.76.76 0 00-.22-1.1c-.42-.21-.84.13-1 .54M85 16l.22.11a1.26 1.26 0 01.47 1.85 1.44 1.44 0 01-2.08.35 1.33 1.33 0 01-.52-1.92c.45-.71 1.71-1 2.31-1.27l.59-.21.69.47zm-1.25.86a.75.75 0 00.14 1.08c.38.24.82 0 1.07-.4a.76.76 0 00-.12-1.12c-.39-.25-.85.05-1.09.43M52.73 9.83a2.06 2.06 0 11-4 1.08 2.06 2.06 0 114-1.08m-1 .27c-.3-1.07-.87-1.54-1.45-1.38s-.84.86-.55 1.92.83 1.52 1.43 1.35.84-.87.57-1.89" class="cls-4"/><path d="M37.08 17.53l-1.61-.93.53 1.78zm2.14.14l-.82.62-.89-.52-1.39 1.08.29 1-.41.33-1.19-4.24.56-.43zM43.14 15.38l-1.92-3.58-.41.2 1.1 2.03-2.96-.99-.75.43 2 3.54.39-.24-1.43-2.53 3.73 1.27.25-.13zM47.93 13.36L46.5 9.55l-.43.16.81 2.15-2.79-1.37-.8.33 1.51 3.77.42-.18-1.08-2.7 3.52 1.75.27-.1z" class="cls-3"/><path d="M98.62 52.75a1.42 1.42 0 101.43 1.41 1.42 1.42 0 00-1.43-1.41m0 2.55a1.14 1.14 0 111.14-1.14 1.14 1.14 0 01-1.14 1.14z" class="cls-4"/><path d="M98.39 55h-.34v-1.61h.59c.4 0 .63.11.63.48s-.17.38-.43.4l.41.68h-.35l-.35-.66h-.16V55m0-.92h.29c.18 0 .25-.08.25-.2s-.11-.19-.26-.19h-.28V54M27.86 45.47a5.08 5.08 0 001.23.93c1.08.57 2.17.85 2.9 1.2a1.09 1.09 0 00-.62-1.17c-.7-.42-2-.7-3.2-1.34a4.45 4.45 0 01-1.74-1.45 8.31 8.31 0 001.43 1.83zM32.52 39.84c-1.44-.42-2.55-.17-2.87.48a1.07 1.07 0 00.61 1.46.89.89 0 010-.63c.29-.61 1.35-.73 2.85-.31a7.47 7.47 0 012.67 1.52v-2.87l-1-1.11v2.87a6.05 6.05 0 00-2.26-1.41z" class="cls-4"/><path d="M36 45.24a6.64 6.64 0 00-1.61-1.64 3.55 3.55 0 011.4 3.31c-.11 2.19-1.93 3.87-5.1 3.93A11 11 0 0126.1 50l1 1a8.44 8.44 0 004.16.83c3.2-.13 5.2-2.11 5.3-4.14a3.89 3.89 0 00-.56-2.45zM39.82 41v-1h-1.06a3.84 3.84 0 00-2.62 1l.74.73A3.58 3.58 0 0139.5 41zM45.87 41a4.09 4.09 0 012.71 1l-.28-3.13-1.07-1 .28 3.13a3.82 3.82 0 00-2.62-1h-1v7.25a5.31 5.31 0 00.76 3.26H39l1 1h5.58a5.27 5.27 0 01-.76-3.24v-7.26zM56.42 57.79v-1H55.3a4 4 0 00-2.69 1l.76.73c1-.86 1.59-.74 2.84-.79zM62.63 57.81a4 4 0 012.69 1l-.32-3.1-1.06-1 .29 3.13a4 4 0 00-2.69-1h-1.12v7.26a5.27 5.27 0 00.76 3.24h-5.55l1 1h5.57a5.25 5.25 0 01-.76-3.24v-7.26zM86.45 65.06V59c0-1.63 0-2.45.55-3.46l-.77-.77a5.34 5.34 0 00-.76 3.23v6.12a5.34 5.34 0 00.76 3.24h-5.57l1 1h5.57a5.32 5.32 0 01-.78-3.3zM56.34 40h-3.05v2.62h1V41h3.14a3.9 3.9 0 012.67.88l-.28-3-1.07-1 .29 3a4 4 0 00-2.7-.88zM59.64 47.62l-.14.26-.26 2.67H48.41l1 1h10.75l.29-3zM54.27 45.76h1.62a4 4 0 012.67.86l-.28-3-1.07-1 .29 3a4.06 4.06 0 00-2.68-.88h-1.53v3.62h1zM65.33 48.39h1v-6.24c0-1.61-.07-2.49.54-3.45l-.76-.77a5.25 5.25 0 00-.76 3.24zM71.18 47.37l-.31 3.18H60.45l.98.97h10.33l.32-3.17-.9-.98zM89.26 44c.19-.54.33-.92.44-1.31a14.94 14.94 0 01-.52-1.68 18.18 18.18 0 01-.93 2.82l-.5 1.39h1.08zM87.69 48.35H92a1.42 1.42 0 000-.16c-.09-.27-.34-.81-.34-.81H87s-.2.51-.3.81a2.6 2.6 0 00.08 2.36h-3.94a7.91 7.91 0 00.73-.88l.13-1.32-.89-1-.31 3.18H72.08l1 1h14.53a2.64 2.64 0 01-.22-2.36z" class="cls-4"/><path d="M97.71 49.16c-.29-.71-4.26-10.26-4.26-10.26l-1.42-1s4 9.57 4.26 10.27a6.56 6.56 0 001.53 2.36h-6l1 1h6.42a6.29 6.29 0 01-1.53-2.37zM77.94 42.15c0-1.61-.07-2.43.52-3.44l-.73-.78a5.25 5.25 0 00-.73 3.24v7.22h1zM71.31 65.52a5.18 5.18 0 01-1.37-3.65c-.18-2.94.88-4.62 2.67-4.62a2.94 2.94 0 012.22 1 2.92 2.92 0 00-2.66-1.81c-1.78 0-3.23 1.58-3.23 4.62 0 2.49 1 4.03 2.37 4.46z" class="cls-4"/><path d="M78.87 57.56a9.87 9.87 0 00-2.37-2A6.39 6.39 0 0179.42 61c0 4.08-3.25 6.73-7.25 6.73a7.35 7.35 0 01-6-2.74 9.8 9.8 0 002.3 2.33 7.08 7.08 0 004.26 1.32 7.28 7.28 0 007.55-7 6.14 6.14 0 00-1.41-4.08z" class="cls-4"/><path d="M33.81 43.23a34.67 34.67 0 00-3.44-1.4c-.71-.33-1-.89-.72-1.51s1.43-.9 2.87-.48a6.05 6.05 0 012.33 1.41v-2.87a10.14 10.14 0 00-4.32-.73 5.16 5.16 0 00-3.24 1.17A3.75 3.75 0 0026 41.65c-.05 1.65.62 2.6 2.21 3.44 1.24.64 2.5.92 3.2 1.34a1.07 1.07 0 01.54 1.42c-.35.88-1.74 1.11-3.24.6a6.26 6.26 0 01-2.57-1.78V50a11 11 0 004.57.89c3.17-.06 5-1.74 5.1-3.93a3.6 3.6 0 00-2-3.73z" class="cls-5"/><path d="M89.8 62.25a5.31 5.31 0 001.23.94c1.08.57 2.18.85 2.91 1.2a1.08 1.08 0 00-.62-1.17c-.71-.41-2-.7-3.21-1.35a4.42 4.42 0 01-1.75-1.46 8.4 8.4 0 001.44 1.84zM94.47 56.61c-1.44-.42-2.55-.16-2.87.49a1 1 0 00.6 1.44.87.87 0 01.06-.63c.28-.6 1.35-.72 2.85-.29a7.15 7.15 0 012.67 1.51v-2.87l-1-1.1V58a6.23 6.23 0 00-2.31-1.39z" class="cls-4"/><path d="M97.94 62a5.38 5.38 0 00-1.33-1.42 3.58 3.58 0 011.12 3.07c-.11 2.2-1.94 3.9-5.11 4a10.86 10.86 0 01-4.58-.9l1 1a8.48 8.48 0 004.17.83c3.21-.13 5.21-2.11 5.32-4.15a3.91 3.91 0 00-.59-2.43z" class="cls-4"/><path d="M95.77 60a33.8 33.8 0 00-3.45-1.42c-.72-.32-1-.89-.72-1.5s1.43-.91 2.87-.49A6.23 6.23 0 0196.8 58v-2.84a9.87 9.87 0 00-4.33-.73 5 5 0 00-3.25 1.17 3.8 3.8 0 00-1.33 2.82c0 1.66.62 2.6 2.22 3.45 1.24.65 2.5.94 3.21 1.35a1.07 1.07 0 01.54 1.43c-.35.86-1.75 1.11-3.25.6A6.45 6.45 0 0188 63.47v3.27a10.86 10.86 0 004.58.9c3.17 0 5-1.75 5.11-4A3.58 3.58 0 0095.77 60zM86.75 50.55a2.6 2.6 0 01-.08-2.36c.1-.3.3-.81.3-.81h4.64s.25.54.34.81a2.68 2.68 0 01-.12 2.36h6a6.56 6.56 0 01-1.53-2.36c-.3-.7-4.3-10.27-4.3-10.27h-4.71a2.29 2.29 0 01.28 1.89s-3 7.74-3.25 8.4a6 6 0 01-1.48 2.34zm1-5.28l.5-1.39a18.18 18.18 0 00.93-2.82 16.59 16.59 0 001 2.88l.58 1.33z" class="cls-5"/><path d="M46.55 57.05c-.56-.43-1.19-.37-2.61-.37v3.72h1v-2.73a8.32 8.32 0 012.17.12 1.57 1.57 0 00-.56-.74zM45.07 63.29a2 2 0 011 .22 3.9 3.9 0 00-.73-.82 1.87 1.87 0 00-1.3-.39h-.15V64a5.62 5.62 0 00.81 3.28h-5.1a6.48 6.48 0 01-.71-1.38l-4.26-10.22-1.42-1s4 9.56 4.27 10.27A6.29 6.29 0 0039 67.32h-6l1 1h11.72a5.67 5.67 0 01-.8-3.28v-1.75zM53.65 66.62c-.64-.9-1.09-1.51-1.41-2a10.4 10.4 0 00-1.47-1.83 5.73 5.73 0 00-1-.74 3.26 3.26 0 002.38-3.17 3.07 3.07 0 00-.64-2 8.18 8.18 0 00-1.32-1.31 3.38 3.38 0 01-1.79 5.9 5.14 5.14 0 012.44 2.19c.32.47.67 1.06 1.31 2a7.08 7.08 0 001.75 1.68h-3.72a2.5 2.5 0 01-1.85-.6 8.18 8.18 0 001.52 1.37 4 4 0 001.84.22h3.7a6.85 6.85 0 01-1.74-1.71z" class="cls-4"/><path d="M28.87 65.14h4.31a1.21 1.21 0 000-.18c-.09-.26-.34-.81-.34-.81h-4.69s-.2.52-.3.81a2.57 2.57 0 00.08 2.36H24l1 1h3.79a2.64 2.64 0 01-.22-2.36zM30.44 60.82c.19-.54.33-.94.44-1.3a13.74 13.74 0 01-.52-1.69 19 19 0 01-.93 2.83l-.5 1.39H30z" class="cls-4"/><path d="M27.93 67.32a2.57 2.57 0 01-.08-2.32c.1-.29.3-.81.3-.81h4.64s.25.55.34.81a2.68 2.68 0 01-.13 2.32h6A6.29 6.29 0 0137.48 65c-.29-.71-4.27-10.27-4.27-10.27h-4.74a2.25 2.25 0 01.27 1.89S25.79 64.31 25.5 65a5.86 5.86 0 01-1.5 2.32zm1-5.27l.5-1.39a19 19 0 00.93-2.83 16.88 16.88 0 001 2.88l.57 1.34zM44.61 50.55a5.31 5.31 0 01-.76-3.26v-7.25h1a3.82 3.82 0 012.62 1l-.28-3.13H36.43l-.29 3.13a3.84 3.84 0 012.62-1h1.05v7.25a5.39 5.39 0 01-.81 3.26zM61.21 67.32a5.27 5.27 0 01-.76-3.24v-7.26h1.12a4 4 0 012.69 1l-.26-3.1H52.89l-.29 3.13a4 4 0 012.69-1h1.12v7.26a5.27 5.27 0 01-.78 3.24zM85.47 58a5.34 5.34 0 01.76-3.24h-5.57a5.27 5.27 0 01.77 3.24v6.12a5.27 5.27 0 01-.77 3.24h5.57a5.34 5.34 0 01-.76-3.24zM56.85 48.39h-3.56v-3.62h1.53a4.06 4.06 0 012.68.88l-.29-3h-3.92V40h3.05a4 4 0 012.68.88l-.29-3H48.41a5.26 5.26 0 01.78 3.24v6.12a5.32 5.32 0 01-.78 3.26h10.83l.29-3a4 4 0 01-2.68.89zM65.34 41.17a5.25 5.25 0 01.76-3.24h-5.65a5.26 5.26 0 01.78 3.24v6.12a5.32 5.32 0 01-.78 3.26h10.42l.31-3.18a4.2 4.2 0 01-2.7 1h-3.15zM77 41.17a5.25 5.25 0 01.77-3.24h-5.69a5.32 5.32 0 01.77 3.24v6.12a5.39 5.39 0 01-.77 3.26H82.5l.31-3.18a4.21 4.21 0 01-2.71 1H77zM52.14 65.64c-.64-.91-1-1.5-1.31-2a5.14 5.14 0 00-2.44-2.19A3.37 3.37 0 0050 55.39c-.8-.53-1.73-.67-3.52-.67h-7.14a5.27 5.27 0 01.77 3.28v6.12a5.27 5.27 0 01-.77 3.24h5.41a5.62 5.62 0 01-.81-3.36v-1.7h.15a1.87 1.87 0 011.3.39 5.87 5.87 0 011.19 1.48l1 1.65a2.61 2.61 0 002.58 1.5h3.71a7.08 7.08 0 01-1.73-1.68zm-5.8-5.51a5.51 5.51 0 01-2.4.27v-3.72c1.42 0 2.05-.06 2.61.37a1.68 1.68 0 01.65 1.48 1.71 1.71 0 01-.86 1.6zM72.17 54.3c-4 0-7.26 2.65-7.26 6.73s3.25 6.73 7.26 6.73 7.25-2.65 7.25-6.73-3.25-6.73-7.25-6.73zm0 11.36c-1.78 0-3.23-1.6-3.23-4.63s1.45-4.62 3.23-4.62S75.39 58 75.39 61s-1.39 4.66-3.22 4.66z" class="cls-5"/><path d="M107.09 25.52c1.15.43 1.56 1.65 1.15 2.25a1.23 1.23 0 01-1.63.19c1.24-.02 1.6-1.57.48-2.44zM72.7 27.44a1.12 1.12 0 00.89-1.53 1 1 0 01-.52.4 1.06 1.06 0 01-.37 1.13zM56.92 31a12 12 0 009.8-.05 1.85 1.85 0 01-.53-.34c-2.96 1.39-7.1 1.08-9.27.39zM50 30.29a5 5 0 001.16.39c.35 0 .54-.12.39-.12a.94.94 0 01-.53-.19 2.89 2.89 0 00.58 0c.42 0 .62-.16.26-.34-.73-.37-1.44.14-1.86.26zM30.31 77h62.1a.94.94 0 110 1.88h-62.1a.94.94 0 110-1.88zm.32.93a4.51 4.51 0 001.39.21h58.67a4.47 4.47 0 001.39-.21 4.75 4.75 0 00-1.39-.2H32a4.79 4.79 0 00-1.37.15zm22.55-47a2.75 2.75 0 00-1.33.37 2 2 0 001.26.17s.08-.05.06-.07-.3 0-.45-.16c.43-.05.72-.33.46-.39zm-41.45 35a2.53 2.53 0 013.81.36 5.8 5.8 0 013.27-2.51c-.31 1.25.68 2.88-.17 4.76a2.1 2.1 0 00-1.4 1.2 2.27 2.27 0 012.61-.62A2 2 0 0121 71a2.73 2.73 0 00-4.64 1 6.3 6.3 0 00.6 5.63 6.85 6.85 0 01-.32-5.43 2.91 2.91 0 013.92-1.4 2.4 2.4 0 00-2.74 1.17c-.92 1.37-1.16 4.44 2.28 6a4.68 4.68 0 004.66-.48c1.83-1.55.37-4.48-1.79-3.28a1.32 1.32 0 01.48.09 1.44 1.44 0 00-.53.54 2.25 2.25 0 01.8-.41.82.82 0 01.22.19 2.11 2.11 0 00-1.24.94 2.93 2.93 0 011.3-.8s.06.13.09.19c-.6.18-1.53.59-1.65 1.56a2.25 2.25 0 011.75-1.2v.25a2.06 2.06 0 00-1.77 1.65 2.25 2.25 0 01-.15-3.07 3.45 3.45 0 013.57-1 3.93 3.93 0 012.72 4.13 4.77 4.77 0 00-.88-2.11c.52.85.3 1.86.76 2.8a1.44 1.44 0 00.09.51 2.51 2.51 0 01-.78-1.73c-.06.88 0 2.37 1.4 2.6l.26.17c-1 .18-1.91-.35-2-2.08-.28 1.69.8 3 2.5 2.25a2.07 2.07 0 00.35 0h.06a2.12 2.12 0 01-2.91-.12c.69 1.4 2.63 1 3.24.12h.24a.76.76 0 01-.07.14c-.93 1.54-4.59 2.07-4.39-2.7 0 .12-.06.22-.09.33a5.68 5.68 0 01-3 1.51 4.77 4.77 0 002.87-1 3.64 3.64 0 000 .45 7.32 7.32 0 01-6.48.7c2.34 1.53 5.57.24 6.46-.31a2 2 0 000 .35c-1.08.57-5.34 2.5-8.65-.88 2.15 3.53 7.09 2.27 8.71 1.35a2 2 0 000 .24 11.62 11.62 0 01-1.61.69 7.55 7.55 0 01-5.87-.36c-3.44-1.89-4.5-7-2.06-12.06-3.31 5.15-1.71 9.87.76 12.13a5.89 5.89 0 001.93 1.1c-2.31-.1-4.49-1.86-5.36-5.46a7.13 7.13 0 00.12.86 3.23 3.23 0 01-1-.61 3 3 0 001 .91c0 .16.08.32.13.47a8.2 8.2 0 01-2-1.48 6.68 6.68 0 002.13 1.86 5.35 5.35 0 00.27.64 8.53 8.53 0 01-1.87-1.34A6.12 6.12 0 0015 79.1l.25.38a5.7 5.7 0 01-1.5-.76A6.18 6.18 0 0015.73 80a6.14 6.14 0 00.64.62c-8.22-3-11.36-14-5.89-20.33C5 65.8 7.1 72.24 8.82 75.6c-1.24-.89-2.33-4.92-2.29-7.43a10.5 10.5 0 00.3 4.43c-.06-.11-.12-.22-.17-.33a12 12 0 01-.46-7.09 3.92 3.92 0 00.06-.69 31.08 31.08 0 01.66-7 18.61 18.61 0 00-1 7.29 5.68 5.68 0 01-.21.66 21.24 21.24 0 01.5-8A20.94 20.94 0 005.34 67a8.58 8.58 0 00-.11 1.31 23 23 0 01.61-12.52l.3-.84c1.75.21 2.2 1.56 2.16 3a3.36 3.36 0 00-.53-1 29 29 0 00-1.11 6.46 21.56 21.56 0 011.59-3.88 2.7 2.7 0 00.17-.38c1.53-3.35.19-5.88-2.07-4.76 2.72-6.89 6.49-8.74 6.65-11.18a2.52 2.52 0 00-.57-1.76 1.87 1.87 0 00-1.43-.64 3.06 3.06 0 012.16.71c2.52 3.41-2.8 6.81-4.46 10.66 3.19-4.43 6.32-5.73 8.52-10 1.11-2.15.89-5.41-1.59-5.81a2.56 2.56 0 012.8-.78 1.89 1.89 0 01.27.17 1.43 1.43 0 01.24.22 3.89 3.89 0 01.75 4c.9-1.53 1.13-5.06-.59-6.83.59-.12 3.38.13 2.63 3.9a4.08 4.08 0 00.38-2.5 24.21 24.21 0 01.79-5.42 15.46 15.46 0 00-1.05 4.67 2 2 0 00-.21-.32 17.17 17.17 0 011.19-5.6 10.63 10.63 0 00-1.57 5.28 2.71 2.71 0 00-.37-.21c.19-5.3 2.6-8.61 5.68-7.84-1.92.55-2.54 3.13-2.68 5a20.16 20.16 0 01-2.06 9.2C18.45 45.51 11.39 48.72 9 53.9c1.38.58 1.85 1.94 1.83 3.93.6-4.23 3.18-4.53 3.76-6.55 2.29 4.24-1.14 7.35-1.68 7.8 1.88-.9 3.85-.52 4.64 1a6.28 6.28 0 00-3 .61 8.85 8.85 0 00-4.94 7c-.41 3.45.62 8.26 3.79 10.82a11.26 11.26 0 01-3-8.07 7.91 7.91 0 003.37 4.31A20.89 20.89 0 0114 68c.07-.89 0-2.36-1.66-2.15a1.88 1.88 0 011.14 2.17 2.57 2.57 0 00-1.75-2.09zm8.64-26.18a4.39 4.39 0 00.7-3.85 7.29 7.29 0 01-.7 3.85zm-3.63 4.37c1.57-1.72 3.48-5 1.27-7.38 1.74 2.77-.5 6.26-1.27 7.38zM16 45.55a10.27 10.27 0 003.53-5.08A17.3 17.3 0 0116 45.55zm-7.4 8.21a18.41 18.41 0 013.61-4.7 12.93 12.93 0 00-3.93 4.67 2.16 2.16 0 01.28.03zm1.69 2.81a9.39 9.39 0 01-1.59 5.07 5.09 5.09 0 001.55-5.07zm-.46 7.82A8.45 8.45 0 0113.91 60a5.85 5.85 0 00-4.12 4.39zm1.33-4.66a8.4 8.4 0 003.56-7c-.34 3.06-2.61 5.99-3.6 7zM8.3 70c0-4.5 1.41-7.59 3-9.2-2.5 1.47-3.57 5.6-3 9.2zm6-4.09c1.39 1.41.16 3.89.23 4.72.11-.88 1.78-3.63-.27-4.76zm3.8 5.3c-1.44.6-1.74 2.75-1.16 4-.4-2.21.39-3.67 1.12-4.04zM73.78 24a5.44 5.44 0 00-1.48 1.82c-.06.19.06.26.22.2.34-.15 1.07-1.39 2.27-1.78zm20.67 2.49a2.48 2.48 0 011.1.25 2.61 2.61 0 01-1.06.25H88.4a3.19 3.19 0 010 .82h7.2a.94.94 0 000-1.88h-7.47a3.69 3.69 0 01.19.56zm-45.31 3.27c.46 0 .72-.15.53-.16a1.17 1.17 0 01-.7-.26 3.4 3.4 0 00.77.05c.55 0 .83-.19.35-.45-1-.54-2 .1-2.47.26a7.19 7.19 0 001.52.56zm51.67-3.33a2.31 2.31 0 011.19-1.36 3.1 3.1 0 00-1 1.63l.28.41a3.69 3.69 0 011.6-2.17 4.58 4.58 0 00-1.28 2.72 3.92 3.92 0 01.36.92 5.61 5.61 0 012.9-4.44 4.24 4.24 0 00-3.6.62 2.77 2.77 0 00-.29.33 2.09 2.09 0 00-.22 1.29zm4 2.48a1.6 1.6 0 01.18-1 2 2 0 00.46 1.6 1.42 1.42 0 00.47.21 2 2 0 01-.3-1.23 1.52 1.52 0 001.2 1.26 2.19 2.19 0 001.59-1.53c-1.58 1.05-3.42-.51-3.41-1.95l-.22.17a2.32 2.32 0 000 2.47zm-56.69-1.33a4 4 0 00-2.29.05c.07.05.28.18.47.32a5.9 5.9 0 00.93.48c.36.13.93.15.85 0s-.58-.15-.87-.51a4.6 4.6 0 001 .22c.36-.04.37-.35-.09-.56zm20.81 3.08a12.48 12.48 0 01-5.68 1.95 11.89 11.89 0 003.26-.42A7.72 7.72 0 0069 30.93c2.67.11 3.3-1.4 3.32-2.6a2.38 2.38 0 001.33-.46 2.48 2.48 0 001-2.29 2.57 2.57 0 010 .68A2.66 2.66 0 0172 28.08c.05 1.43-.91 2.68-3.07 2.58zm.87-.52c1.09-.12 1.37-1.05 1.1-1.51a1.63 1.63 0 01-.52.3 1.09 1.09 0 01-.58 1.21zM67 23.57c.57 1.44 2.69 2.55 4.24 2.65-2.78-.88-3.42-4.71-4.74-5.65.61 1.35.13 2.14.5 3zm-.35 1.31c1.5 1.88 4.33 2.44 5.37 1.62-2 .32-5.27-1.34-5.36-3.53v-.57a1.09 1.09 0 000-.34c-.41.13-.65.79-.72 1.37a1.67 1.67 0 010-1.07c-.74 1-.18 2.54 1.09 3.68a7.6 7.6 0 003.58 1.67 5.59 5.59 0 01-4-2.83zm-1 .12c-.42 1.19.73 3 2.75 3.65a4.6 4.6 0 01-1.89-2.46 4.49 4.49 0 01-.89-1.19zm-14.16 2.8c-.45 2 1.23 1.84 1.23 1.84a8.59 8.59 0 003.85 2.19 6 6 0 00.94.21A12 12 0 0153 29.37a1.43 1.43 0 01-1.51-1.57zm-16.31-2.48A3 3 0 0038.84 29c-3.65-.16-3.84-4-2.77-4.82a3.19 3.19 0 012.26-.32 1.52 1.52 0 00-1.85 1.06 2.56 2.56 0 003.59 2.88c-.28 1.81-2 2.32-3.51 1.76s-2.07-2.48-1.38-4.24zm.58 3.08a2.19 2.19 0 003 .83 3.28 3.28 0 01-3-.83zm19.09-9.56a.89.89 0 01.13.63 1.62 1.62 0 00-.74-.84 1.37 1.37 0 00-.53 1.13 2.35 2.35 0 01.68.41 2.74 2.74 0 01.88-.64c.16-.52 0-1.08.17-1.4 0 0 0-.05-.15 0a1.55 1.55 0 00-.44.71zm-9.34 8c.37.26.86.37.65.07 0-.08-.25-.21-.35-.34a1.8 1.8 0 00.63.25c.22 0 .44 0 .3-.21-.44-.59-1.54-.74-2.38-1.08a4.16 4.16 0 001.15 1.3zm8.19-8a1.87 1.87 0 01.5-.57 2.17 2.17 0 01.47.33 1.28 1.28 0 01.49-.45V18c-.09-.16-.14-.25-.23-.28a.37.37 0 00-.19.2 1.39 1.39 0 010 .3c-.23-.35-.32-.45-.54-.55a1.32 1.32 0 00-.54.88 1.71 1.71 0 00-.43-.09 1.33 1.33 0 01.47.4zm-4.81 1.78a18.9 18.9 0 00.88 2.81 3 3 0 011.6-.83 1.45 1.45 0 00-1.12 2.14c-.11-.54.52-1.23 1.18-1.25a1.35 1.35 0 00-1 1.25 16.26 16.26 0 001.36 2l.09-.15a4.88 4.88 0 01-1-1.63 13.9 13.9 0 001.22 1.29 3.41 3.41 0 011.35-1.11c-1.51 1.15-1.1 2.22-.82 2.42a2 2 0 011.31-1.45 2 2 0 00-1 2C56.39 31.24 62.28 31 65 29.7a5.3 5.3 0 01-.43-.57c-3.28 1.55-6.85 1-9.87-.42a12.5 12.5 0 009.47-.32 4.9 4.9 0 01-.43-1.89 9.1 9.1 0 01-8.46-.13 1.51 1.51 0 00-.84-.32.79.79 0 01.73-.08c-.1-.43-.31-1-.74-1.07l-.5.05a1.36 1.36 0 00-.4.14 13 13 0 01-1.26-1.36.7.7 0 00-.48-.23.67.67 0 01.61 0 .64.64 0 00-.29-.89h-.26a1.17 1.17 0 00-.38 0 13.1 13.1 0 01-1.76-4.19.3.3 0 01.14-.36.71.71 0 00.35-.81.93.93 0 00-.27-.14.15.15 0 00-.07 0 .91.91 0 00-.95 1.1 1 1 0 01.35 0 5.6 5.6 0 00.39 2 1.26 1.26 0 00-.76.43zm-5.4 6.46a14.93 14.93 0 00-5.87-2 2.33 2.33 0 00-.2.34 10.92 10.92 0 015.51 1.87c-3-1.42-4.94-1.59-5.62-1.5a2.93 2.93 0 00-.05.29C38 26 40 26.22 42.6 27.8c-3.27-1.49-4.85-1.36-5.36-1.22v.35c1-.3 2.66.17 4.11.78a51.31 51.31 0 008.07 3.16 3.38 3.38 0 01-.56-.36A15.42 15.42 0 0145.24 29a23.83 23.83 0 003.13 1.13 15.2 15.2 0 01-1.61-.9 5.86 5.86 0 01-1.25-.63l1.49.5a4.58 4.58 0 00.66-.24c-1.21 0-2.39-1.09-3.25-1.31a3.47 3.47 0 01.47-.09 26.13 26.13 0 00-5.64-2.75 1.43 1.43 0 00-1.29.12 13.42 13.42 0 015.54 2.27zm-17.31-.27a.94.94 0 00.94.94h7.19a3.72 3.72 0 010-.82h-6.08a2.65 2.65 0 01-1.07-.25 2.51 2.51 0 011.1-.25h6.14a2.81 2.81 0 01.18-.56h-7.46a1 1 0 00-.94.96zm79.63 48.35c.59-1.26.28-3.41-1.16-4 .74.38 1.52 1.84 1.16 4.02zM16.1 28c-1.23 0-1.6-1.57-.48-2.44-1.15.43-1.56 1.65-1.15 2.25a1.23 1.23 0 001.63.19zm-1.77.28a2.19 2.19 0 001.59 1.53 1.52 1.52 0 001.2-1.26 1.89 1.89 0 01-.29 1.23 1.46 1.46 0 00.46-.21 1.93 1.93 0 00.46-1.6 1.6 1.6 0 01.18 1 2.3 2.3 0 000-2.45l-.22-.17c.05 1.38-1.8 2.94-3.38 1.89zm6.41.34a3.84 3.84 0 01.35-.92 4.56 4.56 0 00-1.27-2.72 3.71 3.71 0 011.59 2.17l.28-.41a3 3 0 00-1-1.63 2.31 2.31 0 011.21 1.36v-.05a2.09 2.09 0 00-.22-1.29c-.13-.17-.2-.24-.28-.33a4.26 4.26 0 00-3.61-.62 5.6 5.6 0 012.95 4.4zm34.55-10.5zm12.52 1.63a4 4 0 00-.73-1.86 5 5 0 01.48 1.72zm41.4 48.3a1.88 1.88 0 011.14-2.17c-1.7-.21-1.73 1.26-1.66 2.15a20.6 20.6 0 01.26 6.75 7.86 7.86 0 003.37-4.31 11.22 11.22 0 01-3 8.07c3.18-2.56 4.2-7.37 3.79-10.82a8.84 8.84 0 00-4.93-7 6.32 6.32 0 00-3-.61c.8-1.5 2.76-1.88 4.64-1-.54-.45-4-3.56-1.68-7.8.58 2 3.16 2.32 3.77 6.55 0-2 .45-3.35 1.83-3.93-2.37-5.18-9.43-8.39-12.79-14.64a20.16 20.16 0 01-2.06-9.2c-.13-1.83-.76-4.41-2.68-5 3.09-.77 5.49 2.54 5.68 7.84a2.71 2.71 0 00-.37.21 10.63 10.63 0 00-1.57-5.28 17.51 17.51 0 011.2 5.6 1.48 1.48 0 00-.21.32 15.84 15.84 0 00-1.06-4.67 24.21 24.21 0 01.79 5.42A4.15 4.15 0 00101 37c-.74-3.77 2-4 2.64-3.9-1.72 1.77-1.5 5.3-.6 6.83a3.89 3.89 0 01.75-4 1.43 1.43 0 01.24-.22 1.89 1.89 0 01.27-.17 2.56 2.56 0 012.8.78c-2.48.4-2.7 3.66-1.59 5.81 2.2 4.26 5.34 5.56 8.52 10-1.65-3.85-7-7.25-4.46-10.66a3.09 3.09 0 012.16-.71 1.88 1.88 0 00-1.47.64 2.52 2.52 0 00-.57 1.76c.18 2.44 4 4.29 6.67 11.22-2.25-1.12-3.59 1.41-2.06 4.76a2.72 2.72 0 00.16.38 21.56 21.56 0 011.59 3.88A28.87 28.87 0 00115 57a3.16 3.16 0 00-.54 1c0-1.42.42-2.77 2.16-3q.15.41.3.84a22.92 22.92 0 01.61 12.52 7.47 7.47 0 00-.11-1.31 20.9 20.9 0 00-.9-9.57 21 21 0 01.49 8 4.24 4.24 0 01-.2-.66 18.69 18.69 0 00-1-7.29 32 32 0 01.67 7 2.63 2.63 0 00.06.69 12 12 0 01-.47 7.09l-.16.33a10.67 10.67 0 00.3-4.43c0 2.51-1 6.54-2.29 7.43 1.71-3.36 3.78-9.8-1.66-15.28 5.46 6.34 2.32 17.3-5.89 20.33A6.09 6.09 0 00107 80a6.07 6.07 0 001.94-1.31 5.56 5.56 0 01-1.5.76c.09-.12.17-.25.25-.38a6 6 0 002.17-1.89 8.31 8.31 0 01-1.86 1.37 5.35 5.35 0 00.27-.64 6.7 6.7 0 002.14-1.86 8.39 8.39 0 01-2 1.48c0-.15.09-.31.12-.47a3 3 0 001-.91 3.23 3.23 0 01-1 .61 5.57 5.57 0 00.12-.86c-.86 3.6-3 5.36-5.35 5.46a6 6 0 001.93-1.1c2.46-2.22 4.06-7 .76-12.11 2.43 5.06 1.37 10.17-2.06 12.06a7.57 7.57 0 01-5.88.36 11.62 11.62 0 01-1.61-.69c0-.08 0-.16.05-.24 1.61.92 6.55 2.18 8.7-1.35-3.3 3.38-7.57 1.45-8.64.88v-.35c.89.55 4.11 1.84 6.45.31a7.33 7.33 0 01-6.48-.7 2.38 2.38 0 00-.05-.45 4.77 4.77 0 002.87 1 5.58 5.58 0 01-3-1.51c0-.11-.06-.21-.1-.33.2 4.77-3.46 4.24-4.39 2.7l-.07-.14H92c.61.87 2.55 1.28 3.25-.12a2.12 2.12 0 01-2.91.12 2 2 0 00.35 0c1.71.75 2.78-.56 2.5-2.25-.12 1.73-1 2.26-2 2.08l.26-.17c1.4-.23 1.46-1.72 1.4-2.6a2.49 2.49 0 01-.77 1.73 2.09 2.09 0 00.09-.51c.45-.94.23-2 .75-2.8a4.89 4.89 0 00-.88 2.11 3.93 3.93 0 012.72-4.13 3.47 3.47 0 013.58 1 2.28 2.28 0 01-.15 3.07 2.08 2.08 0 00-1.77-1.65 2 2 0 010-.25 2.25 2.25 0 011.75 1.2c-.12-1-1-1.38-1.64-1.56a1.11 1.11 0 01.09-.19 2.91 2.91 0 011.37.74 2.11 2.11 0 00-1.24-.94.82.82 0 01.22-.19 2.25 2.25 0 01.8.41 1.44 1.44 0 00-.53-.54 1.32 1.32 0 01.48-.09C97.63 73 96.16 75.88 98 77.43a4.68 4.68 0 004.66.48c3.44-1.56 3.21-4.63 2.28-6a2.4 2.4 0 00-2.74-1.17 2.91 2.91 0 013.92 1.4 6.85 6.85 0 01-.32 5.43 6.24 6.24 0 00.6-5.63 2.73 2.73 0 00-4.64-1 2 2 0 011.11-1.87 2.27 2.27 0 012.61.62 2.08 2.08 0 00-1.4-1.2c-.85-1.88.15-3.51-.17-4.76a5.8 5.8 0 013.27 2.51 2.53 2.53 0 013.81-.36 2.59 2.59 0 00-1.77 2.12zm-6.87-28.3a7.39 7.39 0 01-.69-3.85 4.41 4.41 0 00.69 3.85zm3.66 4.37c-.77-1.15-3-4.61-1.27-7.38-2.24 2.37-.33 5.66 1.27 7.38zm.78 1.43a17.25 17.25 0 01-3.52-5.08 10.18 10.18 0 003.49 5.08zm7.4 8.21a2.36 2.36 0 01.32 0 13 13 0 00-3.92-4.67 18.21 18.21 0 013.57 4.67zm-8.34 21.42c.59-1.26.28-3.41-1.16-4 .71.36 1.49 1.82 1.13 4zm2.64-9.31c-2 1.15-.38 3.88-.22 4.72.03-.83-1.19-3.31.19-4.72zm3.14-6.14c-1-1-3.26-3.94-3.56-7a8.43 8.43 0 003.53 7zm1.34 4.66A5.86 5.86 0 00108.8 60a8.47 8.47 0 014.13 4.39zm-1.54-3.63c1.61 1.61 3 4.7 3 9.2.58-3.56-.51-7.69-3.03-9.2zm2.66.88a9.36 9.36 0 01-1.58-5.07 5.09 5.09 0 001.55 5.07zM68.6 20.15a4.32 4.32 0 00-1.42-3 5.24 5.24 0 011 2.83zm10.69 6.46a5.85 5.85 0 01-.55.88 4.77 4.77 0 001.62-.69c-.36.43-1.36 1.73-1.73 2.11 1-.43 1.86-.86 2.69-1.2 1.45-.61 3.07-1.08 4.11-.78 0-.12 0-.24.06-.35-.52-.14-2.1-.27-5.36 1.22 2.58-1.58 4.56-1.77 5.33-1.65a1.47 1.47 0 000-.29 11.32 11.32 0 00-4.74 1.07 9.39 9.39 0 014.63-1.44 3.72 3.72 0 00-.19-.34 15 15 0 00-5.88 2 13.42 13.42 0 015.52-2.27 1.43 1.43 0 00-1.29-.12 18.54 18.54 0 00-4.16 1.89zM64.18 16.16c.57-1.1 4-1.78 9.72.32 5.09 1.88 8.08 4.74 7.19 6.3-.66 1.16-4.51 1.84-10.54-.65-4.46-1.83-7.21-4.36-6.37-5.97zm2.87 3.32c3.44 2.48 9 3.92 11.48 3.54.74-.11 1.28-.34 1.47-.76.39-.85-.76-1.87-.76-1.87s-1.2 0-3.32 1.89a5 5 0 012.78-2.38 19.72 19.72 0 00-7.7-3.55 27 27 0 015.86 3c.08.08.06.16 0 .19a4.9 4.9 0 00-2.41 2.19 9.61 9.61 0 01-4-.83 4.81 4.81 0 00-.69-2.48 6.06 6.06 0 01.34 2.34c-.31-.12-.63-.25-1-.4a5.63 5.63 0 00-2.34-4.44s-1.27.11-1.54.8c-.17.43-.12 1.36 1.83 2.76zm-11.86-1.33h.09zm29.2 5.68a3.17 3.17 0 012.25.32c1.08.8.88 4.66-2.77 4.82a3 3 0 003.67-3.65c.68 1.76-.07 3.71-1.39 4.21a2.44 2.44 0 01-3.51-1.76 2.55 2.55 0 003.59-2.88 1.51 1.51 0 00-1.84-1.06zm-.39 5.4c.23.21 2.22.79 3-.83a3.28 3.28 0 01-3 .83zM55.16 18.17zm3 4.48c.24-.66-.07-1.07-.39-1.12C59 21 59.16 20 59.52 20c-1.53-.62-2.93 1.36-3.14 2.55a1.09 1.09 0 011.8.1zM68 30.08a5.46 5.46 0 01-3-2.64c.65 1.23 3.55 2.69 4.87 1.61A4.64 4.64 0 0166 27.4a2.43 2.43 0 01-.54-2.67 6 6 0 01-.25-.76c-1 .43-1.78 1.57-.86 3.3A5.73 5.73 0 0068 30.08zm6.42.48a4.57 4.57 0 00-1-.48c-.52-.13-.82.11-.72.27a.87.87 0 00.76.17c-.08.16-.4.09-.51.15s0 0 0 .08c.41.25.98-.01 1.47-.19zm2.58-.94c-.39-.12-1.13-.62-1.85-.41-.4.12-.54.48-.23.53a3.75 3.75 0 00.82 0c-.21.28-.74.24-.78.32s.38.2.68.15a5.88 5.88 0 001.36-.59zm-4.49 1.53c-.32-.15-.56-.53-1-.4-.14.05-.21.17-.11.23a1.28 1.28 0 00.54.09 1.06 1.06 0 01-.47.08c-.06 0 0 .05 0 .07.2.1.44.04 1-.07zm4.34-4.88c-.5.61-1.78 1.69-1.66 2.2.06.26.32.22.43 0a2.08 2.08 0 01.24-.47c0 .08-.1.75.11.66.51-.23.88-2.09.84-2.39zm-1.65 1c-.28.41-1.37 1.12-1.73 1.85a.66.66 0 00-.07.44c0 .11.13.13.18 0a1.59 1.59 0 01.31-.48c-.2.56.06.83.44.39a7 7 0 00.83-2.24zm1.79.15c0 .07 0 .35.26.27s.46-.41.46-.41a2.15 2.15 0 00-.13.39c0 .06 0 .12.14.09.79-.24 1.34-1.37 1.48-1.73-.72.58-2.1.54-2.2 1.35zm2.08.41c-.87.23-2.13.15-2.48.79-.1.17.06.28.28.27a1.87 1.87 0 00.64-.2c-.11.12-.32.22-.39.3-.24.27.3.26.7.05A3.64 3.64 0 0079 27.79zm-32.39-3.57c0 .28.26 2.31.79 2.64.19.12.21-.49.18-.58.24.33.21.79.41.67a.27.27 0 00.14-.29c-.02-.88-1.06-1.7-1.52-2.44zm-2.24-.52a5.8 5.8 0 001.22 1.86c.14.11.29 0 .24-.21a1.34 1.34 0 00.37.38c.21.09.3-.14.25-.3-.31-.93-1.52-1.07-2.08-1.73zm3.84 1.65a12.75 12.75 0 00.56 2.43c.29.54.61.28.5-.34a2.83 2.83 0 01.27.69c.06.13.3.15.27-.28-.06-.89-1.27-1.8-1.6-2.5zm2.24 3.27c.09 0 .16-.14.13-.51.14.19.09.55.19.58s.19-.12.16-.31c-.16-.82-.75-1.21-1-1.6.21.56.16 1.77.52 1.84z" class="cls-1"/><g clip-path="url(#clip-path)"><path d="M0 .25h122.25v91H0z"/></g><path d="M47.74 77.26v-.36s-1.71 2.89-2.2 3.76c-.56-2.22-2.35-6-6.9-5.3-12.43 2-21.34 25.27-18.85 41.21 1.44 9.2 6.9 11.6 13.48 10.57a16 16 0 009.53-5.43c1.32-1.47 2.69-3.63 2.61-4.14-.5.3-1.22 2-4.2 4.63a13.07 13.07 0 01-6.38 3.12C30.42 126 27.94 123 27 117c-2.3-14.69 3.59-39.53 12-40.84 3-.46 4.16 1.47 4.51 3.68a7.06 7.06 0 01-.38 4.16c-1.11 2.82-2.31 6.26-2.06 7.84.08.52.8 1.14 2.07.94a2 2 0 001.64-1 23.92 23.92 0 001.13-9.07l.08-.26a27.24 27.24 0 011.75-5.19z" class="cls-5"/><path d="M51.12 83.67c1.14-.18 1.77.74 1.93 1.75A2.41 2.41 0 0151 88.24c-1.42.23-2-.47-2.13-1.17a3 3 0 012.25-3.4zM115.13 96.68c-3.09 4.31-8.32 10.59-14.53 11.56-3.22.5-5.39-1.09-6.12-5.8-1.27-8.1 3.08-20.29 5.74-20.71.57-.09.94.38 1.09 1.36.59 3.76-3.09 10.34-6.19 14.57-.32.45-.2.6.24.19 5.45-5.15 8.44-10.38 7.92-13.7-.3-1.91-1.55-3.14-3.24-2.88-4.11.65-9.67 8.63-10.64 17.37a18.2 18.2 0 00.07 4.59c-.82 3-1.64 4.5-2.94 4.59-1 .06-1.23-.71-1.36-1.35-.81-3.75 1.65-10 1.17-13-.34-2.47-4.48-2.64-7.08-4.3a14.24 14.24 0 00.44-5.31c-.19-1.22-.7-2-1.59-1.81-1.43.23-2.73 2.19-2.42 4.18a4.79 4.79 0 002.73 3.6 144.21 144.21 0 01-3.48 20.06c-.55 2.07-1.32 4-2.51 4.25-.77.15-1.28-.51-1.64-2.81-1.27-8.14.51-36.07 3.84-42.66-4.22 1.74-6.24 8-7.47 16.75-.31 2.16-.92 7.15-1.33 9.53-1.16 6.6-4.35 15.72-7 16.13-.89.13-1.36-.49-1.52-1.54-.46-2.9.46-7.85 2.64-12.86a26.54 26.54 0 015.64-8.45c.09-.09.14-.25-.09-.16-3.41 1.31-7 5.53-8.89 8.6a37.53 37.53 0 00-2.83 6.09c-1.91 5.33-3.59 11.18-5.56 11.38-1.27.14-1.39-.75-1.57-1.91-.6-3.77.88-9.79 1.93-14.13.54-2.19.79-2.94.67-3.71-.08-.5-.5-1-1.56-.88a8.13 8.13 0 00-2.12.65c-1.27 3.28-4.24 12.37-3.42 17.62.5 3.18 2.45 4.35 5.08 3.94 3.61-.57 4.17-4.33 5.64-9a8.06 8.06 0 000 2.19c.41 2.65 2.34 3.93 5.06 3.51 3.89-.61 6.05-7.64 7.72-13.32a48.65 48.65 0 00.34 10.35c.87 5.54 3.06 6.63 5.09 6.31 3.19-.5 3.61-2.72 4.43-5.58 1.59-5.52 2.77-14.86 3.41-20.07 2.32 1.1 3 1.68 3.2 2.65.41 2.61-1.93 9.48-1.35 13.2.41 2.59 2 3.81 4.53 3.42 3-.47 3.66-2.58 4.26-5.41 1 4 4 6.63 9.85 5.71 4.87-.77 8.81-3.67 13-8.58 1.43-1.7 3.49-4.75 3.57-5.59a9.22 9.22 0 00-.85 1.17zM79.07 84.13a13.47 13.47 0 01-.39 4.65 3.41 3.41 0 01-1.14-2.31c-.24-1.51 0-3.52.82-3.64.43-.07.64.61.71 1.3z" class="cls-4"/><path d="M47.86 76.77A25.93 25.93 0 0045 80.64c-.57-2.22-2.35-6-6.91-5.3-12.43 2-21.34 25.27-18.85 41.21 1.44 9.2 6.9 11.6 13.48 10.57a16 16 0 009.53-5.43c1.32-1.47 2.69-3.63 2.61-4.14-.5.3-1.22 2-4.2 4.63a13 13 0 01-6.37 3.12c-4.41.7-6.89-2.3-7.83-8.3-2.3-14.69 3.59-39.53 12-40.84 2.94-.46 4.16 1.47 4.51 3.68a7.06 7.06 0 01-.39 4.16c-1.1 2.82-2.31 6.26-2.06 7.84.08.52.8 1.14 2.07.94a2 2 0 001.64-1 24.12 24.12 0 001.14-9.07 2.5 2.5 0 01.07-.26 35.28 35.28 0 012.42-5.68zM71.31 122.25c.08.46.56.77 1.58.61 3.62-.57 6-3 36.51-10 1.21-.27 1.53-.51 1.64-.66l-1.57.25s-10.94 1.62-16 2.58c-5.34 1-16.58 3.41-20.53 5.47-1.12.63-1.72 1.13-1.63 1.75z" class="cls-4"/></g></g></g></svg>
