<svg fill="currentColor" viewBox="0 0 50 16">
  <path d="M17.1985 7.27444l3.31.26c.36 0 .51-.21.34-.53l-1.59-2.91c-.0373-.07324-.0903-.13738-.1552-.18784-.0649-.05047-.1401-.08603-.2203-.10417-.0801-.01813-.1633-.01839-.2436-.00076-.0803.01763-.1557.05271-.2209.10277-.4423.32342-.8304.71495-1.15 1.16-.2684.48693-.4575 1.01354-.56 1.56-.0113.07496-.0075.15141.0111.22488.0187.07347.0518.14249.0974.20302s.1029.11135.1684.14948c.0655.03814.1379.06283.2131.07262zM20.4685 8.03443l-3.31-.08c-.0823-.00508-.1647.00807-.2413.03852-.0767.03045-.1456.07745-.202.13763-.0563.06018-.0987.13207-.1241.21052-.0253.07846-.0331.16155-.0226.24333.0566.54331.2019 1.07367.43 1.56997.2641.4736.6016.9022 1 1.27.0602.0571.1324.1.2113.1258.0789.0257.1625.0336.2448.0231.0823-.0106.1612-.0392.231-.084.0699-.0448.1289-.1045.1729-.1749l1.9-2.68997c.2-.34.07-.59-.29-.59z"/>
  <path d="M35.5587 7.02444c-.136-1.16635-.554-2.28203-1.2179-3.25057-.6639-.96855-1.5538-1.7608-2.5926-2.30827-1.0388-.547475-2.1953-.833685-3.3696-.833887-1.1743-.000202-2.3309.28561-3.3699.832727-1.2686-.675109-2.7119-.950511-4.14-.790003-.9423.108054-1.8542.400733-2.6834.861313-.8292.46058-1.5595 1.08004-2.1492 1.82297-.5897.74294-1.0272 1.59479-1.2876 2.50688-.2603.9121-.3384 1.86655-.2298 2.80884.2064 1.75966 1.0535 3.38186 2.3797 4.55676 1.3262 1.1749 3.0386 1.8204 4.8103 1.8132.2765.0147.5535.0147.83 0 .8859-.1062 1.7441-.3776 2.53-.8 1.0302.5523 2.1811.8409 3.35.84.2765.0147.5535.0147.83 0 .9429-.1067 1.8554-.3986 2.6852-.8588.8299-.4602 1.5607-1.0796 2.1507-1.8229.5899-.7432 1.0273-1.5956 1.2872-2.50819.2598-.91263.3369-1.86757.2269-2.81007l-.04-.06zm-13.18 6.99996c-.812.0931-1.6343.0248-2.4198-.2011-.7855-.2259-1.5185-.6048-2.157-1.1151-.6385-.5102-1.1698-1.1416-1.5633-1.8579-.3936-.7163-.6416-1.50335-.7299-2.31586-.0961-.81314-.0308-1.63725.1923-2.42507.2231-.78782.5996-1.52384 1.1078-2.16583.5082-.642 1.1381-1.17733 1.8537-1.5753.7156-.39797 1.5027-.65074 2.3162-.7438.2431-.01549.4869-.01549.73 0 .8043.00154 1.6001.16478 2.34.48-.3096.22981-.5975.48755-.86.77-.3742-.13329-.7641-.21732-1.16-.25-.546-.00654-1.0896.07448-1.61.24-.078.026-.1495.06827-.2099.12402-.0604.05574-.1083.12369-.1404.19934-.0322.07564-.0479.15725-.0461.23943.0018.08217.021.16303.0564.23721l1.27 2.66c-.1619.75542-.2025 1.53182-.12 2.3 0 .15.05.31.07.46l-1.65 2.69996c-.0443.07-.0728.1487-.0835.2308-.0108.0821-.0035.1655.0212.2445.0247.079.0664.1516.1221.2129.0556.0612.124.1097.2002.1418.498.2199 1.0281.3584 1.57.41.5467.0053 1.0906-.0792 1.61-.25h.06c.2303.2536.4812.4878.75.7.0351.0334.0757.0605.12.08-.5211.2312-1.0739.3829-1.64.45v.02zm10.87-2.3c-.6437.7864-1.4705 1.4027-2.4079 1.795-.9375.3923-1.9569.5486-2.9688.4551-1.0118-.0935-1.9853-.4339-2.835-.9913-.8497-.5575-1.5496-1.3149-2.0383-2.2059-.4887-.89095-.7513-1.88824-.7647-2.90435-.0135-1.01612.2227-2.02001.6876-2.92359.465-.90359 1.1446-1.67926 1.9793-2.25897.8346-.5797 1.7987-.94572 2.8078-1.06595.2364-.01494.4736-.01494.71 0 1.524.00256 2.9938.56542 4.1297 1.58145s1.8585 2.41427 2.0303 3.92855c.0942.81194.0251 1.63452-.2033 2.41935-.2284.78481-.6115 1.51601-1.1267 2.15061v.02z"/>
  <path d="M28.2187 6.62445c.16.33.44.34.62 0l1.73-2.84c.0442-.06915.0727-.14717.0834-.22854.0107-.08137.0034-.1641-.0214-.24233s-.0665-.15005-.1222-.21039c-.0556-.06033-.1238-.10769-.1998-.13874-.5111-.20039-1.0516-.31526-1.6-.34-.5461-.00654-1.0896.07449-1.61.24-.078.026-.1495.06827-.2099.12402-.0604.05575-.1083.1237-.1404.19934-.0322.07564-.0479.15726-.0461.23943.0018.08217.021.16303.0564.23721l1.46 2.96zM23.9186 7.27444l3.3.26c.36 0 .51-.21.34-.53l-1.59-2.91c-.0373-.07324-.0903-.13738-.1552-.18784-.0649-.05047-.1401-.08603-.2202-.10417-.0802-.01813-.1634-.01839-.2437-.00076-.0803.01763-.1557.05271-.2209.10277-.4408.32186-.8259.71371-1.14 1.16-.2848.48331-.4875 1.01044-.6 1.56-.0112.07802-.0061.15751.015.23345.021.07595.0576.1467.1075.20778.0498.06109.1117.11118.1818.14711.0702.03594.147.05693.2257.06166zM32.1985 4.26444c-.0603-.05704-.1325-.09999-.2113-.12573-.0789-.02574-.1625-.03363-.2448-.0231-.0823.01053-.1612.03921-.2311.08397-.0698.04476-.1289.10449-.1728.17486l-1.87 2.73c-.21.3-.08.55.28.55l3.32.08c.0858.01119.173.00269.2551-.02486.082-.02755.1567-.07342.2184-.13414.0617-.06072.1087-.13469.1376-.2163.0288-.0816.0387-.16871.0289-.2547-.0619-.54347-.2104-1.07353-.44-1.57-.2854-.47863-.6468-.90759-1.07-1.27zM28.7089 9.02446c-.15-.33-.43-.34-.62 0l-1.72 2.83004c-.0463.0688-.0768.147-.0892.229-.0124.082-.0064.1658.0175.2452.024.0794.0652.1525.1209.2141.0556.0615.1242.1099.2008.1417.5012.2207 1.0347.3592 1.58.41.5467.0052 1.0906-.0792 1.61-.25.0788-.023.1515-.0633.2128-.118.0612-.0547.1094-.1224.1411-.1982.0316-.0757.0459-.1576.0418-.2396-.0042-.082-.0266-.162-.0657-.2342l-1.43-3.03004zM33.0188 8.41442l-3.31-.26c-.36 0-.51.21-.34.53l1.59 2.93998c.0396.0723.0942.1353.16.1848.0659.0495.1416.0844.222.1024.0804.018.1638.0186.2445.0018.0807-.0167.1569-.0505.2235-.099.4404-.334.8251-.7357 1.14-1.19.2785-.471.4778-.98445.59-1.51998.0192-.0803.0205-.16385.0037-.24469-.0169-.08083-.0514-.15695-.1011-.22289-.0497-.06594-.1133-.12007-.1864-.15853-.0731-.03845-.1537-.06027-.2362-.06389zM27.1789 8.03443l-3.31-.08c-.0823-.00508-.1647.00807-.2413.03852-.0766.03045-.1456.07745-.2019.13763-.0564.06018-.0988.13207-.1241.21052-.0254.07846-.0331.16155-.0227.24333.0567.54331.2019 1.07367.43 1.56997.2642.4736.6017.9022 1 1.27.0603.0571.1325.1.2113.1258.0789.0257.1625.0336.2448.0231.0823-.0106.1612-.0392.2311-.084.0699-.0448.1289-.1045.1728-.1749l1.9-2.68997c.24-.34.07-.59-.29-.59zM48.2885 6.79445c-3.05-1.59-7.91-1.17-10.58 4.52995 2.22-2.13995 5.52-4.99995 11.57-1.26.1746-.27352.288-.58164.3324-.90315.0443-.32152.0186-.64882-.0754-.95946-.0941-.31064-.2542-.59725-.4695-.84018-.2152-.24292-.4804-.4364-.7775-.56716z"/>
  <path d="M44.4088 4.62445s.16-1-1.32-1c-1.2657.15556-2.4241.78886-3.2383 1.77035-.8142.98149-1.2226 2.23699-1.1417 3.50965.1932-1.32111.9008-2.51231 1.9685-3.31401 1.0677-.8017 2.4089-1.14892 3.7315-.96599zM2.05871 6.79445c-.29906.12843-.56654.3205-.78382.56282-.21728.24232-.379147.52909-.474328.84033-.095181.31124-.121393.63949-.076812.96189.044582.32241.158886.63122.33496.90491 6-3.69995 9.33999-.87995 11.55999 1.26C9.95871 5.62445 5.10871 5.20445 2.05871 6.79445z"/>
  <path d="M11.7086 8.90445c.0795-1.28347-.3385-2.54824-1.1672-3.53153-.82872-.98329-2.00442-1.60948-3.28282-1.74847-1.48 0-1.33 1-1.33 1 .66081-.10061 1.335-.06956 1.98378.09136.64877.16093 1.25931.44856 1.7965.84634.53724.39778.99044.89786 1.33364 1.47147.3432.5736.5695 1.20941.6661 1.87083z"/>
</svg>