<svg fill="currentColor" viewBox="0 0 122 63">
  <path d="M21.6344 51.0352c-.64-4.39-4.18-4.89-5-3.76.543.8239.8964 1.7581 1.0347 2.7351.1384.977.0582 1.9726-.2347 2.9149-1.6 4.12-10.12999 3.32-15.15999 6.65 1.78-.41 3.48-1 9.99999-.73 4.64.21 9.99-3.41 9.36-7.81zm-5.58 5.39s4.21-3.92 2-8.38c0 0 1.39-.09 2.08 1.91.69 2-.66 4.98-4.08 6.47zM21.3945 56.1951c1.84-2.48 4.64-5.8 11.21-3.13.1286-.2979.191-.6203.1827-.9447-.0082-.3244-.0869-.6432-.2305-.9342-.1436-.291-.3488-.5474-.6012-.7513-.2525-.2039-.5462-.3506-.861-.4298-3.27-1.07-7.99.12-9.7 6.19z"/>
  <path d="M34.4041 51.6951s1-.56-.17-1.89c-1.0097-1.0478-2.3813-1.6706-3.8347-1.7412-1.4533-.0707-2.8789.4162-3.9853 1.3612 1.46-.85 5.2-1.72 7.99 2.27zM21.044 36.6351c.3863.0419.7771.0001 1.1459-.1223.3687-.1225.7068-.3228.9914-.5875.2845-.2646.5088-.5873.6577-.9462.1488-.3589.2188-.7456.205-1.134v-3.21c.0152-.3891-.0536-.7769-.2018-1.1371-.1482-.3601-.3723-.6841-.657-.9498-.2847-.2657-.6234-.467-.9928-.59-.3695-.1231-.7612-.165-1.1484-.1231-.3888-.0508-.7841-.0151-1.1575.1047-.3734.1198-.7157.3207-1.0024.5883-.2867.2675-.5107.5952-.6559.9595-.1452.3642-.2081.7561-.1842 1.1475v3.21c-.0137.3884.0562.7751.2051 1.134.1489.3589.3732.6816.6577.9462.2845.2647.6226.465.9914.5875.3687.1224.7595.1642 1.1458.1223zm-1.63-6c-.0138-.2158.0192-.4321.0968-.634.0776-.2019.1979-.3846.3528-.5356.1548-.151.3404-.2668.5442-.3394.2038-.0725.4208-.1001.6362-.081.2182-.0256.4393-.0027.6476.0671.2083.0698.3985.1848.5572.3367.1586.152.2817.3371.3604.5422.0787.205.1111.425.0948.644v3.21c.0139.2146-.0189.4296-.096.6303-.077.2006-.1966.3823-.3505.5324-.1539.1501-.3385.2651-.5411.3371-.2025.0721-.4182.0995-.6324.0802-.2145.0191-.4306-.0083-.6337-.0803-.203-.072-.3881-.1868-.5427-.3367-.1547-.15-.2753-.3314-.3535-.5321-.0783-.2007-.1124-.4158-.1001-.6309l-.04-3.21zM27.2348 35.3451h-.7l.43-1.34h2.61l.41 1.34h-.68v1.13h2.92v-1.13h-.84l-2.37-7.41h-1.4l-2.36 7.41h-.83v1.13h2.81v-1.13zm1-5.76l1 3.38h-2l1-3.38zM35.764 35.3451h-.87v-1.16l1.23-1.6 1.94 3.89h1.87v-1.13h-.9l-1.96-3.91 1.81-2.37h.78v-1.13h-2.84v1.13h.7l-2.63 3.47v-3.47h.83v-1.13h-3.1v1.13h.93v6.28h-.93v1.13h3.14v-1.13zM49.4241 34.1251c.016-.4502-.1204-.8926-.3872-1.2556-.2668-.363-.6483-.6253-1.0828-.7444.3872-.141.7187-.4028.9456-.7468.2269-.3439.3371-.7518.3144-1.1632 0-1.34-1.1-2.22-2.64-2.22h-3.87v1.13h.93v6.28h-.93v1.13h4.11c.3342.0341.6718-.0032.9905-.1095.3186-.1063.6111-.2791.8579-.507.2468-.2279.4423-.5057.5736-.8149.1313-.3092.1954-.6427.188-.9786zm-4.47-5.08h1.47c.87 0 1.41.45 1.41 1.23.0086.1804-.0222.3606-.0905.5278-.0682.1672-.1722.3175-.3046.4404-.1324.1229-.29.2153-.4619.2709-.1718.0556-.3537.073-.533.0509h-1.49v-2.52zm0 6.33v-2.69h1.67c.1864-.0161.3741.0068.5512.067.177.0603.3397.1568.4775.2832.1379.1265.2479.2802.3232.4515.0753.1712.1142.3562.1142.5433s-.0389.3721-.1142.5434c-.0753.1712-.1853.3249-.3232.4514-.1378.1265-.3005.2229-.4775.2832-.1771.0603-.3648.0831-.5512.067h-1.67zM56.4539 34.2451h-1.17v1.02h-2.73v-2.56h3.23v-1.16h-3.23v-2.4h2.6v.99h1.18v-2.2h-6.04v1.13h.92v6.28h-.92v1.13h6.16v-2.23zM59.704 35.3451h-.7l.43-1.34h2.61l.41 1.34h-.68v1.13h2.93v-1.13h-.84l-2.39-7.41h-1.4l-2.37 7.41h-.83v1.13h2.83v-1.13zm1-5.71l1 3.38h-2l1-3.38zM68.0345 36.6351c.3735.0374.7506-.0057 1.106-.1261.3554-.1205.6809-.3157.9547-.5724.2737-.2567.4894-.569.6324-.9159.1431-.347.2102-.7205.1969-1.0956v-.29h-1.29v.26c.0088.2085-.0279.4163-.1074.6092-.0796.1929-.2001.3662-.3532.5079s-.3352.2485-.5337.3129c-.1984.0643-.4085.0848-.6157.06-.2121.0164-.4252-.0132-.6248-.0867-.1997-.0735-.3812-.1891-.5321-.3391-.1509-.1499-.2677-.3307-.3424-.5298-.0747-.1992-.1057-.4122-.0907-.6244v-3.17c-.0138-.2158.0192-.4321.0968-.634.0776-.2019.1979-.3846.3528-.5356.1548-.1511.3405-.2668.5442-.3394.2038-.0725.4208-.1002.6362-.081.206-.024.4148-.0041.6125.0583.1978.0625.3801.166.535.3039.1549.1379.2788.307.3637.4962.0849.1892.1288.3942.1288.6016v.21h1.2v-2.78h-1.2v.7c-.2325-.27-.5237-.4833-.8512-.6237-.3276-.1404-.6828-.2041-1.0388-.1863-.3706-.0236-.742.0337-1.0883.168-.3463.1343-.6592.3424-.9171.6097-.2578.2674-.4544.5877-.5761.9386-.1216.3509-.1655.7241-.1285 1.0937v3.21c-.0157.3827.0504.7644.194 1.1195.1436.3551.3614.6754.6388.9395.2773.2642.6079.466.9696.5921.3617.1261.7462.1734 1.1276.1389zM75.014 35.3451h-.92v-2.61h2.94v2.61h-.92v1.13h3.17v-1.13h-.91v-6.28h.91v-1.13h-3.17v1.13h.92v2.46h-2.94v-2.46h.92v-1.13h-3.18v1.13h.92v6.28h-.92v1.13h3.18v-1.13zM85.8345 35.3451h-.92v-6.28h.92v-1.13h-3.19v1.13h.93v6.28h-.93v1.13h3.19v-1.13zM89.8141 35.3451h-.91v-4.8l3.33 5.93h1.09v-7.41h.92v-1.13h-3.07v1.13h.93v4.68l-3.27-5.81h-2.09v1.13h.92v6.28h-.92v1.13h3.07v-1.13zM98.0846 35.3451h-.9099v-4.8l3.3203 5.93h1.1v-7.41h.92v-1.13h-3.0704v1.13h.9204v4.68l-3.2603-5.81h-2.0901v1.13h.9201v6.28h-.9201v1.13h3.07v-1.13zM4.01433 33.0851l1.28-.1c1-.07 1.91-.1 2.61-.11-.7-.08-1.58-.21-2.58-.4-1-.19-1.92-.41-2.62-.51-2.559996-.33-2.7499966 1.23-.07 1.19.47-.01.94-.04 1.38-.07zM9.18428 32.6351c.24 0 .25 0 0-.07-1.94-.51-4.69-3.33-3.6-6.64.5-1.45-.56-1.67-1-.36-1.1 3.24 2.26 6.67 4.6 7.07z"/>
  <path d="M7.19428 32.2851c.19.05.16 0 0-.06-1.61567-.6384-2.99265-1.7638-3.93999-3.22-1.04-1.29-1.47-.37-.85.63.88 1.42 3.17 2.26 4.78999 2.65zM7.15468 33.4051c.14 0 .17-.08 0-.06-1.65.21-4 .78-5.06 2.08-.73.92-.41 1.89.8.73 1.10283-1.3336 2.59063-2.294 4.26-2.75zM119.074 31.9652c-.7.1-1.62.28-2.63.47-1.01.19-1.88.32-2.58.4.71 0 1.6 0 2.61.11l1.28.1c.45 0 .92.06 1.39.07 2.67.08 2.48-1.48-.07-1.15zM112.584 32.6351c2.35-.41 5.71-3.84 4.61-7.07-.45-1.31-1.51-1.09-1 .36 1.1 3.31-1.65 6.13-3.6 6.64-.25.07-.24.12-.01.07z"/>
  <path d="M114.554 32.2252c-.14.06-.16.11 0 .06 1.62-.39 3.9-1.23 4.79-2.64.62-1 .18-1.93-.88-.64-.934 1.4563-2.302 2.5826-3.91 3.22zM112.615 33.2151c-.23 0-.24 0 0 .07 2 .29 5 2.78 4.34 6.19-.33 1.5.75 1.59 1 .24.75-3.34-2.96-6.36-5.34-6.5z"/>
  <path d="M114.644 33.3452c-.2 0-.16 0 0 .06 1.676.4546 3.17 1.4149 4.28 2.75 1.2 1.16 1.53.19.8-.73-1.02-1.3-3.43-1.87-5.08-2.08zM108.595 22.8851c0-.44-.06-.89-.1-1.36-.006-.0709-.026-.1398-.061-.202-.034-.0621-.082-.1161-.139-.158-.058-.0401-.123-.0679-.192-.0817-.069-.0137-.14-.0132-.208.0017-4.77 1-24.3104 1.92-39.0804 2.1.8409-1.1264 1.3336-2.4743 1.4174-3.8774.0838-1.4031-.2449-2.8001-.9456-4.0186-.7007-1.2185-1.7427-2.2053-2.9976-2.8386-1.2549-.6333-2.6677-.8855-4.0642-.7254-1.3229.1456-2.5779.6621-3.62 1.49.2-1 .33-1.87.33-1.89l.19-.66c.21-.4575.5132-.86619.89-1.19995l.18-.17c.1933-.22455.3213-.49779.37-.79.0193-.08878.046-.17576.08-.26.1162-.11291.1977-.25668.2349-.41436.0372-.15767.0286-.3227-.0249-.47564v-.2l-2.44-1.44h-.2c-.1611.02439-.3122.09357-.436.19965-.1237.10608-.2152.2448-.264.40035-.0548.06489-.1151.1251-.18.18-.2392.17857-.423.42128-.53.7l-.1.29c-.1197.4875-.3412.94416-.65 1.34l-.44.43c-1.2219.88045-2.366 1.86405-3.42 2.93995-.8359.9706-1.5823 2.0149-2.23 3.12-.2785.5367-.5126 1.0952-.7 1.67-.2773.9339-.6811 1.8255-1.2 2.65-.3333.4201-.6941.8176-1.08 1.19-.3745.3233-.7102.6891-1 1.09-.2177.3367-.3641.7145-.43 1.11-13.19-.22-28.18-.72-31.8-1.92-.0791-.0243-.1628-.0297-.2445-.0158-.0816.0139-.1588.0467-.2255.0958-.0636.0491-.1143.1131-.1474.1863-.0332.0733-.0478.1535-.0426.2337v.51c.3011 1.9758.122 3.9951-.522 5.8871-.644 1.892-1.734 3.6011-3.17795 4.9829-.07459.0685-.12391.1601-.14.26h-.18c-2.38.14-6.11 3.16-5.38 6.5.3 1.35 1.38 1.26 1.05-.24-.71-3.41 2.35-5.8999 4.33-6.19h.18c-.01576.068-.01769.1384-.00566.2072.01202.0687.03775.1343.07566.1929 3.54995 4.9999 3.61995 8.3699 3.64995 10.1799.0046.0839.0287.1655.0704.2384.0416.0729.0997.1351.1696.1816.0783.0477.1685.072.26.07.0793-.001.1575-.018.23-.0499 4.67-2.31 29.42-3.8501 46.41-3.4901 9.8401.21 42.3504 1.07 47.6704 3.5.074.0394.156.0601.24.0601.083 0 .166-.0207.24-.0601.069-.0435.127-.1039.167-.1756.04-.0716.062-.1522.063-.2343 0-1.8101.1-5.1901 3.65-10.1801.065-.0881.101-.195.101-.305 0-.1099-.036-.2169-.101-.305-3.11-3.96-3.29-6.6-3.55-10.26zm-46.2604-10.17h.72c1.6131.0937 3.1262.8124 4.218 2.0036s1.6763 2.7609 1.6294 4.3761c-.0468 1.6151-.7214 3.1484-1.8804 4.2742-1.159 1.1259-2.7111 1.7557-4.327 1.7557-1.6158 0-3.168-.6298-4.327-1.7557-1.159-1.1258-1.8335-2.6591-1.8803-4.2742-.0469-1.6152.5376-3.1849 1.6294-4.3761 1.0918-1.1912 2.6049-1.9099 4.2179-2.0036zm-4.19 11.46c.6201.5712 1.3338 1.0312 2.11 1.36l-7.92-.09c.1694-.373.3131-.7573.43-1.15-.0044-.0565-.0044-.1134 0-.17l5.38.05zm-5-1.05c0-.11.08-.22.14-.34.4834-.8434 1.0751-1.62 1.76-2.31.31-.34.58-.64.8-.92-.0049.0499-.0049.1002 0 .15.1433 1.2541.616 2.4479 1.37 3.46l-4.07-.04zm3.15-13.11l.49-.46995c.4331-.52652.747-1.1406.92-1.8v-.2c.0849-.09499.1751-.18513.27-.27.1417-.1189.2663-.25688.37-.41l1.4.85c-.0825.16469-.143.33952-.18.52l-.09.32-.18.18c-.5084.44942-.9056 1.01085-1.16 1.63995l-.09.3c-1.36-.35-1.6999 1.88-3.44 1.75-.3431-.0311-.68-.112-1-.24 1.1-1 2.62-2.11 2.69-2.17zm-5.44 5.81c.6133-1.0652 1.3265-2.0698 2.13-3l.06-.06 3.86 2.32c-.4591.735-.7779 1.5488-.94 2.4-.19.35-.38.7-.59 1l-.09.12-4.51-2.68.08-.1zm-2.61 10c1.68 1 2.08 1 2.24 1 .3164-.0369.6199-.1464.887-.3199.2671-.1734.4906-.4061.653-.6801 3.17.05 6.32.08 9.34.11h.83c.2698.0157.5403.0157.81 0 .2632.0146.5269.0146.79 0 14.22 0 37.0004-.64 42.4104-1.65 0 .26 0 .5.06.74.23 3.14.32 4.46 3.36 8.1701-3.09 4.37-3.29 6.0899-3.33 7.74-5.06-1.8601-27.0904-2.7001-44.9204-3.07-2 0-4.18-.07-6.46-.07-15.1 0-34.56.9399-39.3 2.8099v.03c0-1.57 0-3.0499-2.95-7.2599 4-3.83 3.61-7.4101 3.44-9.1401v-.18c4.02 1.03 17.86 1.58 32.14 1.82v-.05zm59.3504 17.21c-6.85-2.23-35.1704-3.06-47.3804-3.32h-4.73c-14.81 0-35.59 1.22-41.45 3.34-.08-2-.49-5.21-3.57-9.66 1.4382-1.4477 2.5222-3.2082 3.1675-5.1441.6454-1.9359.8344-3.9948.5525-6.0159 4.69 1.09 19 1.56 31.53 1.78.06.11.2.38 1.69 1.33-17.7-.32-28.7-.99-31.49-1.91-.0352-.0192-.0748-.0293-.115-.0293-.0401 0-.0797.0101-.115.0293-.0307.0258-.0555.0579-.0728.0942-.0172.0362-.0265.0757-.0272.1158v.56c.18 1.8.52 5.16-3.44 8.87-.04.0457-.0621.1043-.0621.165 0 .0608.0221.1194.0621.165 3 4.22 3 5.6401 3 7.1401v.5299c.0006.0423.012.0838.033.1205.0209.0368.0509.0676.087.0895.0377.0172.0786.026.12.026.0414 0 .0824-.0088.12-.026 4.46-2.2 30.57-3.1699 45.88-2.8499 25.77.54 41.7704 1.6699 45.0704 3.1699h.1c.032.0014.064-.0038.095-.0153.03-.0114.057-.0289.081-.0513.023-.0224.042-.0493.054-.0791.013-.0298.02-.0619.02-.0942v-.07c0-1.77.07-3.3 3.36-7.92.031-.0455.049-.0996.049-.1551 0-.0554-.018-.1095-.049-.155-3.06-3.69-3.14-4.87-3.37-8 0-.32 0-.65-.08-1-.009-.0708-.045-.1355-.1-.18-.032-.0143-.066-.0218-.1-.0218-.035 0-.069.0075-.1.0218-4.62 1-26.1304 1.66-40.6404 1.69.7837-.326 1.5045-.7862 2.13-1.36 14.41-.14 33.8904-1 39.6404-2v.79c.25 3.6101.45 6.48 3.6 10.41-3.07 4.44-3.44 7.68-3.55 9.6701v-.0501zM60.4343 4.77515c.3628.00197.718-.10392 1.0204-.30424.3025-.20032.5386-.48603.6783-.82082.1398-.33479.1769-.70357.1066-1.05949-.0703-.35591-.2448-.6829-.5013-.93943-.2566-.25653-.5836-.43103-.9395-.50132-.3559-.07029-.7247-.03321-1.0595.10654-.3348.13975-.6205.37585-.8208.67832-.2003.30247-.3062.65765-.3042 1.02044.0026.48188.1952.94328.536 1.28403.3407.34075.8021.53334 1.284.53597zm0-2.65c.2031.0224.3909.11896.5272.27119.1364.15223.2118.34943.2118.55381s-.0754.40157-.2118.5538c-.1363.15223-.3241.2488-.5272.2712-.2032-.0224-.3909-.11897-.5273-.2712-.1363-.15223-.2117-.34942-.2117-.5538 0-.20438.0754-.40158.2117-.55381.1364-.15223.3241-.24879.5273-.27119zM75.6142 4.28512c.3595-.00198.7104-.1104 1.0084-.31158.298-.20118.5297-.48611.6659-.81884.1362-.33273.1708-.69836.0995-1.05074-.0714-.35238-.2455-.67574-.5004-.92927-.2549-.253535-.5792-.425883-.932-.495301-.3528-.069419-.7182-.032797-1.0502.105243-.332.138041-.6156.371318-.8152.670388-.1995.29908-.306.65056-.306 1.01009.0026.48362.1966.94652.5395 1.28755.3429.34103.8069.53246 1.2905.53246zm0-2.64001c.2175 0 .426.0864.5798.24018s.2402.36235.2402.57982c0 .21748-.0864.42605-.2402.57983-.1538.15378-.3623.24018-.5798.24018-.1077 0-.2143-.02122-.3138-.06242-.0995-.04121-.1899-.10161-.2661-.17776-.0761-.07614-.1365-.16654-.1777-.26602-.0412-.09949-.0624-.20612-.0624-.31381 0-.10768.0212-.21431.0624-.3138.0412-.09948.1016-.18988.1777-.26602.0762-.07615.1666-.13655.2661-.17776s.2061-.06242.3138-.06242z"/>
  <path d="M64.2246 9.02517c-.0019.36278.104.71797.3043 1.02043.2003.3025.486.5386.8208.6783.3348.1398.7036.1769 1.0595.1066.3559-.0703.6829-.2448.9394-.5014.2565-.2565.431-.58348.5013-.93939.0703-.35592.0332-.72469-.1065-1.05949-.1398-.33479-.3759-.62049-.6783-.82081-.3025-.20032-.6577-.30622-1.0205-.30424-.4827 0-.9456.19175-1.2869.53306-.3413.34132-.5331.80424-.5331 1.28694zm2.65 0c.002.16457-.045.32601-.135.46381-.0899.1378-.2189.24574-.3703.3101-.1515.06436-.3187.08223-.4804.05134-.1616-.03089-.3105-.10914-.4275-.22481-.1171-.11567-.1972-.26353-.23-.42481-.0329-.16127-.017-.32866.0455-.48091.0625-.15224.1689-.28247.3056-.37412.1367-.09165.2976-.14059.4621-.1406.2184-.00002.4281.08605.5834.23955.1554.1535.244.36205.2466.58045zM61.5043 6.53514c-.19.24-.14.29.08.06 1.76-1.9 6.66-3.32 9.77 0 1.34 1.45 2.25.37 1-1-2.99-3.22-8.95-1.48-10.85.94z"/>
  <path d="M69.2641 2.02514c2.12-.39 1.3201-1.48-.1899-1.39-2.15.14-4.5101 2.23-5.9401 3.84-.17.19-.1.19 0 .06 1.7311-1.45635 3.8747-2.33409 6.13-2.51zM62.8646 17.7251c.16.32.44.34.62 0l1.73-2.83c.0443-.0699.0728-.1486.0836-.2307.0107-.0821.0035-.1655-.0213-.2445-.0247-.079-.0664-.1516-.122-.2129-.0557-.0613-.124-.1097-.2003-.1419-.498-.2199-1.0281-.3583-1.57-.41-.5467-.0052-1.0906.0792-1.61.25-.0789.0246-.1516.0661-.213.1216-.0613.0555-.1098.1236-.1422.1997-.0323.0761-.0477.1584-.0451.2411.0026.0826.0232.1637.0603.2376l1.43 3.02zM58.5644 18.3252l3.3.26c.36 0 .51-.2101.34-.5201l-1.59-2.91c-.0364-.074-.0887-.1391-.1531-.1906-.0645-.0515-.1395-.0881-.2198-.1072-.0803-.0191-.1637-.0202-.2445-.0033-.0807.0169-.1568.0514-.2226.1011-.4423.3235-.8304.715-1.15 1.16-.2733.4735-.4723.9862-.59 1.52-.0175.081-.0172.1648.0009.2456.0182.0808.0537.1566.1041.2223.0505.0657.1146.1196.188.1579.0734.0384.1543.0603.237.0643zM64.3944 18.7151l3.31.08c.0828.0036.1653-.011.2419-.0426s.1454-.0796.2016-.1405c.0561-.0609.0983-.1334.1236-.2123.0253-.0789.0331-.1624.0229-.2446-.0619-.5262-.207-1.0393-.43-1.52-.2641-.4735-.6016-.9022-1-1.27-.061-.0554-.1333-.0969-.212-.1216-.0786-.0247-.1616-.0321-.2434-.0217-.0817.0105-.1602.0385-.2301.0823-.0698.0437-.1294.1021-.1745.171l-1.87 2.73c-.23.25-.1.5.26.51zM63.3544 20.0751c-.15-.33-.43-.34-.62 0l-1.73 2.8c-.0443.07-.0728.1487-.0835.2308-.0108.082-.0036.1655.0212.2445.0247.0789.0664.1516.122.2129.0557.0612.124.1096.2003.1418.5007.2204 1.0347.3556 1.58.4.546.0055 1.0894-.0755 1.61-.24.0791-.0242.1519-.0656.2131-.1213.0613-.0556.1094-.1242.1409-.2007.0316-.0765.0458-.159.0416-.2417-.0041-.0826-.0265-.1633-.0656-.2363l-1.43-2.99zM67.7043 19.4751l-3.31-.26c-.36 0-.51.2-.34.52l1.55 2.9c.0384.0736.0924.1378.1582.1883.0658.0505.1418.086.2227.1041.0809.0181.1649.0183.2459.0006.081-.0176.1572-.0528.2232-.103.4432-.3308.8285-.733 1.14-1.19.279-.4671.4784-.9774.59-1.51.0128-.0743.0104-.1505-.0071-.224-.0174-.0734-.0495-.1425-.0943-.2033-.0449-.0607-.1015-.1117-.1666-.15-.065-.0382-.1371-.063-.212-.0727zM61.8244 19.0852l-3.31-.08c-.0822-.0051-.1647.008-.2413.0385-.0766.0304-.1456.0774-.2019.1376-.0564.0602-.0988.1321-.1241.2105-.0254.0785-.0331.1616-.0227.2434.0567.5433.2019 1.0736.4301 1.57.261.4755.5989.9046 1 1.27.0603.0558.1321.098.2103.1235.0782.0255.161.0338.2427.0243.0817-.0095.1603-.0366.2306-.0793.0703-.0428.1304-.1003.1763-.1685l1.9-2.74c.2-.29.07-.54-.29-.55zM74.0342 21.2051c2.22-2.14 5.52-5 11.57-1.26.1742-.2734.2871-.5814.3307-.9027.0436-.3212.0169-.6482-.0782-.9581-.095-.31-.2563-.5956-.4725-.8372-.2163-.2416-.4824-.4333-.78-.562-3.05-1.6-7.9-1.19-10.57 4.52z"/>
  <path d="M75.0047 18.7851c.0898-.6586.3084-1.2931.6435-1.8673.3351-.5741.78-1.0766 1.3093-1.4787.5294-.4021 1.1328-.696 1.7757-.8648.643-.1688 1.3129-.2093 1.9715-.1192 0 0 .16-1-1.32-1-1.2749.1558-2.441.7963-3.2565 1.7886-.8154.9924-1.2178 2.2605-1.1235 3.5414zM44.7045 21.2051c-2.67-5.71-7.52-6.12-10.58-4.52-.2976.1287-.5637.3204-.78.562-.2162.2416-.3775.5272-.4726.8372-.0951.3099-.1217.6369-.0781.9581.0436.3213.1564.6293.3307.9027 6.02-3.7 9.32-.88 11.58 1.26z"/>
  <path d="M43.7048 18.7851c.091-1.2839-.3167-2.5534-1.1381-3.5444-.8215-.9909-1.9934-1.6269-3.2719-1.7756-1.48 0-1.32 1-1.32 1 .6601-.0945 1.3325-.0575 1.9783.1087.6458.1662 1.2524.4584 1.7849.8599s.9804.9042 1.318 1.4794c.3375.5752.558 1.2114.6488 1.872zM54.324 45.9151c-1.1449.1145-2.244.5095-3.2 1.15.6504.261 1.1788.7572 1.48 1.39 1.2409-1.1967 2.8532-1.934 4.57-2.09-.8992-.3796-1.8775-.534-2.85-.45z"/>
  <path d="M54.7041 50.2451c1.94-2 3.3-2.74 4.17-3l-.17-.06c-.0516.0192-.1083.0192-.16 0-1.26-.77-3.64-.06-5.55 1.64.3664.1085.7069.2903 1.0008.5344.294.2441.5353.5454.7092.8856zM60.7648 55.4052c.6038-1.0462.843-2.2632.68-3.46-.1307-.908-.4148-1.7872-.84-2.6.1106.8509.0403 1.7156-.2061 2.5375-.2464.822-.6634 1.5827-1.2239 2.2325.3452.0811.6675.2393.9429.4627.2753.2234.4966.5062.6471.8273z"/>
  <path d="M59.7042 48.0651l-.25-.24c0 .94-.59 2.52-2.38 4.59.3627.1047.7003.2818.9925.5208.2922.2389.5329.5346.7075.8692.6537-.7563 1.0863-1.6782 1.2504-2.6643.164-.9861.0532-1.9984-.3204-2.9257-.0194-.0481-.0194-.1019 0-.15zM30.9346 56.3051c-.11.0632-.1988.1577-.255.2714-.0563.1138-.0774.2417-.0608.3675.0166.1258.0703.2438.1541.3391.0839.0952.1941.1634.3168.1958.1227.0324.2522.0277.3722-.0137s.2249-.1175.3015-.2186c.0767-.1011.1215-.2228.1288-.3495.0073-.1267-.0231-.2527-.0876-.362-.0855-.1451-.2249-.2506-.3877-.2937-.1629-.043-.3362-.0202-.4823.0637zM26.8744 56.7452c-.0821.0366-.1555.09-.2155.1569-.06.0668-.1053.1455-.1329.231-.0275.0855-.0368.1758-.0272.2651.0096.0894.038.1756.0831.2533.0452.0776.1062.1449.1791.1974.0729.0525.156.0891.244.1074.0879.0182.1787.0178.2665-.0014.0878-.0191.1705-.0565.2429-.1097.1271-.0936.2152-.2308.2473-.3854.0321-.1546.006-.3156-.0734-.452-.0794-.1365-.2064-.2388-.3567-.2872-.1502-.0485-.3131-.0398-.4572.0246zM28.9339 57.9351c-.0728.0415-.1367.097-.1878.1634-.0512.0664-.0885.1423-.1099.2233-.0215.081-.0265.1655-.0149.2485.0117.083.0397.1628.0826.2348.0856.1452.2249.2507.3878.2938.1628.043.3361.0201.4822-.0638.0821-.0366.1555-.09.2155-.1568.06-.0669.1053-.1456.1329-.2311.0275-.0855.0368-.1758.0272-.2651-.0096-.0894-.038-.1756-.0831-.2533-.0452-.0776-.1062-.1449-.1791-.1974-.0729-.0525-.156-.0891-.244-.1074-.0879-.0182-.1787-.0178-.2665.0014-.0878.0191-.1705.0565-.2429.1097zM25.5044 58.2451c-.0723.0414-.1356.0966-.1865.1624-.0509.0659-.0884.1411-.1102.2215-.0218.0803-.0276.1641-.017.2467.0106.0825.0373.1622.0787.2344.0413.0723.0965.1356.1624.1865.0658.0509.1411.0884.2214.1102.0803.0218.1642.0276.2467.017.0826-.0106.1622-.0373.2345-.0787.1458-.0835.2525-.2216.2966-.3838.0441-.1622.0219-.3353-.0616-.4812-.0836-.1458-.2216-.2525-.3839-.2966-.1622-.0441-.3353-.0219-.4811.0616zM70.2445 44.0551c-1.572.5754-2.9795 1.5264-4.1 2.77 1.0497.1362 2.0026.6827 2.65 1.52 1.3211-2.1902 3.3818-3.836 5.81-4.64-1.4591-.2619-2.9613-.1413-4.36.35z"/>
  <path d="M72.3746 50.1251c2-3.66 3.72-5.13 4.86-5.7-.25-.1-.52-.2-.81-.29-2.11-.47-5.16 1.4-7.2 4.47.6047.0054 1.2006.1445 1.7452.4073.5446.2628 1.0243.6427 1.4048 1.1127zM79.4447 53.6851c1.64-2.64.79-6.95-.65-8.41-.2378-.1753-.4885-.3324-.75-.47.41 1.27.15 3.75-1.7 7.4.5942.001 1.1808.1343 1.717.3903s1.0087.6283 1.383 1.0897zM61.8139 59.9951c-.1458.0836-.2525.2216-.2966.3839-.0441.1622-.0219.3353.0616.4811.0836.1459.2216.2526.3839.2967.1622.0441.3353.0219.4811-.0617.0723-.0413.1356-.0965.1865-.1624.0509-.0658.0884-.1411.1102-.2214.0218-.0803.0276-.1642.017-.2467-.0106-.0826-.0373-.1622-.0787-.2345-.0413-.0722-.0965-.1356-.1624-.1865-.0658-.0509-.1411-.0883-.2214-.1101-.0803-.0218-.1641-.0276-.2467-.017-.0826.0105-.1622.0373-.2345.0786z"/>
  <path d="M108.484 57.4451c-8.218-2.951-17.0227-3.8939-25.6795-2.75.4015-1.5635.2749-3.2158-.36-4.7-.5507-1.3313-1.3442-2.5487-2.34-3.59.5175 1.1855.767 2.4705.7307 3.7635-.0363 1.293-.3575 2.562-.9407 3.7165.9125-.0428 1.8069.2649 2.5.86-.67.11-1.34.22-2 .35l-1.8.36c-2 .39-4.37.85-6.4 1.29l2.9-5.68c.3361.23.622.526.84.87 1.84-3.65 2-6 1.61-7.1-.93.44-2.61 1.74-4.72 5.52.4712-.0095.9397.0719 1.38.24l-3.27 6.43-.89.21c-6 1.44-12.27.81-18.4-.2l4.83-5.51c.1185.1586.2129.3338.28.52 1.74-2 2.29-3.49 2.24-4.27-.7.17-2 .77-3.91 2.79.2258.0709.4411.1718.64.3l-5 5.68c-.0742.0905-.1164.2031-.12.32l-3.52-.63c-4.7903-1.0025-9.6519-1.6277-14.54-1.87-3.42-.08-8.34.26-11.52 4.14-.0811.105-.119.237-.106.3689.013.132.076.254.176.3411.0921.07.2043.1086.32.11.0728.0008.1449-.0149.2108-.0461.0658-.0312.1237-.077.1692-.1339 2.22-2.7 5.63-3.91 10.72-3.78 4.8374.2425 9.6486.861 14.39 1.85 7.67 1.4 15.61 2.84 23.36 1h.07l-1 2c-.7855-.1484-1.5963-.0863-2.35.18-.0616.0223-.1182.0566-.1663.101-.0481.0445-.0869.0981-.1139.1578-.027.0597-.0418.1241-.0435.1896-.0017.0655.0098.1307.0337.1916.0451.1247.1379.2263.2579.2825.12.0563.2574.0626.3821.0175.7193-.2523 1.5001-.2698 2.23-.05.7617.2272 1.467.6122 2.07 1.13.1023.068.226.096.3476.0786.1216-.0174.2325-.079.3116-.1729.0791-.094.1209-.2137.1173-.3365-.0035-.1228-.0521-.2399-.1365-.3292-.5957-.5002-1.272-.8958-2-1.17l1.32-2.59c2.17-.48 4.9-1 7.17-1.46l1.81-.36c9.2335-1.6765 18.7465-.876 27.5695 2.32.126.0438.265.0357.385-.0224s.212-.1616.255-.2876c.044-.1259.036-.2641-.022-.3842-.058-.12-.162-.212-.288-.2558h.01z"/>
  <path d="M63.7046 61.2151c-.1451.0856-.2506.2249-.2937.3878-.0431.1629-.0202.3361.0637.4822.0836.1459.2216.2526.3839.2967.1622.044.3353.0219.4811-.0617.1459-.0835.2526-.2216.2967-.3838.044-.1622.0219-.3353-.0617-.4812-.0839-.1468-.2225-.2545-.3855-.2994-.163-.045-.3372-.0236-.4845.0594zM71.9341 59.3652c-.1104.0622-.1998.1558-.257.2689-.0571.1132-.0794.2407-.0639.3665.0154.1258.0678.2442.1506.3401.0828.096.1922.1652.3144.1989.1222.0337.2516.0304.3719-.0096.1203-.0399.226-.1146.3037-.2147.0778-.1001.1241-.221.133-.3475.0089-.1264-.0198-.2526-.0827-.3626-.0839-.1469-.2225-.2545-.3855-.2995-.163-.045-.3372-.0236-.4845.0595zM74.6241 60.3051c-.1101.0632-.1989.1577-.2551.2714-.0562.1138-.0774.2417-.0608.3675.0167.1258.0703.2438.1542.339.0838.0953.1941.1635.3168.1959.1226.0324.2522.0276.3722-.0137.1199-.0414.2249-.1175.3015-.2186.0766-.1012.1214-.2228.1288-.3495.0073-.1267-.0232-.2527-.0876-.362-.0874-.1431-.2267-.247-.3888-.2899-.1621-.0428-.3346-.0214-.4812.0599zM77.0639 58.0551c-.1458.0836-.2525.2216-.2966.3838-.0441.1623-.0219.3354.0616.4812.0836.1459.2216.2526.3839.2967.1622.044.3353.0219.4811-.0617.1469-.0839.2545-.2225.2995-.3855.045-.163.0236-.3372-.0595-.4845-.0873-.1431-.2266-.247-.3887-.2899-.1622-.0428-.3346-.0214-.4813.0599zM65.1243 59.6851c-.0728.0414-.1367.0969-.1878.1633-.0511.0664-.0885.1424-.1099.2234-.0214.081-.0265.1655-.0148.2485.0116.083.0397.1628.0825.2348.0632.1101.1577.1988.2714.2551.1138.0562.2417.0773.3675.0607.1258-.0166.2438-.0702.3391-.1541.0952-.0838.1634-.1941.1958-.3168.0324-.1227.0277-.2522-.0137-.3722-.0414-.1199-.1174-.2249-.2186-.3015-.1011-.0766-.2228-.1215-.3495-.1288-.1266-.0073-.2526.0232-.362.0876zM75.0144 59.0952c.1271-.0936.2152-.2308.2473-.3854.0322-.1546.006-.3156-.0734-.452-.0794-.1365-.2064-.2388-.3567-.2872-.1502-.0485-.3131-.0398-.4572.0246-.0821.0366-.1555.09-.2155.1569-.06.0668-.1053.1455-.1329.231-.0275.0855-.0368.1758-.0272.2651.0096.0894.038.1756.0831.2533.0452.0776.1062.1449.1791.1974.0729.0525.156.0891.244.1074.0879.0182.1787.0178.2665-.0014.0878-.0191.1705-.0565.2429-.1097z"/>
</svg>