<svg fill="currentColor" viewBox="0 0 185 50">
  <path d="M73.0033 12.9551c-3.3 15.16-23.01 14.62-36.3 18.33-14.29 3.97-21.61 18.35-21.61 18.35 7-6.75 11.34-13.69 33.12-17.66 25.37-4.6 24.79-19.02 24.79-19.02z"/>
  <path d="M50.9135 19.4552c7.67.18 13.27-1.45 14.09-6.82.82-5.37004-4.81-9.15004-8.88-7.29004-3.82 1.73-4.63 4.78004-3.42 7.29004 1.21 2.51 3.16 1.26 3.16 1.26-.49-.73-1.87-4.65004 2.35-6.08004 4.22-1.43 7.67 5.60004 2.26 9.00004-5.41 3.4-19-1.25-25.82 3.64-6.08 4.36-3.68 12.41-3.68 12.41 1.2-14.94 12.54-13.57 19.94-13.41z"/>
  <path d="M51.2835 9.44511c.3609-1.25696.9961-2.4182 1.86-3.4 6.98-6.509998 17.27 2.59 11.61 9.68999-6 7.47-18.29 3-25.25 5.63-1.8208.7041-3.4214 1.8801-4.6376 3.4073-1.2161 1.5272-2.0038 3.3505-2.2824 5.2827 6.48-11.77 13.91-6.3 25.82-8.65 11.91-2.35 10.73-12.65999 5.05-16.76999-5.68-4.109998-10.83-1.15-12.75 1.71s-.13 5.34999.58 3.1zM21.1435 38.5551c-5.75 1.81-10.5 8.94-14.68 7.55-.91701-.3641-1.74119-.9283-2.41243-1.6515-.67124-.7231-1.17262-1.5869-1.46757-2.5285-1.43 0-3.270004 3-.26 6.28 3.01 3.28 9.2 1.39 12-2.34 3.83-5.23 5.38-6.18 6.82-7.31zm-18.75 7.85c-1.12-1.77-.17-2.77-.17-2.77 2.1 4.48 7.8 3.68 7.8 3.68-3.32 1.68-6.51.88-7.63-.91zM16.8535 49.9851c2.36-2.89 7.13-5.74 12.73-8.14 7.4-3.16 11.33-4.29 13.15-6.34-2.93 1.3-7.32 1.18-13 3.91-6.86 3.27-11.98 8.94-12.88 10.57z"/>
  <path d="M33.5034 31.1152s1.2-1.08 6.2-2.81c4.56-1.56 12.18-1.22 16.06-3.87-.9386.183-1.8938.2668-2.85.25-2.06 0-3.4-.28-5.67-.32-4.54-.06-10.83 1.09-13.74 6.75zM62.1934 22.0752c9.93-3.19 9.85-11.12 8.51-13.67003-1.2-2.25-2.47-1.23-2.47-1.23 5.63 10.21003-6.04 14.90003-6.04 14.90003zM80.4937 15.9051c-3.41-.49-7.85 1.5-8.48 7.78 1.39-2.76 3.57-6.51 10.5-5 .0797-.3178.0888-.6493.0265-.971-.0623-.3217-.1944-.6258-.387-.8909-.1927-.2651-.4411-.4847-.7278-.6433-.2868-.1587-.6048-.2524-.9317-.2748z"/>
  <path d="M84.0437 17.0052s.87-.72-.49-1.84c-1.1793-.8532-2.6394-1.2248-4.0831-1.039-1.4436.1858-2.7621.915-3.6869 2.039 1.29-1.11 4.83-2.62 8.26.84zM35.3136 13.3251s.72-5.16996 8.32-1.8c0 0-8-6.27996-9.74-.78 0 0-3.4-1.18996-3.1 2.54 0 0 1.29-2.95 4.52.04zM148.704 31.2851c-13.33-3.71-33-3.17-36.33-18.33 0 0-.59 14.42 24.79 19.05 21.78 4 26.13 10.91 33.12 17.66-.01-.03-7.33-14.41-21.58-18.38z"/>
  <path d="M124.924 16.7552c-5.41-3.38-2-10.41004 2.26-9.00004 4.26 1.41 2.84 5.35004 2.34 6.08004 0 0 2 1.22 3.16-1.26 1.16-2.48.38-5.52004-3.45-7.28004-4.06-1.86-9.7 1.89-8.88 7.29004.82 5.4 6.43 7 14.09 6.85 7.41-.16 18.74-1.53 20 13.35 0 0 2.4-8-3.69-12.41-6.85-4.87-20.41-.24-25.83-3.62z"/>
  <path d="M126.964 21.4051c11.91 2.35 19.34-3.12 25.82 8.65-.279-1.9322-1.067-3.7555-2.283-5.2827-1.216-1.5272-2.817-2.7032-4.637-3.4073-7-2.6-19.28 1.84-25.25-5.63-5.66-7.06998 4.62-16.199982 11.6-9.68998.869.97949 1.508 2.14125 1.87 3.4.71 2.24998 2.56-.27.62-3.1s-7.12-5.810001-12.79-1.71c-5.67 4.1-6.86 14.41998 5.05 16.76998zM182.783 41.9251c-.298.9416-.801 1.8051-1.474 2.5281-.673.7229-1.498 1.2872-2.416 1.6519-4.18 1.39-8.93-5.74-14.68-7.55 1.44 1.13 3 2 6.88 7.31 2.75 3.73 8.93 5.6 12 2.34 3.07-3.26 1.12-6.33-.31-6.28zm.18 4.48c-1.12 1.79-4.31 2.59-7.63.86 0 0 5.71.8 7.81-3.68 0 .05.94 1.05-.18 2.82zM155.704 39.4151c-5.72-2.73-10.11-2.61-13-3.91 1.82 2.05 5.75 3.18 13.15 6.34 5.59 2.4 10.37 5.25 12.73 8.14-.97-1.63-6.09-7.3-12.88-10.57z"/>
  <path d="M132.433 24.6852c-.953.0164-1.904-.0674-2.84-.25 3.87 2.65 11.5 2.31 16.06 3.87 5.06 1.73 6.21 2.81 6.21 2.81-2.92-5.66-9.16-6.81-13.75-6.75-2.27.04-3.62.27-5.68.32zM114.704 8.40517c-1.37 2.55003-1.45 10.48003 8.48 13.67003 0 0-11.66-4.69-6-14.90003-.03 0-1.3-1.02-2.48 1.23zM104.863 15.9051c-.322.0259-.634.1211-.916.2791-.282.158-.526.375-.716.6362-.19.2613-.321.5605-.385.8771-.063.3167-.057.6434.017.9576 6.93-1.48 9.11 2.27 10.49 5-.65-6.25-5.08-8.24-8.49-7.75z"/>
  <path d="M109.584 16.1452c-.927-1.1247-2.247-1.8542-3.692-2.04-1.446-.1857-2.907.1861-4.088 1.04-1.35 1.12-.48 1.84-.48 1.84 3.43-3.44 6.97-1.93 8.26-.84zM150.054 13.3251c3.23-3 4.52 0 4.52 0 .3-3.72998-3.1-2.54-3.1-2.54-1.73-5.49998-9.75.78-9.75.78 7.61-3.40998 8.33 1.76 8.33 1.76zM99.0235 7.15515l-2.39-1.44h-.2c-.1602.02386-.3103.09301-.4325.19931-.1223.1063-.2116.24532-.2575.40069-.0585.06491-.122.12509-.19.18-.231.18262-.4131.4197-.53.69l-.06.25c-.1238.48601-.345.94186-.65 1.34l-.44.43c-1.224.87785-2.3684 1.86165-3.42 2.93995-.8404.9694-1.5902 2.0138-2.24 3.12-.2682.5414-.502 1.0992-.7 1.67-.2839.9506-.6943 1.8587-1.22 2.7-.3391.4182-.7031.8156-1.09 1.19-.3723.3256-.7076.6911-1 1.09-.2222.3006-.3667.6513-.4208 1.0212-.0541.3698-.016.7473.1108 1.0988.06.13.22.44 2.28 1.71 2.06 1.2701 2.32 1.18 2.49 1.18.3852-.0434.7529-.1847 1.068-.4106.3151-.2258.5671-.5285.732-.8794.2219-.4297.3962-.8824.52-1.35.1544-.5154.3346-1.0227.54-1.52.4873-.8435 1.0823-1.62 1.77-2.31.4163-.4386.8006-.9064 1.15-1.4.6789-1.0853 1.258-2.23 1.73-3.42.4606-1.4109.7952-2.8599 1-4.33l.19-.65c.2063-.457.5061-.8658.88-1.19995l.19-.17c.1896-.22692.3171-.49911.37-.79 0-.08 0-.2.07-.26.1162-.11291.1977-.25668.2349-.41436.0372-.15768.0286-.3227-.0249-.47564l-.06-.19zm-5.43 11.38995c-.0715.116-.1517.2263-.24.33l-4.46-2.66c.0534-.1346.1169-.265.19-.39.5796-1.0051 1.249-1.9556 2-2.84l4.08 2.44c-.4224 1.0879-.9481 2.1326-1.57 3.12zm4.23-10.30995l-.12.32-.18.18c-.5115.4529-.9118 1.01748-1.17 1.64995l-.08.29c-1.37-.36-1.7 1.88-3.44 1.75-.3434-.03-.6804-.1109-1-.24 1.07-1 2.59-2.11 2.65-2.17l.5-.46995c.4333-.52493.7442-1.13983.91-1.8v-.19c.078-.10104.165-.19476.26-.28.1453-.1182.2732-.25622.38-.41l1.4.85c-.0544.1691-.0912.34335-.11.52zM98.7033 4.77515c.3628.00197.718-.10392 1.0205-.30424.3022-.20032.5382-.48603.6782-.82082s.177-.70357.107-1.05949c-.071-.35591-.245-.6829-.502-.93943-.2562-.25653-.5832-.43103-.9391-.50132-.3559-.07029-.7247-.03321-1.0595.10654-.3348.13975-.6205.37585-.8208.67832-.2004.30247-.3062.65765-.3043 1.02044.0027.48188.1952.94328.536 1.28403.3407.34075.8021.53334 1.284.53597zm0-2.65c.1646-.00199.326.045.4638.13499.1378.08999.2458.21891.3101.37039.0644.15148.0823.31867.0514.48033-.0309.16165-.1092.31048-.2248.42756-.1157.11708-.2636.19713-.4248.22997-.1613.03285-.3287.017-.4809-.04551-.1523-.06252-.2825-.16889-.3742-.30559-.0916-.1367-.1406-.29756-.1406-.46214 0-.21841.0861-.42802.2396-.58339.1535-.15538.362-.24398.5804-.24661zM113.834 4.28514c.36 0 .712-.10674 1.011-.30672.299-.19999.532-.48423.67-.81679.138-.33257.174-.69851.104-1.05155-.071-.35305-.244-.67734-.498-.93187-.255-.254533-.579-.427872-.932-.498097-.353-.070225-.719-.034183-1.052.103569-.332.137751-.617.371028-.817.670318-.2.2993-.306.65118-.306 1.01114 0 .4827.191.94562.533 1.28694.341.34131.804.53306 1.287.53306zm0-2.64c.162 0 .32.04809.455.1382.135.0901.24.21817.302.368.062.14984.079.31471.047.47378-.032.15906-.11.30517-.224.41985-.115.11468-.261.19278-.42.22442-.159.03164-.324.0154-.474-.04667-.15-.06206-.278-.16716-.368-.30201-.09-.13485-.138-.29339-.138-.45557-.002-.10852.019-.21623.059-.31687.041-.10064.101-.19222.177-.26943.077-.07721.167-.1385.268-.18034.1-.04183.207-.06337.316-.06336v.01zM102.454 9.02514c0 .35996.106.71184.306 1.01116.2.2993.485.5325.817.6703.333.1378.699.1738 1.052.1036.353-.0703.677-.2436.932-.4981.254-.2546.427-.57885.498-.9319.07-.35304.034-.71898-.104-1.05154-.138-.33257-.371-.61681-.67-.8168-.3-.19998-.651-.30672-1.011-.30672-.483 0-.946.19175-1.287.53306-.342.34132-.533.80425-.533 1.28694zm2.64 0c0 .16218-.048.32072-.139.45557-.09.13485-.218.23995-.368.30201-.149.06206-.314.0783-.473.04666-.159-.03164-.306-.10973-.42-.22441-.115-.11468-.193-.26079-.225-.41986-.031-.15906-.015-.32394.047-.47377.062-.14984.167-.2779.302-.36801.135-.0901.293-.13819.456-.13819.217 0 .426.08639.579.24017.154.15378.241.36235.241.57983zM109.583 6.55514c1.34 1.45 2.24.37 1-1-3-3.23-9-1.49-10.8897.93-.18.24-.13.29.08.06 1.7997-1.85 6.6997-3.27 9.8097.01z"/>
  <path d="M107.494 2.02514c2.11-.39 1.32-1.48-.19-1.39-2.15.14-4.51 2.23-5.94 3.84-.17.19-.1.19 0 .06 1.729-1.45927 3.874-2.33741 6.13-2.51z"/>
</svg>