<svg fill="none" viewBox="0 0 216 146">
  <path fill="currentColor" d="M43.4882 62.6352l-1.25 1 .82 1c.73.88.79 1.65 0 2.29-.79.64-1.69.26-2.4-.6l-4.4-5.36c-.68-.82-.73-1.64 0-2.28.73-.64 1.54-.3801 2.23.4599l.86 1.0501 1.26-1-.88-1.07c-1.34-1.63-2.89-2-4.4-.7-1.51 1.3-1.86 2.91-.36 4.74l4.55 5.54c1.39 1.69 3 1.71 4.57.41 1.57-1.3 1.37-3.0001.11-4.5601l-.71-.9199zM49.4081 61.9552l-6.7-9.73-1.4.96 7.58 11.01 4.35-3-.88-1.27-2.95 2.03zM50.7681 46.9251l4.36 13.05 1.38-.78-1.3-3.74 2.41-1.37 2.53 3 1.55-.83-9.06-10.39-1.87 1.06zm2 1.35l4 4.72-2 1.11-2-5.79v-.04zM64.4081 47.0951l-1.14-.3c-.79-.21-1.84-.3-2.38-1.48-.37-.82-.38-1.82.58-2.25.96-.43 1.58.16 2 1l.23.57 1.43-.64-.27-.6c-.85-1.87-2.3-2.47-3.95-1.72-1.83.82-2.29 2.57-1.43 4.48.2803.6447.7255 1.2041 1.2907 1.6219.5653.4179 1.2308.6794 1.9293.7581l1.39.29c.4714.0726.9186.2565 1.3047.5365.3861.28.6999.648.9153 1.0735.49 1.08.53 2-.38 2.4-1.2.54-1.89-.47-2.26-1.28l-.11-.25-1.44.66.23.5c.93 2.05 2.48 2.57 4.13 1.82 2-.91 2.3-2.66 1.39-4.66-.3051-.6874-.7852-1.2829-1.3923-1.7268-.6071-.444-1.3201-.7209-2.0677-.8032zM73.2377 43.6351l-1.11-.4c-.77-.28-1.81-.46-2.24-1.68-.3-.85-.22-1.85.77-2.2.99-.35 1.56.3 1.87 1.17l.19.56 1.48-.52-.22-.62c-.68-1.94-2.07-2.67-3.78-2.06-1.89.66-2.51 2.36-1.81 4.34.2173.6738.6095 1.2778 1.1366 1.7504.527.4726 1.1701.7968 1.8634.9396l1.31.42c.4633.1138.8928.3365 1.2528.6496.36.313.6402.7074.8172 1.1504.4 1.12.35 2-.59 2.36-1.24.43-1.84-.63-2.14-1.48l-.08-.25-1.5.53.18.52c.75 2.12 2.26 2.77 4 2.17 2.07-.73 2.52-2.45 1.79-4.52-.2431-.7064-.6645-1.338-1.2234-1.8338-.5589-.4958-1.2362-.8389-1.9666-.9962zM78.7313 35.4898l-1.6395.4495 3.5347 12.8943 1.6395-.4495-3.5347-12.8943zM90.848 41.9651l-1.59.31.25 1.28c.23 1.12-.08 1.83-1.08 2-1 .17-1.61-.57-1.82-1.66l-1.35-6.8c-.21-1 .13-1.8 1.12-2 .99-.2 1.54.39 1.75 1.46l.27 1.33 1.59-.25-.29-1.39c-.41-2.07-1.62-3.08-3.55-2.7-1.93.38-3 1.69-2.56 4l1.4 7c.42 2.15 1.82 2.93 3.83 2.53 2.01-.4 2.63-2 2.25-4l-.22-1.11zM103.878 40.6351l.08 1.29c.06 1.15-.34 1.8-1.35 1.86-1.01.06-1.52-.8-1.58-1.9l-.4-6.92c-.06-1.07.38-1.76 1.39-1.82 1.01-.06 1.47.6 1.53 1.69l.08 1.35 1.62-.09-.08-1.37c-.12-2.12-1.18-3.28-3.14-3.17-1.96.11-3.2201 1.26-3.0901 3.62l.41 7.15c.13 2.19 1.4101 3.15 3.4501 3 2.04-.15 2.88-1.63 2.77-3.62l-.07-1.2-1.62.13zM112.348 31.4551c-2.1-.07-3.21 1.27-3.28 3.28l-.24 7.25c-.066.4278-.035.8651.092 1.279.127.4139.346.7938.64 1.1112.294.3174.657.5641 1.06.7217.403.1576.837.2219 1.268.1881 2.09.07 3.22-1.39 3.29-3.35l.23-7c.07-2.02-.92-3.41-3.06-3.48zm1.11 10.53c0 1-.43 1.75-1.53 1.71-1.1-.04-1.43-.87-1.4-1.8l.24-7.18c0-1 .42-1.71 1.51-1.67 1.09.04 1.45.81 1.41 1.76l-.23 7.18zM121.708 32.3851l-1.69-.2-1.6 13.27 5.25.63.19-1.54-3.56-.43 1.41-11.73zM130.958 33.8251l-1.66-.34-2.67 13.1 5.18 1.06.31-1.52-3.52-.71 2.36-11.59zM143.058 38.5152l.43-1.49-5.08-1.48-3.74 12.83 5.08 1.48.43-1.48-3.44-1.01 1.3-4.45 2.84.83.43-1.49-2.84-.82 1.14-3.93 3.45 1.01zM150.498 39.3051c-1.84-.71-3.45-.19-4.31 2l-2.6 6.68c-.8 2 0 3.45 1.87 4.19 1.87.74 3.31-.29 4-2.14l.44-1.12-1.52-.59-.47 1.21c-.41 1.07-1.05 1.5-2 1.13-.95-.37-1.05-1.35-.64-2.39l2.51-6.46c.39-1 1.08-1.44 2-1.07.92.37 1.09 1.16.69 2.17l-.49 1.26 1.51.59.5-1.28c.82-1.96.34-3.46-1.49-4.18zM161.308 46.1551l.69-1.38-5.59-2.75-.68 1.38 2.02 1-5.22 10.61 1.54.76 5.22-10.61 2.02.99zM165.378 45.8581l-6.685 11.632 1.479.8499 6.685-11.6319-1.479-.85zM173.208 51.2851c-1.73-1.19-3.39-.65-4.52 1l-4.08 6c-.283.3267-.489.7131-.602 1.1305-.113.4175-.131.855-.051 1.2801.08.425.255.8265.511 1.1744.257.348.589.6334.972.835 1.72 1.17 3.46.55 4.57-1.07l3.92-5.77c1.14-1.68 1.05-3.38-.72-4.58zm-.65 3.54l-4 6c-.56.82-1.29 1.24-2.2.62-.91-.62-.74-1.49-.22-2.27l4-5.94c.54-.79 1.27-1.22 2.17-.6.172.1183.317.2722.425.4512.107.1791.175.3792.199.5868.024.2076.003.4179-.062.6167-.064.1987-.171.3813-.312.5353zM183.168 59.1452l-6.01 7.27-.03-.02 3.76-9.13-1.48-1.23-8.53 10.29 1.12.93 6.48-7.83.04.04-4.01 9.92 1.25 1.03 8.55-10.33-1.14-.94z"/>
  <path fill="var(--fg)" d="M61.808 126.295c-.172.262-.377.501-.61.71-.2437.238-.5197.44-.82.6-.3165.172-.6521.307-1 .4-.4051.104-.8219.154-1.24.15-.7088.006-1.4119-.126-2.07-.39-.6127-.248-1.1701-.615-1.64-1.08-.4591-.476-.8224-1.036-1.07-1.65-.5131-1.342-.5131-2.827 0-4.17.2428-.617.6094-1.177 1.0772-1.647.4679-.469 1.027-.838 1.6428-1.083.6353-.258 1.3144-.39 2-.39.3597-.004.7187.033 1.07.11.3433.073.6783.18 1 .32.2976.131.5794.296.84.49.2424.187.4549.409.63.66l-.84.61c-.1161-.173-.2539-.331-.41-.47-.1852-.164-.3901-.306-.61-.42-.2467-.124-.5045-.224-.77-.3-.2875-.073-.5832-.11-.88-.11-.5952-.01-1.1855.11-1.73.35-.4923.223-.9346.542-1.3.94-.3534.406-.6281.874-.81 1.38-.38 1.064-.38 2.226 0 3.29.1816.509.4601.977.82 1.38.3594.4.7989.721 1.29.94.5417.239 1.1282.358 1.72.35.5589.001 1.1113-.118 1.62-.35.5253-.247.9718-.634 1.29-1.12l.8.5zM77.5081 122.945c.0077.716-.1248 1.426-.39 2.09-.2514.613-.6222 1.171-1.0909 1.639-.4686.469-1.0258.84-1.6391 1.091-1.3171.52-2.7829.52-4.1 0-.6135-.249-1.1705-.619-1.6378-1.088-.4673-.469-.8354-1.027-1.0822-1.642-.5198-1.341-.5198-2.828 0-4.17.2597-.621.6443-1.183 1.13-1.65.4699-.465 1.0273-.832 1.64-1.08.6332-.266 1.3133-.402 2-.4.6856 0 1.3648.132 2 .39.6135.249 1.1705.619 1.6378 1.088.4673.469.8354 1.028 1.0822 1.642.2904.659.4435 1.37.45 2.09zm-1.07 0c.0046-.562-.0902-1.121-.28-1.65-.1779-.508-.453-.977-.81-1.38-.3586-.401-.7983-.721-1.29-.94-.5403-.242-1.1278-.362-1.72-.35-.5886-.008-1.1719.111-1.71.35-.4924.222-.9346.542-1.3.94-.3534.406-.6281.874-.81 1.38-.3735 1.068-.3735 2.232 0 3.3.1798.504.4547.97.81 1.37.6015.616 1.3758 1.035 2.2204 1.201.8446.166 1.7198.071 2.5096-.271.4905-.216.93-.533 1.29-.93.359-.398.6345-.864.81-1.37.1871-.526.2818-1.081.28-1.64v-.01zM92.2781 126.285c-.1774.261-.3819.502-.61.72-.2521.229-.5307.427-.83.59-.3157.176-.6515.314-1 .41-1.1034.251-2.2567.164-3.31-.25-.6159-.243-1.1746-.611-1.6411-1.081-.4664-.47-.8304-1.031-1.0689-1.649-.5198-1.341-.5198-2.828 0-4.17.2476-.615.6186-1.173 1.09-1.64.4647-.474 1.0233-.845 1.64-1.09.6505-.265 1.3475-.398 2.05-.39.3594.002.7178.038 1.07.11.3439.071.6791.178 1 .32.2999.131.5821.299.84.5.2467.178.46.398.63.65l-.84.62c-.1158-.177-.2536-.338-.41-.48-.1816-.169-.3872-.311-.61-.42-.2417-.125-.4966-.222-.76-.29-.2895-.082-.5892-.122-.89-.12-.595-.008-1.1848.112-1.73.35-.4962.238-.936.579-1.29 1-.3626.397-.6415.863-.82 1.37-.1854.531-.28 1.088-.28 1.65-.0005.56.0977 1.115.29 1.64.1832.508.4615.976.82 1.38.3654.398.8076.718 1.3.94.5385.238 1.1215.357 1.71.35.5619-.001 1.1173-.12 1.63-.35.5258-.242.9703-.631 1.28-1.12l.74.45zM99.3481 122.435l4.7199-4.45h1.44l-5 4.49 5.28 5.42h-1.48l-4.9999-5.28v5.28h-1v-9.91h1l.04 4.45zM114.468 127.895h-1v-9h-3.32v-.89h7.64v.9h-3.31l-.01 8.99zM122.698 127.885h-1.11l4.28-9.91h1l4.26 9.91h-1.12l-1.09-2.6h-5.13l-1.09 2.6zm1.45-3.52h4.37l-2.19-5.27-2.18 5.27zM137.998 127.885h-1v-9.91h1v9.91zM146.018 126.985h4.62v.9h-5.62v-9.91h1v9.01zM161.278 119.565c-.215-.303-.5-.55-.83-.72-.374-.189-.79-.282-1.21-.27-.254-.002-.507.035-.75.11-.246.071-.476.186-.68.34-.205.157-.375.354-.5.58-.128.258-.193.542-.19.83-.013.273.053.544.19.78.122.208.285.389.48.53.21.146.439.264.68.35l.8.28 1 .37c.34.124.66.295.95.51.283.214.515.487.68.8.193.377.286.797.27 1.22.013.415-.071.826-.245 1.203-.173.376-.432.707-.755.967-.299.233-.638.409-1 .52-.38.11-.774.168-1.17.17-.302 0-.604-.03-.9-.09-.294-.057-.58-.151-.85-.28-.273-.118-.529-.273-.76-.46-.234-.185-.442-.4-.62-.64l.87-.65c.225.368.538.674.91.89.41.247.882.372 1.36.36.261-.001.521-.042.77-.12.256-.077.497-.199.71-.36.21-.169.386-.376.52-.61.138-.255.207-.541.2-.83.009-.299-.06-.595-.2-.86-.137-.227-.321-.421-.54-.57-.237-.165-.496-.297-.77-.39l-.91-.31c-.33-.1-.65-.22-1-.35-.308-.124-.595-.296-.85-.51-.256-.209-.465-.472-.61-.77-.166-.356-.245-.747-.23-1.14-.016-.427.08-.852.28-1.23.181-.338.438-.629.75-.85.3-.224.639-.39 1-.49.361-.106.734-.16 1.11-.16.594-.016 1.183.107 1.72.36.423.193.793.484 1.08.85l-.76.64zM21.1879 83.4752l-2.14.53-.65-2.62 7.47-1.84.65 2.62-2.23.55 3.54 14.36 5.75-1.44-.63-2.53 2.75-.65 1.32 5.33-13.73 3.3798-.65-2.6198 2.14-.53-3.59-14.54zM51.558 88.5051c.76 4-1.59 7.08-5.7 7.87s-7.42-1.21-8.16-5.23l-1.46-7.51c-.77-4 1.34-7 5.69-7.87 4.11-.78 7.43 1.21 8.19 5.23l1.44 7.51zm-10.75 2c.0629.5106.2354 1.0015.5057 1.4392.2703.4377.632.8118 1.0603 1.0967.4283.2849.9131.4739 1.4212.554.5082.0801 1.0276.0494 1.5228-.0899.5123-.0499 1.0077-.2103 1.452-.4702.4444-.2598.8271-.613 1.1217-1.035.2947-.4221.4943-.903.5852-1.4096.0909-.5067.0708-1.027-.0589-1.5252l-1.43-7.43c-.0627-.5116-.2354-1.0037-.5063-1.4422-.2709-.4386-.6335-.8133-1.063-1.0984-.4295-.285-.9157-.4737-1.425-.553-.5094-.0793-1.0299-.0474-1.5257.0936-.5103.0515-1.0035.2127-1.4458.4725-.4423.2598-.8232.6122-1.1166 1.0329-.2934.4207-.4925.8998-.5836 1.4046-.091.5048-.0719 1.0233.056 1.52l1.43 7.44zM54.3381 76.6351l-2.18.29-.35-2.67 4.94-.66 9.54 12.72-1.47-11.1-2.18.29-.35-2.67 7.25-1 .35 2.67-2.19.33 2.32 17.52-2.58.34-9.74-12.97 1.5 11.34 2.15-.28.35 2.67-7.25 1-.36-2.67 2.19-.29-1.94-14.86zM80.6981 91.7551c-4.12.31-7.18-2-7.49-6.12l-.51-7.63c-.31-4.08 2-6.83 6-7.13.8361-.1073 1.6856-.0304 2.4889.2252.8032.2557 1.5409.684 2.1611 1.2548l-.11-1.52 2.74-.2.47 6.31-2.81.21v-.5c-.14-1.91-1.6-3.14-4.14-3-.5155-.006-1.0263.099-1.4976.308-.4713.209-.8921.5171-1.2337.9033s-.596.8414-.7459 1.3347c-.1499.4933-.1918 1.0131-.1228 1.524l.57 7.63c.0041.5095.1178 1.012.3334 1.4736.2156.4616.528.8714.916 1.2015.388.3301.8425.5729 1.3327.7118.4901.1389 1.0044.1706 1.5079.0931 2.47-.18 3.75-1.74 3.59-3.84l-.11-1.48-3.34.29-.19-2.54 6.31-.47.3 4c.26 3.97-2.3 6.65-6.42 6.96zM98.598 72.9452h-2.2001v-2.7l7.5901-.09v2.69h-2.2l.19 15h2.2v2.7l-7.56.09v-2.69h2.2l-.22-15zM110.308 89.1351v1.52h-2.79l.12-6.17 2.88.06v.71c0 1.86 1.4 3.12 3.81 3.17 2.41.05 3.84-1.2 3.87-3 .03-1.8-1.07-2.53-2.73-3.18l-3-1.23c-2.58-1-4.35-2.66-4.3-5.48.06-3.1 2.46-5.47 6.15-5.4.773-.016 1.539.1378 2.246.4506.707.3127 1.336.7768 1.844 1.3594v-1.43h2.7l-.11 6h-2.85v-.56c0-1.79-1.28-3.12-3.48-3.16-2.2-.04-3.4 1-3.42 2.57.02.6024.234 1.1823.611 1.6528.377.4705.896.8063 1.479.9572l3.07 1.24c2.44 1 5 2.29 4.92 5.95-.08 3.66-2.62 6-6.41 6-.868.0088-1.729-.1678-2.524-.5178-.795-.3501-1.506-.8656-2.086-1.5122zM126.908 73.6351l-2.2-.18.22-2.69 7.66.63-.22 2.68-2.28-.18-1.2 14.74 5.9.48.21-2.59 2.81.23-.45 5.47-14.08-1.15.22-2.69 2.19.18 1.22-14.93zM145.058 93.2052l-6.64-.92.38-2.65 2 .27 8-16.73 3.32.46 3.16 18.28 2 .28-.37 2.67-6.91-1 .37-2.67 1.63.22-.54-3.3-6.18-.85-1.45 3 1.66.23-.43 2.71zm4.69-15.94l-3.51 7.65 4.79.67-1.28-8.32zM164.088 78.2552l-2.15-.44.54-2.64 4.89 1 4.85 15.13 2.23-10.93-2.16-.44.54-2.65 7.17 1.47-.54 2.64-2.16-.44-3.53 17.31-2.55-.52-5-15.44-2.28 11.21 2.12.43-.49 2.69-7.16-1.47.53-2.64 2.16.44 2.99-14.71zM183.348 82.3952l-2.13-.56.69-2.61 8.72 2.32c4.29 1.13 6.25 4.38 5.17 8.42l-1.72 6.5c-1.08 3.9998-4.39 5.8898-8.67 4.7598l-8.71-2.3198.69-2.6 2.13.56 3.83-14.47zm3 1l-3.75 14.11 3.51.93c.503.1888 1.042.2642 1.577.2208.536-.0435 1.056-.2047 1.522-.4722.466-.2675.867-.6346 1.175-1.0752.308-.4406.515-.9437.606-1.4734l1.73-6.5c.176-.502.241-1.0364.19-1.5661-.052-.5296-.218-1.0416-.487-1.5005-.269-.4588-.636-.8534-1.073-1.1562-.438-.3029-.936-.5067-1.46-.5972l-3.54-.92zM67.528 100.065h-1.59v-1.9399h5.47v1.9399h-1.59v10.78h1.59v1.94h-5.47v-1.94h1.59v-10.78zM78.228 113.005c-3 0-5-1.85-5-4.8v-5.51c0-2.9399 1.76-4.7899 4.68-4.7899.6123-.031 1.2238.077 1.7884.316s1.0677.6028 1.4716 1.064v-1.16h2v4.7799h-2v-.36c.01-.363-.0585-.724-.2009-1.057-.1424-.334-.3552-.634-.624-.878-.2687-.244-.587-.427-.9331-.536-.3461-.1101-.7117-.1437-1.072-.0989-.3685-.0324-.7397.0152-1.0881.1399-.3485.124-.666.322-.9309.58-.2649.258-.4709.571-.604.916-.133.345-.19.715-.167 1.084v5.51c-.0283.365.0225.732.149 1.075.1265.344.3257.656.584.915s.5696.459.9126.587c.3429.128.7094.18 1.0744.153.3566.041.7177.004 1.0587-.108.3409-.112.6537-.296.9167-.541.2631-.244.4703-.542.6075-.873.1371-.332.201-.689.1871-1.048v-.45h2.2v.43c-.06 2.88-2.04 4.66-5.01 4.66zM86.0578 100.065h-1.59v-1.9399h10.38v3.7699h-2v-1.69h-4.5v4.12h5.54v2h-5.54v4.39h4.69v-1.76h2v3.84h-10.57v-1.94h1.59v-10.79zM98.6078 100.065h-1.58v-1.9399h6.4902c3.19 0 5.15 1.8999 5.15 4.9099v4.84c0 3-2 4.91-5.15 4.91h-6.4902v-1.94h1.58v-10.78zm2.3002.14v10.5h2.61c.382.035.766-.014 1.127-.144.361-.129.689-.336.961-.606.273-.269.483-.595.616-.954.133-.36.187-.744.156-1.126v-4.84c.031-.382-.023-.766-.156-1.125-.133-.36-.343-.686-.616-.955-.272-.27-.6-.477-.961-.606-.361-.13-.745-.179-1.127-.144h-2.61zM118.878 100.205h-2.32v1.83h-2v-3.9099h11v3.9099h-2v-1.83h-2.32v10.64h1.67v1.94h-5.64v-1.94h1.67l-.06-10.64zM128.628 100.065h-1.59v-1.9399h10.38v3.7699h-2v-1.69h-4.46v4.12h5.53v2h-5.53v4.39h4.68v-1.76h2v3.84h-10.6v-1.94h1.59v-10.79zM143.568 112.785h-4.82v-1.94h1.43l4-12.7199h2.41l4.11 12.7199h1.45v1.94h-5v-1.94h1.18l-.71-2.3h-4.52l-.73 2.3h1.2v1.94zm1.76-11.83l-1.74 5.8h3.48l-1.74-5.8z"/>
  <path fill="currentColor" d="M213.198 92.8651c-.92.07-2.11.24-3.43.41-1.32.17-2.45.28-3.36.33.91 0 2 .16 3.36.33l1.65.22c.57.07 1.17.14 1.78.19 3.5.29 3.32-1.71 0-1.48zM204.768 93.2651c3.06-.35 7.65-4.53 6.47-8.79-.48-1.73-1.87-1.52-1.34.38 1.17 4.36-2.59 7.81-5.14 8.32-.31.06-.29.13.01.09z"/>
  <path fill="currentColor" d="M207.368 92.9452c2.12-.38 5.14-1.3 6.38-3.06.88-1.23.39-2.47-1.08-.88-1.328 1.8091-3.188 3.1585-5.32 3.86-.19.06-.23.13.02.08zM204.768 94.0051c-.3 0-.32 0 0 .09 2.55.51 6.31 4 5.14 8.3199-.53 1.9.86 2.11 1.34.38 1.17-4.2599-3.42-8.4399-6.48-8.7899z"/>
  <path fill="currentColor" d="M207.368 94.3251c-.25 0-.21 0 0 .07 2.135.706 3.998 2.0584 5.33 3.87 1.47 1.59 2 .35 1.08-.88-1.27-1.75-4.29-2.68-6.41-3.06zM162.978 101.745c10.71-1 25.82 3.78 30.93 7.53.066.047.143.076.223.087.08.01.161.001.237-.027.079-.026.149-.072.205-.134.056-.061.096-.135.115-.216v-.16c2.18-8.9999 5-12.9999 7.05-14.8399.091-.0794.15-.1897.165-.3097.015-.12-.016-.2412-.085-.3403-3.56-5.23-.47-14.71-.43-14.81.027-.0632.041-.1313.041-.2 0-.0687-.014-.1368-.041-.2-.034-.0595-.08-.1114-.135-.1527-.055-.0412-.118-.0709-.185-.0873-.06 0-5.28-1.26-9-2.49-.061-.0219-.127-.0312-.192-.0275-.066.0038-.13.0207-.188.0496-.059.0289-.111.0692-.154.1187-.043.0494-.076.107-.096.1692-.022.0624-.031.1285-.028.1945.004.066.021.1307.05.1902.028.0596.069.1128.118.1566.05.0438.108.0774.17.0987 3 1 7.1 2 8.53 2.38-.62 2.09-2.57 9.83.48 14.81-2 2-4.8 6.1-6.91 14.5099-5.81-3.81-20.86-8.3599-31.4-7.26-.111.015-.214.065-.295.142-.08.077-.135.178-.155.288-.696 4.308-.471 8.715.66 12.93-2.94.14-4 .14-4 .14-.132 0-.26.053-.353.147-.094.093-.147.221-.147.353 0 .133.053.26.147.354.093.093.221.146.353.146 0 0 1.21 0 4.69-.17.077-.005.151-.028.218-.067.066-.038.123-.091.167-.154.043-.064.071-.136.083-.212.011-.076.005-.154-.018-.227-1.215-4.123-1.495-8.465-.82-12.71z"/>
  <path fill="currentColor" d="M206.018 95.8651c-.465-.2354-.979-.3581-1.5-.3581s-1.035.1227-1.5.3581c-3.91 1.61-6.12 10.5599-7.19 14.8599l-.21.86c-5.4-3.6-19.84-9.33-31.06-8.59-.116.004-.226.05-.31.129-.085.079-.138.186-.15.301-.314 2.861-.199 5.753.34 8.58.008.065.03.128.064.185.033.057.078.106.132.144.053.039.114.066.179.08.064.013.13.014.195.001.065-.011.128-.034.183-.07.056-.035.105-.08.143-.134.038-.054.065-.115.08-.18.014-.064.016-.131.004-.196-.486-2.593-.614-5.242-.38-7.87 11.37-.6 25.9 5.41 30.59 8.85.085.059.186.091.29.09h.16c.077-.026.146-.071.202-.13.056-.059.096-.131.118-.21.11-.39.24-.93.4-1.58 1-3.82 3.16-12.7599 6.6-14.1799.325-.159.683-.2417 1.045-.2417.362 0 .72.0827 1.045.2417.24.1448.442.3445.59.5826.148.2382.237.5081.26.7874.022.1302.094.2467.2.3251.107.0783.239.1123.37.0949.065-.0085.127-.0299.183-.0628.057-.033.106-.0768.145-.1289.039-.0522.067-.1116.083-.1748.016-.0633.019-.129.009-.1935-.031-.4396-.165-.8657-.393-1.243-.228-.3773-.542-.695-.917-.927zM3.23799 94.4051c.61 0 1.21-.12 1.78-.19l1.68-.22c1.31-.17 2.45-.28 3.36001-.33-.91001 0-2.00001-.16-3.36001-.33-1.36-.17-2.51-.34-3.43-.41-3.3500003-.29-3.48 1.71-.03 1.48zM11.698 93.2651c.3 0 .32 0 0-.09-2.54998-.51-6.30998-4-5.13998-8.32.53-1.9-.86-2.11-1.34-.38-1.2 4.26 3.39 8.44 6.47998 8.79z"/>
  <path fill="currentColor" d="M9.06802 92.9452c.25 0 .21 0 0-.08-2.13192-.7015-3.99173-2.0509-5.32-3.86-1.47-1.59-2-.35-1.08.88 1.26 1.75 4.28 2.68 6.4 3.06zM11.6978 94.0952c.31-.06.29-.13 0-.09-3.06005.35-7.65005 4.53-6.47005 8.7898.48 1.73 1.87 1.52 1.34-.38-1.2-4.3598 2.56-7.7798 5.13005-8.3198z"/>
  <path fill="currentColor" d="M9.06809 94.3251c-2.12.38-5.14 1.31-6.37 3.06-.88 1.23-.39 2.47 1.08.88 1.32962-1.8099 3.18859-3.1622 5.32-3.87.18-.05.22-.12-.03-.07zM58.698 113.285s-1.05 0-4-.14c1.61-5.46.92-12 .66-13.9299-.0154-.112-.0683-.2155-.15-.2935-.0817-.0781-.1875-.1262-.3-.1365-10.82-1.14-26.53 5.2999-32.4 9.2499-2.08-8.3999-4.81-12.5099-6.87-14.4999 3-5 1.1-12.72.48-14.81 1.43-.35 5.49-1.37 8.53-2.38.0626-.0213.1203-.0549.1698-.0987.0496-.0438.0899-.097.1188-.1566.0288-.0595.0455-.1242.0492-.1902.0037-.066-.0058-.1321-.0278-.1945-.0203-.0622-.0528-.1198-.0957-.1692-.0429-.0495-.0952-.0898-.1539-.1187-.0587-.0289-.1227-.0458-.188-.0496-.0653-.0037-.1308.0056-.1924.0275-3.68 1.23-8.9 2.47-9 2.49-.0668.0164-.1296.0461-.1846.0873-.0549.0413-.101.0932-.1354.1527-.027.0632-.0409.1313-.0409.2 0 .0687.0139.1368.0409.2 0 .1 3.13 9.58-.43 14.81-.0692.0991-.0994.2203-.0846.3403.0148.12.0734.2303.1646.3097 2 1.82 4.87 5.87 7.05 14.8399v.16c.0193.081.0588.155.1148.216.056.062.1266.108.2052.134.0758.028.1572.037.2373.027.0801-.011.1565-.04.2227-.087 4.54-3.33 20.78-10.4799 31.93-9.5299.49 3.9999.51 9.5799-.87 13.7099-.0228.073-.0288.151-.0174.227.0114.076.0397.148.083.212.0433.063.1003.116.1669.154.0665.039.1409.062.2175.067 3.48.17 4.65.17 4.69.17.1326 0 .2597-.053.3535-.146.0938-.094.1465-.221.1465-.354 0-.131-.0513-.256-.1429-.35-.0917-.093-.2163-.147-.3471-.15z"/>
  <path fill="currentColor" d="M52.8481 100.955c-11.08-.72-26.59 6.85-32.06 10.59-.07-.26-.14-.55-.21-.86-1.07-4.3-3.28-13.2498-7.19-14.8598-.4656-.2332-.9792-.3546-1.5-.3546-.5207 0-1.0343.1214-1.5.3546-.3713.2217-.68573.5269-.91835.8915-.23262.3645-.37698.7783-.42161 1.2085-.00988.0644-.0068.1302.00906.1934.01585.0632.04417.1227.08328.1748.03911.0522.08824.096.1445.1289.05627.0329.11853.0543.18316.0629.1309.0174.26345-.0167.36976-.095.1063-.0783.1781-.1948.2002-.325.0231-.2794.1122-.5492.26-.7874.1478-.2382.35-.4379.59-.5826.3254-.1591.6829-.2417 1.045-.2417.3622 0 .7196.0826 1.045.2417 3.44 1.42 5.65 10.3598 6.59 14.1798.17.65.3 1.19.41 1.58.0217.079.0621.151.1179.21s.1252.104.2021.13h.16c.1037.001.205-.03.29-.09 4.71-3.45 20.34-11.38 31.59-10.85.2341 2.629.1063 5.277-.38 7.87-.0111.066-.0092.133.0056.198s.0422.126.0808.181c.0385.054.0874.1.1438.136.0564.035.1192.059.1848.07.0657.011.1329.009.1978-.005.065-.015.1264-.043.1807-.081.0543-.039.1005-.088.136-.144.0354-.056.0594-.119.0705-.185.5395-2.827.6541-5.719.34-8.58-.0259-.1-.0838-.19-.1649-.255-.0812-.065-.1812-.102-.2851-.105zM199.748 51.5551c-.133 0-.26.0527-.354.1465-.093.0937-.146.2209-.146.3535v2.95c0 .1326.053.2598.146.3536.094.0937.221.1464.354.1464.133 0 .26-.0527.354-.1464.093-.0938.146-.221.146-.3536v-2.95c0-.1326-.053-.2598-.146-.3535-.094-.0938-.221-.1465-.354-.1465zM200.948 55.6351c.077-.0007.154-.0191.223-.0538s.13-.0846.177-.1462l1.12-1.52c.039-.0531.067-.1134.082-.1774.016-.064.019-.1304.008-.1954-.01-.0651-.033-.1274-.067-.1836-.035-.0561-.08-.1049-.133-.1436-.052-.0391-.111-.0676-.174-.0837-.062-.0162-.128-.0197-.192-.0104s-.126.0312-.181.0646c-.056.0333-.105.0773-.143.1295l-1.13 1.53c-.076.1082-.107.2417-.087.3722.021.1306.091.2481.197.3278.089.0596.193.0909.3.09zM210.398 54.5151l1-1.23c.026-.0294.046-.0643.057-.1022.012-.0378.014-.0777.009-.1168-.006-.0391-.02-.0765-.042-.1095-.022-.033-.05-.0608-.084-.0815-.222-.1379-.466-.2392-.72-.3-.258-.0454-.522-.0454-.78 0-.04.0068-.077.0218-.11.0443-.033.0224-.061.0516-.082.0857-.021.0341-.034.0723-.039.112-.005.0397-.001.0799.011.118l.47 1.52c.07.18.2.18.31.06zM208.018 54.4351l1.55.36c.17 0 .26-.0699.2-.2299l-.55-1.4901c-.013-.0377-.034-.0723-.061-.1014-.028-.029-.061-.0519-.098-.0671-.037-.0151-.076-.0222-.116-.0207-.04.0014-.079.0114-.115.0292-.231.1256-.441.2877-.62.48-.169.1987-.301.4255-.39.6701-.016.0372-.023.0774-.021.1177.002.0403.013.0796.032.1151.02.0355.046.0663.079.09s.07.0398.11.0471zM210.758 55.0352l1.57.27c.039.0071.079.0059.118-.0037.038-.0096.074-.0272.106-.0518.031-.0246.056-.0556.075-.0908.018-.0353.029-.0741.031-.1137.009-.2637-.025-.5271-.1-.78-.089-.2447-.221-.4715-.39-.67-.025-.0314-.057-.0566-.094-.074-.036-.0173-.076-.0263-.116-.0263-.04 0-.08.009-.116.0263-.037.0174-.069.0426-.094.074l-1.05 1.15c-.15.13-.11.26.06.29zM212.208 55.6351l-1.51-.37c-.17 0-.25.07-.19.23l.55 1.49c.014.0369.036.0705.063.0985.028.0279.062.0497.098.0639.037.0141.077.0204.116.0182.04-.0021.078-.0125.113-.0306.229-.1241.439-.2826.62-.47.168-.203.299-.4329.39-.68.012-.0397.015-.0818.009-.123-.007-.0411-.023-.0801-.047-.114s-.056-.0617-.093-.0813c-.036-.0196-.077-.0305-.119-.0317zM208.498 61.7651l-.68-.17-.29-1.47c-.021-.1252-.067-.2447-.136-.3514-.069-.1066-.159-.198-.264-.2686-.214-.1362-.471-.1862-.72-.14l-2 .39c-.246.0518-.464.1946-.61.4-.073.1035-.123.2208-.149.3446-.026.1238-.026.2515-.001.3754v.23c-.241.0694-.472.1668-.69.29.55 2 2.29 8.5 2.73 10.13.15.59 5.7-.7 5.6-1.29-.21-1.29-1.09-7-1.4-8.8-.432.2147-.908.3276-1.39.33zm-2.22-.31c-.203.1189-.35.313-.41.54l-.15.56-.71.15-.43-2 2-.42.2 1c-.18.0035-.355.0629-.5.17zm1.61 2.76l-1.47-.36.39-1.5 1.47.39-.39 1.47z"/>
  <path fill="currentColor" d="M210.748 58.0851c.762-.1594 1.44-.5921 1.905-1.2164.465-.6243.686-1.3971.621-2.173-.066-.7758-.412-1.501-.975-2.039-.563-.5379-1.303-.8515-2.081-.8816h-.11c-.807-.0038-1.584.3043-2.17.86-.365.3305-.646.7433-.82 1.2041-.174.4609-.236.9565-.18 1.4459-.78.09-1.46.22-1.75.28-1.113.215-2.199.5503-3.24 1-.4.2-1.61.78-1.43 1.62.034.1619.118.309.24.42l3.63 13.8c.12.56.92.73 1.82.73.891-.0222 1.778-.1259 2.65-.31.43-.1 4.19-.93 3.93-2.18l-2.04-12.56zm-3.57-3.22c.024-.7614.343-1.4837.889-2.0139.547-.5301 1.279-.8264 2.041-.8261h.11c.726.0139 1.42.2965 1.949.7932.529.4966.855 1.1719.915 1.895.06.7232-.151 1.4428-.591 2.0196-.441.5767-1.079.9695-1.793 1.1022l-.21-1.27c.05-.1526.05-.3174 0-.47-.08-.41-.47-.65-1-.78.11-.12.07-.25-.1-.28l-1.57-.26c-.039-.0071-.079-.0059-.118.0037-.038.0095-.074.0272-.106.0518-.031.0246-.056.0556-.075.0908-.018.0353-.029.074-.031.1137v.19h-.37c-.01-.1298-.01-.2602 0-.39l.06.03zm2.68 2.43l.1.6c-.287-.0194-.57-.08-.84-.18.259-.1175.507-.2581.74-.42zm-1.77-.22l-.13-.11c-.193-.2201-.354-.4657-.48-.73h.39l.19.27c.026.0298.059.0537.095.07.036.0164.075.0248.115.0248.04 0 .079-.0084.115-.0248.037-.0163.069-.0402.095-.07l.25-.28c.257.0066.512.0435.76.11-.424.3195-.897.5693-1.4.74zm-2.68-.53c.595-.1252 1.196-.2187 1.8-.28.146.3166.338.6098.57.87-.706.2494-1.428.4531-2.16.61-1.328.3653-2.72.4403-4.08.22 1.17-.7529 2.491-1.2378 3.87-1.42zm3.29 15.58c-1.164.3574-2.4.4091-3.59.15l-3.41-13.24c.359.0712.724.1048 1.09.1 1.057-.0245 2.108-.1518 3.14-.38.997-.2016 1.971-.4997 2.91-.89.38.1748.792.2701 1.21.28l2.06 12.62c-.14.26-1.34.93-3.41 1.36zM197.808 53.2851c-.079-.106-.198-.1762-.329-.1949-.131-.0188-.265.0154-.371.0949-.106.0796-.176.1981-.195.3293-.019.1313.016.2647.095.3707l1.12 1.52c.046.0627.106.1136.176.1483.07.0348.146.0525.224.0517.107-.0002.211-.0315.3-.09.106-.0795.176-.198.195-.3292.019-.1313-.015-.2647-.095-.3708l-1.12-1.53zM189.078 54.5151c.11.13.24.1.29-.06l.47-1.52c.012-.0381.016-.0783.011-.118-.005-.0397-.018-.0779-.039-.112-.021-.0341-.049-.0633-.082-.0857-.033-.0225-.071-.0375-.11-.0443-.258-.0454-.522-.0454-.78 0-.255.0608-.498.1621-.72.3-.034.0207-.062.0485-.084.0815-.022.033-.036.0704-.042.1095-.006.0391-.003.079.009.1168.011.0379.031.0728.057.1022l1.02 1.23zM189.908 54.7951l1.55-.36c.039-.0073.077-.0234.11-.0471.032-.0237.059-.0545.078-.09.019-.0355.03-.0748.032-.1151.002-.0403-.005-.0805-.02-.1177-.094-.2424-.226-.4684-.39-.6701-.18-.1923-.389-.3544-.62-.48-.036-.0178-.075-.0278-.115-.0292-.04-.0015-.08.0056-.117.0207-.036.0152-.07.0381-.097.0671-.028.0291-.048.0637-.061.1014l-.56 1.4901c0 .16 0 .2699.21.2299zM188.698 55.0351c.17 0 .22-.16.1-.29l-1.1-1.11c-.024-.0312-.055-.0564-.091-.0737-.036-.0174-.075-.0264-.114-.0264-.04 0-.079.009-.114.0264-.036.0173-.067.0425-.091.0737-.17.1995-.305.4259-.4.67-.069.2541-.099.517-.09.78.001.0393.01.0779.027.1131.017.0353.042.0664.073.0911.03.0248.066.0426.104.0522.038.0097.077.0109.116.0036l1.58-.31zM188.828 55.2651l-1.56.35c-.04.0073-.077.0235-.11.0472s-.059.0545-.079.09c-.019.0355-.03.0748-.032.1151-.002.0403.005.0805.021.1177.09.2454.218.475.38.68.186.1863.398.3446.63.47.034.018.072.0284.111.0304.038.0021.077-.0042.113-.0185.036-.0142.069-.036.096-.064.027-.0279.047-.0613.06-.0979l.56-1.49c.06-.16-.03-.26-.19-.23zM195.848 60.8751c.043-.2503-.01-.5078-.15-.72-.146-.2054-.363-.3482-.61-.4l-2-.39c-.249-.0462-.506.0038-.72.14-.211.1463-.358.3683-.41.62l-.26 1.51-.68.17c-.493.0041-.979-.109-1.42-.33-.31 1.77-1.19 7.51-1.4 8.8-.1.59 5.45 1.88 5.6 1.29.43-1.63 2.18-8.16 2.73-10.13-.218-.1232-.449-.2206-.69-.29l.01-.27zm-4.26 3.34l-.39-1.47 1.47-.39.39 1.5-1.47.36zm2.88-1.51l-.72-.15-.14-.56c-.047-.1956-.163-.3677-.326-.4852-.163-.1174-.363-.1724-.564-.1548l.21-1 2 .42-.46 1.93z"/>
  <path fill="currentColor" d="M197.518 56.6352c-1.044-.4497-2.134-.785-3.25-1-.28-.06-1-.19-1.75-.28.015-.143.015-.2871 0-.43-.028-.8251-.376-1.6071-.969-2.1815-.593-.5744-1.385-.8964-2.211-.8985h-.12c-.777.0321-1.516.3471-2.077.8859-.562.5387-.907 1.264-.971 2.0393-.063.7754.158 1.5474.624 2.1707.465.6234 1.142 1.0551 1.904 1.2141l-2 12.53c-.27 1.25 3.49 2.08 3.92 2.18.875.1845 1.766.2883 2.66.31.89 0 1.7-.17 1.82-.73l3.6-13.81c.119-.1138.202-.2598.24-.42.19-.83-1.02-1.41-1.42-1.58zm-10.16.51c-.426-.3964-.724-.91-.858-1.4761-.134-.566-.096-1.159.107-1.7039.203-.5449.564-1.0172 1.036-1.3572.472-.34 1.034-.5324 1.615-.5528h.11c.762-.0004 1.494.2959 2.041.8261.547.5301.866 1.2525.889 2.0139v.39h-.37c.006-.0632.006-.1269 0-.19-.001-.0393-.01-.0779-.027-.1132-.018-.0352-.042-.0663-.073-.0911-.03-.0247-.066-.0425-.104-.0522-.038-.0096-.077-.0108-.116-.0035l-1.57.26c-.17 0-.21.16-.1.28-.52.13-.91.37-1 .78-.024.1583-.007.3202.05.47l-.2 1.27c-.54-.1232-1.034-.3931-1.43-.78v.03zm2.63-.79c.245-.0658.497-.1028.75-.11l.26.28c.026.0297.059.0536.095.07.036.0163.075.0248.115.0248.04 0 .079-.0085.115-.0248.036-.0164.069-.0403.095-.07l.19-.27h.39c-.126.2666-.291.5127-.49.73-.038.0391-.078.0758-.12.11-.505-.18-.978-.44-1.4-.77v.03zm.36 1.39c-.266.1009-.546.1616-.83.18l.09-.6c.237.1474.484.2777.74.39v.03zm4 14.56c-1.19.259-2.426.2074-3.59-.15-2.05-.43-3.25-1.1-3.34-1.36l2.05-12.62c.418-.0122.829-.1073 1.21-.28.938.3917 1.913.6898 2.91.89 1.032.2282 2.083.3554 3.14.38.366.0042.731-.0293 1.09-.1l-3.47 13.24zm-.55-14.49c-.729-.1568-1.447-.3605-2.15-.61h.05c.232-.2581.421-.5518.56-.87.608.0605 1.212.1539 1.81.28 1.362.1983 2.664.697 3.81 1.46-1.365.1975-2.757.0986-4.08-.29v.03zM17.478 51.5351c-.1326 0-.2598.0527-.3535.1465-.0938.0938-.1465.2209-.1465.3535v3c0 .1326.0527.2598.1465.3536.0937.0938.2209.1464.3535.1464.1326 0 .2598-.0526.3536-.1464.0937-.0938.1464-.221.1464-.3536v-3c.0014-.066-.0106-.1316-.0353-.1929-.0246-.0613-.0614-.1169-.1081-.1636-.0467-.0468-.1024-.0835-.1636-.1082-.0613-.0246-.1269-.0366-.193-.0353zM18.6979 55.6352c.0775-.0008.1538-.0192.2231-.0539.0693-.0346.1298-.0846.1769-.1461l1.12-1.52c.0796-.1075.1132-.2421.0935-.3743-.0197-.1322-.0911-.2512-.1985-.3307-.1074-.0796-.242-.1132-.3742-.0936-.1322.0197-.2512.0911-.3308.1986l-1.12 1.53c-.0759.1081-.1069.2416-.0864.3722.0205.1306.0909.2481.1964.3278.0887.0595.1932.0909.3.09zM28.1279 54.4951l1-1.23c.0263-.0294.0459-.0643.0573-.1022.0113-.0378.0143-.0777.0085-.1168-.0057-.0391-.0199-.0765-.0417-.1095-.0217-.033-.0504-.0608-.0841-.0815-.2224-.1379-.4655-.2392-.72-.3-.258-.0454-.522-.0454-.78 0-.039.0054-.0764.0193-.1095.0407-.0331.0214-.0611.0497-.082.0831-.021.0333-.0344.0709-.0393.1099-.0049.0391-.0013.0788.0108.1163l.47 1.53c.07.2.2.2.31.06zM25.7479 54.4151l1.55.36c.17 0 .26-.07.2-.23l-.55-1.49c-.0129-.0377-.0338-.0723-.0611-.1014-.0274-.0291-.0607-.0519-.0976-.0671-.0369-.0151-.0767-.0222-.1166-.0207-.0399.0014-.079.0114-.1147.0292-.2294.1242-.4385.2827-.62.47-.1675.203-.2993.433-.39.68-.0156.0372-.0227.0775-.0207.1178.002.0403.0129.0796.0321.1151.0192.0355.0461.0662.0787.09.0327.0237.0702.0398.1099.0471zM28.4878 55.0151l1.57.27c.0391.0072.0792.006.1178-.0036.0386-.0096.0747-.0272.1059-.0518.0312-.0246.0568-.0556.0752-.0909.0183-.0352.0289-.074.0311-.1137.0354-.5291-.1409-1.0507-.49-1.45-.0253-.0313-.0573-.0565-.0937-.0739-.0363-.0173-.076-.0263-.1163-.0263s-.08.009-.1164.0263c-.0363.0174-.0683.0426-.0936.0739l-1.08 1.15c-.12.13-.08.26.09.29zM29.9379 55.6352l-1.56-.35c-.17 0-.26.07-.19.23l.51 1.45c.014.0369.0356.0704.0634.0984.0278.028.0612.0497.098.0639.0369.0142.0763.0204.1157.0183.0394-.0022.0779-.0126.1129-.0306.2295-.1242.4385-.2827.62-.47.1685-.2061.3004-.4395.39-.69.017-.0637.0101-.1314-.0193-.1903-.0295-.059-.0795-.1051-.1407-.1297zM26.2278 61.7451l-.68-.17-.29-1.48c-.0227-.1236-.0699-.2414-.1388-.3464-.069-.1051-.1584-.1952-.2628-.2652-.1044-.0699-.2218-.1182-.3452-.1419-.1234-.0238-.2503-.0226-.3732.0035l-2 .39c-.2465.0518-.4643.1946-.61.4-.0726.1035-.1234.2208-.1492.3446-.0258.1238-.0261.2515-.0008.3754l.05.23c-.2415.0668-.4734.1643-.69.29.54 2 2.29 8.5 2.73 10.13.15.59 5.7-.7 5.6-1.29-.21-1.29-1.1-7-1.4-8.8-.4472.2223-.9407.3353-1.44.33zm-2.22-.31c-.1014.0575-.19.1351-.2605.2279-.0705.0928-.1213.199-.1495.3121l-.15.56-.72.15-.42-2 2-.42.2 1c-.1805.0022-.3556.0617-.5.17zm1.61 2.76l-1.48-.36.4-1.5 1.47.39-.39 1.47z"/>
  <path fill="currentColor" d="M28.4781 58.0651c.7621-.1594 1.4395-.5921 1.9047-1.2164.4652-.6243.686-1.3971.6208-2.173-.0651-.7758-.4118-1.501-.9746-2.039-.5628-.5379-1.3029-.8515-2.0809-.8816h-.11c-.7995.0092-1.5652.3241-2.14.88-.3652.3305-.6464.7433-.8203 1.2041-.1739.4609-.2355.9565-.1797 1.4459-.78.09-1.46.22-1.75.28-1.1192.2368-2.209.5957-3.25 1.07-.4.2-1.61.78-1.43 1.62.0335.1619.1175.309.24.42l3.63 13.8c.12.56.92.73 1.82.73.891-.0222 1.778-.1259 2.65-.31.43-.1 4.19-.93 3.93-2.18l-2.06-12.65zm-3.57-3.23c.0334-.7634.3678-1.4825.93-2 .5419-.5081 1.2571-.7906 2-.79h.1c.7271.0094 1.4247.2887 1.9572.7838.5325.495.862 1.1703.9244 1.8948.0623.7244-.1469 1.4461-.5871 2.0248-.4401.5788-1.0797.9732-1.7945 1.1066l-.21-1.27c.0504-.1526.0504-.3174 0-.47-.09-.41-.47-.65-1-.78.11-.13.07-.25-.1-.28l-1.57-.26c-.0391-.0071-.0792-.0059-.1178.0037-.0386.0095-.0747.0272-.1059.0518-.0312.0246-.0568.0556-.0751.0908-.0184.0353-.029.074-.0312.1137v.19h-.37c-.0099-.1298-.0099-.2602 0-.39l.05-.02zm2.68 2.44l.1.6c-.2872-.0194-.5701-.08-.84-.18.2588-.1175.5065-.2581.74-.42zm-1.77-.22l-.12-.11c-.1962-.2175-.358-.4636-.48-.73h.39l.19.27c.0263.0298.0586.0537.0948.07.0362.0164.0755.0248.1152.0248.0398 0 .079-.0084.1152-.0248.0362-.0163.0686-.0402.0948-.07l.25-.29c.2573.0087.5126.049.76.12-.4291.3178-.9047.5674-1.41.74zm-2.68-.53c.68-.14 1.28-.23 1.8-.29.1435.321.3358.6178.57.88-.7012.2516-1.4198.4522-2.15.6-1.3266.3762-2.7206.4514-4.08.22 1.1704-.7419 2.487-1.2229 3.86-1.41zm3.31 15.58c-2.06.44-3.42.31-3.59.15l-3.49-13.24c.3623.0707.7309.1042 1.1.1 1.0565-.0245 2.1082-.1518 3.14-.38.9966-.2016 1.9712-.4997 2.91-.89.3801.1748.7918.2701 1.21.28l2.06 12.62c-.09.26-1.29.89-3.34 1.36zM15.5382 53.2651c-.0796-.1061-.198-.1762-.3293-.1949-.1313-.0188-.2646.0154-.3707.0949-.1061.0796-.1762.198-.195.3293-.0187.1313.0154.2646.095.3707l1.12 1.52c.046.0627.1063.1135.1758.1483.0696.0348.1464.0525.2242.0517.1036.0008.205-.0306.29-.09.0544-.0377.1006-.0861.1358-.1422.0351-.0562.0586-.1188.0689-.1843.0102-.0654.0072-.1322-.0091-.1964-.0163-.0642-.0454-.1244-.0856-.1771l-1.12-1.53zM6.80793 54.4951c.11.13.24.1.29-.06l.47-1.53c.01204-.0375.01574-.0772.01082-.1163-.00492-.039-.01833-.0766-.0393-.1099-.02096-.0334-.04897-.0617-.08205-.0831-.03309-.0214-.07045-.0353-.10947-.0407-.25802-.0454-.52198-.0454-.78 0-.25453.0608-.49764.1621-.72.3-.03367.0207-.0624.0485-.08414.0815-.02175.033-.03598.0704-.04171.1095-.00572.0391-.00279.079.00859.1168.01138.0379.03092.0728.05726.1022l1.02 1.23zM7.63804 54.7752l1.55-.36c.03968-.0074.07721-.0235.10984-.0472.03263-.0237.05952-.0545.07871-.09s.03017-.0748.03215-.1151c.00199-.0403-.00509-.0805-.0207-.1177-.0953-.2449-.22676-.4741-.39-.68-.18413-.1887-.39671-.3473-.63-.47-.03499-.0178-.07344-.0278-.11266-.0292-.03923-.0014-.07828.0058-.11446.021-.03617.0152-.06859.0382-.09499.0672-.02641.0291-.04616.0635-.05789.101l-.55 1.49c-.06.16.03.26.2.23zM6.43795 55.0152c.17 0 .22-.16.1-.29l-1.09-1.16c-.02432-.0312-.05542-.0564-.09094-.0738-.03552-.0173-.07453-.0263-.11406-.0263-.03953 0-.07854.009-.11406.0263-.03553.0174-.06663.0426-.09094.0738-.16974.1994-.30494.4259-.4.67-.06872.254-.09905.5169-.09.78.00077.0392.01009.0778.02731.1131.01721.0353.04191.0663.07237.0911.03047.0247.06596.0426.10401.0522.03805.0096.07774.0108.11631.0036l1.57-.26zM6.5481 55.2452l-1.55.39c-.03844.0076-.07475.0235-.10641.0466-.03166.0231-.05792.0528-.07695.0871-.01903.0342-.03038.0722-.03325.1113-.00288.0391.00279.0783.01661.115.08846.249.2168.4821.38.69.18623.1862.39843.3445.63.47.03434.0179.07215.0283.11085.0304.03871.002.0774-.0043.11345-.0185.03606-.0143.06862-.0361.09549-.064.02686-.028.0474-.0614.06021-.0979l.56-1.49c.06-.2-.05-.3-.2-.27zM13.5778 60.8551c.0433-.2503-.0104-.5078-.15-.72-.1457-.2054-.3636-.3482-.61-.4l-2-.39c-.1217-.0247-.2471-.0251-.369-.001-.1219.024-.2378.0719-.341.141-.20914.1439-.35572.362-.41.61l-.28 1.48-.72.17c-.49279.0041-.9795-.109-1.42-.33-.31 1.77-1.19 7.51-1.4 8.8-.1.59 5.45 1.88 5.6 1.29.43-1.63 2.18-8.16 2.73-10.13-.2179-.1232-.4495-.2206-.69-.29l.06-.23zm-4.26 3.34l-.39-1.47 1.47-.39.39 1.5-1.47.36zm2.88-1.51l-.72-.15-.14-.56c-.0471-.1956-.1629-.3677-.3262-.4852-.1633-.1174-.3634-.1724-.5638-.1548l.21-1 2 .42-.46 1.93z"/>
  <path fill="currentColor" d="M11.9982 55.6351c1.1163.2151 2.206.5504 3.25 1 .45.15 1.61.73 1.43 1.58-.0376.1603-.121.3062-.24.42l-3.63 13.76c-.12.56-.93.73-1.82.73-.8943-.0217-1.78467-.1254-2.65998-.31-.43-.1-4.19-.93-3.92-2.18l2.05-12.57c-.76156-.1589-1.4388-.5907-1.90428-1.214-.46549-.6234-.68713-1.3953-.62324-2.1707.0639-.7753.40893-1.5006.97018-2.0393.56125-.5388 1.30003-.8539 2.07734-.886h.12c.83564.0105 1.6338.3485 2.22286.9413.58906.5928.92192 1.393.92712 2.2287.0096.1432.0096.2869 0 .43.75.09 1.47.22 1.75.28zM88.868 12.9551c-3.34 15.16-23 14.62-36.34 18.33-14.25 3.97-21.57 18.35-21.57 18.35 7-6.75 11.34-13.69 33.12-17.66 25.37-4.6 24.79-19.02 24.79-19.02z"/>
  <path fill="currentColor" d="M66.778 19.4552c7.67.18 13.2699-1.45 14.0899-6.82.82-5.37004-4.81-9.15004-8.88-7.29004-3.82 1.73-4.63 4.78004-3.45 7.29004 1.18 2.51 3.16 1.22 3.16 1.22-.49-.73-1.87-4.65004 2.35-6.08004 4.22-1.43 7.67 5.60004 2.25 9.00004-5.42 3.4-19-1.25-25.81 3.64-6.08 4.36-3.68 12.41-3.68 12.41 1.23-14.9 12.5701-13.53 19.9701-13.37z"/>
  <path fill="currentColor" d="M67.1478 9.44512c.3608-1.25696.9961-2.41819 1.86-3.4 6.98-6.509997 17.27 2.59 11.61 9.68998-6 7.47-18.29 3-25.25 5.63-1.8209.7041-3.4215 1.8802-4.6376 3.4073-1.2161 1.5272-2.0039 3.3505-2.2824 5.2827 6.48-11.77 13.91-6.3 25.82-8.65 11.91-2.35 10.73-12.65998 5.05-16.76998-5.68-4.109996-10.83-1.16-12.8 1.7-1.97 2.86-.08 5.35998.63 3.11zM37.0079 38.5551c-5.75 1.81-10.5 8.94-14.68 7.55-.9178-.3647-1.7429-.929-2.4157-1.6519-.6728-.723-1.1764-1.5865-1.4743-2.5281-1.42 0-3.26 3-.25 6.28 3.01 3.28 9.2 1.39 12-2.34 3.83-5.23 5.39-6.18 6.82-7.31zm-18.75 7.85c-1.12-1.77-.17-2.77-.17-2.77 2.1 4.48 7.8 3.68 7.8 3.68-3.31 1.68-6.51.88-7.63-.91zM32.6978 49.9851c2.35-2.89 7.13-5.74 12.73-8.14 7.39-3.16 11.33-4.29 13.15-6.34-2.93 1.3-7.32 1.18-13 3.91-6.88 3.27-11.96 8.94-12.88 10.57z"/>
  <path fill="currentColor" d="M49.3682 31.1152s1.15-1.08 6.21-2.81c4.56-1.56 12.18-1.22 16.06-3.87-.9386.183-1.8939.2668-2.85.25-2.06 0-3.4-.28-5.67-.32-4.59-.06-10.84 1.09-13.75 6.75zM78.0581 22.0752c9.93-3.19 9.85-11.12 8.49-13.67003-1.2-2.25-2.47-1.23-2.47-1.23 5.62 10.21003-6.02 14.90003-6.02 14.90003zM96.3579 15.9051c-3.41-.49-7.85 1.5-8.48 7.78 1.39-2.76 3.57-6.51 10.5-5 .0798-.3178.0888-.6493.0265-.971-.0622-.3217-.1944-.6258-.387-.8909-.1926-.2651-.441-.4847-.7278-.6433-.2867-.1587-.6047-.2524-.9317-.2748z"/>
  <path fill="currentColor" d="M99.908 17.0052s.86-.72-.49-1.84c-1.1793-.8532-2.6395-1.2248-4.0831-1.039-1.4436.1858-2.7622.915-3.687 2.039 1.29-1.11 4.8301-2.62 8.2601.84zM51.1779 13.3251s.72-5.16996 8.32-1.8c0 0-8-6.27996-9.74-.78 0 0-3.4-1.18996-3.1 2.54.04 0 1.29-2.95 4.52.04zM164.558 31.2851c-13.33-3.71-33-3.17-36.33-18.33 0 0-.59 14.42 24.79 19.05 21.78 4 26.13 10.91 33.12 17.66 0-.03-7.32-14.41-21.58-18.38z"/>
  <path fill="currentColor" d="M140.788 16.7552c-5.41-3.38-2-10.41004 2.26-9.00004 4.26 1.41 2.84 5.35004 2.34 6.08004 0 0 2 1.22 3.16-1.26 1.16-2.48.38-5.52004-3.45-7.28004-4.07-1.86-9.7 1.89-8.88 7.29004.82 5.4 6.43 7 14.09 6.85 7.41-.16 18.74-1.53 20 13.35 0 0 2.41-8-3.68-12.41-6.86-4.87-20.42-.24-25.84-3.62z"/>
  <path fill="currentColor" d="M142.828 21.4051c11.87 2.35 19.33-3.12 25.87 8.65-.286-1.9411-1.085-3.7705-2.316-5.2985-1.231-1.528-2.848-2.6989-4.684-3.3915-7-2.6-19.28 1.84-25.26-5.63-5.62-7.09998 4.66-16.199982 11.64-9.68998.865.98238 1.504 2.14318 1.87 3.4.71 2.24998 2.56-.27.62-3.1s-7.12-5.810001-12.8-1.71c-5.68 4.1-6.85 14.41998 5.06 16.76998zM198.698 41.9251c-.298.9416-.802 1.8051-1.474 2.5281-.673.7229-1.498 1.2872-2.416 1.6519-4.18 1.39-8.93-5.74-14.68-7.55 1.44 1.13 3 2 6.88 7.31 2.75 3.73 8.93 5.6 11.94 2.34s1.13-6.33-.25-6.28zm.18 4.48c-1.12 1.79-4.31 2.59-7.63.86 0 0 5.7.8 7.81-3.68-.05.05.89 1.05-.23 2.82h.05zM171.528 39.4151c-5.72-2.73-10.11-2.61-13-3.91 1.82 2.05 5.76 3.18 13.15 6.34 5.6 2.4 10.38 5.25 12.74 8.14-.94-1.63-6.06-7.3-12.89-10.57z"/>
  <path fill="currentColor" d="M148.298 24.6852c-.953.0164-1.905-.0674-2.84-.25 3.87 2.65 11.5 2.31 16.06 3.87 5.06 1.73 6.21 2.81 6.21 2.81-2.92-5.66-9.16-6.81-13.75-6.75-2.28.04-3.62.27-5.68.32zM130.548 8.40517c-1.37 2.55003-1.45 10.48003 8.48 13.67003 0 0-11.66-4.69-6-14.90003-.01 0-1.33-1.02-2.48 1.23zM120.698 15.9052c-.32.0263-.63.1211-.91.2779-.28.1567-.523.3718-.713.6307-.19.2589-.321.5555-.386.8697-.065.3142-.062.6388.009.9517 6.93-1.48 9.11 2.27 10.49 5-.61-6.23-5.05-8.22-8.49-7.73z"/>
  <path fill="currentColor" d="M125.448 16.1452c-.927-1.1247-2.247-1.8542-3.692-2.04-1.445-.1857-2.907.1861-4.088 1.04-1.35 1.12-.48 1.84-.48 1.84 3.43-3.44 6.96-1.93 8.26-.84zM165.918 13.3251c3.23-3 4.52 0 4.52 0 .3-3.72998-3.1-2.54-3.1-2.54-1.73-5.49998-9.75.78-9.75.78 7.61-3.40998 8.33 1.76 8.33 1.76zM114.888 7.15515l-2.39-1.44h-.2c-.16.02386-.311.09301-.433.19931-.122.1063-.211.24532-.257.40069-.059.06491-.122.12509-.19.18-.234.1798-.417.41769-.53.69l-.06.25c-.124.48601-.345.94186-.65 1.34l-.44.43c-1.224.87785-2.369 1.86165-3.42 2.93995-.841.9694-1.59 2.0138-2.24 3.12-.268.5414-.502 1.0992-.7 1.67-.284.9506-.695 1.8587-1.22 2.7-.339.4182-.703.8156-1.09 1.19-.373.3256-.708.6911-1 1.09-.2224.3006-.367.6513-.4211 1.0212-.054.3698-.016.7473.1109 1.0988.06.13.22.44 2.2802 1.71 1.91 1.13 2.32 1.18 2.49 1.18.385-.0434.753-.1847 1.068-.4106.315-.2258.567-.5285.732-.8794.222-.4297.396-.8824.52-1.35.154-.5154.334-1.0227.54-1.52.487-.8435 1.082-1.62 1.77-2.31.416-.4386.8-.9064 1.15-1.4.679-1.0853 1.258-2.23 1.73-3.42.46-1.4109.795-2.8599 1-4.33l.19-.65c.206-.457.506-.8658.88-1.19995l.19-.17c.189-.22692.317-.49911.37-.79 0-.08.05-.2.07-.26.116-.11291.197-.25668.235-.41436.037-.15768.028-.3227-.025-.47564l-.06-.19zm-5.43 11.38995c-.072.116-.152.2263-.24.33l-4.46-2.66c.053-.1346.117-.265.19-.39.579-1.0051 1.249-1.9556 2-2.84l4.08 2.44c-.423 1.0879-.948 2.1326-1.57 3.12zm4.24-10.30995l-.08.32-.19.18c-.504.45719-.901 1.0208-1.16 1.64995l-.08.29c-1.37-.36-1.7 1.88-3.44 1.75-.344-.03-.681-.1109-1-.24 1.07-1 2.59-2.11 2.65-2.17l.49-.46995c.439-.52246.754-1.13799.92-1.8v-.19c.078-.10104.165-.19476.26-.28.145-.1182.273-.25622.38-.41l1.4.85c-.068.16762-.119.3419-.15.52zM114.518 4.77515c.363.00197.718-.10392 1.02-.30424.303-.20032.539-.48603.679-.82082.139-.33479.176-.70357.106-1.05949-.07-.35591-.245-.6829-.501-.93943-.257-.25653-.584-.43103-.94-.50132-.356-.07029-.724-.03321-1.059.10654-.335.13975-.621.37585-.821.67832-.2.30247-.306.65765-.304 1.02044.002.48188.195.94328.536 1.28403.34.34075.802.53334 1.284.53597zm0-2.65c.164-.00199.326.045.464.13499.137.08999.245.21891.31.37039.064.15148.082.31867.051.48033-.031.16165-.109.31048-.225.42756-.115.11708-.263.19713-.425.22997-.161.03285-.328.017-.48-.04551-.153-.06252-.283-.16889-.375-.30559-.091-.1367-.14-.29756-.14-.46214 0-.21841.086-.42802.239-.58339.154-.15538.362-.24398.581-.24661zM129.698 4.28514c.36 0 .712-.10674 1.011-.30672.299-.19999.533-.48423.67-.81679.138-.33257.174-.69851.104-1.05155-.07-.35305-.244-.67734-.498-.93187-.255-.254533-.579-.427872-.932-.498097-.353-.070225-.719-.034183-1.052.103569-.332.137751-.616.371028-.816.670318-.2.2993-.307.65118-.307 1.01114 0 .4827.192.94562.533 1.28694.341.34131.804.53306 1.287.53306zm0-2.65c.162 0 .321.04809.455.1382.135.0901.24.21817.303.368.062.14984.078.31471.046.47378-.031.15906-.11.30517-.224.41985-.115.11468-.261.19278-.42.22442-.159.03164-.324.0154-.474-.04667-.15-.06206-.278-.16716-.368-.30201-.09-.13485-.138-.29339-.138-.45557 0-.21748.086-.42605.24-.57983.154-.15378.362-.24017.58-.24017zM118.318 9.02514c0 .35996.107.71184.307 1.01116.2.2993.484.5325.816.6703.333.1378.699.1738 1.052.1036.353-.0703.677-.2436.932-.4981.254-.2546.428-.57885.498-.9319.07-.35304.034-.71898-.104-1.05154-.137-.33257-.371-.61681-.67-.8168-.299-.19998-.651-.30672-1.011-.30672-.483 0-.946.19175-1.287.53306-.341.34132-.533.80425-.533 1.28694zm2.64 0c0 .16218-.048.32072-.138.45557-.09.13485-.218.23995-.368.30201-.15.06206-.315.0783-.474.04666-.159-.03164-.305-.10973-.42-.22441-.115-.11468-.193-.26079-.224-.41986-.032-.15906-.016-.32394.046-.47377.062-.14984.167-.2779.302-.36801.135-.0901.294-.13819.456-.13819.217 0 .426.08639.58.24017.153.15378.24.36235.24.57983zM125.438 6.55514c1.35 1.45 2.25.37 1-1-3-3.23-9-1.49-10.88.93-.19.24-.13.29.08.06 1.8-1.85 6.7-3.27 9.8.01z"/>
  <path fill="currentColor" d="M123.358 2.02514c2.11-.39 1.34-1.48-.19-1.39-2.15.14-4.51 2.23-5.94 3.84-.18.19-.1.19 0 .06 1.729-1.45927 3.874-2.33741 6.13-2.51zM116.698 61.9052s-6.23-8.17-6.73-8.52c.545 1.4622.882 2.9939 1 4.55.065 1.1157.065 2.2342 0 3.35-.052-.0458-.112-.0809-.177-.1032-.065-.0223-.134-.0315-.203-.0268l-1.22-10.31s-9.89 9.79-9.84 9.79c.05 0 3.7.72 5.41.86 1.54.12 4.48.27 5.23.28l.15 1.12h-.48c-.49 0-2.42.09-2.82.17-.111.1746-.258.3244-.43.4397-.172.1153-.366.1937-.57.2303-.29 0-2.82-.06-3.41-.08.091.2084.205.4063.34.59.168.1234.353.2211.55.29.045.1209.117.2302.21.32 1.428.2104 2.867.3372 4.31.38 1.28 0 6.35-.23 6.35-.23l1.44-2.45s-2.76.51-3.43.61l-1 .12-.07-.51c.74-.07 2.28-.24 3.07-.34.782-.1375 1.556-.3144 2.32-.53zM109.268 49.3951s-1.43.75-1.73 1c.4.11 1.79.25 1.87.26l-.14-1.26z"/>
  <path fill="currentColor" d="M109.418 50.6351h-.01l.05.46-.04-.46zM128.858 60.4651c5.29 4.39 9.1.33 9.1.33 5.28 3.82 8-1.62 8-1.62.45-.67.06-.3-.14-.09-3.86 4.4-8.7 0-8.7 0-4.47 5.28-8.86 0-8.86 0-4.71 4.47-9 0-9 0 4.65 5.69 9.6 1.38 9.6 1.38z"/>
  <path fill="currentColor" d="M145.848 62.0652c-3.86 4.4-8.7 0-8.7 0-4.47 5.28-8.86 0-8.86 0-4.71 4.47-9 0-9 0 4.63 5.69 9.58 1.38 9.58 1.38 5.29 4.39 9.1.33 9.1.33 5.28 3.82 8-1.62 8-1.62.47-.67.08-.3-.12-.09zM97.1779 59.0851c-3.86 4.4-8.7 0-8.7 0-4.46 5.28-8.85 0-8.85 0-4.71 4.47-9 0-9 0 4.63 5.69 9.59 1.38 9.59 1.38 5.28 4.39 9.1.33 9.1.33 5.28 3.82 8-1.62 8-1.62.46-.67.06-.3-.14-.09z"/>
  <path fill="currentColor" d="M97.1779 62.0652c-3.86 4.4-8.7 0-8.7 0-4.46 5.28-8.85 0-8.85 0-4.71 4.47-9 0-9 0 4.63 5.69 9.59 1.38 9.59 1.38 5.28 4.39 9.1.33 9.1.33 5.28 3.82 8-1.62 8-1.62.46-.67.06-.3-.14-.09zM100.088 138.145l3.3.25c.36 0 .51-.2.34-.52l-1.59-2.91c-.037-.073-.09-.137-.155-.188-.065-.05-.14-.086-.221-.104-.08-.018-.163-.018-.243-.001-.081.018-.156.053-.221.103-.445.32-.834.712-1.15 1.16-.2751.473-.4742.986-.5902 1.52-.0175.081-.0172.165.001.246.0181.08.0536.156.1041.222.0504.066.1146.12.188.158.0734.038.1541.06.2371.064zM103.348 138.895l-3.31-.07c-.0824-.005-.1648.008-.2414.039-.0767.03-.1456.077-.202.137-.0563.06-.0987.132-.1241.211-.0253.078-.0331.161-.0226.243.0566.543.2019 1.074.43 1.57.2641.474.6021.902 1.0001 1.27.06.057.132.1.211.126.079.026.163.034.245.023.082-.011.161-.039.231-.084.07-.045.129-.104.173-.175l1.88-2.73c.22-.3.08-.55-.27-.56z"/>
  <path fill="currentColor" d="M118.438 137.885c-.133-1.168-.549-2.285-1.213-3.255-.663-.97-1.554-1.763-2.594-2.31-1.04-.548-2.198-.832-3.373-.83-1.176.003-2.332.293-3.37.845-.967-.506-2.037-.785-3.128-.817-1.091-.032-2.175.185-3.17.634-.995.449-1.8751 1.119-2.5733 1.958-.6982.839-1.1966 1.826-1.4573 2.886-.2607 1.06-.2769 2.165-.0476 3.232.2294 1.067.6985 2.069 1.3717 2.928.6733.859 1.5335 1.554 2.5145 2.032.981.478 2.058.727 3.15.727.278.003.555-.014.83-.05.885-.103 1.744-.37 2.53-.79 1.03.552 2.181.841 3.35.84.278.003.555-.014.83-.05.943-.105 1.857-.396 2.687-.856.831-.46 1.562-1.079 2.152-1.823.59-.743 1.028-1.596 1.287-2.51.259-.913.335-1.868.224-2.811v.02zm-13.17 7c-1.636.187-3.28-.284-4.569-1.308-1.2896-1.025-2.1189-2.52-2.3059-4.157-.187-1.636.2837-3.28 1.3086-4.569 1.0253-1.289 2.5203-2.119 4.1563-2.306.237-.014.474-.014.71 0 .804.002 1.6.165 2.34.48-.31.23-.598.487-.86.77-.367-.133-.751-.214-1.14-.24-.546-.006-1.09.075-1.61.24-.078.026-.149.068-.21.124-.06.056-.108.124-.14.2-.032.075-.048.157-.046.239.001.082.021.163.056.237l1.27 2.65c-.165.765-.206 1.552-.12 2.33 0 .15 0 .3.07.46l-1.65 2.7c-.044.07-.073.149-.083.231-.011.082-.004.165.021.244.025.079.066.152.122.213.055.062.124.11.2.142.492.245 1.03.385 1.578.412.549.028 1.098-.058 1.612-.252.23.254.481.488.75.7l.12.08c-.506.198-1.038.323-1.58.37v.01zm10.86-2.3c-.631.807-1.453 1.446-2.391 1.858-.938.413-1.964.587-2.985.507-1.022-.08-2.008-.412-2.87-.965-.863-.554-1.575-1.313-2.073-2.208-.498-.896-.766-1.901-.782-2.926-.015-1.024.224-2.037.695-2.947.471-.91 1.16-1.69 2.006-2.269.845-.579 1.821-.939 2.84-1.05.237-.015.474-.015.71 0 1.17-.003 2.317.326 3.308.947.991.622 1.786 1.511 2.293 2.565.507 1.054.706 2.23.573 3.393-.133 1.162-.592 2.263-1.324 3.175v-.08z"/>
  <path fill="currentColor" d="M111.098 137.535c.16.33.44.34.62 0l1.73-2.83c.044-.068.073-.146.085-.227.011-.081.005-.163-.019-.241-.024-.078-.065-.15-.119-.211-.055-.061-.122-.109-.197-.141-.493-.241-1.03-.381-1.578-.41-.548-.029-1.096.052-1.612.24-.078.026-.15.068-.21.124-.06.056-.108.124-.14.2-.033.075-.048.157-.047.239.002.082.021.163.057.237l1.43 3.02zM106.798 138.145l3.3.25c.36 0 .51-.2.34-.52l-1.59-2.91c-.038-.073-.09-.137-.155-.188-.065-.05-.14-.086-.221-.104-.08-.018-.163-.018-.243-.001-.081.018-.156.053-.221.103-.444.319-.829.711-1.14 1.16-.281.471-.484.984-.6 1.52-.018.081-.017.165.001.246.018.08.053.156.104.222.05.066.114.12.188.158.073.038.154.06.237.064zM115.078 135.135c-.061-.056-.132-.098-.21-.123-.079-.026-.161-.034-.243-.025-.082.01-.161.037-.231.08-.07.042-.13.1-.176.168l-1.87 2.74c-.21.29-.08.54.28.55l3.32.08c.082.003.163-.011.239-.042.076-.031.144-.078.2-.138.056-.06.099-.131.125-.208.026-.078.035-.16.026-.242-.062-.543-.211-1.073-.44-1.57-.267-.477-.612-.906-1.02-1.27zM111.588 139.885c-.15-.32-.43-.33-.62 0l-1.72 2.83c-.047.069-.077.147-.089.229-.013.082-.007.166.017.245.024.08.065.153.121.214.056.062.124.11.201.142.498.235 1.04.364 1.59.379.551.016 1.099-.083 1.61-.289.079-.023.151-.063.213-.118.061-.055.109-.122.141-.198.031-.076.046-.158.041-.24-.004-.082-.026-.162-.065-.234l-1.44-2.96zM115.898 139.285l-3.31-.26c-.35 0-.51.21-.33.52l1.58 2.91c.038.074.091.14.156.191.066.052.141.088.223.107.081.019.165.02.246.004.082-.017.158-.052.225-.102.438-.325.823-.716 1.14-1.16.279-.471.478-.984.59-1.52.019-.08.021-.164.004-.245-.017-.08-.052-.156-.101-.222-.05-.066-.114-.121-.187-.159-.073-.038-.153-.06-.236-.064zM110.058 138.895l-3.31-.07c-.082-.005-.165.008-.241.039-.077.03-.146.077-.202.137-.057.06-.099.132-.125.211-.025.078-.033.161-.022.243.056.543.202 1.074.43 1.57.264.474.601.902 1 1.27.06.057.132.1.211.126.079.026.163.034.245.023.082-.011.161-.039.231-.084.07-.045.129-.104.173-.175l1.88-2.73c.22-.3.09-.55-.27-.56zM131.168 137.635c-3-1.59-7.91-1.18-10.58 4.53 2.22-2.15 5.52-5 11.57-1.26.175-.273.288-.582.332-.903.045-.322.019-.649-.075-.96-.094-.31-.254-.597-.47-.84-.215-.243-.48-.436-.777-.567z"/>
  <path fill="currentColor" d="M127.298 135.445s.15-1-1.33-1c-1.28.149-2.454.786-3.275 1.779-.822.993-1.229 2.266-1.135 3.551.09-.662.31-1.301.647-1.878.338-.577.787-1.081 1.32-1.484.534-.402 1.142-.695 1.79-.861.647-.167 1.322-.203 1.983-.107zM84.9381 137.635c-.2991.129-.5665.321-.7838.563-.2173.242-.3792.529-.4743.84-.0952.312-.1214.64-.0769.962.0446.323.1589.631.335.905 6-3.7 9.35-.89 11.56 1.26-2.66-5.68-7.51-6.09-10.56-4.53z"/>
  <path fill="currentColor" d="M94.548 139.775c.0936-1.285-.3128-2.558-1.1345-3.551-.8217-.993-1.9952-1.63-3.2755-1.779-1.48 0-1.33 1-1.33 1 .6616-.096 1.3357-.06 1.9833.107.6476.166 1.2558.459 1.7895.861.5337.403.9824.907 1.32 1.484.3377.577.5576 1.216.6472 1.878z"/>
</svg>