<svg viewBox="0 0 75.59 16.09" fill="currentColor"><defs><style>.cls-1{fill:#de4726}</style></defs><g id="Layer_2" data-name="Layer 2"><g id="Layer_1-2" data-name="Layer 1"><g id="Title_mid" data-name="Title mid"><g id="Dark_Label" data-name="Dark Label"><path d="M46.09 12.5S39.86 4.34 39.36 4a16.63 16.63 0 011 4.56 28.55 28.55 0 010 3.34.47.47 0 00-.38-.12L38.77 1.45s-9.91 9.75-9.85 9.74 3.7.72 5.41.85c1.54.12 4.48.27 5.23.29l.15 1.12h-.48c-.49 0-2.42.1-2.82.18a1.52 1.52 0 01-1 .66c-.29 0-2.82 0-3.41-.07a3.47 3.47 0 00.34.59 2.32 2.32 0 00.55.28 1 1 0 00.21.33 39.53 39.53 0 004.31.38c1.28 0 6.35-.23 6.35-.23l1.44-2.46s-2.76.52-3.43.61c-.31.05-.69.09-1 .13l-.07-.5c.74-.08 2.28-.24 3.07-.34 1.04-.19 2.32-.51 2.32-.51zM38.66 0s-1.43.74-1.73 1c.4.11 1.79.26 1.87.27z" class="cls-1"/><path d="M38.81 1.24h-.01l.05.46-.04-.46zM58.25 11.07c5.29 4.39 9.1.32 9.1.32 5.28 3.82 8-1.62 8-1.62.45-.66.06-.29-.14-.08-3.86 4.39-8.7 0-8.7 0-4.47 5.28-8.86 0-8.86 0-4.71 4.47-9 0-9 0 4.65 5.69 9.6 1.38 9.6 1.38z" class="cls-1"/><path d="M75.24 12.67c-3.86 4.39-8.7 0-8.7 0-4.47 5.28-8.86 0-8.86 0-4.71 4.47-9 0-9 0 4.63 5.69 9.58 1.38 9.58 1.38 5.29 4.39 9.1.32 9.1.32 5.28 3.82 8-1.62 8-1.62.47-.66.08-.29-.12-.08zM26.57 9.69c-3.86 4.39-8.7 0-8.7 0C13.41 15 9 9.69 9 9.69c-4.71 4.47-9 0-9 0 4.63 5.69 9.59 1.38 9.59 1.38 5.28 4.39 9.1.32 9.1.32 5.28 3.82 8-1.62 8-1.62.48-.66.08-.29-.12-.08z" class="cls-1"/><path d="M26.57 12.67c-3.86 4.39-8.7 0-8.7 0-4.46 5.33-8.87 0-8.87 0-4.71 4.47-9 0-9 0 4.63 5.69 9.59 1.38 9.59 1.38 5.28 4.39 9.1.32 9.1.32 5.28 3.82 8-1.62 8-1.62.48-.66.08-.29-.12-.08z" class="cls-1"/></g></g></g></g></svg>