<svg viewBox="0 0 183.96 49.35" fill="currentColor"><defs><style>.cls-1{fill:#de4726}</style></defs><g id="Layer_2" data-name="Layer 2"><g id="Layer_1-2" data-name="Layer 1"><g id="Title_top" data-name="Title top"><g id="Label"><g id="Dark_Label" data-name="Dark Label"><path d="M72.3 12.32C69 27.48 49.29 26.94 36 30.65 21.71 34.62 14.39 49 14.39 49c7-6.75 11.34-13.69 33.12-17.66 25.37-4.6 24.79-19.02 24.79-19.02z" class="cls-1"/><path d="M50.21 18.82C57.88 19 63.48 17.37 64.3 12s-4.81-9.15-8.88-7.29C51.6 6.44 50.79 9.49 52 12s3.16 1.26 3.16 1.26c-.49-.73-1.87-4.65 2.35-6.08s7.67 5.6 2.26 9-19-1.25-25.82 3.64c-6.08 4.36-3.68 12.41-3.68 12.41 1.2-14.94 12.54-13.57 19.94-13.41z" class="cls-1"/><path d="M50.58 8.81a8.84 8.84 0 011.86-3.4C59.42-1.1 69.71 8 64.05 15.1c-6 7.47-18.29 3-25.25 5.63a11 11 0 00-6.92 8.69c6.48-11.77 13.91-6.3 25.82-8.65S68.43 8.11 62.75 4 51.92 2.85 50 5.71s-.13 5.35.58 3.1zM20.44 37.92c-5.75 1.81-10.5 8.94-14.68 7.55a6.63 6.63 0 01-3.88-4.18c-1.43 0-3.27 3-.26 6.28s9.2 1.39 12-2.34c3.83-5.23 5.38-6.18 6.82-7.31zM1.69 45.77C.57 44 1.52 43 1.52 43c2.1 4.48 7.8 3.68 7.8 3.68-3.32 1.68-6.51.88-7.63-.91zM16.15 49.35c2.36-2.89 7.13-5.74 12.73-8.14 7.4-3.16 11.33-4.29 13.15-6.34-2.93 1.3-7.32 1.18-13 3.91-6.86 3.27-11.98 8.94-12.88 10.57z" class="cls-1"/><path d="M32.8 30.48S34 29.4 39 27.67c4.56-1.56 12.18-1.22 16.06-3.87a13.64 13.64 0 01-2.85.25c-2.06 0-3.4-.28-5.67-.32-4.54-.06-10.83 1.09-13.74 6.75zM61.49 21.44c9.93-3.19 9.85-11.12 8.51-13.67-1.2-2.25-2.47-1.23-2.47-1.23 5.63 10.21-6.04 14.9-6.04 14.9zM79.79 15.27c-3.41-.49-7.85 1.5-8.48 7.78 1.39-2.76 3.57-6.51 10.5-5a2.24 2.24 0 00-2.02-2.78z" class="cls-1"/><path d="M83.34 16.37s.87-.72-.49-1.84a5.72 5.72 0 00-7.77 1c1.29-1.11 4.83-2.62 8.26.84zM34.61 12.69s.72-5.17 8.32-1.8c0 0-8-6.28-9.74-.78 0 0-3.4-1.19-3.1 2.54 0 0 1.29-2.95 4.52.04zM148 30.65c-13.33-3.71-33-3.17-36.33-18.33 0 0-.59 14.42 24.79 19.05 21.78 4 26.13 10.91 33.12 17.66-.01-.03-7.33-14.41-21.58-18.38z" class="cls-1"/><path d="M124.22 16.12c-5.41-3.38-2-10.41 2.26-9s2.84 5.35 2.34 6.08c0 0 2 1.22 3.16-1.26s.38-5.52-3.45-7.28c-4.06-1.86-9.7 1.89-8.88 7.29s6.43 7 14.09 6.85c7.41-.16 18.74-1.53 20 13.35 0 0 2.4-8-3.69-12.41-6.85-4.87-20.41-.24-25.83-3.62z" class="cls-1"/><path d="M126.26 20.77c11.91 2.35 19.34-3.12 25.82 8.65a11 11 0 00-6.92-8.69c-7-2.6-19.28 1.84-25.25-5.63-5.66-7.07 4.62-16.2 11.6-9.69a8.77 8.77 0 011.87 3.4c.71 2.25 2.56-.27.62-3.1S126.88-.1 121.21 4s-6.86 14.42 5.05 16.77zM182.08 41.29a6.66 6.66 0 01-3.89 4.18c-4.18 1.39-8.93-5.74-14.68-7.55 1.44 1.13 3 2 6.88 7.31 2.75 3.73 8.93 5.6 12 2.34s1.12-6.33-.31-6.28zm.18 4.48c-1.12 1.79-4.31 2.59-7.63.86 0 0 5.71.8 7.81-3.68 0 .05.94 1.05-.18 2.82zM155 38.78c-5.72-2.73-10.11-2.61-13-3.91 1.82 2.05 5.75 3.18 13.15 6.34 5.59 2.4 10.37 5.25 12.73 8.14-.97-1.63-6.09-7.3-12.88-10.57z" class="cls-1"/><path d="M131.73 24.05a13.59 13.59 0 01-2.84-.25c3.87 2.65 11.5 2.31 16.06 3.87 5.06 1.73 6.21 2.81 6.21 2.81-2.92-5.66-9.16-6.81-13.75-6.75-2.27.04-3.62.27-5.68.32zM114 7.77c-1.37 2.55-1.45 10.48 8.48 13.67 0 0-11.66-4.69-6-14.9-.03 0-1.3-1.02-2.48 1.23zM104.16 15.27a2.24 2.24 0 00-2 2.75c6.93-1.48 9.11 2.27 10.49 5-.65-6.25-5.08-8.24-8.49-7.75z" class="cls-1"/><path d="M108.88 15.51a5.73 5.73 0 00-7.78-1c-1.35 1.12-.48 1.84-.48 1.84 3.43-3.44 6.97-1.93 8.26-.84zM149.35 12.69c3.23-3 4.52 0 4.52 0 .3-3.73-3.1-2.54-3.1-2.54-1.73-5.5-9.75.78-9.75.78 7.61-3.41 8.33 1.76 8.33 1.76zM98.32 6.52l-2.39-1.44h-.2a.85.85 0 00-.69.6 1.66 1.66 0 01-.19.18 1.78 1.78 0 00-.53.69l-.06.25a3.71 3.71 0 01-.65 1.34l-.44.43a25.69 25.69 0 00-3.42 2.94 21 21 0 00-2.24 3.12 14.35 14.35 0 00-.7 1.67 11.08 11.08 0 01-1.22 2.7 13.42 13.42 0 01-1.09 1.19 6.74 6.74 0 00-1 1.09 2.27 2.27 0 00-.31 2.12c.06.13.22.44 2.28 1.71s2.32 1.18 2.49 1.18a2.27 2.27 0 001.8-1.29 6.66 6.66 0 00.52-1.35 16 16 0 01.54-1.52 11.23 11.23 0 011.77-2.31 12.66 12.66 0 001.15-1.4A21.17 21.17 0 0095.47 15a25.13 25.13 0 001-4.33l.19-.65a3.59 3.59 0 01.88-1.2l.19-.17a1.71 1.71 0 00.37-.79c0-.08 0-.2.07-.26a.85.85 0 00.21-.89zm-5.43 11.39a2.69 2.69 0 01-.24.33l-4.46-2.66a2.85 2.85 0 01.19-.39 19.21 19.21 0 012-2.84l4.08 2.44a18.25 18.25 0 01-1.57 3.12zM97.12 7.6l-.12.32-.18.18a4.45 4.45 0 00-1.17 1.65l-.08.29c-1.37-.36-1.7 1.88-3.44 1.75a3.48 3.48 0 01-1-.24c1.07-1 2.59-2.11 2.65-2.17l.5-.47a4.58 4.58 0 00.91-1.8v-.19a2.1 2.1 0 01.26-.28 2 2 0 00.38-.41l1.4.85a2.59 2.59 0 00-.11.52zM98 4.14a1.83 1.83 0 10-1.82-1.82A1.83 1.83 0 0098 4.14zm0-2.65a.83.83 0 11-.82.83.83.83 0 01.82-.83zM113.13 3.65a1.82 1.82 0 10-1.82-1.82 1.82 1.82 0 001.82 1.82zm0-2.64a.82.82 0 11-.82.82.82.82 0 01.82-.83zM101.75 8.39a1.82 1.82 0 101.82-1.82 1.82 1.82 0 00-1.82 1.82zm2.64 0a.82.82 0 11-.82-.82.82.82 0 01.82.82zM108.88 5.92c1.34 1.45 2.24.37 1-1-3-3.23-9-1.49-10.89.93-.18.24-.13.29.08.06 1.8-1.85 6.7-3.27 9.81.01z" class="cls-1"/><path d="M106.79 1.39C108.9 1 108.11-.09 106.6 0c-2.15.14-4.51 2.23-5.94 3.84-.17.19-.1.19 0 .06a10.78 10.78 0 016.13-2.51z" class="cls-1"/></g></g></g></g></g></svg>