<svg viewBox="0 0 24 24" fill="currentColor"><path d="M2 6h20c.553 0 1-.447 1-1s-.447-1-1-1h-1V2c0-.553-.447-1-1-1h-5c-.007 0-.014.004-.02.004C14.146.381 13.121 0 12 0S9.853.381 9.02 1.004C9.013 1.004 9.007 1 9 1H4c-.553 0-1 .447-1 1v2H2c-.553 0-1 .447-1 1s.447 1 1 1zm17-3v1h-2.102c-.07-.351-.189-.681-.33-1H19zm-7-1c1.305 0 2.402.838 2.816 2H9.184C9.597 2.838 10.695 2 12 2zM5 3h2.431c-.14.319-.259.649-.33 1H5V3zm18 15H1c-.553 0-1 .447-1 1v4c0 .553.447 1 1 1h22c.553 0 1-.447 1-1v-4c0-.553-.447-1-1-1zM7.219 22H2v-2h5.719l-.5 2zm2.062 0l.5-2h4.438l.5 2H9.281zM22 22h-5.219l-.5-2H22v2zM19 8v8c0 .553.447 1 1 1s1-.447 1-1V8c0-.553-.447-1-1-1s-1 .447-1 1zM7 8v8c0 .553.447 1 1 1s1-.447 1-1V8c0-.553-.447-1-1-1s-1 .447-1 1zm8 0v8c0 .553.447 1 1 1s1-.447 1-1V8c0-.553-.447-1-1-1s-1 .447-1 1zM3 8v8c0 .553.447 1 1 1s1-.447 1-1V8c0-.553-.447-1-1-1s-1 .447-1 1zm8 0v8c0 .553.447 1 1 1 .553 0 1-.447 1-1V8c0-.553-.447-1-1-1-.553 0-1 .447-1 1z"/></svg>