<svg viewBox="0 0 24 24" fill="currentColor"><path d="M5.293 15.707c.181.182.431.293.707.293h12c.275 0 .525-.111.707-.293l2-2c.182-.182.293-.432.293-.707v-2c0-.276-.111-.526-.293-.707l-2-2C18.525 8.112 18.275 8 18 8H6c-.276 0-.526.112-.707.293l-2 2C3.112 10.474 3 10.724 3 11v2c0 .275.112.525.293.707l2 2zM5 11.414L6.414 10h11.172L19 11.414v1.172L17.586 14H6.414L5 12.586v-1.172zM12 13c.552 0 1-.447 1-1 0-.553-.448-1-1-1s-1 .447-1 1c0 .553.448 1 1 1zm11-8H1c-.552 0-1 .447-1 1v12c0 .553.448 1 1 1h22c.552 0 1-.447 1-1V6c0-.553-.448-1-1-1zm-1 12H2V7h20v10z"/></svg>