<svg viewBox="0 0 24 24" fill="currentColor"><path d="M23 5H1c-.553 0-1 .447-1 1v12c0 .553.447 1 1 1h22c.553 0 1-.447 1-1V6c0-.553-.447-1-1-1zm-1 12H2V7h20v10zM4 14c.553 0 1 .447 1 1s.447 1 1 1h12c.553 0 1-.447 1-1s.447-1 1-1 1-.447 1-1v-2c0-.553-.447-1-1-1s-1-.447-1-1-.447-1-1-1H6c-.553 0-1 .447-1 1s-.447 1-1 1-1 .447-1 1v2c0 .553.447 1 1 1zm1-2.184c.849-.301 1.515-.967 1.816-1.816h10.368c.301.849.967 1.515 1.815 1.816v.367c-.849.302-1.515.967-1.815 1.816H6.816c-.301-.849-.967-1.514-1.816-1.815v-.368zM12 13c.553 0 1-.447 1-1 0-.553-.447-1-1-1-.553 0-1 .447-1 1 0 .553.447 1 1 1z"/></svg>