<svg viewBox="0 0 24 24" fill="currentColor"><path d="M9 9h12c.553 0 1-.447 1-1V2c0-.553-.447-1-1-1H9c-.553 0-1 .447-1 1v6c0 .553.447 1 1 1zm1-6h10v4H10V3zm5 1c-.553 0-1 .447-1 1s.447 1 1 1 1-.447 1-1-.447-1-1-1zm9 14c0-1.657-1.343-3-3-3h-4.184c-.414-1.162-1.512-2-2.816-2h-1.184c-.414-1.162-1.512-2-2.816-2H6c0-.553-.447-1-1-1H1c-.553 0-1 .447-1 1v8c0 .553.447 1 1 1h4c.376 0 .691-.216.862-.521l7.731 3.437.001-.003c.127.053.261.087.406.087s.279-.034.404-.089l.002.003 8.982-3.992v-.001l.018-.007-.002-.003c.35-.156.596-.504.596-.911zM4 18H2v-6h2v6zm10 2.904L6 17.35V13h4c.553 0 1 .447 1 1s.447 1 1 1h2c.553 0 1 .447 1 1h-4c-.553 0-1 .447-1 1s.447 1 1 1h5c.553 0 1-.447 1-1h4c.339 0 .623.18.805.438L14 20.904z"/></svg>