<svg viewBox="0 0 24 24" fill="currentColor"><path d="M10 6h4c.553 0 1-.447 1-1s-.447-1-1-1h-4c-.553 0-1 .447-1 1s.447 1 1 1zm3 6H8c-.553 0-1 .447-1 1 0 .553.447 1 1 1h5c.553 0 1-.447 1-1 0-.553-.447-1-1-1zM7 9c0 .553.447 1 1 1h8c.553 0 1-.447 1-1s-.447-1-1-1H8c-.553 0-1 .447-1 1zm13.707-4.707l-4-4C16.525.112 16.275 0 16 0H4c-.553 0-1 .447-1 1v20c0 .499.514 1 1 1h11v1c0 .553.447 1 1 1 .275 0 .525-.111.707-.293L18 22.414l1.293 1.293c.182.182.432.293.707.293.553 0 1-.447 1-1V5c0-.546-.293-.707-.293-.707zM18 19c-.553 0-1-.447-1-1s.447-1 1-1 1 .447 1 1-.447 1-1 1zm1-3.816c-.314-.112-.646-.184-1-.184-1.657 0-3 1.343-3 3v2H5V2h10.586L19 5.414v9.77z"/></svg>