<svg viewBox="0 0 24 24" fill="currentColor"><path d="M19 18h-2c-.553 0-1 .447-1 1s.447 1 1 1h2c.553 0 1-.447 1-1s-.447-1-1-1zM12 6h6c.553 0 1-.447 1-1s-.447-1-1-1h-6c-.553 0-1 .447-1 1s.447 1 1 1zm2 1c-.553 0-1 .447-1 1s.447 1 1 1h2c.553 0 1-.447 1-1s-.447-1-1-1h-2zm6-7H4C1.791 0 0 1.791 0 4c0 .553.447 1 1 1h5v15c0 1.104-.896 2-2 2-.553 0-1 .447-1 1s.447 1 1 1h16c2.209 0 4-1.791 4-4V4c0-2.209-1.791-4-4-4zM2.277 3c.347-.596.985-1 1.723-1s1.376.404 1.723 1H2.277zM22 20c0 1.104-.896 2-2 2H7.445c.344-.591.555-1.268.555-2V4c0-.732-.211-1.409-.555-2H20c1.104 0 2 .896 2 2v16zm-3-9h-5c-.553 0-1 .447-1 1 0 .553.447 1 1 1h5c.553 0 1-.447 1-1 0-.553-.447-1-1-1zm0 3h-8c-.553 0-1 .447-1 1s.447 1 1 1h8c.553 0 1-.447 1-1s-.447-1-1-1z"/></svg>