<svg viewBox="0 0 24 24" fill="currentColor"><path d="M12 11c.3 0 .563-.139.744-.349l.009.007L20 3.411V5c0 .553.447 1 1 1s1-.447 1-1V1c0-.553-.447-1-1-1h-4c-.553 0-1 .447-1 1s.447 1 1 1h1.589l-6.587 6.587-4.295-4.294C7.526 4.112 7.276 4 7 4c-.432 0-.792.277-.932.661l-.007-.003-3.925 6.867C2.115 11.563 2 11.684 2 12c0 .553.447 1 1 1 .432 0 .792-.277.932-.661l3.276-5.717 4.085 4.085c.181.181.431.293.707.293zm-7 7H1c-.553 0-1 .447-1 1v4c0 .553.447 1 1 1h4c.553 0 1-.447 1-1v-4c0-.553-.447-1-1-1zm-1 4H2v-2h2v2zM23 8h-4c-.553 0-1 .447-1 1v14c0 .553.447 1 1 1h4c.553 0 1-.447 1-1V9c0-.553-.447-1-1-1zm-1 14h-2V10h2v12zm-8-9h-4c-.553 0-1 .447-1 1v9c0 .553.447 1 1 1h4c.553 0 1-.447 1-1v-9c0-.553-.447-1-1-1zm-1 9h-2v-7h2v7z"/></svg>