<svg viewBox="0 0 24 24" fill="currentColor"><path d="M11 8c0-1.657-1.343-3-3-3S5 6.343 5 8s1.343 3 3 3 3-1.343 3-3zM7 8c0-.553.447-1 1-1s1 .447 1 1-.447 1-1 1-1-.447-1-1zm9 5c-1.657 0-3 1.343-3 3s1.343 3 3 3 3-1.343 3-3-1.343-3-3-3zm0 4c-.553 0-1-.447-1-1s.447-1 1-1 1 .447 1 1-.447 1-1 1zm2-10c0-.553-.447-1-1-1-.275 0-.525.112-.707.293l-10 10C6.112 16.475 6 16.725 6 17c0 .553.447 1 1 1 .276 0 .526-.111.707-.293l10-10C17.889 7.526 18 7.276 18 7zm-6-7C5.373 0 0 5.373 0 12s5.373 12 12 12 12-5.373 12-12S18.627 0 12 0zm0 22C6.478 22 2 17.521 2 12 2 6.478 6.478 2 12 2c5.521 0 10 4.478 10 10 0 5.521-4.479 10-10 10z"/></svg>