<svg viewBox="0 0 24 24" fill="currentColor"><path d="M23 19c-.299 0-.559.137-.742.346C20.447 21.115 17.73 22 15 22c-4.478 0-8.267-2.943-9.541-7H18c.553 0 1-.447 1-1s-.447-1-1-1H5.051C5.018 12.671 5 12.338 5 12s.018-.671.051-1H20c.553 0 1-.447 1-1s-.447-1-1-1H5.459C6.733 4.943 10.522 2 15 2c2.771 0 5.467.91 7.277 2.731 0 0 .189.269.723.269.553 0 1-.447 1-1 0-.353-.193-.647-.469-.825C21.363 1.09 18.247 0 15 0 9.41 0 4.728 3.827 3.394 9H1c-.553 0-1 .447-1 1s.447 1 1 1h2.051c-.028.33-.051.662-.051 1s.023.67.051 1H1c-.553 0-1 .447-1 1s.447 1 1 1h2.394C4.728 20.173 9.41 24 15 24c3.316 0 6.566-1.127 8.738-3.301 0 0 .262-.18.262-.699 0-.553-.447-1-1-1z"/></svg>