<svg viewBox="0 0 24 24" fill="currentColor"><path d="M23 0H1C.447 0 0 .447 0 1v22c0 .553.447 1 1 1h22c.553 0 1-.447 1-1V1c0-.553-.447-1-1-1zm-9 22H2V2h12v11.184c-.495.176-.887.508-.854.482l-2.859 1.869-2.43-4.05S7.688 11 7 11c-.689 0-.857.485-.857.485l-3 5s-.143.14-.143.516c0 .553.447 1 1 1 .363 0 .668-.204.843-.494L7 13.943l2.157 3.563c.175.29.48.494.843.494.225 0 .423-.088.59-.214l1.526-1.06c.247.972.948 1.756 1.884 2.09V22zm1-5c-.553 0-1-.447-1-1s.447-1 1-1 1 .447 1 1-.447 1-1 1zm7 5h-6v-3.184c1.088-.387 1.861-1.383 1.962-2.576l2.99-8.002C20.973 8.159 21 8.084 21 8c0-.553-.447-1-1-1-.852 0-.971.758-.971.758l-2.204 5.879c-.249-.189-.524-.346-.825-.453V2h6v20z"/></svg>