<svg viewBox="0 0 24 24" fill="currentColor"><path d="M15 11h-2V5c0-.553-.448-1-1-1s-1 .447-1 1v7c0 .553.448 1 1 1h3c.552 0 1-.447 1-1 0-.553-.448-1-1-1zm9 1c0-6.627-5.373-12-12-12S0 5.373 0 12s5.373 12 12 12c2.209 0 4-1.343 4-3 0 1.657 1.791 3 4 3s4-1.343 4-3v-6c0-.323-.086-.629-.212-.921.123-.677.212-1.366.212-2.079zm-10 9c0 .553-.896 1-2 1-.136 0-.269-.016-.403-.021C10.686 21.887 10 21.482 10 21v-.425c.591.26 1.266.425 2 .425s1.409-.165 2-.425V21zm-2-2c-1.104 0-2-.447-2-1s.896-1 2-1 2 .447 2 1-.896 1-2 1zm10 2c0 .553-.896 1-2 1s-2-.447-2-1v-.425c.591.26 1.266.425 2 .425s1.409-.165 2-.425V21zm0-3c0 .553-.896 1-2 1s-2-.447-2-1v-.425c.591.26 1.266.425 2 .425s1.409-.165 2-.425V18zm-2-2c-1.104 0-2-.447-2-1s.896-1 2-1 2 .447 2 1-.896 1-2 1zm2-3.584c-.59-.258-1.268-.416-2-.416-2.209 0-4 1.343-4 3v3c0-1.657-1.791-3-4-3s-4 1.343-4 3v3c0 .061.019.115.023.174C4.48 19.636 2 16.107 2 12 2 6.478 6.477 2 12 2s10 4.478 10 10v.416z"/></svg>