<svg viewBox="0 0 24 24" fill="currentColor"><path d="M23.578 8.206l.011-.015L20 5.589V5c0-.553-.448-1-1-1h-1.191L12.579.206C12.413.085 12.22 0 12 0c-.435 0-.588.191-.588.191L6.175 4H5c-.552 0-1 .447-1 1v.582L.412 8.191l.011.015C.173 8.388 0 8.668 0 9v14c0 .553.448 1 1 1h22c.552 0 1-.447 1-1V9c0-.332-.173-.612-.422-.794zM20 8.055L21.3 9l-1.3.945v-1.89zm-8-5.819L14.425 4h-4.85L12 2.236zM6 6.6l.825-.6h10.35l.825.6v4.8l-3.703 2.693C13.749 13.43 12.928 13 12 13c-.552 0-1-.448-1-1 0-.553.448-1 1-1h2c.552 0 1-.448 1-1 0-.553-.448-1-1-1h-1V8c0-.553-.448-1-1-1s-1 .447-1 1v1.184C9.837 9.597 9 10.695 9 12c0 1.657 1.343 3 3 3 .263 0 .498.105.676.271l-.676.493L6 11.4V6.6zM4 8.055v1.891L2.7 9 4 8.055zM2 22V10.964l9.406 6.841L17 22H2zm20 0h-1.667l-6.649-4.986L22 10.964V22z"/></svg>