<svg viewBox="0 0 24 24" fill="currentColor"><path d="M15 7c-1.131 0-2.162.39-3 1.022C11.162 7.39 10.131 7 9 7c-2.762 0-5 2.238-5 5s2.238 5 5 5c1.131 0 2.162-.391 3-1.021.838.63 1.869 1.021 3 1.021 2.762 0 5-2.238 5-5s-2.238-5-5-5zm-4.316 7.482c-.48.327-1.06.518-1.684.518-1.657 0-3-1.343-3-3s1.343-3 3-3c.624 0 1.204.191 1.684.518C10.261 10.252 10 11.092 10 12s.261 1.748.684 2.482zM15 15c-1.657 0-3-1.343-3-3s1.343-3 3-3 3 1.343 3 3-1.343 3-3 3zm6-12H3C1.343 3 0 4.343 0 6v12c0 1.657 1.343 3 3 3h18c1.657 0 3-1.343 3-3V6c0-1.657-1.343-3-3-3zm1 15c0 .553-.447 1-1 1H3c-.553 0-1-.447-1-1V6c0-.553.447-1 1-1h18c.553 0 1 .447 1 1v12z"/></svg>