<svg viewBox="0 0 24 24" fill="currentColor"><path d="M9 11c1.104 0 2-.896 2-2s-.896-2-2-2-2 .896-2 2 .896 2 2 2zm6 2c-1.104 0-2 .896-2 2s.896 2 2 2 2-.896 2-2-.896-2-2-2zm1-6c-.275 0-.525.112-.707.293l-8 8C7.112 15.475 7 15.725 7 16c0 .553.447 1 1 1 .276 0 .526-.111.707-.293l8-8C16.889 8.526 17 8.276 17 8c0-.553-.447-1-1-1zm7.707 4.293L21 8.586V4c0-.553-.447-1-1-1h-4.586L12.707.293C12.525.112 12.276 0 12 0s-.526.112-.707.293L8.586 3H4c-.553 0-1 .447-1 1v4.586L.293 11.293C.112 11.474 0 11.724 0 12s.112.525.293.707L3 15.414V20c0 .553.447 1 1 1h4.586l2.707 2.707c.181.182.431.293.707.293s.525-.111.707-.293L15.414 21H20c.553 0 1-.447 1-1v-4.586l2.707-2.707c.182-.182.293-.431.293-.707s-.111-.526-.293-.707zm-4.414 3c-.182.182-.293.432-.293.707v4h-4c-.275 0-.525.111-.707.293L12 21.586l-2.293-2.293C9.526 19.111 9.276 19 9 19H5v-4c0-.275-.112-.525-.293-.707L2.414 12l2.293-2.293C4.888 9.526 5 9.276 5 9V5h4c.276 0 .526-.112.707-.293L12 2.414l2.293 2.293c.182.181.432.293.707.293h4v4c0 .276.111.526.293.707L21.586 12l-2.293 2.293z"/></svg>