<svg viewBox="0 0 23.77 22.21" fill="currentColor"><defs><style>.cls-1{fill:#009579}</style></defs><g id="Layer_2" data-name="Layer 2"><g id="Layer_1-2" data-name="Layer 1"><g id="Drinks_02" data-name="Drinks 02"><path d="M17.1 10.88l-1.26.27-.43-2 2-.43.29 1.55 1.08.28-.39-2a1 1 0 00-1.13-.75l-2 .39a1 1 0 00-.61.4 1 1 0 00-.15.72l.4 2a1 1 0 00.4.62 1 1 0 00.53.16h.19l.85-.16z" class="cls-1"/><path d="M18.8 13.68h-.22l-1.68-.44a.89.89 0 01-.64-1.08l.44-1.69a.89.89 0 011.08-.63l1.69.44a.86.86 0 01.54.41.83.83 0 01.09.67L19.66 13a.88.88 0 01-.86.68zm-1.54-1.41l1.46.39.39-1.47-1.47-.39zm0 .11zM11.2 4a.5.5 0 01-.5-.5v-3a.5.5 0 01.5-.5.5.5 0 01.5.5v3a.51.51 0 01-.5.5zM12.41 4.05a.47.47 0 01-.3-.1.5.5 0 01-.11-.69l1.12-1.53a.5.5 0 01.81.59l-1.12 1.53a.51.51 0 01-.4.2zM10.08 4.05a.48.48 0 01-.4-.21L8.56 2.32a.51.51 0 01.11-.7.49.49 0 01.7.11l1.11 1.52a.49.49 0 01-.11.7.45.45 0 01-.29.1z" class="cls-1"/><ellipse cx="16.37" cy="5.61" class="cls-1" rx="4.62" ry="1.13" transform="rotate(-11.99 16.35435006 5.61655499)"/><path d="M13.59 7.57h-.26c-.45 0-1.79-.06-2-.9C11 5.15 15.2 4.19 16 4a15.1 15.1 0 013.38-.37c.44 0 1.79.06 2 .9.18.84-1 1.43-1.43 1.62a14.63 14.63 0 01-3.25 1 15.56 15.56 0 01-3.11.42zm-1.16-1.13a9.25 9.25 0 004.08-.22 9.34 9.34 0 003.81-1.45 9.42 9.42 0 00-4.08.23 9.49 9.49 0 00-3.81 1.44zm8-1.6z" class="cls-1"/><path d="M17.07 21.74h-.22c-.39 0-1.58 0-1.74-.82L11.37 6.69a.5.5 0 01.35-.61.5.5 0 01.61.36l3.73 14.18a7.55 7.55 0 003.46-.17 7.45 7.45 0 003.24-1.26L20.4 4.73a.52.52 0 01.42-.58.49.49 0 01.57.42l2.36 14.54c.29 1.33-3.3 2.16-4 2.32a13.6 13.6 0 01-2.68.31zm-1-1.07zm6.69-1.4zM8.22 8.88a.92.92 0 00-.64-.35l-2-.22a.92.92 0 00-.7.2 1 1 0 00-.36.65l-.21 2 1-.37.11-1.49 2 .17-.17 2-1.34-.14.37 1.05.86.09h.1a1 1 0 001-.85l.22-2.05a1 1 0 00-.24-.69z" class="cls-1"/><path d="M4.4 14.29a.91.91 0 01-.4-.08.87.87 0 01-.45-.51L3 12.06a.88.88 0 01.54-1.13l1.64-.58a.88.88 0 011.13.53l.58 1.65a.89.89 0 010 .68.87.87 0 01-.51.45l-1.64.58a.71.71 0 01-.34.05zM4 11.83l.51 1.43 1.43-.5-.51-1.43z" class="cls-1"/><ellipse cx="6.21" cy="6.04" class="cls-1" rx="1.13" ry="4.62" transform="rotate(-82.9 6.20732533 6.03637807)"/><path d="M8.16 7.8A18.29 18.29 0 016 7.66C5.16 7.55.93 7 1.12 5.41c.11-.86 1.44-1 1.88-1.06a14.7 14.7 0 013.41.07c.85.11 5.07.71 4.88 2.25-.1.86-1.44 1-1.88 1.06a9.7 9.7 0 01-1.25.07zm-6-2.26a9.54 9.54 0 003.97 1.13 9.6 9.6 0 004.08-.13 9.42 9.42 0 00-3.93-1.13 9.6 9.6 0 00-4.08.13z" class="cls-1"/><path d="M6.08 22.21a15.16 15.16 0 01-1.87-.12c-.73-.09-4.38-.62-4.2-2L1.12 5.43A.5.5 0 011.66 5a.5.5 0 01.46.54L1 20.12a7.33 7.33 0 003.32 1A7.58 7.58 0 007.8 21l2.5-14.47a.49.49 0 01.58-.41.5.5 0 01.41.58L8.77 21.21c-.1.79-1.46 1-2.69 1zM7.78 21zM1 20.18z" class="cls-1"/><path d="M7.91 9.74l-.2 1.83a.46.46 0 01-.5.41l-1.07-.11.26.74a.39.39 0 01-.23.5l-1.64.58a.39.39 0 01-.5-.24l-.58-1.64a.38.38 0 01.23-.49l1.11-.39v-.28a3.64 3.64 0 01-2.61 0c-.15 1.79-.54 7.58-.65 8.89 0 .6 5.59 1.4 5.7.81.32-1.64 1.5-8.3 1.88-10.35a3.17 3.17 0 00-1.2-.26zM20.75 9.88a3.61 3.61 0 01-2.6.2l.07.34 1.21.31a.39.39 0 01.27.48l-.44 1.68a.38.38 0 01-.47.28l-1.69-.44a.39.39 0 01-.27-.48l.23-.87-1.18.23a.45.45 0 01-.53-.36L15 9.44a3.15 3.15 0 00-1.18.4c.55 2 2.3 8.5 2.73 10.13.15.59 5.7-.7 5.6-1.29-.21-1.3-1.09-7.03-1.4-8.8z" class="cls-1"/></g></g></g></svg>