<svg viewBox="0 0 24 24" fill="currentColor"><path d="M19.5 0C16.739 0 15 2.238 15 5v4c0 .553.448 1 1 1s1-.447 1-1V5c0-1.657.843-3 2.5-3S22 3.343 22 5v4c0 .553-.448 1-1 1s-1-.447-1-1V6c0-.553-.448-1-1-1s-1 .447-1 1v3c0 1.657 1.343 3 3 3 1.685 0 3-1.394 3-3V5c0-2.762-1.739-5-4.5-5zM23 14c-.552 0-1 .447-1 1v5H2V9.821l9.463 6.022.01-.016c.155.101.329.173.527.173s.372-.072.527-.172l.009.016 3-2-.01-.016c.279-.178.474-.474.474-.828 0-.553-.448-1-1-1-.198 0-.372.072-.527.172l-.01-.016-2.476 1.65L2 7.451V6h10c.552 0 1-.447 1-1s-.448-1-1-1H1c-.552 0-1 .447-1 1v16c0 .553.448 1 1 1h22c.552 0 1-.447 1-1v-6c0-.553-.448-1-1-1z"/></svg>