<svg viewBox="0 0 24 24" fill="currentColor"><path d="M16.293 9.707L18.586 12l-2.293 2.293c-.181.181-.293.431-.293.707 0 .553.447 1 1 1 .276 0 .526-.112.707-.293l3-3c.181-.181.293-.431.293-.707s-.112-.526-.293-.707l-3-3C17.526 8.112 17.276 8 17 8c-.553 0-1 .447-1 1 0 .276.112.526.293.707zM9 19c.391 0 .721-.23.886-.558l.009.005 5.991-12.005C15.953 6.308 16 6.161 16 6c0-.553-.447-1-1-1-.391 0-.721.23-.886.558l-.009-.005-6 12S8 17.674 8 18c0 .553.447 1 1 1zm-2.707-3.293c.181.181.431.293.707.293.553 0 1-.447 1-1 0-.276-.112-.526-.293-.707L5.414 12l2.293-2.293C7.888 9.526 8 9.276 8 9c0-.553-.447-1-1-1-.276 0-.526.112-.707.293l-3 3C3.112 11.474 3 11.724 3 12s.112.526.293.707l3 3zM23 2H1c-.553 0-1 .447-1 1v18c0 .553.447 1 1 1h22c.553 0 1-.447 1-1V3c0-.553-.447-1-1-1zm-1 18H2V4h20v16z"/></svg>