<svg viewBox="0 0 24 24" fill="currentColor"><path d="M15 17c-.276 0-.526.112-.707.293L13 18.586V8c0-.553-.447-1-1-1s-1 .447-1 1v10.586l-1.293-1.293C9.526 17.112 9.276 17 9 17c-.553 0-1 .447-1 1 0 .276.112.526.293.707l3 3c.181.181.431.293.707.293s.526-.112.707-.293l3-3c.181-.181.293-.431.293-.707 0-.553-.447-1-1-1zm5-10c-.027 0-.052.008-.078.008C19.438 3.613 16.528 1 13 1 9.475 1 6.57 3.609 6.084 7H4c-2.209 0-4 1.791-4 4s1.791 4 4 4h4c.553 0 1-.447 1-1s-.447-1-1-1H4c-1.104 0-2-.896-2-2s.896-2 2-2h4V8c0-2.762 2.238-5 5-5s5 2.238 5 5v1h2c1.104 0 2 .896 2 2s-.896 2-2 2h-4c-.553 0-1 .447-1 1s.447 1 1 1h4c2.209 0 4-1.791 4-4s-1.791-4-4-4z"/></svg>