<svg viewBox="0 0 24 24" fill="currentColor"><path d="M23 17h-4v-.798l3.555-2.37-.01-.016c.268-.178.455-.469.455-.816 0-.276-.112-.526-.293-.707L19.414 9l3.293-3.293C22.888 5.526 23 5.276 23 5c0-.391-.23-.721-.557-.886l.004-.009-6-3-.004.009C16.308 1.047 16.161 1 16 1c-.276 0-.526.112-.707.293L12 4.586 8.707 1.293C8.526 1.112 8.276 1 8 1c-.161 0-.308.047-.443.114l-.004-.009-6 3 .004.009C1.23 4.279 1 4.609 1 5c0 .276.112.526.293.707L4.66 9.074l-3.441 4.301.012.01C1.094 13.556 1 13.764 1 14c0 .391.23.721.557.886l-.004.009L5 16.618V17H1c-.552 0-1 .447-1 1s.448 1 1 1h4c0 .391.23.721.557.886l-.004.009 6 3 .004-.009c.135.067.282.114.443.114s.308-.047.443-.114l.004.009 6-3-.004-.009c.327-.165.557-.495.557-.886h4c.552 0 1-.447 1-1s-.448-1-1-1zM16.197 3.217l4.115 2.057-2.509 2.51-4.115-2.058 2.509-2.509zM15.764 9L12 10.882 8.236 9 12 7.118 15.764 9zM3.688 5.273l4.115-2.057 2.509 2.509-4.115 2.058-2.509-2.51zm-.134 8.386l2.722-3.403 4.17 2.085-2.722 3.403-4.17-2.085zM17 18.382l-5 2.5-5-2.5v-.764l.553.276.004-.009c.135.068.282.115.443.115.316 0 .586-.156.769-.385l.012.01L12 13.601l3.219 4.024.012-.01c.183.229.453.385.769.385.206 0 .386-.077.544-.184l.01.016.446-.297v.847zm-.792-2.723l-2.654-3.318 4.249-2.124 2.627 2.628-4.222 2.814z"/></svg>