<svg viewBox="0 0 24 24.004" fill="currentColor"><path d="M23.951 8.712c-.118-.364-.432-.631-.811-.686l-7.076-1.032L12.9.562C12.731.218 12.382 0 12 0s-.731.218-.9.562L7.936 6.995.859 8.026c-.378.055-.692.322-.81.686-.118.364-.02.765.254 1.033l5.12 5.008-1.208 7.069c-.064.378.091.76.399.986.309.226.719.255 1.057.076L12 19.547l6.329 3.337c.146.077.307.116.466.116.208 0 .415-.065.59-.192.309-.226.464-.608.4-.986l-1.208-7.069 5.121-5.008c.272-.268.371-.669.253-1.033zm-7.154 4.968c-.236.231-.344.564-.289.892l.954 5.58-4.995-2.635c-.292-.154-.642-.154-.934 0l-4.995 2.635.954-5.58c.055-.327-.053-.66-.289-.892L3.161 9.727l5.586-.815c.327-.048.609-.254.755-.552L12 3.283l2.499 5.077c.146.298.428.504.755.552l5.586.815-4.043 3.953z"/></svg>