<svg viewBox="0 0 24 23.999" fill="currentColor"><path d="M14.693 9.273c-.389-.39-1.02-.39-1.409 0-.39.389-.39 1.021 0 1.41 0 0 1.904 2.136-.195 4.234-1.199 1.2-4.725 4.944-5.924 6.144-1.199 1.2-3.118 1.225-4.285.058-1.168-1.168-1.143-3.087.057-4.287.772-.773 1.893-1.894 3.418-3.418.002-.002.005-.002.007-.005.389-.39.389-1.02 0-1.41-.39-.39-1.021-.39-1.409 0H4.95c-1.387 1.386-2.08 2.08-3.423 3.423-1.999 2-2.042 5.199-.096 7.145s5.145 1.904 7.144-.096c1.999-1.999 3.925-4.144 5.923-6.143 1.98-1.98 2.129-5.04.238-6.992-.017-.019-.023-.044-.043-.063zm7.874-7.841c-1.946-1.946-5.144-1.904-7.143.096-2 1.999-3.926 4.019-5.924 6.018-1.98 1.98-2.159 5.133-.269 7.085.017.021.023.044.042.064.39.39 1.02.39 1.409 0 .673-.673.044-1.453.044-1.453-1.167-1.168-1.017-3.086.183-4.285 1.199-1.2 4.725-4.819 5.924-6.019s3.118-1.225 4.286-.058c1.167 1.168 1.142 3.087-.058 4.287-2.188 2.19-3.34 3.338-3.425 3.423-.389.389-.389 1.02 0 1.41.39.39 1.021.39 1.41 0h.003c1.387-1.387 2.08-2.08 3.424-3.423 1.999-2 2.041-5.199.094-7.145z"/></svg>