<svg viewBox="0 0 24 24" fill="currentColor"><path d="M12 8c2.209 0 4-1.791 4-4s-1.791-4-4-4-4 1.791-4 4 1.791 4 4 4zm0-6c1.104 0 2 .896 2 2s-.896 2-2 2-2-.896-2-2 .896-2 2-2zm8 14c-2.209 0-4 1.791-4 4s1.791 4 4 4 4-1.791 4-4-1.791-4-4-4zm0 6c-1.104 0-2-.896-2-2s.896-2 2-2 2 .896 2 2-.896 2-2 2zM4 16c-2.209 0-4 1.791-4 4s1.791 4 4 4 4-1.791 4-4-1.791-4-4-4zm0 6c-1.104 0-2-.896-2-2s.896-2 2-2 2 .896 2 2-.896 2-2 2zm13-6c0-.327-.168-.604-.41-.786l.01-.014-3.6-2.7V10c0-.553-.447-1-1-1s-1 .447-1 1v2.5l-3.6 2.7.01.014c-.243.182-.41.459-.41.786 0 .553.447 1 1 1 .226 0 .423-.088.59-.214l.01.014 3.4-2.55 3.4 2.55.01-.014c.167.126.364.214.59.214.553 0 1-.447 1-1z"/></svg>