<svg viewBox="0 0 24 24" fill="currentColor"><path d="M18 13c1.657 0 3-1.343 3-3V8c0-1.657-1.343-3-3-3s-3 1.343-3 3v2c0 1.657 1.343 3 3 3zm-1-5c0-.553.447-1 1-1s1 .447 1 1v2c0 .553-.447 1-1 1s-1-.447-1-1V8zm-9 7H4c-2.209 0-4 1.791-4 4v2c0 .553.447 1 1 1s1-.447 1-1v-2c0-1.104.896-2 2-2h4c1.104 0 2 .896 2 2v2c0 .553.447 1 1 1s1-.447 1-1v-2c0-2.209-1.791-4-4-4zm12 0h-4c-1.066 0-2.029.424-2.746 1.104.475.859.746 1.845.746 2.896 0-1.104.896-2 2-2h4c1.104 0 2 .896 2 2v2c0 .553.447 1 1 1s1-.447 1-1v-2c0-2.209-1.791-4-4-4zM6 13c1.657 0 3-1.343 3-3V8c0-1.657-1.343-3-3-3S3 6.343 3 8v2c0 1.657 1.343 3 3 3zM5 8c0-.553.447-1 1-1s1 .447 1 1v2c0 .553-.447 1-1 1s-1-.447-1-1V8z"/></svg>