<svg viewBox="0 0 24 24" fill="currentColor"><path d="M23.707 20.293l-6-6C17.526 14.112 17.276 14 17 14c-.277 0-.517.121-.695.305l-.305.281-1.686-1.686C15.367 11.546 16 9.849 16 8c0-4.418-3.582-8-8-8S0 3.582 0 8s3.582 8 8 8c1.849 0 3.546-.633 4.9-1.686L14.586 16l-.293.293S14 16.461 14 17c0 .546.293.707.293.707l6 6c.181.181.431.293.707.293.546 0 .707-.293.707-.293l2-2S24 21.546 24 21c0-.276-.112-.526-.293-.707zM8 14c-3.313 0-6-2.687-6-6s2.687-6 6-6 6 2.687 6 6-2.687 6-6 6zm13 7.586L16.414 17l.586-.586L21.586 21l-.586.586zM8 4C5.791 4 4 5.791 4 8c0 .553.447 1 1 1s1-.447 1-1c0-1.104.896-2 2-2 .553 0 1-.447 1-1s-.447-1-1-1z"/></svg>