<svg viewBox="0 0 24 24" fill="currentColor"><path d="M16 12c.553 0 1-.672 1-1.5S16.553 9 16 9s-1 .672-1 1.5.447 1.5 1 1.5zm-8 0c.553 0 1-.672 1-1.5S8.553 9 8 9s-1 .672-1 1.5.447 1.5 1 1.5zm4-12C5.372 0 0 5.373 0 12s5.372 12 12 12c6.627 0 12-5.373 12-12S18.627 0 12 0zm0 22C6.478 22 2 17.522 2 12S6.478 2 12 2s10 4.478 10 10-4.478 10-10 10zm6.482-7.875c-.479-.276-1.09-.112-1.366.366C16.012 16.404 14.209 17 12 17s-4.012-.596-5.116-2.509c-.276-.479-.888-.643-1.366-.366-.478.276-.642.888-.365 1.366C6.809 18.361 8.687 19 12 19s5.191-.639 6.848-3.509c.276-.478.112-1.09-.366-1.366z"/></svg>