<svg viewBox="0 0 24 24" fill="currentColor"><path d="M13.707 10.293C13.526 10.112 13.276 10 13 10c-.553 0-1 .447-1 1 0 .276.112.526.293.707L13.586 13H7c-.553 0-1 .447-1 1s.447 1 1 1h6.586l-1.293 1.293c-.181.181-.293.431-.293.707 0 .553.447 1 1 1 .276 0 .526-.112.707-.293l3-3c.181-.181.293-.431.293-.707s-.112-.526-.293-.707l-3-3zm7.261-.479c.006-.106.032-.207.032-.314C21 5.91 18.09 3 14.5 3c-2.238 0-4.211 1.132-5.38 2.854C8.381 5.322 7.48 5 6.5 5 4.015 5 2 7.015 2 9.5c0 .333.041.654.11.967C.829 11.566 0 13.179 0 15c0 3.313 2.687 6 6 6h12c3.313 0 6-2.687 6-6 0-2.229-1.229-4.15-3.032-5.186zM18 19H6c-2.209 0-4-1.791-4-4 0-1.753 1.135-3.226 2.704-3.767C4.27 10.783 4 10.174 4 9.5 4 8.119 5.119 7 6.5 7s2.487 1.099 2.487 2.479c0 .656 1.013.667 1.013.021C10 7.015 12.015 5 14.5 5S19 7.015 19 9.5c0 .555-.114 1.08-.298 1.57C20.575 11.404 22 13.031 22 15c0 2.209-1.791 4-4 4z"/></svg>