<svg viewBox="0 0 24 24" fill="currentColor"><path d="M1 7h19.586l-3.293 3.293c-.181.181-.293.431-.293.707 0 .553.447 1 1 1 .276 0 .526-.112.707-.293l5-5C23.888 6.526 24 6.276 24 6s-.112-.526-.293-.707l-5-5C18.526.112 18.276 0 18 0c-.553 0-1 .447-1 1 0 .276.112.526.293.707L20.586 5H1c-.553 0-1 .447-1 1s.447 1 1 1zm22 10H3.414l3.293-3.293C6.888 13.526 7 13.276 7 13c0-.553-.447-1-1-1-.276 0-.526.112-.707.293l-5 5C.112 17.474 0 17.724 0 18s.112.526.293.707l5 5c.181.181.431.293.707.293.553 0 1-.447 1-1 0-.276-.112-.526-.293-.707L3.414 19H23c.553 0 1-.447 1-1s-.447-1-1-1z"/></svg>