<svg viewBox="0 0 24 24" fill="currentColor"><path d="M16.229 12.284c-.405-.404-1.063-.404-1.469 0l-1.266 1.137c-.56-.307-1.135-.726-1.673-1.262s-.958-1.109-1.266-1.668l1.109-1.262c.405-.404.405-1.06 0-1.464L10.351 6.3c-.405-.404-1.063-.404-1.469 0-1.623 1.617-.966 4.896 1.469 7.323 2.435 2.426 5.724 3.082 7.347 1.464.405-.404.405-1.06 0-1.464l-1.469-1.339zM13 0C6.925 0 2 4.925 2 11c0 1.668.396 3.234 1.063 4.648L.082 22.606C.029 22.728 0 22.86 0 23c0 .553.447 1 1 1 .141 0 .27-.037.39-.09l.004.009 6.958-2.981C9.766 21.604 11.332 22 13 22c6.075 0 11-4.925 11-11S19.075 0 13 0zm0 20c-1.624 0-3.144-.437-4.459-1.189l-5.637 2.285 2.285-5.637C4.437 14.144 4 12.624 4 11c0-4.971 4.029-9 9-9s9 4.029 9 9-4.029 9-9 9z"/></svg>