<svg viewBox="0 0 24 24" fill="currentColor"><path d="M12 9c-3.191 0-6.084 1.248-8.237 3.271 0 0-.285.185-.285.729 0 .553.448 1 1.002 1 .307 0 .571-.145.755-.36C7.019 12.007 9.388 11 12 11c2.659 0 5.07 1.04 6.865 2.726 0 0 .161.243.655.243.554 0 1.002-.447 1.002-1 0-.285-.178-.561-.299-.712C18.07 10.244 15.184 9 12 9zm1.371 10.547C13.012 19.21 12.532 19 12 19s-1.012.21-1.371.547c0 0-1.183.837.144 1.397.475 0 1.227.056 1.227.056s.821-.053 1.163-.053c1.308-.511.208-1.4.208-1.4zm3.296-3.759C15.425 14.682 13.796 14 12 14s-3.425.682-4.667 1.788c.279-.244-.347.155-.347.743 0 .553.449 1 1.003 1 .21 0 .396-.08.557-.19 0 0 .826-1.341 3.453-1.341s3.453 1.341 3.453 1.341c.162.11.347.19.557.19.554 0 1.003-.447 1.003-1 .001-.592-.438-.823-.345-.743zm3.553-3.534c-.108-.134-.166-.165 0 0zm3.45-3.621C20.619 5.768 16.521 4 12 4S3.381 5.768.33 8.633c0 0-.33.168-.33.742 0 .553.448 1 1.002 1 .279 0 .53-.114.712-.297C4.405 7.556 8.016 6 12 6s7.595 1.556 10.286 4.078c.182.183.433.297.712.297.554 0 1.002-.447 1.002-1 0-.574-.33-.742-.33-.742z"/></svg>